<svg xmlns="http://www.w3.org/2000/svg" viewBox="0 0 136.8 137"><g data-name="Layer 1"><path fill="#091f2f" d="M0 .06h136.8v136.8H0z"/><path d="M26.41 64h14.31V49.74H26.41zM29 52.33h9.12v9.12H29zM43.83 64h14.31V49.74H43.83zm2.6-11.71h9.11v9.12h-9.11zM61.25 64h14.31V49.74H61.25zm2.6-11.71H73v9.12h-9.15zM78.67 64H93V49.74H78.67zm2.6-11.71h9.12v9.12h-9.12zm-2.6 28.58H93V66.56H78.67zm2.6-11.71h9.12v9.11h-9.12zM26.41 80.87h14.31V66.56H26.41zM29 69.16h9.12v9.11H29zm14.83 11.71h14.31V66.56H43.83zm2.6-11.71h9.11v9.11h-9.11zm14.82 11.71h14.31V66.56H61.25zm2.6-11.71H73v9.11h-9.15zm14.82 28.53H93v-14.3H78.67zM81.27 86h9.12v9.1h-9.12zM96 64h14.3V49.74H96zm2.59-11.71h9.12v9.12h-9.1zM96 80.87h14.3V66.56H96zm2.59-11.71h9.12v9.11h-9.1zm-2.57 14.23h14.3v14.3h-14.3zm-69.61 14.3h14.31v-14.3H26.41zM29 86h9.12v9.1H29zm14.83 11.69h14.31v-14.3H43.83zM46.43 86h9.11v9.1h-9.11zm14.82 11.69h14.31v-14.3H61.25zM63.85 86H73v9.1h-9.15z" fill="#288be4"/><path d="M21.06 32v72.76h94.68V32zm2.86 2.22h88.88v9.37H23.92zm89.22 67.92H23.66V46.51h89.48z" fill="#288be4"/></g></svg>