<svg xmlns="http://www.w3.org/2000/svg" xmlns:xlink="http://www.w3.org/1999/xlink" viewBox="0 0 136.8 137"><defs><clipPath id="clip-path"><circle cx="61.25" cy="546.89" r="45.94" fill="none"/></clipPath><clipPath id="clip-path-2"><circle cx="61.25" cy="546.89" r="39.57" fill="none"/></clipPath></defs><title>EXPERIENTIAL ICONS 3</title><g id="Layer_1" data-name="Layer 1"><rect y="0.06" width="136.8" height="136.8" fill="#091f2f"/><path d="M26.41,64H40.72V49.74H26.41ZM29,52.33h9.12v9.12H29Z" fill="#288be4"/><path d="M43.83,64H58.14V49.74H43.83Zm2.6-11.71h9.11v9.12H46.43Z" fill="#288be4"/><path d="M61.25,64H75.56V49.74H61.25Zm2.6-11.71H73v9.12H63.85Z" fill="#288be4"/><path d="M78.67,64H93V49.74H78.67Zm2.6-11.71h9.12v9.12H81.27Z" fill="#288be4"/><path d="M78.67,80.87H93V66.56H78.67Zm2.6-11.71h9.12v9.11H81.27Z" fill="#288be4"/><path d="M26.41,80.87H40.72V66.56H26.41ZM29,69.16h9.12v9.11H29Z" fill="#288be4"/><path d="M43.83,80.87H58.14V66.56H43.83Zm2.6-11.71h9.11v9.11H46.43Z" fill="#288be4"/><path d="M61.25,80.87H75.56V66.56H61.25Zm2.6-11.71H73v9.11H63.85Z" fill="#288be4"/><path d="M78.67,97.69H93V83.39H78.67ZM81.27,86h9.12V95.1H81.27Z" fill="#288be4"/><path d="M96,64h14.3V49.74H96Zm2.59-11.71h9.12v9.12H98.61Z" fill="#288be4"/><path d="M96,80.87h14.3V66.56H96Zm2.59-11.71h9.12v9.11H98.61Z" fill="#288be4"/><rect x="96.02" y="83.39" width="14.3" height="14.3" fill="#288be4"/><path d="M26.41,97.69H40.72V83.39H26.41ZM29,86h9.12V95.1H29Z" fill="#288be4"/><path d="M43.83,97.69H58.14V83.39H43.83ZM46.43,86h9.11V95.1H46.43Z" fill="#288be4"/><path d="M61.25,97.69H75.56V83.39H61.25ZM63.85,86H73V95.1H63.85Z" fill="#288be4"/><path d="M21.06,32V45.21h0v59.55h94.68V32Zm2.86,2.22H112.8v9.37H23.92Zm89.22,67.92H23.66V46.51h89.48Z" fill="#288be4"/></g></svg>