<svg xmlns="http://www.w3.org/2000/svg" id="Layer_2" viewBox="0 0 40 40"><style>.st0{fill:#FFFFFF;stroke:#0C1F2E;stroke-width:0.45;} .st1{fill:#0C1F2E;stroke:#0C1F2E;stroke-width:0.25;stroke-miterlimit:10;}</style><circle cx="20" cy="20" r="20" class="st0"/><path d="M31.4 29.3c-.2-5-3.5-9.1-8.3-10.5 2.2-1.2 3.6-3.5 3.6-5.9 0-3.7-3-6.7-6.7-6.7s-6.7 3-6.7 6.7c0 2.5 1.4 4.8 3.6 5.9-4.7 1.3-8 5.5-8.3 10.5v.6h22.8v-.6zM20.2 18.5s-.1 0 0 0h-.4c-3.1-.1-5.5-2.6-5.5-5.7s2.6-5.7 5.7-5.7 5.7 2.6 5.7 5.7-2.4 5.6-5.5 5.7zm-.4 1.1h.4c5.2.1 9.4 4 9.9 9.1H9.9c.5-5 4.8-9 9.9-9.1z" class="st1"/></svg>
