<svg id="Layer_1" data-name="Layer 1" xmlns="http://www.w3.org/2000/svg" viewBox="0 0 276 137"><defs><style>.cls-1,.cls-5{fill:none}.cls-2{fill:#fff}.cls-3{clip-path:url(#clip-path)}.cls-4{clip-path:url(#clip-path-2)}.cls-5{stroke:#0f1f2d;stroke-linecap:round;stroke-miterlimit:10;stroke-width:6px}.cls-6{clip-path:url(#clip-path-3)}.cls-7{clip-path:url(#clip-path-4)}.cls-10{fill:#091f2f}</style><clipPath id="clip-path"><circle class="cls-1" cx="138" cy="67.27" r="50.5"/></clipPath><clipPath id="clip-path-2"><rect class="cls-1" x="-36.5" y="-668.73" width="1121" height="1030" rx="515" ry="515"/></clipPath><clipPath id="clip-path-3"><circle class="cls-1" cx="138" cy="67.27" r="43.5"/></clipPath><clipPath id="clip-path-4"><path class="cls-1" d="M-36.5-153.73c0 284.43 230.57 515 515 515h91c284.43 0 515-230.57 515-515s-230.57-515-515-515"/></clipPath><clipPath id="clip-path-5"><circle class="cls-1" cx="433.48" cy="384.59" r="50.5"/></clipPath><clipPath id="clip-path-6"><circle class="cls-1" cx="433.48" cy="384.59" r="43.5"/></clipPath></defs><circle class="cls-2" cx="138.36" cy="67.41" r="48.55" transform="rotate(-45 138.362 67.409)"/><g class="cls-3"><g class="cls-4"><circle class="cls-5" cx="138" cy="67.27" r="50.5"/></g></g><g class="cls-6"><g class="cls-7"><circle class="cls-5" cx="138" cy="67.27" r="43.5"/></g></g><path class="cls-10" d="M112.56 47h7a17.13 17.13 0 0 1 4.7.43 4.44 4.44 0 0 1 2.74 5.95 4.41 4.41 0 0 1-3.52 2.4 5.64 5.64 0 0 1 3.52 1.53 4 4 0 0 1 1 2.69 4.8 4.8 0 0 1-3 4.37 11.93 11.93 0 0 1-4.88.66h-7.61zm4.29 3.37v3.75h3.4c1 0 2.68-.08 2.68-1.94s-1.51-1.81-2.37-1.81zm0 7v4.37H120c1.51 0 3.47-.08 3.47-2.14s-1.79-2.2-2.71-2.22zm21.98 8.19c-5.72 0-9-4.39-9-9.6 0-4.88 3.09-9.5 8.89-9.5A10 10 0 0 1 142 47c5.51 1.92 5.87 7.92 5.87 9.14a9.8 9.8 0 0 1-3.42 7.53 8.67 8.67 0 0 1-5.62 1.89zm3.12-14a4.39 4.39 0 0 0-3.17-1.33c-2.73 0-4.47 2.4-4.47 5.67 0 4.29 2.4 5.87 4.52 5.87s4.44-1.53 4.57-5.31a7 7 0 0 0-1.46-4.92zM152 59.64a5.68 5.68 0 0 0 1.74 1.4 7.42 7.42 0 0 0 3.47.87c1.79 0 3.32-.84 3.32-2.09 0-1.43-1.81-1.66-3.14-1.84-1-.13-2-.26-3-.46s-4.85-1-4.85-4.9c0-4.65 4.14-6 7.25-6a11 11 0 0 1 8 3.42l-3.32 2.37a8.28 8.28 0 0 0-1.79-1.46 6.48 6.48 0 0 0-2.94-.79c-1.79 0-2.68 1-2.68 1.89 0 1.38 1.53 1.58 2.3 1.68a35.17 35.17 0 0 1 5.51 1.07 4.47 4.47 0 0 1 3.13 4.4 6 6 0 0 1-1.41 3.8c-1.63 1.89-4.24 2.43-6.77 2.43-5.08 0-7.1-2.35-8.22-3.65zm-39 14.8h4.09v4.29H113zm0 9h4.09v4.34H113zm12-8.05a5.62 5.62 0 0 1 1.92-4 6.64 6.64 0 0 1 4.14-1.23 6.06 6.06 0 0 1 4.09 1.2 4.47 4.47 0 0 1 1.56 3.45 3.88 3.88 0 0 1-1.3 3 5.39 5.39 0 0 1-1.56.84 7.24 7.24 0 0 1 1 .28 3.82 3.82 0 0 1 2.3 3.68 5.3 5.3 0 0 1-1.2 3.32 6.68 6.68 0 0 1-5.36 2.14 6 6 0 0 1-4.67-1.89 6.24 6.24 0 0 1-1.21-4.18l4-.33v.74c0 1.61.94 2.55 2.12 2.55a2.26 2.26 0 0 0 2.27-2.55c0-2.35-2.12-2.25-3.12-2.2v-2.98a4.29 4.29 0 0 0 1.28-.05 1.93 1.93 0 0 0 1.48-2 1.83 1.83 0 0 0-1.86-2c-1.76 0-1.76 1.76-1.76 2.5zM140.84 73a6.91 6.91 0 0 0 2.86-.64 3.62 3.62 0 0 0 1.79-1.94h3.11v17.35h-4.11V75.13c-.94.41-1.17.51-3.65.56zm12.74 0a6.91 6.91 0 0 0 2.86-.64 3.62 3.62 0 0 0 1.79-1.94h3.11v17.35h-4.11V75.13c-.94.41-1.17.51-3.65.56z"/></svg>