<svg xmlns="http://www.w3.org/2000/svg" xmlns:xlink="http://www.w3.org/1999/xlink" viewBox="0 0 276 137"><defs><circle id="a" cx="434" cy="-246.5" r="50.5"/></defs><clipPath id="b"><use xlink:href="#a" overflow="visible"/></clipPath><defs><circle id="c" cx="434" cy="-246.5" r="43.5"/></defs><clipPath id="d"><use xlink:href="#c" overflow="visible"/></clipPath><defs><circle id="e" cx="-76.9" cy="80.3" r="50.5"/></defs><clipPath id="f"><use xlink:href="#e" overflow="visible"/></clipPath><defs><circle id="g" cx="-76.9" cy="80.3" r="43.5"/></defs><clipPath id="h"><use xlink:href="#g" overflow="visible"/></clipPath><path fill="#0C1F2E" d="M85.9 27.8h14c3.8 0 7.2.2 9.4.9 4.5 1.4 6.3 5 6.3 8.4 0 1.9-.5 3.1-.7 3.5-1.6 3.7-5.1 4.4-7.1 4.8 2.2.4 5.1.8 7.1 3.1 1.3 1.4 2 3.4 2 5.4 0 2.8-1.5 6.8-6 8.8-2.7 1.2-5.6 1.3-9.8 1.3H85.9V27.8zm8.6 6.8v7.5h6.8c2.1-.1 5.4-.2 5.4-3.9 0-3.5-3-3.6-4.8-3.6h-7.4zm0 14.1v8.8h6.3c3-.1 7-.2 7-4.3 0-4.4-3.6-4.4-5.4-4.5h-7.9zm44.2 16.4c-11.5 0-18-8.8-18-19.3 0-9.8 6.2-19.1 17.9-19.1 2.2 0 4.4.3 6.6 1.1 11.1 3.8 11.8 15.9 11.8 18.4 0 6.3-2.9 11.9-6.9 15.1-3.6 2.9-7.7 3.8-11.4 3.8zm6.2-28.2c-1.5-1.6-3.9-2.7-6.4-2.7-5.5 0-9 4.8-9 11.4 0 8.6 4.8 11.8 9.1 11.8s8.9-3.1 9.2-10.7c.2-3.7-.8-7.6-2.9-9.8zm20.3 16.3c.9 1 1.7 1.8 3.5 2.8 2.4 1.3 4.9 1.7 7 1.7 3.6 0 6.7-1.7 6.7-4.2 0-2.9-3.6-3.3-6.3-3.7-2-.3-4-.5-6-.9-2.2-.5-9.7-2.1-9.7-9.8 0-9.3 8.3-12.1 14.6-12.1 8.4 0 12.9 4.1 16 6.9l-6.7 4.8c-1.1-1.1-2.2-2.1-3.6-2.9-1.3-.7-3.6-1.6-5.9-1.6-3.6 0-5.4 2.1-5.4 3.8 0 2.8 3.1 3.2 4.6 3.4 3.8.5 9 1.4 11.1 2.2 4.2 1.5 6.3 4.8 6.3 8.9 0 2.6-1 5.5-2.9 7.7-3.3 3.8-8.5 4.9-13.6 4.9-10.2 0-14.3-4.7-16.5-7.3l6.8-4.6zM86.8 82.9H95v8.6h-8.2v-8.6zm0 18.1H95v8.7h-8.2V101zM111 84.8c.4-3.2 1.3-6 3.8-8.1 3-2.4 6.9-2.5 8.3-2.5 4.4 0 6.8 1.2 8.2 2.4 2.1 1.7 3.1 4.3 3.1 6.9 0 2.6-1.1 4.8-2.6 6.1-.9.8-2 1.2-3.1 1.7.7.2 1.3.3 2 .6 3.1 1.2 4.6 4.3 4.6 7.4 0 2.4-.9 4.8-2.4 6.7-2.7 3.3-6.9 4.3-10.8 4.3-3.5 0-7.1-1.1-9.4-3.8-2.5-2.9-2.5-6.5-2.5-8.5l8-.7c0 .5-.1 1-.1 1.5 0 3.2 1.9 5.1 4.3 5.1 2.7 0 4.6-1.9 4.6-5.1 0-4.7-4.3-4.5-6.3-4.4v-5.9c.9.1 1.7.1 2.6-.1 3-.7 3-3.6 3-4 0-2.8-2.1-4-3.7-4-3.5 0-3.5 3.5-3.5 5l-8.1-.6zm31.7-4.7c1.9-.2 3.7-.3 5.7-1.3 2.3-1.2 2.9-2.5 3.6-3.9h6.3v34.8H150V84.3c-1.9.8-2.4 1-7.3 1.1v-5.3zm25.6 0c1.9-.2 3.7-.3 5.7-1.3 2.3-1.2 2.9-2.5 3.6-3.9h6.3v34.8h-8.3V84.3c-1.9.8-2.4 1-7.3 1.1v-5.3z"/></svg>