<?xml version="1.0" encoding="utf-8"?>
<!-- Generator: Adobe Illustrator 18.1.1, SVG Export Plug-In . SVG Version: 6.00 Build 0)  -->
<svg version="1.1" id="Layer_1" xmlns="http://www.w3.org/2000/svg" xmlns:xlink="http://www.w3.org/1999/xlink" x="0px" y="0px"
	 viewBox="0 0 276 137" enable-background="new 0 0 276 137" xml:space="preserve">
<g>
	<defs>
		<circle id="SVGID_1019_" cx="434" cy="-246.5" r="50.5"/>
	</defs>
	<clipPath id="SVGID_2_">
		<use xlink:href="#SVGID_1019_"  overflow="visible"/>
	</clipPath>
	<g clip-path="url(#SVGID_2_)">
		<defs>
			<rect id="SVGID_1021_" x="259.5" y="-982.5" width="1121" height="1030"/>
		</defs>
		<clipPath id="SVGID_4_">
			<use xlink:href="#SVGID_1021_"  overflow="visible"/>
		</clipPath>
	</g>
</g>
<g>
	<defs>
		<circle id="SVGID_1023_" cx="434" cy="-246.5" r="43.5"/>
	</defs>
	<clipPath id="SVGID_6_">
		<use xlink:href="#SVGID_1023_"  overflow="visible"/>
	</clipPath>
	<g clip-path="url(#SVGID_6_)">
		<defs>
			<rect id="SVGID_1025_" x="259.5" y="-982.5" width="1121" height="1030"/>
		</defs>
		<clipPath id="SVGID_8_">
			<use xlink:href="#SVGID_1025_"  overflow="visible"/>
		</clipPath>
	</g>
</g>
<g>
	<defs>
		<circle id="SVGID_1035_" cx="-76.9" cy="80.3" r="50.5"/>
	</defs>
	<clipPath id="SVGID_10_">
		<use xlink:href="#SVGID_1035_"  overflow="visible"/>
	</clipPath>
	<g clip-path="url(#SVGID_10_)">
		<defs>
			<path id="SVGID_1037_" d="M263.6,374.3h91c284.4,0,515-230.6,515-515v0c0-284.4-230.6-515-515-515h-91
				c-284.4,0-515,230.6-515,515v0C-251.4,143.8-20.8,374.3,263.6,374.3z"/>
		</defs>
		<clipPath id="SVGID_12_">
			<use xlink:href="#SVGID_1037_"  overflow="visible"/>
		</clipPath>
	</g>
</g>
<g>
	<defs>
		<circle id="SVGID_1039_" cx="-76.9" cy="80.3" r="43.5"/>
	</defs>
	<clipPath id="SVGID_14_">
		<use xlink:href="#SVGID_1039_"  overflow="visible"/>
	</clipPath>
	<g clip-path="url(#SVGID_14_)">
		<defs>
			<path id="SVGID_1041_" d="M-251.4-140.7L-251.4-140.7c0,284.4,230.6,515,515,515h91c284.4,0,515-230.6,515-515v0
				c0-284.4-230.6-515-515-515"/>
		</defs>
		<clipPath id="SVGID_16_">
			<use xlink:href="#SVGID_1041_"  overflow="visible"/>
		</clipPath>
	</g>
</g>
<path fill="#0C1F2E" d="M85.9,27.8h14c3.8,0,7.2,0.2,9.4,0.9c4.5,1.4,6.3,5,6.3,8.4c0,1.9-0.5,3.1-0.7,3.5c-1.6,3.7-5.1,4.4-7.1,4.8
	c2.2,0.4,5.1,0.8,7.1,3.1c1.3,1.4,2,3.4,2,5.4c0,2.8-1.5,6.8-6,8.8c-2.7,1.2-5.6,1.3-9.8,1.3H85.9V27.8z M94.5,34.6v7.5h6.8
	c2.1-0.1,5.4-0.2,5.4-3.9c0-3.5-3-3.6-4.8-3.6H94.5z M94.5,48.7v8.8h6.3c3-0.1,7-0.2,7-4.3c0-4.4-3.6-4.4-5.4-4.5H94.5z"/>
<path fill="#0C1F2E" d="M138.7,65.1c-11.5,0-18-8.8-18-19.3c0-9.8,6.2-19.1,17.9-19.1c2.2,0,4.4,0.3,6.6,1.1
	c11.1,3.8,11.8,15.9,11.8,18.4c0,6.3-2.9,11.9-6.9,15.1C146.5,64.2,142.4,65.1,138.7,65.1z M144.9,36.9c-1.5-1.6-3.9-2.7-6.4-2.7
	c-5.5,0-9,4.8-9,11.4c0,8.6,4.8,11.8,9.1,11.8c4.3,0,8.9-3.1,9.2-10.7C148,43,147,39.1,144.9,36.9z"/>
<path fill="#0C1F2E" d="M165.2,53.2c0.9,1,1.7,1.8,3.5,2.8c2.4,1.3,4.9,1.7,7,1.7c3.6,0,6.7-1.7,6.7-4.2c0-2.9-3.6-3.3-6.3-3.7
	c-2-0.3-4-0.5-6-0.9c-2.2-0.5-9.7-2.1-9.7-9.8c0-9.3,8.3-12.1,14.6-12.1c8.4,0,12.9,4.1,16,6.9l-6.7,4.8c-1.1-1.1-2.2-2.1-3.6-2.9
	c-1.3-0.7-3.6-1.6-5.9-1.6c-3.6,0-5.4,2.1-5.4,3.8c0,2.8,3.1,3.2,4.6,3.4c3.8,0.5,9,1.4,11.1,2.2c4.2,1.5,6.3,4.8,6.3,8.9
	c0,2.6-1,5.5-2.9,7.7c-3.3,3.8-8.5,4.9-13.6,4.9c-10.2,0-14.3-4.7-16.5-7.3L165.2,53.2z"/>
<path fill="#0C1F2E" d="M86.8,82.9H95v8.6h-8.2V82.9z M86.8,101H95v8.7h-8.2V101z"/>
<path fill="#0C1F2E" d="M111,84.8c0.4-3.2,1.3-6,3.8-8.1c3-2.4,6.9-2.5,8.3-2.5c4.4,0,6.8,1.2,8.2,2.4c2.1,1.7,3.1,4.3,3.1,6.9
	c0,2.6-1.1,4.8-2.6,6.1c-0.9,0.8-2,1.2-3.1,1.7c0.7,0.2,1.3,0.3,2,0.6c3.1,1.2,4.6,4.3,4.6,7.4c0,2.4-0.9,4.8-2.4,6.7
	c-2.7,3.3-6.9,4.3-10.8,4.3c-3.5,0-7.1-1.1-9.4-3.8c-2.5-2.9-2.5-6.5-2.5-8.5l8-0.7c0,0.5-0.1,1-0.1,1.5c0,3.2,1.9,5.1,4.3,5.1
	c2.7,0,4.6-1.9,4.6-5.1c0-4.7-4.3-4.5-6.3-4.4v-5.9c0.9,0.1,1.7,0.1,2.6-0.1c3-0.7,3-3.6,3-4c0-2.8-2.1-4-3.7-4
	c-3.5,0-3.5,3.5-3.5,5L111,84.8z"/>
<path fill="#0C1F2E" d="M142.7,80.1c1.9-0.2,3.7-0.3,5.7-1.3c2.3-1.2,2.9-2.5,3.6-3.9h6.3v34.8H150V84.3c-1.9,0.8-2.4,1-7.3,1.1
	V80.1z"/>
<path fill="#0C1F2E" d="M168.3,80.1c1.9-0.2,3.7-0.3,5.7-1.3c2.3-1.2,2.9-2.5,3.6-3.9h6.3v34.8h-8.3V84.3c-1.9,0.8-2.4,1-7.3,1.1
	V80.1z"/>
</svg>
