<svg xmlns="http://www.w3.org/2000/svg" xmlns:xlink="http://www.w3.org/1999/xlink" viewBox="0 0 276 137"><defs><circle id="a" cx="-466.8" cy="68.5" r="50.5"/></defs><clipPath id="b"><use xlink:href="#a" overflow="visible"/></clipPath><g clip-path="url(#b)"><defs><path id="c" d="M-641.3-667.5h1121v1030h-1121z"/></defs></g><defs><circle id="d" cx="-466.8" cy="68.5" r="43.5"/></defs><clipPath id="e"><use xlink:href="#d" overflow="visible"/></clipPath><g clip-path="url(#e)"><defs><path id="f" d="M-641.3-667.5h1121v1030h-1121z"/></defs></g><path fill="#FFF" stroke="#1B1B1B" stroke-width="3" stroke-linecap="round" stroke-miterlimit="10" d="M136.2 31.1l-34.4.1v46.2c4.4 27.9 34.4 35.5 34.4 35.5s30.6-10.2 34.4-35.5V31.2l-34.4-.1z"/><path fill="#FFF" stroke="#1B1B1B" stroke-width="3" stroke-linecap="round" stroke-miterlimit="10" d="M123.8 83.4c1 1.4 2.2 2.8 3.8 4.1 1.5 1.3 3 2.4 4.6 3.3 1.5.9 3.3 1.8 5.3 2.8h.1c-1.5-2.8-2.2-5.3-2.2-7.4 0-1.1.3-2.2.8-3.2s1.2-1.9 2.1-2.7c.9-.8 1.8-1.6 2.9-2.4 1.1-.8 2.1-1.7 3.2-2.6 1.1-.9 2-1.9 2.9-2.9.9-1 1.6-2.3 2.1-3.7.5-1.5.8-3.1.8-4.8 0-2.2-.3-4.2-.9-6.1-.6-1.9-1.4-3.6-2.4-5s-2.2-2.8-3.8-4.1c-1.5-1.3-3-2.4-4.6-3.3-1.5-.9-3.3-1.8-5.3-2.8h-.1c1.5 2.9 2.2 5.3 2.2 7.4 0 1.1-.3 2.2-.8 3.2s-1.2 1.9-2.1 2.7-1.8 1.6-2.9 2.4c-1.1.8-2.1 1.7-3.2 2.6-1.1.9-2 1.9-2.9 2.9-.9 1-1.6 2.3-2.1 3.7-.5 1.5-.8 3.1-.8 4.8 0 2.2.3 4.2.9 6.1.7 1.9 1.5 3.5 2.4 5z"/><circle fill-rule="evenodd" clip-rule="evenodd" fill="#FFF" stroke="#091F2F" stroke-width="3" stroke-linecap="round" stroke-miterlimit="10" cx="170.5" cy="93.8" r="19"/><text transform="translate(156.894 100.469)"><tspan x="0" y="0" font-family="'Montserrat-Black'" font-size="15.854">9</tspan><tspan x="9.8" y="0" font-family="'Montserrat-Black'" font-size="15">11</tspan></text></svg>