<svg xmlns="http://www.w3.org/2000/svg" xmlns:xlink="http://www.w3.org/1999/xlink" viewBox="0 0 276 137"><defs><path id="a" d="M379.4-458.8h-1.5v84h108v-84H379.4zm0 3h105l-1.5-1.5v81l1.5-1.5h-105l1.5 1.5v-81l-1.5 1.5zm-21.5-23h148v124h-148v-124z"/></defs><clipPath id="b"><use xlink:href="#a" overflow="visible"/></clipPath><g clip-path="url(#b)"><defs><path id="c" d="M379.4-457.3h105v81h-105z"/></defs></g><defs><path id="d" d="M379.4-457.3h105v81h-105z"/></defs><defs><path id="e" d="M373.4-441.8h-2.2l.9-2.1 9.1-22 .4-.9h100.9l.4.9 9.1 22 .9 2.1H373.4zm0-3h117l-1.4 2.1-9.1-22 1.4.9h-98.9l1.4-.9-9.1 22-1.3-2.1zm-22.3 23h161.5v-65H351.1v65z"/></defs><clipPath id="f"><use xlink:href="#e" overflow="visible"/></clipPath><g clip-path="url(#f)"><defs><path id="g" d="M373.4-443.3h117l-9.1-22h-98.8z"/></defs></g><defs><path id="h" d="M373.4-443.3h117l-9.1-22h-98.8z"/></defs><defs><path id="i" d="M458.4-474.8h-1.5v19h15v-19h-13.5zm0 3h12l-1.5-1.5v16l1.5-1.5h-12l1.5 1.5v-16l-1.5 1.5zm-21.5-23h55v59h-55v-59z"/></defs><clipPath id="j"><use xlink:href="#i" overflow="visible"/></clipPath><g clip-path="url(#j)"><defs><path id="k" d="M458.4-473.3h12v16h-12z"/></defs></g><defs><path id="l" d="M458.4-473.3h12v16h-12z"/></defs><defs><path id="m" d="M392.4-408.8h-1.5v34h24v-34h-22.5zm0 3h21l-1.5-1.5v31l1.5-1.5h-21l1.5 1.5v-31l-1.5 1.5zm-21.5-23h64v74h-64v-74z"/></defs><clipPath id="n"><use xlink:href="#m" overflow="visible"/></clipPath><g clip-path="url(#n)"><defs><path id="o" d="M392.4-407.3h21v31h-21z"/></defs></g><defs><path id="p" d="M392.4-407.3h21v31h-21z"/></defs><defs><path id="q" d="M393.4-436.8h-1.5v22h22v-22h-20.5zm0 3h19l-1.5-1.5v19l1.5-1.5h-19l1.5 1.5v-19l-1.5 1.5zm-21.5-23h62v62h-62v-62z"/></defs><clipPath id="r"><use xlink:href="#q" overflow="visible"/></clipPath><g clip-path="url(#r)"><defs><path id="s" d="M393.4-435.3h19v19h-19z"/></defs></g><defs><path id="t" d="M393.4-435.3h19v19h-19z"/></defs><defs><path id="u" d="M398.4-431.8h-1.5v12h12v-12h-10.5zm0 3h9l-1.5-1.5v9l1.5-1.5h-9l1.5 1.5v-9l-1.5 1.5zm-21.5-23h52v52h-52v-52z"/></defs><clipPath id="v"><use xlink:href="#u" overflow="visible"/></clipPath><g clip-path="url(#v)"><defs><path id="w" d="M398.4-430.3h9v9h-9z"/></defs></g><defs><path id="x" d="M398.4-430.3h9v9h-9z"/></defs><defs><path id="y" d="M423.4-436.8h-1.5v22h22v-22h-20.5zm0 3h19l-1.5-1.5v19l1.5-1.5h-19l1.5 1.5v-19l-1.5 1.5zm-21.5-23h62v62h-62v-62z"/></defs><clipPath id="z"><use xlink:href="#y" overflow="visible"/></clipPath><g clip-path="url(#z)"><defs><path id="A" d="M423.4-435.3h19v19h-19z"/></defs></g><defs><path id="B" d="M423.4-435.3h19v19h-19z"/></defs><defs><path id="C" d="M452.4-436.8h-1.5v22h22v-22h-20.5zm0 3h19l-1.5-1.5v19l1.5-1.5h-19l1.5 1.5v-19l-1.5 1.5zm-21.5-23h62v62h-62v-62z"/></defs><clipPath id="D"><use xlink:href="#C" overflow="visible"/></clipPath><g clip-path="url(#D)"><defs><path id="E" d="M452.4-435.3h19v19h-19z"/></defs></g><defs><path id="F" d="M452.4-435.3h19v19h-19z"/></defs><defs><path id="G" d="M423.4-408.8h-1.5v22h22v-22h-20.5zm0 3h19l-1.5-1.5v19l1.5-1.5h-19l1.5 1.5v-19l-1.5 1.5zm-21.5-23h62v62h-62v-62z"/></defs><clipPath id="H"><use xlink:href="#G" overflow="visible"/></clipPath><g clip-path="url(#H)"><defs><path id="I" d="M423.4-407.3h19v19h-19z"/></defs></g><defs><path id="J" d="M423.4-407.3h19v19h-19z"/></defs><defs><path id="K" d="M452.4-408.8h-1.5v22h22v-22h-20.5zm0 3h19l-1.5-1.5v19l1.5-1.5h-19l1.5 1.5v-19l-1.5 1.5zm-21.5-23h62v62h-62v-62z"/></defs><clipPath id="L"><use xlink:href="#K" overflow="visible"/></clipPath><g clip-path="url(#L)"><defs><path id="M" d="M452.4-407.3h19v19h-19z"/></defs></g><defs><path id="N" d="M452.4-407.3h19v19h-19z"/></defs><defs><path id="O" d="M428.4-431.8h-1.5v12h12v-12h-10.5zm0 3h9l-1.5-1.5v9l1.5-1.5h-9l1.5 1.5v-9l-1.5 1.5zm-21.5-23h52v52h-52v-52z"/></defs><clipPath id="P"><use xlink:href="#O" overflow="visible"/></clipPath><g clip-path="url(#P)"><defs><path id="Q" d="M428.4-430.3h9v9h-9z"/></defs></g><defs><path id="R" d="M428.4-430.3h9v9h-9z"/></defs><defs><path id="S" d="M457.4-431.8h-1.5v12h12v-12h-10.5zm0 3h9l-1.5-1.5v9l1.5-1.5h-9l1.5 1.5v-9l-1.5 1.5zm-21.5-23h52v52h-52v-52z"/></defs><clipPath id="T"><use xlink:href="#S" overflow="visible"/></clipPath><g clip-path="url(#T)"><defs><path id="U" d="M457.4-430.3h9v9h-9z"/></defs></g><defs><path id="V" d="M457.4-430.3h9v9h-9z"/></defs><defs><path id="W" d="M428.4-403.8h-1.5v12h12v-12h-10.5zm0 3h9l-1.5-1.5v9l1.5-1.5h-9l1.5 1.5v-9l-1.5 1.5zm-21.5-23h52v52h-52v-52z"/></defs><clipPath id="X"><use xlink:href="#W" overflow="visible"/></clipPath><g clip-path="url(#X)"><defs><path id="Y" d="M428.4-402.3h9v9h-9z"/></defs></g><defs><path id="Z" d="M428.4-402.3h9v9h-9z"/></defs><defs><path id="aa" d="M457.4-403.8h-1.5v12h12v-12h-10.5zm0 3h9l-1.5-1.5v9l1.5-1.5h-9l1.5 1.5v-9l-1.5 1.5zm-21.5-23h52v52h-52v-52z"/></defs><clipPath id="ab"><use xlink:href="#aa" overflow="visible"/></clipPath><g clip-path="url(#ab)"><defs><path id="ac" d="M457.4-402.3h9v9h-9z"/></defs></g><defs><path id="ad" d="M457.4-402.3h9v9h-9z"/></defs><defs><path id="ae" d="M70.5-140H69v90h134v-90H70.5zm0 3h131l-1.5-1.5v87l1.5-1.5h-131l1.5 1.5v-87l-1.5 1.5zM49-160h174v130H49v-130z"/></defs><clipPath id="af"><use xlink:href="#ae" overflow="visible"/></clipPath><g clip-path="url(#af)"><defs><path id="ag" d="M70.5-138.5h131v87h-131z"/></defs></g><defs><path id="ah" d="M70.5-138.5h131v87h-131z"/></defs><defs><path id="ai" d="M75.5-135H74v80h124v-80H75.5zm0 3h121l-1.5-1.5v77l1.5-1.5h-121l1.5 1.5v-77l-1.5 1.5zM54-155h164v120H54v-120z"/></defs><clipPath id="aj"><use xlink:href="#ai" overflow="visible"/></clipPath><g clip-path="url(#aj)"><defs><path id="ak" d="M75.5-133.5h121v77h-121z"/></defs></g><defs><path id="al" d="M75.5-133.5h121v77h-121z"/></defs><defs><path id="am" d="M140.5-120H139v6h47v-6h-45.5zm0 3h44l-1.5-1.5v3l1.5-1.5h-44l1.5 1.5v-3l-1.5 1.5zM119-140h87v46h-87v-46z"/></defs><clipPath id="an"><use xlink:href="#am" overflow="visible"/></clipPath><g clip-path="url(#an)"><defs><path id="ao" d="M140.5-118.5h44v3h-44z"/></defs></g><defs><path id="ap" d="M140.5-118.5h44v3h-44z"/></defs><defs><path id="aq" d="M140.5-114H139v6h47v-6h-45.5zm0 3h44l-1.5-1.5v3l1.5-1.5h-44l1.5 1.5v-3l-1.5 1.5zM119-134h87v46h-87v-46z"/></defs><clipPath id="ar"><use xlink:href="#aq" overflow="visible"/></clipPath><g clip-path="url(#ar)"><defs><path id="as" d="M140.5-112.5h44v3h-44z"/></defs></g><defs><path id="at" d="M140.5-112.5h44v3h-44z"/></defs><defs><path id="au" d="M140.5-108H139v6h47v-6h-45.5zm0 3h44l-1.5-1.5v3l1.5-1.5h-44l1.5 1.5v-3l-1.5 1.5zM119-128h87v46h-87v-46z"/></defs><clipPath id="av"><use xlink:href="#au" overflow="visible"/></clipPath><g clip-path="url(#av)"><defs><path id="aw" d="M140.5-106.5h44v3h-44z"/></defs></g><defs><path id="ax" d="M140.5-106.5h44v3h-44z"/></defs><defs><path id="ay" d="M140.5-102H139v6h47v-6h-45.5zm0 3h44l-1.5-1.5v3l1.5-1.5h-44l1.5 1.5v-3l-1.5 1.5zM119-122h87v46h-87v-46z"/></defs><clipPath id="az"><use xlink:href="#ay" overflow="visible"/></clipPath><g clip-path="url(#az)"><defs><path id="aA" d="M140.5-100.5h44v3h-44z"/></defs></g><defs><path id="aB" d="M140.5-100.5h44v3h-44z"/></defs><defs><path id="aC" d="M364.1-140h-1.5v90h134v-90H364.1zm0 3h131l-1.5-1.5v87l1.5-1.5h-131l1.5 1.5v-87l-1.5 1.5zm-21.5-23h174v130h-174v-130z"/></defs><clipPath id="aD"><use xlink:href="#aC" overflow="visible"/></clipPath><g clip-path="url(#aD)"><defs><path id="aE" d="M364.1-138.5h131v87h-131z"/></defs></g><defs><path id="aF" d="M364.1-138.5h131v87h-131z"/></defs><defs><path id="aG" d="M369.1-135h-1.5v80h124v-80H369.1zm0 3h121l-1.5-1.5v77l1.5-1.5h-121l1.5 1.5v-77l-1.5 1.5zm-21.5-23h164v120h-164v-120z"/></defs><clipPath id="aH"><use xlink:href="#aG" overflow="visible"/></clipPath><g clip-path="url(#aH)"><defs><path id="aI" d="M369.1-133.5h121v77h-121z"/></defs></g><defs><path id="aJ" d="M369.1-133.5h121v77h-121z"/></defs><defs><path id="aK" d="M434.1-120h-1.5v6h47v-6h-45.5zm0 3h44l-1.5-1.5v3l1.5-1.5h-44l1.5 1.5v-3l-1.5 1.5zm-21.5-23h87v46h-87v-46z"/></defs><clipPath id="aL"><use xlink:href="#aK" overflow="visible"/></clipPath><g clip-path="url(#aL)"><defs><path id="aM" d="M434.1-118.5h44v3h-44z"/></defs></g><defs><path id="aN" d="M434.1-118.5h44v3h-44z"/></defs><defs><path id="aO" d="M434.1-114h-1.5v6h47v-6h-45.5zm0 3h44l-1.5-1.5v3l1.5-1.5h-44l1.5 1.5v-3l-1.5 1.5zm-21.5-23h87v46h-87v-46z"/></defs><clipPath id="aP"><use xlink:href="#aO" overflow="visible"/></clipPath><g clip-path="url(#aP)"><defs><path id="aQ" d="M434.1-112.5h44v3h-44z"/></defs></g><defs><path id="aR" d="M434.1-112.5h44v3h-44z"/></defs><defs><path id="aS" d="M434.1-108h-1.5v6h47v-6h-45.5zm0 3h44l-1.5-1.5v3l1.5-1.5h-44l1.5 1.5v-3l-1.5 1.5zm-21.5-23h87v46h-87v-46z"/></defs><clipPath id="aT"><use xlink:href="#aS" overflow="visible"/></clipPath><g clip-path="url(#aT)"><defs><path id="aU" d="M434.1-106.5h44v3h-44z"/></defs></g><g><defs><path id="aV" d="M434.1-106.5h44v3h-44z"/></defs></g><g><defs><path id="aW" d="M434.1-102h-1.5v6h47v-6h-45.5zm0 3h44l-1.5-1.5v3l1.5-1.5h-44l1.5 1.5v-3l-1.5 1.5zm-21.5-23h87v46h-87v-46z"/></defs><clipPath id="aX"><use xlink:href="#aW" overflow="visible"/></clipPath><g clip-path="url(#aX)"><defs><path id="aY" d="M434.1-100.5h44v3h-44z"/></defs></g></g><g><defs><path id="aZ" d="M434.1-100.5h44v3h-44z"/></defs></g><path fill="none" stroke="#091F2F" stroke-width="3" stroke-miterlimit="10" d="M177.3 72.9h13v12.3h-13z"/><path fill="none" stroke="#091F2F" stroke-width="3" stroke-miterlimit="10" d="M196 61.9v34.2h-44.6V62.3"/><path fill="#FFF" stroke="#091F2F" stroke-width="3" stroke-miterlimit="10" d="M144.6 65.1l28.8-19.9L201 65.1z"/><path fill="none" stroke="#091F2F" stroke-width="3" stroke-miterlimit="10" d="M157.9 72.8h13v22.7h-13zm-51.2.1h13v12.3h-13z"/><path fill="none" stroke="#091F2F" stroke-width="3" stroke-miterlimit="10" d="M125.4 61.9v34.2H80.7V62.3"/><path fill="#FFF" stroke="#091F2F" stroke-width="3" stroke-miterlimit="10" d="M74 65.1l28.8-19.9 27.6 19.9z"/><path fill="none" stroke="#091F2F" stroke-width="3" stroke-miterlimit="10" d="M87.3 72.8h13v22.7h-13z"/><g><path fill="#0F1F2D" d="M144.2 97.9h-12.1l1.4-17.7-7.1-16.1h7.2L138 74l3-9.8h8.9l-7.5 16.3 1.8 17.4zm-10-2h7.8l-1.6-15.8 6.5-14h-4.4l-4.2 13.5-6-13.5h-2.9l6.1 13.8-1.3 16z"/></g><g><path fill="#FFF" stroke="#0F1F2D" stroke-width="3" stroke-linecap="round" stroke-miterlimit="10" d="M132.2 67.7c.8.5 1.7.8 2.6 1.1 2.5.6 5.1.2 7.2-.9.6.6 1.4 1 2.2 1.2 2.9.7 5.8-1 6.5-3.9 0-.2.1-.4.1-.6 4.3.3 8.4-2.5 9.4-6.8 1.2-4.9-1.7-9.8-6.6-11h-.1c.1-.2.2-.5.2-.7.6-2.4-.9-4.9-3.3-5.5-1.1-.3-2.2-.1-3.1.3-1.3-2.7-3.8-4.8-6.9-5.6-4.8-1.2-9.6 1.1-11.9 5.2-2.4-.4-4.7 1.1-5.3 3.4-.3 1.2-.1 2.4.4 3.3-2.3 1-4 3-4.7 5.5-.9 3.7.8 7.5 4 9.2-.3.5-.5 1-.6 1.5-.7 2.8 1 5.7 3.8 6.4 2.6.7 4.9-.2 6.1-2.1z"/></g></svg>