<svg xmlns="http://www.w3.org/2000/svg" xmlns:xlink="http://www.w3.org/1999/xlink" viewBox="0 0 276 137"><defs><path id="a" d="M379.4-295.3h-1.5v84h108v-84H379.4zm0 3h105l-1.5-1.5v81l1.5-1.5h-105l1.5 1.5v-81l-1.5 1.5zm-21.5-23h148v124h-148v-124z"/></defs><clipPath id="b"><use xlink:href="#a" overflow="visible"/></clipPath><g clip-path="url(#b)"><defs><path id="c" d="M379.4-293.8h105v81h-105z"/></defs></g><defs><path id="d" d="M379.4-293.8h105v81h-105z"/></defs><defs><path id="e" d="M373.4-278.3h-2.2l.9-2.1 9.1-22 .4-.9h100.9l.4.9 9.1 22 .9 2.1H373.4zm0-3h117l-1.4 2.1-9.1-22 1.4.9h-98.9l1.4-.9-9.1 22-1.3-2.1zm-22.3 23h161.5v-65H351.1v65z"/></defs><clipPath id="f"><use xlink:href="#e" overflow="visible"/></clipPath><g clip-path="url(#f)"><defs><path id="g" d="M373.4-279.8h117l-9.1-22h-98.8z"/></defs></g><defs><path id="h" d="M373.4-279.8h117l-9.1-22h-98.8z"/></defs><defs><path id="i" d="M458.4-311.3h-1.5v19h15v-19h-13.5zm0 3h12l-1.5-1.5v16l1.5-1.5h-12l1.5 1.5v-16l-1.5 1.5zm-21.5-23h55v59h-55v-59z"/></defs><clipPath id="j"><use xlink:href="#i" overflow="visible"/></clipPath><g clip-path="url(#j)"><defs><path id="k" d="M458.4-309.8h12v16h-12z"/></defs></g><defs><path id="l" d="M458.4-309.8h12v16h-12z"/></defs><defs><path id="m" d="M392.4-245.3h-1.5v34h24v-34h-22.5zm0 3h21l-1.5-1.5v31l1.5-1.5h-21l1.5 1.5v-31l-1.5 1.5zm-21.5-23h64v74h-64v-74z"/></defs><clipPath id="n"><use xlink:href="#m" overflow="visible"/></clipPath><g clip-path="url(#n)"><defs><path id="o" d="M392.4-243.8h21v31h-21z"/></defs></g><defs><path id="p" d="M392.4-243.8h21v31h-21z"/></defs><defs><path id="q" d="M393.4-273.3h-1.5v22h22v-22h-20.5zm0 3h19l-1.5-1.5v19l1.5-1.5h-19l1.5 1.5v-19l-1.5 1.5zm-21.5-23h62v62h-62v-62z"/></defs><clipPath id="r"><use xlink:href="#q" overflow="visible"/></clipPath><g clip-path="url(#r)"><defs><path id="s" d="M393.4-271.8h19v19h-19z"/></defs></g><defs><path id="t" d="M393.4-271.8h19v19h-19z"/></defs><defs><path id="u" d="M398.4-268.3h-1.5v12h12v-12h-10.5zm0 3h9l-1.5-1.5v9l1.5-1.5h-9l1.5 1.5v-9l-1.5 1.5zm-21.5-23h52v52h-52v-52z"/></defs><clipPath id="v"><use xlink:href="#u" overflow="visible"/></clipPath><g clip-path="url(#v)"><defs><path id="w" d="M398.4-266.8h9v9h-9z"/></defs></g><defs><path id="x" d="M398.4-266.8h9v9h-9z"/></defs><defs><path id="y" d="M423.4-273.3h-1.5v22h22v-22h-20.5zm0 3h19l-1.5-1.5v19l1.5-1.5h-19l1.5 1.5v-19l-1.5 1.5zm-21.5-23h62v62h-62v-62z"/></defs><clipPath id="z"><use xlink:href="#y" overflow="visible"/></clipPath><g clip-path="url(#z)"><defs><path id="A" d="M423.4-271.8h19v19h-19z"/></defs></g><defs><path id="B" d="M423.4-271.8h19v19h-19z"/></defs><defs><path id="C" d="M452.4-273.3h-1.5v22h22v-22h-20.5zm0 3h19l-1.5-1.5v19l1.5-1.5h-19l1.5 1.5v-19l-1.5 1.5zm-21.5-23h62v62h-62v-62z"/></defs><clipPath id="D"><use xlink:href="#C" overflow="visible"/></clipPath><g clip-path="url(#D)"><defs><path id="E" d="M452.4-271.8h19v19h-19z"/></defs></g><defs><path id="F" d="M452.4-271.8h19v19h-19z"/></defs><defs><path id="G" d="M423.4-245.3h-1.5v22h22v-22h-20.5zm0 3h19l-1.5-1.5v19l1.5-1.5h-19l1.5 1.5v-19l-1.5 1.5zm-21.5-23h62v62h-62v-62z"/></defs><clipPath id="H"><use xlink:href="#G" overflow="visible"/></clipPath><g clip-path="url(#H)"><defs><path id="I" d="M423.4-243.8h19v19h-19z"/></defs></g><defs><path id="J" d="M423.4-243.8h19v19h-19z"/></defs><defs><path id="K" d="M452.4-245.3h-1.5v22h22v-22h-20.5zm0 3h19l-1.5-1.5v19l1.5-1.5h-19l1.5 1.5v-19l-1.5 1.5zm-21.5-23h62v62h-62v-62z"/></defs><clipPath id="L"><use xlink:href="#K" overflow="visible"/></clipPath><g clip-path="url(#L)"><defs><path id="M" d="M452.4-243.8h19v19h-19z"/></defs></g><defs><path id="N" d="M452.4-243.8h19v19h-19z"/></defs><defs><path id="O" d="M428.4-268.3h-1.5v12h12v-12h-10.5zm0 3h9l-1.5-1.5v9l1.5-1.5h-9l1.5 1.5v-9l-1.5 1.5zm-21.5-23h52v52h-52v-52z"/></defs><clipPath id="P"><use xlink:href="#O" overflow="visible"/></clipPath><g clip-path="url(#P)"><defs><path id="Q" d="M428.4-266.8h9v9h-9z"/></defs></g><defs><path id="R" d="M428.4-266.8h9v9h-9z"/></defs><defs><path id="S" d="M457.4-268.3h-1.5v12h12v-12h-10.5zm0 3h9l-1.5-1.5v9l1.5-1.5h-9l1.5 1.5v-9l-1.5 1.5zm-21.5-23h52v52h-52v-52z"/></defs><clipPath id="T"><use xlink:href="#S" overflow="visible"/></clipPath><g clip-path="url(#T)"><defs><path id="U" d="M457.4-266.8h9v9h-9z"/></defs></g><defs><path id="V" d="M457.4-266.8h9v9h-9z"/></defs><defs><path id="W" d="M428.4-240.3h-1.5v12h12v-12h-10.5zm0 3h9l-1.5-1.5v9l1.5-1.5h-9l1.5 1.5v-9l-1.5 1.5zm-21.5-23h52v52h-52v-52z"/></defs><clipPath id="X"><use xlink:href="#W" overflow="visible"/></clipPath><g clip-path="url(#X)"><defs><path id="Y" d="M428.4-238.8h9v9h-9z"/></defs></g><defs><path id="Z" d="M428.4-238.8h9v9h-9z"/></defs><defs><path id="aa" d="M457.4-240.3h-1.5v12h12v-12h-10.5zm0 3h9l-1.5-1.5v9l1.5-1.5h-9l1.5 1.5v-9l-1.5 1.5zm-21.5-23h52v52h-52v-52z"/></defs><clipPath id="ab"><use xlink:href="#aa" overflow="visible"/></clipPath><g clip-path="url(#ab)"><defs><path id="ac" d="M457.4-238.8h9v9h-9z"/></defs></g><defs><path id="ad" d="M457.4-238.8h9v9h-9z"/></defs><defs><path id="ae" d="M70.5 23.5H69v90h134v-90H70.5zm0 3h131L200 25v87l1.5-1.5h-131L72 112V25l-1.5 1.5zM49 3.5h174v130H49V3.5z"/></defs><clipPath id="af"><use xlink:href="#ae" overflow="visible"/></clipPath><g clip-path="url(#af)"><defs><path id="ag" d="M70.5 25h131v87h-131z"/></defs><clipPath id="ah"><use xlink:href="#ag" overflow="visible"/></clipPath><g clip-path="url(#ah)"><defs><path id="ai" d="M-538.5-279h1121V751h-1121z"/></defs><clipPath id="aj"><use xlink:href="#ai" overflow="visible"/></clipPath><g clip-path="url(#aj)"><path fill-rule="evenodd" clip-rule="evenodd" fill="#FFF" d="M70.5 25h131v87h-131z"/></g></g></g><defs><path id="ak" d="M70.5 25h131v87h-131z"/></defs><clipPath id="al"><use xlink:href="#ak" overflow="visible"/></clipPath><g clip-path="url(#al)"><defs><path id="am" d="M-538.5-279h1121V751h-1121z"/></defs><clipPath id="an"><use xlink:href="#am" overflow="visible"/></clipPath><g clip-path="url(#an)"><path fill="#0C1F2E" d="M204.5 115h-137V22h137v93zm-131-6h125V28h-125v81z"/></g></g><defs><path id="ao" d="M75.5 28.5H74v80h124v-80H75.5zm0 3h121L195 30v77l1.5-1.5h-121L77 107V30l-1.5 1.5zM54 8.5h164v120H54V8.5z"/></defs><clipPath id="ap"><use xlink:href="#ao" overflow="visible"/></clipPath><g clip-path="url(#ap)"><defs><path id="aq" d="M75.5 30h121v77h-121z"/></defs><clipPath id="ar"><use xlink:href="#aq" overflow="visible"/></clipPath><g clip-path="url(#ar)"><defs><path id="as" d="M-538.5-279h1121V751h-1121z"/></defs><clipPath id="at"><use xlink:href="#as" overflow="visible"/></clipPath><g clip-path="url(#at)"><path fill-rule="evenodd" clip-rule="evenodd" fill="#FFF" d="M75.5 30h121v77h-121z"/></g></g></g><defs><path id="au" d="M75.5 30h121v77h-121z"/></defs><clipPath id="av"><use xlink:href="#au" overflow="visible"/></clipPath><g clip-path="url(#av)"><defs><path id="aw" d="M-538.5-279h1121V751h-1121z"/></defs><clipPath id="ax"><use xlink:href="#aw" overflow="visible"/></clipPath><g clip-path="url(#ax)"><path fill="#0C1F2E" d="M199.5 110h-127V27h127v83zm-121-6h115V33h-115v71z"/></g></g><defs><path id="ay" d="M140.5 43.5H139v6h47v-6h-45.5zm0 3h44L183 45v3l1.5-1.5h-44L142 48v-3l-1.5 1.5zm-21.5-23h87v46h-87v-46z"/></defs><clipPath id="az"><use xlink:href="#ay" overflow="visible"/></clipPath><g clip-path="url(#az)"><defs><path id="aA" d="M140.5 45h44v3h-44z"/></defs><clipPath id="aB"><use xlink:href="#aA" overflow="visible"/></clipPath><g clip-path="url(#aB)"><defs><path id="aC" d="M-538.5-279h1121V751h-1121z"/></defs><clipPath id="aD"><use xlink:href="#aC" overflow="visible"/></clipPath><g clip-path="url(#aD)"><path fill-rule="evenodd" clip-rule="evenodd" fill="#FFF" d="M140.5 45h44v3h-44z"/></g></g></g><defs><path id="aE" d="M140.5 45h44v3h-44z"/></defs><clipPath id="aF"><use xlink:href="#aE" overflow="visible"/></clipPath><g clip-path="url(#aF)"><defs><path id="aG" d="M-538.5-279h1121V751h-1121z"/></defs><clipPath id="aH"><use xlink:href="#aG" overflow="visible"/></clipPath><g clip-path="url(#aH)"><path fill="#0C1F2E" d="M137.5 42h50v9h-50z"/></g></g><defs><path id="aI" d="M140.5 49.5H139v6h47v-6h-45.5zm0 3h44L183 51v3l1.5-1.5h-44L142 54v-3l-1.5 1.5zm-21.5-23h87v46h-87v-46z"/></defs><clipPath id="aJ"><use xlink:href="#aI" overflow="visible"/></clipPath><g clip-path="url(#aJ)"><defs><path id="aK" d="M140.5 51h44v3h-44z"/></defs><clipPath id="aL"><use xlink:href="#aK" overflow="visible"/></clipPath><g clip-path="url(#aL)"><defs><path id="aM" d="M-538.5-279h1121V751h-1121z"/></defs><clipPath id="aN"><use xlink:href="#aM" overflow="visible"/></clipPath><g clip-path="url(#aN)"><path fill-rule="evenodd" clip-rule="evenodd" fill="#FFF" d="M140.5 51h44v3h-44z"/></g></g></g><defs><path id="aO" d="M140.5 51h44v3h-44z"/></defs><clipPath id="aP"><use xlink:href="#aO" overflow="visible"/></clipPath><g clip-path="url(#aP)"><defs><path id="aQ" d="M-538.5-279h1121V751h-1121z"/></defs><clipPath id="aR"><use xlink:href="#aQ" overflow="visible"/></clipPath><g clip-path="url(#aR)"><path fill="#0C1F2E" d="M137.5 48h50v9h-50z"/></g></g><defs><path id="aS" d="M140.5 55.5H139v6h47v-6h-45.5zm0 3h44L183 57v3l1.5-1.5h-44L142 60v-3l-1.5 1.5zm-21.5-23h87v46h-87v-46z"/></defs><clipPath id="aT"><use xlink:href="#aS" overflow="visible"/></clipPath><g clip-path="url(#aT)"><defs><path id="aU" d="M140.5 57h44v3h-44z"/></defs><clipPath id="aV"><use xlink:href="#aU" overflow="visible"/></clipPath><g clip-path="url(#aV)"><defs><path id="aW" d="M-538.5-279h1121V751h-1121z"/></defs><clipPath id="aX"><use xlink:href="#aW" overflow="visible"/></clipPath><g clip-path="url(#aX)"><path fill-rule="evenodd" clip-rule="evenodd" fill="#FFF" d="M140.5 57h44v3h-44z"/></g></g></g><defs><path id="aY" d="M140.5 57h44v3h-44z"/></defs><clipPath id="aZ"><use xlink:href="#aY" overflow="visible"/></clipPath><g clip-path="url(#aZ)"><defs><path id="ba" d="M-538.5-279h1121V751h-1121z"/></defs><clipPath id="bb"><use xlink:href="#ba" overflow="visible"/></clipPath><g clip-path="url(#bb)"><path fill="#0C1F2E" d="M137.5 54h50v9h-50z"/></g></g><g><defs><path id="bc" d="M140.5 61.5H139v6h47v-6h-45.5zm0 3h44L183 63v3l1.5-1.5h-44L142 66v-3l-1.5 1.5zm-21.5-23h87v46h-87v-46z"/></defs><clipPath id="bd"><use xlink:href="#bc" overflow="visible"/></clipPath><g clip-path="url(#bd)"><defs><path id="be" d="M140.5 63h44v3h-44z"/></defs><clipPath id="bf"><use xlink:href="#be" overflow="visible"/></clipPath><g clip-path="url(#bf)"><defs><path id="bg" d="M-538.5-279h1121V751h-1121z"/></defs><clipPath id="bh"><use xlink:href="#bg" overflow="visible"/></clipPath><g clip-path="url(#bh)"><path fill-rule="evenodd" clip-rule="evenodd" fill="#FFF" d="M140.5 63h44v3h-44z"/></g></g></g></g><g><defs><path id="bi" d="M140.5 63h44v3h-44z"/></defs><clipPath id="bj"><use xlink:href="#bi" overflow="visible"/></clipPath><g clip-path="url(#bj)"><defs><path id="bk" d="M-538.5-279h1121V751h-1121z"/></defs><clipPath id="bl"><use xlink:href="#bk" overflow="visible"/></clipPath><g clip-path="url(#bl)"><path fill="#0C1F2E" d="M137.5 60h50v9h-50z"/></g></g></g><g><path fill="#042A3E" d="M143.5 86.7v.5c0 .2 0 .3-.1.4l1.1-.1v.6h-3.2v-.4c.2 0 .4 0 .6-.1s.3-.2.4-.3.2-.3.2-.5.1-.4.1-.6l.3-6.1-1.6 1-.2-.4 2.5-1.9h.4l-.5 7.9zm2.4-6c0-.2.1-.4.2-.7.1-.2.3-.4.5-.6s.5-.4.9-.5c.3-.1.8-.2 1.2-.2.3 0 .6 0 1 .1.3.1.6.2.8.4.2.2.4.4.6.7.1.3.2.6.2 1 0 .2 0 .5-.1.7-.1.3-.2.5-.4.8s-.5.6-.8 1c-.3.3-.8.7-1.3 1.1-.6.5-1.1.9-1.5 1.3-.4.4-.6.8-.7 1.2l3 .1h.6c.2 0 .3-.1.5-.1s.2-.2.3-.3c.1-.1.1-.3.1-.5h.4l-.2 1.8h-5.6c0-.5.1-.9.3-1.2.2-.4.4-.7.6-1s.5-.6.9-.9c.3-.3.7-.6 1-.9.3-.2.5-.5.8-.8.2-.3.4-.5.6-.8s.3-.5.4-.8c.1-.2.1-.5.1-.7 0-.2 0-.5-.1-.7-.1-.2-.1-.4-.3-.6-.1-.2-.3-.3-.5-.4-.2-.1-.4-.1-.7-.1-.2 0-.3 0-.5.1-.2 0-.3.1-.5.2-.1.1-.3.2-.4.3-.1.1-.2.2-.2.4.1.1.1.2.2.3v.5c0 .1-.1.1-.1.2-.1.1-.1.1-.2.1s-.2.1-.2.1c-.2 0-.3-.1-.4-.2-.5 0-.5-.2-.5-.4zm7.5 6.2c0 .1.1.3.2.4s.2.2.4.3c.1.1.3.1.5.2.2 0 .3.1.5.1.3 0 .6-.1.9-.2s.5-.3.7-.4c.2-.2.3-.4.4-.7.1-.3.1-.6.1-.9v-.4c0-.1 0-.3-.1-.4 0-.1-.1-.3-.2-.4-.1-.1-.2-.3-.3-.4-.1-.1-.3-.2-.5-.2-.2-.1-.4-.1-.7-.1h-.9v-.6h.5c.3 0 .5 0 .7-.1.2-.1.4-.2.5-.3.1-.1.3-.2.4-.4.1-.1.2-.3.2-.4.1-.2.1-.3.1-.4v-.4c0-.2 0-.5-.1-.7 0-.2-.1-.4-.2-.5-.1-.2-.3-.3-.5-.4-.2-.1-.4-.1-.7-.1-.2 0-.4 0-.6.1-.2.1-.3.1-.5.2-.1.1-.3.2-.4.3-.1.1-.2.2-.2.3.1.1.1.2.1.3v.4c0 .1-.1.1-.1.2s-.1.1-.2.1h-.2c-.2 0-.3-.1-.4-.2-.1-.1-.2-.3-.2-.4 0-.2.1-.4.2-.6.1-.2.3-.4.5-.6.2-.2.5-.4.9-.5s.7-.2 1.2-.2c.3 0 .7 0 1 .1s.6.2.8.4c.2.2.4.4.6.7.1.3.2.6.2 1 0 .2 0 .4-.1.7-.1.2-.2.5-.4.7-.2.2-.4.4-.7.6-.3.2-.6.3-1 .4.4 0 .7.1 1.1.2s.6.3.8.5c.2.2.4.4.5.7.1.3.2.5.2.8 0 .3 0 .6-.1.9-.1.3-.2.5-.4.7-.2.2-.3.4-.6.6-.2.2-.4.3-.7.4-.2.1-.5.2-.8.3-.3.1-.5.1-.8.1-.4 0-.8-.1-1.2-.2-.3-.1-.6-.3-.8-.4-.2-.2-.4-.4-.5-.6-.1-.2-.2-.4-.2-.6 0-.2.1-.4.2-.5.1-.1.3-.2.5-.2.1 0 .2 0 .2.1.1 0 .1.1.2.1s.1.1.1.2v.5c0 .1-.1-.3-.1-.2zm7.3-.2c0 .1-.1.2-.1.3 0 .1-.1.2-.1.2 0 .1-.1.1-.1.2s-.1.1-.1.2l1-.1v.6h-2.4v-.4c.2 0 .3 0 .4-.1.1-.1.2-.2.4-.3.1-.1.2-.3.3-.5.1-.2.2-.4.3-.7l2.9-7.3h.3l2.5 7.4c0 .1.1.2.1.3 0 .1.1.2.1.3 0 .1.1.2.1.4v.4l.8-.1v.6h-2.9v-.4c.2 0 .3 0 .4-.1s.2-.1.2-.1c.1-.1.1-.1.1-.2v-.5c0-.1 0-.2-.1-.3l-.4-1.2-3.3.1-.4 1.3zm1.7-4.7c-.2.6-.4 1.1-.6 1.5s-.3.8-.5 1.2h3l-1.4-4.2-.5 1.5zm6.7-1.5v-.6c0-.2 0-.3.1-.4l-1 .1V79h2.9c.5 0 .9 0 1.3.1s.7.2 1 .4c.3.2.5.4.6.6.1.3.2.6.2.9 0 .2 0 .5-.1.7-.1.2-.2.4-.4.7s-.4.4-.7.5-.6.3-1 .3c.5 0 .9.1 1.2.2.3.1.6.3.8.5.2.2.4.4.5.7.1.3.2.6.2.9 0 .4-.1.8-.2 1.1-.2.3-.4.6-.7.8-.3.2-.6.4-1 .5-.4.1-.8.2-1.3.2h-3.8v-.4c.2 0 .4 0 .6-.1l.3-.3c.1-.1.1-.3.1-.5v-.7l.4-5.6zm.6 7h1.4c.4 0 .7 0 1-.1.3-.1.5-.2.7-.4.2-.2.4-.4.5-.7s.2-.6.2-.9c0-.4-.1-.6-.2-.9-.1-.2-.3-.4-.5-.6-.2-.1-.4-.2-.7-.3-.3-.1-.5-.1-.8-.1H170l-.2 2.9v.6c0 .2 0 .4-.1.5zm1.5-8.1c-.2 0-.4 0-.5.1-.1 0-.2.1-.3.2-.1.1-.1.2-.2.4 0 .2-.1.4-.1.6l-.1 2.4h1c.4 0 .7-.1 1-.2.3-.1.5-.3.6-.5s.3-.4.4-.6c.1-.2.1-.5.1-.7 0-.3-.1-.6-.2-.8s-.3-.4-.4-.5-.4-.2-.6-.2c-.3-.2-.5-.2-.7-.2zm12.6 7c-.3.4-.6.7-.9.9s-.7.4-1 .6-.7.2-1 .3c-.3.1-.6.1-.9.1-.6 0-1.2-.1-1.7-.3-.5-.2-.9-.5-1.3-.9s-.6-.8-.8-1.4c-.2-.5-.3-1.1-.3-1.7 0-.4 0-.8.1-1.3s.2-.8.4-1.2.4-.7.7-1.1l.9-.9c.3-.2.7-.4 1.2-.6.4-.1.9-.2 1.4-.2.5 0 1 .1 1.4.2.4.1.8.3 1.2.6v-.7h.7l-.2 3h-.5c0-.4-.1-.8-.2-1.1-.1-.3-.3-.6-.5-.8-.2-.2-.5-.4-.8-.5s-.6-.2-1-.2c-.5 0-.9.1-1.4.3-.4.2-.8.5-1.1.9-.3.4-.6.9-.8 1.4-.2.6-.3 1.2-.3 1.8 0 .6.1 1.1.3 1.6s.4.9.7 1.2c.3.3.6.6 1 .8.4.2.8.3 1.3.3.3 0 .6 0 .8-.1.3-.1.6-.2.8-.3s.5-.3.8-.5c.2-.2.5-.4.6-.6l.4.4z"/></g><g><defs><path id="bm" d="M364.1 23.5h-1.5v90h134v-90H364.1zm0 3h131l-1.5-1.5v87l1.5-1.5h-131l1.5 1.5V25l-1.5 1.5zm-21.5-23h174v130h-174V3.5z"/></defs><clipPath id="bn"><use xlink:href="#bm" overflow="visible"/></clipPath><g clip-path="url(#bn)"><defs><path id="bo" d="M364.1 25h131v87h-131z"/></defs></g></g><g><defs><path id="bp" d="M364.1 25h131v87h-131z"/></defs></g><g><defs><path id="bq" d="M369.1 28.5h-1.5v80h124v-80H369.1zm0 3h121l-1.5-1.5v77l1.5-1.5h-121l1.5 1.5V30l-1.5 1.5zm-21.5-23h164v120h-164V8.5z"/></defs><clipPath id="br"><use xlink:href="#bq" overflow="visible"/></clipPath><g clip-path="url(#br)"><defs><path id="bs" d="M369.1 30h121v77h-121z"/></defs></g></g><g><defs><path id="bt" d="M369.1 30h121v77h-121z"/></defs></g><g><defs><path id="bu" d="M434.1 43.5h-1.5v6h47v-6h-45.5zm0 3h44l-1.5-1.5v3l1.5-1.5h-44l1.5 1.5v-3l-1.5 1.5zm-21.5-23h87v46h-87v-46z"/></defs><clipPath id="bv"><use xlink:href="#bu" overflow="visible"/></clipPath><g clip-path="url(#bv)"><defs><path id="bw" d="M434.1 45h44v3h-44z"/></defs></g></g><g><defs><path id="bx" d="M434.1 45h44v3h-44z"/></defs></g><g><defs><path id="by" d="M434.1 49.5h-1.5v6h47v-6h-45.5zm0 3h44l-1.5-1.5v3l1.5-1.5h-44l1.5 1.5v-3l-1.5 1.5zm-21.5-23h87v46h-87v-46z"/></defs><clipPath id="bz"><use xlink:href="#by" overflow="visible"/></clipPath><g clip-path="url(#bz)"><defs><path id="bA" d="M434.1 51h44v3h-44z"/></defs></g></g><g><defs><path id="bB" d="M434.1 51h44v3h-44z"/></defs></g><g><defs><path id="bC" d="M434.1 55.5h-1.5v6h47v-6h-45.5zm0 3h44l-1.5-1.5v3l1.5-1.5h-44l1.5 1.5v-3l-1.5 1.5zm-21.5-23h87v46h-87v-46z"/></defs><clipPath id="bD"><use xlink:href="#bC" overflow="visible"/></clipPath><g clip-path="url(#bD)"><defs><path id="bE" d="M434.1 57h44v3h-44z"/></defs></g></g><g><defs><path id="bF" d="M434.1 57h44v3h-44z"/></defs></g><g><defs><path id="bG" d="M434.1 61.5h-1.5v6h47v-6h-45.5zm0 3h44l-1.5-1.5v3l1.5-1.5h-44l1.5 1.5v-3l-1.5 1.5zm-21.5-23h87v46h-87v-46z"/></defs><clipPath id="bH"><use xlink:href="#bG" overflow="visible"/></clipPath><g clip-path="url(#bH)"><defs><path id="bI" d="M434.1 63h44v3h-44z"/></defs></g></g><g><defs><path id="bJ" d="M434.1 63h44v3h-44z"/></defs></g><g><path fill="none" stroke="#000" stroke-width="5" stroke-miterlimit="10" d="M101.4 53.6l1.8 17.4h12.7l5.2 11.5 4.6-1.8"/><circle cx="101" cy="49.5" r="3.5"/><path d="M113.9 77.6c-1.4 3.8-5 6.3-9.1 6.3-5.3 0-9.7-4.3-9.7-9.7 0-2.8 1.2-5.4 3.2-7.2 0-.7-.5-4.2-.6-5.2-4.4 2.5-7.2 7.2-7.2 12.4 0 7.9 6.4 14.3 14.3 14.3 4.6 0 8.9-2.3 11.6-5.9l-2.5-5z"/><path fill="none" stroke="#000" stroke-width="5" stroke-miterlimit="10" d="M102.2 61.1h9.7"/></g></svg>