<svg id="Layer_1" data-name="Layer 1" xmlns="http://www.w3.org/2000/svg" viewBox="0 0 276 137"><defs><style>.cls-1,.cls-16,.cls-17,.cls-2,.cls-8{fill:none}.cls-2,.cls-3{clip-rule:evenodd}.cls-13,.cls-15,.cls-3,.cls-4{fill:#fff}.cls-16,.cls-17,.cls-3{stroke:#0e1f2d;stroke-width:1.88px}.cls-16,.cls-17,.cls-3,.cls-4,.cls-8{stroke-miterlimit:10}.cls-4,.cls-8{stroke:#091f2f;stroke-width:3px}.cls-7{fill:#0e1f2d}.cls-13,.cls-17{fill-rule:evenodd}.cls-14{clip-path:url(#clip-path-9)}</style><clipPath id="clip-path"><circle class="cls-1" cx="137.48" cy="-86.41" r="50.5"/></clipPath><clipPath id="clip-path-2"><circle class="cls-1" cx="137.48" cy="-86.41" r="43.5"/></clipPath><clipPath id="clip-path-3"><path class="cls-2" d="M396.69 259.58a29.08 29.08 0 1 1 29.08-29.08 29.08 29.08 0 0 1-29.08 29.08zm0 2.24a31.32 31.32 0 1 0-31.32-31.32 31.32 31.32 0 0 0 31.32 31.32zm-46.25-77.57h92.5v92.5h-92.5z"/></clipPath><clipPath id="clip-path-4"><circle class="cls-1" cx="396.69" cy="230.5" r="30.2"/></clipPath><clipPath id="clip-path-6"><path class="cls-2" d="M479.23 259.58a29.08 29.08 0 1 1 29.07-29.08 29.08 29.08 0 0 1-29.07 29.08zm0 2.24a31.32 31.32 0 1 0-31.32-31.32 31.32 31.32 0 0 0 31.32 31.32zM433 184.25h92.5v92.5H433z"/></clipPath><clipPath id="clip-path-7"><circle class="cls-1" cx="479.23" cy="230.5" r="30.2"/></clipPath><clipPath id="clip-path-9"><path class="cls-3" d="M392.34 370.06h65.16l5.84 5.75v11.01h-71v-16.76z"/></clipPath><clipPath id="clip-path-10"><circle class="cls-1" cx="136.82" cy="543.42" r="50.5"/></clipPath><clipPath id="clip-path-11"><circle class="cls-1" cx="136.82" cy="543.42" r="43.5"/></clipPath><clipPath id="clip-path-12"><circle class="cls-1" cx="132.14" cy="700.9" r="50.5"/></clipPath><clipPath id="clip-path-13"><circle class="cls-1" cx="132.14" cy="700.9" r="43.5"/></clipPath></defs><path class="cls-4" d="M109.98 44l26.16 37.33L163.32 44h-53.34z"/><path class="cls-7" d="M154.29 55.37a4.59 4.59 0 0 0-6.55 0c-.49.43-.72.63-1.3.63s-.81-.2-1.3-.63a4.6 4.6 0 0 0-6.55 0c-.49.43-.72.63-1.3.63s-.8-.2-1.3-.63a4.6 4.6 0 0 0-6.55 0c-.49.43-.72.63-1.3.63s-.8-.2-1.3-.63a4.59 4.59 0 0 0-6.55 0c-.49.43-.72.63-1.3.63s-.8-.2-1.3-.63a6 6 0 0 0-1.35-.94 30.62 30.62 0 0 1 4.13 4.33 5.31 5.31 0 0 0 1.8-1.13c.49-.43.72-.63 1.3-.63s.81.2 1.3.63a4.6 4.6 0 0 0 6.55 0c.49-.43.72-.63 1.3-.63s.81.2 1.3.63a4.6 4.6 0 0 0 6.55 0c.49-.43.72-.63 1.3-.63s.81.2 1.3.63a4.6 4.6 0 0 0 6.55 0c.49-.43.72-.63 1.3-.63a1.54 1.54 0 0 1 1.15.51 3 3 0 0 1 .72-.88q.77-.6 1.56-1.12z"/><path class="cls-8" d="M136.13 80.33V109m-14.6 0h29.19m6.15-81.49L127.15 68.5"/><ellipse class="cls-7" cx="150.97" cy="35.64" rx="6.13" ry="5.05" transform="rotate(-54.05 150.98 35.642)"/><path class="cls-13" d="M392.34 370.06h65.16l5.84 5.75v11.01h-71v-16.76z"/><g class="cls-14"><path class="cls-15" d="M202.31 113.82h572.62v493.32H202.31z"/><path class="cls-16" d="M202.31 113.82h572.62v493.32H202.31z"/></g><path class="cls-17" d="M392.34 370.06h65.16l5.84 5.75v11.01h-71v-16.76z"/></svg>