<svg xmlns="http://www.w3.org/2000/svg" xmlns:xlink="http://www.w3.org/1999/xlink" viewBox="0 0 276 137"><defs><path id="a" d="M367.2-421.5h-1.5v38h142v-25.1l-.4-.4-11.4-12-.4-.5H367.2zm0 3h127.6l-1.1-.5 11.4 12-.4-1v23l1.5-1.5h-139l1.5 1.5v-35l-1.5 1.5zm-21.5-23h182v78h-182v-78z"/></defs><clipPath id="b"><use xlink:href="#a" overflow="visible"/></clipPath><g clip-path="url(#b)"><defs><path id="c" d="M367.2-420h127.6l11.4 12v23h-139z"/></defs></g><defs><path id="d" d="M367.2-420h127.6l11.4 12v23h-139z"/></defs><defs><path id="e" d="M400.2-370.1c-8 0-14.5-6.5-14.5-14.5s6.5-14.5 14.5-14.5 14.5 6.5 14.5 14.5-6.4 14.5-14.5 14.5zm0 3c9.7 0 17.5-7.8 17.5-17.5s-7.8-17.5-17.5-17.5-17.5 7.8-17.5 17.5 7.9 17.5 17.5 17.5zm-37.5-55h75v75h-75v-75z"/></defs><clipPath id="f"><use xlink:href="#e" overflow="visible"/></clipPath><g clip-path="url(#f)"><defs><circle id="g" cx="400.2" cy="-384.6" r="16"/></defs></g><defs><circle id="h" cx="400.2" cy="-384.6" r="16"/></defs><defs><path id="i" d="M400.2-377.1c-4.1 0-7.5-3.4-7.5-7.5s3.4-7.5 7.5-7.5 7.5 3.4 7.5 7.5-3.3 7.5-7.5 7.5zm0 3c5.8 0 10.5-4.7 10.5-10.5s-4.7-10.5-10.5-10.5-10.5 4.7-10.5 10.5 4.7 10.5 10.5 10.5zm-30.5-41h61v61h-61v-61z"/></defs><clipPath id="j"><use xlink:href="#i" overflow="visible"/></clipPath><g clip-path="url(#j)"><defs><circle id="k" cx="400.2" cy="-384.6" r="9"/></defs></g><defs><circle id="l" cx="400.2" cy="-384.6" r="9"/></defs><defs><path id="m" d="M466.5-370.1c-8 0-14.5-6.5-14.5-14.5s6.5-14.5 14.5-14.5 14.5 6.5 14.5 14.5-6.5 14.5-14.5 14.5zm0 3c9.7 0 17.5-7.8 17.5-17.5s-7.8-17.5-17.5-17.5-17.5 7.8-17.5 17.5 7.8 17.5 17.5 17.5zm-37.5-55h75v75h-75v-75z"/></defs><clipPath id="n"><use xlink:href="#m" overflow="visible"/></clipPath><g clip-path="url(#n)"><defs><circle id="o" cx="466.5" cy="-384.6" r="16"/></defs></g><defs><circle id="p" cx="466.5" cy="-384.6" r="16"/></defs><defs><path id="q" d="M466.7-424.9l-7.7-15.6h-27.2v15.6h34.9zm-75.2-.1l7.4-15.6h27.2v15.6h-34.6zm-10.3 5.4l14.1-26.9h66.8l15.3 27.9-96.2-1z"/></defs><defs><path id="r" d="M466.5-377.1c-4.1 0-7.5-3.4-7.5-7.5s3.4-7.5 7.5-7.5 7.5 3.4 7.5 7.5-3.4 7.5-7.5 7.5zm0 3c5.8 0 10.5-4.7 10.5-10.5s-4.7-10.5-10.5-10.5-10.5 4.7-10.5 10.5 4.7 10.5 10.5 10.5zm-30.5-41h61v61h-61v-61z"/></defs><clipPath id="s"><use xlink:href="#r" overflow="visible"/></clipPath><g clip-path="url(#s)"><defs><circle id="t" cx="466.5" cy="-384.6" r="9"/></defs></g><defs><circle id="u" cx="466.5" cy="-384.6" r="9"/></defs><defs><path id="v" d="M91.4-451.8h-1.5v84h108v-84H91.4zm0 3h105l-1.5-1.5v81l1.5-1.5h-105l1.5 1.5v-81l-1.5 1.5zm-21.5-23h148v124h-148v-124z"/></defs><clipPath id="w"><use xlink:href="#v" overflow="visible"/></clipPath><g clip-path="url(#w)"><defs><path id="x" d="M91.4-450.3h105v81h-105z"/></defs></g><defs><path id="y" d="M91.4-450.3h105v81h-105z"/></defs><defs><path id="z" d="M85.4-434.8h-2.2l.9-2.1 9.1-22 .4-.9h100.9l.4.9 9.1 22 .9 2.1H85.4zm0-3h117l-1.4 2.1-9.1-22 1.4.9H94.5l1.4-.9-9.1 22-1.4-2.1zm-22.3 23h161.5v-65H63.1v65z"/></defs><clipPath id="A"><use xlink:href="#z" overflow="visible"/></clipPath><g clip-path="url(#A)"><defs><path id="B" d="M85.4-436.3h117l-9.1-22H94.5z"/></defs></g><defs><path id="C" d="M85.4-436.3h117l-9.1-22H94.5z"/></defs><defs><path id="D" d="M170.4-467.8h-1.5v19h15v-19h-13.5zm0 3h12l-1.5-1.5v16l1.5-1.5h-12l1.5 1.5v-16l-1.5 1.5zm-21.5-23h55v59h-55v-59z"/></defs><clipPath id="E"><use xlink:href="#D" overflow="visible"/></clipPath><g clip-path="url(#E)"><defs><path id="F" d="M170.4-466.3h12v16h-12z"/></defs></g><defs><path id="G" d="M170.4-466.3h12v16h-12z"/></defs><defs><path id="H" d="M104.4-401.8h-1.5v34h24v-34h-22.5zm0 3h21l-1.5-1.5v31l1.5-1.5h-21l1.5 1.5v-31l-1.5 1.5zm-21.5-23h64v74h-64v-74z"/></defs><clipPath id="I"><use xlink:href="#H" overflow="visible"/></clipPath><g clip-path="url(#I)"><defs><path id="J" d="M104.4-400.3h21v31h-21z"/></defs></g><defs><path id="K" d="M104.4-400.3h21v31h-21z"/></defs><defs><path id="L" d="M105.4-429.8h-1.5v22h22v-22h-20.5zm0 3h19l-1.5-1.5v19l1.5-1.5h-19l1.5 1.5v-19l-1.5 1.5zm-21.5-23h62v62h-62v-62z"/></defs><clipPath id="M"><use xlink:href="#L" overflow="visible"/></clipPath><g clip-path="url(#M)"><defs><path id="N" d="M105.4-428.3h19v19h-19z"/></defs></g><defs><path id="O" d="M105.4-428.3h19v19h-19z"/></defs><defs><path id="P" d="M110.4-424.8h-1.5v12h12v-12h-10.5zm0 3h9l-1.5-1.5v9l1.5-1.5h-9l1.5 1.5v-9l-1.5 1.5zm-21.5-23h52v52h-52v-52z"/></defs><clipPath id="Q"><use xlink:href="#P" overflow="visible"/></clipPath><g clip-path="url(#Q)"><defs><path id="R" d="M110.4-423.3h9v9h-9z"/></defs></g><defs><path id="S" d="M110.4-423.3h9v9h-9z"/></defs><defs><path id="T" d="M135.4-429.8h-1.5v22h22v-22h-20.5zm0 3h19l-1.5-1.5v19l1.5-1.5h-19l1.5 1.5v-19l-1.5 1.5zm-21.5-23h62v62h-62v-62z"/></defs><clipPath id="U"><use xlink:href="#T" overflow="visible"/></clipPath><g clip-path="url(#U)"><defs><path id="V" d="M135.4-428.3h19v19h-19z"/></defs></g><defs><path id="W" d="M135.4-428.3h19v19h-19z"/></defs><defs><path id="X" d="M164.4-429.8h-1.5v22h22v-22h-20.5zm0 3h19l-1.5-1.5v19l1.5-1.5h-19l1.5 1.5v-19l-1.5 1.5zm-21.5-23h62v62h-62v-62z"/></defs><clipPath id="Y"><use xlink:href="#X" overflow="visible"/></clipPath><g clip-path="url(#Y)"><defs><path id="Z" d="M164.4-428.3h19v19h-19z"/></defs></g><defs><path id="aa" d="M164.4-428.3h19v19h-19z"/></defs><defs><path id="ab" d="M135.4-401.8h-1.5v22h22v-22h-20.5zm0 3h19l-1.5-1.5v19l1.5-1.5h-19l1.5 1.5v-19l-1.5 1.5zm-21.5-23h62v62h-62v-62z"/></defs><clipPath id="ac"><use xlink:href="#ab" overflow="visible"/></clipPath><g clip-path="url(#ac)"><defs><path id="ad" d="M135.4-400.3h19v19h-19z"/></defs></g><defs><path id="ae" d="M135.4-400.3h19v19h-19z"/></defs><defs><path id="af" d="M164.4-401.8h-1.5v22h22v-22h-20.5zm0 3h19l-1.5-1.5v19l1.5-1.5h-19l1.5 1.5v-19l-1.5 1.5zm-21.5-23h62v62h-62v-62z"/></defs><clipPath id="ag"><use xlink:href="#af" overflow="visible"/></clipPath><g clip-path="url(#ag)"><defs><path id="ah" d="M164.4-400.3h19v19h-19z"/></defs></g><defs><path id="ai" d="M164.4-400.3h19v19h-19z"/></defs><defs><path id="aj" d="M140.4-424.8h-1.5v12h12v-12h-10.5zm0 3h9l-1.5-1.5v9l1.5-1.5h-9l1.5 1.5v-9l-1.5 1.5zm-21.5-23h52v52h-52v-52z"/></defs><clipPath id="ak"><use xlink:href="#aj" overflow="visible"/></clipPath><g clip-path="url(#ak)"><defs><path id="al" d="M140.4-423.3h9v9h-9z"/></defs></g><defs><path id="am" d="M140.4-423.3h9v9h-9z"/></defs><defs><path id="an" d="M169.4-424.8h-1.5v12h12v-12h-10.5zm0 3h9l-1.5-1.5v9l1.5-1.5h-9l1.5 1.5v-9l-1.5 1.5zm-21.5-23h52v52h-52v-52z"/></defs><clipPath id="ao"><use xlink:href="#an" overflow="visible"/></clipPath><g clip-path="url(#ao)"><defs><path id="ap" d="M169.4-423.3h9v9h-9z"/></defs></g><defs><path id="aq" d="M169.4-423.3h9v9h-9z"/></defs><defs><path id="ar" d="M140.4-396.8h-1.5v12h12v-12h-10.5zm0 3h9l-1.5-1.5v9l1.5-1.5h-9l1.5 1.5v-9l-1.5 1.5zm-21.5-23h52v52h-52v-52z"/></defs><clipPath id="as"><use xlink:href="#ar" overflow="visible"/></clipPath><g clip-path="url(#as)"><defs><path id="at" d="M140.4-395.3h9v9h-9z"/></defs></g><g><defs><path id="au" d="M140.4-395.3h9v9h-9z"/></defs></g><g><defs><path id="av" d="M169.4-396.8h-1.5v12h12v-12h-10.5zm0 3h9l-1.5-1.5v9l1.5-1.5h-9l1.5 1.5v-9l-1.5 1.5zm-21.5-23h52v52h-52v-52z"/></defs><clipPath id="aw"><use xlink:href="#av" overflow="visible"/></clipPath><g clip-path="url(#aw)"><defs><path id="ax" d="M169.4-395.3h9v9h-9z"/></defs></g></g><g><defs><path id="ay" d="M169.4-395.3h9v9h-9z"/></defs></g><g><circle fill-rule="evenodd" clip-rule="evenodd" fill="#FFF" cx="113.3" cy="42.7" r="20.4"/><path fill="#0C1F2E" d="M113.3 64.5c-12.1 0-21.9-9.8-21.9-21.9s9.8-21.9 21.9-21.9 21.9 9.8 21.9 21.9-9.9 21.9-21.9 21.9zm0-40.7c-10.4 0-18.9 8.5-18.9 18.9s8.5 18.9 18.9 18.9 18.9-8.5 18.9-18.9-8.5-18.9-18.9-18.9z"/></g><g><path d="M115.6 50.1c0 1.5-1 2.4-2.4 2.4s-2.4-1-2.4-2.4 1-2.4 2.4-2.4 2.4 1 2.4 2.4zm-.8-4.7h-3l-.9-8.1v-5.2h4.8v5.2l-.9 8.1z"/></g><g><path fill="#091F2F" d="M166.052 42.516l4.442 1.82-9.516 23.225-4.441-1.82z"/></g><g><path fill="#FFF" d="M169.759 28.385l8.513 3.488-12.435 30.35-8.513-3.488z"/><path fill="#0C1F2E" d="M166.6 64.2l-11.3-4.6 13.6-33.1 11.3 4.6-13.6 33.1zm-7.3-6.3l5.7 2.4 11.3-27.5-5.7-2.4-11.3 27.5z"/></g><g><path fill="#FFF" d="M169.2 85l-27 22.4-3.5-34.9 13.9-8.5 12.3 5.1z"/><path fill="#0C1F2E" d="M141 110.4l-3.9-38.6 15.3-9.4 13.7 5.6 4.7 17.6-29.8 24.8zm-.7-37.1l3.1 31.1 24.1-20-3.8-14.3-10.9-4.5-12.5 7.7z"/></g><g><path fill="#FFF" d="M147.3 93.1l8.7-21.2"/><path fill="#0C1F2E" d="M147.3 94.6c-.2 0-.4 0-.6-.1-.8-.3-1.1-1.2-.8-2l8.7-21.2c.3-.8 1.2-1.1 2-.8.8.3 1.1 1.2.8 2l-8.7 21.2c-.2.6-.8.9-1.4.9z"/></g><g><path fill="#FFF" d="M177.7 110.4c0-7.1-5.7-12.9-12.8-12.9-3 0-5.7 1-7.8 2.6-.7-.3-1.4-.4-2.1-.4-2.2 0-4 1.2-5 2.9-1.6-1.8-4-2.9-6.6-2.9-1 0-2 .2-2.9.5-1.6-7.2-8.1-12.6-15.8-12.6-8.9 0-16.2 7.2-16.2 16.2 0 .8.1 1.5.2 2.3-1.5-.6-3.2-.7-5-.7-10.9 0-13.2 8.2-12.3 12.2h86.1c.1-2.1.2-6.5.2-7.2z"/><path fill="#0C1F2E" d="M178.8 118.5H90.1l-.3-1.1c-.6-2.2-.1-5.9 2.2-8.9 1.7-2.3 5.2-4.9 11.5-4.9 1.1 0 2.2.1 3.3.4v-.2c0-9.8 7.9-17.7 17.7-17.7 7.8 0 14.5 5 16.8 12.3 2.9-.5 5.9.2 8.2 2 1.8-1.8 4.5-2.6 7.1-2 2.4-1.7 5.2-2.5 8.1-2.5 7.9 0 14.3 6.4 14.3 14.3 0 .6-.1 5.8-.2 7.1v1.2zm-86.2-3H176c.1-1.8.1-4.8.1-5.4 0-6.2-5.1-11.3-11.3-11.3-2.5 0-4.9.8-6.9 2.4l-.7.5-.8-.3c-2.1-.8-4.3 0-5.3 1.9l-1 1.8-1.4-1.5c-1.9-2.1-5-3-7.9-2l-1.6.5-.4-1.6c-1.5-6.7-7.4-11.4-14.3-11.4-8.1 0-14.7 6.6-14.7 14.7 0 .6.1 1.3.2 2.1l.4 2.5-2.4-.9c-1.5-.6-2.9-.8-4.4-.8-4.1 0-7.2 1.3-9.2 3.8-1.3 1.6-1.8 3.6-1.8 5z"/></g></svg>