<svg xmlns="http://www.w3.org/2000/svg" viewBox="0 0 276 137"><defs><path id="a" d="M367.2-421.5h-1.5v38h142v-25.1l-.4-.4-11.4-12-.4-.5H367.2zm0 3h127.6l-1.1-.5 11.4 12-.4-1v23l1.5-1.5h-139l1.5 1.5v-35l-1.5 1.5zm-21.5-23h182v78h-182v-78z"/></defs><defs><path id="b" d="M400.2-370.1c-8 0-14.5-6.5-14.5-14.5s6.5-14.5 14.5-14.5 14.5 6.5 14.5 14.5-6.4 14.5-14.5 14.5zm0 3c9.7 0 17.5-7.8 17.5-17.5s-7.8-17.5-17.5-17.5-17.5 7.8-17.5 17.5 7.9 17.5 17.5 17.5zm-37.5-55h75v75h-75v-75z"/></defs><defs><path id="c" d="M400.2-377.1c-4.1 0-7.5-3.4-7.5-7.5s3.4-7.5 7.5-7.5 7.5 3.4 7.5 7.5-3.3 7.5-7.5 7.5zm0 3c5.8 0 10.5-4.7 10.5-10.5s-4.7-10.5-10.5-10.5-10.5 4.7-10.5 10.5 4.7 10.5 10.5 10.5zm-30.5-41h61v61h-61v-61z"/></defs><defs><path id="d" d="M466.5-370.1c-8 0-14.5-6.5-14.5-14.5s6.5-14.5 14.5-14.5 14.5 6.5 14.5 14.5-6.5 14.5-14.5 14.5zm0 3c9.7 0 17.5-7.8 17.5-17.5s-7.8-17.5-17.5-17.5-17.5 7.8-17.5 17.5 7.8 17.5 17.5 17.5zm-37.5-55h75v75h-75v-75z"/></defs><defs><path id="e" d="M466.5-377.1c-4.1 0-7.5-3.4-7.5-7.5s3.4-7.5 7.5-7.5 7.5 3.4 7.5 7.5-3.4 7.5-7.5 7.5zm0 3c5.8 0 10.5-4.7 10.5-10.5s-4.7-10.5-10.5-10.5-10.5 4.7-10.5 10.5 4.7 10.5 10.5 10.5zm-30.5-41h61v61h-61v-61z"/></defs><defs><path id="f" d="M91.4-451.8h-1.5v84h108v-84H91.4zm0 3h105l-1.5-1.5v81l1.5-1.5h-105l1.5 1.5v-81l-1.5 1.5zm-21.5-23h148v124h-148v-124z"/></defs><defs><path id="g" d="M85.4-434.8h-2.2l.9-2.1 9.1-22 .4-.9h100.9l.4.9 9.1 22 .9 2.1H85.4zm0-3h117l-1.4 2.1-9.1-22 1.4.9H94.5l1.4-.9-9.1 22-1.4-2.1zm-22.3 23h161.5v-65H63.1v65z"/></defs><defs><path id="h" d="M170.4-467.8h-1.5v19h15v-19h-13.5zm0 3h12l-1.5-1.5v16l1.5-1.5h-12l1.5 1.5v-16l-1.5 1.5zm-21.5-23h55v59h-55v-59z"/></defs><defs><path id="i" d="M104.4-401.8h-1.5v34h24v-34h-22.5zm0 3h21l-1.5-1.5v31l1.5-1.5h-21l1.5 1.5v-31l-1.5 1.5zm-21.5-23h64v74h-64v-74z"/></defs><defs><path id="j" d="M105.4-429.8h-1.5v22h22v-22h-20.5zm0 3h19l-1.5-1.5v19l1.5-1.5h-19l1.5 1.5v-19l-1.5 1.5zm-21.5-23h62v62h-62v-62z"/></defs><defs><path id="k" d="M110.4-424.8h-1.5v12h12v-12h-10.5zm0 3h9l-1.5-1.5v9l1.5-1.5h-9l1.5 1.5v-9l-1.5 1.5zm-21.5-23h52v52h-52v-52z"/></defs><defs><path id="l" d="M135.4-429.8h-1.5v22h22v-22h-20.5zm0 3h19l-1.5-1.5v19l1.5-1.5h-19l1.5 1.5v-19l-1.5 1.5zm-21.5-23h62v62h-62v-62z"/></defs><defs><path id="m" d="M164.4-429.8h-1.5v22h22v-22h-20.5zm0 3h19l-1.5-1.5v19l1.5-1.5h-19l1.5 1.5v-19l-1.5 1.5zm-21.5-23h62v62h-62v-62z"/></defs><defs><path id="n" d="M135.4-401.8h-1.5v22h22v-22h-20.5zm0 3h19l-1.5-1.5v19l1.5-1.5h-19l1.5 1.5v-19l-1.5 1.5zm-21.5-23h62v62h-62v-62z"/></defs><defs><path id="o" d="M164.4-401.8h-1.5v22h22v-22h-20.5zm0 3h19l-1.5-1.5v19l1.5-1.5h-19l1.5 1.5v-19l-1.5 1.5zm-21.5-23h62v62h-62v-62z"/></defs><defs><path id="p" d="M140.4-424.8h-1.5v12h12v-12h-10.5zm0 3h9l-1.5-1.5v9l1.5-1.5h-9l1.5 1.5v-9l-1.5 1.5zm-21.5-23h52v52h-52v-52z"/></defs><defs><path id="q" d="M169.4-424.8h-1.5v12h12v-12h-10.5zm0 3h9l-1.5-1.5v9l1.5-1.5h-9l1.5 1.5v-9l-1.5 1.5zm-21.5-23h52v52h-52v-52z"/></defs><defs><path id="r" d="M140.4-396.8h-1.5v12h12v-12h-10.5zm0 3h9l-1.5-1.5v9l1.5-1.5h-9l1.5 1.5v-9l-1.5 1.5zm-21.5-23h52v52h-52v-52z"/></defs><defs><path id="s" d="M169.4-396.8h-1.5v12h12v-12h-10.5zm0 3h9l-1.5-1.5v9l1.5-1.5h-9l1.5 1.5v-9l-1.5 1.5zm-21.5-23h52v52h-52v-52z"/></defs><circle fill-rule="evenodd" clip-rule="evenodd" fill="#FFF" cx="113.3" cy="42.7" r="20.4"/><path fill="#0C1F2E" d="M113.3 64.5c-12.1 0-21.9-9.8-21.9-21.9s9.8-21.9 21.9-21.9 21.9 9.8 21.9 21.9-9.9 21.9-21.9 21.9zm0-40.7c-10.4 0-18.9 8.5-18.9 18.9s8.5 18.9 18.9 18.9 18.9-8.5 18.9-18.9-8.5-18.9-18.9-18.9z"/><path d="M115.6 50.1c0 1.5-1 2.4-2.4 2.4s-2.4-1-2.4-2.4 1-2.4 2.4-2.4 2.4 1 2.4 2.4zm-.8-4.7h-3l-.9-8.1v-5.2h4.8v5.2l-.9 8.1z"/><path fill="#091F2F" d="M166.052 42.516l4.442 1.82-9.516 23.225-4.441-1.82z"/><path fill="#FFF" d="M169.759 28.385l8.513 3.488-12.435 30.35-8.513-3.488z"/><path fill="#0C1F2E" d="M166.6 64.2l-11.3-4.6 13.6-33.1 11.3 4.6-13.6 33.1zm-7.3-6.3l5.7 2.4 11.3-27.5-5.7-2.4-11.3 27.5z"/><path fill="#FFF" d="M169.2 85l-27 22.4-3.5-34.9 13.9-8.5 12.3 5.1z"/><path fill="#0C1F2E" d="M141 110.4l-3.9-38.6 15.3-9.4 13.7 5.6 4.7 17.6-29.8 24.8zm-.7-37.1l3.1 31.1 24.1-20-3.8-14.3-10.9-4.5-12.5 7.7z"/><path fill="#FFF" d="M147.3 93.1l8.7-21.2"/><path fill="#0C1F2E" d="M147.3 94.6c-.2 0-.4 0-.6-.1-.8-.3-1.1-1.2-.8-2l8.7-21.2c.3-.8 1.2-1.1 2-.8.8.3 1.1 1.2.8 2l-8.7 21.2c-.2.6-.8.9-1.4.9z"/><g><path fill="#FFF" d="M177.7 110.4c0-7.1-5.7-12.9-12.8-12.9-3 0-5.7 1-7.8 2.6-.7-.3-1.4-.4-2.1-.4-2.2 0-4 1.2-5 2.9-1.6-1.8-4-2.9-6.6-2.9-1 0-2 .2-2.9.5-1.6-7.2-8.1-12.6-15.8-12.6-8.9 0-16.2 7.2-16.2 16.2 0 .8.1 1.5.2 2.3-1.5-.6-3.2-.7-5-.7-10.9 0-13.2 8.2-12.3 12.2h86.1c.1-2.1.2-6.5.2-7.2z"/><path fill="#0C1F2E" d="M178.8 118.5H90.1l-.3-1.1c-.6-2.2-.1-5.9 2.2-8.9 1.7-2.3 5.2-4.9 11.5-4.9 1.1 0 2.2.1 3.3.4v-.2c0-9.8 7.9-17.7 17.7-17.7 7.8 0 14.5 5 16.8 12.3 2.9-.5 5.9.2 8.2 2 1.8-1.8 4.5-2.6 7.1-2 2.4-1.7 5.2-2.5 8.1-2.5 7.9 0 14.3 6.4 14.3 14.3 0 .6-.1 5.8-.2 7.1v1.2zm-86.2-3H176c.1-1.8.1-4.8.1-5.4 0-6.2-5.1-11.3-11.3-11.3-2.5 0-4.9.8-6.9 2.4l-.7.5-.8-.3c-2.1-.8-4.3 0-5.3 1.9l-1 1.8-1.4-1.5c-1.9-2.1-5-3-7.9-2l-1.6.5-.4-1.6c-1.5-6.7-7.4-11.4-14.3-11.4-8.1 0-14.7 6.6-14.7 14.7 0 .6.1 1.3.2 2.1l.4 2.5-2.4-.9c-1.5-.6-2.9-.8-4.4-.8-4.1 0-7.2 1.3-9.2 3.8-1.3 1.6-1.8 3.6-1.8 5z"/></g></svg>