<svg xmlns="http://www.w3.org/2000/svg" xmlns:xlink="http://www.w3.org/1999/xlink" viewBox="0 0 276 137"><defs><circle id="a" cx="-158" cy="-88.5" r="50.5"/></defs><clipPath id="b"><use xlink:href="#a" overflow="visible"/></clipPath><g clip-path="url(#b)"><defs><path id="c" d="M-332.5-824.5h1121v1030h-1121z"/></defs></g><defs><circle id="d" cx="-158" cy="-88.5" r="43.5"/></defs><clipPath id="e"><use xlink:href="#d" overflow="visible"/></clipPath><g clip-path="url(#e)"><defs><path id="f" d="M-332.5-824.5h1121v1030h-1121z"/></defs></g><path fill="none" stroke="#1B1B1B" stroke-width="3" stroke-linecap="round" stroke-miterlimit="10" d="M106.4 62.6l62.2 40.5M180.3 65.2l-65.2 39.5"/><path fill="#FFF" stroke="#1B1B1B" stroke-width="3" stroke-linecap="round" stroke-miterlimit="10" d="M106.4 62.6h75.3v24.3h-75.3zM181.5 62.1v-.4c0-15.3-12.4-27.7-27.7-27.7h-.9v28.1h28.6z"/><circle fill="#FFF" stroke="#1B1B1B" stroke-width="3" stroke-linecap="round" stroke-miterlimit="10" cx="152.9" cy="62.1" r="5.2"/><circle fill="#FFF" stroke="#1B1B1B" stroke-width="3" stroke-linecap="round" stroke-miterlimit="10" cx="115.1" cy="104.7" r="8.1"/><circle fill="#FFF" stroke="#1B1B1B" stroke-width="3" stroke-linecap="round" stroke-miterlimit="10" cx="173.1" cy="104.7" r="8.1"/><path fill="none" stroke="#1B1B1B" stroke-width="3" stroke-linecap="round" stroke-miterlimit="10" d="M156.3 58.2l10.4-21M178 48l-19.9 12.1M89 39.6h10.8l6.6 21.5"/></svg>