<svg id="Layer_1" data-name="Layer 1" xmlns="http://www.w3.org/2000/svg" viewBox="0 0 276 137"><defs><style>.cls-1,.cls-2,.cls-3,.cls-37,.cls-38,.cls-39{fill:none}.cls-2{clip-rule:evenodd}.cls-3{fill-rule:evenodd}.cls-4{clip-path:url(#clip-path)}.cls-5{clip-path:url(#clip-path-2)}.cls-6{clip-path:url(#clip-path-3)}.cls-7{clip-path:url(#clip-path-4)}.cls-8{clip-path:url(#clip-path-5)}.cls-9{clip-path:url(#clip-path-6)}.cls-10{clip-path:url(#clip-path-8)}.cls-11{clip-path:url(#clip-path-9)}.cls-12{clip-path:url(#clip-path-11)}.cls-13{clip-path:url(#clip-path-12)}.cls-14{clip-path:url(#clip-path-14)}.cls-15{clip-path:url(#clip-path-15)}.cls-16{clip-path:url(#clip-path-17)}.cls-17{clip-path:url(#clip-path-18)}.cls-18{clip-path:url(#clip-path-20)}.cls-19{clip-path:url(#clip-path-21)}.cls-20{clip-path:url(#clip-path-23)}.cls-21{clip-path:url(#clip-path-24)}.cls-22{clip-path:url(#clip-path-26)}.cls-23{clip-path:url(#clip-path-27)}.cls-24{clip-path:url(#clip-path-29)}.cls-25{clip-path:url(#clip-path-30)}.cls-26{clip-path:url(#clip-path-32)}.cls-27{clip-path:url(#clip-path-33)}.cls-28{clip-path:url(#clip-path-35)}.cls-29{clip-path:url(#clip-path-36)}.cls-30{clip-path:url(#clip-path-38)}.cls-31{clip-path:url(#clip-path-39)}.cls-32{clip-path:url(#clip-path-41)}.cls-33{clip-path:url(#clip-path-42)}.cls-34{clip-path:url(#clip-path-44)}.cls-35{clip-path:url(#clip-path-45)}.cls-36{fill:#fff}.cls-37,.cls-38,.cls-39{stroke:#091f2f;stroke-miterlimit:10;stroke-width:3px}.cls-38{stroke-dasharray:2 2}.cls-39{stroke-dasharray:2.06 2.06}</style><clipPath id="clip-path"><circle class="cls-1" cx="-454" cy="-246.5" r="50.5"/></clipPath><clipPath id="clip-path-2"><circle class="cls-1" cx="-454" cy="-246.5" r="43.5"/></clipPath><clipPath id="clip-path-3"><circle class="cls-1" cx="-163.22" cy="-246.5" r="50.5"/></clipPath><clipPath id="clip-path-4"><circle class="cls-1" cx="-163.22" cy="-246.5" r="43.5"/></clipPath><clipPath id="clip-path-5"><path class="cls-2" d="M-208.33 29.49h-1.5v84h108v-84h-106.5zm0 3h105l-1.5-1.5v81l1.5-1.5h-105l1.5 1.5V31zm-21.5-23h148v124h-148z"/></clipPath><clipPath id="clip-path-6"><path class="cls-1" d="M-208.33 30.99h105v81h-105z"/></clipPath><clipPath id="clip-path-8"><path class="cls-2" d="M-214.33 46.49h-2.24l.85-2.07 9.07-22 .38-.93h100.87l.38.93 9.07 22 .85 2.07h-119.23zm0-3h117l-1.39 2.07-9.07-22 1.39.93h-98.86l1.39-.93-9.07 22zm-22.24 23h161.48v-65h-161.48z"/></clipPath><clipPath id="clip-path-9"><path class="cls-2" d="M-214.33 44.99h117l-9.07-22h-98.86l-9.07 22z"/></clipPath><clipPath id="clip-path-11"><path class="cls-2" d="M-129.33 13.49h-1.5v19h15v-19h-13.5zm0 3h12l-1.5-1.5V31l1.5-1.5h-12l1.5 1.5V15zm-21.5-23h55v59h-55z"/></clipPath><clipPath id="clip-path-12"><path class="cls-1" d="M-129.33 14.99h12v16h-12z"/></clipPath><clipPath id="clip-path-14"><path class="cls-2" d="M-195.33 79.49h-1.5v34h24v-34h-22.5zm0 3h21l-1.5-1.5v31l1.5-1.5h-21l1.5 1.5V81zm-21.5-23h64v74h-64z"/></clipPath><clipPath id="clip-path-15"><path class="cls-1" d="M-195.33 80.99h21v31h-21z"/></clipPath><clipPath id="clip-path-17"><path class="cls-2" d="M-194.33 51.49h-1.5v22h22v-22h-20.5zm0 3h19l-1.5-1.5V72l1.5-1.5h-19l1.5 1.5V53zm-21.5-23h62v62h-62z"/></clipPath><clipPath id="clip-path-18"><path class="cls-1" d="M-194.33 52.99h19v19h-19z"/></clipPath><clipPath id="clip-path-20"><path class="cls-2" d="M-189.33 56.49h-1.5v12h12v-12h-10.5zm0 3h9l-1.5-1.5v9l1.5-1.5h-9l1.5 1.5V58zm-21.5-23h52v52h-52z"/></clipPath><clipPath id="clip-path-21"><path class="cls-1" d="M-189.33 57.99h9v9h-9z"/></clipPath><clipPath id="clip-path-23"><path class="cls-2" d="M-164.33 51.49h-1.5v22h22v-22h-20.5zm0 3h19l-1.5-1.5V72l1.5-1.5h-19l1.5 1.5V53zm-21.5-23h62v62h-62z"/></clipPath><clipPath id="clip-path-24"><path class="cls-1" d="M-164.33 52.99h19v19h-19z"/></clipPath><clipPath id="clip-path-26"><path class="cls-2" d="M-135.33 51.49h-1.5v22h22v-22h-20.5zm0 3h19l-1.5-1.5V72l1.5-1.5h-19l1.5 1.5V53zm-21.5-23h62v62h-62z"/></clipPath><clipPath id="clip-path-27"><path class="cls-1" d="M-135.33 52.99h19v19h-19z"/></clipPath><clipPath id="clip-path-29"><path class="cls-2" d="M-164.33 79.49h-1.5v22h22v-22h-20.5zm0 3h19l-1.5-1.5v19l1.5-1.5h-19l1.5 1.5V81zm-21.5-23h62v62h-62z"/></clipPath><clipPath id="clip-path-30"><path class="cls-1" d="M-164.33 80.99h19v19h-19z"/></clipPath><clipPath id="clip-path-32"><path class="cls-2" d="M-135.33 79.49h-1.5v22h22v-22h-20.5zm0 3h19l-1.5-1.5v19l1.5-1.5h-19l1.5 1.5V81zm-21.5-23h62v62h-62z"/></clipPath><clipPath id="clip-path-33"><path class="cls-1" d="M-135.33 80.99h19v19h-19z"/></clipPath><clipPath id="clip-path-35"><path class="cls-2" d="M-159.33 56.49h-1.5v12h12v-12h-10.5zm0 3h9l-1.5-1.5v9l1.5-1.5h-9l1.5 1.5V58zm-21.5-23h52v52h-52z"/></clipPath><clipPath id="clip-path-36"><path class="cls-1" d="M-159.33 57.99h9v9h-9z"/></clipPath><clipPath id="clip-path-38"><path class="cls-2" d="M-130.33 56.49h-1.5v12h12v-12h-10.5zm0 3h9l-1.5-1.5v9l1.5-1.5h-9l1.5 1.5V58zm-21.5-23h52v52h-52z"/></clipPath><clipPath id="clip-path-39"><path class="cls-1" d="M-130.33 57.99h9v9h-9z"/></clipPath><clipPath id="clip-path-41"><path class="cls-2" d="M-159.33 84.49h-1.5v12h12v-12h-10.5zm0 3h9l-1.5-1.5v9l1.5-1.5h-9l1.5 1.5V86zm-21.5-23h52v52h-52z"/></clipPath><clipPath id="clip-path-42"><path class="cls-1" d="M-159.33 85.99h9v9h-9z"/></clipPath><clipPath id="clip-path-44"><path class="cls-2" d="M-130.33 84.49h-1.5v12h12v-12h-10.5zm0 3h9l-1.5-1.5v9l1.5-1.5h-9l1.5 1.5V86zm-21.5-23h52v52h-52z"/></clipPath><clipPath id="clip-path-45"><path class="cls-1" d="M-130.33 85.99h9v9h-9z"/></clipPath></defs><title>EXPERIENTIAL ICONS</title><circle class="cls-36" cx="137.5" cy="65.62" r="43.78"/><circle class="cls-37" cx="137.5" cy="65.62" r="43.78"/><path class="cls-37" d="M125.64 108q-.3-.39-.58-.81"/><path class="cls-38" d="M124.07 105.49v-.08c-4.92-10.44 3.79-24.88 19.44-32.25 13.8-6.5 28.4-5.34 35 2.18"/><path class="cls-37" d="M179.14 76.11q.3.4.58.81M149.28 24.9q.05.5.08 1"/><path class="cls-39" d="M149.37 27.95c-.49 11.75-10.85 23.43-26 28a40.48 40.48 0 0 1-23.93.18"/><path class="cls-37" d="M98.49 55.8l-.94-.35"/></svg>