<svg id="Layer_1" data-name="Layer 1" xmlns="http://www.w3.org/2000/svg" viewBox="0 0 276 137"><defs><style>.cls-1,.cls-27,.cls-29{fill:none}.cls-2{clip-path:url(#clip-path)}.cls-3{clip-path:url(#clip-path-3)}.cls-4{clip-path:url(#clip-path-4)}.cls-5{clip-path:url(#clip-path-5)}.cls-6{clip-path:url(#clip-path-6)}.cls-7{clip-path:url(#clip-path-7)}.cls-8{clip-path:url(#clip-path-8)}.cls-9{clip-path:url(#clip-path-9)}.cls-10{clip-path:url(#clip-path-10)}.cls-11{clip-path:url(#clip-path-11)}.cls-12{clip-path:url(#clip-path-12)}.cls-13{clip-path:url(#clip-path-13)}.cls-14{clip-path:url(#clip-path-14)}.cls-15{clip-path:url(#clip-path-15)}.cls-16{clip-path:url(#clip-path-16)}.cls-17{clip-path:url(#clip-path-17)}.cls-18{clip-path:url(#clip-path-18)}.cls-19{clip-path:url(#clip-path-19)}.cls-20{clip-path:url(#clip-path-21)}.cls-21{clip-path:url(#clip-path-22)}.cls-22{clip-path:url(#clip-path-23)}.cls-23{clip-path:url(#clip-path-24)}.cls-24{clip-path:url(#clip-path-25)}.cls-25{clip-path:url(#clip-path-26)}.cls-26,.cls-28{fill:#fff}.cls-27,.cls-28,.cls-29{stroke:#0c1f2e;stroke-miterlimit:10;stroke-width:3px}.cls-28,.cls-29{fill-rule:evenodd}</style><clipPath id="clip-path"><path class="cls-1" d="M-497.74-296.88h53.51v88.33h-53.51z"/></clipPath><clipPath id="clip-path-3"><path class="cls-1" d="M-490.1-273.1h37.37v11.04h-37.37z"/></clipPath><clipPath id="clip-path-4"><path class="cls-1" d="M-490.1-264.61h37.37v11.04h-37.37z"/></clipPath><clipPath id="clip-path-5"><path class="cls-1" d="M-490.1-256.12h37.37v11.04h-37.37z"/></clipPath><clipPath id="clip-path-6"><path class="cls-1" d="M-490.1-247.62h37.37v11.89h-37.37z"/></clipPath><clipPath id="clip-path-7"><path class="cls-1" d="M-490.1-238.28h37.37v11.89h-37.37z"/></clipPath><clipPath id="clip-path-8"><path class="cls-1" d="M-490.1-228.94h37.37v11.89h-37.37z"/></clipPath><clipPath id="clip-path-9"><path class="cls-1" d="M-489.25-288.39h2.55v11.04h-2.55z"/></clipPath><clipPath id="clip-path-10"><path class="cls-1" d="M-485-288.39h2.55v11.04H-485z"/></clipPath><clipPath id="clip-path-11"><path class="cls-1" d="M-480.75-288.39h2.55v11.04h-2.55z"/></clipPath><clipPath id="clip-path-12"><path class="cls-1" d="M-476.51-288.39h2.55v11.04h-2.55z"/></clipPath><clipPath id="clip-path-13"><path class="cls-1" d="M-472.26-288.39h2.55v11.04h-2.55z"/></clipPath><clipPath id="clip-path-14"><path class="cls-1" d="M-472.26-245.08h2.55v27.18h-2.55z"/></clipPath><clipPath id="clip-path-15"><path class="cls-1" d="M-468.01-288.39h2.55v11.04h-2.55z"/></clipPath><clipPath id="clip-path-16"><path class="cls-1" d="M-463.77-288.39h2.55v11.04h-2.55z"/></clipPath><clipPath id="clip-path-17"><path class="cls-1" d="M-459.52-288.39h2.55v11.04h-2.55z"/></clipPath><clipPath id="clip-path-18"><path class="cls-1" d="M-455.27-288.39h2.55v11.04h-2.55z"/></clipPath><clipPath id="clip-path-19"><circle class="cls-1" cx="-436.59" cy="-220.44" r="26.33"/></clipPath><clipPath id="clip-path-21"><circle class="cls-1" cx="-750" cy="-245.5" r="50.5"/></clipPath><clipPath id="clip-path-22"><circle class="cls-1" cx="-750" cy="-245.5" r="43.5"/></clipPath><clipPath id="clip-path-23"><circle class="cls-1" cx="-455.84" cy="-88.5" r="50.5"/></clipPath><clipPath id="clip-path-24"><circle class="cls-1" cx="-455.84" cy="-88.5" r="43.5"/></clipPath><clipPath id="clip-path-25"><circle class="cls-1" cx="138" cy="-88.5" r="50.5"/></clipPath><clipPath id="clip-path-26"><circle class="cls-1" cx="138" cy="-88.5" r="43.5"/></clipPath></defs><title>EXPERIENTIAL ICONS 2 (2)</title><circle class="cls-26" cx="138" cy="68.5" r="42.18"/><circle class="cls-27" cx="138" cy="68.5" r="42.18"/><path class="cls-28" d="M154.48 28.48s-39.17 32.13-28.92 79.16M171.93 42.26s-53.36 30.34-17.45 63.9M118.2 30.07S121.42 70.85 99.69 85"/><path class="cls-29" d="M98.69 52s24.2 37.08 81.49 23"/></svg>