<svg xmlns="http://www.w3.org/2000/svg" viewBox="0 0 276 137"><title>EXPERIENTIAL ICONS 3 (5)</title><g data-name="Layer 1"><circle cx="138" cy="68.5" r="50.5" fill="#fff" stroke="#0f1f2d" stroke-linecap="round" stroke-miterlimit="10" stroke-width="3"/><circle cx="138" cy="68.5" r="43.5" fill="#fff" stroke="#0f1f2d" stroke-linecap="round" stroke-miterlimit="10" stroke-width="3"/><circle cx="120.41" cy="47.17" r="4.22" fill="#091f2e"/><circle cx="157.8" cy="47.17" r="4.22" fill="#091f2e"/><path d="M131.13 79.33L125.3 59l.84-.24c.24.69.51 1.37.72 2.07.82 2.81 1.59 5.64 2.45 8.44 1.2-.35 2.39-.75 3.57-1.17-.74-2.38-1.44-4.77-2.16-7.15-2.54-8.36-2.81-8.55-11.62-8.51-4.3 0-5.9 1.25-7.21 5.37-1.15 3.64-2.39 7.26-3.59 10.89a31.45 31.45 0 0 1 3.78 1.38c.06-.16.12-.31.17-.49.78-2.58 1.48-5.19 2.25-7.78.31-1 .7-2.08 1.05-3.11l.72.23-5.77 20.49h5.5v3c0 3.88-.08 7.76.09 11.63h4.23v-.73V81.5a19.45 19.45 0 0 1 .22-2.06h.71c.07.77.21 1.53.21 2.3v12.29h4.1v-1.78-12.94zM162.89 62.13v-2.49l.79-.06c.06.7.16 1.4.17 2.11v9.12h3.73c.15-4.15.14-8.3 0-12.45a5.78 5.78 0 0 0-5.91-5.85c-2.78-.07-5.56 0-8.34 0-4.08 0-6.32 2.15-6.42 6.24s0 8.21 0 12.31h3.9v-9.75a13.1 13.1 0 0 1 .24-1.73l.71.08v32.77c0 .41-.06.86-.06 1.28h5.14v-1.06-16.21c0-.75.09-1.49.14-2.24h.61v19.48h5.36c0-.4-.05-.84-.05-1.22-.01-5.77-.01-27.46-.01-30.33z" fill="#091f2e" stroke="#fff" stroke-miterlimit="10" stroke-width=".36"/><path fill="none" stroke="#0f1f2d" stroke-miterlimit="10" stroke-width="3" d="M138.95 42.95v50.74"/></g></svg>