<svg xmlns="http://www.w3.org/2000/svg" xmlns:xlink="http://www.w3.org/1999/xlink" viewBox="0 0 276 137"><defs><path id="a" d="M138-663.5c-29.3 0-53-23.7-53-53s23.7-53 53-53 53 23.7 53 53-23.7 53-53 53zm0 3c30.9 0 56-25.1 56-56s-25.1-56-56-56-56 25.1-56 56 25.1 56 56 56z"/></defs><clipPath id="b"><use xlink:href="#a" overflow="visible"/></clipPath><g clip-path="url(#b)"><defs><circle id="c" cx="138" cy="-716.5" r="54.5"/></defs></g><defs><circle id="d" cx="138" cy="-716.5" r="54.5"/></defs><defs><path id="e" d="M138-684.5c-17.7 0-32-14.3-32-32s14.3-32 32-32 32 14.3 32 32-14.3 32-32 32zm0 3c19.3 0 35-15.7 35-35s-15.7-35-35-35-35 15.7-35 35 15.7 35 35 35zm-55-90h110v110H83v-110z"/></defs><clipPath id="f"><use xlink:href="#e" overflow="visible"/></clipPath><g clip-path="url(#f)"><defs><circle id="g" cx="138" cy="-716.5" r="33.5"/></defs></g><defs><circle id="h" cx="138" cy="-716.5" r="33.5"/></defs><defs><path id="i" d="M136.5-770.5H135v13h6v-13h-4.5zm0 3h3L138-769v10l1.5-1.5h-3l1.5 1.5v-10l-1.5 1.5z"/></defs><clipPath id="j"><use xlink:href="#i" overflow="visible"/></clipPath><g clip-path="url(#j)"><defs><path id="k" d="M136.5-769h3v10h-3z"/></defs></g><defs><path id="l" d="M136.5-769h3v10h-3z"/></defs><defs><path id="m" d="M82.5-714.5v1.5h13v-6h-13v4.5zm3 0v-3L84-716h10l-1.5-1.5v3L94-716H84l1.5 1.5z"/></defs><clipPath id="n"><use xlink:href="#m" overflow="visible"/></clipPath><g clip-path="url(#n)"><defs><path id="o" d="M84-717.5h10v3H84z"/></defs></g><defs><path id="p" d="M84-717.5h10v3H84z"/></defs><defs><path id="q" d="M179.5-714.5v1.5h13v-6h-13v4.5zm3 0v-3L181-716h10l-1.5-1.5v3l1.5-1.5h-10l1.5 1.5z"/></defs><clipPath id="r"><use xlink:href="#q" overflow="visible"/></clipPath><g clip-path="url(#r)"><defs><path id="s" d="M181-717.5h10v3h-10z"/></defs></g><defs><path id="t" d="M181-717.5h10v3h-10z"/></defs><defs><path id="u" d="M168.5-744.3l1.1 1.1 1.1-1.1 7.1-7.1 1.1-1.1-1.1-1.1-2.1-2.1-1.1-1.1-1.1 1.1-7.1 7.1-1.1 1.1 1.1 1.1 2.1 2.1zm2.1-2.2l-2.1-2.1v2.1l7.1-7.1h-2.1l2.1 2.1v-2.1l-7.1 7.1h2.1z"/></defs><clipPath id="v"><use xlink:href="#u" overflow="visible"/></clipPath><g clip-path="url(#v)"><defs><path id="w" transform="rotate(-45.001 172.01 -750.002)" d="M167-751.5h10v3h-10z"/></defs></g><defs><path id="x" transform="rotate(-45.001 172.01 -750.002)" d="M167-751.5h10v3h-10z"/></defs><defs><path id="y" d="M108.7-745.5l1.1-1.1-1.1-1.1-7.1-7.1-1.1-1.1-1.1 1.1-2.1 2.1-1.1 1.1 1.1 1.1 7.1 7.1 1.1 1.1 1.1-1.1 2.1-2.1zm-2.2-2.1l-2.1 2.1h2.1l-7.1-7.1v2.1l2.1-2.1h-2.1l7.1 7.1v-2.1z"/></defs><clipPath id="z"><use xlink:href="#y" overflow="visible"/></clipPath><g clip-path="url(#z)"><defs><path id="A" transform="rotate(-45.001 103.009 -749.003)" d="M101.5-754h3v10h-3z"/></defs></g><defs><path id="B" transform="rotate(-45.001 103.009 -749.003)" d="M101.5-754h3v10h-3z"/></defs><defs><path id="C" d="M168.5-688.7l1.1-1.1 1.1 1.1 7.1 7.1 1.1 1.1-1.1 1.1-2.1 2.1-1.1 1.1-1.1-1.1-7.1-7.1-1.1-1.1 1.1-1.1 2.1-2.1zm2.1 2.2l-2.1 2.1v-2.1l7.1 7.1h-2.1l2.1-2.1v2.1l-7.1-7.1h2.1z"/></defs><clipPath id="D"><use xlink:href="#C" overflow="visible"/></clipPath><g clip-path="url(#D)"><defs><path id="E" transform="rotate(-45.001 172.009 -683)" d="M170.5-688h3v10h-3z"/></defs></g><defs><path id="F" transform="rotate(-45.001 172.009 -683)" d="M170.5-688h3v10h-3z"/></defs><defs><path id="G" d="M108.7-685.5l1.1 1.1-1.1 1.1-7.1 7.1-1.1 1.1-1.1-1.1-2.1-2.1-1.1-1.1 1.1-1.1 7.1-7.1 1.1-1.1 1.1 1.1 2.1 2.1zm-2.2 2.1l-2.1-2.1h2.1l-7.1 7.1v-2.1l2.1 2.1h-2.1l7.1-7.1v2.1z"/></defs><clipPath id="H"><use xlink:href="#G" overflow="visible"/></clipPath><g clip-path="url(#H)"><defs><path id="I" transform="rotate(-45.001 103.008 -682.002)" d="M98-683.5h10v3H98z"/></defs></g><defs><path id="J" transform="rotate(-45.001 103.008 -682.002)" d="M98-683.5h10v3H98z"/></defs><defs><path id="K" d="M147.6-737.1c.7.3 1.5.6 2.2 1 1.3.7 2.5 1.6 3.6 2.4.4.3.7.6 1 .9.2.2.3.3.4.3l1.6 1.6-.3-2.2-2.1-14.7-.2-1.2-1 .6-12.3 8-1.8 1.2 2.1.2c.1 0 .3 0 .5.1.4.1.9.2 1.5.3 1.4.3 3.1.8 4.8 1.5zm7.5 4c-.1-.1-.4-.3-.7-.6l.1.9.6-.3zm0-1l.1.9.6-.3-.4-.4c-.1 0-.2-.1-.3-.2zm-1.9-13.1v.3l.3-.2-.3-.1zm-.8 0l.3-.2-.3-.2v.4zm-11.4 7.4l.7-.5h-.3c-.3 0-.5-.1-.6-.1l.2.6zm.9.3c-.4-.1-.7-.1-.9-.1l.1.6.8-.5z"/></defs><defs><path id="L" d="M147.8-737.8c-3.9-1.6-7.1-1.9-7.1-1.9l12.3-8 2.1 14.7c.2.1-3.1-3.1-7.3-4.8zm-25-11.1l37.2-15.8 15.8 37.2-37.2 15.8-15.8-37.2z"/></defs><defs><path id="M" d="M138-692.5c-13.3 0-24-10.7-24-24s10.7-24 24-24 24 10.7 24 24-10.7 24-24 24zm0 3c14.9 0 27-12.1 27-27s-12.1-27-27-27-27 12.1-27 27 12.1 27 27 27zm-47-74h94v94H91v-94z"/></defs><clipPath id="N"><use xlink:href="#M" overflow="visible"/></clipPath><g clip-path="url(#N)"><defs><circle id="O" cx="138" cy="-716.5" r="25.5"/></defs></g><defs><circle id="P" cx="138" cy="-716.5" r="25.5"/></defs><defs><path id="Q" d="M428.2-777.5h-1.5v18h19v-18h-17.5zm0 3h16l-1.5-1.5v15l1.5-1.5h-16l1.5 1.5v-15l-1.5 1.5z"/></defs><clipPath id="R"><use xlink:href="#Q" overflow="visible"/></clipPath><g clip-path="url(#R)"><defs><path id="S" d="M428.2-776h16v15h-16z"/></defs></g><defs><path id="T" d="M428.2-776h16v15h-16z"/></defs><defs><path id="U" d="M404.2-765.5h-1.5v43h67v-43h-65.5zm0 3h64l-1.5-1.5v40l1.5-1.5h-64l1.5 1.5v-40l-1.5 1.5z"/></defs><clipPath id="V"><use xlink:href="#U" overflow="visible"/></clipPath><g clip-path="url(#V)"><defs><path id="W" d="M404.2-764h64v40h-64z"/></defs></g><defs><path id="X" d="M404.2-764h64v40h-64z"/></defs><defs><path id="Y" d="M439.2-755.5h-1.5v33h22v-33h-20.5zm0 3h19l-1.5-1.5v30l1.5-1.5h-19l1.5 1.5v-30l-1.5 1.5z"/></defs><clipPath id="Z"><use xlink:href="#Y" overflow="visible"/></clipPath><g clip-path="url(#Z)"><defs><path id="aa" d="M439.2-754h19v30h-19z"/></defs></g><defs><path id="ab" d="M439.2-754h19v30h-19z"/></defs><defs><path id="ac" d="M414.2-755.5h-1.5v33h22v-33h-20.5zm0 3h19l-1.5-1.5v30l1.5-1.5h-19l1.5 1.5v-30l-1.5 1.5z"/></defs><clipPath id="ad"><use xlink:href="#ac" overflow="visible"/></clipPath><g clip-path="url(#ad)"><defs><path id="ae" d="M414.2-754h19v30h-19z"/></defs></g><defs><path id="af" d="M414.2-754h19v30h-19z"/></defs><defs><path id="ag" d="M383.7-697.3c0 2.9-.8 7-2.3 11.9-.6 2.1-1.3 4.3-2.1 6.5-1 2.7-2 5.4-3.1 8-.4.9-.7 1.7-1 2.4-.2.4-.3.7-.4.9l-.9 2.1h119.4l-.7-2c-.1-.2-.2-.4-.3-.9-.2-.7-.5-1.5-.8-2.4-.8-2.5-1.6-5.2-2.4-7.9-.7-2.4-1.3-4.8-1.8-7-1.1-4.8-1.7-8.8-1.7-11.8 0-2.8.7-7 1.9-12 .5-1.9 1-3.9 1.6-6 .8-2.7 1.6-5.4 2.4-7.9.3-.9.5-1.7.8-2.4.1-.4.2-.7.3-.9l.7-2H373.9l1 2.1c.1.1.2.4.4.9.3.7.6 1.5 1 2.4 1 2.5 2.1 5.1 3.1 7.8.8 2.2 1.5 4.4 2.1 6.4 1.4 5 2.2 9 2.2 11.8zm3 0c0-3.2-.9-7.5-2.4-12.5-.6-2.1-1.4-4.3-2.2-6.5-1-2.7-2.1-5.4-3.1-8-.4-.9-.7-1.7-1-2.4-.2-.4-.3-.7-.4-.9l-1.4 2.1h115l-1.4-2c-.1.2-.2.5-.3.9-.2.7-.5 1.5-.8 2.4-.8 2.6-1.7 5.3-2.4 8-.6 2.1-1.1 4.1-1.6 6.1-1.3 5.2-2 9.5-2 12.7 0 3.2.6 7.4 1.7 12.4.5 2.3 1.1 4.7 1.8 7.1.8 2.8 1.6 5.5 2.4 8.1.3.9.6 1.7.8 2.4.1.4.2.7.3.9l1.4-2h-115l1.4 2.1c.1-.2.2-.5.4-.9.3-.7.7-1.5 1-2.4 1.1-2.6 2.1-5.3 3.1-8.1.8-2.3 1.6-4.5 2.2-6.7 1.7-5.2 2.5-9.5 2.5-12.8z"/></defs><clipPath id="ah"><use xlink:href="#ag" overflow="visible"/></clipPath><g clip-path="url(#ah)"><defs><path id="ai" d="M385.2-697.3c0-9.9-9-29.7-9-29.7h115s-7 20-7 29.6c0 10.5 7 30.4 7 30.4h-115s9-20.2 9-30.3z"/></defs></g><defs><path id="aj" d="M385.2-697.3c0-9.9-9-29.7-9-29.7h115s-7 20-7 29.6c0 10.5 7 30.4 7 30.4h-115s9-20.2 9-30.3z"/></defs><defs><path id="ak" d="M399.2-696.5h-1.5v6h72v-6h-70.5zm0 3h69l-1.5-1.5v3l1.5-1.5h-69l1.5 1.5v-3l-1.5 1.5zm-21.5-23h112v46h-112v-46z"/></defs><clipPath id="al"><use xlink:href="#ak" overflow="visible"/></clipPath><g clip-path="url(#al)"><defs><path id="am" d="M399.2-695h69v3h-69z"/></defs></g><defs><path id="an" d="M399.2-695h69v3h-69z"/></defs><defs><path id="ao" d="M399.2-704.5h-1.5v6h72v-6h-70.5zm0 3h69l-1.5-1.5v3l1.5-1.5h-69l1.5 1.5v-3l-1.5 1.5zm-21.5-23h112v46h-112v-46z"/></defs><clipPath id="ap"><use xlink:href="#ao" overflow="visible"/></clipPath><g clip-path="url(#ap)"><defs><path id="aq" d="M399.2-703h69v3h-69z"/></defs></g><defs><path id="ar" d="M399.2-703h69v3h-69z"/></defs><defs><path id="as" d="M431.2-689.1l.5 1.6 1.5-.7c2-.9 4.2-1.3 6.4-1.3 6 0 11.3 3.3 14.1 8.4l.5 1 1.1-.2c.6-.1 1.2-.2 1.8-.2 3.5 0 6.6 2.1 7.9 5.3l.5 1.2 1.3-.3c.4-.1.9-.2 1.4-.2 3 0 5.5 2.5 5.5 5.5s-2.5 5.5-5.5 5.5c-1.5 0-2.9-.6-3.9-1.6l-.9-.9-1 .8c-1.5 1.1-3.3 1.7-5.1 1.7-1.1 0-2.2-.2-3.2-.6l-1-.4-.7.9c-3 3.8-7.6 6.1-12.6 6.1-4.9 0-9.5-2.3-12.5-6l-.7-.8-1 .3c-1.1.4-2.2.5-3.3.5-2 0-4-.6-5.7-1.7l-.8-.5-.8.5c-1.7 1.1-3.6 1.7-5.7 1.7-2.2 0-4.3-.7-6-1.9l-1.1-.7-.9.9c-1 1.1-2.5 1.7-4 1.7-3 0-5.5-2.5-5.5-5.5s2.5-5.5 5.5-5.5h1.4l.2-1.3c.8-5 5.2-8.7 10.4-8.7h1.5v-1.5c0-5.8 4.7-10.5 10.5-10.5 4.6 0 8.6 3 9.9 7.4zm2.9-.9c-1.7-5.6-6.9-9.5-12.9-9.5-7.5 0-13.5 6-13.5 13.5l1.5-1.5c-6.6 0-12.2 4.8-13.3 11.3l1.5.2v-1.5h-.2c-4.7 0-8.5 3.8-8.5 8.5s3.8 8.5 8.5 8.5c2.4 0 4.6-1 6.2-2.7l-2 .2c2.3 1.6 5 2.5 7.8 2.5 2.6 0 5.2-.8 7.3-2.2h-1.6c2.2 1.4 4.7 2.2 7.3 2.2 1.5 0 2.9-.2 4.3-.7l-.5-1.4-1.2.9c3.6 4.5 9 7.2 14.9 7.2s11.4-2.7 15-7.3l-1.2-.9-.6 1.4c1.3.5 2.8.8 4.3.8 2.6 0 5-.8 7-2.4l-2-.1c1.6 1.6 3.7 2.5 6 2.5 4.7 0 8.5-3.8 8.5-8.5s-3.8-8.5-8.5-8.5c-.7 0-1.4.1-2.1.3l.4 1.5 1.4-.6c-1.8-4.3-5.9-7.2-10.6-7.2-.8 0-1.6.1-2.4.2l.3 1.5 1.3-.7c-3.3-6.1-9.7-10-16.7-10-2.7 0-5.2.5-7.6 1.6l1.9.9zm-65.4-29.5h128v85h-128v-85z"/></defs><clipPath id="at"><use xlink:href="#as" overflow="visible"/></clipPath><g clip-path="url(#at)"><defs><path id="au" d="M432.7-689.5c-1.5-4.9-6.1-8.5-11.5-8.5-6.6 0-12 5.4-12 12-5.9 0-10.9 4.3-11.8 10h-.2c-3.9 0-7 3.1-7 7s3.1 7 7 7c2 0 3.8-.8 5.1-2.2 2 1.4 4.3 2.2 6.9 2.2 2.4 0 4.6-.7 6.5-1.9 1.9 1.2 4.1 1.9 6.5 1.9 1.3 0 2.6-.2 3.8-.6 3.2 4 8.2 6.6 13.7 6.6 5.6 0 10.6-2.6 13.8-6.7 1.1.5 2.4.7 3.7.7 2.3 0 4.4-.8 6.1-2 1.3 1.3 3 2 4.9 2 3.9 0 7-3.1 7-7s-3.1-7-7-7c-.6 0-1.2.1-1.7.2-1.5-3.6-5.1-6.2-9.3-6.2-.7 0-1.4.1-2.1.2-3-5.5-8.8-9.2-15.4-9.2-2.5 0-4.9.5-7 1.5z"/></defs></g><defs><path id="av" d="M432.7-689.5c-1.5-4.9-6.1-8.5-11.5-8.5-6.6 0-12 5.4-12 12-5.9 0-10.9 4.3-11.8 10h-.2c-3.9 0-7 3.1-7 7s3.1 7 7 7c2 0 3.8-.8 5.1-2.2 2 1.4 4.3 2.2 6.9 2.2 2.4 0 4.6-.7 6.5-1.9 1.9 1.2 4.1 1.9 6.5 1.9 1.3 0 2.6-.2 3.8-.6 3.2 4 8.2 6.6 13.7 6.6 5.6 0 10.6-2.6 13.8-6.7 1.1.5 2.4.7 3.7.7 2.3 0 4.4-.8 6.1-2 1.3 1.3 3 2 4.9 2 3.9 0 7-3.1 7-7s-3.1-7-7-7c-.6 0-1.2.1-1.7.2-1.5-3.6-5.1-6.2-9.3-6.2-.7 0-1.4.1-2.1.2-3-5.5-8.8-9.2-15.4-9.2-2.5 0-4.9.5-7 1.5z"/></defs><defs><path id="aw" d="M703.7-724.6l56 32.4s-1.5 14.3-8.3 24.7-24.1 17.2-24.1 17.2l-53.4-38.5s13.7-4.3 21.6-13.8 8.2-22 8.2-22z"/></defs><defs><path id="ax" d="M729.2-710.8l21.8-50.6 6.2 2.7-22.4 51z"/></defs><defs><path id="ay" d="M694.3-684.4l1.2.9.9-1.2c-1.5-1-3.3-1.6-5.1-1.6-5 0-9 4-9 9 0 3.8 2.4 7.2 6 8.5l-1-1.4c0 4.9 4.1 8.9 9 8.9 1.4 0 2.8-.3 4.1-1l-.7-1.3-1.4.6c1.9 4 5.9 6.7 10.4 6.7 6.4 0 11.5-5.1 11.5-11.5 0-1.2-.2-2.5-.6-3.6l-1.4.5.8 1.3c2.6-1.6 4.2-4.5 4.2-7.6 0-5-4-9-9-9-1.2 0-2.3.2-3.4.7l.6 1.4 1.1-1c-2.2-2.6-5.4-4.1-8.8-4.1-3.8-.1-7.3 1.8-9.4 4.8zm2.4 1.7c1.6-2.3 4.2-3.7 7-3.7 2.5 0 4.9 1.1 6.5 3l.7.8 1-.4c.7-.3 1.5-.4 2.3-.4 3.3 0 6 2.7 6 6 0 2.1-1.1 4-2.8 5.1l-1 .6.4 1.1c.3.9.4 1.8.4 2.7 0 4.7-3.8 8.5-8.5 8.5-3.4 0-6.3-2-7.7-4.9l-.7-1.4-1.3.7c-.8.4-1.8.7-2.7.7-3.3 0-6-2.7-6-5.9v-1.1l-1-.3c-2.4-.8-4-3.1-4-5.7 0-3.3 2.7-6 6-6 1.2 0 2.4.4 3.4 1.1l1.2.9.8-1.4zm-34.5-26.6h81v73h-81v-73z"/></defs><clipPath id="az"><use xlink:href="#ay" overflow="visible"/></clipPath><g clip-path="url(#az)"><defs><path id="aA" d="M695.5-683.5c1.8-2.6 4.8-4.3 8.2-4.3 3.1 0 5.8 1.4 7.7 3.6.9-.4 1.8-.6 2.8-.6 4.1 0 7.5 3.4 7.5 7.5 0 2.7-1.4 5-3.5 6.3.3 1 .5 2 .5 3.2 0 5.5-4.5 10-10 10-4 0-7.5-2.4-9.1-5.8-1 .5-2.2.8-3.4.8-4.1 0-7.5-3.3-7.5-7.4-2.9-1-5-3.8-5-7.1 0-4.1 3.4-7.5 7.5-7.5 1.6 0 3.1.5 4.3 1.3z"/></defs></g><defs><path id="aB" d="M695.5-683.5c1.8-2.6 4.8-4.3 8.2-4.3 3.1 0 5.8 1.4 7.7 3.6.9-.4 1.8-.6 2.8-.6 4.1 0 7.5 3.4 7.5 7.5 0 2.7-1.4 5-3.5 6.3.3 1 .5 2 .5 3.2 0 5.5-4.5 10-10 10-4 0-7.5-2.4-9.1-5.8-1 .5-2.2.8-3.4.8-4.1 0-7.5-3.3-7.5-7.4-2.9-1-5-3.8-5-7.1 0-4.1 3.4-7.5 7.5-7.5 1.6 0 3.1.5 4.3 1.3z"/></defs><defs><path id="aC" d="M751.7-768.2l10.2 4.4 2-4.4-10.3-4-1.9 4zm-8.5 2.7l22.8 9.7 7.1-15.4-23.3-8.4-6.6 14.1z"/></defs><defs><path id="aD" d="M1024.1-780.6c30.3 0 55 7.1 55 14.8v22l1.7-1.5c-.1 0-.2 0-.4-.1-.4-.1-.8-.1-1.3-.2-1.4-.2-2.9-.4-4.6-.6-4.9-.7-10-1.3-15.2-2-3.9-.5-7.7-.9-11.3-1.3-9.9-1-18.1-1.6-23.9-1.6-5.2 0-14.3.8-26.1 2.3-2.5.3-5.1.6-7.7 1-5.4.7-10.9 1.5-16.1 2.3-1.8.3-3.5.5-5 .8-.5.1-1 .2-1.4.2-.2 0-.4.1-.5.1l1.7 1.5v-23c.1-7.6 24.8-14.7 55.1-14.7zm0-3c-32.1 0-58 7.5-58 17.8v24.8l1.7-.3c.1 0 .2 0 .5-.1.4-.1.8-.1 1.4-.2 1.5-.2 3.1-.5 5-.8 5.2-.8 10.7-1.6 16.1-2.3 2.6-.4 5.2-.7 7.7-1 11.7-1.5 20.7-2.3 25.7-2.3 5.6 0 13.7.6 23.6 1.6 3.6.4 7.4.8 11.2 1.3 5.2.6 10.3 1.3 15.2 2 1.7.2 3.2.4 4.6.6.5.1.9.1 1.2.2.2 0 .4.1.4.1l1.7.3v-23.7c0-10.6-25.9-18-58-18zm-78-20h156v82.5h-156v-82.5z"/></defs><clipPath id="aE"><use xlink:href="#aD" overflow="visible"/></clipPath><g clip-path="url(#aE)"><defs><path id="aF" d="M1024.1-782.1c-31.2 0-56.5 7.3-56.5 16.3v23s42.2-6.7 56.5-6.7c18 0 56.5 5.7 56.5 5.7v-22c0-9-25.3-16.3-56.5-16.3z"/></defs></g><defs><path id="aG" d="M1024.1-782.1c-31.2 0-56.5 7.3-56.5 16.3v23s42.2-6.7 56.5-6.7c18 0 56.5 5.7 56.5 5.7v-22c0-9-25.3-16.3-56.5-16.3z"/></defs><defs><path id="aH" d="M1024.1-758.4c30.3 0 55 7.1 55 14.8 0 7.7-24.7 14.8-55 14.8s-55-7.1-55-14.8c0-7.6 24.7-14.8 55-14.8zm0-3c-32.1 0-58 7.5-58 17.8s25.9 17.8 58 17.8 58-7.5 58-17.8-25.9-17.8-58-17.8zm-78-20h156v75.6h-156v-75.6z"/></defs><clipPath id="aI"><use xlink:href="#aH" overflow="visible"/></clipPath><g clip-path="url(#aI)"><defs><ellipse id="aJ" cx="1024.1" cy="-743.5" rx="56.5" ry="16.3"/></defs></g><defs><ellipse id="aK" cx="1024.1" cy="-743.5" rx="56.5" ry="16.3"/></defs><defs><path id="aL" d="M984.1-739.2c0-5.3 18-10.4 40-10.4s40 5.2 40 10.4v7.1l1.2-1.5c-.1 0-.1 0-.3.1-.3 0-.6.1-.9.2-1 .2-2.1.3-3.4.5-3.6.6-7.3 1.1-11.1 1.7-2.9.4-5.6.8-8.3 1.1-7.2.9-13.1 1.3-17.2 1.3-3.7 0-10.3-.5-18.9-1.4-1.8-.2-3.7-.4-5.6-.6-4-.5-8-.9-11.8-1.4-1.3-.2-2.6-.3-3.6-.5-.4 0-.7-.1-1-.1h-.3l1.3 1.5v-8zm-3 0v9.1l1.3.2h.4c.3 0 .6.1 1 .1 1.1.1 2.3.3 3.7.5a11776882415803102 11776882415803102 0 0 0 36.7 3.5c4.3 0 10.3-.5 17.6-1.4 2.7-.3 5.4-.7 8.3-1.1 3.8-.5 7.6-1.1 11.2-1.7 1.3-.2 2.4-.4 3.4-.5.4-.1.7-.1.9-.2.3 0 .3 0 .3-.1l1.2-.2v-8.4c0-7.9-19.2-13.4-43-13.4s-43 5.7-43 13.6zm-20-33.4h126v66.9h-126v-66.9z"/></defs><clipPath id="aM"><use xlink:href="#aL" overflow="visible"/></clipPath><g clip-path="url(#aM)"><defs><path id="aN" d="M982.6-739.2v7.8s31 4.1 41.5 4.1c13.2 0 41.5-4.8 41.5-4.8v-7.1c0-6.6-18.6-11.9-41.5-11.9s-41.5 5.3-41.5 11.9z"/></defs></g><defs><path id="aO" d="M982.6-739.2v7.8s31 4.1 41.5 4.1c13.2 0 41.5-4.8 41.5-4.8v-7.1c0-6.6-18.6-11.9-41.5-11.9s-41.5 5.3-41.5 11.9z"/></defs><defs><path id="aP" d="M1024.1-741.3c22 0 40 5.2 40 10.4 0 5.3-18 10.4-40 10.4s-40-5.2-40-10.4 18-10.4 40-10.4zm0-3c-23.8 0-43 5.5-43 13.4s19.2 13.4 43 13.4 43-5.5 43-13.4-19.2-13.4-43-13.4zm-63-20h126v66.9h-126v-66.9z"/></defs><clipPath id="aQ"><use xlink:href="#aP" overflow="visible"/></clipPath><g clip-path="url(#aQ)"><defs><ellipse id="aR" cx="1024.1" cy="-730.9" rx="41.5" ry="11.9"/></defs></g><defs><ellipse id="aS" cx="1024.1" cy="-730.9" rx="41.5" ry="11.9"/></defs><defs><path id="aT" d="M1011.5-729.3c0 .4-.2.7-.4.8.1 0 .2-.1.4-.2.6-.2 1.6-.4 2.8-.6 2.6-.4 6-.6 9.8-.6s7.2.2 9.8.6c1.2.2 2.2.4 2.8.6l.4.2c-.2-.1-.4-.4-.4-.8s.2-.7.4-.8c-.1 0-.2.1-.4.2-.6.2-1.6.4-2.8.6-2.6.4-6 .6-9.8.6s-7.2-.2-9.8-.6c-1.2-.2-2.2-.4-2.8-.6l-.4-.2c.2.1.4.3.4.8zm-3 0c0 2.6 6.2 3.5 15.6 3.5 9.4 0 15.6-.9 15.6-3.5s-6.2-3.5-15.6-3.5c-9.4-.1-15.6.8-15.6 3.5zm-20-23.6h71.2v47.1h-71.2v-47.1z"/></defs><clipPath id="aU"><use xlink:href="#aT" overflow="visible"/></clipPath><g clip-path="url(#aU)"><defs><ellipse id="aV" cx="1024.1" cy="-729.3" rx="14.1" ry="2"/></defs></g><defs><ellipse id="aW" cx="1024.1" cy="-729.3" rx="14.1" ry="2"/></defs><defs><path id="aX" d="M1016.9-712s-10.5 3.3-9.1 12.3c.9 5.5 5.6 8.1 5.6 13.5s-4.6 9.5-4.6 9.5 13.5-.3 14.6-9.5c1.1-9.2-6.7-11.3-8.3-15.6-1.4-4.3 1.8-10.2 1.8-10.2z"/></defs><defs><path id="aY" d="M1032-708.7s-15.1 4.8-13 17.6c1.2 7.9 8 11.6 8 19.4s-6.5 13.6-6.5 13.6 19.3-.5 20.9-13.6-9.6-16.1-11.8-22.3c-2.3-6.3 2.4-14.7 2.4-14.7z"/></defs><defs><path id="aZ" d="M380.5-598.5l-1.4.4.4 1.4 30.4 99.5.4 1.4 1.4-.4 60.2-18.4 1.4-.4-.4-1.4-30.4-99.5-.4-1.4-1.4.4-60.2 18.4zm.9 2.9l60.2-18.4-1.9-1 30.4 99.5 1-1.9-60.2 18.4 1.9 1-30.4-99.5-1 1.9zm-27.3-15.7l101.4-31 43 140.6-101.4 31-43-140.6z"/></defs><clipPath id="ba"><use xlink:href="#aZ" overflow="visible"/></clipPath><g clip-path="url(#ba)"><defs><path id="bb" transform="rotate(-17.001 426.255 -556.445)" d="M394.8-608.5h63v104h-63z"/></defs></g><defs><path id="bc" transform="rotate(-17.001 426.255 -556.445)" d="M394.8-608.5h63v104h-63z"/></defs><defs><path id="bd" d="M415.8-621.5h-1.5v107h66v-107h-64.5zm0 3h63l-1.5-1.5v104l1.5-1.5h-63l1.5 1.5v-104l-1.5 1.5zm-21.5-23h106v147h-106v-147z"/></defs><clipPath id="be"><use xlink:href="#bd" overflow="visible"/></clipPath><g clip-path="url(#be)"><defs><path id="bf" d="M415.8-620h63v104h-63z"/></defs></g><defs><path id="bg" d="M415.8-620h63v104h-63z"/></defs><defs><path id="bh" d="M424.8-592h44v13h-44z"/></defs><defs><path id="bi" d="M424.8-582h44v13h-44z"/></defs><defs><path id="bj" d="M424.8-572h44v13h-44z"/></defs><defs><path id="bk" d="M424.8-562h44v14h-44z"/></defs><defs><path id="bl" d="M424.8-551h44v14h-44z"/></defs><defs><path id="bm" d="M424.8-540h44v14h-44z"/></defs><defs><path id="bn" d="M425.8-610h3v13h-3z"/></defs><defs><path id="bo" d="M430.8-610h3v13h-3z"/></defs><defs><path id="bp" d="M435.8-610h3v13h-3z"/></defs><defs><path id="bq" d="M440.8-610h3v13h-3z"/></defs><defs><path id="br" d="M445.8-610h3v13h-3z"/></defs><defs><path id="bs" d="M445.8-559h3v32h-3z"/></defs><defs><path id="bt" d="M450.8-610h3v13h-3z"/></defs><defs><path id="bu" d="M455.8-610h3v13h-3z"/></defs><defs><path id="bv" d="M460.8-610h3v13h-3z"/></defs><defs><path id="bw" d="M465.8-610h3v13h-3z"/></defs><defs><path id="bx" d="M383.8-595.8l53.3 34.1-23.9 61.7"/></defs><defs><path id="by" d="M663.8-445.3h-1.5v90h134v-90H663.8zm0 3h131l-1.5-1.5v87l1.5-1.5h-131l1.5 1.5v-87l-1.5 1.5zm-21.5-23h174v130h-174v-130z"/></defs><clipPath id="bz"><use xlink:href="#by" overflow="visible"/></clipPath><g clip-path="url(#bz)"><defs><path id="bA" d="M663.8-443.8h131v87h-131z"/></defs></g><defs><path id="bB" d="M663.8-443.8h131v87h-131z"/></defs><defs><path id="bC" d="M668.8-440.3h-1.5v80h124v-80H668.8zm0 3h121l-1.5-1.5v77l1.5-1.5h-121l1.5 1.5v-77l-1.5 1.5zm-21.5-23h164v120h-164v-120z"/></defs><clipPath id="bD"><use xlink:href="#bC" overflow="visible"/></clipPath><g clip-path="url(#bD)"><defs><path id="bE" d="M668.8-438.8h121v77h-121z"/></defs></g><defs><path id="bF" d="M668.8-438.8h121v77h-121z"/></defs><defs><path id="bG" d="M733.8-425.3h-1.5v6h47v-6h-45.5zm0 3h44l-1.5-1.5v3l1.5-1.5h-44l1.5 1.5v-3l-1.5 1.5zm-21.5-23h87v46h-87v-46z"/></defs><clipPath id="bH"><use xlink:href="#bG" overflow="visible"/></clipPath><g clip-path="url(#bH)"><defs><path id="bI" d="M733.8-423.8h44v3h-44z"/></defs></g><defs><path id="bJ" d="M733.8-423.8h44v3h-44z"/></defs><defs><path id="bK" d="M733.8-419.3h-1.5v6h47v-6h-45.5zm0 3h44l-1.5-1.5v3l1.5-1.5h-44l1.5 1.5v-3l-1.5 1.5zm-21.5-23h87v46h-87v-46z"/></defs><clipPath id="bL"><use xlink:href="#bK" overflow="visible"/></clipPath><g clip-path="url(#bL)"><defs><path id="bM" d="M733.8-417.8h44v3h-44z"/></defs></g><defs><path id="bN" d="M733.8-417.8h44v3h-44z"/></defs><defs><path id="bO" d="M733.8-413.3h-1.5v6h47v-6h-45.5zm0 3h44l-1.5-1.5v3l1.5-1.5h-44l1.5 1.5v-3l-1.5 1.5zm-21.5-23h87v46h-87v-46z"/></defs><clipPath id="bP"><use xlink:href="#bO" overflow="visible"/></clipPath><g clip-path="url(#bP)"><defs><path id="bQ" d="M733.8-411.8h44v3h-44z"/></defs></g><defs><path id="bR" d="M733.8-411.8h44v3h-44z"/></defs><defs><path id="bS" d="M733.8-407.3h-1.5v6h47v-6h-45.5zm0 3h44l-1.5-1.5v3l1.5-1.5h-44l1.5 1.5v-3l-1.5 1.5zm-21.5-23h87v46h-87v-46z"/></defs><clipPath id="bT"><use xlink:href="#bS" overflow="visible"/></clipPath><g clip-path="url(#bT)"><defs><path id="bU" d="M733.8-405.8h44v3h-44z"/></defs></g><defs><path id="bV" d="M733.8-405.8h44v3h-44z"/></defs><defs><path id="bW" d="M78.5-49.6c-21.5 0-39-17.4-39-38.9s17.4-38.9 38.9-38.9 38.9 17.4 38.9 38.9S100-49.6 78.5-49.6zm0 3c23.2 0 41.9-18.8 41.9-41.9s-18.8-41.9-41.9-41.9c-23.2 0-41.9 18.8-41.9 41.9s18.7 41.9 41.9 41.9zm-62-103.8h123.9v123.9H16.5v-123.9z"/></defs><clipPath id="bX"><use xlink:href="#bW" overflow="visible"/></clipPath><g clip-path="url(#bX)"><defs><circle id="bY" cx="78.5" cy="-88.5" r="40.4"/></defs></g><defs><circle id="bZ" cx="78.5" cy="-88.5" r="40.4"/></defs><defs><path id="ca" d="M191.5-49.6c-21.5 0-38.9-17.4-38.9-38.9s17.4-38.9 38.9-38.9 38.9 17.4 38.9 38.9-17.4 38.9-38.9 38.9zm0 3c23.2 0 41.9-18.8 41.9-41.9s-18.8-41.9-41.9-41.9c-23.2 0-41.9 18.8-41.9 41.9s18.7 41.9 41.9 41.9zm-62-103.8h123.9v123.9H129.5v-123.9z"/></defs><clipPath id="cb"><use xlink:href="#ca" overflow="visible"/></clipPath><g clip-path="url(#cb)"><defs><circle id="cc" cx="191.5" cy="-88.5" r="40.4"/></defs></g><defs><circle id="cd" cx="191.5" cy="-88.5" r="40.4"/></defs><defs><path id="ce" d="M66.2-260.8h-1.5v38h142v-25.1l-.4-.4-11.4-12-.4-.5H66.2zm0 3h127.6l-1.1-.5 11.4 12-.4-1v23l1.5-1.5h-139l1.5 1.5v-35l-1.5 1.5zm-21.5-23h182v78h-182v-78z"/></defs><clipPath id="cf"><use xlink:href="#ce" overflow="visible"/></clipPath><g clip-path="url(#cf)"><defs><path id="cg" d="M66.2-259.3h127.6l11.4 12v23h-139z"/></defs></g><defs><path id="ch" d="M66.2-259.3h127.6l11.4 12v23h-139z"/></defs><defs><path id="ci" d="M99.2-209.4c-8 0-14.5-6.5-14.5-14.5s6.5-14.5 14.5-14.5 14.5 6.5 14.5 14.5-6.4 14.5-14.5 14.5zm0 3c9.7 0 17.5-7.8 17.5-17.5s-7.8-17.5-17.5-17.5-17.5 7.8-17.5 17.5 7.9 17.5 17.5 17.5zm-37.5-55h75v75h-75v-75z"/></defs><clipPath id="cj"><use xlink:href="#ci" overflow="visible"/></clipPath><g clip-path="url(#cj)"><defs><circle id="ck" cx="99.2" cy="-223.9" r="16"/></defs></g><defs><circle id="cl" cx="99.2" cy="-223.9" r="16"/></defs><defs><path id="cm" d="M99.2-216.4c-4.1 0-7.5-3.4-7.5-7.5s3.4-7.5 7.5-7.5 7.5 3.4 7.5 7.5c0 4.2-3.3 7.5-7.5 7.5zm0 3c5.8 0 10.5-4.7 10.5-10.5s-4.7-10.5-10.5-10.5-10.5 4.7-10.5 10.5 4.7 10.5 10.5 10.5zm-30.5-41h61v61h-61v-61z"/></defs><clipPath id="cn"><use xlink:href="#cm" overflow="visible"/></clipPath><g clip-path="url(#cn)"><defs><circle id="co" cx="99.2" cy="-223.9" r="9"/></defs></g><defs><circle id="cp" cx="99.2" cy="-223.9" r="9"/></defs><defs><path id="cq" d="M165.5-209.4c-8 0-14.5-6.5-14.5-14.5s6.5-14.5 14.5-14.5 14.5 6.5 14.5 14.5-6.5 14.5-14.5 14.5zm0 3c9.7 0 17.5-7.8 17.5-17.5s-7.8-17.5-17.5-17.5-17.5 7.8-17.5 17.5 7.8 17.5 17.5 17.5zm-37.5-55h75v75h-75v-75z"/></defs><clipPath id="cr"><use xlink:href="#cq" overflow="visible"/></clipPath><g clip-path="url(#cr)"><defs><circle id="cs" cx="165.5" cy="-223.9" r="16"/></defs></g><defs><circle id="ct" cx="165.5" cy="-223.9" r="16"/></defs><defs><path id="cu" d="M165.7-264.2l-7.7-15.6h-27.2v15.6h34.9zm-75.2 0l7.4-15.6h27.2v15.6H90.5zm-10.3 5.3l14.1-26.9h66.8l15.3 27.9-96.2-1z"/></defs><defs><path id="cv" d="M165.5-216.4c-4.1 0-7.5-3.4-7.5-7.5s3.4-7.5 7.5-7.5 7.5 3.4 7.5 7.5c0 4.2-3.4 7.5-7.5 7.5zm0 3c5.8 0 10.5-4.7 10.5-10.5s-4.7-10.5-10.5-10.5-10.5 4.7-10.5 10.5 4.7 10.5 10.5 10.5zm-30.5-41h61v61h-61v-61z"/></defs><clipPath id="cw"><use xlink:href="#cv" overflow="visible"/></clipPath><g clip-path="url(#cw)"><defs><circle id="cx" cx="165.5" cy="-223.9" r="9"/></defs></g><defs><circle id="cy" cx="165.5" cy="-223.9" r="9"/></defs><defs><path id="cz" d="M380.2-438.5h-1.5v84h108v-84H380.2zm0 3h105l-1.5-1.5v81l1.5-1.5h-105l1.5 1.5v-81l-1.5 1.5zm-21.5-23h148v124h-148v-124z"/></defs><clipPath id="cA"><use xlink:href="#cz" overflow="visible"/></clipPath><g clip-path="url(#cA)"><defs><path id="cB" d="M380.2-437h105v81h-105z"/></defs></g><defs><path id="cC" d="M380.2-437h105v81h-105z"/></defs><defs><path id="cD" d="M374.2-421.5H372l.9-2.1 9.1-22 .4-.9h100.9l.4.9 9.1 22 .9 2.1H374.2zm0-3h117l-1.4 2.1-9.1-22 1.4.9h-98.9l1.4-.9-9.1 22-1.3-2.1zm-22.2 23h161.5v-65H352v65z"/></defs><clipPath id="cE"><use xlink:href="#cD" overflow="visible"/></clipPath><g clip-path="url(#cE)"><defs><path id="cF" d="M374.2-423h117l-9.1-22h-98.8z"/></defs></g><defs><path id="cG" d="M374.2-423h117l-9.1-22h-98.8z"/></defs><defs><path id="cH" d="M459.2-454.5h-1.5v19h15v-19h-13.5zm0 3h12l-1.5-1.5v16l1.5-1.5h-12l1.5 1.5v-16l-1.5 1.5zm-21.5-23h55v59h-55v-59z"/></defs><clipPath id="cI"><use xlink:href="#cH" overflow="visible"/></clipPath><g clip-path="url(#cI)"><defs><path id="cJ" d="M459.2-453h12v16h-12z"/></defs></g><defs><path id="cK" d="M459.2-453h12v16h-12z"/></defs><defs><path id="cL" d="M393.2-388.5h-1.5v34h24v-34h-22.5zm0 3h21l-1.5-1.5v31l1.5-1.5h-21l1.5 1.5v-31l-1.5 1.5zm-21.5-23h64v74h-64v-74z"/></defs><clipPath id="cM"><use xlink:href="#cL" overflow="visible"/></clipPath><g clip-path="url(#cM)"><defs><path id="cN" d="M393.2-387h21v31h-21z"/></defs></g><defs><path id="cO" d="M393.2-387h21v31h-21z"/></defs><defs><path id="cP" d="M394.2-416.5h-1.5v22h22v-22h-20.5zm0 3h19l-1.5-1.5v19l1.5-1.5h-19l1.5 1.5v-19l-1.5 1.5zm-21.5-23h62v62h-62v-62z"/></defs><clipPath id="cQ"><use xlink:href="#cP" overflow="visible"/></clipPath><g clip-path="url(#cQ)"><defs><path id="cR" d="M394.2-415h19v19h-19z"/></defs></g><defs><path id="cS" d="M394.2-415h19v19h-19z"/></defs><defs><path id="cT" d="M399.2-411.5h-1.5v12h12v-12h-10.5zm0 3h9l-1.5-1.5v9l1.5-1.5h-9l1.5 1.5v-9l-1.5 1.5zm-21.5-23h52v52h-52v-52z"/></defs><clipPath id="cU"><use xlink:href="#cT" overflow="visible"/></clipPath><g clip-path="url(#cU)"><defs><path id="cV" d="M399.2-410h9v9h-9z"/></defs></g><defs><path id="cW" d="M399.2-410h9v9h-9z"/></defs><defs><path id="cX" d="M424.2-416.5h-1.5v22h22v-22h-20.5zm0 3h19l-1.5-1.5v19l1.5-1.5h-19l1.5 1.5v-19l-1.5 1.5zm-21.5-23h62v62h-62v-62z"/></defs><clipPath id="cY"><use xlink:href="#cX" overflow="visible"/></clipPath><g clip-path="url(#cY)"><defs><path id="cZ" d="M424.2-415h19v19h-19z"/></defs></g><defs><path id="da" d="M424.2-415h19v19h-19z"/></defs><defs><path id="db" d="M453.2-416.5h-1.5v22h22v-22h-20.5zm0 3h19l-1.5-1.5v19l1.5-1.5h-19l1.5 1.5v-19l-1.5 1.5zm-21.5-23h62v62h-62v-62z"/></defs><clipPath id="dc"><use xlink:href="#db" overflow="visible"/></clipPath><g clip-path="url(#dc)"><defs><path id="dd" d="M453.2-415h19v19h-19z"/></defs></g><defs><path id="de" d="M453.2-415h19v19h-19z"/></defs><defs><path id="df" d="M424.2-388.5h-1.5v22h22v-22h-20.5zm0 3h19l-1.5-1.5v19l1.5-1.5h-19l1.5 1.5v-19l-1.5 1.5zm-21.5-23h62v62h-62v-62z"/></defs><clipPath id="dg"><use xlink:href="#df" overflow="visible"/></clipPath><g clip-path="url(#dg)"><defs><path id="dh" d="M424.2-387h19v19h-19z"/></defs></g><defs><path id="di" d="M424.2-387h19v19h-19z"/></defs><defs><path id="dj" d="M453.2-388.5h-1.5v22h22v-22h-20.5zm0 3h19l-1.5-1.5v19l1.5-1.5h-19l1.5 1.5v-19l-1.5 1.5zm-21.5-23h62v62h-62v-62z"/></defs><clipPath id="dk"><use xlink:href="#dj" overflow="visible"/></clipPath><g clip-path="url(#dk)"><defs><path id="dl" d="M453.2-387h19v19h-19z"/></defs></g><defs><path id="dm" d="M453.2-387h19v19h-19z"/></defs><defs><path id="dn" d="M429.2-411.5h-1.5v12h12v-12h-10.5zm0 3h9l-1.5-1.5v9l1.5-1.5h-9l1.5 1.5v-9l-1.5 1.5zm-21.5-23h52v52h-52v-52z"/></defs><clipPath id="do"><use xlink:href="#dn" overflow="visible"/></clipPath><g clip-path="url(#do)"><defs><path id="dp" d="M429.2-410h9v9h-9z"/></defs></g><defs><path id="dq" d="M429.2-410h9v9h-9z"/></defs><defs><path id="dr" d="M458.2-411.5h-1.5v12h12v-12h-10.5zm0 3h9l-1.5-1.5v9l1.5-1.5h-9l1.5 1.5v-9l-1.5 1.5zm-21.5-23h52v52h-52v-52z"/></defs><clipPath id="ds"><use xlink:href="#dr" overflow="visible"/></clipPath><g clip-path="url(#ds)"><defs><path id="dt" d="M458.2-410h9v9h-9z"/></defs></g><defs><path id="du" d="M458.2-410h9v9h-9z"/></defs><defs><path id="dv" d="M429.2-383.5h-1.5v12h12v-12h-10.5zm0 3h9l-1.5-1.5v9l1.5-1.5h-9l1.5 1.5v-9l-1.5 1.5zm-21.5-23h52v52h-52v-52z"/></defs><clipPath id="dw"><use xlink:href="#dv" overflow="visible"/></clipPath><g clip-path="url(#dw)"><defs><path id="dx" d="M429.2-382h9v9h-9z"/></defs></g><defs><path id="dy" d="M429.2-382h9v9h-9z"/></defs><defs><path id="dz" d="M458.2-383.5h-1.5v12h12v-12h-10.5zm0 3h9l-1.5-1.5v9l1.5-1.5h-9l1.5 1.5v-9l-1.5 1.5zm-21.5-23h52v52h-52v-52z"/></defs><clipPath id="dA"><use xlink:href="#dz" overflow="visible"/></clipPath><g clip-path="url(#dA)"><defs><path id="dB" d="M458.2-382h9v9h-9z"/></defs></g><defs><path id="dC" d="M458.2-382h9v9h-9z"/></defs><defs><path id="dD" d="M379.8-124.1h-1.5v84h108v-84H379.8zm0 3h105l-1.5-1.5v81l1.5-1.5h-105l1.5 1.5v-81l-1.5 1.5zm-21.5-23h148v124h-148v-124z"/></defs><clipPath id="dE"><use xlink:href="#dD" overflow="visible"/></clipPath><g clip-path="url(#dE)"><defs><path id="dF" d="M379.8-122.6h105v81h-105z"/></defs></g><defs><path id="dG" d="M379.8-122.6h105v81h-105z"/></defs><defs><path id="dH" d="M373.8-107.1h-2.2l.9-2.1 9.1-22 .4-.9h100.9l.4.9 9.1 22 .9 2.1H373.8zm0-3h117l-1.4 2.1-9.1-22 1.4.9h-98.9l1.4-.9-9.1 22-1.3-2.1zm-22.2 23H513v-65H351.6v65z"/></defs><clipPath id="dI"><use xlink:href="#dH" overflow="visible"/></clipPath><g clip-path="url(#dI)"><defs><path id="dJ" d="M373.8-108.6h117l-9.1-22h-98.8z"/></defs></g><defs><path id="dK" d="M373.8-108.6h117l-9.1-22h-98.8z"/></defs><defs><path id="dL" d="M458.8-140.1h-1.5v19h15v-19h-13.5zm0 3h12l-1.5-1.5v16l1.5-1.5h-12l1.5 1.5v-16l-1.5 1.5zm-21.5-23h55v59h-55v-59z"/></defs><clipPath id="dM"><use xlink:href="#dL" overflow="visible"/></clipPath><g clip-path="url(#dM)"><defs><path id="dN" d="M458.8-138.6h12v16h-12z"/></defs></g><defs><path id="dO" d="M458.8-138.6h12v16h-12z"/></defs><defs><path id="dP" d="M392.8-74.1h-1.5v34h24v-34h-22.5zm0 3h21l-1.5-1.5v31l1.5-1.5h-21l1.5 1.5v-31l-1.5 1.5zm-21.5-23h64v74h-64v-74z"/></defs><clipPath id="dQ"><use xlink:href="#dP" overflow="visible"/></clipPath><g clip-path="url(#dQ)"><defs><path id="dR" d="M392.8-72.6h21v31h-21z"/></defs></g><defs><path id="dS" d="M392.8-72.6h21v31h-21z"/></defs><defs><path id="dT" d="M393.8-102.1h-1.5v22h22v-22h-20.5zm0 3h19l-1.5-1.5v19l1.5-1.5h-19l1.5 1.5v-19l-1.5 1.5zm-21.5-23h62v62h-62v-62z"/></defs><clipPath id="dU"><use xlink:href="#dT" overflow="visible"/></clipPath><g clip-path="url(#dU)"><defs><path id="dV" d="M393.8-100.6h19v19h-19z"/></defs></g><defs><path id="dW" d="M393.8-100.6h19v19h-19z"/></defs><defs><path id="dX" d="M398.8-97.1h-1.5v12h12v-12h-10.5zm0 3h9l-1.5-1.5v9l1.5-1.5h-9l1.5 1.5v-9l-1.5 1.5zm-21.5-23h52v52h-52v-52z"/></defs><clipPath id="dY"><use xlink:href="#dX" overflow="visible"/></clipPath><g clip-path="url(#dY)"><defs><path id="dZ" d="M398.8-95.6h9v9h-9z"/></defs></g><defs><path id="ea" d="M398.8-95.6h9v9h-9z"/></defs><defs><path id="eb" d="M423.8-102.1h-1.5v22h22v-22h-20.5zm0 3h19l-1.5-1.5v19l1.5-1.5h-19l1.5 1.5v-19l-1.5 1.5zm-21.5-23h62v62h-62v-62z"/></defs><clipPath id="ec"><use xlink:href="#eb" overflow="visible"/></clipPath><g clip-path="url(#ec)"><defs><path id="ed" d="M423.8-100.6h19v19h-19z"/></defs></g><defs><path id="ee" d="M423.8-100.6h19v19h-19z"/></defs><defs><path id="ef" d="M452.8-102.1h-1.5v22h22v-22h-20.5zm0 3h19l-1.5-1.5v19l1.5-1.5h-19l1.5 1.5v-19l-1.5 1.5zm-21.5-23h62v62h-62v-62z"/></defs><clipPath id="eg"><use xlink:href="#ef" overflow="visible"/></clipPath><g clip-path="url(#eg)"><defs><path id="eh" d="M452.8-100.6h19v19h-19z"/></defs></g><defs><path id="ei" d="M452.8-100.6h19v19h-19z"/></defs><defs><path id="ej" d="M423.8-74.1h-1.5v22h22v-22h-20.5zm0 3h19l-1.5-1.5v19l1.5-1.5h-19l1.5 1.5v-19l-1.5 1.5zm-21.5-23h62v62h-62v-62z"/></defs><clipPath id="ek"><use xlink:href="#ej" overflow="visible"/></clipPath><g clip-path="url(#ek)"><defs><path id="el" d="M423.8-72.6h19v19h-19z"/></defs></g><defs><path id="em" d="M423.8-72.6h19v19h-19z"/></defs><defs><path id="en" d="M452.8-74.1h-1.5v22h22v-22h-20.5zm0 3h19l-1.5-1.5v19l1.5-1.5h-19l1.5 1.5v-19l-1.5 1.5zm-21.5-23h62v62h-62v-62z"/></defs><clipPath id="eo"><use xlink:href="#en" overflow="visible"/></clipPath><g clip-path="url(#eo)"><defs><path id="ep" d="M452.8-72.6h19v19h-19z"/></defs></g><defs><path id="eq" d="M452.8-72.6h19v19h-19z"/></defs><defs><path id="er" d="M428.8-97.1h-1.5v12h12v-12h-10.5zm0 3h9l-1.5-1.5v9l1.5-1.5h-9l1.5 1.5v-9l-1.5 1.5zm-21.5-23h52v52h-52v-52z"/></defs><clipPath id="es"><use xlink:href="#er" overflow="visible"/></clipPath><g clip-path="url(#es)"><defs><path id="et" d="M428.8-95.6h9v9h-9z"/></defs></g><defs><path id="eu" d="M428.8-95.6h9v9h-9z"/></defs><defs><path id="ev" d="M457.8-97.1h-1.5v12h12v-12h-10.5zm0 3h9l-1.5-1.5v9l1.5-1.5h-9l1.5 1.5v-9l-1.5 1.5zm-21.5-23h52v52h-52v-52z"/></defs><clipPath id="ew"><use xlink:href="#ev" overflow="visible"/></clipPath><g clip-path="url(#ew)"><defs><path id="ex" d="M457.8-95.6h9v9h-9z"/></defs></g><defs><path id="ey" d="M457.8-95.6h9v9h-9z"/></defs><g><defs><path id="ez" d="M428.8-69.1h-1.5v12h12v-12h-10.5zm0 3h9l-1.5-1.5v9l1.5-1.5h-9l1.5 1.5v-9l-1.5 1.5zm-21.5-23h52v52h-52v-52z"/></defs><clipPath id="eA"><use xlink:href="#ez" overflow="visible"/></clipPath><g clip-path="url(#eA)"><defs><path id="eB" d="M428.8-67.6h9v9h-9z"/></defs></g></g><g><defs><path id="eC" d="M428.8-67.6h9v9h-9z"/></defs></g><g><defs><path id="eD" d="M457.8-69.1h-1.5v12h12v-12h-10.5zm0 3h9l-1.5-1.5v9l1.5-1.5h-9l1.5 1.5v-9l-1.5 1.5zm-21.5-23h52v52h-52v-52z"/></defs><clipPath id="eE"><use xlink:href="#eD" overflow="visible"/></clipPath><g clip-path="url(#eE)"><defs><path id="eF" d="M457.8-67.6h9v9h-9z"/></defs></g></g><g><defs><path id="eG" d="M457.8-67.6h9v9h-9z"/></defs></g><path fill="none" stroke="#0C1F2E" stroke-width="3" stroke-linecap="round" stroke-miterlimit="10" d="M127.7 52.2h-21.4L91 63.7v39.6h51.9V64.2z"/><circle fill="none" stroke="#0C1F2E" stroke-width="3" stroke-linecap="round" stroke-miterlimit="10" cx="116.5" cy="28.7" r="13.8"/><path fill="#FFF" stroke="#0C1F2E" stroke-width="3" stroke-linecap="round" stroke-miterlimit="10" d="M159.6 65.3h-16l-11.4 8.5v29.6h38.6V74.2z"/><circle fill="#FFF" stroke="#0C1F2E" stroke-width="3" stroke-linecap="round" stroke-miterlimit="10" cx="151.2" cy="47.8" r="10.3"/><circle fill="#FFF" stroke="#0F1F2D" stroke-width="3" stroke-linecap="round" stroke-miterlimit="10" cx="132.2" cy="103.3" r="18.7"/><path fill="none" stroke="#0F1F2D" stroke-width="3" stroke-linecap="round" stroke-miterlimit="10" d="M132.2 112.2v-18m9.1 9h-18.1"/><g><defs><path id="eH" d="M434 114.3c-27.1 0-49-21.9-49-49s21.9-49 49-49 49 21.9 49 49-21.9 49-49 49zm0 3c28.7 0 52-23.3 52-52s-23.3-52-52-52-52 23.3-52 52 23.3 52 52 52zm-72-124h144v144H362v-144z"/></defs><clipPath id="eI"><use xlink:href="#eH" overflow="visible"/></clipPath><g clip-path="url(#eI)"><defs><circle id="eJ" cx="434" cy="65.3" r="50.5"/></defs></g></g><g><defs><circle id="eK" cx="434" cy="65.3" r="50.5"/></defs></g><g><defs><circle id="eL" cx="434" cy="65.3" r="43.5"/></defs></g><g><defs><path id="eM" d="M434.7 281.5c-24.6 0-44.6-20-44.6-44.6s20-44.6 44.6-44.6 44.6 20 44.6 44.6-20 44.6-44.6 44.6zm0 2.7c26.1 0 47.3-21.2 47.3-47.3s-21.2-47.3-47.3-47.3-47.3 21.2-47.3 47.3 21.2 47.3 47.3 47.3zm-65.5-112.8h131v131h-131v-131z"/></defs><clipPath id="eN"><use xlink:href="#eM" overflow="visible"/></clipPath><g clip-path="url(#eN)"><defs><circle id="eO" cx="434.7" cy="236.9" r="45.9"/></defs></g></g><g><defs><circle id="eP" cx="434.7" cy="236.9" r="45.9"/></defs></g><g><defs><circle id="eQ" cx="434.7" cy="236.9" r="39.6"/></defs></g><g><defs><path id="eR" d="M973.5 348.2H972v84h108v-84H973.5zm0 3h105l-1.5-1.5v81l1.5-1.5h-105l1.5 1.5v-81l-1.5 1.5zm-21.5-23h148v124H952v-124z"/></defs><clipPath id="eS"><use xlink:href="#eR" overflow="visible"/></clipPath><g clip-path="url(#eS)"><defs><path id="eT" d="M973.5 349.7h105v81h-105z"/></defs></g></g><g><defs><path id="eU" d="M973.5 349.7h105v81h-105z"/></defs></g><g><defs><path id="eV" d="M967.5 365.2h-2.2l.9-2.1 9.1-22 .4-.9h100.9l.4.9 9.1 22 .9 2.1H967.5zm0-3h117l-1.4 2.1-9.1-22 1.4.9h-98.9l1.4-.9-9.1 22-1.3-2.1zm-22.2 23h161.5v-65H945.3v65z"/></defs><clipPath id="eW"><use xlink:href="#eV" overflow="visible"/></clipPath><g clip-path="url(#eW)"><defs><path id="eX" d="M967.5 363.7h117l-9.1-22h-98.8z"/></defs></g></g><g><defs><path id="eY" d="M967.5 363.7h117l-9.1-22h-98.8z"/></defs></g><g><defs><path id="eZ" d="M1052.5 332.2h-1.5v19h15v-19h-13.5zm0 3h12l-1.5-1.5v16l1.5-1.5h-12l1.5 1.5v-16l-1.5 1.5zm-21.5-23h55v59h-55v-59z"/></defs><clipPath id="fa"><use xlink:href="#eZ" overflow="visible"/></clipPath><g clip-path="url(#fa)"><defs><path id="fb" d="M1052.5 333.7h12v16h-12z"/></defs></g></g><g><defs><path id="fc" d="M1052.5 333.7h12v16h-12z"/></defs></g><g><defs><path id="fd" d="M986.5 398.2H985v34h24v-34h-22.5zm0 3h21l-1.5-1.5v31l1.5-1.5h-21l1.5 1.5v-31l-1.5 1.5zm-21.5-23h64v74h-64v-74z"/></defs><clipPath id="fe"><use xlink:href="#fd" overflow="visible"/></clipPath><g clip-path="url(#fe)"><defs><path id="ff" d="M986.5 399.7h21v31h-21z"/></defs></g></g><g><defs><path id="fg" d="M986.5 399.7h21v31h-21z"/></defs></g><g><defs><path id="fh" d="M987.5 370.2H986v22h22v-22h-20.5zm0 3h19l-1.5-1.5v19l1.5-1.5h-19l1.5 1.5v-19l-1.5 1.5zm-21.5-23h62v62h-62v-62z"/></defs><clipPath id="fi"><use xlink:href="#fh" overflow="visible"/></clipPath><g clip-path="url(#fi)"><defs><path id="fj" d="M987.5 371.7h19v19h-19z"/></defs></g></g><g><defs><path id="fk" d="M987.5 371.7h19v19h-19z"/></defs></g><g><defs><path id="fl" d="M992.5 375.2H991v12h12v-12h-10.5zm0 3h9l-1.5-1.5v9l1.5-1.5h-9l1.5 1.5v-9l-1.5 1.5zm-21.5-23h52v52h-52v-52z"/></defs><clipPath id="fm"><use xlink:href="#fl" overflow="visible"/></clipPath><g clip-path="url(#fm)"><defs><path id="fn" d="M992.5 376.7h9v9h-9z"/></defs></g></g><g><defs><path id="fo" d="M992.5 376.7h9v9h-9z"/></defs></g><g><defs><path id="fp" d="M1017.5 370.2h-1.5v22h22v-22h-20.5zm0 3h19l-1.5-1.5v19l1.5-1.5h-19l1.5 1.5v-19l-1.5 1.5zm-21.5-23h62v62h-62v-62z"/></defs><clipPath id="fq"><use xlink:href="#fp" overflow="visible"/></clipPath><g clip-path="url(#fq)"><defs><path id="fr" d="M1017.5 371.7h19v19h-19z"/></defs></g></g><g><defs><path id="fs" d="M1017.5 371.7h19v19h-19z"/></defs></g><g><defs><path id="ft" d="M1046.5 370.2h-1.5v22h22v-22h-20.5zm0 3h19l-1.5-1.5v19l1.5-1.5h-19l1.5 1.5v-19l-1.5 1.5zm-21.5-23h62v62h-62v-62z"/></defs><clipPath id="fu"><use xlink:href="#ft" overflow="visible"/></clipPath><g clip-path="url(#fu)"><defs><path id="fv" d="M1046.5 371.7h19v19h-19z"/></defs></g></g><g><defs><path id="fw" d="M1046.5 371.7h19v19h-19z"/></defs></g><g><defs><path id="fx" d="M1017.5 398.2h-1.5v22h22v-22h-20.5zm0 3h19l-1.5-1.5v19l1.5-1.5h-19l1.5 1.5v-19l-1.5 1.5zm-21.5-23h62v62h-62v-62z"/></defs><clipPath id="fy"><use xlink:href="#fx" overflow="visible"/></clipPath><g clip-path="url(#fy)"><defs><path id="fz" d="M1017.5 399.7h19v19h-19z"/></defs></g></g><g><defs><path id="fA" d="M1017.5 399.7h19v19h-19z"/></defs></g><g><defs><path id="fB" d="M1046.5 398.2h-1.5v22h22v-22h-20.5zm0 3h19l-1.5-1.5v19l1.5-1.5h-19l1.5 1.5v-19l-1.5 1.5zm-21.5-23h62v62h-62v-62z"/></defs><clipPath id="fC"><use xlink:href="#fB" overflow="visible"/></clipPath><g clip-path="url(#fC)"><defs><path id="fD" d="M1046.5 399.7h19v19h-19z"/></defs></g></g><g><defs><path id="fE" d="M1046.5 399.7h19v19h-19z"/></defs></g><g><defs><path id="fF" d="M1022.5 375.2h-1.5v12h12v-12h-10.5zm0 3h9l-1.5-1.5v9l1.5-1.5h-9l1.5 1.5v-9l-1.5 1.5zm-21.5-23h52v52h-52v-52z"/></defs><clipPath id="fG"><use xlink:href="#fF" overflow="visible"/></clipPath><g clip-path="url(#fG)"><defs><path id="fH" d="M1022.5 376.7h9v9h-9z"/></defs></g></g><g><defs><path id="fI" d="M1022.5 376.7h9v9h-9z"/></defs></g><g><defs><path id="fJ" d="M1051.5 375.2h-1.5v12h12v-12h-10.5zm0 3h9l-1.5-1.5v9l1.5-1.5h-9l1.5 1.5v-9l-1.5 1.5zm-21.5-23h52v52h-52v-52z"/></defs><clipPath id="fK"><use xlink:href="#fJ" overflow="visible"/></clipPath><g clip-path="url(#fK)"><defs><path id="fL" d="M1051.5 376.7h9v9h-9z"/></defs></g></g><g><defs><path id="fM" d="M1051.5 376.7h9v9h-9z"/></defs></g><g><defs><path id="fN" d="M1022.5 403.2h-1.5v12h12v-12h-10.5zm0 3h9l-1.5-1.5v9l1.5-1.5h-9l1.5 1.5v-9l-1.5 1.5zm-21.5-23h52v52h-52v-52z"/></defs><clipPath id="fO"><use xlink:href="#fN" overflow="visible"/></clipPath><g clip-path="url(#fO)"><defs><path id="fP" d="M1022.5 404.7h9v9h-9z"/></defs></g></g><g><defs><path id="fQ" d="M1022.5 404.7h9v9h-9z"/></defs></g><g><defs><path id="fR" d="M1051.5 403.2h-1.5v12h12v-12h-10.5zm0 3h9l-1.5-1.5v9l1.5-1.5h-9l1.5 1.5v-9l-1.5 1.5zm-21.5-23h52v52h-52v-52z"/></defs><clipPath id="fS"><use xlink:href="#fR" overflow="visible"/></clipPath><g clip-path="url(#fS)"><defs><path id="fT" d="M1051.5 404.7h9v9h-9z"/></defs></g></g><g><defs><path id="fU" d="M1051.5 404.7h9v9h-9z"/></defs></g></svg>