<svg xmlns="http://www.w3.org/2000/svg" xmlns:xlink="http://www.w3.org/1999/xlink" viewBox="0 0 276 137"><defs><path id="a" d="M-750-192.5c-29.3 0-53-23.7-53-53s23.7-53 53-53 53 23.7 53 53-23.7 53-53 53zm0 3c30.9 0 56-25.1 56-56s-25.1-56-56-56-56 25.1-56 56 25.1 56 56 56z"/></defs><clipPath id="b"><use xlink:href="#a" overflow="visible"/></clipPath><g clip-path="url(#b)"><defs><circle id="c" cx="-750" cy="-245.5" r="54.5"/></defs><clipPath id="d"><use xlink:href="#c" overflow="visible"/></clipPath><g clip-path="url(#d)"><defs><path id="e" d="M-928.5-382h1121V648h-1121z"/></defs></g></g><defs><circle id="f" cx="-750" cy="-245.5" r="54.5"/></defs><clipPath id="g"><use xlink:href="#f" overflow="visible"/></clipPath><g clip-path="url(#g)"><defs><path id="h" d="M-928.5-382h1121V648h-1121z"/></defs></g><defs><path id="i" d="M-750-213.5c-17.7 0-32-14.3-32-32s14.3-32 32-32 32 14.3 32 32-14.3 32-32 32zm0 3c19.3 0 35-15.7 35-35s-15.7-35-35-35-35 15.7-35 35 15.7 35 35 35zm-55-90h110v110h-110v-110z"/></defs><clipPath id="j"><use xlink:href="#i" overflow="visible"/></clipPath><g clip-path="url(#j)"><defs><circle id="k" cx="-750" cy="-245.5" r="33.5"/></defs><clipPath id="l"><use xlink:href="#k" overflow="visible"/></clipPath><g clip-path="url(#l)"><defs><path id="m" d="M-928.5-382h1121V648h-1121z"/></defs></g></g><defs><circle id="n" cx="-750" cy="-245.5" r="33.5"/></defs><clipPath id="o"><use xlink:href="#n" overflow="visible"/></clipPath><g clip-path="url(#o)"><defs><path id="p" d="M-928.5-382h1121V648h-1121z"/></defs></g><defs><path id="q" d="M-751.5-299.5h-1.5v13h6v-13h-4.5zm0 3h3l-1.5-1.5v10l1.5-1.5h-3l1.5 1.5v-10l-1.5 1.5z"/></defs><clipPath id="r"><use xlink:href="#q" overflow="visible"/></clipPath><g clip-path="url(#r)"><defs><path id="s" d="M-751.5-298h3v10h-3z"/></defs><clipPath id="t"><use xlink:href="#s" overflow="visible"/></clipPath><g clip-path="url(#t)"><defs><path id="u" d="M-928.5-382h1121V648h-1121z"/></defs></g></g><defs><path id="v" d="M-751.5-298h3v10h-3z"/></defs><clipPath id="w"><use xlink:href="#v" overflow="visible"/></clipPath><g clip-path="url(#w)"><defs><path id="x" d="M-928.5-382h1121V648h-1121z"/></defs></g><defs><path id="y" d="M-805.5-243.5v1.5h13v-6h-13v4.5zm3 0v-3l-1.5 1.5h10l-1.5-1.5v3l1.5-1.5h-10l1.5 1.5z"/></defs><clipPath id="z"><use xlink:href="#y" overflow="visible"/></clipPath><g clip-path="url(#z)"><defs><path id="A" d="M-804-246.5h10v3h-10z"/></defs><clipPath id="B"><use xlink:href="#A" overflow="visible"/></clipPath><g clip-path="url(#B)"><defs><path id="C" d="M-928.5-382h1121V648h-1121z"/></defs></g></g><defs><path id="D" d="M-804-246.5h10v3h-10z"/></defs><clipPath id="E"><use xlink:href="#D" overflow="visible"/></clipPath><g clip-path="url(#E)"><defs><path id="F" d="M-928.5-382h1121V648h-1121z"/></defs></g><defs><path id="G" d="M-708.5-243.5v1.5h13v-6h-13v4.5zm3 0v-3l-1.5 1.5h10l-1.5-1.5v3l1.5-1.5h-10l1.5 1.5z"/></defs><clipPath id="H"><use xlink:href="#G" overflow="visible"/></clipPath><g clip-path="url(#H)"><defs><path id="I" d="M-707-246.5h10v3h-10z"/></defs><clipPath id="J"><use xlink:href="#I" overflow="visible"/></clipPath><g clip-path="url(#J)"><defs><path id="K" d="M-928.5-382h1121V648h-1121z"/></defs></g></g><defs><path id="L" d="M-707-246.5h10v3h-10z"/></defs><clipPath id="M"><use xlink:href="#L" overflow="visible"/></clipPath><g clip-path="url(#M)"><defs><path id="N" d="M-928.5-382h1121V648h-1121z"/></defs></g><defs><path id="O" d="M-719.5-273.3l1.1 1.1 1.1-1.1 7.1-7.1 1.1-1.1-1.1-1.1-2.1-2.1-1.1-1.1-1.1 1.1-7.1 7.1-1.1 1.1 1.1 1.1 2.1 2.1zm2.1-2.2l-2.1-2.1v2.1l7.1-7.1h-2.1l2.1 2.1v-2.1l-7.1 7.1h2.1z"/></defs><clipPath id="P"><use xlink:href="#O" overflow="visible"/></clipPath><g clip-path="url(#P)"><defs><path id="Q" transform="rotate(45.001 -716.007 -278.993)" d="M-717.5-284h3v10h-3z"/></defs><clipPath id="R"><use xlink:href="#Q" overflow="visible"/></clipPath><g clip-path="url(#R)"><defs><path id="S" d="M-928.5-382h1121V648h-1121z"/></defs></g></g><defs><path id="T" transform="rotate(45.001 -716.007 -278.993)" d="M-717.5-284h3v10h-3z"/></defs><clipPath id="U"><use xlink:href="#T" overflow="visible"/></clipPath><g clip-path="url(#U)"><defs><path id="V" d="M-928.5-382h1121V648h-1121z"/></defs></g><defs><path id="W" d="M-779.3-274.5l1.1-1.1-1.1-1.1-7.1-7.1-1.1-1.1-1.1 1.1-2.1 2.1-1.1 1.1 1.1 1.1 7.1 7.1 1.1 1.1 1.1-1.1 2.1-2.1zm-2.2-2.1l-2.1 2.1h2.1l-7.1-7.1v2.1l2.1-2.1h-2.1l7.1 7.1v-2.1z"/></defs><clipPath id="X"><use xlink:href="#W" overflow="visible"/></clipPath><g clip-path="url(#X)"><defs><path id="Y" transform="rotate(-45.001 -785.001 -278.01)" d="M-786.5-283h3v10h-3z"/></defs><clipPath id="Z"><use xlink:href="#Y" overflow="visible"/></clipPath><g clip-path="url(#Z)"><defs><path id="aa" d="M-928.5-382h1121V648h-1121z"/></defs></g></g><defs><path id="ab" transform="rotate(-45.001 -785.001 -278.01)" d="M-786.5-283h3v10h-3z"/></defs><clipPath id="ac"><use xlink:href="#ab" overflow="visible"/></clipPath><g clip-path="url(#ac)"><defs><path id="ad" d="M-928.5-382h1121V648h-1121z"/></defs></g><defs><path id="ae" d="M-719.5-217.7l1.1-1.1 1.1 1.1 7.1 7.1 1.1 1.1-1.1 1.1-2.1 2.1-1.1 1.1-1.1-1.1-7.1-7.1-1.1-1.1 1.1-1.1 2.1-2.1zm2.1 2.2l-2.1 2.1v-2.1l7.1 7.1h-2.1l2.1-2.1v2.1l-7.1-7.1h2.1z"/></defs><clipPath id="af"><use xlink:href="#ae" overflow="visible"/></clipPath><g clip-path="url(#af)"><defs><path id="ag" transform="rotate(-45.001 -716 -212.01)" d="M-717.5-217h3v10h-3z"/></defs><clipPath id="ah"><use xlink:href="#ag" overflow="visible"/></clipPath><g clip-path="url(#ah)"><defs><path id="ai" d="M-928.5-382h1121V648h-1121z"/></defs></g></g><defs><path id="aj" transform="rotate(-45.001 -716 -212.01)" d="M-717.5-217h3v10h-3z"/></defs><clipPath id="ak"><use xlink:href="#aj" overflow="visible"/></clipPath><g clip-path="url(#ak)"><defs><path id="al" d="M-928.5-382h1121V648h-1121z"/></defs></g><defs><path id="am" d="M-779.3-214.5l1.1 1.1-1.1 1.1-7.1 7.1-1.1 1.1-1.1-1.1-2.1-2.1-1.1-1.1 1.1-1.1 7.1-7.1 1.1-1.1 1.1 1.1 2.1 2.1zm-2.2 2.1l-2.1-2.1h2.1l-7.1 7.1v-2.1l2.1 2.1h-2.1l7.1-7.1v2.1z"/></defs><clipPath id="an"><use xlink:href="#am" overflow="visible"/></clipPath><g clip-path="url(#an)"><defs><path id="ao" transform="rotate(45.001 -785.006 -210.992)" d="M-786.5-216h3v10h-3z"/></defs><clipPath id="ap"><use xlink:href="#ao" overflow="visible"/></clipPath><g clip-path="url(#ap)"><defs><path id="aq" d="M-928.5-382h1121V648h-1121z"/></defs></g></g><defs><path id="ar" transform="rotate(45.001 -785.006 -210.992)" d="M-786.5-216h3v10h-3z"/></defs><clipPath id="as"><use xlink:href="#ar" overflow="visible"/></clipPath><g clip-path="url(#as)"><defs><path id="at" d="M-928.5-382h1121V648h-1121z"/></defs></g><defs><path id="au" d="M-740.4-266.1c.7.3 1.5.6 2.2 1 1.3.7 2.5 1.6 3.6 2.4.4.3.7.6 1 .9.2.2.3.3.4.3l1.6 1.6-.3-2.2-2.1-14.7-.2-1.2-1 .6-12.3 8-1.8 1.2 2.1.2c.1 0 .3 0 .5.1.4.1.9.2 1.5.3 1.4.3 3.1.8 4.8 1.5zm7.5 4c-.1-.1-.4-.3-.7-.6l.1.9.6-.3zm0-1l.1.9.6-.3-.4-.4c-.1 0-.2-.1-.3-.2zm-1.9-13.1v.3l.3-.2-.3-.1zm-.8 0l.3-.2-.3-.2v.4zm-11.4 7.4l.7-.5h-.3c-.3 0-.5-.1-.6-.1l.2.6zm.9.3c-.4-.1-.7-.1-.9-.1l.1.6.8-.5z"/></defs><clipPath id="av"><use xlink:href="#au" overflow="visible"/></clipPath><g clip-path="url(#av)"><defs><path id="aw" d="M-928.5-382h1121V648h-1121z"/></defs></g><defs><path id="ax" d="M-740.2-266.8c-3.9-1.6-7.1-1.9-7.1-1.9l12.3-8 2.1 14.7c.2.1-3.1-3.1-7.3-4.8zm-25-11.1l37.2-15.8 15.8 37.2-37.2 15.8-15.8-37.2z"/></defs><clipPath id="ay"><use xlink:href="#ax" overflow="visible"/></clipPath><g clip-path="url(#ay)"><defs><path id="az" d="M-928.5-382h1121V648h-1121z"/></defs></g><defs><path id="aA" d="M-750-221.5c-13.3 0-24-10.7-24-24s10.7-24 24-24 24 10.7 24 24-10.7 24-24 24zm0 3c14.9 0 27-12.1 27-27s-12.1-27-27-27-27 12.1-27 27 12.1 27 27 27zm-47-74h94v94h-94v-94z"/></defs><clipPath id="aB"><use xlink:href="#aA" overflow="visible"/></clipPath><g clip-path="url(#aB)"><defs><circle id="aC" cx="-750" cy="-245.5" r="25.5"/></defs><clipPath id="aD"><use xlink:href="#aC" overflow="visible"/></clipPath><g clip-path="url(#aD)"><defs><path id="aE" d="M-928.5-382h1121V648h-1121z"/></defs></g></g><defs><circle id="aF" cx="-750" cy="-245.5" r="25.5"/></defs><clipPath id="aG"><use xlink:href="#aF" overflow="visible"/></clipPath><g clip-path="url(#aG)"><defs><path id="aH" d="M-928.5-382h1121V648h-1121z"/></defs></g><defs><path id="aI" d="M-459.8-306.5h-1.5v18h19v-18h-17.5zm0 3h16l-1.5-1.5v15l1.5-1.5h-16l1.5 1.5v-15l-1.5 1.5z"/></defs><clipPath id="aJ"><use xlink:href="#aI" overflow="visible"/></clipPath><g clip-path="url(#aJ)"><defs><path id="aK" d="M-459.8-305h16v15h-16z"/></defs><clipPath id="aL"><use xlink:href="#aK" overflow="visible"/></clipPath><g clip-path="url(#aL)"><defs><path id="aM" d="M-880.8-381.5h1121v1030h-1121z"/></defs></g></g><defs><path id="aN" d="M-459.8-305h16v15h-16z"/></defs><clipPath id="aO"><use xlink:href="#aN" overflow="visible"/></clipPath><g clip-path="url(#aO)"><defs><path id="aP" d="M-880.8-381.5h1121v1030h-1121z"/></defs></g><defs><path id="aQ" d="M-483.8-294.5h-1.5v43h67v-43h-65.5zm0 3h64l-1.5-1.5v40l1.5-1.5h-64l1.5 1.5v-40l-1.5 1.5z"/></defs><clipPath id="aR"><use xlink:href="#aQ" overflow="visible"/></clipPath><g clip-path="url(#aR)"><defs><path id="aS" d="M-483.8-293h64v40h-64z"/></defs><clipPath id="aT"><use xlink:href="#aS" overflow="visible"/></clipPath><g clip-path="url(#aT)"><defs><path id="aU" d="M-880.8-381.5h1121v1030h-1121z"/></defs></g></g><defs><path id="aV" d="M-483.8-293h64v40h-64z"/></defs><clipPath id="aW"><use xlink:href="#aV" overflow="visible"/></clipPath><g clip-path="url(#aW)"><defs><path id="aX" d="M-880.8-381.5h1121v1030h-1121z"/></defs></g><defs><path id="aY" d="M-448.8-284.5h-1.5v33h22v-33h-20.5zm0 3h19l-1.5-1.5v30l1.5-1.5h-19l1.5 1.5v-30l-1.5 1.5z"/></defs><clipPath id="aZ"><use xlink:href="#aY" overflow="visible"/></clipPath><g clip-path="url(#aZ)"><defs><path id="ba" d="M-448.8-283h19v30h-19z"/></defs><clipPath id="bb"><use xlink:href="#ba" overflow="visible"/></clipPath><g clip-path="url(#bb)"><defs><path id="bc" d="M-880.8-381.5h1121v1030h-1121z"/></defs></g></g><defs><path id="bd" d="M-448.8-283h19v30h-19z"/></defs><clipPath id="be"><use xlink:href="#bd" overflow="visible"/></clipPath><g clip-path="url(#be)"><defs><path id="bf" d="M-880.8-381.5h1121v1030h-1121z"/></defs></g><defs><path id="bg" d="M-473.8-284.5h-1.5v33h22v-33h-20.5zm0 3h19l-1.5-1.5v30l1.5-1.5h-19l1.5 1.5v-30l-1.5 1.5z"/></defs><clipPath id="bh"><use xlink:href="#bg" overflow="visible"/></clipPath><g clip-path="url(#bh)"><defs><path id="bi" d="M-473.8-283h19v30h-19z"/></defs><clipPath id="bj"><use xlink:href="#bi" overflow="visible"/></clipPath><g clip-path="url(#bj)"><defs><path id="bk" d="M-880.8-381.5h1121v1030h-1121z"/></defs></g></g><defs><path id="bl" d="M-473.8-283h19v30h-19z"/></defs><clipPath id="bm"><use xlink:href="#bl" overflow="visible"/></clipPath><g clip-path="url(#bm)"><defs><path id="bn" d="M-880.8-381.5h1121v1030h-1121z"/></defs></g><defs><path id="bo" d="M-504.3-226.3c0 2.9-.8 7-2.3 11.9-.6 2.1-1.3 4.3-2.1 6.5-1 2.7-2 5.4-3.1 8-.4.9-.7 1.7-1 2.4-.2.4-.3.7-.4.9l-.9 2.1H-394.7l-.7-2c-.1-.2-.2-.4-.3-.9-.2-.7-.5-1.5-.8-2.4-.8-2.5-1.6-5.2-2.4-7.9-.7-2.4-1.3-4.8-1.8-7-1.1-4.8-1.7-8.8-1.7-11.8 0-2.8.7-7 1.9-12 .5-1.9 1-3.9 1.6-6 .8-2.7 1.6-5.4 2.4-7.9.3-.9.5-1.7.8-2.4.1-.4.2-.7.3-.9l.7-2H-514.1l1 2.1c.1.1.2.4.4.9.3.7.6 1.5 1 2.4 1 2.5 2.1 5.1 3.1 7.8.8 2.2 1.5 4.4 2.1 6.4 1.4 5 2.2 9 2.2 11.8zm3 0c0-3.2-.9-7.5-2.4-12.5-.6-2.1-1.4-4.3-2.2-6.5-1-2.7-2.1-5.4-3.1-8-.4-.9-.7-1.7-1-2.4-.2-.4-.3-.7-.4-.9l-1.4 2.1h115l-1.4-2c-.1.2-.2.5-.3.9-.2.7-.5 1.5-.8 2.4-.8 2.6-1.7 5.3-2.4 8-.6 2.1-1.1 4.1-1.6 6.1-1.3 5.2-2 9.5-2 12.7 0 3.2.6 7.4 1.7 12.4.5 2.3 1.1 4.7 1.8 7.1.8 2.8 1.6 5.5 2.4 8.1.3.9.6 1.7.8 2.4.1.4.2.7.3.9l1.4-2h-115l1.4 2.1c.1-.2.2-.5.4-.9.3-.7.7-1.5 1-2.4 1.1-2.6 2.1-5.3 3.1-8.1.8-2.3 1.6-4.5 2.2-6.7 1.7-5.2 2.5-9.5 2.5-12.8z"/></defs><clipPath id="bp"><use xlink:href="#bo" overflow="visible"/></clipPath><g clip-path="url(#bp)"><defs><path id="bq" d="M-502.8-226.3c0-9.9-9-29.7-9-29.7h115s-7 20-7 29.6c0 10.5 7 30.4 7 30.4h-115s9-20.2 9-30.3z"/></defs><clipPath id="br"><use xlink:href="#bq" overflow="visible"/></clipPath><g clip-path="url(#br)"><defs><path id="bs" d="M-880.8-381.5h1121v1030h-1121z"/></defs></g></g><defs><path id="bt" d="M-502.8-226.3c0-9.9-9-29.7-9-29.7h115s-7 20-7 29.6c0 10.5 7 30.4 7 30.4h-115s9-20.2 9-30.3z"/></defs><clipPath id="bu"><use xlink:href="#bt" overflow="visible"/></clipPath><g clip-path="url(#bu)"><defs><path id="bv" d="M-880.8-381.5h1121v1030h-1121z"/></defs></g><defs><path id="bw" d="M-488.8-225.5h-1.5v6h72v-6h-70.5zm0 3h69l-1.5-1.5v3l1.5-1.5h-69l1.5 1.5v-3l-1.5 1.5zm-21.5-23h112v46h-112v-46z"/></defs><clipPath id="bx"><use xlink:href="#bw" overflow="visible"/></clipPath><g clip-path="url(#bx)"><defs><path id="by" d="M-488.8-224h69v3h-69z"/></defs><clipPath id="bz"><use xlink:href="#by" overflow="visible"/></clipPath><g clip-path="url(#bz)"><defs><path id="bA" d="M-880.8-381.5h1121v1030h-1121z"/></defs></g></g><defs><path id="bB" d="M-488.8-224h69v3h-69z"/></defs><clipPath id="bC"><use xlink:href="#bB" overflow="visible"/></clipPath><g clip-path="url(#bC)"><defs><path id="bD" d="M-880.8-381.5h1121v1030h-1121z"/></defs></g><defs><path id="bE" d="M-488.8-233.5h-1.5v6h72v-6h-70.5zm0 3h69l-1.5-1.5v3l1.5-1.5h-69l1.5 1.5v-3l-1.5 1.5zm-21.5-23h112v46h-112v-46z"/></defs><clipPath id="bF"><use xlink:href="#bE" overflow="visible"/></clipPath><g clip-path="url(#bF)"><defs><path id="bG" d="M-488.8-232h69v3h-69z"/></defs><clipPath id="bH"><use xlink:href="#bG" overflow="visible"/></clipPath><g clip-path="url(#bH)"><defs><path id="bI" d="M-880.8-381.5h1121v1030h-1121z"/></defs></g></g><defs><path id="bJ" d="M-488.8-232h69v3h-69z"/></defs><clipPath id="bK"><use xlink:href="#bJ" overflow="visible"/></clipPath><g clip-path="url(#bK)"><defs><path id="bL" d="M-880.8-381.5h1121v1030h-1121z"/></defs></g><defs><path id="bM" d="M-456.8-218.1l.5 1.6 1.5-.7c2-.9 4.2-1.3 6.4-1.3 6 0 11.3 3.3 14.1 8.4l.5 1 1.1-.2c.6-.1 1.2-.2 1.8-.2 3.5 0 6.6 2.1 7.9 5.3l.5 1.2 1.3-.3c.4-.1.9-.2 1.4-.2 3 0 5.5 2.5 5.5 5.5s-2.5 5.5-5.5 5.5c-1.5 0-2.9-.6-3.9-1.6l-.9-.9-1 .8c-1.5 1.1-3.3 1.7-5.1 1.7-1.1 0-2.2-.2-3.2-.6l-1-.4-.7.9c-3 3.8-7.6 6.1-12.6 6.1-4.9 0-9.5-2.3-12.5-6l-.7-.8-1 .3c-1.1.4-2.2.5-3.3.5-2 0-4-.6-5.7-1.7l-.8-.5-.8.5c-1.7 1.1-3.6 1.7-5.7 1.7-2.2 0-4.3-.7-6-1.9l-1.1-.7-.9.9c-1 1.1-2.5 1.7-4 1.7-3 0-5.5-2.5-5.5-5.5s2.5-5.5 5.5-5.5H-489.3l.2-1.3c.8-5 5.2-8.7 10.4-8.7h1.5v-1.5c0-5.8 4.7-10.5 10.5-10.5 4.6 0 8.6 3 9.9 7.4zm2.9-.9c-1.7-5.6-6.9-9.5-12.9-9.5-7.5 0-13.5 6-13.5 13.5l1.5-1.5c-6.6 0-12.2 4.8-13.3 11.3l1.5.2v-1.5h-.2c-4.7 0-8.5 3.8-8.5 8.5s3.8 8.5 8.5 8.5c2.4 0 4.6-1 6.2-2.7l-2 .2c2.3 1.6 5 2.5 7.8 2.5 2.6 0 5.2-.8 7.3-2.2h-1.6c2.2 1.4 4.7 2.2 7.3 2.2 1.5 0 2.9-.2 4.3-.7l-.5-1.4-1.2.9c3.6 4.5 9 7.2 14.9 7.2s11.4-2.7 15-7.3l-1.2-.9-.6 1.4c1.3.5 2.8.8 4.3.8 2.6 0 5-.8 7-2.4l-2-.1c1.6 1.6 3.7 2.5 6 2.5 4.7 0 8.5-3.8 8.5-8.5s-3.8-8.5-8.5-8.5c-.7 0-1.4.1-2.1.3l.4 1.5 1.4-.6c-1.8-4.3-5.9-7.2-10.6-7.2-.8 0-1.6.1-2.4.2l.3 1.5 1.3-.7c-3.3-6.1-9.7-10-16.7-10-2.7 0-5.2.5-7.6 1.6l1.9.9zm-65.4-29.5h128v85h-128v-85z"/></defs><clipPath id="bN"><use xlink:href="#bM" overflow="visible"/></clipPath><g clip-path="url(#bN)"><defs><path id="bO" d="M-455.3-218.5c-1.5-4.9-6.1-8.5-11.5-8.5-6.6 0-12 5.4-12 12-5.9 0-10.9 4.3-11.8 10h-.2c-3.9 0-7 3.1-7 7s3.1 7 7 7c2 0 3.8-.8 5.1-2.2 2 1.4 4.3 2.2 6.9 2.2 2.4 0 4.6-.7 6.5-1.9 1.9 1.2 4.1 1.9 6.5 1.9 1.3 0 2.6-.2 3.8-.6 3.2 4 8.2 6.6 13.7 6.6 5.6 0 10.6-2.6 13.8-6.7 1.1.5 2.4.7 3.7.7 2.3 0 4.4-.8 6.1-2 1.3 1.3 3 2 4.9 2 3.9 0 7-3.1 7-7s-3.1-7-7-7c-.6 0-1.2.1-1.7.2-1.5-3.6-5.1-6.2-9.3-6.2-.7 0-1.4.1-2.1.2-3-5.5-8.8-9.2-15.4-9.2-2.5 0-4.9.5-7 1.5z"/></defs><clipPath id="bP"><use xlink:href="#bO" overflow="visible"/></clipPath><g clip-path="url(#bP)"><defs><path id="bQ" d="M-880.8-381.5h1121v1030h-1121z"/></defs></g></g><defs><path id="bR" d="M-455.3-218.5c-1.5-4.9-6.1-8.5-11.5-8.5-6.6 0-12 5.4-12 12-5.9 0-10.9 4.3-11.8 10h-.2c-3.9 0-7 3.1-7 7s3.1 7 7 7c2 0 3.8-.8 5.1-2.2 2 1.4 4.3 2.2 6.9 2.2 2.4 0 4.6-.7 6.5-1.9 1.9 1.2 4.1 1.9 6.5 1.9 1.3 0 2.6-.2 3.8-.6 3.2 4 8.2 6.6 13.7 6.6 5.6 0 10.6-2.6 13.8-6.7 1.1.5 2.4.7 3.7.7 2.3 0 4.4-.8 6.1-2 1.3 1.3 3 2 4.9 2 3.9 0 7-3.1 7-7s-3.1-7-7-7c-.6 0-1.2.1-1.7.2-1.5-3.6-5.1-6.2-9.3-6.2-.7 0-1.4.1-2.1.2-3-5.5-8.8-9.2-15.4-9.2-2.5 0-4.9.5-7 1.5z"/></defs><clipPath id="bS"><use xlink:href="#bR" overflow="visible"/></clipPath><g clip-path="url(#bS)"><defs><path id="bT" d="M-880.8-381.5h1121v1030h-1121z"/></defs></g><defs><path id="bU" d="M-184.3-253.6l56 32.4s-1.5 14.3-8.3 24.7c-6.8 10.4-24.1 17.2-24.1 17.2l-53.4-38.5s13.7-4.3 21.6-13.8 8.2-22 8.2-22z"/></defs><clipPath id="bV"><use xlink:href="#bU" overflow="visible"/></clipPath><g clip-path="url(#bV)"><defs><path id="bW" d="M-839.3-380.8h1121v1030h-1121z"/></defs></g><defs><path id="bX" d="M-158.8-239.8l21.8-50.6 6.2 2.7-22.4 51z"/></defs><clipPath id="bY"><use xlink:href="#bX" overflow="visible"/></clipPath><g clip-path="url(#bY)"><defs><path id="bZ" d="M-839.3-380.8h1121v1030h-1121z"/></defs></g><defs><path id="ca" d="M-193.7-213.4l1.2.9.9-1.2c-1.5-1-3.3-1.6-5.1-1.6-5 0-9 4-9 9 0 3.8 2.4 7.2 6 8.5l-1-1.4c0 4.9 4.1 8.9 9 8.9 1.4 0 2.8-.3 4.1-1l-.7-1.3-1.4.6c1.9 4 5.9 6.7 10.4 6.7 6.4 0 11.5-5.1 11.5-11.5 0-1.2-.2-2.5-.6-3.6l-1.4.5.8 1.3c2.6-1.6 4.2-4.5 4.2-7.6 0-5-4-9-9-9-1.2 0-2.3.2-3.4.7l.6 1.4 1.1-1c-2.2-2.6-5.4-4.1-8.8-4.1-3.8-.1-7.3 1.8-9.4 4.8zm2.4 1.7c1.6-2.3 4.2-3.7 7-3.7 2.5 0 4.9 1.1 6.5 3l.7.8 1-.4c.7-.3 1.5-.4 2.3-.4 3.3 0 6 2.7 6 6 0 2.1-1.1 4-2.8 5.1l-1 .6.4 1.1c.3.9.4 1.8.4 2.7 0 4.7-3.8 8.5-8.5 8.5-3.4 0-6.3-2-7.7-4.9l-.7-1.4-1.4.7c-.8.4-1.8.7-2.7.7-3.3 0-6-2.7-6-5.9v-1.1l-1-.3c-2.4-.8-4-3.1-4-5.7 0-3.3 2.7-6 6-6 1.2 0 2.4.4 3.4 1.1l1.2.9.9-1.4zm-34.5-26.6h81v73h-81v-73z"/></defs><clipPath id="cb"><use xlink:href="#ca" overflow="visible"/></clipPath><g clip-path="url(#cb)"><defs><path id="cc" d="M-192.5-212.5c1.8-2.6 4.8-4.3 8.2-4.3 3.1 0 5.8 1.4 7.7 3.6.9-.4 1.8-.6 2.8-.6 4.1 0 7.5 3.4 7.5 7.5 0 2.7-1.4 5-3.5 6.3.3 1 .5 2 .5 3.2 0 5.5-4.5 10-10 10-4 0-7.5-2.4-9.1-5.8-1 .5-2.2.8-3.4.8-4.1 0-7.5-3.3-7.5-7.4-2.9-1-5-3.8-5-7.1 0-4.1 3.4-7.5 7.5-7.5 1.6 0 3.1.5 4.3 1.3z"/></defs><clipPath id="cd"><use xlink:href="#cc" overflow="visible"/></clipPath><g clip-path="url(#cd)"><defs><path id="ce" d="M-839.3-380.8h1121v1030h-1121z"/></defs></g></g><defs><path id="cf" d="M-192.5-212.5c1.8-2.6 4.8-4.3 8.2-4.3 3.1 0 5.8 1.4 7.7 3.6.9-.4 1.8-.6 2.8-.6 4.1 0 7.5 3.4 7.5 7.5 0 2.7-1.4 5-3.5 6.3.3 1 .5 2 .5 3.2 0 5.5-4.5 10-10 10-4 0-7.5-2.4-9.1-5.8-1 .5-2.2.8-3.4.8-4.1 0-7.5-3.3-7.5-7.4-2.9-1-5-3.8-5-7.1 0-4.1 3.4-7.5 7.5-7.5 1.6 0 3.1.5 4.3 1.3z"/></defs><clipPath id="cg"><use xlink:href="#cf" overflow="visible"/></clipPath><g clip-path="url(#cg)"><defs><path id="ch" d="M-839.3-380.8h1121v1030h-1121z"/></defs></g><defs><path id="ci" d="M-136.3-297.2l10.2 4.4 2-4.4-10.3-4-1.9 4zm-8.5 2.7l22.8 9.7 7.1-15.4-23.3-8.4-6.6 14.1z"/></defs><clipPath id="cj"><use xlink:href="#ci" overflow="visible"/></clipPath><g clip-path="url(#cj)"><defs><path id="ck" d="M-839.3-380.8h1121v1030h-1121z"/></defs></g><defs><path id="cl" d="M136.1-309.6c30.3 0 55 7.1 55 14.8v22l1.7-1.5c-.1 0-.2 0-.4-.1-.4-.1-.8-.1-1.3-.2-1.4-.2-2.9-.4-4.6-.6-4.9-.7-10-1.3-15.2-2-3.9-.5-7.7-.9-11.3-1.3-9.9-1-18.1-1.6-23.9-1.6-5.2 0-14.3.8-26.1 2.3-2.5.3-5.1.6-7.7 1-5.4.7-10.9 1.5-16.1 2.3-1.8.3-3.5.5-5 .8-.5.1-1 .2-1.4.2-.2 0-.4.1-.5.1l1.7 1.5v-23c.1-7.6 24.8-14.7 55.1-14.7zm0-3c-32.1 0-58 7.5-58 17.8v24.8l1.7-.3c.1 0 .2 0 .5-.1.4-.1.8-.1 1.4-.2 1.5-.2 3.1-.5 5-.8 5.2-.8 10.7-1.6 16.1-2.3 2.6-.4 5.2-.7 7.7-1 11.7-1.5 20.7-2.3 25.7-2.3 5.6 0 13.7.6 23.6 1.6 3.6.4 7.4.8 11.2 1.3 5.2.6 10.3 1.3 15.2 2 1.7.2 3.2.4 4.6.6.5.1.9.1 1.2.2.2 0 .4.1.4.1l1.7.3v-23.7c0-10.6-25.9-18-58-18zm-78-20h156v82.5h-156v-82.5z"/></defs><clipPath id="cm"><use xlink:href="#cl" overflow="visible"/></clipPath><g clip-path="url(#cm)"><defs><path id="cn" d="M136.1-311.1c-31.2 0-56.5 7.3-56.5 16.3v23s42.2-6.7 56.5-6.7c18 0 56.5 5.7 56.5 5.7v-22c0-9-25.3-16.3-56.5-16.3z"/></defs><clipPath id="co"><use xlink:href="#cn" overflow="visible"/></clipPath><g clip-path="url(#co)"><defs><path id="cp" d="M-779.4-393.9h1121v1030h-1121z"/></defs></g></g><defs><path id="cq" d="M136.1-311.1c-31.2 0-56.5 7.3-56.5 16.3v23s42.2-6.7 56.5-6.7c18 0 56.5 5.7 56.5 5.7v-22c0-9-25.3-16.3-56.5-16.3z"/></defs><clipPath id="cr"><use xlink:href="#cq" overflow="visible"/></clipPath><g clip-path="url(#cr)"><defs><path id="cs" d="M-779.4-393.9h1121v1030h-1121z"/></defs></g><defs><path id="ct" d="M136.1-287.4c30.3 0 55 7.1 55 14.8s-24.7 14.8-55 14.8-55-7.1-55-14.8 24.7-14.8 55-14.8zm0-3c-32.1 0-58 7.5-58 17.8s25.9 17.8 58 17.8 58-7.5 58-17.8-25.9-17.8-58-17.8zm-78-20h156v75.6h-156v-75.6z"/></defs><clipPath id="cu"><use xlink:href="#ct" overflow="visible"/></clipPath><g clip-path="url(#cu)"><defs><ellipse id="cv" cx="136.1" cy="-272.5" rx="56.5" ry="16.3"/></defs><clipPath id="cw"><use xlink:href="#cv" overflow="visible"/></clipPath><g clip-path="url(#cw)"><defs><path id="cx" d="M-779.4-393.9h1121v1030h-1121z"/></defs></g></g><defs><ellipse id="cy" cx="136.1" cy="-272.5" rx="56.5" ry="16.3"/></defs><clipPath id="cz"><use xlink:href="#cy" overflow="visible"/></clipPath><g clip-path="url(#cz)"><defs><path id="cA" d="M-779.4-393.9h1121v1030h-1121z"/></defs></g><defs><path id="cB" d="M96.1-268.2c0-5.3 18-10.4 40-10.4s40 5.2 40 10.4v7.1l1.2-1.5c-.1 0-.1 0-.3.1-.3 0-.6.1-.9.2-1 .2-2.1.3-3.4.5-3.6.6-7.3 1.1-11.1 1.7-2.9.4-5.6.8-8.3 1.1-7.2.9-13.1 1.3-17.2 1.3-3.7 0-10.3-.5-18.9-1.4-1.8-.2-3.7-.4-5.6-.6-4-.5-8-.9-11.8-1.4-1.3-.2-2.6-.3-3.6-.5-.4 0-.7-.1-1-.1h-.3l1.3 1.5v-8zm-3 0v9.1l1.3.2h.4c.3 0 .6.1 1 .1 1.1.1 2.3.3 3.7.5a11776882415803102 11776882415803102 0 0 0 36.7 3.5c4.3 0 10.3-.5 17.6-1.4 2.7-.3 5.4-.7 8.3-1.1 3.8-.5 7.6-1.1 11.2-1.7 1.3-.2 2.4-.4 3.4-.5.4-.1.7-.1.9-.2.3 0 .3 0 .3-.1l1.2-.2v-8.4c0-7.9-19.2-13.4-43-13.4s-43 5.7-43 13.6zm-20-33.4h126v66.9h-126v-66.9z"/></defs><clipPath id="cC"><use xlink:href="#cB" overflow="visible"/></clipPath><g clip-path="url(#cC)"><defs><path id="cD" d="M94.6-268.2v7.8s31 4.1 41.5 4.1c13.2 0 41.5-4.8 41.5-4.8v-7.1c0-6.6-18.6-11.9-41.5-11.9s-41.5 5.3-41.5 11.9z"/></defs><clipPath id="cE"><use xlink:href="#cD" overflow="visible"/></clipPath><g clip-path="url(#cE)"><defs><path id="cF" d="M-779.4-393.9h1121v1030h-1121z"/></defs></g></g><defs><path id="cG" d="M94.6-268.2v7.8s31 4.1 41.5 4.1c13.2 0 41.5-4.8 41.5-4.8v-7.1c0-6.6-18.6-11.9-41.5-11.9s-41.5 5.3-41.5 11.9z"/></defs><clipPath id="cH"><use xlink:href="#cG" overflow="visible"/></clipPath><g clip-path="url(#cH)"><defs><path id="cI" d="M-779.4-393.9h1121v1030h-1121z"/></defs></g><defs><path id="cJ" d="M136.1-270.3c22 0 40 5.2 40 10.4s-18 10.4-40 10.4-40-5.2-40-10.4 18-10.4 40-10.4zm0-3c-23.8 0-43 5.5-43 13.4s19.2 13.4 43 13.4 43-5.5 43-13.4-19.2-13.4-43-13.4zm-63-20h126v66.9h-126v-66.9z"/></defs><clipPath id="cK"><use xlink:href="#cJ" overflow="visible"/></clipPath><g clip-path="url(#cK)"><defs><ellipse id="cL" cx="136.1" cy="-259.9" rx="41.5" ry="11.9"/></defs><clipPath id="cM"><use xlink:href="#cL" overflow="visible"/></clipPath><g clip-path="url(#cM)"><defs><path id="cN" d="M-779.4-393.9h1121v1030h-1121z"/></defs></g></g><defs><ellipse id="cO" cx="136.1" cy="-259.9" rx="41.5" ry="11.9"/></defs><clipPath id="cP"><use xlink:href="#cO" overflow="visible"/></clipPath><g clip-path="url(#cP)"><defs><path id="cQ" d="M-779.4-393.9h1121v1030h-1121z"/></defs></g><defs><path id="cR" d="M123.5-258.3c0 .4-.2.7-.4.8.1 0 .2-.1.4-.2.6-.2 1.6-.4 2.8-.6 2.6-.4 6-.6 9.8-.6s7.2.2 9.8.6c1.2.2 2.2.4 2.8.6l.4.2c-.2-.1-.4-.4-.4-.8s.2-.7.4-.8c-.1 0-.2.1-.4.2-.6.2-1.6.4-2.8.6-2.6.4-6 .6-9.8.6s-7.2-.2-9.8-.6c-1.2-.2-2.2-.4-2.8-.6l-.4-.2c.2.1.4.3.4.8zm-3 0c0 2.6 6.2 3.5 15.6 3.5s15.6-.9 15.6-3.5-6.2-3.5-15.6-3.5-15.6.8-15.6 3.5zm-20-23.6h71.2v47.1h-71.2v-47.1z"/></defs><clipPath id="cS"><use xlink:href="#cR" overflow="visible"/></clipPath><g clip-path="url(#cS)"><defs><ellipse id="cT" cx="136.1" cy="-258.3" rx="14.1" ry="2"/></defs><clipPath id="cU"><use xlink:href="#cT" overflow="visible"/></clipPath><g clip-path="url(#cU)"><defs><path id="cV" d="M-779.4-393.9h1121v1030h-1121z"/></defs></g></g><defs><ellipse id="cW" cx="136.1" cy="-258.3" rx="14.1" ry="2"/></defs><clipPath id="cX"><use xlink:href="#cW" overflow="visible"/></clipPath><g clip-path="url(#cX)"><defs><path id="cY" d="M-779.4-393.9h1121v1030h-1121z"/></defs></g><defs><path id="cZ" d="M128.9-241s-10.5 3.3-9.1 12.3c.9 5.5 5.6 8.1 5.6 13.5s-4.6 9.5-4.6 9.5 13.5-.3 14.6-9.5c1.1-9.2-6.7-11.3-8.3-15.6-1.4-4.3 1.8-10.2 1.8-10.2z"/></defs><clipPath id="da"><use xlink:href="#cZ" overflow="visible"/></clipPath><g clip-path="url(#da)"><defs><path id="db" d="M-779.4-393.9h1121v1030h-1121z"/></defs></g><g><defs><path id="dc" d="M144-237.7s-15.1 4.8-13 17.6c1.2 7.9 8 11.6 8 19.4s-6.5 13.6-6.5 13.6 19.3-.5 20.9-13.6-9.6-16.1-11.8-22.3c-2.3-6.3 2.4-14.7 2.4-14.7z"/></defs><clipPath id="dd"><use xlink:href="#dc" overflow="visible"/></clipPath><g clip-path="url(#dd)"><defs><path id="de" d="M-779.4-393.9h1121v1030h-1121z"/></defs></g></g><g><defs><path id="df" d="M-507.5-127.5l-1.4.4.4 1.4 30.4 99.5.4 1.4 1.4-.4 60.2-18.4 1.4-.4-.4-1.4-30.4-99.5-.4-1.4-1.4.4-60.2 18.4zm.9 2.9l60.2-18.4-1.9-1 30.4 99.5 1-1.9-60.2 18.4 1.9 1-30.4-99.5-1 1.9zm-27.3-15.7l101.4-31 43 140.6-101.4 31-43-140.6z"/></defs><clipPath id="dg"><use xlink:href="#df" overflow="visible"/></clipPath><g clip-path="url(#dg)"><defs><path id="dh" transform="rotate(162.999 -461.704 -85.504)" d="M-493.2-137.5h63v104h-63z"/></defs><clipPath id="di"><use xlink:href="#dh" overflow="visible"/></clipPath><g clip-path="url(#di)"><defs><path id="dj" d="M-637.2-435h1121V595h-1121z"/></defs></g></g></g><g><defs><path id="dk" transform="rotate(162.999 -461.704 -85.504)" d="M-493.2-137.5h63v104h-63z"/></defs><clipPath id="dl"><use xlink:href="#dk" overflow="visible"/></clipPath><g clip-path="url(#dl)"><defs><path id="dm" d="M-637.2-435h1121V595h-1121z"/></defs></g></g><g><defs><path id="dn" d="M-472.2-150.5h-1.5v107h66v-107h-64.5zm0 3h63l-1.5-1.5v104l1.5-1.5h-63l1.5 1.5v-104l-1.5 1.5zm-21.5-23h106v147h-106v-147z"/></defs><clipPath id="do"><use xlink:href="#dn" overflow="visible"/></clipPath><g clip-path="url(#do)"><defs><path id="dp" d="M-472.2-149h63v104h-63z"/></defs><clipPath id="dq"><use xlink:href="#dp" overflow="visible"/></clipPath><g clip-path="url(#dq)"><defs><path id="dr" d="M-637.2-435h1121V595h-1121z"/></defs></g></g></g><g><defs><path id="ds" d="M-472.2-149h63v104h-63z"/></defs><clipPath id="dt"><use xlink:href="#ds" overflow="visible"/></clipPath><g clip-path="url(#dt)"><defs><path id="du" d="M-637.2-435h1121V595h-1121z"/></defs></g></g><g><defs><path id="dv" d="M-463.2-121h44v13h-44z"/></defs><clipPath id="dw"><use xlink:href="#dv" overflow="visible"/></clipPath><g clip-path="url(#dw)"><defs><path id="dx" d="M-637.2-435h1121V595h-1121z"/></defs></g></g><g><defs><path id="dy" d="M-463.2-111h44v13h-44z"/></defs><clipPath id="dz"><use xlink:href="#dy" overflow="visible"/></clipPath><g clip-path="url(#dz)"><defs><path id="dA" d="M-637.2-435h1121V595h-1121z"/></defs></g></g><g><defs><path id="dB" d="M-463.2-101h44v13h-44z"/></defs><clipPath id="dC"><use xlink:href="#dB" overflow="visible"/></clipPath><g clip-path="url(#dC)"><defs><path id="dD" d="M-637.2-435h1121V595h-1121z"/></defs></g></g><g><defs><path id="dE" d="M-463.2-91h44v14h-44z"/></defs><clipPath id="dF"><use xlink:href="#dE" overflow="visible"/></clipPath><g clip-path="url(#dF)"><defs><path id="dG" d="M-637.2-435h1121V595h-1121z"/></defs></g></g><g><defs><path id="dH" d="M-463.2-80h44v14h-44z"/></defs><clipPath id="dI"><use xlink:href="#dH" overflow="visible"/></clipPath><g clip-path="url(#dI)"><defs><path id="dJ" d="M-637.2-435h1121V595h-1121z"/></defs></g></g><g><defs><path id="dK" d="M-463.2-69h44v14h-44z"/></defs><clipPath id="dL"><use xlink:href="#dK" overflow="visible"/></clipPath><g clip-path="url(#dL)"><defs><path id="dM" d="M-637.2-435h1121V595h-1121z"/></defs></g></g><g><defs><path id="dN" d="M-462.2-139h3v13h-3z"/></defs><clipPath id="dO"><use xlink:href="#dN" overflow="visible"/></clipPath><g clip-path="url(#dO)"><defs><path id="dP" d="M-637.2-435h1121V595h-1121z"/></defs></g></g><g><defs><path id="dQ" d="M-457.2-139h3v13h-3z"/></defs><clipPath id="dR"><use xlink:href="#dQ" overflow="visible"/></clipPath><g clip-path="url(#dR)"><defs><path id="dS" d="M-637.2-435h1121V595h-1121z"/></defs></g></g><g><defs><path id="dT" d="M-452.2-139h3v13h-3z"/></defs><clipPath id="dU"><use xlink:href="#dT" overflow="visible"/></clipPath><g clip-path="url(#dU)"><defs><path id="dV" d="M-637.2-435h1121V595h-1121z"/></defs></g></g><g><defs><path id="dW" d="M-447.2-139h3v13h-3z"/></defs><clipPath id="dX"><use xlink:href="#dW" overflow="visible"/></clipPath><g clip-path="url(#dX)"><defs><path id="dY" d="M-637.2-435h1121V595h-1121z"/></defs></g></g><g><defs><path id="dZ" d="M-442.2-139h3v13h-3z"/></defs><clipPath id="ea"><use xlink:href="#dZ" overflow="visible"/></clipPath><g clip-path="url(#ea)"><defs><path id="eb" d="M-637.2-435h1121V595h-1121z"/></defs></g></g><g><defs><path id="ec" d="M-442.2-88h3v32h-3z"/></defs><clipPath id="ed"><use xlink:href="#ec" overflow="visible"/></clipPath><g clip-path="url(#ed)"><defs><path id="ee" d="M-637.2-435h1121V595h-1121z"/></defs></g></g><g><defs><path id="ef" d="M-437.2-139h3v13h-3z"/></defs><clipPath id="eg"><use xlink:href="#ef" overflow="visible"/></clipPath><g clip-path="url(#eg)"><defs><path id="eh" d="M-637.2-435h1121V595h-1121z"/></defs></g></g><g><defs><path id="ei" d="M-432.2-139h3v13h-3z"/></defs><clipPath id="ej"><use xlink:href="#ei" overflow="visible"/></clipPath><g clip-path="url(#ej)"><defs><path id="ek" d="M-637.2-435h1121V595h-1121z"/></defs></g></g><g><defs><path id="el" d="M-427.2-139h3v13h-3z"/></defs><clipPath id="em"><use xlink:href="#el" overflow="visible"/></clipPath><g clip-path="url(#em)"><defs><path id="en" d="M-637.2-435h1121V595h-1121z"/></defs></g></g><g><defs><path id="eo" d="M-422.2-139h3v13h-3z"/></defs><clipPath id="ep"><use xlink:href="#eo" overflow="visible"/></clipPath><g clip-path="url(#ep)"><defs><path id="eq" d="M-637.2-435h1121V595h-1121z"/></defs></g></g><g><defs><path id="er" d="M-504.2-124.8l53.3 34.1-23.9 61.7"/></defs><clipPath id="es"><use xlink:href="#er" overflow="visible"/></clipPath><g clip-path="url(#es)"><defs><path id="et" d="M-637.2-435h1121V595h-1121z"/></defs></g></g><g><defs><path id="eu" d="M-202.5-150.5h-1.5v107h66v-107h-64.5zm0 3h63l-1.5-1.5v104l1.5-1.5h-63l1.5 1.5v-104l-1.5 1.5zm-21.5-23h106v147h-106v-147z"/></defs><clipPath id="ev"><use xlink:href="#eu" overflow="visible"/></clipPath><g clip-path="url(#ev)"><defs><path id="ew" d="M-202.5-149h63v104h-63z"/></defs><clipPath id="ex"><use xlink:href="#ew" overflow="visible"/></clipPath><g clip-path="url(#ex)"><defs><path id="ey" d="M-592.5-429h1121V601h-1121z"/></defs></g></g></g><g><defs><path id="ez" d="M-202.5-149h63v104h-63z"/></defs><clipPath id="eA"><use xlink:href="#ez" overflow="visible"/></clipPath><g clip-path="url(#eA)"><defs><path id="eB" d="M-592.5-429h1121V601h-1121z"/></defs></g></g><g><defs><path id="eC" d="M-193.5-121h44v13h-44z"/></defs><clipPath id="eD"><use xlink:href="#eC" overflow="visible"/></clipPath><g clip-path="url(#eD)"><defs><path id="eE" d="M-592.5-429h1121V601h-1121z"/></defs></g></g><g><defs><path id="eF" d="M-193.5-111h44v13h-44z"/></defs><clipPath id="eG"><use xlink:href="#eF" overflow="visible"/></clipPath><g clip-path="url(#eG)"><defs><path id="eH" d="M-592.5-429h1121V601h-1121z"/></defs></g></g><g><defs><path id="eI" d="M-193.5-101h44v13h-44z"/></defs><clipPath id="eJ"><use xlink:href="#eI" overflow="visible"/></clipPath><g clip-path="url(#eJ)"><defs><path id="eK" d="M-592.5-429h1121V601h-1121z"/></defs></g></g><g><defs><path id="eL" d="M-193.5-91h44v14h-44z"/></defs><clipPath id="eM"><use xlink:href="#eL" overflow="visible"/></clipPath><g clip-path="url(#eM)"><defs><path id="eN" d="M-592.5-429h1121V601h-1121z"/></defs></g></g><g><defs><path id="eO" d="M-193.5-80h44v14h-44z"/></defs><clipPath id="eP"><use xlink:href="#eO" overflow="visible"/></clipPath><g clip-path="url(#eP)"><defs><path id="eQ" d="M-592.5-429h1121V601h-1121z"/></defs></g></g><g><defs><path id="eR" d="M-193.5-69h44v14h-44z"/></defs><clipPath id="eS"><use xlink:href="#eR" overflow="visible"/></clipPath><g clip-path="url(#eS)"><defs><path id="eT" d="M-592.5-429h1121V601h-1121z"/></defs></g></g><g><defs><path id="eU" d="M-192.5-139h3v13h-3z"/></defs><clipPath id="eV"><use xlink:href="#eU" overflow="visible"/></clipPath><g clip-path="url(#eV)"><defs><path id="eW" d="M-592.5-429h1121V601h-1121z"/></defs></g></g><g><defs><path id="eX" d="M-187.5-139h3v13h-3z"/></defs><clipPath id="eY"><use xlink:href="#eX" overflow="visible"/></clipPath><g clip-path="url(#eY)"><defs><path id="eZ" d="M-592.5-429h1121V601h-1121z"/></defs></g></g><g><defs><path id="fa" d="M-182.5-139h3v13h-3z"/></defs><clipPath id="fb"><use xlink:href="#fa" overflow="visible"/></clipPath><g clip-path="url(#fb)"><defs><path id="fc" d="M-592.5-429h1121V601h-1121z"/></defs></g></g><g><defs><path id="fd" d="M-177.5-139h3v13h-3z"/></defs><clipPath id="fe"><use xlink:href="#fd" overflow="visible"/></clipPath><g clip-path="url(#fe)"><defs><path id="ff" d="M-592.5-429h1121V601h-1121z"/></defs></g></g><g><defs><path id="fg" d="M-172.5-139h3v13h-3z"/></defs><clipPath id="fh"><use xlink:href="#fg" overflow="visible"/></clipPath><g clip-path="url(#fh)"><defs><path id="fi" d="M-592.5-429h1121V601h-1121z"/></defs></g></g><g><defs><path id="fj" d="M-172.5-88h3v32h-3z"/></defs><clipPath id="fk"><use xlink:href="#fj" overflow="visible"/></clipPath><g clip-path="url(#fk)"><defs><path id="fl" d="M-592.5-429h1121V601h-1121z"/></defs></g></g><g><defs><path id="fm" d="M-167.5-139h3v13h-3z"/></defs><clipPath id="fn"><use xlink:href="#fm" overflow="visible"/></clipPath><g clip-path="url(#fn)"><defs><path id="fo" d="M-592.5-429h1121V601h-1121z"/></defs></g></g><g><defs><path id="fp" d="M-162.5-139h3v13h-3z"/></defs><clipPath id="fq"><use xlink:href="#fp" overflow="visible"/></clipPath><g clip-path="url(#fq)"><defs><path id="fr" d="M-592.5-429h1121V601h-1121z"/></defs></g></g><g><defs><path id="fs" d="M-157.5-139h3v13h-3z"/></defs><clipPath id="ft"><use xlink:href="#fs" overflow="visible"/></clipPath><g clip-path="url(#ft)"><defs><path id="fu" d="M-592.5-429h1121V601h-1121z"/></defs></g></g><g><defs><path id="fv" d="M-152.5-139h3v13h-3z"/></defs><clipPath id="fw"><use xlink:href="#fv" overflow="visible"/></clipPath><g clip-path="url(#fw)"><defs><path id="fx" d="M-592.5-429h1121V601h-1121z"/></defs></g></g><g><defs><path id="fy" d="M-130.5-29.5c-16.3 0-29.5-13.2-29.5-29.5s13.2-29.5 29.5-29.5S-101-75.3-101-59s-13.2 29.5-29.5 29.5zm0 3C-112.6-26.5-98-41.1-98-59s-14.6-32.5-32.5-32.5S-163-76.9-163-59s14.5 32.5 32.5 32.5zm-52.5-85h105v105h-105v-105z"/></defs><clipPath id="fz"><use xlink:href="#fy" overflow="visible"/></clipPath><g clip-path="url(#fz)"><defs><circle id="fA" cx="-130.5" cy="-59" r="31"/></defs><clipPath id="fB"><use xlink:href="#fA" overflow="visible"/></clipPath><g clip-path="url(#fB)"><defs><path id="fC" d="M-592.5-429h1121V601h-1121z"/></defs></g></g></g><g><defs><circle id="fD" cx="-130.5" cy="-59" r="31"/></defs><clipPath id="fE"><use xlink:href="#fD" overflow="visible"/></clipPath><g clip-path="url(#fE)"><defs><path id="fF" d="M-592.5-429h1121V601h-1121z"/></defs></g></g><g><defs><path id="fG" d="M-224.2 25.7h-1.5v90h134v-90h-132.5zm0 3h131l-1.5-1.5v87l1.5-1.5h-131l1.5 1.5v-87l-1.5 1.5zm-21.5-23h174v130h-174V5.7z"/></defs><clipPath id="fH"><use xlink:href="#fG" overflow="visible"/></clipPath><g clip-path="url(#fH)"><defs><path id="fI" d="M-224.2 27.2h131v87h-131z"/></defs><clipPath id="fJ"><use xlink:href="#fI" overflow="visible"/></clipPath><g clip-path="url(#fJ)"><defs><path id="fK" d="M-833.2-276.8h1121v1030h-1121z"/></defs></g></g></g><g><defs><path id="fL" d="M-224.2 27.2h131v87h-131z"/></defs><clipPath id="fM"><use xlink:href="#fL" overflow="visible"/></clipPath><g clip-path="url(#fM)"><defs><path id="fN" d="M-833.2-276.8h1121v1030h-1121z"/></defs></g></g><g><defs><path id="fO" d="M-219.2 30.7h-1.5v80h124v-80h-122.5zm0 3h121l-1.5-1.5v77l1.5-1.5h-121l1.5 1.5v-77l-1.5 1.5zm-21.5-23h164v120h-164v-120z"/></defs><clipPath id="fP"><use xlink:href="#fO" overflow="visible"/></clipPath><g clip-path="url(#fP)"><defs><path id="fQ" d="M-219.2 32.2h121v77h-121z"/></defs><clipPath id="fR"><use xlink:href="#fQ" overflow="visible"/></clipPath><g clip-path="url(#fR)"><defs><path id="fS" d="M-833.2-276.8h1121v1030h-1121z"/></defs></g></g></g><g><defs><path id="fT" d="M-219.2 32.2h121v77h-121z"/></defs><clipPath id="fU"><use xlink:href="#fT" overflow="visible"/></clipPath><g clip-path="url(#fU)"><defs><path id="fV" d="M-833.2-276.8h1121v1030h-1121z"/></defs></g></g><g><defs><path id="fW" d="M-154.2 45.7h-1.5v6h47v-6h-45.5zm0 3h44l-1.5-1.5v3l1.5-1.5h-44l1.5 1.5v-3l-1.5 1.5zm-21.5-23h87v46h-87v-46z"/></defs><clipPath id="fX"><use xlink:href="#fW" overflow="visible"/></clipPath><g clip-path="url(#fX)"><defs><path id="fY" d="M-154.2 47.2h44v3h-44z"/></defs><clipPath id="fZ"><use xlink:href="#fY" overflow="visible"/></clipPath><g clip-path="url(#fZ)"><defs><path id="ga" d="M-833.2-276.8h1121v1030h-1121z"/></defs></g></g></g><g><defs><path id="gb" d="M-154.2 47.2h44v3h-44z"/></defs><clipPath id="gc"><use xlink:href="#gb" overflow="visible"/></clipPath><g clip-path="url(#gc)"><defs><path id="gd" d="M-833.2-276.8h1121v1030h-1121z"/></defs></g></g><g><defs><path id="ge" d="M-154.2 51.7h-1.5v6h47v-6h-45.5zm0 3h44l-1.5-1.5v3l1.5-1.5h-44l1.5 1.5v-3l-1.5 1.5zm-21.5-23h87v46h-87v-46z"/></defs><clipPath id="gf"><use xlink:href="#ge" overflow="visible"/></clipPath><g clip-path="url(#gf)"><defs><path id="gg" d="M-154.2 53.2h44v3h-44z"/></defs><clipPath id="gh"><use xlink:href="#gg" overflow="visible"/></clipPath><g clip-path="url(#gh)"><defs><path id="gi" d="M-833.2-276.8h1121v1030h-1121z"/></defs></g></g></g><g><defs><path id="gj" d="M-154.2 53.2h44v3h-44z"/></defs><clipPath id="gk"><use xlink:href="#gj" overflow="visible"/></clipPath><g clip-path="url(#gk)"><defs><path id="gl" d="M-833.2-276.8h1121v1030h-1121z"/></defs></g></g><g><defs><path id="gm" d="M-154.2 57.7h-1.5v6h47v-6h-45.5zm0 3h44l-1.5-1.5v3l1.5-1.5h-44l1.5 1.5v-3l-1.5 1.5zm-21.5-23h87v46h-87v-46z"/></defs><clipPath id="gn"><use xlink:href="#gm" overflow="visible"/></clipPath><g clip-path="url(#gn)"><defs><path id="go" d="M-154.2 59.2h44v3h-44z"/></defs><clipPath id="gp"><use xlink:href="#go" overflow="visible"/></clipPath><g clip-path="url(#gp)"><defs><path id="gq" d="M-833.2-276.8h1121v1030h-1121z"/></defs></g></g></g><g><defs><path id="gr" d="M-154.2 59.2h44v3h-44z"/></defs><clipPath id="gs"><use xlink:href="#gr" overflow="visible"/></clipPath><g clip-path="url(#gs)"><defs><path id="gt" d="M-833.2-276.8h1121v1030h-1121z"/></defs></g></g><g><defs><path id="gu" d="M-154.2 63.7h-1.5v6h47v-6h-45.5zm0 3h44l-1.5-1.5v3l1.5-1.5h-44l1.5 1.5v-3l-1.5 1.5zm-21.5-23h87v46h-87v-46z"/></defs><clipPath id="gv"><use xlink:href="#gu" overflow="visible"/></clipPath><g clip-path="url(#gv)"><defs><path id="gw" d="M-154.2 65.2h44v3h-44z"/></defs><clipPath id="gx"><use xlink:href="#gw" overflow="visible"/></clipPath><g clip-path="url(#gx)"><defs><path id="gy" d="M-833.2-276.8h1121v1030h-1121z"/></defs></g></g></g><g><defs><path id="gz" d="M-154.2 65.2h44v3h-44z"/></defs><clipPath id="gA"><use xlink:href="#gz" overflow="visible"/></clipPath><g clip-path="url(#gA)"><defs><path id="gB" d="M-833.2-276.8h1121v1030h-1121z"/></defs></g></g><g><defs><path id="gC" d="M-512 188.2h-1.2v71.5h131.7v-71.5H-512zm0 2.4h129.3l-1.2-1.2v69.1l1.2-1.2H-512l1.2 1.2v-69.1l-1.2 1.2zm-17.3-18.5h163.9v103.6h-163.9V172.1z"/></defs><clipPath id="gD"><use xlink:href="#gC" overflow="visible"/></clipPath><g clip-path="url(#gD)"><defs><path id="gE" d="M-512 189.4h129.3v69.1H-512z"/></defs><clipPath id="gF"><use xlink:href="#gE" overflow="visible"/></clipPath><g clip-path="url(#gF)"><defs><path id="gG" d="M-591.1-215.9h900.5v827.4h-900.5z"/></defs></g></g></g><g><defs><path id="gH" d="M-512 189.4h129.3v69.1H-512z"/></defs><clipPath id="gI"><use xlink:href="#gH" overflow="visible"/></clipPath><g clip-path="url(#gI)"><defs><path id="gJ" d="M-591.1-215.9h900.5v827.4h-900.5z"/></defs></g></g><g><defs><path id="gK" d="M-505.6 194.6h-1.2V252.4h118.9V194.6H-407.4l-.3.2-6.5 4.8.7-.2h-66.7l.8.3-5.9-4.8-.3-.3h-20zm0 2.4h19.4l-.8-.3 5.9 4.8.3.3H-413.3l.3-.2 6.5-4.8-.7.2h17.9l-1.2-1.2v55.4l1.2-1.2h-116.5l1.2 1.2v-55.4l-1 1.2zm-17.3-18.5h151v90h-151v-90z"/></defs><clipPath id="gL"><use xlink:href="#gK" overflow="visible"/></clipPath><g clip-path="url(#gL)"><defs><path id="gM" d="M-505.6 195.8h19.5l5.9 4.8h66.7l6.5-4.8h17.9v55.4h-116.5z"/></defs><clipPath id="gN"><use xlink:href="#gM" overflow="visible"/></clipPath><g clip-path="url(#gN)"><defs><path id="gO" d="M-591.1-215.9h900.5v827.4h-900.5z"/></defs></g></g></g><g><defs><path id="gP" d="M-505.6 195.8h19.5l5.9 4.8h66.7l6.5-4.8h17.9v55.4h-116.5z"/></defs><clipPath id="gQ"><use xlink:href="#gP" overflow="visible"/></clipPath><g clip-path="url(#gQ)"><defs><path id="gR" d="M-591.1-215.9h900.5v827.4h-900.5z"/></defs></g></g><g><defs><path id="gS" d="M-477.5 195h5.6v2.4h-5.6z"/></defs><clipPath id="gT"><use xlink:href="#gS" overflow="visible"/></clipPath><g clip-path="url(#gT)"><defs><path id="gU" d="M-591.1-215.9h900.5v827.4h-900.5z"/></defs></g></g><g><defs><path id="gV" d="M-421.2 195h5.6v2.4h-5.6z"/></defs><clipPath id="gW"><use xlink:href="#gV" overflow="visible"/></clipPath><g clip-path="url(#gW)"><defs><path id="gX" d="M-591.1-215.9h900.5v827.4h-900.5z"/></defs></g></g><g><defs><path id="gY" d="M-750.6-39.5c-27.1 0-49-21.9-49-49s21.9-49 49-49 49 21.9 49 49-21.9 49-49 49zm0 3c28.7 0 52-23.3 52-52s-23.3-52-52-52-52 23.3-52 52 23.3 52 52 52zm-72-124h144v144h-144v-144z"/></defs><clipPath id="gZ"><use xlink:href="#gY" overflow="visible"/></clipPath><g clip-path="url(#gZ)"><defs><circle id="ha" cx="-750.6" cy="-88.5" r="50.5"/></defs><clipPath id="hb"><use xlink:href="#ha" overflow="visible"/></clipPath><g clip-path="url(#hb)"><defs><path id="hc" d="M-925.1-824.5h1121v1030h-1121z"/></defs></g></g></g><g><defs><circle id="hd" cx="-750.6" cy="-88.5" r="50.5"/></defs><clipPath id="he"><use xlink:href="#hd" overflow="visible"/></clipPath><g clip-path="url(#he)"><defs><path id="hf" d="M-925.1-824.5h1121v1030h-1121z"/></defs></g></g><g><defs><circle id="hg" cx="-750.6" cy="-88.5" r="43.5"/></defs><clipPath id="hh"><use xlink:href="#hg" overflow="visible"/></clipPath><g clip-path="url(#hh)"><defs><path id="hi" d="M-925.1-824.5h1121v1030h-1121z"/></defs></g></g><g><defs><path id="hj" d="M-757.1-112.5h-1.7l.2 1.6 3.1 32 .1 1.4h11.4l.1-1.4 2.3-32 .1-1.6h-15.6zm0 3h14l-1.5-1.6-2.3 32 1.5-1.4h-8.6l1.5 1.4-3.1-32-1.5 1.6zm-21.6-23h57.3v75h-57.3v-75z"/></defs><clipPath id="hk"><use xlink:href="#hj" overflow="visible"/></clipPath><g clip-path="url(#hk)"><defs><path id="hl" d="M-757.1-111h14l-2.3 32h-8.5z"/></defs><clipPath id="hm"><use xlink:href="#hl" overflow="visible"/></clipPath><g clip-path="url(#hm)"><defs><path id="hn" d="M-925.1-824.5h1121v1030h-1121z"/></defs></g></g></g><g><defs><path id="ho" d="M-757.1-110.7h14l-2.3 32h-8.5z"/></defs><clipPath id="hp"><use xlink:href="#ho" overflow="visible"/></clipPath><g clip-path="url(#hp)"><defs><path id="hq" d="M-925.1-824.2h1121v1030h-1121z"/></defs></g></g><g><defs><path id="hr" d="M-749.6-65.5c-2.2 0-4-1.8-4-4s1.8-4 4-4 4 1.8 4 4-1.8 4-4 4zm0 3c3.9 0 7-3.1 7-7s-3.1-7-7-7-7 3.1-7 7 3.2 7 7 7zm-27-34h54v54h-54v-54z"/></defs><clipPath id="hs"><use xlink:href="#hr" overflow="visible"/></clipPath><g clip-path="url(#hs)"><defs><circle id="ht" cx="-749.6" cy="-69.5" r="5.5"/></defs><clipPath id="hu"><use xlink:href="#ht" overflow="visible"/></clipPath><g clip-path="url(#hu)"><defs><path id="hv" d="M-925.1-824.5h1121v1030h-1121z"/></defs></g></g></g><g><defs><circle id="hw" cx="-749.6" cy="-69.2" r="5.5"/></defs><clipPath id="hx"><use xlink:href="#hw" overflow="visible"/></clipPath><g clip-path="url(#hx)"><defs><path id="hy" d="M-925.1-824.2h1121v1030h-1121z"/></defs></g></g><g><defs><path id="hz" d="M69.1-132h-1.5v90h134v-90H69.1zm0 3h131l-1.5-1.5v87l1.5-1.5h-131l1.5 1.5v-87l-1.5 1.5zm-21.5-23h174v130h-174v-130z"/></defs><clipPath id="hA"><use xlink:href="#hz" overflow="visible"/></clipPath><g clip-path="url(#hA)"><defs><path id="hB" d="M69.1-130.5h131v87h-131z"/></defs><clipPath id="hC"><use xlink:href="#hB" overflow="visible"/></clipPath><g clip-path="url(#hC)"><defs><path id="hD" d="M-806.9-831.5h1121v1030h-1121z"/></defs></g></g></g><g><defs><path id="hE" d="M69.1-130.5h131v87h-131z"/></defs><clipPath id="hF"><use xlink:href="#hE" overflow="visible"/></clipPath><g clip-path="url(#hF)"><defs><path id="hG" d="M-806.9-831.5h1121v1030h-1121z"/></defs></g></g><g><defs><path id="hH" d="M173.1-123h-1.5v23h21v-23h-19.5zm0 3h18l-1.5-1.5v20l1.5-1.5h-18l1.5 1.5v-20l-1.5 1.5zm-21.5-23h61v63h-61v-63z"/></defs><clipPath id="hI"><use xlink:href="#hH" overflow="visible"/></clipPath><g clip-path="url(#hI)"><defs><path id="hJ" d="M173.1-121.5h18v20h-18z"/></defs><clipPath id="hK"><use xlink:href="#hJ" overflow="visible"/></clipPath><g clip-path="url(#hK)"><defs><path id="hL" d="M-806.9-831.5h1121v1030h-1121z"/></defs></g></g></g><g><defs><path id="hM" d="M173.1-121.5h18v20h-18z"/></defs><clipPath id="hN"><use xlink:href="#hM" overflow="visible"/></clipPath><g clip-path="url(#hN)"><defs><path id="hO" d="M-806.9-831.5h1121v1030h-1121z"/></defs></g></g><g><defs><path id="hP" d="M178.1-118h-1.5v13h11v-13h-9.5zm0 3h8l-1.5-1.5v10l1.5-1.5h-8l1.5 1.5v-10l-1.5 1.5zm-21.5-23h51v53h-51v-53z"/></defs><clipPath id="hQ"><use xlink:href="#hP" overflow="visible"/></clipPath><g clip-path="url(#hQ)"><defs><path id="hR" d="M178.1-116.5h8v10h-8z"/></defs><clipPath id="hS"><use xlink:href="#hR" overflow="visible"/></clipPath><g clip-path="url(#hS)"><defs><path id="hT" d="M-806.9-831.5h1121v1030h-1121z"/></defs></g></g></g><g><defs><path id="hU" d="M178.1-116.5h8v10h-8z"/></defs><clipPath id="hV"><use xlink:href="#hU" overflow="visible"/></clipPath><g clip-path="url(#hV)"><defs><path id="hW" d="M-806.9-831.5h1121v1030h-1121z"/></defs></g></g><g><defs><path id="hX" d="M-729.9 54.2l.2 3c8.3-.7 15.9-2.1 21.4-3.8 2.5-.7 4.4-1.5 5.5-2.2 1.8-1.1 2.5-3 .4-4.1-8.1-4.3-23.9-7.1-41.3-7.1-17.2 0-32.8 2.7-41 6.9-1.8.9-1.5 2.7 0 3.9.9.7 2.4 1.4 4.4 2.1 4.3 1.5 10.5 2.8 17.5 3.7l.3-3c-21.2-2.3-35.5-8.1-35.5-13.8 0-7.7 24.7-14.8 55-14.8s55 7.1 55 14.8c-.1 6.4-17.6 12.7-41.9 14.4zm.2 3c26-1.8 44.7-8.5 44.7-17.4 0-10.3-25.9-17.8-58-17.8s-58 7.5-58 17.8c0 8.1 15.4 14.4 38.2 16.8l.3-3c-6.9-.9-12.9-2.2-16.9-3.6-1.7-.6-3-1.2-3.6-1.6-.1-.1-.1-.1-.2-.1 0 .1.1.2.1.3.1.5-.2.8-.4.9 7.7-4 22.9-6.6 39.7-6.6 17 0 32.3 2.6 39.9 6.7-.1 0-.2-.1-.3-.3-.1-.3-.2-.6-.1-.9 0-.1.1-.2.1-.2-.1.1-.2.2-.4.3-.9.5-2.5 1.2-4.8 1.9-5.2 1.6-12.6 2.9-20.8 3.6l.5 3.2zM-821.1 2h156v75.2h-156V2z"/></defs><clipPath id="hY"><use xlink:href="#hX" overflow="visible"/></clipPath><g clip-path="url(#hY)"><defs><path id="hZ" d="M-729.8 55.7c24.8-1.7 43.3-8.2 43.3-15.9 0-9-25.3-16.3-56.5-16.3s-56.5 7.3-56.5 16.3c0 7 15.3 13 36.9 15.3-14.9-1.9-24-5.5-21.4-6.9 7.8-4 22.9-6.8 40.4-6.8 17.6 0 32.9 2.8 40.6 6.9 2.6 1.5-9 5.8-26.8 7.4z"/></defs><clipPath id="ia"><use xlink:href="#hZ" overflow="visible"/></clipPath><g clip-path="url(#ia)"><defs><path id="ib" d="M-917.6-843h1121V187h-1121z"/></defs></g></g></g><g><defs><path id="ic" d="M-729.8 55.7c24.8-1.7 43.3-8.2 43.3-15.9 0-9-25.3-16.3-56.5-16.3s-56.5 7.3-56.5 16.3c0 7 15.3 13 36.9 15.3-14.9-1.9-24-5.5-21.4-6.9 7.8-4 22.9-6.8 40.4-6.8 17.6 0 32.9 2.8 40.6 6.9 2.6 1.5-9 5.8-26.8 7.4z"/></defs><clipPath id="id"><use xlink:href="#ic" overflow="visible"/></clipPath><g clip-path="url(#id)"><defs><path id="ie" d="M-917.6-843h1121V187h-1121z"/></defs></g></g><g><defs><path id="if" d="M-743.1 76c-30.3 0-55-7.1-55-14.8v-22l-2.8.8c.3.6 1.1 1.4 2.4 2.4 2 1.6 4.9 3.2 8.6 4.7 10.5 4.1 26.3 6.6 48.5 6.6 19.8 0 34.5-2.6 44.8-7.1 3.7-1.6 6.5-3.3 8.6-5 1.3-1.1 2.1-1.9 2.5-2.5l-2.7-.9v23c.1 7.7-24.6 14.8-54.9 14.8zm0 3c32.1 0 58-7.5 58-17.8V33.5l-2.7 3.8c0 .1-.2.2-.4.4-.4.4-.9.9-1.6 1.4-1.9 1.5-4.5 3.1-8 4.6-9.9 4.3-24.2 6.8-43.6 6.8-21.8 0-37.3-2.4-47.4-6.4-3.5-1.4-6.1-2.8-7.9-4.2-1-.8-1.5-1.4-1.7-1.6l-2.8-4.5v27.3c.1 10.4 26 17.9 58.1 17.9zm-78-65.5h156V99h-156V13.5z"/></defs><clipPath id="ig"><use xlink:href="#if" overflow="visible"/></clipPath><g clip-path="url(#ig)"><defs><path id="ih" d="M-743.1 77.5c31.2 0 56.5-7.3 56.5-16.3v-23s-9.9 13.9-54.8 13.9c-50.2 0-58.2-13-58.2-13v22c0 9.1 25.3 16.4 56.5 16.4z"/></defs><clipPath id="ii"><use xlink:href="#ih" overflow="visible"/></clipPath><g clip-path="url(#ii)"><defs><path id="ij" d="M-917.6-843h1121V187h-1121z"/></defs></g></g></g><g><defs><path id="ik" d="M-743.1 77.5c31.2 0 56.5-7.3 56.5-16.3v-23s-9.9 13.9-54.8 13.9c-50.2 0-58.2-13-58.2-13v22c0 9.1 25.3 16.4 56.5 16.4z"/></defs><clipPath id="il"><use xlink:href="#ik" overflow="visible"/></clipPath><g clip-path="url(#il)"><defs><path id="im" d="M-917.6-843h1121V187h-1121z"/></defs></g></g><g><defs><path id="in" d="M-738.5 112c-8.5 0-15.5-6.9-15.5-15.4s6.9-15.4 15.5-15.4c8.5 0 15.4 6.9 15.4 15.4S-730 112-738.5 112zm0 3c10.2 0 18.4-8.2 18.4-18.4s-8.3-18.4-18.4-18.4-18.5 8.3-18.5 18.4 8.3 18.4 18.5 18.4zM-777 58.2h76.9V135H-777V58.2z"/></defs><clipPath id="io"><use xlink:href="#in" overflow="visible"/></clipPath><g clip-path="url(#io)"><defs><ellipse id="ip" cx="-738.5" cy="96.6" rx="17" ry="16.9"/></defs><clipPath id="iq"><use xlink:href="#ip" overflow="visible"/></clipPath><g clip-path="url(#iq)"><defs><path id="ir" d="M-917.6-843h1121V187h-1121z"/></defs></g></g></g><g><defs><ellipse id="is" cx="-738.5" cy="96.6" rx="17" ry="16.9"/></defs><clipPath id="it"><use xlink:href="#is" overflow="visible"/></clipPath><g clip-path="url(#it)"><defs><path id="iu" d="M-917.6-843h1121V187h-1121z"/></defs></g></g><g><defs><path id="iv" d="M391.5-303.6h93v117h-93z"/></defs><clipPath id="iw"><use xlink:href="#iv" overflow="visible"/></clipPath><g clip-path="url(#iw)"><defs><path id="ix" d="M.5-973.1h1121v1030H.5z"/></defs></g></g><g><defs><path id="iy" d="M391.5-303.6h93v117h-93z"/></defs><clipPath id="iz"><use xlink:href="#iy" overflow="visible"/></clipPath><g clip-path="url(#iz)"><defs><path id="iA" d="M.5-973.1h1121v1030H.5z"/></defs></g></g><g><defs><path id="iB" d="M398.5-298.1H397v23h82v-23h-80.5zm0 3h79l-1.5-1.5v20l1.5-1.5h-79l1.5 1.5v-20l-1.5 1.5z"/></defs><clipPath id="iC"><use xlink:href="#iB" overflow="visible"/></clipPath><g clip-path="url(#iC)"><defs><path id="iD" d="M398.5-296.6h79v20h-79z"/></defs><clipPath id="iE"><use xlink:href="#iD" overflow="visible"/></clipPath><g clip-path="url(#iE)"><defs><path id="iF" d="M.5-973.1h1121v1030H.5z"/></defs></g></g></g><g><defs><path id="iG" d="M398.5-296.6h79v20h-79z"/></defs><clipPath id="iH"><use xlink:href="#iG" overflow="visible"/></clipPath><g clip-path="url(#iH)"><defs><path id="iI" d="M.5-973.1h1121v1030H.5z"/></defs></g></g><g><defs><path id="iJ" d="M398.5-274.1H397v81h82v-81h-80.5zm0 3h79l-1.5-1.5v78l1.5-1.5h-79l1.5 1.5v-78l-1.5 1.5zm-21.5-23h122v121H377v-121z"/></defs><clipPath id="iK"><use xlink:href="#iJ" overflow="visible"/></clipPath><g clip-path="url(#iK)"><defs><path id="iL" d="M398.5-272.6h79v78h-79z"/></defs><clipPath id="iM"><use xlink:href="#iL" overflow="visible"/></clipPath><g clip-path="url(#iM)"><defs><path id="iN" d="M.5-973.1h1121v1030H.5z"/></defs></g></g></g><g><defs><path id="iO" d="M398.5-272.6h79v78h-79z"/></defs><clipPath id="iP"><use xlink:href="#iO" overflow="visible"/></clipPath><g clip-path="url(#iP)"><defs><path id="iQ" d="M.5-973.1h1121v1030H.5z"/></defs></g></g><g><defs><path id="iR" d="M391.5-148H390v120h96v-120h-94.5zm0 3h93l-1.5-1.5v117l1.5-1.5h-93l1.5 1.5v-117l-1.5 1.5zM370-168h136V-8H370v-160z"/></defs><clipPath id="iS"><use xlink:href="#iR" overflow="visible"/></clipPath><g clip-path="url(#iS)"><defs><path id="iT" d="M391.5-146.5h93v117h-93z"/></defs><clipPath id="iU"><use xlink:href="#iT" overflow="visible"/></clipPath><g clip-path="url(#iU)"><defs><path id="iV" d="M-255.5-832h1121V198h-1121z"/></defs></g></g></g><g><defs><path id="iW" d="M391.5-146.5h93v117h-93z"/></defs><clipPath id="iX"><use xlink:href="#iW" overflow="visible"/></clipPath><g clip-path="url(#iX)"><defs><path id="iY" d="M-255.5-832h1121V198h-1121z"/></defs></g></g><g><defs><path id="iZ" d="M398.5-141H397v23h82v-23h-80.5zm0 3h79l-1.5-1.5v20l1.5-1.5h-79l1.5 1.5v-20l-1.5 1.5zM377-161h122v63H377v-63z"/></defs><clipPath id="ja"><use xlink:href="#iZ" overflow="visible"/></clipPath><g clip-path="url(#ja)"><defs><path id="jb" d="M398.5-139.5h79v20h-79z"/></defs><clipPath id="jc"><use xlink:href="#jb" overflow="visible"/></clipPath><g clip-path="url(#jc)"><defs><path id="jd" d="M-255.5-832h1121V198h-1121z"/></defs></g></g></g><g><defs><path id="je" d="M398.5-139.5h79v20h-79z"/></defs><clipPath id="jf"><use xlink:href="#je" overflow="visible"/></clipPath><g clip-path="url(#jf)"><defs><path id="jg" d="M-255.5-832h1121V198h-1121z"/></defs></g></g><g><defs><path id="jh" d="M398.5-117H397v81h82v-81h-80.5zm0 3h79l-1.5-1.5v78l1.5-1.5h-79l1.5 1.5v-78l-1.5 1.5zM377-137h122v121H377v-121z"/></defs><clipPath id="ji"><use xlink:href="#jh" overflow="visible"/></clipPath><g clip-path="url(#ji)"><defs><path id="jj" d="M398.5-115.5h79v78h-79z"/></defs><clipPath id="jk"><use xlink:href="#jj" overflow="visible"/></clipPath><g clip-path="url(#jk)"><defs><path id="jl" d="M-255.5-832h1121V198h-1121z"/></defs></g></g></g><g><defs><path id="jm" d="M398.5-115.5h79v78h-79z"/></defs><clipPath id="jn"><use xlink:href="#jm" overflow="visible"/></clipPath><g clip-path="url(#jn)"><defs><path id="jo" d="M-255.5-832h1121V198h-1121z"/></defs></g></g><circle fill="none" stroke="#0C1F2E" stroke-width="3" stroke-linecap="round" stroke-miterlimit="10" cx="92.9" cy="88.6" r="20.2"/><circle fill="#FFF" stroke="#0C1F2E" stroke-width="3" stroke-linecap="round" stroke-miterlimit="10" cx="92.9" cy="88.6" r="11"/><circle fill="#FFF" stroke="#0C1F2E" stroke-width="3" stroke-linecap="round" stroke-miterlimit="10" cx="183.1" cy="88.6" r="11"/><circle fill="none" stroke="#0C1F2E" stroke-width="3" stroke-linecap="round" stroke-miterlimit="10" cx="183.1" cy="88.6" r="20.2"/><path fill="none" stroke="#0C1F2E" stroke-width="3" stroke-linecap="round" stroke-miterlimit="10" d="M183.1 88.6l-26.2-52.3h-12.8"/><path fill="none" stroke="#0C1F2E" stroke-width="3" stroke-linecap="round" stroke-miterlimit="10" d="M166.8 60h-53.7L92.9 88.6h37.6l38-29.2M106.4 47.8l24.1 40.8M100.6 47.8h19.7"/><g><defs><path id="jp" d="M143.1 432.9c-27.1 0-49-21.9-49-49s21.9-49 49-49 49 21.9 49 49-21.9 49-49 49zm0 3c28.7 0 52-23.3 52-52s-23.3-52-52-52-52 23.3-52 52 23.3 52 52 52zm-72-124h144v144h-144v-144z"/></defs><clipPath id="jq"><use xlink:href="#jp" overflow="visible"/></clipPath><g clip-path="url(#jq)"><defs><circle id="jr" cx="143.1" cy="383.9" r="50.5"/></defs><clipPath id="js"><use xlink:href="#jr" overflow="visible"/></clipPath><g clip-path="url(#js)"><defs><path id="jt" d="M-31.4-352.1h1121v1030h-1121z"/></defs></g></g></g><g><defs><circle id="ju" cx="143.1" cy="383.9" r="50.5"/></defs><clipPath id="jv"><use xlink:href="#ju" overflow="visible"/></clipPath><g clip-path="url(#jv)"><defs><path id="jw" d="M-31.4-352.1h1121v1030h-1121z"/></defs></g></g><g><defs><circle id="jx" cx="143.1" cy="383.9" r="43.5"/></defs><clipPath id="jy"><use xlink:href="#jx" overflow="visible"/></clipPath><g clip-path="url(#jy)"><defs><path id="jz" d="M-31.4-352.1h1121v1030h-1121z"/></defs></g></g><g><defs><path id="jA" d="M-454 585.3c-27.1 0-49-21.9-49-49s21.9-49 49-49 49 21.9 49 49c0 27-21.9 49-49 49zm0 3c28.7 0 52-23.3 52-52s-23.3-52-52-52-52 23.3-52 52 23.3 52 52 52zm-72-124h144v144h-144v-144z"/></defs><clipPath id="jB"><use xlink:href="#jA" overflow="visible"/></clipPath><g clip-path="url(#jB)"><defs><circle id="jC" cx="-454" cy="536.3" r="50.5"/></defs><clipPath id="jD"><use xlink:href="#jC" overflow="visible"/></clipPath><g clip-path="url(#jD)"><defs><path id="jE" d="M-628.5-199.7h1121v1030h-1121z"/></defs></g></g></g><g><defs><circle id="jF" cx="-454" cy="536.3" r="50.5"/></defs><clipPath id="jG"><use xlink:href="#jF" overflow="visible"/></clipPath><g clip-path="url(#jG)"><defs><path id="jH" d="M-628.5-199.7h1121v1030h-1121z"/></defs></g></g><g><defs><circle id="jI" cx="-454" cy="536.3" r="43.5"/></defs><clipPath id="jJ"><use xlink:href="#jI" overflow="visible"/></clipPath><g clip-path="url(#jJ)"><defs><path id="jK" d="M-628.5-199.7h1121v1030h-1121z"/></defs></g></g><g><defs><path id="jL" d="M-453.3 752.5c-24.6 0-44.6-20-44.6-44.6s20-44.6 44.6-44.6 44.6 20 44.6 44.6-20 44.6-44.6 44.6zm0 2.7c26.1 0 47.3-21.2 47.3-47.3 0-26.1-21.2-47.3-47.3-47.3s-47.3 21.2-47.3 47.3c0 26.1 21.2 47.3 47.3 47.3zm-65.5-112.8h131v131h-131v-131z"/></defs><clipPath id="jM"><use xlink:href="#jL" overflow="visible"/></clipPath><g clip-path="url(#jM)"><defs><circle id="jN" cx="-453.3" cy="707.9" r="45.9"/></defs><clipPath id="jO"><use xlink:href="#jN" overflow="visible"/></clipPath><g clip-path="url(#jO)"><defs><path id="jP" d="M-612 38.3H407.8v937H-612z"/></defs></g></g></g><g><defs><circle id="jQ" cx="-453.3" cy="707.9" r="45.9"/></defs><clipPath id="jR"><use xlink:href="#jQ" overflow="visible"/></clipPath><g clip-path="url(#jR)"><defs><path id="jS" d="M-612 38.3H407.8v937H-612z"/></defs></g></g><g><defs><circle id="jT" cx="-453.3" cy="707.9" r="39.6"/></defs><clipPath id="jU"><use xlink:href="#jT" overflow="visible"/></clipPath><g clip-path="url(#jU)"><defs><path id="jV" d="M-612 38.3H407.8v937H-612z"/></defs></g></g></svg>