<svg xmlns="http://www.w3.org/2000/svg" xmlns:xlink="http://www.w3.org/1999/xlink" viewBox="0 0 276 137"><defs><path id="a" d="M83.4-134.3h-1.5v84h108v-84H83.4zm0 3h105l-1.5-1.5v81l1.5-1.5h-105l1.5 1.5v-81l-1.5 1.5zm-21.5-23h148v124h-148v-124z"/></defs><clipPath id="b"><use xlink:href="#a" overflow="visible"/></clipPath><g clip-path="url(#b)"><defs><path id="c" d="M83.4-132.8h105v81h-105z"/></defs></g><defs><path id="d" d="M83.4-132.8h105v81h-105z"/></defs><defs><path id="e" d="M77.4-117.3h-2.2l.9-2.1 9.1-22 .4-.9h100.9l.4.9 9.1 22 .9 2.1H77.4zm0-3h117l-1.4 2.1-9.1-22 1.4.9H86.5l1.4-.9-9.1 22-1.4-2.1zm-22.3 23h161.5v-65H55.1v65z"/></defs><clipPath id="f"><use xlink:href="#e" overflow="visible"/></clipPath><g clip-path="url(#f)"><defs><path id="g" d="M77.4-118.8h117l-9.1-22H86.5z"/></defs></g><defs><path id="h" d="M77.4-118.8h117l-9.1-22H86.5z"/></defs><defs><path id="i" d="M162.4-150.3h-1.5v19h15v-19h-13.5zm0 3h12l-1.5-1.5v16l1.5-1.5h-12l1.5 1.5v-16l-1.5 1.5zm-21.5-23h55v59h-55v-59z"/></defs><clipPath id="j"><use xlink:href="#i" overflow="visible"/></clipPath><g clip-path="url(#j)"><defs><path id="k" d="M162.4-148.8h12v16h-12z"/></defs></g><defs><path id="l" d="M162.4-148.8h12v16h-12z"/></defs><defs><path id="m" d="M96.4-84.3h-1.5v34h24v-34H96.4zm0 3h21l-1.5-1.5v31l1.5-1.5h-21l1.5 1.5v-31l-1.5 1.5zm-21.5-23h64v74h-64v-74z"/></defs><clipPath id="n"><use xlink:href="#m" overflow="visible"/></clipPath><g clip-path="url(#n)"><defs><path id="o" d="M96.4-82.8h21v31h-21z"/></defs></g><defs><path id="p" d="M96.4-82.8h21v31h-21z"/></defs><defs><path id="q" d="M97.4-112.3h-1.5v22h22v-22H97.4zm0 3h19l-1.5-1.5v19l1.5-1.5h-19l1.5 1.5v-19l-1.5 1.5zm-21.5-23h62v62h-62v-62z"/></defs><clipPath id="r"><use xlink:href="#q" overflow="visible"/></clipPath><g clip-path="url(#r)"><defs><path id="s" d="M97.4-110.8h19v19h-19z"/></defs></g><defs><path id="t" d="M97.4-110.8h19v19h-19z"/></defs><defs><path id="u" d="M102.4-107.3h-1.5v12h12v-12h-10.5zm0 3h9l-1.5-1.5v9l1.5-1.5h-9l1.5 1.5v-9l-1.5 1.5zm-21.5-23h52v52h-52v-52z"/></defs><clipPath id="v"><use xlink:href="#u" overflow="visible"/></clipPath><g clip-path="url(#v)"><defs><path id="w" d="M102.4-105.8h9v9h-9z"/></defs></g><defs><path id="x" d="M102.4-105.8h9v9h-9z"/></defs><defs><path id="y" d="M127.4-112.3h-1.5v22h22v-22h-20.5zm0 3h19l-1.5-1.5v19l1.5-1.5h-19l1.5 1.5v-19l-1.5 1.5zm-21.5-23h62v62h-62v-62z"/></defs><clipPath id="z"><use xlink:href="#y" overflow="visible"/></clipPath><g clip-path="url(#z)"><defs><path id="A" d="M127.4-110.8h19v19h-19z"/></defs></g><defs><path id="B" d="M127.4-110.8h19v19h-19z"/></defs><defs><path id="C" d="M156.4-112.3h-1.5v22h22v-22h-20.5zm0 3h19l-1.5-1.5v19l1.5-1.5h-19l1.5 1.5v-19l-1.5 1.5zm-21.5-23h62v62h-62v-62z"/></defs><clipPath id="D"><use xlink:href="#C" overflow="visible"/></clipPath><g clip-path="url(#D)"><defs><path id="E" d="M156.4-110.8h19v19h-19z"/></defs></g><defs><path id="F" d="M156.4-110.8h19v19h-19z"/></defs><defs><path id="G" d="M127.4-84.3h-1.5v22h22v-22h-20.5zm0 3h19l-1.5-1.5v19l1.5-1.5h-19l1.5 1.5v-19l-1.5 1.5zm-21.5-23h62v62h-62v-62z"/></defs><clipPath id="H"><use xlink:href="#G" overflow="visible"/></clipPath><g clip-path="url(#H)"><defs><path id="I" d="M127.4-82.8h19v19h-19z"/></defs></g><defs><path id="J" d="M127.4-82.8h19v19h-19z"/></defs><defs><path id="K" d="M156.4-84.3h-1.5v22h22v-22h-20.5zm0 3h19l-1.5-1.5v19l1.5-1.5h-19l1.5 1.5v-19l-1.5 1.5zm-21.5-23h62v62h-62v-62z"/></defs><clipPath id="L"><use xlink:href="#K" overflow="visible"/></clipPath><g clip-path="url(#L)"><defs><path id="M" d="M156.4-82.8h19v19h-19z"/></defs></g><defs><path id="N" d="M156.4-82.8h19v19h-19z"/></defs><defs><path id="O" d="M132.4-107.3h-1.5v12h12v-12h-10.5zm0 3h9l-1.5-1.5v9l1.5-1.5h-9l1.5 1.5v-9l-1.5 1.5zm-21.5-23h52v52h-52v-52z"/></defs><clipPath id="P"><use xlink:href="#O" overflow="visible"/></clipPath><g clip-path="url(#P)"><defs><path id="Q" d="M132.4-105.8h9v9h-9z"/></defs></g><defs><path id="R" d="M132.4-105.8h9v9h-9z"/></defs><defs><path id="S" d="M161.4-107.3h-1.5v12h12v-12h-10.5zm0 3h9l-1.5-1.5v9l1.5-1.5h-9l1.5 1.5v-9l-1.5 1.5zm-21.5-23h52v52h-52v-52z"/></defs><clipPath id="T"><use xlink:href="#S" overflow="visible"/></clipPath><g clip-path="url(#T)"><defs><path id="U" d="M161.4-105.8h9v9h-9z"/></defs></g><defs><path id="V" d="M161.4-105.8h9v9h-9z"/></defs><defs><path id="W" d="M132.4-79.3h-1.5v12h12v-12h-10.5zm0 3h9l-1.5-1.5v9l1.5-1.5h-9l1.5 1.5v-9l-1.5 1.5zm-21.5-23h52v52h-52v-52z"/></defs><clipPath id="X"><use xlink:href="#W" overflow="visible"/></clipPath><g clip-path="url(#X)"><defs><path id="Y" d="M132.4-77.8h9v9h-9z"/></defs></g><defs><path id="Z" d="M132.4-77.8h9v9h-9z"/></defs><defs><path id="aa" d="M161.4-79.3h-1.5v12h12v-12h-10.5zm0 3h9l-1.5-1.5v9l1.5-1.5h-9l1.5 1.5v-9l-1.5 1.5zm-21.5-23h52v52h-52v-52z"/></defs><clipPath id="ab"><use xlink:href="#aa" overflow="visible"/></clipPath><g clip-path="url(#ab)"><defs><path id="ac" d="M161.4-77.8h9v9h-9z"/></defs></g><defs><path id="ad" d="M161.4-77.8h9v9h-9z"/></defs><defs><path id="ae" d="M683.4-451.3h-1.5v84h108v-84H683.4zm0 3h105l-1.5-1.5v81l1.5-1.5h-105l1.5 1.5v-81l-1.5 1.5zm-21.5-23h148v124h-148v-124z"/></defs><clipPath id="af"><use xlink:href="#ae" overflow="visible"/></clipPath><g clip-path="url(#af)"><defs><path id="ag" d="M683.4-449.8h105v81h-105z"/></defs></g><defs><path id="ah" d="M683.4-449.8h105v81h-105z"/></defs><defs><path id="ai" d="M677.4-434.3h-2.2l.9-2.1 9.1-22 .4-.9h100.9l.4.9 9.1 22 .9 2.1H677.4zm0-3h117l-1.4 2.1-9.1-22 1.4.9h-98.9l1.4-.9-9.1 22-1.3-2.1zm-22.3 23h161.5v-65H655.1v65z"/></defs><clipPath id="aj"><use xlink:href="#ai" overflow="visible"/></clipPath><g clip-path="url(#aj)"><defs><path id="ak" d="M677.4-435.8h117l-9.1-22h-98.8z"/></defs></g><defs><path id="al" d="M677.4-435.8h117l-9.1-22h-98.8z"/></defs><defs><path id="am" d="M762.4-467.3h-1.5v19h15v-19h-13.5zm0 3h12l-1.5-1.5v16l1.5-1.5h-12l1.5 1.5v-16l-1.5 1.5zm-21.5-23h55v59h-55v-59z"/></defs><clipPath id="an"><use xlink:href="#am" overflow="visible"/></clipPath><g clip-path="url(#an)"><defs><path id="ao" d="M762.4-465.8h12v16h-12z"/></defs></g><defs><path id="ap" d="M762.4-465.8h12v16h-12z"/></defs><defs><path id="aq" d="M696.4-401.3h-1.5v34h24v-34h-22.5zm0 3h21l-1.5-1.5v31l1.5-1.5h-21l1.5 1.5v-31l-1.5 1.5zm-21.5-23h64v74h-64v-74z"/></defs><clipPath id="ar"><use xlink:href="#aq" overflow="visible"/></clipPath><g clip-path="url(#ar)"><defs><path id="as" d="M696.4-399.8h21v31h-21z"/></defs></g><defs><path id="at" d="M696.4-399.8h21v31h-21z"/></defs><defs><path id="au" d="M697.4-429.3h-1.5v22h22v-22h-20.5zm0 3h19l-1.5-1.5v19l1.5-1.5h-19l1.5 1.5v-19l-1.5 1.5zm-21.5-23h62v62h-62v-62z"/></defs><clipPath id="av"><use xlink:href="#au" overflow="visible"/></clipPath><g clip-path="url(#av)"><defs><path id="aw" d="M697.4-427.8h19v19h-19z"/></defs></g><defs><path id="ax" d="M697.4-427.8h19v19h-19z"/></defs><defs><path id="ay" d="M702.4-424.3h-1.5v12h12v-12h-10.5zm0 3h9l-1.5-1.5v9l1.5-1.5h-9l1.5 1.5v-9l-1.5 1.5zm-21.5-23h52v52h-52v-52z"/></defs><clipPath id="az"><use xlink:href="#ay" overflow="visible"/></clipPath><g clip-path="url(#az)"><defs><path id="aA" d="M702.4-422.8h9v9h-9z"/></defs></g><defs><path id="aB" d="M702.4-422.8h9v9h-9z"/></defs><defs><path id="aC" d="M727.4-429.3h-1.5v22h22v-22h-20.5zm0 3h19l-1.5-1.5v19l1.5-1.5h-19l1.5 1.5v-19l-1.5 1.5zm-21.5-23h62v62h-62v-62z"/></defs><clipPath id="aD"><use xlink:href="#aC" overflow="visible"/></clipPath><g clip-path="url(#aD)"><defs><path id="aE" d="M727.4-427.8h19v19h-19z"/></defs></g><defs><path id="aF" d="M727.4-427.8h19v19h-19z"/></defs><defs><path id="aG" d="M756.4-429.3h-1.5v22h22v-22h-20.5zm0 3h19l-1.5-1.5v19l1.5-1.5h-19l1.5 1.5v-19l-1.5 1.5zm-21.5-23h62v62h-62v-62z"/></defs><clipPath id="aH"><use xlink:href="#aG" overflow="visible"/></clipPath><g clip-path="url(#aH)"><defs><path id="aI" d="M756.4-427.8h19v19h-19z"/></defs></g><defs><path id="aJ" d="M756.4-427.8h19v19h-19z"/></defs><defs><path id="aK" d="M727.4-401.3h-1.5v22h22v-22h-20.5zm0 3h19l-1.5-1.5v19l1.5-1.5h-19l1.5 1.5v-19l-1.5 1.5zm-21.5-23h62v62h-62v-62z"/></defs><clipPath id="aL"><use xlink:href="#aK" overflow="visible"/></clipPath><g clip-path="url(#aL)"><defs><path id="aM" d="M727.4-399.8h19v19h-19z"/></defs></g><defs><path id="aN" d="M727.4-399.8h19v19h-19z"/></defs><defs><path id="aO" d="M756.4-401.3h-1.5v22h22v-22h-20.5zm0 3h19l-1.5-1.5v19l1.5-1.5h-19l1.5 1.5v-19l-1.5 1.5zm-21.5-23h62v62h-62v-62z"/></defs><clipPath id="aP"><use xlink:href="#aO" overflow="visible"/></clipPath><g clip-path="url(#aP)"><defs><path id="aQ" d="M756.4-399.8h19v19h-19z"/></defs></g><defs><path id="aR" d="M756.4-399.8h19v19h-19z"/></defs><defs><path id="aS" d="M732.4-424.3h-1.5v12h12v-12h-10.5zm0 3h9l-1.5-1.5v9l1.5-1.5h-9l1.5 1.5v-9l-1.5 1.5zm-21.5-23h52v52h-52v-52z"/></defs><clipPath id="aT"><use xlink:href="#aS" overflow="visible"/></clipPath><g clip-path="url(#aT)"><defs><path id="aU" d="M732.4-422.8h9v9h-9z"/></defs></g><defs><path id="aV" d="M732.4-422.8h9v9h-9z"/></defs><defs><path id="aW" d="M761.4-424.3h-1.5v12h12v-12h-10.5zm0 3h9l-1.5-1.5v9l1.5-1.5h-9l1.5 1.5v-9l-1.5 1.5zm-21.5-23h52v52h-52v-52z"/></defs><clipPath id="aX"><use xlink:href="#aW" overflow="visible"/></clipPath><g clip-path="url(#aX)"><defs><path id="aY" d="M761.4-422.8h9v9h-9z"/></defs></g><defs><path id="aZ" d="M761.4-422.8h9v9h-9z"/></defs><defs><path id="ba" d="M732.4-396.3h-1.5v12h12v-12h-10.5zm0 3h9l-1.5-1.5v9l1.5-1.5h-9l1.5 1.5v-9l-1.5 1.5zm-21.5-23h52v52h-52v-52z"/></defs><clipPath id="bb"><use xlink:href="#ba" overflow="visible"/></clipPath><g clip-path="url(#bb)"><defs><path id="bc" d="M732.4-394.8h9v9h-9z"/></defs></g><defs><path id="bd" d="M732.4-394.8h9v9h-9z"/></defs><defs><path id="be" d="M761.4-396.3h-1.5v12h12v-12h-10.5zm0 3h9l-1.5-1.5v9l1.5-1.5h-9l1.5 1.5v-9l-1.5 1.5zm-21.5-23h52v52h-52v-52z"/></defs><clipPath id="bf"><use xlink:href="#be" overflow="visible"/></clipPath><g clip-path="url(#bf)"><defs><path id="bg" d="M761.4-394.8h9v9h-9z"/></defs></g><defs><path id="bh" d="M761.4-394.8h9v9h-9z"/></defs><path fill="#FFF" d="M187.5 66.2c-1.4-21.2-21.6-38-46.3-38S96.3 45 94.9 66.2h92.6z"/><path fill="#0C1F2E" d="M189.1 67.8H93.2l.1-1.6c1.5-22.1 22.5-39.4 47.8-39.4s46.3 17.3 47.8 39.4l.2 1.6zm-92.6-3h89.3c-2.3-19.8-21.5-35-44.7-35S98.7 45 96.5 64.8z"/><path fill="#FFF" d="M175.5 60c-1.8-5.4-5.3-10.2-9.9-14"/><path fill="#0C1F2E" d="M175.5 61.5c-.6 0-1.2-.4-1.4-1-1.7-5.1-4.9-9.7-9.4-13.3-.6-.5-.7-1.5-.2-2.1s1.5-.7 2.1-.2c4.9 4 8.4 9.1 10.3 14.7.3.8-.2 1.6-.9 1.9h-.5z"/><path fill="#FFF" d="M156.9 40.8c-4.8-2.1-10.3-3.3-16-3.3-4.4 0-8.6.7-12.5 1.9"/><path fill="#0C1F2E" d="M156.9 42.3c-.2 0-.4 0-.6-.1-4.8-2.1-10-3.1-15.4-3.1-4.1 0-8.2.6-12 1.9-.8.3-1.6-.2-1.9-1-.3-.8.2-1.6 1-1.9 4.1-1.3 8.5-2 12.9-2 5.8 0 11.4 1.1 16.6 3.4.8.3 1.1 1.2.8 2-.3.4-.8.8-1.4.8z"/><path fill="#FFF" d="M118.8 44.1c-5.5 3.8-9.8 8.9-12.1 14.8"/><path fill="#0C1F2E" d="M106.7 60.4c-.2 0-.4 0-.5-.1-.8-.3-1.2-1.2-.9-1.9 2.4-6.2 6.7-11.5 12.6-15.5.7-.5 1.6-.3 2.1.4s.3 1.6-.4 2.1c-5.4 3.6-9.4 8.5-11.5 14.1-.2.5-.8.9-1.4.9z"/><path fill="#FFF" d="M161.7 59.8c-1.1-3.2-3.1-6.1-5.9-8.3"/><path fill="#0C1F2E" d="M161.7 61.3c-.6 0-1.2-.4-1.4-1-1-2.9-2.8-5.5-5.4-7.6-.6-.5-.7-1.5-.2-2.1.5-.6 1.5-.7 2.1-.2 3 2.5 5.2 5.6 6.3 9 .3.8-.2 1.6-.9 1.9h-.5z"/><path fill="#FFF" d="M150.6 48.3c-2.9-1.2-6.1-1.9-9.5-1.9-2.6 0-5.1.4-7.4 1.2"/><path fill="#0C1F2E" d="M150.6 49.8c-.2 0-.4 0-.6-.1-2.8-1.2-5.8-1.8-8.9-1.8-2.4 0-4.7.4-7 1.1-.8.3-1.6-.2-1.9-1-.3-.8.2-1.6 1-1.9 2.5-.8 5.2-1.2 7.9-1.2 3.6 0 7 .7 10.1 2.1.8.3 1.1 1.2.8 2-.3.5-.8.8-1.4.8z"/><path fill="#FFF" d="M127.9 50.3c-3.3 2.2-5.8 5.3-7.2 8.8"/><path fill="#0C1F2E" d="M120.7 60.6c-.2 0-.4 0-.5-.1-.8-.3-1.2-1.2-.9-1.9 1.5-3.8 4.1-7.1 7.8-9.5.7-.5 1.6-.3 2.1.4s.3 1.6-.4 2.1c-3.1 2.1-5.4 4.9-6.6 8.1-.3.5-.9.9-1.5.9z"/><path fill="#FFF" d="M136.1 66.7s-.9 12.3 8.3 12.3h8.2s6.4.4 6.4 7.1c0 0 .1 9.6 13.8 9.6 15.2 0 14.7-29.2 14.7-29.2l-51.4.2z"/><path fill="#0C1F2E" d="M172.8 97c-12 0-15.2-7.3-15.3-11.2 0-4.9-4.2-5.7-4.9-5.8h-8.1c-2.7 0-5-.9-6.7-2.7-3.6-3.9-3.2-10.6-3.2-10.9l.1-1.4 54.2-.2v1.5c0 .8.2 19.2-7.6 27.1-2.3 2.4-5.2 3.6-8.5 3.6zm-35.2-29c.1 1.9.5 5.2 2.4 7.3 1.1 1.2 2.6 1.8 4.5 1.8h8.3c2.7.3 7.7 2.5 7.7 8.8 0 .3.3 8.2 12.3 8.2 2.5 0 4.6-.9 6.4-2.8 5.8-5.9 6.6-19.1 6.7-23.5l-48.3.2z"/><path fill="#0C1F2E" d="M126.5 105.3l.6-2.6c0-.2 4.2-19.5-1.9-34.1-.3-.8 0-1.6.8-2 .8-.3 1.6 0 2 .8 5.2 12.4 3.5 27.4 2.6 33.3L161 90.2c.8-.3 1.6.1 1.9.9.3.8-.1 1.6-.9 1.9l-35.5 12.3z"/><circle fill="#0C1F2E" cx="128.6" cy="104.1" r="4.1"/><defs><path id="bi" d="M-225.5 184.5h-1.5v90h134v-90h-132.5zm0 3h131L-96 186v87l1.5-1.5h-131l1.5 1.5v-87l-1.5 1.5zm-21.5-23h174v130h-174v-130z"/></defs><clipPath id="bj"><use xlink:href="#bi" overflow="visible"/></clipPath><g clip-path="url(#bj)"><defs><path id="bk" d="M-225.5 186h131v87h-131z"/></defs></g><defs><path id="bl" d="M-225.5 186h131v87h-131z"/></defs><defs><path id="bm" d="M-220.5 189.5h-1.5v80h124v-80h-122.5zm0 3h121l-1.5-1.5v77l1.5-1.5h-121l1.5 1.5v-77l-1.5 1.5zm-21.5-23h164v120h-164v-120z"/></defs><clipPath id="bn"><use xlink:href="#bm" overflow="visible"/></clipPath><g clip-path="url(#bn)"><defs><path id="bo" d="M-220.5 191h121v77h-121z"/></defs></g><defs><path id="bp" d="M-220.5 191h121v77h-121z"/></defs><defs><path id="bq" d="M-155.5 204.5h-1.5v6h47v-6h-45.5zm0 3h44l-1.5-1.5v3l1.5-1.5h-44l1.5 1.5v-3l-1.5 1.5zm-21.5-23h87v46h-87v-46z"/></defs><clipPath id="br"><use xlink:href="#bq" overflow="visible"/></clipPath><g clip-path="url(#br)"><defs><path id="bs" d="M-155.5 206h44v3h-44z"/></defs></g><g><defs><path id="bt" d="M-155.5 206h44v3h-44z"/></defs></g><g><defs><path id="bu" d="M-155.5 210.5h-1.5v6h47v-6h-45.5zm0 3h44l-1.5-1.5v3l1.5-1.5h-44l1.5 1.5v-3l-1.5 1.5zm-21.5-23h87v46h-87v-46z"/></defs><clipPath id="bv"><use xlink:href="#bu" overflow="visible"/></clipPath><g clip-path="url(#bv)"><defs><path id="bw" d="M-155.5 212h44v3h-44z"/></defs></g></g><g><defs><path id="bx" d="M-155.5 212h44v3h-44z"/></defs></g><g><defs><path id="by" d="M-155.5 216.5h-1.5v6h47v-6h-45.5zm0 3h44l-1.5-1.5v3l1.5-1.5h-44l1.5 1.5v-3l-1.5 1.5zm-21.5-23h87v46h-87v-46z"/></defs><clipPath id="bz"><use xlink:href="#by" overflow="visible"/></clipPath><g clip-path="url(#bz)"><defs><path id="bA" d="M-155.5 218h44v3h-44z"/></defs></g></g><g><defs><path id="bB" d="M-155.5 218h44v3h-44z"/></defs></g><g><defs><path id="bC" d="M-155.5 222.5h-1.5v6h47v-6h-45.5zm0 3h44l-1.5-1.5v3l1.5-1.5h-44l1.5 1.5v-3l-1.5 1.5zm-21.5-23h87v46h-87v-46z"/></defs><clipPath id="bD"><use xlink:href="#bC" overflow="visible"/></clipPath><g clip-path="url(#bD)"><defs><path id="bE" d="M-155.5 224h44v3h-44z"/></defs></g></g><g><defs><path id="bF" d="M-155.5 224h44v3h-44z"/></defs></g><g><defs><path id="bG" d="M68.1 184.5h-1.5v90h134v-90H68.1zm0 3h131l-1.5-1.5v87l1.5-1.5h-131l1.5 1.5v-87l-1.5 1.5zm-21.5-23h174v130h-174v-130z"/></defs><clipPath id="bH"><use xlink:href="#bG" overflow="visible"/></clipPath><g clip-path="url(#bH)"><defs><path id="bI" d="M68.1 186h131v87h-131z"/></defs></g></g><g><defs><path id="bJ" d="M68.1 186h131v87h-131z"/></defs></g><g><defs><path id="bK" d="M73.1 189.5h-1.5v80h124v-80H73.1zm0 3h121l-1.5-1.5v77l1.5-1.5h-121l1.5 1.5v-77l-1.5 1.5zm-21.5-23h164v120h-164v-120z"/></defs><clipPath id="bL"><use xlink:href="#bK" overflow="visible"/></clipPath><g clip-path="url(#bL)"><defs><path id="bM" d="M73.1 191h121v77h-121z"/></defs></g></g><g><defs><path id="bN" d="M73.1 191h121v77h-121z"/></defs></g><g><defs><path id="bO" d="M138.1 204.5h-1.5v6h47v-6h-45.5zm0 3h44l-1.5-1.5v3l1.5-1.5h-44l1.5 1.5v-3l-1.5 1.5zm-21.5-23h87v46h-87v-46z"/></defs><clipPath id="bP"><use xlink:href="#bO" overflow="visible"/></clipPath><g clip-path="url(#bP)"><defs><path id="bQ" d="M138.1 206h44v3h-44z"/></defs></g></g><g><defs><path id="bR" d="M138.1 206h44v3h-44z"/></defs></g><g><defs><path id="bS" d="M138.1 210.5h-1.5v6h47v-6h-45.5zm0 3h44l-1.5-1.5v3l1.5-1.5h-44l1.5 1.5v-3l-1.5 1.5zm-21.5-23h87v46h-87v-46z"/></defs><clipPath id="bT"><use xlink:href="#bS" overflow="visible"/></clipPath><g clip-path="url(#bT)"><defs><path id="bU" d="M138.1 212h44v3h-44z"/></defs></g></g><g><defs><path id="bV" d="M138.1 212h44v3h-44z"/></defs></g><g><defs><path id="bW" d="M138.1 216.5h-1.5v6h47v-6h-45.5zm0 3h44l-1.5-1.5v3l1.5-1.5h-44l1.5 1.5v-3l-1.5 1.5zm-21.5-23h87v46h-87v-46z"/></defs><clipPath id="bX"><use xlink:href="#bW" overflow="visible"/></clipPath><g clip-path="url(#bX)"><defs><path id="bY" d="M138.1 218h44v3h-44z"/></defs></g></g><g><defs><path id="bZ" d="M138.1 218h44v3h-44z"/></defs></g><g><defs><path id="ca" d="M138.1 222.5h-1.5v6h47v-6h-45.5zm0 3h44l-1.5-1.5v3l1.5-1.5h-44l1.5 1.5v-3l-1.5 1.5zm-21.5-23h87v46h-87v-46z"/></defs><clipPath id="cb"><use xlink:href="#ca" overflow="visible"/></clipPath><g clip-path="url(#cb)"><defs><path id="cc" d="M138.1 224h44v3h-44z"/></defs></g></g><g><defs><path id="cd" d="M138.1 224h44v3h-44z"/></defs></g></svg>