<svg xmlns="http://www.w3.org/2000/svg" xmlns:xlink="http://www.w3.org/1999/xlink" viewBox="0 0 276 137"><defs><path id="a" d="M83.4-134.3h-1.5v84h108v-84H83.4zm0 3h105l-1.5-1.5v81l1.5-1.5h-105l1.5 1.5v-81l-1.5 1.5zm-21.5-23h148v124h-148v-124z"/></defs><clipPath id="b"><use xlink:href="#a" overflow="visible"/></clipPath><g clip-path="url(#b)"><defs><path id="c" d="M83.4-132.8h105v81h-105z"/></defs><clipPath id="d"><use xlink:href="#c" overflow="visible"/></clipPath><g clip-path="url(#d)"><defs><path id="e" d="M-797.6-631.8h1121v1030h-1121z"/></defs></g></g><defs><path id="f" d="M83.4-132.8h105v81h-105z"/></defs><clipPath id="g"><use xlink:href="#f" overflow="visible"/></clipPath><g clip-path="url(#g)"><defs><path id="h" d="M-797.6-631.8h1121v1030h-1121z"/></defs></g><defs><path id="i" d="M77.4-117.3h-2.2l.9-2.1 9.1-22 .4-.9h100.9l.4.9 9.1 22 .9 2.1H77.4zm0-3h117l-1.4 2.1-9.1-22 1.4.9H86.5l1.4-.9-9.1 22-1.4-2.1zm-22.3 23h161.5v-65H55.1v65z"/></defs><clipPath id="j"><use xlink:href="#i" overflow="visible"/></clipPath><g clip-path="url(#j)"><defs><path id="k" d="M77.4-118.8h117l-9.1-22H86.5z"/></defs><clipPath id="l"><use xlink:href="#k" overflow="visible"/></clipPath><g clip-path="url(#l)"><defs><path id="m" d="M-797.6-631.8h1121v1030h-1121z"/></defs></g></g><defs><path id="n" d="M77.4-118.8h117l-9.1-22H86.5z"/></defs><clipPath id="o"><use xlink:href="#n" overflow="visible"/></clipPath><g clip-path="url(#o)"><defs><path id="p" d="M-797.6-631.8h1121v1030h-1121z"/></defs></g><defs><path id="q" d="M162.4-150.3h-1.5v19h15v-19h-13.5zm0 3h12l-1.5-1.5v16l1.5-1.5h-12l1.5 1.5v-16l-1.5 1.5zm-21.5-23h55v59h-55v-59z"/></defs><clipPath id="r"><use xlink:href="#q" overflow="visible"/></clipPath><g clip-path="url(#r)"><defs><path id="s" d="M162.4-148.8h12v16h-12z"/></defs><clipPath id="t"><use xlink:href="#s" overflow="visible"/></clipPath><g clip-path="url(#t)"><defs><path id="u" d="M-797.6-631.8h1121v1030h-1121z"/></defs></g></g><defs><path id="v" d="M162.4-148.8h12v16h-12z"/></defs><clipPath id="w"><use xlink:href="#v" overflow="visible"/></clipPath><g clip-path="url(#w)"><defs><path id="x" d="M-797.6-631.8h1121v1030h-1121z"/></defs></g><defs><path id="y" d="M96.4-84.3h-1.5v34h24v-34H96.4zm0 3h21l-1.5-1.5v31l1.5-1.5h-21l1.5 1.5v-31l-1.5 1.5zm-21.5-23h64v74h-64v-74z"/></defs><clipPath id="z"><use xlink:href="#y" overflow="visible"/></clipPath><g clip-path="url(#z)"><defs><path id="A" d="M96.4-82.8h21v31h-21z"/></defs><clipPath id="B"><use xlink:href="#A" overflow="visible"/></clipPath><g clip-path="url(#B)"><defs><path id="C" d="M-797.6-631.8h1121v1030h-1121z"/></defs></g></g><defs><path id="D" d="M96.4-82.8h21v31h-21z"/></defs><clipPath id="E"><use xlink:href="#D" overflow="visible"/></clipPath><g clip-path="url(#E)"><defs><path id="F" d="M-797.6-631.8h1121v1030h-1121z"/></defs></g><defs><path id="G" d="M97.4-112.3h-1.5v22h22v-22H97.4zm0 3h19l-1.5-1.5v19l1.5-1.5h-19l1.5 1.5v-19l-1.5 1.5zm-21.5-23h62v62h-62v-62z"/></defs><clipPath id="H"><use xlink:href="#G" overflow="visible"/></clipPath><g clip-path="url(#H)"><defs><path id="I" d="M97.4-110.8h19v19h-19z"/></defs><clipPath id="J"><use xlink:href="#I" overflow="visible"/></clipPath><g clip-path="url(#J)"><defs><path id="K" d="M-797.6-631.8h1121v1030h-1121z"/></defs></g></g><defs><path id="L" d="M97.4-110.8h19v19h-19z"/></defs><clipPath id="M"><use xlink:href="#L" overflow="visible"/></clipPath><g clip-path="url(#M)"><defs><path id="N" d="M-797.6-631.8h1121v1030h-1121z"/></defs></g><defs><path id="O" d="M102.4-107.3h-1.5v12h12v-12h-10.5zm0 3h9l-1.5-1.5v9l1.5-1.5h-9l1.5 1.5v-9l-1.5 1.5zm-21.5-23h52v52h-52v-52z"/></defs><clipPath id="P"><use xlink:href="#O" overflow="visible"/></clipPath><g clip-path="url(#P)"><defs><path id="Q" d="M102.4-105.8h9v9h-9z"/></defs><clipPath id="R"><use xlink:href="#Q" overflow="visible"/></clipPath><g clip-path="url(#R)"><defs><path id="S" d="M-797.6-631.8h1121v1030h-1121z"/></defs></g></g><defs><path id="T" d="M102.4-105.8h9v9h-9z"/></defs><clipPath id="U"><use xlink:href="#T" overflow="visible"/></clipPath><g clip-path="url(#U)"><defs><path id="V" d="M-797.6-631.8h1121v1030h-1121z"/></defs></g><defs><path id="W" d="M127.4-112.3h-1.5v22h22v-22h-20.5zm0 3h19l-1.5-1.5v19l1.5-1.5h-19l1.5 1.5v-19l-1.5 1.5zm-21.5-23h62v62h-62v-62z"/></defs><clipPath id="X"><use xlink:href="#W" overflow="visible"/></clipPath><g clip-path="url(#X)"><defs><path id="Y" d="M127.4-110.8h19v19h-19z"/></defs><clipPath id="Z"><use xlink:href="#Y" overflow="visible"/></clipPath><g clip-path="url(#Z)"><defs><path id="aa" d="M-797.6-631.8h1121v1030h-1121z"/></defs></g></g><defs><path id="ab" d="M127.4-110.8h19v19h-19z"/></defs><clipPath id="ac"><use xlink:href="#ab" overflow="visible"/></clipPath><g clip-path="url(#ac)"><defs><path id="ad" d="M-797.6-631.8h1121v1030h-1121z"/></defs></g><defs><path id="ae" d="M156.4-112.3h-1.5v22h22v-22h-20.5zm0 3h19l-1.5-1.5v19l1.5-1.5h-19l1.5 1.5v-19l-1.5 1.5zm-21.5-23h62v62h-62v-62z"/></defs><clipPath id="af"><use xlink:href="#ae" overflow="visible"/></clipPath><g clip-path="url(#af)"><defs><path id="ag" d="M156.4-110.8h19v19h-19z"/></defs><clipPath id="ah"><use xlink:href="#ag" overflow="visible"/></clipPath><g clip-path="url(#ah)"><defs><path id="ai" d="M-797.6-631.8h1121v1030h-1121z"/></defs></g></g><defs><path id="aj" d="M156.4-110.8h19v19h-19z"/></defs><clipPath id="ak"><use xlink:href="#aj" overflow="visible"/></clipPath><g clip-path="url(#ak)"><defs><path id="al" d="M-797.6-631.8h1121v1030h-1121z"/></defs></g><defs><path id="am" d="M127.4-84.3h-1.5v22h22v-22h-20.5zm0 3h19l-1.5-1.5v19l1.5-1.5h-19l1.5 1.5v-19l-1.5 1.5zm-21.5-23h62v62h-62v-62z"/></defs><clipPath id="an"><use xlink:href="#am" overflow="visible"/></clipPath><g clip-path="url(#an)"><defs><path id="ao" d="M127.4-82.8h19v19h-19z"/></defs><clipPath id="ap"><use xlink:href="#ao" overflow="visible"/></clipPath><g clip-path="url(#ap)"><defs><path id="aq" d="M-797.6-631.8h1121v1030h-1121z"/></defs></g></g><defs><path id="ar" d="M127.4-82.8h19v19h-19z"/></defs><clipPath id="as"><use xlink:href="#ar" overflow="visible"/></clipPath><g clip-path="url(#as)"><defs><path id="at" d="M-797.6-631.8h1121v1030h-1121z"/></defs></g><defs><path id="au" d="M156.4-84.3h-1.5v22h22v-22h-20.5zm0 3h19l-1.5-1.5v19l1.5-1.5h-19l1.5 1.5v-19l-1.5 1.5zm-21.5-23h62v62h-62v-62z"/></defs><clipPath id="av"><use xlink:href="#au" overflow="visible"/></clipPath><g clip-path="url(#av)"><defs><path id="aw" d="M156.4-82.8h19v19h-19z"/></defs><clipPath id="ax"><use xlink:href="#aw" overflow="visible"/></clipPath><g clip-path="url(#ax)"><defs><path id="ay" d="M-797.6-631.8h1121v1030h-1121z"/></defs></g></g><defs><path id="az" d="M156.4-82.8h19v19h-19z"/></defs><clipPath id="aA"><use xlink:href="#az" overflow="visible"/></clipPath><g clip-path="url(#aA)"><defs><path id="aB" d="M-797.6-631.8h1121v1030h-1121z"/></defs></g><defs><path id="aC" d="M132.4-107.3h-1.5v12h12v-12h-10.5zm0 3h9l-1.5-1.5v9l1.5-1.5h-9l1.5 1.5v-9l-1.5 1.5zm-21.5-23h52v52h-52v-52z"/></defs><clipPath id="aD"><use xlink:href="#aC" overflow="visible"/></clipPath><g clip-path="url(#aD)"><defs><path id="aE" d="M132.4-105.8h9v9h-9z"/></defs><clipPath id="aF"><use xlink:href="#aE" overflow="visible"/></clipPath><g clip-path="url(#aF)"><defs><path id="aG" d="M-797.6-631.8h1121v1030h-1121z"/></defs></g></g><defs><path id="aH" d="M132.4-105.8h9v9h-9z"/></defs><clipPath id="aI"><use xlink:href="#aH" overflow="visible"/></clipPath><g clip-path="url(#aI)"><defs><path id="aJ" d="M-797.6-631.8h1121v1030h-1121z"/></defs></g><defs><path id="aK" d="M161.4-107.3h-1.5v12h12v-12h-10.5zm0 3h9l-1.5-1.5v9l1.5-1.5h-9l1.5 1.5v-9l-1.5 1.5zm-21.5-23h52v52h-52v-52z"/></defs><clipPath id="aL"><use xlink:href="#aK" overflow="visible"/></clipPath><g clip-path="url(#aL)"><defs><path id="aM" d="M161.4-105.8h9v9h-9z"/></defs><clipPath id="aN"><use xlink:href="#aM" overflow="visible"/></clipPath><g clip-path="url(#aN)"><defs><path id="aO" d="M-797.6-631.8h1121v1030h-1121z"/></defs></g></g><defs><path id="aP" d="M161.4-105.8h9v9h-9z"/></defs><clipPath id="aQ"><use xlink:href="#aP" overflow="visible"/></clipPath><g clip-path="url(#aQ)"><defs><path id="aR" d="M-797.6-631.8h1121v1030h-1121z"/></defs></g><defs><path id="aS" d="M132.4-79.3h-1.5v12h12v-12h-10.5zm0 3h9l-1.5-1.5v9l1.5-1.5h-9l1.5 1.5v-9l-1.5 1.5zm-21.5-23h52v52h-52v-52z"/></defs><clipPath id="aT"><use xlink:href="#aS" overflow="visible"/></clipPath><g clip-path="url(#aT)"><defs><path id="aU" d="M132.4-77.8h9v9h-9z"/></defs><clipPath id="aV"><use xlink:href="#aU" overflow="visible"/></clipPath><g clip-path="url(#aV)"><defs><path id="aW" d="M-797.6-631.8h1121v1030h-1121z"/></defs></g></g><defs><path id="aX" d="M132.4-77.8h9v9h-9z"/></defs><clipPath id="aY"><use xlink:href="#aX" overflow="visible"/></clipPath><g clip-path="url(#aY)"><defs><path id="aZ" d="M-797.6-631.8h1121v1030h-1121z"/></defs></g><defs><path id="ba" d="M161.4-79.3h-1.5v12h12v-12h-10.5zm0 3h9l-1.5-1.5v9l1.5-1.5h-9l1.5 1.5v-9l-1.5 1.5zm-21.5-23h52v52h-52v-52z"/></defs><clipPath id="bb"><use xlink:href="#ba" overflow="visible"/></clipPath><g clip-path="url(#bb)"><defs><path id="bc" d="M161.4-77.8h9v9h-9z"/></defs><clipPath id="bd"><use xlink:href="#bc" overflow="visible"/></clipPath><g clip-path="url(#bd)"><defs><path id="be" d="M-797.6-631.8h1121v1030h-1121z"/></defs></g></g><defs><path id="bf" d="M161.4-77.8h9v9h-9z"/></defs><clipPath id="bg"><use xlink:href="#bf" overflow="visible"/></clipPath><g clip-path="url(#bg)"><defs><path id="bh" d="M-797.6-631.8h1121v1030h-1121z"/></defs></g><defs><path id="bi" d="M683.4-451.3h-1.5v84h108v-84H683.4zm0 3h105l-1.5-1.5v81l1.5-1.5h-105l1.5 1.5v-81l-1.5 1.5zm-21.5-23h148v124h-148v-124z"/></defs><clipPath id="bj"><use xlink:href="#bi" overflow="visible"/></clipPath><g clip-path="url(#bj)"><defs><path id="bk" d="M683.4-449.8h105v81h-105z"/></defs><clipPath id="bl"><use xlink:href="#bk" overflow="visible"/></clipPath><g clip-path="url(#bl)"><defs><path id="bm" d="M-197.6-948.8h1121v1030h-1121z"/></defs></g></g><defs><path id="bn" d="M683.4-449.8h105v81h-105z"/></defs><clipPath id="bo"><use xlink:href="#bn" overflow="visible"/></clipPath><g clip-path="url(#bo)"><defs><path id="bp" d="M-197.6-948.8h1121v1030h-1121z"/></defs></g><g><defs><path id="bq" d="M677.4-434.3h-2.2l.9-2.1 9.1-22 .4-.9h100.9l.4.9 9.1 22 .9 2.1H677.4zm0-3h117l-1.4 2.1-9.1-22 1.4.9h-98.9l1.4-.9-9.1 22-1.3-2.1zm-22.3 23h161.5v-65H655.1v65z"/></defs><clipPath id="br"><use xlink:href="#bq" overflow="visible"/></clipPath><g clip-path="url(#br)"><defs><path id="bs" d="M677.4-435.8h117l-9.1-22h-98.8z"/></defs><clipPath id="bt"><use xlink:href="#bs" overflow="visible"/></clipPath><g clip-path="url(#bt)"><defs><path id="bu" d="M-197.6-948.8h1121v1030h-1121z"/></defs></g></g></g><g><defs><path id="bv" d="M677.4-435.8h117l-9.1-22h-98.8z"/></defs><clipPath id="bw"><use xlink:href="#bv" overflow="visible"/></clipPath><g clip-path="url(#bw)"><defs><path id="bx" d="M-197.6-948.8h1121v1030h-1121z"/></defs></g></g><g><defs><path id="by" d="M762.4-467.3h-1.5v19h15v-19h-13.5zm0 3h12l-1.5-1.5v16l1.5-1.5h-12l1.5 1.5v-16l-1.5 1.5zm-21.5-23h55v59h-55v-59z"/></defs><clipPath id="bz"><use xlink:href="#by" overflow="visible"/></clipPath><g clip-path="url(#bz)"><defs><path id="bA" d="M762.4-465.8h12v16h-12z"/></defs><clipPath id="bB"><use xlink:href="#bA" overflow="visible"/></clipPath><g clip-path="url(#bB)"><defs><path id="bC" d="M-197.6-948.8h1121v1030h-1121z"/></defs></g></g></g><g><defs><path id="bD" d="M762.4-465.8h12v16h-12z"/></defs><clipPath id="bE"><use xlink:href="#bD" overflow="visible"/></clipPath><g clip-path="url(#bE)"><defs><path id="bF" d="M-197.6-948.8h1121v1030h-1121z"/></defs></g></g><g><defs><path id="bG" d="M696.4-401.3h-1.5v34h24v-34h-22.5zm0 3h21l-1.5-1.5v31l1.5-1.5h-21l1.5 1.5v-31l-1.5 1.5zm-21.5-23h64v74h-64v-74z"/></defs><clipPath id="bH"><use xlink:href="#bG" overflow="visible"/></clipPath><g clip-path="url(#bH)"><defs><path id="bI" d="M696.4-399.8h21v31h-21z"/></defs><clipPath id="bJ"><use xlink:href="#bI" overflow="visible"/></clipPath><g clip-path="url(#bJ)"><defs><path id="bK" d="M-197.6-948.8h1121v1030h-1121z"/></defs></g></g></g><g><defs><path id="bL" d="M696.4-399.8h21v31h-21z"/></defs><clipPath id="bM"><use xlink:href="#bL" overflow="visible"/></clipPath><g clip-path="url(#bM)"><defs><path id="bN" d="M-197.6-948.8h1121v1030h-1121z"/></defs></g></g><g><defs><path id="bO" d="M697.4-429.3h-1.5v22h22v-22h-20.5zm0 3h19l-1.5-1.5v19l1.5-1.5h-19l1.5 1.5v-19l-1.5 1.5zm-21.5-23h62v62h-62v-62z"/></defs><clipPath id="bP"><use xlink:href="#bO" overflow="visible"/></clipPath><g clip-path="url(#bP)"><defs><path id="bQ" d="M697.4-427.8h19v19h-19z"/></defs><clipPath id="bR"><use xlink:href="#bQ" overflow="visible"/></clipPath><g clip-path="url(#bR)"><defs><path id="bS" d="M-197.6-948.8h1121v1030h-1121z"/></defs></g></g></g><g><defs><path id="bT" d="M697.4-427.8h19v19h-19z"/></defs><clipPath id="bU"><use xlink:href="#bT" overflow="visible"/></clipPath><g clip-path="url(#bU)"><defs><path id="bV" d="M-197.6-948.8h1121v1030h-1121z"/></defs></g></g><g><defs><path id="bW" d="M702.4-424.3h-1.5v12h12v-12h-10.5zm0 3h9l-1.5-1.5v9l1.5-1.5h-9l1.5 1.5v-9l-1.5 1.5zm-21.5-23h52v52h-52v-52z"/></defs><clipPath id="bX"><use xlink:href="#bW" overflow="visible"/></clipPath><g clip-path="url(#bX)"><defs><path id="bY" d="M702.4-422.8h9v9h-9z"/></defs><clipPath id="bZ"><use xlink:href="#bY" overflow="visible"/></clipPath><g clip-path="url(#bZ)"><defs><path id="ca" d="M-197.6-948.8h1121v1030h-1121z"/></defs></g></g></g><g><defs><path id="cb" d="M702.4-422.8h9v9h-9z"/></defs><clipPath id="cc"><use xlink:href="#cb" overflow="visible"/></clipPath><g clip-path="url(#cc)"><defs><path id="cd" d="M-197.6-948.8h1121v1030h-1121z"/></defs></g></g><g><defs><path id="ce" d="M727.4-429.3h-1.5v22h22v-22h-20.5zm0 3h19l-1.5-1.5v19l1.5-1.5h-19l1.5 1.5v-19l-1.5 1.5zm-21.5-23h62v62h-62v-62z"/></defs><clipPath id="cf"><use xlink:href="#ce" overflow="visible"/></clipPath><g clip-path="url(#cf)"><defs><path id="cg" d="M727.4-427.8h19v19h-19z"/></defs><clipPath id="ch"><use xlink:href="#cg" overflow="visible"/></clipPath><g clip-path="url(#ch)"><defs><path id="ci" d="M-197.6-948.8h1121v1030h-1121z"/></defs></g></g></g><g><defs><path id="cj" d="M727.4-427.8h19v19h-19z"/></defs><clipPath id="ck"><use xlink:href="#cj" overflow="visible"/></clipPath><g clip-path="url(#ck)"><defs><path id="cl" d="M-197.6-948.8h1121v1030h-1121z"/></defs></g></g><g><defs><path id="cm" d="M756.4-429.3h-1.5v22h22v-22h-20.5zm0 3h19l-1.5-1.5v19l1.5-1.5h-19l1.5 1.5v-19l-1.5 1.5zm-21.5-23h62v62h-62v-62z"/></defs><clipPath id="cn"><use xlink:href="#cm" overflow="visible"/></clipPath><g clip-path="url(#cn)"><defs><path id="co" d="M756.4-427.8h19v19h-19z"/></defs><clipPath id="cp"><use xlink:href="#co" overflow="visible"/></clipPath><g clip-path="url(#cp)"><defs><path id="cq" d="M-197.6-948.8h1121v1030h-1121z"/></defs></g></g></g><g><defs><path id="cr" d="M756.4-427.8h19v19h-19z"/></defs><clipPath id="cs"><use xlink:href="#cr" overflow="visible"/></clipPath><g clip-path="url(#cs)"><defs><path id="ct" d="M-197.6-948.8h1121v1030h-1121z"/></defs></g></g><g><defs><path id="cu" d="M727.4-401.3h-1.5v22h22v-22h-20.5zm0 3h19l-1.5-1.5v19l1.5-1.5h-19l1.5 1.5v-19l-1.5 1.5zm-21.5-23h62v62h-62v-62z"/></defs><clipPath id="cv"><use xlink:href="#cu" overflow="visible"/></clipPath><g clip-path="url(#cv)"><defs><path id="cw" d="M727.4-399.8h19v19h-19z"/></defs><clipPath id="cx"><use xlink:href="#cw" overflow="visible"/></clipPath><g clip-path="url(#cx)"><defs><path id="cy" d="M-197.6-948.8h1121v1030h-1121z"/></defs></g></g></g><g><defs><path id="cz" d="M727.4-399.8h19v19h-19z"/></defs><clipPath id="cA"><use xlink:href="#cz" overflow="visible"/></clipPath><g clip-path="url(#cA)"><defs><path id="cB" d="M-197.6-948.8h1121v1030h-1121z"/></defs></g></g><g><defs><path id="cC" d="M756.4-401.3h-1.5v22h22v-22h-20.5zm0 3h19l-1.5-1.5v19l1.5-1.5h-19l1.5 1.5v-19l-1.5 1.5zm-21.5-23h62v62h-62v-62z"/></defs><clipPath id="cD"><use xlink:href="#cC" overflow="visible"/></clipPath><g clip-path="url(#cD)"><defs><path id="cE" d="M756.4-399.8h19v19h-19z"/></defs><clipPath id="cF"><use xlink:href="#cE" overflow="visible"/></clipPath><g clip-path="url(#cF)"><defs><path id="cG" d="M-197.6-948.8h1121v1030h-1121z"/></defs></g></g></g><g><defs><path id="cH" d="M756.4-399.8h19v19h-19z"/></defs><clipPath id="cI"><use xlink:href="#cH" overflow="visible"/></clipPath><g clip-path="url(#cI)"><defs><path id="cJ" d="M-197.6-948.8h1121v1030h-1121z"/></defs></g></g><g><defs><path id="cK" d="M732.4-424.3h-1.5v12h12v-12h-10.5zm0 3h9l-1.5-1.5v9l1.5-1.5h-9l1.5 1.5v-9l-1.5 1.5zm-21.5-23h52v52h-52v-52z"/></defs><clipPath id="cL"><use xlink:href="#cK" overflow="visible"/></clipPath><g clip-path="url(#cL)"><defs><path id="cM" d="M732.4-422.8h9v9h-9z"/></defs><clipPath id="cN"><use xlink:href="#cM" overflow="visible"/></clipPath><g clip-path="url(#cN)"><defs><path id="cO" d="M-197.6-948.8h1121v1030h-1121z"/></defs></g></g></g><g><defs><path id="cP" d="M732.4-422.8h9v9h-9z"/></defs><clipPath id="cQ"><use xlink:href="#cP" overflow="visible"/></clipPath><g clip-path="url(#cQ)"><defs><path id="cR" d="M-197.6-948.8h1121v1030h-1121z"/></defs></g></g><g><defs><path id="cS" d="M761.4-424.3h-1.5v12h12v-12h-10.5zm0 3h9l-1.5-1.5v9l1.5-1.5h-9l1.5 1.5v-9l-1.5 1.5zm-21.5-23h52v52h-52v-52z"/></defs><clipPath id="cT"><use xlink:href="#cS" overflow="visible"/></clipPath><g clip-path="url(#cT)"><defs><path id="cU" d="M761.4-422.8h9v9h-9z"/></defs><clipPath id="cV"><use xlink:href="#cU" overflow="visible"/></clipPath><g clip-path="url(#cV)"><defs><path id="cW" d="M-197.6-948.8h1121v1030h-1121z"/></defs></g></g></g><g><defs><path id="cX" d="M761.4-422.8h9v9h-9z"/></defs><clipPath id="cY"><use xlink:href="#cX" overflow="visible"/></clipPath><g clip-path="url(#cY)"><defs><path id="cZ" d="M-197.6-948.8h1121v1030h-1121z"/></defs></g></g><g><defs><path id="da" d="M732.4-396.3h-1.5v12h12v-12h-10.5zm0 3h9l-1.5-1.5v9l1.5-1.5h-9l1.5 1.5v-9l-1.5 1.5zm-21.5-23h52v52h-52v-52z"/></defs><clipPath id="db"><use xlink:href="#da" overflow="visible"/></clipPath><g clip-path="url(#db)"><defs><path id="dc" d="M732.4-394.8h9v9h-9z"/></defs><clipPath id="dd"><use xlink:href="#dc" overflow="visible"/></clipPath><g clip-path="url(#dd)"><defs><path id="de" d="M-197.6-948.8h1121v1030h-1121z"/></defs></g></g></g><g><defs><path id="df" d="M732.4-394.8h9v9h-9z"/></defs><clipPath id="dg"><use xlink:href="#df" overflow="visible"/></clipPath><g clip-path="url(#dg)"><defs><path id="dh" d="M-197.6-948.8h1121v1030h-1121z"/></defs></g></g><g><defs><path id="di" d="M761.4-396.3h-1.5v12h12v-12h-10.5zm0 3h9l-1.5-1.5v9l1.5-1.5h-9l1.5 1.5v-9l-1.5 1.5zm-21.5-23h52v52h-52v-52z"/></defs><clipPath id="dj"><use xlink:href="#di" overflow="visible"/></clipPath><g clip-path="url(#dj)"><defs><path id="dk" d="M761.4-394.8h9v9h-9z"/></defs><clipPath id="dl"><use xlink:href="#dk" overflow="visible"/></clipPath><g clip-path="url(#dl)"><defs><path id="dm" d="M-197.6-948.8h1121v1030h-1121z"/></defs></g></g></g><g><defs><path id="dn" d="M761.4-394.8h9v9h-9z"/></defs><clipPath id="do"><use xlink:href="#dn" overflow="visible"/></clipPath><g clip-path="url(#do)"><defs><path id="dp" d="M-197.6-948.8h1121v1030h-1121z"/></defs></g></g><g><path fill="#FFF" d="M187.5 66.2c-1.4-21.2-21.6-38-46.3-38S96.3 45 94.9 66.2h92.6z"/><path fill="#0C1F2E" d="M189.1 67.8H93.2l.1-1.6c1.5-22.1 22.5-39.4 47.8-39.4s46.3 17.3 47.8 39.4l.2 1.6zm-92.6-3h89.3c-2.3-19.8-21.5-35-44.7-35S98.7 45 96.5 64.8z"/></g><g><path fill="#FFF" d="M175.5 60c-1.8-5.4-5.3-10.2-9.9-14"/><path fill="#0C1F2E" d="M175.5 61.5c-.6 0-1.2-.4-1.4-1-1.7-5.1-4.9-9.7-9.4-13.3-.6-.5-.7-1.5-.2-2.1s1.5-.7 2.1-.2c4.9 4 8.4 9.1 10.3 14.7.3.8-.2 1.6-.9 1.9h-.5z"/></g><g><path fill="#FFF" d="M156.9 40.8c-4.8-2.1-10.3-3.3-16-3.3-4.4 0-8.6.7-12.5 1.9"/><path fill="#0C1F2E" d="M156.9 42.3c-.2 0-.4 0-.6-.1-4.8-2.1-10-3.1-15.4-3.1-4.1 0-8.2.6-12 1.9-.8.3-1.6-.2-1.9-1-.3-.8.2-1.6 1-1.9 4.1-1.3 8.5-2 12.9-2 5.8 0 11.4 1.1 16.6 3.4.8.3 1.1 1.2.8 2-.3.4-.8.8-1.4.8z"/></g><g><path fill="#FFF" d="M118.8 44.1c-5.5 3.8-9.8 8.9-12.1 14.8"/><path fill="#0C1F2E" d="M106.7 60.4c-.2 0-.4 0-.5-.1-.8-.3-1.2-1.2-.9-1.9 2.4-6.2 6.7-11.5 12.6-15.5.7-.5 1.6-.3 2.1.4s.3 1.6-.4 2.1c-5.4 3.6-9.4 8.5-11.5 14.1-.2.5-.8.9-1.4.9z"/></g><g><path fill="#FFF" d="M161.7 59.8c-1.1-3.2-3.1-6.1-5.9-8.3"/><path fill="#0C1F2E" d="M161.7 61.3c-.6 0-1.2-.4-1.4-1-1-2.9-2.8-5.5-5.4-7.6-.6-.5-.7-1.5-.2-2.1.5-.6 1.5-.7 2.1-.2 3 2.5 5.2 5.6 6.3 9 .3.8-.2 1.6-.9 1.9h-.5z"/></g><g><path fill="#FFF" d="M150.6 48.3c-2.9-1.2-6.1-1.9-9.5-1.9-2.6 0-5.1.4-7.4 1.2"/><path fill="#0C1F2E" d="M150.6 49.8c-.2 0-.4 0-.6-.1-2.8-1.2-5.8-1.8-8.9-1.8-2.4 0-4.7.4-7 1.1-.8.3-1.6-.2-1.9-1-.3-.8.2-1.6 1-1.9 2.5-.8 5.2-1.2 7.9-1.2 3.6 0 7 .7 10.1 2.1.8.3 1.1 1.2.8 2-.3.5-.8.8-1.4.8z"/></g><g><path fill="#FFF" d="M127.9 50.3c-3.3 2.2-5.8 5.3-7.2 8.8"/><path fill="#0C1F2E" d="M120.7 60.6c-.2 0-.4 0-.5-.1-.8-.3-1.2-1.2-.9-1.9 1.5-3.8 4.1-7.1 7.8-9.5.7-.5 1.6-.3 2.1.4s.3 1.6-.4 2.1c-3.1 2.1-5.4 4.9-6.6 8.1-.3.5-.9.9-1.5.9z"/></g><g><path fill="#FFF" d="M136.1 66.7s-.9 12.3 8.3 12.3h8.2s6.4.4 6.4 7.1c0 0 .1 9.6 13.8 9.6 15.2 0 14.7-29.2 14.7-29.2l-51.4.2z"/><path fill="#0C1F2E" d="M172.8 97c-12 0-15.2-7.3-15.3-11.2 0-4.9-4.2-5.7-4.9-5.8h-8.1c-2.7 0-5-.9-6.7-2.7-3.6-3.9-3.2-10.6-3.2-10.9l.1-1.4 54.2-.2v1.5c0 .8.2 19.2-7.6 27.1-2.3 2.4-5.2 3.6-8.5 3.6zm-35.2-29c.1 1.9.5 5.2 2.4 7.3 1.1 1.2 2.6 1.8 4.5 1.8h8.3c2.7.3 7.7 2.5 7.7 8.8 0 .3.3 8.2 12.3 8.2 2.5 0 4.6-.9 6.4-2.8 5.8-5.9 6.6-19.1 6.7-23.5l-48.3.2z"/></g><g><path fill="#0C1F2E" d="M126.5 105.3l.6-2.6c0-.2 4.2-19.5-1.9-34.1-.3-.8 0-1.6.8-2 .8-.3 1.6 0 2 .8 5.2 12.4 3.5 27.4 2.6 33.3L161 90.2c.8-.3 1.6.1 1.9.9.3.8-.1 1.6-.9 1.9l-35.5 12.3z"/></g><g><circle fill="#0C1F2E" cx="128.6" cy="104.1" r="4.1"/></g><g><defs><path id="dq" d="M-225.5 184.5h-1.5v90h134v-90h-132.5zm0 3h131L-96 186v87l1.5-1.5h-131l1.5 1.5v-87l-1.5 1.5zm-21.5-23h174v130h-174v-130z"/></defs><clipPath id="dr"><use xlink:href="#dq" overflow="visible"/></clipPath><g clip-path="url(#dr)"><defs><path id="ds" d="M-225.5 186h131v87h-131z"/></defs><clipPath id="dt"><use xlink:href="#ds" overflow="visible"/></clipPath><g clip-path="url(#dt)"><defs><path id="du" d="M-834.5-118h1121V912h-1121z"/></defs></g></g></g><g><defs><path id="dv" d="M-225.5 186h131v87h-131z"/></defs><clipPath id="dw"><use xlink:href="#dv" overflow="visible"/></clipPath><g clip-path="url(#dw)"><defs><path id="dx" d="M-834.5-118h1121V912h-1121z"/></defs></g></g><g><defs><path id="dy" d="M-220.5 189.5h-1.5v80h124v-80h-122.5zm0 3h121l-1.5-1.5v77l1.5-1.5h-121l1.5 1.5v-77l-1.5 1.5zm-21.5-23h164v120h-164v-120z"/></defs><clipPath id="dz"><use xlink:href="#dy" overflow="visible"/></clipPath><g clip-path="url(#dz)"><defs><path id="dA" d="M-220.5 191h121v77h-121z"/></defs><clipPath id="dB"><use xlink:href="#dA" overflow="visible"/></clipPath><g clip-path="url(#dB)"><defs><path id="dC" d="M-834.5-118h1121V912h-1121z"/></defs></g></g></g><g><defs><path id="dD" d="M-220.5 191h121v77h-121z"/></defs><clipPath id="dE"><use xlink:href="#dD" overflow="visible"/></clipPath><g clip-path="url(#dE)"><defs><path id="dF" d="M-834.5-118h1121V912h-1121z"/></defs></g></g><g><defs><path id="dG" d="M-155.5 204.5h-1.5v6h47v-6h-45.5zm0 3h44l-1.5-1.5v3l1.5-1.5h-44l1.5 1.5v-3l-1.5 1.5zm-21.5-23h87v46h-87v-46z"/></defs><clipPath id="dH"><use xlink:href="#dG" overflow="visible"/></clipPath><g clip-path="url(#dH)"><defs><path id="dI" d="M-155.5 206h44v3h-44z"/></defs><clipPath id="dJ"><use xlink:href="#dI" overflow="visible"/></clipPath><g clip-path="url(#dJ)"><defs><path id="dK" d="M-834.5-118h1121V912h-1121z"/></defs></g></g></g><g><defs><path id="dL" d="M-155.5 206h44v3h-44z"/></defs><clipPath id="dM"><use xlink:href="#dL" overflow="visible"/></clipPath><g clip-path="url(#dM)"><defs><path id="dN" d="M-834.5-118h1121V912h-1121z"/></defs></g></g><g><defs><path id="dO" d="M-155.5 210.5h-1.5v6h47v-6h-45.5zm0 3h44l-1.5-1.5v3l1.5-1.5h-44l1.5 1.5v-3l-1.5 1.5zm-21.5-23h87v46h-87v-46z"/></defs><clipPath id="dP"><use xlink:href="#dO" overflow="visible"/></clipPath><g clip-path="url(#dP)"><defs><path id="dQ" d="M-155.5 212h44v3h-44z"/></defs><clipPath id="dR"><use xlink:href="#dQ" overflow="visible"/></clipPath><g clip-path="url(#dR)"><defs><path id="dS" d="M-834.5-118h1121V912h-1121z"/></defs></g></g></g><g><defs><path id="dT" d="M-155.5 212h44v3h-44z"/></defs><clipPath id="dU"><use xlink:href="#dT" overflow="visible"/></clipPath><g clip-path="url(#dU)"><defs><path id="dV" d="M-834.5-118h1121V912h-1121z"/></defs></g></g><g><defs><path id="dW" d="M-155.5 216.5h-1.5v6h47v-6h-45.5zm0 3h44l-1.5-1.5v3l1.5-1.5h-44l1.5 1.5v-3l-1.5 1.5zm-21.5-23h87v46h-87v-46z"/></defs><clipPath id="dX"><use xlink:href="#dW" overflow="visible"/></clipPath><g clip-path="url(#dX)"><defs><path id="dY" d="M-155.5 218h44v3h-44z"/></defs><clipPath id="dZ"><use xlink:href="#dY" overflow="visible"/></clipPath><g clip-path="url(#dZ)"><defs><path id="ea" d="M-834.5-118h1121V912h-1121z"/></defs></g></g></g><g><defs><path id="eb" d="M-155.5 218h44v3h-44z"/></defs><clipPath id="ec"><use xlink:href="#eb" overflow="visible"/></clipPath><g clip-path="url(#ec)"><defs><path id="ed" d="M-834.5-118h1121V912h-1121z"/></defs></g></g><g><defs><path id="ee" d="M-155.5 222.5h-1.5v6h47v-6h-45.5zm0 3h44l-1.5-1.5v3l1.5-1.5h-44l1.5 1.5v-3l-1.5 1.5zm-21.5-23h87v46h-87v-46z"/></defs><clipPath id="ef"><use xlink:href="#ee" overflow="visible"/></clipPath><g clip-path="url(#ef)"><defs><path id="eg" d="M-155.5 224h44v3h-44z"/></defs><clipPath id="eh"><use xlink:href="#eg" overflow="visible"/></clipPath><g clip-path="url(#eh)"><defs><path id="ei" d="M-834.5-118h1121V912h-1121z"/></defs></g></g></g><g><defs><path id="ej" d="M-155.5 224h44v3h-44z"/></defs><clipPath id="ek"><use xlink:href="#ej" overflow="visible"/></clipPath><g clip-path="url(#ek)"><defs><path id="el" d="M-834.5-118h1121V912h-1121z"/></defs></g></g><g><defs><path id="em" d="M68.1 184.5h-1.5v90h134v-90H68.1zm0 3h131l-1.5-1.5v87l1.5-1.5h-131l1.5 1.5v-87l-1.5 1.5zm-21.5-23h174v130h-174v-130z"/></defs><clipPath id="en"><use xlink:href="#em" overflow="visible"/></clipPath><g clip-path="url(#en)"><defs><path id="eo" d="M68.1 186h131v87h-131z"/></defs><clipPath id="ep"><use xlink:href="#eo" overflow="visible"/></clipPath><g clip-path="url(#ep)"><defs><path id="eq" d="M-540.9-118h1121V912h-1121z"/></defs></g></g></g><g><defs><path id="er" d="M68.1 186h131v87h-131z"/></defs><clipPath id="es"><use xlink:href="#er" overflow="visible"/></clipPath><g clip-path="url(#es)"><defs><path id="et" d="M-540.9-118h1121V912h-1121z"/></defs></g></g><g><defs><path id="eu" d="M73.1 189.5h-1.5v80h124v-80H73.1zm0 3h121l-1.5-1.5v77l1.5-1.5h-121l1.5 1.5v-77l-1.5 1.5zm-21.5-23h164v120h-164v-120z"/></defs><clipPath id="ev"><use xlink:href="#eu" overflow="visible"/></clipPath><g clip-path="url(#ev)"><defs><path id="ew" d="M73.1 191h121v77h-121z"/></defs><clipPath id="ex"><use xlink:href="#ew" overflow="visible"/></clipPath><g clip-path="url(#ex)"><defs><path id="ey" d="M-540.9-118h1121V912h-1121z"/></defs></g></g></g><g><defs><path id="ez" d="M73.1 191h121v77h-121z"/></defs><clipPath id="eA"><use xlink:href="#ez" overflow="visible"/></clipPath><g clip-path="url(#eA)"><defs><path id="eB" d="M-540.9-118h1121V912h-1121z"/></defs></g></g><g><defs><path id="eC" d="M138.1 204.5h-1.5v6h47v-6h-45.5zm0 3h44l-1.5-1.5v3l1.5-1.5h-44l1.5 1.5v-3l-1.5 1.5zm-21.5-23h87v46h-87v-46z"/></defs><clipPath id="eD"><use xlink:href="#eC" overflow="visible"/></clipPath><g clip-path="url(#eD)"><defs><path id="eE" d="M138.1 206h44v3h-44z"/></defs><clipPath id="eF"><use xlink:href="#eE" overflow="visible"/></clipPath><g clip-path="url(#eF)"><defs><path id="eG" d="M-540.9-118h1121V912h-1121z"/></defs></g></g></g><g><defs><path id="eH" d="M138.1 206h44v3h-44z"/></defs><clipPath id="eI"><use xlink:href="#eH" overflow="visible"/></clipPath><g clip-path="url(#eI)"><defs><path id="eJ" d="M-540.9-118h1121V912h-1121z"/></defs></g></g><g><defs><path id="eK" d="M138.1 210.5h-1.5v6h47v-6h-45.5zm0 3h44l-1.5-1.5v3l1.5-1.5h-44l1.5 1.5v-3l-1.5 1.5zm-21.5-23h87v46h-87v-46z"/></defs><clipPath id="eL"><use xlink:href="#eK" overflow="visible"/></clipPath><g clip-path="url(#eL)"><defs><path id="eM" d="M138.1 212h44v3h-44z"/></defs><clipPath id="eN"><use xlink:href="#eM" overflow="visible"/></clipPath><g clip-path="url(#eN)"><defs><path id="eO" d="M-540.9-118h1121V912h-1121z"/></defs></g></g></g><g><defs><path id="eP" d="M138.1 212h44v3h-44z"/></defs><clipPath id="eQ"><use xlink:href="#eP" overflow="visible"/></clipPath><g clip-path="url(#eQ)"><defs><path id="eR" d="M-540.9-118h1121V912h-1121z"/></defs></g></g><g><defs><path id="eS" d="M138.1 216.5h-1.5v6h47v-6h-45.5zm0 3h44l-1.5-1.5v3l1.5-1.5h-44l1.5 1.5v-3l-1.5 1.5zm-21.5-23h87v46h-87v-46z"/></defs><clipPath id="eT"><use xlink:href="#eS" overflow="visible"/></clipPath><g clip-path="url(#eT)"><defs><path id="eU" d="M138.1 218h44v3h-44z"/></defs><clipPath id="eV"><use xlink:href="#eU" overflow="visible"/></clipPath><g clip-path="url(#eV)"><defs><path id="eW" d="M-540.9-118h1121V912h-1121z"/></defs></g></g></g><g><defs><path id="eX" d="M138.1 218h44v3h-44z"/></defs><clipPath id="eY"><use xlink:href="#eX" overflow="visible"/></clipPath><g clip-path="url(#eY)"><defs><path id="eZ" d="M-540.9-118h1121V912h-1121z"/></defs></g></g><g><defs><path id="fa" d="M138.1 222.5h-1.5v6h47v-6h-45.5zm0 3h44l-1.5-1.5v3l1.5-1.5h-44l1.5 1.5v-3l-1.5 1.5zm-21.5-23h87v46h-87v-46z"/></defs><clipPath id="fb"><use xlink:href="#fa" overflow="visible"/></clipPath><g clip-path="url(#fb)"><defs><path id="fc" d="M138.1 224h44v3h-44z"/></defs><clipPath id="fd"><use xlink:href="#fc" overflow="visible"/></clipPath><g clip-path="url(#fd)"><defs><path id="fe" d="M-540.9-118h1121V912h-1121z"/></defs></g></g></g><g><defs><path id="ff" d="M138.1 224h44v3h-44z"/></defs><clipPath id="fg"><use xlink:href="#ff" overflow="visible"/></clipPath><g clip-path="url(#fg)"><defs><path id="fh" d="M-540.9-118h1121V912h-1121z"/></defs></g></g></svg>