<svg xmlns="http://www.w3.org/2000/svg" viewBox="0 0 276 137"><defs><path id="a" d="M83.4-134.3h-1.5v84h108v-84H83.4zm0 3h105l-1.5-1.5v81l1.5-1.5h-105l1.5 1.5v-81l-1.5 1.5zm-21.5-23h148v124h-148v-124z"/></defs><defs><path id="b" d="M77.4-117.3h-2.2l.9-2.1 9.1-22 .4-.9h100.9l.4.9 9.1 22 .9 2.1H77.4zm0-3h117l-1.4 2.1-9.1-22 1.4.9H86.5l1.4-.9-9.1 22-1.4-2.1zm-22.3 23h161.5v-65H55.1v65z"/></defs><defs><path id="c" d="M162.4-150.3h-1.5v19h15v-19h-13.5zm0 3h12l-1.5-1.5v16l1.5-1.5h-12l1.5 1.5v-16l-1.5 1.5zm-21.5-23h55v59h-55v-59z"/></defs><defs><path id="d" d="M96.4-84.3h-1.5v34h24v-34H96.4zm0 3h21l-1.5-1.5v31l1.5-1.5h-21l1.5 1.5v-31l-1.5 1.5zm-21.5-23h64v74h-64v-74z"/></defs><defs><path id="e" d="M97.4-112.3h-1.5v22h22v-22H97.4zm0 3h19l-1.5-1.5v19l1.5-1.5h-19l1.5 1.5v-19l-1.5 1.5zm-21.5-23h62v62h-62v-62z"/></defs><defs><path id="f" d="M102.4-107.3h-1.5v12h12v-12h-10.5zm0 3h9l-1.5-1.5v9l1.5-1.5h-9l1.5 1.5v-9l-1.5 1.5zm-21.5-23h52v52h-52v-52z"/></defs><defs><path id="g" d="M127.4-112.3h-1.5v22h22v-22h-20.5zm0 3h19l-1.5-1.5v19l1.5-1.5h-19l1.5 1.5v-19l-1.5 1.5zm-21.5-23h62v62h-62v-62z"/></defs><defs><path id="h" d="M156.4-112.3h-1.5v22h22v-22h-20.5zm0 3h19l-1.5-1.5v19l1.5-1.5h-19l1.5 1.5v-19l-1.5 1.5zm-21.5-23h62v62h-62v-62z"/></defs><defs><path id="i" d="M127.4-84.3h-1.5v22h22v-22h-20.5zm0 3h19l-1.5-1.5v19l1.5-1.5h-19l1.5 1.5v-19l-1.5 1.5zm-21.5-23h62v62h-62v-62z"/></defs><defs><path id="j" d="M156.4-84.3h-1.5v22h22v-22h-20.5zm0 3h19l-1.5-1.5v19l1.5-1.5h-19l1.5 1.5v-19l-1.5 1.5zm-21.5-23h62v62h-62v-62z"/></defs><defs><path id="k" d="M132.4-107.3h-1.5v12h12v-12h-10.5zm0 3h9l-1.5-1.5v9l1.5-1.5h-9l1.5 1.5v-9l-1.5 1.5zm-21.5-23h52v52h-52v-52z"/></defs><defs><path id="l" d="M161.4-107.3h-1.5v12h12v-12h-10.5zm0 3h9l-1.5-1.5v9l1.5-1.5h-9l1.5 1.5v-9l-1.5 1.5zm-21.5-23h52v52h-52v-52z"/></defs><defs><path id="m" d="M132.4-79.3h-1.5v12h12v-12h-10.5zm0 3h9l-1.5-1.5v9l1.5-1.5h-9l1.5 1.5v-9l-1.5 1.5zm-21.5-23h52v52h-52v-52z"/></defs><defs><path id="n" d="M161.4-79.3h-1.5v12h12v-12h-10.5zm0 3h9l-1.5-1.5v9l1.5-1.5h-9l1.5 1.5v-9l-1.5 1.5zm-21.5-23h52v52h-52v-52z"/></defs><defs><path id="o" d="M683.4-451.3h-1.5v84h108v-84H683.4zm0 3h105l-1.5-1.5v81l1.5-1.5h-105l1.5 1.5v-81l-1.5 1.5zm-21.5-23h148v124h-148v-124z"/></defs><defs><path id="p" d="M677.4-434.3h-2.2l.9-2.1 9.1-22 .4-.9h100.9l.4.9 9.1 22 .9 2.1H677.4zm0-3h117l-1.4 2.1-9.1-22 1.4.9h-98.9l1.4-.9-9.1 22-1.3-2.1zm-22.3 23h161.5v-65H655.1v65z"/></defs><defs><path id="q" d="M762.4-467.3h-1.5v19h15v-19h-13.5zm0 3h12l-1.5-1.5v16l1.5-1.5h-12l1.5 1.5v-16l-1.5 1.5zm-21.5-23h55v59h-55v-59z"/></defs><defs><path id="r" d="M696.4-401.3h-1.5v34h24v-34h-22.5zm0 3h21l-1.5-1.5v31l1.5-1.5h-21l1.5 1.5v-31l-1.5 1.5zm-21.5-23h64v74h-64v-74z"/></defs><defs><path id="s" d="M697.4-429.3h-1.5v22h22v-22h-20.5zm0 3h19l-1.5-1.5v19l1.5-1.5h-19l1.5 1.5v-19l-1.5 1.5zm-21.5-23h62v62h-62v-62z"/></defs><defs><path id="t" d="M702.4-424.3h-1.5v12h12v-12h-10.5zm0 3h9l-1.5-1.5v9l1.5-1.5h-9l1.5 1.5v-9l-1.5 1.5zm-21.5-23h52v52h-52v-52z"/></defs><defs><path id="u" d="M727.4-429.3h-1.5v22h22v-22h-20.5zm0 3h19l-1.5-1.5v19l1.5-1.5h-19l1.5 1.5v-19l-1.5 1.5zm-21.5-23h62v62h-62v-62z"/></defs><defs><path id="v" d="M756.4-429.3h-1.5v22h22v-22h-20.5zm0 3h19l-1.5-1.5v19l1.5-1.5h-19l1.5 1.5v-19l-1.5 1.5zm-21.5-23h62v62h-62v-62z"/></defs><defs><path id="w" d="M727.4-401.3h-1.5v22h22v-22h-20.5zm0 3h19l-1.5-1.5v19l1.5-1.5h-19l1.5 1.5v-19l-1.5 1.5zm-21.5-23h62v62h-62v-62z"/></defs><defs><path id="x" d="M756.4-401.3h-1.5v22h22v-22h-20.5zm0 3h19l-1.5-1.5v19l1.5-1.5h-19l1.5 1.5v-19l-1.5 1.5zm-21.5-23h62v62h-62v-62z"/></defs><defs><path id="y" d="M732.4-424.3h-1.5v12h12v-12h-10.5zm0 3h9l-1.5-1.5v9l1.5-1.5h-9l1.5 1.5v-9l-1.5 1.5zm-21.5-23h52v52h-52v-52z"/></defs><defs><path id="z" d="M761.4-424.3h-1.5v12h12v-12h-10.5zm0 3h9l-1.5-1.5v9l1.5-1.5h-9l1.5 1.5v-9l-1.5 1.5zm-21.5-23h52v52h-52v-52z"/></defs><defs><path id="A" d="M732.4-396.3h-1.5v12h12v-12h-10.5zm0 3h9l-1.5-1.5v9l1.5-1.5h-9l1.5 1.5v-9l-1.5 1.5zm-21.5-23h52v52h-52v-52z"/></defs><defs><path id="B" d="M761.4-396.3h-1.5v12h12v-12h-10.5zm0 3h9l-1.5-1.5v9l1.5-1.5h-9l1.5 1.5v-9l-1.5 1.5zm-21.5-23h52v52h-52v-52z"/></defs><path fill="#FFF" d="M187.5 66.2c-1.4-21.2-21.6-38-46.3-38S96.3 45 94.9 66.2h92.6z"/><path fill="#0C1F2E" d="M189.1 67.8H93.2l.1-1.6c1.5-22.1 22.5-39.4 47.8-39.4s46.3 17.3 47.8 39.4l.2 1.6zm-92.6-3h89.3c-2.3-19.8-21.5-35-44.7-35S98.7 45 96.5 64.8z"/><path fill="#FFF" d="M175.5 60c-1.8-5.4-5.3-10.2-9.9-14"/><path fill="#0C1F2E" d="M175.5 61.5c-.6 0-1.2-.4-1.4-1-1.7-5.1-4.9-9.7-9.4-13.3-.6-.5-.7-1.5-.2-2.1s1.5-.7 2.1-.2c4.9 4 8.4 9.1 10.3 14.7.3.8-.2 1.6-.9 1.9h-.5z"/><path fill="#FFF" d="M156.9 40.8c-4.8-2.1-10.3-3.3-16-3.3-4.4 0-8.6.7-12.5 1.9"/><path fill="#0C1F2E" d="M156.9 42.3c-.2 0-.4 0-.6-.1-4.8-2.1-10-3.1-15.4-3.1-4.1 0-8.2.6-12 1.9-.8.3-1.6-.2-1.9-1-.3-.8.2-1.6 1-1.9 4.1-1.3 8.5-2 12.9-2 5.8 0 11.4 1.1 16.6 3.4.8.3 1.1 1.2.8 2-.3.4-.8.8-1.4.8z"/><path fill="#FFF" d="M118.8 44.1c-5.5 3.8-9.8 8.9-12.1 14.8"/><path fill="#0C1F2E" d="M106.7 60.4c-.2 0-.4 0-.5-.1-.8-.3-1.2-1.2-.9-1.9 2.4-6.2 6.7-11.5 12.6-15.5.7-.5 1.6-.3 2.1.4s.3 1.6-.4 2.1c-5.4 3.6-9.4 8.5-11.5 14.1-.2.5-.8.9-1.4.9z"/><path fill="#FFF" d="M161.7 59.8c-1.1-3.2-3.1-6.1-5.9-8.3"/><path fill="#0C1F2E" d="M161.7 61.3c-.6 0-1.2-.4-1.4-1-1-2.9-2.8-5.5-5.4-7.6-.6-.5-.7-1.5-.2-2.1.5-.6 1.5-.7 2.1-.2 3 2.5 5.2 5.6 6.3 9 .3.8-.2 1.6-.9 1.9h-.5z"/><path fill="#FFF" d="M150.6 48.3c-2.9-1.2-6.1-1.9-9.5-1.9-2.6 0-5.1.4-7.4 1.2"/><path fill="#0C1F2E" d="M150.6 49.8c-.2 0-.4 0-.6-.1-2.8-1.2-5.8-1.8-8.9-1.8-2.4 0-4.7.4-7 1.1-.8.3-1.6-.2-1.9-1-.3-.8.2-1.6 1-1.9 2.5-.8 5.2-1.2 7.9-1.2 3.6 0 7 .7 10.1 2.1.8.3 1.1 1.2.8 2-.3.5-.8.8-1.4.8z"/><path fill="#FFF" d="M127.9 50.3c-3.3 2.2-5.8 5.3-7.2 8.8"/><path fill="#0C1F2E" d="M120.7 60.6c-.2 0-.4 0-.5-.1-.8-.3-1.2-1.2-.9-1.9 1.5-3.8 4.1-7.1 7.8-9.5.7-.5 1.6-.3 2.1.4s.3 1.6-.4 2.1c-3.1 2.1-5.4 4.9-6.6 8.1-.3.5-.9.9-1.5.9z"/><path fill="#FFF" d="M136.1 66.7s-.9 12.3 8.3 12.3h8.2s6.4.4 6.4 7.1c0 0 .1 9.6 13.8 9.6 15.2 0 14.7-29.2 14.7-29.2l-51.4.2z"/><path fill="#0C1F2E" d="M172.8 97c-12 0-15.2-7.3-15.3-11.2 0-4.9-4.2-5.7-4.9-5.8h-8.1c-2.7 0-5-.9-6.7-2.7-3.6-3.9-3.2-10.6-3.2-10.9l.1-1.4 54.2-.2v1.5c0 .8.2 19.2-7.6 27.1-2.3 2.4-5.2 3.6-8.5 3.6zm-35.2-29c.1 1.9.5 5.2 2.4 7.3 1.1 1.2 2.6 1.8 4.5 1.8h8.3c2.7.3 7.7 2.5 7.7 8.8 0 .3.3 8.2 12.3 8.2 2.5 0 4.6-.9 6.4-2.8 5.8-5.9 6.6-19.1 6.7-23.5l-48.3.2z"/><path fill="#0C1F2E" d="M126.5 105.3l.6-2.6c0-.2 4.2-19.5-1.9-34.1-.3-.8 0-1.6.8-2 .8-.3 1.6 0 2 .8 5.2 12.4 3.5 27.4 2.6 33.3L161 90.2c.8-.3 1.6.1 1.9.9.3.8-.1 1.6-.9 1.9l-35.5 12.3z"/><circle fill="#0C1F2E" cx="128.6" cy="104.1" r="4.1"/><defs><path id="C" d="M-225.5 184.5h-1.5v90h134v-90h-132.5zm0 3h131L-96 186v87l1.5-1.5h-131l1.5 1.5v-87l-1.5 1.5zm-21.5-23h174v130h-174v-130z"/></defs><defs><path id="D" d="M-220.5 189.5h-1.5v80h124v-80h-122.5zm0 3h121l-1.5-1.5v77l1.5-1.5h-121l1.5 1.5v-77l-1.5 1.5zm-21.5-23h164v120h-164v-120z"/></defs><defs><path id="E" d="M-155.5 204.5h-1.5v6h47v-6h-45.5zm0 3h44l-1.5-1.5v3l1.5-1.5h-44l1.5 1.5v-3l-1.5 1.5zm-21.5-23h87v46h-87v-46z"/></defs><defs><path id="F" d="M-155.5 210.5h-1.5v6h47v-6h-45.5zm0 3h44l-1.5-1.5v3l1.5-1.5h-44l1.5 1.5v-3l-1.5 1.5zm-21.5-23h87v46h-87v-46z"/></defs><defs><path id="G" d="M-155.5 216.5h-1.5v6h47v-6h-45.5zm0 3h44l-1.5-1.5v3l1.5-1.5h-44l1.5 1.5v-3l-1.5 1.5zm-21.5-23h87v46h-87v-46z"/></defs><defs><path id="H" d="M-155.5 222.5h-1.5v6h47v-6h-45.5zm0 3h44l-1.5-1.5v3l1.5-1.5h-44l1.5 1.5v-3l-1.5 1.5zm-21.5-23h87v46h-87v-46z"/></defs><defs><path id="I" d="M68.1 184.5h-1.5v90h134v-90H68.1zm0 3h131l-1.5-1.5v87l1.5-1.5h-131l1.5 1.5v-87l-1.5 1.5zm-21.5-23h174v130h-174v-130z"/></defs><defs><path id="J" d="M73.1 189.5h-1.5v80h124v-80H73.1zm0 3h121l-1.5-1.5v77l1.5-1.5h-121l1.5 1.5v-77l-1.5 1.5zm-21.5-23h164v120h-164v-120z"/></defs><defs><path id="K" d="M138.1 204.5h-1.5v6h47v-6h-45.5zm0 3h44l-1.5-1.5v3l1.5-1.5h-44l1.5 1.5v-3l-1.5 1.5zm-21.5-23h87v46h-87v-46z"/></defs><defs><path id="L" d="M138.1 210.5h-1.5v6h47v-6h-45.5zm0 3h44l-1.5-1.5v3l1.5-1.5h-44l1.5 1.5v-3l-1.5 1.5zm-21.5-23h87v46h-87v-46z"/></defs><defs><path id="M" d="M138.1 216.5h-1.5v6h47v-6h-45.5zm0 3h44l-1.5-1.5v3l1.5-1.5h-44l1.5 1.5v-3l-1.5 1.5zm-21.5-23h87v46h-87v-46z"/></defs><defs><path id="N" d="M138.1 222.5h-1.5v6h47v-6h-45.5zm0 3h44l-1.5-1.5v3l1.5-1.5h-44l1.5 1.5v-3l-1.5 1.5zm-21.5-23h87v46h-87v-46z"/></defs></svg>