<svg xmlns="http://www.w3.org/2000/svg" xmlns:xlink="http://www.w3.org/1999/xlink" viewBox="0 0 276 137"><path fill="#FFF" d="M80.7 27h119.7v87.9H80.7z"/><path fill="#091F2F" d="M201.9 116.4H79.2V25.5h122.7v90.9zm-119.7-3h116.7V28.5H82.2v84.9z"/><path fill="#091F2F" d="M135 46h47v3h-47zm0 12h47v3h-47zm0 12h47v3h-47zm0 12h47v3h-47zm0 12h47v3h-47z"/><defs><path id="a" d="M-212.6-295.3h-1.5v84h108v-84h-106.5zm0 3h105l-1.5-1.5v81l1.5-1.5h-105l1.5 1.5v-81l-1.5 1.5zm-21.5-23h148v124h-148v-124z"/></defs><clipPath id="b"><use xlink:href="#a" overflow="visible"/></clipPath><g clip-path="url(#b)"><defs><path id="c" d="M-212.6-293.8h105v81h-105z"/></defs></g><defs><path id="d" d="M-212.6-293.8h105v81h-105z"/></defs><defs><path id="e" d="M-218.6-278.3h-2.2l.9-2.1 9.1-22 .4-.9h100.9l.4.9 9.1 22 .9 2.1h-119.5zm0-3h117l-1.4 2.1-9.1-22 1.4.9h-98.9l1.4-.9-9.1 22-1.3-2.1zm-22.3 23h161.5v-65h-161.5v65z"/></defs><clipPath id="f"><use xlink:href="#e" overflow="visible"/></clipPath><g clip-path="url(#f)"><defs><path id="g" d="M-218.6-279.8h117l-9.1-22h-98.8z"/></defs></g><defs><path id="h" d="M-218.6-279.8h117l-9.1-22h-98.8z"/></defs><defs><path id="i" d="M-133.6-311.3h-1.5v19h15v-19h-13.5zm0 3h12l-1.5-1.5v16l1.5-1.5h-12l1.5 1.5v-16l-1.5 1.5zm-21.5-23h55v59h-55v-59z"/></defs><clipPath id="j"><use xlink:href="#i" overflow="visible"/></clipPath><g clip-path="url(#j)"><defs><path id="k" d="M-133.6-309.8h12v16h-12z"/></defs></g><defs><path id="l" d="M-133.6-309.8h12v16h-12z"/></defs><defs><path id="m" d="M-199.6-245.3h-1.5v34h24v-34h-22.5zm0 3h21l-1.5-1.5v31l1.5-1.5h-21l1.5 1.5v-31l-1.5 1.5zm-21.5-23h64v74h-64v-74z"/></defs><clipPath id="n"><use xlink:href="#m" overflow="visible"/></clipPath><g clip-path="url(#n)"><defs><path id="o" d="M-199.6-243.8h21v31h-21z"/></defs></g><defs><path id="p" d="M-199.6-243.8h21v31h-21z"/></defs><defs><path id="q" d="M-198.6-273.3h-1.5v22h22v-22h-20.5zm0 3h19l-1.5-1.5v19l1.5-1.5h-19l1.5 1.5v-19l-1.5 1.5zm-21.5-23h62v62h-62v-62z"/></defs><clipPath id="r"><use xlink:href="#q" overflow="visible"/></clipPath><g clip-path="url(#r)"><defs><path id="s" d="M-198.6-271.8h19v19h-19z"/></defs></g><defs><path id="t" d="M-198.6-271.8h19v19h-19z"/></defs><defs><path id="u" d="M-193.6-268.3h-1.5v12h12v-12h-10.5zm0 3h9l-1.5-1.5v9l1.5-1.5h-9l1.5 1.5v-9l-1.5 1.5zm-21.5-23h52v52h-52v-52z"/></defs><clipPath id="v"><use xlink:href="#u" overflow="visible"/></clipPath><g clip-path="url(#v)"><defs><path id="w" d="M-193.6-266.8h9v9h-9z"/></defs></g><defs><path id="x" d="M-193.6-266.8h9v9h-9z"/></defs><defs><path id="y" d="M-168.6-273.3h-1.5v22h22v-22h-20.5zm0 3h19l-1.5-1.5v19l1.5-1.5h-19l1.5 1.5v-19l-1.5 1.5zm-21.5-23h62v62h-62v-62z"/></defs><clipPath id="z"><use xlink:href="#y" overflow="visible"/></clipPath><g clip-path="url(#z)"><defs><path id="A" d="M-168.6-271.8h19v19h-19z"/></defs></g><defs><path id="B" d="M-168.6-271.8h19v19h-19z"/></defs><defs><path id="C" d="M-139.6-273.3h-1.5v22h22v-22h-20.5zm0 3h19l-1.5-1.5v19l1.5-1.5h-19l1.5 1.5v-19l-1.5 1.5zm-21.5-23h62v62h-62v-62z"/></defs><clipPath id="D"><use xlink:href="#C" overflow="visible"/></clipPath><g clip-path="url(#D)"><defs><path id="E" d="M-139.6-271.8h19v19h-19z"/></defs></g><defs><path id="F" d="M-139.6-271.8h19v19h-19z"/></defs><defs><path id="G" d="M-168.6-245.3h-1.5v22h22v-22h-20.5zm0 3h19l-1.5-1.5v19l1.5-1.5h-19l1.5 1.5v-19l-1.5 1.5zm-21.5-23h62v62h-62v-62z"/></defs><clipPath id="H"><use xlink:href="#G" overflow="visible"/></clipPath><g clip-path="url(#H)"><defs><path id="I" d="M-168.6-243.8h19v19h-19z"/></defs></g><defs><path id="J" d="M-168.6-243.8h19v19h-19z"/></defs><defs><path id="K" d="M-139.6-245.3h-1.5v22h22v-22h-20.5zm0 3h19l-1.5-1.5v19l1.5-1.5h-19l1.5 1.5v-19l-1.5 1.5zm-21.5-23h62v62h-62v-62z"/></defs><clipPath id="L"><use xlink:href="#K" overflow="visible"/></clipPath><g clip-path="url(#L)"><defs><path id="M" d="M-139.6-243.8h19v19h-19z"/></defs></g><defs><path id="N" d="M-139.6-243.8h19v19h-19z"/></defs><defs><path id="O" d="M-163.6-268.3h-1.5v12h12v-12h-10.5zm0 3h9l-1.5-1.5v9l1.5-1.5h-9l1.5 1.5v-9l-1.5 1.5zm-21.5-23h52v52h-52v-52z"/></defs><clipPath id="P"><use xlink:href="#O" overflow="visible"/></clipPath><g clip-path="url(#P)"><defs><path id="Q" d="M-163.6-266.8h9v9h-9z"/></defs></g><defs><path id="R" d="M-163.6-266.8h9v9h-9z"/></defs><defs><path id="S" d="M-134.6-268.3h-1.5v12h12v-12h-10.5zm0 3h9l-1.5-1.5v9l1.5-1.5h-9l1.5 1.5v-9l-1.5 1.5zm-21.5-23h52v52h-52v-52z"/></defs><clipPath id="T"><use xlink:href="#S" overflow="visible"/></clipPath><g clip-path="url(#T)"><defs><path id="U" d="M-134.6-266.8h9v9h-9z"/></defs></g><defs><path id="V" d="M-134.6-266.8h9v9h-9z"/></defs><defs><path id="W" d="M-163.6-240.3h-1.5v12h12v-12h-10.5zm0 3h9l-1.5-1.5v9l1.5-1.5h-9l1.5 1.5v-9l-1.5 1.5zm-21.5-23h52v52h-52v-52z"/></defs><clipPath id="X"><use xlink:href="#W" overflow="visible"/></clipPath><g clip-path="url(#X)"><defs><path id="Y" d="M-163.6-238.8h9v9h-9z"/></defs></g><defs><path id="Z" d="M-163.6-238.8h9v9h-9z"/></defs><defs><path id="aa" d="M-134.6-240.3h-1.5v12h12v-12h-10.5zm0 3h9l-1.5-1.5v9l1.5-1.5h-9l1.5 1.5v-9l-1.5 1.5zm-21.5-23h52v52h-52v-52z"/></defs><clipPath id="ab"><use xlink:href="#aa" overflow="visible"/></clipPath><g clip-path="url(#ab)"><defs><path id="ac" d="M-134.6-238.8h9v9h-9z"/></defs></g><defs><path id="ad" d="M-134.6-238.8h9v9h-9z"/></defs><defs><path id="ae" d="M-227.9 23.5h-1.5v90h134v-90h-132.5zm0 3h131l-1.5-1.5v87l1.5-1.5h-131l1.5 1.5V25l-1.5 1.5zm-21.5-23h174v130h-174V3.5z"/></defs><clipPath id="af"><use xlink:href="#ae" overflow="visible"/></clipPath><g clip-path="url(#af)"><defs><path id="ag" d="M-227.9 25h131v87h-131z"/></defs></g><defs><path id="ah" d="M-227.9 25h131v87h-131z"/></defs><defs><path id="ai" d="M-222.9 28.5h-1.5v80h124v-80h-122.5zm0 3h121l-1.5-1.5v77l1.5-1.5h-121l1.5 1.5V30l-1.5 1.5zm-21.5-23h164v120h-164V8.5z"/></defs><clipPath id="aj"><use xlink:href="#ai" overflow="visible"/></clipPath><g clip-path="url(#aj)"><defs><path id="ak" d="M-222.9 30h121v77h-121z"/></defs></g><defs><path id="al" d="M-222.9 30h121v77h-121z"/></defs><defs><path id="am" d="M-157.9 43.5h-1.5v6h47v-6h-45.5zm0 3h44l-1.5-1.5v3l1.5-1.5h-44l1.5 1.5v-3l-1.5 1.5zm-21.5-23h87v46h-87v-46z"/></defs><clipPath id="an"><use xlink:href="#am" overflow="visible"/></clipPath><g clip-path="url(#an)"><defs><path id="ao" d="M-157.9 45h44v3h-44z"/></defs></g><defs><path id="ap" d="M-157.9 45h44v3h-44z"/></defs><defs><path id="aq" d="M-157.9 49.5h-1.5v6h47v-6h-45.5zm0 3h44l-1.5-1.5v3l1.5-1.5h-44l1.5 1.5v-3l-1.5 1.5zm-21.5-23h87v46h-87v-46z"/></defs><clipPath id="ar"><use xlink:href="#aq" overflow="visible"/></clipPath><g clip-path="url(#ar)"><defs><path id="as" d="M-157.9 51h44v3h-44z"/></defs></g><defs><path id="at" d="M-157.9 51h44v3h-44z"/></defs><g><defs><path id="au" d="M-157.9 55.5h-1.5v6h47v-6h-45.5zm0 3h44l-1.5-1.5v3l1.5-1.5h-44l1.5 1.5v-3l-1.5 1.5zm-21.5-23h87v46h-87v-46z"/></defs><clipPath id="av"><use xlink:href="#au" overflow="visible"/></clipPath><g clip-path="url(#av)"><defs><path id="aw" d="M-157.9 57h44v3h-44z"/></defs></g></g><g><defs><path id="ax" d="M-157.9 57h44v3h-44z"/></defs></g><g><defs><path id="ay" d="M-157.9 61.5h-1.5v6h47v-6h-45.5zm0 3h44l-1.5-1.5v3l1.5-1.5h-44l1.5 1.5v-3l-1.5 1.5zm-21.5-23h87v46h-87v-46z"/></defs><clipPath id="az"><use xlink:href="#ay" overflow="visible"/></clipPath><g clip-path="url(#az)"><defs><path id="aA" d="M-157.9 63h44v3h-44z"/></defs></g></g><g><defs><path id="aB" d="M-157.9 63h44v3h-44z"/></defs></g><g><path fill="#0C1F2E" d="M120.1 91c-.3-1.8-1-3.5-1.7-5.3-.3-.7-.6-1.4-1.1-2-.4-.5-.8-.9-1.2-1.4-4.1-4.7-5-12.8-.7-17.7 1.7-2 1.6-7.2 0-9.2-.8-1-2-1.6-3.2-2.1-4.1-1.5-8.9-1.3-12.9.6-2.5 1.2-3.7 2.7-4 5.4-1.5 13.1 5.3 41.4 17.6 41.4 3 0 5.4-2.2 6.5-4.9.8-1.6.9-3.2.7-4.8z"/></g><g><ellipse transform="rotate(34.386 118.151 48.032)" fill="#0C1F2E" cx="118.2" cy="48" rx="3.2" ry="4.4"/></g><g><ellipse transform="rotate(19.881 111.01 46.555)" fill="#0C1F2E" cx="111" cy="46.6" rx="2.1" ry="2.8"/></g><g><ellipse transform="rotate(8.583 105.263 46.468)" fill="#0C1F2E" cx="105.3" cy="46.5" rx="2.1" ry="2.8"/></g><g><ellipse transform="rotate(-13.639 99.556 47.887)" fill="#0C1F2E" cx="99.5" cy="47.9" rx="2.1" ry="2.8"/></g><g><ellipse transform="rotate(-22.382 94.858 51.887)" fill="#0C1F2E" cx="94.9" cy="51.9" rx="1.9" ry="2.6"/></g></svg>