<svg xmlns="http://www.w3.org/2000/svg" viewBox="0 0 276 137"><path fill="#FFF" d="M80.7 27h119.7v87.9H80.7z"/><path fill="#091F2F" d="M201.9 116.4H79.2V25.5h122.7v90.9zm-119.7-3h116.7V28.5H82.2v84.9z"/><path fill="#091F2F" d="M135 46h47v3h-47zm0 12h47v3h-47zm0 12h47v3h-47zm0 12h47v3h-47zm0 12h47v3h-47z"/><defs><path id="a" d="M-212.6-295.3h-1.5v84h108v-84h-106.5zm0 3h105l-1.5-1.5v81l1.5-1.5h-105l1.5 1.5v-81l-1.5 1.5zm-21.5-23h148v124h-148v-124z"/></defs><defs><path id="b" d="M-218.6-278.3h-2.2l.9-2.1 9.1-22 .4-.9h100.9l.4.9 9.1 22 .9 2.1h-119.5zm0-3h117l-1.4 2.1-9.1-22 1.4.9h-98.9l1.4-.9-9.1 22-1.3-2.1zm-22.3 23h161.5v-65h-161.5v65z"/></defs><defs><path id="c" d="M-133.6-311.3h-1.5v19h15v-19h-13.5zm0 3h12l-1.5-1.5v16l1.5-1.5h-12l1.5 1.5v-16l-1.5 1.5zm-21.5-23h55v59h-55v-59z"/></defs><defs><path id="d" d="M-199.6-245.3h-1.5v34h24v-34h-22.5zm0 3h21l-1.5-1.5v31l1.5-1.5h-21l1.5 1.5v-31l-1.5 1.5zm-21.5-23h64v74h-64v-74z"/></defs><defs><path id="e" d="M-198.6-273.3h-1.5v22h22v-22h-20.5zm0 3h19l-1.5-1.5v19l1.5-1.5h-19l1.5 1.5v-19l-1.5 1.5zm-21.5-23h62v62h-62v-62z"/></defs><defs><path id="f" d="M-193.6-268.3h-1.5v12h12v-12h-10.5zm0 3h9l-1.5-1.5v9l1.5-1.5h-9l1.5 1.5v-9l-1.5 1.5zm-21.5-23h52v52h-52v-52z"/></defs><defs><path id="g" d="M-168.6-273.3h-1.5v22h22v-22h-20.5zm0 3h19l-1.5-1.5v19l1.5-1.5h-19l1.5 1.5v-19l-1.5 1.5zm-21.5-23h62v62h-62v-62z"/></defs><defs><path id="h" d="M-139.6-273.3h-1.5v22h22v-22h-20.5zm0 3h19l-1.5-1.5v19l1.5-1.5h-19l1.5 1.5v-19l-1.5 1.5zm-21.5-23h62v62h-62v-62z"/></defs><defs><path id="i" d="M-168.6-245.3h-1.5v22h22v-22h-20.5zm0 3h19l-1.5-1.5v19l1.5-1.5h-19l1.5 1.5v-19l-1.5 1.5zm-21.5-23h62v62h-62v-62z"/></defs><defs><path id="j" d="M-139.6-245.3h-1.5v22h22v-22h-20.5zm0 3h19l-1.5-1.5v19l1.5-1.5h-19l1.5 1.5v-19l-1.5 1.5zm-21.5-23h62v62h-62v-62z"/></defs><defs><path id="k" d="M-163.6-268.3h-1.5v12h12v-12h-10.5zm0 3h9l-1.5-1.5v9l1.5-1.5h-9l1.5 1.5v-9l-1.5 1.5zm-21.5-23h52v52h-52v-52z"/></defs><defs><path id="l" d="M-134.6-268.3h-1.5v12h12v-12h-10.5zm0 3h9l-1.5-1.5v9l1.5-1.5h-9l1.5 1.5v-9l-1.5 1.5zm-21.5-23h52v52h-52v-52z"/></defs><defs><path id="m" d="M-163.6-240.3h-1.5v12h12v-12h-10.5zm0 3h9l-1.5-1.5v9l1.5-1.5h-9l1.5 1.5v-9l-1.5 1.5zm-21.5-23h52v52h-52v-52z"/></defs><defs><path id="n" d="M-134.6-240.3h-1.5v12h12v-12h-10.5zm0 3h9l-1.5-1.5v9l1.5-1.5h-9l1.5 1.5v-9l-1.5 1.5zm-21.5-23h52v52h-52v-52z"/></defs><defs><path id="o" d="M-227.9 23.5h-1.5v90h134v-90h-132.5zm0 3h131l-1.5-1.5v87l1.5-1.5h-131l1.5 1.5V25l-1.5 1.5zm-21.5-23h174v130h-174V3.5z"/></defs><defs><path id="p" d="M-222.9 28.5h-1.5v80h124v-80h-122.5zm0 3h121l-1.5-1.5v77l1.5-1.5h-121l1.5 1.5V30l-1.5 1.5zm-21.5-23h164v120h-164V8.5z"/></defs><defs><path id="q" d="M-157.9 43.5h-1.5v6h47v-6h-45.5zm0 3h44l-1.5-1.5v3l1.5-1.5h-44l1.5 1.5v-3l-1.5 1.5zm-21.5-23h87v46h-87v-46z"/></defs><defs><path id="r" d="M-157.9 49.5h-1.5v6h47v-6h-45.5zm0 3h44l-1.5-1.5v3l1.5-1.5h-44l1.5 1.5v-3l-1.5 1.5zm-21.5-23h87v46h-87v-46z"/></defs><defs><path id="s" d="M-157.9 55.5h-1.5v6h47v-6h-45.5zm0 3h44l-1.5-1.5v3l1.5-1.5h-44l1.5 1.5v-3l-1.5 1.5zm-21.5-23h87v46h-87v-46z"/></defs><defs><path id="t" d="M-157.9 61.5h-1.5v6h47v-6h-45.5zm0 3h44l-1.5-1.5v3l1.5-1.5h-44l1.5 1.5v-3l-1.5 1.5zm-21.5-23h87v46h-87v-46z"/></defs><path fill="#0C1F2E" d="M120.1 91c-.3-1.8-1-3.5-1.7-5.3-.3-.7-.6-1.4-1.1-2-.4-.5-.8-.9-1.2-1.4-4.1-4.7-5-12.8-.7-17.7 1.7-2 1.6-7.2 0-9.2-.8-1-2-1.6-3.2-2.1-4.1-1.5-8.9-1.3-12.9.6-2.5 1.2-3.7 2.7-4 5.4-1.5 13.1 5.3 41.4 17.6 41.4 3 0 5.4-2.2 6.5-4.9.8-1.6.9-3.2.7-4.8z"/><ellipse transform="rotate(34.386 118.151 48.032)" fill="#0C1F2E" cx="118.2" cy="48" rx="3.2" ry="4.4"/><ellipse transform="rotate(19.881 111.01 46.555)" fill="#0C1F2E" cx="111" cy="46.6" rx="2.1" ry="2.8"/><ellipse transform="rotate(8.583 105.263 46.468)" fill="#0C1F2E" cx="105.3" cy="46.5" rx="2.1" ry="2.8"/><ellipse transform="rotate(-13.639 99.556 47.887)" fill="#0C1F2E" cx="99.5" cy="47.9" rx="2.1" ry="2.8"/><ellipse transform="rotate(-22.382 94.858 51.887)" fill="#0C1F2E" cx="94.9" cy="51.9" rx="1.9" ry="2.6"/></svg>