<svg xmlns="http://www.w3.org/2000/svg" xmlns:xlink="http://www.w3.org/1999/xlink" viewBox="0 0 276 137"><path fill="#FFF" d="M80.7 27h119.7v87.9H80.7z"/><path fill="#091F2F" d="M201.9 116.4H79.2V25.5h122.7v90.9zm-119.7-3h116.7V28.5H82.2v84.9z"/><path fill="#091F2F" d="M135 46h47v3h-47zM135 58h47v3h-47zM135 70h47v3h-47zM135 82h47v3h-47zM135 94h47v3h-47z"/><defs><path id="a" d="M-212.6-295.3h-1.5v84h108v-84h-106.5zm0 3h105l-1.5-1.5v81l1.5-1.5h-105l1.5 1.5v-81l-1.5 1.5zm-21.5-23h148v124h-148v-124z"/></defs><clipPath id="b"><use xlink:href="#a" overflow="visible"/></clipPath><g clip-path="url(#b)"><defs><path id="c" d="M-212.6-293.8h105v81h-105z"/></defs><clipPath id="d"><use xlink:href="#c" overflow="visible"/></clipPath><g clip-path="url(#d)"><defs><path id="e" d="M-1093.6-792.8h1121v1030h-1121z"/></defs></g></g><defs><path id="f" d="M-212.6-293.8h105v81h-105z"/></defs><clipPath id="g"><use xlink:href="#f" overflow="visible"/></clipPath><g clip-path="url(#g)"><defs><path id="h" d="M-1093.6-792.8h1121v1030h-1121z"/></defs></g><defs><path id="i" d="M-218.6-278.3h-2.2l.9-2.1 9.1-22 .4-.9h100.9l.4.9 9.1 22 .9 2.1h-119.5zm0-3h117l-1.4 2.1-9.1-22 1.4.9h-98.9l1.4-.9-9.1 22-1.3-2.1zm-22.3 23h161.5v-65h-161.5v65z"/></defs><clipPath id="j"><use xlink:href="#i" overflow="visible"/></clipPath><g clip-path="url(#j)"><defs><path id="k" d="M-218.6-279.8h117l-9.1-22h-98.8z"/></defs><clipPath id="l"><use xlink:href="#k" overflow="visible"/></clipPath><g clip-path="url(#l)"><defs><path id="m" d="M-1093.6-792.8h1121v1030h-1121z"/></defs></g></g><defs><path id="n" d="M-218.6-279.8h117l-9.1-22h-98.8z"/></defs><clipPath id="o"><use xlink:href="#n" overflow="visible"/></clipPath><g clip-path="url(#o)"><defs><path id="p" d="M-1093.6-792.8h1121v1030h-1121z"/></defs></g><defs><path id="q" d="M-133.6-311.3h-1.5v19h15v-19h-13.5zm0 3h12l-1.5-1.5v16l1.5-1.5h-12l1.5 1.5v-16l-1.5 1.5zm-21.5-23h55v59h-55v-59z"/></defs><clipPath id="r"><use xlink:href="#q" overflow="visible"/></clipPath><g clip-path="url(#r)"><defs><path id="s" d="M-133.6-309.8h12v16h-12z"/></defs><clipPath id="t"><use xlink:href="#s" overflow="visible"/></clipPath><g clip-path="url(#t)"><defs><path id="u" d="M-1093.6-792.8h1121v1030h-1121z"/></defs></g></g><defs><path id="v" d="M-133.6-309.8h12v16h-12z"/></defs><clipPath id="w"><use xlink:href="#v" overflow="visible"/></clipPath><g clip-path="url(#w)"><defs><path id="x" d="M-1093.6-792.8h1121v1030h-1121z"/></defs></g><defs><path id="y" d="M-199.6-245.3h-1.5v34h24v-34h-22.5zm0 3h21l-1.5-1.5v31l1.5-1.5h-21l1.5 1.5v-31l-1.5 1.5zm-21.5-23h64v74h-64v-74z"/></defs><clipPath id="z"><use xlink:href="#y" overflow="visible"/></clipPath><g clip-path="url(#z)"><defs><path id="A" d="M-199.6-243.8h21v31h-21z"/></defs><clipPath id="B"><use xlink:href="#A" overflow="visible"/></clipPath><g clip-path="url(#B)"><defs><path id="C" d="M-1093.6-792.8h1121v1030h-1121z"/></defs></g></g><defs><path id="D" d="M-199.6-243.8h21v31h-21z"/></defs><clipPath id="E"><use xlink:href="#D" overflow="visible"/></clipPath><g clip-path="url(#E)"><defs><path id="F" d="M-1093.6-792.8h1121v1030h-1121z"/></defs></g><defs><path id="G" d="M-198.6-273.3h-1.5v22h22v-22h-20.5zm0 3h19l-1.5-1.5v19l1.5-1.5h-19l1.5 1.5v-19l-1.5 1.5zm-21.5-23h62v62h-62v-62z"/></defs><clipPath id="H"><use xlink:href="#G" overflow="visible"/></clipPath><g clip-path="url(#H)"><defs><path id="I" d="M-198.6-271.8h19v19h-19z"/></defs><clipPath id="J"><use xlink:href="#I" overflow="visible"/></clipPath><g clip-path="url(#J)"><defs><path id="K" d="M-1093.6-792.8h1121v1030h-1121z"/></defs></g></g><defs><path id="L" d="M-198.6-271.8h19v19h-19z"/></defs><clipPath id="M"><use xlink:href="#L" overflow="visible"/></clipPath><g clip-path="url(#M)"><defs><path id="N" d="M-1093.6-792.8h1121v1030h-1121z"/></defs></g><defs><path id="O" d="M-193.6-268.3h-1.5v12h12v-12h-10.5zm0 3h9l-1.5-1.5v9l1.5-1.5h-9l1.5 1.5v-9l-1.5 1.5zm-21.5-23h52v52h-52v-52z"/></defs><clipPath id="P"><use xlink:href="#O" overflow="visible"/></clipPath><g clip-path="url(#P)"><defs><path id="Q" d="M-193.6-266.8h9v9h-9z"/></defs><clipPath id="R"><use xlink:href="#Q" overflow="visible"/></clipPath><g clip-path="url(#R)"><defs><path id="S" d="M-1093.6-792.8h1121v1030h-1121z"/></defs></g></g><defs><path id="T" d="M-193.6-266.8h9v9h-9z"/></defs><clipPath id="U"><use xlink:href="#T" overflow="visible"/></clipPath><g clip-path="url(#U)"><defs><path id="V" d="M-1093.6-792.8h1121v1030h-1121z"/></defs></g><defs><path id="W" d="M-168.6-273.3h-1.5v22h22v-22h-20.5zm0 3h19l-1.5-1.5v19l1.5-1.5h-19l1.5 1.5v-19l-1.5 1.5zm-21.5-23h62v62h-62v-62z"/></defs><clipPath id="X"><use xlink:href="#W" overflow="visible"/></clipPath><g clip-path="url(#X)"><defs><path id="Y" d="M-168.6-271.8h19v19h-19z"/></defs><clipPath id="Z"><use xlink:href="#Y" overflow="visible"/></clipPath><g clip-path="url(#Z)"><defs><path id="aa" d="M-1093.6-792.8h1121v1030h-1121z"/></defs></g></g><defs><path id="ab" d="M-168.6-271.8h19v19h-19z"/></defs><clipPath id="ac"><use xlink:href="#ab" overflow="visible"/></clipPath><g clip-path="url(#ac)"><defs><path id="ad" d="M-1093.6-792.8h1121v1030h-1121z"/></defs></g><defs><path id="ae" d="M-139.6-273.3h-1.5v22h22v-22h-20.5zm0 3h19l-1.5-1.5v19l1.5-1.5h-19l1.5 1.5v-19l-1.5 1.5zm-21.5-23h62v62h-62v-62z"/></defs><clipPath id="af"><use xlink:href="#ae" overflow="visible"/></clipPath><g clip-path="url(#af)"><defs><path id="ag" d="M-139.6-271.8h19v19h-19z"/></defs><clipPath id="ah"><use xlink:href="#ag" overflow="visible"/></clipPath><g clip-path="url(#ah)"><defs><path id="ai" d="M-1093.6-792.8h1121v1030h-1121z"/></defs></g></g><g><defs><path id="aj" d="M-139.6-271.8h19v19h-19z"/></defs><clipPath id="ak"><use xlink:href="#aj" overflow="visible"/></clipPath><g clip-path="url(#ak)"><defs><path id="al" d="M-1093.6-792.8h1121v1030h-1121z"/></defs></g></g><g><defs><path id="am" d="M-168.6-245.3h-1.5v22h22v-22h-20.5zm0 3h19l-1.5-1.5v19l1.5-1.5h-19l1.5 1.5v-19l-1.5 1.5zm-21.5-23h62v62h-62v-62z"/></defs><clipPath id="an"><use xlink:href="#am" overflow="visible"/></clipPath><g clip-path="url(#an)"><defs><path id="ao" d="M-168.6-243.8h19v19h-19z"/></defs><clipPath id="ap"><use xlink:href="#ao" overflow="visible"/></clipPath><g clip-path="url(#ap)"><defs><path id="aq" d="M-1093.6-792.8h1121v1030h-1121z"/></defs></g></g></g><g><defs><path id="ar" d="M-168.6-243.8h19v19h-19z"/></defs><clipPath id="as"><use xlink:href="#ar" overflow="visible"/></clipPath><g clip-path="url(#as)"><defs><path id="at" d="M-1093.6-792.8h1121v1030h-1121z"/></defs></g></g><g><defs><path id="au" d="M-139.6-245.3h-1.5v22h22v-22h-20.5zm0 3h19l-1.5-1.5v19l1.5-1.5h-19l1.5 1.5v-19l-1.5 1.5zm-21.5-23h62v62h-62v-62z"/></defs><clipPath id="av"><use xlink:href="#au" overflow="visible"/></clipPath><g clip-path="url(#av)"><defs><path id="aw" d="M-139.6-243.8h19v19h-19z"/></defs><clipPath id="ax"><use xlink:href="#aw" overflow="visible"/></clipPath><g clip-path="url(#ax)"><defs><path id="ay" d="M-1093.6-792.8h1121v1030h-1121z"/></defs></g></g></g><g><defs><path id="az" d="M-139.6-243.8h19v19h-19z"/></defs><clipPath id="aA"><use xlink:href="#az" overflow="visible"/></clipPath><g clip-path="url(#aA)"><defs><path id="aB" d="M-1093.6-792.8h1121v1030h-1121z"/></defs></g></g><g><defs><path id="aC" d="M-163.6-268.3h-1.5v12h12v-12h-10.5zm0 3h9l-1.5-1.5v9l1.5-1.5h-9l1.5 1.5v-9l-1.5 1.5zm-21.5-23h52v52h-52v-52z"/></defs><clipPath id="aD"><use xlink:href="#aC" overflow="visible"/></clipPath><g clip-path="url(#aD)"><defs><path id="aE" d="M-163.6-266.8h9v9h-9z"/></defs><clipPath id="aF"><use xlink:href="#aE" overflow="visible"/></clipPath><g clip-path="url(#aF)"><defs><path id="aG" d="M-1093.6-792.8h1121v1030h-1121z"/></defs></g></g></g><g><defs><path id="aH" d="M-163.6-266.8h9v9h-9z"/></defs><clipPath id="aI"><use xlink:href="#aH" overflow="visible"/></clipPath><g clip-path="url(#aI)"><defs><path id="aJ" d="M-1093.6-792.8h1121v1030h-1121z"/></defs></g></g><g><defs><path id="aK" d="M-134.6-268.3h-1.5v12h12v-12h-10.5zm0 3h9l-1.5-1.5v9l1.5-1.5h-9l1.5 1.5v-9l-1.5 1.5zm-21.5-23h52v52h-52v-52z"/></defs><clipPath id="aL"><use xlink:href="#aK" overflow="visible"/></clipPath><g clip-path="url(#aL)"><defs><path id="aM" d="M-134.6-266.8h9v9h-9z"/></defs><clipPath id="aN"><use xlink:href="#aM" overflow="visible"/></clipPath><g clip-path="url(#aN)"><defs><path id="aO" d="M-1093.6-792.8h1121v1030h-1121z"/></defs></g></g></g><g><defs><path id="aP" d="M-134.6-266.8h9v9h-9z"/></defs><clipPath id="aQ"><use xlink:href="#aP" overflow="visible"/></clipPath><g clip-path="url(#aQ)"><defs><path id="aR" d="M-1093.6-792.8h1121v1030h-1121z"/></defs></g></g><g><defs><path id="aS" d="M-163.6-240.3h-1.5v12h12v-12h-10.5zm0 3h9l-1.5-1.5v9l1.5-1.5h-9l1.5 1.5v-9l-1.5 1.5zm-21.5-23h52v52h-52v-52z"/></defs><clipPath id="aT"><use xlink:href="#aS" overflow="visible"/></clipPath><g clip-path="url(#aT)"><defs><path id="aU" d="M-163.6-238.8h9v9h-9z"/></defs><clipPath id="aV"><use xlink:href="#aU" overflow="visible"/></clipPath><g clip-path="url(#aV)"><defs><path id="aW" d="M-1093.6-792.8h1121v1030h-1121z"/></defs></g></g></g><g><defs><path id="aX" d="M-163.6-238.8h9v9h-9z"/></defs><clipPath id="aY"><use xlink:href="#aX" overflow="visible"/></clipPath><g clip-path="url(#aY)"><defs><path id="aZ" d="M-1093.6-792.8h1121v1030h-1121z"/></defs></g></g><g><defs><path id="ba" d="M-134.6-240.3h-1.5v12h12v-12h-10.5zm0 3h9l-1.5-1.5v9l1.5-1.5h-9l1.5 1.5v-9l-1.5 1.5zm-21.5-23h52v52h-52v-52z"/></defs><clipPath id="bb"><use xlink:href="#ba" overflow="visible"/></clipPath><g clip-path="url(#bb)"><defs><path id="bc" d="M-134.6-238.8h9v9h-9z"/></defs><clipPath id="bd"><use xlink:href="#bc" overflow="visible"/></clipPath><g clip-path="url(#bd)"><defs><path id="be" d="M-1093.6-792.8h1121v1030h-1121z"/></defs></g></g></g><g><defs><path id="bf" d="M-134.6-238.8h9v9h-9z"/></defs><clipPath id="bg"><use xlink:href="#bf" overflow="visible"/></clipPath><g clip-path="url(#bg)"><defs><path id="bh" d="M-1093.6-792.8h1121v1030h-1121z"/></defs></g></g><g><defs><path id="bi" d="M-227.9 23.5h-1.5v90h134v-90h-132.5zm0 3h131l-1.5-1.5v87l1.5-1.5h-131l1.5 1.5V25l-1.5 1.5zm-21.5-23h174v130h-174V3.5z"/></defs><clipPath id="bj"><use xlink:href="#bi" overflow="visible"/></clipPath><g clip-path="url(#bj)"><defs><path id="bk" d="M-227.9 25h131v87h-131z"/></defs><clipPath id="bl"><use xlink:href="#bk" overflow="visible"/></clipPath><g clip-path="url(#bl)"><defs><path id="bm" d="M-836.9-279h1121V751h-1121z"/></defs></g></g></g><g><defs><path id="bn" d="M-227.9 25h131v87h-131z"/></defs><clipPath id="bo"><use xlink:href="#bn" overflow="visible"/></clipPath><g clip-path="url(#bo)"><defs><path id="bp" d="M-836.9-279h1121V751h-1121z"/></defs></g></g><g><defs><path id="bq" d="M-222.9 28.5h-1.5v80h124v-80h-122.5zm0 3h121l-1.5-1.5v77l1.5-1.5h-121l1.5 1.5V30l-1.5 1.5zm-21.5-23h164v120h-164V8.5z"/></defs><clipPath id="br"><use xlink:href="#bq" overflow="visible"/></clipPath><g clip-path="url(#br)"><defs><path id="bs" d="M-222.9 30h121v77h-121z"/></defs><clipPath id="bt"><use xlink:href="#bs" overflow="visible"/></clipPath><g clip-path="url(#bt)"><defs><path id="bu" d="M-836.9-279h1121V751h-1121z"/></defs></g></g></g><g><defs><path id="bv" d="M-222.9 30h121v77h-121z"/></defs><clipPath id="bw"><use xlink:href="#bv" overflow="visible"/></clipPath><g clip-path="url(#bw)"><defs><path id="bx" d="M-836.9-279h1121V751h-1121z"/></defs></g></g><g><defs><path id="by" d="M-157.9 43.5h-1.5v6h47v-6h-45.5zm0 3h44l-1.5-1.5v3l1.5-1.5h-44l1.5 1.5v-3l-1.5 1.5zm-21.5-23h87v46h-87v-46z"/></defs><clipPath id="bz"><use xlink:href="#by" overflow="visible"/></clipPath><g clip-path="url(#bz)"><defs><path id="bA" d="M-157.9 45h44v3h-44z"/></defs><clipPath id="bB"><use xlink:href="#bA" overflow="visible"/></clipPath><g clip-path="url(#bB)"><defs><path id="bC" d="M-836.9-279h1121V751h-1121z"/></defs></g></g></g><g><defs><path id="bD" d="M-157.9 45h44v3h-44z"/></defs><clipPath id="bE"><use xlink:href="#bD" overflow="visible"/></clipPath><g clip-path="url(#bE)"><defs><path id="bF" d="M-836.9-279h1121V751h-1121z"/></defs></g></g><g><defs><path id="bG" d="M-157.9 49.5h-1.5v6h47v-6h-45.5zm0 3h44l-1.5-1.5v3l1.5-1.5h-44l1.5 1.5v-3l-1.5 1.5zm-21.5-23h87v46h-87v-46z"/></defs><clipPath id="bH"><use xlink:href="#bG" overflow="visible"/></clipPath><g clip-path="url(#bH)"><defs><path id="bI" d="M-157.9 51h44v3h-44z"/></defs><clipPath id="bJ"><use xlink:href="#bI" overflow="visible"/></clipPath><g clip-path="url(#bJ)"><defs><path id="bK" d="M-836.9-279h1121V751h-1121z"/></defs></g></g></g><g><defs><path id="bL" d="M-157.9 51h44v3h-44z"/></defs><clipPath id="bM"><use xlink:href="#bL" overflow="visible"/></clipPath><g clip-path="url(#bM)"><defs><path id="bN" d="M-836.9-279h1121V751h-1121z"/></defs></g></g><g><defs><path id="bO" d="M-157.9 55.5h-1.5v6h47v-6h-45.5zm0 3h44l-1.5-1.5v3l1.5-1.5h-44l1.5 1.5v-3l-1.5 1.5zm-21.5-23h87v46h-87v-46z"/></defs><clipPath id="bP"><use xlink:href="#bO" overflow="visible"/></clipPath><g clip-path="url(#bP)"><defs><path id="bQ" d="M-157.9 57h44v3h-44z"/></defs><clipPath id="bR"><use xlink:href="#bQ" overflow="visible"/></clipPath><g clip-path="url(#bR)"><defs><path id="bS" d="M-836.9-279h1121V751h-1121z"/></defs></g></g></g><g><defs><path id="bT" d="M-157.9 57h44v3h-44z"/></defs><clipPath id="bU"><use xlink:href="#bT" overflow="visible"/></clipPath><g clip-path="url(#bU)"><defs><path id="bV" d="M-836.9-279h1121V751h-1121z"/></defs></g></g><g><defs><path id="bW" d="M-157.9 61.5h-1.5v6h47v-6h-45.5zm0 3h44l-1.5-1.5v3l1.5-1.5h-44l1.5 1.5v-3l-1.5 1.5zm-21.5-23h87v46h-87v-46z"/></defs><clipPath id="bX"><use xlink:href="#bW" overflow="visible"/></clipPath><g clip-path="url(#bX)"><defs><path id="bY" d="M-157.9 63h44v3h-44z"/></defs><clipPath id="bZ"><use xlink:href="#bY" overflow="visible"/></clipPath><g clip-path="url(#bZ)"><defs><path id="ca" d="M-836.9-279h1121V751h-1121z"/></defs></g></g></g><g><defs><path id="cb" d="M-157.9 63h44v3h-44z"/></defs><clipPath id="cc"><use xlink:href="#cb" overflow="visible"/></clipPath><g clip-path="url(#cc)"><defs><path id="cd" d="M-836.9-279h1121V751h-1121z"/></defs></g></g><g><path fill="#0C1F2E" d="M120.1 91c-.3-1.8-1-3.5-1.7-5.3-.3-.7-.6-1.4-1.1-2-.4-.5-.8-.9-1.2-1.4-4.1-4.7-5-12.8-.7-17.7 1.7-2 1.6-7.2 0-9.2-.8-1-2-1.6-3.2-2.1-4.1-1.5-8.9-1.3-12.9.6-2.5 1.2-3.7 2.7-4 5.4-1.5 13.1 5.3 41.4 17.6 41.4 3 0 5.4-2.2 6.5-4.9.8-1.6.9-3.2.7-4.8z"/></g><g><ellipse transform="rotate(34.386 118.151 48.032)" fill="#0C1F2E" cx="118.2" cy="48" rx="3.2" ry="4.4"/></g><g><ellipse transform="rotate(19.881 111.01 46.555)" fill="#0C1F2E" cx="111" cy="46.6" rx="2.1" ry="2.8"/></g><g><ellipse transform="rotate(8.583 105.263 46.468)" fill="#0C1F2E" cx="105.3" cy="46.5" rx="2.1" ry="2.8"/></g><g><ellipse transform="rotate(-13.639 99.556 47.887)" fill="#0C1F2E" cx="99.5" cy="47.9" rx="2.1" ry="2.8"/></g><g><ellipse transform="rotate(-22.382 94.858 51.887)" fill="#0C1F2E" cx="94.9" cy="51.9" rx="1.9" ry="2.6"/></g></svg>