<svg xmlns="http://www.w3.org/2000/svg" xmlns:xlink="http://www.w3.org/1999/xlink" viewBox="0 0 276 137"><path fill="#0F1F2D" d="M138.9 112.3c-5.4 0-9.8-4.4-9.8-9.8s4.4-9.8 9.8-9.8 9.8 4.4 9.8 9.8-4.4 9.8-9.8 9.8zm0-16.7c-3.8 0-6.8 3.1-6.8 6.8s3.1 6.8 6.8 6.8 6.8-3.1 6.8-6.8-3-6.8-6.8-6.8z"/><path fill="#0F1F2D" d="M138.7 122c-3 0-5.5-2.5-5.5-5.5v-8.9c0-3 2.5-5.5 5.5-5.5s5.5 2.5 5.5 5.5v8.9c-.1 3.1-2.5 5.5-5.5 5.5zm0-16.8c-1.4 0-2.5 1.1-2.5 2.5v8.9c0 1.4 1.1 2.5 2.5 2.5s2.5-1.1 2.5-2.5v-8.9c-.1-1.4-1.2-2.5-2.5-2.5zm1.6-64.3c-5.4 0-9.8-4.4-9.8-9.8s4.4-9.8 9.8-9.8 9.8 4.4 9.8 9.8-4.3 9.8-9.8 9.8zm0-16.7c-3.8 0-6.8 3.1-6.8 6.8s3.1 6.8 6.8 6.8 6.8-3.1 6.8-6.8-3-6.8-6.8-6.8z"/><circle fill="#FFF" cx="139.5" cy="66.4" r="29.8"/><path fill="#0F1F2D" d="M139.5 97.7c-17.3 0-31.3-14-31.3-31.3s14-31.3 31.3-31.3 31.3 14 31.3 31.3-14.1 31.3-31.3 31.3zm0-59.6c-15.6 0-28.3 12.7-28.3 28.3s12.7 28.3 28.3 28.3 28.3-12.7 28.3-28.3-12.7-28.3-28.3-28.3z"/><path fill="#FFF" d="M127.7 33.2h23.8v5.9h-23.8z"/><path fill="#0F1F2D" d="M153 40.6h-26.8v-8.9H153v8.9zm-23.8-3H150v-2.9h-20.8v2.9zm11.4-6.3c-3 0-5.5-2.5-5.5-5.5V17c0-3 2.5-5.5 5.5-5.5s5.5 2.5 5.5 5.5v8.9c0 3-2.5 5.4-5.5 5.4zm0-16.8c-1.4 0-2.5 1.1-2.5 2.5v8.9c0 1.4 1.1 2.5 2.5 2.5s2.5-1.1 2.5-2.5V17c0-1.4-1.2-2.5-2.5-2.5z"/><path fill="#FFF" d="M127.7 94.4h23.8v5.9h-23.8z"/><path fill="#0F1F2D" d="M153 101.8h-26.8v-8.9H153v8.9zm-23.8-3H150v-2.9h-20.8v2.9zM190.1 65c-2.2 0-3.3-.7-4.2-1.3-.8-.5-1.4-.9-2.6-.9-1.3 0-1.8.4-2.6.9-.9.6-2.1 1.3-4.2 1.3-2.2 0-3.3-.7-4.2-1.3-.8-.5-1.3-.9-2.6-.9s-1.8.4-2.6.9c-.9.6-2.1 1.3-4.2 1.3-2.2 0-3.3-.7-4.2-1.3-.8-.5-1.3-.9-2.6-.9s-1.8.4-2.6.9c-.9.6-2.1 1.3-4.2 1.3-2.2 0-3.3-.7-4.2-1.3-.8-.5-1.3-.9-2.6-.9s-1.8.4-2.6.9c-.9.6-2.1 1.3-4.2 1.3-2.2 0-3.3-.7-4.2-1.3-.8-.5-1.3-.9-2.6-.9s-1.8.4-2.6.9c-.9.6-2.1 1.3-4.2 1.3s-3.3-.7-4.2-1.3c-.8-.5-1.3-.9-2.6-.9s-1.8.4-2.6.9c-.9.6-2.1 1.3-4.2 1.3-2.2 0-3.3-.7-4.2-1.3-.8-.5-1.3-.9-2.6-.9s-1.8.4-2.6.9c-1.9.6-3.1 1.3-5.2 1.3s-3.3-.7-4.2-1.3c-.8-.5-1.3-.9-2.6-.9-.8 0-1.5-.7-1.5-1.5s.7-1.5 1.5-1.5c2.2 0 3.3.7 4.2 1.3.8.5 1.3.9 2.6.9s1.8-.4 2.6-.9c.9-.6 2.1-1.3 4.2-1.3 2.2 0 3.3.7 4.2 1.3.8.5 1.3.9 2.6.9s1.8-.4 2.6-.9c.9-.6 2.1-1.3 4.2-1.3 2.2 0 3.3.7 4.2 1.3.8.5 1.3.9 2.6.9s1.8-.4 2.6-.9c.9-.6 2.1-1.3 4.2-1.3 2.2 0 3.3.7 4.2 1.3.8.5 1.3.9 2.6.9s1.8-.4 2.6-.9c.9-.6 2.1-1.3 4.2-1.3 2.2 0 3.3.7 4.2 1.3.8.5 1.3.9 2.6.9s1.8-.4 2.6-.9c.9-.6 2.1-1.3 4.2-1.3s3.3.7 4.2 1.3c.8.5 1.3.9 2.6.9s1.8-.4 2.6-.9c.9-.6 2.1-1.3 4.2-1.3 2.2 0 3.3.7 4.2 1.3.8.5 1.3.9 2.6.9s1.8-.4 2.6-.9c.9-.6 2.1-1.3 4.2-1.3 2.2 0 3.3.7 4.2 1.3.8.5 1.4.9 2.6.9s1.8-.4 2.6-.9c.9-.6 2.1-1.3 4.2-1.3.8 0 1.5.7 1.5 1.5s-.7 1.5-1.5 1.5c-1.3 0-1.8.4-2.6.9.1.6-1 1.3-3.2 1.3zm0 11.8c-2.2 0-3.3-.7-4.2-1.3-.8-.5-1.4-.9-2.6-.9-1.3 0-1.8.4-2.6.9-.9.6-2.1 1.3-4.2 1.3-2.2 0-3.3-.7-4.2-1.3-.8-.5-1.3-.9-2.6-.9s-1.8.4-2.6.9c-.9.6-2.1 1.3-4.2 1.3-2.2 0-3.3-.7-4.2-1.3-.8-.5-1.3-.9-2.6-.9s-1.8.4-2.6.9c-.9.6-2.1 1.3-4.2 1.3s-3.3-.7-4.2-1.3c-.8-.5-1.3-.9-2.6-.9s-1.8.4-2.6.9c-.9.6-2.1 1.3-4.2 1.3-2.2 0-3.3-.7-4.2-1.3-.8-.5-1.3-.9-2.6-.9s-1.8.4-2.6.9c-.9.6-2.1 1.3-4.2 1.3s-3.3-.7-4.2-1.3c-.8-.5-1.3-.9-2.6-.9s-1.8.4-2.6.9c-.9.6-2.1 1.3-4.2 1.3-2.2 0-3.3-.7-4.2-1.3-.8-.5-1.3-.9-2.6-.9s-1.8.4-2.6.9c-.9.6-2.1 1.3-4.2 1.3s-3.3-.7-4.2-1.3c-.8-.5-1.3-.9-2.6-.9-.8 0-1.5-.7-1.5-1.5s.7-1.5 1.5-1.5c2.2 0 3.3.7 4.2 1.3.8.5 1.3.9 2.6.9s1.8-.4 2.6-.9c.9-.6 2.1-1.3 4.2-1.3s3.3.7 4.2 1.3c.8.5 1.3.9 2.6.9s1.8-.4 2.6-.9c.9-.6 2.1-1.3 4.2-1.3s3.3.7 4.2 1.3c.8.5 1.3.9 2.6.9s1.8-.4 2.6-.9c.9-.6 2.1-1.3 4.2-1.3 2.2 0 3.3.7 4.2 1.3.8.5 1.3.9 2.6.9s1.8-.4 2.6-.9c.9-.6 2.1-1.3 4.2-1.3 2.2 0 3.3.7 4.2 1.3.8.5 1.3.9 2.6.9s1.8-.4 2.6-.9c.9-.6 2.1-1.3 4.2-1.3s3.3.7 4.2 1.3c.8.5 1.3.9 2.6.9s1.8-.4 2.6-.9c.9-.6 2.1-1.3 4.2-1.3 2.2 0 3.3.7 4.2 1.3.8.5 1.3.9 2.6.9s1.8-.4 2.6-.9c.9-.6 2.1-1.3 4.2-1.3 2.2 0 3.3.7 4.2 1.3.8.5 1.4.9 2.6.9s1.8-.4 2.6-.9c.9-.6 2.1-1.3 4.2-1.3.8 0 1.5.7 1.5 1.5s-.7 1.5-1.5 1.5c-1.3 0-1.8.4-2.6.9-.9.5-2 1.3-4.2 1.3z"/><defs><path id="a" d="M83.4 351.1h-1.5v84h108v-84H83.4zm0 3h105l-1.5-1.5v81l1.5-1.5h-105l1.5 1.5v-81l-1.5 1.5zm-21.5-23h148v124h-148v-124z"/></defs><defs><path id="b" d="M77.4 368.1h-2.2l.9-2.1 9.1-22 .4-.9h100.9l.4.9 9.1 22 .9 2.1H77.4zm0-3h117l-1.4 2.1-9.1-22 1.4.9H86.5l1.4-.9-9.1 22-1.4-2.1zm-22.3 23h161.5v-65H55.1v65z"/></defs><defs><path id="c" d="M162.4 335.1h-1.5v19h15v-19h-13.5zm0 3h12l-1.5-1.5v16l1.5-1.5h-12l1.5 1.5v-16l-1.5 1.5zm-21.5-23h55v59h-55v-59z"/></defs><defs><path id="d" d="M96.4 401.1h-1.5v34h24v-34H96.4zm0 3h21l-1.5-1.5v31l1.5-1.5h-21l1.5 1.5v-31l-1.5 1.5zm-21.5-23h64v74h-64v-74z"/></defs><defs><path id="e" d="M97.4 373.1h-1.5v22h22v-22H97.4zm0 3h19l-1.5-1.5v19l1.5-1.5h-19l1.5 1.5v-19l-1.5 1.5zm-21.5-23h62v62h-62v-62z"/></defs><defs><path id="f" d="M102.4 378.1h-1.5v12h12v-12h-10.5zm0 3h9l-1.5-1.5v9l1.5-1.5h-9l1.5 1.5v-9l-1.5 1.5zm-21.5-23h52v52h-52v-52z"/></defs><defs><path id="g" d="M127.4 373.1h-1.5v22h22v-22h-20.5zm0 3h19l-1.5-1.5v19l1.5-1.5h-19l1.5 1.5v-19l-1.5 1.5zm-21.5-23h62v62h-62v-62z"/></defs><defs><path id="h" d="M156.4 373.1h-1.5v22h22v-22h-20.5zm0 3h19l-1.5-1.5v19l1.5-1.5h-19l1.5 1.5v-19l-1.5 1.5zm-21.5-23h62v62h-62v-62z"/></defs><defs><path id="i" d="M127.4 401.1h-1.5v22h22v-22h-20.5zm0 3h19l-1.5-1.5v19l1.5-1.5h-19l1.5 1.5v-19l-1.5 1.5zm-21.5-23h62v62h-62v-62z"/></defs><defs><path id="j" d="M156.4 401.1h-1.5v22h22v-22h-20.5zm0 3h19l-1.5-1.5v19l1.5-1.5h-19l1.5 1.5v-19l-1.5 1.5zm-21.5-23h62v62h-62v-62z"/></defs><defs><path id="k" d="M132.4 378.1h-1.5v12h12v-12h-10.5zm0 3h9l-1.5-1.5v9l1.5-1.5h-9l1.5 1.5v-9l-1.5 1.5zm-21.5-23h52v52h-52v-52z"/></defs><defs><path id="l" d="M161.4 378.1h-1.5v12h12v-12h-10.5zm0 3h9l-1.5-1.5v9l1.5-1.5h-9l1.5 1.5v-9l-1.5 1.5zm-21.5-23h52v52h-52v-52z"/></defs><defs><path id="m" d="M132.4 406.1h-1.5v12h12v-12h-10.5zm0 3h9l-1.5-1.5v9l1.5-1.5h-9l1.5 1.5v-9l-1.5 1.5zm-21.5-23h52v52h-52v-52z"/></defs><defs><path id="n" d="M161.4 406.1h-1.5v12h12v-12h-10.5zm0 3h9l-1.5-1.5v9l1.5-1.5h-9l1.5 1.5v-9l-1.5 1.5zm-21.5-23h52v52h-52v-52z"/></defs><defs><circle id="o" cx="-195.7" cy="376" r="15.7"/></defs><defs><path id="p" d="M-195.7 393.3c-9.5 0-17.2-7.7-17.2-17.2s7.7-17.2 17.2-17.2 17.2 7.7 17.2 17.2c.1 9.4-7.7 17.2-17.2 17.2zm0-31.5c-7.9 0-14.2 6.4-14.2 14.2 0 7.9 6.4 14.2 14.2 14.2s14.2-6.4 14.2-14.2c.1-7.8-6.3-14.2-14.2-14.2z"/></defs><use xlink:href="#o" overflow="visible" fill-rule="evenodd" clip-rule="evenodd" fill="#FFF"/><use xlink:href="#p" overflow="visible" fill="#0F1F2D"/><clipPath id="q"><use xlink:href="#o" overflow="visible"/></clipPath><clipPath id="r" clip-path="url(#q)"><use xlink:href="#p" overflow="visible"/></clipPath><g clip-path="url(#r)"><defs><path id="s" d="M-258.8 109.7h405.6v372.7h-405.6z"/></defs><defs><path id="t" d="M148.3 483.9h-408.6V108.2h408.6v375.7zm-405.6-3h402.6V111.2h-402.6v369.7z"/></defs><use xlink:href="#s" overflow="visible" fill="#FFF"/><use xlink:href="#t" overflow="visible" fill="#0F1F2D"/></g><defs><path id="u" d="M683.4 34.1h-1.5v84h108v-84H683.4zm0 3h105l-1.5-1.5v81l1.5-1.5h-105l1.5 1.5v-81l-1.5 1.5zm-21.5-23h148v124h-148v-124z"/></defs><defs><path id="v" d="M677.4 51.1h-2.2l.9-2.1 9.1-22 .4-.9h100.9l.4.9 9.1 22 .9 2.1H677.4zm0-3h117l-1.4 2.1-9.1-22 1.4.9h-98.9l1.4-.9-9.1 22-1.3-2.1zm-22.3 23h161.5v-65H655.1v65z"/></defs><defs><path id="w" d="M762.4 18.1h-1.5v19h15v-19h-13.5zm0 3h12l-1.5-1.5v16l1.5-1.5h-12l1.5 1.5v-16l-1.5 1.5zm-21.5-23h55v59h-55v-59z"/></defs><defs><path id="x" d="M696.4 84.1h-1.5v34h24v-34h-22.5zm0 3h21l-1.5-1.5v31l1.5-1.5h-21l1.5 1.5v-31l-1.5 1.5zm-21.5-23h64v74h-64v-74z"/></defs><defs><path id="y" d="M697.4 56.1h-1.5v22h22v-22h-20.5zm0 3h19l-1.5-1.5v19l1.5-1.5h-19l1.5 1.5v-19l-1.5 1.5zm-21.5-23h62v62h-62v-62z"/></defs><defs><path id="z" d="M702.4 61.1h-1.5v12h12v-12h-10.5zm0 3h9l-1.5-1.5v9l1.5-1.5h-9l1.5 1.5v-9l-1.5 1.5zm-21.5-23h52v52h-52v-52z"/></defs><defs><path id="A" d="M727.4 56.1h-1.5v22h22v-22h-20.5zm0 3h19l-1.5-1.5v19l1.5-1.5h-19l1.5 1.5v-19l-1.5 1.5zm-21.5-23h62v62h-62v-62z"/></defs><defs><path id="B" d="M756.4 56.1h-1.5v22h22v-22h-20.5zm0 3h19l-1.5-1.5v19l1.5-1.5h-19l1.5 1.5v-19l-1.5 1.5zm-21.5-23h62v62h-62v-62z"/></defs><defs><path id="C" d="M727.4 84.1h-1.5v22h22v-22h-20.5zm0 3h19l-1.5-1.5v19l1.5-1.5h-19l1.5 1.5v-19l-1.5 1.5zm-21.5-23h62v62h-62v-62z"/></defs><defs><path id="D" d="M756.4 84.1h-1.5v22h22v-22h-20.5zm0 3h19l-1.5-1.5v19l1.5-1.5h-19l1.5 1.5v-19l-1.5 1.5zm-21.5-23h62v62h-62v-62z"/></defs><defs><path id="E" d="M732.4 61.1h-1.5v12h12v-12h-10.5zm0 3h9l-1.5-1.5v9l1.5-1.5h-9l1.5 1.5v-9l-1.5 1.5zm-21.5-23h52v52h-52v-52z"/></defs><defs><path id="F" d="M761.4 61.1h-1.5v12h12v-12h-10.5zm0 3h9l-1.5-1.5v9l1.5-1.5h-9l1.5 1.5v-9l-1.5 1.5zm-21.5-23h52v52h-52v-52z"/></defs><defs><path id="G" d="M732.4 89.1h-1.5v12h12v-12h-10.5zm0 3h9l-1.5-1.5v9l1.5-1.5h-9l1.5 1.5v-9l-1.5 1.5zm-21.5-23h52v52h-52v-52z"/></defs><defs><path id="H" d="M761.4 89.1h-1.5v12h12v-12h-10.5zm0 3h9l-1.5-1.5v9l1.5-1.5h-9l1.5 1.5v-9l-1.5 1.5zm-21.5-23h52v52h-52v-52z"/></defs></svg>