<svg xmlns="http://www.w3.org/2000/svg" xmlns:xlink="http://www.w3.org/1999/xlink" viewBox="0 0 276 137"><path fill="#0F1F2D" d="M138.9 112.3c-5.4 0-9.8-4.4-9.8-9.8s4.4-9.8 9.8-9.8 9.8 4.4 9.8 9.8-4.4 9.8-9.8 9.8zm0-16.7c-3.8 0-6.8 3.1-6.8 6.8s3.1 6.8 6.8 6.8 6.8-3.1 6.8-6.8-3-6.8-6.8-6.8z"/><path fill="#0F1F2D" d="M138.7 122c-3 0-5.5-2.5-5.5-5.5v-8.9c0-3 2.5-5.5 5.5-5.5s5.5 2.5 5.5 5.5v8.9c-.1 3.1-2.5 5.5-5.5 5.5zm0-16.8c-1.4 0-2.5 1.1-2.5 2.5v8.9c0 1.4 1.1 2.5 2.5 2.5s2.5-1.1 2.5-2.5v-8.9c-.1-1.4-1.2-2.5-2.5-2.5zM140.3 40.9c-5.4 0-9.8-4.4-9.8-9.8s4.4-9.8 9.8-9.8 9.8 4.4 9.8 9.8-4.3 9.8-9.8 9.8zm0-16.7c-3.8 0-6.8 3.1-6.8 6.8s3.1 6.8 6.8 6.8 6.8-3.1 6.8-6.8-3-6.8-6.8-6.8z"/><circle fill="#FFF" cx="139.5" cy="66.4" r="29.8"/><path fill="#0F1F2D" d="M139.5 97.7c-17.3 0-31.3-14-31.3-31.3s14-31.3 31.3-31.3 31.3 14 31.3 31.3-14.1 31.3-31.3 31.3zm0-59.6c-15.6 0-28.3 12.7-28.3 28.3s12.7 28.3 28.3 28.3 28.3-12.7 28.3-28.3-12.7-28.3-28.3-28.3z"/><path fill="#FFF" d="M127.7 33.2h23.8v5.9h-23.8z"/><path fill="#0F1F2D" d="M153 40.6h-26.8v-8.9H153v8.9zm-23.8-3H150v-2.9h-20.8v2.9zM140.6 31.3c-3 0-5.5-2.5-5.5-5.5V17c0-3 2.5-5.5 5.5-5.5s5.5 2.5 5.5 5.5v8.9c0 3-2.5 5.4-5.5 5.4zm0-16.8c-1.4 0-2.5 1.1-2.5 2.5v8.9c0 1.4 1.1 2.5 2.5 2.5s2.5-1.1 2.5-2.5V17c0-1.4-1.2-2.5-2.5-2.5z"/><path fill="#FFF" d="M127.7 94.4h23.8v5.9h-23.8z"/><path fill="#0F1F2D" d="M153 101.8h-26.8v-8.9H153v8.9zm-23.8-3H150v-2.9h-20.8v2.9zM190.1 65c-2.2 0-3.3-.7-4.2-1.3-.8-.5-1.4-.9-2.6-.9-1.3 0-1.8.4-2.6.9-.9.6-2.1 1.3-4.2 1.3-2.2 0-3.3-.7-4.2-1.3-.8-.5-1.3-.9-2.6-.9s-1.8.4-2.6.9c-.9.6-2.1 1.3-4.2 1.3-2.2 0-3.3-.7-4.2-1.3-.8-.5-1.3-.9-2.6-.9s-1.8.4-2.6.9c-.9.6-2.1 1.3-4.2 1.3-2.2 0-3.3-.7-4.2-1.3-.8-.5-1.3-.9-2.6-.9s-1.8.4-2.6.9c-.9.6-2.1 1.3-4.2 1.3-2.2 0-3.3-.7-4.2-1.3-.8-.5-1.3-.9-2.6-.9s-1.8.4-2.6.9c-.9.6-2.1 1.3-4.2 1.3s-3.3-.7-4.2-1.3c-.8-.5-1.3-.9-2.6-.9s-1.8.4-2.6.9c-.9.6-2.1 1.3-4.2 1.3-2.2 0-3.3-.7-4.2-1.3-.8-.5-1.3-.9-2.6-.9s-1.8.4-2.6.9c-1.9.6-3.1 1.3-5.2 1.3s-3.3-.7-4.2-1.3c-.8-.5-1.3-.9-2.6-.9-.8 0-1.5-.7-1.5-1.5s.7-1.5 1.5-1.5c2.2 0 3.3.7 4.2 1.3.8.5 1.3.9 2.6.9s1.8-.4 2.6-.9c.9-.6 2.1-1.3 4.2-1.3 2.2 0 3.3.7 4.2 1.3.8.5 1.3.9 2.6.9s1.8-.4 2.6-.9c.9-.6 2.1-1.3 4.2-1.3 2.2 0 3.3.7 4.2 1.3.8.5 1.3.9 2.6.9s1.8-.4 2.6-.9c.9-.6 2.1-1.3 4.2-1.3 2.2 0 3.3.7 4.2 1.3.8.5 1.3.9 2.6.9s1.8-.4 2.6-.9c.9-.6 2.1-1.3 4.2-1.3 2.2 0 3.3.7 4.2 1.3.8.5 1.3.9 2.6.9s1.8-.4 2.6-.9c.9-.6 2.1-1.3 4.2-1.3s3.3.7 4.2 1.3c.8.5 1.3.9 2.6.9s1.8-.4 2.6-.9c.9-.6 2.1-1.3 4.2-1.3 2.2 0 3.3.7 4.2 1.3.8.5 1.3.9 2.6.9s1.8-.4 2.6-.9c.9-.6 2.1-1.3 4.2-1.3 2.2 0 3.3.7 4.2 1.3.8.5 1.4.9 2.6.9s1.8-.4 2.6-.9c.9-.6 2.1-1.3 4.2-1.3.8 0 1.5.7 1.5 1.5s-.7 1.5-1.5 1.5c-1.3 0-1.8.4-2.6.9.1.6-1 1.3-3.2 1.3zM190.1 76.8c-2.2 0-3.3-.7-4.2-1.3-.8-.5-1.4-.9-2.6-.9-1.3 0-1.8.4-2.6.9-.9.6-2.1 1.3-4.2 1.3-2.2 0-3.3-.7-4.2-1.3-.8-.5-1.3-.9-2.6-.9s-1.8.4-2.6.9c-.9.6-2.1 1.3-4.2 1.3-2.2 0-3.3-.7-4.2-1.3-.8-.5-1.3-.9-2.6-.9s-1.8.4-2.6.9c-.9.6-2.1 1.3-4.2 1.3s-3.3-.7-4.2-1.3c-.8-.5-1.3-.9-2.6-.9s-1.8.4-2.6.9c-.9.6-2.1 1.3-4.2 1.3-2.2 0-3.3-.7-4.2-1.3-.8-.5-1.3-.9-2.6-.9s-1.8.4-2.6.9c-.9.6-2.1 1.3-4.2 1.3s-3.3-.7-4.2-1.3c-.8-.5-1.3-.9-2.6-.9s-1.8.4-2.6.9c-.9.6-2.1 1.3-4.2 1.3-2.2 0-3.3-.7-4.2-1.3-.8-.5-1.3-.9-2.6-.9s-1.8.4-2.6.9c-.9.6-2.1 1.3-4.2 1.3s-3.3-.7-4.2-1.3c-.8-.5-1.3-.9-2.6-.9-.8 0-1.5-.7-1.5-1.5s.7-1.5 1.5-1.5c2.2 0 3.3.7 4.2 1.3.8.5 1.3.9 2.6.9s1.8-.4 2.6-.9c.9-.6 2.1-1.3 4.2-1.3s3.3.7 4.2 1.3c.8.5 1.3.9 2.6.9s1.8-.4 2.6-.9c.9-.6 2.1-1.3 4.2-1.3s3.3.7 4.2 1.3c.8.5 1.3.9 2.6.9s1.8-.4 2.6-.9c.9-.6 2.1-1.3 4.2-1.3 2.2 0 3.3.7 4.2 1.3.8.5 1.3.9 2.6.9s1.8-.4 2.6-.9c.9-.6 2.1-1.3 4.2-1.3 2.2 0 3.3.7 4.2 1.3.8.5 1.3.9 2.6.9s1.8-.4 2.6-.9c.9-.6 2.1-1.3 4.2-1.3s3.3.7 4.2 1.3c.8.5 1.3.9 2.6.9s1.8-.4 2.6-.9c.9-.6 2.1-1.3 4.2-1.3 2.2 0 3.3.7 4.2 1.3.8.5 1.3.9 2.6.9s1.8-.4 2.6-.9c.9-.6 2.1-1.3 4.2-1.3 2.2 0 3.3.7 4.2 1.3.8.5 1.4.9 2.6.9s1.8-.4 2.6-.9c.9-.6 2.1-1.3 4.2-1.3.8 0 1.5.7 1.5 1.5s-.7 1.5-1.5 1.5c-1.3 0-1.8.4-2.6.9-.9.5-2 1.3-4.2 1.3z"/><defs><path id="a" d="M83.4 351.1h-1.5v84h108v-84H83.4zm0 3h105l-1.5-1.5v81l1.5-1.5h-105l1.5 1.5v-81l-1.5 1.5zm-21.5-23h148v124h-148v-124z"/></defs><clipPath id="b"><use xlink:href="#a" overflow="visible"/></clipPath><g clip-path="url(#b)"><defs><path id="c" d="M83.4 352.6h105v81h-105z"/></defs><clipPath id="d"><use xlink:href="#c" overflow="visible"/></clipPath><g clip-path="url(#d)"><defs><path id="e" d="M-797.6-146.4h1121v1030h-1121z"/></defs></g></g><defs><path id="f" d="M83.4 352.6h105v81h-105z"/></defs><clipPath id="g"><use xlink:href="#f" overflow="visible"/></clipPath><g clip-path="url(#g)"><defs><path id="h" d="M-797.6-146.4h1121v1030h-1121z"/></defs></g><defs><path id="i" d="M77.4 368.1h-2.2l.9-2.1 9.1-22 .4-.9h100.9l.4.9 9.1 22 .9 2.1H77.4zm0-3h117l-1.4 2.1-9.1-22 1.4.9H86.5l1.4-.9-9.1 22-1.4-2.1zm-22.3 23h161.5v-65H55.1v65z"/></defs><clipPath id="j"><use xlink:href="#i" overflow="visible"/></clipPath><g clip-path="url(#j)"><defs><path id="k" d="M77.4 366.6h117l-9.1-22H86.5z"/></defs><clipPath id="l"><use xlink:href="#k" overflow="visible"/></clipPath><g clip-path="url(#l)"><defs><path id="m" d="M-797.6-146.4h1121v1030h-1121z"/></defs></g></g><defs><path id="n" d="M77.4 366.6h117l-9.1-22H86.5z"/></defs><clipPath id="o"><use xlink:href="#n" overflow="visible"/></clipPath><g clip-path="url(#o)"><defs><path id="p" d="M-797.6-146.4h1121v1030h-1121z"/></defs></g><defs><path id="q" d="M162.4 335.1h-1.5v19h15v-19h-13.5zm0 3h12l-1.5-1.5v16l1.5-1.5h-12l1.5 1.5v-16l-1.5 1.5zm-21.5-23h55v59h-55v-59z"/></defs><clipPath id="r"><use xlink:href="#q" overflow="visible"/></clipPath><g clip-path="url(#r)"><defs><path id="s" d="M162.4 336.6h12v16h-12z"/></defs><clipPath id="t"><use xlink:href="#s" overflow="visible"/></clipPath><g clip-path="url(#t)"><defs><path id="u" d="M-797.6-146.4h1121v1030h-1121z"/></defs></g></g><defs><path id="v" d="M162.4 336.6h12v16h-12z"/></defs><clipPath id="w"><use xlink:href="#v" overflow="visible"/></clipPath><g clip-path="url(#w)"><defs><path id="x" d="M-797.6-146.4h1121v1030h-1121z"/></defs></g><defs><path id="y" d="M96.4 401.1h-1.5v34h24v-34H96.4zm0 3h21l-1.5-1.5v31l1.5-1.5h-21l1.5 1.5v-31l-1.5 1.5zm-21.5-23h64v74h-64v-74z"/></defs><clipPath id="z"><use xlink:href="#y" overflow="visible"/></clipPath><g clip-path="url(#z)"><defs><path id="A" d="M96.4 402.6h21v31h-21z"/></defs><clipPath id="B"><use xlink:href="#A" overflow="visible"/></clipPath><g clip-path="url(#B)"><defs><path id="C" d="M-797.6-146.4h1121v1030h-1121z"/></defs></g></g><defs><path id="D" d="M96.4 402.6h21v31h-21z"/></defs><clipPath id="E"><use xlink:href="#D" overflow="visible"/></clipPath><g clip-path="url(#E)"><defs><path id="F" d="M-797.6-146.4h1121v1030h-1121z"/></defs></g><defs><path id="G" d="M97.4 373.1h-1.5v22h22v-22H97.4zm0 3h19l-1.5-1.5v19l1.5-1.5h-19l1.5 1.5v-19l-1.5 1.5zm-21.5-23h62v62h-62v-62z"/></defs><clipPath id="H"><use xlink:href="#G" overflow="visible"/></clipPath><g clip-path="url(#H)"><defs><path id="I" d="M97.4 374.6h19v19h-19z"/></defs><clipPath id="J"><use xlink:href="#I" overflow="visible"/></clipPath><g clip-path="url(#J)"><defs><path id="K" d="M-797.6-146.4h1121v1030h-1121z"/></defs></g></g><defs><path id="L" d="M97.4 374.6h19v19h-19z"/></defs><clipPath id="M"><use xlink:href="#L" overflow="visible"/></clipPath><g clip-path="url(#M)"><defs><path id="N" d="M-797.6-146.4h1121v1030h-1121z"/></defs></g><defs><path id="O" d="M102.4 378.1h-1.5v12h12v-12h-10.5zm0 3h9l-1.5-1.5v9l1.5-1.5h-9l1.5 1.5v-9l-1.5 1.5zm-21.5-23h52v52h-52v-52z"/></defs><clipPath id="P"><use xlink:href="#O" overflow="visible"/></clipPath><g clip-path="url(#P)"><defs><path id="Q" d="M102.4 379.6h9v9h-9z"/></defs><clipPath id="R"><use xlink:href="#Q" overflow="visible"/></clipPath><g clip-path="url(#R)"><defs><path id="S" d="M-797.6-146.4h1121v1030h-1121z"/></defs></g></g><defs><path id="T" d="M102.4 379.6h9v9h-9z"/></defs><clipPath id="U"><use xlink:href="#T" overflow="visible"/></clipPath><g clip-path="url(#U)"><defs><path id="V" d="M-797.6-146.4h1121v1030h-1121z"/></defs></g><defs><path id="W" d="M127.4 373.1h-1.5v22h22v-22h-20.5zm0 3h19l-1.5-1.5v19l1.5-1.5h-19l1.5 1.5v-19l-1.5 1.5zm-21.5-23h62v62h-62v-62z"/></defs><clipPath id="X"><use xlink:href="#W" overflow="visible"/></clipPath><g clip-path="url(#X)"><defs><path id="Y" d="M127.4 374.6h19v19h-19z"/></defs><clipPath id="Z"><use xlink:href="#Y" overflow="visible"/></clipPath><g clip-path="url(#Z)"><defs><path id="aa" d="M-797.6-146.4h1121v1030h-1121z"/></defs></g></g><defs><path id="ab" d="M127.4 374.6h19v19h-19z"/></defs><clipPath id="ac"><use xlink:href="#ab" overflow="visible"/></clipPath><g clip-path="url(#ac)"><defs><path id="ad" d="M-797.6-146.4h1121v1030h-1121z"/></defs></g><defs><path id="ae" d="M156.4 373.1h-1.5v22h22v-22h-20.5zm0 3h19l-1.5-1.5v19l1.5-1.5h-19l1.5 1.5v-19l-1.5 1.5zm-21.5-23h62v62h-62v-62z"/></defs><clipPath id="af"><use xlink:href="#ae" overflow="visible"/></clipPath><g clip-path="url(#af)"><defs><path id="ag" d="M156.4 374.6h19v19h-19z"/></defs><clipPath id="ah"><use xlink:href="#ag" overflow="visible"/></clipPath><g clip-path="url(#ah)"><defs><path id="ai" d="M-797.6-146.4h1121v1030h-1121z"/></defs></g></g><defs><path id="aj" d="M156.4 374.6h19v19h-19z"/></defs><clipPath id="ak"><use xlink:href="#aj" overflow="visible"/></clipPath><g clip-path="url(#ak)"><defs><path id="al" d="M-797.6-146.4h1121v1030h-1121z"/></defs></g><defs><path id="am" d="M127.4 401.1h-1.5v22h22v-22h-20.5zm0 3h19l-1.5-1.5v19l1.5-1.5h-19l1.5 1.5v-19l-1.5 1.5zm-21.5-23h62v62h-62v-62z"/></defs><clipPath id="an"><use xlink:href="#am" overflow="visible"/></clipPath><g clip-path="url(#an)"><defs><path id="ao" d="M127.4 402.6h19v19h-19z"/></defs><clipPath id="ap"><use xlink:href="#ao" overflow="visible"/></clipPath><g clip-path="url(#ap)"><defs><path id="aq" d="M-797.6-146.4h1121v1030h-1121z"/></defs></g></g><defs><path id="ar" d="M127.4 402.6h19v19h-19z"/></defs><clipPath id="as"><use xlink:href="#ar" overflow="visible"/></clipPath><g clip-path="url(#as)"><defs><path id="at" d="M-797.6-146.4h1121v1030h-1121z"/></defs></g><g><defs><path id="au" d="M156.4 401.1h-1.5v22h22v-22h-20.5zm0 3h19l-1.5-1.5v19l1.5-1.5h-19l1.5 1.5v-19l-1.5 1.5zm-21.5-23h62v62h-62v-62z"/></defs><clipPath id="av"><use xlink:href="#au" overflow="visible"/></clipPath><g clip-path="url(#av)"><defs><path id="aw" d="M156.4 402.6h19v19h-19z"/></defs><clipPath id="ax"><use xlink:href="#aw" overflow="visible"/></clipPath><g clip-path="url(#ax)"><defs><path id="ay" d="M-797.6-146.4h1121v1030h-1121z"/></defs></g></g></g><g><defs><path id="az" d="M156.4 402.6h19v19h-19z"/></defs><clipPath id="aA"><use xlink:href="#az" overflow="visible"/></clipPath><g clip-path="url(#aA)"><defs><path id="aB" d="M-797.6-146.4h1121v1030h-1121z"/></defs></g></g><g><defs><path id="aC" d="M132.4 378.1h-1.5v12h12v-12h-10.5zm0 3h9l-1.5-1.5v9l1.5-1.5h-9l1.5 1.5v-9l-1.5 1.5zm-21.5-23h52v52h-52v-52z"/></defs><clipPath id="aD"><use xlink:href="#aC" overflow="visible"/></clipPath><g clip-path="url(#aD)"><defs><path id="aE" d="M132.4 379.6h9v9h-9z"/></defs><clipPath id="aF"><use xlink:href="#aE" overflow="visible"/></clipPath><g clip-path="url(#aF)"><defs><path id="aG" d="M-797.6-146.4h1121v1030h-1121z"/></defs></g></g></g><g><defs><path id="aH" d="M132.4 379.6h9v9h-9z"/></defs><clipPath id="aI"><use xlink:href="#aH" overflow="visible"/></clipPath><g clip-path="url(#aI)"><defs><path id="aJ" d="M-797.6-146.4h1121v1030h-1121z"/></defs></g></g><g><defs><path id="aK" d="M161.4 378.1h-1.5v12h12v-12h-10.5zm0 3h9l-1.5-1.5v9l1.5-1.5h-9l1.5 1.5v-9l-1.5 1.5zm-21.5-23h52v52h-52v-52z"/></defs><clipPath id="aL"><use xlink:href="#aK" overflow="visible"/></clipPath><g clip-path="url(#aL)"><defs><path id="aM" d="M161.4 379.6h9v9h-9z"/></defs><clipPath id="aN"><use xlink:href="#aM" overflow="visible"/></clipPath><g clip-path="url(#aN)"><defs><path id="aO" d="M-797.6-146.4h1121v1030h-1121z"/></defs></g></g></g><g><defs><path id="aP" d="M161.4 379.6h9v9h-9z"/></defs><clipPath id="aQ"><use xlink:href="#aP" overflow="visible"/></clipPath><g clip-path="url(#aQ)"><defs><path id="aR" d="M-797.6-146.4h1121v1030h-1121z"/></defs></g></g><g><defs><path id="aS" d="M132.4 406.1h-1.5v12h12v-12h-10.5zm0 3h9l-1.5-1.5v9l1.5-1.5h-9l1.5 1.5v-9l-1.5 1.5zm-21.5-23h52v52h-52v-52z"/></defs><clipPath id="aT"><use xlink:href="#aS" overflow="visible"/></clipPath><g clip-path="url(#aT)"><defs><path id="aU" d="M132.4 407.6h9v9h-9z"/></defs><clipPath id="aV"><use xlink:href="#aU" overflow="visible"/></clipPath><g clip-path="url(#aV)"><defs><path id="aW" d="M-797.6-146.4h1121v1030h-1121z"/></defs></g></g></g><g><defs><path id="aX" d="M132.4 407.6h9v9h-9z"/></defs><clipPath id="aY"><use xlink:href="#aX" overflow="visible"/></clipPath><g clip-path="url(#aY)"><defs><path id="aZ" d="M-797.6-146.4h1121v1030h-1121z"/></defs></g></g><g><defs><path id="ba" d="M161.4 406.1h-1.5v12h12v-12h-10.5zm0 3h9l-1.5-1.5v9l1.5-1.5h-9l1.5 1.5v-9l-1.5 1.5zm-21.5-23h52v52h-52v-52z"/></defs><clipPath id="bb"><use xlink:href="#ba" overflow="visible"/></clipPath><g clip-path="url(#bb)"><defs><path id="bc" d="M161.4 407.6h9v9h-9z"/></defs><clipPath id="bd"><use xlink:href="#bc" overflow="visible"/></clipPath><g clip-path="url(#bd)"><defs><path id="be" d="M-797.6-146.4h1121v1030h-1121z"/></defs></g></g></g><g><defs><path id="bf" d="M161.4 407.6h9v9h-9z"/></defs><clipPath id="bg"><use xlink:href="#bf" overflow="visible"/></clipPath><g clip-path="url(#bg)"><defs><path id="bh" d="M-797.6-146.4h1121v1030h-1121z"/></defs></g></g><g><defs><circle id="bi" cx="-195.7" cy="376" r="15.7"/></defs><defs><path id="bj" d="M-195.7 393.3c-9.5 0-17.2-7.7-17.2-17.2s7.7-17.2 17.2-17.2 17.2 7.7 17.2 17.2c.1 9.4-7.7 17.2-17.2 17.2zm0-31.5c-7.9 0-14.2 6.4-14.2 14.2 0 7.9 6.4 14.2 14.2 14.2s14.2-6.4 14.2-14.2c.1-7.8-6.3-14.2-14.2-14.2z"/></defs><use xlink:href="#bi" overflow="visible" fill-rule="evenodd" clip-rule="evenodd" fill="#FFF"/><use xlink:href="#bj" overflow="visible" fill="#0F1F2D"/><clipPath id="bk"><use xlink:href="#bi" overflow="visible"/></clipPath><clipPath id="bl" clip-path="url(#bk)"><use xlink:href="#bj" overflow="visible"/></clipPath><g clip-path="url(#bl)"><defs><path id="bm" d="M-258.8 109.7h405.6v372.7h-405.6z"/></defs><defs><path id="bn" d="M148.3 483.9h-408.6V108.2h408.6v375.7zm-405.6-3h402.6V111.2h-402.6v369.7z"/></defs><use xlink:href="#bm" overflow="visible" fill="#FFF"/><use xlink:href="#bn" overflow="visible" fill="#0F1F2D"/><clipPath id="bo"><use xlink:href="#bm" overflow="visible"/></clipPath></g></g><g><defs><path id="bp" d="M683.4 34.1h-1.5v84h108v-84H683.4zm0 3h105l-1.5-1.5v81l1.5-1.5h-105l1.5 1.5v-81l-1.5 1.5zm-21.5-23h148v124h-148v-124z"/></defs><clipPath id="bq"><use xlink:href="#bp" overflow="visible"/></clipPath><g clip-path="url(#bq)"><defs><path id="br" d="M683.4 35.6h105v81h-105z"/></defs><clipPath id="bs"><use xlink:href="#br" overflow="visible"/></clipPath><g clip-path="url(#bs)"><defs><path id="bt" d="M-197.6-463.4h1121v1030h-1121z"/></defs></g></g></g><g><defs><path id="bu" d="M683.4 35.6h105v81h-105z"/></defs><clipPath id="bv"><use xlink:href="#bu" overflow="visible"/></clipPath><g clip-path="url(#bv)"><defs><path id="bw" d="M-197.6-463.4h1121v1030h-1121z"/></defs></g></g><g><defs><path id="bx" d="M677.4 51.1h-2.2l.9-2.1 9.1-22 .4-.9h100.9l.4.9 9.1 22 .9 2.1H677.4zm0-3h117l-1.4 2.1-9.1-22 1.4.9h-98.9l1.4-.9-9.1 22-1.3-2.1zm-22.3 23h161.5v-65H655.1v65z"/></defs><clipPath id="by"><use xlink:href="#bx" overflow="visible"/></clipPath><g clip-path="url(#by)"><defs><path id="bz" d="M677.4 49.6h117l-9.1-22h-98.8z"/></defs><clipPath id="bA"><use xlink:href="#bz" overflow="visible"/></clipPath><g clip-path="url(#bA)"><defs><path id="bB" d="M-197.6-463.4h1121v1030h-1121z"/></defs></g></g></g><g><defs><path id="bC" d="M677.4 49.6h117l-9.1-22h-98.8z"/></defs><clipPath id="bD"><use xlink:href="#bC" overflow="visible"/></clipPath><g clip-path="url(#bD)"><defs><path id="bE" d="M-197.6-463.4h1121v1030h-1121z"/></defs></g></g><g><defs><path id="bF" d="M762.4 18.1h-1.5v19h15v-19h-13.5zm0 3h12l-1.5-1.5v16l1.5-1.5h-12l1.5 1.5v-16l-1.5 1.5zm-21.5-23h55v59h-55v-59z"/></defs><clipPath id="bG"><use xlink:href="#bF" overflow="visible"/></clipPath><g clip-path="url(#bG)"><defs><path id="bH" d="M762.4 19.6h12v16h-12z"/></defs><clipPath id="bI"><use xlink:href="#bH" overflow="visible"/></clipPath><g clip-path="url(#bI)"><defs><path id="bJ" d="M-197.6-463.4h1121v1030h-1121z"/></defs></g></g></g><g><defs><path id="bK" d="M762.4 19.6h12v16h-12z"/></defs><clipPath id="bL"><use xlink:href="#bK" overflow="visible"/></clipPath><g clip-path="url(#bL)"><defs><path id="bM" d="M-197.6-463.4h1121v1030h-1121z"/></defs></g></g><g><defs><path id="bN" d="M696.4 84.1h-1.5v34h24v-34h-22.5zm0 3h21l-1.5-1.5v31l1.5-1.5h-21l1.5 1.5v-31l-1.5 1.5zm-21.5-23h64v74h-64v-74z"/></defs><clipPath id="bO"><use xlink:href="#bN" overflow="visible"/></clipPath><g clip-path="url(#bO)"><defs><path id="bP" d="M696.4 85.6h21v31h-21z"/></defs><clipPath id="bQ"><use xlink:href="#bP" overflow="visible"/></clipPath><g clip-path="url(#bQ)"><defs><path id="bR" d="M-197.6-463.4h1121v1030h-1121z"/></defs></g></g></g><g><defs><path id="bS" d="M696.4 85.6h21v31h-21z"/></defs><clipPath id="bT"><use xlink:href="#bS" overflow="visible"/></clipPath><g clip-path="url(#bT)"><defs><path id="bU" d="M-197.6-463.4h1121v1030h-1121z"/></defs></g></g><g><defs><path id="bV" d="M697.4 56.1h-1.5v22h22v-22h-20.5zm0 3h19l-1.5-1.5v19l1.5-1.5h-19l1.5 1.5v-19l-1.5 1.5zm-21.5-23h62v62h-62v-62z"/></defs><clipPath id="bW"><use xlink:href="#bV" overflow="visible"/></clipPath><g clip-path="url(#bW)"><defs><path id="bX" d="M697.4 57.6h19v19h-19z"/></defs><clipPath id="bY"><use xlink:href="#bX" overflow="visible"/></clipPath><g clip-path="url(#bY)"><defs><path id="bZ" d="M-197.6-463.4h1121v1030h-1121z"/></defs></g></g></g><g><defs><path id="ca" d="M697.4 57.6h19v19h-19z"/></defs><clipPath id="cb"><use xlink:href="#ca" overflow="visible"/></clipPath><g clip-path="url(#cb)"><defs><path id="cc" d="M-197.6-463.4h1121v1030h-1121z"/></defs></g></g><g><defs><path id="cd" d="M702.4 61.1h-1.5v12h12v-12h-10.5zm0 3h9l-1.5-1.5v9l1.5-1.5h-9l1.5 1.5v-9l-1.5 1.5zm-21.5-23h52v52h-52v-52z"/></defs><clipPath id="ce"><use xlink:href="#cd" overflow="visible"/></clipPath><g clip-path="url(#ce)"><defs><path id="cf" d="M702.4 62.6h9v9h-9z"/></defs><clipPath id="cg"><use xlink:href="#cf" overflow="visible"/></clipPath><g clip-path="url(#cg)"><defs><path id="ch" d="M-197.6-463.4h1121v1030h-1121z"/></defs></g></g></g><g><defs><path id="ci" d="M702.4 62.6h9v9h-9z"/></defs><clipPath id="cj"><use xlink:href="#ci" overflow="visible"/></clipPath><g clip-path="url(#cj)"><defs><path id="ck" d="M-197.6-463.4h1121v1030h-1121z"/></defs></g></g><g><defs><path id="cl" d="M727.4 56.1h-1.5v22h22v-22h-20.5zm0 3h19l-1.5-1.5v19l1.5-1.5h-19l1.5 1.5v-19l-1.5 1.5zm-21.5-23h62v62h-62v-62z"/></defs><clipPath id="cm"><use xlink:href="#cl" overflow="visible"/></clipPath><g clip-path="url(#cm)"><defs><path id="cn" d="M727.4 57.6h19v19h-19z"/></defs><clipPath id="co"><use xlink:href="#cn" overflow="visible"/></clipPath><g clip-path="url(#co)"><defs><path id="cp" d="M-197.6-463.4h1121v1030h-1121z"/></defs></g></g></g><g><defs><path id="cq" d="M727.4 57.6h19v19h-19z"/></defs><clipPath id="cr"><use xlink:href="#cq" overflow="visible"/></clipPath><g clip-path="url(#cr)"><defs><path id="cs" d="M-197.6-463.4h1121v1030h-1121z"/></defs></g></g><g><defs><path id="ct" d="M756.4 56.1h-1.5v22h22v-22h-20.5zm0 3h19l-1.5-1.5v19l1.5-1.5h-19l1.5 1.5v-19l-1.5 1.5zm-21.5-23h62v62h-62v-62z"/></defs><clipPath id="cu"><use xlink:href="#ct" overflow="visible"/></clipPath><g clip-path="url(#cu)"><defs><path id="cv" d="M756.4 57.6h19v19h-19z"/></defs><clipPath id="cw"><use xlink:href="#cv" overflow="visible"/></clipPath><g clip-path="url(#cw)"><defs><path id="cx" d="M-197.6-463.4h1121v1030h-1121z"/></defs></g></g></g><g><defs><path id="cy" d="M756.4 57.6h19v19h-19z"/></defs><clipPath id="cz"><use xlink:href="#cy" overflow="visible"/></clipPath><g clip-path="url(#cz)"><defs><path id="cA" d="M-197.6-463.4h1121v1030h-1121z"/></defs></g></g><g><defs><path id="cB" d="M727.4 84.1h-1.5v22h22v-22h-20.5zm0 3h19l-1.5-1.5v19l1.5-1.5h-19l1.5 1.5v-19l-1.5 1.5zm-21.5-23h62v62h-62v-62z"/></defs><clipPath id="cC"><use xlink:href="#cB" overflow="visible"/></clipPath><g clip-path="url(#cC)"><defs><path id="cD" d="M727.4 85.6h19v19h-19z"/></defs><clipPath id="cE"><use xlink:href="#cD" overflow="visible"/></clipPath><g clip-path="url(#cE)"><defs><path id="cF" d="M-197.6-463.4h1121v1030h-1121z"/></defs></g></g></g><g><defs><path id="cG" d="M727.4 85.6h19v19h-19z"/></defs><clipPath id="cH"><use xlink:href="#cG" overflow="visible"/></clipPath><g clip-path="url(#cH)"><defs><path id="cI" d="M-197.6-463.4h1121v1030h-1121z"/></defs></g></g><g><defs><path id="cJ" d="M756.4 84.1h-1.5v22h22v-22h-20.5zm0 3h19l-1.5-1.5v19l1.5-1.5h-19l1.5 1.5v-19l-1.5 1.5zm-21.5-23h62v62h-62v-62z"/></defs><clipPath id="cK"><use xlink:href="#cJ" overflow="visible"/></clipPath><g clip-path="url(#cK)"><defs><path id="cL" d="M756.4 85.6h19v19h-19z"/></defs><clipPath id="cM"><use xlink:href="#cL" overflow="visible"/></clipPath><g clip-path="url(#cM)"><defs><path id="cN" d="M-197.6-463.4h1121v1030h-1121z"/></defs></g></g></g><g><defs><path id="cO" d="M756.4 85.6h19v19h-19z"/></defs><clipPath id="cP"><use xlink:href="#cO" overflow="visible"/></clipPath><g clip-path="url(#cP)"><defs><path id="cQ" d="M-197.6-463.4h1121v1030h-1121z"/></defs></g></g><g><defs><path id="cR" d="M732.4 61.1h-1.5v12h12v-12h-10.5zm0 3h9l-1.5-1.5v9l1.5-1.5h-9l1.5 1.5v-9l-1.5 1.5zm-21.5-23h52v52h-52v-52z"/></defs><clipPath id="cS"><use xlink:href="#cR" overflow="visible"/></clipPath><g clip-path="url(#cS)"><defs><path id="cT" d="M732.4 62.6h9v9h-9z"/></defs><clipPath id="cU"><use xlink:href="#cT" overflow="visible"/></clipPath><g clip-path="url(#cU)"><defs><path id="cV" d="M-197.6-463.4h1121v1030h-1121z"/></defs></g></g></g><g><defs><path id="cW" d="M732.4 62.6h9v9h-9z"/></defs><clipPath id="cX"><use xlink:href="#cW" overflow="visible"/></clipPath><g clip-path="url(#cX)"><defs><path id="cY" d="M-197.6-463.4h1121v1030h-1121z"/></defs></g></g><g><defs><path id="cZ" d="M761.4 61.1h-1.5v12h12v-12h-10.5zm0 3h9l-1.5-1.5v9l1.5-1.5h-9l1.5 1.5v-9l-1.5 1.5zm-21.5-23h52v52h-52v-52z"/></defs><clipPath id="da"><use xlink:href="#cZ" overflow="visible"/></clipPath><g clip-path="url(#da)"><defs><path id="db" d="M761.4 62.6h9v9h-9z"/></defs><clipPath id="dc"><use xlink:href="#db" overflow="visible"/></clipPath><g clip-path="url(#dc)"><defs><path id="dd" d="M-197.6-463.4h1121v1030h-1121z"/></defs></g></g></g><g><defs><path id="de" d="M761.4 62.6h9v9h-9z"/></defs><clipPath id="df"><use xlink:href="#de" overflow="visible"/></clipPath><g clip-path="url(#df)"><defs><path id="dg" d="M-197.6-463.4h1121v1030h-1121z"/></defs></g></g><g><defs><path id="dh" d="M732.4 89.1h-1.5v12h12v-12h-10.5zm0 3h9l-1.5-1.5v9l1.5-1.5h-9l1.5 1.5v-9l-1.5 1.5zm-21.5-23h52v52h-52v-52z"/></defs><clipPath id="di"><use xlink:href="#dh" overflow="visible"/></clipPath><g clip-path="url(#di)"><defs><path id="dj" d="M732.4 90.6h9v9h-9z"/></defs><clipPath id="dk"><use xlink:href="#dj" overflow="visible"/></clipPath><g clip-path="url(#dk)"><defs><path id="dl" d="M-197.6-463.4h1121v1030h-1121z"/></defs></g></g></g><g><defs><path id="dm" d="M732.4 90.6h9v9h-9z"/></defs><clipPath id="dn"><use xlink:href="#dm" overflow="visible"/></clipPath><g clip-path="url(#dn)"><defs><path id="do" d="M-197.6-463.4h1121v1030h-1121z"/></defs></g></g><g><defs><path id="dp" d="M761.4 89.1h-1.5v12h12v-12h-10.5zm0 3h9l-1.5-1.5v9l1.5-1.5h-9l1.5 1.5v-9l-1.5 1.5zm-21.5-23h52v52h-52v-52z"/></defs><clipPath id="dq"><use xlink:href="#dp" overflow="visible"/></clipPath><g clip-path="url(#dq)"><defs><path id="dr" d="M761.4 90.6h9v9h-9z"/></defs><clipPath id="ds"><use xlink:href="#dr" overflow="visible"/></clipPath><g clip-path="url(#ds)"><defs><path id="dt" d="M-197.6-463.4h1121v1030h-1121z"/></defs></g></g></g><g><defs><path id="du" d="M761.4 90.6h9v9h-9z"/></defs><clipPath id="dv"><use xlink:href="#du" overflow="visible"/></clipPath><g clip-path="url(#dv)"><defs><path id="dw" d="M-197.6-463.4h1121v1030h-1121z"/></defs></g></g></svg>