<svg id="Layer_1" data-name="Layer 1" xmlns="http://www.w3.org/2000/svg" viewBox="0 0 276 137"><defs><style>.cls-1,.cls-2{fill:none}.cls-1{clip-rule:evenodd}.cls-43{fill:#fff;stroke:#091f2f;stroke-miterlimit:10;stroke-width:3px}.cls-44{fill:#0c1f2e}</style><clipPath id="clip-path"><path class="cls-1" d="M383.67-441.51h-1.5v84h108v-84h-106.5zm0 3h105l-1.5-1.5v81l1.5-1.5h-105l1.5 1.5v-81zm-21.5-23h148v124h-148z"/></clipPath><clipPath id="clip-path-2"><path class="cls-2" d="M383.67-440.01h105v81h-105z"/></clipPath><clipPath id="clip-path-4"><path class="cls-1" d="M377.67-424.51h-2.24l.85-2.07 9.07-22 .38-.93H486.6l.38.93 9.07 22 .85 2.07H377.67zm0-3h117l-1.39 2.07-9.07-22 1.39.93h-98.86l1.39-.93-9.07 22zm-22.24 23h161.48v-65H355.43z"/></clipPath><clipPath id="clip-path-5"><path class="cls-1" d="M377.67-426.01h117l-9.07-22h-98.86l-9.07 22z"/></clipPath><clipPath id="clip-path-7"><path class="cls-1" d="M462.67-457.51h-1.5v19h15v-19h-13.5zm0 3h12l-1.5-1.5v16l1.5-1.5h-12l1.5 1.5v-16zm-21.5-23h55v59h-55z"/></clipPath><clipPath id="clip-path-8"><path class="cls-2" d="M462.67-456.01h12v16h-12z"/></clipPath><clipPath id="clip-path-10"><path class="cls-1" d="M396.67-391.51h-1.5v34h24v-34h-22.5zm0 3h21l-1.5-1.5v31l1.5-1.5h-21l1.5 1.5v-31zm-21.5-23h64v74h-64z"/></clipPath><clipPath id="clip-path-11"><path class="cls-2" d="M396.67-390.01h21v31h-21z"/></clipPath><clipPath id="clip-path-13"><path class="cls-1" d="M397.67-419.51h-1.5v22h22v-22h-20.5zm0 3h19l-1.5-1.5v19l1.5-1.5h-19l1.5 1.5v-19zm-21.5-23h62v62h-62z"/></clipPath><clipPath id="clip-path-14"><path class="cls-2" d="M397.67-418.01h19v19h-19z"/></clipPath><clipPath id="clip-path-16"><path class="cls-1" d="M402.67-414.51h-1.5v12h12v-12h-10.5zm0 3h9l-1.5-1.5v9l1.5-1.5h-9l1.5 1.5v-9zm-21.5-23h52v52h-52z"/></clipPath><clipPath id="clip-path-17"><path class="cls-2" d="M402.67-413.01h9v9h-9z"/></clipPath><clipPath id="clip-path-19"><path class="cls-1" d="M427.67-419.51h-1.5v22h22v-22h-20.5zm0 3h19l-1.5-1.5v19l1.5-1.5h-19l1.5 1.5v-19zm-21.5-23h62v62h-62z"/></clipPath><clipPath id="clip-path-20"><path class="cls-2" d="M427.67-418.01h19v19h-19z"/></clipPath><clipPath id="clip-path-22"><path class="cls-1" d="M456.67-419.51h-1.5v22h22v-22h-20.5zm0 3h19l-1.5-1.5v19l1.5-1.5h-19l1.5 1.5v-19zm-21.5-23h62v62h-62z"/></clipPath><clipPath id="clip-path-23"><path class="cls-2" d="M456.67-418.01h19v19h-19z"/></clipPath><clipPath id="clip-path-25"><path class="cls-1" d="M427.67-391.51h-1.5v22h22v-22h-20.5zm0 3h19l-1.5-1.5v19l1.5-1.5h-19l1.5 1.5v-19zm-21.5-23h62v62h-62z"/></clipPath><clipPath id="clip-path-26"><path class="cls-2" d="M427.67-390.01h19v19h-19z"/></clipPath><clipPath id="clip-path-28"><path class="cls-1" d="M456.67-391.51h-1.5v22h22v-22h-20.5zm0 3h19l-1.5-1.5v19l1.5-1.5h-19l1.5 1.5v-19zm-21.5-23h62v62h-62z"/></clipPath><clipPath id="clip-path-29"><path class="cls-2" d="M456.67-390.01h19v19h-19z"/></clipPath><clipPath id="clip-path-31"><path class="cls-1" d="M432.67-414.51h-1.5v12h12v-12h-10.5zm0 3h9l-1.5-1.5v9l1.5-1.5h-9l1.5 1.5v-9zm-21.5-23h52v52h-52z"/></clipPath><clipPath id="clip-path-32"><path class="cls-2" d="M432.67-413.01h9v9h-9z"/></clipPath><clipPath id="clip-path-34"><path class="cls-1" d="M461.67-414.51h-1.5v12h12v-12h-10.5zm0 3h9l-1.5-1.5v9l1.5-1.5h-9l1.5 1.5v-9zm-21.5-23h52v52h-52z"/></clipPath><clipPath id="clip-path-35"><path class="cls-2" d="M461.67-413.01h9v9h-9z"/></clipPath><clipPath id="clip-path-37"><path class="cls-1" d="M432.67-386.51h-1.5v12h12v-12h-10.5zm0 3h9l-1.5-1.5v9l1.5-1.5h-9l1.5 1.5v-9zm-21.5-23h52v52h-52z"/></clipPath><clipPath id="clip-path-38"><path class="cls-2" d="M432.67-385.01h9v9h-9z"/></clipPath><clipPath id="clip-path-40"><path class="cls-1" d="M461.67-386.51h-1.5v12h12v-12h-10.5zm0 3h9l-1.5-1.5v9l1.5-1.5h-9l1.5 1.5v-9zm-21.5-23h52v52h-52z"/></clipPath><clipPath id="clip-path-41"><path class="cls-2" d="M461.67-385.01h9v9h-9z"/></clipPath><clipPath id="clip-path-43"><path class="cls-1" d="M-643.77 352.13h-1.5v38h142V365l-.41-.43-11.44-12-.44-.46h-128.2zm0 3h127.56l-1.09-.46 11.44 12-.41-1v23l1.5-1.5h-139l1.5 1.5v-35zm-21.5-23h182v78h-182z"/></clipPath><clipPath id="clip-path-44"><path class="cls-1" d="M-643.77 353.63h127.56l11.44 12v23h-139v-35z"/></clipPath><clipPath id="clip-path-46"><path class="cls-1" d="M-610.77 403.55a14.5 14.5 0 0 1-14.5-14.5 14.5 14.5 0 0 1 14.5-14.5 14.5 14.5 0 0 1 14.5 14.5 14.5 14.5 0 0 1-14.5 14.5zm0 3a17.5 17.5 0 0 0 17.5-17.5 17.5 17.5 0 0 0-17.5-17.5 17.5 17.5 0 0 0-17.5 17.5 17.5 17.5 0 0 0 17.5 17.5zm-37.5-55h75v75h-75z"/></clipPath><clipPath id="clip-path-47"><circle class="cls-2" cx="-610.77" cy="389.05" r="16"/></clipPath><clipPath id="clip-path-49"><path class="cls-1" d="M-610.77 396.55a7.5 7.5 0 0 1-7.5-7.5 7.5 7.5 0 0 1 7.5-7.5 7.5 7.5 0 0 1 7.5 7.5 7.5 7.5 0 0 1-7.5 7.5zm0 3a10.5 10.5 0 0 0 10.5-10.5 10.5 10.5 0 0 0-10.5-10.5 10.5 10.5 0 0 0-10.5 10.5 10.5 10.5 0 0 0 10.5 10.5zm-30.5-41h61v61h-61z"/></clipPath><clipPath id="clip-path-50"><circle class="cls-2" cx="-610.77" cy="389.05" r="9"/></clipPath><clipPath id="clip-path-52"><path class="cls-1" d="M-544.54 403.55a14.5 14.5 0 0 1-14.5-14.5 14.5 14.5 0 0 1 14.5-14.5 14.5 14.5 0 0 1 14.5 14.5 14.5 14.5 0 0 1-14.5 14.5zm0 3a17.5 17.5 0 0 0 17.5-17.5 17.5 17.5 0 0 0-17.5-17.5 17.5 17.5 0 0 0-17.5 17.5 17.5 17.5 0 0 0 17.5 17.5zm-37.5-55h75v75h-75z"/></clipPath><clipPath id="clip-path-53"><circle class="cls-2" cx="-544.54" cy="389.05" r="16"/></clipPath><clipPath id="clip-path-55"><path class="cls-1" d="M-544.31 348.72l-7.69-15.57h-27.17v15.57zm-75.16 0l7.38-15.55h27.17v15.53zm-10.3 5.35l14.14-26.89h66.84l15.35 27.82z"/></clipPath><clipPath id="clip-path-56"><path class="cls-1" d="M-544.54 396.55a7.5 7.5 0 0 1-7.5-7.5 7.5 7.5 0 0 1 7.5-7.5 7.5 7.5 0 0 1 7.5 7.5 7.5 7.5 0 0 1-7.5 7.5zm0 3a10.5 10.5 0 0 0 10.5-10.5 10.5 10.5 0 0 0-10.5-10.5 10.5 10.5 0 0 0-10.5 10.5 10.5 10.5 0 0 0 10.5 10.5zm-30.5-41h61v61h-61z"/></clipPath><clipPath id="clip-path-57"><circle class="cls-2" cx="-544.54" cy="389.05" r="9"/></clipPath><clipPath id="clip-path-59"><circle class="cls-2" cx="-145.7" cy="702.62" r="50.5"/></clipPath><clipPath id="clip-path-60"><circle class="cls-2" cx="-145.7" cy="702.62" r="43.5"/></clipPath></defs><path class="cls-43" d="M190.27 47.14H93.6v61.11h42.53l-.82 2.5h13.25l-.68-2.5h42.39V47.14z"/><path class="cls-43" d="M98.92 42.55h43.02v61.11H98.92zm43.02 0h43.02v61.11h-43.02zm-25.37 11.72h17.85m-17.85 7.56h17.85m-27.8 7.57h27.8m-27.8 7.56h27.8m-27.8 7.57h27.8m-27.8 7.56h27.8m15.12-37.82h27.81m-27.81 7.56h27.81m-27.81 7.57h27.81m-27.81 7.56h27.81m-27.81 7.57h27.81m-27.81 7.56h27.81"/><path class="cls-44" d="M111.48 56.39h-2.84l-2.02 1.53v5.25h6.87v-5.19l-2.01-1.59z"/><circle class="cls-44" cx="109.99" cy="53.61" r="1.82"/></svg>