<svg id="Layer_1" data-name="Layer 1" xmlns="http://www.w3.org/2000/svg" viewBox="0 0 276 137"><defs><style>.cls-1,.cls-26,.cls-27{fill:none}.cls-2,.cls-23,.cls-25{fill:#fff}.cls-2,.cls-26,.cls-27,.cls-31{stroke:#0e1f2d;stroke-miterlimit:10}.cls-2,.cls-26,.cls-27{stroke-width:3px}.cls-2{clip-rule:evenodd}.cls-3{clip-path:url(#clip-path)}.cls-4{clip-path:url(#clip-path-3)}.cls-5{clip-path:url(#clip-path-4)}.cls-6{clip-path:url(#clip-path-5)}.cls-7{clip-path:url(#clip-path-6)}.cls-8{clip-path:url(#clip-path-7)}.cls-9{clip-path:url(#clip-path-8)}.cls-10{clip-path:url(#clip-path-9)}.cls-11{clip-path:url(#clip-path-10)}.cls-12{clip-path:url(#clip-path-11)}.cls-13{clip-path:url(#clip-path-12)}.cls-14{clip-path:url(#clip-path-13)}.cls-15{clip-path:url(#clip-path-14)}.cls-16{clip-path:url(#clip-path-15)}.cls-17{clip-path:url(#clip-path-16)}.cls-18{clip-path:url(#clip-path-17)}.cls-19{clip-path:url(#clip-path-18)}.cls-20{clip-path:url(#clip-path-19)}.cls-21{clip-path:url(#clip-path-21)}.cls-22{clip-path:url(#clip-path-22)}.cls-23,.cls-27{fill-rule:evenodd}.cls-24{clip-path:url(#clip-path-23)}.cls-28{clip-path:url(#clip-path-24)}.cls-29{clip-path:url(#clip-path-25)}.cls-30,.cls-31{fill:#0e1f2d}</style><clipPath id="clip-path"><path class="cls-1" d="M390.26-296.88h53.51v88.33h-53.51z"/></clipPath><clipPath id="clip-path-3"><path class="cls-1" d="M397.9-273.1h37.37v11.04H397.9z"/></clipPath><clipPath id="clip-path-4"><path class="cls-1" d="M397.9-264.61h37.37v11.04H397.9z"/></clipPath><clipPath id="clip-path-5"><path class="cls-1" d="M397.9-256.12h37.37v11.04H397.9z"/></clipPath><clipPath id="clip-path-6"><path class="cls-1" d="M397.9-247.62h37.37v11.89H397.9z"/></clipPath><clipPath id="clip-path-7"><path class="cls-1" d="M397.9-238.28h37.37v11.89H397.9z"/></clipPath><clipPath id="clip-path-8"><path class="cls-1" d="M397.9-228.94h37.37v11.89H397.9z"/></clipPath><clipPath id="clip-path-9"><path class="cls-1" d="M398.75-288.39h2.55v11.04h-2.55z"/></clipPath><clipPath id="clip-path-10"><path class="cls-1" d="M403-288.39h2.55v11.04H403z"/></clipPath><clipPath id="clip-path-11"><path class="cls-1" d="M407.25-288.39h2.55v11.04h-2.55z"/></clipPath><clipPath id="clip-path-12"><path class="cls-1" d="M411.49-288.39h2.55v11.04h-2.55z"/></clipPath><clipPath id="clip-path-13"><path class="cls-1" d="M415.74-288.39h2.55v11.04h-2.55z"/></clipPath><clipPath id="clip-path-14"><path class="cls-1" d="M415.74-245.08h2.55v27.18h-2.55z"/></clipPath><clipPath id="clip-path-15"><path class="cls-1" d="M419.99-288.39h2.55v11.04h-2.55z"/></clipPath><clipPath id="clip-path-16"><path class="cls-1" d="M424.23-288.39h2.55v11.04h-2.55z"/></clipPath><clipPath id="clip-path-17"><path class="cls-1" d="M428.48-288.39h2.55v11.04h-2.55z"/></clipPath><clipPath id="clip-path-18"><path class="cls-1" d="M432.73-288.39h2.55v11.04h-2.55z"/></clipPath><clipPath id="clip-path-19"><circle class="cls-1" cx="451.41" cy="-220.44" r="26.33"/></clipPath><clipPath id="clip-path-21"><circle class="cls-1" cx="138" cy="-245.5" r="50.5"/></clipPath><clipPath id="clip-path-22"><circle class="cls-1" cx="138" cy="-245.5" r="43.5"/></clipPath><clipPath id="clip-path-23"><path class="cls-2" d="M-520.75-86.67h109.48l9.81 9.65v18.51h-119.29v-28.16z"/></clipPath><clipPath id="clip-path-24"><circle class="cls-1" cx="432.16" cy="-88.5" r="50.5"/></clipPath><clipPath id="clip-path-25"><circle class="cls-1" cx="432.16" cy="-88.5" r="43.5"/></clipPath></defs><title>EXPERIENTIAL ICONS 2 (2)</title><path class="cls-23" d="M-520.75-86.67h109.48l9.81 9.65v18.51h-119.29v-28.16z"/><g class="cls-24"><path class="cls-25" d="M-840.01-517.18h962.06v828.83h-962.06z"/><path class="cls-26" d="M-840.01-517.18h962.06v828.83h-962.06z"/></g><path class="cls-27" d="M-520.75-86.67h109.48l9.81 9.65v18.51h-119.29v-28.16z"/><path class="cls-26" d="M138 29.76L82.4 52l10.47 4.62 2.45 1.09 3 1.32 4.31 1.91 4.26 1.89L112 65l26 11.49L164 65l5.1-2.26L193.6 52zm0 23.84a2.74 2.74 0 0 1-.5 0 6.68 6.68 0 0 1-2.83-.68c-.57-.3-.91-.68-.91-1.1a.36.36 0 0 1 0-.18.16.16 0 0 1 0-.08c.28-.87 2.06-1.53 4.18-1.53 2.34 0 4.22.8 4.22 1.79s-1.82 1.78-4.16 1.78z"/><path class="cls-30" d="M142.23 51.79c0 1-1.88 1.81-4.22 1.81a2.74 2.74 0 0 1-.5 0 6.68 6.68 0 0 1-2.83-.68c-.57-.3-.91-.68-.91-1.1a.36.36 0 0 1 0-.18.16.16 0 0 1 0-.08c.28-.87 2.06-1.53 4.18-1.53 2.39-.03 4.28.77 4.28 1.76z"/><path class="cls-26" d="M138 83l31.1-13.75v23.97c-10.29-1.49-31.09 14-31.09 14s-20.93-14.5-31.13-13.87V69.3z"/><path class="cls-31" d="M139 51.68a1 1 0 0 1-.87 1.11L95.23 58v25.3a1.18 1.18 0 0 1-2.36 0V57.67a1.15 1.15 0 0 1 .19-.64 1 1 0 0 1 .87-.92l44-5.3a1 1 0 0 1 1.07.87z"/></svg>