<svg xmlns="http://www.w3.org/2000/svg" viewBox="0 0 276 137"><title>EXPERIENTIAL ICONS 3_</title><g data-name="Layer 1"><path fill="#fff" stroke="#0e1f2d" stroke-linecap="round" stroke-miterlimit="10" stroke-width="3" d="M163.06 25.64l16.48 4.28-16.48 16.69V34.2l-4.5-5.14 4.5-3.42z"/><path d="M162.81 22.5l.16-.62a.49.49 0 0 0-.81-.49L129.8 50.63c-.73.83-22.93 26.24-28.34 35.4-5.26 8.89-5 15.86-4.94 16.47a.46.46 0 0 0 0 .08c.12.49 1.3 5.37 2 6.31s4 4.89 4.46 5.44a.48.48 0 0 0 .13.11 8.92 8.92 0 0 0 4.86 1.23c2.4-.28 6.07-2 6.91-3s11.64-22 12.12-23v-.06c.58-.82 13.5-18.86 18.32-24.1 4.58-5 16.21-14 17.87-15.23a.49.49 0 0 0 .19-.4l-.56-27.34a.49.49 0 0 1-.01-.04z" fill="#fff" stroke="#0e1f2d" stroke-linecap="round" stroke-miterlimit="10" stroke-width="3"/><rect x="113.11" y="56.76" width="47.04" height="5.59" rx="2.8" ry="2.8" transform="rotate(-45 136.633 59.565)" fill="#fff" stroke="#0e1f2d" stroke-linecap="round" stroke-miterlimit="10" stroke-width="3"/><path fill="#0e1f2d" d="M132.874 55.606l7.438-7.438 7.962 7.962-7.438 7.438z"/><path fill="none" stroke="#0c1f2e" stroke-linecap="round" stroke-miterlimit="10" stroke-width="3" d="M106.77 97.97l5.87 14.77"/><path fill="#fff" stroke="#0e1f2d" stroke-linecap="round" stroke-miterlimit="10" stroke-width="3" d="M116.35 108.08l-5.53-13.9M120.26 102.4l-5.59-14.04"/><path fill="none" stroke="#0e1f2d" stroke-linecap="round" stroke-miterlimit="10" stroke-width="3" d="M123.77 95.92l-5.14-12.9"/></g></svg>