<svg xmlns="http://www.w3.org/2000/svg" viewBox="0 0 276 137"><g data-name="Layer 1" fill="#fff" stroke="#0c1f2e" stroke-miterlimit="10" stroke-width="3"><path d="M91.18 72.12h93.64v35.04H91.18zm47.23-45.3v17.47"/><path d="M159 56.7h-41.19c2-12.32 10.44-21.6 20.6-21.6s18.65 9.28 20.59 21.6z" fill-rule="evenodd"/><path d="M102.61 65.24h71.61v44.94h-71.61z"/><path d="M138.41 44.29L112.5 54.57v3.52l2.53.09v9.25h46.77v-9.59h2.52v-3.27l-25.91-10.28zm-23.38 45.49V65.24m9.35 24.54V67.46m9.36 22.32V67.46m9.35 22.32V67.46m9.35 22.32V67.43m9.35 22.35V65.24m-59.18 24.54h71.61"/></g></svg>