<svg xmlns="http://www.w3.org/2000/svg" viewBox="0 0 276 137"><g data-name="Layer 1"><path fill="#fff" stroke="#091f2f" stroke-miterlimit="10" stroke-width="3" d="M122.37 20.64h31.27v95.72h-31.27zM91.7 28.62h30.67v87.74H91.7z"/><path fill="none" stroke="#091f2f" stroke-miterlimit="10" stroke-width="3" d="M101.53 35.05v74.88m11-74.88v74.88"/><path fill="#fff" stroke="#091f2f" stroke-miterlimit="10" stroke-width="3" d="M153.63 28.62h30.67v87.74h-30.67z"/><path fill="none" stroke="#091f2f" stroke-miterlimit="10" stroke-width="3" d="M163.47 35.05v74.88m11-74.88v74.88"/><path fill="#fff" stroke="#091f2f" stroke-miterlimit="10" stroke-width="3" d="M123.01 87.92h30.62v28.44h-30.62z"/><path fill="#091f2f" d="M128.81 106.75h6.17v9.61h-6.17zm12.85 0h6.17v9.61h-6.17zM127.78 94h2.33v5.67h-2.33zm9.44 0h2.33v5.67h-2.33zm9.44 0h2.33v5.67h-2.33z"/><path fill="none" stroke="#091f2f" stroke-miterlimit="10" stroke-width="3" d="M128.65 25.5v63.17m9-63.17v63.17m9-63.17v63.17"/></g></svg>