<svg id="Layer_1" data-name="Layer 1" xmlns="http://www.w3.org/2000/svg" viewBox="0 0 276 137"><defs><style>.cls-1,.cls-2,.cls-3{fill:none}.cls-1{clip-rule:evenodd}.cls-3{fill-rule:evenodd}.cls-4{clip-path:url(#clip-path)}.cls-5{clip-path:url(#clip-path-2)}.cls-6{clip-path:url(#clip-path-4)}.cls-7{clip-path:url(#clip-path-5)}.cls-8{clip-path:url(#clip-path-7)}.cls-9{clip-path:url(#clip-path-8)}.cls-10{clip-path:url(#clip-path-10)}.cls-11{clip-path:url(#clip-path-11)}.cls-12{clip-path:url(#clip-path-13)}.cls-13{clip-path:url(#clip-path-14)}.cls-14{clip-path:url(#clip-path-16)}.cls-15{clip-path:url(#clip-path-17)}.cls-16{clip-path:url(#clip-path-19)}.cls-17{clip-path:url(#clip-path-20)}.cls-18{clip-path:url(#clip-path-22)}.cls-19{clip-path:url(#clip-path-23)}.cls-20{clip-path:url(#clip-path-25)}.cls-21{clip-path:url(#clip-path-26)}.cls-22{clip-path:url(#clip-path-28)}.cls-23{clip-path:url(#clip-path-29)}.cls-24{clip-path:url(#clip-path-31)}.cls-25{clip-path:url(#clip-path-32)}.cls-26{clip-path:url(#clip-path-34)}.cls-27{clip-path:url(#clip-path-35)}.cls-28{clip-path:url(#clip-path-37)}.cls-29{clip-path:url(#clip-path-38)}.cls-30{clip-path:url(#clip-path-40)}.cls-31{clip-path:url(#clip-path-41)}.cls-32{fill:#fff;stroke:#0c1f2e;stroke-miterlimit:10;stroke-width:3px}.cls-33{fill:#0c1f2e}.cls-34{clip-path:url(#clip-path-43)}.cls-35{clip-path:url(#clip-path-44)}.cls-36{clip-path:url(#clip-path-45)}.cls-37{clip-path:url(#clip-path-46)}</style><clipPath id="clip-path"><path class="cls-1" d="M-208.33-441.51h-1.5v84h108v-84h-106.5zm0 3h105l-1.5-1.5v81l1.5-1.5h-105l1.5 1.5v-81zm-21.5-23h148v124h-148z"/></clipPath><clipPath id="clip-path-2"><path class="cls-2" d="M-208.33-440.01h105v81h-105z"/></clipPath><clipPath id="clip-path-4"><path class="cls-1" d="M-214.33-424.51h-2.24l.85-2.07 9.07-22 .38-.93h100.87l.38.93 9.07 22 .85 2.07h-119.23zm0-3h117l-1.39 2.07-9.07-22 1.39.93h-98.86l1.39-.93-9.07 22zm-22.24 23h161.48v-65h-161.48z"/></clipPath><clipPath id="clip-path-5"><path class="cls-1" d="M-214.33-426.01h117l-9.07-22h-98.86l-9.07 22z"/></clipPath><clipPath id="clip-path-7"><path class="cls-1" d="M-129.33-457.51h-1.5v19h15v-19h-13.5zm0 3h12l-1.5-1.5v16l1.5-1.5h-12l1.5 1.5v-16zm-21.5-23h55v59h-55z"/></clipPath><clipPath id="clip-path-8"><path class="cls-2" d="M-129.33-456.01h12v16h-12z"/></clipPath><clipPath id="clip-path-10"><path class="cls-1" d="M-195.33-391.51h-1.5v34h24v-34h-22.5zm0 3h21l-1.5-1.5v31l1.5-1.5h-21l1.5 1.5v-31zm-21.5-23h64v74h-64z"/></clipPath><clipPath id="clip-path-11"><path class="cls-2" d="M-195.33-390.01h21v31h-21z"/></clipPath><clipPath id="clip-path-13"><path class="cls-1" d="M-194.33-419.51h-1.5v22h22v-22h-20.5zm0 3h19l-1.5-1.5v19l1.5-1.5h-19l1.5 1.5v-19zm-21.5-23h62v62h-62z"/></clipPath><clipPath id="clip-path-14"><path class="cls-2" d="M-194.33-418.01h19v19h-19z"/></clipPath><clipPath id="clip-path-16"><path class="cls-1" d="M-189.33-414.51h-1.5v12h12v-12h-10.5zm0 3h9l-1.5-1.5v9l1.5-1.5h-9l1.5 1.5v-9zm-21.5-23h52v52h-52z"/></clipPath><clipPath id="clip-path-17"><path class="cls-2" d="M-189.33-413.01h9v9h-9z"/></clipPath><clipPath id="clip-path-19"><path class="cls-1" d="M-164.33-419.51h-1.5v22h22v-22h-20.5zm0 3h19l-1.5-1.5v19l1.5-1.5h-19l1.5 1.5v-19zm-21.5-23h62v62h-62z"/></clipPath><clipPath id="clip-path-20"><path class="cls-2" d="M-164.33-418.01h19v19h-19z"/></clipPath><clipPath id="clip-path-22"><path class="cls-1" d="M-135.33-419.51h-1.5v22h22v-22h-20.5zm0 3h19l-1.5-1.5v19l1.5-1.5h-19l1.5 1.5v-19zm-21.5-23h62v62h-62z"/></clipPath><clipPath id="clip-path-23"><path class="cls-2" d="M-135.33-418.01h19v19h-19z"/></clipPath><clipPath id="clip-path-25"><path class="cls-1" d="M-164.33-391.51h-1.5v22h22v-22h-20.5zm0 3h19l-1.5-1.5v19l1.5-1.5h-19l1.5 1.5v-19zm-21.5-23h62v62h-62z"/></clipPath><clipPath id="clip-path-26"><path class="cls-2" d="M-164.33-390.01h19v19h-19z"/></clipPath><clipPath id="clip-path-28"><path class="cls-1" d="M-135.33-391.51h-1.5v22h22v-22h-20.5zm0 3h19l-1.5-1.5v19l1.5-1.5h-19l1.5 1.5v-19zm-21.5-23h62v62h-62z"/></clipPath><clipPath id="clip-path-29"><path class="cls-2" d="M-135.33-390.01h19v19h-19z"/></clipPath><clipPath id="clip-path-31"><path class="cls-1" d="M-159.33-414.51h-1.5v12h12v-12h-10.5zm0 3h9l-1.5-1.5v9l1.5-1.5h-9l1.5 1.5v-9zm-21.5-23h52v52h-52z"/></clipPath><clipPath id="clip-path-32"><path class="cls-2" d="M-159.33-413.01h9v9h-9z"/></clipPath><clipPath id="clip-path-34"><path class="cls-1" d="M-130.33-414.51h-1.5v12h12v-12h-10.5zm0 3h9l-1.5-1.5v9l1.5-1.5h-9l1.5 1.5v-9zm-21.5-23h52v52h-52z"/></clipPath><clipPath id="clip-path-35"><path class="cls-2" d="M-130.33-413.01h9v9h-9z"/></clipPath><clipPath id="clip-path-37"><path class="cls-1" d="M-159.33-386.51h-1.5v12h12v-12h-10.5zm0 3h9l-1.5-1.5v9l1.5-1.5h-9l1.5 1.5v-9zm-21.5-23h52v52h-52z"/></clipPath><clipPath id="clip-path-38"><path class="cls-2" d="M-159.33-385.01h9v9h-9z"/></clipPath><clipPath id="clip-path-40"><path class="cls-1" d="M-130.33-386.51h-1.5v12h12v-12h-10.5zm0 3h9l-1.5-1.5v9l1.5-1.5h-9l1.5 1.5v-9zm-21.5-23h52v52h-52z"/></clipPath><clipPath id="clip-path-41"><path class="cls-2" d="M-130.33-385.01h9v9h-9z"/></clipPath><clipPath id="clip-path-43"><circle class="cls-2" cx="-737.7" cy="702.62" r="50.5"/></clipPath><clipPath id="clip-path-44"><circle class="cls-2" cx="-737.7" cy="702.62" r="43.5"/></clipPath><clipPath id="clip-path-45"><circle class="cls-2" cx="150.3" cy="702.62" r="50.5"/></clipPath><clipPath id="clip-path-46"><circle class="cls-2" cx="150.3" cy="702.62" r="43.5"/></clipPath></defs><title>EXPERIENTIAL ICONS</title><path class="cls-32" d="M186.3 64.08l-47.52-39.45-49.7 39.45h13.79v48.29h72.43V64.08z"/><path class="cls-33" d="M159.26 78.4h-.17a5.05 5.05 0 0 0-3.45 1.33 2.2 2.2 0 0 1-3.17 0 5.15 5.15 0 0 0-6.9 0 2.19 2.19 0 0 1-3.16 0 5.14 5.14 0 0 0-6.89 0 2.19 2.19 0 0 1-3.16 0 5.14 5.14 0 0 0-6.89 0 2.19 2.19 0 0 1-3.16 0 5 5 0 0 0-3.45-1.33h-.23v3h.23a2.14 2.14 0 0 1 1.58.67 5.14 5.14 0 0 0 6.89 0 2.19 2.19 0 0 1 3.16 0 5.14 5.14 0 0 0 6.89 0 2.19 2.19 0 0 1 3.16 0 5.14 5.14 0 0 0 6.89 0 2.19 2.19 0 0 1 3.16 0 5.15 5.15 0 0 0 6.9 0 2.19 2.19 0 0 1 1.49-.67c.02-.76.23-2.76.28-3zM159.26 87.78h-.17a5.05 5.05 0 0 0-3.45 1.33 2.2 2.2 0 0 1-3.17 0 5.15 5.15 0 0 0-6.9 0 2.19 2.19 0 0 1-3.16 0 5.14 5.14 0 0 0-6.89 0 2.19 2.19 0 0 1-3.16 0 5.14 5.14 0 0 0-6.89 0 2.19 2.19 0 0 1-3.16 0 5 5 0 0 0-3.45-1.33h-.23v3h.23a2.14 2.14 0 0 1 1.58.67 5.14 5.14 0 0 0 6.89 0 2.19 2.19 0 0 1 3.16 0 5.14 5.14 0 0 0 6.89 0 2.19 2.19 0 0 1 3.16 0 5.14 5.14 0 0 0 6.89 0 2.19 2.19 0 0 1 3.16 0 5.15 5.15 0 0 0 6.9 0 2.19 2.19 0 0 1 1.49-.67c.02-.78.23-2.78.28-3zM159.26 97.15h-.17a5.05 5.05 0 0 0-3.45 1.33 2.2 2.2 0 0 1-3.17 0 5.15 5.15 0 0 0-6.9 0 2.19 2.19 0 0 1-3.16 0 5.14 5.14 0 0 0-6.89 0 2.19 2.19 0 0 1-3.16 0 5.14 5.14 0 0 0-6.89 0 2.19 2.19 0 0 1-3.16 0 5 5 0 0 0-3.45-1.33h-.23v3h.23a2.14 2.14 0 0 1 1.58.67 5.14 5.14 0 0 0 6.89 0 2.19 2.19 0 0 1 3.16 0 5.14 5.14 0 0 0 6.89 0 2.19 2.19 0 0 1 3.16 0 5.14 5.14 0 0 0 6.89 0 2.19 2.19 0 0 1 3.16 0 5.15 5.15 0 0 0 6.9 0 2.19 2.19 0 0 1 1.49-.67c.02-.76.23-2.76.28-3zM143.76 42.61h-9.72l-7.71 15.27h9.88l-3.68 16.13 16.53-22.13h-10.34l5.04-9.27z"/></svg>