<svg id="Layer_1" data-name="Layer 1" xmlns="http://www.w3.org/2000/svg" viewBox="0 0 276 137"><defs><style>.cls-1,.cls-3{fill:#fff}.cls-1,.cls-2{stroke:#0e1f2d;stroke-linecap:round;stroke-miterlimit:10;stroke-width:3px}.cls-2{fill:none}.cls-4{fill:#0f1f2d}</style></defs><title>EXPERIENTIAL ICONS</title><path class="cls-1" d="M132.79 104.38H65.86V92.14l6.33-20.96 5.48-4.59h55.12v37.79z"/><path class="cls-1" d="M96.3 73.97h10.14v11.51H96.3z"/><path class="cls-2" d="M71.35 73.97H87.4v13.68l-6.72 3.99H66.35"/><path class="cls-1" d="M114.55 73.97h10.14v11.51h-10.14z"/><circle class="cls-1" cx="81.51" cy="105.53" r="7.23"/><circle class="cls-1" cx="121.51" cy="105.16" r="7.23"/><path class="cls-1" d="M140.96 66.59h58.28v37.79h-58.28z"/><path class="cls-1" d="M147.79 73.97h10.14v11.51h-10.14zM164.98 73.97h10.14v11.51h-10.14zM182.45 73.97h10.14v11.51h-10.14zM132.79 68.93h8.38v33.15h-8.38z"/><circle class="cls-1" cx="185.36" cy="105.16" r="7.23"/><circle class="cls-1" cx="159.24" cy="105.16" r="7.23"/><path class="cls-1" d="M144.8 18h-15.63l-11.05 11.05v15.63l11.05 11.05h15.63l11.05-11.05V29.05L144.8 18z"/><path class="cls-3" d="M143.46 33.92c0 3.58-6.47 12.23-6.47 12.23s-6.47-8.66-6.47-12.23a6.47 6.47 0 1 1 12.95 0z"/><path class="cls-4" d="M137 48.66l-1.2-1.61c-1.15-1.51-6.8-9.25-6.8-13.13a8 8 0 1 1 15.95 0c0 3.88-5.64 11.62-6.77 13.13zm0-19.71a5 5 0 0 0-5 5c0 1.81 2.61 6.26 5 9.66 2.28-3.28 5-7.78 5-9.66a5 5 0 0 0-5-5z"/><circle class="cls-4" cx="136.98" cy="33.3" r="2.14"/></svg>