<svg xmlns="http://www.w3.org/2000/svg" xmlns:xlink="http://www.w3.org/1999/xlink" viewBox="0 0 276 137"><defs><circle id="a" cx="-153.9" cy="-86.5" r="50.5"/></defs><defs><circle id="b" cx="-153.9" cy="-86.5" r="43.5"/></defs><defs><path id="c" d="M-210.5-279.8h-1.5v84h108v-84h-106.5zm0 3h105l-1.5-1.5v81l1.5-1.5h-105l1.5 1.5v-81l-1.5 1.5zm-21.5-23h148v124h-148v-124z"/></defs><clipPath id="d"><use xlink:href="#c" overflow="visible"/></clipPath><g clip-path="url(#d)"><defs><path id="e" d="M-210.5-278.3h105v81h-105z"/></defs></g><defs><path id="f" d="M-210.5-278.3h105v81h-105z"/></defs><defs><path id="g" d="M-216.5-262.8h-2.2l.9-2.1 9.1-22 .4-.9h100.9l.4.9 9.1 22 .9 2.1h-119.5zm0-3h117l-1.4 2.1-9.1-22 1.4.9h-98.9l1.4-.9-9.1 22-1.3-2.1zm-22.2 23h161.5v-65h-161.5v65z"/></defs><clipPath id="h"><use xlink:href="#g" overflow="visible"/></clipPath><g clip-path="url(#h)"><defs><path id="i" d="M-216.5-264.3h117l-9.1-22h-98.8z"/></defs></g><defs><path id="j" d="M-216.5-264.3h117l-9.1-22h-98.8z"/></defs><defs><path id="k" d="M-131.5-295.8h-1.5v19h15v-19h-13.5zm0 3h12l-1.5-1.5v16l1.5-1.5h-12l1.5 1.5v-16l-1.5 1.5zm-21.5-23h55v59h-55v-59z"/></defs><clipPath id="l"><use xlink:href="#k" overflow="visible"/></clipPath><g clip-path="url(#l)"><defs><path id="m" d="M-131.5-294.3h12v16h-12z"/></defs></g><defs><path id="n" d="M-131.5-294.3h12v16h-12z"/></defs><defs><path id="o" d="M-197.5-229.8h-1.5v34h24v-34h-22.5zm0 3h21l-1.5-1.5v31l1.5-1.5h-21l1.5 1.5v-31l-1.5 1.5zm-21.5-23h64v74h-64v-74z"/></defs><clipPath id="p"><use xlink:href="#o" overflow="visible"/></clipPath><g clip-path="url(#p)"><defs><path id="q" d="M-197.5-228.3h21v31h-21z"/></defs></g><defs><path id="r" d="M-197.5-228.3h21v31h-21z"/></defs><defs><path id="s" d="M-196.5-257.8h-1.5v22h22v-22h-20.5zm0 3h19l-1.5-1.5v19l1.5-1.5h-19l1.5 1.5v-19l-1.5 1.5zm-21.5-23h62v62h-62v-62z"/></defs><clipPath id="t"><use xlink:href="#s" overflow="visible"/></clipPath><g clip-path="url(#t)"><defs><path id="u" d="M-196.5-256.3h19v19h-19z"/></defs></g><defs><path id="v" d="M-196.5-256.3h19v19h-19z"/></defs><defs><path id="w" d="M-191.5-252.8h-1.5v12h12v-12h-10.5zm0 3h9l-1.5-1.5v9l1.5-1.5h-9l1.5 1.5v-9l-1.5 1.5zm-21.5-23h52v52h-52v-52z"/></defs><clipPath id="x"><use xlink:href="#w" overflow="visible"/></clipPath><g clip-path="url(#x)"><defs><path id="y" d="M-191.5-251.3h9v9h-9z"/></defs></g><defs><path id="z" d="M-191.5-251.3h9v9h-9z"/></defs><defs><path id="A" d="M-166.5-257.8h-1.5v22h22v-22h-20.5zm0 3h19l-1.5-1.5v19l1.5-1.5h-19l1.5 1.5v-19l-1.5 1.5zm-21.5-23h62v62h-62v-62z"/></defs><clipPath id="B"><use xlink:href="#A" overflow="visible"/></clipPath><g clip-path="url(#B)"><defs><path id="C" d="M-166.5-256.3h19v19h-19z"/></defs></g><defs><path id="D" d="M-166.5-256.3h19v19h-19z"/></defs><defs><path id="E" d="M-137.5-257.8h-1.5v22h22v-22h-20.5zm0 3h19l-1.5-1.5v19l1.5-1.5h-19l1.5 1.5v-19l-1.5 1.5zm-21.5-23h62v62h-62v-62z"/></defs><clipPath id="F"><use xlink:href="#E" overflow="visible"/></clipPath><g clip-path="url(#F)"><defs><path id="G" d="M-137.5-256.3h19v19h-19z"/></defs></g><defs><path id="H" d="M-137.5-256.3h19v19h-19z"/></defs><defs><path id="I" d="M-166.5-229.8h-1.5v22h22v-22h-20.5zm0 3h19l-1.5-1.5v19l1.5-1.5h-19l1.5 1.5v-19l-1.5 1.5zm-21.5-23h62v62h-62v-62z"/></defs><clipPath id="J"><use xlink:href="#I" overflow="visible"/></clipPath><g clip-path="url(#J)"><defs><path id="K" d="M-166.5-228.3h19v19h-19z"/></defs></g><defs><path id="L" d="M-166.5-228.3h19v19h-19z"/></defs><defs><path id="M" d="M-137.5-229.8h-1.5v22h22v-22h-20.5zm0 3h19l-1.5-1.5v19l1.5-1.5h-19l1.5 1.5v-19l-1.5 1.5zm-21.5-23h62v62h-62v-62z"/></defs><clipPath id="N"><use xlink:href="#M" overflow="visible"/></clipPath><g clip-path="url(#N)"><defs><path id="O" d="M-137.5-228.3h19v19h-19z"/></defs></g><defs><path id="P" d="M-137.5-228.3h19v19h-19z"/></defs><defs><path id="Q" d="M-161.5-252.8h-1.5v12h12v-12h-10.5zm0 3h9l-1.5-1.5v9l1.5-1.5h-9l1.5 1.5v-9l-1.5 1.5zm-21.5-23h52v52h-52v-52z"/></defs><clipPath id="R"><use xlink:href="#Q" overflow="visible"/></clipPath><g clip-path="url(#R)"><defs><path id="S" d="M-161.5-251.3h9v9h-9z"/></defs></g><defs><path id="T" d="M-161.5-251.3h9v9h-9z"/></defs><defs><path id="U" d="M-132.5-252.8h-1.5v12h12v-12h-10.5zm0 3h9l-1.5-1.5v9l1.5-1.5h-9l1.5 1.5v-9l-1.5 1.5zm-21.5-23h52v52h-52v-52z"/></defs><clipPath id="V"><use xlink:href="#U" overflow="visible"/></clipPath><g clip-path="url(#V)"><defs><path id="W" d="M-132.5-251.3h9v9h-9z"/></defs></g><defs><path id="X" d="M-132.5-251.3h9v9h-9z"/></defs><defs><path id="Y" d="M-161.5-224.8h-1.5v12h12v-12h-10.5zm0 3h9l-1.5-1.5v9l1.5-1.5h-9l1.5 1.5v-9l-1.5 1.5zm-21.5-23h52v52h-52v-52z"/></defs><clipPath id="Z"><use xlink:href="#Y" overflow="visible"/></clipPath><g clip-path="url(#Z)"><defs><path id="aa" d="M-161.5-223.3h9v9h-9z"/></defs></g><defs><path id="ab" d="M-161.5-223.3h9v9h-9z"/></defs><defs><path id="ac" d="M-132.5-224.8h-1.5v12h12v-12h-10.5zm0 3h9l-1.5-1.5v9l1.5-1.5h-9l1.5 1.5v-9l-1.5 1.5zm-21.5-23h52v52h-52v-52z"/></defs><clipPath id="ad"><use xlink:href="#ac" overflow="visible"/></clipPath><g clip-path="url(#ad)"><defs><path id="ae" d="M-132.5-223.3h9v9h-9z"/></defs></g><defs><path id="af" d="M-132.5-223.3h9v9h-9z"/></defs><path fill="none" stroke="#0C1F2E" stroke-width="3" stroke-linecap="round" stroke-miterlimit="10" d="M119.7 54.7H104l-11.1 8.4V92h37.8V63.5z"/><circle fill="none" stroke="#0C1F2E" stroke-width="3" stroke-linecap="round" stroke-miterlimit="10" cx="111.5" cy="37.6" r="10"/><path fill="none" stroke="#0C1F2E" stroke-width="3" stroke-linecap="round" stroke-miterlimit="10" d="M172.4 54.7h-15.7l-11.1 8.4V92h37.8V63.5z"/><circle fill="none" stroke="#0C1F2E" stroke-width="3" stroke-linecap="round" stroke-miterlimit="10" cx="164.2" cy="37.6" r="10"/><path fill="#FFF" stroke="#0C1F2E" stroke-width="3" stroke-linecap="round" stroke-miterlimit="10" d="M142.9 64.3h-11.6l-8.3 6.2v21.6h28.2V70.8z"/><circle fill="#FFF" stroke="#0C1F2E" stroke-width="3" stroke-linecap="round" stroke-miterlimit="10" cx="136.8" cy="51.5" r="7.5"/><circle fill="#FFF" stroke="#0F1F2D" stroke-width="3" stroke-linecap="round" stroke-miterlimit="10" cx="108.8" cy="96.9" r="12.5"/><path fill="none" stroke="#0F1F2D" stroke-width="3" stroke-linecap="round" stroke-miterlimit="10" d="M114.8 91.7l-9.4 9.4-4.1-3.7"/><circle fill="#FFF" stroke="#0F1F2D" stroke-width="3" stroke-linecap="round" stroke-miterlimit="10" cx="138.1" cy="96.9" r="12.5"/><path fill="none" stroke="#0F1F2D" stroke-width="3" stroke-linecap="round" stroke-miterlimit="10" d="M144.1 91.7l-9.4 9.4-4.1-3.7"/><circle fill="#FFF" stroke="#0F1F2D" stroke-width="3" stroke-linecap="round" stroke-miterlimit="10" cx="167.2" cy="96.9" r="12.5"/><path fill="none" stroke="#0F1F2D" stroke-width="3" stroke-linecap="round" stroke-miterlimit="10" d="M173.2 91.7l-9.4 9.4-4.1-3.7"/></svg>