<svg xmlns="http://www.w3.org/2000/svg" xmlns:xlink="http://www.w3.org/1999/xlink" viewBox="0 0 276 137"><defs><path id="a" d="M677.5-450.3H676v84h108v-84H677.5zm0 3h105l-1.5-1.5v81l1.5-1.5h-105l1.5 1.5v-81l-1.5 1.5zm-21.5-23h148v124H656v-124z"/></defs><clipPath id="b"><use xlink:href="#a" overflow="visible"/></clipPath><g clip-path="url(#b)"><defs><path id="c" d="M677.5-448.8h105v81h-105z"/></defs></g><defs><path id="d" d="M677.5-448.8h105v81h-105z"/></defs><defs><path id="e" d="M671.5-433.3h-2.2l.9-2.1 9.1-22 .4-.9h100.9l.4.9 9.1 22 .9 2.1H671.5zm0-3h117l-1.4 2.1-9.1-22 1.4.9h-98.9l1.4-.9-9.1 22-1.3-2.1zm-22.2 23h161.5v-65H649.3v65z"/></defs><clipPath id="f"><use xlink:href="#e" overflow="visible"/></clipPath><g clip-path="url(#f)"><defs><path id="g" d="M671.5-434.8h117l-9.1-22h-98.8z"/></defs></g><defs><path id="h" d="M671.5-434.8h117l-9.1-22h-98.8z"/></defs><defs><path id="i" d="M756.5-466.3H755v19h15v-19h-13.5zm0 3h12l-1.5-1.5v16l1.5-1.5h-12l1.5 1.5v-16l-1.5 1.5zm-21.5-23h55v59h-55v-59z"/></defs><clipPath id="j"><use xlink:href="#i" overflow="visible"/></clipPath><g clip-path="url(#j)"><defs><path id="k" d="M756.5-464.8h12v16h-12z"/></defs></g><defs><path id="l" d="M756.5-464.8h12v16h-12z"/></defs><defs><path id="m" d="M690.5-400.3H689v34h24v-34h-22.5zm0 3h21l-1.5-1.5v31l1.5-1.5h-21l1.5 1.5v-31l-1.5 1.5zm-21.5-23h64v74h-64v-74z"/></defs><clipPath id="n"><use xlink:href="#m" overflow="visible"/></clipPath><g clip-path="url(#n)"><defs><path id="o" d="M690.5-398.8h21v31h-21z"/></defs></g><defs><path id="p" d="M690.5-398.8h21v31h-21z"/></defs><defs><path id="q" d="M691.5-428.3H690v22h22v-22h-20.5zm0 3h19l-1.5-1.5v19l1.5-1.5h-19l1.5 1.5v-19l-1.5 1.5zm-21.5-23h62v62h-62v-62z"/></defs><clipPath id="r"><use xlink:href="#q" overflow="visible"/></clipPath><g clip-path="url(#r)"><defs><path id="s" d="M691.5-426.8h19v19h-19z"/></defs></g><defs><path id="t" d="M691.5-426.8h19v19h-19z"/></defs><defs><path id="u" d="M696.5-423.3H695v12h12v-12h-10.5zm0 3h9l-1.5-1.5v9l1.5-1.5h-9l1.5 1.5v-9l-1.5 1.5zm-21.5-23h52v52h-52v-52z"/></defs><clipPath id="v"><use xlink:href="#u" overflow="visible"/></clipPath><g clip-path="url(#v)"><defs><path id="w" d="M696.5-421.8h9v9h-9z"/></defs></g><defs><path id="x" d="M696.5-421.8h9v9h-9z"/></defs><defs><path id="y" d="M721.5-428.3H720v22h22v-22h-20.5zm0 3h19l-1.5-1.5v19l1.5-1.5h-19l1.5 1.5v-19l-1.5 1.5zm-21.5-23h62v62h-62v-62z"/></defs><clipPath id="z"><use xlink:href="#y" overflow="visible"/></clipPath><g clip-path="url(#z)"><defs><path id="A" d="M721.5-426.8h19v19h-19z"/></defs></g><defs><path id="B" d="M721.5-426.8h19v19h-19z"/></defs><defs><path id="C" d="M750.5-428.3H749v22h22v-22h-20.5zm0 3h19l-1.5-1.5v19l1.5-1.5h-19l1.5 1.5v-19l-1.5 1.5zm-21.5-23h62v62h-62v-62z"/></defs><clipPath id="D"><use xlink:href="#C" overflow="visible"/></clipPath><g clip-path="url(#D)"><defs><path id="E" d="M750.5-426.8h19v19h-19z"/></defs></g><defs><path id="F" d="M750.5-426.8h19v19h-19z"/></defs><defs><path id="G" d="M721.5-400.3H720v22h22v-22h-20.5zm0 3h19l-1.5-1.5v19l1.5-1.5h-19l1.5 1.5v-19l-1.5 1.5zm-21.5-23h62v62h-62v-62z"/></defs><clipPath id="H"><use xlink:href="#G" overflow="visible"/></clipPath><g clip-path="url(#H)"><defs><path id="I" d="M721.5-398.8h19v19h-19z"/></defs></g><defs><path id="J" d="M721.5-398.8h19v19h-19z"/></defs><defs><path id="K" d="M750.5-400.3H749v22h22v-22h-20.5zm0 3h19l-1.5-1.5v19l1.5-1.5h-19l1.5 1.5v-19l-1.5 1.5zm-21.5-23h62v62h-62v-62z"/></defs><clipPath id="L"><use xlink:href="#K" overflow="visible"/></clipPath><g clip-path="url(#L)"><defs><path id="M" d="M750.5-398.8h19v19h-19z"/></defs></g><defs><path id="N" d="M750.5-398.8h19v19h-19z"/></defs><defs><path id="O" d="M726.5-423.3H725v12h12v-12h-10.5zm0 3h9l-1.5-1.5v9l1.5-1.5h-9l1.5 1.5v-9l-1.5 1.5zm-21.5-23h52v52h-52v-52z"/></defs><clipPath id="P"><use xlink:href="#O" overflow="visible"/></clipPath><g clip-path="url(#P)"><defs><path id="Q" d="M726.5-421.8h9v9h-9z"/></defs></g><defs><path id="R" d="M726.5-421.8h9v9h-9z"/></defs><defs><path id="S" d="M755.5-423.3H754v12h12v-12h-10.5zm0 3h9l-1.5-1.5v9l1.5-1.5h-9l1.5 1.5v-9l-1.5 1.5zm-21.5-23h52v52h-52v-52z"/></defs><clipPath id="T"><use xlink:href="#S" overflow="visible"/></clipPath><g clip-path="url(#T)"><defs><path id="U" d="M755.5-421.8h9v9h-9z"/></defs></g><defs><path id="V" d="M755.5-421.8h9v9h-9z"/></defs><defs><path id="W" d="M726.5-395.3H725v12h12v-12h-10.5zm0 3h9l-1.5-1.5v9l1.5-1.5h-9l1.5 1.5v-9l-1.5 1.5zm-21.5-23h52v52h-52v-52z"/></defs><clipPath id="X"><use xlink:href="#W" overflow="visible"/></clipPath><g clip-path="url(#X)"><defs><path id="Y" d="M726.5-393.8h9v9h-9z"/></defs></g><defs><path id="Z" d="M726.5-393.8h9v9h-9z"/></defs><defs><path id="aa" d="M755.5-395.3H754v12h12v-12h-10.5zm0 3h9l-1.5-1.5v9l1.5-1.5h-9l1.5 1.5v-9l-1.5 1.5zm-21.5-23h52v52h-52v-52z"/></defs><clipPath id="ab"><use xlink:href="#aa" overflow="visible"/></clipPath><g clip-path="url(#ab)"><defs><path id="ac" d="M755.5-393.8h9v9h-9z"/></defs></g><defs><path id="ad" d="M755.5-393.8h9v9h-9z"/></defs><path fill="#FFF" d="M79.7 30.4h119.7v87.9H79.7z"/><path fill="#091F2F" d="M200.9 119.8H78.2V28.9h122.7v90.9zm-119.7-3h116.7V31.9H81.2v84.9z"/><path fill="#FFF" d="M113.3 98.5l-6.7-4.6-7.7 4.6V56.3h14.4z"/><path fill="#091F2F" d="M114.8 101.3l-8.3-5.6-9.1 5.4V54.8h17.4v46.5zm-14.4-43.5v38l6.2-3.7 5.2 3.5V57.8h-11.4z"/><circle fill="#FFF" cx="105.8" cy="59.3" r="12.1"/><path fill="#091F2F" d="M105.8 72.8c-7.5 0-13.6-6.1-13.6-13.6s6.1-13.6 13.6-13.6 13.6 6.1 13.6 13.6-6.1 13.6-13.6 13.6zm0-24.1c-5.8 0-10.6 4.7-10.6 10.6s4.7 10.6 10.6 10.6 10.6-4.7 10.6-10.6-4.8-10.6-10.6-10.6zm28.2.7h47v3h-47zm0 12h47v3h-47zm0 12h47v3h-47zm0 12h47v3h-47zm0 12h47v3h-47z"/><defs><path id="ae" d="M683.4 367.1h-1.5v84h108v-84H683.4zm0 3h105l-1.5-1.5v81l1.5-1.5h-105l1.5 1.5v-81l-1.5 1.5zm-21.5-23h148v124h-148v-124z"/></defs><clipPath id="af"><use xlink:href="#ae" overflow="visible"/></clipPath><g clip-path="url(#af)"><defs><path id="ag" d="M683.4 368.6h105v81h-105z"/></defs></g><defs><path id="ah" d="M683.4 368.6h105v81h-105z"/></defs><defs><path id="ai" d="M677.4 384.1h-2.2l.9-2.1 9.1-22 .4-.9h100.9l.4.9 9.1 22 .9 2.1H677.4zm0-3h117l-1.4 2.1-9.1-22 1.4.9h-98.9l1.4-.9-9.1 22-1.3-2.1zm-22.3 23h161.5v-65H655.1v65z"/></defs><clipPath id="aj"><use xlink:href="#ai" overflow="visible"/></clipPath><g clip-path="url(#aj)"><defs><path id="ak" d="M677.4 382.6h117l-9.1-22h-98.8z"/></defs></g><defs><path id="al" d="M677.4 382.6h117l-9.1-22h-98.8z"/></defs><defs><path id="am" d="M762.4 351.1h-1.5v19h15v-19h-13.5zm0 3h12l-1.5-1.5v16l1.5-1.5h-12l1.5 1.5v-16l-1.5 1.5zm-21.5-23h55v59h-55v-59z"/></defs><clipPath id="an"><use xlink:href="#am" overflow="visible"/></clipPath><g clip-path="url(#an)"><defs><path id="ao" d="M762.4 352.6h12v16h-12z"/></defs></g><defs><path id="ap" d="M762.4 352.6h12v16h-12z"/></defs><defs><path id="aq" d="M696.4 417.1h-1.5v34h24v-34h-22.5zm0 3h21l-1.5-1.5v31l1.5-1.5h-21l1.5 1.5v-31l-1.5 1.5zm-21.5-23h64v74h-64v-74z"/></defs><clipPath id="ar"><use xlink:href="#aq" overflow="visible"/></clipPath><g clip-path="url(#ar)"><defs><path id="as" d="M696.4 418.6h21v31h-21z"/></defs></g><defs><path id="at" d="M696.4 418.6h21v31h-21z"/></defs><defs><path id="au" d="M697.4 389.1h-1.5v22h22v-22h-20.5zm0 3h19l-1.5-1.5v19l1.5-1.5h-19l1.5 1.5v-19l-1.5 1.5zm-21.5-23h62v62h-62v-62z"/></defs><clipPath id="av"><use xlink:href="#au" overflow="visible"/></clipPath><g clip-path="url(#av)"><defs><path id="aw" d="M697.4 390.6h19v19h-19z"/></defs></g><defs><path id="ax" d="M697.4 390.6h19v19h-19z"/></defs><defs><path id="ay" d="M702.4 394.1h-1.5v12h12v-12h-10.5zm0 3h9l-1.5-1.5v9l1.5-1.5h-9l1.5 1.5v-9l-1.5 1.5zm-21.5-23h52v52h-52v-52z"/></defs><clipPath id="az"><use xlink:href="#ay" overflow="visible"/></clipPath><g clip-path="url(#az)"><defs><path id="aA" d="M702.4 395.6h9v9h-9z"/></defs></g><defs><path id="aB" d="M702.4 395.6h9v9h-9z"/></defs><defs><path id="aC" d="M727.4 389.1h-1.5v22h22v-22h-20.5zm0 3h19l-1.5-1.5v19l1.5-1.5h-19l1.5 1.5v-19l-1.5 1.5zm-21.5-23h62v62h-62v-62z"/></defs><clipPath id="aD"><use xlink:href="#aC" overflow="visible"/></clipPath><g clip-path="url(#aD)"><defs><path id="aE" d="M727.4 390.6h19v19h-19z"/></defs></g><defs><path id="aF" d="M727.4 390.6h19v19h-19z"/></defs><defs><path id="aG" d="M756.4 389.1h-1.5v22h22v-22h-20.5zm0 3h19l-1.5-1.5v19l1.5-1.5h-19l1.5 1.5v-19l-1.5 1.5zm-21.5-23h62v62h-62v-62z"/></defs><clipPath id="aH"><use xlink:href="#aG" overflow="visible"/></clipPath><g clip-path="url(#aH)"><defs><path id="aI" d="M756.4 390.6h19v19h-19z"/></defs></g><defs><path id="aJ" d="M756.4 390.6h19v19h-19z"/></defs><defs><path id="aK" d="M727.4 417.1h-1.5v22h22v-22h-20.5zm0 3h19l-1.5-1.5v19l1.5-1.5h-19l1.5 1.5v-19l-1.5 1.5zm-21.5-23h62v62h-62v-62z"/></defs><clipPath id="aL"><use xlink:href="#aK" overflow="visible"/></clipPath><g clip-path="url(#aL)"><defs><path id="aM" d="M727.4 418.6h19v19h-19z"/></defs></g><g><defs><path id="aN" d="M727.4 418.6h19v19h-19z"/></defs></g><g><defs><path id="aO" d="M756.4 417.1h-1.5v22h22v-22h-20.5zm0 3h19l-1.5-1.5v19l1.5-1.5h-19l1.5 1.5v-19l-1.5 1.5zm-21.5-23h62v62h-62v-62z"/></defs><clipPath id="aP"><use xlink:href="#aO" overflow="visible"/></clipPath><g clip-path="url(#aP)"><defs><path id="aQ" d="M756.4 418.6h19v19h-19z"/></defs></g></g><g><defs><path id="aR" d="M756.4 418.6h19v19h-19z"/></defs></g><g><defs><path id="aS" d="M732.4 394.1h-1.5v12h12v-12h-10.5zm0 3h9l-1.5-1.5v9l1.5-1.5h-9l1.5 1.5v-9l-1.5 1.5zm-21.5-23h52v52h-52v-52z"/></defs><clipPath id="aT"><use xlink:href="#aS" overflow="visible"/></clipPath><g clip-path="url(#aT)"><defs><path id="aU" d="M732.4 395.6h9v9h-9z"/></defs></g></g><g><defs><path id="aV" d="M732.4 395.6h9v9h-9z"/></defs></g><g><defs><path id="aW" d="M761.4 394.1h-1.5v12h12v-12h-10.5zm0 3h9l-1.5-1.5v9l1.5-1.5h-9l1.5 1.5v-9l-1.5 1.5zm-21.5-23h52v52h-52v-52z"/></defs><clipPath id="aX"><use xlink:href="#aW" overflow="visible"/></clipPath><g clip-path="url(#aX)"><defs><path id="aY" d="M761.4 395.6h9v9h-9z"/></defs></g></g><g><defs><path id="aZ" d="M761.4 395.6h9v9h-9z"/></defs></g><g><defs><path id="ba" d="M732.4 422.1h-1.5v12h12v-12h-10.5zm0 3h9l-1.5-1.5v9l1.5-1.5h-9l1.5 1.5v-9l-1.5 1.5zm-21.5-23h52v52h-52v-52z"/></defs><clipPath id="bb"><use xlink:href="#ba" overflow="visible"/></clipPath><g clip-path="url(#bb)"><defs><path id="bc" d="M732.4 423.6h9v9h-9z"/></defs></g></g><g><defs><path id="bd" d="M732.4 423.6h9v9h-9z"/></defs></g><g><defs><path id="be" d="M761.4 422.1h-1.5v12h12v-12h-10.5zm0 3h9l-1.5-1.5v9l1.5-1.5h-9l1.5 1.5v-9l-1.5 1.5zm-21.5-23h52v52h-52v-52z"/></defs><clipPath id="bf"><use xlink:href="#be" overflow="visible"/></clipPath><g clip-path="url(#bf)"><defs><path id="bg" d="M761.4 423.6h9v9h-9z"/></defs></g></g><g><defs><path id="bh" d="M761.4 423.6h9v9h-9z"/></defs></g></svg>