<svg id="Layer_1" data-name="Layer 1" xmlns="http://www.w3.org/2000/svg" viewBox="0 0 276 137"><defs><style>.cls-1,.cls-2{fill:none}.cls-2,.cls-3{stroke:#0c1f2e;stroke-miterlimit:10;stroke-width:3px}.cls-3{fill:#fff}.cls-4{fill:#091f2f}.cls-5{clip-path:url(#clip-path)}.cls-6{clip-path:url(#clip-path-2)}</style><clipPath id="clip-path"><circle class="cls-1" cx="-441.7" cy="859.62" r="50.5"/></clipPath><clipPath id="clip-path-2"><circle class="cls-1" cx="-441.7" cy="859.62" r="43.5"/></clipPath></defs><title>EXPERIENTIAL ICONS</title><path class="cls-2" d="M145.5 36.5h25V60M170.5 80.5V109h-24M125.5 109H98V83M98 59V36.5h28"/><path class="cls-3" d="M108 45.75h52.65V98.4H108z"/><path class="cls-4" d="M119.67 70.88c3.16 0 5.21 1.67 5.21 4.06 0 2.83-2.16 4.67-5.48 4.67a9.9 9.9 0 0 1-5.32-1.69l1.4-2.72a4.87 4.87 0 0 0 3.5 1.69c1.36 0 2.13-.61 2.13-1.7s-.77-1.59-2.11-1.59c-.71 0-2.91 0-3.75.08V66h9v2.83h-5.8v2c.3.05.96.05 1.22.05zM136.73 72.73c0 4.39-1.88 6.82-5.25 6.82s-5.27-2.43-5.27-6.82 1.86-6.8 5.27-6.8 5.25 2.42 5.25 6.8zm-7.16 0c0 3.06.56 4.35 1.92 4.35s1.9-1.28 1.9-4.35-.56-4.35-1.9-4.35-1.92 1.27-1.92 4.35zM142.69 68.92v.67H145v2.26h-2.3v7.6h-3.4v-7.6h-1.4v-2.26h1.4v-1c0-2.28 1.72-3.56 4-3.54a6.17 6.17 0 0 1 2.95.73L145 68.23a2.14 2.14 0 0 0-1.19-.42 1.05 1.05 0 0 0-1.12 1.11zM153.18 78.92a5.71 5.71 0 0 1-2.8.69 3.15 3.15 0 0 1-3.47-3.31v-4.45h-1.44v-2.26h1.44v-2.87h3.39v2.87h2.7v2.26h-2.68v3.91c0 .77.34 1.11.94 1.09a3.57 3.57 0 0 0 1.28-.34z"/><path class="cls-2" d="M98 36.5l9 9.25M159.65 98.4l9 9.25M98 109l9-10.6M159.65 45.75l10.85-9.25"/></svg>