<svg xmlns="http://www.w3.org/2000/svg" viewBox="0 0 276 137"><path fill="#FFF" stroke="#1B1B1B" stroke-width="3" stroke-linecap="round" stroke-miterlimit="10" d="M135.8 72.6V39c-11.5 0-21.5 6.1-27.1 15.2l27.1 18.6v-.2zm23.3-23.4C153.3 42.9 145 39 135.8 39v33.6l23.3-23.4zm-10.7 22.4l25.2 17.3c4.1-5.3 6.5-12 6.5-19.3 0-8.3-3.2-15.9-8.4-21.5l-23.3 23.3v.2z"/><path fill="#FFF" stroke="#1B1B1B" stroke-width="3" stroke-linecap="round" stroke-miterlimit="10" d="M135.8 102.5V72.8l-27.1-18.6c-3 4.8-4.7 10.5-4.7 16.6 0 17.5 14.2 31.7 31.8 31.7zm0-29.7v29.7c5.5 0 10.7-1.4 15.2-3.9l-15.2-25.8zM161 90l-25.1-17.2L151 98.6c3.9-2.1 7.3-5 10-8.6z"/></svg>