<svg id="Layer_1" data-name="Layer 1" xmlns="http://www.w3.org/2000/svg" viewBox="0 0 276 137"><defs><style>.cls-1,.cls-10,.cls-3,.cls-6,.cls-8{fill:#fff}.cls-1,.cls-11,.cls-12{stroke:#0e1f2d}.cls-1,.cls-11,.cls-12,.cls-3,.cls-4,.cls-6,.cls-7{stroke-miterlimit:10;stroke-width:3px}.cls-1{clip-rule:evenodd}.cls-11,.cls-12,.cls-2,.cls-4,.cls-7{fill:none}.cls-3,.cls-4{stroke:#0c1f2e}.cls-3,.cls-4,.cls-6{stroke-linecap:round}.cls-5{fill:#231f20}.cls-6,.cls-7{stroke:#0f1f2d}.cls-12,.cls-8{fill-rule:evenodd}.cls-9{clip-path:url(#clip-path)}.cls-13{clip-path:url(#clip-path-2)}.cls-14{clip-path:url(#clip-path-3)}</style><clipPath id="clip-path"><path class="cls-1" d="M363.23 545.73H472.7l9.82 9.65v18.51H363.23v-28.16z"/></clipPath><clipPath id="clip-path-2"><circle class="cls-2" cx="-145.7" cy="702.62" r="50.5"/></clipPath><clipPath id="clip-path-3"><circle class="cls-2" cx="-145.7" cy="702.62" r="43.5"/></clipPath></defs><title>EXPERIENTIAL ICONS</title><path class="cls-3" d="M84.11 53.63h110.68v52.51H84.11z"/><path class="cls-4" d="M94.18 64.35h24.45M94.18 69.99h24.45M94.18 93.71h51.11M163.98 93.71h19.47"/><path class="cls-5" d="M173.24 89.07v-1.74a7.35 7.35 0 0 1-3.11-.79l.55-2.14a6.45 6.45 0 0 0 3 .8c1 0 1.75-.4 1.75-1.13s-.58-1.13-1.94-1.59c-2-.66-3.29-1.57-3.29-3.34 0-1.61 1.13-2.87 3.09-3.25v-1.73h1.79v1.61a6.57 6.57 0 0 1 2.65.6l-.53 2.06a6.06 6.06 0 0 0-2.63-.62c-1.19 0-1.57.51-1.57 1s.64 1 2.19 1.57c2.17.77 3.05 1.77 3.05 3.42s-1.15 3-3.25 3.38v1.86z"/><circle class="cls-6" cx="191.57" cy="51.47" r="17.4" transform="rotate(-45 191.566 51.46)"/><path class="cls-7" d="M182.82 60.32l8.13-8.12"/><circle class="cls-6" cx="194.91" cy="48.03" r="5.87"/><path class="cls-8" d="M363.23 545.73H472.7l9.82 9.65v18.51H363.23v-28.16z"/><g class="cls-9"><path class="cls-10" d="M43.97 115.22h962.06v828.83H43.97z"/><path class="cls-11" d="M43.97 115.22h962.06v828.83H43.97z"/></g><path class="cls-12" d="M363.23 545.73H472.7l9.82 9.65v18.51H363.23v-28.16z"/></svg>