<svg xmlns="http://www.w3.org/2000/svg" xmlns:xlink="http://www.w3.org/1999/xlink" viewBox="0 0 276 137"><defs><path id="a" d="M-454-663.5c-29.3 0-53-23.7-53-53s23.7-53 53-53 53 23.7 53 53-23.7 53-53 53zm0 3c30.9 0 56-25.1 56-56s-25.1-56-56-56-56 25.1-56 56 25.1 56 56 56z"/></defs><clipPath id="b"><use xlink:href="#a" overflow="visible"/></clipPath><g clip-path="url(#b)"><defs><circle id="c" cx="-454" cy="-716.5" r="54.5"/></defs></g><defs><circle id="d" cx="-454" cy="-716.5" r="54.5"/></defs><defs><path id="e" d="M-454-684.5c-17.7 0-32-14.3-32-32s14.3-32 32-32 32 14.3 32 32-14.3 32-32 32zm0 3c19.3 0 35-15.7 35-35s-15.7-35-35-35-35 15.7-35 35 15.7 35 35 35zm-55-90h110v110h-110v-110z"/></defs><clipPath id="f"><use xlink:href="#e" overflow="visible"/></clipPath><g clip-path="url(#f)"><defs><circle id="g" cx="-454" cy="-716.5" r="33.5"/></defs></g><defs><circle id="h" cx="-454" cy="-716.5" r="33.5"/></defs><defs><path id="i" d="M-455.5-770.5h-1.5v13h6v-13h-4.5zm0 3h3l-1.5-1.5v10l1.5-1.5h-3l1.5 1.5v-10l-1.5 1.5z"/></defs><clipPath id="j"><use xlink:href="#i" overflow="visible"/></clipPath><g clip-path="url(#j)"><defs><path id="k" d="M-455.5-769h3v10h-3z"/></defs></g><defs><path id="l" d="M-455.5-769h3v10h-3z"/></defs><defs><path id="m" d="M-509.5-714.5v1.5h13v-6h-13v4.5zm3 0v-3l-1.5 1.5h10l-1.5-1.5v3l1.5-1.5h-10l1.5 1.5z"/></defs><clipPath id="n"><use xlink:href="#m" overflow="visible"/></clipPath><g clip-path="url(#n)"><defs><path id="o" d="M-508-717.5h10v3h-10z"/></defs></g><defs><path id="p" d="M-508-717.5h10v3h-10z"/></defs><defs><path id="q" d="M-412.5-714.5v1.5h13v-6h-13v4.5zm3 0v-3l-1.5 1.5h10l-1.5-1.5v3l1.5-1.5h-10l1.5 1.5z"/></defs><clipPath id="r"><use xlink:href="#q" overflow="visible"/></clipPath><g clip-path="url(#r)"><defs><path id="s" d="M-411-717.5h10v3h-10z"/></defs></g><defs><path id="t" d="M-411-717.5h10v3h-10z"/></defs><defs><path id="u" d="M-423.5-744.3l1.1 1.1 1.1-1.1 7.1-7.1 1.1-1.1-1.1-1.1-2.1-2.1-1.1-1.1-1.1 1.1-7.1 7.1-1.1 1.1 1.1 1.1 2.1 2.1zm2.1-2.2l-2.1-2.1v2.1l7.1-7.1h-2.1l2.1 2.1v-2.1l-7.1 7.1h2.1z"/></defs><clipPath id="v"><use xlink:href="#u" overflow="visible"/></clipPath><g clip-path="url(#v)"><defs><path id="w" transform="rotate(45.001 -420.01 -749.999)" d="M-421.5-755h3v10h-3z"/></defs></g><defs><path id="x" transform="rotate(45.001 -420.01 -749.999)" d="M-421.5-755h3v10h-3z"/></defs><defs><path id="y" d="M-483.3-745.5l1.1-1.1-1.1-1.1-7.1-7.1-1.1-1.1-1.1 1.1-2.1 2.1-1.1 1.1 1.1 1.1 7.1 7.1 1.1 1.1 1.1-1.1 2.1-2.1zm-2.2-2.1l-2.1 2.1h2.1l-7.1-7.1v2.1l2.1-2.1h-2.1l7.1 7.1v-2.1z"/></defs><clipPath id="z"><use xlink:href="#y" overflow="visible"/></clipPath><g clip-path="url(#z)"><defs><path id="A" transform="rotate(-45.001 -488.994 -749.01)" d="M-490.5-754h3v10h-3z"/></defs></g><defs><path id="B" transform="rotate(-45.001 -488.994 -749.01)" d="M-490.5-754h3v10h-3z"/></defs><defs><path id="C" d="M-423.5-688.7l1.1-1.1 1.1 1.1 7.1 7.1 1.1 1.1-1.1 1.1-2.1 2.1-1.1 1.1-1.1-1.1-7.1-7.1-1.1-1.1 1.1-1.1 2.1-2.1zm2.1 2.2l-2.1 2.1v-2.1l7.1 7.1h-2.1l2.1-2.1v2.1l-7.1-7.1h2.1z"/></defs><clipPath id="D"><use xlink:href="#C" overflow="visible"/></clipPath><g clip-path="url(#D)"><defs><path id="E" transform="rotate(-45.001 -419.993 -683.008)" d="M-421.5-688h3v10h-3z"/></defs></g><defs><path id="F" transform="rotate(-45.001 -419.993 -683.008)" d="M-421.5-688h3v10h-3z"/></defs><defs><path id="G" d="M-483.3-685.5l1.1 1.1-1.1 1.1-7.1 7.1-1.1 1.1-1.1-1.1-2.1-2.1-1.1-1.1 1.1-1.1 7.1-7.1 1.1-1.1 1.1 1.1 2.1 2.1zm-2.2 2.1l-2.1-2.1h2.1l-7.1 7.1v-2.1l2.1 2.1h-2.1l7.1-7.1v2.1z"/></defs><clipPath id="H"><use xlink:href="#G" overflow="visible"/></clipPath><g clip-path="url(#H)"><defs><path id="I" transform="rotate(45.001 -489.01 -681.998)" d="M-490.5-687h3v10h-3z"/></defs></g><defs><path id="J" transform="rotate(45.001 -489.01 -681.998)" d="M-490.5-687h3v10h-3z"/></defs><defs><path id="K" d="M-444.4-737.1c.7.3 1.5.6 2.2 1 1.3.7 2.5 1.6 3.6 2.4.4.3.7.6 1 .9.2.2.3.3.4.3l1.6 1.6-.3-2.2-2.1-14.7-.2-1.2-1 .6-12.3 8-1.8 1.2 2.1.2c.1 0 .3 0 .5.1.4.1.9.2 1.5.3 1.4.3 3.1.8 4.8 1.5zm7.5 4c-.1-.1-.4-.3-.7-.6l.1.9.6-.3zm0-1l.1.9.6-.3-.4-.4c-.1 0-.2-.1-.3-.2zm-1.9-13.1v.3l.3-.2-.3-.1zm-.8 0l.3-.2-.3-.2v.4zm-11.4 7.4l.7-.5h-.3c-.3 0-.5-.1-.6-.1l.2.6zm.9.3c-.4-.1-.7-.1-.9-.1l.1.6.8-.5z"/></defs><defs><path id="L" d="M-444.2-737.8c-3.9-1.6-7.1-1.9-7.1-1.9l12.3-8 2.1 14.7c.2.1-3.1-3.1-7.3-4.8zm-25-11.1l37.2-15.8 15.8 37.2-37.2 15.8-15.8-37.2z"/></defs><defs><path id="M" d="M-454-692.5c-13.3 0-24-10.7-24-24s10.7-24 24-24 24 10.7 24 24-10.7 24-24 24zm0 3c14.9 0 27-12.1 27-27s-12.1-27-27-27-27 12.1-27 27 12.1 27 27 27zm-47-74h94v94h-94v-94z"/></defs><clipPath id="N"><use xlink:href="#M" overflow="visible"/></clipPath><g clip-path="url(#N)"><defs><circle id="O" cx="-454" cy="-716.5" r="25.5"/></defs></g><defs><circle id="P" cx="-454" cy="-716.5" r="25.5"/></defs><defs><path id="Q" d="M-163.8-777.5h-1.5v18h19v-18h-17.5zm0 3h16l-1.5-1.5v15l1.5-1.5h-16l1.5 1.5v-15l-1.5 1.5z"/></defs><clipPath id="R"><use xlink:href="#Q" overflow="visible"/></clipPath><g clip-path="url(#R)"><defs><path id="S" d="M-163.8-776h16v15h-16z"/></defs></g><defs><path id="T" d="M-163.8-776h16v15h-16z"/></defs><defs><path id="U" d="M-187.8-765.5h-1.5v43h67v-43h-65.5zm0 3h64l-1.5-1.5v40l1.5-1.5h-64l1.5 1.5v-40l-1.5 1.5z"/></defs><clipPath id="V"><use xlink:href="#U" overflow="visible"/></clipPath><g clip-path="url(#V)"><defs><path id="W" d="M-187.8-764h64v40h-64z"/></defs></g><defs><path id="X" d="M-187.8-764h64v40h-64z"/></defs><defs><path id="Y" d="M-152.8-755.5h-1.5v33h22v-33h-20.5zm0 3h19l-1.5-1.5v30l1.5-1.5h-19l1.5 1.5v-30l-1.5 1.5z"/></defs><clipPath id="Z"><use xlink:href="#Y" overflow="visible"/></clipPath><g clip-path="url(#Z)"><defs><path id="aa" d="M-152.8-754h19v30h-19z"/></defs></g><defs><path id="ab" d="M-152.8-754h19v30h-19z"/></defs><defs><path id="ac" d="M-177.8-755.5h-1.5v33h22v-33h-20.5zm0 3h19l-1.5-1.5v30l1.5-1.5h-19l1.5 1.5v-30l-1.5 1.5z"/></defs><clipPath id="ad"><use xlink:href="#ac" overflow="visible"/></clipPath><g clip-path="url(#ad)"><defs><path id="ae" d="M-177.8-754h19v30h-19z"/></defs></g><defs><path id="af" d="M-177.8-754h19v30h-19z"/></defs><defs><path id="ag" d="M-208.3-697.3c0 2.9-.8 7-2.3 11.9-.6 2.1-1.3 4.3-2.1 6.5-1 2.7-2 5.4-3.1 8-.4.9-.7 1.7-1 2.4-.2.4-.3.7-.4.9l-.9 2.1h119.4l-.7-2c-.1-.2-.2-.4-.3-.9-.2-.7-.5-1.5-.8-2.4-.8-2.5-1.6-5.2-2.4-7.9-.7-2.4-1.3-4.8-1.8-7-1.1-4.8-1.7-8.8-1.7-11.8 0-2.8.7-7 1.9-12 .5-1.9 1-3.9 1.6-6 .8-2.7 1.6-5.4 2.4-7.9.3-.9.5-1.7.8-2.4.1-.4.2-.7.3-.9l.7-2h-119.4l1 2.1c.1.1.2.4.4.9.3.7.6 1.5 1 2.4 1 2.5 2.1 5.1 3.1 7.8.8 2.2 1.5 4.4 2.1 6.4 1.4 5 2.2 9 2.2 11.8zm3 0c0-3.2-.9-7.5-2.4-12.5-.6-2.1-1.4-4.3-2.2-6.5-1-2.7-2.1-5.4-3.1-8-.4-.9-.7-1.7-1-2.4-.2-.4-.3-.7-.4-.9l-1.4 2.1h115l-1.4-2c-.1.2-.2.5-.3.9-.2.7-.5 1.5-.8 2.4-.8 2.6-1.7 5.3-2.4 8-.6 2.1-1.1 4.1-1.6 6.1-1.3 5.2-2 9.5-2 12.7 0 3.2.6 7.4 1.7 12.4.5 2.3 1.1 4.7 1.8 7.1.8 2.8 1.6 5.5 2.4 8.1.3.9.6 1.7.8 2.4.1.4.2.7.3.9l1.4-2h-115l1.4 2.1c.1-.2.2-.5.4-.9.3-.7.7-1.5 1-2.4 1.1-2.6 2.1-5.3 3.1-8.1.8-2.3 1.6-4.5 2.2-6.7 1.7-5.2 2.5-9.5 2.5-12.8z"/></defs><clipPath id="ah"><use xlink:href="#ag" overflow="visible"/></clipPath><g clip-path="url(#ah)"><defs><path id="ai" d="M-206.8-697.3c0-9.9-9-29.7-9-29.7h115s-7 20-7 29.6c0 10.5 7 30.4 7 30.4h-115s9-20.2 9-30.3z"/></defs></g><defs><path id="aj" d="M-206.8-697.3c0-9.9-9-29.7-9-29.7h115s-7 20-7 29.6c0 10.5 7 30.4 7 30.4h-115s9-20.2 9-30.3z"/></defs><defs><path id="ak" d="M-192.8-696.5h-1.5v6h72v-6h-70.5zm0 3h69l-1.5-1.5v3l1.5-1.5h-69l1.5 1.5v-3l-1.5 1.5zm-21.5-23h112v46h-112v-46z"/></defs><clipPath id="al"><use xlink:href="#ak" overflow="visible"/></clipPath><g clip-path="url(#al)"><defs><path id="am" d="M-192.8-695h69v3h-69z"/></defs></g><defs><path id="an" d="M-192.8-695h69v3h-69z"/></defs><defs><path id="ao" d="M-192.8-704.5h-1.5v6h72v-6h-70.5zm0 3h69l-1.5-1.5v3l1.5-1.5h-69l1.5 1.5v-3l-1.5 1.5zm-21.5-23h112v46h-112v-46z"/></defs><clipPath id="ap"><use xlink:href="#ao" overflow="visible"/></clipPath><g clip-path="url(#ap)"><defs><path id="aq" d="M-192.8-703h69v3h-69z"/></defs></g><defs><path id="ar" d="M-192.8-703h69v3h-69z"/></defs><defs><path id="as" d="M-160.8-689.1l.5 1.6 1.5-.7c2-.9 4.2-1.3 6.4-1.3 6 0 11.3 3.3 14.1 8.4l.5 1 1.1-.2c.6-.1 1.2-.2 1.8-.2 3.5 0 6.6 2.1 7.9 5.3l.5 1.2 1.3-.3c.4-.1.9-.2 1.4-.2 3 0 5.5 2.5 5.5 5.5s-2.5 5.5-5.5 5.5c-1.5 0-2.9-.6-3.9-1.6l-.9-.9-1 .8c-1.5 1.1-3.3 1.7-5.1 1.7-1.1 0-2.2-.2-3.2-.6l-1-.4-.7.9c-3 3.8-7.6 6.1-12.6 6.1-4.9 0-9.5-2.3-12.5-6l-.7-.8-1 .3c-1.1.4-2.2.5-3.3.5-2 0-4-.6-5.7-1.7l-.8-.5-.8.5c-1.7 1.1-3.6 1.7-5.7 1.7-2.2 0-4.3-.7-6-1.9l-1.1-.7-.9.9c-1 1.1-2.5 1.7-4 1.7-3 0-5.5-2.5-5.5-5.5s2.5-5.5 5.5-5.5h1.4l.2-1.3c.8-5 5.2-8.7 10.4-8.7h1.5v-1.5c0-5.8 4.7-10.5 10.5-10.5 4.6 0 8.6 3 9.9 7.4zm2.9-.9c-1.7-5.6-6.9-9.5-12.9-9.5-7.5 0-13.5 6-13.5 13.5l1.5-1.5c-6.6 0-12.2 4.8-13.3 11.3l1.5.2v-1.5h-.2c-4.7 0-8.5 3.8-8.5 8.5s3.8 8.5 8.5 8.5c2.4 0 4.6-1 6.2-2.7l-2 .2c2.3 1.6 5 2.5 7.8 2.5 2.6 0 5.2-.8 7.3-2.2h-1.6c2.2 1.4 4.7 2.2 7.3 2.2 1.5 0 2.9-.2 4.3-.7l-.5-1.4-1.2.9c3.6 4.5 9 7.2 14.9 7.2s11.4-2.7 15-7.3l-1.2-.9-.6 1.4c1.3.5 2.8.8 4.3.8 2.6 0 5-.8 7-2.4l-2-.1c1.6 1.6 3.7 2.5 6 2.5 4.7 0 8.5-3.8 8.5-8.5s-3.8-8.5-8.5-8.5c-.7 0-1.4.1-2.1.3l.4 1.5 1.4-.6c-1.8-4.3-5.9-7.2-10.6-7.2-.8 0-1.6.1-2.4.2l.3 1.5 1.3-.7c-3.3-6.1-9.7-10-16.7-10-2.7 0-5.2.5-7.6 1.6l1.9.9zm-65.4-29.5h128v85h-128v-85z"/></defs><clipPath id="at"><use xlink:href="#as" overflow="visible"/></clipPath><g clip-path="url(#at)"><defs><path id="au" d="M-159.3-689.5c-1.5-4.9-6.1-8.5-11.5-8.5-6.6 0-12 5.4-12 12-5.9 0-10.9 4.3-11.8 10h-.2c-3.9 0-7 3.1-7 7s3.1 7 7 7c2 0 3.8-.8 5.1-2.2 2 1.4 4.3 2.2 6.9 2.2 2.4 0 4.6-.7 6.5-1.9 1.9 1.2 4.1 1.9 6.5 1.9 1.3 0 2.6-.2 3.8-.6 3.2 4 8.2 6.6 13.7 6.6 5.6 0 10.6-2.6 13.8-6.7 1.1.5 2.4.7 3.7.7 2.3 0 4.4-.8 6.1-2 1.3 1.3 3 2 4.9 2 3.9 0 7-3.1 7-7s-3.1-7-7-7c-.6 0-1.2.1-1.7.2-1.5-3.6-5.1-6.2-9.3-6.2-.7 0-1.4.1-2.1.2-3-5.5-8.8-9.2-15.4-9.2-2.5 0-4.9.5-7 1.5z"/></defs></g><defs><path id="av" d="M-159.3-689.5c-1.5-4.9-6.1-8.5-11.5-8.5-6.6 0-12 5.4-12 12-5.9 0-10.9 4.3-11.8 10h-.2c-3.9 0-7 3.1-7 7s3.1 7 7 7c2 0 3.8-.8 5.1-2.2 2 1.4 4.3 2.2 6.9 2.2 2.4 0 4.6-.7 6.5-1.9 1.9 1.2 4.1 1.9 6.5 1.9 1.3 0 2.6-.2 3.8-.6 3.2 4 8.2 6.6 13.7 6.6 5.6 0 10.6-2.6 13.8-6.7 1.1.5 2.4.7 3.7.7 2.3 0 4.4-.8 6.1-2 1.3 1.3 3 2 4.9 2 3.9 0 7-3.1 7-7s-3.1-7-7-7c-.6 0-1.2.1-1.7.2-1.5-3.6-5.1-6.2-9.3-6.2-.7 0-1.4.1-2.1.2-3-5.5-8.8-9.2-15.4-9.2-2.5 0-4.9.5-7 1.5z"/></defs><defs><path id="aw" d="M111.7-724.6l56 32.4s-1.5 14.3-8.3 24.7c-6.8 10.4-24.1 17.2-24.1 17.2l-53.4-38.5s13.7-4.3 21.6-13.8 8.2-22 8.2-22z"/></defs><defs><path id="ax" d="M137.2-710.8l21.8-50.6 6.2 2.7-22.4 51z"/></defs><defs><path id="ay" d="M102.3-684.4l1.2.9.9-1.2c-1.5-1-3.3-1.6-5.1-1.6-5 0-9 4-9 9 0 3.8 2.4 7.2 6 8.5l-1-1.4c0 4.9 4.1 8.9 9 8.9 1.4 0 2.8-.3 4.1-1l-.7-1.3-1.4.6c1.9 4 5.9 6.7 10.4 6.7 6.4 0 11.5-5.1 11.5-11.5 0-1.2-.2-2.5-.6-3.6l-1.4.5.8 1.3c2.6-1.6 4.2-4.5 4.2-7.6 0-5-4-9-9-9-1.2 0-2.3.2-3.4.7l.6 1.4 1.1-1c-2.2-2.6-5.4-4.1-8.8-4.1-3.8-.1-7.3 1.8-9.4 4.8zm2.4 1.7c1.6-2.3 4.2-3.7 7-3.7 2.5 0 4.9 1.1 6.5 3l.7.8 1-.4c.7-.3 1.5-.4 2.3-.4 3.3 0 6 2.7 6 6 0 2.1-1.1 4-2.8 5.1l-1 .6.4 1.1c.3.9.4 1.8.4 2.7 0 4.7-3.8 8.5-8.5 8.5-3.4 0-6.3-2-7.7-4.9l-.7-1.4-1.3.7c-.8.4-1.8.7-2.7.7-3.3 0-6-2.7-6-5.9v-1.1l-1-.3c-2.4-.8-4-3.1-4-5.7 0-3.3 2.7-6 6-6 1.2 0 2.4.4 3.4 1.1l1.2.9.8-1.4zm-34.5-26.6h81v73h-81v-73z"/></defs><clipPath id="az"><use xlink:href="#ay" overflow="visible"/></clipPath><g clip-path="url(#az)"><defs><path id="aA" d="M103.5-683.5c1.8-2.6 4.8-4.3 8.2-4.3 3.1 0 5.8 1.4 7.7 3.6.9-.4 1.8-.6 2.8-.6 4.1 0 7.5 3.4 7.5 7.5 0 2.7-1.4 5-3.5 6.3.3 1 .5 2 .5 3.2 0 5.5-4.5 10-10 10-4 0-7.5-2.4-9.1-5.8-1 .5-2.2.8-3.4.8-4.1 0-7.5-3.3-7.5-7.4-2.9-1-5-3.8-5-7.1 0-4.1 3.4-7.5 7.5-7.5 1.6 0 3.1.5 4.3 1.3z"/></defs></g><defs><path id="aB" d="M103.5-683.5c1.8-2.6 4.8-4.3 8.2-4.3 3.1 0 5.8 1.4 7.7 3.6.9-.4 1.8-.6 2.8-.6 4.1 0 7.5 3.4 7.5 7.5 0 2.7-1.4 5-3.5 6.3.3 1 .5 2 .5 3.2 0 5.5-4.5 10-10 10-4 0-7.5-2.4-9.1-5.8-1 .5-2.2.8-3.4.8-4.1 0-7.5-3.3-7.5-7.4-2.9-1-5-3.8-5-7.1 0-4.1 3.4-7.5 7.5-7.5 1.6 0 3.1.5 4.3 1.3z"/></defs><defs><path id="aC" d="M159.7-768.2l10.2 4.4 2-4.4-10.3-4-1.9 4zm-8.5 2.7l22.8 9.7 7.1-15.4-23.3-8.4-6.6 14.1z"/></defs><defs><path id="aD" d="M432.1-780.6c30.3 0 55 7.1 55 14.8v22l1.7-1.5c-.1 0-.2 0-.4-.1-.4-.1-.8-.1-1.3-.2-1.4-.2-2.9-.4-4.6-.6-4.9-.7-10-1.3-15.2-2-3.9-.5-7.7-.9-11.3-1.3-9.9-1-18.1-1.6-23.9-1.6-5.2 0-14.3.8-26.1 2.3-2.5.3-5.1.6-7.7 1-5.4.7-10.9 1.5-16.1 2.3-1.8.3-3.5.5-5 .8-.5.1-1 .2-1.4.2-.2 0-.4.1-.5.1l1.7 1.5v-23c.1-7.6 24.8-14.7 55.1-14.7zm0-3c-32.1 0-58 7.5-58 17.8v24.8l1.7-.3c.1 0 .2 0 .5-.1.4-.1.8-.1 1.4-.2 1.5-.2 3.1-.5 5-.8 5.2-.8 10.7-1.6 16.1-2.3 2.6-.4 5.2-.7 7.7-1 11.7-1.5 20.7-2.3 25.7-2.3 5.6 0 13.7.6 23.6 1.6 3.6.4 7.4.8 11.2 1.3 5.2.6 10.3 1.3 15.2 2 1.7.2 3.2.4 4.6.6.5.1.9.1 1.2.2.2 0 .4.1.4.1l1.7.3v-23.7c0-10.6-25.9-18-58-18zm-78-20h156v82.5h-156v-82.5z"/></defs><clipPath id="aE"><use xlink:href="#aD" overflow="visible"/></clipPath><g clip-path="url(#aE)"><defs><path id="aF" d="M432.1-782.1c-31.2 0-56.5 7.3-56.5 16.3v23s42.2-6.7 56.5-6.7c18 0 56.5 5.7 56.5 5.7v-22c0-9-25.3-16.3-56.5-16.3z"/></defs></g><defs><path id="aG" d="M432.1-782.1c-31.2 0-56.5 7.3-56.5 16.3v23s42.2-6.7 56.5-6.7c18 0 56.5 5.7 56.5 5.7v-22c0-9-25.3-16.3-56.5-16.3z"/></defs><defs><path id="aH" d="M432.1-758.4c30.3 0 55 7.1 55 14.8 0 7.7-24.7 14.8-55 14.8s-55-7.1-55-14.8c0-7.6 24.7-14.8 55-14.8zm0-3c-32.1 0-58 7.5-58 17.8s25.9 17.8 58 17.8 58-7.5 58-17.8-25.9-17.8-58-17.8zm-78-20h156v75.6h-156v-75.6z"/></defs><clipPath id="aI"><use xlink:href="#aH" overflow="visible"/></clipPath><g clip-path="url(#aI)"><defs><ellipse id="aJ" cx="432.1" cy="-743.5" rx="56.5" ry="16.3"/></defs></g><defs><ellipse id="aK" cx="432.1" cy="-743.5" rx="56.5" ry="16.3"/></defs><defs><path id="aL" d="M392.1-739.2c0-5.3 18-10.4 40-10.4s40 5.2 40 10.4v7.1l1.2-1.5c-.1 0-.1 0-.3.1-.3 0-.6.1-.9.2-1 .2-2.1.3-3.4.5-3.6.6-7.3 1.1-11.1 1.7-2.9.4-5.6.8-8.3 1.1-7.2.9-13.1 1.3-17.2 1.3-3.7 0-10.3-.5-18.9-1.4-1.8-.2-3.7-.4-5.6-.6-4-.5-8-.9-11.8-1.4-1.3-.2-2.6-.3-3.6-.5-.4 0-.7-.1-1-.1h-.3l1.3 1.5v-8zm-3 0v9.1l1.3.2h.4c.3 0 .6.1 1 .1 1.1.1 2.3.3 3.7.5a11776882415803102 11776882415803102 0 0 0 36.7 3.5c4.3 0 10.3-.5 17.6-1.4 2.7-.3 5.4-.7 8.3-1.1 3.8-.5 7.6-1.1 11.2-1.7 1.3-.2 2.4-.4 3.4-.5.4-.1.7-.1.9-.2.3 0 .3 0 .3-.1l1.2-.2v-8.4c0-7.9-19.2-13.4-43-13.4s-43 5.7-43 13.6zm-20-33.4h126v66.9h-126v-66.9z"/></defs><clipPath id="aM"><use xlink:href="#aL" overflow="visible"/></clipPath><g clip-path="url(#aM)"><defs><path id="aN" d="M390.6-739.2v7.8s31 4.1 41.5 4.1c13.2 0 41.5-4.8 41.5-4.8v-7.1c0-6.6-18.6-11.9-41.5-11.9s-41.5 5.3-41.5 11.9z"/></defs></g><defs><path id="aO" d="M390.6-739.2v7.8s31 4.1 41.5 4.1c13.2 0 41.5-4.8 41.5-4.8v-7.1c0-6.6-18.6-11.9-41.5-11.9s-41.5 5.3-41.5 11.9z"/></defs><defs><path id="aP" d="M432.1-741.3c22 0 40 5.2 40 10.4 0 5.3-18 10.4-40 10.4s-40-5.2-40-10.4 18-10.4 40-10.4zm0-3c-23.8 0-43 5.5-43 13.4s19.2 13.4 43 13.4 43-5.5 43-13.4-19.2-13.4-43-13.4zm-63-20h126v66.9h-126v-66.9z"/></defs><clipPath id="aQ"><use xlink:href="#aP" overflow="visible"/></clipPath><g clip-path="url(#aQ)"><defs><ellipse id="aR" cx="432.1" cy="-730.9" rx="41.5" ry="11.9"/></defs></g><defs><ellipse id="aS" cx="432.1" cy="-730.9" rx="41.5" ry="11.9"/></defs><defs><path id="aT" d="M419.5-729.3c0 .4-.2.7-.4.8.1 0 .2-.1.4-.2.6-.2 1.6-.4 2.8-.6 2.6-.4 6-.6 9.8-.6s7.2.2 9.8.6c1.2.2 2.2.4 2.8.6l.4.2c-.2-.1-.4-.4-.4-.8s.2-.7.4-.8c-.1 0-.2.1-.4.2-.6.2-1.6.4-2.8.6-2.6.4-6 .6-9.8.6s-7.2-.2-9.8-.6c-1.2-.2-2.2-.4-2.8-.6l-.4-.2c.2.1.4.3.4.8zm-3 0c0 2.6 6.2 3.5 15.6 3.5s15.6-.9 15.6-3.5-6.2-3.5-15.6-3.5-15.6.8-15.6 3.5zm-20-23.6h71.2v47.1h-71.2v-47.1z"/></defs><clipPath id="aU"><use xlink:href="#aT" overflow="visible"/></clipPath><g clip-path="url(#aU)"><defs><ellipse id="aV" cx="432.1" cy="-729.3" rx="14.1" ry="2"/></defs></g><defs><ellipse id="aW" cx="432.1" cy="-729.3" rx="14.1" ry="2"/></defs><defs><path id="aX" d="M424.9-712s-10.5 3.3-9.1 12.3c.9 5.5 5.6 8.1 5.6 13.5s-4.6 9.5-4.6 9.5 13.5-.3 14.6-9.5c1.1-9.2-6.7-11.3-8.3-15.6-1.4-4.3 1.8-10.2 1.8-10.2z"/></defs><defs><path id="aY" d="M440-708.7s-15.1 4.8-13 17.6c1.2 7.9 8 11.6 8 19.4s-6.5 13.6-6.5 13.6 19.3-.5 20.9-13.6c1.6-13.2-9.6-16.1-11.8-22.3-2.3-6.3 2.4-14.7 2.4-14.7z"/></defs><defs><path id="aZ" d="M-211.5-598.5l-1.4.4.4 1.4 30.4 99.5.4 1.4 1.4-.4 60.2-18.4 1.4-.4-.4-1.4-30.4-99.5-.4-1.4-1.4.4-60.2 18.4zm.9 2.9l60.2-18.4-1.9-1 30.4 99.5 1-1.9-60.2 18.4 1.9 1-30.4-99.5-1 1.9zm-27.3-15.7l101.4-31 43 140.6-101.4 31-43-140.6z"/></defs><clipPath id="ba"><use xlink:href="#aZ" overflow="visible"/></clipPath><g clip-path="url(#ba)"><defs><path id="bb" transform="rotate(162.999 -165.698 -556.5)" d="M-197.2-608.5h63v104h-63z"/></defs></g><defs><path id="bc" transform="rotate(162.999 -165.698 -556.5)" d="M-197.2-608.5h63v104h-63z"/></defs><defs><path id="bd" d="M-176.2-621.5h-1.5v107h66v-107h-64.5zm0 3h63l-1.5-1.5v104l1.5-1.5h-63l1.5 1.5v-104l-1.5 1.5zm-21.5-23h106v147h-106v-147z"/></defs><clipPath id="be"><use xlink:href="#bd" overflow="visible"/></clipPath><g clip-path="url(#be)"><defs><path id="bf" d="M-176.2-620h63v104h-63z"/></defs></g><defs><path id="bg" d="M-176.2-620h63v104h-63z"/></defs><defs><path id="bh" d="M-167.2-592h44v13h-44z"/></defs><defs><path id="bi" d="M-167.2-582h44v13h-44z"/></defs><defs><path id="bj" d="M-167.2-572h44v13h-44z"/></defs><defs><path id="bk" d="M-167.2-562h44v14h-44z"/></defs><defs><path id="bl" d="M-167.2-551h44v14h-44z"/></defs><defs><path id="bm" d="M-167.2-540h44v14h-44z"/></defs><defs><path id="bn" d="M-166.2-610h3v13h-3z"/></defs><defs><path id="bo" d="M-161.2-610h3v13h-3z"/></defs><defs><path id="bp" d="M-156.2-610h3v13h-3z"/></defs><defs><path id="bq" d="M-151.2-610h3v13h-3z"/></defs><defs><path id="br" d="M-146.2-610h3v13h-3z"/></defs><defs><path id="bs" d="M-146.2-559h3v32h-3z"/></defs><defs><path id="bt" d="M-141.2-610h3v13h-3z"/></defs><defs><path id="bu" d="M-136.2-610h3v13h-3z"/></defs><defs><path id="bv" d="M-131.2-610h3v13h-3z"/></defs><defs><path id="bw" d="M-126.2-610h3v13h-3z"/></defs><defs><path id="bx" d="M-208.2-595.8l53.3 34.1-23.9 61.7"/></defs><defs><path id="by" d="M93.5-621.5H92v107h66v-107H93.5zm0 3h63L155-620v104l1.5-1.5h-63L95-516v-104l-1.5 1.5zm-21.5-23h106v147H72v-147z"/></defs><clipPath id="bz"><use xlink:href="#by" overflow="visible"/></clipPath><g clip-path="url(#bz)"><defs><path id="bA" d="M93.5-620h63v104h-63z"/></defs></g><defs><path id="bB" d="M93.5-620h63v104h-63z"/></defs><defs><path id="bC" d="M102.5-592h44v13h-44z"/></defs><defs><path id="bD" d="M102.5-582h44v13h-44z"/></defs><defs><path id="bE" d="M102.5-572h44v13h-44z"/></defs><defs><path id="bF" d="M102.5-562h44v14h-44z"/></defs><defs><path id="bG" d="M102.5-551h44v14h-44z"/></defs><defs><path id="bH" d="M102.5-540h44v14h-44z"/></defs><defs><path id="bI" d="M103.5-610h3v13h-3z"/></defs><defs><path id="bJ" d="M108.5-610h3v13h-3z"/></defs><defs><path id="bK" d="M113.5-610h3v13h-3z"/></defs><defs><path id="bL" d="M118.5-610h3v13h-3z"/></defs><defs><path id="bM" d="M123.5-610h3v13h-3z"/></defs><defs><path id="bN" d="M123.5-559h3v32h-3z"/></defs><defs><path id="bO" d="M128.5-610h3v13h-3z"/></defs><defs><path id="bP" d="M133.5-610h3v13h-3z"/></defs><defs><path id="bQ" d="M138.5-610h3v13h-3z"/></defs><defs><path id="bR" d="M143.5-610h3v13h-3z"/></defs><defs><path id="bS" d="M165.5-500.5c-16.3 0-29.5-13.2-29.5-29.5s13.2-29.5 29.5-29.5S195-546.3 195-530s-13.2 29.5-29.5 29.5zm0 3c17.9 0 32.5-14.6 32.5-32.5s-14.6-32.5-32.5-32.5S133-547.9 133-530s14.5 32.5 32.5 32.5zm-52.5-85h105v105H113v-105z"/></defs><clipPath id="bT"><use xlink:href="#bS" overflow="visible"/></clipPath><g clip-path="url(#bT)"><defs><circle id="bU" cx="165.5" cy="-530" r="31"/></defs></g><defs><circle id="bV" cx="165.5" cy="-530" r="31"/></defs><defs><path id="bW" d="M71.8-445.3h-1.5v90h134v-90H71.8zm0 3h131l-1.5-1.5v87l1.5-1.5h-131l1.5 1.5v-87l-1.5 1.5zm-21.5-23h174v130h-174v-130z"/></defs><clipPath id="bX"><use xlink:href="#bW" overflow="visible"/></clipPath><g clip-path="url(#bX)"><defs><path id="bY" d="M71.8-443.8h131v87h-131z"/></defs></g><defs><path id="bZ" d="M71.8-443.8h131v87h-131z"/></defs><defs><path id="ca" d="M76.8-440.3h-1.5v80h124v-80H76.8zm0 3h121l-1.5-1.5v77l1.5-1.5h-121l1.5 1.5v-77l-1.5 1.5zm-21.5-23h164v120h-164v-120z"/></defs><clipPath id="cb"><use xlink:href="#ca" overflow="visible"/></clipPath><g clip-path="url(#cb)"><defs><path id="cc" d="M76.8-438.8h121v77h-121z"/></defs></g><defs><path id="cd" d="M76.8-438.8h121v77h-121z"/></defs><defs><path id="ce" d="M141.8-425.3h-1.5v6h47v-6h-45.5zm0 3h44l-1.5-1.5v3l1.5-1.5h-44l1.5 1.5v-3l-1.5 1.5zm-21.5-23h87v46h-87v-46z"/></defs><clipPath id="cf"><use xlink:href="#ce" overflow="visible"/></clipPath><g clip-path="url(#cf)"><defs><path id="cg" d="M141.8-423.8h44v3h-44z"/></defs></g><defs><path id="ch" d="M141.8-423.8h44v3h-44z"/></defs><defs><path id="ci" d="M141.8-419.3h-1.5v6h47v-6h-45.5zm0 3h44l-1.5-1.5v3l1.5-1.5h-44l1.5 1.5v-3l-1.5 1.5zm-21.5-23h87v46h-87v-46z"/></defs><clipPath id="cj"><use xlink:href="#ci" overflow="visible"/></clipPath><g clip-path="url(#cj)"><defs><path id="ck" d="M141.8-417.8h44v3h-44z"/></defs></g><defs><path id="cl" d="M141.8-417.8h44v3h-44z"/></defs><defs><path id="cm" d="M141.8-413.3h-1.5v6h47v-6h-45.5zm0 3h44l-1.5-1.5v3l1.5-1.5h-44l1.5 1.5v-3l-1.5 1.5zm-21.5-23h87v46h-87v-46z"/></defs><clipPath id="cn"><use xlink:href="#cm" overflow="visible"/></clipPath><g clip-path="url(#cn)"><defs><path id="co" d="M141.8-411.8h44v3h-44z"/></defs></g><defs><path id="cp" d="M141.8-411.8h44v3h-44z"/></defs><defs><path id="cq" d="M141.8-407.3h-1.5v6h47v-6h-45.5zm0 3h44l-1.5-1.5v3l1.5-1.5h-44l1.5 1.5v-3l-1.5 1.5zm-21.5-23h87v46h-87v-46z"/></defs><clipPath id="cr"><use xlink:href="#cq" overflow="visible"/></clipPath><g clip-path="url(#cr)"><defs><path id="cs" d="M141.8-405.8h44v3h-44z"/></defs></g><defs><path id="ct" d="M141.8-405.8h44v3h-44z"/></defs><defs><path id="cu" d="M-216-282.8h-1.2v71.5h131.7v-71.5H-216zm0 2.4h129.3l-1.2-1.2v69.1l1.2-1.2H-216l1.2 1.2v-69.1l-1.2 1.2zm-17.3-18.5h163.9v103.6h-163.9v-103.6z"/></defs><clipPath id="cv"><use xlink:href="#cu" overflow="visible"/></clipPath><g clip-path="url(#cv)"><defs><path id="cw" d="M-216-281.6h129.3v69.1H-216z"/></defs></g><defs><path id="cx" d="M-216-281.6h129.3v69.1H-216z"/></defs><defs><path id="cy" d="M-209.6-276.4h-1.2v57.8h118.9v-57.8h-19.5l-.3.2-6.5 4.8.7-.2h-66.7l.8.3-5.9-4.8-.3-.3h-20zm0 2.4h19.4l-.8-.3 5.9 4.8.3.3h67.5l.3-.2 6.5-4.8-.7.2h17.9l-1.2-1.2v55.4l1.2-1.2h-116.5l1.2 1.2v-55.4l-1 1.2zm-17.3-18.5h151v90h-151v-90z"/></defs><clipPath id="cz"><use xlink:href="#cy" overflow="visible"/></clipPath><g clip-path="url(#cz)"><defs><path id="cA" d="M-209.6-275.2h19.5l5.9 4.8h66.7l6.5-4.8h17.9v55.4h-116.5z"/></defs></g><defs><path id="cB" d="M-209.6-275.2h19.5l5.9 4.8h66.7l6.5-4.8h17.9v55.4h-116.5z"/></defs><defs><path id="cC" d="M-181.5-276h5.6v2.4h-5.6z"/></defs><defs><path id="cD" d="M-125.2-276h5.6v2.4h-5.6z"/></defs><defs><path id="cE" d="M-525.8-260.8h-1.5v38h142v-25.1l-.4-.4-11.4-12-.4-.5h-128.3zm0 3h127.6l-1.1-.5 11.4 12-.4-1v23l1.5-1.5h-139l1.5 1.5v-35l-1.5 1.5zm-21.5-23h182v78h-182v-78z"/></defs><clipPath id="cF"><use xlink:href="#cE" overflow="visible"/></clipPath><g clip-path="url(#cF)"><defs><path id="cG" d="M-525.8-259.3h127.6l11.4 12v23h-139z"/></defs></g><defs><path id="cH" d="M-525.8-259.3h127.6l11.4 12v23h-139z"/></defs><defs><path id="cI" d="M-492.8-209.4c-8 0-14.5-6.5-14.5-14.5s6.5-14.5 14.5-14.5 14.5 6.5 14.5 14.5-6.4 14.5-14.5 14.5zm0 3c9.7 0 17.5-7.8 17.5-17.5s-7.8-17.5-17.5-17.5-17.5 7.8-17.5 17.5 7.9 17.5 17.5 17.5zm-37.5-55h75v75h-75v-75z"/></defs><clipPath id="cJ"><use xlink:href="#cI" overflow="visible"/></clipPath><g clip-path="url(#cJ)"><defs><circle id="cK" cx="-492.8" cy="-223.9" r="16"/></defs></g><defs><circle id="cL" cx="-492.8" cy="-223.9" r="16"/></defs><defs><path id="cM" d="M-492.8-216.4c-4.1 0-7.5-3.4-7.5-7.5s3.4-7.5 7.5-7.5 7.5 3.4 7.5 7.5c0 4.2-3.3 7.5-7.5 7.5zm0 3c5.8 0 10.5-4.7 10.5-10.5s-4.7-10.5-10.5-10.5-10.5 4.7-10.5 10.5 4.7 10.5 10.5 10.5zm-30.5-41h61v61h-61v-61z"/></defs><clipPath id="cN"><use xlink:href="#cM" overflow="visible"/></clipPath><g clip-path="url(#cN)"><defs><circle id="cO" cx="-492.8" cy="-223.9" r="9"/></defs></g><defs><circle id="cP" cx="-492.8" cy="-223.9" r="9"/></defs><defs><path id="cQ" d="M-426.5-209.4c-8 0-14.5-6.5-14.5-14.5s6.5-14.5 14.5-14.5 14.5 6.5 14.5 14.5-6.5 14.5-14.5 14.5zm0 3c9.7 0 17.5-7.8 17.5-17.5s-7.8-17.5-17.5-17.5-17.5 7.8-17.5 17.5 7.8 17.5 17.5 17.5zm-37.5-55h75v75h-75v-75z"/></defs><clipPath id="cR"><use xlink:href="#cQ" overflow="visible"/></clipPath><g clip-path="url(#cR)"><defs><circle id="cS" cx="-426.5" cy="-223.9" r="16"/></defs></g><defs><circle id="cT" cx="-426.5" cy="-223.9" r="16"/></defs><defs><path id="cU" d="M-426.3-264.2l-7.7-15.6h-27.2v15.6h34.9zm-75.2 0l7.4-15.6h27.2v15.6h-34.6zm-10.3 5.3l14.1-26.9h66.8l15.3 27.9-96.2-1z"/></defs><defs><path id="cV" d="M-426.5-216.4c-4.1 0-7.5-3.4-7.5-7.5s3.4-7.5 7.5-7.5 7.5 3.4 7.5 7.5c0 4.2-3.4 7.5-7.5 7.5zm0 3c5.8 0 10.5-4.7 10.5-10.5s-4.7-10.5-10.5-10.5-10.5 4.7-10.5 10.5 4.7 10.5 10.5 10.5zm-30.5-41h61v61h-61v-61z"/></defs><clipPath id="cW"><use xlink:href="#cV" overflow="visible"/></clipPath><g clip-path="url(#cW)"><defs><circle id="cX" cx="-426.5" cy="-223.9" r="9"/></defs></g><defs><circle id="cY" cx="-426.5" cy="-223.9" r="9"/></defs><defs><path id="cZ" d="M-211.8-438.5h-1.5v84h108v-84h-106.5zm0 3h105l-1.5-1.5v81l1.5-1.5h-105l1.5 1.5v-81l-1.5 1.5zm-21.5-23h148v124h-148v-124z"/></defs><clipPath id="da"><use xlink:href="#cZ" overflow="visible"/></clipPath><g clip-path="url(#da)"><defs><path id="db" d="M-211.8-437h105v81h-105z"/></defs></g><defs><path id="dc" d="M-211.8-437h105v81h-105z"/></defs><defs><path id="dd" d="M-217.8-421.5h-2.2l.9-2.1 9.1-22 .4-.9h100.9l.4.9 9.1 22 .9 2.1h-119.5zm0-3h117l-1.4 2.1-9.1-22 1.4.9h-98.9l1.4-.9-9.1 22-1.3-2.1zm-22.2 23h161.5v-65H-240v65z"/></defs><clipPath id="de"><use xlink:href="#dd" overflow="visible"/></clipPath><g clip-path="url(#de)"><defs><path id="df" d="M-217.8-423h117l-9.1-22h-98.8z"/></defs></g><defs><path id="dg" d="M-217.8-423h117l-9.1-22h-98.8z"/></defs><defs><path id="dh" d="M-132.8-454.5h-1.5v19h15v-19h-13.5zm0 3h12l-1.5-1.5v16l1.5-1.5h-12l1.5 1.5v-16l-1.5 1.5zm-21.5-23h55v59h-55v-59z"/></defs><clipPath id="di"><use xlink:href="#dh" overflow="visible"/></clipPath><g clip-path="url(#di)"><defs><path id="dj" d="M-132.8-453h12v16h-12z"/></defs></g><defs><path id="dk" d="M-132.8-453h12v16h-12z"/></defs><defs><path id="dl" d="M-198.8-388.5h-1.5v34h24v-34h-22.5zm0 3h21l-1.5-1.5v31l1.5-1.5h-21l1.5 1.5v-31l-1.5 1.5zm-21.5-23h64v74h-64v-74z"/></defs><clipPath id="dm"><use xlink:href="#dl" overflow="visible"/></clipPath><g clip-path="url(#dm)"><defs><path id="dn" d="M-198.8-387h21v31h-21z"/></defs></g><defs><path id="do" d="M-198.8-387h21v31h-21z"/></defs><defs><path id="dp" d="M-197.8-416.5h-1.5v22h22v-22h-20.5zm0 3h19l-1.5-1.5v19l1.5-1.5h-19l1.5 1.5v-19l-1.5 1.5zm-21.5-23h62v62h-62v-62z"/></defs><clipPath id="dq"><use xlink:href="#dp" overflow="visible"/></clipPath><g clip-path="url(#dq)"><defs><path id="dr" d="M-197.8-415h19v19h-19z"/></defs></g><defs><path id="ds" d="M-197.8-415h19v19h-19z"/></defs><defs><path id="dt" d="M-192.8-411.5h-1.5v12h12v-12h-10.5zm0 3h9l-1.5-1.5v9l1.5-1.5h-9l1.5 1.5v-9l-1.5 1.5zm-21.5-23h52v52h-52v-52z"/></defs><clipPath id="du"><use xlink:href="#dt" overflow="visible"/></clipPath><g clip-path="url(#du)"><defs><path id="dv" d="M-192.8-410h9v9h-9z"/></defs></g><defs><path id="dw" d="M-192.8-410h9v9h-9z"/></defs><defs><path id="dx" d="M-167.8-416.5h-1.5v22h22v-22h-20.5zm0 3h19l-1.5-1.5v19l1.5-1.5h-19l1.5 1.5v-19l-1.5 1.5zm-21.5-23h62v62h-62v-62z"/></defs><clipPath id="dy"><use xlink:href="#dx" overflow="visible"/></clipPath><g clip-path="url(#dy)"><defs><path id="dz" d="M-167.8-415h19v19h-19z"/></defs></g><defs><path id="dA" d="M-167.8-415h19v19h-19z"/></defs><defs><path id="dB" d="M-138.8-416.5h-1.5v22h22v-22h-20.5zm0 3h19l-1.5-1.5v19l1.5-1.5h-19l1.5 1.5v-19l-1.5 1.5zm-21.5-23h62v62h-62v-62z"/></defs><clipPath id="dC"><use xlink:href="#dB" overflow="visible"/></clipPath><g clip-path="url(#dC)"><defs><path id="dD" d="M-138.8-415h19v19h-19z"/></defs></g><defs><path id="dE" d="M-138.8-415h19v19h-19z"/></defs><defs><path id="dF" d="M-167.8-388.5h-1.5v22h22v-22h-20.5zm0 3h19l-1.5-1.5v19l1.5-1.5h-19l1.5 1.5v-19l-1.5 1.5zm-21.5-23h62v62h-62v-62z"/></defs><clipPath id="dG"><use xlink:href="#dF" overflow="visible"/></clipPath><g clip-path="url(#dG)"><defs><path id="dH" d="M-167.8-387h19v19h-19z"/></defs></g><defs><path id="dI" d="M-167.8-387h19v19h-19z"/></defs><defs><path id="dJ" d="M-138.8-388.5h-1.5v22h22v-22h-20.5zm0 3h19l-1.5-1.5v19l1.5-1.5h-19l1.5 1.5v-19l-1.5 1.5zm-21.5-23h62v62h-62v-62z"/></defs><clipPath id="dK"><use xlink:href="#dJ" overflow="visible"/></clipPath><g clip-path="url(#dK)"><defs><path id="dL" d="M-138.8-387h19v19h-19z"/></defs></g><defs><path id="dM" d="M-138.8-387h19v19h-19z"/></defs><defs><path id="dN" d="M-162.8-411.5h-1.5v12h12v-12h-10.5zm0 3h9l-1.5-1.5v9l1.5-1.5h-9l1.5 1.5v-9l-1.5 1.5zm-21.5-23h52v52h-52v-52z"/></defs><clipPath id="dO"><use xlink:href="#dN" overflow="visible"/></clipPath><g clip-path="url(#dO)"><defs><path id="dP" d="M-162.8-410h9v9h-9z"/></defs></g><defs><path id="dQ" d="M-162.8-410h9v9h-9z"/></defs><defs><path id="dR" d="M-133.8-411.5h-1.5v12h12v-12h-10.5zm0 3h9l-1.5-1.5v9l1.5-1.5h-9l1.5 1.5v-9l-1.5 1.5zm-21.5-23h52v52h-52v-52z"/></defs><clipPath id="dS"><use xlink:href="#dR" overflow="visible"/></clipPath><g clip-path="url(#dS)"><defs><path id="dT" d="M-133.8-410h9v9h-9z"/></defs></g><defs><path id="dU" d="M-133.8-410h9v9h-9z"/></defs><defs><path id="dV" d="M-162.8-383.5h-1.5v12h12v-12h-10.5zm0 3h9l-1.5-1.5v9l1.5-1.5h-9l1.5 1.5v-9l-1.5 1.5zm-21.5-23h52v52h-52v-52z"/></defs><clipPath id="dW"><use xlink:href="#dV" overflow="visible"/></clipPath><g clip-path="url(#dW)"><defs><path id="dX" d="M-162.8-382h9v9h-9z"/></defs></g><defs><path id="dY" d="M-162.8-382h9v9h-9z"/></defs><defs><path id="dZ" d="M-133.8-383.5h-1.5v12h12v-12h-10.5zm0 3h9l-1.5-1.5v9l1.5-1.5h-9l1.5 1.5v-9l-1.5 1.5zm-21.5-23h52v52h-52v-52z"/></defs><clipPath id="ea"><use xlink:href="#dZ" overflow="visible"/></clipPath><g clip-path="url(#ea)"><defs><path id="eb" d="M-133.8-382h9v9h-9z"/></defs></g><defs><path id="ec" d="M-133.8-382h9v9h-9z"/></defs><defs><path id="ed" d="M-212.2-124.1h-1.5v84h108v-84h-106.5zm0 3h105l-1.5-1.5v81l1.5-1.5h-105l1.5 1.5v-81l-1.5 1.5zm-21.5-23h148v124h-148v-124z"/></defs><clipPath id="ee"><use xlink:href="#ed" overflow="visible"/></clipPath><g clip-path="url(#ee)"><defs><path id="ef" d="M-212.2-122.6h105v81h-105z"/></defs></g><defs><path id="eg" d="M-212.2-122.6h105v81h-105z"/></defs><defs><path id="eh" d="M-218.2-107.1h-2.2l.9-2.1 9.1-22 .4-.9h100.9l.4.9 9.1 22 .9 2.1h-119.5zm0-3h117l-1.4 2.1-9.1-22 1.4.9h-98.9l1.4-.9-9.1 22-1.3-2.1zm-22.2 23H-79v-65h-161.5v65z"/></defs><clipPath id="ei"><use xlink:href="#eh" overflow="visible"/></clipPath><g clip-path="url(#ei)"><defs><path id="ej" d="M-218.2-108.6h117l-9.1-22h-98.8z"/></defs></g><defs><path id="ek" d="M-218.2-108.6h117l-9.1-22h-98.8z"/></defs><defs><path id="el" d="M-133.2-140.1h-1.5v19h15v-19h-13.5zm0 3h12l-1.5-1.5v16l1.5-1.5h-12l1.5 1.5v-16l-1.5 1.5zm-21.5-23h55v59h-55v-59z"/></defs><clipPath id="em"><use xlink:href="#el" overflow="visible"/></clipPath><g clip-path="url(#em)"><defs><path id="en" d="M-133.2-138.6h12v16h-12z"/></defs></g><defs><path id="eo" d="M-133.2-138.6h12v16h-12z"/></defs><defs><path id="ep" d="M-199.2-74.1h-1.5v34h24v-34h-22.5zm0 3h21l-1.5-1.5v31l1.5-1.5h-21l1.5 1.5v-31l-1.5 1.5zm-21.5-23h64v74h-64v-74z"/></defs><clipPath id="eq"><use xlink:href="#ep" overflow="visible"/></clipPath><g clip-path="url(#eq)"><defs><path id="er" d="M-199.2-72.6h21v31h-21z"/></defs></g><defs><path id="es" d="M-199.2-72.6h21v31h-21z"/></defs><defs><path id="et" d="M-198.2-102.1h-1.5v22h22v-22h-20.5zm0 3h19l-1.5-1.5v19l1.5-1.5h-19l1.5 1.5v-19l-1.5 1.5zm-21.5-23h62v62h-62v-62z"/></defs><clipPath id="eu"><use xlink:href="#et" overflow="visible"/></clipPath><g clip-path="url(#eu)"><defs><path id="ev" d="M-198.2-100.6h19v19h-19z"/></defs></g><defs><path id="ew" d="M-198.2-100.6h19v19h-19z"/></defs><defs><path id="ex" d="M-193.2-97.1h-1.5v12h12v-12h-10.5zm0 3h9l-1.5-1.5v9l1.5-1.5h-9l1.5 1.5v-9l-1.5 1.5zm-21.5-23h52v52h-52v-52z"/></defs><clipPath id="ey"><use xlink:href="#ex" overflow="visible"/></clipPath><g clip-path="url(#ey)"><defs><path id="ez" d="M-193.2-95.6h9v9h-9z"/></defs></g><defs><path id="eA" d="M-193.2-95.6h9v9h-9z"/></defs><defs><path id="eB" d="M-168.2-102.1h-1.5v22h22v-22h-20.5zm0 3h19l-1.5-1.5v19l1.5-1.5h-19l1.5 1.5v-19l-1.5 1.5zm-21.5-23h62v62h-62v-62z"/></defs><clipPath id="eC"><use xlink:href="#eB" overflow="visible"/></clipPath><g clip-path="url(#eC)"><defs><path id="eD" d="M-168.2-100.6h19v19h-19z"/></defs></g><defs><path id="eE" d="M-168.2-100.6h19v19h-19z"/></defs><defs><path id="eF" d="M-139.2-102.1h-1.5v22h22v-22h-20.5zm0 3h19l-1.5-1.5v19l1.5-1.5h-19l1.5 1.5v-19l-1.5 1.5zm-21.5-23h62v62h-62v-62z"/></defs><clipPath id="eG"><use xlink:href="#eF" overflow="visible"/></clipPath><g clip-path="url(#eG)"><defs><path id="eH" d="M-139.2-100.6h19v19h-19z"/></defs></g><defs><path id="eI" d="M-139.2-100.6h19v19h-19z"/></defs><defs><path id="eJ" d="M-168.2-74.1h-1.5v22h22v-22h-20.5zm0 3h19l-1.5-1.5v19l1.5-1.5h-19l1.5 1.5v-19l-1.5 1.5zm-21.5-23h62v62h-62v-62z"/></defs><clipPath id="eK"><use xlink:href="#eJ" overflow="visible"/></clipPath><g clip-path="url(#eK)"><defs><path id="eL" d="M-168.2-72.6h19v19h-19z"/></defs></g><defs><path id="eM" d="M-168.2-72.6h19v19h-19z"/></defs><defs><path id="eN" d="M-139.2-74.1h-1.5v22h22v-22h-20.5zm0 3h19l-1.5-1.5v19l1.5-1.5h-19l1.5 1.5v-19l-1.5 1.5zm-21.5-23h62v62h-62v-62z"/></defs><clipPath id="eO"><use xlink:href="#eN" overflow="visible"/></clipPath><g clip-path="url(#eO)"><defs><path id="eP" d="M-139.2-72.6h19v19h-19z"/></defs></g><defs><path id="eQ" d="M-139.2-72.6h19v19h-19z"/></defs><defs><path id="eR" d="M-163.2-97.1h-1.5v12h12v-12h-10.5zm0 3h9l-1.5-1.5v9l1.5-1.5h-9l1.5 1.5v-9l-1.5 1.5zm-21.5-23h52v52h-52v-52z"/></defs><clipPath id="eS"><use xlink:href="#eR" overflow="visible"/></clipPath><g clip-path="url(#eS)"><defs><path id="eT" d="M-163.2-95.6h9v9h-9z"/></defs></g><g><defs><path id="eU" d="M-163.2-95.6h9v9h-9z"/></defs></g><g><defs><path id="eV" d="M-134.2-97.1h-1.5v12h12v-12h-10.5zm0 3h9l-1.5-1.5v9l1.5-1.5h-9l1.5 1.5v-9l-1.5 1.5zm-21.5-23h52v52h-52v-52z"/></defs><clipPath id="eW"><use xlink:href="#eV" overflow="visible"/></clipPath><g clip-path="url(#eW)"><defs><path id="eX" d="M-134.2-95.6h9v9h-9z"/></defs></g></g><g><defs><path id="eY" d="M-134.2-95.6h9v9h-9z"/></defs></g><g><defs><path id="eZ" d="M-163.2-69.1h-1.5v12h12v-12h-10.5zm0 3h9l-1.5-1.5v9l1.5-1.5h-9l1.5 1.5v-9l-1.5 1.5zm-21.5-23h52v52h-52v-52z"/></defs><clipPath id="fa"><use xlink:href="#eZ" overflow="visible"/></clipPath><g clip-path="url(#fa)"><defs><path id="fb" d="M-163.2-67.6h9v9h-9z"/></defs></g></g><g><defs><path id="fc" d="M-163.2-67.6h9v9h-9z"/></defs></g><g><defs><path id="fd" d="M-134.2-69.1h-1.5v12h12v-12h-10.5zm0 3h9l-1.5-1.5v9l1.5-1.5h-9l1.5 1.5v-9l-1.5 1.5zm-21.5-23h52v52h-52v-52z"/></defs><clipPath id="fe"><use xlink:href="#fd" overflow="visible"/></clipPath><g clip-path="url(#fe)"><defs><path id="ff" d="M-134.2-67.6h9v9h-9z"/></defs></g></g><g><defs><path id="fg" d="M-134.2-67.6h9v9h-9z"/></defs></g><g><defs><path id="fh" d="M439.1-38.1c-27.1 0-49-21.9-49-49s21.9-49 49-49 49 21.9 49 49-21.9 49-49 49zm0 3c28.7 0 52-23.3 52-52s-23.3-52-52-52-52 23.3-52 52 23.3 52 52 52zm-72-124h144v144h-144v-144z"/></defs><clipPath id="fi"><use xlink:href="#fh" overflow="visible"/></clipPath><g clip-path="url(#fi)"><defs><circle id="fj" cx="439.1" cy="-87.1" r="50.5"/></defs></g></g><g><defs><circle id="fk" cx="439.1" cy="-87.1" r="50.5"/></defs></g><g><defs><circle id="fl" cx="439.1" cy="-87.1" r="43.5"/></defs></g><g><defs><path id="fm" d="M-158 114.3c-27.1 0-49-21.9-49-49s21.9-49 49-49 49 21.9 49 49-21.9 49-49 49zm0 3c28.7 0 52-23.3 52-52s-23.3-52-52-52-52 23.3-52 52 23.3 52 52 52zm-72-124h144v144h-144v-144z"/></defs><clipPath id="fn"><use xlink:href="#fm" overflow="visible"/></clipPath><g clip-path="url(#fn)"><defs><circle id="fo" cx="-158" cy="65.3" r="50.5"/></defs></g></g><g><defs><circle id="fp" cx="-158" cy="65.3" r="50.5"/></defs></g><g><defs><circle id="fq" cx="-158" cy="65.3" r="43.5"/></defs></g><path fill="#FFF" stroke="#0C1F2E" stroke-width="3" stroke-linecap="round" stroke-miterlimit="10" d="M84.6 31.3H112v74.4H84.6z"/><path fill="#FFF" stroke="#0C1F2E" stroke-width="3" stroke-linecap="round" stroke-miterlimit="10" d="M106 45.3h94.9v42.8H106z"/><g fill="none" stroke="#0C1F2E" stroke-width="3" stroke-linecap="round" stroke-miterlimit="10"><path d="M114.2 54.1h20m-20 4.6h20m-20 19.3h46.3m15.3 0h15.9"/></g><path fill="none" stroke="#0C1F2E" stroke-width="3" stroke-linecap="round" stroke-miterlimit="10" d="M94.5 60.7l-3.8 7.2 4.8 5.8m-4.8-5.8H106"/><g><path fill="#231F20" d="M183.3 74.3v-1.4c-1 0-2-.3-2.5-.6l.4-1.7c.6.3 1.5.7 2.5.7.8 0 1.4-.3 1.4-.9 0-.6-.5-.9-1.6-1.3-1.6-.5-2.7-1.3-2.7-2.7 0-1.3.9-2.3 2.5-2.7v-1.4h1.5v1.3c1 0 1.7.3 2.2.5l-.4 1.7c-.4-.2-1.1-.5-2.1-.5s-1.3.4-1.3.8c0 .5.5.8 1.8 1.3 1.8.6 2.5 1.4 2.5 2.8 0 1.3-.9 2.5-2.7 2.8v1.5h-1.5z"/></g><g><defs><path id="fr" d="M-157.3 281.5c-24.6 0-44.6-20-44.6-44.6s20-44.6 44.6-44.6 44.6 20 44.6 44.6-20 44.6-44.6 44.6zm0 2.7c26.1 0 47.3-21.2 47.3-47.3s-21.2-47.3-47.3-47.3-47.3 21.2-47.3 47.3 21.2 47.3 47.3 47.3zm-65.5-112.8h131v131h-131v-131z"/></defs><clipPath id="fs"><use xlink:href="#fr" overflow="visible"/></clipPath><g clip-path="url(#fs)"><defs><circle id="ft" cx="-157.3" cy="236.9" r="45.9"/></defs></g></g><g><defs><circle id="fu" cx="-157.3" cy="236.9" r="45.9"/></defs></g><g><defs><circle id="fv" cx="-157.3" cy="236.9" r="39.6"/></defs></g><g><defs><path id="fw" d="M381.5 348.2H380v84h108v-84H381.5zm0 3h105l-1.5-1.5v81l1.5-1.5h-105l1.5 1.5v-81l-1.5 1.5zm-21.5-23h148v124H360v-124z"/></defs><clipPath id="fx"><use xlink:href="#fw" overflow="visible"/></clipPath><g clip-path="url(#fx)"><defs><path id="fy" d="M381.5 349.7h105v81h-105z"/></defs></g></g><g><defs><path id="fz" d="M381.5 349.7h105v81h-105z"/></defs></g><g><defs><path id="fA" d="M375.5 365.2h-2.2l.9-2.1 9.1-22 .4-.9h100.9l.4.9 9.1 22 .9 2.1H375.5zm0-3h117l-1.4 2.1-9.1-22 1.4.9h-98.9l1.4-.9-9.1 22-1.3-2.1zm-22.2 23h161.5v-65H353.3v65z"/></defs><clipPath id="fB"><use xlink:href="#fA" overflow="visible"/></clipPath><g clip-path="url(#fB)"><defs><path id="fC" d="M375.5 363.7h117l-9.1-22h-98.8z"/></defs></g></g><g><defs><path id="fD" d="M375.5 363.7h117l-9.1-22h-98.8z"/></defs></g><g><defs><path id="fE" d="M460.5 332.2H459v19h15v-19h-13.5zm0 3h12l-1.5-1.5v16l1.5-1.5h-12l1.5 1.5v-16l-1.5 1.5zm-21.5-23h55v59h-55v-59z"/></defs><clipPath id="fF"><use xlink:href="#fE" overflow="visible"/></clipPath><g clip-path="url(#fF)"><defs><path id="fG" d="M460.5 333.7h12v16h-12z"/></defs></g></g><g><defs><path id="fH" d="M460.5 333.7h12v16h-12z"/></defs></g><g><defs><path id="fI" d="M394.5 398.2H393v34h24v-34h-22.5zm0 3h21l-1.5-1.5v31l1.5-1.5h-21l1.5 1.5v-31l-1.5 1.5zm-21.5-23h64v74h-64v-74z"/></defs><clipPath id="fJ"><use xlink:href="#fI" overflow="visible"/></clipPath><g clip-path="url(#fJ)"><defs><path id="fK" d="M394.5 399.7h21v31h-21z"/></defs></g></g><g><defs><path id="fL" d="M394.5 399.7h21v31h-21z"/></defs></g><g><defs><path id="fM" d="M395.5 370.2H394v22h22v-22h-20.5zm0 3h19l-1.5-1.5v19l1.5-1.5h-19l1.5 1.5v-19l-1.5 1.5zm-21.5-23h62v62h-62v-62z"/></defs><clipPath id="fN"><use xlink:href="#fM" overflow="visible"/></clipPath><g clip-path="url(#fN)"><defs><path id="fO" d="M395.5 371.7h19v19h-19z"/></defs></g></g><g><defs><path id="fP" d="M395.5 371.7h19v19h-19z"/></defs></g><g><defs><path id="fQ" d="M400.5 375.2H399v12h12v-12h-10.5zm0 3h9l-1.5-1.5v9l1.5-1.5h-9l1.5 1.5v-9l-1.5 1.5zm-21.5-23h52v52h-52v-52z"/></defs><clipPath id="fR"><use xlink:href="#fQ" overflow="visible"/></clipPath><g clip-path="url(#fR)"><defs><path id="fS" d="M400.5 376.7h9v9h-9z"/></defs></g></g><g><defs><path id="fT" d="M400.5 376.7h9v9h-9z"/></defs></g><g><defs><path id="fU" d="M425.5 370.2H424v22h22v-22h-20.5zm0 3h19l-1.5-1.5v19l1.5-1.5h-19l1.5 1.5v-19l-1.5 1.5zm-21.5-23h62v62h-62v-62z"/></defs><clipPath id="fV"><use xlink:href="#fU" overflow="visible"/></clipPath><g clip-path="url(#fV)"><defs><path id="fW" d="M425.5 371.7h19v19h-19z"/></defs></g></g><g><defs><path id="fX" d="M425.5 371.7h19v19h-19z"/></defs></g><g><defs><path id="fY" d="M454.5 370.2H453v22h22v-22h-20.5zm0 3h19l-1.5-1.5v19l1.5-1.5h-19l1.5 1.5v-19l-1.5 1.5zm-21.5-23h62v62h-62v-62z"/></defs><clipPath id="fZ"><use xlink:href="#fY" overflow="visible"/></clipPath><g clip-path="url(#fZ)"><defs><path id="ga" d="M454.5 371.7h19v19h-19z"/></defs></g></g><g><defs><path id="gb" d="M454.5 371.7h19v19h-19z"/></defs></g><g><defs><path id="gc" d="M425.5 398.2H424v22h22v-22h-20.5zm0 3h19l-1.5-1.5v19l1.5-1.5h-19l1.5 1.5v-19l-1.5 1.5zm-21.5-23h62v62h-62v-62z"/></defs><clipPath id="gd"><use xlink:href="#gc" overflow="visible"/></clipPath><g clip-path="url(#gd)"><defs><path id="ge" d="M425.5 399.7h19v19h-19z"/></defs></g></g><g><defs><path id="gf" d="M425.5 399.7h19v19h-19z"/></defs></g><g><defs><path id="gg" d="M454.5 398.2H453v22h22v-22h-20.5zm0 3h19l-1.5-1.5v19l1.5-1.5h-19l1.5 1.5v-19l-1.5 1.5zm-21.5-23h62v62h-62v-62z"/></defs><clipPath id="gh"><use xlink:href="#gg" overflow="visible"/></clipPath><g clip-path="url(#gh)"><defs><path id="gi" d="M454.5 399.7h19v19h-19z"/></defs></g></g><g><defs><path id="gj" d="M454.5 399.7h19v19h-19z"/></defs></g><g><defs><path id="gk" d="M430.5 375.2H429v12h12v-12h-10.5zm0 3h9l-1.5-1.5v9l1.5-1.5h-9l1.5 1.5v-9l-1.5 1.5zm-21.5-23h52v52h-52v-52z"/></defs><clipPath id="gl"><use xlink:href="#gk" overflow="visible"/></clipPath><g clip-path="url(#gl)"><defs><path id="gm" d="M430.5 376.7h9v9h-9z"/></defs></g></g><g><defs><path id="gn" d="M430.5 376.7h9v9h-9z"/></defs></g><g><defs><path id="go" d="M459.5 375.2H458v12h12v-12h-10.5zm0 3h9l-1.5-1.5v9l1.5-1.5h-9l1.5 1.5v-9l-1.5 1.5zm-21.5-23h52v52h-52v-52z"/></defs><clipPath id="gp"><use xlink:href="#go" overflow="visible"/></clipPath><g clip-path="url(#gp)"><defs><path id="gq" d="M459.5 376.7h9v9h-9z"/></defs></g></g><g><defs><path id="gr" d="M459.5 376.7h9v9h-9z"/></defs></g><g><defs><path id="gs" d="M430.5 403.2H429v12h12v-12h-10.5zm0 3h9l-1.5-1.5v9l1.5-1.5h-9l1.5 1.5v-9l-1.5 1.5zm-21.5-23h52v52h-52v-52z"/></defs><clipPath id="gt"><use xlink:href="#gs" overflow="visible"/></clipPath><g clip-path="url(#gt)"><defs><path id="gu" d="M430.5 404.7h9v9h-9z"/></defs></g></g><g><defs><path id="gv" d="M430.5 404.7h9v9h-9z"/></defs></g><g><defs><path id="gw" d="M459.5 403.2H458v12h12v-12h-10.5zm0 3h9l-1.5-1.5v9l1.5-1.5h-9l1.5 1.5v-9l-1.5 1.5zm-21.5-23h52v52h-52v-52z"/></defs><clipPath id="gx"><use xlink:href="#gw" overflow="visible"/></clipPath><g clip-path="url(#gx)"><defs><path id="gy" d="M459.5 404.7h9v9h-9z"/></defs></g></g><g><defs><path id="gz" d="M459.5 404.7h9v9h-9z"/></defs></g></svg>