<svg id="Layer_1" data-name="Layer 1" xmlns="http://www.w3.org/2000/svg" viewBox="0 0 276 137"><defs><style>.cls-1,.cls-3,.cls-4,.cls-6,.cls-8{fill:#fff}.cls-1,.cls-10,.cls-9{stroke:#0e1f2d}.cls-1,.cls-10,.cls-3,.cls-4,.cls-9{stroke-miterlimit:10;stroke-width:3px}.cls-1{clip-rule:evenodd}.cls-10,.cls-2,.cls-9{fill:none}.cls-3{stroke:#091f2f}.cls-4{stroke:#0c1f2e;stroke-linecap:round}.cls-5{fill:#091f2f}.cls-10,.cls-6{fill-rule:evenodd}.cls-7{clip-path:url(#clip-path)}</style><clipPath id="clip-path"><path class="cls-1" d="M67.23 545.73H176.7l9.82 9.65v18.51H67.23v-28.16z"/></clipPath><clipPath id="clip-path-2"><circle class="cls-2" cx="-441.7" cy="702.62" r="50.5"/></clipPath><clipPath id="clip-path-3"><circle class="cls-2" cx="-441.7" cy="702.62" r="43.5"/></clipPath></defs><path class="cls-3" d="M144.63 64.93V32.76H111.6v-5.52h-11.03v5.52h-9.03v79.99h76.19V64.93h-23.1z"/><path class="cls-3" d="M100.57 92.75h11.03v11.03h-11.03zm24.48 0h11.03v11.03h-11.03zm24.48 0h11.03v11.03h-11.03zm-48.96-16.67h11.03v11.03h-11.03zm24.48 0h11.03v11.03h-11.03zm24.48 0h11.03v11.03h-11.03zm-48.96-16.66h11.03v11.03h-11.03zm24.48 0h11.03v11.03h-11.03zm-24.48-16.67h11.03v11.03h-11.03zm24.48 0h11.03v11.03h-11.03z"/><circle class="cls-4" cx="167.73" cy="93.36" r="20.36"/><path class="cls-5" d="M178.25 95.36a4.4 4.4 0 0 0-.85 2.72 3.68 3.68 0 0 0 2.47-1.08 4.4 4.4 0 0 0 .85-2.72 3.68 3.68 0 0 0-2.47 1.08z"/><path class="cls-5" d="M176.26 95.57a4.08 4.08 0 0 0 1.16 2.53 4.33 4.33 0 0 0 1.08-2.62 4.08 4.08 0 0 0-1.16-2.53 4.33 4.33 0 0 0-1.08 2.62zm-.82 4.59a4.6 4.6 0 0 0-2.19 2.13 3.82 3.82 0 0 0 2.85.37 4.6 4.6 0 0 0 2.19-2.13 3.82 3.82 0 0 0-2.85-.37z"/><path class="cls-5" d="M173.47 99.24a4.73 4.73 0 0 0-.21 3.09 4.44 4.44 0 0 0 2.36-1.91 4.73 4.73 0 0 0 .21-3.09 4.44 4.44 0 0 0-2.36 1.91zm-2.34 4.13a4.37 4.37 0 0 0-3 1.08 4.28 4.28 0 0 0 2.59 1.75 4.37 4.37 0 0 0 3-1.08 4.28 4.28 0 0 0-2.59-1.75z"/><path class="cls-5" d="M169.6 101.49a5.12 5.12 0 0 0-1.44 3 4.23 4.23 0 0 0 3-.77 5.12 5.12 0 0 0 1.44-3 4.23 4.23 0 0 0-3 .77zm8.9-11.39a4.16 4.16 0 0 0 .4 2.7 4 4 0 0 0 1.68-2.1 4.16 4.16 0 0 0-.4-2.7 4 4 0 0 0-1.68 2.1z"/><path class="cls-5" d="M176.88 91.26a3.53 3.53 0 0 0 2.06 1.56 4.24 4.24 0 0 0-.16-2.74 3.53 3.53 0 0 0-2.06-1.56 4.24 4.24 0 0 0 .16 2.74zm.32-5.13a3 3 0 0 0 1.51 1.5 3.47 3.47 0 0 0 .14-2.24 3 3 0 0 0-1.51-1.5 3.47 3.47 0 0 0-.14 2.24z"/><path class="cls-5" d="M176.71 87.71a2.78 2.78 0 0 0 2.07-.12 3.07 3.07 0 0 0-1.36-1.65 2.78 2.78 0 0 0-2.07.12 3.07 3.07 0 0 0 1.36 1.65zM174 83.25a3 3 0 0 0 1.87 1 3.5 3.5 0 0 0-.51-2.19 3 3 0 0 0-1.87-1 3.5 3.5 0 0 0 .51 2.19z"/><path class="cls-5" d="M174 84.91a2.74 2.74 0 0 0 1.95-.68 3.13 3.13 0 0 0-1.78-1.23 2.74 2.74 0 0 0-1.95.68 3.13 3.13 0 0 0 1.78 1.23zM171.25 82a2 2 0 0 0 1.51 0 2.39 2.39 0 0 0-1-1.25 2 2 0 0 0-1.51 0 2.39 2.39 0 0 0 1 1.25zm-14.48 13.77a4.4 4.4 0 0 1 .85 2.72 3.68 3.68 0 0 1-2.46-1.06 4.4 4.4 0 0 1-.85-2.72 3.68 3.68 0 0 1 2.46 1.06z"/><path class="cls-5" d="M158.76 96a4.08 4.08 0 0 1-1.16 2.53 4.33 4.33 0 0 1-1.08-2.62 4.08 4.08 0 0 1 1.16-2.53 4.33 4.33 0 0 1 1.08 2.62zm.82 4.26a4.6 4.6 0 0 1 2.19 2.13 3.82 3.82 0 0 1-2.85.37 4.6 4.6 0 0 1-2.19-2.13 3.82 3.82 0 0 1 2.85-.37z"/><path class="cls-5" d="M161.55 99.34a4.73 4.73 0 0 1 .21 3.09 4.44 4.44 0 0 1-2.36-1.91 4.73 4.73 0 0 1-.21-3.09 4.44 4.44 0 0 1 2.36 1.91zm2.34 4.13a4.37 4.37 0 0 1 3 1.08 4.28 4.28 0 0 1-2.59 1.75 4.37 4.37 0 0 1-3-1.08 4.28 4.28 0 0 1 2.59-1.75z"/><path class="cls-5" d="M165.41 101.59a5.12 5.12 0 0 1 1.44 3 4.23 4.23 0 0 1-3-.77 5.12 5.12 0 0 1-1.44-3 4.23 4.23 0 0 1 3 .77zm-8.9-11.08a4.16 4.16 0 0 1-.4 2.7 4 4 0 0 1-1.68-2.1 4.16 4.16 0 0 1 .4-2.7 4 4 0 0 1 1.68 2.1z"/><path class="cls-5" d="M158.14 91.67a3.53 3.53 0 0 1-2.06 1.56 4.24 4.24 0 0 1 .16-2.74 3.53 3.53 0 0 1 2.06-1.56 4.24 4.24 0 0 1-.16 2.74zm-.33-5.13a3 3 0 0 1-1.51 1.5 3.47 3.47 0 0 1-.14-2.24 3 3 0 0 1 1.51-1.5 3.47 3.47 0 0 1 .14 2.24z"/><path class="cls-5" d="M158.3 88.12a2.78 2.78 0 0 1-2.07-.12 3.07 3.07 0 0 1 1.36-1.65 2.78 2.78 0 0 1 2.07.12 3.07 3.07 0 0 1-1.36 1.65zm2.7-4.46a3 3 0 0 1-1.87 1 3.5 3.5 0 0 1 .51-2.19 3 3 0 0 1 1.87-1 3.5 3.5 0 0 1-.51 2.19z"/><path class="cls-5" d="M161 85.32a2.74 2.74 0 0 1-1.95-.68 3.13 3.13 0 0 1 1.78-1.21 2.74 2.74 0 0 1 1.95.68 3.13 3.13 0 0 1-1.78 1.21zm2.77-2.89a2 2 0 0 1-1.51 0 2.39 2.39 0 0 1 1-1.25 2 2 0 0 1 1.51 0 2.39 2.39 0 0 1-1 1.25zm-.46 4h4.42a10.86 10.86 0 0 1 3 .28 2.81 2.81 0 0 1 1.76 3.75 2.8 2.8 0 0 1-2.26 1.54 3.58 3.58 0 0 1 2.25 1 2.54 2.54 0 0 1 .63 1.71 3 3 0 0 1-1.89 2.77 7.56 7.56 0 0 1-3.09.42h-4.82zm2.69 2.14v2.38h2.15c.65 0 1.7 0 1.7-1.23s-1-1.15-1.5-1.15zm0 4.43v2.77h2c1 0 2.2 0 2.2-1.36S169.08 93 168.5 93z"/><path class="cls-6" d="M67.23 545.73H176.7l9.82 9.65v18.51H67.23v-28.16z"/><g class="cls-7"><path class="cls-8" d="M-252.03 115.22h962.06v828.83h-962.06z"/><path class="cls-9" d="M-252.03 115.22h962.06v828.83h-962.06z"/></g><path class="cls-10" d="M67.23 545.73H176.7l9.82 9.65v18.51H67.23v-28.16z"/></svg>