<svg xmlns="http://www.w3.org/2000/svg" xmlns:xlink="http://www.w3.org/1999/xlink" viewBox="0 0 276 137"><defs><circle id="a" cx="142.1" cy="70.5" r="50.5"/></defs><clipPath id="b"><use xlink:href="#a" overflow="visible"/></clipPath><g clip-path="url(#b)"><defs><path id="c" d="M-32.4-665.5h1121v1030h-1121z"/></defs><clipPath id="d"><use xlink:href="#c" overflow="visible"/></clipPath><circle clip-path="url(#d)" fill="none" stroke="#0F1F2D" stroke-width="6" stroke-linecap="round" stroke-miterlimit="10" cx="142.1" cy="70.5" r="50.5"/></g><defs><circle id="e" cx="142.1" cy="70.5" r="43.5"/></defs><clipPath id="f"><use xlink:href="#e" overflow="visible"/></clipPath><g clip-path="url(#f)"><defs><path id="g" d="M-32.4-665.5h1121v1030h-1121z"/></defs><clipPath id="h"><use xlink:href="#g" overflow="visible"/></clipPath><circle clip-path="url(#h)" fill="none" stroke="#0F1F2D" stroke-width="6" stroke-linecap="round" stroke-miterlimit="10" cx="142.1" cy="70.5" r="43.5"/></g><defs><path id="i" d="M-453.3-189.5c-24.6 0-44.6-20-44.6-44.6s20-44.6 44.6-44.6 44.6 20 44.6 44.6-20 44.6-44.6 44.6zm0 2.7c26.1 0 47.3-21.2 47.3-47.3s-21.2-47.3-47.3-47.3-47.3 21.2-47.3 47.3 21.2 47.3 47.3 47.3zm-65.5-112.8h131v131h-131v-131z"/></defs><clipPath id="j"><use xlink:href="#i" overflow="visible"/></clipPath><g clip-path="url(#j)"><defs><circle id="k" cx="-453.3" cy="-234.1" r="45.9"/></defs></g><defs><circle id="l" cx="-453.3" cy="-234.1" r="45.9"/></defs><defs><circle id="m" cx="-453.3" cy="-234.1" r="39.6"/></defs><defs><path id="n" d="M85.5-122.8H84v84h108v-84H85.5zm0 3h105l-1.5-1.5v81l1.5-1.5h-105l1.5 1.5v-81l-1.5 1.5zm-21.5-23h148v124H64v-124z"/></defs><clipPath id="o"><use xlink:href="#n" overflow="visible"/></clipPath><g clip-path="url(#o)"><defs><path id="p" d="M85.5-121.3h105v81h-105z"/></defs></g><defs><path id="q" d="M85.5-121.3h105v81h-105z"/></defs><defs><path id="r" d="M79.5-105.8h-2.2l.9-2.1 9.1-22 .4-.9h100.9l.4.9 9.1 22 .9 2.1H79.5zm0-3h117l-1.4 2.1-9.1-22 1.4.9H88.6l1.4-.9-9.1 22-1.4-2.1zm-22.2 23h161.5v-65H57.3v65z"/></defs><clipPath id="s"><use xlink:href="#r" overflow="visible"/></clipPath><g clip-path="url(#s)"><defs><path id="t" d="M79.5-107.3h117l-9.1-22H88.6z"/></defs></g><defs><path id="u" d="M79.5-107.3h117l-9.1-22H88.6z"/></defs><defs><path id="v" d="M164.5-138.8H163v19h15v-19h-13.5zm0 3h12l-1.5-1.5v16l1.5-1.5h-12l1.5 1.5v-16l-1.5 1.5zm-21.5-23h55v59h-55v-59z"/></defs><clipPath id="w"><use xlink:href="#v" overflow="visible"/></clipPath><g clip-path="url(#w)"><defs><path id="x" d="M164.5-137.3h12v16h-12z"/></defs></g><defs><path id="y" d="M164.5-137.3h12v16h-12z"/></defs><defs><path id="z" d="M98.5-72.8H97v34h24v-34H98.5zm0 3h21l-1.5-1.5v31l1.5-1.5h-21l1.5 1.5v-31l-1.5 1.5zM77-92.8h64v74H77v-74z"/></defs><clipPath id="A"><use xlink:href="#z" overflow="visible"/></clipPath><g clip-path="url(#A)"><defs><path id="B" d="M98.5-71.3h21v31h-21z"/></defs></g><defs><path id="C" d="M98.5-71.3h21v31h-21z"/></defs><defs><path id="D" d="M99.5-100.8H98v22h22v-22H99.5zm0 3h19l-1.5-1.5v19l1.5-1.5h-19l1.5 1.5v-19l-1.5 1.5zm-21.5-23h62v62H78v-62z"/></defs><clipPath id="E"><use xlink:href="#D" overflow="visible"/></clipPath><g clip-path="url(#E)"><defs><path id="F" d="M99.5-99.3h19v19h-19z"/></defs></g><defs><path id="G" d="M99.5-99.3h19v19h-19z"/></defs><defs><path id="H" d="M104.5-95.8H103v12h12v-12h-10.5zm0 3h9l-1.5-1.5v9l1.5-1.5h-9l1.5 1.5v-9l-1.5 1.5zm-21.5-23h52v52H83v-52z"/></defs><clipPath id="I"><use xlink:href="#H" overflow="visible"/></clipPath><g clip-path="url(#I)"><defs><path id="J" d="M104.5-94.3h9v9h-9z"/></defs></g><defs><path id="K" d="M104.5-94.3h9v9h-9z"/></defs><defs><path id="L" d="M129.5-100.8H128v22h22v-22h-20.5zm0 3h19l-1.5-1.5v19l1.5-1.5h-19l1.5 1.5v-19l-1.5 1.5zm-21.5-23h62v62h-62v-62z"/></defs><clipPath id="M"><use xlink:href="#L" overflow="visible"/></clipPath><g clip-path="url(#M)"><defs><path id="N" d="M129.5-99.3h19v19h-19z"/></defs></g><defs><path id="O" d="M129.5-99.3h19v19h-19z"/></defs><defs><path id="P" d="M158.5-100.8H157v22h22v-22h-20.5zm0 3h19l-1.5-1.5v19l1.5-1.5h-19l1.5 1.5v-19l-1.5 1.5zm-21.5-23h62v62h-62v-62z"/></defs><clipPath id="Q"><use xlink:href="#P" overflow="visible"/></clipPath><g clip-path="url(#Q)"><defs><path id="R" d="M158.5-99.3h19v19h-19z"/></defs></g><defs><path id="S" d="M158.5-99.3h19v19h-19z"/></defs><defs><path id="T" d="M129.5-72.8H128v22h22v-22h-20.5zm0 3h19l-1.5-1.5v19l1.5-1.5h-19l1.5 1.5v-19l-1.5 1.5zm-21.5-23h62v62h-62v-62z"/></defs><clipPath id="U"><use xlink:href="#T" overflow="visible"/></clipPath><g clip-path="url(#U)"><defs><path id="V" d="M129.5-71.3h19v19h-19z"/></defs></g><defs><path id="W" d="M129.5-71.3h19v19h-19z"/></defs><defs><path id="X" d="M158.5-72.8H157v22h22v-22h-20.5zm0 3h19l-1.5-1.5v19l1.5-1.5h-19l1.5 1.5v-19l-1.5 1.5zm-21.5-23h62v62h-62v-62z"/></defs><clipPath id="Y"><use xlink:href="#X" overflow="visible"/></clipPath><g clip-path="url(#Y)"><defs><path id="Z" d="M158.5-71.3h19v19h-19z"/></defs></g><defs><path id="aa" d="M158.5-71.3h19v19h-19z"/></defs><defs><path id="ab" d="M134.5-95.8H133v12h12v-12h-10.5zm0 3h9l-1.5-1.5v9l1.5-1.5h-9l1.5 1.5v-9l-1.5 1.5zm-21.5-23h52v52h-52v-52z"/></defs><clipPath id="ac"><use xlink:href="#ab" overflow="visible"/></clipPath><g clip-path="url(#ac)"><defs><path id="ad" d="M134.5-94.3h9v9h-9z"/></defs></g><defs><path id="ae" d="M134.5-94.3h9v9h-9z"/></defs><defs><path id="af" d="M163.5-95.8H162v12h12v-12h-10.5zm0 3h9l-1.5-1.5v9l1.5-1.5h-9l1.5 1.5v-9l-1.5 1.5zm-21.5-23h52v52h-52v-52z"/></defs><clipPath id="ag"><use xlink:href="#af" overflow="visible"/></clipPath><g clip-path="url(#ag)"><defs><path id="ah" d="M163.5-94.3h9v9h-9z"/></defs></g><g><defs><path id="ai" d="M163.5-94.3h9v9h-9z"/></defs></g><g><defs><path id="aj" d="M134.5-67.8H133v12h12v-12h-10.5zm0 3h9l-1.5-1.5v9l1.5-1.5h-9l1.5 1.5v-9l-1.5 1.5zm-21.5-23h52v52h-52v-52z"/></defs><clipPath id="ak"><use xlink:href="#aj" overflow="visible"/></clipPath><g clip-path="url(#ak)"><defs><path id="al" d="M134.5-66.3h9v9h-9z"/></defs></g></g><g><defs><path id="am" d="M134.5-66.3h9v9h-9z"/></defs></g><g><defs><path id="an" d="M163.5-67.8H162v12h12v-12h-10.5zm0 3h9l-1.5-1.5v9l1.5-1.5h-9l1.5 1.5v-9l-1.5 1.5zm-21.5-23h52v52h-52v-52z"/></defs><clipPath id="ao"><use xlink:href="#an" overflow="visible"/></clipPath><g clip-path="url(#ao)"><defs><path id="ap" d="M163.5-66.3h9v9h-9z"/></defs></g></g><g><defs><path id="aq" d="M163.5-66.3h9v9h-9z"/></defs></g><path fill="#091F2F" d="M149.605 60.552l4.313 4.313-30.83 30.83-4.312-4.313z"/><path fill="#091F2F" d="M141.152 54.421l10.182-10.182 17.042 17.041-10.183 10.182zm-3.074-3.22L148.26 41.02l2.404 2.404-10.182 10.182zm20.79 21.011l10.183-10.182 2.404 2.404-10.183 10.182z"/></svg>