<svg xmlns="http://www.w3.org/2000/svg" xmlns:xlink="http://www.w3.org/1999/xlink" viewBox="0 0 276 137"><path fill="#FFF" d="M73.3 18.1h129.2V106H73.3z"/><path fill="#091F2F" d="M204 107.5H71.8V16.6H204v90.9zm-129.2-3H201V19.6H74.8v84.9z"/><path fill="#FFF" d="M80.5 24.6h115v73.7h-115z"/><path fill="#091F2F" d="M196.9 99.7H79V23.1h118v76.6zM82 96.7h112V26.1H82v70.6z"/><defs><path id="a" d="M379.4 193.6h-1.5v84h108v-84H379.4zm0 3h105l-1.5-1.5v81l1.5-1.5h-105l1.5 1.5v-81l-1.5 1.5zm-21.5-23h148v124h-148v-124z"/></defs><clipPath id="b"><use xlink:href="#a" overflow="visible"/></clipPath><g clip-path="url(#b)"><defs><path id="c" d="M379.4 195.1h105v81h-105z"/></defs></g><defs><path id="d" d="M379.4 195.1h105v81h-105z"/></defs><defs><path id="e" d="M373.4 210.6h-2.2l.9-2.1 9.1-22 .4-.9h100.9l.4.9 9.1 22 .9 2.1H373.4zm0-3h117l-1.4 2.1-9.1-22 1.4.9h-98.9l1.4-.9-9.1 22-1.3-2.1zm-22.3 23h161.5v-65H351.1v65z"/></defs><clipPath id="f"><use xlink:href="#e" overflow="visible"/></clipPath><g clip-path="url(#f)"><defs><path id="g" d="M373.4 209.1h117l-9.1-22h-98.8z"/></defs></g><defs><path id="h" d="M373.4 209.1h117l-9.1-22h-98.8z"/></defs><defs><path id="i" d="M458.4 177.6h-1.5v19h15v-19h-13.5zm0 3h12l-1.5-1.5v16l1.5-1.5h-12l1.5 1.5v-16l-1.5 1.5zm-21.5-23h55v59h-55v-59z"/></defs><clipPath id="j"><use xlink:href="#i" overflow="visible"/></clipPath><g clip-path="url(#j)"><defs><path id="k" d="M458.4 179.1h12v16h-12z"/></defs></g><defs><path id="l" d="M458.4 179.1h12v16h-12z"/></defs><defs><path id="m" d="M392.4 243.6h-1.5v34h24v-34h-22.5zm0 3h21l-1.5-1.5v31l1.5-1.5h-21l1.5 1.5v-31l-1.5 1.5zm-21.5-23h64v74h-64v-74z"/></defs><clipPath id="n"><use xlink:href="#m" overflow="visible"/></clipPath><g clip-path="url(#n)"><defs><path id="o" d="M392.4 245.1h21v31h-21z"/></defs></g><defs><path id="p" d="M392.4 245.1h21v31h-21z"/></defs><defs><path id="q" d="M393.4 215.6h-1.5v22h22v-22h-20.5zm0 3h19l-1.5-1.5v19l1.5-1.5h-19l1.5 1.5v-19l-1.5 1.5zm-21.5-23h62v62h-62v-62z"/></defs><clipPath id="r"><use xlink:href="#q" overflow="visible"/></clipPath><g clip-path="url(#r)"><defs><path id="s" d="M393.4 217.1h19v19h-19z"/></defs></g><defs><path id="t" d="M393.4 217.1h19v19h-19z"/></defs><defs><path id="u" d="M398.4 220.6h-1.5v12h12v-12h-10.5zm0 3h9l-1.5-1.5v9l1.5-1.5h-9l1.5 1.5v-9l-1.5 1.5zm-21.5-23h52v52h-52v-52z"/></defs><clipPath id="v"><use xlink:href="#u" overflow="visible"/></clipPath><g clip-path="url(#v)"><defs><path id="w" d="M398.4 222.1h9v9h-9z"/></defs></g><defs><path id="x" d="M398.4 222.1h9v9h-9z"/></defs><defs><path id="y" d="M423.4 215.6h-1.5v22h22v-22h-20.5zm0 3h19l-1.5-1.5v19l1.5-1.5h-19l1.5 1.5v-19l-1.5 1.5zm-21.5-23h62v62h-62v-62z"/></defs><clipPath id="z"><use xlink:href="#y" overflow="visible"/></clipPath><g clip-path="url(#z)"><defs><path id="A" d="M423.4 217.1h19v19h-19z"/></defs></g><defs><path id="B" d="M423.4 217.1h19v19h-19z"/></defs><defs><path id="C" d="M452.4 215.6h-1.5v22h22v-22h-20.5zm0 3h19l-1.5-1.5v19l1.5-1.5h-19l1.5 1.5v-19l-1.5 1.5zm-21.5-23h62v62h-62v-62z"/></defs><clipPath id="D"><use xlink:href="#C" overflow="visible"/></clipPath><g clip-path="url(#D)"><defs><path id="E" d="M452.4 217.1h19v19h-19z"/></defs></g><defs><path id="F" d="M452.4 217.1h19v19h-19z"/></defs><defs><path id="G" d="M423.4 243.6h-1.5v22h22v-22h-20.5zm0 3h19l-1.5-1.5v19l1.5-1.5h-19l1.5 1.5v-19l-1.5 1.5zm-21.5-23h62v62h-62v-62z"/></defs><clipPath id="H"><use xlink:href="#G" overflow="visible"/></clipPath><g clip-path="url(#H)"><defs><path id="I" d="M423.4 245.1h19v19h-19z"/></defs></g><defs><path id="J" d="M423.4 245.1h19v19h-19z"/></defs><defs><path id="K" d="M452.4 243.6h-1.5v22h22v-22h-20.5zm0 3h19l-1.5-1.5v19l1.5-1.5h-19l1.5 1.5v-19l-1.5 1.5zm-21.5-23h62v62h-62v-62z"/></defs><clipPath id="L"><use xlink:href="#K" overflow="visible"/></clipPath><g clip-path="url(#L)"><defs><path id="M" d="M452.4 245.1h19v19h-19z"/></defs></g><defs><path id="N" d="M452.4 245.1h19v19h-19z"/></defs><defs><path id="O" d="M428.4 220.6h-1.5v12h12v-12h-10.5zm0 3h9l-1.5-1.5v9l1.5-1.5h-9l1.5 1.5v-9l-1.5 1.5zm-21.5-23h52v52h-52v-52z"/></defs><clipPath id="P"><use xlink:href="#O" overflow="visible"/></clipPath><g clip-path="url(#P)"><defs><path id="Q" d="M428.4 222.1h9v9h-9z"/></defs></g><defs><path id="R" d="M428.4 222.1h9v9h-9z"/></defs><defs><path id="S" d="M457.4 220.6h-1.5v12h12v-12h-10.5zm0 3h9l-1.5-1.5v9l1.5-1.5h-9l1.5 1.5v-9l-1.5 1.5zm-21.5-23h52v52h-52v-52z"/></defs><clipPath id="T"><use xlink:href="#S" overflow="visible"/></clipPath><g clip-path="url(#T)"><defs><path id="U" d="M457.4 222.1h9v9h-9z"/></defs></g><defs><path id="V" d="M457.4 222.1h9v9h-9z"/></defs><defs><path id="W" d="M428.4 248.6h-1.5v12h12v-12h-10.5zm0 3h9l-1.5-1.5v9l1.5-1.5h-9l1.5 1.5v-9l-1.5 1.5zm-21.5-23h52v52h-52v-52z"/></defs><clipPath id="X"><use xlink:href="#W" overflow="visible"/></clipPath><g clip-path="url(#X)"><defs><path id="Y" d="M428.4 250.1h9v9h-9z"/></defs></g><defs><path id="Z" d="M428.4 250.1h9v9h-9z"/></defs><defs><path id="aa" d="M457.4 248.6h-1.5v12h12v-12h-10.5zm0 3h9l-1.5-1.5v9l1.5-1.5h-9l1.5 1.5v-9l-1.5 1.5zm-21.5-23h52v52h-52v-52z"/></defs><clipPath id="ab"><use xlink:href="#aa" overflow="visible"/></clipPath><g clip-path="url(#ab)"><defs><path id="ac" d="M457.4 250.1h9v9h-9z"/></defs></g><defs><path id="ad" d="M457.4 250.1h9v9h-9z"/></defs><path fill="#091F2F" d="M96 113h83v3H96z"/><path fill="#FFF" d="M154.9 61.2l-15.9 7-16 7v-28l16 7z"/><path fill="#091F2F" d="M122 77.5V44.9l36.6 16.3L122 77.5zm3-28v23.4l26.2-11.7L125 49.5z"/><defs><circle id="ae" cx="100.3" cy="218.5" r="15.7"/></defs><defs><path id="af" d="M100.3 235.8c-9.5 0-17.2-7.7-17.2-17.2s7.7-17.2 17.2-17.2 17.2 7.7 17.2 17.2c.1 9.4-7.7 17.2-17.2 17.2zm0-31.5c-7.9 0-14.2 6.4-14.2 14.2 0 7.9 6.4 14.2 14.2 14.2s14.2-6.4 14.2-14.2c.1-7.8-6.3-14.2-14.2-14.2z"/></defs><use xlink:href="#ae" overflow="visible" fill-rule="evenodd" clip-rule="evenodd" fill="#FFF"/><use xlink:href="#af" overflow="visible" fill="#0F1F2D"/><clipPath id="ag"><use xlink:href="#ae" overflow="visible"/></clipPath><clipPath id="ah" clip-path="url(#ag)"><use xlink:href="#af" overflow="visible"/></clipPath><g clip-path="url(#ah)"><defs><path id="ai" d="M37.2-47.7h405.6V325H37.2z"/></defs><defs><path id="aj" d="M444.3 326.4H35.7V-49.2h408.6v375.6zm-405.6-3h402.6V-46.2H38.7v369.6z"/></defs><use xlink:href="#ai" overflow="visible" fill="#FFF"/><use xlink:href="#aj" overflow="visible" fill="#0F1F2D"/></g><defs><path id="ak" d="M979.4-123.4h-1.5v84h108v-84H979.4zm0 3h105l-1.5-1.5v81l1.5-1.5h-105l1.5 1.5v-81l-1.5 1.5zm-21.5-23h148v124h-148v-124z"/></defs><clipPath id="al"><use xlink:href="#ak" overflow="visible"/></clipPath><g clip-path="url(#al)"><defs><path id="am" d="M979.4-121.9h105v81h-105z"/></defs></g><defs><path id="an" d="M979.4-121.9h105v81h-105z"/></defs><defs><path id="ao" d="M973.4-106.4h-2.2l.9-2.1 9.1-22 .4-.9h100.9l.4.9 9.1 22 .9 2.1H973.4zm0-3h117l-1.4 2.1-9.1-22 1.4.9h-98.9l1.4-.9-9.1 22-1.3-2.1zm-22.3 23h161.5v-65H951.1v65z"/></defs><clipPath id="ap"><use xlink:href="#ao" overflow="visible"/></clipPath><g clip-path="url(#ap)"><defs><path id="aq" d="M973.4-107.9h117l-9.1-22h-98.8z"/></defs></g><defs><path id="ar" d="M973.4-107.9h117l-9.1-22h-98.8z"/></defs><defs><path id="as" d="M1058.4-139.4h-1.5v19h15v-19h-13.5zm0 3h12l-1.5-1.5v16l1.5-1.5h-12l1.5 1.5v-16l-1.5 1.5zm-21.5-23h55v59h-55v-59z"/></defs><clipPath id="at"><use xlink:href="#as" overflow="visible"/></clipPath><g clip-path="url(#at)"><defs><path id="au" d="M1058.4-137.9h12v16h-12z"/></defs></g><defs><path id="av" d="M1058.4-137.9h12v16h-12z"/></defs><defs><path id="aw" d="M992.4-73.4h-1.5v34h24v-34h-22.5zm0 3h21l-1.5-1.5v31l1.5-1.5h-21l1.5 1.5v-31l-1.5 1.5zm-21.5-23h64v74h-64v-74z"/></defs><clipPath id="ax"><use xlink:href="#aw" overflow="visible"/></clipPath><g clip-path="url(#ax)"><defs><path id="ay" d="M992.4-71.9h21v31h-21z"/></defs></g><defs><path id="az" d="M992.4-71.9h21v31h-21z"/></defs><defs><path id="aA" d="M993.4-101.4h-1.5v22h22v-22h-20.5zm0 3h19l-1.5-1.5v19l1.5-1.5h-19l1.5 1.5v-19l-1.5 1.5zm-21.5-23h62v62h-62v-62z"/></defs><clipPath id="aB"><use xlink:href="#aA" overflow="visible"/></clipPath><g clip-path="url(#aB)"><defs><path id="aC" d="M993.4-99.9h19v19h-19z"/></defs></g><defs><path id="aD" d="M993.4-99.9h19v19h-19z"/></defs><defs><path id="aE" d="M998.4-96.4h-1.5v12h12v-12h-10.5zm0 3h9l-1.5-1.5v9l1.5-1.5h-9l1.5 1.5v-9l-1.5 1.5zm-21.5-23h52v52h-52v-52z"/></defs><clipPath id="aF"><use xlink:href="#aE" overflow="visible"/></clipPath><g clip-path="url(#aF)"><defs><path id="aG" d="M998.4-94.9h9v9h-9z"/></defs></g><defs><path id="aH" d="M998.4-94.9h9v9h-9z"/></defs><defs><path id="aI" d="M1023.4-101.4h-1.5v22h22v-22h-20.5zm0 3h19l-1.5-1.5v19l1.5-1.5h-19l1.5 1.5v-19l-1.5 1.5zm-21.5-23h62v62h-62v-62z"/></defs><clipPath id="aJ"><use xlink:href="#aI" overflow="visible"/></clipPath><g clip-path="url(#aJ)"><defs><path id="aK" d="M1023.4-99.9h19v19h-19z"/></defs></g><defs><path id="aL" d="M1023.4-99.9h19v19h-19z"/></defs><defs><path id="aM" d="M1052.4-101.4h-1.5v22h22v-22h-20.5zm0 3h19l-1.5-1.5v19l1.5-1.5h-19l1.5 1.5v-19l-1.5 1.5zm-21.5-23h62v62h-62v-62z"/></defs><clipPath id="aN"><use xlink:href="#aM" overflow="visible"/></clipPath><g clip-path="url(#aN)"><defs><path id="aO" d="M1052.4-99.9h19v19h-19z"/></defs></g><g><defs><path id="aP" d="M1052.4-99.9h19v19h-19z"/></defs></g><g><defs><path id="aQ" d="M1023.4-73.4h-1.5v22h22v-22h-20.5zm0 3h19l-1.5-1.5v19l1.5-1.5h-19l1.5 1.5v-19l-1.5 1.5zm-21.5-23h62v62h-62v-62z"/></defs><clipPath id="aR"><use xlink:href="#aQ" overflow="visible"/></clipPath><g clip-path="url(#aR)"><defs><path id="aS" d="M1023.4-71.9h19v19h-19z"/></defs></g></g><g><defs><path id="aT" d="M1023.4-71.9h19v19h-19z"/></defs></g><g><defs><path id="aU" d="M1052.4-73.4h-1.5v22h22v-22h-20.5zm0 3h19l-1.5-1.5v19l1.5-1.5h-19l1.5 1.5v-19l-1.5 1.5zm-21.5-23h62v62h-62v-62z"/></defs><clipPath id="aV"><use xlink:href="#aU" overflow="visible"/></clipPath><g clip-path="url(#aV)"><defs><path id="aW" d="M1052.4-71.9h19v19h-19z"/></defs></g></g><g><defs><path id="aX" d="M1052.4-71.9h19v19h-19z"/></defs></g><g><defs><path id="aY" d="M1028.4-96.4h-1.5v12h12v-12h-10.5zm0 3h9l-1.5-1.5v9l1.5-1.5h-9l1.5 1.5v-9l-1.5 1.5zm-21.5-23h52v52h-52v-52z"/></defs><clipPath id="aZ"><use xlink:href="#aY" overflow="visible"/></clipPath><g clip-path="url(#aZ)"><defs><path id="ba" d="M1028.4-94.9h9v9h-9z"/></defs></g></g><g><defs><path id="bb" d="M1028.4-94.9h9v9h-9z"/></defs></g><g><defs><path id="bc" d="M1057.4-96.4h-1.5v12h12v-12h-10.5zm0 3h9l-1.5-1.5v9l1.5-1.5h-9l1.5 1.5v-9l-1.5 1.5zm-21.5-23h52v52h-52v-52z"/></defs><clipPath id="bd"><use xlink:href="#bc" overflow="visible"/></clipPath><g clip-path="url(#bd)"><defs><path id="be" d="M1057.4-94.9h9v9h-9z"/></defs></g></g><g><defs><path id="bf" d="M1057.4-94.9h9v9h-9z"/></defs></g><g><defs><path id="bg" d="M1028.4-68.4h-1.5v12h12v-12h-10.5zm0 3h9l-1.5-1.5v9l1.5-1.5h-9l1.5 1.5v-9l-1.5 1.5zm-21.5-23h52v52h-52v-52z"/></defs><clipPath id="bh"><use xlink:href="#bg" overflow="visible"/></clipPath><g clip-path="url(#bh)"><defs><path id="bi" d="M1028.4-66.9h9v9h-9z"/></defs></g></g><g><defs><path id="bj" d="M1028.4-66.9h9v9h-9z"/></defs></g><g><defs><path id="bk" d="M1057.4-68.4h-1.5v12h12v-12h-10.5zm0 3h9l-1.5-1.5v9l1.5-1.5h-9l1.5 1.5v-9l-1.5 1.5zm-21.5-23h52v52h-52v-52z"/></defs><clipPath id="bl"><use xlink:href="#bk" overflow="visible"/></clipPath><g clip-path="url(#bl)"><defs><path id="bm" d="M1057.4-66.9h9v9h-9z"/></defs></g></g><g><defs><path id="bn" d="M1057.4-66.9h9v9h-9z"/></defs></g></svg>