<svg xmlns="http://www.w3.org/2000/svg" xmlns:xlink="http://www.w3.org/1999/xlink" viewBox="0 0 276 137"><path fill="#091F2F" d="M76.5 113.9c-7.2-.2-13-6.1-13-13.3v-1.5H75V23h111.2l-.2 77.9c0 7.1-5.9 12.9-13.2 12.9l-96.3.1zm-9.9-11.8c.7 4.9 4.9 8.7 9.9 8.8h87.6c-2.5-2.1-4.2-5.1-4.6-8.7l-92.9-.1zm11.4-3h84.5v1.5c0 5.9 4.3 10.2 10.2 10.2 5.6 0 10.2-4.4 10.2-9.9l.2-74.9H78v73.1z"/><path fill="#091F2F" d="M125 37h47v3h-47zm0 12h47v3h-47zm0 12h47v3h-47zm0 12h47v3h-47zm0 12h47v3h-47z"/><defs><path id="a" d="M379.4 28.6h-1.5v84h108v-84H379.4zm0 3h105l-1.5-1.5v81l1.5-1.5h-105l1.5 1.5v-81l-1.5 1.5zm-21.5-23h148v124h-148V8.6z"/></defs><clipPath id="b"><use xlink:href="#a" overflow="visible"/></clipPath><g clip-path="url(#b)"><defs><path id="c" d="M379.4 30.1h105v81h-105z"/></defs></g><defs><path id="d" d="M379.4 30.1h105v81h-105z"/></defs><defs><path id="e" d="M373.4 45.6h-2.2l.9-2.1 9.1-22 .4-.9h100.9l.4.9 9.1 22 .9 2.1H373.4zm0-3h117l-1.4 2.1-9.1-22 1.4.9h-98.9l1.4-.9-9.1 22-1.3-2.1zm-22.3 23h161.5V.6H351.1v65z"/></defs><clipPath id="f"><use xlink:href="#e" overflow="visible"/></clipPath><g clip-path="url(#f)"><defs><path id="g" d="M373.4 44.1h117l-9.1-22h-98.8z"/></defs></g><defs><path id="h" d="M373.4 44.1h117l-9.1-22h-98.8z"/></defs><defs><path id="i" d="M458.4 12.6h-1.5v19h15v-19h-13.5zm0 3h12l-1.5-1.5v16l1.5-1.5h-12l1.5 1.5v-16l-1.5 1.5zm-21.5-23h55v59h-55v-59z"/></defs><clipPath id="j"><use xlink:href="#i" overflow="visible"/></clipPath><g clip-path="url(#j)"><defs><path id="k" d="M458.4 14.1h12v16h-12z"/></defs></g><defs><path id="l" d="M458.4 14.1h12v16h-12z"/></defs><defs><path id="m" d="M392.4 78.6h-1.5v34h24v-34h-22.5zm0 3h21l-1.5-1.5v31l1.5-1.5h-21l1.5 1.5v-31l-1.5 1.5zm-21.5-23h64v74h-64v-74z"/></defs><clipPath id="n"><use xlink:href="#m" overflow="visible"/></clipPath><g clip-path="url(#n)"><defs><path id="o" d="M392.4 80.1h21v31h-21z"/></defs></g><defs><path id="p" d="M392.4 80.1h21v31h-21z"/></defs><defs><path id="q" d="M393.4 50.6h-1.5v22h22v-22h-20.5zm0 3h19l-1.5-1.5v19l1.5-1.5h-19l1.5 1.5v-19l-1.5 1.5zm-21.5-23h62v62h-62v-62z"/></defs><clipPath id="r"><use xlink:href="#q" overflow="visible"/></clipPath><g clip-path="url(#r)"><defs><path id="s" d="M393.4 52.1h19v19h-19z"/></defs></g><defs><path id="t" d="M393.4 52.1h19v19h-19z"/></defs><defs><path id="u" d="M398.4 55.6h-1.5v12h12v-12h-10.5zm0 3h9l-1.5-1.5v9l1.5-1.5h-9l1.5 1.5v-9l-1.5 1.5zm-21.5-23h52v52h-52v-52z"/></defs><clipPath id="v"><use xlink:href="#u" overflow="visible"/></clipPath><g clip-path="url(#v)"><defs><path id="w" d="M398.4 57.1h9v9h-9z"/></defs></g><defs><path id="x" d="M398.4 57.1h9v9h-9z"/></defs><defs><path id="y" d="M423.4 50.6h-1.5v22h22v-22h-20.5zm0 3h19l-1.5-1.5v19l1.5-1.5h-19l1.5 1.5v-19l-1.5 1.5zm-21.5-23h62v62h-62v-62z"/></defs><clipPath id="z"><use xlink:href="#y" overflow="visible"/></clipPath><g clip-path="url(#z)"><defs><path id="A" d="M423.4 52.1h19v19h-19z"/></defs></g><defs><path id="B" d="M423.4 52.1h19v19h-19z"/></defs><defs><path id="C" d="M452.4 50.6h-1.5v22h22v-22h-20.5zm0 3h19l-1.5-1.5v19l1.5-1.5h-19l1.5 1.5v-19l-1.5 1.5zm-21.5-23h62v62h-62v-62z"/></defs><clipPath id="D"><use xlink:href="#C" overflow="visible"/></clipPath><g clip-path="url(#D)"><defs><path id="E" d="M452.4 52.1h19v19h-19z"/></defs></g><defs><path id="F" d="M452.4 52.1h19v19h-19z"/></defs><defs><path id="G" d="M423.4 78.6h-1.5v22h22v-22h-20.5zm0 3h19l-1.5-1.5v19l1.5-1.5h-19l1.5 1.5v-19l-1.5 1.5zm-21.5-23h62v62h-62v-62z"/></defs><clipPath id="H"><use xlink:href="#G" overflow="visible"/></clipPath><g clip-path="url(#H)"><defs><path id="I" d="M423.4 80.1h19v19h-19z"/></defs></g><defs><path id="J" d="M423.4 80.1h19v19h-19z"/></defs><defs><path id="K" d="M452.4 78.6h-1.5v22h22v-22h-20.5zm0 3h19l-1.5-1.5v19l1.5-1.5h-19l1.5 1.5v-19l-1.5 1.5zm-21.5-23h62v62h-62v-62z"/></defs><clipPath id="L"><use xlink:href="#K" overflow="visible"/></clipPath><g clip-path="url(#L)"><defs><path id="M" d="M452.4 80.1h19v19h-19z"/></defs></g><defs><path id="N" d="M452.4 80.1h19v19h-19z"/></defs><defs><path id="O" d="M428.4 55.6h-1.5v12h12v-12h-10.5zm0 3h9l-1.5-1.5v9l1.5-1.5h-9l1.5 1.5v-9l-1.5 1.5zm-21.5-23h52v52h-52v-52z"/></defs><clipPath id="P"><use xlink:href="#O" overflow="visible"/></clipPath><g clip-path="url(#P)"><defs><path id="Q" d="M428.4 57.1h9v9h-9z"/></defs></g><defs><path id="R" d="M428.4 57.1h9v9h-9z"/></defs><defs><path id="S" d="M457.4 55.6h-1.5v12h12v-12h-10.5zm0 3h9l-1.5-1.5v9l1.5-1.5h-9l1.5 1.5v-9l-1.5 1.5zm-21.5-23h52v52h-52v-52z"/></defs><clipPath id="T"><use xlink:href="#S" overflow="visible"/></clipPath><g clip-path="url(#T)"><defs><path id="U" d="M457.4 57.1h9v9h-9z"/></defs></g><defs><path id="V" d="M457.4 57.1h9v9h-9z"/></defs><defs><path id="W" d="M428.4 83.6h-1.5v12h12v-12h-10.5zm0 3h9l-1.5-1.5v9l1.5-1.5h-9l1.5 1.5v-9l-1.5 1.5zm-21.5-23h52v52h-52v-52z"/></defs><clipPath id="X"><use xlink:href="#W" overflow="visible"/></clipPath><g clip-path="url(#X)"><defs><path id="Y" d="M428.4 85.1h9v9h-9z"/></defs></g><defs><path id="Z" d="M428.4 85.1h9v9h-9z"/></defs><defs><path id="aa" d="M457.4 83.6h-1.5v12h12v-12h-10.5zm0 3h9l-1.5-1.5v9l1.5-1.5h-9l1.5 1.5v-9l-1.5 1.5zm-21.5-23h52v52h-52v-52z"/></defs><clipPath id="ab"><use xlink:href="#aa" overflow="visible"/></clipPath><g clip-path="url(#ab)"><defs><path id="ac" d="M457.4 85.1h9v9h-9z"/></defs></g><defs><path id="ad" d="M457.4 85.1h9v9h-9z"/></defs><defs><path id="ae" d="M979.4-288.4h-1.5v84h108v-84H979.4zm0 3h105l-1.5-1.5v81l1.5-1.5h-105l1.5 1.5v-81l-1.5 1.5zm-21.5-23h148v124h-148v-124z"/></defs><clipPath id="af"><use xlink:href="#ae" overflow="visible"/></clipPath><g clip-path="url(#af)"><defs><path id="ag" d="M979.4-286.9h105v81h-105z"/></defs></g><defs><path id="ah" d="M979.4-286.9h105v81h-105z"/></defs><defs><path id="ai" d="M973.4-271.4h-2.2l.9-2.1 9.1-22 .4-.9h100.9l.4.9 9.1 22 .9 2.1H973.4zm0-3h117l-1.4 2.1-9.1-22 1.4.9h-98.9l1.4-.9-9.1 22-1.3-2.1zm-22.3 23h161.5v-65H951.1v65z"/></defs><clipPath id="aj"><use xlink:href="#ai" overflow="visible"/></clipPath><g clip-path="url(#aj)"><defs><path id="ak" d="M973.4-272.9h117l-9.1-22h-98.8z"/></defs></g><defs><path id="al" d="M973.4-272.9h117l-9.1-22h-98.8z"/></defs><defs><path id="am" d="M1058.4-304.4h-1.5v19h15v-19h-13.5zm0 3h12l-1.5-1.5v16l1.5-1.5h-12l1.5 1.5v-16l-1.5 1.5zm-21.5-23h55v59h-55v-59z"/></defs><clipPath id="an"><use xlink:href="#am" overflow="visible"/></clipPath><g clip-path="url(#an)"><defs><path id="ao" d="M1058.4-302.9h12v16h-12z"/></defs></g><defs><path id="ap" d="M1058.4-302.9h12v16h-12z"/></defs><defs><path id="aq" d="M992.4-238.4h-1.5v34h24v-34h-22.5zm0 3h21l-1.5-1.5v31l1.5-1.5h-21l1.5 1.5v-31l-1.5 1.5zm-21.5-23h64v74h-64v-74z"/></defs><clipPath id="ar"><use xlink:href="#aq" overflow="visible"/></clipPath><g clip-path="url(#ar)"><defs><path id="as" d="M992.4-236.9h21v31h-21z"/></defs></g><defs><path id="at" d="M992.4-236.9h21v31h-21z"/></defs><defs><path id="au" d="M993.4-266.4h-1.5v22h22v-22h-20.5zm0 3h19l-1.5-1.5v19l1.5-1.5h-19l1.5 1.5v-19l-1.5 1.5zm-21.5-23h62v62h-62v-62z"/></defs><clipPath id="av"><use xlink:href="#au" overflow="visible"/></clipPath><g clip-path="url(#av)"><defs><path id="aw" d="M993.4-264.9h19v19h-19z"/></defs></g><defs><path id="ax" d="M993.4-264.9h19v19h-19z"/></defs><defs><path id="ay" d="M998.4-261.4h-1.5v12h12v-12h-10.5zm0 3h9l-1.5-1.5v9l1.5-1.5h-9l1.5 1.5v-9l-1.5 1.5zm-21.5-23h52v52h-52v-52z"/></defs><clipPath id="az"><use xlink:href="#ay" overflow="visible"/></clipPath><g clip-path="url(#az)"><defs><path id="aA" d="M998.4-259.9h9v9h-9z"/></defs></g><defs><path id="aB" d="M998.4-259.9h9v9h-9z"/></defs><defs><path id="aC" d="M1023.4-266.4h-1.5v22h22v-22h-20.5zm0 3h19l-1.5-1.5v19l1.5-1.5h-19l1.5 1.5v-19l-1.5 1.5zm-21.5-23h62v62h-62v-62z"/></defs><clipPath id="aD"><use xlink:href="#aC" overflow="visible"/></clipPath><g clip-path="url(#aD)"><defs><path id="aE" d="M1023.4-264.9h19v19h-19z"/></defs></g><defs><path id="aF" d="M1023.4-264.9h19v19h-19z"/></defs><defs><path id="aG" d="M1052.4-266.4h-1.5v22h22v-22h-20.5zm0 3h19l-1.5-1.5v19l1.5-1.5h-19l1.5 1.5v-19l-1.5 1.5zm-21.5-23h62v62h-62v-62z"/></defs><clipPath id="aH"><use xlink:href="#aG" overflow="visible"/></clipPath><g clip-path="url(#aH)"><defs><path id="aI" d="M1052.4-264.9h19v19h-19z"/></defs></g><defs><path id="aJ" d="M1052.4-264.9h19v19h-19z"/></defs><defs><path id="aK" d="M1023.4-238.4h-1.5v22h22v-22h-20.5zm0 3h19l-1.5-1.5v19l1.5-1.5h-19l1.5 1.5v-19l-1.5 1.5zm-21.5-23h62v62h-62v-62z"/></defs><clipPath id="aL"><use xlink:href="#aK" overflow="visible"/></clipPath><g clip-path="url(#aL)"><defs><path id="aM" d="M1023.4-236.9h19v19h-19z"/></defs></g><defs><path id="aN" d="M1023.4-236.9h19v19h-19z"/></defs><defs><path id="aO" d="M1052.4-238.4h-1.5v22h22v-22h-20.5zm0 3h19l-1.5-1.5v19l1.5-1.5h-19l1.5 1.5v-19l-1.5 1.5zm-21.5-23h62v62h-62v-62z"/></defs><clipPath id="aP"><use xlink:href="#aO" overflow="visible"/></clipPath><g clip-path="url(#aP)"><defs><path id="aQ" d="M1052.4-236.9h19v19h-19z"/></defs></g><defs><path id="aR" d="M1052.4-236.9h19v19h-19z"/></defs><defs><path id="aS" d="M1028.4-261.4h-1.5v12h12v-12h-10.5zm0 3h9l-1.5-1.5v9l1.5-1.5h-9l1.5 1.5v-9l-1.5 1.5zm-21.5-23h52v52h-52v-52z"/></defs><clipPath id="aT"><use xlink:href="#aS" overflow="visible"/></clipPath><g clip-path="url(#aT)"><defs><path id="aU" d="M1028.4-259.9h9v9h-9z"/></defs></g><defs><path id="aV" d="M1028.4-259.9h9v9h-9z"/></defs><defs><path id="aW" d="M1057.4-261.4h-1.5v12h12v-12h-10.5zm0 3h9l-1.5-1.5v9l1.5-1.5h-9l1.5 1.5v-9l-1.5 1.5zm-21.5-23h52v52h-52v-52z"/></defs><clipPath id="aX"><use xlink:href="#aW" overflow="visible"/></clipPath><g clip-path="url(#aX)"><defs><path id="aY" d="M1057.4-259.9h9v9h-9z"/></defs></g><defs><path id="aZ" d="M1057.4-259.9h9v9h-9z"/></defs><defs><path id="ba" d="M1028.4-233.4h-1.5v12h12v-12h-10.5zm0 3h9l-1.5-1.5v9l1.5-1.5h-9l1.5 1.5v-9l-1.5 1.5zm-21.5-23h52v52h-52v-52z"/></defs><clipPath id="bb"><use xlink:href="#ba" overflow="visible"/></clipPath><g clip-path="url(#bb)"><defs><path id="bc" d="M1028.4-231.9h9v9h-9z"/></defs></g><defs><path id="bd" d="M1028.4-231.9h9v9h-9z"/></defs><defs><path id="be" d="M1057.4-233.4h-1.5v12h12v-12h-10.5zm0 3h9l-1.5-1.5v9l1.5-1.5h-9l1.5 1.5v-9l-1.5 1.5zm-21.5-23h52v52h-52v-52z"/></defs><clipPath id="bf"><use xlink:href="#be" overflow="visible"/></clipPath><g clip-path="url(#bf)"><defs><path id="bg" d="M1057.4-231.9h9v9h-9z"/></defs></g><defs><path id="bh" d="M1057.4-231.9h9v9h-9z"/></defs><defs><path id="bi" d="M70.5 347.5H69v90h134v-90H70.5zm0 3h131L200 349v87l1.5-1.5h-131L72 436v-87l-1.5 1.5zm-21.5-23h174v130H49v-130z"/></defs><clipPath id="bj"><use xlink:href="#bi" overflow="visible"/></clipPath><g clip-path="url(#bj)"><defs><path id="bk" d="M70.5 349h131v87h-131z"/></defs></g><defs><path id="bl" d="M70.5 349h131v87h-131z"/></defs><defs><path id="bm" d="M75.5 352.5H74v80h124v-80H75.5zm0 3h121L195 354v77l1.5-1.5h-121L77 431v-77l-1.5 1.5zm-21.5-23h164v120H54v-120z"/></defs><clipPath id="bn"><use xlink:href="#bm" overflow="visible"/></clipPath><g clip-path="url(#bn)"><defs><path id="bo" d="M75.5 354h121v77h-121z"/></defs></g><defs><path id="bp" d="M75.5 354h121v77h-121z"/></defs><defs><path id="bq" d="M140.5 367.5H139v6h47v-6h-45.5zm0 3h44L183 369v3l1.5-1.5h-44l1.5 1.5v-3l-1.5 1.5zm-21.5-23h87v46h-87v-46z"/></defs><clipPath id="br"><use xlink:href="#bq" overflow="visible"/></clipPath><g clip-path="url(#br)"><defs><path id="bs" d="M140.5 369h44v3h-44z"/></defs></g><defs><path id="bt" d="M140.5 369h44v3h-44z"/></defs><defs><path id="bu" d="M140.5 373.5H139v6h47v-6h-45.5zm0 3h44L183 375v3l1.5-1.5h-44l1.5 1.5v-3l-1.5 1.5zm-21.5-23h87v46h-87v-46z"/></defs><clipPath id="bv"><use xlink:href="#bu" overflow="visible"/></clipPath><g clip-path="url(#bv)"><defs><path id="bw" d="M140.5 375h44v3h-44z"/></defs></g><defs><path id="bx" d="M140.5 375h44v3h-44z"/></defs><defs><path id="by" d="M140.5 379.5H139v6h47v-6h-45.5zm0 3h44L183 381v3l1.5-1.5h-44l1.5 1.5v-3l-1.5 1.5zm-21.5-23h87v46h-87v-46z"/></defs><clipPath id="bz"><use xlink:href="#by" overflow="visible"/></clipPath><g clip-path="url(#bz)"><defs><path id="bA" d="M140.5 381h44v3h-44z"/></defs></g><defs><path id="bB" d="M140.5 381h44v3h-44z"/></defs><defs><path id="bC" d="M140.5 385.5H139v6h47v-6h-45.5zm0 3h44L183 387v3l1.5-1.5h-44l1.5 1.5v-3l-1.5 1.5zm-21.5-23h87v46h-87v-46z"/></defs><clipPath id="bD"><use xlink:href="#bC" overflow="visible"/></clipPath><g clip-path="url(#bD)"><defs><path id="bE" d="M140.5 387h44v3h-44z"/></defs></g><g><defs><path id="bF" d="M140.5 387h44v3h-44z"/></defs></g><g><defs><path id="bG" d="M364.1 347.5h-1.5v90h134v-90H364.1zm0 3h131l-1.5-1.5v87l1.5-1.5h-131l1.5 1.5v-87l-1.5 1.5zm-21.5-23h174v130h-174v-130z"/></defs><clipPath id="bH"><use xlink:href="#bG" overflow="visible"/></clipPath><g clip-path="url(#bH)"><defs><path id="bI" d="M364.1 349h131v87h-131z"/></defs></g></g><g><defs><path id="bJ" d="M364.1 349h131v87h-131z"/></defs></g><g><defs><path id="bK" d="M369.1 352.5h-1.5v80h124v-80H369.1zm0 3h121l-1.5-1.5v77l1.5-1.5h-121l1.5 1.5v-77l-1.5 1.5zm-21.5-23h164v120h-164v-120z"/></defs><clipPath id="bL"><use xlink:href="#bK" overflow="visible"/></clipPath><g clip-path="url(#bL)"><defs><path id="bM" d="M369.1 354h121v77h-121z"/></defs></g></g><g><defs><path id="bN" d="M369.1 354h121v77h-121z"/></defs></g><g><defs><path id="bO" d="M434.1 367.5h-1.5v6h47v-6h-45.5zm0 3h44l-1.5-1.5v3l1.5-1.5h-44l1.5 1.5v-3l-1.5 1.5zm-21.5-23h87v46h-87v-46z"/></defs><clipPath id="bP"><use xlink:href="#bO" overflow="visible"/></clipPath><g clip-path="url(#bP)"><defs><path id="bQ" d="M434.1 369h44v3h-44z"/></defs></g></g><g><defs><path id="bR" d="M434.1 369h44v3h-44z"/></defs></g><g><defs><path id="bS" d="M434.1 373.5h-1.5v6h47v-6h-45.5zm0 3h44l-1.5-1.5v3l1.5-1.5h-44l1.5 1.5v-3l-1.5 1.5zm-21.5-23h87v46h-87v-46z"/></defs><clipPath id="bT"><use xlink:href="#bS" overflow="visible"/></clipPath><g clip-path="url(#bT)"><defs><path id="bU" d="M434.1 375h44v3h-44z"/></defs></g></g><g><defs><path id="bV" d="M434.1 375h44v3h-44z"/></defs></g><g><defs><path id="bW" d="M434.1 379.5h-1.5v6h47v-6h-45.5zm0 3h44l-1.5-1.5v3l1.5-1.5h-44l1.5 1.5v-3l-1.5 1.5zm-21.5-23h87v46h-87v-46z"/></defs><clipPath id="bX"><use xlink:href="#bW" overflow="visible"/></clipPath><g clip-path="url(#bX)"><defs><path id="bY" d="M434.1 381h44v3h-44z"/></defs></g></g><g><defs><path id="bZ" d="M434.1 381h44v3h-44z"/></defs></g><g><defs><path id="ca" d="M434.1 385.5h-1.5v6h47v-6h-45.5zm0 3h44l-1.5-1.5v3l1.5-1.5h-44l1.5 1.5v-3l-1.5 1.5zm-21.5-23h87v46h-87v-46z"/></defs><clipPath id="cb"><use xlink:href="#ca" overflow="visible"/></clipPath><g clip-path="url(#cb)"><defs><path id="cc" d="M434.1 387h44v3h-44z"/></defs></g></g><g><defs><path id="cd" d="M434.1 387h44v3h-44z"/></defs></g><circle fill="#FFF" stroke="#0C1F2E" stroke-width="3" stroke-miterlimit="10" cx="102.2" cy="52" r="14.5"/><g><path fill="#091F2F" d="M103.611 48.535l1.556 1.555-10.96 10.96-1.556-1.555z"/></g><g><path fill="#091F2F" d="M100.515 46.404l3.606-3.606 6.081 6.08-3.606 3.607z"/></g><g><path fill="#091F2F" d="M99.538 45.247l3.607-3.606.848.849-3.606 3.606z"/></g><g><path fill="#091F2F" d="M106.822 52.724l3.606-3.606.849.848-3.607 3.606z"/></g></svg>