<svg id="Layer_1" data-name="Layer 1" xmlns="http://www.w3.org/2000/svg" viewBox="0 0 276 137"><defs><style>.cls-1,.cls-3{fill:#fff}.cls-1,.cls-2{stroke:#0e1f2d;stroke-linecap:round;stroke-miterlimit:10;stroke-width:3px}.cls-2{fill:none}.cls-4{fill:#0c1f2e}.cls-5{fill:#091f2f}</style></defs><title>EXPERIENTIAL ICONS</title><path class="cls-1" d="M189.84 102.8l-22.31 6.77-27.06-6.77-24.45 7.52-24.66-7.52V28.73l24.66 7.52 24.58-7.52 26.93 6.77 22.31-6.77v74.07z"/><path class="cls-2" d="M115.76 36.25v63.69M115.76 95v15.6M167.02 90.92v18.05M167.02 35.45v53.58M141.09 89.02V103M141.09 29.69v13.98"/><circle class="cls-3" cx="141.39" cy="66.2" r="16.83"/><path class="cls-4" d="M141.39 84.45a18.25 18.25 0 1 1 18.26-18.25 18.27 18.27 0 0 1-18.26 18.25zm0-33.66A15.41 15.41 0 1 0 156.8 66.2a15.42 15.42 0 0 0-15.41-15.41z"/><path class="cls-5" transform="rotate(45 139.726 68.766)" d="M138.58 60.54h2.3v16.47h-2.3z"/><path class="cls-5" transform="rotate(-45 146.702 61.134)" d="M143.99 56.58h5.44v9.11h-5.44z"/><path class="cls-5" transform="rotate(-45 142.781 57.148)" d="M140.07 56.5h5.44v1.3h-5.44z"/><path class="cls-5" transform="rotate(-45 150.65 65.089)" d="M147.93 64.44h5.44v1.3h-5.44z"/></svg>