<svg id="Layer_1" data-name="Layer 1" xmlns="http://www.w3.org/2000/svg" viewBox="0 0 276 137"><defs><style>.cls-1,.cls-16,.cls-2{fill:none}.cls-1{clip-rule:evenodd}.cls-15{fill:#fff;stroke-miterlimit:10}.cls-15,.cls-16{stroke:#0c1f2e;stroke-width:2.74px}</style><clipPath id="clip-path"><path class="cls-1" d="M-643.77 195.13h-1.5v38h142V208l-.41-.43-11.44-12-.44-.46h-128.2zm0 3h127.56l-1.09-.46 11.44 12-.41-1v23l1.5-1.5h-139l1.5 1.5v-35zm-21.5-23h182v78h-182z"/></clipPath><clipPath id="clip-path-2"><path class="cls-1" d="M-643.77 196.63h127.56l11.44 12v23h-139v-35z"/></clipPath><clipPath id="clip-path-4"><path class="cls-1" d="M-610.77 246.55a14.5 14.5 0 0 1-14.5-14.5 14.5 14.5 0 0 1 14.5-14.5 14.5 14.5 0 0 1 14.5 14.5 14.5 14.5 0 0 1-14.5 14.5zm0 3a17.5 17.5 0 0 0 17.5-17.5 17.5 17.5 0 0 0-17.5-17.5 17.5 17.5 0 0 0-17.5 17.5 17.5 17.5 0 0 0 17.5 17.5zm-37.5-55h75v75h-75z"/></clipPath><clipPath id="clip-path-5"><circle class="cls-2" cx="-610.77" cy="232.05" r="16"/></clipPath><clipPath id="clip-path-7"><path class="cls-1" d="M-610.77 239.55a7.5 7.5 0 0 1-7.5-7.5 7.5 7.5 0 0 1 7.5-7.5 7.5 7.5 0 0 1 7.5 7.5 7.5 7.5 0 0 1-7.5 7.5zm0 3a10.5 10.5 0 0 0 10.5-10.5 10.5 10.5 0 0 0-10.5-10.5 10.5 10.5 0 0 0-10.5 10.5 10.5 10.5 0 0 0 10.5 10.5zm-30.5-41h61v61h-61z"/></clipPath><clipPath id="clip-path-8"><circle class="cls-2" cx="-610.77" cy="232.05" r="9"/></clipPath><clipPath id="clip-path-10"><path class="cls-1" d="M-544.54 246.55a14.5 14.5 0 0 1-14.5-14.5 14.5 14.5 0 0 1 14.5-14.5 14.5 14.5 0 0 1 14.5 14.5 14.5 14.5 0 0 1-14.5 14.5zm0 3a17.5 17.5 0 0 0 17.5-17.5 17.5 17.5 0 0 0-17.5-17.5 17.5 17.5 0 0 0-17.5 17.5 17.5 17.5 0 0 0 17.5 17.5zm-37.5-55h75v75h-75z"/></clipPath><clipPath id="clip-path-11"><circle class="cls-2" cx="-544.54" cy="232.05" r="16"/></clipPath><clipPath id="clip-path-13"><path class="cls-1" d="M-544.31 191.72l-7.69-15.57h-27.17v15.57zm-75.16 0l7.38-15.55h27.17v15.53zm-10.3 5.35l14.14-26.89h66.84l15.35 27.82z"/></clipPath><clipPath id="clip-path-14"><path class="cls-1" d="M-544.54 239.55a7.5 7.5 0 0 1-7.5-7.5 7.5 7.5 0 0 1 7.5-7.5 7.5 7.5 0 0 1 7.5 7.5 7.5 7.5 0 0 1-7.5 7.5zm0 3a10.5 10.5 0 0 0 10.5-10.5 10.5 10.5 0 0 0-10.5-10.5 10.5 10.5 0 0 0-10.5 10.5 10.5 10.5 0 0 0 10.5 10.5zm-30.5-41h61v61h-61z"/></clipPath><clipPath id="clip-path-15"><circle class="cls-2" cx="-544.54" cy="232.05" r="9"/></clipPath><clipPath id="clip-path-17"><circle class="cls-2" cx="-145.7" cy="545.62" r="50.5"/></clipPath><clipPath id="clip-path-18"><circle class="cls-2" cx="-145.7" cy="545.62" r="43.5"/></clipPath></defs><path class="cls-15" d="M75.25 73.41h15.97l-5.63 17.16 17.96-17.16h30.11l.46-51.72H75.25v51.72z"/><path class="cls-16" d="M108 51.64h-6.66v-3.29a6.12 6.12 0 0 1 .46-2.69 11.64 11.64 0 0 1 1.95-2.43l3-3.07a3.08 3.08 0 0 0 .66-2 3.12 3.12 0 0 0-.7-2.08 2.29 2.29 0 0 0-1.84-.83 2.33 2.33 0 0 0-1.91 1 5 5 0 0 0-.96 2.55h-7a10.53 10.53 0 0 1 3.2-6.88 10.78 10.78 0 0 1 13.47-.26 7.76 7.76 0 0 1 2.56 6.18 6 6 0 0 1-.44 2.61q-.44.85-.61 1.23a6 6 0 0 1-.81 1.12q-.64.75-.85 1l-2 2a6.65 6.65 0 0 0-1.25 1.51A4 4 0 0 0 108 49zm-6.05 11.09a3.92 3.92 0 1 1 2.74 1.12 3.72 3.72 0 0 1-2.74-1.12z"/><path class="cls-15" d="M200.75 98.15h-15.97l5.63 17.16-17.96-17.16h-30.11l-.46-51.72h58.87v51.72z"/><path class="cls-16" d="M167.44 56.13h7.75v5.43l-1.31 15.78h-5.17l-1.27-15.78v-5.43zm1.14 31.68a3.92 3.92 0 1 1 2.74 1.12 3.72 3.72 0 0 1-2.74-1.12z"/></svg>