<svg xmlns="http://www.w3.org/2000/svg" xmlns:xlink="http://www.w3.org/1999/xlink" viewBox="0 0 276 137"><path fill="#091F2F" d="M76.5 113.9c-7.2-.2-13-6.1-13-13.3v-1.5H75V23h111.2l-.2 77.9c0 7.1-5.9 12.9-13.2 12.9l-96.3.1zm-9.9-11.8c.7 4.9 4.9 8.7 9.9 8.8h87.6c-2.5-2.1-4.2-5.1-4.6-8.7l-92.9-.1zm11.4-3h84.5v1.5c0 5.9 4.3 10.2 10.2 10.2 5.6 0 10.2-4.4 10.2-9.9l.2-74.9H78v73.1z"/><path fill="#091F2F" d="M125 37h47v3h-47zM125 49h47v3h-47zM125 61h47v3h-47zM125 73h47v3h-47zM125 85h47v3h-47z"/><defs><path id="a" d="M379.4 28.6h-1.5v84h108v-84H379.4zm0 3h105l-1.5-1.5v81l1.5-1.5h-105l1.5 1.5v-81l-1.5 1.5zm-21.5-23h148v124h-148V8.6z"/></defs><clipPath id="b"><use xlink:href="#a" overflow="visible"/></clipPath><g clip-path="url(#b)"><defs><path id="c" d="M379.4 30.1h105v81h-105z"/></defs><clipPath id="d"><use xlink:href="#c" overflow="visible"/></clipPath><g clip-path="url(#d)"><defs><path id="e" d="M-501.6-468.9h1121v1030h-1121z"/></defs></g></g><defs><path id="f" d="M379.4 30.1h105v81h-105z"/></defs><clipPath id="g"><use xlink:href="#f" overflow="visible"/></clipPath><g clip-path="url(#g)"><defs><path id="h" d="M-501.6-468.9h1121v1030h-1121z"/></defs></g><defs><path id="i" d="M373.4 45.6h-2.2l.9-2.1 9.1-22 .4-.9h100.9l.4.9 9.1 22 .9 2.1H373.4zm0-3h117l-1.4 2.1-9.1-22 1.4.9h-98.9l1.4-.9-9.1 22-1.3-2.1zm-22.3 23h161.5V.6H351.1v65z"/></defs><clipPath id="j"><use xlink:href="#i" overflow="visible"/></clipPath><g clip-path="url(#j)"><defs><path id="k" d="M373.4 44.1h117l-9.1-22h-98.8z"/></defs><clipPath id="l"><use xlink:href="#k" overflow="visible"/></clipPath><g clip-path="url(#l)"><defs><path id="m" d="M-501.6-468.9h1121v1030h-1121z"/></defs></g></g><defs><path id="n" d="M373.4 44.1h117l-9.1-22h-98.8z"/></defs><clipPath id="o"><use xlink:href="#n" overflow="visible"/></clipPath><g clip-path="url(#o)"><defs><path id="p" d="M-501.6-468.9h1121v1030h-1121z"/></defs></g><defs><path id="q" d="M458.4 12.6h-1.5v19h15v-19h-13.5zm0 3h12l-1.5-1.5v16l1.5-1.5h-12l1.5 1.5v-16l-1.5 1.5zm-21.5-23h55v59h-55v-59z"/></defs><clipPath id="r"><use xlink:href="#q" overflow="visible"/></clipPath><g clip-path="url(#r)"><defs><path id="s" d="M458.4 14.1h12v16h-12z"/></defs><clipPath id="t"><use xlink:href="#s" overflow="visible"/></clipPath><g clip-path="url(#t)"><defs><path id="u" d="M-501.6-468.9h1121v1030h-1121z"/></defs></g></g><defs><path id="v" d="M458.4 14.1h12v16h-12z"/></defs><clipPath id="w"><use xlink:href="#v" overflow="visible"/></clipPath><g clip-path="url(#w)"><defs><path id="x" d="M-501.6-468.9h1121v1030h-1121z"/></defs></g><defs><path id="y" d="M392.4 78.6h-1.5v34h24v-34h-22.5zm0 3h21l-1.5-1.5v31l1.5-1.5h-21l1.5 1.5v-31l-1.5 1.5zm-21.5-23h64v74h-64v-74z"/></defs><clipPath id="z"><use xlink:href="#y" overflow="visible"/></clipPath><g clip-path="url(#z)"><defs><path id="A" d="M392.4 80.1h21v31h-21z"/></defs><clipPath id="B"><use xlink:href="#A" overflow="visible"/></clipPath><g clip-path="url(#B)"><defs><path id="C" d="M-501.6-468.9h1121v1030h-1121z"/></defs></g></g><defs><path id="D" d="M392.4 80.1h21v31h-21z"/></defs><clipPath id="E"><use xlink:href="#D" overflow="visible"/></clipPath><g clip-path="url(#E)"><defs><path id="F" d="M-501.6-468.9h1121v1030h-1121z"/></defs></g><defs><path id="G" d="M393.4 50.6h-1.5v22h22v-22h-20.5zm0 3h19l-1.5-1.5v19l1.5-1.5h-19l1.5 1.5v-19l-1.5 1.5zm-21.5-23h62v62h-62v-62z"/></defs><clipPath id="H"><use xlink:href="#G" overflow="visible"/></clipPath><g clip-path="url(#H)"><defs><path id="I" d="M393.4 52.1h19v19h-19z"/></defs><clipPath id="J"><use xlink:href="#I" overflow="visible"/></clipPath><g clip-path="url(#J)"><defs><path id="K" d="M-501.6-468.9h1121v1030h-1121z"/></defs></g></g><defs><path id="L" d="M393.4 52.1h19v19h-19z"/></defs><clipPath id="M"><use xlink:href="#L" overflow="visible"/></clipPath><g clip-path="url(#M)"><defs><path id="N" d="M-501.6-468.9h1121v1030h-1121z"/></defs></g><defs><path id="O" d="M398.4 55.6h-1.5v12h12v-12h-10.5zm0 3h9l-1.5-1.5v9l1.5-1.5h-9l1.5 1.5v-9l-1.5 1.5zm-21.5-23h52v52h-52v-52z"/></defs><clipPath id="P"><use xlink:href="#O" overflow="visible"/></clipPath><g clip-path="url(#P)"><defs><path id="Q" d="M398.4 57.1h9v9h-9z"/></defs><clipPath id="R"><use xlink:href="#Q" overflow="visible"/></clipPath><g clip-path="url(#R)"><defs><path id="S" d="M-501.6-468.9h1121v1030h-1121z"/></defs></g></g><defs><path id="T" d="M398.4 57.1h9v9h-9z"/></defs><clipPath id="U"><use xlink:href="#T" overflow="visible"/></clipPath><g clip-path="url(#U)"><defs><path id="V" d="M-501.6-468.9h1121v1030h-1121z"/></defs></g><defs><path id="W" d="M423.4 50.6h-1.5v22h22v-22h-20.5zm0 3h19l-1.5-1.5v19l1.5-1.5h-19l1.5 1.5v-19l-1.5 1.5zm-21.5-23h62v62h-62v-62z"/></defs><clipPath id="X"><use xlink:href="#W" overflow="visible"/></clipPath><g clip-path="url(#X)"><defs><path id="Y" d="M423.4 52.1h19v19h-19z"/></defs><clipPath id="Z"><use xlink:href="#Y" overflow="visible"/></clipPath><g clip-path="url(#Z)"><defs><path id="aa" d="M-501.6-468.9h1121v1030h-1121z"/></defs></g></g><defs><path id="ab" d="M423.4 52.1h19v19h-19z"/></defs><clipPath id="ac"><use xlink:href="#ab" overflow="visible"/></clipPath><g clip-path="url(#ac)"><defs><path id="ad" d="M-501.6-468.9h1121v1030h-1121z"/></defs></g><defs><path id="ae" d="M452.4 50.6h-1.5v22h22v-22h-20.5zm0 3h19l-1.5-1.5v19l1.5-1.5h-19l1.5 1.5v-19l-1.5 1.5zm-21.5-23h62v62h-62v-62z"/></defs><clipPath id="af"><use xlink:href="#ae" overflow="visible"/></clipPath><g clip-path="url(#af)"><defs><path id="ag" d="M452.4 52.1h19v19h-19z"/></defs><clipPath id="ah"><use xlink:href="#ag" overflow="visible"/></clipPath><g clip-path="url(#ah)"><defs><path id="ai" d="M-501.6-468.9h1121v1030h-1121z"/></defs></g></g><defs><path id="aj" d="M452.4 52.1h19v19h-19z"/></defs><clipPath id="ak"><use xlink:href="#aj" overflow="visible"/></clipPath><g clip-path="url(#ak)"><defs><path id="al" d="M-501.6-468.9h1121v1030h-1121z"/></defs></g><defs><path id="am" d="M423.4 78.6h-1.5v22h22v-22h-20.5zm0 3h19l-1.5-1.5v19l1.5-1.5h-19l1.5 1.5v-19l-1.5 1.5zm-21.5-23h62v62h-62v-62z"/></defs><clipPath id="an"><use xlink:href="#am" overflow="visible"/></clipPath><g clip-path="url(#an)"><defs><path id="ao" d="M423.4 80.1h19v19h-19z"/></defs><clipPath id="ap"><use xlink:href="#ao" overflow="visible"/></clipPath><g clip-path="url(#ap)"><defs><path id="aq" d="M-501.6-468.9h1121v1030h-1121z"/></defs></g></g><defs><path id="ar" d="M423.4 80.1h19v19h-19z"/></defs><clipPath id="as"><use xlink:href="#ar" overflow="visible"/></clipPath><g clip-path="url(#as)"><defs><path id="at" d="M-501.6-468.9h1121v1030h-1121z"/></defs></g><defs><path id="au" d="M452.4 78.6h-1.5v22h22v-22h-20.5zm0 3h19l-1.5-1.5v19l1.5-1.5h-19l1.5 1.5v-19l-1.5 1.5zm-21.5-23h62v62h-62v-62z"/></defs><clipPath id="av"><use xlink:href="#au" overflow="visible"/></clipPath><g clip-path="url(#av)"><defs><path id="aw" d="M452.4 80.1h19v19h-19z"/></defs><clipPath id="ax"><use xlink:href="#aw" overflow="visible"/></clipPath><g clip-path="url(#ax)"><defs><path id="ay" d="M-501.6-468.9h1121v1030h-1121z"/></defs></g></g><defs><path id="az" d="M452.4 80.1h19v19h-19z"/></defs><clipPath id="aA"><use xlink:href="#az" overflow="visible"/></clipPath><g clip-path="url(#aA)"><defs><path id="aB" d="M-501.6-468.9h1121v1030h-1121z"/></defs></g><defs><path id="aC" d="M428.4 55.6h-1.5v12h12v-12h-10.5zm0 3h9l-1.5-1.5v9l1.5-1.5h-9l1.5 1.5v-9l-1.5 1.5zm-21.5-23h52v52h-52v-52z"/></defs><clipPath id="aD"><use xlink:href="#aC" overflow="visible"/></clipPath><g clip-path="url(#aD)"><defs><path id="aE" d="M428.4 57.1h9v9h-9z"/></defs><clipPath id="aF"><use xlink:href="#aE" overflow="visible"/></clipPath><g clip-path="url(#aF)"><defs><path id="aG" d="M-501.6-468.9h1121v1030h-1121z"/></defs></g></g><defs><path id="aH" d="M428.4 57.1h9v9h-9z"/></defs><clipPath id="aI"><use xlink:href="#aH" overflow="visible"/></clipPath><g clip-path="url(#aI)"><defs><path id="aJ" d="M-501.6-468.9h1121v1030h-1121z"/></defs></g><defs><path id="aK" d="M457.4 55.6h-1.5v12h12v-12h-10.5zm0 3h9l-1.5-1.5v9l1.5-1.5h-9l1.5 1.5v-9l-1.5 1.5zm-21.5-23h52v52h-52v-52z"/></defs><clipPath id="aL"><use xlink:href="#aK" overflow="visible"/></clipPath><g clip-path="url(#aL)"><defs><path id="aM" d="M457.4 57.1h9v9h-9z"/></defs><clipPath id="aN"><use xlink:href="#aM" overflow="visible"/></clipPath><g clip-path="url(#aN)"><defs><path id="aO" d="M-501.6-468.9h1121v1030h-1121z"/></defs></g></g><defs><path id="aP" d="M457.4 57.1h9v9h-9z"/></defs><clipPath id="aQ"><use xlink:href="#aP" overflow="visible"/></clipPath><g clip-path="url(#aQ)"><defs><path id="aR" d="M-501.6-468.9h1121v1030h-1121z"/></defs></g><defs><path id="aS" d="M428.4 83.6h-1.5v12h12v-12h-10.5zm0 3h9l-1.5-1.5v9l1.5-1.5h-9l1.5 1.5v-9l-1.5 1.5zm-21.5-23h52v52h-52v-52z"/></defs><clipPath id="aT"><use xlink:href="#aS" overflow="visible"/></clipPath><g clip-path="url(#aT)"><defs><path id="aU" d="M428.4 85.1h9v9h-9z"/></defs><clipPath id="aV"><use xlink:href="#aU" overflow="visible"/></clipPath><g clip-path="url(#aV)"><defs><path id="aW" d="M-501.6-468.9h1121v1030h-1121z"/></defs></g></g><defs><path id="aX" d="M428.4 85.1h9v9h-9z"/></defs><clipPath id="aY"><use xlink:href="#aX" overflow="visible"/></clipPath><g clip-path="url(#aY)"><defs><path id="aZ" d="M-501.6-468.9h1121v1030h-1121z"/></defs></g><defs><path id="ba" d="M457.4 83.6h-1.5v12h12v-12h-10.5zm0 3h9l-1.5-1.5v9l1.5-1.5h-9l1.5 1.5v-9l-1.5 1.5zm-21.5-23h52v52h-52v-52z"/></defs><clipPath id="bb"><use xlink:href="#ba" overflow="visible"/></clipPath><g clip-path="url(#bb)"><defs><path id="bc" d="M457.4 85.1h9v9h-9z"/></defs><clipPath id="bd"><use xlink:href="#bc" overflow="visible"/></clipPath><g clip-path="url(#bd)"><defs><path id="be" d="M-501.6-468.9h1121v1030h-1121z"/></defs></g></g><defs><path id="bf" d="M457.4 85.1h9v9h-9z"/></defs><clipPath id="bg"><use xlink:href="#bf" overflow="visible"/></clipPath><g clip-path="url(#bg)"><defs><path id="bh" d="M-501.6-468.9h1121v1030h-1121z"/></defs></g><defs><path id="bi" d="M979.4-288.4h-1.5v84h108v-84H979.4zm0 3h105l-1.5-1.5v81l1.5-1.5h-105l1.5 1.5v-81l-1.5 1.5zm-21.5-23h148v124h-148v-124z"/></defs><clipPath id="bj"><use xlink:href="#bi" overflow="visible"/></clipPath><g clip-path="url(#bj)"><defs><path id="bk" d="M979.4-286.9h105v81h-105z"/></defs><clipPath id="bl"><use xlink:href="#bk" overflow="visible"/></clipPath><g clip-path="url(#bl)"><defs><path id="bm" d="M98.4-785.9h1121v1030H98.4z"/></defs></g></g><g><defs><path id="bn" d="M979.4-286.9h105v81h-105z"/></defs><clipPath id="bo"><use xlink:href="#bn" overflow="visible"/></clipPath><g clip-path="url(#bo)"><defs><path id="bp" d="M98.4-785.9h1121v1030H98.4z"/></defs></g></g><g><defs><path id="bq" d="M973.4-271.4h-2.2l.9-2.1 9.1-22 .4-.9h100.9l.4.9 9.1 22 .9 2.1H973.4zm0-3h117l-1.4 2.1-9.1-22 1.4.9h-98.9l1.4-.9-9.1 22-1.3-2.1zm-22.3 23h161.5v-65H951.1v65z"/></defs><clipPath id="br"><use xlink:href="#bq" overflow="visible"/></clipPath><g clip-path="url(#br)"><defs><path id="bs" d="M973.4-272.9h117l-9.1-22h-98.8z"/></defs><clipPath id="bt"><use xlink:href="#bs" overflow="visible"/></clipPath><g clip-path="url(#bt)"><defs><path id="bu" d="M98.4-785.9h1121v1030H98.4z"/></defs></g></g></g><g><defs><path id="bv" d="M973.4-272.9h117l-9.1-22h-98.8z"/></defs><clipPath id="bw"><use xlink:href="#bv" overflow="visible"/></clipPath><g clip-path="url(#bw)"><defs><path id="bx" d="M98.4-785.9h1121v1030H98.4z"/></defs></g></g><g><defs><path id="by" d="M1058.4-304.4h-1.5v19h15v-19h-13.5zm0 3h12l-1.5-1.5v16l1.5-1.5h-12l1.5 1.5v-16l-1.5 1.5zm-21.5-23h55v59h-55v-59z"/></defs><clipPath id="bz"><use xlink:href="#by" overflow="visible"/></clipPath><g clip-path="url(#bz)"><defs><path id="bA" d="M1058.4-302.9h12v16h-12z"/></defs><clipPath id="bB"><use xlink:href="#bA" overflow="visible"/></clipPath><g clip-path="url(#bB)"><defs><path id="bC" d="M98.4-785.9h1121v1030H98.4z"/></defs></g></g></g><g><defs><path id="bD" d="M1058.4-302.9h12v16h-12z"/></defs><clipPath id="bE"><use xlink:href="#bD" overflow="visible"/></clipPath><g clip-path="url(#bE)"><defs><path id="bF" d="M98.4-785.9h1121v1030H98.4z"/></defs></g></g><g><defs><path id="bG" d="M992.4-238.4h-1.5v34h24v-34h-22.5zm0 3h21l-1.5-1.5v31l1.5-1.5h-21l1.5 1.5v-31l-1.5 1.5zm-21.5-23h64v74h-64v-74z"/></defs><clipPath id="bH"><use xlink:href="#bG" overflow="visible"/></clipPath><g clip-path="url(#bH)"><defs><path id="bI" d="M992.4-236.9h21v31h-21z"/></defs><clipPath id="bJ"><use xlink:href="#bI" overflow="visible"/></clipPath><g clip-path="url(#bJ)"><defs><path id="bK" d="M98.4-785.9h1121v1030H98.4z"/></defs></g></g></g><g><defs><path id="bL" d="M992.4-236.9h21v31h-21z"/></defs><clipPath id="bM"><use xlink:href="#bL" overflow="visible"/></clipPath><g clip-path="url(#bM)"><defs><path id="bN" d="M98.4-785.9h1121v1030H98.4z"/></defs></g></g><g><defs><path id="bO" d="M993.4-266.4h-1.5v22h22v-22h-20.5zm0 3h19l-1.5-1.5v19l1.5-1.5h-19l1.5 1.5v-19l-1.5 1.5zm-21.5-23h62v62h-62v-62z"/></defs><clipPath id="bP"><use xlink:href="#bO" overflow="visible"/></clipPath><g clip-path="url(#bP)"><defs><path id="bQ" d="M993.4-264.9h19v19h-19z"/></defs><clipPath id="bR"><use xlink:href="#bQ" overflow="visible"/></clipPath><g clip-path="url(#bR)"><defs><path id="bS" d="M98.4-785.9h1121v1030H98.4z"/></defs></g></g></g><g><defs><path id="bT" d="M993.4-264.9h19v19h-19z"/></defs><clipPath id="bU"><use xlink:href="#bT" overflow="visible"/></clipPath><g clip-path="url(#bU)"><defs><path id="bV" d="M98.4-785.9h1121v1030H98.4z"/></defs></g></g><g><defs><path id="bW" d="M998.4-261.4h-1.5v12h12v-12h-10.5zm0 3h9l-1.5-1.5v9l1.5-1.5h-9l1.5 1.5v-9l-1.5 1.5zm-21.5-23h52v52h-52v-52z"/></defs><clipPath id="bX"><use xlink:href="#bW" overflow="visible"/></clipPath><g clip-path="url(#bX)"><defs><path id="bY" d="M998.4-259.9h9v9h-9z"/></defs><clipPath id="bZ"><use xlink:href="#bY" overflow="visible"/></clipPath><g clip-path="url(#bZ)"><defs><path id="ca" d="M98.4-785.9h1121v1030H98.4z"/></defs></g></g></g><g><defs><path id="cb" d="M998.4-259.9h9v9h-9z"/></defs><clipPath id="cc"><use xlink:href="#cb" overflow="visible"/></clipPath><g clip-path="url(#cc)"><defs><path id="cd" d="M98.4-785.9h1121v1030H98.4z"/></defs></g></g><g><defs><path id="ce" d="M1023.4-266.4h-1.5v22h22v-22h-20.5zm0 3h19l-1.5-1.5v19l1.5-1.5h-19l1.5 1.5v-19l-1.5 1.5zm-21.5-23h62v62h-62v-62z"/></defs><clipPath id="cf"><use xlink:href="#ce" overflow="visible"/></clipPath><g clip-path="url(#cf)"><defs><path id="cg" d="M1023.4-264.9h19v19h-19z"/></defs><clipPath id="ch"><use xlink:href="#cg" overflow="visible"/></clipPath><g clip-path="url(#ch)"><defs><path id="ci" d="M98.4-785.9h1121v1030H98.4z"/></defs></g></g></g><g><defs><path id="cj" d="M1023.4-264.9h19v19h-19z"/></defs><clipPath id="ck"><use xlink:href="#cj" overflow="visible"/></clipPath><g clip-path="url(#ck)"><defs><path id="cl" d="M98.4-785.9h1121v1030H98.4z"/></defs></g></g><g><defs><path id="cm" d="M1052.4-266.4h-1.5v22h22v-22h-20.5zm0 3h19l-1.5-1.5v19l1.5-1.5h-19l1.5 1.5v-19l-1.5 1.5zm-21.5-23h62v62h-62v-62z"/></defs><clipPath id="cn"><use xlink:href="#cm" overflow="visible"/></clipPath><g clip-path="url(#cn)"><defs><path id="co" d="M1052.4-264.9h19v19h-19z"/></defs><clipPath id="cp"><use xlink:href="#co" overflow="visible"/></clipPath><g clip-path="url(#cp)"><defs><path id="cq" d="M98.4-785.9h1121v1030H98.4z"/></defs></g></g></g><g><defs><path id="cr" d="M1052.4-264.9h19v19h-19z"/></defs><clipPath id="cs"><use xlink:href="#cr" overflow="visible"/></clipPath><g clip-path="url(#cs)"><defs><path id="ct" d="M98.4-785.9h1121v1030H98.4z"/></defs></g></g><g><defs><path id="cu" d="M1023.4-238.4h-1.5v22h22v-22h-20.5zm0 3h19l-1.5-1.5v19l1.5-1.5h-19l1.5 1.5v-19l-1.5 1.5zm-21.5-23h62v62h-62v-62z"/></defs><clipPath id="cv"><use xlink:href="#cu" overflow="visible"/></clipPath><g clip-path="url(#cv)"><defs><path id="cw" d="M1023.4-236.9h19v19h-19z"/></defs><clipPath id="cx"><use xlink:href="#cw" overflow="visible"/></clipPath><g clip-path="url(#cx)"><defs><path id="cy" d="M98.4-785.9h1121v1030H98.4z"/></defs></g></g></g><g><defs><path id="cz" d="M1023.4-236.9h19v19h-19z"/></defs><clipPath id="cA"><use xlink:href="#cz" overflow="visible"/></clipPath><g clip-path="url(#cA)"><defs><path id="cB" d="M98.4-785.9h1121v1030H98.4z"/></defs></g></g><g><defs><path id="cC" d="M1052.4-238.4h-1.5v22h22v-22h-20.5zm0 3h19l-1.5-1.5v19l1.5-1.5h-19l1.5 1.5v-19l-1.5 1.5zm-21.5-23h62v62h-62v-62z"/></defs><clipPath id="cD"><use xlink:href="#cC" overflow="visible"/></clipPath><g clip-path="url(#cD)"><defs><path id="cE" d="M1052.4-236.9h19v19h-19z"/></defs><clipPath id="cF"><use xlink:href="#cE" overflow="visible"/></clipPath><g clip-path="url(#cF)"><defs><path id="cG" d="M98.4-785.9h1121v1030H98.4z"/></defs></g></g></g><g><defs><path id="cH" d="M1052.4-236.9h19v19h-19z"/></defs><clipPath id="cI"><use xlink:href="#cH" overflow="visible"/></clipPath><g clip-path="url(#cI)"><defs><path id="cJ" d="M98.4-785.9h1121v1030H98.4z"/></defs></g></g><g><defs><path id="cK" d="M1028.4-261.4h-1.5v12h12v-12h-10.5zm0 3h9l-1.5-1.5v9l1.5-1.5h-9l1.5 1.5v-9l-1.5 1.5zm-21.5-23h52v52h-52v-52z"/></defs><clipPath id="cL"><use xlink:href="#cK" overflow="visible"/></clipPath><g clip-path="url(#cL)"><defs><path id="cM" d="M1028.4-259.9h9v9h-9z"/></defs><clipPath id="cN"><use xlink:href="#cM" overflow="visible"/></clipPath><g clip-path="url(#cN)"><defs><path id="cO" d="M98.4-785.9h1121v1030H98.4z"/></defs></g></g></g><g><defs><path id="cP" d="M1028.4-259.9h9v9h-9z"/></defs><clipPath id="cQ"><use xlink:href="#cP" overflow="visible"/></clipPath><g clip-path="url(#cQ)"><defs><path id="cR" d="M98.4-785.9h1121v1030H98.4z"/></defs></g></g><g><defs><path id="cS" d="M1057.4-261.4h-1.5v12h12v-12h-10.5zm0 3h9l-1.5-1.5v9l1.5-1.5h-9l1.5 1.5v-9l-1.5 1.5zm-21.5-23h52v52h-52v-52z"/></defs><clipPath id="cT"><use xlink:href="#cS" overflow="visible"/></clipPath><g clip-path="url(#cT)"><defs><path id="cU" d="M1057.4-259.9h9v9h-9z"/></defs><clipPath id="cV"><use xlink:href="#cU" overflow="visible"/></clipPath><g clip-path="url(#cV)"><defs><path id="cW" d="M98.4-785.9h1121v1030H98.4z"/></defs></g></g></g><g><defs><path id="cX" d="M1057.4-259.9h9v9h-9z"/></defs><clipPath id="cY"><use xlink:href="#cX" overflow="visible"/></clipPath><g clip-path="url(#cY)"><defs><path id="cZ" d="M98.4-785.9h1121v1030H98.4z"/></defs></g></g><g><defs><path id="da" d="M1028.4-233.4h-1.5v12h12v-12h-10.5zm0 3h9l-1.5-1.5v9l1.5-1.5h-9l1.5 1.5v-9l-1.5 1.5zm-21.5-23h52v52h-52v-52z"/></defs><clipPath id="db"><use xlink:href="#da" overflow="visible"/></clipPath><g clip-path="url(#db)"><defs><path id="dc" d="M1028.4-231.9h9v9h-9z"/></defs><clipPath id="dd"><use xlink:href="#dc" overflow="visible"/></clipPath><g clip-path="url(#dd)"><defs><path id="de" d="M98.4-785.9h1121v1030H98.4z"/></defs></g></g></g><g><defs><path id="df" d="M1028.4-231.9h9v9h-9z"/></defs><clipPath id="dg"><use xlink:href="#df" overflow="visible"/></clipPath><g clip-path="url(#dg)"><defs><path id="dh" d="M98.4-785.9h1121v1030H98.4z"/></defs></g></g><g><defs><path id="di" d="M1057.4-233.4h-1.5v12h12v-12h-10.5zm0 3h9l-1.5-1.5v9l1.5-1.5h-9l1.5 1.5v-9l-1.5 1.5zm-21.5-23h52v52h-52v-52z"/></defs><clipPath id="dj"><use xlink:href="#di" overflow="visible"/></clipPath><g clip-path="url(#dj)"><defs><path id="dk" d="M1057.4-231.9h9v9h-9z"/></defs><clipPath id="dl"><use xlink:href="#dk" overflow="visible"/></clipPath><g clip-path="url(#dl)"><defs><path id="dm" d="M98.4-785.9h1121v1030H98.4z"/></defs></g></g></g><g><defs><path id="dn" d="M1057.4-231.9h9v9h-9z"/></defs><clipPath id="do"><use xlink:href="#dn" overflow="visible"/></clipPath><g clip-path="url(#do)"><defs><path id="dp" d="M98.4-785.9h1121v1030H98.4z"/></defs></g></g><g><defs><path id="dq" d="M70.5 347.5H69v90h134v-90H70.5zm0 3h131L200 349v87l1.5-1.5h-131L72 436v-87l-1.5 1.5zm-21.5-23h174v130H49v-130z"/></defs><clipPath id="dr"><use xlink:href="#dq" overflow="visible"/></clipPath><g clip-path="url(#dr)"><defs><path id="ds" d="M70.5 349h131v87h-131z"/></defs><clipPath id="dt"><use xlink:href="#ds" overflow="visible"/></clipPath><g clip-path="url(#dt)"><defs><path id="du" d="M-538.5 45h1121v1030h-1121z"/></defs></g></g></g><g><defs><path id="dv" d="M70.5 349h131v87h-131z"/></defs><clipPath id="dw"><use xlink:href="#dv" overflow="visible"/></clipPath><g clip-path="url(#dw)"><defs><path id="dx" d="M-538.5 45h1121v1030h-1121z"/></defs></g></g><g><defs><path id="dy" d="M75.5 352.5H74v80h124v-80H75.5zm0 3h121L195 354v77l1.5-1.5h-121L77 431v-77l-1.5 1.5zm-21.5-23h164v120H54v-120z"/></defs><clipPath id="dz"><use xlink:href="#dy" overflow="visible"/></clipPath><g clip-path="url(#dz)"><defs><path id="dA" d="M75.5 354h121v77h-121z"/></defs><clipPath id="dB"><use xlink:href="#dA" overflow="visible"/></clipPath><g clip-path="url(#dB)"><defs><path id="dC" d="M-538.5 45h1121v1030h-1121z"/></defs></g></g></g><g><defs><path id="dD" d="M75.5 354h121v77h-121z"/></defs><clipPath id="dE"><use xlink:href="#dD" overflow="visible"/></clipPath><g clip-path="url(#dE)"><defs><path id="dF" d="M-538.5 45h1121v1030h-1121z"/></defs></g></g><g><defs><path id="dG" d="M140.5 367.5H139v6h47v-6h-45.5zm0 3h44L183 369v3l1.5-1.5h-44l1.5 1.5v-3l-1.5 1.5zm-21.5-23h87v46h-87v-46z"/></defs><clipPath id="dH"><use xlink:href="#dG" overflow="visible"/></clipPath><g clip-path="url(#dH)"><defs><path id="dI" d="M140.5 369h44v3h-44z"/></defs><clipPath id="dJ"><use xlink:href="#dI" overflow="visible"/></clipPath><g clip-path="url(#dJ)"><defs><path id="dK" d="M-538.5 45h1121v1030h-1121z"/></defs></g></g></g><g><defs><path id="dL" d="M140.5 369h44v3h-44z"/></defs><clipPath id="dM"><use xlink:href="#dL" overflow="visible"/></clipPath><g clip-path="url(#dM)"><defs><path id="dN" d="M-538.5 45h1121v1030h-1121z"/></defs></g></g><g><defs><path id="dO" d="M140.5 373.5H139v6h47v-6h-45.5zm0 3h44L183 375v3l1.5-1.5h-44l1.5 1.5v-3l-1.5 1.5zm-21.5-23h87v46h-87v-46z"/></defs><clipPath id="dP"><use xlink:href="#dO" overflow="visible"/></clipPath><g clip-path="url(#dP)"><defs><path id="dQ" d="M140.5 375h44v3h-44z"/></defs><clipPath id="dR"><use xlink:href="#dQ" overflow="visible"/></clipPath><g clip-path="url(#dR)"><defs><path id="dS" d="M-538.5 45h1121v1030h-1121z"/></defs></g></g></g><g><defs><path id="dT" d="M140.5 375h44v3h-44z"/></defs><clipPath id="dU"><use xlink:href="#dT" overflow="visible"/></clipPath><g clip-path="url(#dU)"><defs><path id="dV" d="M-538.5 45h1121v1030h-1121z"/></defs></g></g><g><defs><path id="dW" d="M140.5 379.5H139v6h47v-6h-45.5zm0 3h44L183 381v3l1.5-1.5h-44l1.5 1.5v-3l-1.5 1.5zm-21.5-23h87v46h-87v-46z"/></defs><clipPath id="dX"><use xlink:href="#dW" overflow="visible"/></clipPath><g clip-path="url(#dX)"><defs><path id="dY" d="M140.5 381h44v3h-44z"/></defs><clipPath id="dZ"><use xlink:href="#dY" overflow="visible"/></clipPath><g clip-path="url(#dZ)"><defs><path id="ea" d="M-538.5 45h1121v1030h-1121z"/></defs></g></g></g><g><defs><path id="eb" d="M140.5 381h44v3h-44z"/></defs><clipPath id="ec"><use xlink:href="#eb" overflow="visible"/></clipPath><g clip-path="url(#ec)"><defs><path id="ed" d="M-538.5 45h1121v1030h-1121z"/></defs></g></g><g><defs><path id="ee" d="M140.5 385.5H139v6h47v-6h-45.5zm0 3h44L183 387v3l1.5-1.5h-44l1.5 1.5v-3l-1.5 1.5zm-21.5-23h87v46h-87v-46z"/></defs><clipPath id="ef"><use xlink:href="#ee" overflow="visible"/></clipPath><g clip-path="url(#ef)"><defs><path id="eg" d="M140.5 387h44v3h-44z"/></defs><clipPath id="eh"><use xlink:href="#eg" overflow="visible"/></clipPath><g clip-path="url(#eh)"><defs><path id="ei" d="M-538.5 45h1121v1030h-1121z"/></defs></g></g></g><g><defs><path id="ej" d="M140.5 387h44v3h-44z"/></defs><clipPath id="ek"><use xlink:href="#ej" overflow="visible"/></clipPath><g clip-path="url(#ek)"><defs><path id="el" d="M-538.5 45h1121v1030h-1121z"/></defs></g></g><g><defs><path id="em" d="M364.1 347.5h-1.5v90h134v-90H364.1zm0 3h131l-1.5-1.5v87l1.5-1.5h-131l1.5 1.5v-87l-1.5 1.5zm-21.5-23h174v130h-174v-130z"/></defs><clipPath id="en"><use xlink:href="#em" overflow="visible"/></clipPath><g clip-path="url(#en)"><defs><path id="eo" d="M364.1 349h131v87h-131z"/></defs><clipPath id="ep"><use xlink:href="#eo" overflow="visible"/></clipPath><g clip-path="url(#ep)"><defs><path id="eq" d="M-244.9 45h1121v1030h-1121z"/></defs></g></g></g><g><defs><path id="er" d="M364.1 349h131v87h-131z"/></defs><clipPath id="es"><use xlink:href="#er" overflow="visible"/></clipPath><g clip-path="url(#es)"><defs><path id="et" d="M-244.9 45h1121v1030h-1121z"/></defs></g></g><g><defs><path id="eu" d="M369.1 352.5h-1.5v80h124v-80H369.1zm0 3h121l-1.5-1.5v77l1.5-1.5h-121l1.5 1.5v-77l-1.5 1.5zm-21.5-23h164v120h-164v-120z"/></defs><clipPath id="ev"><use xlink:href="#eu" overflow="visible"/></clipPath><g clip-path="url(#ev)"><defs><path id="ew" d="M369.1 354h121v77h-121z"/></defs><clipPath id="ex"><use xlink:href="#ew" overflow="visible"/></clipPath><g clip-path="url(#ex)"><defs><path id="ey" d="M-244.9 45h1121v1030h-1121z"/></defs></g></g></g><g><defs><path id="ez" d="M369.1 354h121v77h-121z"/></defs><clipPath id="eA"><use xlink:href="#ez" overflow="visible"/></clipPath><g clip-path="url(#eA)"><defs><path id="eB" d="M-244.9 45h1121v1030h-1121z"/></defs></g></g><g><defs><path id="eC" d="M434.1 367.5h-1.5v6h47v-6h-45.5zm0 3h44l-1.5-1.5v3l1.5-1.5h-44l1.5 1.5v-3l-1.5 1.5zm-21.5-23h87v46h-87v-46z"/></defs><clipPath id="eD"><use xlink:href="#eC" overflow="visible"/></clipPath><g clip-path="url(#eD)"><defs><path id="eE" d="M434.1 369h44v3h-44z"/></defs><clipPath id="eF"><use xlink:href="#eE" overflow="visible"/></clipPath><g clip-path="url(#eF)"><defs><path id="eG" d="M-244.9 45h1121v1030h-1121z"/></defs></g></g></g><g><defs><path id="eH" d="M434.1 369h44v3h-44z"/></defs><clipPath id="eI"><use xlink:href="#eH" overflow="visible"/></clipPath><g clip-path="url(#eI)"><defs><path id="eJ" d="M-244.9 45h1121v1030h-1121z"/></defs></g></g><g><defs><path id="eK" d="M434.1 373.5h-1.5v6h47v-6h-45.5zm0 3h44l-1.5-1.5v3l1.5-1.5h-44l1.5 1.5v-3l-1.5 1.5zm-21.5-23h87v46h-87v-46z"/></defs><clipPath id="eL"><use xlink:href="#eK" overflow="visible"/></clipPath><g clip-path="url(#eL)"><defs><path id="eM" d="M434.1 375h44v3h-44z"/></defs><clipPath id="eN"><use xlink:href="#eM" overflow="visible"/></clipPath><g clip-path="url(#eN)"><defs><path id="eO" d="M-244.9 45h1121v1030h-1121z"/></defs></g></g></g><g><defs><path id="eP" d="M434.1 375h44v3h-44z"/></defs><clipPath id="eQ"><use xlink:href="#eP" overflow="visible"/></clipPath><g clip-path="url(#eQ)"><defs><path id="eR" d="M-244.9 45h1121v1030h-1121z"/></defs></g></g><g><defs><path id="eS" d="M434.1 379.5h-1.5v6h47v-6h-45.5zm0 3h44l-1.5-1.5v3l1.5-1.5h-44l1.5 1.5v-3l-1.5 1.5zm-21.5-23h87v46h-87v-46z"/></defs><clipPath id="eT"><use xlink:href="#eS" overflow="visible"/></clipPath><g clip-path="url(#eT)"><defs><path id="eU" d="M434.1 381h44v3h-44z"/></defs><clipPath id="eV"><use xlink:href="#eU" overflow="visible"/></clipPath><g clip-path="url(#eV)"><defs><path id="eW" d="M-244.9 45h1121v1030h-1121z"/></defs></g></g></g><g><defs><path id="eX" d="M434.1 381h44v3h-44z"/></defs><clipPath id="eY"><use xlink:href="#eX" overflow="visible"/></clipPath><g clip-path="url(#eY)"><defs><path id="eZ" d="M-244.9 45h1121v1030h-1121z"/></defs></g></g><g><defs><path id="fa" d="M434.1 385.5h-1.5v6h47v-6h-45.5zm0 3h44l-1.5-1.5v3l1.5-1.5h-44l1.5 1.5v-3l-1.5 1.5zm-21.5-23h87v46h-87v-46z"/></defs><clipPath id="fb"><use xlink:href="#fa" overflow="visible"/></clipPath><g clip-path="url(#fb)"><defs><path id="fc" d="M434.1 387h44v3h-44z"/></defs><clipPath id="fd"><use xlink:href="#fc" overflow="visible"/></clipPath><g clip-path="url(#fd)"><defs><path id="fe" d="M-244.9 45h1121v1030h-1121z"/></defs></g></g></g><g><defs><path id="ff" d="M434.1 387h44v3h-44z"/></defs><clipPath id="fg"><use xlink:href="#ff" overflow="visible"/></clipPath><g clip-path="url(#fg)"><defs><path id="fh" d="M-244.9 45h1121v1030h-1121z"/></defs></g></g><circle fill="#FFF" stroke="#0C1F2E" stroke-width="3" stroke-miterlimit="10" cx="102.2" cy="52" r="14.5"/><g><path fill="#091F2F" d="M103.611 48.535l1.556 1.555-10.96 10.96-1.556-1.555z"/></g><g><path fill="#091F2F" d="M100.515 46.404l3.606-3.606 6.081 6.08-3.606 3.607z"/></g><g><path fill="#091F2F" d="M99.538 45.247l3.607-3.606.848.849-3.606 3.606z"/></g><g><path fill="#091F2F" d="M106.822 52.724l3.606-3.606.849.848-3.607 3.606z"/></g></svg>