<svg xmlns="http://www.w3.org/2000/svg" viewBox="0 0 276 137"><path fill="#1B1B1B" d="M137.7 79.5h-16.2V59.8h16.2v19.7zm-15.8-.4h15.5v-19h-15.5v19zm32.8.4h-16.2V59.8h16.2v19.7zm-15.9-.4h15.5v-19h-15.5v19zm32.6.4h-16.2V59.8h16.2v19.7zm-15.8-.4H171v-19h-15.5v19zm32.7.4h-16.2V59.8h16.2v19.7zm-15.8-.4H188v-19h-15.5v19zm32.6.4h-16.2V59.8h16.2v19.7zm-15.8-.4h15.5v-19h-15.5v19zM82.1 63.3h.7c.1 0 .3 0 .6.1l.3.1c.1 0 .3.1.5.3.1.1.3.2.5.4l.6.6.6.9c.1.1.1.2.1.2l-1.3.6c-.3.2-.6.3-.7.4-.1 0-.2-.1-.3-.4-.1-.2-.3-.5-.8-.8-.5-.3-.8-.4-1.1-.4h-.3c-.1 0-.3.1-.4.1-.1 0-.2.1-.3.1 0 0-.1 0-.2.1-.1 0-.2.1-.3.2l-.3.3c-.2.2-.4.6-.6 1.1 0 .1-.1.2-.1.2 0 .1-.1.4-.2.8l-.1.2v2.1c0 .1 0 .2.1.4.1.4.2.8.3 1 .1.2.1.3.2.4l.2.3s.1.1.2.3l.2.2c.3.3.6.5.8.6.3.1.5.2.6.2 0 0 .2.1.3.1h.1s.1 0 .3-.1c.3-.1.5-.2.6-.3.2-.2.5-.4.8-.8.2-.3.4-.7.5-1.2.1 0 .6.2 1.8.5.1 0 .2.1.4.1l.1.1-.1.4c-.1.2-.2.5-.3.7-.1.3-.4.6-.7 1.1-.3.4-.6.7-.9.8-.3.2-.5.4-.6.5-.1 0-.2.1-.5.3-.1.1-.3.1-.4.2-.1 0-.3.1-.5.1h-.4c-.5 0-.8-.1-.8-.1h-.1c-.2 0-.4-.1-.5-.1-.3-.1-.5-.2-.7-.3-.3-.1-.4-.3-.6-.4 0 0-.4-.3-.9-.8-.3-.3-.4-.6-.6-.8-.1-.2-.1-.3-.2-.4l-.1-.3s-.1-.1-.1-.3c0 0 0-.1-.1-.1 0-.1-.1-.3-.2-.8 0-.2-.1-.6-.2-1.1v-.2c0-.3-.1-.8-.1-1.6V69c0-.1 0-.4.1-.7 0-.1 0-.2.1-.4.1-.5.3-.9.4-1.2.1-.2.2-.4.3-.5.2-.4.4-.6.6-.9.1 0 .1-.1.2-.3l.4-.4c.2-.2.4-.3.6-.4.3-.2.6-.4 1-.5.2-.1.3-.1.4-.1h.1c.1 0 .2 0 .5-.1.4-.2.5-.2.5-.2zm-3.4 2.1zm7 8.1zm5-10.2h1v13h-2.3V63.7h1.3v-.4zm-.7 3.5c.1 0 .1 0 0 0zm.4 6zm1.3-7.5c.1 0 0 0 0 0zm.3-2zm12.7 0v2.2H101s-.1 0-.1.1v10.5h-2.1V65.8h-2.7v-2h7.8c.3-.5.5-.5.8-.5-.1 0-.1 0 0 0zM98.4 65zm18-1.6h.8s0 .1-.1.2l-1 2-.3.7c-.1.3-.3.7-.5 1.2l-.3.6c-.4.9-.7 1.6-.9 2.1l-.4 1c-.1.1-.1.2-.1.2v3.9h-2.2v-.7.4-2.9c0-.4 0-.6-.1-.6-.1-.2-.3-.5-.5-1l-.6-1.2-.7-1.4s-.3-.5-.7-1.4c-.1-.1-.3-.6-.7-1.4l-.6-1.1c-.1-.1-.1-.2-.1-.2h1.8s.1.1.1.2c.3.5.4.8.5 1 .1.1.1.2.2.4 0 0 .2.3.5.9 0 0 0 .1.1.3l.9 1.8c0 .1.1.2.1.3 0 0 .1.1.1.3 0 0 .1-.3.3-.7.1-.3.2-.5.3-.6.1-.3.5-1.1 1.1-2.4.4-.8.5-1.2.5-1.3 0-.1.1-.1.1-.1h1.1l1.3-.5zm-6.4 1.3zm1.3 6zm.2.8z"/><path fill="#1B1B1B" d="M130.1 63.6c.3 0 .6.1 1 .2.2.1.4.1.4.2.1 0 .3.2.6.4.1.1.3.3.7.8.3.4.5.8.6 1.1v.1c-.2.1-.3.2-.4.2 0 0-.1.1-.3.1-.1 0-.3.1-.7.3l-.6.3-.1-.1c-.1-.2-.3-.5-.5-.7-.2-.2-.3-.3-.5-.4-.2-.1-.4-.2-.8-.2h-.1c-.1 0-.3 0-.5.1 0 0-.1 0-.3.1-.2.1-.3.1-.3.1-.2.2-.3.3-.4.5-.1.1-.1.2-.1.4 0 .4.1.6.2.8.2.3.4.5.7.6.2.1.4.2.8.3.7.2 1.2.4 1.5.5.3.1.5.2.7.3.3.1.5.3.7.5.3.3.4.5.5.6.2.3.3.5.4.7.1.3.2.5.2.6v.3c0 .5-.1.9-.3 1.3-.1.2-.1.3-.2.3 0 0 0 .1-.1.2s-.1.2-.2.2c0 0-.2.1-.4.4l-.3.3c-.2.2-.4.3-.5.4 0 0-.1.1-.2.1 0 0-.1.1-.3.2-.2.1-.5.2-.7.2-.2.1-.4.1-.6.1h-.9c-.4 0-.7-.1-1-.2l-.6-.3c-.4-.2-.7-.5-.9-.7-.3-.3-.5-.6-.6-.7l-.3-.5s0-.1-.1-.2c.1-.1.1-.1.2-.1 0 0 .1-.1.4-.3l.6-.3c.1-.1.3-.2.6-.3.1.2.2.3.2.3 0 .1.2.2.4.4.1.1.2.2.5.4l.6.3c.2 0 .4.1.7.1.3 0 .6-.1.8-.2.2-.1.4-.2.6-.4.2-.3.3-.6.3-.7v-.2c0-.3-.2-.7-.6-1 0-.1-.4-.3-1.2-.6-.2-.1-.5-.2-.9-.3-.2-.1-.5-.2-1-.4-.2-.1-.5-.3-.8-.6-.2-.2-.3-.3-.4-.5-.1-.1-.2-.3-.4-.6-.1-.3-.2-.5-.2-.6v-.2c0-.2-.1-.3-.1-.4v-.5c.1-.5.2-.8.2-.9.1-.2.2-.5.5-.9.4-.4.7-.6.8-.7.2-.2.5-.3.9-.4 0 0 .2-.1.4-.1.2-.1.3-.1.5-.1h1.2zm-3.7 10.2zm1.9-8.3zm4.4.4zm14.2-2.4h.7c.1 0 .3 0 .6.1l.3.1c.1 0 .3.1.5.3.1.1.3.2.5.4.2.1.4.3.6.6.2.3.4.5.6.8.1.1.1.2.1.2l-1.3.6c-.3.2-.6.3-.7.3-.1 0-.2-.1-.3-.4-.1-.2-.3-.4-.7-.7-.5-.3-.8-.4-1-.4h-.3c-.1 0-.3.1-.4.1-.1 0-.2.1-.3.1 0 0-.1 0-.2.1-.1 0-.2.1-.3.2l-.3.3c-.2.2-.4.6-.6 1.1 0 .1-.1.2-.1.2 0 .1-.1.4-.2.7l-.1.2v2.1c0 .1 0 .2.1.4.1.4.2.7.2 1 .1.1.1.3.2.4l.2.3s.1.1.2.3l.2.2c.3.3.5.5.8.6.3.1.5.2.5.2s.1.1.3.1h.1s.1 0 .2-.1c.3-.1.5-.2.6-.3.2-.2.5-.4.8-.8.2-.3.3-.7.5-1.2.1 0 .6.2 1.7.5.1 0 .2.1.4.1l.1.1-.1.4-.3.6c-.1.3-.4.6-.7 1-.3.4-.6.6-.8.8-.2.2-.4.4-.6.5-.1 0-.2.1-.5.3-.1.1-.2.1-.4.2-.1 0-.3.1-.5.1h-.4c-.5 0-.7-.1-.8-.1h-.1c-.2 0-.4-.1-.5-.1-.2-.1-.5-.2-.6-.3-.2-.1-.4-.2-.6-.4 0 0-.3-.3-.9-.8-.2-.3-.4-.5-.6-.8-.1-.2-.1-.3-.2-.4l-.1-.3s-.1-.1-.1-.3c0 0 0-.1-.1-.1 0-.1-.1-.3-.2-.7 0-.2-.1-.5-.2-1v-.2c0-.3-.1-.8-.1-1.6V69c0-.1 0-.4.1-.7 0-.1 0-.2.1-.4.1-.4.2-.8.4-1.2.1-.2.2-.4.3-.5.2-.3.4-.6.6-.8.1 0 .1-.1.2-.3l.4-.4c.2-.2.3-.3.5-.4.2-.2.6-.4 1-.5.2-.1.3-.1.4-.1h.1c.1 0 .2 0 .5-.1.5-.1.5-.1.6-.1zm-3.3 2.1zm6.8 7.8zm13.1-9.9h.4c.4 0 .7.1.8.1.3.1.4.2.5.2.3.2.5.3.8.4l.2.2.5.5c.3.3.5.5.6.7.1.1.2.3.4.5 0 0 0 .1.1.3.1.3.3.6.3.9 0 .2.1.3.1.5.1.4.2.8.2 1v2.3s0 .2-.1.5c-.1.7-.3 1.1-.4 1.4-.1.4-.3.7-.4.9-.1.2-.3.4-.5.6-.1 0-.2.2-.5.5-.1.1-.3.2-.5.5-.2.1-.4.3-.7.4-.1 0-.2.1-.4.2-.1 0-.2.1-.5.1h-.8c-.3 0-.7-.1-1.2-.3 0 0-.1-.1-.2-.1-.2-.1-.5-.2-.7-.4-.1 0-.3-.2-.6-.6-.5-.5-.8-1-.9-1.3-.1-.1-.1-.2-.2-.4 0 0-.1-.2-.2-.5s-.2-.7-.3-1.3V69c0-.3.1-.6.1-.9V68c.1-.6.2-1 .3-1.2.2-.5.4-.9.6-1.3.2-.2.4-.6.9-1 .4-.4.7-.6.9-.7.2-.1.6-.3 1.1-.4-.2.1 0 .1.3.1-.1 0 0 0 0 0zm-3.1 6.7zm3.1-4.5h-.1c-.2 0-.4.1-.5.2 0 0-.1.1-.3.2-.1.1-.2.1-.3.2-.1 0-.2.1-.3.3-.3.4-.5.6-.5.7 0 0-.1.1-.2.3-.1.2-.2.4-.2.5 0 0-.1.2-.1.4 0 0-.1.3-.1.8v.8c0 .2 0 .4.1.8v.1c.2.8.4 1.4.8 2.1l.3.3c.3.2.4.4.5.4.3.2.5.3.7.3h.4c.2 0 .4-.1.5-.1.4-.2.7-.3.8-.5.2-.2.4-.3.4-.5.1-.1.2-.3.4-.7.1-.1.2-.4.4-1.1 0-.1.1-.3.1-.6v-1.2c-.1-.8-.3-1.4-.5-1.9 0-.1-.2-.4-.5-.8l-.3-.3c-.3-.3-.6-.5-.7-.5-.1-.1-.3-.1-.5-.2h-.3zm-1.5.1zm1.1 8.9s0-.1 0 0zm18.7-11.2l.6.2c.3.1.4.2.5.2.2.1.5.3.7.6.2.2.4.3.5.5.2.3.4.6.5.8.2.5.4.9.4 1.1v.3c0 .3-.1.7-.2 1.2l-.1.3c-.1.2-.2.3-.2.4-.1.2-.3.4-.5.7l-.3.3s-.1.1-.3.2c-.1.1-.2.1-.4.2l-.2.1c-.1 0-.1 0-.1.1.1.4.3.7.5 1.1l.2.4c.7 1.7 1.3 3 1.6 3.9l.1.1h-2.2s-.1-.3-.4-.8c0 0-.1-.1-.1-.2-.2-.6-.6-1.4-1.1-2.5-.4-.9-.6-1.5-.7-1.6 0-.1 0-.1-.1-.1h-1.1c-.1 0-.1 0-.1.1V76h-2v-.1.1-12.3h4.5c-.1-.2-.1-.2 0-.2zm-3.8 5.9zm.2 3.5zm.5 2.6s.1 0 0 0zm2-9.8H179v3h1.5c.4 0 .7-.1.8-.1 0 0 .1-.1.2-.1l.3-.2.3-.3.2-.4s.1-.2.1-.4v-.3c0-.2-.1-.3-.2-.4-.1-.2-.2-.3-.4-.4-.2-.2-.5-.3-.8-.3h-.3v-.1c.1 0 .1 0 0 0 .1 0 .1 0 0 0zm-1.6-.2c0 .1 0 .1 0 0zm2 4.8s0-.1 0 0zm16.8-6.8h2.9v1.8c0 .1 0 .2-.1.2h-1.9.1-3.3s-.1 0-.1.1v2.9h4.1v2.2h-.1v.1h-.6.1-3v3s0 .1.1.1h5.8v1.9h-7.2v-4.9.1-6.9h3.6c-.5-.6-.4-.6-.4-.6zm-4.5.5c.1 0 .1 0 0 0zm.4 8.2zm.2 1.7zm5 .2c0-.1 0 0 0 0zm2.2-8.5zm10-3.6c0 1.2-1 2.2-2.2 2.2-1.2 0-2.2-1-2.2-2.2s1-2.2 2.2-2.2c1.3 0 2.2 1 2.2 2.2zm-.3 0c0-1-.8-1.8-1.8-1.8s-1.8.8-1.8 1.8.8 1.8 1.8 1.8 1.8-.9 1.8-1.8zm-1.4.3l.5.7h-.4l-.4-.7h-.6v.7h-.4v-2.2h.9c.6 0 .9.3.9.8 0 .3-.2.5-.5.7zm-.4-.3c.3 0 .5-.2.5-.5s-.2-.4-.5-.4h-.5v.9h.5z"/></svg>