<svg xmlns="http://www.w3.org/2000/svg" xmlns:xlink="http://www.w3.org/1999/xlink" viewBox="0 0 276 137"><defs><circle id="a" cx="142.1" cy="70.5" r="50.5"/></defs><clipPath id="b"><use xlink:href="#a" overflow="visible"/></clipPath><g clip-path="url(#b)"><defs><path id="c" d="M-32.4-665.5h1121v1030h-1121z"/></defs><clipPath id="d"><use xlink:href="#c" overflow="visible"/></clipPath><circle clip-path="url(#d)" fill="none" stroke="#0F1F2D" stroke-width="6" stroke-linecap="round" stroke-miterlimit="10" cx="142.1" cy="70.5" r="50.5"/></g><defs><circle id="e" cx="142.1" cy="70.5" r="43.5"/></defs><clipPath id="f"><use xlink:href="#e" overflow="visible"/></clipPath><g clip-path="url(#f)"><defs><path id="g" d="M-32.4-665.5h1121v1030h-1121z"/></defs><clipPath id="h"><use xlink:href="#g" overflow="visible"/></clipPath><circle clip-path="url(#h)" fill="none" stroke="#0F1F2D" stroke-width="6" stroke-linecap="round" stroke-miterlimit="10" cx="142.1" cy="70.5" r="43.5"/></g><defs><path id="i" d="M-453.3-189.5c-24.6 0-44.6-20-44.6-44.6s20-44.6 44.6-44.6 44.6 20 44.6 44.6-20 44.6-44.6 44.6zm0 2.7c26.1 0 47.3-21.2 47.3-47.3s-21.2-47.3-47.3-47.3-47.3 21.2-47.3 47.3 21.2 47.3 47.3 47.3zm-65.5-112.8h131v131h-131v-131z"/></defs><clipPath id="j"><use xlink:href="#i" overflow="visible"/></clipPath><g clip-path="url(#j)"><defs><circle id="k" cx="-453.3" cy="-234.1" r="45.9"/></defs><clipPath id="l"><use xlink:href="#k" overflow="visible"/></clipPath><g clip-path="url(#l)"><defs><path id="m" d="M-612-903.7H407.8v937H-612z"/></defs></g></g><defs><circle id="n" cx="-453.3" cy="-234.1" r="45.9"/></defs><clipPath id="o"><use xlink:href="#n" overflow="visible"/></clipPath><g clip-path="url(#o)"><defs><path id="p" d="M-612-903.7H407.8v937H-612z"/></defs></g><defs><circle id="q" cx="-453.3" cy="-234.1" r="39.6"/></defs><clipPath id="r"><use xlink:href="#q" overflow="visible"/></clipPath><g clip-path="url(#r)"><defs><path id="s" d="M-612-903.7H407.8v937H-612z"/></defs></g><defs><path id="t" d="M85.5-122.8H84v84h108v-84H85.5zm0 3h105l-1.5-1.5v81l1.5-1.5h-105l1.5 1.5v-81l-1.5 1.5zm-21.5-23h148v124H64v-124z"/></defs><clipPath id="u"><use xlink:href="#t" overflow="visible"/></clipPath><g clip-path="url(#u)"><defs><path id="v" d="M85.5-121.3h105v81h-105z"/></defs><clipPath id="w"><use xlink:href="#v" overflow="visible"/></clipPath><g clip-path="url(#w)"><defs><path id="x" d="M-795.5-620.3h1121v1030h-1121z"/></defs></g></g><defs><path id="y" d="M85.5-121.3h105v81h-105z"/></defs><clipPath id="z"><use xlink:href="#y" overflow="visible"/></clipPath><g clip-path="url(#z)"><defs><path id="A" d="M-795.5-620.3h1121v1030h-1121z"/></defs></g><defs><path id="B" d="M79.5-105.8h-2.2l.9-2.1 9.1-22 .4-.9h100.9l.4.9 9.1 22 .9 2.1H79.5zm0-3h117l-1.4 2.1-9.1-22 1.4.9H88.6l1.4-.9-9.1 22-1.4-2.1zm-22.2 23h161.5v-65H57.3v65z"/></defs><clipPath id="C"><use xlink:href="#B" overflow="visible"/></clipPath><g clip-path="url(#C)"><defs><path id="D" d="M79.5-107.3h117l-9.1-22H88.6z"/></defs><clipPath id="E"><use xlink:href="#D" overflow="visible"/></clipPath><g clip-path="url(#E)"><defs><path id="F" d="M-795.5-620.3h1121v1030h-1121z"/></defs></g></g><defs><path id="G" d="M79.5-107.3h117l-9.1-22H88.6z"/></defs><clipPath id="H"><use xlink:href="#G" overflow="visible"/></clipPath><g clip-path="url(#H)"><defs><path id="I" d="M-795.5-620.3h1121v1030h-1121z"/></defs></g><defs><path id="J" d="M164.5-138.8H163v19h15v-19h-13.5zm0 3h12l-1.5-1.5v16l1.5-1.5h-12l1.5 1.5v-16l-1.5 1.5zm-21.5-23h55v59h-55v-59z"/></defs><clipPath id="K"><use xlink:href="#J" overflow="visible"/></clipPath><g clip-path="url(#K)"><defs><path id="L" d="M164.5-137.3h12v16h-12z"/></defs><clipPath id="M"><use xlink:href="#L" overflow="visible"/></clipPath><g clip-path="url(#M)"><defs><path id="N" d="M-795.5-620.3h1121v1030h-1121z"/></defs></g></g><defs><path id="O" d="M164.5-137.3h12v16h-12z"/></defs><clipPath id="P"><use xlink:href="#O" overflow="visible"/></clipPath><g clip-path="url(#P)"><defs><path id="Q" d="M-795.5-620.3h1121v1030h-1121z"/></defs></g><defs><path id="R" d="M98.5-72.8H97v34h24v-34H98.5zm0 3h21l-1.5-1.5v31l1.5-1.5h-21l1.5 1.5v-31l-1.5 1.5zM77-92.8h64v74H77v-74z"/></defs><clipPath id="S"><use xlink:href="#R" overflow="visible"/></clipPath><g clip-path="url(#S)"><defs><path id="T" d="M98.5-71.3h21v31h-21z"/></defs><clipPath id="U"><use xlink:href="#T" overflow="visible"/></clipPath><g clip-path="url(#U)"><defs><path id="V" d="M-795.5-620.3h1121v1030h-1121z"/></defs></g></g><defs><path id="W" d="M98.5-71.3h21v31h-21z"/></defs><clipPath id="X"><use xlink:href="#W" overflow="visible"/></clipPath><g clip-path="url(#X)"><defs><path id="Y" d="M-795.5-620.3h1121v1030h-1121z"/></defs></g><g><defs><path id="Z" d="M99.5-100.8H98v22h22v-22H99.5zm0 3h19l-1.5-1.5v19l1.5-1.5h-19l1.5 1.5v-19l-1.5 1.5zm-21.5-23h62v62H78v-62z"/></defs><clipPath id="aa"><use xlink:href="#Z" overflow="visible"/></clipPath><g clip-path="url(#aa)"><defs><path id="ab" d="M99.5-99.3h19v19h-19z"/></defs><clipPath id="ac"><use xlink:href="#ab" overflow="visible"/></clipPath><g clip-path="url(#ac)"><defs><path id="ad" d="M-795.5-620.3h1121v1030h-1121z"/></defs></g></g></g><g><defs><path id="ae" d="M99.5-99.3h19v19h-19z"/></defs><clipPath id="af"><use xlink:href="#ae" overflow="visible"/></clipPath><g clip-path="url(#af)"><defs><path id="ag" d="M-795.5-620.3h1121v1030h-1121z"/></defs></g></g><g><defs><path id="ah" d="M104.5-95.8H103v12h12v-12h-10.5zm0 3h9l-1.5-1.5v9l1.5-1.5h-9l1.5 1.5v-9l-1.5 1.5zm-21.5-23h52v52H83v-52z"/></defs><clipPath id="ai"><use xlink:href="#ah" overflow="visible"/></clipPath><g clip-path="url(#ai)"><defs><path id="aj" d="M104.5-94.3h9v9h-9z"/></defs><clipPath id="ak"><use xlink:href="#aj" overflow="visible"/></clipPath><g clip-path="url(#ak)"><defs><path id="al" d="M-795.5-620.3h1121v1030h-1121z"/></defs></g></g></g><g><defs><path id="am" d="M104.5-94.3h9v9h-9z"/></defs><clipPath id="an"><use xlink:href="#am" overflow="visible"/></clipPath><g clip-path="url(#an)"><defs><path id="ao" d="M-795.5-620.3h1121v1030h-1121z"/></defs></g></g><g><defs><path id="ap" d="M129.5-100.8H128v22h22v-22h-20.5zm0 3h19l-1.5-1.5v19l1.5-1.5h-19l1.5 1.5v-19l-1.5 1.5zm-21.5-23h62v62h-62v-62z"/></defs><clipPath id="aq"><use xlink:href="#ap" overflow="visible"/></clipPath><g clip-path="url(#aq)"><defs><path id="ar" d="M129.5-99.3h19v19h-19z"/></defs><clipPath id="as"><use xlink:href="#ar" overflow="visible"/></clipPath><g clip-path="url(#as)"><defs><path id="at" d="M-795.5-620.3h1121v1030h-1121z"/></defs></g></g></g><g><defs><path id="au" d="M129.5-99.3h19v19h-19z"/></defs><clipPath id="av"><use xlink:href="#au" overflow="visible"/></clipPath><g clip-path="url(#av)"><defs><path id="aw" d="M-795.5-620.3h1121v1030h-1121z"/></defs></g></g><g><defs><path id="ax" d="M158.5-100.8H157v22h22v-22h-20.5zm0 3h19l-1.5-1.5v19l1.5-1.5h-19l1.5 1.5v-19l-1.5 1.5zm-21.5-23h62v62h-62v-62z"/></defs><clipPath id="ay"><use xlink:href="#ax" overflow="visible"/></clipPath><g clip-path="url(#ay)"><defs><path id="az" d="M158.5-99.3h19v19h-19z"/></defs><clipPath id="aA"><use xlink:href="#az" overflow="visible"/></clipPath><g clip-path="url(#aA)"><defs><path id="aB" d="M-795.5-620.3h1121v1030h-1121z"/></defs></g></g></g><g><defs><path id="aC" d="M158.5-99.3h19v19h-19z"/></defs><clipPath id="aD"><use xlink:href="#aC" overflow="visible"/></clipPath><g clip-path="url(#aD)"><defs><path id="aE" d="M-795.5-620.3h1121v1030h-1121z"/></defs></g></g><g><defs><path id="aF" d="M129.5-72.8H128v22h22v-22h-20.5zm0 3h19l-1.5-1.5v19l1.5-1.5h-19l1.5 1.5v-19l-1.5 1.5zm-21.5-23h62v62h-62v-62z"/></defs><clipPath id="aG"><use xlink:href="#aF" overflow="visible"/></clipPath><g clip-path="url(#aG)"><defs><path id="aH" d="M129.5-71.3h19v19h-19z"/></defs><clipPath id="aI"><use xlink:href="#aH" overflow="visible"/></clipPath><g clip-path="url(#aI)"><defs><path id="aJ" d="M-795.5-620.3h1121v1030h-1121z"/></defs></g></g></g><g><defs><path id="aK" d="M129.5-71.3h19v19h-19z"/></defs><clipPath id="aL"><use xlink:href="#aK" overflow="visible"/></clipPath><g clip-path="url(#aL)"><defs><path id="aM" d="M-795.5-620.3h1121v1030h-1121z"/></defs></g></g><g><defs><path id="aN" d="M158.5-72.8H157v22h22v-22h-20.5zm0 3h19l-1.5-1.5v19l1.5-1.5h-19l1.5 1.5v-19l-1.5 1.5zm-21.5-23h62v62h-62v-62z"/></defs><clipPath id="aO"><use xlink:href="#aN" overflow="visible"/></clipPath><g clip-path="url(#aO)"><defs><path id="aP" d="M158.5-71.3h19v19h-19z"/></defs><clipPath id="aQ"><use xlink:href="#aP" overflow="visible"/></clipPath><g clip-path="url(#aQ)"><defs><path id="aR" d="M-795.5-620.3h1121v1030h-1121z"/></defs></g></g></g><g><defs><path id="aS" d="M158.5-71.3h19v19h-19z"/></defs><clipPath id="aT"><use xlink:href="#aS" overflow="visible"/></clipPath><g clip-path="url(#aT)"><defs><path id="aU" d="M-795.5-620.3h1121v1030h-1121z"/></defs></g></g><g><defs><path id="aV" d="M134.5-95.8H133v12h12v-12h-10.5zm0 3h9l-1.5-1.5v9l1.5-1.5h-9l1.5 1.5v-9l-1.5 1.5zm-21.5-23h52v52h-52v-52z"/></defs><clipPath id="aW"><use xlink:href="#aV" overflow="visible"/></clipPath><g clip-path="url(#aW)"><defs><path id="aX" d="M134.5-94.3h9v9h-9z"/></defs><clipPath id="aY"><use xlink:href="#aX" overflow="visible"/></clipPath><g clip-path="url(#aY)"><defs><path id="aZ" d="M-795.5-620.3h1121v1030h-1121z"/></defs></g></g></g><g><defs><path id="ba" d="M134.5-94.3h9v9h-9z"/></defs><clipPath id="bb"><use xlink:href="#ba" overflow="visible"/></clipPath><g clip-path="url(#bb)"><defs><path id="bc" d="M-795.5-620.3h1121v1030h-1121z"/></defs></g></g><g><defs><path id="bd" d="M163.5-95.8H162v12h12v-12h-10.5zm0 3h9l-1.5-1.5v9l1.5-1.5h-9l1.5 1.5v-9l-1.5 1.5zm-21.5-23h52v52h-52v-52z"/></defs><clipPath id="be"><use xlink:href="#bd" overflow="visible"/></clipPath><g clip-path="url(#be)"><defs><path id="bf" d="M163.5-94.3h9v9h-9z"/></defs><clipPath id="bg"><use xlink:href="#bf" overflow="visible"/></clipPath><g clip-path="url(#bg)"><defs><path id="bh" d="M-795.5-620.3h1121v1030h-1121z"/></defs></g></g></g><g><defs><path id="bi" d="M163.5-94.3h9v9h-9z"/></defs><clipPath id="bj"><use xlink:href="#bi" overflow="visible"/></clipPath><g clip-path="url(#bj)"><defs><path id="bk" d="M-795.5-620.3h1121v1030h-1121z"/></defs></g></g><g><defs><path id="bl" d="M134.5-67.8H133v12h12v-12h-10.5zm0 3h9l-1.5-1.5v9l1.5-1.5h-9l1.5 1.5v-9l-1.5 1.5zm-21.5-23h52v52h-52v-52z"/></defs><clipPath id="bm"><use xlink:href="#bl" overflow="visible"/></clipPath><g clip-path="url(#bm)"><defs><path id="bn" d="M134.5-66.3h9v9h-9z"/></defs><clipPath id="bo"><use xlink:href="#bn" overflow="visible"/></clipPath><g clip-path="url(#bo)"><defs><path id="bp" d="M-795.5-620.3h1121v1030h-1121z"/></defs></g></g></g><g><defs><path id="bq" d="M134.5-66.3h9v9h-9z"/></defs><clipPath id="br"><use xlink:href="#bq" overflow="visible"/></clipPath><g clip-path="url(#br)"><defs><path id="bs" d="M-795.5-620.3h1121v1030h-1121z"/></defs></g></g><g><defs><path id="bt" d="M163.5-67.8H162v12h12v-12h-10.5zm0 3h9l-1.5-1.5v9l1.5-1.5h-9l1.5 1.5v-9l-1.5 1.5zm-21.5-23h52v52h-52v-52z"/></defs><clipPath id="bu"><use xlink:href="#bt" overflow="visible"/></clipPath><g clip-path="url(#bu)"><defs><path id="bv" d="M163.5-66.3h9v9h-9z"/></defs><clipPath id="bw"><use xlink:href="#bv" overflow="visible"/></clipPath><g clip-path="url(#bw)"><defs><path id="bx" d="M-795.5-620.3h1121v1030h-1121z"/></defs></g></g></g><g><defs><path id="by" d="M163.5-66.3h9v9h-9z"/></defs><clipPath id="bz"><use xlink:href="#by" overflow="visible"/></clipPath><g clip-path="url(#bz)"><defs><path id="bA" d="M-795.5-620.3h1121v1030h-1121z"/></defs></g></g><path fill="#091F2F" d="M149.605 60.552l4.313 4.313-30.83 30.83-4.312-4.313z"/><path fill="#091F2F" d="M141.152 54.421l10.182-10.182 17.042 17.041-10.183 10.182zM138.078 51.201L148.26 41.02l2.404 2.404-10.182 10.182zM158.868 72.212l10.183-10.182 2.404 2.404-10.183 10.182z"/></svg>