<svg xmlns="http://www.w3.org/2000/svg" xmlns:xlink="http://www.w3.org/1999/xlink" viewBox="0 0 276 137"><defs><circle id="a" cx="-454" cy="-88.5" r="50.5"/></defs><clipPath id="b"><use xlink:href="#a" overflow="visible"/></clipPath><g clip-path="url(#b)"><defs><path id="c" d="M-628.5-824.5h1121v1030h-1121z"/></defs></g><g><defs><circle id="d" cx="-454" cy="-88.5" r="43.5"/></defs><clipPath id="e"><use xlink:href="#d" overflow="visible"/></clipPath><g clip-path="url(#e)"><defs><path id="f" d="M-628.5-824.5h1121v1030h-1121z"/></defs></g></g><g><g fill="#FFF" stroke="#091F2F" stroke-width="3" stroke-linecap="round" stroke-miterlimit="10"><path d="M171.1 110.7h-51.2l-4.5-73.8h60.2z"/><path d="M112.7 36.9h65.6v6.2h-65.6z"/></g><path fill="#FFF" stroke="#1B1B1B" stroke-width="3" stroke-linecap="round" stroke-miterlimit="10" d="M114.3 61.1h5.7v17.1h-5.7z"/><path fill="#FFF" stroke="#1B1B1B" stroke-width="3" stroke-linecap="round" stroke-miterlimit="10" d="M111.8 69.6h11.3v17.1h-11.3z"/><path fill="#FFF" stroke="#1B1B1B" stroke-width="3" stroke-linecap="round" stroke-miterlimit="10" d="M126.5 110.7H99.3v-26l8.1-10.2 19.1.3zM102.7 53.6h20.4v7.5h-20.4z"/><path fill="#1B1B1B" d="M110.2 61.7l-5.7 6.1v-6zM97.7 54.2h5V60h-5z"/><circle fill="#FFF" stroke="#091F2F" stroke-width="3" stroke-linecap="round" stroke-miterlimit="10" cx="145.8" cy="56.7" r="4"/><path fill="none" stroke="#091F2F" stroke-width="3" stroke-linecap="round" stroke-miterlimit="10" d="M175.6 86.1l-29.8-29.4"/></g></svg>