<svg xmlns="http://www.w3.org/2000/svg" viewBox="0 0 276 137"><g data-name="Layer 1" stroke="#0c1f2e" stroke-miterlimit="10"><circle cx="118.15" cy="53.56" r="13.01" transform="rotate(-52.17 118.15 53.563)" fill="#ffc50a" stroke-width="3"/><path fill="none" stroke-linecap="round" stroke-width="3" d="M120.13 70.63l1.25 9.9m-6.57-53.92l1.25 9.9m-8.43 30.94l-6.12 7.88m32.28-43.52l-6.12 7.88m-21.97 2.77l-7.88-6.12m41.65 34.44l-7.89-6.12m-30.44-9.07l-9.9 1.25m53.92-6.57l-9.9 1.25"/><path fill="#d2d2d2" stroke-linecap="round" stroke-width="3" d="M120.2 82.55l-2.96 6.76m14.2 14.81l-1.48 3.38m-11.02-2.19l-1.48 3.38m8.73-6.46l-2.96 6.76M136 92.68l-2.97 6.76m5.81 7.27l-2.96 6.76"/><path d="M140.32 101.6l2.25-7.43-3.49-.31 3.92-8.55 4.82.09-2.88 5.79 4.34.62-8.58 10c-.2.24-.46.06-.38-.21zm-19.52-2.08l3.55-6.91-3.35-.93 5.34-7.68 4.73 1-3.87 5.17 4.15 1.4-10.24 8.33c-.21.1-.44-.13-.31-.38z" fill="#ffc50a" stroke-width="2.5"/><path d="M176.34 75.79a7.78 7.78 0 0 1-1 .82 5.77 5.77 0 0 1-8 8 9.53 9.53 0 0 1-15.54-2.39 5.78 5.78 0 0 1-7 3.06 9.53 9.53 0 0 1-16.23-1.07 5.77 5.77 0 0 1-9.1-6.21 7.83 7.83 0 0 1-2.25-15 5.87 5.87 0 0 1-.16-.87 9.67 9.67 0 0 1-.19-1.93A9.54 9.54 0 0 1 130 51.44a7.25 7.25 0 0 1 12.63-1.27 10.89 10.89 0 0 1 20.11 1.93 7.27 7.27 0 0 1 9.83 10.55 7.81 7.81 0 0 1 3.74 13.14zm-59.56 20.96l-.74 1.69" fill="#d2d2d2" stroke-linecap="round" stroke-width="3"/><circle cx="156.14" cy="89.53" r="2.31" fill="#fff" stroke-width="2.5"/><circle cx="165.86" cy="94.15" r="2.31" fill="#fff" stroke-width="2.5"/><circle cx="156.14" cy="102.26" r="2.31" fill="#fff" stroke-width="2.5"/><circle cx="146.79" cy="109.52" r="2.31" fill="#fff" stroke-width="2.5"/><circle cx="165.86" cy="107.21" r="2.31" fill="#fff" stroke-width="2.5"/></g></svg>