<svg xmlns="http://www.w3.org/2000/svg" viewBox="0 0 276 137"><g id="Layer_1" data-name="Layer 1"><circle cx="118.15" cy="53.56" r="13.01" transform="translate(3.38 114.03) rotate(-52.17)" fill="#ffc50a" stroke="#0c1f2e" stroke-miterlimit="10" stroke-width="3"/><line x1="120.13" y1="70.63" x2="121.38" y2="80.53" fill="none" stroke="#0c1f2e" stroke-linecap="round" stroke-miterlimit="10" stroke-width="3"/><line x1="114.81" y1="26.61" x2="116.06" y2="36.51" fill="none" stroke="#0c1f2e" stroke-linecap="round" stroke-miterlimit="10" stroke-width="3"/><line x1="107.63" y1="67.45" x2="101.51" y2="75.33" fill="none" stroke="#0c1f2e" stroke-linecap="round" stroke-miterlimit="10" stroke-width="3"/><line x1="133.79" y1="31.81" x2="127.67" y2="39.69" fill="none" stroke="#0c1f2e" stroke-linecap="round" stroke-miterlimit="10" stroke-width="3"/><line x1="105.7" y1="42.46" x2="97.82" y2="36.34" fill="none" stroke="#0c1f2e" stroke-linecap="round" stroke-miterlimit="10" stroke-width="3"/><line x1="139.47" y1="70.78" x2="131.58" y2="64.66" fill="none" stroke="#0c1f2e" stroke-linecap="round" stroke-miterlimit="10" stroke-width="3"/><line x1="101.14" y1="55.59" x2="91.24" y2="56.84" fill="none" stroke="#0c1f2e" stroke-linecap="round" stroke-miterlimit="10" stroke-width="3"/><line x1="145.16" y1="50.27" x2="135.26" y2="51.52" fill="none" stroke="#0c1f2e" stroke-linecap="round" stroke-miterlimit="10" stroke-width="3"/><line x1="120.2" y1="82.55" x2="117.24" y2="89.31" fill="#d2d2d2" stroke="#0c1f2e" stroke-linecap="round" stroke-miterlimit="10" stroke-width="3"/><line x1="131.44" y1="104.12" x2="129.96" y2="107.5" fill="#d2d2d2" stroke="#0c1f2e" stroke-linecap="round" stroke-miterlimit="10" stroke-width="3"/><line x1="118.94" y1="105.31" x2="117.46" y2="108.69" fill="#d2d2d2" stroke="#0c1f2e" stroke-linecap="round" stroke-miterlimit="10" stroke-width="3"/><line x1="126.19" y1="102.23" x2="123.23" y2="108.99" fill="#d2d2d2" stroke="#0c1f2e" stroke-linecap="round" stroke-miterlimit="10" stroke-width="3"/><line x1="136" y1="92.68" x2="133.03" y2="99.44" fill="#d2d2d2" stroke="#0c1f2e" stroke-linecap="round" stroke-miterlimit="10" stroke-width="3"/><line x1="138.84" y1="106.71" x2="135.88" y2="113.47" fill="#d2d2d2" stroke="#0c1f2e" stroke-linecap="round" stroke-miterlimit="10" stroke-width="3"/><path d="M140.32,101.6l2.25-7.43-3.49-.31L143,85.31l4.82.09-2.88,5.79,4.34.62-8.58,10C140.5,102.05,140.24,101.87,140.32,101.6Z" fill="#ffc50a" stroke="#0c1f2e" stroke-miterlimit="10" stroke-width="2.5"/><path d="M120.8,99.52l3.55-6.91L121,91.68,126.34,84l4.73,1-3.87,5.17,4.15,1.4-10.24,8.33C120.9,100,120.67,99.77,120.8,99.52Z" fill="#ffc50a" stroke="#0c1f2e" stroke-miterlimit="10" stroke-width="2.5"/><path d="M176.34,75.79a7.78,7.78,0,0,1-1,.82,5.77,5.77,0,0,1-8,8,9.53,9.53,0,0,1-15.54-2.39,5.78,5.78,0,0,1-7,3.06,9.53,9.53,0,0,1-16.23-1.07A5.77,5.77,0,0,1,119.47,78a7.83,7.83,0,0,1-2.25-15,5.87,5.87,0,0,1-.16-.87h0a9.67,9.67,0,0,1-.19-1.93A9.54,9.54,0,0,1,130,51.44a7.25,7.25,0,0,1,12.63-1.27,10.89,10.89,0,0,1,20.11,1.93,7.27,7.27,0,0,1,9.83,10.55,7.81,7.81,0,0,1,3.74,13.14Z" fill="#d2d2d2" stroke="#0c1f2e" stroke-linecap="round" stroke-miterlimit="10" stroke-width="3"/><line x1="116.78" y1="96.75" x2="116.04" y2="98.44" fill="#d2d2d2" stroke="#0c1f2e" stroke-linecap="round" stroke-miterlimit="10" stroke-width="3"/><circle cx="156.14" cy="89.53" r="2.31" fill="#fff" stroke="#0c1f2e" stroke-miterlimit="10" stroke-width="2.5"/><circle cx="165.86" cy="94.15" r="2.31" fill="#fff" stroke="#0c1f2e" stroke-miterlimit="10" stroke-width="2.5"/><circle cx="156.14" cy="102.26" r="2.31" fill="#fff" stroke="#0c1f2e" stroke-miterlimit="10" stroke-width="2.5"/><circle cx="146.79" cy="109.52" r="2.31" fill="#fff" stroke="#0c1f2e" stroke-miterlimit="10" stroke-width="2.5"/><circle cx="165.86" cy="107.21" r="2.31" fill="#fff" stroke="#0c1f2e" stroke-miterlimit="10" stroke-width="2.5"/></g></svg>
