<svg xmlns="http://www.w3.org/2000/svg" viewBox="0 0 102.26 101.65"><g data-name="Layer 1" stroke="#0c1f2e" stroke-miterlimit="10"><circle cx="32.06" cy="32.11" r="14.78" transform="rotate(-52.17 32.06 32.116)" fill="#ffc50a" stroke-width="3"/><path fill="none" stroke-linecap="round" stroke-width="3" d="M34.31 51.5l1.42 11.24M28.27 1.5l1.42 11.24m-9.57 35.14l-6.95 8.96M49.83 7.41l-6.95 8.95M17.92 19.5l-8.95-6.95m47.3 39.11l-8.95-6.95M12.74 34.42L1.5 35.83m61.24-7.45L51.5 29.79"/><path fill="#d2d2d2" stroke-linecap="round" stroke-width="3" d="M34.39 65.03l-3.36 7.68m16.13 16.82l-1.69 3.84m-12.51-2.49l-1.68 3.84m9.92-7.33l-3.37 7.67m14.5-18.53l-3.36 7.68m6.59 8.26l-3.36 7.68"/><path d="M57.24 86.67l2.56-8.44-4-.35 4.41-9.7 5.47.1-3.27 6.57 4.93.71L57.65 87c-.2.18-.5 0-.41-.33zm-22.16-2.36l4-7.84-3.83-1.06 6.09-8.75 5.37 1.08-4.4 5.88 4.72 1.58-11.6 9.46c-.24.19-.5-.07-.35-.35z" fill="#ffc50a" stroke-width="2.5"/><path d="M98.15 57.35a8.83 8.83 0 0 1-1.09.93 6.55 6.55 0 0 1-9 9.09 10.83 10.83 0 0 1-17.65-2.71 6.56 6.56 0 0 1-7.93 3.47A10.83 10.83 0 0 1 44 66.91a6.55 6.55 0 0 1-10.44-7A8.89 8.89 0 0 1 31 42.9a6.67 6.67 0 0 1-.18-1 11 11 0 0 1-.22-2.19 10.83 10.83 0 0 1 15-10 8.24 8.24 0 0 1 14.3-1.45 12.37 12.37 0 0 1 22.84 2.19 8.25 8.25 0 0 1 11.16 12 8.87 8.87 0 0 1 4.25 14.92zM30.5 81.16l-.84 1.92" fill="#d2d2d2" stroke-linecap="round" stroke-width="3"/><circle cx="75.21" cy="72.96" r="2.62" fill="#fff" stroke-width="2.5"/><circle cx="86.25" cy="78.2" r="2.62" fill="#fff" stroke-width="2.5"/><circle cx="75.21" cy="87.41" r="2.62" fill="#fff" stroke-width="2.5"/><circle cx="64.59" cy="95.66" r="2.62" fill="#fff" stroke-width="2.5"/><circle cx="86.25" cy="93.03" r="2.62" fill="#fff" stroke-width="2.5"/></g></svg>