<svg xmlns="http://www.w3.org/2000/svg" viewBox="0 0 276 137"><g data-name="Layer 1" fill="#fff" stroke="#0c1f2e" stroke-miterlimit="10"><circle cx="112.26" cy="51.24" r="13.01" transform="rotate(-52.17 112.271 51.242)" stroke-width="2.64"/><path stroke-linecap="round" stroke-width="2.64" d="M114.24 68.31l1.25 9.91m-6.57-53.93l1.25 9.9m-8.42 30.94l-6.12 7.88m32.28-43.52l-6.12 7.88m-21.98 2.77l-7.88-6.12m41.65 34.44l-7.88-6.12m-30.45-9.07l-9.9 1.25m53.93-6.56l-9.9 1.24m-15.07 31.03l-2.96 6.76m14.2 14.81l-1.48 3.38m-11.02-2.19l-1.48 3.38m8.73-6.46l-2.96 6.76m12.77-16.31l-2.96 6.76m5.8 7.27l-2.96 6.76"/><path d="M134.43 99.28l2.25-7.43-3.49-.31 3.9-8.54 4.82.09-2.91 5.78 4.34.62-8.58 10c-.14.24-.41.06-.33-.21zm-19.52-2.08l3.55-6.91-3.37-.93 5.36-7.71 4.73 1-3.87 5.17 4.15 1.4-10.24 8.33c-.22.13-.43-.1-.31-.35z" stroke-width="2.2"/><path d="M170.45 73.47a7.78 7.78 0 0 1-1 .82 5.77 5.77 0 0 1-8 8A9.53 9.53 0 0 1 146 79.9a5.78 5.78 0 0 1-7 3.1 9.53 9.53 0 0 1-16.23-1.07 5.77 5.77 0 0 1-9.19-6.16 7.83 7.83 0 0 1-2.25-15 5.87 5.87 0 0 1-.16-.87 9.67 9.67 0 0 1-.19-1.93 9.54 9.54 0 0 1 13.16-8.81 7.25 7.25 0 0 1 12.63-1.27 10.89 10.89 0 0 1 20.11 1.93 7.27 7.27 0 0 1 9.83 10.55 7.81 7.81 0 0 1 3.74 13.14zm-59.56 20.96l-.74 1.69" stroke-linecap="round" stroke-width="2.64"/><circle cx="150.25" cy="87.21" r="2.31" stroke-width="2.2"/><circle cx="159.97" cy="91.83" r="2.31" stroke-width="2.2"/><circle cx="150.25" cy="99.94" r="2.31" stroke-width="2.2"/><circle cx="140.9" cy="107.2" r="2.31" stroke-width="2.2"/><circle cx="159.97" cy="104.89" r="2.31" stroke-width="2.2"/></g></svg>