<svg xmlns="http://www.w3.org/2000/svg" viewBox="0 0 276 137"><g id="Layer_1" data-name="Layer 1"><circle cx="112.26" cy="51.24" r="13.01" transform="translate(2.94 108.49) rotate(-52.17)" fill="#fff" stroke="#0c1f2e" stroke-miterlimit="10" stroke-width="2.64"/><line x1="114.24" y1="68.31" x2="115.49" y2="78.22" fill="#fff" stroke="#0c1f2e" stroke-linecap="round" stroke-miterlimit="10" stroke-width="2.64"/><line x1="108.92" y1="24.29" x2="110.17" y2="34.19" fill="#fff" stroke="#0c1f2e" stroke-linecap="round" stroke-miterlimit="10" stroke-width="2.64"/><line x1="101.75" y1="65.13" x2="95.63" y2="73.01" fill="#fff" stroke="#0c1f2e" stroke-linecap="round" stroke-miterlimit="10" stroke-width="2.64"/><line x1="127.91" y1="29.49" x2="121.79" y2="37.37" fill="#fff" stroke="#0c1f2e" stroke-linecap="round" stroke-miterlimit="10" stroke-width="2.64"/><line x1="99.81" y1="40.14" x2="91.93" y2="34.02" fill="#fff" stroke="#0c1f2e" stroke-linecap="round" stroke-miterlimit="10" stroke-width="2.64"/><line x1="133.58" y1="68.46" x2="125.7" y2="62.34" fill="#fff" stroke="#0c1f2e" stroke-linecap="round" stroke-miterlimit="10" stroke-width="2.64"/><line x1="95.25" y1="53.27" x2="85.35" y2="54.52" fill="#fff" stroke="#0c1f2e" stroke-linecap="round" stroke-miterlimit="10" stroke-width="2.64"/><line x1="139.28" y1="47.96" x2="129.38" y2="49.2" fill="#fff" stroke="#0c1f2e" stroke-linecap="round" stroke-miterlimit="10" stroke-width="2.64"/><line x1="114.31" y1="80.23" x2="111.35" y2="86.99" fill="#fff" stroke="#0c1f2e" stroke-linecap="round" stroke-miterlimit="10" stroke-width="2.64"/><line x1="125.55" y1="101.8" x2="124.07" y2="105.18" fill="#fff" stroke="#0c1f2e" stroke-linecap="round" stroke-miterlimit="10" stroke-width="2.64"/><line x1="113.05" y1="102.99" x2="111.57" y2="106.37" fill="#fff" stroke="#0c1f2e" stroke-linecap="round" stroke-miterlimit="10" stroke-width="2.64"/><line x1="120.3" y1="99.91" x2="117.34" y2="106.67" fill="#fff" stroke="#0c1f2e" stroke-linecap="round" stroke-miterlimit="10" stroke-width="2.64"/><line x1="130.11" y1="90.36" x2="127.15" y2="97.12" fill="#fff" stroke="#0c1f2e" stroke-linecap="round" stroke-miterlimit="10" stroke-width="2.64"/><line x1="132.95" y1="104.39" x2="129.99" y2="111.15" fill="#fff" stroke="#0c1f2e" stroke-linecap="round" stroke-miterlimit="10" stroke-width="2.64"/><path d="M134.43,99.28l2.25-7.43-3.49-.31L137.09,83l4.82.09L139,88.87l4.34.62-8.58,10C134.62,99.73,134.35,99.55,134.43,99.28Z" fill="#fff" stroke="#0c1f2e" stroke-miterlimit="10" stroke-width="2.2"/><path d="M114.91,97.2l3.55-6.91-3.37-.93,5.36-7.71,4.73,1-3.87,5.17,4.15,1.4-10.24,8.33C115,97.68,114.79,97.45,114.91,97.2Z" fill="#fff" stroke="#0c1f2e" stroke-miterlimit="10" stroke-width="2.2"/><path d="M170.45,73.47a7.78,7.78,0,0,1-1,.82,5.77,5.77,0,0,1-8,8A9.53,9.53,0,0,1,146,79.9,5.78,5.78,0,0,1,139,83a9.53,9.53,0,0,1-16.23-1.07,5.77,5.77,0,0,1-9.19-6.16,7.83,7.83,0,0,1-2.25-15,5.87,5.87,0,0,1-.16-.87h0a9.67,9.67,0,0,1-.19-1.93,9.54,9.54,0,0,1,13.16-8.81,7.25,7.25,0,0,1,12.63-1.27,10.89,10.89,0,0,1,20.11,1.93,7.27,7.27,0,0,1,9.83,10.55,7.81,7.81,0,0,1,3.74,13.14Z" fill="#fff" stroke="#0c1f2e" stroke-linecap="round" stroke-miterlimit="10" stroke-width="2.64"/><line x1="110.89" y1="94.43" x2="110.15" y2="96.12" fill="#fff" stroke="#0c1f2e" stroke-linecap="round" stroke-miterlimit="10" stroke-width="2.64"/><circle cx="150.25" cy="87.21" r="2.31" fill="#fff" stroke="#0c1f2e" stroke-miterlimit="10" stroke-width="2.2"/><circle cx="159.97" cy="91.83" r="2.31" fill="#fff" stroke="#0c1f2e" stroke-miterlimit="10" stroke-width="2.2"/><circle cx="150.25" cy="99.94" r="2.31" fill="#fff" stroke="#0c1f2e" stroke-miterlimit="10" stroke-width="2.2"/><circle cx="140.9" cy="107.2" r="2.31" fill="#fff" stroke="#0c1f2e" stroke-miterlimit="10" stroke-width="2.2"/><circle cx="159.97" cy="104.89" r="2.31" fill="#fff" stroke="#0c1f2e" stroke-miterlimit="10" stroke-width="2.2"/></g></svg>
