<svg id="Layer_1" data-name="Layer 1" xmlns="http://www.w3.org/2000/svg" viewBox="0 0 276 137"><defs><style>.cls-1,.cls-25{fill:none}.cls-22,.cls-27,.cls-30{fill:#fff}.cls-23{clip-path:url(#clip-path-23)}.cls-24{clip-path:url(#clip-path-24)}.cls-25{stroke:#101f2c;stroke-width:6px}.cls-25,.cls-27{stroke-linecap:round}.cls-25,.cls-27,.cls-30{stroke-miterlimit:10}.cls-26{clip-path:url(#clip-path-25)}.cls-27{stroke:#0e1f2d;stroke-width:3px}.cls-28{fill:#0c1f2e}.cls-29{fill:#0e1f2d}.cls-30{stroke:#0c1f2e;stroke-width:1.97px}</style><clipPath id="clip-path"><path class="cls-1" d="M94.26-139.88h53.51v88.33H94.26z"/></clipPath><clipPath id="clip-path-3"><path class="cls-1" d="M101.9-116.1h37.37v11.04H101.9z"/></clipPath><clipPath id="clip-path-4"><path class="cls-1" d="M101.9-107.61h37.37v11.04H101.9z"/></clipPath><clipPath id="clip-path-5"><path class="cls-1" d="M101.9-99.12h37.37v11.04H101.9z"/></clipPath><clipPath id="clip-path-6"><path class="cls-1" d="M101.9-90.62h37.37v11.89H101.9z"/></clipPath><clipPath id="clip-path-7"><path class="cls-1" d="M101.9-81.28h37.37v11.89H101.9z"/></clipPath><clipPath id="clip-path-8"><path class="cls-1" d="M101.9-71.94h37.37v11.89H101.9z"/></clipPath><clipPath id="clip-path-9"><path class="cls-1" d="M102.75-131.39h2.55v11.04h-2.55z"/></clipPath><clipPath id="clip-path-10"><path class="cls-1" d="M107-131.39h2.55v11.04H107z"/></clipPath><clipPath id="clip-path-11"><path class="cls-1" d="M111.25-131.39h2.55v11.04h-2.55z"/></clipPath><clipPath id="clip-path-12"><path class="cls-1" d="M115.49-131.39h2.55v11.04h-2.55z"/></clipPath><clipPath id="clip-path-13"><path class="cls-1" d="M119.74-131.39h2.55v11.04h-2.55z"/></clipPath><clipPath id="clip-path-14"><path class="cls-1" d="M119.74-88.08h2.55v27.18h-2.55z"/></clipPath><clipPath id="clip-path-15"><path class="cls-1" d="M123.99-131.39h2.55v11.04h-2.55z"/></clipPath><clipPath id="clip-path-16"><path class="cls-1" d="M128.23-131.39h2.55v11.04h-2.55z"/></clipPath><clipPath id="clip-path-17"><path class="cls-1" d="M132.48-131.39h2.55v11.04h-2.55z"/></clipPath><clipPath id="clip-path-18"><path class="cls-1" d="M136.73-131.39h2.55v11.04h-2.55z"/></clipPath><clipPath id="clip-path-19"><circle class="cls-1" cx="155.41" cy="-63.44" r="26.33"/></clipPath><clipPath id="clip-path-21"><circle class="cls-1" cx="-158" cy="-88.5" r="50.5"/></clipPath><clipPath id="clip-path-22"><circle class="cls-1" cx="-158" cy="-88.5" r="43.5"/></clipPath><clipPath id="clip-path-23"><circle class="cls-1" cx="136.16" cy="68.5" r="50.5"/></clipPath><clipPath id="clip-path-24"><path class="cls-1" d="M-38.34-667.5h1121v1030h-1121z"/></clipPath><clipPath id="clip-path-25"><circle class="cls-1" cx="136.16" cy="68.5" r="43.5"/></clipPath></defs><circle class="cls-22" cx="136.16" cy="68.5" r="48.55" transform="rotate(-45 136.155 68.503)"/><g class="cls-23"><g class="cls-24"><circle class="cls-25" cx="136.16" cy="68.5" r="50.5"/></g></g><g class="cls-26"><g class="cls-24"><circle class="cls-25" cx="136.16" cy="68.5" r="43.5"/></g></g><circle class="cls-27" cx="172.01" cy="97.67" r="18.32" transform="rotate(-80.49 172.01 97.672)"/><path class="cls-28" d="M168.99 87.27h6.04l-1 13.81h-3.7l-1.34-13.81z"/><circle class="cls-28" cx="172.01" cy="105.71" r="2.37"/><path class="cls-29" d="M167.27 67.29l-8.39-.29 4.21-3.53a2 2 0 0 0-2.55-3L153 66.82l-8.57-.3-2.11-3.7 4.17-6.9 10.37-2.39a2 2 0 1 0-.88-3.87l-6.64 1.53 4.52-7.5a2.3 2.3 0 0 0-3.94-2.37l-4.52 7.5-1.75-6.58a2 2 0 0 0-3.83 1l2.74 10.3-4.17 6.9-4.25-.14-3.87-6.77L132 42.74a2 2 0 1 0-3.91-.65l-1 6-4.38-7.68a2.35 2.35 0 0 0-3.1-.93 2.2 2.2 0 0 0-.86 3l4.94 8.64-7.08-1.35a2 2 0 0 0-.74 3.9l10.4 2 3.83 6.71-2.15 3.62-7.88-.26-8-6.92a2 2 0 1 0-2.6 3l4.31 3.72-8.69-.3a2.19 2.19 0 0 0-2.29 2.19 2.28 2.28 0 0 0 1.13 2 2.25 2.25 0 0 0 1.14.33l10.59.35-5 5.64a2 2 0 1 0 3 2.63l7.15-8.09 7.15.24 2.12 3.7-4.58 7.58-10.37 2.4A2 2 0 1 0 116 88l6.64-1.53-4.12 6.83a2.3 2.3 0 0 0 3.94 2.37l4.11-6.81 1.74 6.57a2 2 0 0 0 1.92 1.48 1.72 1.72 0 0 0 .51-.07 2 2 0 0 0 1.41-2.42l-2.73-10.3 4.58-7.56 4.27.15 3.73 6.62-2 10.09a2 2 0 0 0 1.55 2.33 1.69 1.69 0 0 0 .39 0 2 2 0 0 0 1.95-1.59l1.11-5.58 4.57 8a2.38 2.38 0 0 0 .83.85 2.34 2.34 0 0 0 2.28.07 2.19 2.19 0 0 0 .85-3l-5.31-9.3 7.39 1.63a2 2 0 1 0 .85-3.87l-10.88-2.41-3.39-5.95 2.17-3.6 7.31.25 7.59 8.68a2 2 0 0 0 3-2.61l-5.15-5.89 10.14.33a2.19 2.19 0 0 0 2.29-2.17 2.33 2.33 0 0 0-2.27-2.3zm-25.86 3.63l-.67 1.1-1.33 2.21-2.62-.1h-1.31l-2.64-.13-1.3-2.28-.66-1.14-1.31-2.28 1.33-2.21.67-1.1 1.32-2.19 2.64.09h1.31l2.63.09 1.31 2.28.64 1.14 1.31 2.28z"/><path class="cls-30" d="M142.74 68.72l-1.33 2.2-.67 1.1-1.33 2.21-2.62-.1-1.31-.05-2.64-.08-1.3-2.29-.66-1.14-1.3-2.28 1.32-2.21.67-1.1 1.32-2.19 2.65.08 1.3.05 2.63.09 1.32 2.28.64 1.14 1.31 2.29z"/></svg>