<svg id="Layer_1" data-name="Layer 1" xmlns="http://www.w3.org/2000/svg" viewBox="0 0 276 137"><defs><style>.cls-1,.cls-10,.cls-9{fill:none}.cls-2,.cls-3,.cls-6,.cls-8{fill:#fff}.cls-10,.cls-2,.cls-9{stroke:#0e1f2d}.cls-10,.cls-2,.cls-3,.cls-9{stroke-miterlimit:10;stroke-width:3px}.cls-2{clip-rule:evenodd}.cls-3{stroke:#0c1f2e}.cls-4{clip-path:url(#clip-path)}.cls-5{clip-path:url(#clip-path-2)}.cls-10,.cls-6{fill-rule:evenodd}.cls-7{clip-path:url(#clip-path-3)}</style><clipPath id="clip-path"><circle class="cls-1" cx="434" cy="-245.5" r="50.5"/></clipPath><clipPath id="clip-path-2"><circle class="cls-1" cx="434" cy="-245.5" r="43.5"/></clipPath><clipPath id="clip-path-3"><path class="cls-2" d="M-224.75-86.67h109.48l9.81 9.65v18.51h-119.29v-28.16z"/></clipPath></defs><title>EXPERIENTIAL ICONS 2 (2)</title><path class="cls-3" d="M165.35 115.51l-.22-61.02-46.43-34.15-46.43 34.15v61.02"/><path class="cls-6" d="M-224.75-86.67h109.48l9.81 9.65v18.51h-119.29v-28.16z"/><g class="cls-7"><path class="cls-8" d="M-544.01-517.18h962.06v828.83h-962.06z"/><path class="cls-9" d="M-544.01-517.18h962.06v828.83h-962.06z"/></g><path class="cls-10" d="M-224.75-86.67h109.48l9.81 9.65v18.51h-119.29v-28.16z"/><path class="cls-3" d="M72.27 96.43h93.08v19.08H72.27z"/><circle class="cls-3" cx="149.84" cy="62.47" r="7.98"/><path class="cls-3" d="M165.35 83.19v32.32h-31.03l.01-32.32 8.67-6.56h13.69l8.66 6.56z"/><circle class="cls-3" cx="118.81" cy="70.33" r="7.98"/><path class="cls-3" d="M134.32 91.05v24.46H103.3V91.05l8.67-6.56h13.69l8.66 6.56z"/><circle class="cls-3" cx="87.78" cy="62.47" r="7.98"/><path class="cls-3" d="M103.29 83.19l.01 32.32H72.27V83.19l8.67-6.56h13.69l8.66 6.56z"/></svg>