<svg id="Layer_1" data-name="Layer 1" xmlns="http://www.w3.org/2000/svg" viewBox="0 0 276 137"><defs><style>.cls-1,.cls-27{fill:none}.cls-2{clip-path:url(#clip-path)}.cls-3{clip-path:url(#clip-path-3)}.cls-4{clip-path:url(#clip-path-4)}.cls-5{clip-path:url(#clip-path-5)}.cls-6{clip-path:url(#clip-path-6)}.cls-7{clip-path:url(#clip-path-7)}.cls-8{clip-path:url(#clip-path-8)}.cls-9{clip-path:url(#clip-path-9)}.cls-10{clip-path:url(#clip-path-10)}.cls-11{clip-path:url(#clip-path-11)}.cls-12{clip-path:url(#clip-path-12)}.cls-13{clip-path:url(#clip-path-13)}.cls-14{clip-path:url(#clip-path-14)}.cls-15{clip-path:url(#clip-path-15)}.cls-16{clip-path:url(#clip-path-16)}.cls-17{clip-path:url(#clip-path-17)}.cls-18{clip-path:url(#clip-path-18)}.cls-19{clip-path:url(#clip-path-19)}.cls-20{clip-path:url(#clip-path-21)}.cls-21{clip-path:url(#clip-path-22)}.cls-22{clip-path:url(#clip-path-23)}.cls-23{clip-path:url(#clip-path-24)}.cls-24{clip-path:url(#clip-path-25)}.cls-25{clip-path:url(#clip-path-26)}.cls-26{fill:#fff}.cls-26,.cls-27{stroke:#0c1f2e;stroke-miterlimit:10;stroke-width:3px}.cls-28{fill:#0c1f2e}</style><clipPath id="clip-path"><path class="cls-1" d="M-201.74-296.88h53.51v88.33h-53.51z"/></clipPath><clipPath id="clip-path-3"><path class="cls-1" d="M-194.1-273.1h37.37v11.04h-37.37z"/></clipPath><clipPath id="clip-path-4"><path class="cls-1" d="M-194.1-264.61h37.37v11.04h-37.37z"/></clipPath><clipPath id="clip-path-5"><path class="cls-1" d="M-194.1-256.12h37.37v11.04h-37.37z"/></clipPath><clipPath id="clip-path-6"><path class="cls-1" d="M-194.1-247.62h37.37v11.89h-37.37z"/></clipPath><clipPath id="clip-path-7"><path class="cls-1" d="M-194.1-238.28h37.37v11.89h-37.37z"/></clipPath><clipPath id="clip-path-8"><path class="cls-1" d="M-194.1-228.94h37.37v11.89h-37.37z"/></clipPath><clipPath id="clip-path-9"><path class="cls-1" d="M-193.25-288.39h2.55v11.04h-2.55z"/></clipPath><clipPath id="clip-path-10"><path class="cls-1" d="M-189-288.39h2.55v11.04H-189z"/></clipPath><clipPath id="clip-path-11"><path class="cls-1" d="M-184.75-288.39h2.55v11.04h-2.55z"/></clipPath><clipPath id="clip-path-12"><path class="cls-1" d="M-180.51-288.39h2.55v11.04h-2.55z"/></clipPath><clipPath id="clip-path-13"><path class="cls-1" d="M-176.26-288.39h2.55v11.04h-2.55z"/></clipPath><clipPath id="clip-path-14"><path class="cls-1" d="M-176.26-245.08h2.55v27.18h-2.55z"/></clipPath><clipPath id="clip-path-15"><path class="cls-1" d="M-172.01-288.39h2.55v11.04h-2.55z"/></clipPath><clipPath id="clip-path-16"><path class="cls-1" d="M-167.77-288.39h2.55v11.04h-2.55z"/></clipPath><clipPath id="clip-path-17"><path class="cls-1" d="M-163.52-288.39h2.55v11.04h-2.55z"/></clipPath><clipPath id="clip-path-18"><path class="cls-1" d="M-159.27-288.39h2.55v11.04h-2.55z"/></clipPath><clipPath id="clip-path-19"><circle class="cls-1" cx="-140.59" cy="-220.44" r="26.33"/></clipPath><clipPath id="clip-path-21"><circle class="cls-1" cx="-454" cy="-245.5" r="50.5"/></clipPath><clipPath id="clip-path-22"><circle class="cls-1" cx="-454" cy="-245.5" r="43.5"/></clipPath><clipPath id="clip-path-23"><circle class="cls-1" cx="-159.84" cy="-88.5" r="50.5"/></clipPath><clipPath id="clip-path-24"><circle class="cls-1" cx="-159.84" cy="-88.5" r="43.5"/></clipPath><clipPath id="clip-path-25"><circle class="cls-1" cx="434" cy="-88.5" r="50.5"/></clipPath><clipPath id="clip-path-26"><circle class="cls-1" cx="434" cy="-88.5" r="43.5"/></clipPath></defs><title>EXPERIENTIAL ICONS 2 (2)</title><circle class="cls-26" cx="136.18" cy="70.93" r="31.35"/><path class="cls-27" d="M136.18 28.05v11.53M105.93 71.74h60.51M110.34 53.19h51.69M110.34 88.68h51.69M136.99 101.19V40.68M118.43 96.78V45.09M153.93 96.78V45.09M89.8 84.92l7.26-2.42M84.15 67.98l12.91.81M92.22 53.19l4.84 2.69M181.76 55.88l-6.85 2.01M191.85 69.19h-14.52M182.58 82.5l-5.25-2.42"/><path class="cls-28" d="M163.83 25.62l1.15 5.39 5.39 1.15-5.39 1.15-1.15 5.39-1.15-5.39-5.39-1.15 5.39-1.15 1.15-5.39zM99.97 97.96l1.15 5.39 5.39 1.15-5.39 1.15-1.15 5.39-1.15-5.39-5.39-1.15 5.39-1.15 1.15-5.39zM106.51 30.41l.68 3.17 3.16.67-3.16.68-.68 3.17-.68-3.17-3.17-.68 3.17-.67.68-3.17zM172.49 94.11l.68 3.17 3.16.68-3.16.68-.68 3.16-.68-3.16-3.16-.68 3.16-.68.68-3.17zM111.23 111.26l.67 3.17 3.17.68-3.17.67-.67 3.17-.68-3.17-3.17-.67 3.17-.68.68-3.17zM153.93 19.65l.67 3.17 3.17.68-3.17.67-.67 3.17-.68-3.17-3.17-.67 3.17-.68.68-3.17z"/></svg>