<svg id="Layer_1" data-name="Layer 1" xmlns="http://www.w3.org/2000/svg" viewBox="0 0 276 137"><defs><style>.cls-1,.cls-2,.cls-43,.cls-44,.cls-45{fill:none}.cls-1{clip-rule:evenodd}.cls-43,.cls-44,.cls-45{stroke:#0c1f2e;stroke-linecap:round;stroke-miterlimit:10}.cls-43{stroke-width:3.25px}.cls-44{stroke-width:2.44px}.cls-45{stroke-width:2.09px}.cls-46{fill:#0c1f2e}</style><clipPath id="clip-path"><path class="cls-1" d="M383.67-127.51h-1.5v84h108v-84h-106.5zm0 3h105l-1.5-1.5v81l1.5-1.5h-105l1.5 1.5v-81zm-21.5-23h148v124h-148z"/></clipPath><clipPath id="clip-path-2"><path class="cls-2" d="M383.67-126.01h105v81h-105z"/></clipPath><clipPath id="clip-path-4"><path class="cls-1" d="M377.67-110.51h-2.24l.85-2.07 9.07-22 .38-.93H486.6l.38.93 9.07 22 .85 2.07H377.67zm0-3h117l-1.39 2.07-9.07-22 1.39.93h-98.86l1.39-.93-9.07 22zm-22.24 23h161.48v-65H355.43z"/></clipPath><clipPath id="clip-path-5"><path class="cls-1" d="M377.67-112.01h117l-9.07-22h-98.86l-9.07 22z"/></clipPath><clipPath id="clip-path-7"><path class="cls-1" d="M462.67-143.51h-1.5v19h15v-19h-13.5zm0 3h12l-1.5-1.5v16l1.5-1.5h-12l1.5 1.5v-16zm-21.5-23h55v59h-55z"/></clipPath><clipPath id="clip-path-8"><path class="cls-2" d="M462.67-142.01h12v16h-12z"/></clipPath><clipPath id="clip-path-10"><path class="cls-1" d="M396.67-77.51h-1.5v34h24v-34h-22.5zm0 3h21l-1.5-1.5v31l1.5-1.5h-21l1.5 1.5V-76zm-21.5-23h64v74h-64z"/></clipPath><clipPath id="clip-path-11"><path class="cls-2" d="M396.67-76.01h21v31h-21z"/></clipPath><clipPath id="clip-path-13"><path class="cls-1" d="M397.67-105.51h-1.5v22h22v-22h-20.5zm0 3h19l-1.5-1.5v19l1.5-1.5h-19l1.5 1.5v-19zm-21.5-23h62v62h-62z"/></clipPath><clipPath id="clip-path-14"><path class="cls-2" d="M397.67-104.01h19v19h-19z"/></clipPath><clipPath id="clip-path-16"><path class="cls-1" d="M402.67-100.51h-1.5v12h12v-12h-10.5zm0 3h9l-1.5-1.5v9l1.5-1.5h-9l1.5 1.5v-9zm-21.5-23h52v52h-52z"/></clipPath><clipPath id="clip-path-17"><path class="cls-2" d="M402.67-99.01h9v9h-9z"/></clipPath><clipPath id="clip-path-19"><path class="cls-1" d="M427.67-105.51h-1.5v22h22v-22h-20.5zm0 3h19l-1.5-1.5v19l1.5-1.5h-19l1.5 1.5v-19zm-21.5-23h62v62h-62z"/></clipPath><clipPath id="clip-path-20"><path class="cls-2" d="M427.67-104.01h19v19h-19z"/></clipPath><clipPath id="clip-path-22"><path class="cls-1" d="M456.67-105.51h-1.5v22h22v-22h-20.5zm0 3h19l-1.5-1.5v19l1.5-1.5h-19l1.5 1.5v-19zm-21.5-23h62v62h-62z"/></clipPath><clipPath id="clip-path-23"><path class="cls-2" d="M456.67-104.01h19v19h-19z"/></clipPath><clipPath id="clip-path-25"><path class="cls-1" d="M427.67-77.51h-1.5v22h22v-22h-20.5zm0 3h19l-1.5-1.5v19l1.5-1.5h-19l1.5 1.5V-76zm-21.5-23h62v62h-62z"/></clipPath><clipPath id="clip-path-26"><path class="cls-2" d="M427.67-76.01h19v19h-19z"/></clipPath><clipPath id="clip-path-28"><path class="cls-1" d="M456.67-77.51h-1.5v22h22v-22h-20.5zm0 3h19l-1.5-1.5v19l1.5-1.5h-19l1.5 1.5V-76zm-21.5-23h62v62h-62z"/></clipPath><clipPath id="clip-path-29"><path class="cls-2" d="M456.67-76.01h19v19h-19z"/></clipPath><clipPath id="clip-path-31"><path class="cls-1" d="M432.67-100.51h-1.5v12h12v-12h-10.5zm0 3h9l-1.5-1.5v9l1.5-1.5h-9l1.5 1.5v-9zm-21.5-23h52v52h-52z"/></clipPath><clipPath id="clip-path-32"><path class="cls-2" d="M432.67-99.01h9v9h-9z"/></clipPath><clipPath id="clip-path-34"><path class="cls-1" d="M461.67-100.51h-1.5v12h12v-12h-10.5zm0 3h9l-1.5-1.5v9l1.5-1.5h-9l1.5 1.5v-9zm-21.5-23h52v52h-52z"/></clipPath><clipPath id="clip-path-35"><path class="cls-2" d="M461.67-99.01h9v9h-9z"/></clipPath><clipPath id="clip-path-37"><path class="cls-1" d="M432.67-72.51h-1.5v12h12v-12h-10.5zm0 3h9l-1.5-1.5v9l1.5-1.5h-9l1.5 1.5v-9zm-21.5-23h52v52h-52z"/></clipPath><clipPath id="clip-path-38"><path class="cls-2" d="M432.67-71.01h9v9h-9z"/></clipPath><clipPath id="clip-path-40"><path class="cls-1" d="M461.67-72.51h-1.5v12h12v-12h-10.5zm0 3h9l-1.5-1.5v9l1.5-1.5h-9l1.5 1.5v-9zm-21.5-23h52v52h-52z"/></clipPath><clipPath id="clip-path-41"><path class="cls-2" d="M461.67-71.01h9v9h-9z"/></clipPath><clipPath id="clip-path-43"><path class="cls-1" d="M-643.77 666.13h-1.5v38h142V679l-.41-.43-11.44-12-.44-.46h-128.2zm0 3h127.56l-1.09-.46 11.44 12-.41-1v23l1.5-1.5h-139l1.5 1.5v-35zm-21.5-23h182v78h-182z"/></clipPath><clipPath id="clip-path-44"><path class="cls-1" d="M-643.77 667.63h127.56l11.44 12v23h-139v-35z"/></clipPath><clipPath id="clip-path-46"><path class="cls-1" d="M-610.77 717.55a14.5 14.5 0 0 1-14.5-14.5 14.5 14.5 0 0 1 14.5-14.5 14.5 14.5 0 0 1 14.5 14.5 14.5 14.5 0 0 1-14.5 14.5zm0 3a17.5 17.5 0 0 0 17.5-17.5 17.5 17.5 0 0 0-17.5-17.5 17.5 17.5 0 0 0-17.5 17.5 17.5 17.5 0 0 0 17.5 17.5zm-37.5-55h75v75h-75z"/></clipPath><clipPath id="clip-path-47"><circle class="cls-2" cx="-610.77" cy="703.05" r="16"/></clipPath><clipPath id="clip-path-49"><path class="cls-1" d="M-610.77 710.55a7.5 7.5 0 0 1-7.5-7.5 7.5 7.5 0 0 1 7.5-7.5 7.5 7.5 0 0 1 7.5 7.5 7.5 7.5 0 0 1-7.5 7.5zm0 3a10.5 10.5 0 0 0 10.5-10.5 10.5 10.5 0 0 0-10.5-10.5 10.5 10.5 0 0 0-10.5 10.5 10.5 10.5 0 0 0 10.5 10.5zm-30.5-41h61v61h-61z"/></clipPath><clipPath id="clip-path-50"><circle class="cls-2" cx="-610.77" cy="703.05" r="9"/></clipPath><clipPath id="clip-path-52"><path class="cls-1" d="M-544.54 717.55a14.5 14.5 0 0 1-14.5-14.5 14.5 14.5 0 0 1 14.5-14.5 14.5 14.5 0 0 1 14.5 14.5 14.5 14.5 0 0 1-14.5 14.5zm0 3a17.5 17.5 0 0 0 17.5-17.5 17.5 17.5 0 0 0-17.5-17.5 17.5 17.5 0 0 0-17.5 17.5 17.5 17.5 0 0 0 17.5 17.5zm-37.5-55h75v75h-75z"/></clipPath><clipPath id="clip-path-53"><circle class="cls-2" cx="-544.54" cy="703.05" r="16"/></clipPath><clipPath id="clip-path-55"><path class="cls-1" d="M-544.31 662.72l-7.69-15.57h-27.17v15.57zm-75.16 0l7.38-15.55h27.17v15.53zm-10.3 5.35l14.14-26.89h66.84l15.35 27.82z"/></clipPath><clipPath id="clip-path-56"><path class="cls-1" d="M-544.54 710.55a7.5 7.5 0 0 1-7.5-7.5 7.5 7.5 0 0 1 7.5-7.5 7.5 7.5 0 0 1 7.5 7.5 7.5 7.5 0 0 1-7.5 7.5zm0 3a10.5 10.5 0 0 0 10.5-10.5 10.5 10.5 0 0 0-10.5-10.5 10.5 10.5 0 0 0-10.5 10.5 10.5 10.5 0 0 0 10.5 10.5zm-30.5-41h61v61h-61z"/></clipPath><clipPath id="clip-path-57"><circle class="cls-2" cx="-544.54" cy="703.05" r="9"/></clipPath></defs><path class="cls-43" d="M76.36 27.56h123.29v81.88H76.36z"/><path class="cls-44" d="M87.27 37.06h20.38"/><path class="cls-45" d="M172.82 37.02h16.94v13.84h-16.94z"/><path class="cls-44" d="M87.27 41.77h20.38m-20.38 4.7h20.38"/><path class="cls-46" d="M160.61 75a8.49 8.49 0 0 0-1.61 5.22 7.1 7.1 0 0 0 4.76-2.05 8.49 8.49 0 0 0 1.64-5.24 7.1 7.1 0 0 0-4.79 2.07z"/><path class="cls-46" d="M156.76 75.39a7.87 7.87 0 0 0 2.24 4.88 8.35 8.35 0 0 0 2.09-5.06 7.87 7.87 0 0 0-2.24-4.88 8.35 8.35 0 0 0-2.09 5.06zm-1.58 8.85c-2.68.94-4.22 4.11-4.22 4.11s2.81 1.65 5.49.71 4.22-4.06 4.22-4.06-2.81-1.69-5.49-.76z"/><path class="cls-46" d="M151.38 82.47a9.12 9.12 0 0 0-.41 6 8.56 8.56 0 0 0 4.55-3.68 9.12 9.12 0 0 0 .41-6 8.56 8.56 0 0 0-4.55 3.68zm-4.52 7.97c-3-.36-5.7 2.08-5.7 2.08s2 3 5 3.38 5.7-2.08 5.7-2.08-2.04-3.02-5-3.38z"/><path class="cls-46" d="M143.92 86.81c-2.38 2-2.78 5.78-2.78 5.78a8.17 8.17 0 0 0 5.86-1.48c2.38-2 2.78-5.78 2.78-5.78a8.17 8.17 0 0 0-5.86 1.48zm17.18-21.98a8 8 0 0 0 .78 5.22 7.64 7.64 0 0 0 3.23-4.05 8 8 0 0 0-.78-5.22 7.64 7.64 0 0 0-3.23 4.05z"/><path class="cls-46" d="M158 67.07a6.81 6.81 0 0 0 4 3 8.18 8.18 0 0 0-.31-5.28 6.81 6.81 0 0 0-4-3 8.18 8.18 0 0 0 .31 5.28zm.59-9.89a5.69 5.69 0 0 0 2.91 2.89 6.69 6.69 0 0 0 .26-4.31 5.69 5.69 0 0 0-2.91-2.89 6.69 6.69 0 0 0-.26 4.31z"/><path class="cls-46" d="M157.64 60.23a5.36 5.36 0 0 0 4-.22 5.92 5.92 0 0 0-2.64-3.19 5.36 5.36 0 0 0-4 .22 5.92 5.92 0 0 0 2.64 3.19zm-5.2-8.61a5.79 5.79 0 0 0 3.61 2 6.75 6.75 0 0 0-1-4.22 5.79 5.79 0 0 0-3.61-2 6.75 6.75 0 0 0 1 4.22z"/><path class="cls-46" d="M152.41 54.82a5.29 5.29 0 0 0 3.76-1.3 6 6 0 0 0-3.43-2.34 5.29 5.29 0 0 0-3.76 1.3 6 6 0 0 0 3.43 2.34zm-5.31-5.58a3.87 3.87 0 0 0 2.91 0 4.62 4.62 0 0 0-1.92-2.42 3.87 3.87 0 0 0-2.91 0 4.62 4.62 0 0 0 1.92 2.42zm-27.94 26.53A8.49 8.49 0 0 1 120.8 81a7.1 7.1 0 0 1-4.8-2 8.49 8.49 0 0 1-1.64-5.24 7.1 7.1 0 0 1 4.8 2.01z"/><path class="cls-46" d="M123 76.18a7.87 7.87 0 0 1-2.24 4.88 8.35 8.35 0 0 1-2.09-5.06 7.87 7.87 0 0 1 2.24-4.88 8.35 8.35 0 0 1 2.09 5.06zm1.58 8.26c2.68.94 4.22 4.11 4.22 4.11s-2.81 1.65-5.49.71-4.22-4.11-4.22-4.11 2.81-1.64 5.49-.71z"/><path class="cls-46" d="M128.38 82.67a9.12 9.12 0 0 1 .41 6 8.56 8.56 0 0 1-4.55-3.68 9.12 9.12 0 0 1-.41-6 8.56 8.56 0 0 1 4.55 3.68zm4.52 7.97c3-.36 5.7 2.08 5.7 2.08s-2 3-5 3.38-5.7-2.08-5.7-2.08 2.05-3.02 5-3.38z"/><path class="cls-46" d="M135.84 87c2.38 2 2.78 5.78 2.78 5.78a8.17 8.17 0 0 1-5.85-1.49c-2.38-2-2.78-5.78-2.78-5.78a8.17 8.17 0 0 1 5.85 1.49zm-17.17-21.38a8 8 0 0 1-.78 5.22 7.64 7.64 0 0 1-3.24-4.06 8 8 0 0 1 .78-5.22 7.64 7.64 0 0 1 3.24 4.06z"/><path class="cls-46" d="M121.8 67.86a6.81 6.81 0 0 1-4 3 8.18 8.18 0 0 1 .31-5.28 6.81 6.81 0 0 1 4-3 8.18 8.18 0 0 1-.31 5.28zm-.62-9.86a5.69 5.69 0 0 1-2.91 2.89 6.69 6.69 0 0 1-.26-4.31 5.69 5.69 0 0 1 2.91-2.89 6.69 6.69 0 0 1 .26 4.31z"/><path class="cls-46" d="M122.12 61a5.36 5.36 0 0 1-4-.22 5.92 5.92 0 0 1 2.63-3.18 5.36 5.36 0 0 1 4 .22 5.92 5.92 0 0 1-2.63 3.18zm5.21-8.58a5.79 5.79 0 0 1-3.61 2 6.75 6.75 0 0 1 1-4.22 5.79 5.79 0 0 1 3.61-2 6.75 6.75 0 0 1-1 4.22z"/><path class="cls-46" d="M127.35 55.61a5.29 5.29 0 0 1-3.76-1.3A6 6 0 0 1 127 52a5.29 5.29 0 0 1 3.76 1.3 6 6 0 0 1-3.41 2.31zm5.32-5.61a3.87 3.87 0 0 1-2.91 0 4.62 4.62 0 0 1 1.92-2.42 3.87 3.87 0 0 1 2.91 0 4.62 4.62 0 0 1-1.92 2.42zm-.89 7.76h8.52a21 21 0 0 1 5.74.53 5.43 5.43 0 0 1 3.4 7.24 5.4 5.4 0 0 1-4.31 2.93 6.9 6.9 0 0 1 4.34 1.87 4.91 4.91 0 0 1 1.22 3.31A5.87 5.87 0 0 1 147 79a14.58 14.58 0 0 1-6 .81h-9.3zm5.22 4.12v4.59h4.15c1.25 0 3.28-.09 3.28-2.37 0-2.12-1.84-2.22-2.9-2.22zm0 8.58v5.34h3.84c1.84 0 4.25-.09 4.25-2.62s-2.19-2.68-3.31-2.72z"/></svg>