<svg xmlns="http://www.w3.org/2000/svg" viewBox="0 0 276 137"><path fill="#FFF" d="M104.4 35.8h72v72h-72z"/><path fill="#0E1F2D" d="M177.9 109.3h-75v-75h75v75zm-72-3h69v-69h-69v69z"/><path fill="#0E1F2D" d="M161.8 108.2l-2.7-1.2 4.8-11.7 11.4-11.7 2.2 2.1L166.4 97zM150.6 109.4l-2.8-1.1 6.8-18.2L168.7 76l6.5-9.6 2.5 1.6-6.8 10.1-13.8 13.6zM141.3 108.3l-3-.1.2-10.6 6.7-11.3 15.3-17 6.5-13 2.6-19.5 3 .4-2.7 20L163 71l-15.4 17.2-6.1 10.3zM130 108.9l-.6-12.9 5.8-12.3 9.5-11.8 8.1-22-1.1-5.7c-1.2-1.8-4.1-5.9-5.8-7.1l1.8-2.4c2.5 1.8 6.3 7.5 6.7 8.1l.2.2 1.4 7.1-8.6 23.3-9.7 12.1-5.2 11.1.5 12.2-3 .1zM104.9 76.8l-1-2.8 14.8-5.3 12.5-11.3.8-14.3-3.3-6.6 2.7-1.3 3.6 7.3-.8 16.3-13.9 12.5z"/><path fill="#0E1F2D" d="M105.2 67.9l-1.6-2.6 13-7.7 2.9-11.7-4.7-9.4 2.7-1.3 5.2 10.3-3.5 14zM123.5 107.1l-2.9-.6 2.7-13.7-.9-7-8-4.9-9.6 2.3-.8-2.9 10.9-2.6 10.3 6.3 1.1 8.9z"/><g><path fill="#0E1F2D" d="M111.3 109.2l-2.4-1.9 5.9-7.7.6-6-4.6-4.2-5.2 1.6-.9-2.9 6.8-2.1 7.1 6.5-.9 8.3z"/></g></svg>