<svg id="Layer_1" data-name="Layer 1" xmlns="http://www.w3.org/2000/svg" viewBox="0 0 276 137"><defs><style>.cls-1,.cls-9{fill:none}.cls-6{fill:#fff}.cls-7{fill:#0f1f2d}.cls-8{fill:#0c1f2e}.cls-9{stroke:#0e1f2d;stroke-linecap:round;stroke-miterlimit:10;stroke-width:3px}</style><clipPath id="clip-path"><circle class="cls-1" cx="-750" cy="-89.5" r="50.5"/></clipPath><clipPath id="clip-path-2"><circle class="cls-1" cx="-750" cy="-89.5" r="43.5"/></clipPath><clipPath id="clip-path-3"><circle class="cls-1" cx="-459.22" cy="-89.5" r="50.5"/></clipPath><clipPath id="clip-path-4"><circle class="cls-1" cx="-459.22" cy="-89.5" r="43.5"/></clipPath></defs><circle class="cls-6" cx="138" cy="68.5" r="46.57"/><path class="cls-7" d="M138 116.57a48.07 48.07 0 1 1 48.07-48.07A48.12 48.12 0 0 1 138 116.57zm0-93.13a45.07 45.07 0 1 0 45.07 45.06A45.12 45.12 0 0 0 138 23.43z"/><circle class="cls-6" cx="138.07" cy="68.4" r="40.8"/><path class="cls-8" d="M138.07 110.7a42.3 42.3 0 1 1 42.3-42.3 42.35 42.35 0 0 1-42.3 42.3zm0-81.61a39.3 39.3 0 1 0 39.3 39.3 39.35 39.35 0 0 0-39.3-39.3z"/><path class="cls-9" d="M149.73 43.24a13.3 13.3 0 0 0-11.66 7 13.32 13.32 0 0 0-25 6.4c0 15.3 25 37.17 25 37.17s25-25.26 25-37.17a13.36 13.36 0 0 0-13.34-13.4z"/><path class="cls-9" d="M120 70.5h9l2-10.58 7 19.62 7.17-16.69 2.33 7.65h8.5"/></svg>