<svg xmlns="http://www.w3.org/2000/svg" viewBox="0 0 276 137"><g data-name="Layer 1" fill="#fff" stroke="#0c1f2e" stroke-miterlimit="10" stroke-width="3"><path d="M104.67 23.34l-6.22 13.57h12.9l-6.68-13.57zm-7.05 18.2h14.56v55.67H97.62zm12.66 72.12H99.52c-1 0-1.9-1.15-1.9-2.55v-8.89h14.56v8.89c0 1.4-.86 2.55-1.9 2.55zm18.77-91.19h15.44v92.07h-15.44zm4.69 11.94h10.65m-10.65 17.04h10.65M133.74 68.5h10.65m-10.65 17.05h10.65m-10.65 17.04h10.65m-6.78-62.5h6.78m-6.78-11.36h6.78m-7.44 79.54h6.78m-6.12-62.5h6.78m-7.44 11.37h6.78m-6.78 5.68h6.78m-6.78 11.36h6.78m-6.78 5.68h6.78m-6.78 11.37h6.78m-6.78 5.68h6.78m31.29 12.82l-5.26 6.05-4.96-6.05 2.48-52.77h6.5l1.24 52.77zm3.36-68.6c0 8.74-3.56 15.83-7.94 15.83s-7.94-7.09-7.94-15.83 7.94-19.91 7.94-19.91 7.94 11.17 7.94 19.91zm-11.74 29.95h7.38"/><path d="M163.22 47.75s6.93 0 7.21-5.1 7.94-1.52 7.94-1.52"/></g></svg>