<svg id="Layer_1" data-name="Layer 1" xmlns="http://www.w3.org/2000/svg" viewBox="0 0 276 137"><defs><style>.cls-1,.cls-17,.cls-18,.cls-3,.cls-5{fill:none}.cls-14,.cls-16,.cls-2,.cls-4{fill:#fff}.cls-17,.cls-18,.cls-2{stroke:#0e1f2d}.cls-17,.cls-18,.cls-2,.cls-4,.cls-5{stroke-miterlimit:10;stroke-width:3px}.cls-2,.cls-3{clip-rule:evenodd}.cls-4,.cls-5{stroke:#0c1f2e;stroke-linecap:round}.cls-14,.cls-18{fill-rule:evenodd}.cls-15{clip-path:url(#clip-path-11)}</style><clipPath id="clip-path"><circle class="cls-1" cx="433.48" cy="-243.41" r="50.5"/></clipPath><clipPath id="clip-path-2"><circle class="cls-1" cx="433.48" cy="-243.41" r="43.5"/></clipPath><clipPath id="clip-path-3"><path class="cls-3" d="M692.69 102.58a29.08 29.08 0 1 1 29.08-29.08 29.08 29.08 0 0 1-29.08 29.08zm0 2.24a31.32 31.32 0 1 0-31.31-31.32 31.32 31.32 0 0 0 31.31 31.32zm-46.25-77.57h92.5v92.5h-92.5z"/></clipPath><clipPath id="clip-path-4"><circle class="cls-1" cx="692.69" cy="73.5" r="30.2"/></clipPath><clipPath id="clip-path-6"><path class="cls-3" d="M775.23 102.58A29.08 29.08 0 1 1 804.3 73.5a29.08 29.08 0 0 1-29.07 29.08zm0 2.24a31.32 31.32 0 1 0-31.32-31.32 31.32 31.32 0 0 0 31.32 31.32zM729 27.25h92.5v92.5H729z"/></clipPath><clipPath id="clip-path-7"><circle class="cls-1" cx="775.23" cy="73.5" r="30.2"/></clipPath><clipPath id="clip-path-9"><circle class="cls-1" cx="432.82" cy="386.42" r="50.5"/></clipPath><clipPath id="clip-path-10"><circle class="cls-1" cx="432.82" cy="386.42" r="43.5"/></clipPath><clipPath id="clip-path-11"><path class="cls-2" d="M-524.77 545.73h109.47l9.82 9.65v18.51h-119.29v-28.16z"/></clipPath><clipPath id="clip-path-12"><circle class="cls-1" cx="428.14" cy="543.9" r="50.5"/></clipPath><clipPath id="clip-path-13"><circle class="cls-1" cx="428.14" cy="543.9" r="43.5"/></clipPath></defs><path class="cls-4" d="M169.87 93.88h-56.13V20.5h37.59l18.54 16.75v56.63z"/><path class="cls-5" d="M151.33 20.5v16.76h18.54"/><circle class="cls-4" cx="141.83" cy="93.69" r="17.9"/><path class="cls-5" d="M134.51 93.69h17.24m-10.51-9.15l-9.53 9.15 9.53 10.46"/><path class="cls-14" d="M-524.77 545.73h109.47l9.82 9.65v18.51h-119.29v-28.16z"/><g class="cls-15"><path class="cls-16" d="M-844.03 115.22h962.06v828.83h-962.06z"/><path class="cls-17" d="M-844.03 115.22h962.06v828.83h-962.06z"/></g><path class="cls-18" d="M-524.77 545.73h109.47l9.82 9.65v18.51h-119.29v-28.16z"/></svg>