<svg id="Layer_1" data-name="Layer 1" xmlns="http://www.w3.org/2000/svg" viewBox="0 0 276 137"><defs><style>.cls-1,.cls-15,.cls-16,.cls-2,.cls-7{fill:none}.cls-2,.cls-3{clip-rule:evenodd}.cls-12,.cls-14,.cls-3,.cls-6{fill:#fff}.cls-15,.cls-16,.cls-3{stroke:#0e1f2d;stroke-width:1.88px}.cls-15,.cls-16,.cls-3,.cls-6,.cls-7{stroke-miterlimit:10}.cls-6,.cls-7{stroke:#0c1f2e;stroke-linecap:round;stroke-width:3px}.cls-12,.cls-16{fill-rule:evenodd}.cls-13{clip-path:url(#clip-path-9)}</style><clipPath id="clip-path"><circle class="cls-1" cx="137.48" cy="-243.41" r="50.5"/></clipPath><clipPath id="clip-path-2"><circle class="cls-1" cx="137.48" cy="-243.41" r="43.5"/></clipPath><clipPath id="clip-path-3"><path class="cls-2" d="M396.69 102.58a29.08 29.08 0 1 1 29.08-29.08 29.08 29.08 0 0 1-29.08 29.08zm0 2.24a31.32 31.32 0 1 0-31.31-31.32 31.32 31.32 0 0 0 31.31 31.32zm-46.25-77.57h92.5v92.5h-92.5z"/></clipPath><clipPath id="clip-path-4"><circle class="cls-1" cx="396.69" cy="73.5" r="30.2"/></clipPath><clipPath id="clip-path-6"><path class="cls-2" d="M479.23 102.58A29.08 29.08 0 1 1 508.3 73.5a29.08 29.08 0 0 1-29.07 29.08zm0 2.24a31.32 31.32 0 1 0-31.32-31.32 31.32 31.32 0 0 0 31.32 31.32zM433 27.25h92.5v92.5H433z"/></clipPath><clipPath id="clip-path-7"><circle class="cls-1" cx="479.23" cy="73.5" r="30.2"/></clipPath><clipPath id="clip-path-9"><path class="cls-3" d="M392.34 213.06h65.16l5.84 5.75v11.01h-71v-16.76z"/></clipPath><clipPath id="clip-path-10"><circle class="cls-1" cx="136.82" cy="386.42" r="50.5"/></clipPath><clipPath id="clip-path-11"><circle class="cls-1" cx="136.82" cy="386.42" r="43.5"/></clipPath><clipPath id="clip-path-12"><circle class="cls-1" cx="132.14" cy="543.9" r="50.5"/></clipPath><clipPath id="clip-path-13"><circle class="cls-1" cx="132.14" cy="543.9" r="43.5"/></clipPath></defs><path class="cls-6" d="M178.79 93.88h-56.13V20.5h37.59l18.54 16.75v56.63z"/><path class="cls-7" d="M160.25 20.5v16.76h18.54"/><circle class="cls-6" cx="150.75" cy="93.69" r="17.9"/><path class="cls-7" d="M143.42 93.69h17.25m-9.33 9.15l9.53-9.15-9.53-10.46"/><path class="cls-12" d="M392.34 213.06h65.16l5.84 5.75v11.01h-71v-16.76z"/><g class="cls-13"><path class="cls-14" d="M202.31-43.18h572.62v493.32H202.31z"/><path class="cls-15" d="M202.31-43.18h572.62v493.32H202.31z"/></g><path class="cls-16" d="M392.34 213.06h65.16l5.84 5.75v11.01h-71v-16.76z"/></svg>