<svg id="Layer_1" data-name="Layer 1" xmlns="http://www.w3.org/2000/svg" viewBox="0 0 276 137"><defs><style>.cls-1,.cls-3{fill:none}.cls-2,.cls-3{stroke-miterlimit:10}.cls-2{fill:#fff;stroke:#101f2c;stroke-width:2.74px}.cls-3{stroke:#0c1f2e;stroke-width:2px}.cls-4{clip-path:url(#clip-path)}.cls-5{clip-path:url(#clip-path-2)}.cls-6{clip-path:url(#clip-path-3)}.cls-7{clip-path:url(#clip-path-4)}</style><clipPath id="clip-path"><circle class="cls-1" cx="-751.84" cy="225.5" r="50.5"/></clipPath><clipPath id="clip-path-2"><circle class="cls-1" cx="-751.84" cy="225.5" r="43.5"/></clipPath><clipPath id="clip-path-3"><circle class="cls-1" cx="-158" cy="225.5" r="50.5"/></clipPath><clipPath id="clip-path-4"><circle class="cls-1" cx="-158" cy="225.5" r="43.5"/></clipPath></defs><title>EXPERIENTIAL ICONS 2 (2)</title><path class="cls-2" d="M79.97 17.97h116.05v77.32H79.97z"/><path class="cls-2" d="M87.13 23.94h101.74v65.43H87.13zM122.9 95.29h30.21v18.44H122.9zM113.77 113.73h48.46v5.3h-48.46z"/><path class="cls-3" d="M148 48V34h-21v14h-7v31h36V48zm-6.14 22h-7.72l1.86-5.54a3.85 3.85 0 0 1 2-7.13 3.85 3.85 0 0 1 2 7.14zM143 48h-11v-9h11z"/></svg>