<svg xmlns="http://www.w3.org/2000/svg" xmlns:xlink="http://www.w3.org/1999/xlink" viewBox="0 0 276 137"><defs><path id="a" d="M71.2-421h-1.5v38h142v-25.1l-.4-.4-11.4-12-.4-.5H71.2zm0 3h127.6l-1.1-.5 11.4 12-.4-1v23l1.5-1.5h-139l1.5 1.5v-35l-1.5 1.5zm-21.5-23h182v78h-182v-78z"/></defs><clipPath id="b"><use xlink:href="#a" overflow="visible"/></clipPath><g clip-path="url(#b)"><defs><path id="c" d="M71.2-419.5h127.6l11.4 12v23h-139z"/></defs></g><defs><path id="d" d="M71.2-419.5h127.6l11.4 12v23h-139z"/></defs><defs><path id="e" d="M104.2-369.6c-8 0-14.5-6.5-14.5-14.5s6.5-14.5 14.5-14.5 14.5 6.5 14.5 14.5-6.4 14.5-14.5 14.5zm0 3c9.7 0 17.5-7.8 17.5-17.5s-7.8-17.5-17.5-17.5-17.5 7.8-17.5 17.5 7.9 17.5 17.5 17.5zm-37.5-55h75v75h-75v-75z"/></defs><clipPath id="f"><use xlink:href="#e" overflow="visible"/></clipPath><g clip-path="url(#f)"><defs><circle id="g" cx="104.2" cy="-384.1" r="16"/></defs></g><defs><circle id="h" cx="104.2" cy="-384.1" r="16"/></defs><defs><path id="i" d="M104.2-376.6c-4.1 0-7.5-3.4-7.5-7.5s3.4-7.5 7.5-7.5 7.5 3.4 7.5 7.5-3.3 7.5-7.5 7.5zm0 3c5.8 0 10.5-4.7 10.5-10.5s-4.7-10.5-10.5-10.5-10.5 4.7-10.5 10.5 4.7 10.5 10.5 10.5zm-30.5-41h61v61h-61v-61z"/></defs><clipPath id="j"><use xlink:href="#i" overflow="visible"/></clipPath><g clip-path="url(#j)"><defs><circle id="k" cx="104.2" cy="-384.1" r="9"/></defs></g><defs><circle id="l" cx="104.2" cy="-384.1" r="9"/></defs><defs><path id="m" d="M170.5-369.6c-8 0-14.5-6.5-14.5-14.5s6.5-14.5 14.5-14.5 14.5 6.5 14.5 14.5-6.5 14.5-14.5 14.5zm0 3c9.7 0 17.5-7.8 17.5-17.5s-7.8-17.5-17.5-17.5-17.5 7.8-17.5 17.5 7.8 17.5 17.5 17.5zm-37.5-55h75v75h-75v-75z"/></defs><clipPath id="n"><use xlink:href="#m" overflow="visible"/></clipPath><g clip-path="url(#n)"><defs><circle id="o" cx="170.5" cy="-384.1" r="16"/></defs></g><defs><circle id="p" cx="170.5" cy="-384.1" r="16"/></defs><defs><path id="q" d="M170.7-424.4L163-440h-27.2v15.6h34.9zm-75.2 0l7.4-15.6h27.2v15.6H95.5zm-10.3 5.3L99.4-446h66.8l15.3 27.9-96.3-1z"/></defs><defs><path id="r" d="M170.5-376.6c-4.1 0-7.5-3.4-7.5-7.5s3.4-7.5 7.5-7.5 7.5 3.4 7.5 7.5-3.4 7.5-7.5 7.5zm0 3c5.8 0 10.5-4.7 10.5-10.5s-4.7-10.5-10.5-10.5-10.5 4.7-10.5 10.5 4.7 10.5 10.5 10.5zm-30.5-41h61v61h-61v-61z"/></defs><clipPath id="s"><use xlink:href="#r" overflow="visible"/></clipPath><g clip-path="url(#s)"><defs><circle id="t" cx="170.5" cy="-384.1" r="9"/></defs></g><defs><circle id="u" cx="170.5" cy="-384.1" r="9"/></defs><defs><path id="v" d="M-204.6-451.3h-1.5v84h108v-84h-106.5zm0 3h105l-1.5-1.5v81l1.5-1.5h-105l1.5 1.5v-81l-1.5 1.5zm-21.5-23h148v124h-148v-124z"/></defs><clipPath id="w"><use xlink:href="#v" overflow="visible"/></clipPath><g clip-path="url(#w)"><defs><path id="x" d="M-204.6-449.8h105v81h-105z"/></defs></g><defs><path id="y" d="M-204.6-449.8h105v81h-105z"/></defs><defs><path id="z" d="M-210.6-434.3h-2.2l.9-2.1 9.1-22 .4-.9h100.9l.4.9 9.1 22 .9 2.1h-119.5zm0-3h117l-1.4 2.1-9.1-22 1.4.9h-98.9l1.4-.9-9.1 22-1.3-2.1zm-22.3 23h161.5v-65h-161.5v65z"/></defs><clipPath id="A"><use xlink:href="#z" overflow="visible"/></clipPath><g clip-path="url(#A)"><defs><path id="B" d="M-210.6-435.8h117l-9.1-22h-98.8z"/></defs></g><defs><path id="C" d="M-210.6-435.8h117l-9.1-22h-98.8z"/></defs><defs><path id="D" d="M-125.6-467.3h-1.5v19h15v-19h-13.5zm0 3h12l-1.5-1.5v16l1.5-1.5h-12l1.5 1.5v-16l-1.5 1.5zm-21.5-23h55v59h-55v-59z"/></defs><clipPath id="E"><use xlink:href="#D" overflow="visible"/></clipPath><g clip-path="url(#E)"><defs><path id="F" d="M-125.6-465.8h12v16h-12z"/></defs></g><defs><path id="G" d="M-125.6-465.8h12v16h-12z"/></defs><defs><path id="H" d="M-191.6-401.3h-1.5v34h24v-34h-22.5zm0 3h21l-1.5-1.5v31l1.5-1.5h-21l1.5 1.5v-31l-1.5 1.5zm-21.5-23h64v74h-64v-74z"/></defs><clipPath id="I"><use xlink:href="#H" overflow="visible"/></clipPath><g clip-path="url(#I)"><defs><path id="J" d="M-191.6-399.8h21v31h-21z"/></defs></g><defs><path id="K" d="M-191.6-399.8h21v31h-21z"/></defs><defs><path id="L" d="M-190.6-429.3h-1.5v22h22v-22h-20.5zm0 3h19l-1.5-1.5v19l1.5-1.5h-19l1.5 1.5v-19l-1.5 1.5zm-21.5-23h62v62h-62v-62z"/></defs><clipPath id="M"><use xlink:href="#L" overflow="visible"/></clipPath><g clip-path="url(#M)"><defs><path id="N" d="M-190.6-427.8h19v19h-19z"/></defs></g><defs><path id="O" d="M-190.6-427.8h19v19h-19z"/></defs><defs><path id="P" d="M-185.6-424.3h-1.5v12h12v-12h-10.5zm0 3h9l-1.5-1.5v9l1.5-1.5h-9l1.5 1.5v-9l-1.5 1.5zm-21.5-23h52v52h-52v-52z"/></defs><clipPath id="Q"><use xlink:href="#P" overflow="visible"/></clipPath><g clip-path="url(#Q)"><defs><path id="R" d="M-185.6-422.8h9v9h-9z"/></defs></g><defs><path id="S" d="M-185.6-422.8h9v9h-9z"/></defs><defs><path id="T" d="M-160.6-429.3h-1.5v22h22v-22h-20.5zm0 3h19l-1.5-1.5v19l1.5-1.5h-19l1.5 1.5v-19l-1.5 1.5zm-21.5-23h62v62h-62v-62z"/></defs><clipPath id="U"><use xlink:href="#T" overflow="visible"/></clipPath><g clip-path="url(#U)"><defs><path id="V" d="M-160.6-427.8h19v19h-19z"/></defs></g><defs><path id="W" d="M-160.6-427.8h19v19h-19z"/></defs><defs><path id="X" d="M-131.6-429.3h-1.5v22h22v-22h-20.5zm0 3h19l-1.5-1.5v19l1.5-1.5h-19l1.5 1.5v-19l-1.5 1.5zm-21.5-23h62v62h-62v-62z"/></defs><clipPath id="Y"><use xlink:href="#X" overflow="visible"/></clipPath><g clip-path="url(#Y)"><defs><path id="Z" d="M-131.6-427.8h19v19h-19z"/></defs></g><defs><path id="aa" d="M-131.6-427.8h19v19h-19z"/></defs><defs><path id="ab" d="M-160.6-401.3h-1.5v22h22v-22h-20.5zm0 3h19l-1.5-1.5v19l1.5-1.5h-19l1.5 1.5v-19l-1.5 1.5zm-21.5-23h62v62h-62v-62z"/></defs><clipPath id="ac"><use xlink:href="#ab" overflow="visible"/></clipPath><g clip-path="url(#ac)"><defs><path id="ad" d="M-160.6-399.8h19v19h-19z"/></defs></g><defs><path id="ae" d="M-160.6-399.8h19v19h-19z"/></defs><defs><path id="af" d="M-131.6-401.3h-1.5v22h22v-22h-20.5zm0 3h19l-1.5-1.5v19l1.5-1.5h-19l1.5 1.5v-19l-1.5 1.5zm-21.5-23h62v62h-62v-62z"/></defs><clipPath id="ag"><use xlink:href="#af" overflow="visible"/></clipPath><g clip-path="url(#ag)"><defs><path id="ah" d="M-131.6-399.8h19v19h-19z"/></defs></g><defs><path id="ai" d="M-131.6-399.8h19v19h-19z"/></defs><defs><path id="aj" d="M-155.6-424.3h-1.5v12h12v-12h-10.5zm0 3h9l-1.5-1.5v9l1.5-1.5h-9l1.5 1.5v-9l-1.5 1.5zm-21.5-23h52v52h-52v-52z"/></defs><clipPath id="ak"><use xlink:href="#aj" overflow="visible"/></clipPath><g clip-path="url(#ak)"><defs><path id="al" d="M-155.6-422.8h9v9h-9z"/></defs></g><defs><path id="am" d="M-155.6-422.8h9v9h-9z"/></defs><defs><path id="an" d="M-126.6-424.3h-1.5v12h12v-12h-10.5zm0 3h9l-1.5-1.5v9l1.5-1.5h-9l1.5 1.5v-9l-1.5 1.5zm-21.5-23h52v52h-52v-52z"/></defs><clipPath id="ao"><use xlink:href="#an" overflow="visible"/></clipPath><g clip-path="url(#ao)"><defs><path id="ap" d="M-126.6-422.8h9v9h-9z"/></defs></g><defs><path id="aq" d="M-126.6-422.8h9v9h-9z"/></defs><defs><path id="ar" d="M-155.6-396.3h-1.5v12h12v-12h-10.5zm0 3h9l-1.5-1.5v9l1.5-1.5h-9l1.5 1.5v-9l-1.5 1.5zm-21.5-23h52v52h-52v-52z"/></defs><clipPath id="as"><use xlink:href="#ar" overflow="visible"/></clipPath><g clip-path="url(#as)"><defs><path id="at" d="M-155.6-394.8h9v9h-9z"/></defs></g><defs><path id="au" d="M-155.6-394.8h9v9h-9z"/></defs><defs><path id="av" d="M-126.6-396.3h-1.5v12h12v-12h-10.5zm0 3h9l-1.5-1.5v9l1.5-1.5h-9l1.5 1.5v-9l-1.5 1.5zm-21.5-23h52v52h-52v-52z"/></defs><clipPath id="aw"><use xlink:href="#av" overflow="visible"/></clipPath><g clip-path="url(#aw)"><defs><path id="ax" d="M-126.6-394.8h9v9h-9z"/></defs></g><defs><path id="ay" d="M-126.6-394.8h9v9h-9z"/></defs><g><path fill="#FFF" d="M112.5 42.1h77.3v64.7H89.1V58.9"/><path fill="#0C1F2E" d="M191.3 108.3H87.6V58.8c0-.8.7-1.5 1.5-1.5s1.5.7 1.5 1.5v46.4h97.7V43.6h-75.8c-.8 0-1.5-.7-1.5-1.5s.7-1.5 1.5-1.5h78.8v67.7z"/></g><g><path fill="#FFF" d="M184.6 102.1H94V57.9h10.9v-5.4h5.4V47h74.3z"/><path fill="#0C1F2E" d="M186.1 103.6H92.5V56.4h10.9V51h5.4v-5.6h77.3v58.2zm-90.6-3h87.6V48.5h-71.3V54h-5.4v5.4H95.5v41.2z"/></g><g><path fill="#FFF" d="M87.9 37h5v5h-5z"/><path fill="#0C1F2E" d="M94.4 43.5h-8v-8h8v8zm-5-3h2v-2h-2v2z"/></g><g><path fill="#FFF" d="M97.7 45.5h6.1v6.1h-6.1z"/><path fill="#0C1F2E" d="M105.2 53h-9.1v-9h9.1v9zm-6-3h3.1v-3h-3.1v3z"/></g><g><path fill="#FFF" d="M82.4 29.8h2.5v2.5h-2.5z"/><path fill="#0C1F2E" d="M80.9 28.3h5.5v5.5h-5.5z"/></g><g><path fill="#FFF" d="M99.7 34.5h2.5V37h-2.5z"/><path fill="#0C1F2E" d="M98.2 33h5.5v5.5h-5.5z"/></g><g><path fill="#FFF" d="M89.2 49.6h2.5v2.5h-2.5z"/><path fill="#0C1F2E" d="M87.7 48.1h5.5v5.5h-5.5z"/></g><g><path fill="#FFF" d="M113 60.2h2.5v2.5H113z"/><path fill="#0C1F2E" d="M111.5 58.7h5.5v5.5h-5.5z"/></g><g><path fill="#0C1F2E" d="M163.4 43.4c-.6 0-1.1-.3-1.4-.9-1.2-1.7-13.1-12.7-21.1-20l-21.6 20.4c-.6.6-1.6.5-2.1-.1-.6-.6-.5-1.6.1-2.1l23.6-22.4 1 .9c22.5 20.4 22.8 21.6 23 22.2.2.8-.3 1.6-1.1 1.8-.1.1-.2.2-.4.2z"/></g><g><path fill="#0C1F2E" d="M144.4 24.3c-2.3 0-4.2-1.9-4.2-4.2s1.9-4.2 4.2-4.2 4.2 1.9 4.2 4.2-1.9 4.2-4.2 4.2zm0-5.5c-.7 0-1.2.6-1.2 1.2s.6 1.2 1.2 1.2 1.2-.6 1.2-1.2-.6-1.2-1.2-1.2z"/></g></svg>