<svg xmlns="http://www.w3.org/2000/svg" viewBox="0 0 276 137"><defs><path id="a" d="M71.2-421h-1.5v38h142v-25.1l-.4-.4-11.4-12-.4-.5H71.2zm0 3h127.6l-1.1-.5 11.4 12-.4-1v23l1.5-1.5h-139l1.5 1.5v-35l-1.5 1.5zm-21.5-23h182v78h-182v-78z"/></defs><defs><path id="b" d="M104.2-369.6c-8 0-14.5-6.5-14.5-14.5s6.5-14.5 14.5-14.5 14.5 6.5 14.5 14.5-6.4 14.5-14.5 14.5zm0 3c9.7 0 17.5-7.8 17.5-17.5s-7.8-17.5-17.5-17.5-17.5 7.8-17.5 17.5 7.9 17.5 17.5 17.5zm-37.5-55h75v75h-75v-75z"/></defs><defs><path id="c" d="M104.2-376.6c-4.1 0-7.5-3.4-7.5-7.5s3.4-7.5 7.5-7.5 7.5 3.4 7.5 7.5-3.3 7.5-7.5 7.5zm0 3c5.8 0 10.5-4.7 10.5-10.5s-4.7-10.5-10.5-10.5-10.5 4.7-10.5 10.5 4.7 10.5 10.5 10.5zm-30.5-41h61v61h-61v-61z"/></defs><defs><path id="d" d="M170.5-369.6c-8 0-14.5-6.5-14.5-14.5s6.5-14.5 14.5-14.5 14.5 6.5 14.5 14.5-6.5 14.5-14.5 14.5zm0 3c9.7 0 17.5-7.8 17.5-17.5s-7.8-17.5-17.5-17.5-17.5 7.8-17.5 17.5 7.8 17.5 17.5 17.5zm-37.5-55h75v75h-75v-75z"/></defs><defs><path id="e" d="M170.5-376.6c-4.1 0-7.5-3.4-7.5-7.5s3.4-7.5 7.5-7.5 7.5 3.4 7.5 7.5-3.4 7.5-7.5 7.5zm0 3c5.8 0 10.5-4.7 10.5-10.5s-4.7-10.5-10.5-10.5-10.5 4.7-10.5 10.5 4.7 10.5 10.5 10.5zm-30.5-41h61v61h-61v-61z"/></defs><defs><path id="f" d="M-204.6-451.3h-1.5v84h108v-84h-106.5zm0 3h105l-1.5-1.5v81l1.5-1.5h-105l1.5 1.5v-81l-1.5 1.5zm-21.5-23h148v124h-148v-124z"/></defs><defs><path id="g" d="M-210.6-434.3h-2.2l.9-2.1 9.1-22 .4-.9h100.9l.4.9 9.1 22 .9 2.1h-119.5zm0-3h117l-1.4 2.1-9.1-22 1.4.9h-98.9l1.4-.9-9.1 22-1.3-2.1zm-22.3 23h161.5v-65h-161.5v65z"/></defs><defs><path id="h" d="M-125.6-467.3h-1.5v19h15v-19h-13.5zm0 3h12l-1.5-1.5v16l1.5-1.5h-12l1.5 1.5v-16l-1.5 1.5zm-21.5-23h55v59h-55v-59z"/></defs><defs><path id="i" d="M-191.6-401.3h-1.5v34h24v-34h-22.5zm0 3h21l-1.5-1.5v31l1.5-1.5h-21l1.5 1.5v-31l-1.5 1.5zm-21.5-23h64v74h-64v-74z"/></defs><defs><path id="j" d="M-190.6-429.3h-1.5v22h22v-22h-20.5zm0 3h19l-1.5-1.5v19l1.5-1.5h-19l1.5 1.5v-19l-1.5 1.5zm-21.5-23h62v62h-62v-62z"/></defs><defs><path id="k" d="M-185.6-424.3h-1.5v12h12v-12h-10.5zm0 3h9l-1.5-1.5v9l1.5-1.5h-9l1.5 1.5v-9l-1.5 1.5zm-21.5-23h52v52h-52v-52z"/></defs><defs><path id="l" d="M-160.6-429.3h-1.5v22h22v-22h-20.5zm0 3h19l-1.5-1.5v19l1.5-1.5h-19l1.5 1.5v-19l-1.5 1.5zm-21.5-23h62v62h-62v-62z"/></defs><defs><path id="m" d="M-131.6-429.3h-1.5v22h22v-22h-20.5zm0 3h19l-1.5-1.5v19l1.5-1.5h-19l1.5 1.5v-19l-1.5 1.5zm-21.5-23h62v62h-62v-62z"/></defs><defs><path id="n" d="M-160.6-401.3h-1.5v22h22v-22h-20.5zm0 3h19l-1.5-1.5v19l1.5-1.5h-19l1.5 1.5v-19l-1.5 1.5zm-21.5-23h62v62h-62v-62z"/></defs><defs><path id="o" d="M-131.6-401.3h-1.5v22h22v-22h-20.5zm0 3h19l-1.5-1.5v19l1.5-1.5h-19l1.5 1.5v-19l-1.5 1.5zm-21.5-23h62v62h-62v-62z"/></defs><defs><path id="p" d="M-155.6-424.3h-1.5v12h12v-12h-10.5zm0 3h9l-1.5-1.5v9l1.5-1.5h-9l1.5 1.5v-9l-1.5 1.5zm-21.5-23h52v52h-52v-52z"/></defs><defs><path id="q" d="M-126.6-424.3h-1.5v12h12v-12h-10.5zm0 3h9l-1.5-1.5v9l1.5-1.5h-9l1.5 1.5v-9l-1.5 1.5zm-21.5-23h52v52h-52v-52z"/></defs><defs><path id="r" d="M-155.6-396.3h-1.5v12h12v-12h-10.5zm0 3h9l-1.5-1.5v9l1.5-1.5h-9l1.5 1.5v-9l-1.5 1.5zm-21.5-23h52v52h-52v-52z"/></defs><defs><path id="s" d="M-126.6-396.3h-1.5v12h12v-12h-10.5zm0 3h9l-1.5-1.5v9l1.5-1.5h-9l1.5 1.5v-9l-1.5 1.5zm-21.5-23h52v52h-52v-52z"/></defs><path fill="#FFF" d="M112.5 42.1h77.3v64.7H89.1V58.9"/><path fill="#0C1F2E" d="M191.3 108.3H87.6V58.8c0-.8.7-1.5 1.5-1.5s1.5.7 1.5 1.5v46.4h97.7V43.6h-75.8c-.8 0-1.5-.7-1.5-1.5s.7-1.5 1.5-1.5h78.8v67.7z"/><path fill="#FFF" d="M184.6 102.1H94V57.9h10.9v-5.4h5.4V47h74.3z"/><path fill="#0C1F2E" d="M186.1 103.6H92.5V56.4h10.9V51h5.4v-5.6h77.3v58.2zm-90.6-3h87.6V48.5h-71.3V54h-5.4v5.4H95.5v41.2z"/><path fill="#FFF" d="M87.9 37h5v5h-5z"/><path fill="#0C1F2E" d="M94.4 43.5h-8v-8h8v8zm-5-3h2v-2h-2v2z"/><path fill="#FFF" d="M97.7 45.5h6.1v6.1h-6.1z"/><path fill="#0C1F2E" d="M105.2 53h-9.1v-9h9.1v9zm-6-3h3.1v-3h-3.1v3z"/><path fill="#FFF" d="M82.4 29.8h2.5v2.5h-2.5z"/><path fill="#0C1F2E" d="M80.9 28.3h5.5v5.5h-5.5z"/><path fill="#FFF" d="M99.7 34.5h2.5V37h-2.5z"/><path fill="#0C1F2E" d="M98.2 33h5.5v5.5h-5.5z"/><path fill="#FFF" d="M89.2 49.6h2.5v2.5h-2.5z"/><path fill="#0C1F2E" d="M87.7 48.1h5.5v5.5h-5.5z"/><path fill="#FFF" d="M113 60.2h2.5v2.5H113z"/><path fill="#0C1F2E" d="M111.5 58.7h5.5v5.5h-5.5z"/><g><path fill="#0C1F2E" d="M163.4 43.4c-.6 0-1.1-.3-1.4-.9-1.2-1.7-13.1-12.7-21.1-20l-21.6 20.4c-.6.6-1.6.5-2.1-.1-.6-.6-.5-1.6.1-2.1l23.6-22.4 1 .9c22.5 20.4 22.8 21.6 23 22.2.2.8-.3 1.6-1.1 1.8-.1.1-.2.2-.4.2z"/></g><g><path fill="#0C1F2E" d="M144.4 24.3c-2.3 0-4.2-1.9-4.2-4.2s1.9-4.2 4.2-4.2 4.2 1.9 4.2 4.2-1.9 4.2-4.2 4.2zm0-5.5c-.7 0-1.2.6-1.2 1.2s.6 1.2 1.2 1.2 1.2-.6 1.2-1.2-.6-1.2-1.2-1.2z"/></g></svg>