<svg xmlns="http://www.w3.org/2000/svg" xmlns:xlink="http://www.w3.org/1999/xlink" viewBox="0 0 276 137"><defs><path id="a" d="M-159.9-937.6c30.3 0 55 7.1 55 14.8v22l1.7-1.5c-.1 0-.2 0-.4-.1-.4-.1-.8-.1-1.3-.2-1.4-.2-2.9-.4-4.6-.6-4.9-.7-10-1.3-15.2-2-3.9-.5-7.7-.9-11.3-1.3-9.9-1-18.1-1.6-23.9-1.6-5.2 0-14.3.8-26.1 2.3-2.5.3-5.1.6-7.7 1-5.4.7-10.9 1.5-16.1 2.3-1.8.3-3.5.5-5 .8-.5.1-1 .2-1.4.2-.2 0-.4.1-.5.1l1.7 1.5v-23c.1-7.6 24.8-14.7 55.1-14.7zm0-3c-32.1 0-58 7.5-58 17.8v24.8l1.7-.3c.1 0 .2 0 .5-.1.4-.1.8-.1 1.4-.2 1.5-.2 3.1-.5 5-.8 5.2-.8 10.7-1.6 16.1-2.3 2.6-.4 5.2-.7 7.7-1 11.7-1.5 20.7-2.3 25.7-2.3 5.6 0 13.7.6 23.6 1.6 3.6.4 7.4.8 11.2 1.3 5.2.6 10.3 1.3 15.2 2 1.7.2 3.2.4 4.6.6.5.1.9.1 1.2.2.2 0 .4.1.4.1l1.7.3v-23.7c0-10.6-25.9-18-58-18zm-78-20h156v82.5h-156v-82.5z"/></defs><clipPath id="b"><use xlink:href="#a" overflow="visible"/></clipPath><g clip-path="url(#b)"><defs><path id="c" d="M-159.9-939.1c-31.2 0-56.5 7.3-56.5 16.3v23s42.2-6.7 56.5-6.7c18 0 56.5 5.7 56.5 5.7v-22c0-9-25.3-16.3-56.5-16.3z"/></defs><clipPath id="d"><use xlink:href="#c" overflow="visible"/></clipPath><g clip-path="url(#d)"><defs><path id="e" d="M-1075.4-1021.9h1121V8.1h-1121z"/></defs></g></g><defs><path id="f" d="M-159.9-939.1c-31.2 0-56.5 7.3-56.5 16.3v23s42.2-6.7 56.5-6.7c18 0 56.5 5.7 56.5 5.7v-22c0-9-25.3-16.3-56.5-16.3z"/></defs><clipPath id="g"><use xlink:href="#f" overflow="visible"/></clipPath><g clip-path="url(#g)"><defs><path id="h" d="M-1075.4-1021.9h1121V8.1h-1121z"/></defs></g><defs><path id="i" d="M-159.9-915.4c30.3 0 55 7.1 55 14.8 0 7.7-24.7 14.8-55 14.8s-55-7.1-55-14.8c0-7.6 24.7-14.8 55-14.8zm0-3c-32.1 0-58 7.5-58 17.8s25.9 17.8 58 17.8 58-7.5 58-17.8-25.9-17.8-58-17.8zm-78-20h156v75.6h-156v-75.6z"/></defs><clipPath id="j"><use xlink:href="#i" overflow="visible"/></clipPath><g clip-path="url(#j)"><defs><ellipse id="k" cx="-159.9" cy="-900.5" rx="56.5" ry="16.3"/></defs><clipPath id="l"><use xlink:href="#k" overflow="visible"/></clipPath><g clip-path="url(#l)"><defs><path id="m" d="M-1075.4-1021.9h1121V8.1h-1121z"/></defs></g></g><defs><ellipse id="n" cx="-159.9" cy="-900.5" rx="56.5" ry="16.3"/></defs><clipPath id="o"><use xlink:href="#n" overflow="visible"/></clipPath><g clip-path="url(#o)"><defs><path id="p" d="M-1075.4-1021.9h1121V8.1h-1121z"/></defs></g><defs><path id="q" d="M-199.9-896.2c0-5.3 18-10.4 40-10.4s40 5.2 40 10.4v7.1l1.2-1.5c-.1 0-.1 0-.3.1-.3 0-.6.1-.9.2-1 .2-2.1.3-3.4.5-3.6.6-7.3 1.1-11.1 1.7-2.9.4-5.6.8-8.3 1.1-7.2.9-13.1 1.3-17.2 1.3-3.7 0-10.3-.5-18.9-1.4-1.8-.2-3.7-.4-5.6-.6-4-.5-8-.9-11.8-1.4-1.3-.2-2.6-.3-3.6-.5-.4 0-.7-.1-1-.1h-.3l1.3 1.5v-8zm-3 0v9.1l1.3.2h.4c.3 0 .6.1 1 .1 1.1.1 2.3.3 3.7.5a11776882415803102 11776882415803102 0 0 0 36.7 3.5c4.3 0 10.3-.5 17.6-1.4 2.7-.3 5.4-.7 8.3-1.1 3.8-.5 7.6-1.1 11.2-1.7 1.3-.2 2.4-.4 3.4-.5.4-.1.7-.1.9-.2.3 0 .3 0 .3-.1l1.2-.2v-8.4c0-7.9-19.2-13.4-43-13.4s-43 5.7-43 13.6zm-20-33.4h126v66.9h-126v-66.9z"/></defs><clipPath id="r"><use xlink:href="#q" overflow="visible"/></clipPath><g clip-path="url(#r)"><defs><path id="s" d="M-201.4-896.2v7.8s31 4.1 41.5 4.1c13.2 0 41.5-4.8 41.5-4.8v-7.1c0-6.6-18.6-11.9-41.5-11.9s-41.5 5.3-41.5 11.9z"/></defs><clipPath id="t"><use xlink:href="#s" overflow="visible"/></clipPath><g clip-path="url(#t)"><defs><path id="u" d="M-1075.4-1021.9h1121V8.1h-1121z"/></defs></g></g><defs><path id="v" d="M-201.4-896.2v7.8s31 4.1 41.5 4.1c13.2 0 41.5-4.8 41.5-4.8v-7.1c0-6.6-18.6-11.9-41.5-11.9s-41.5 5.3-41.5 11.9z"/></defs><clipPath id="w"><use xlink:href="#v" overflow="visible"/></clipPath><g clip-path="url(#w)"><defs><path id="x" d="M-1075.4-1021.9h1121V8.1h-1121z"/></defs></g><defs><path id="y" d="M-159.9-898.3c22 0 40 5.2 40 10.4 0 5.3-18 10.4-40 10.4s-40-5.2-40-10.4 18-10.4 40-10.4zm0-3c-23.8 0-43 5.5-43 13.4s19.2 13.4 43 13.4 43-5.5 43-13.4-19.2-13.4-43-13.4zm-63-20h126v66.9h-126v-66.9z"/></defs><clipPath id="z"><use xlink:href="#y" overflow="visible"/></clipPath><g clip-path="url(#z)"><defs><ellipse id="A" cx="-159.9" cy="-887.9" rx="41.5" ry="11.9"/></defs><clipPath id="B"><use xlink:href="#A" overflow="visible"/></clipPath><g clip-path="url(#B)"><defs><path id="C" d="M-1075.4-1021.9h1121V8.1h-1121z"/></defs></g></g><defs><ellipse id="D" cx="-159.9" cy="-887.9" rx="41.5" ry="11.9"/></defs><clipPath id="E"><use xlink:href="#D" overflow="visible"/></clipPath><g clip-path="url(#E)"><defs><path id="F" d="M-1075.4-1021.9h1121V8.1h-1121z"/></defs></g><defs><path id="G" d="M-172.5-886.3c0 .4-.2.7-.4.8.1 0 .2-.1.4-.2.6-.2 1.6-.4 2.8-.6 2.6-.4 6-.6 9.8-.6s7.2.2 9.8.6c1.2.2 2.2.4 2.8.6l.4.2c-.2-.1-.4-.4-.4-.8s.2-.7.4-.8c-.1 0-.2.1-.4.2-.6.2-1.6.4-2.8.6-2.6.4-6 .6-9.8.6s-7.2-.2-9.8-.6c-1.2-.2-2.2-.4-2.8-.6l-.4-.2c.2.1.4.3.4.8zm-3 0c0 2.6 6.2 3.5 15.6 3.5 9.4 0 15.6-.9 15.6-3.5s-6.2-3.5-15.6-3.5c-9.4-.1-15.6.8-15.6 3.5zm-20-23.6h71.2v47.1h-71.2v-47.1z"/></defs><clipPath id="H"><use xlink:href="#G" overflow="visible"/></clipPath><g clip-path="url(#H)"><defs><ellipse id="I" cx="-159.9" cy="-886.3" rx="14.1" ry="2"/></defs><clipPath id="J"><use xlink:href="#I" overflow="visible"/></clipPath><g clip-path="url(#J)"><defs><path id="K" d="M-1075.4-1021.9h1121V8.1h-1121z"/></defs></g></g><defs><ellipse id="L" cx="-159.9" cy="-886.3" rx="14.1" ry="2"/></defs><clipPath id="M"><use xlink:href="#L" overflow="visible"/></clipPath><g clip-path="url(#M)"><defs><path id="N" d="M-1075.4-1021.9h1121V8.1h-1121z"/></defs></g><defs><path id="O" d="M-167.1-869s-10.5 3.3-9.1 12.3c.9 5.5 5.6 8.1 5.6 13.5s-4.6 9.5-4.6 9.5 13.5-.3 14.6-9.5c1.1-9.2-6.7-11.3-8.3-15.6-1.4-4.3 1.8-10.2 1.8-10.2z"/></defs><clipPath id="P"><use xlink:href="#O" overflow="visible"/></clipPath><g clip-path="url(#P)"><defs><path id="Q" d="M-1075.4-1021.9h1121V8.1h-1121z"/></defs></g><defs><path id="R" d="M-152-865.7s-15.1 4.8-13 17.6c1.2 7.9 8 11.6 8 19.4s-6.5 13.6-6.5 13.6 19.3-.5 20.9-13.6-9.6-16.1-11.8-22.3c-2.3-6.3 2.4-14.7 2.4-14.7z"/></defs><clipPath id="S"><use xlink:href="#R" overflow="visible"/></clipPath><g clip-path="url(#S)"><defs><path id="T" d="M-1075.4-1021.9h1121V8.1h-1121z"/></defs></g><defs><path id="U" d="M-152.9-195.1c-27.1 0-49-21.9-49-49s21.9-49 49-49 49 21.9 49 49-21.9 49-49 49zm0 3c28.7 0 52-23.3 52-52s-23.3-52-52-52-52 23.3-52 52 23.3 52 52 52zm-72-124h144v144h-144v-144z"/></defs><clipPath id="V"><use xlink:href="#U" overflow="visible"/></clipPath><g clip-path="url(#V)"><defs><circle id="W" cx="-152.9" cy="-244.1" r="50.5"/></defs><clipPath id="X"><use xlink:href="#W" overflow="visible"/></clipPath><g clip-path="url(#X)"><defs><path id="Y" d="M-327.4-980.1h1121v1030h-1121z"/></defs></g></g><defs><circle id="Z" cx="-152.9" cy="-244.1" r="50.5"/></defs><clipPath id="aa"><use xlink:href="#Z" overflow="visible"/></clipPath><g clip-path="url(#aa)"><defs><path id="ab" d="M-327.4-980.1h1121v1030h-1121z"/></defs></g><defs><circle id="ac" cx="-152.9" cy="-244.1" r="43.5"/></defs><clipPath id="ad"><use xlink:href="#ac" overflow="visible"/></clipPath><g clip-path="url(#ad)"><defs><path id="ae" d="M-327.4-980.1h1121v1030h-1121z"/></defs></g><defs><path id="af" d="M-750-42.7c-27.1 0-49-21.9-49-49s21.9-49 49-49 49 21.9 49 49-21.9 49-49 49zm0 3c28.7 0 52-23.3 52-52s-23.3-52-52-52-52 23.3-52 52 23.3 52 52 52zm-72-124h144v144h-144v-144z"/></defs><clipPath id="ag"><use xlink:href="#af" overflow="visible"/></clipPath><g clip-path="url(#ag)"><defs><circle id="ah" cx="-750" cy="-91.7" r="50.5"/></defs><clipPath id="ai"><use xlink:href="#ah" overflow="visible"/></clipPath><g clip-path="url(#ai)"><defs><path id="aj" d="M-924.5-827.7h1121v1030h-1121z"/></defs></g></g><defs><circle id="ak" cx="-750" cy="-91.7" r="50.5"/></defs><clipPath id="al"><use xlink:href="#ak" overflow="visible"/></clipPath><g clip-path="url(#al)"><defs><path id="am" d="M-924.5-827.7h1121v1030h-1121z"/></defs></g><defs><circle id="an" cx="-750" cy="-91.7" r="43.5"/></defs><clipPath id="ao"><use xlink:href="#an" overflow="visible"/></clipPath><g clip-path="url(#ao)"><defs><path id="ap" d="M-924.5-827.7h1121v1030h-1121z"/></defs></g><defs><path id="aq" d="M-749.3 124.5c-24.6 0-44.6-20-44.6-44.6s20-44.6 44.6-44.6 44.6 20 44.6 44.6-20 44.6-44.6 44.6zm0 2.7c26.1 0 47.3-21.2 47.3-47.3s-21.2-47.3-47.3-47.3c-26.1 0-47.3 21.2-47.3 47.3s21.2 47.3 47.3 47.3zm-65.5-112.8h131v131h-131v-131z"/></defs><clipPath id="ar"><use xlink:href="#aq" overflow="visible"/></clipPath><g clip-path="url(#ar)"><defs><circle id="as" cx="-749.3" cy="79.9" r="45.9"/></defs><clipPath id="at"><use xlink:href="#as" overflow="visible"/></clipPath><g clip-path="url(#at)"><defs><path id="au" d="M-908-589.7H111.8v937H-908z"/></defs></g></g><defs><circle id="av" cx="-749.3" cy="79.9" r="45.9"/></defs><clipPath id="aw"><use xlink:href="#av" overflow="visible"/></clipPath><g clip-path="url(#aw)"><defs><path id="ax" d="M-908-589.7H111.8v937H-908z"/></defs></g><defs><circle id="ay" cx="-749.3" cy="79.9" r="39.6"/></defs><clipPath id="az"><use xlink:href="#ay" overflow="visible"/></clipPath><g clip-path="url(#az)"><defs><path id="aA" d="M-908-589.7H111.8v937H-908z"/></defs></g><path fill="#FFF" stroke="#0C1F2E" stroke-width="3" stroke-linecap="round" stroke-miterlimit="10" d="M139.1 102H84.8V31.1h36.4l17.9 16.2z"/><g fill="none" stroke="#0C1F2E" stroke-width="3" stroke-linecap="round" stroke-miterlimit="10"><path d="M93.9 58.4H130M93.9 66.6H130"/></g><g fill="none" stroke="#0C1F2E" stroke-width="3" stroke-linecap="round" stroke-miterlimit="10"><path d="M93.9 76.1H130M93.9 84.3H130"/></g><g fill="#231F20"><path d="M95.8 47.3L94 39.8h1.8l.6 3.1c.2.9.3 1.8.4 2.6.1-.8.3-1.7.5-2.6l.6-3h1.8l.6 3.1c.2.9.3 1.7.4 2.5.1-.8.3-1.7.4-2.6l.6-3h1.7l-1.9 7.4h-1.8l-.6-3.2c-.1-.7-.3-1.4-.4-2.3-.1.8-.3 1.5-.4 2.3l-.7 3.2h-1.8zM104.1 47.3v-1l.9-.8c1.6-1.4 2.3-2.2 2.3-3 0-.6-.4-1-1.2-1-.6 0-1.2.3-1.5.6l-.5-1.2c.5-.4 1.4-.7 2.3-.7 1.6 0 2.5.9 2.5 2.2 0 1.2-.9 2.2-1.9 3.1l-.7.6h2.7v1.4h-4.9z"/></g><path fill="none" stroke="#0C1F2E" stroke-width="3" stroke-linecap="round" stroke-miterlimit="10" d="M121.2 31.1v16.2h17.9"/><path fill="#FFF" stroke="#0C1F2E" stroke-width="3" stroke-linecap="round" stroke-miterlimit="10" d="M206.9 102h-54.3V31.1h36.3l18 16.2z"/><g fill="none" stroke="#0C1F2E" stroke-width="3" stroke-linecap="round" stroke-miterlimit="10"><path d="M161.7 58.4h36.1M161.7 66.6h36.1"/></g><g fill="none" stroke="#0C1F2E" stroke-width="3" stroke-linecap="round" stroke-miterlimit="10"><path d="M161.7 76.1h36.1M161.7 84.3h36.1"/></g><g fill="#231F20"><path d="M163.6 47.3l-1.8-7.4h1.8l.6 3.1c.2.9.3 1.8.4 2.6.1-.8.3-1.7.5-2.6l.6-3h1.8l.6 3.1c.2.9.3 1.7.4 2.5.1-.8.3-1.7.4-2.6l.6-3h1.7l-1.9 7.4h-1.8l-.6-3.2c-.1-.7-.3-1.4-.4-2.3-.1.8-.3 1.5-.4 2.3l-.7 3.2h-1.8zM171.9 47.3v-1l.9-.8c1.6-1.4 2.3-2.2 2.3-3 0-.6-.4-1-1.2-1-.6 0-1.2.3-1.5.6l-.5-1.2c.5-.4 1.4-.7 2.3-.7 1.6 0 2.5.9 2.5 2.2 0 1.2-.9 2.2-1.9 3.1l-.7.6h2.7v1.4h-4.9zM182.3 47.1c-.3.1-.9.2-1.5.2-1.7 0-2.9-1.1-2.9-2.8 0-1.6 1.1-2.9 3.1-2.9.4 0 .9.1 1.3.2L182 43c-.2-.1-.5-.2-.9-.2-.9 0-1.5.6-1.4 1.5 0 1 .7 1.5 1.5 1.5.4 0 .7-.1 1-.2l.1 1.5z"/></g><path fill="none" stroke="#0C1F2E" stroke-width="3" stroke-linecap="round" stroke-miterlimit="10" d="M188.9 31.1v16.2h18"/><circle fill="#FFF" stroke="#0F1F2D" stroke-width="3" stroke-linecap="round" stroke-miterlimit="10" cx="145.1" cy="105.7" r="20.4"/><path fill="none" stroke="#0F1F2D" stroke-width="3" stroke-linecap="round" stroke-miterlimit="10" d="M155.6 98.7l-13.9 13.9-6.1-5.5"/><g><defs><path id="aB" d="M-210.5 191.2h-1.5v84h108v-84h-106.5zm0 3h105l-1.5-1.5v81l1.5-1.5h-105l1.5 1.5v-81l-1.5 1.5zm-21.5-23h148v124h-148v-124z"/></defs><clipPath id="aC"><use xlink:href="#aB" overflow="visible"/></clipPath><g clip-path="url(#aC)"><defs><path id="aD" d="M-210.5 192.7h105v81h-105z"/></defs><clipPath id="aE"><use xlink:href="#aD" overflow="visible"/></clipPath><g clip-path="url(#aE)"><defs><path id="aF" d="M-1091.5-306.3h1121v1030h-1121z"/></defs></g></g></g><g><defs><path id="aG" d="M-210.5 192.7h105v81h-105z"/></defs><clipPath id="aH"><use xlink:href="#aG" overflow="visible"/></clipPath><g clip-path="url(#aH)"><defs><path id="aI" d="M-1091.5-306.3h1121v1030h-1121z"/></defs></g></g><g><defs><path id="aJ" d="M-216.5 208.2h-2.2l.9-2.1 9.1-22 .4-.9h100.9l.4.9 9.1 22 .9 2.1h-119.5zm0-3h117l-1.4 2.1-9.1-22 1.4.9h-98.9l1.4-.9-9.1 22-1.3-2.1zm-22.2 23h161.5v-65h-161.5v65z"/></defs><clipPath id="aK"><use xlink:href="#aJ" overflow="visible"/></clipPath><g clip-path="url(#aK)"><defs><path id="aL" d="M-216.5 206.7h117l-9.1-22h-98.8z"/></defs><clipPath id="aM"><use xlink:href="#aL" overflow="visible"/></clipPath><g clip-path="url(#aM)"><defs><path id="aN" d="M-1091.5-306.3h1121v1030h-1121z"/></defs></g></g></g><g><defs><path id="aO" d="M-216.5 206.7h117l-9.1-22h-98.8z"/></defs><clipPath id="aP"><use xlink:href="#aO" overflow="visible"/></clipPath><g clip-path="url(#aP)"><defs><path id="aQ" d="M-1091.5-306.3h1121v1030h-1121z"/></defs></g></g><g><defs><path id="aR" d="M-131.5 175.2h-1.5v19h15v-19h-13.5zm0 3h12l-1.5-1.5v16l1.5-1.5h-12l1.5 1.5v-16l-1.5 1.5zm-21.5-23h55v59h-55v-59z"/></defs><clipPath id="aS"><use xlink:href="#aR" overflow="visible"/></clipPath><g clip-path="url(#aS)"><defs><path id="aT" d="M-131.5 176.7h12v16h-12z"/></defs><clipPath id="aU"><use xlink:href="#aT" overflow="visible"/></clipPath><g clip-path="url(#aU)"><defs><path id="aV" d="M-1091.5-306.3h1121v1030h-1121z"/></defs></g></g></g><g><defs><path id="aW" d="M-131.5 176.7h12v16h-12z"/></defs><clipPath id="aX"><use xlink:href="#aW" overflow="visible"/></clipPath><g clip-path="url(#aX)"><defs><path id="aY" d="M-1091.5-306.3h1121v1030h-1121z"/></defs></g></g><g><defs><path id="aZ" d="M-197.5 241.2h-1.5v34h24v-34h-22.5zm0 3h21l-1.5-1.5v31l1.5-1.5h-21l1.5 1.5v-31l-1.5 1.5zm-21.5-23h64v74h-64v-74z"/></defs><clipPath id="ba"><use xlink:href="#aZ" overflow="visible"/></clipPath><g clip-path="url(#ba)"><defs><path id="bb" d="M-197.5 242.7h21v31h-21z"/></defs><clipPath id="bc"><use xlink:href="#bb" overflow="visible"/></clipPath><g clip-path="url(#bc)"><defs><path id="bd" d="M-1091.5-306.3h1121v1030h-1121z"/></defs></g></g></g><g><defs><path id="be" d="M-197.5 242.7h21v31h-21z"/></defs><clipPath id="bf"><use xlink:href="#be" overflow="visible"/></clipPath><g clip-path="url(#bf)"><defs><path id="bg" d="M-1091.5-306.3h1121v1030h-1121z"/></defs></g></g><g><defs><path id="bh" d="M-196.5 213.2h-1.5v22h22v-22h-20.5zm0 3h19l-1.5-1.5v19l1.5-1.5h-19l1.5 1.5v-19l-1.5 1.5zm-21.5-23h62v62h-62v-62z"/></defs><clipPath id="bi"><use xlink:href="#bh" overflow="visible"/></clipPath><g clip-path="url(#bi)"><defs><path id="bj" d="M-196.5 214.7h19v19h-19z"/></defs><clipPath id="bk"><use xlink:href="#bj" overflow="visible"/></clipPath><g clip-path="url(#bk)"><defs><path id="bl" d="M-1091.5-306.3h1121v1030h-1121z"/></defs></g></g></g><g><defs><path id="bm" d="M-196.5 214.7h19v19h-19z"/></defs><clipPath id="bn"><use xlink:href="#bm" overflow="visible"/></clipPath><g clip-path="url(#bn)"><defs><path id="bo" d="M-1091.5-306.3h1121v1030h-1121z"/></defs></g></g><g><defs><path id="bp" d="M-191.5 218.2h-1.5v12h12v-12h-10.5zm0 3h9l-1.5-1.5v9l1.5-1.5h-9l1.5 1.5v-9l-1.5 1.5zm-21.5-23h52v52h-52v-52z"/></defs><clipPath id="bq"><use xlink:href="#bp" overflow="visible"/></clipPath><g clip-path="url(#bq)"><defs><path id="br" d="M-191.5 219.7h9v9h-9z"/></defs><clipPath id="bs"><use xlink:href="#br" overflow="visible"/></clipPath><g clip-path="url(#bs)"><defs><path id="bt" d="M-1091.5-306.3h1121v1030h-1121z"/></defs></g></g></g><g><defs><path id="bu" d="M-191.5 219.7h9v9h-9z"/></defs><clipPath id="bv"><use xlink:href="#bu" overflow="visible"/></clipPath><g clip-path="url(#bv)"><defs><path id="bw" d="M-1091.5-306.3h1121v1030h-1121z"/></defs></g></g><g><defs><path id="bx" d="M-166.5 213.2h-1.5v22h22v-22h-20.5zm0 3h19l-1.5-1.5v19l1.5-1.5h-19l1.5 1.5v-19l-1.5 1.5zm-21.5-23h62v62h-62v-62z"/></defs><clipPath id="by"><use xlink:href="#bx" overflow="visible"/></clipPath><g clip-path="url(#by)"><defs><path id="bz" d="M-166.5 214.7h19v19h-19z"/></defs><clipPath id="bA"><use xlink:href="#bz" overflow="visible"/></clipPath><g clip-path="url(#bA)"><defs><path id="bB" d="M-1091.5-306.3h1121v1030h-1121z"/></defs></g></g></g><g><defs><path id="bC" d="M-166.5 214.7h19v19h-19z"/></defs><clipPath id="bD"><use xlink:href="#bC" overflow="visible"/></clipPath><g clip-path="url(#bD)"><defs><path id="bE" d="M-1091.5-306.3h1121v1030h-1121z"/></defs></g></g><g><defs><path id="bF" d="M-137.5 213.2h-1.5v22h22v-22h-20.5zm0 3h19l-1.5-1.5v19l1.5-1.5h-19l1.5 1.5v-19l-1.5 1.5zm-21.5-23h62v62h-62v-62z"/></defs><clipPath id="bG"><use xlink:href="#bF" overflow="visible"/></clipPath><g clip-path="url(#bG)"><defs><path id="bH" d="M-137.5 214.7h19v19h-19z"/></defs><clipPath id="bI"><use xlink:href="#bH" overflow="visible"/></clipPath><g clip-path="url(#bI)"><defs><path id="bJ" d="M-1091.5-306.3h1121v1030h-1121z"/></defs></g></g></g><g><defs><path id="bK" d="M-137.5 214.7h19v19h-19z"/></defs><clipPath id="bL"><use xlink:href="#bK" overflow="visible"/></clipPath><g clip-path="url(#bL)"><defs><path id="bM" d="M-1091.5-306.3h1121v1030h-1121z"/></defs></g></g><g><defs><path id="bN" d="M-166.5 241.2h-1.5v22h22v-22h-20.5zm0 3h19l-1.5-1.5v19l1.5-1.5h-19l1.5 1.5v-19l-1.5 1.5zm-21.5-23h62v62h-62v-62z"/></defs><clipPath id="bO"><use xlink:href="#bN" overflow="visible"/></clipPath><g clip-path="url(#bO)"><defs><path id="bP" d="M-166.5 242.7h19v19h-19z"/></defs><clipPath id="bQ"><use xlink:href="#bP" overflow="visible"/></clipPath><g clip-path="url(#bQ)"><defs><path id="bR" d="M-1091.5-306.3h1121v1030h-1121z"/></defs></g></g></g><g><defs><path id="bS" d="M-166.5 242.7h19v19h-19z"/></defs><clipPath id="bT"><use xlink:href="#bS" overflow="visible"/></clipPath><g clip-path="url(#bT)"><defs><path id="bU" d="M-1091.5-306.3h1121v1030h-1121z"/></defs></g></g><g><defs><path id="bV" d="M-137.5 241.2h-1.5v22h22v-22h-20.5zm0 3h19l-1.5-1.5v19l1.5-1.5h-19l1.5 1.5v-19l-1.5 1.5zm-21.5-23h62v62h-62v-62z"/></defs><clipPath id="bW"><use xlink:href="#bV" overflow="visible"/></clipPath><g clip-path="url(#bW)"><defs><path id="bX" d="M-137.5 242.7h19v19h-19z"/></defs><clipPath id="bY"><use xlink:href="#bX" overflow="visible"/></clipPath><g clip-path="url(#bY)"><defs><path id="bZ" d="M-1091.5-306.3h1121v1030h-1121z"/></defs></g></g></g><g><defs><path id="ca" d="M-137.5 242.7h19v19h-19z"/></defs><clipPath id="cb"><use xlink:href="#ca" overflow="visible"/></clipPath><g clip-path="url(#cb)"><defs><path id="cc" d="M-1091.5-306.3h1121v1030h-1121z"/></defs></g></g><g><defs><path id="cd" d="M-161.5 218.2h-1.5v12h12v-12h-10.5zm0 3h9l-1.5-1.5v9l1.5-1.5h-9l1.5 1.5v-9l-1.5 1.5zm-21.5-23h52v52h-52v-52z"/></defs><clipPath id="ce"><use xlink:href="#cd" overflow="visible"/></clipPath><g clip-path="url(#ce)"><defs><path id="cf" d="M-161.5 219.7h9v9h-9z"/></defs><clipPath id="cg"><use xlink:href="#cf" overflow="visible"/></clipPath><g clip-path="url(#cg)"><defs><path id="ch" d="M-1091.5-306.3h1121v1030h-1121z"/></defs></g></g></g><g><defs><path id="ci" d="M-161.5 219.7h9v9h-9z"/></defs><clipPath id="cj"><use xlink:href="#ci" overflow="visible"/></clipPath><g clip-path="url(#cj)"><defs><path id="ck" d="M-1091.5-306.3h1121v1030h-1121z"/></defs></g></g><g><defs><path id="cl" d="M-132.5 218.2h-1.5v12h12v-12h-10.5zm0 3h9l-1.5-1.5v9l1.5-1.5h-9l1.5 1.5v-9l-1.5 1.5zm-21.5-23h52v52h-52v-52z"/></defs><clipPath id="cm"><use xlink:href="#cl" overflow="visible"/></clipPath><g clip-path="url(#cm)"><defs><path id="cn" d="M-132.5 219.7h9v9h-9z"/></defs><clipPath id="co"><use xlink:href="#cn" overflow="visible"/></clipPath><g clip-path="url(#co)"><defs><path id="cp" d="M-1091.5-306.3h1121v1030h-1121z"/></defs></g></g></g><g><defs><path id="cq" d="M-132.5 219.7h9v9h-9z"/></defs><clipPath id="cr"><use xlink:href="#cq" overflow="visible"/></clipPath><g clip-path="url(#cr)"><defs><path id="cs" d="M-1091.5-306.3h1121v1030h-1121z"/></defs></g></g><g><defs><path id="ct" d="M-161.5 246.2h-1.5v12h12v-12h-10.5zm0 3h9l-1.5-1.5v9l1.5-1.5h-9l1.5 1.5v-9l-1.5 1.5zm-21.5-23h52v52h-52v-52z"/></defs><clipPath id="cu"><use xlink:href="#ct" overflow="visible"/></clipPath><g clip-path="url(#cu)"><defs><path id="cv" d="M-161.5 247.7h9v9h-9z"/></defs><clipPath id="cw"><use xlink:href="#cv" overflow="visible"/></clipPath><g clip-path="url(#cw)"><defs><path id="cx" d="M-1091.5-306.3h1121v1030h-1121z"/></defs></g></g></g><g><defs><path id="cy" d="M-161.5 247.7h9v9h-9z"/></defs><clipPath id="cz"><use xlink:href="#cy" overflow="visible"/></clipPath><g clip-path="url(#cz)"><defs><path id="cA" d="M-1091.5-306.3h1121v1030h-1121z"/></defs></g></g><g><defs><path id="cB" d="M-132.5 246.2h-1.5v12h12v-12h-10.5zm0 3h9l-1.5-1.5v9l1.5-1.5h-9l1.5 1.5v-9l-1.5 1.5zm-21.5-23h52v52h-52v-52z"/></defs><clipPath id="cC"><use xlink:href="#cB" overflow="visible"/></clipPath><g clip-path="url(#cC)"><defs><path id="cD" d="M-132.5 247.7h9v9h-9z"/></defs><clipPath id="cE"><use xlink:href="#cD" overflow="visible"/></clipPath><g clip-path="url(#cE)"><defs><path id="cF" d="M-1091.5-306.3h1121v1030h-1121z"/></defs></g></g></g><g><defs><path id="cG" d="M-132.5 247.7h9v9h-9z"/></defs><clipPath id="cH"><use xlink:href="#cG" overflow="visible"/></clipPath><g clip-path="url(#cH)"><defs><path id="cI" d="M-1091.5-306.3h1121v1030h-1121z"/></defs></g></g></svg>