<svg xmlns="http://www.w3.org/2000/svg" xmlns:xlink="http://www.w3.org/1999/xlink" viewBox="0 0 276 137"><defs><path id="a" d="M-454-820.5c-29.3 0-53-23.7-53-53s23.7-53 53-53 53 23.7 53 53-23.7 53-53 53zm0 3c30.9 0 56-25.1 56-56s-25.1-56-56-56-56 25.1-56 56 25.1 56 56 56z"/></defs><clipPath id="b"><use xlink:href="#a" overflow="visible"/></clipPath><g clip-path="url(#b)"><defs><circle id="c" cx="-454" cy="-873.5" r="54.5"/></defs><clipPath id="d"><use xlink:href="#c" overflow="visible"/></clipPath><g clip-path="url(#d)"><defs><path id="e" d="M-632.5-1010h1121V20h-1121z"/></defs></g></g><defs><circle id="f" cx="-454" cy="-873.5" r="54.5"/></defs><clipPath id="g"><use xlink:href="#f" overflow="visible"/></clipPath><g clip-path="url(#g)"><defs><path id="h" d="M-632.5-1010h1121V20h-1121z"/></defs></g><defs><path id="i" d="M-454-841.5c-17.7 0-32-14.3-32-32s14.3-32 32-32 32 14.3 32 32-14.3 32-32 32zm0 3c19.3 0 35-15.7 35-35s-15.7-35-35-35-35 15.7-35 35 15.7 35 35 35zm-55-90h110v110h-110v-110z"/></defs><clipPath id="j"><use xlink:href="#i" overflow="visible"/></clipPath><g clip-path="url(#j)"><defs><circle id="k" cx="-454" cy="-873.5" r="33.5"/></defs><clipPath id="l"><use xlink:href="#k" overflow="visible"/></clipPath><g clip-path="url(#l)"><defs><path id="m" d="M-632.5-1010h1121V20h-1121z"/></defs></g></g><defs><circle id="n" cx="-454" cy="-873.5" r="33.5"/></defs><clipPath id="o"><use xlink:href="#n" overflow="visible"/></clipPath><g clip-path="url(#o)"><defs><path id="p" d="M-632.5-1010h1121V20h-1121z"/></defs></g><defs><path id="q" d="M-455.5-927.5h-1.5v13h6v-13h-4.5zm0 3h3l-1.5-1.5v10l1.5-1.5h-3l1.5 1.5v-10l-1.5 1.5z"/></defs><clipPath id="r"><use xlink:href="#q" overflow="visible"/></clipPath><g clip-path="url(#r)"><defs><path id="s" d="M-455.5-926h3v10h-3z"/></defs><clipPath id="t"><use xlink:href="#s" overflow="visible"/></clipPath><g clip-path="url(#t)"><defs><path id="u" d="M-632.5-1010h1121V20h-1121z"/></defs></g></g><defs><path id="v" d="M-455.5-926h3v10h-3z"/></defs><clipPath id="w"><use xlink:href="#v" overflow="visible"/></clipPath><g clip-path="url(#w)"><defs><path id="x" d="M-632.5-1010h1121V20h-1121z"/></defs></g><defs><path id="y" d="M-509.5-871.5v1.5h13v-6h-13v4.5zm3 0v-3l-1.5 1.5h10l-1.5-1.5v3l1.5-1.5h-10l1.5 1.5z"/></defs><clipPath id="z"><use xlink:href="#y" overflow="visible"/></clipPath><g clip-path="url(#z)"><defs><path id="A" d="M-508-874.5h10v3h-10z"/></defs><clipPath id="B"><use xlink:href="#A" overflow="visible"/></clipPath><g clip-path="url(#B)"><defs><path id="C" d="M-632.5-1010h1121V20h-1121z"/></defs></g></g><defs><path id="D" d="M-508-874.5h10v3h-10z"/></defs><clipPath id="E"><use xlink:href="#D" overflow="visible"/></clipPath><g clip-path="url(#E)"><defs><path id="F" d="M-632.5-1010h1121V20h-1121z"/></defs></g><defs><path id="G" d="M-412.5-871.5v1.5h13v-6h-13v4.5zm3 0v-3l-1.5 1.5h10l-1.5-1.5v3l1.5-1.5h-10l1.5 1.5z"/></defs><clipPath id="H"><use xlink:href="#G" overflow="visible"/></clipPath><g clip-path="url(#H)"><defs><path id="I" d="M-411-874.5h10v3h-10z"/></defs><clipPath id="J"><use xlink:href="#I" overflow="visible"/></clipPath><g clip-path="url(#J)"><defs><path id="K" d="M-632.5-1010h1121V20h-1121z"/></defs></g></g><defs><path id="L" d="M-411-874.5h10v3h-10z"/></defs><clipPath id="M"><use xlink:href="#L" overflow="visible"/></clipPath><g clip-path="url(#M)"><defs><path id="N" d="M-632.5-1010h1121V20h-1121z"/></defs></g><defs><path id="O" d="M-423.5-901.3l1.1 1.1 1.1-1.1 7.1-7.1 1.1-1.1-1.1-1.1-2.1-2.1-1.1-1.1-1.1 1.1-7.1 7.1-1.1 1.1 1.1 1.1 2.1 2.1zm2.1-2.2l-2.1-2.1v2.1l7.1-7.1h-2.1l2.1 2.1v-2.1l-7.1 7.1h2.1z"/></defs><clipPath id="P"><use xlink:href="#O" overflow="visible"/></clipPath><g clip-path="url(#P)"><defs><path id="Q" transform="rotate(45.001 -420.013 -907)" d="M-421.5-912h3v10h-3z"/></defs><clipPath id="R"><use xlink:href="#Q" overflow="visible"/></clipPath><g clip-path="url(#R)"><defs><path id="S" d="M-632.5-1010h1121V20h-1121z"/></defs></g></g><defs><path id="T" transform="rotate(45.001 -420.013 -907)" d="M-421.5-912h3v10h-3z"/></defs><clipPath id="U"><use xlink:href="#T" overflow="visible"/></clipPath><g clip-path="url(#U)"><defs><path id="V" d="M-632.5-1010h1121V20h-1121z"/></defs></g><defs><path id="W" d="M-483.3-902.5l1.1-1.1-1.1-1.1-7.1-7.1-1.1-1.1-1.1 1.1-2.1 2.1-1.1 1.1 1.1 1.1 7.1 7.1 1.1 1.1 1.1-1.1 2.1-2.1zm-2.2-2.1l-2.1 2.1h2.1l-7.1-7.1v2.1l2.1-2.1h-2.1l7.1 7.1v-2.1z"/></defs><clipPath id="X"><use xlink:href="#W" overflow="visible"/></clipPath><g clip-path="url(#X)"><defs><path id="Y" transform="rotate(-45.001 -488.993 -906.01)" d="M-490.5-911h3v10h-3z"/></defs><clipPath id="Z"><use xlink:href="#Y" overflow="visible"/></clipPath><g clip-path="url(#Z)"><defs><path id="aa" d="M-632.5-1010h1121V20h-1121z"/></defs></g></g><defs><path id="ab" transform="rotate(-45.001 -488.993 -906.01)" d="M-490.5-911h3v10h-3z"/></defs><clipPath id="ac"><use xlink:href="#ab" overflow="visible"/></clipPath><g clip-path="url(#ac)"><defs><path id="ad" d="M-632.5-1010h1121V20h-1121z"/></defs></g><defs><path id="ae" d="M-423.5-845.7l1.1-1.1 1.1 1.1 7.1 7.1 1.1 1.1-1.1 1.1-2.1 2.1-1.1 1.1-1.1-1.1-7.1-7.1-1.1-1.1 1.1-1.1 2.1-2.1zm2.1 2.2l-2.1 2.1v-2.1l7.1 7.1h-2.1l2.1-2.1v2.1l-7.1-7.1h2.1z"/></defs><clipPath id="af"><use xlink:href="#ae" overflow="visible"/></clipPath><g clip-path="url(#af)"><defs><path id="ag" transform="rotate(-45.001 -419.992 -840.008)" d="M-421.5-845h3v10h-3z"/></defs><clipPath id="ah"><use xlink:href="#ag" overflow="visible"/></clipPath><g clip-path="url(#ah)"><defs><path id="ai" d="M-632.5-1010h1121V20h-1121z"/></defs></g></g><defs><path id="aj" transform="rotate(-45.001 -419.992 -840.008)" d="M-421.5-845h3v10h-3z"/></defs><clipPath id="ak"><use xlink:href="#aj" overflow="visible"/></clipPath><g clip-path="url(#ak)"><defs><path id="al" d="M-632.5-1010h1121V20h-1121z"/></defs></g><defs><path id="am" d="M-483.3-842.5l1.1 1.1-1.1 1.1-7.1 7.1-1.1 1.1-1.1-1.1-2.1-2.1-1.1-1.1 1.1-1.1 7.1-7.1 1.1-1.1 1.1 1.1 2.1 2.1zm-2.2 2.1l-2.1-2.1h2.1l-7.1 7.1v-2.1l2.1 2.1h-2.1l7.1-7.1v2.1z"/></defs><clipPath id="an"><use xlink:href="#am" overflow="visible"/></clipPath><g clip-path="url(#an)"><defs><path id="ao" transform="rotate(45.001 -489.012 -838.998)" d="M-490.5-844h3v10h-3z"/></defs><clipPath id="ap"><use xlink:href="#ao" overflow="visible"/></clipPath><g clip-path="url(#ap)"><defs><path id="aq" d="M-632.5-1010h1121V20h-1121z"/></defs></g></g><defs><path id="ar" transform="rotate(45.001 -489.012 -838.998)" d="M-490.5-844h3v10h-3z"/></defs><clipPath id="as"><use xlink:href="#ar" overflow="visible"/></clipPath><g clip-path="url(#as)"><defs><path id="at" d="M-632.5-1010h1121V20h-1121z"/></defs></g><defs><path id="au" d="M-444.4-894.1c.7.3 1.5.6 2.2 1 1.3.7 2.5 1.6 3.6 2.4.4.3.7.6 1 .9.2.2.3.3.4.3l1.6 1.6-.3-2.2-2.1-14.7-.2-1.2-1 .6-12.3 8-1.8 1.2 2.1.2c.1 0 .3 0 .5.1.4.1.9.2 1.5.3 1.4.3 3.1.8 4.8 1.5zm7.5 4c-.1-.1-.4-.3-.7-.6l.1.9.6-.3zm0-1l.1.9.6-.3-.4-.4c-.1 0-.2-.1-.3-.2zm-1.9-13.1v.3l.3-.2-.3-.1zm-.8 0l.3-.2-.3-.2v.4zm-11.4 7.4l.7-.5h-.3c-.3 0-.5-.1-.6-.1l.2.6zm.9.3c-.4-.1-.7-.1-.9-.1l.1.6.8-.5z"/></defs><clipPath id="av"><use xlink:href="#au" overflow="visible"/></clipPath><g clip-path="url(#av)"><defs><path id="aw" d="M-632.5-1010h1121V20h-1121z"/></defs></g><defs><path id="ax" d="M-444.2-894.8c-3.9-1.6-7.1-1.9-7.1-1.9l12.3-8 2.1 14.7c.2.1-3.1-3.1-7.3-4.8zm-25-11.1l37.2-15.8 15.8 37.2-37.2 15.8-15.8-37.2z"/></defs><clipPath id="ay"><use xlink:href="#ax" overflow="visible"/></clipPath><g clip-path="url(#ay)"><defs><path id="az" d="M-632.5-1010h1121V20h-1121z"/></defs></g><defs><path id="aA" d="M-454-849.5c-13.3 0-24-10.7-24-24s10.7-24 24-24 24 10.7 24 24-10.7 24-24 24zm0 3c14.9 0 27-12.1 27-27s-12.1-27-27-27-27 12.1-27 27 12.1 27 27 27zm-47-74h94v94h-94v-94z"/></defs><clipPath id="aB"><use xlink:href="#aA" overflow="visible"/></clipPath><g clip-path="url(#aB)"><defs><circle id="aC" cx="-454" cy="-873.5" r="25.5"/></defs><clipPath id="aD"><use xlink:href="#aC" overflow="visible"/></clipPath><g clip-path="url(#aD)"><defs><path id="aE" d="M-632.5-1010h1121V20h-1121z"/></defs></g></g><defs><circle id="aF" cx="-454" cy="-873.5" r="25.5"/></defs><clipPath id="aG"><use xlink:href="#aF" overflow="visible"/></clipPath><g clip-path="url(#aG)"><defs><path id="aH" d="M-632.5-1010h1121V20h-1121z"/></defs></g><defs><path id="aI" d="M-163.8-934.5h-1.5v18h19v-18h-17.5zm0 3h16l-1.5-1.5v15l1.5-1.5h-16l1.5 1.5v-15l-1.5 1.5z"/></defs><clipPath id="aJ"><use xlink:href="#aI" overflow="visible"/></clipPath><g clip-path="url(#aJ)"><defs><path id="aK" d="M-163.8-933h16v15h-16z"/></defs><clipPath id="aL"><use xlink:href="#aK" overflow="visible"/></clipPath><g clip-path="url(#aL)"><defs><path id="aM" d="M-584.8-1009.5h1121v1030h-1121z"/></defs></g></g><defs><path id="aN" d="M-163.8-933h16v15h-16z"/></defs><clipPath id="aO"><use xlink:href="#aN" overflow="visible"/></clipPath><g clip-path="url(#aO)"><defs><path id="aP" d="M-584.8-1009.5h1121v1030h-1121z"/></defs></g><defs><path id="aQ" d="M-187.8-922.5h-1.5v43h67v-43h-65.5zm0 3h64l-1.5-1.5v40l1.5-1.5h-64l1.5 1.5v-40l-1.5 1.5z"/></defs><clipPath id="aR"><use xlink:href="#aQ" overflow="visible"/></clipPath><g clip-path="url(#aR)"><defs><path id="aS" d="M-187.8-921h64v40h-64z"/></defs><clipPath id="aT"><use xlink:href="#aS" overflow="visible"/></clipPath><g clip-path="url(#aT)"><defs><path id="aU" d="M-584.8-1009.5h1121v1030h-1121z"/></defs></g></g><defs><path id="aV" d="M-187.8-921h64v40h-64z"/></defs><clipPath id="aW"><use xlink:href="#aV" overflow="visible"/></clipPath><g clip-path="url(#aW)"><defs><path id="aX" d="M-584.8-1009.5h1121v1030h-1121z"/></defs></g><defs><path id="aY" d="M-152.8-912.5h-1.5v33h22v-33h-20.5zm0 3h19l-1.5-1.5v30l1.5-1.5h-19l1.5 1.5v-30l-1.5 1.5z"/></defs><clipPath id="aZ"><use xlink:href="#aY" overflow="visible"/></clipPath><g clip-path="url(#aZ)"><defs><path id="ba" d="M-152.8-911h19v30h-19z"/></defs><clipPath id="bb"><use xlink:href="#ba" overflow="visible"/></clipPath><g clip-path="url(#bb)"><defs><path id="bc" d="M-584.8-1009.5h1121v1030h-1121z"/></defs></g></g><defs><path id="bd" d="M-152.8-911h19v30h-19z"/></defs><clipPath id="be"><use xlink:href="#bd" overflow="visible"/></clipPath><g clip-path="url(#be)"><defs><path id="bf" d="M-584.8-1009.5h1121v1030h-1121z"/></defs></g><defs><path id="bg" d="M-177.8-912.5h-1.5v33h22v-33h-20.5zm0 3h19l-1.5-1.5v30l1.5-1.5h-19l1.5 1.5v-30l-1.5 1.5z"/></defs><clipPath id="bh"><use xlink:href="#bg" overflow="visible"/></clipPath><g clip-path="url(#bh)"><defs><path id="bi" d="M-177.8-911h19v30h-19z"/></defs><clipPath id="bj"><use xlink:href="#bi" overflow="visible"/></clipPath><g clip-path="url(#bj)"><defs><path id="bk" d="M-584.8-1009.5h1121v1030h-1121z"/></defs></g></g><defs><path id="bl" d="M-177.8-911h19v30h-19z"/></defs><clipPath id="bm"><use xlink:href="#bl" overflow="visible"/></clipPath><g clip-path="url(#bm)"><defs><path id="bn" d="M-584.8-1009.5h1121v1030h-1121z"/></defs></g><defs><path id="bo" d="M-208.3-854.3c0 2.9-.8 7-2.3 11.9-.6 2.1-1.3 4.3-2.1 6.5-1 2.7-2 5.4-3.1 8-.4.9-.7 1.7-1 2.4-.2.4-.3.7-.4.9l-.9 2.1H-98.7l-.7-2c-.1-.2-.2-.4-.3-.9-.2-.7-.5-1.5-.8-2.4-.8-2.5-1.6-5.2-2.4-7.9-.7-2.4-1.3-4.8-1.8-7-1.1-4.8-1.7-8.8-1.7-11.8 0-2.8.7-7 1.9-12 .5-1.9 1-3.9 1.6-6 .8-2.7 1.6-5.4 2.4-7.9.3-.9.5-1.7.8-2.4.1-.4.2-.7.3-.9l.7-2H-218.1l1 2.1c.1.1.2.4.4.9.3.7.6 1.5 1 2.4 1 2.5 2.1 5.1 3.1 7.8.8 2.2 1.5 4.4 2.1 6.4 1.4 5 2.2 9 2.2 11.8zm3 0c0-3.2-.9-7.5-2.4-12.5-.6-2.1-1.4-4.3-2.2-6.5-1-2.7-2.1-5.4-3.1-8-.4-.9-.7-1.7-1-2.4-.2-.4-.3-.7-.4-.9l-1.4 2.1h115l-1.4-2c-.1.2-.2.5-.3.9-.2.7-.5 1.5-.8 2.4-.8 2.6-1.7 5.3-2.4 8-.6 2.1-1.1 4.1-1.6 6.1-1.3 5.2-2 9.5-2 12.7 0 3.2.6 7.4 1.7 12.4.5 2.3 1.1 4.7 1.8 7.1.8 2.8 1.6 5.5 2.4 8.1.3.9.6 1.7.8 2.4.1.4.2.7.3.9l1.4-2h-115l1.4 2.1c.1-.2.2-.5.4-.9.3-.7.7-1.5 1-2.4 1.1-2.6 2.1-5.3 3.1-8.1.8-2.3 1.6-4.5 2.2-6.7 1.7-5.2 2.5-9.5 2.5-12.8z"/></defs><clipPath id="bp"><use xlink:href="#bo" overflow="visible"/></clipPath><g clip-path="url(#bp)"><defs><path id="bq" d="M-206.8-854.3c0-9.9-9-29.7-9-29.7h115s-7 20-7 29.6c0 10.5 7 30.4 7 30.4h-115s9-20.2 9-30.3z"/></defs><clipPath id="br"><use xlink:href="#bq" overflow="visible"/></clipPath><g clip-path="url(#br)"><defs><path id="bs" d="M-584.8-1009.5h1121v1030h-1121z"/></defs></g></g><defs><path id="bt" d="M-206.8-854.3c0-9.9-9-29.7-9-29.7h115s-7 20-7 29.6c0 10.5 7 30.4 7 30.4h-115s9-20.2 9-30.3z"/></defs><clipPath id="bu"><use xlink:href="#bt" overflow="visible"/></clipPath><g clip-path="url(#bu)"><defs><path id="bv" d="M-584.8-1009.5h1121v1030h-1121z"/></defs></g><defs><path id="bw" d="M-192.8-853.5h-1.5v6h72v-6h-70.5zm0 3h69l-1.5-1.5v3l1.5-1.5h-69l1.5 1.5v-3l-1.5 1.5zm-21.5-23h112v46h-112v-46z"/></defs><clipPath id="bx"><use xlink:href="#bw" overflow="visible"/></clipPath><g clip-path="url(#bx)"><defs><path id="by" d="M-192.8-852h69v3h-69z"/></defs><clipPath id="bz"><use xlink:href="#by" overflow="visible"/></clipPath><g clip-path="url(#bz)"><defs><path id="bA" d="M-584.8-1009.5h1121v1030h-1121z"/></defs></g></g><defs><path id="bB" d="M-192.8-852h69v3h-69z"/></defs><clipPath id="bC"><use xlink:href="#bB" overflow="visible"/></clipPath><g clip-path="url(#bC)"><defs><path id="bD" d="M-584.8-1009.5h1121v1030h-1121z"/></defs></g><defs><path id="bE" d="M-192.8-861.5h-1.5v6h72v-6h-70.5zm0 3h69l-1.5-1.5v3l1.5-1.5h-69l1.5 1.5v-3l-1.5 1.5zm-21.5-23h112v46h-112v-46z"/></defs><clipPath id="bF"><use xlink:href="#bE" overflow="visible"/></clipPath><g clip-path="url(#bF)"><defs><path id="bG" d="M-192.8-860h69v3h-69z"/></defs><clipPath id="bH"><use xlink:href="#bG" overflow="visible"/></clipPath><g clip-path="url(#bH)"><defs><path id="bI" d="M-584.8-1009.5h1121v1030h-1121z"/></defs></g></g><defs><path id="bJ" d="M-192.8-860h69v3h-69z"/></defs><clipPath id="bK"><use xlink:href="#bJ" overflow="visible"/></clipPath><g clip-path="url(#bK)"><defs><path id="bL" d="M-584.8-1009.5h1121v1030h-1121z"/></defs></g><defs><path id="bM" d="M-160.8-846.1l.5 1.6 1.5-.7c2-.9 4.2-1.3 6.4-1.3 6 0 11.3 3.3 14.1 8.4l.5 1 1.1-.2c.6-.1 1.2-.2 1.8-.2 3.5 0 6.6 2.1 7.9 5.3l.5 1.2 1.3-.3c.4-.1.9-.2 1.4-.2 3 0 5.5 2.5 5.5 5.5s-2.5 5.5-5.5 5.5c-1.5 0-2.9-.6-3.9-1.6l-.9-.9-1 .8c-1.5 1.1-3.3 1.7-5.1 1.7-1.1 0-2.2-.2-3.2-.6l-1-.4-.7.9c-3 3.8-7.6 6.1-12.6 6.1-4.9 0-9.5-2.3-12.5-6l-.7-.8-1 .3c-1.1.4-2.2.5-3.3.5-2 0-4-.6-5.7-1.7l-.8-.5-.8.5c-1.7 1.1-3.6 1.7-5.7 1.7-2.2 0-4.3-.7-6-1.9l-1.1-.7-.9.9c-1 1.1-2.5 1.7-4 1.7-3 0-5.5-2.5-5.5-5.5s2.5-5.5 5.5-5.5H-193.3l.2-1.3c.8-5 5.2-8.7 10.4-8.7h1.5v-1.5c0-5.8 4.7-10.5 10.5-10.5 4.6 0 8.6 3 9.9 7.4zm2.9-.9c-1.7-5.6-6.9-9.5-12.9-9.5-7.5 0-13.5 6-13.5 13.5l1.5-1.5c-6.6 0-12.2 4.8-13.3 11.3l1.5.2v-1.5h-.2c-4.7 0-8.5 3.8-8.5 8.5s3.8 8.5 8.5 8.5c2.4 0 4.6-1 6.2-2.7l-2 .2c2.3 1.6 5 2.5 7.8 2.5 2.6 0 5.2-.8 7.3-2.2h-1.6c2.2 1.4 4.7 2.2 7.3 2.2 1.5 0 2.9-.2 4.3-.7l-.5-1.4-1.2.9c3.6 4.5 9 7.2 14.9 7.2s11.4-2.7 15-7.3l-1.2-.9-.6 1.4c1.3.5 2.8.8 4.3.8 2.6 0 5-.8 7-2.4l-2-.1c1.6 1.6 3.7 2.5 6 2.5 4.7 0 8.5-3.8 8.5-8.5s-3.8-8.5-8.5-8.5c-.7 0-1.4.1-2.1.3l.4 1.5 1.4-.6c-1.8-4.3-5.9-7.2-10.6-7.2-.8 0-1.6.1-2.4.2l.3 1.5 1.3-.7c-3.3-6.1-9.7-10-16.7-10-2.7 0-5.2.5-7.6 1.6l1.9.9zm-65.4-29.5h128v85h-128v-85z"/></defs><clipPath id="bN"><use xlink:href="#bM" overflow="visible"/></clipPath><g clip-path="url(#bN)"><defs><path id="bO" d="M-159.3-846.5c-1.5-4.9-6.1-8.5-11.5-8.5-6.6 0-12 5.4-12 12-5.9 0-10.9 4.3-11.8 10h-.2c-3.9 0-7 3.1-7 7s3.1 7 7 7c2 0 3.8-.8 5.1-2.2 2 1.4 4.3 2.2 6.9 2.2 2.4 0 4.6-.7 6.5-1.9 1.9 1.2 4.1 1.9 6.5 1.9 1.3 0 2.6-.2 3.8-.6 3.2 4 8.2 6.6 13.7 6.6 5.6 0 10.6-2.6 13.8-6.7 1.1.5 2.4.7 3.7.7 2.3 0 4.4-.8 6.1-2 1.3 1.3 3 2 4.9 2 3.9 0 7-3.1 7-7s-3.1-7-7-7c-.6 0-1.2.1-1.7.2-1.5-3.6-5.1-6.2-9.3-6.2-.7 0-1.4.1-2.1.2-3-5.5-8.8-9.2-15.4-9.2-2.5 0-4.9.5-7 1.5z"/></defs><clipPath id="bP"><use xlink:href="#bO" overflow="visible"/></clipPath><g clip-path="url(#bP)"><defs><path id="bQ" d="M-584.8-1009.5h1121v1030h-1121z"/></defs></g></g><defs><path id="bR" d="M-159.3-846.5c-1.5-4.9-6.1-8.5-11.5-8.5-6.6 0-12 5.4-12 12-5.9 0-10.9 4.3-11.8 10h-.2c-3.9 0-7 3.1-7 7s3.1 7 7 7c2 0 3.8-.8 5.1-2.2 2 1.4 4.3 2.2 6.9 2.2 2.4 0 4.6-.7 6.5-1.9 1.9 1.2 4.1 1.9 6.5 1.9 1.3 0 2.6-.2 3.8-.6 3.2 4 8.2 6.6 13.7 6.6 5.6 0 10.6-2.6 13.8-6.7 1.1.5 2.4.7 3.7.7 2.3 0 4.4-.8 6.1-2 1.3 1.3 3 2 4.9 2 3.9 0 7-3.1 7-7s-3.1-7-7-7c-.6 0-1.2.1-1.7.2-1.5-3.6-5.1-6.2-9.3-6.2-.7 0-1.4.1-2.1.2-3-5.5-8.8-9.2-15.4-9.2-2.5 0-4.9.5-7 1.5z"/></defs><clipPath id="bS"><use xlink:href="#bR" overflow="visible"/></clipPath><g clip-path="url(#bS)"><defs><path id="bT" d="M-584.8-1009.5h1121v1030h-1121z"/></defs></g><defs><path id="bU" d="M111.7-881.6l56 32.4s-1.5 14.3-8.3 24.7c-6.8 10.4-24.1 17.2-24.1 17.2l-53.4-38.5s13.7-4.3 21.6-13.8 8.2-22 8.2-22z"/></defs><clipPath id="bV"><use xlink:href="#bU" overflow="visible"/></clipPath><g clip-path="url(#bV)"><defs><path id="bW" d="M-543.3-1008.8h1121v1030h-1121z"/></defs></g><defs><path id="bX" d="M137.2-867.8l21.8-50.6 6.2 2.7-22.4 51z"/></defs><clipPath id="bY"><use xlink:href="#bX" overflow="visible"/></clipPath><g clip-path="url(#bY)"><defs><path id="bZ" d="M-543.3-1008.8h1121v1030h-1121z"/></defs></g><defs><path id="ca" d="M102.3-841.4l1.2.9.9-1.2c-1.5-1-3.3-1.6-5.1-1.6-5 0-9 4-9 9 0 3.8 2.4 7.2 6 8.5l-1-1.4c0 4.9 4.1 8.9 9 8.9 1.4 0 2.8-.3 4.1-1l-.7-1.3-1.4.6c1.9 4 5.9 6.7 10.4 6.7 6.4 0 11.5-5.1 11.5-11.5 0-1.2-.2-2.5-.6-3.6l-1.4.5.8 1.3c2.6-1.6 4.2-4.5 4.2-7.6 0-5-4-9-9-9-1.2 0-2.3.2-3.4.7l.6 1.4 1.1-1c-2.2-2.6-5.4-4.1-8.8-4.1-3.8-.1-7.3 1.8-9.4 4.8zm2.4 1.7c1.6-2.3 4.2-3.7 7-3.7 2.5 0 4.9 1.1 6.5 3l.7.8 1-.4c.7-.3 1.5-.4 2.3-.4 3.3 0 6 2.7 6 6 0 2.1-1.1 4-2.8 5.1l-1 .6.4 1.1c.3.9.4 1.8.4 2.7 0 4.7-3.8 8.5-8.5 8.5-3.4 0-6.3-2-7.7-4.9l-.7-1.4-1.3.7c-.8.4-1.8.7-2.7.7-3.3 0-6-2.7-6-5.9v-1.1l-1-.3c-2.4-.8-4-3.1-4-5.7 0-3.3 2.7-6 6-6 1.2 0 2.4.4 3.4 1.1l1.2.9.8-1.4zm-34.5-26.6h81v73h-81v-73z"/></defs><clipPath id="cb"><use xlink:href="#ca" overflow="visible"/></clipPath><g clip-path="url(#cb)"><defs><path id="cc" d="M103.5-840.5c1.8-2.6 4.8-4.3 8.2-4.3 3.1 0 5.8 1.4 7.7 3.6.9-.4 1.8-.6 2.8-.6 4.1 0 7.5 3.4 7.5 7.5 0 2.7-1.4 5-3.5 6.3.3 1 .5 2 .5 3.2 0 5.5-4.5 10-10 10-4 0-7.5-2.4-9.1-5.8-1 .5-2.2.8-3.4.8-4.1 0-7.5-3.3-7.5-7.4-2.9-1-5-3.8-5-7.1 0-4.1 3.4-7.5 7.5-7.5 1.6 0 3.1.5 4.3 1.3z"/></defs><clipPath id="cd"><use xlink:href="#cc" overflow="visible"/></clipPath><g clip-path="url(#cd)"><defs><path id="ce" d="M-543.3-1008.8h1121v1030h-1121z"/></defs></g></g><defs><path id="cf" d="M103.5-840.5c1.8-2.6 4.8-4.3 8.2-4.3 3.1 0 5.8 1.4 7.7 3.6.9-.4 1.8-.6 2.8-.6 4.1 0 7.5 3.4 7.5 7.5 0 2.7-1.4 5-3.5 6.3.3 1 .5 2 .5 3.2 0 5.5-4.5 10-10 10-4 0-7.5-2.4-9.1-5.8-1 .5-2.2.8-3.4.8-4.1 0-7.5-3.3-7.5-7.4-2.9-1-5-3.8-5-7.1 0-4.1 3.4-7.5 7.5-7.5 1.6 0 3.1.5 4.3 1.3z"/></defs><clipPath id="cg"><use xlink:href="#cf" overflow="visible"/></clipPath><g clip-path="url(#cg)"><defs><path id="ch" d="M-543.3-1008.8h1121v1030h-1121z"/></defs></g><defs><path id="ci" d="M159.7-925.2l10.2 4.4 2-4.4-10.3-4-1.9 4zm-8.5 2.7l22.8 9.7 7.1-15.4-23.3-8.4-6.6 14.1z"/></defs><clipPath id="cj"><use xlink:href="#ci" overflow="visible"/></clipPath><g clip-path="url(#cj)"><defs><path id="ck" d="M-543.3-1008.8h1121v1030h-1121z"/></defs></g><defs><path id="cl" d="M432.1-937.6c30.3 0 55 7.1 55 14.8v22l1.7-1.5c-.1 0-.2 0-.4-.1-.4-.1-.8-.1-1.3-.2-1.4-.2-2.9-.4-4.6-.6-4.9-.7-10-1.3-15.2-2-3.9-.5-7.7-.9-11.3-1.3-9.9-1-18.1-1.6-23.9-1.6-5.2 0-14.3.8-26.1 2.3-2.5.3-5.1.6-7.7 1-5.4.7-10.9 1.5-16.1 2.3-1.8.3-3.5.5-5 .8-.5.1-1 .2-1.4.2-.2 0-.4.1-.5.1l1.7 1.5v-23c.1-7.6 24.8-14.7 55.1-14.7zm0-3c-32.1 0-58 7.5-58 17.8v24.8l1.7-.3c.1 0 .2 0 .5-.1.4-.1.8-.1 1.4-.2 1.5-.2 3.1-.5 5-.8 5.2-.8 10.7-1.6 16.1-2.3 2.6-.4 5.2-.7 7.7-1 11.7-1.5 20.7-2.3 25.7-2.3 5.6 0 13.7.6 23.6 1.6 3.6.4 7.4.8 11.2 1.3 5.2.6 10.3 1.3 15.2 2 1.7.2 3.2.4 4.6.6.5.1.9.1 1.2.2.2 0 .4.1.4.1l1.7.3v-23.7c0-10.6-25.9-18-58-18zm-78-20h156v82.5h-156v-82.5z"/></defs><clipPath id="cm"><use xlink:href="#cl" overflow="visible"/></clipPath><g clip-path="url(#cm)"><defs><path id="cn" d="M432.1-939.1c-31.2 0-56.5 7.3-56.5 16.3v23s42.2-6.7 56.5-6.7c18 0 56.5 5.7 56.5 5.7v-22c0-9-25.3-16.3-56.5-16.3z"/></defs><clipPath id="co"><use xlink:href="#cn" overflow="visible"/></clipPath><g clip-path="url(#co)"><defs><path id="cp" d="M-483.4-1021.9h1121V8.1h-1121z"/></defs></g></g><defs><path id="cq" d="M432.1-939.1c-31.2 0-56.5 7.3-56.5 16.3v23s42.2-6.7 56.5-6.7c18 0 56.5 5.7 56.5 5.7v-22c0-9-25.3-16.3-56.5-16.3z"/></defs><clipPath id="cr"><use xlink:href="#cq" overflow="visible"/></clipPath><g clip-path="url(#cr)"><defs><path id="cs" d="M-483.4-1021.9h1121V8.1h-1121z"/></defs></g><defs><path id="ct" d="M432.1-915.4c30.3 0 55 7.1 55 14.8 0 7.7-24.7 14.8-55 14.8s-55-7.1-55-14.8c0-7.6 24.7-14.8 55-14.8zm0-3c-32.1 0-58 7.5-58 17.8s25.9 17.8 58 17.8 58-7.5 58-17.8-25.9-17.8-58-17.8zm-78-20h156v75.6h-156v-75.6z"/></defs><clipPath id="cu"><use xlink:href="#ct" overflow="visible"/></clipPath><g clip-path="url(#cu)"><defs><ellipse id="cv" cx="432.1" cy="-900.5" rx="56.5" ry="16.3"/></defs><clipPath id="cw"><use xlink:href="#cv" overflow="visible"/></clipPath><g clip-path="url(#cw)"><defs><path id="cx" d="M-483.4-1021.9h1121V8.1h-1121z"/></defs></g></g><defs><ellipse id="cy" cx="432.1" cy="-900.5" rx="56.5" ry="16.3"/></defs><clipPath id="cz"><use xlink:href="#cy" overflow="visible"/></clipPath><g clip-path="url(#cz)"><defs><path id="cA" d="M-483.4-1021.9h1121V8.1h-1121z"/></defs></g><defs><path id="cB" d="M392.1-896.2c0-5.3 18-10.4 40-10.4s40 5.2 40 10.4v7.1l1.2-1.5c-.1 0-.1 0-.3.1-.3 0-.6.1-.9.2-1 .2-2.1.3-3.4.5-3.6.6-7.3 1.1-11.1 1.7-2.9.4-5.6.8-8.3 1.1-7.2.9-13.1 1.3-17.2 1.3-3.7 0-10.3-.5-18.9-1.4-1.8-.2-3.7-.4-5.6-.6-4-.5-8-.9-11.8-1.4-1.3-.2-2.6-.3-3.6-.5-.4 0-.7-.1-1-.1h-.3l1.3 1.5v-8zm-3 0v9.1l1.3.2h.4c.3 0 .6.1 1 .1 1.1.1 2.3.3 3.7.5a11776882415803102 11776882415803102 0 0 0 36.7 3.5c4.3 0 10.3-.5 17.6-1.4 2.7-.3 5.4-.7 8.3-1.1 3.8-.5 7.6-1.1 11.2-1.7 1.3-.2 2.4-.4 3.4-.5.4-.1.7-.1.9-.2.3 0 .3 0 .3-.1l1.2-.2v-8.4c0-7.9-19.2-13.4-43-13.4s-43 5.7-43 13.6zm-20-33.4h126v66.9h-126v-66.9z"/></defs><clipPath id="cC"><use xlink:href="#cB" overflow="visible"/></clipPath><g clip-path="url(#cC)"><defs><path id="cD" d="M390.6-896.2v7.8s31 4.1 41.5 4.1c13.2 0 41.5-4.8 41.5-4.8v-7.1c0-6.6-18.6-11.9-41.5-11.9s-41.5 5.3-41.5 11.9z"/></defs><clipPath id="cE"><use xlink:href="#cD" overflow="visible"/></clipPath><g clip-path="url(#cE)"><defs><path id="cF" d="M-483.4-1021.9h1121V8.1h-1121z"/></defs></g></g><defs><path id="cG" d="M390.6-896.2v7.8s31 4.1 41.5 4.1c13.2 0 41.5-4.8 41.5-4.8v-7.1c0-6.6-18.6-11.9-41.5-11.9s-41.5 5.3-41.5 11.9z"/></defs><clipPath id="cH"><use xlink:href="#cG" overflow="visible"/></clipPath><g clip-path="url(#cH)"><defs><path id="cI" d="M-483.4-1021.9h1121V8.1h-1121z"/></defs></g><defs><path id="cJ" d="M432.1-898.3c22 0 40 5.2 40 10.4 0 5.3-18 10.4-40 10.4s-40-5.2-40-10.4 18-10.4 40-10.4zm0-3c-23.8 0-43 5.5-43 13.4s19.2 13.4 43 13.4 43-5.5 43-13.4-19.2-13.4-43-13.4zm-63-20h126v66.9h-126v-66.9z"/></defs><clipPath id="cK"><use xlink:href="#cJ" overflow="visible"/></clipPath><g clip-path="url(#cK)"><defs><ellipse id="cL" cx="432.1" cy="-887.9" rx="41.5" ry="11.9"/></defs><clipPath id="cM"><use xlink:href="#cL" overflow="visible"/></clipPath><g clip-path="url(#cM)"><defs><path id="cN" d="M-483.4-1021.9h1121V8.1h-1121z"/></defs></g></g><defs><ellipse id="cO" cx="432.1" cy="-887.9" rx="41.5" ry="11.9"/></defs><clipPath id="cP"><use xlink:href="#cO" overflow="visible"/></clipPath><g clip-path="url(#cP)"><defs><path id="cQ" d="M-483.4-1021.9h1121V8.1h-1121z"/></defs></g><defs><path id="cR" d="M419.5-886.3c0 .4-.2.7-.4.8.1 0 .2-.1.4-.2.6-.2 1.6-.4 2.8-.6 2.6-.4 6-.6 9.8-.6s7.2.2 9.8.6c1.2.2 2.2.4 2.8.6l.4.2c-.2-.1-.4-.4-.4-.8s.2-.7.4-.8c-.1 0-.2.1-.4.2-.6.2-1.6.4-2.8.6-2.6.4-6 .6-9.8.6s-7.2-.2-9.8-.6c-1.2-.2-2.2-.4-2.8-.6l-.4-.2c.2.1.4.3.4.8zm-3 0c0 2.6 6.2 3.5 15.6 3.5s15.6-.9 15.6-3.5-6.2-3.5-15.6-3.5-15.6.8-15.6 3.5zm-20-23.6h71.2v47.1h-71.2v-47.1z"/></defs><clipPath id="cS"><use xlink:href="#cR" overflow="visible"/></clipPath><g clip-path="url(#cS)"><defs><ellipse id="cT" cx="432.1" cy="-886.3" rx="14.1" ry="2"/></defs><clipPath id="cU"><use xlink:href="#cT" overflow="visible"/></clipPath><g clip-path="url(#cU)"><defs><path id="cV" d="M-483.4-1021.9h1121V8.1h-1121z"/></defs></g></g><g><defs><ellipse id="cW" cx="432.1" cy="-886.3" rx="14.1" ry="2"/></defs><clipPath id="cX"><use xlink:href="#cW" overflow="visible"/></clipPath><g clip-path="url(#cX)"><defs><path id="cY" d="M-483.4-1021.9h1121V8.1h-1121z"/></defs></g></g><g><defs><path id="cZ" d="M424.9-869s-10.5 3.3-9.1 12.3c.9 5.5 5.6 8.1 5.6 13.5s-4.6 9.5-4.6 9.5 13.5-.3 14.6-9.5c1.1-9.2-6.7-11.3-8.3-15.6-1.4-4.3 1.8-10.2 1.8-10.2z"/></defs><clipPath id="da"><use xlink:href="#cZ" overflow="visible"/></clipPath><g clip-path="url(#da)"><defs><path id="db" d="M-483.4-1021.9h1121V8.1h-1121z"/></defs></g></g><g><defs><path id="dc" d="M440-865.7s-15.1 4.8-13 17.6c1.2 7.9 8 11.6 8 19.4s-6.5 13.6-6.5 13.6 19.3-.5 20.9-13.6c1.6-13.2-9.6-16.1-11.8-22.3-2.3-6.3 2.4-14.7 2.4-14.7z"/></defs><clipPath id="dd"><use xlink:href="#dc" overflow="visible"/></clipPath><g clip-path="url(#dd)"><defs><path id="de" d="M-483.4-1021.9h1121V8.1h-1121z"/></defs></g></g><g><defs><path id="df" d="M71.8-602.3h-1.5v90h134v-90H71.8zm0 3h131l-1.5-1.5v87l1.5-1.5h-131l1.5 1.5v-87l-1.5 1.5zm-21.5-23h174v130h-174v-130z"/></defs><clipPath id="dg"><use xlink:href="#df" overflow="visible"/></clipPath><g clip-path="url(#dg)"><defs><path id="dh" d="M71.8-600.8h131v87h-131z"/></defs><clipPath id="di"><use xlink:href="#dh" overflow="visible"/></clipPath><g clip-path="url(#di)"><defs><path id="dj" d="M-537.2-904.8h1121v1030h-1121z"/></defs></g></g></g><g><defs><path id="dk" d="M71.8-600.8h131v87h-131z"/></defs><clipPath id="dl"><use xlink:href="#dk" overflow="visible"/></clipPath><g clip-path="url(#dl)"><defs><path id="dm" d="M-537.2-904.8h1121v1030h-1121z"/></defs></g></g><g><defs><path id="dn" d="M76.8-597.3h-1.5v80h124v-80H76.8zm0 3h121l-1.5-1.5v77l1.5-1.5h-121l1.5 1.5v-77l-1.5 1.5zm-21.5-23h164v120h-164v-120z"/></defs><clipPath id="do"><use xlink:href="#dn" overflow="visible"/></clipPath><g clip-path="url(#do)"><defs><path id="dp" d="M76.8-595.8h121v77h-121z"/></defs><clipPath id="dq"><use xlink:href="#dp" overflow="visible"/></clipPath><g clip-path="url(#dq)"><defs><path id="dr" d="M-537.2-904.8h1121v1030h-1121z"/></defs></g></g></g><g><defs><path id="ds" d="M76.8-595.8h121v77h-121z"/></defs><clipPath id="dt"><use xlink:href="#ds" overflow="visible"/></clipPath><g clip-path="url(#dt)"><defs><path id="du" d="M-537.2-904.8h1121v1030h-1121z"/></defs></g></g><g><defs><path id="dv" d="M141.8-582.3h-1.5v6h47v-6h-45.5zm0 3h44l-1.5-1.5v3l1.5-1.5h-44l1.5 1.5v-3l-1.5 1.5zm-21.5-23h87v46h-87v-46z"/></defs><clipPath id="dw"><use xlink:href="#dv" overflow="visible"/></clipPath><g clip-path="url(#dw)"><defs><path id="dx" d="M141.8-580.8h44v3h-44z"/></defs><clipPath id="dy"><use xlink:href="#dx" overflow="visible"/></clipPath><g clip-path="url(#dy)"><defs><path id="dz" d="M-537.2-904.8h1121v1030h-1121z"/></defs></g></g></g><g><defs><path id="dA" d="M141.8-580.8h44v3h-44z"/></defs><clipPath id="dB"><use xlink:href="#dA" overflow="visible"/></clipPath><g clip-path="url(#dB)"><defs><path id="dC" d="M-537.2-904.8h1121v1030h-1121z"/></defs></g></g><g><defs><path id="dD" d="M141.8-576.3h-1.5v6h47v-6h-45.5zm0 3h44l-1.5-1.5v3l1.5-1.5h-44l1.5 1.5v-3l-1.5 1.5zm-21.5-23h87v46h-87v-46z"/></defs><clipPath id="dE"><use xlink:href="#dD" overflow="visible"/></clipPath><g clip-path="url(#dE)"><defs><path id="dF" d="M141.8-574.8h44v3h-44z"/></defs><clipPath id="dG"><use xlink:href="#dF" overflow="visible"/></clipPath><g clip-path="url(#dG)"><defs><path id="dH" d="M-537.2-904.8h1121v1030h-1121z"/></defs></g></g></g><g><defs><path id="dI" d="M141.8-574.8h44v3h-44z"/></defs><clipPath id="dJ"><use xlink:href="#dI" overflow="visible"/></clipPath><g clip-path="url(#dJ)"><defs><path id="dK" d="M-537.2-904.8h1121v1030h-1121z"/></defs></g></g><g><defs><path id="dL" d="M141.8-570.3h-1.5v6h47v-6h-45.5zm0 3h44l-1.5-1.5v3l1.5-1.5h-44l1.5 1.5v-3l-1.5 1.5zm-21.5-23h87v46h-87v-46z"/></defs><clipPath id="dM"><use xlink:href="#dL" overflow="visible"/></clipPath><g clip-path="url(#dM)"><defs><path id="dN" d="M141.8-568.8h44v3h-44z"/></defs><clipPath id="dO"><use xlink:href="#dN" overflow="visible"/></clipPath><g clip-path="url(#dO)"><defs><path id="dP" d="M-537.2-904.8h1121v1030h-1121z"/></defs></g></g></g><g><defs><path id="dQ" d="M141.8-568.8h44v3h-44z"/></defs><clipPath id="dR"><use xlink:href="#dQ" overflow="visible"/></clipPath><g clip-path="url(#dR)"><defs><path id="dS" d="M-537.2-904.8h1121v1030h-1121z"/></defs></g></g><g><defs><path id="dT" d="M141.8-564.3h-1.5v6h47v-6h-45.5zm0 3h44l-1.5-1.5v3l1.5-1.5h-44l1.5 1.5v-3l-1.5 1.5zm-21.5-23h87v46h-87v-46z"/></defs><clipPath id="dU"><use xlink:href="#dT" overflow="visible"/></clipPath><g clip-path="url(#dU)"><defs><path id="dV" d="M141.8-562.8h44v3h-44z"/></defs><clipPath id="dW"><use xlink:href="#dV" overflow="visible"/></clipPath><g clip-path="url(#dW)"><defs><path id="dX" d="M-537.2-904.8h1121v1030h-1121z"/></defs></g></g></g><g><defs><path id="dY" d="M141.8-562.8h44v3h-44z"/></defs><clipPath id="dZ"><use xlink:href="#dY" overflow="visible"/></clipPath><g clip-path="url(#dZ)"><defs><path id="ea" d="M-537.2-904.8h1121v1030h-1121z"/></defs></g></g><g><defs><path id="eb" d="M-525.8-417.8h-1.5v38h142v-25.1l-.4-.4-11.4-12-.4-.5h-128.3zm0 3h127.6l-1.1-.5 11.4 12-.4-1v23l1.5-1.5h-139l1.5 1.5v-35l-1.5 1.5zm-21.5-23h182v78h-182v-78z"/></defs><clipPath id="ec"><use xlink:href="#eb" overflow="visible"/></clipPath><g clip-path="url(#ec)"><defs><path id="ed" d="M-525.8-416.3h127.6l11.4 12v23h-139z"/></defs><clipPath id="ee"><use xlink:href="#ed" overflow="visible"/></clipPath><g clip-path="url(#ee)"><defs><path id="ef" d="M-897.8-951.3h1121v1030h-1121z"/></defs></g></g></g><g><defs><path id="eg" d="M-525.8-416.3h127.6l11.4 12v23h-139z"/></defs><clipPath id="eh"><use xlink:href="#eg" overflow="visible"/></clipPath><g clip-path="url(#eh)"><defs><path id="ei" d="M-897.8-951.3h1121v1030h-1121z"/></defs></g></g><g><defs><path id="ej" d="M-492.8-366.4c-8 0-14.5-6.5-14.5-14.5s6.5-14.5 14.5-14.5 14.5 6.5 14.5 14.5-6.4 14.5-14.5 14.5zm0 3c9.7 0 17.5-7.8 17.5-17.5s-7.8-17.5-17.5-17.5-17.5 7.8-17.5 17.5 7.9 17.5 17.5 17.5zm-37.5-55h75v75h-75v-75z"/></defs><clipPath id="ek"><use xlink:href="#ej" overflow="visible"/></clipPath><g clip-path="url(#ek)"><defs><circle id="el" cx="-492.8" cy="-380.9" r="16"/></defs><clipPath id="em"><use xlink:href="#el" overflow="visible"/></clipPath><g clip-path="url(#em)"><defs><path id="en" d="M-897.8-951.3h1121v1030h-1121z"/></defs></g></g></g><g><defs><circle id="eo" cx="-492.8" cy="-380.9" r="16"/></defs><clipPath id="ep"><use xlink:href="#eo" overflow="visible"/></clipPath><g clip-path="url(#ep)"><defs><path id="eq" d="M-897.8-951.3h1121v1030h-1121z"/></defs></g></g><g><defs><path id="er" d="M-492.8-373.4c-4.1 0-7.5-3.4-7.5-7.5s3.4-7.5 7.5-7.5 7.5 3.4 7.5 7.5c0 4.2-3.3 7.5-7.5 7.5zm0 3c5.8 0 10.5-4.7 10.5-10.5s-4.7-10.5-10.5-10.5-10.5 4.7-10.5 10.5 4.7 10.5 10.5 10.5zm-30.5-41h61v61h-61v-61z"/></defs><clipPath id="es"><use xlink:href="#er" overflow="visible"/></clipPath><g clip-path="url(#es)"><defs><circle id="et" cx="-492.8" cy="-380.9" r="9"/></defs><clipPath id="eu"><use xlink:href="#et" overflow="visible"/></clipPath><g clip-path="url(#eu)"><defs><path id="ev" d="M-897.8-951.3h1121v1030h-1121z"/></defs></g></g></g><g><defs><circle id="ew" cx="-492.8" cy="-380.9" r="9"/></defs><clipPath id="ex"><use xlink:href="#ew" overflow="visible"/></clipPath><g clip-path="url(#ex)"><defs><path id="ey" d="M-897.8-951.3h1121v1030h-1121z"/></defs></g></g><g><defs><path id="ez" d="M-426.5-366.4c-8 0-14.5-6.5-14.5-14.5s6.5-14.5 14.5-14.5 14.5 6.5 14.5 14.5-6.5 14.5-14.5 14.5zm0 3c9.7 0 17.5-7.8 17.5-17.5s-7.8-17.5-17.5-17.5-17.5 7.8-17.5 17.5 7.8 17.5 17.5 17.5zm-37.5-55h75v75h-75v-75z"/></defs><clipPath id="eA"><use xlink:href="#ez" overflow="visible"/></clipPath><g clip-path="url(#eA)"><defs><circle id="eB" cx="-426.5" cy="-380.9" r="16"/></defs><clipPath id="eC"><use xlink:href="#eB" overflow="visible"/></clipPath><g clip-path="url(#eC)"><defs><path id="eD" d="M-897.8-951.3h1121v1030h-1121z"/></defs></g></g></g><g><defs><circle id="eE" cx="-426.5" cy="-380.9" r="16"/></defs><clipPath id="eF"><use xlink:href="#eE" overflow="visible"/></clipPath><g clip-path="url(#eF)"><defs><path id="eG" d="M-897.8-951.3h1121v1030h-1121z"/></defs></g></g><g><defs><path id="eH" d="M-426.3-421.2l-7.7-15.6h-27.2v15.6h34.9zm-75.2 0l7.4-15.6h27.2v15.6h-34.6zm-10.3 5.3l14.1-26.9h66.8l15.3 27.9-96.2-1z"/></defs><clipPath id="eI"><use xlink:href="#eH" overflow="visible"/></clipPath><g clip-path="url(#eI)"><defs><path id="eJ" d="M-897.8-951.3h1121v1030h-1121z"/></defs></g></g><g><defs><path id="eK" d="M-426.5-373.4c-4.1 0-7.5-3.4-7.5-7.5s3.4-7.5 7.5-7.5 7.5 3.4 7.5 7.5c0 4.2-3.4 7.5-7.5 7.5zm0 3c5.8 0 10.5-4.7 10.5-10.5s-4.7-10.5-10.5-10.5-10.5 4.7-10.5 10.5 4.7 10.5 10.5 10.5zm-30.5-41h61v61h-61v-61z"/></defs><clipPath id="eL"><use xlink:href="#eK" overflow="visible"/></clipPath><g clip-path="url(#eL)"><defs><circle id="eM" cx="-426.5" cy="-380.9" r="9"/></defs><clipPath id="eN"><use xlink:href="#eM" overflow="visible"/></clipPath><g clip-path="url(#eN)"><defs><path id="eO" d="M-897.8-951.3h1121v1030h-1121z"/></defs></g></g></g><g><defs><circle id="eP" cx="-426.5" cy="-380.9" r="9"/></defs><clipPath id="eQ"><use xlink:href="#eP" overflow="visible"/></clipPath><g clip-path="url(#eQ)"><defs><path id="eR" d="M-897.8-951.3h1121v1030h-1121z"/></defs></g></g><g><defs><path id="eS" d="M-212.2-281.1h-1.5v84h108v-84h-106.5zm0 3h105l-1.5-1.5v81l1.5-1.5h-105l1.5 1.5v-81l-1.5 1.5zm-21.5-23h148v124h-148v-124z"/></defs><clipPath id="eT"><use xlink:href="#eS" overflow="visible"/></clipPath><g clip-path="url(#eT)"><defs><path id="eU" d="M-212.2-279.6h105v81h-105z"/></defs><clipPath id="eV"><use xlink:href="#eU" overflow="visible"/></clipPath><g clip-path="url(#eV)"><defs><path id="eW" d="M-1093.2-778.6h1121v1030h-1121z"/></defs></g></g></g><g><defs><path id="eX" d="M-212.2-279.6h105v81h-105z"/></defs><clipPath id="eY"><use xlink:href="#eX" overflow="visible"/></clipPath><g clip-path="url(#eY)"><defs><path id="eZ" d="M-1093.2-778.6h1121v1030h-1121z"/></defs></g></g><g><defs><path id="fa" d="M-218.2-264.1h-2.2l.9-2.1 9.1-22 .4-.9h100.9l.4.9 9.1 22 .9 2.1h-119.5zm0-3h117l-1.4 2.1-9.1-22 1.4.9h-98.9l1.4-.9-9.1 22-1.3-2.1zm-22.2 23H-79v-65h-161.5v65z"/></defs><clipPath id="fb"><use xlink:href="#fa" overflow="visible"/></clipPath><g clip-path="url(#fb)"><defs><path id="fc" d="M-218.2-265.6h117l-9.1-22h-98.8z"/></defs><clipPath id="fd"><use xlink:href="#fc" overflow="visible"/></clipPath><g clip-path="url(#fd)"><defs><path id="fe" d="M-1093.2-778.6h1121v1030h-1121z"/></defs></g></g></g><g><defs><path id="ff" d="M-218.2-265.6h117l-9.1-22h-98.8z"/></defs><clipPath id="fg"><use xlink:href="#ff" overflow="visible"/></clipPath><g clip-path="url(#fg)"><defs><path id="fh" d="M-1093.2-778.6h1121v1030h-1121z"/></defs></g></g><g><defs><path id="fi" d="M-133.2-297.1h-1.5v19h15v-19h-13.5zm0 3h12l-1.5-1.5v16l1.5-1.5h-12l1.5 1.5v-16l-1.5 1.5zm-21.5-23h55v59h-55v-59z"/></defs><clipPath id="fj"><use xlink:href="#fi" overflow="visible"/></clipPath><g clip-path="url(#fj)"><defs><path id="fk" d="M-133.2-295.6h12v16h-12z"/></defs><clipPath id="fl"><use xlink:href="#fk" overflow="visible"/></clipPath><g clip-path="url(#fl)"><defs><path id="fm" d="M-1093.2-778.6h1121v1030h-1121z"/></defs></g></g></g><g><defs><path id="fn" d="M-133.2-295.6h12v16h-12z"/></defs><clipPath id="fo"><use xlink:href="#fn" overflow="visible"/></clipPath><g clip-path="url(#fo)"><defs><path id="fp" d="M-1093.2-778.6h1121v1030h-1121z"/></defs></g></g><g><defs><path id="fq" d="M-199.2-231.1h-1.5v34h24v-34h-22.5zm0 3h21l-1.5-1.5v31l1.5-1.5h-21l1.5 1.5v-31l-1.5 1.5zm-21.5-23h64v74h-64v-74z"/></defs><clipPath id="fr"><use xlink:href="#fq" overflow="visible"/></clipPath><g clip-path="url(#fr)"><defs><path id="fs" d="M-199.2-229.6h21v31h-21z"/></defs><clipPath id="ft"><use xlink:href="#fs" overflow="visible"/></clipPath><g clip-path="url(#ft)"><defs><path id="fu" d="M-1093.2-778.6h1121v1030h-1121z"/></defs></g></g></g><g><defs><path id="fv" d="M-199.2-229.6h21v31h-21z"/></defs><clipPath id="fw"><use xlink:href="#fv" overflow="visible"/></clipPath><g clip-path="url(#fw)"><defs><path id="fx" d="M-1093.2-778.6h1121v1030h-1121z"/></defs></g></g><g><defs><path id="fy" d="M-198.2-259.1h-1.5v22h22v-22h-20.5zm0 3h19l-1.5-1.5v19l1.5-1.5h-19l1.5 1.5v-19l-1.5 1.5zm-21.5-23h62v62h-62v-62z"/></defs><clipPath id="fz"><use xlink:href="#fy" overflow="visible"/></clipPath><g clip-path="url(#fz)"><defs><path id="fA" d="M-198.2-257.6h19v19h-19z"/></defs><clipPath id="fB"><use xlink:href="#fA" overflow="visible"/></clipPath><g clip-path="url(#fB)"><defs><path id="fC" d="M-1093.2-778.6h1121v1030h-1121z"/></defs></g></g></g><g><defs><path id="fD" d="M-198.2-257.6h19v19h-19z"/></defs><clipPath id="fE"><use xlink:href="#fD" overflow="visible"/></clipPath><g clip-path="url(#fE)"><defs><path id="fF" d="M-1093.2-778.6h1121v1030h-1121z"/></defs></g></g><g><defs><path id="fG" d="M-193.2-254.1h-1.5v12h12v-12h-10.5zm0 3h9l-1.5-1.5v9l1.5-1.5h-9l1.5 1.5v-9l-1.5 1.5zm-21.5-23h52v52h-52v-52z"/></defs><clipPath id="fH"><use xlink:href="#fG" overflow="visible"/></clipPath><g clip-path="url(#fH)"><defs><path id="fI" d="M-193.2-252.6h9v9h-9z"/></defs><clipPath id="fJ"><use xlink:href="#fI" overflow="visible"/></clipPath><g clip-path="url(#fJ)"><defs><path id="fK" d="M-1093.2-778.6h1121v1030h-1121z"/></defs></g></g></g><g><defs><path id="fL" d="M-193.2-252.6h9v9h-9z"/></defs><clipPath id="fM"><use xlink:href="#fL" overflow="visible"/></clipPath><g clip-path="url(#fM)"><defs><path id="fN" d="M-1093.2-778.6h1121v1030h-1121z"/></defs></g></g><g><defs><path id="fO" d="M-168.2-259.1h-1.5v22h22v-22h-20.5zm0 3h19l-1.5-1.5v19l1.5-1.5h-19l1.5 1.5v-19l-1.5 1.5zm-21.5-23h62v62h-62v-62z"/></defs><clipPath id="fP"><use xlink:href="#fO" overflow="visible"/></clipPath><g clip-path="url(#fP)"><defs><path id="fQ" d="M-168.2-257.6h19v19h-19z"/></defs><clipPath id="fR"><use xlink:href="#fQ" overflow="visible"/></clipPath><g clip-path="url(#fR)"><defs><path id="fS" d="M-1093.2-778.6h1121v1030h-1121z"/></defs></g></g></g><g><defs><path id="fT" d="M-168.2-257.6h19v19h-19z"/></defs><clipPath id="fU"><use xlink:href="#fT" overflow="visible"/></clipPath><g clip-path="url(#fU)"><defs><path id="fV" d="M-1093.2-778.6h1121v1030h-1121z"/></defs></g></g><g><defs><path id="fW" d="M-139.2-259.1h-1.5v22h22v-22h-20.5zm0 3h19l-1.5-1.5v19l1.5-1.5h-19l1.5 1.5v-19l-1.5 1.5zm-21.5-23h62v62h-62v-62z"/></defs><clipPath id="fX"><use xlink:href="#fW" overflow="visible"/></clipPath><g clip-path="url(#fX)"><defs><path id="fY" d="M-139.2-257.6h19v19h-19z"/></defs><clipPath id="fZ"><use xlink:href="#fY" overflow="visible"/></clipPath><g clip-path="url(#fZ)"><defs><path id="ga" d="M-1093.2-778.6h1121v1030h-1121z"/></defs></g></g></g><g><defs><path id="gb" d="M-139.2-257.6h19v19h-19z"/></defs><clipPath id="gc"><use xlink:href="#gb" overflow="visible"/></clipPath><g clip-path="url(#gc)"><defs><path id="gd" d="M-1093.2-778.6h1121v1030h-1121z"/></defs></g></g><g><defs><path id="ge" d="M-168.2-231.1h-1.5v22h22v-22h-20.5zm0 3h19l-1.5-1.5v19l1.5-1.5h-19l1.5 1.5v-19l-1.5 1.5zm-21.5-23h62v62h-62v-62z"/></defs><clipPath id="gf"><use xlink:href="#ge" overflow="visible"/></clipPath><g clip-path="url(#gf)"><defs><path id="gg" d="M-168.2-229.6h19v19h-19z"/></defs><clipPath id="gh"><use xlink:href="#gg" overflow="visible"/></clipPath><g clip-path="url(#gh)"><defs><path id="gi" d="M-1093.2-778.6h1121v1030h-1121z"/></defs></g></g></g><g><defs><path id="gj" d="M-168.2-229.6h19v19h-19z"/></defs><clipPath id="gk"><use xlink:href="#gj" overflow="visible"/></clipPath><g clip-path="url(#gk)"><defs><path id="gl" d="M-1093.2-778.6h1121v1030h-1121z"/></defs></g></g><g><defs><path id="gm" d="M-139.2-231.1h-1.5v22h22v-22h-20.5zm0 3h19l-1.5-1.5v19l1.5-1.5h-19l1.5 1.5v-19l-1.5 1.5zm-21.5-23h62v62h-62v-62z"/></defs><clipPath id="gn"><use xlink:href="#gm" overflow="visible"/></clipPath><g clip-path="url(#gn)"><defs><path id="go" d="M-139.2-229.6h19v19h-19z"/></defs><clipPath id="gp"><use xlink:href="#go" overflow="visible"/></clipPath><g clip-path="url(#gp)"><defs><path id="gq" d="M-1093.2-778.6h1121v1030h-1121z"/></defs></g></g></g><g><defs><path id="gr" d="M-139.2-229.6h19v19h-19z"/></defs><clipPath id="gs"><use xlink:href="#gr" overflow="visible"/></clipPath><g clip-path="url(#gs)"><defs><path id="gt" d="M-1093.2-778.6h1121v1030h-1121z"/></defs></g></g><g><defs><path id="gu" d="M-163.2-254.1h-1.5v12h12v-12h-10.5zm0 3h9l-1.5-1.5v9l1.5-1.5h-9l1.5 1.5v-9l-1.5 1.5zm-21.5-23h52v52h-52v-52z"/></defs><clipPath id="gv"><use xlink:href="#gu" overflow="visible"/></clipPath><g clip-path="url(#gv)"><defs><path id="gw" d="M-163.2-252.6h9v9h-9z"/></defs><clipPath id="gx"><use xlink:href="#gw" overflow="visible"/></clipPath><g clip-path="url(#gx)"><defs><path id="gy" d="M-1093.2-778.6h1121v1030h-1121z"/></defs></g></g></g><g><defs><path id="gz" d="M-163.2-252.6h9v9h-9z"/></defs><clipPath id="gA"><use xlink:href="#gz" overflow="visible"/></clipPath><g clip-path="url(#gA)"><defs><path id="gB" d="M-1093.2-778.6h1121v1030h-1121z"/></defs></g></g><g><defs><path id="gC" d="M-134.2-254.1h-1.5v12h12v-12h-10.5zm0 3h9l-1.5-1.5v9l1.5-1.5h-9l1.5 1.5v-9l-1.5 1.5zm-21.5-23h52v52h-52v-52z"/></defs><clipPath id="gD"><use xlink:href="#gC" overflow="visible"/></clipPath><g clip-path="url(#gD)"><defs><path id="gE" d="M-134.2-252.6h9v9h-9z"/></defs><clipPath id="gF"><use xlink:href="#gE" overflow="visible"/></clipPath><g clip-path="url(#gF)"><defs><path id="gG" d="M-1093.2-778.6h1121v1030h-1121z"/></defs></g></g></g><g><defs><path id="gH" d="M-134.2-252.6h9v9h-9z"/></defs><clipPath id="gI"><use xlink:href="#gH" overflow="visible"/></clipPath><g clip-path="url(#gI)"><defs><path id="gJ" d="M-1093.2-778.6h1121v1030h-1121z"/></defs></g></g><g><defs><path id="gK" d="M-163.2-226.1h-1.5v12h12v-12h-10.5zm0 3h9l-1.5-1.5v9l1.5-1.5h-9l1.5 1.5v-9l-1.5 1.5zm-21.5-23h52v52h-52v-52z"/></defs><clipPath id="gL"><use xlink:href="#gK" overflow="visible"/></clipPath><g clip-path="url(#gL)"><defs><path id="gM" d="M-163.2-224.6h9v9h-9z"/></defs><clipPath id="gN"><use xlink:href="#gM" overflow="visible"/></clipPath><g clip-path="url(#gN)"><defs><path id="gO" d="M-1093.2-778.6h1121v1030h-1121z"/></defs></g></g></g><g><defs><path id="gP" d="M-163.2-224.6h9v9h-9z"/></defs><clipPath id="gQ"><use xlink:href="#gP" overflow="visible"/></clipPath><g clip-path="url(#gQ)"><defs><path id="gR" d="M-1093.2-778.6h1121v1030h-1121z"/></defs></g></g><g><defs><path id="gS" d="M-134.2-226.1h-1.5v12h12v-12h-10.5zm0 3h9l-1.5-1.5v9l1.5-1.5h-9l1.5 1.5v-9l-1.5 1.5zm-21.5-23h52v52h-52v-52z"/></defs><clipPath id="gT"><use xlink:href="#gS" overflow="visible"/></clipPath><g clip-path="url(#gT)"><defs><path id="gU" d="M-134.2-224.6h9v9h-9z"/></defs><clipPath id="gV"><use xlink:href="#gU" overflow="visible"/></clipPath><g clip-path="url(#gV)"><defs><path id="gW" d="M-1093.2-778.6h1121v1030h-1121z"/></defs></g></g></g><g><defs><path id="gX" d="M-134.2-224.6h9v9h-9z"/></defs><clipPath id="gY"><use xlink:href="#gX" overflow="visible"/></clipPath><g clip-path="url(#gY)"><defs><path id="gZ" d="M-1093.2-778.6h1121v1030h-1121z"/></defs></g></g><g><defs><path id="ha" d="M439.1-195.1c-27.1 0-49-21.9-49-49s21.9-49 49-49 49 21.9 49 49-21.9 49-49 49zm0 3c28.7 0 52-23.3 52-52s-23.3-52-52-52-52 23.3-52 52 23.3 52 52 52zm-72-124h144v144h-144v-144z"/></defs><clipPath id="hb"><use xlink:href="#ha" overflow="visible"/></clipPath><g clip-path="url(#hb)"><defs><circle id="hc" cx="439.1" cy="-244.1" r="50.5"/></defs><clipPath id="hd"><use xlink:href="#hc" overflow="visible"/></clipPath><g clip-path="url(#hd)"><defs><path id="he" d="M264.6-980.1h1121v1030h-1121z"/></defs></g></g></g><g><defs><circle id="hf" cx="439.1" cy="-244.1" r="50.5"/></defs><clipPath id="hg"><use xlink:href="#hf" overflow="visible"/></clipPath><g clip-path="url(#hg)"><defs><path id="hh" d="M264.6-980.1h1121v1030h-1121z"/></defs></g></g><g><defs><circle id="hi" cx="439.1" cy="-244.1" r="43.5"/></defs><clipPath id="hj"><use xlink:href="#hi" overflow="visible"/></clipPath><g clip-path="url(#hj)"><defs><path id="hk" d="M264.6-980.1h1121v1030h-1121z"/></defs></g></g><g><defs><path id="hl" d="M-158-42.7c-27.1 0-49-21.9-49-49s21.9-49 49-49 49 21.9 49 49-21.9 49-49 49zm0 3c28.7 0 52-23.3 52-52s-23.3-52-52-52-52 23.3-52 52 23.3 52 52 52zm-72-124h144v144h-144v-144z"/></defs><clipPath id="hm"><use xlink:href="#hl" overflow="visible"/></clipPath><g clip-path="url(#hm)"><defs><circle id="hn" cx="-158" cy="-91.7" r="50.5"/></defs><clipPath id="ho"><use xlink:href="#hn" overflow="visible"/></clipPath><g clip-path="url(#ho)"><defs><path id="hp" d="M-332.5-827.7h1121v1030h-1121z"/></defs></g></g></g><g><defs><circle id="hq" cx="-158" cy="-91.7" r="50.5"/></defs><clipPath id="hr"><use xlink:href="#hq" overflow="visible"/></clipPath><g clip-path="url(#hr)"><defs><path id="hs" d="M-332.5-827.7h1121v1030h-1121z"/></defs></g></g><g><defs><circle id="ht" cx="-158" cy="-91.7" r="43.5"/></defs><clipPath id="hu"><use xlink:href="#ht" overflow="visible"/></clipPath><g clip-path="url(#hu)"><defs><path id="hv" d="M-332.5-827.7h1121v1030h-1121z"/></defs></g></g><g><defs><path id="hw" d="M-157.3 124.5c-24.6 0-44.6-20-44.6-44.6s20-44.6 44.6-44.6 44.6 20 44.6 44.6-20 44.6-44.6 44.6zm0 2.7c26.1 0 47.3-21.2 47.3-47.3s-21.2-47.3-47.3-47.3-47.3 21.2-47.3 47.3 21.2 47.3 47.3 47.3zm-65.5-112.8h131v131h-131v-131z"/></defs><clipPath id="hx"><use xlink:href="#hw" overflow="visible"/></clipPath><g clip-path="url(#hx)"><defs><circle id="hy" cx="-157.3" cy="79.9" r="45.9"/></defs><clipPath id="hz"><use xlink:href="#hy" overflow="visible"/></clipPath><g clip-path="url(#hz)"><defs><path id="hA" d="M-316-589.7H703.8v937H-316z"/></defs></g></g></g><g><defs><circle id="hB" cx="-157.3" cy="79.9" r="45.9"/></defs><clipPath id="hC"><use xlink:href="#hB" overflow="visible"/></clipPath><g clip-path="url(#hC)"><defs><path id="hD" d="M-316-589.7H703.8v937H-316z"/></defs></g></g><g><defs><circle id="hE" cx="-157.3" cy="79.9" r="39.6"/></defs><clipPath id="hF"><use xlink:href="#hE" overflow="visible"/></clipPath><g clip-path="url(#hF)"><defs><path id="hG" d="M-316-589.7H703.8v937H-316z"/></defs></g></g><path fill="#FFF" stroke="#0C1F2E" stroke-width="3" stroke-linecap="round" stroke-miterlimit="10" d="M138.8 99.7H86.3V31.1h35.2l17.3 15.6z"/><g fill="none" stroke="#0C1F2E" stroke-width="3" stroke-linecap="round" stroke-miterlimit="10"><path d="M95 57.5h35.1M95 65.4h35.1"/></g><g fill="none" stroke="#0C1F2E" stroke-width="3" stroke-linecap="round" stroke-miterlimit="10"><path d="M95 74.7h35.1M95 82.6h35.1"/></g><g fill="#231F20"><path d="M96.9 46.7l-1.7-7.2h1.7l.5 3c.2.9.3 1.8.4 2.5.1-.8.3-1.6.5-2.5l.6-2.9h1.7l.6 3c.2.8.3 1.6.4 2.4.1-.8.3-1.6.4-2.5l.6-2.9h1.7l-1.9 7.2h-1.8l-.6-3.1c-.1-.7-.3-1.4-.3-2.2-.1.8-.2 1.5-.4 2.2l-.7 3.1h-1.7zM107.8 46.7V45h-3.1v-1l2.6-4.2h2v4.1h.8v1.2h-.8v1.7h-1.5zm0-2.8v-1.5c0-.4 0-.8.1-1.3-.2.4-.4.9-.6 1.3l-.9 1.5h1.4z"/></g><path fill="none" stroke="#0C1F2E" stroke-width="3" stroke-linecap="round" stroke-miterlimit="10" d="M121.5 31.1v15.6h17.3"/><path fill="#FFF" stroke="#0C1F2E" stroke-width="3" stroke-linecap="round" stroke-miterlimit="10" d="M204.5 99.7h-52.6V31.1h35.2l17.4 15.6z"/><g fill="none" stroke="#0C1F2E" stroke-width="3" stroke-linecap="round" stroke-miterlimit="10"><path d="M160.7 57.5h35M160.7 65.4h35"/></g><g fill="none" stroke="#0C1F2E" stroke-width="3" stroke-linecap="round" stroke-miterlimit="10"><path d="M160.7 74.7h35M160.7 82.6h35"/></g><g fill="#231F20"><path d="M167.5 44c0-.9-.1-1.9-.1-3-.2.9-.5 1.9-.8 2.8l-.9 2.8h-1.3l-.8-2.8c-.2-.8-.5-1.9-.7-2.8 0 1-.1 2.1-.1 3l-.1 2.7h-1.5l.5-7.2h2.2l.7 2.4c.2.8.4 1.7.6 2.6.2-.8.4-1.8.7-2.6l.8-2.4h2.1l.4 7.2h-1.6l-.1-2.7zM170.2 46.7v-1l.9-.8c1.5-1.4 2.3-2.1 2.3-2.9 0-.6-.3-1-1.1-1-.6 0-1.1.3-1.5.6l-.5-1.2c.5-.4 1.3-.7 2.3-.7 1.6 0 2.4.9 2.4 2.2 0 1.2-.8 2.1-1.8 3l-.6.5h2.6v1.3h-5z"/></g><path fill="none" stroke="#0C1F2E" stroke-width="3" stroke-linecap="round" stroke-miterlimit="10" d="M187.1 31.1v15.6h17.4"/><g><defs><path id="hH" d="M381.5 191.2H380v84h108v-84H381.5zm0 3h105l-1.5-1.5v81l1.5-1.5h-105l1.5 1.5v-81l-1.5 1.5zm-21.5-23h148v124H360v-124z"/></defs><clipPath id="hI"><use xlink:href="#hH" overflow="visible"/></clipPath><g clip-path="url(#hI)"><defs><path id="hJ" d="M381.5 192.7h105v81h-105z"/></defs><clipPath id="hK"><use xlink:href="#hJ" overflow="visible"/></clipPath><g clip-path="url(#hK)"><defs><path id="hL" d="M-499.5-306.3h1121v1030h-1121z"/></defs></g></g></g><g><defs><path id="hM" d="M381.5 192.7h105v81h-105z"/></defs><clipPath id="hN"><use xlink:href="#hM" overflow="visible"/></clipPath><g clip-path="url(#hN)"><defs><path id="hO" d="M-499.5-306.3h1121v1030h-1121z"/></defs></g></g><g><defs><path id="hP" d="M375.5 208.2h-2.2l.9-2.1 9.1-22 .4-.9h100.9l.4.9 9.1 22 .9 2.1H375.5zm0-3h117l-1.4 2.1-9.1-22 1.4.9h-98.9l1.4-.9-9.1 22-1.3-2.1zm-22.2 23h161.5v-65H353.3v65z"/></defs><clipPath id="hQ"><use xlink:href="#hP" overflow="visible"/></clipPath><g clip-path="url(#hQ)"><defs><path id="hR" d="M375.5 206.7h117l-9.1-22h-98.8z"/></defs><clipPath id="hS"><use xlink:href="#hR" overflow="visible"/></clipPath><g clip-path="url(#hS)"><defs><path id="hT" d="M-499.5-306.3h1121v1030h-1121z"/></defs></g></g></g><g><defs><path id="hU" d="M375.5 206.7h117l-9.1-22h-98.8z"/></defs><clipPath id="hV"><use xlink:href="#hU" overflow="visible"/></clipPath><g clip-path="url(#hV)"><defs><path id="hW" d="M-499.5-306.3h1121v1030h-1121z"/></defs></g></g><g><defs><path id="hX" d="M460.5 175.2H459v19h15v-19h-13.5zm0 3h12l-1.5-1.5v16l1.5-1.5h-12l1.5 1.5v-16l-1.5 1.5zm-21.5-23h55v59h-55v-59z"/></defs><clipPath id="hY"><use xlink:href="#hX" overflow="visible"/></clipPath><g clip-path="url(#hY)"><defs><path id="hZ" d="M460.5 176.7h12v16h-12z"/></defs><clipPath id="ia"><use xlink:href="#hZ" overflow="visible"/></clipPath><g clip-path="url(#ia)"><defs><path id="ib" d="M-499.5-306.3h1121v1030h-1121z"/></defs></g></g></g><g><defs><path id="ic" d="M460.5 176.7h12v16h-12z"/></defs><clipPath id="id"><use xlink:href="#ic" overflow="visible"/></clipPath><g clip-path="url(#id)"><defs><path id="ie" d="M-499.5-306.3h1121v1030h-1121z"/></defs></g></g><g><defs><path id="if" d="M394.5 241.2H393v34h24v-34h-22.5zm0 3h21l-1.5-1.5v31l1.5-1.5h-21l1.5 1.5v-31l-1.5 1.5zm-21.5-23h64v74h-64v-74z"/></defs><clipPath id="ig"><use xlink:href="#if" overflow="visible"/></clipPath><g clip-path="url(#ig)"><defs><path id="ih" d="M394.5 242.7h21v31h-21z"/></defs><clipPath id="ii"><use xlink:href="#ih" overflow="visible"/></clipPath><g clip-path="url(#ii)"><defs><path id="ij" d="M-499.5-306.3h1121v1030h-1121z"/></defs></g></g></g><g><defs><path id="ik" d="M394.5 242.7h21v31h-21z"/></defs><clipPath id="il"><use xlink:href="#ik" overflow="visible"/></clipPath><g clip-path="url(#il)"><defs><path id="im" d="M-499.5-306.3h1121v1030h-1121z"/></defs></g></g><g><defs><path id="in" d="M395.5 213.2H394v22h22v-22h-20.5zm0 3h19l-1.5-1.5v19l1.5-1.5h-19l1.5 1.5v-19l-1.5 1.5zm-21.5-23h62v62h-62v-62z"/></defs><clipPath id="io"><use xlink:href="#in" overflow="visible"/></clipPath><g clip-path="url(#io)"><defs><path id="ip" d="M395.5 214.7h19v19h-19z"/></defs><clipPath id="iq"><use xlink:href="#ip" overflow="visible"/></clipPath><g clip-path="url(#iq)"><defs><path id="ir" d="M-499.5-306.3h1121v1030h-1121z"/></defs></g></g></g><g><defs><path id="is" d="M395.5 214.7h19v19h-19z"/></defs><clipPath id="it"><use xlink:href="#is" overflow="visible"/></clipPath><g clip-path="url(#it)"><defs><path id="iu" d="M-499.5-306.3h1121v1030h-1121z"/></defs></g></g><g><defs><path id="iv" d="M400.5 218.2H399v12h12v-12h-10.5zm0 3h9l-1.5-1.5v9l1.5-1.5h-9l1.5 1.5v-9l-1.5 1.5zm-21.5-23h52v52h-52v-52z"/></defs><clipPath id="iw"><use xlink:href="#iv" overflow="visible"/></clipPath><g clip-path="url(#iw)"><defs><path id="ix" d="M400.5 219.7h9v9h-9z"/></defs><clipPath id="iy"><use xlink:href="#ix" overflow="visible"/></clipPath><g clip-path="url(#iy)"><defs><path id="iz" d="M-499.5-306.3h1121v1030h-1121z"/></defs></g></g></g><g><defs><path id="iA" d="M400.5 219.7h9v9h-9z"/></defs><clipPath id="iB"><use xlink:href="#iA" overflow="visible"/></clipPath><g clip-path="url(#iB)"><defs><path id="iC" d="M-499.5-306.3h1121v1030h-1121z"/></defs></g></g><g><defs><path id="iD" d="M425.5 213.2H424v22h22v-22h-20.5zm0 3h19l-1.5-1.5v19l1.5-1.5h-19l1.5 1.5v-19l-1.5 1.5zm-21.5-23h62v62h-62v-62z"/></defs><clipPath id="iE"><use xlink:href="#iD" overflow="visible"/></clipPath><g clip-path="url(#iE)"><defs><path id="iF" d="M425.5 214.7h19v19h-19z"/></defs><clipPath id="iG"><use xlink:href="#iF" overflow="visible"/></clipPath><g clip-path="url(#iG)"><defs><path id="iH" d="M-499.5-306.3h1121v1030h-1121z"/></defs></g></g></g><g><defs><path id="iI" d="M425.5 214.7h19v19h-19z"/></defs><clipPath id="iJ"><use xlink:href="#iI" overflow="visible"/></clipPath><g clip-path="url(#iJ)"><defs><path id="iK" d="M-499.5-306.3h1121v1030h-1121z"/></defs></g></g><g><defs><path id="iL" d="M454.5 213.2H453v22h22v-22h-20.5zm0 3h19l-1.5-1.5v19l1.5-1.5h-19l1.5 1.5v-19l-1.5 1.5zm-21.5-23h62v62h-62v-62z"/></defs><clipPath id="iM"><use xlink:href="#iL" overflow="visible"/></clipPath><g clip-path="url(#iM)"><defs><path id="iN" d="M454.5 214.7h19v19h-19z"/></defs><clipPath id="iO"><use xlink:href="#iN" overflow="visible"/></clipPath><g clip-path="url(#iO)"><defs><path id="iP" d="M-499.5-306.3h1121v1030h-1121z"/></defs></g></g></g><g><defs><path id="iQ" d="M454.5 214.7h19v19h-19z"/></defs><clipPath id="iR"><use xlink:href="#iQ" overflow="visible"/></clipPath><g clip-path="url(#iR)"><defs><path id="iS" d="M-499.5-306.3h1121v1030h-1121z"/></defs></g></g><g><defs><path id="iT" d="M425.5 241.2H424v22h22v-22h-20.5zm0 3h19l-1.5-1.5v19l1.5-1.5h-19l1.5 1.5v-19l-1.5 1.5zm-21.5-23h62v62h-62v-62z"/></defs><clipPath id="iU"><use xlink:href="#iT" overflow="visible"/></clipPath><g clip-path="url(#iU)"><defs><path id="iV" d="M425.5 242.7h19v19h-19z"/></defs><clipPath id="iW"><use xlink:href="#iV" overflow="visible"/></clipPath><g clip-path="url(#iW)"><defs><path id="iX" d="M-499.5-306.3h1121v1030h-1121z"/></defs></g></g></g><g><defs><path id="iY" d="M425.5 242.7h19v19h-19z"/></defs><clipPath id="iZ"><use xlink:href="#iY" overflow="visible"/></clipPath><g clip-path="url(#iZ)"><defs><path id="ja" d="M-499.5-306.3h1121v1030h-1121z"/></defs></g></g><g><defs><path id="jb" d="M454.5 241.2H453v22h22v-22h-20.5zm0 3h19l-1.5-1.5v19l1.5-1.5h-19l1.5 1.5v-19l-1.5 1.5zm-21.5-23h62v62h-62v-62z"/></defs><clipPath id="jc"><use xlink:href="#jb" overflow="visible"/></clipPath><g clip-path="url(#jc)"><defs><path id="jd" d="M454.5 242.7h19v19h-19z"/></defs><clipPath id="je"><use xlink:href="#jd" overflow="visible"/></clipPath><g clip-path="url(#je)"><defs><path id="jf" d="M-499.5-306.3h1121v1030h-1121z"/></defs></g></g></g><g><defs><path id="jg" d="M454.5 242.7h19v19h-19z"/></defs><clipPath id="jh"><use xlink:href="#jg" overflow="visible"/></clipPath><g clip-path="url(#jh)"><defs><path id="ji" d="M-499.5-306.3h1121v1030h-1121z"/></defs></g></g><g><defs><path id="jj" d="M430.5 218.2H429v12h12v-12h-10.5zm0 3h9l-1.5-1.5v9l1.5-1.5h-9l1.5 1.5v-9l-1.5 1.5zm-21.5-23h52v52h-52v-52z"/></defs><clipPath id="jk"><use xlink:href="#jj" overflow="visible"/></clipPath><g clip-path="url(#jk)"><defs><path id="jl" d="M430.5 219.7h9v9h-9z"/></defs><clipPath id="jm"><use xlink:href="#jl" overflow="visible"/></clipPath><g clip-path="url(#jm)"><defs><path id="jn" d="M-499.5-306.3h1121v1030h-1121z"/></defs></g></g></g><g><defs><path id="jo" d="M430.5 219.7h9v9h-9z"/></defs><clipPath id="jp"><use xlink:href="#jo" overflow="visible"/></clipPath><g clip-path="url(#jp)"><defs><path id="jq" d="M-499.5-306.3h1121v1030h-1121z"/></defs></g></g><g><defs><path id="jr" d="M459.5 218.2H458v12h12v-12h-10.5zm0 3h9l-1.5-1.5v9l1.5-1.5h-9l1.5 1.5v-9l-1.5 1.5zm-21.5-23h52v52h-52v-52z"/></defs><clipPath id="js"><use xlink:href="#jr" overflow="visible"/></clipPath><g clip-path="url(#js)"><defs><path id="jt" d="M459.5 219.7h9v9h-9z"/></defs><clipPath id="ju"><use xlink:href="#jt" overflow="visible"/></clipPath><g clip-path="url(#ju)"><defs><path id="jv" d="M-499.5-306.3h1121v1030h-1121z"/></defs></g></g></g><g><defs><path id="jw" d="M459.5 219.7h9v9h-9z"/></defs><clipPath id="jx"><use xlink:href="#jw" overflow="visible"/></clipPath><g clip-path="url(#jx)"><defs><path id="jy" d="M-499.5-306.3h1121v1030h-1121z"/></defs></g></g><g><defs><path id="jz" d="M430.5 246.2H429v12h12v-12h-10.5zm0 3h9l-1.5-1.5v9l1.5-1.5h-9l1.5 1.5v-9l-1.5 1.5zm-21.5-23h52v52h-52v-52z"/></defs><clipPath id="jA"><use xlink:href="#jz" overflow="visible"/></clipPath><g clip-path="url(#jA)"><defs><path id="jB" d="M430.5 247.7h9v9h-9z"/></defs><clipPath id="jC"><use xlink:href="#jB" overflow="visible"/></clipPath><g clip-path="url(#jC)"><defs><path id="jD" d="M-499.5-306.3h1121v1030h-1121z"/></defs></g></g></g><g><defs><path id="jE" d="M430.5 247.7h9v9h-9z"/></defs><clipPath id="jF"><use xlink:href="#jE" overflow="visible"/></clipPath><g clip-path="url(#jF)"><defs><path id="jG" d="M-499.5-306.3h1121v1030h-1121z"/></defs></g></g><g><defs><path id="jH" d="M459.5 246.2H458v12h12v-12h-10.5zm0 3h9l-1.5-1.5v9l1.5-1.5h-9l1.5 1.5v-9l-1.5 1.5zm-21.5-23h52v52h-52v-52z"/></defs><clipPath id="jI"><use xlink:href="#jH" overflow="visible"/></clipPath><g clip-path="url(#jI)"><defs><path id="jJ" d="M459.5 247.7h9v9h-9z"/></defs><clipPath id="jK"><use xlink:href="#jJ" overflow="visible"/></clipPath><g clip-path="url(#jK)"><defs><path id="jL" d="M-499.5-306.3h1121v1030h-1121z"/></defs></g></g></g><g><defs><path id="jM" d="M459.5 247.7h9v9h-9z"/></defs><clipPath id="jN"><use xlink:href="#jM" overflow="visible"/></clipPath><g clip-path="url(#jN)"><defs><path id="jO" d="M-499.5-306.3h1121v1030h-1121z"/></defs></g></g></svg>