<svg xmlns="http://www.w3.org/2000/svg" xmlns:xlink="http://www.w3.org/1999/xlink" viewBox="0 0 276 137"><defs><circle id="a" cx="428.1" cy="-95" r="43.5"/></defs><defs><path id="b" d="M428.1-50c-24.8 0-45-20.2-45-45s20.2-45 45-45 45 20.2 45 45-20.1 45-45 45zm0-87c-23.2 0-42 18.8-42 42s18.8 42 42 42 42-18.8 42-42-18.8-42-42-42z"/></defs><use xlink:href="#a" overflow="visible" fill-rule="evenodd" clip-rule="evenodd" fill="#FFF"/><use xlink:href="#b" overflow="visible" fill="#0F1F2D"/><clipPath id="c"><use xlink:href="#a" overflow="visible"/></clipPath><clipPath id="d" clip-path="url(#c)"><use xlink:href="#b" overflow="visible"/></clipPath><g clip-path="url(#d)"><defs><path id="e" d="M253.6-831h1121V199h-1121z"/></defs><defs><path id="f" d="M1376.1 200.5h-1124v-1033h1124v1033zm-1121-3h1118v-1027h-1118v1027z"/></defs><use xlink:href="#e" overflow="visible" fill="#FFF"/><use xlink:href="#f" overflow="visible" fill="#0F1F2D"/><clipPath id="g"><use xlink:href="#e" overflow="visible"/></clipPath></g><defs><path id="h" d="M-212.6 28.6h-1.5v84h108v-84h-106.5zm0 3h105l-1.5-1.5v81l1.5-1.5h-105l1.5 1.5v-81l-1.5 1.5zm-21.5-23h148v124h-148V8.6z"/></defs><clipPath id="i"><use xlink:href="#h" overflow="visible"/></clipPath><g clip-path="url(#i)"><defs><path id="j" d="M-212.6 30.1h105v81h-105z"/></defs><clipPath id="k"><use xlink:href="#j" overflow="visible"/></clipPath><g clip-path="url(#k)"><defs><path id="l" d="M-1093.6-468.9h1121v1030h-1121z"/></defs></g></g><defs><path id="m" d="M-212.6 30.1h105v81h-105z"/></defs><clipPath id="n"><use xlink:href="#m" overflow="visible"/></clipPath><g clip-path="url(#n)"><defs><path id="o" d="M-1093.6-468.9h1121v1030h-1121z"/></defs></g><defs><path id="p" d="M-218.6 45.6h-2.2l.9-2.1 9.1-22 .4-.9h100.9l.4.9 9.1 22 .9 2.1h-119.5zm0-3h117l-1.4 2.1-9.1-22 1.4.9h-98.9l1.4-.9-9.1 22-1.3-2.1zm-22.3 23h161.5V.6h-161.5v65z"/></defs><clipPath id="q"><use xlink:href="#p" overflow="visible"/></clipPath><g clip-path="url(#q)"><defs><path id="r" d="M-218.6 44.1h117l-9.1-22h-98.8z"/></defs><clipPath id="s"><use xlink:href="#r" overflow="visible"/></clipPath><g clip-path="url(#s)"><defs><path id="t" d="M-1093.6-468.9h1121v1030h-1121z"/></defs></g></g><defs><path id="u" d="M-218.6 44.1h117l-9.1-22h-98.8z"/></defs><clipPath id="v"><use xlink:href="#u" overflow="visible"/></clipPath><g clip-path="url(#v)"><defs><path id="w" d="M-1093.6-468.9h1121v1030h-1121z"/></defs></g><defs><path id="x" d="M-133.6 12.6h-1.5v19h15v-19h-13.5zm0 3h12l-1.5-1.5v16l1.5-1.5h-12l1.5 1.5v-16l-1.5 1.5zm-21.5-23h55v59h-55v-59z"/></defs><clipPath id="y"><use xlink:href="#x" overflow="visible"/></clipPath><g clip-path="url(#y)"><defs><path id="z" d="M-133.6 14.1h12v16h-12z"/></defs><clipPath id="A"><use xlink:href="#z" overflow="visible"/></clipPath><g clip-path="url(#A)"><defs><path id="B" d="M-1093.6-468.9h1121v1030h-1121z"/></defs></g></g><defs><path id="C" d="M-133.6 14.1h12v16h-12z"/></defs><clipPath id="D"><use xlink:href="#C" overflow="visible"/></clipPath><g clip-path="url(#D)"><defs><path id="E" d="M-1093.6-468.9h1121v1030h-1121z"/></defs></g><defs><path id="F" d="M-199.6 78.6h-1.5v34h24v-34h-22.5zm0 3h21l-1.5-1.5v31l1.5-1.5h-21l1.5 1.5v-31l-1.5 1.5zm-21.5-23h64v74h-64v-74z"/></defs><clipPath id="G"><use xlink:href="#F" overflow="visible"/></clipPath><g clip-path="url(#G)"><defs><path id="H" d="M-199.6 80.1h21v31h-21z"/></defs><clipPath id="I"><use xlink:href="#H" overflow="visible"/></clipPath><g clip-path="url(#I)"><defs><path id="J" d="M-1093.6-468.9h1121v1030h-1121z"/></defs></g></g><defs><path id="K" d="M-199.6 80.1h21v31h-21z"/></defs><clipPath id="L"><use xlink:href="#K" overflow="visible"/></clipPath><g clip-path="url(#L)"><defs><path id="M" d="M-1093.6-468.9h1121v1030h-1121z"/></defs></g><defs><path id="N" d="M-198.6 50.6h-1.5v22h22v-22h-20.5zm0 3h19l-1.5-1.5v19l1.5-1.5h-19l1.5 1.5v-19l-1.5 1.5zm-21.5-23h62v62h-62v-62z"/></defs><clipPath id="O"><use xlink:href="#N" overflow="visible"/></clipPath><g clip-path="url(#O)"><defs><path id="P" d="M-198.6 52.1h19v19h-19z"/></defs><clipPath id="Q"><use xlink:href="#P" overflow="visible"/></clipPath><g clip-path="url(#Q)"><defs><path id="R" d="M-1093.6-468.9h1121v1030h-1121z"/></defs></g></g><defs><path id="S" d="M-198.6 52.1h19v19h-19z"/></defs><clipPath id="T"><use xlink:href="#S" overflow="visible"/></clipPath><g clip-path="url(#T)"><defs><path id="U" d="M-1093.6-468.9h1121v1030h-1121z"/></defs></g><defs><path id="V" d="M-193.6 55.6h-1.5v12h12v-12h-10.5zm0 3h9l-1.5-1.5v9l1.5-1.5h-9l1.5 1.5v-9l-1.5 1.5zm-21.5-23h52v52h-52v-52z"/></defs><clipPath id="W"><use xlink:href="#V" overflow="visible"/></clipPath><g clip-path="url(#W)"><defs><path id="X" d="M-193.6 57.1h9v9h-9z"/></defs><clipPath id="Y"><use xlink:href="#X" overflow="visible"/></clipPath><g clip-path="url(#Y)"><defs><path id="Z" d="M-1093.6-468.9h1121v1030h-1121z"/></defs></g></g><defs><path id="aa" d="M-193.6 57.1h9v9h-9z"/></defs><clipPath id="ab"><use xlink:href="#aa" overflow="visible"/></clipPath><g clip-path="url(#ab)"><defs><path id="ac" d="M-1093.6-468.9h1121v1030h-1121z"/></defs></g><defs><path id="ad" d="M-168.6 50.6h-1.5v22h22v-22h-20.5zm0 3h19l-1.5-1.5v19l1.5-1.5h-19l1.5 1.5v-19l-1.5 1.5zm-21.5-23h62v62h-62v-62z"/></defs><clipPath id="ae"><use xlink:href="#ad" overflow="visible"/></clipPath><g clip-path="url(#ae)"><defs><path id="af" d="M-168.6 52.1h19v19h-19z"/></defs><clipPath id="ag"><use xlink:href="#af" overflow="visible"/></clipPath><g clip-path="url(#ag)"><defs><path id="ah" d="M-1093.6-468.9h1121v1030h-1121z"/></defs></g></g><defs><path id="ai" d="M-168.6 52.1h19v19h-19z"/></defs><clipPath id="aj"><use xlink:href="#ai" overflow="visible"/></clipPath><g clip-path="url(#aj)"><defs><path id="ak" d="M-1093.6-468.9h1121v1030h-1121z"/></defs></g><defs><path id="al" d="M-139.6 50.6h-1.5v22h22v-22h-20.5zm0 3h19l-1.5-1.5v19l1.5-1.5h-19l1.5 1.5v-19l-1.5 1.5zm-21.5-23h62v62h-62v-62z"/></defs><clipPath id="am"><use xlink:href="#al" overflow="visible"/></clipPath><g clip-path="url(#am)"><defs><path id="an" d="M-139.6 52.1h19v19h-19z"/></defs><clipPath id="ao"><use xlink:href="#an" overflow="visible"/></clipPath><g clip-path="url(#ao)"><defs><path id="ap" d="M-1093.6-468.9h1121v1030h-1121z"/></defs></g></g><defs><path id="aq" d="M-139.6 52.1h19v19h-19z"/></defs><clipPath id="ar"><use xlink:href="#aq" overflow="visible"/></clipPath><g clip-path="url(#ar)"><defs><path id="as" d="M-1093.6-468.9h1121v1030h-1121z"/></defs></g><defs><path id="at" d="M-168.6 78.6h-1.5v22h22v-22h-20.5zm0 3h19l-1.5-1.5v19l1.5-1.5h-19l1.5 1.5v-19l-1.5 1.5zm-21.5-23h62v62h-62v-62z"/></defs><clipPath id="au"><use xlink:href="#at" overflow="visible"/></clipPath><g clip-path="url(#au)"><defs><path id="av" d="M-168.6 80.1h19v19h-19z"/></defs><clipPath id="aw"><use xlink:href="#av" overflow="visible"/></clipPath><g clip-path="url(#aw)"><defs><path id="ax" d="M-1093.6-468.9h1121v1030h-1121z"/></defs></g></g><defs><path id="ay" d="M-168.6 80.1h19v19h-19z"/></defs><clipPath id="az"><use xlink:href="#ay" overflow="visible"/></clipPath><g clip-path="url(#az)"><defs><path id="aA" d="M-1093.6-468.9h1121v1030h-1121z"/></defs></g><defs><path id="aB" d="M-139.6 78.6h-1.5v22h22v-22h-20.5zm0 3h19l-1.5-1.5v19l1.5-1.5h-19l1.5 1.5v-19l-1.5 1.5zm-21.5-23h62v62h-62v-62z"/></defs><clipPath id="aC"><use xlink:href="#aB" overflow="visible"/></clipPath><g clip-path="url(#aC)"><defs><path id="aD" d="M-139.6 80.1h19v19h-19z"/></defs><clipPath id="aE"><use xlink:href="#aD" overflow="visible"/></clipPath><g clip-path="url(#aE)"><defs><path id="aF" d="M-1093.6-468.9h1121v1030h-1121z"/></defs></g></g><g><defs><path id="aG" d="M-139.6 80.1h19v19h-19z"/></defs><clipPath id="aH"><use xlink:href="#aG" overflow="visible"/></clipPath><g clip-path="url(#aH)"><defs><path id="aI" d="M-1093.6-468.9h1121v1030h-1121z"/></defs></g></g><g><defs><path id="aJ" d="M-163.6 55.6h-1.5v12h12v-12h-10.5zm0 3h9l-1.5-1.5v9l1.5-1.5h-9l1.5 1.5v-9l-1.5 1.5zm-21.5-23h52v52h-52v-52z"/></defs><clipPath id="aK"><use xlink:href="#aJ" overflow="visible"/></clipPath><g clip-path="url(#aK)"><defs><path id="aL" d="M-163.6 57.1h9v9h-9z"/></defs><clipPath id="aM"><use xlink:href="#aL" overflow="visible"/></clipPath><g clip-path="url(#aM)"><defs><path id="aN" d="M-1093.6-468.9h1121v1030h-1121z"/></defs></g></g></g><g><defs><path id="aO" d="M-163.6 57.1h9v9h-9z"/></defs><clipPath id="aP"><use xlink:href="#aO" overflow="visible"/></clipPath><g clip-path="url(#aP)"><defs><path id="aQ" d="M-1093.6-468.9h1121v1030h-1121z"/></defs></g></g><g><defs><path id="aR" d="M-134.6 55.6h-1.5v12h12v-12h-10.5zm0 3h9l-1.5-1.5v9l1.5-1.5h-9l1.5 1.5v-9l-1.5 1.5zm-21.5-23h52v52h-52v-52z"/></defs><clipPath id="aS"><use xlink:href="#aR" overflow="visible"/></clipPath><g clip-path="url(#aS)"><defs><path id="aT" d="M-134.6 57.1h9v9h-9z"/></defs><clipPath id="aU"><use xlink:href="#aT" overflow="visible"/></clipPath><g clip-path="url(#aU)"><defs><path id="aV" d="M-1093.6-468.9h1121v1030h-1121z"/></defs></g></g></g><g><defs><path id="aW" d="M-134.6 57.1h9v9h-9z"/></defs><clipPath id="aX"><use xlink:href="#aW" overflow="visible"/></clipPath><g clip-path="url(#aX)"><defs><path id="aY" d="M-1093.6-468.9h1121v1030h-1121z"/></defs></g></g><g><defs><path id="aZ" d="M-163.6 83.6h-1.5v12h12v-12h-10.5zm0 3h9l-1.5-1.5v9l1.5-1.5h-9l1.5 1.5v-9l-1.5 1.5zm-21.5-23h52v52h-52v-52z"/></defs><clipPath id="ba"><use xlink:href="#aZ" overflow="visible"/></clipPath><g clip-path="url(#ba)"><defs><path id="bb" d="M-163.6 85.1h9v9h-9z"/></defs><clipPath id="bc"><use xlink:href="#bb" overflow="visible"/></clipPath><g clip-path="url(#bc)"><defs><path id="bd" d="M-1093.6-468.9h1121v1030h-1121z"/></defs></g></g></g><g><defs><path id="be" d="M-163.6 85.1h9v9h-9z"/></defs><clipPath id="bf"><use xlink:href="#be" overflow="visible"/></clipPath><g clip-path="url(#bf)"><defs><path id="bg" d="M-1093.6-468.9h1121v1030h-1121z"/></defs></g></g><g><defs><path id="bh" d="M-134.6 83.6h-1.5v12h12v-12h-10.5zm0 3h9l-1.5-1.5v9l1.5-1.5h-9l1.5 1.5v-9l-1.5 1.5zm-21.5-23h52v52h-52v-52z"/></defs><clipPath id="bi"><use xlink:href="#bh" overflow="visible"/></clipPath><g clip-path="url(#bi)"><defs><path id="bj" d="M-134.6 85.1h9v9h-9z"/></defs><clipPath id="bk"><use xlink:href="#bj" overflow="visible"/></clipPath><g clip-path="url(#bk)"><defs><path id="bl" d="M-1093.6-468.9h1121v1030h-1121z"/></defs></g></g></g><g><defs><path id="bm" d="M-134.6 85.1h9v9h-9z"/></defs><clipPath id="bn"><use xlink:href="#bm" overflow="visible"/></clipPath><g clip-path="url(#bn)"><defs><path id="bo" d="M-1093.6-468.9h1121v1030h-1121z"/></defs></g></g><g><defs><path id="bp" d="M387.4-288.4h-1.5v84h108v-84H387.4zm0 3h105l-1.5-1.5v81l1.5-1.5h-105l1.5 1.5v-81l-1.5 1.5zm-21.5-23h148v124h-148v-124z"/></defs><clipPath id="bq"><use xlink:href="#bp" overflow="visible"/></clipPath><g clip-path="url(#bq)"><defs><path id="br" d="M387.4-286.9h105v81h-105z"/></defs><clipPath id="bs"><use xlink:href="#br" overflow="visible"/></clipPath><g clip-path="url(#bs)"><defs><path id="bt" d="M-493.6-785.9h1121v1030h-1121z"/></defs></g></g></g><g><defs><path id="bu" d="M387.4-286.9h105v81h-105z"/></defs><clipPath id="bv"><use xlink:href="#bu" overflow="visible"/></clipPath><g clip-path="url(#bv)"><defs><path id="bw" d="M-493.6-785.9h1121v1030h-1121z"/></defs></g></g><g><defs><path id="bx" d="M381.4-271.4h-2.2l.9-2.1 9.1-22 .4-.9h100.9l.4.9 9.1 22 .9 2.1H381.4zm0-3h117l-1.4 2.1-9.1-22 1.4.9h-98.9l1.4-.9-9.1 22-1.3-2.1zm-22.3 23h161.5v-65H359.1v65z"/></defs><clipPath id="by"><use xlink:href="#bx" overflow="visible"/></clipPath><g clip-path="url(#by)"><defs><path id="bz" d="M381.4-272.9h117l-9.1-22h-98.8z"/></defs><clipPath id="bA"><use xlink:href="#bz" overflow="visible"/></clipPath><g clip-path="url(#bA)"><defs><path id="bB" d="M-493.6-785.9h1121v1030h-1121z"/></defs></g></g></g><g><defs><path id="bC" d="M381.4-272.9h117l-9.1-22h-98.8z"/></defs><clipPath id="bD"><use xlink:href="#bC" overflow="visible"/></clipPath><g clip-path="url(#bD)"><defs><path id="bE" d="M-493.6-785.9h1121v1030h-1121z"/></defs></g></g><g><defs><path id="bF" d="M466.4-304.4h-1.5v19h15v-19h-13.5zm0 3h12l-1.5-1.5v16l1.5-1.5h-12l1.5 1.5v-16l-1.5 1.5zm-21.5-23h55v59h-55v-59z"/></defs><clipPath id="bG"><use xlink:href="#bF" overflow="visible"/></clipPath><g clip-path="url(#bG)"><defs><path id="bH" d="M466.4-302.9h12v16h-12z"/></defs><clipPath id="bI"><use xlink:href="#bH" overflow="visible"/></clipPath><g clip-path="url(#bI)"><defs><path id="bJ" d="M-493.6-785.9h1121v1030h-1121z"/></defs></g></g></g><g><defs><path id="bK" d="M466.4-302.9h12v16h-12z"/></defs><clipPath id="bL"><use xlink:href="#bK" overflow="visible"/></clipPath><g clip-path="url(#bL)"><defs><path id="bM" d="M-493.6-785.9h1121v1030h-1121z"/></defs></g></g><g><defs><path id="bN" d="M400.4-238.4h-1.5v34h24v-34h-22.5zm0 3h21l-1.5-1.5v31l1.5-1.5h-21l1.5 1.5v-31l-1.5 1.5zm-21.5-23h64v74h-64v-74z"/></defs><clipPath id="bO"><use xlink:href="#bN" overflow="visible"/></clipPath><g clip-path="url(#bO)"><defs><path id="bP" d="M400.4-236.9h21v31h-21z"/></defs><clipPath id="bQ"><use xlink:href="#bP" overflow="visible"/></clipPath><g clip-path="url(#bQ)"><defs><path id="bR" d="M-493.6-785.9h1121v1030h-1121z"/></defs></g></g></g><g><defs><path id="bS" d="M400.4-236.9h21v31h-21z"/></defs><clipPath id="bT"><use xlink:href="#bS" overflow="visible"/></clipPath><g clip-path="url(#bT)"><defs><path id="bU" d="M-493.6-785.9h1121v1030h-1121z"/></defs></g></g><g><defs><path id="bV" d="M401.4-266.4h-1.5v22h22v-22h-20.5zm0 3h19l-1.5-1.5v19l1.5-1.5h-19l1.5 1.5v-19l-1.5 1.5zm-21.5-23h62v62h-62v-62z"/></defs><clipPath id="bW"><use xlink:href="#bV" overflow="visible"/></clipPath><g clip-path="url(#bW)"><defs><path id="bX" d="M401.4-264.9h19v19h-19z"/></defs><clipPath id="bY"><use xlink:href="#bX" overflow="visible"/></clipPath><g clip-path="url(#bY)"><defs><path id="bZ" d="M-493.6-785.9h1121v1030h-1121z"/></defs></g></g></g><g><defs><path id="ca" d="M401.4-264.9h19v19h-19z"/></defs><clipPath id="cb"><use xlink:href="#ca" overflow="visible"/></clipPath><g clip-path="url(#cb)"><defs><path id="cc" d="M-493.6-785.9h1121v1030h-1121z"/></defs></g></g><g><defs><path id="cd" d="M406.4-261.4h-1.5v12h12v-12h-10.5zm0 3h9l-1.5-1.5v9l1.5-1.5h-9l1.5 1.5v-9l-1.5 1.5zm-21.5-23h52v52h-52v-52z"/></defs><clipPath id="ce"><use xlink:href="#cd" overflow="visible"/></clipPath><g clip-path="url(#ce)"><defs><path id="cf" d="M406.4-259.9h9v9h-9z"/></defs><clipPath id="cg"><use xlink:href="#cf" overflow="visible"/></clipPath><g clip-path="url(#cg)"><defs><path id="ch" d="M-493.6-785.9h1121v1030h-1121z"/></defs></g></g></g><g><defs><path id="ci" d="M406.4-259.9h9v9h-9z"/></defs><clipPath id="cj"><use xlink:href="#ci" overflow="visible"/></clipPath><g clip-path="url(#cj)"><defs><path id="ck" d="M-493.6-785.9h1121v1030h-1121z"/></defs></g></g><g><defs><path id="cl" d="M431.4-266.4h-1.5v22h22v-22h-20.5zm0 3h19l-1.5-1.5v19l1.5-1.5h-19l1.5 1.5v-19l-1.5 1.5zm-21.5-23h62v62h-62v-62z"/></defs><clipPath id="cm"><use xlink:href="#cl" overflow="visible"/></clipPath><g clip-path="url(#cm)"><defs><path id="cn" d="M431.4-264.9h19v19h-19z"/></defs><clipPath id="co"><use xlink:href="#cn" overflow="visible"/></clipPath><g clip-path="url(#co)"><defs><path id="cp" d="M-493.6-785.9h1121v1030h-1121z"/></defs></g></g></g><g><defs><path id="cq" d="M431.4-264.9h19v19h-19z"/></defs><clipPath id="cr"><use xlink:href="#cq" overflow="visible"/></clipPath><g clip-path="url(#cr)"><defs><path id="cs" d="M-493.6-785.9h1121v1030h-1121z"/></defs></g></g><g><defs><path id="ct" d="M460.4-266.4h-1.5v22h22v-22h-20.5zm0 3h19l-1.5-1.5v19l1.5-1.5h-19l1.5 1.5v-19l-1.5 1.5zm-21.5-23h62v62h-62v-62z"/></defs><clipPath id="cu"><use xlink:href="#ct" overflow="visible"/></clipPath><g clip-path="url(#cu)"><defs><path id="cv" d="M460.4-264.9h19v19h-19z"/></defs><clipPath id="cw"><use xlink:href="#cv" overflow="visible"/></clipPath><g clip-path="url(#cw)"><defs><path id="cx" d="M-493.6-785.9h1121v1030h-1121z"/></defs></g></g></g><g><defs><path id="cy" d="M460.4-264.9h19v19h-19z"/></defs><clipPath id="cz"><use xlink:href="#cy" overflow="visible"/></clipPath><g clip-path="url(#cz)"><defs><path id="cA" d="M-493.6-785.9h1121v1030h-1121z"/></defs></g></g><g><defs><path id="cB" d="M431.4-238.4h-1.5v22h22v-22h-20.5zm0 3h19l-1.5-1.5v19l1.5-1.5h-19l1.5 1.5v-19l-1.5 1.5zm-21.5-23h62v62h-62v-62z"/></defs><clipPath id="cC"><use xlink:href="#cB" overflow="visible"/></clipPath><g clip-path="url(#cC)"><defs><path id="cD" d="M431.4-236.9h19v19h-19z"/></defs><clipPath id="cE"><use xlink:href="#cD" overflow="visible"/></clipPath><g clip-path="url(#cE)"><defs><path id="cF" d="M-493.6-785.9h1121v1030h-1121z"/></defs></g></g></g><g><defs><path id="cG" d="M431.4-236.9h19v19h-19z"/></defs><clipPath id="cH"><use xlink:href="#cG" overflow="visible"/></clipPath><g clip-path="url(#cH)"><defs><path id="cI" d="M-493.6-785.9h1121v1030h-1121z"/></defs></g></g><g><defs><path id="cJ" d="M460.4-238.4h-1.5v22h22v-22h-20.5zm0 3h19l-1.5-1.5v19l1.5-1.5h-19l1.5 1.5v-19l-1.5 1.5zm-21.5-23h62v62h-62v-62z"/></defs><clipPath id="cK"><use xlink:href="#cJ" overflow="visible"/></clipPath><g clip-path="url(#cK)"><defs><path id="cL" d="M460.4-236.9h19v19h-19z"/></defs><clipPath id="cM"><use xlink:href="#cL" overflow="visible"/></clipPath><g clip-path="url(#cM)"><defs><path id="cN" d="M-493.6-785.9h1121v1030h-1121z"/></defs></g></g></g><g><defs><path id="cO" d="M460.4-236.9h19v19h-19z"/></defs><clipPath id="cP"><use xlink:href="#cO" overflow="visible"/></clipPath><g clip-path="url(#cP)"><defs><path id="cQ" d="M-493.6-785.9h1121v1030h-1121z"/></defs></g></g><g><defs><path id="cR" d="M436.4-261.4h-1.5v12h12v-12h-10.5zm0 3h9l-1.5-1.5v9l1.5-1.5h-9l1.5 1.5v-9l-1.5 1.5zm-21.5-23h52v52h-52v-52z"/></defs><clipPath id="cS"><use xlink:href="#cR" overflow="visible"/></clipPath><g clip-path="url(#cS)"><defs><path id="cT" d="M436.4-259.9h9v9h-9z"/></defs><clipPath id="cU"><use xlink:href="#cT" overflow="visible"/></clipPath><g clip-path="url(#cU)"><defs><path id="cV" d="M-493.6-785.9h1121v1030h-1121z"/></defs></g></g></g><g><defs><path id="cW" d="M436.4-259.9h9v9h-9z"/></defs><clipPath id="cX"><use xlink:href="#cW" overflow="visible"/></clipPath><g clip-path="url(#cX)"><defs><path id="cY" d="M-493.6-785.9h1121v1030h-1121z"/></defs></g></g><g><defs><path id="cZ" d="M465.4-261.4h-1.5v12h12v-12h-10.5zm0 3h9l-1.5-1.5v9l1.5-1.5h-9l1.5 1.5v-9l-1.5 1.5zm-21.5-23h52v52h-52v-52z"/></defs><clipPath id="da"><use xlink:href="#cZ" overflow="visible"/></clipPath><g clip-path="url(#da)"><defs><path id="db" d="M465.4-259.9h9v9h-9z"/></defs><clipPath id="dc"><use xlink:href="#db" overflow="visible"/></clipPath><g clip-path="url(#dc)"><defs><path id="dd" d="M-493.6-785.9h1121v1030h-1121z"/></defs></g></g></g><g><defs><path id="de" d="M465.4-259.9h9v9h-9z"/></defs><clipPath id="df"><use xlink:href="#de" overflow="visible"/></clipPath><g clip-path="url(#df)"><defs><path id="dg" d="M-493.6-785.9h1121v1030h-1121z"/></defs></g></g><g><defs><path id="dh" d="M436.4-233.4h-1.5v12h12v-12h-10.5zm0 3h9l-1.5-1.5v9l1.5-1.5h-9l1.5 1.5v-9l-1.5 1.5zm-21.5-23h52v52h-52v-52z"/></defs><clipPath id="di"><use xlink:href="#dh" overflow="visible"/></clipPath><g clip-path="url(#di)"><defs><path id="dj" d="M436.4-231.9h9v9h-9z"/></defs><clipPath id="dk"><use xlink:href="#dj" overflow="visible"/></clipPath><g clip-path="url(#dk)"><defs><path id="dl" d="M-493.6-785.9h1121v1030h-1121z"/></defs></g></g></g><g><defs><path id="dm" d="M436.4-231.9h9v9h-9z"/></defs><clipPath id="dn"><use xlink:href="#dm" overflow="visible"/></clipPath><g clip-path="url(#dn)"><defs><path id="do" d="M-493.6-785.9h1121v1030h-1121z"/></defs></g></g><g><defs><path id="dp" d="M465.4-233.4h-1.5v12h12v-12h-10.5zm0 3h9l-1.5-1.5v9l1.5-1.5h-9l1.5 1.5v-9l-1.5 1.5zm-21.5-23h52v52h-52v-52z"/></defs><clipPath id="dq"><use xlink:href="#dp" overflow="visible"/></clipPath><g clip-path="url(#dq)"><defs><path id="dr" d="M465.4-231.9h9v9h-9z"/></defs><clipPath id="ds"><use xlink:href="#dr" overflow="visible"/></clipPath><g clip-path="url(#ds)"><defs><path id="dt" d="M-493.6-785.9h1121v1030h-1121z"/></defs></g></g></g><g><defs><path id="du" d="M465.4-231.9h9v9h-9z"/></defs><clipPath id="dv"><use xlink:href="#du" overflow="visible"/></clipPath><g clip-path="url(#dv)"><defs><path id="dw" d="M-493.6-785.9h1121v1030h-1121z"/></defs></g></g><g><path fill="#FFF" d="M127.7 55.9h-18.8l-13.2 10v34.6h45.1V66.3z"/><path fill="#0C1F2E" d="M142.3 102H94.2V65.2l14.3-10.8h19.7l14.2 11.2V102zm-45.1-3h42.2V67l-12.2-9.7h-17.7l-12.3 9.3V99z"/></g><g><circle fill="#FFF" cx="117.9" cy="35.4" r="12"/><path fill="#0C1F2E" d="M117.9 48.9c-7.4 0-13.5-6.1-13.5-13.5s6.1-13.5 13.5-13.5 13.5 6.1 13.5 13.5-6.1 13.5-13.5 13.5zm0-24c-5.8 0-10.5 4.7-10.5 10.5s4.7 10.5 10.5 10.5 10.5-4.7 10.5-10.5-4.8-10.5-10.5-10.5z"/></g><g><path fill="#FFF" d="M167.1 55.9h-18.7l-13.2 10v34.6h45.1V66.3z"/><path fill="#0C1F2E" d="M181.8 102h-48.2V65.2l14.3-10.8h19.7l14.2 11.2V102zm-45.1-3h42.2V67l-12.2-9.7H149l-12.3 9.3V99z"/></g><g><circle fill="#FFF" cx="157.3" cy="35.4" r="12"/><path fill="#0C1F2E" d="M157.3 48.9c-7.4 0-13.5-6.1-13.5-13.5s6.1-13.5 13.5-13.5 13.5 6.1 13.5 13.5-6 13.5-13.5 13.5zm0-24c-5.8 0-10.5 4.7-10.5 10.5s4.7 10.5 10.5 10.5 10.5-4.7 10.5-10.5-4.7-10.5-10.5-10.5z"/></g><g><circle fill="#FFF" cx="135.7" cy="105.3" r="12.5"/><path fill="#0F1F2D" d="M135.7 119.4c-3.7 0-7.3-1.5-9.9-4.1-2.6-2.6-4.1-6.2-4.1-9.9s1.5-7.3 4.1-9.9c2.6-2.6 6.2-4.1 9.9-4.1s7.3 1.5 9.9 4.1c5.5 5.5 5.5 14.4 0 19.8-2.6 2.6-6.1 4.1-9.9 4.1zm0-25.1c-2.9 0-5.7 1.1-7.8 3.2-2.1 2.1-3.2 4.8-3.2 7.8s1.1 5.7 3.2 7.8c2.1 2.1 4.8 3.2 7.8 3.2 2.9 0 5.7-1.1 7.8-3.2 4.3-4.3 4.3-11.3 0-15.6-2.1-2-4.8-3.2-7.8-3.2z"/></g><g><path fill="#0F1F2D" d="M132.4 111.6l-5.2-4.7c-.6-.6-.7-1.5-.1-2.1.6-.6 1.5-.7 2.1-.1l3 2.8 8.4-8.4c.6-.6 1.5-.6 2.1 0s.6 1.5 0 2.1l-10.3 10.4z"/></g></svg>