<svg xmlns="http://www.w3.org/2000/svg" xmlns:xlink="http://www.w3.org/1999/xlink" viewBox="0 0 276 137"><defs><circle id="a" cx="428.1" cy="-95" r="43.5"/></defs><defs><path id="b" d="M428.1-50c-24.8 0-45-20.2-45-45s20.2-45 45-45 45 20.2 45 45-20.1 45-45 45zm0-87c-23.2 0-42 18.8-42 42s18.8 42 42 42 42-18.8 42-42-18.8-42-42-42z"/></defs><use xlink:href="#a" overflow="visible" fill-rule="evenodd" clip-rule="evenodd" fill="#FFF"/><use xlink:href="#b" overflow="visible" fill="#0F1F2D"/><clipPath id="c"><use xlink:href="#a" overflow="visible"/></clipPath><clipPath id="d" clip-path="url(#c)"><use xlink:href="#b" overflow="visible"/></clipPath><g clip-path="url(#d)"><defs><path id="e" d="M253.6-831h1121V199h-1121z"/></defs><defs><path id="f" d="M1376.1 200.5h-1124v-1033h1124v1033zm-1121-3h1118v-1027h-1118v1027z"/></defs><use xlink:href="#e" overflow="visible" fill="#FFF"/><use xlink:href="#f" overflow="visible" fill="#0F1F2D"/></g><defs><path id="g" d="M-212.6 28.6h-1.5v84h108v-84h-106.5zm0 3h105l-1.5-1.5v81l1.5-1.5h-105l1.5 1.5v-81l-1.5 1.5zm-21.5-23h148v124h-148V8.6z"/></defs><clipPath id="h"><use xlink:href="#g" overflow="visible"/></clipPath><g clip-path="url(#h)"><defs><path id="i" d="M-212.6 30.1h105v81h-105z"/></defs></g><defs><path id="j" d="M-212.6 30.1h105v81h-105z"/></defs><defs><path id="k" d="M-218.6 45.6h-2.2l.9-2.1 9.1-22 .4-.9h100.9l.4.9 9.1 22 .9 2.1h-119.5zm0-3h117l-1.4 2.1-9.1-22 1.4.9h-98.9l1.4-.9-9.1 22-1.3-2.1zm-22.3 23h161.5V.6h-161.5v65z"/></defs><clipPath id="l"><use xlink:href="#k" overflow="visible"/></clipPath><g clip-path="url(#l)"><defs><path id="m" d="M-218.6 44.1h117l-9.1-22h-98.8z"/></defs></g><defs><path id="n" d="M-218.6 44.1h117l-9.1-22h-98.8z"/></defs><defs><path id="o" d="M-133.6 12.6h-1.5v19h15v-19h-13.5zm0 3h12l-1.5-1.5v16l1.5-1.5h-12l1.5 1.5v-16l-1.5 1.5zm-21.5-23h55v59h-55v-59z"/></defs><clipPath id="p"><use xlink:href="#o" overflow="visible"/></clipPath><g clip-path="url(#p)"><defs><path id="q" d="M-133.6 14.1h12v16h-12z"/></defs></g><defs><path id="r" d="M-133.6 14.1h12v16h-12z"/></defs><defs><path id="s" d="M-199.6 78.6h-1.5v34h24v-34h-22.5zm0 3h21l-1.5-1.5v31l1.5-1.5h-21l1.5 1.5v-31l-1.5 1.5zm-21.5-23h64v74h-64v-74z"/></defs><clipPath id="t"><use xlink:href="#s" overflow="visible"/></clipPath><g clip-path="url(#t)"><defs><path id="u" d="M-199.6 80.1h21v31h-21z"/></defs></g><defs><path id="v" d="M-199.6 80.1h21v31h-21z"/></defs><defs><path id="w" d="M-198.6 50.6h-1.5v22h22v-22h-20.5zm0 3h19l-1.5-1.5v19l1.5-1.5h-19l1.5 1.5v-19l-1.5 1.5zm-21.5-23h62v62h-62v-62z"/></defs><clipPath id="x"><use xlink:href="#w" overflow="visible"/></clipPath><g clip-path="url(#x)"><defs><path id="y" d="M-198.6 52.1h19v19h-19z"/></defs></g><defs><path id="z" d="M-198.6 52.1h19v19h-19z"/></defs><defs><path id="A" d="M-193.6 55.6h-1.5v12h12v-12h-10.5zm0 3h9l-1.5-1.5v9l1.5-1.5h-9l1.5 1.5v-9l-1.5 1.5zm-21.5-23h52v52h-52v-52z"/></defs><clipPath id="B"><use xlink:href="#A" overflow="visible"/></clipPath><g clip-path="url(#B)"><defs><path id="C" d="M-193.6 57.1h9v9h-9z"/></defs></g><defs><path id="D" d="M-193.6 57.1h9v9h-9z"/></defs><defs><path id="E" d="M-168.6 50.6h-1.5v22h22v-22h-20.5zm0 3h19l-1.5-1.5v19l1.5-1.5h-19l1.5 1.5v-19l-1.5 1.5zm-21.5-23h62v62h-62v-62z"/></defs><clipPath id="F"><use xlink:href="#E" overflow="visible"/></clipPath><g clip-path="url(#F)"><defs><path id="G" d="M-168.6 52.1h19v19h-19z"/></defs></g><defs><path id="H" d="M-168.6 52.1h19v19h-19z"/></defs><defs><path id="I" d="M-139.6 50.6h-1.5v22h22v-22h-20.5zm0 3h19l-1.5-1.5v19l1.5-1.5h-19l1.5 1.5v-19l-1.5 1.5zm-21.5-23h62v62h-62v-62z"/></defs><clipPath id="J"><use xlink:href="#I" overflow="visible"/></clipPath><g clip-path="url(#J)"><defs><path id="K" d="M-139.6 52.1h19v19h-19z"/></defs></g><defs><path id="L" d="M-139.6 52.1h19v19h-19z"/></defs><defs><path id="M" d="M-168.6 78.6h-1.5v22h22v-22h-20.5zm0 3h19l-1.5-1.5v19l1.5-1.5h-19l1.5 1.5v-19l-1.5 1.5zm-21.5-23h62v62h-62v-62z"/></defs><clipPath id="N"><use xlink:href="#M" overflow="visible"/></clipPath><g clip-path="url(#N)"><defs><path id="O" d="M-168.6 80.1h19v19h-19z"/></defs></g><defs><path id="P" d="M-168.6 80.1h19v19h-19z"/></defs><defs><path id="Q" d="M-139.6 78.6h-1.5v22h22v-22h-20.5zm0 3h19l-1.5-1.5v19l1.5-1.5h-19l1.5 1.5v-19l-1.5 1.5zm-21.5-23h62v62h-62v-62z"/></defs><clipPath id="R"><use xlink:href="#Q" overflow="visible"/></clipPath><g clip-path="url(#R)"><defs><path id="S" d="M-139.6 80.1h19v19h-19z"/></defs></g><defs><path id="T" d="M-139.6 80.1h19v19h-19z"/></defs><defs><path id="U" d="M-163.6 55.6h-1.5v12h12v-12h-10.5zm0 3h9l-1.5-1.5v9l1.5-1.5h-9l1.5 1.5v-9l-1.5 1.5zm-21.5-23h52v52h-52v-52z"/></defs><clipPath id="V"><use xlink:href="#U" overflow="visible"/></clipPath><g clip-path="url(#V)"><defs><path id="W" d="M-163.6 57.1h9v9h-9z"/></defs></g><defs><path id="X" d="M-163.6 57.1h9v9h-9z"/></defs><defs><path id="Y" d="M-134.6 55.6h-1.5v12h12v-12h-10.5zm0 3h9l-1.5-1.5v9l1.5-1.5h-9l1.5 1.5v-9l-1.5 1.5zm-21.5-23h52v52h-52v-52z"/></defs><clipPath id="Z"><use xlink:href="#Y" overflow="visible"/></clipPath><g clip-path="url(#Z)"><defs><path id="aa" d="M-134.6 57.1h9v9h-9z"/></defs></g><defs><path id="ab" d="M-134.6 57.1h9v9h-9z"/></defs><defs><path id="ac" d="M-163.6 83.6h-1.5v12h12v-12h-10.5zm0 3h9l-1.5-1.5v9l1.5-1.5h-9l1.5 1.5v-9l-1.5 1.5zm-21.5-23h52v52h-52v-52z"/></defs><clipPath id="ad"><use xlink:href="#ac" overflow="visible"/></clipPath><g clip-path="url(#ad)"><defs><path id="ae" d="M-163.6 85.1h9v9h-9z"/></defs></g><defs><path id="af" d="M-163.6 85.1h9v9h-9z"/></defs><defs><path id="ag" d="M-134.6 83.6h-1.5v12h12v-12h-10.5zm0 3h9l-1.5-1.5v9l1.5-1.5h-9l1.5 1.5v-9l-1.5 1.5zm-21.5-23h52v52h-52v-52z"/></defs><clipPath id="ah"><use xlink:href="#ag" overflow="visible"/></clipPath><g clip-path="url(#ah)"><defs><path id="ai" d="M-134.6 85.1h9v9h-9z"/></defs></g><defs><path id="aj" d="M-134.6 85.1h9v9h-9z"/></defs><defs><path id="ak" d="M387.4-288.4h-1.5v84h108v-84H387.4zm0 3h105l-1.5-1.5v81l1.5-1.5h-105l1.5 1.5v-81l-1.5 1.5zm-21.5-23h148v124h-148v-124z"/></defs><clipPath id="al"><use xlink:href="#ak" overflow="visible"/></clipPath><g clip-path="url(#al)"><defs><path id="am" d="M387.4-286.9h105v81h-105z"/></defs></g><defs><path id="an" d="M387.4-286.9h105v81h-105z"/></defs><defs><path id="ao" d="M381.4-271.4h-2.2l.9-2.1 9.1-22 .4-.9h100.9l.4.9 9.1 22 .9 2.1H381.4zm0-3h117l-1.4 2.1-9.1-22 1.4.9h-98.9l1.4-.9-9.1 22-1.3-2.1zm-22.3 23h161.5v-65H359.1v65z"/></defs><clipPath id="ap"><use xlink:href="#ao" overflow="visible"/></clipPath><g clip-path="url(#ap)"><defs><path id="aq" d="M381.4-272.9h117l-9.1-22h-98.8z"/></defs></g><defs><path id="ar" d="M381.4-272.9h117l-9.1-22h-98.8z"/></defs><defs><path id="as" d="M466.4-304.4h-1.5v19h15v-19h-13.5zm0 3h12l-1.5-1.5v16l1.5-1.5h-12l1.5 1.5v-16l-1.5 1.5zm-21.5-23h55v59h-55v-59z"/></defs><clipPath id="at"><use xlink:href="#as" overflow="visible"/></clipPath><g clip-path="url(#at)"><defs><path id="au" d="M466.4-302.9h12v16h-12z"/></defs></g><defs><path id="av" d="M466.4-302.9h12v16h-12z"/></defs><defs><path id="aw" d="M400.4-238.4h-1.5v34h24v-34h-22.5zm0 3h21l-1.5-1.5v31l1.5-1.5h-21l1.5 1.5v-31l-1.5 1.5zm-21.5-23h64v74h-64v-74z"/></defs><clipPath id="ax"><use xlink:href="#aw" overflow="visible"/></clipPath><g clip-path="url(#ax)"><defs><path id="ay" d="M400.4-236.9h21v31h-21z"/></defs></g><defs><path id="az" d="M400.4-236.9h21v31h-21z"/></defs><defs><path id="aA" d="M401.4-266.4h-1.5v22h22v-22h-20.5zm0 3h19l-1.5-1.5v19l1.5-1.5h-19l1.5 1.5v-19l-1.5 1.5zm-21.5-23h62v62h-62v-62z"/></defs><clipPath id="aB"><use xlink:href="#aA" overflow="visible"/></clipPath><g clip-path="url(#aB)"><defs><path id="aC" d="M401.4-264.9h19v19h-19z"/></defs></g><defs><path id="aD" d="M401.4-264.9h19v19h-19z"/></defs><defs><path id="aE" d="M406.4-261.4h-1.5v12h12v-12h-10.5zm0 3h9l-1.5-1.5v9l1.5-1.5h-9l1.5 1.5v-9l-1.5 1.5zm-21.5-23h52v52h-52v-52z"/></defs><clipPath id="aF"><use xlink:href="#aE" overflow="visible"/></clipPath><g clip-path="url(#aF)"><defs><path id="aG" d="M406.4-259.9h9v9h-9z"/></defs></g><defs><path id="aH" d="M406.4-259.9h9v9h-9z"/></defs><defs><path id="aI" d="M431.4-266.4h-1.5v22h22v-22h-20.5zm0 3h19l-1.5-1.5v19l1.5-1.5h-19l1.5 1.5v-19l-1.5 1.5zm-21.5-23h62v62h-62v-62z"/></defs><clipPath id="aJ"><use xlink:href="#aI" overflow="visible"/></clipPath><g clip-path="url(#aJ)"><defs><path id="aK" d="M431.4-264.9h19v19h-19z"/></defs></g><defs><path id="aL" d="M431.4-264.9h19v19h-19z"/></defs><defs><path id="aM" d="M460.4-266.4h-1.5v22h22v-22h-20.5zm0 3h19l-1.5-1.5v19l1.5-1.5h-19l1.5 1.5v-19l-1.5 1.5zm-21.5-23h62v62h-62v-62z"/></defs><clipPath id="aN"><use xlink:href="#aM" overflow="visible"/></clipPath><g clip-path="url(#aN)"><defs><path id="aO" d="M460.4-264.9h19v19h-19z"/></defs></g><defs><path id="aP" d="M460.4-264.9h19v19h-19z"/></defs><defs><path id="aQ" d="M431.4-238.4h-1.5v22h22v-22h-20.5zm0 3h19l-1.5-1.5v19l1.5-1.5h-19l1.5 1.5v-19l-1.5 1.5zm-21.5-23h62v62h-62v-62z"/></defs><clipPath id="aR"><use xlink:href="#aQ" overflow="visible"/></clipPath><g clip-path="url(#aR)"><defs><path id="aS" d="M431.4-236.9h19v19h-19z"/></defs></g><defs><path id="aT" d="M431.4-236.9h19v19h-19z"/></defs><defs><path id="aU" d="M460.4-238.4h-1.5v22h22v-22h-20.5zm0 3h19l-1.5-1.5v19l1.5-1.5h-19l1.5 1.5v-19l-1.5 1.5zm-21.5-23h62v62h-62v-62z"/></defs><clipPath id="aV"><use xlink:href="#aU" overflow="visible"/></clipPath><g clip-path="url(#aV)"><defs><path id="aW" d="M460.4-236.9h19v19h-19z"/></defs></g><defs><path id="aX" d="M460.4-236.9h19v19h-19z"/></defs><g><defs><path id="aY" d="M436.4-261.4h-1.5v12h12v-12h-10.5zm0 3h9l-1.5-1.5v9l1.5-1.5h-9l1.5 1.5v-9l-1.5 1.5zm-21.5-23h52v52h-52v-52z"/></defs><clipPath id="aZ"><use xlink:href="#aY" overflow="visible"/></clipPath><g clip-path="url(#aZ)"><defs><path id="ba" d="M436.4-259.9h9v9h-9z"/></defs></g></g><g><defs><path id="bb" d="M436.4-259.9h9v9h-9z"/></defs></g><g><defs><path id="bc" d="M465.4-261.4h-1.5v12h12v-12h-10.5zm0 3h9l-1.5-1.5v9l1.5-1.5h-9l1.5 1.5v-9l-1.5 1.5zm-21.5-23h52v52h-52v-52z"/></defs><clipPath id="bd"><use xlink:href="#bc" overflow="visible"/></clipPath><g clip-path="url(#bd)"><defs><path id="be" d="M465.4-259.9h9v9h-9z"/></defs></g></g><g><defs><path id="bf" d="M465.4-259.9h9v9h-9z"/></defs></g><g><defs><path id="bg" d="M436.4-233.4h-1.5v12h12v-12h-10.5zm0 3h9l-1.5-1.5v9l1.5-1.5h-9l1.5 1.5v-9l-1.5 1.5zm-21.5-23h52v52h-52v-52z"/></defs><clipPath id="bh"><use xlink:href="#bg" overflow="visible"/></clipPath><g clip-path="url(#bh)"><defs><path id="bi" d="M436.4-231.9h9v9h-9z"/></defs></g></g><g><defs><path id="bj" d="M436.4-231.9h9v9h-9z"/></defs></g><g><defs><path id="bk" d="M465.4-233.4h-1.5v12h12v-12h-10.5zm0 3h9l-1.5-1.5v9l1.5-1.5h-9l1.5 1.5v-9l-1.5 1.5zm-21.5-23h52v52h-52v-52z"/></defs><clipPath id="bl"><use xlink:href="#bk" overflow="visible"/></clipPath><g clip-path="url(#bl)"><defs><path id="bm" d="M465.4-231.9h9v9h-9z"/></defs></g></g><g><defs><path id="bn" d="M465.4-231.9h9v9h-9z"/></defs></g><g><path fill="#FFF" d="M127.7 55.9h-18.8l-13.2 10v34.6h45.1V66.3z"/><path fill="#0C1F2E" d="M142.3 102H94.2V65.2l14.3-10.8h19.7l14.2 11.2V102zm-45.1-3h42.2V67l-12.2-9.7h-17.7l-12.3 9.3V99z"/></g><g><circle fill="#FFF" cx="117.9" cy="35.4" r="12"/><path fill="#0C1F2E" d="M117.9 48.9c-7.4 0-13.5-6.1-13.5-13.5s6.1-13.5 13.5-13.5 13.5 6.1 13.5 13.5-6.1 13.5-13.5 13.5zm0-24c-5.8 0-10.5 4.7-10.5 10.5s4.7 10.5 10.5 10.5 10.5-4.7 10.5-10.5-4.8-10.5-10.5-10.5z"/></g><g><path fill="#FFF" d="M167.1 55.9h-18.7l-13.2 10v34.6h45.1V66.3z"/><path fill="#0C1F2E" d="M181.8 102h-48.2V65.2l14.3-10.8h19.7l14.2 11.2V102zm-45.1-3h42.2V67l-12.2-9.7H149l-12.3 9.3V99z"/></g><g><circle fill="#FFF" cx="157.3" cy="35.4" r="12"/><path fill="#0C1F2E" d="M157.3 48.9c-7.4 0-13.5-6.1-13.5-13.5s6.1-13.5 13.5-13.5 13.5 6.1 13.5 13.5-6 13.5-13.5 13.5zm0-24c-5.8 0-10.5 4.7-10.5 10.5s4.7 10.5 10.5 10.5 10.5-4.7 10.5-10.5-4.7-10.5-10.5-10.5z"/></g><g><circle fill="#FFF" cx="135.7" cy="105.3" r="12.5"/><path fill="#0F1F2D" d="M135.7 119.4c-3.7 0-7.3-1.5-9.9-4.1-2.6-2.6-4.1-6.2-4.1-9.9s1.5-7.3 4.1-9.9c2.6-2.6 6.2-4.1 9.9-4.1s7.3 1.5 9.9 4.1c5.5 5.5 5.5 14.4 0 19.8-2.6 2.6-6.1 4.1-9.9 4.1zm0-25.1c-2.9 0-5.7 1.1-7.8 3.2-2.1 2.1-3.2 4.8-3.2 7.8s1.1 5.7 3.2 7.8c2.1 2.1 4.8 3.2 7.8 3.2 2.9 0 5.7-1.1 7.8-3.2 4.3-4.3 4.3-11.3 0-15.6-2.1-2-4.8-3.2-7.8-3.2z"/></g><g><path fill="#0F1F2D" d="M132.4 111.6l-5.2-4.7c-.6-.6-.7-1.5-.1-2.1.6-.6 1.5-.7 2.1-.1l3 2.8 8.4-8.4c.6-.6 1.5-.6 2.1 0s.6 1.5 0 2.1l-10.3 10.4z"/></g></svg>