<svg xmlns="http://www.w3.org/2000/svg" xmlns:xlink="http://www.w3.org/1999/xlink" viewBox="0 0 276 137"><defs><path id="a" d="M-210.5-450.3h-1.5v84h108v-84h-106.5zm0 3h105l-1.5-1.5v81l1.5-1.5h-105l1.5 1.5v-81l-1.5 1.5zm-21.5-23h148v124h-148v-124z"/></defs><defs><path id="b" d="M-216.5-433.3h-2.2l.9-2.1 9.1-22 .4-.9h100.9l.4.9 9.1 22 .9 2.1h-119.5zm0-3h117l-1.4 2.1-9.1-22 1.4.9h-98.9l1.4-.9-9.1 22-1.3-2.1zm-22.2 23h161.5v-65h-161.5v65z"/></defs><defs><path id="c" d="M-131.5-466.3h-1.5v19h15v-19h-13.5zm0 3h12l-1.5-1.5v16l1.5-1.5h-12l1.5 1.5v-16l-1.5 1.5zm-21.5-23h55v59h-55v-59z"/></defs><defs><path id="d" d="M-197.5-400.3h-1.5v34h24v-34h-22.5zm0 3h21l-1.5-1.5v31l1.5-1.5h-21l1.5 1.5v-31l-1.5 1.5zm-21.5-23h64v74h-64v-74z"/></defs><defs><path id="e" d="M-196.5-428.3h-1.5v22h22v-22h-20.5zm0 3h19l-1.5-1.5v19l1.5-1.5h-19l1.5 1.5v-19l-1.5 1.5zm-21.5-23h62v62h-62v-62z"/></defs><defs><path id="f" d="M-191.5-423.3h-1.5v12h12v-12h-10.5zm0 3h9l-1.5-1.5v9l1.5-1.5h-9l1.5 1.5v-9l-1.5 1.5zm-21.5-23h52v52h-52v-52z"/></defs><defs><path id="g" d="M-166.5-428.3h-1.5v22h22v-22h-20.5zm0 3h19l-1.5-1.5v19l1.5-1.5h-19l1.5 1.5v-19l-1.5 1.5zm-21.5-23h62v62h-62v-62z"/></defs><defs><path id="h" d="M-137.5-428.3h-1.5v22h22v-22h-20.5zm0 3h19l-1.5-1.5v19l1.5-1.5h-19l1.5 1.5v-19l-1.5 1.5zm-21.5-23h62v62h-62v-62z"/></defs><defs><path id="i" d="M-166.5-400.3h-1.5v22h22v-22h-20.5zm0 3h19l-1.5-1.5v19l1.5-1.5h-19l1.5 1.5v-19l-1.5 1.5zm-21.5-23h62v62h-62v-62z"/></defs><defs><path id="j" d="M-137.5-400.3h-1.5v22h22v-22h-20.5zm0 3h19l-1.5-1.5v19l1.5-1.5h-19l1.5 1.5v-19l-1.5 1.5zm-21.5-23h62v62h-62v-62z"/></defs><defs><path id="k" d="M-161.5-423.3h-1.5v12h12v-12h-10.5zm0 3h9l-1.5-1.5v9l1.5-1.5h-9l1.5 1.5v-9l-1.5 1.5zm-21.5-23h52v52h-52v-52z"/></defs><defs><path id="l" d="M-132.5-423.3h-1.5v12h12v-12h-10.5zm0 3h9l-1.5-1.5v9l1.5-1.5h-9l1.5 1.5v-9l-1.5 1.5zm-21.5-23h52v52h-52v-52z"/></defs><defs><path id="m" d="M-161.5-395.3h-1.5v12h12v-12h-10.5zm0 3h9l-1.5-1.5v9l1.5-1.5h-9l1.5 1.5v-9l-1.5 1.5zm-21.5-23h52v52h-52v-52z"/></defs><defs><path id="n" d="M-132.5-395.3h-1.5v12h12v-12h-10.5zm0 3h9l-1.5-1.5v9l1.5-1.5h-9l1.5 1.5v-9l-1.5 1.5zm-21.5-23h52v52h-52v-52z"/></defs><defs><circle id="o" cx="-163.9" cy="560.5" r="43.5"/></defs><defs><path id="p" d="M-163.9 605.5c-24.8 0-45-20.2-45-45s20.2-45 45-45 45 20.2 45 45-20.1 45-45 45zm0-87c-23.2 0-42 18.8-42 42s18.8 42 42 42 42-18.8 42-42-18.8-42-42-42z"/></defs><use xlink:href="#o" overflow="visible" fill-rule="evenodd" clip-rule="evenodd" fill="#FFF"/><use xlink:href="#p" overflow="visible" fill="#0F1F2D"/><clipPath id="q"><use xlink:href="#o" overflow="visible"/></clipPath><clipPath id="r" clip-path="url(#q)"><use xlink:href="#p" overflow="visible"/></clipPath><g clip-path="url(#r)"><defs><path id="s" d="M-338.4-175.5h1121v1030h-1121z"/></defs><defs><path id="t" d="M784.1 856h-1124V-177h1124V856zm-1121-3h1118V-174h-1118V853z"/></defs><use xlink:href="#s" overflow="visible" fill="#FFF"/><use xlink:href="#t" overflow="visible" fill="#0F1F2D"/></g><circle fill="#FFF" cx="92.9" cy="82.3" r="20.2"/><path fill="#0C1F2E" d="M92.9 104c-12 0-21.7-9.7-21.7-21.7S81 60.6 92.9 60.6s21.7 9.7 21.7 21.7-9.7 21.7-21.7 21.7zm0-40.4c-10.3 0-18.7 8.4-18.7 18.7S82.6 101 92.9 101s18.7-8.4 18.7-18.7-8.4-18.7-18.7-18.7z"/><circle fill="#FFF" cx="92.9" cy="82.3" r="11"/><path fill="#0C1F2E" d="M92.9 94.8c-6.9 0-12.5-5.6-12.5-12.5S86 69.7 92.9 69.7s12.5 5.6 12.5 12.5-5.6 12.6-12.5 12.6zm0-22.1c-5.3 0-9.5 4.3-9.5 9.5s4.3 9.5 9.5 9.5 9.5-4.3 9.5-9.5-4.2-9.5-9.5-9.5z"/><path fill="#FFF" d="M183.2 62.1c-11.2 0-20.2 9-20.2 20.2s9 20.2 20.2 20.2 20.2-9 20.2-20.2-9-20.2-20.2-20.2zm0 31.2c-6.1 0-11-4.9-11-11s4.9-11 11-11 11 4.9 11 11-4.9 11-11 11z"/><path fill="#0C1F2E" d="M183.2 104c-12 0-21.7-9.7-21.7-21.7s9.7-21.7 21.7-21.7 21.7 9.7 21.7 21.7-9.7 21.7-21.7 21.7zm0-40.4c-10.3 0-18.7 8.4-18.7 18.7s8.4 18.7 18.7 18.7 18.7-8.4 18.7-18.7-8.4-18.7-18.7-18.7zm0 31.2c-6.9 0-12.5-5.6-12.5-12.5s5.6-12.5 12.5-12.5 12.5 5.6 12.5 12.5-5.6 12.5-12.5 12.5zm0-22.1c-5.3 0-9.5 4.3-9.5 9.5s4.3 9.5 9.5 9.5c5.3 0 9.5-4.3 9.5-9.5s-4.2-9.5-9.5-9.5z"/><path fill="#0C1F2E" d="M183.2 83.8c-.5 0-1.1-.3-1.3-.8L156 31.4h-11.9c-.8 0-1.5-.7-1.5-1.5s.7-1.5 1.5-1.5h13.8l26.7 53.2c.4.7.1 1.6-.7 2-.2.1-.5.2-.7.2z"/><path fill="#0C1F2E" d="M131.1 83.8H90l22.3-31.6h54.8l.4-.3c.7-.5 1.6-.4 2.1.3s.4 1.6-.3 2.1l-38.2 29.5zm-35.3-3H130l33.3-25.6h-49.5l-18 25.6z"/><path fill="#0C1F2E" d="M130.5 83.8c-.5 0-1-.3-1.3-.7l-24.1-40.8c-.4-.7-.2-1.6.5-2.1.7-.4 1.6-.2 2.1.5l24.1 40.8c.4.7.2 1.6-.5 2.1-.2.1-.5.2-.8.2z"/><path fill="#0C1F2E" d="M120.4 42.9h-19.7c-.8 0-1.5-.7-1.5-1.5s.7-1.5 1.5-1.5h19.7c.8 0 1.5.7 1.5 1.5s-.7 1.5-1.5 1.5z"/><ellipse transform="rotate(-45.001 187.962 38.204)" fill="#FFF" cx="188" cy="38.2" rx="12.5" ry="12.5"/><path fill="#0F1F2D" d="M188 52.2c-3.7 0-7.3-1.5-9.9-4.1-5.5-5.5-5.5-14.4 0-19.8 2.6-2.6 6.2-4.1 9.9-4.1s7.3 1.5 9.9 4.1c5.5 5.5 5.5 14.4 0 19.8-2.7 2.7-6.2 4.1-9.9 4.1zm0-25c-2.9 0-5.7 1.1-7.8 3.2-4.3 4.3-4.3 11.3 0 15.6 2.1 2.1 4.8 3.2 7.8 3.2s5.7-1.1 7.8-3.2c4.3-4.3 4.3-11.3 0-15.6-2.1-2.1-4.9-3.2-7.8-3.2z"/><path fill="#0F1F2D" d="M190.9 31.8c-1.3 0-2.4.7-3 1.8-.6-1.1-1.7-1.8-3-1.8-1.9 0-3.4 1.5-3.4 3.4 0 3.9 6.4 9.6 6.4 9.6s6.4-6.5 6.4-9.6c.1-1.8-1.5-3.4-3.4-3.4z"/><defs><path id="u" d="M71.2 397.4h-1.5v38h142v-25.1l-.4-.4-11.4-12-.4-.5H71.2zm0 3h127.6l-1.1-.5 11.4 12-.4-1v23l1.5-1.5h-139l1.5 1.5v-35l-1.5 1.5zm-21.5-23h182v78h-182v-78z"/></defs><defs><path id="v" d="M104.2 448.9c-8 0-14.5-6.5-14.5-14.5s6.5-14.5 14.5-14.5 14.5 6.5 14.5 14.5-6.4 14.5-14.5 14.5zm0 3c9.7 0 17.5-7.8 17.5-17.5s-7.8-17.5-17.5-17.5-17.5 7.8-17.5 17.5c0 9.6 7.9 17.5 17.5 17.5zm-37.5-55h75v75h-75v-75z"/></defs><defs><path id="w" d="M104.2 441.9c-4.1 0-7.5-3.4-7.5-7.5s3.4-7.5 7.5-7.5 7.5 3.4 7.5 7.5-3.3 7.5-7.5 7.5zm0 3c5.8 0 10.5-4.7 10.5-10.5s-4.7-10.5-10.5-10.5-10.5 4.7-10.5 10.5 4.7 10.5 10.5 10.5zm-30.5-41h61v61h-61v-61z"/></defs><defs><path id="x" d="M170.5 448.9c-8 0-14.5-6.5-14.5-14.5s6.5-14.5 14.5-14.5 14.5 6.5 14.5 14.5-6.5 14.5-14.5 14.5zm0 3c9.7 0 17.5-7.8 17.5-17.5s-7.8-17.5-17.5-17.5-17.5 7.8-17.5 17.5c0 9.6 7.8 17.5 17.5 17.5zm-37.5-55h75v75h-75v-75z"/></defs><defs><path id="y" d="M170.5 441.9c-4.1 0-7.5-3.4-7.5-7.5s3.4-7.5 7.5-7.5 7.5 3.4 7.5 7.5-3.4 7.5-7.5 7.5zm0 3c5.8 0 10.5-4.7 10.5-10.5s-4.7-10.5-10.5-10.5-10.5 4.7-10.5 10.5 4.7 10.5 10.5 10.5zm-30.5-41h61v61h-61v-61z"/></defs><defs><circle id="z" cx="143.3" cy="555.6" r="28"/></defs><defs><path id="A" d="M143.3 585.1c-16.3 0-29.5-13.2-29.5-29.5s13.2-29.5 29.5-29.5 29.5 13.2 29.5 29.5-13.2 29.5-29.5 29.5zm0-55.9c-14.6 0-26.5 11.9-26.5 26.5s11.9 26.5 26.5 26.5 26.5-11.9 26.5-26.5c0-14.7-11.9-26.5-26.5-26.5z"/></defs><use xlink:href="#z" overflow="visible" fill-rule="evenodd" clip-rule="evenodd" fill="#FFF"/><use xlink:href="#A" overflow="visible" fill="#0F1F2D"/><clipPath id="B"><use xlink:href="#z" overflow="visible"/></clipPath><clipPath id="C" clip-path="url(#B)"><use xlink:href="#A" overflow="visible"/></clipPath><g clip-path="url(#C)"><defs><path id="D" d="M31.1 82.2h721.1v662.6H31.1z"/></defs><defs><path id="E" d="M753.7 746.3H29.6V80.7h724.1v665.6zm-721.1-3h718.1V83.7H32.6v659.6z"/></defs><use xlink:href="#D" overflow="visible" fill="#FFF"/><use xlink:href="#E" overflow="visible" fill="#0F1F2D"/></g><defs><path id="F" d="M-204.6 367.1h-1.5v84h108v-84h-106.5zm0 3h105l-1.5-1.5v81l1.5-1.5h-105l1.5 1.5v-81l-1.5 1.5zm-21.5-23h148v124h-148v-124z"/></defs><defs><path id="G" d="M-210.6 384.1h-2.2l.9-2.1 9.1-22 .4-.9h100.9l.4.9 9.1 22 .9 2.1h-119.5zm0-3h117l-1.4 2.1-9.1-22 1.4.9h-98.9l1.4-.9-9.1 22-1.3-2.1zm-22.3 23h161.5v-65h-161.5v65z"/></defs><defs><path id="H" d="M-125.6 351.1h-1.5v19h15v-19h-13.5zm0 3h12l-1.5-1.5v16l1.5-1.5h-12l1.5 1.5v-16l-1.5 1.5zm-21.5-23h55v59h-55v-59z"/></defs><defs><path id="I" d="M-191.6 417.1h-1.5v34h24v-34h-22.5zm0 3h21l-1.5-1.5v31l1.5-1.5h-21l1.5 1.5v-31l-1.5 1.5zm-21.5-23h64v74h-64v-74z"/></defs><defs><path id="J" d="M-190.6 389.1h-1.5v22h22v-22h-20.5zm0 3h19l-1.5-1.5v19l1.5-1.5h-19l1.5 1.5v-19l-1.5 1.5zm-21.5-23h62v62h-62v-62z"/></defs><defs><path id="K" d="M-185.6 394.1h-1.5v12h12v-12h-10.5zm0 3h9l-1.5-1.5v9l1.5-1.5h-9l1.5 1.5v-9l-1.5 1.5zm-21.5-23h52v52h-52v-52z"/></defs><defs><path id="L" d="M-160.6 389.1h-1.5v22h22v-22h-20.5zm0 3h19l-1.5-1.5v19l1.5-1.5h-19l1.5 1.5v-19l-1.5 1.5zm-21.5-23h62v62h-62v-62z"/></defs><defs><path id="M" d="M-131.6 389.1h-1.5v22h22v-22h-20.5zm0 3h19l-1.5-1.5v19l1.5-1.5h-19l1.5 1.5v-19l-1.5 1.5zm-21.5-23h62v62h-62v-62z"/></defs><defs><path id="N" d="M-160.6 417.1h-1.5v22h22v-22h-20.5zm0 3h19l-1.5-1.5v19l1.5-1.5h-19l1.5 1.5v-19l-1.5 1.5zm-21.5-23h62v62h-62v-62z"/></defs><defs><path id="O" d="M-131.6 417.1h-1.5v22h22v-22h-20.5zm0 3h19l-1.5-1.5v19l1.5-1.5h-19l1.5 1.5v-19l-1.5 1.5zm-21.5-23h62v62h-62v-62z"/></defs><defs><path id="P" d="M-155.6 394.1h-1.5v12h12v-12h-10.5zm0 3h9l-1.5-1.5v9l1.5-1.5h-9l1.5 1.5v-9l-1.5 1.5zm-21.5-23h52v52h-52v-52z"/></defs><defs><path id="Q" d="M-126.6 394.1h-1.5v12h12v-12h-10.5zm0 3h9l-1.5-1.5v9l1.5-1.5h-9l1.5 1.5v-9l-1.5 1.5zm-21.5-23h52v52h-52v-52z"/></defs><defs><path id="R" d="M-155.6 422.1h-1.5v12h12v-12h-10.5zm0 3h9l-1.5-1.5v9l1.5-1.5h-9l1.5 1.5v-9l-1.5 1.5zm-21.5-23h52v52h-52v-52z"/></defs><defs><path id="S" d="M-126.6 422.1h-1.5v12h12v-12h-10.5zm0 3h9l-1.5-1.5v9l1.5-1.5h-9l1.5 1.5v-9l-1.5 1.5zm-21.5-23h52v52h-52v-52z"/></defs></svg>