<svg xmlns="http://www.w3.org/2000/svg" xmlns:xlink="http://www.w3.org/1999/xlink" viewBox="0 0 276 137"><defs><circle id="a" cx="-153.9" cy="-257" r="50.5"/></defs><clipPath id="b"><use xlink:href="#a" overflow="visible"/></clipPath><g clip-path="url(#b)"><defs><path id="c" d="M-328.4-993h1121V37h-1121z"/></defs></g><defs><circle id="d" cx="-153.9" cy="-257" r="43.5"/></defs><clipPath id="e"><use xlink:href="#d" overflow="visible"/></clipPath><g clip-path="url(#e)"><defs><path id="f" d="M-328.4-993h1121V37h-1121z"/></defs></g><defs><path id="g" d="M-210.5-450.3h-1.5v84h108v-84h-106.5zm0 3h105l-1.5-1.5v81l1.5-1.5h-105l1.5 1.5v-81l-1.5 1.5zm-21.5-23h148v124h-148v-124z"/></defs><clipPath id="h"><use xlink:href="#g" overflow="visible"/></clipPath><g clip-path="url(#h)"><defs><path id="i" d="M-210.5-448.8h105v81h-105z"/></defs><clipPath id="j"><use xlink:href="#i" overflow="visible"/></clipPath><g clip-path="url(#j)"><defs><path id="k" d="M-1091.5-947.8h1121v1030h-1121z"/></defs></g></g><defs><path id="l" d="M-210.5-448.8h105v81h-105z"/></defs><clipPath id="m"><use xlink:href="#l" overflow="visible"/></clipPath><g clip-path="url(#m)"><defs><path id="n" d="M-1091.5-947.8h1121v1030h-1121z"/></defs></g><defs><path id="o" d="M-216.5-433.3h-2.2l.9-2.1 9.1-22 .4-.9h100.9l.4.9 9.1 22 .9 2.1h-119.5zm0-3h117l-1.4 2.1-9.1-22 1.4.9h-98.9l1.4-.9-9.1 22-1.3-2.1zm-22.2 23h161.5v-65h-161.5v65z"/></defs><clipPath id="p"><use xlink:href="#o" overflow="visible"/></clipPath><g clip-path="url(#p)"><defs><path id="q" d="M-216.5-434.8h117l-9.1-22h-98.8z"/></defs><clipPath id="r"><use xlink:href="#q" overflow="visible"/></clipPath><g clip-path="url(#r)"><defs><path id="s" d="M-1091.5-947.8h1121v1030h-1121z"/></defs></g></g><defs><path id="t" d="M-216.5-434.8h117l-9.1-22h-98.8z"/></defs><clipPath id="u"><use xlink:href="#t" overflow="visible"/></clipPath><g clip-path="url(#u)"><defs><path id="v" d="M-1091.5-947.8h1121v1030h-1121z"/></defs></g><defs><path id="w" d="M-131.5-466.3h-1.5v19h15v-19h-13.5zm0 3h12l-1.5-1.5v16l1.5-1.5h-12l1.5 1.5v-16l-1.5 1.5zm-21.5-23h55v59h-55v-59z"/></defs><clipPath id="x"><use xlink:href="#w" overflow="visible"/></clipPath><g clip-path="url(#x)"><defs><path id="y" d="M-131.5-464.8h12v16h-12z"/></defs><clipPath id="z"><use xlink:href="#y" overflow="visible"/></clipPath><g clip-path="url(#z)"><defs><path id="A" d="M-1091.5-947.8h1121v1030h-1121z"/></defs></g></g><defs><path id="B" d="M-131.5-464.8h12v16h-12z"/></defs><clipPath id="C"><use xlink:href="#B" overflow="visible"/></clipPath><g clip-path="url(#C)"><defs><path id="D" d="M-1091.5-947.8h1121v1030h-1121z"/></defs></g><defs><path id="E" d="M-197.5-400.3h-1.5v34h24v-34h-22.5zm0 3h21l-1.5-1.5v31l1.5-1.5h-21l1.5 1.5v-31l-1.5 1.5zm-21.5-23h64v74h-64v-74z"/></defs><clipPath id="F"><use xlink:href="#E" overflow="visible"/></clipPath><g clip-path="url(#F)"><defs><path id="G" d="M-197.5-398.8h21v31h-21z"/></defs><clipPath id="H"><use xlink:href="#G" overflow="visible"/></clipPath><g clip-path="url(#H)"><defs><path id="I" d="M-1091.5-947.8h1121v1030h-1121z"/></defs></g></g><defs><path id="J" d="M-197.5-398.8h21v31h-21z"/></defs><clipPath id="K"><use xlink:href="#J" overflow="visible"/></clipPath><g clip-path="url(#K)"><defs><path id="L" d="M-1091.5-947.8h1121v1030h-1121z"/></defs></g><defs><path id="M" d="M-196.5-428.3h-1.5v22h22v-22h-20.5zm0 3h19l-1.5-1.5v19l1.5-1.5h-19l1.5 1.5v-19l-1.5 1.5zm-21.5-23h62v62h-62v-62z"/></defs><clipPath id="N"><use xlink:href="#M" overflow="visible"/></clipPath><g clip-path="url(#N)"><defs><path id="O" d="M-196.5-426.8h19v19h-19z"/></defs><clipPath id="P"><use xlink:href="#O" overflow="visible"/></clipPath><g clip-path="url(#P)"><defs><path id="Q" d="M-1091.5-947.8h1121v1030h-1121z"/></defs></g></g><defs><path id="R" d="M-196.5-426.8h19v19h-19z"/></defs><clipPath id="S"><use xlink:href="#R" overflow="visible"/></clipPath><g clip-path="url(#S)"><defs><path id="T" d="M-1091.5-947.8h1121v1030h-1121z"/></defs></g><defs><path id="U" d="M-191.5-423.3h-1.5v12h12v-12h-10.5zm0 3h9l-1.5-1.5v9l1.5-1.5h-9l1.5 1.5v-9l-1.5 1.5zm-21.5-23h52v52h-52v-52z"/></defs><clipPath id="V"><use xlink:href="#U" overflow="visible"/></clipPath><g clip-path="url(#V)"><defs><path id="W" d="M-191.5-421.8h9v9h-9z"/></defs><clipPath id="X"><use xlink:href="#W" overflow="visible"/></clipPath><g clip-path="url(#X)"><defs><path id="Y" d="M-1091.5-947.8h1121v1030h-1121z"/></defs></g></g><defs><path id="Z" d="M-191.5-421.8h9v9h-9z"/></defs><clipPath id="aa"><use xlink:href="#Z" overflow="visible"/></clipPath><g clip-path="url(#aa)"><defs><path id="ab" d="M-1091.5-947.8h1121v1030h-1121z"/></defs></g><defs><path id="ac" d="M-166.5-428.3h-1.5v22h22v-22h-20.5zm0 3h19l-1.5-1.5v19l1.5-1.5h-19l1.5 1.5v-19l-1.5 1.5zm-21.5-23h62v62h-62v-62z"/></defs><clipPath id="ad"><use xlink:href="#ac" overflow="visible"/></clipPath><g clip-path="url(#ad)"><defs><path id="ae" d="M-166.5-426.8h19v19h-19z"/></defs><clipPath id="af"><use xlink:href="#ae" overflow="visible"/></clipPath><g clip-path="url(#af)"><defs><path id="ag" d="M-1091.5-947.8h1121v1030h-1121z"/></defs></g></g><defs><path id="ah" d="M-166.5-426.8h19v19h-19z"/></defs><clipPath id="ai"><use xlink:href="#ah" overflow="visible"/></clipPath><g clip-path="url(#ai)"><defs><path id="aj" d="M-1091.5-947.8h1121v1030h-1121z"/></defs></g><defs><path id="ak" d="M-137.5-428.3h-1.5v22h22v-22h-20.5zm0 3h19l-1.5-1.5v19l1.5-1.5h-19l1.5 1.5v-19l-1.5 1.5zm-21.5-23h62v62h-62v-62z"/></defs><clipPath id="al"><use xlink:href="#ak" overflow="visible"/></clipPath><g clip-path="url(#al)"><defs><path id="am" d="M-137.5-426.8h19v19h-19z"/></defs><clipPath id="an"><use xlink:href="#am" overflow="visible"/></clipPath><g clip-path="url(#an)"><defs><path id="ao" d="M-1091.5-947.8h1121v1030h-1121z"/></defs></g></g><defs><path id="ap" d="M-137.5-426.8h19v19h-19z"/></defs><clipPath id="aq"><use xlink:href="#ap" overflow="visible"/></clipPath><g clip-path="url(#aq)"><defs><path id="ar" d="M-1091.5-947.8h1121v1030h-1121z"/></defs></g><defs><path id="as" d="M-166.5-400.3h-1.5v22h22v-22h-20.5zm0 3h19l-1.5-1.5v19l1.5-1.5h-19l1.5 1.5v-19l-1.5 1.5zm-21.5-23h62v62h-62v-62z"/></defs><clipPath id="at"><use xlink:href="#as" overflow="visible"/></clipPath><g clip-path="url(#at)"><defs><path id="au" d="M-166.5-398.8h19v19h-19z"/></defs><clipPath id="av"><use xlink:href="#au" overflow="visible"/></clipPath><g clip-path="url(#av)"><defs><path id="aw" d="M-1091.5-947.8h1121v1030h-1121z"/></defs></g></g><defs><path id="ax" d="M-166.5-398.8h19v19h-19z"/></defs><clipPath id="ay"><use xlink:href="#ax" overflow="visible"/></clipPath><g clip-path="url(#ay)"><defs><path id="az" d="M-1091.5-947.8h1121v1030h-1121z"/></defs></g><defs><path id="aA" d="M-137.5-400.3h-1.5v22h22v-22h-20.5zm0 3h19l-1.5-1.5v19l1.5-1.5h-19l1.5 1.5v-19l-1.5 1.5zm-21.5-23h62v62h-62v-62z"/></defs><clipPath id="aB"><use xlink:href="#aA" overflow="visible"/></clipPath><g clip-path="url(#aB)"><defs><path id="aC" d="M-137.5-398.8h19v19h-19z"/></defs><clipPath id="aD"><use xlink:href="#aC" overflow="visible"/></clipPath><g clip-path="url(#aD)"><defs><path id="aE" d="M-1091.5-947.8h1121v1030h-1121z"/></defs></g></g><defs><path id="aF" d="M-137.5-398.8h19v19h-19z"/></defs><clipPath id="aG"><use xlink:href="#aF" overflow="visible"/></clipPath><g clip-path="url(#aG)"><defs><path id="aH" d="M-1091.5-947.8h1121v1030h-1121z"/></defs></g><defs><path id="aI" d="M-161.5-423.3h-1.5v12h12v-12h-10.5zm0 3h9l-1.5-1.5v9l1.5-1.5h-9l1.5 1.5v-9l-1.5 1.5zm-21.5-23h52v52h-52v-52z"/></defs><clipPath id="aJ"><use xlink:href="#aI" overflow="visible"/></clipPath><g clip-path="url(#aJ)"><defs><path id="aK" d="M-161.5-421.8h9v9h-9z"/></defs><clipPath id="aL"><use xlink:href="#aK" overflow="visible"/></clipPath><g clip-path="url(#aL)"><defs><path id="aM" d="M-1091.5-947.8h1121v1030h-1121z"/></defs></g></g><defs><path id="aN" d="M-161.5-421.8h9v9h-9z"/></defs><clipPath id="aO"><use xlink:href="#aN" overflow="visible"/></clipPath><g clip-path="url(#aO)"><defs><path id="aP" d="M-1091.5-947.8h1121v1030h-1121z"/></defs></g><defs><path id="aQ" d="M-132.5-423.3h-1.5v12h12v-12h-10.5zm0 3h9l-1.5-1.5v9l1.5-1.5h-9l1.5 1.5v-9l-1.5 1.5zm-21.5-23h52v52h-52v-52z"/></defs><clipPath id="aR"><use xlink:href="#aQ" overflow="visible"/></clipPath><g clip-path="url(#aR)"><defs><path id="aS" d="M-132.5-421.8h9v9h-9z"/></defs><clipPath id="aT"><use xlink:href="#aS" overflow="visible"/></clipPath><g clip-path="url(#aT)"><defs><path id="aU" d="M-1091.5-947.8h1121v1030h-1121z"/></defs></g></g><defs><path id="aV" d="M-132.5-421.8h9v9h-9z"/></defs><clipPath id="aW"><use xlink:href="#aV" overflow="visible"/></clipPath><g clip-path="url(#aW)"><defs><path id="aX" d="M-1091.5-947.8h1121v1030h-1121z"/></defs></g><defs><path id="aY" d="M-161.5-395.3h-1.5v12h12v-12h-10.5zm0 3h9l-1.5-1.5v9l1.5-1.5h-9l1.5 1.5v-9l-1.5 1.5zm-21.5-23h52v52h-52v-52z"/></defs><clipPath id="aZ"><use xlink:href="#aY" overflow="visible"/></clipPath><g clip-path="url(#aZ)"><defs><path id="ba" d="M-161.5-393.8h9v9h-9z"/></defs><clipPath id="bb"><use xlink:href="#ba" overflow="visible"/></clipPath><g clip-path="url(#bb)"><defs><path id="bc" d="M-1091.5-947.8h1121v1030h-1121z"/></defs></g></g><g><defs><path id="bd" d="M-161.5-393.8h9v9h-9z"/></defs><clipPath id="be"><use xlink:href="#bd" overflow="visible"/></clipPath><g clip-path="url(#be)"><defs><path id="bf" d="M-1091.5-947.8h1121v1030h-1121z"/></defs></g></g><g><defs><path id="bg" d="M-132.5-395.3h-1.5v12h12v-12h-10.5zm0 3h9l-1.5-1.5v9l1.5-1.5h-9l1.5 1.5v-9l-1.5 1.5zm-21.5-23h52v52h-52v-52z"/></defs><clipPath id="bh"><use xlink:href="#bg" overflow="visible"/></clipPath><g clip-path="url(#bh)"><defs><path id="bi" d="M-132.5-393.8h9v9h-9z"/></defs><clipPath id="bj"><use xlink:href="#bi" overflow="visible"/></clipPath><g clip-path="url(#bj)"><defs><path id="bk" d="M-1091.5-947.8h1121v1030h-1121z"/></defs></g></g></g><g><defs><path id="bl" d="M-132.5-393.8h9v9h-9z"/></defs><clipPath id="bm"><use xlink:href="#bl" overflow="visible"/></clipPath><g clip-path="url(#bm)"><defs><path id="bn" d="M-1091.5-947.8h1121v1030h-1121z"/></defs></g></g><g><defs><circle id="bo" cx="-163.9" cy="560.5" r="43.5"/></defs><defs><path id="bp" d="M-163.9 605.5c-24.8 0-45-20.2-45-45s20.2-45 45-45 45 20.2 45 45-20.1 45-45 45zm0-87c-23.2 0-42 18.8-42 42s18.8 42 42 42 42-18.8 42-42-18.8-42-42-42z"/></defs><use xlink:href="#bo" overflow="visible" fill-rule="evenodd" clip-rule="evenodd" fill="#FFF"/><use xlink:href="#bp" overflow="visible" fill="#0F1F2D"/><clipPath id="bq"><use xlink:href="#bo" overflow="visible"/></clipPath><clipPath id="br" clip-path="url(#bq)"><use xlink:href="#bp" overflow="visible"/></clipPath><g clip-path="url(#br)"><defs><path id="bs" d="M-338.4-175.5h1121v1030h-1121z"/></defs><defs><path id="bt" d="M784.1 856h-1124V-177h1124V856zm-1121-3h1118V-174h-1118V853z"/></defs><use xlink:href="#bs" overflow="visible" fill="#FFF"/><use xlink:href="#bt" overflow="visible" fill="#0F1F2D"/><clipPath id="bu"><use xlink:href="#bs" overflow="visible"/></clipPath></g></g><g><circle fill="#FFF" cx="92.9" cy="82.3" r="20.2"/><path fill="#0C1F2E" d="M92.9 104c-12 0-21.7-9.7-21.7-21.7S81 60.6 92.9 60.6s21.7 9.7 21.7 21.7-9.7 21.7-21.7 21.7zm0-40.4c-10.3 0-18.7 8.4-18.7 18.7S82.6 101 92.9 101s18.7-8.4 18.7-18.7-8.4-18.7-18.7-18.7z"/></g><g><circle fill="#FFF" cx="92.9" cy="82.3" r="11"/><path fill="#0C1F2E" d="M92.9 94.8c-6.9 0-12.5-5.6-12.5-12.5S86 69.7 92.9 69.7s12.5 5.6 12.5 12.5-5.6 12.6-12.5 12.6zm0-22.1c-5.3 0-9.5 4.3-9.5 9.5s4.3 9.5 9.5 9.5 9.5-4.3 9.5-9.5-4.2-9.5-9.5-9.5z"/></g><g><path fill="#FFF" d="M183.2 62.1c-11.2 0-20.2 9-20.2 20.2s9 20.2 20.2 20.2 20.2-9 20.2-20.2-9-20.2-20.2-20.2zm0 31.2c-6.1 0-11-4.9-11-11s4.9-11 11-11 11 4.9 11 11-4.9 11-11 11z"/><path fill="#0C1F2E" d="M183.2 104c-12 0-21.7-9.7-21.7-21.7s9.7-21.7 21.7-21.7 21.7 9.7 21.7 21.7-9.7 21.7-21.7 21.7zm0-40.4c-10.3 0-18.7 8.4-18.7 18.7s8.4 18.7 18.7 18.7 18.7-8.4 18.7-18.7-8.4-18.7-18.7-18.7zm0 31.2c-6.9 0-12.5-5.6-12.5-12.5s5.6-12.5 12.5-12.5 12.5 5.6 12.5 12.5-5.6 12.5-12.5 12.5zm0-22.1c-5.3 0-9.5 4.3-9.5 9.5s4.3 9.5 9.5 9.5c5.3 0 9.5-4.3 9.5-9.5s-4.2-9.5-9.5-9.5z"/></g><g><path fill="#0C1F2E" d="M183.2 83.8c-.5 0-1.1-.3-1.3-.8L156 31.4h-11.9c-.8 0-1.5-.7-1.5-1.5s.7-1.5 1.5-1.5h13.8l26.7 53.2c.4.7.1 1.6-.7 2-.2.1-.5.2-.7.2z"/></g><g><path fill="#0C1F2E" d="M131.1 83.8H90l22.3-31.6h54.8l.4-.3c.7-.5 1.6-.4 2.1.3s.4 1.6-.3 2.1l-38.2 29.5zm-35.3-3H130l33.3-25.6h-49.5l-18 25.6z"/></g><g><path fill="#0C1F2E" d="M130.5 83.8c-.5 0-1-.3-1.3-.7l-24.1-40.8c-.4-.7-.2-1.6.5-2.1.7-.4 1.6-.2 2.1.5l24.1 40.8c.4.7.2 1.6-.5 2.1-.2.1-.5.2-.8.2z"/></g><g><path fill="#0C1F2E" d="M120.4 42.9h-19.7c-.8 0-1.5-.7-1.5-1.5s.7-1.5 1.5-1.5h19.7c.8 0 1.5.7 1.5 1.5s-.7 1.5-1.5 1.5z"/></g><g><ellipse transform="rotate(-45.001 187.962 38.204)" fill="#FFF" cx="188" cy="38.2" rx="12.5" ry="12.5"/><path fill="#0F1F2D" d="M188 52.2c-3.7 0-7.3-1.5-9.9-4.1-5.5-5.5-5.5-14.4 0-19.8 2.6-2.6 6.2-4.1 9.9-4.1s7.3 1.5 9.9 4.1c5.5 5.5 5.5 14.4 0 19.8-2.7 2.7-6.2 4.1-9.9 4.1zm0-25c-2.9 0-5.7 1.1-7.8 3.2-4.3 4.3-4.3 11.3 0 15.6 2.1 2.1 4.8 3.2 7.8 3.2s5.7-1.1 7.8-3.2c4.3-4.3 4.3-11.3 0-15.6-2.1-2.1-4.9-3.2-7.8-3.2z"/></g><g><path fill="#0F1F2D" d="M190.9 31.8c-1.3 0-2.4.7-3 1.8-.6-1.1-1.7-1.8-3-1.8-1.9 0-3.4 1.5-3.4 3.4 0 3.9 6.4 9.6 6.4 9.6s6.4-6.5 6.4-9.6c.1-1.8-1.5-3.4-3.4-3.4z"/></g><g><defs><path id="bv" d="M71.2 397.4h-1.5v38h142v-25.1l-.4-.4-11.4-12-.4-.5H71.2zm0 3h127.6l-1.1-.5 11.4 12-.4-1v23l1.5-1.5h-139l1.5 1.5v-35l-1.5 1.5zm-21.5-23h182v78h-182v-78z"/></defs><clipPath id="bw"><use xlink:href="#bv" overflow="visible"/></clipPath><g clip-path="url(#bw)"><defs><path id="bx" d="M71.2 398.9h127.6l11.4 12v23h-139z"/></defs><clipPath id="by"><use xlink:href="#bx" overflow="visible"/></clipPath><g clip-path="url(#by)"><defs><path id="bz" d="M-300.8-136.1h1121v1030h-1121z"/></defs></g></g></g><g><defs><path id="bA" d="M71.2 398.9h127.6l11.4 12v23h-139z"/></defs><clipPath id="bB"><use xlink:href="#bA" overflow="visible"/></clipPath><g clip-path="url(#bB)"><defs><path id="bC" d="M-300.8-136.1h1121v1030h-1121z"/></defs></g></g><g><defs><path id="bD" d="M104.2 448.9c-8 0-14.5-6.5-14.5-14.5s6.5-14.5 14.5-14.5 14.5 6.5 14.5 14.5-6.4 14.5-14.5 14.5zm0 3c9.7 0 17.5-7.8 17.5-17.5s-7.8-17.5-17.5-17.5-17.5 7.8-17.5 17.5c0 9.6 7.9 17.5 17.5 17.5zm-37.5-55h75v75h-75v-75z"/></defs><clipPath id="bE"><use xlink:href="#bD" overflow="visible"/></clipPath><g clip-path="url(#bE)"><defs><circle id="bF" cx="104.2" cy="434.4" r="16"/></defs><clipPath id="bG"><use xlink:href="#bF" overflow="visible"/></clipPath><g clip-path="url(#bG)"><defs><path id="bH" d="M-300.8-136.1h1121v1030h-1121z"/></defs></g></g></g><g><defs><circle id="bI" cx="104.2" cy="434.4" r="16"/></defs><clipPath id="bJ"><use xlink:href="#bI" overflow="visible"/></clipPath><g clip-path="url(#bJ)"><defs><path id="bK" d="M-300.8-136.1h1121v1030h-1121z"/></defs></g></g><g><defs><path id="bL" d="M104.2 441.9c-4.1 0-7.5-3.4-7.5-7.5s3.4-7.5 7.5-7.5 7.5 3.4 7.5 7.5-3.3 7.5-7.5 7.5zm0 3c5.8 0 10.5-4.7 10.5-10.5s-4.7-10.5-10.5-10.5-10.5 4.7-10.5 10.5 4.7 10.5 10.5 10.5zm-30.5-41h61v61h-61v-61z"/></defs><clipPath id="bM"><use xlink:href="#bL" overflow="visible"/></clipPath><g clip-path="url(#bM)"><defs><circle id="bN" cx="104.2" cy="434.4" r="9"/></defs><clipPath id="bO"><use xlink:href="#bN" overflow="visible"/></clipPath><g clip-path="url(#bO)"><defs><path id="bP" d="M-300.8-136.1h1121v1030h-1121z"/></defs></g></g></g><g><defs><circle id="bQ" cx="104.2" cy="434.4" r="9"/></defs><clipPath id="bR"><use xlink:href="#bQ" overflow="visible"/></clipPath><g clip-path="url(#bR)"><defs><path id="bS" d="M-300.8-136.1h1121v1030h-1121z"/></defs></g></g><g><defs><path id="bT" d="M170.5 448.9c-8 0-14.5-6.5-14.5-14.5s6.5-14.5 14.5-14.5 14.5 6.5 14.5 14.5-6.5 14.5-14.5 14.5zm0 3c9.7 0 17.5-7.8 17.5-17.5s-7.8-17.5-17.5-17.5-17.5 7.8-17.5 17.5c0 9.6 7.8 17.5 17.5 17.5zm-37.5-55h75v75h-75v-75z"/></defs><clipPath id="bU"><use xlink:href="#bT" overflow="visible"/></clipPath><g clip-path="url(#bU)"><defs><circle id="bV" cx="170.5" cy="434.4" r="16"/></defs><clipPath id="bW"><use xlink:href="#bV" overflow="visible"/></clipPath><g clip-path="url(#bW)"><defs><path id="bX" d="M-300.8-136.1h1121v1030h-1121z"/></defs></g></g></g><g><defs><circle id="bY" cx="170.5" cy="434.4" r="16"/></defs><clipPath id="bZ"><use xlink:href="#bY" overflow="visible"/></clipPath><g clip-path="url(#bZ)"><defs><path id="ca" d="M-300.8-136.1h1121v1030h-1121z"/></defs></g></g><g><defs><path id="cb" d="M170.7 394l-7.7-15.6h-27.2V394h34.9zm-75.2 0l7.4-15.6h27.2V394H95.5zm-10.3 5.4l14.1-26.9h66.8l15.3 27.9-96.2-1z"/></defs><clipPath id="cc"><use xlink:href="#cb" overflow="visible"/></clipPath><g clip-path="url(#cc)"><defs><path id="cd" d="M-300.8-136.1h1121v1030h-1121z"/></defs></g></g><g><defs><path id="ce" d="M170.5 441.9c-4.1 0-7.5-3.4-7.5-7.5s3.4-7.5 7.5-7.5 7.5 3.4 7.5 7.5-3.4 7.5-7.5 7.5zm0 3c5.8 0 10.5-4.7 10.5-10.5s-4.7-10.5-10.5-10.5-10.5 4.7-10.5 10.5 4.7 10.5 10.5 10.5zm-30.5-41h61v61h-61v-61z"/></defs><clipPath id="cf"><use xlink:href="#ce" overflow="visible"/></clipPath><g clip-path="url(#cf)"><defs><circle id="cg" cx="170.5" cy="434.4" r="9"/></defs><clipPath id="ch"><use xlink:href="#cg" overflow="visible"/></clipPath><g clip-path="url(#ch)"><defs><path id="ci" d="M-300.8-136.1h1121v1030h-1121z"/></defs></g></g></g><g><defs><circle id="cj" cx="170.5" cy="434.4" r="9"/></defs><clipPath id="ck"><use xlink:href="#cj" overflow="visible"/></clipPath><g clip-path="url(#ck)"><defs><path id="cl" d="M-300.8-136.1h1121v1030h-1121z"/></defs></g></g><g><defs><circle id="cm" cx="143.3" cy="555.6" r="28"/></defs><defs><path id="cn" d="M143.3 585.1c-16.3 0-29.5-13.2-29.5-29.5s13.2-29.5 29.5-29.5 29.5 13.2 29.5 29.5-13.2 29.5-29.5 29.5zm0-55.9c-14.6 0-26.5 11.9-26.5 26.5s11.9 26.5 26.5 26.5 26.5-11.9 26.5-26.5c0-14.7-11.9-26.5-26.5-26.5z"/></defs><use xlink:href="#cm" overflow="visible" fill-rule="evenodd" clip-rule="evenodd" fill="#FFF"/><use xlink:href="#cn" overflow="visible" fill="#0F1F2D"/><clipPath id="co"><use xlink:href="#cm" overflow="visible"/></clipPath><clipPath id="cp" clip-path="url(#co)"><use xlink:href="#cn" overflow="visible"/></clipPath><g clip-path="url(#cp)"><defs><path id="cq" d="M31.1 82.2h721.1v662.6H31.1z"/></defs><defs><path id="cr" d="M753.7 746.3H29.6V80.7h724.1v665.6zm-721.1-3h718.1V83.7H32.6v659.6z"/></defs><use xlink:href="#cq" overflow="visible" fill="#FFF"/><use xlink:href="#cr" overflow="visible" fill="#0F1F2D"/><clipPath id="cs"><use xlink:href="#cq" overflow="visible"/></clipPath></g></g><g><defs><path id="ct" d="M-204.6 367.1h-1.5v84h108v-84h-106.5zm0 3h105l-1.5-1.5v81l1.5-1.5h-105l1.5 1.5v-81l-1.5 1.5zm-21.5-23h148v124h-148v-124z"/></defs><clipPath id="cu"><use xlink:href="#ct" overflow="visible"/></clipPath><g clip-path="url(#cu)"><defs><path id="cv" d="M-204.6 368.6h105v81h-105z"/></defs><clipPath id="cw"><use xlink:href="#cv" overflow="visible"/></clipPath><g clip-path="url(#cw)"><defs><path id="cx" d="M-1085.6-130.4h1121v1030h-1121z"/></defs></g></g></g><g><defs><path id="cy" d="M-204.6 368.6h105v81h-105z"/></defs><clipPath id="cz"><use xlink:href="#cy" overflow="visible"/></clipPath><g clip-path="url(#cz)"><defs><path id="cA" d="M-1085.6-130.4h1121v1030h-1121z"/></defs></g></g><g><defs><path id="cB" d="M-210.6 384.1h-2.2l.9-2.1 9.1-22 .4-.9h100.9l.4.9 9.1 22 .9 2.1h-119.5zm0-3h117l-1.4 2.1-9.1-22 1.4.9h-98.9l1.4-.9-9.1 22-1.3-2.1zm-22.3 23h161.5v-65h-161.5v65z"/></defs><clipPath id="cC"><use xlink:href="#cB" overflow="visible"/></clipPath><g clip-path="url(#cC)"><defs><path id="cD" d="M-210.6 382.6h117l-9.1-22h-98.8z"/></defs><clipPath id="cE"><use xlink:href="#cD" overflow="visible"/></clipPath><g clip-path="url(#cE)"><defs><path id="cF" d="M-1085.6-130.4h1121v1030h-1121z"/></defs></g></g></g><g><defs><path id="cG" d="M-210.6 382.6h117l-9.1-22h-98.8z"/></defs><clipPath id="cH"><use xlink:href="#cG" overflow="visible"/></clipPath><g clip-path="url(#cH)"><defs><path id="cI" d="M-1085.6-130.4h1121v1030h-1121z"/></defs></g></g><g><defs><path id="cJ" d="M-125.6 351.1h-1.5v19h15v-19h-13.5zm0 3h12l-1.5-1.5v16l1.5-1.5h-12l1.5 1.5v-16l-1.5 1.5zm-21.5-23h55v59h-55v-59z"/></defs><clipPath id="cK"><use xlink:href="#cJ" overflow="visible"/></clipPath><g clip-path="url(#cK)"><defs><path id="cL" d="M-125.6 352.6h12v16h-12z"/></defs><clipPath id="cM"><use xlink:href="#cL" overflow="visible"/></clipPath><g clip-path="url(#cM)"><defs><path id="cN" d="M-1085.6-130.4h1121v1030h-1121z"/></defs></g></g></g><g><defs><path id="cO" d="M-125.6 352.6h12v16h-12z"/></defs><clipPath id="cP"><use xlink:href="#cO" overflow="visible"/></clipPath><g clip-path="url(#cP)"><defs><path id="cQ" d="M-1085.6-130.4h1121v1030h-1121z"/></defs></g></g><g><defs><path id="cR" d="M-191.6 417.1h-1.5v34h24v-34h-22.5zm0 3h21l-1.5-1.5v31l1.5-1.5h-21l1.5 1.5v-31l-1.5 1.5zm-21.5-23h64v74h-64v-74z"/></defs><clipPath id="cS"><use xlink:href="#cR" overflow="visible"/></clipPath><g clip-path="url(#cS)"><defs><path id="cT" d="M-191.6 418.6h21v31h-21z"/></defs><clipPath id="cU"><use xlink:href="#cT" overflow="visible"/></clipPath><g clip-path="url(#cU)"><defs><path id="cV" d="M-1085.6-130.4h1121v1030h-1121z"/></defs></g></g></g><g><defs><path id="cW" d="M-191.6 418.6h21v31h-21z"/></defs><clipPath id="cX"><use xlink:href="#cW" overflow="visible"/></clipPath><g clip-path="url(#cX)"><defs><path id="cY" d="M-1085.6-130.4h1121v1030h-1121z"/></defs></g></g><g><defs><path id="cZ" d="M-190.6 389.1h-1.5v22h22v-22h-20.5zm0 3h19l-1.5-1.5v19l1.5-1.5h-19l1.5 1.5v-19l-1.5 1.5zm-21.5-23h62v62h-62v-62z"/></defs><clipPath id="da"><use xlink:href="#cZ" overflow="visible"/></clipPath><g clip-path="url(#da)"><defs><path id="db" d="M-190.6 390.6h19v19h-19z"/></defs><clipPath id="dc"><use xlink:href="#db" overflow="visible"/></clipPath><g clip-path="url(#dc)"><defs><path id="dd" d="M-1085.6-130.4h1121v1030h-1121z"/></defs></g></g></g><g><defs><path id="de" d="M-190.6 390.6h19v19h-19z"/></defs><clipPath id="df"><use xlink:href="#de" overflow="visible"/></clipPath><g clip-path="url(#df)"><defs><path id="dg" d="M-1085.6-130.4h1121v1030h-1121z"/></defs></g></g><g><defs><path id="dh" d="M-185.6 394.1h-1.5v12h12v-12h-10.5zm0 3h9l-1.5-1.5v9l1.5-1.5h-9l1.5 1.5v-9l-1.5 1.5zm-21.5-23h52v52h-52v-52z"/></defs><clipPath id="di"><use xlink:href="#dh" overflow="visible"/></clipPath><g clip-path="url(#di)"><defs><path id="dj" d="M-185.6 395.6h9v9h-9z"/></defs><clipPath id="dk"><use xlink:href="#dj" overflow="visible"/></clipPath><g clip-path="url(#dk)"><defs><path id="dl" d="M-1085.6-130.4h1121v1030h-1121z"/></defs></g></g></g><g><defs><path id="dm" d="M-185.6 395.6h9v9h-9z"/></defs><clipPath id="dn"><use xlink:href="#dm" overflow="visible"/></clipPath><g clip-path="url(#dn)"><defs><path id="do" d="M-1085.6-130.4h1121v1030h-1121z"/></defs></g></g><g><defs><path id="dp" d="M-160.6 389.1h-1.5v22h22v-22h-20.5zm0 3h19l-1.5-1.5v19l1.5-1.5h-19l1.5 1.5v-19l-1.5 1.5zm-21.5-23h62v62h-62v-62z"/></defs><clipPath id="dq"><use xlink:href="#dp" overflow="visible"/></clipPath><g clip-path="url(#dq)"><defs><path id="dr" d="M-160.6 390.6h19v19h-19z"/></defs><clipPath id="ds"><use xlink:href="#dr" overflow="visible"/></clipPath><g clip-path="url(#ds)"><defs><path id="dt" d="M-1085.6-130.4h1121v1030h-1121z"/></defs></g></g></g><g><defs><path id="du" d="M-160.6 390.6h19v19h-19z"/></defs><clipPath id="dv"><use xlink:href="#du" overflow="visible"/></clipPath><g clip-path="url(#dv)"><defs><path id="dw" d="M-1085.6-130.4h1121v1030h-1121z"/></defs></g></g><g><defs><path id="dx" d="M-131.6 389.1h-1.5v22h22v-22h-20.5zm0 3h19l-1.5-1.5v19l1.5-1.5h-19l1.5 1.5v-19l-1.5 1.5zm-21.5-23h62v62h-62v-62z"/></defs><clipPath id="dy"><use xlink:href="#dx" overflow="visible"/></clipPath><g clip-path="url(#dy)"><defs><path id="dz" d="M-131.6 390.6h19v19h-19z"/></defs><clipPath id="dA"><use xlink:href="#dz" overflow="visible"/></clipPath><g clip-path="url(#dA)"><defs><path id="dB" d="M-1085.6-130.4h1121v1030h-1121z"/></defs></g></g></g><g><defs><path id="dC" d="M-131.6 390.6h19v19h-19z"/></defs><clipPath id="dD"><use xlink:href="#dC" overflow="visible"/></clipPath><g clip-path="url(#dD)"><defs><path id="dE" d="M-1085.6-130.4h1121v1030h-1121z"/></defs></g></g><g><defs><path id="dF" d="M-160.6 417.1h-1.5v22h22v-22h-20.5zm0 3h19l-1.5-1.5v19l1.5-1.5h-19l1.5 1.5v-19l-1.5 1.5zm-21.5-23h62v62h-62v-62z"/></defs><clipPath id="dG"><use xlink:href="#dF" overflow="visible"/></clipPath><g clip-path="url(#dG)"><defs><path id="dH" d="M-160.6 418.6h19v19h-19z"/></defs><clipPath id="dI"><use xlink:href="#dH" overflow="visible"/></clipPath><g clip-path="url(#dI)"><defs><path id="dJ" d="M-1085.6-130.4h1121v1030h-1121z"/></defs></g></g></g><g><defs><path id="dK" d="M-160.6 418.6h19v19h-19z"/></defs><clipPath id="dL"><use xlink:href="#dK" overflow="visible"/></clipPath><g clip-path="url(#dL)"><defs><path id="dM" d="M-1085.6-130.4h1121v1030h-1121z"/></defs></g></g><g><defs><path id="dN" d="M-131.6 417.1h-1.5v22h22v-22h-20.5zm0 3h19l-1.5-1.5v19l1.5-1.5h-19l1.5 1.5v-19l-1.5 1.5zm-21.5-23h62v62h-62v-62z"/></defs><clipPath id="dO"><use xlink:href="#dN" overflow="visible"/></clipPath><g clip-path="url(#dO)"><defs><path id="dP" d="M-131.6 418.6h19v19h-19z"/></defs><clipPath id="dQ"><use xlink:href="#dP" overflow="visible"/></clipPath><g clip-path="url(#dQ)"><defs><path id="dR" d="M-1085.6-130.4h1121v1030h-1121z"/></defs></g></g></g><g><defs><path id="dS" d="M-131.6 418.6h19v19h-19z"/></defs><clipPath id="dT"><use xlink:href="#dS" overflow="visible"/></clipPath><g clip-path="url(#dT)"><defs><path id="dU" d="M-1085.6-130.4h1121v1030h-1121z"/></defs></g></g><g><defs><path id="dV" d="M-155.6 394.1h-1.5v12h12v-12h-10.5zm0 3h9l-1.5-1.5v9l1.5-1.5h-9l1.5 1.5v-9l-1.5 1.5zm-21.5-23h52v52h-52v-52z"/></defs><clipPath id="dW"><use xlink:href="#dV" overflow="visible"/></clipPath><g clip-path="url(#dW)"><defs><path id="dX" d="M-155.6 395.6h9v9h-9z"/></defs><clipPath id="dY"><use xlink:href="#dX" overflow="visible"/></clipPath><g clip-path="url(#dY)"><defs><path id="dZ" d="M-1085.6-130.4h1121v1030h-1121z"/></defs></g></g></g><g><defs><path id="ea" d="M-155.6 395.6h9v9h-9z"/></defs><clipPath id="eb"><use xlink:href="#ea" overflow="visible"/></clipPath><g clip-path="url(#eb)"><defs><path id="ec" d="M-1085.6-130.4h1121v1030h-1121z"/></defs></g></g><g><defs><path id="ed" d="M-126.6 394.1h-1.5v12h12v-12h-10.5zm0 3h9l-1.5-1.5v9l1.5-1.5h-9l1.5 1.5v-9l-1.5 1.5zm-21.5-23h52v52h-52v-52z"/></defs><clipPath id="ee"><use xlink:href="#ed" overflow="visible"/></clipPath><g clip-path="url(#ee)"><defs><path id="ef" d="M-126.6 395.6h9v9h-9z"/></defs><clipPath id="eg"><use xlink:href="#ef" overflow="visible"/></clipPath><g clip-path="url(#eg)"><defs><path id="eh" d="M-1085.6-130.4h1121v1030h-1121z"/></defs></g></g></g><g><defs><path id="ei" d="M-126.6 395.6h9v9h-9z"/></defs><clipPath id="ej"><use xlink:href="#ei" overflow="visible"/></clipPath><g clip-path="url(#ej)"><defs><path id="ek" d="M-1085.6-130.4h1121v1030h-1121z"/></defs></g></g><g><defs><path id="el" d="M-155.6 422.1h-1.5v12h12v-12h-10.5zm0 3h9l-1.5-1.5v9l1.5-1.5h-9l1.5 1.5v-9l-1.5 1.5zm-21.5-23h52v52h-52v-52z"/></defs><clipPath id="em"><use xlink:href="#el" overflow="visible"/></clipPath><g clip-path="url(#em)"><defs><path id="en" d="M-155.6 423.6h9v9h-9z"/></defs><clipPath id="eo"><use xlink:href="#en" overflow="visible"/></clipPath><g clip-path="url(#eo)"><defs><path id="ep" d="M-1085.6-130.4h1121v1030h-1121z"/></defs></g></g></g><g><defs><path id="eq" d="M-155.6 423.6h9v9h-9z"/></defs><clipPath id="er"><use xlink:href="#eq" overflow="visible"/></clipPath><g clip-path="url(#er)"><defs><path id="es" d="M-1085.6-130.4h1121v1030h-1121z"/></defs></g></g><g><defs><path id="et" d="M-126.6 422.1h-1.5v12h12v-12h-10.5zm0 3h9l-1.5-1.5v9l1.5-1.5h-9l1.5 1.5v-9l-1.5 1.5zm-21.5-23h52v52h-52v-52z"/></defs><clipPath id="eu"><use xlink:href="#et" overflow="visible"/></clipPath><g clip-path="url(#eu)"><defs><path id="ev" d="M-126.6 423.6h9v9h-9z"/></defs><clipPath id="ew"><use xlink:href="#ev" overflow="visible"/></clipPath><g clip-path="url(#ew)"><defs><path id="ex" d="M-1085.6-130.4h1121v1030h-1121z"/></defs></g></g></g><g><defs><path id="ey" d="M-126.6 423.6h9v9h-9z"/></defs><clipPath id="ez"><use xlink:href="#ey" overflow="visible"/></clipPath><g clip-path="url(#ez)"><defs><path id="eA" d="M-1085.6-130.4h1121v1030h-1121z"/></defs></g></g></svg>