<svg xmlns="http://www.w3.org/2000/svg" xmlns:xlink="http://www.w3.org/1999/xlink" viewBox="0 0 276 137"><defs><path id="a" d="M70.5-309.5H69v90h134v-90H70.5zm0 3h131L200-308v87l1.5-1.5h-131L72-221v-87l-1.5 1.5zm-21.5-23h174v130H49v-130z"/></defs><clipPath id="b"><use xlink:href="#a" overflow="visible"/></clipPath><g clip-path="url(#b)"><defs><path id="c" d="M70.5-308h131v87h-131z"/></defs></g><defs><path id="d" d="M70.5-308h131v87h-131z"/></defs><defs><path id="e" d="M75.5-304.5H74v80h124v-80H75.5zm0 3h121L195-303v77l1.5-1.5h-121L77-226v-77l-1.5 1.5zm-21.5-23h164v120H54v-120z"/></defs><clipPath id="f"><use xlink:href="#e" overflow="visible"/></clipPath><g clip-path="url(#f)"><defs><path id="g" d="M75.5-303h121v77h-121z"/></defs></g><defs><path id="h" d="M75.5-303h121v77h-121z"/></defs><defs><path id="i" d="M140.5-289.5H139v6h47v-6h-45.5zm0 3h44L183-288v3l1.5-1.5h-44l1.5 1.5v-3l-1.5 1.5zm-21.5-23h87v46h-87v-46z"/></defs><clipPath id="j"><use xlink:href="#i" overflow="visible"/></clipPath><g clip-path="url(#j)"><defs><path id="k" d="M140.5-288h44v3h-44z"/></defs></g><defs><path id="l" d="M140.5-288h44v3h-44z"/></defs><defs><path id="m" d="M140.5-283.5H139v6h47v-6h-45.5zm0 3h44L183-282v3l1.5-1.5h-44l1.5 1.5v-3l-1.5 1.5zm-21.5-23h87v46h-87v-46z"/></defs><clipPath id="n"><use xlink:href="#m" overflow="visible"/></clipPath><g clip-path="url(#n)"><defs><path id="o" d="M140.5-282h44v3h-44z"/></defs></g><defs><path id="p" d="M140.5-282h44v3h-44z"/></defs><defs><path id="q" d="M140.5-277.5H139v6h47v-6h-45.5zm0 3h44L183-276v3l1.5-1.5h-44l1.5 1.5v-3l-1.5 1.5zm-21.5-23h87v46h-87v-46z"/></defs><clipPath id="r"><use xlink:href="#q" overflow="visible"/></clipPath><g clip-path="url(#r)"><defs><path id="s" d="M140.5-276h44v3h-44z"/></defs></g><defs><path id="t" d="M140.5-276h44v3h-44z"/></defs><defs><path id="u" d="M140.5-271.5H139v6h47v-6h-45.5zm0 3h44L183-270v3l1.5-1.5h-44l1.5 1.5v-3l-1.5 1.5zm-21.5-23h87v46h-87v-46z"/></defs><clipPath id="v"><use xlink:href="#u" overflow="visible"/></clipPath><g clip-path="url(#v)"><defs><path id="w" d="M140.5-270h44v3h-44z"/></defs></g><defs><path id="x" d="M140.5-270h44v3h-44z"/></defs><defs><path id="y" d="M364.1-309.5h-1.5v90h134v-90H364.1zm0 3h131l-1.5-1.5v87l1.5-1.5h-131l1.5 1.5v-87l-1.5 1.5zm-21.5-23h174v130h-174v-130z"/></defs><clipPath id="z"><use xlink:href="#y" overflow="visible"/></clipPath><g clip-path="url(#z)"><defs><path id="A" d="M364.1-308h131v87h-131z"/></defs></g><defs><path id="B" d="M364.1-308h131v87h-131z"/></defs><defs><path id="C" d="M369.1-304.5h-1.5v80h124v-80H369.1zm0 3h121l-1.5-1.5v77l1.5-1.5h-121l1.5 1.5v-77l-1.5 1.5zm-21.5-23h164v120h-164v-120z"/></defs><clipPath id="D"><use xlink:href="#C" overflow="visible"/></clipPath><g clip-path="url(#D)"><defs><path id="E" d="M369.1-303h121v77h-121z"/></defs></g><defs><path id="F" d="M369.1-303h121v77h-121z"/></defs><defs><path id="G" d="M434.1-289.5h-1.5v6h47v-6h-45.5zm0 3h44l-1.5-1.5v3l1.5-1.5h-44l1.5 1.5v-3l-1.5 1.5zm-21.5-23h87v46h-87v-46z"/></defs><clipPath id="H"><use xlink:href="#G" overflow="visible"/></clipPath><g clip-path="url(#H)"><defs><path id="I" d="M434.1-288h44v3h-44z"/></defs></g><defs><path id="J" d="M434.1-288h44v3h-44z"/></defs><defs><path id="K" d="M434.1-283.5h-1.5v6h47v-6h-45.5zm0 3h44l-1.5-1.5v3l1.5-1.5h-44l1.5 1.5v-3l-1.5 1.5zm-21.5-23h87v46h-87v-46z"/></defs><clipPath id="L"><use xlink:href="#K" overflow="visible"/></clipPath><g clip-path="url(#L)"><defs><path id="M" d="M434.1-282h44v3h-44z"/></defs></g><defs><path id="N" d="M434.1-282h44v3h-44z"/></defs><defs><path id="O" d="M434.1-277.5h-1.5v6h47v-6h-45.5zm0 3h44l-1.5-1.5v3l1.5-1.5h-44l1.5 1.5v-3l-1.5 1.5zm-21.5-23h87v46h-87v-46z"/></defs><clipPath id="P"><use xlink:href="#O" overflow="visible"/></clipPath><g clip-path="url(#P)"><defs><path id="Q" d="M434.1-276h44v3h-44z"/></defs></g><defs><path id="R" d="M434.1-276h44v3h-44z"/></defs><defs><path id="S" d="M434.1-271.5h-1.5v6h47v-6h-45.5zm0 3h44l-1.5-1.5v3l1.5-1.5h-44l1.5 1.5v-3l-1.5 1.5zm-21.5-23h87v46h-87v-46z"/></defs><clipPath id="T"><use xlink:href="#S" overflow="visible"/></clipPath><g clip-path="url(#T)"><defs><path id="U" d="M434.1-270h44v3h-44z"/></defs></g><g><defs><path id="V" d="M434.1-270h44v3h-44z"/></defs></g><path fill="#FFF" stroke="#0C1F2E" stroke-width="3" stroke-linecap="round" stroke-miterlimit="10" d="M111.7 19.7h62.7v99.5h-62.7z"/><path fill="#FFF" stroke="#0C1F2E" stroke-width="3" stroke-linecap="round" stroke-miterlimit="10" d="M117.7 27.6h50.7v71.6h-50.7z"/><circle fill="#FFF" stroke="#0C1F2E" stroke-width="3" stroke-linecap="round" stroke-miterlimit="10" cx="142.6" cy="61.9" r="16.1"/><path fill="none" stroke="#0C1F2E" stroke-width="3" stroke-linecap="round" stroke-miterlimit="10" d="M142.6 68.5V53m-8.2 9.4l8.2 8.6 9.4-8.6"/><circle fill="#FFF" stroke="#0C1F2E" stroke-width="3" stroke-linecap="round" stroke-miterlimit="10" cx="142.1" cy="108.9" r="4.7"/></svg>