<svg xmlns="http://www.w3.org/2000/svg" xmlns:xlink="http://www.w3.org/1999/xlink" viewBox="0 0 276 137"><defs><path id="a" d="M-227.9-470h-1.5v90h134v-90h-132.5zm0 3h131l-1.5-1.5v87l1.5-1.5h-131l1.5 1.5v-87l-1.5 1.5zm-21.5-23h174v130h-174v-130z"/></defs><clipPath id="b"><use xlink:href="#a" overflow="visible"/></clipPath><g clip-path="url(#b)"><defs><path id="c" d="M-227.9-468.5h131v87h-131z"/></defs></g><defs><path id="d" d="M-227.9-468.5h131v87h-131z"/></defs><defs><path id="e" d="M-222.9-465h-1.5v80h124v-80h-122.5zm0 3h121l-1.5-1.5v77l1.5-1.5h-121l1.5 1.5v-77l-1.5 1.5zm-21.5-23h164v120h-164v-120z"/></defs><clipPath id="f"><use xlink:href="#e" overflow="visible"/></clipPath><g clip-path="url(#f)"><defs><path id="g" d="M-222.9-463.5h121v77h-121z"/></defs></g><defs><path id="h" d="M-222.9-463.5h121v77h-121z"/></defs><defs><path id="i" d="M-157.9-450h-1.5v6h47v-6h-45.5zm0 3h44l-1.5-1.5v3l1.5-1.5h-44l1.5 1.5v-3l-1.5 1.5zm-21.5-23h87v46h-87v-46z"/></defs><clipPath id="j"><use xlink:href="#i" overflow="visible"/></clipPath><g clip-path="url(#j)"><defs><path id="k" d="M-157.9-448.5h44v3h-44z"/></defs></g><defs><path id="l" d="M-157.9-448.5h44v3h-44z"/></defs><defs><path id="m" d="M-157.9-444h-1.5v6h47v-6h-45.5zm0 3h44l-1.5-1.5v3l1.5-1.5h-44l1.5 1.5v-3l-1.5 1.5zm-21.5-23h87v46h-87v-46z"/></defs><clipPath id="n"><use xlink:href="#m" overflow="visible"/></clipPath><g clip-path="url(#n)"><defs><path id="o" d="M-157.9-442.5h44v3h-44z"/></defs></g><defs><path id="p" d="M-157.9-442.5h44v3h-44z"/></defs><defs><path id="q" d="M-157.9-438h-1.5v6h47v-6h-45.5zm0 3h44l-1.5-1.5v3l1.5-1.5h-44l1.5 1.5v-3l-1.5 1.5zm-21.5-23h87v46h-87v-46z"/></defs><clipPath id="r"><use xlink:href="#q" overflow="visible"/></clipPath><g clip-path="url(#r)"><defs><path id="s" d="M-157.9-436.5h44v3h-44z"/></defs></g><defs><path id="t" d="M-157.9-436.5h44v3h-44z"/></defs><defs><path id="u" d="M-157.9-432h-1.5v6h47v-6h-45.5zm0 3h44l-1.5-1.5v3l1.5-1.5h-44l1.5 1.5v-3l-1.5 1.5zm-21.5-23h87v46h-87v-46z"/></defs><clipPath id="v"><use xlink:href="#u" overflow="visible"/></clipPath><g clip-path="url(#v)"><defs><path id="w" d="M-157.9-430.5h44v3h-44z"/></defs></g><defs><path id="x" d="M-157.9-430.5h44v3h-44z"/></defs><defs><path id="y" d="M366.9-268.6h-1.5v38h142v-25.1l-.4-.4-11.4-12-.4-.5H366.9zm0 3h127.6l-1.1-.5 11.4 12-.4-1v23l1.5-1.5h-139l1.5 1.5v-35l-1.5 1.5zm-21.5-23h182v78h-182v-78z"/></defs><clipPath id="z"><use xlink:href="#y" overflow="visible"/></clipPath><g clip-path="url(#z)"><defs><path id="A" d="M366.9-267.1h127.6l11.4 12v23h-139z"/></defs></g><defs><path id="B" d="M366.9-267.1h127.6l11.4 12v23h-139z"/></defs><defs><path id="C" d="M399.9-217.2c-8 0-14.5-6.5-14.5-14.5s6.5-14.5 14.5-14.5 14.5 6.5 14.5 14.5-6.5 14.5-14.5 14.5zm0 3c9.7 0 17.5-7.8 17.5-17.5s-7.8-17.5-17.5-17.5-17.5 7.8-17.5 17.5 7.9 17.5 17.5 17.5zm-37.5-55h75v75h-75v-75z"/></defs><clipPath id="D"><use xlink:href="#C" overflow="visible"/></clipPath><g clip-path="url(#D)"><defs><circle id="E" cx="399.9" cy="-231.7" r="16"/></defs></g><defs><circle id="F" cx="399.9" cy="-231.7" r="16"/></defs><defs><path id="G" d="M399.9-224.2c-4.1 0-7.5-3.4-7.5-7.5s3.4-7.5 7.5-7.5 7.5 3.4 7.5 7.5c0 4.2-3.3 7.5-7.5 7.5zm0 3c5.8 0 10.5-4.7 10.5-10.5s-4.7-10.5-10.5-10.5-10.5 4.7-10.5 10.5 4.7 10.5 10.5 10.5zm-30.5-41h61v61h-61v-61z"/></defs><clipPath id="H"><use xlink:href="#G" overflow="visible"/></clipPath><g clip-path="url(#H)"><defs><circle id="I" cx="399.9" cy="-231.7" r="9"/></defs></g><defs><circle id="J" cx="399.9" cy="-231.7" r="9"/></defs><defs><path id="K" d="M466.2-217.2c-8 0-14.5-6.5-14.5-14.5s6.5-14.5 14.5-14.5 14.5 6.5 14.5 14.5-6.5 14.5-14.5 14.5zm0 3c9.7 0 17.5-7.8 17.5-17.5s-7.8-17.5-17.5-17.5-17.5 7.8-17.5 17.5 7.8 17.5 17.5 17.5zm-37.5-55h75v75h-75v-75z"/></defs><clipPath id="L"><use xlink:href="#K" overflow="visible"/></clipPath><g clip-path="url(#L)"><defs><circle id="M" cx="466.2" cy="-231.7" r="16"/></defs></g><defs><circle id="N" cx="466.2" cy="-231.7" r="16"/></defs><defs><path id="O" d="M466.4-272l-7.7-15.6h-27.2v15.6h34.9zm-75.2 0l7.4-15.6h27.2v15.6h-34.6zm-10.3 5.3l14.1-26.9h66.8l15.3 27.9-96.2-1z"/></defs><defs><path id="P" d="M466.2-224.2c-4.1 0-7.5-3.4-7.5-7.5s3.4-7.5 7.5-7.5 7.5 3.4 7.5 7.5c0 4.2-3.4 7.5-7.5 7.5zm0 3c5.8 0 10.5-4.7 10.5-10.5s-4.7-10.5-10.5-10.5-10.5 4.7-10.5 10.5 4.7 10.5 10.5 10.5zm-30.5-41h61v61h-61v-61z"/></defs><clipPath id="Q"><use xlink:href="#P" overflow="visible"/></clipPath><g clip-path="url(#Q)"><defs><circle id="R" cx="466.2" cy="-231.7" r="9"/></defs></g><g><defs><circle id="S" cx="466.2" cy="-231.7" r="9"/></defs></g><g><circle fill="#FFF" cx="138" cy="68.5" r="46.6"/><path fill="#0F1F2D" d="M138 116.6c-26.5 0-48.1-21.6-48.1-48.1s21.6-48.1 48.1-48.1 48.1 21.6 48.1 48.1-21.6 48.1-48.1 48.1zm0-93.2c-24.8 0-45.1 20.2-45.1 45.1s20.2 45.1 45.1 45.1 45.1-20.2 45.1-45.1-20.2-45.1-45.1-45.1z"/></g><circle fill="#FFF" stroke="#0C1F2E" stroke-width="3" stroke-miterlimit="10" cx="138" cy="68.5" r="40.8"/><g fill="none" stroke="#0C1F2E" stroke-width="3" stroke-linecap="round" stroke-miterlimit="10"><path d="M136.4 88.9V46.2m-22.7 21l22.7 23.6 25.9-23.6"/></g></svg>