<svg xmlns="http://www.w3.org/2000/svg" viewBox="0 0 276 137"><title>EXPERIENTIAL ICONS 3</title><g data-name="Layer 1"><path fill="#fff" stroke="#0f1f2d" stroke-miterlimit="10" stroke-width="3" d="M157.81 68.18l20.27-10.73v53.48h-20.27V68.18zM118.19 68.18L97.92 57.45v53.48h20.27V68.18z"/><path fill="#fff" stroke="#0f1f2d" stroke-miterlimit="10" stroke-width="3" d="M117.46 27.57h40.7v83.36h-40.7z"/><path fill="#0f1f2d" d="M123.37 34.75h5.6v28.5h-5.6zM135.01 34.75h5.6v28.5h-5.6zM146.64 34.75h5.6v28.5h-5.6zM122.77 68.25h8v12h-8zM133.81 68.25h8v12h-8zM144.84 68.25h8v12h-8zM106.26 71.44h3.59v11h-3.59zM106.26 89.19h3.59v11h-3.59zM166.15 71.44h3.59v11h-3.59zM166.15 89.19h3.59v11h-3.59zM116.71 37.91l-10.45-11.84h10.96M157.91 38.48l10.96-12.41h-10.96"/><path fill="none" stroke="#0f1f2d" stroke-miterlimit="10" stroke-width="3" d="M117.22 29.99h42M131.74 86.25h12.13v24.68h-12.13z"/><path fill="#0f1f2d" d="M122.42 89.19h3.83v12.34h-3.83zM149.36 89.19h3.83v12.34h-3.83z"/></g></svg>