<svg xmlns="http://www.w3.org/2000/svg" viewBox="0 0 276 137"><g data-name="Layer 1"><path fill="#fff" stroke="#0f1f2d" stroke-miterlimit="10" stroke-width="3" d="M157.81 68.18l20.27-10.73v53.48h-20.27V68.18zm-39.62 0L97.92 57.45v53.48h20.27V68.18z"/><path fill="#fff" stroke="#0f1f2d" stroke-miterlimit="10" stroke-width="3" d="M117.46 27.57h40.7v83.36h-40.7z"/><path fill="#0f1f2d" d="M123.37 34.75h5.6v28.5h-5.6zm11.64 0h5.6v28.5h-5.6zm11.63 0h5.6v28.5h-5.6zm-23.87 33.5h8v12h-8zm11.04 0h8v12h-8zm11.03 0h8v12h-8zm-38.58 3.19h3.59v11h-3.59zm0 17.75h3.59v11h-3.59zm59.89-17.75h3.59v11h-3.59zm0 17.75h3.59v11h-3.59zm-49.44-51.28l-10.45-11.84h10.96m40.69 12.41l10.96-12.41h-10.96"/><path fill="none" stroke="#0f1f2d" stroke-miterlimit="10" stroke-width="3" d="M117.22 29.99h42m-27.48 56.26h12.13v24.68h-12.13z"/><path fill="#0f1f2d" d="M122.42 89.19h3.83v12.34h-3.83zm26.94 0h3.83v12.34h-3.83z"/></g></svg>