<svg id="Layer_1" data-name="Layer 1" xmlns="http://www.w3.org/2000/svg" viewBox="0 0 276 137"><defs><style>.cls-1,.cls-2{fill:none}.cls-2{clip-rule:evenodd}.cls-36,.cls-38{fill:#fff}.cls-37{fill:#0c1f2e}.cls-38{stroke:#0c1f2e;stroke-miterlimit:10;stroke-width:3px}</style><clipPath id="clip-path"><circle class="cls-1" cx="-158" cy="-89.5" r="50.5"/></clipPath><clipPath id="clip-path-2"><circle class="cls-1" cx="-158" cy="-89.5" r="43.5"/></clipPath><clipPath id="clip-path-3"><circle class="cls-1" cx="132.78" cy="-89.5" r="50.5"/></clipPath><clipPath id="clip-path-4"><circle class="cls-1" cx="132.78" cy="-89.5" r="43.5"/></clipPath><clipPath id="clip-path-5"><path class="cls-2" d="M87.67 186.49h-1.5v84h108v-84H87.67zm0 3h105l-1.5-1.5v81l1.5-1.5h-105l1.5 1.5V188zm-21.5-23h148v124h-148z"/></clipPath><clipPath id="clip-path-6"><path class="cls-1" d="M87.67 187.99h105v81h-105z"/></clipPath><clipPath id="clip-path-8"><path class="cls-2" d="M81.67 203.49h-2.24l.85-2.07 9.07-22 .38-.93H190.6l.38.93 9.07 22 .85 2.07H81.67zm0-3h117l-1.39 2.07-9.07-22 1.39.93H90.74l1.39-.93-9.07 22zm-22.24 23h161.48v-65H59.43z"/></clipPath><clipPath id="clip-path-9"><path class="cls-2" d="M81.67 201.99h117l-9.07-22H90.74l-9.07 22z"/></clipPath><clipPath id="clip-path-11"><path class="cls-2" d="M166.67 170.49h-1.5v19h15v-19h-13.5zm0 3h12l-1.5-1.5v16l1.5-1.5h-12l1.5 1.5V172zm-21.5-23h55v59h-55z"/></clipPath><clipPath id="clip-path-12"><path class="cls-1" d="M166.67 171.99h12v16h-12z"/></clipPath><clipPath id="clip-path-14"><path class="cls-2" d="M100.67 236.49h-1.5v34h24v-34h-22.5zm0 3h21l-1.5-1.5v31l1.5-1.5h-21l1.5 1.5V238zm-21.5-23h64v74h-64z"/></clipPath><clipPath id="clip-path-15"><path class="cls-1" d="M100.67 237.99h21v31h-21z"/></clipPath><clipPath id="clip-path-17"><path class="cls-2" d="M101.67 208.49h-1.5v22h22v-22h-20.5zm0 3h19l-1.5-1.5v19l1.5-1.5h-19l1.5 1.5V210zm-21.5-23h62v62h-62z"/></clipPath><clipPath id="clip-path-18"><path class="cls-1" d="M101.67 209.99h19v19h-19z"/></clipPath><clipPath id="clip-path-20"><path class="cls-2" d="M106.67 213.49h-1.5v12h12v-12h-10.5zm0 3h9l-1.5-1.5v9l1.5-1.5h-9l1.5 1.5v-9zm-21.5-23h52v52h-52z"/></clipPath><clipPath id="clip-path-21"><path class="cls-1" d="M106.67 214.99h9v9h-9z"/></clipPath><clipPath id="clip-path-23"><path class="cls-2" d="M131.67 208.49h-1.5v22h22v-22h-20.5zm0 3h19l-1.5-1.5v19l1.5-1.5h-19l1.5 1.5V210zm-21.5-23h62v62h-62z"/></clipPath><clipPath id="clip-path-24"><path class="cls-1" d="M131.67 209.99h19v19h-19z"/></clipPath><clipPath id="clip-path-26"><path class="cls-2" d="M160.67 208.49h-1.5v22h22v-22h-20.5zm0 3h19l-1.5-1.5v19l1.5-1.5h-19l1.5 1.5V210zm-21.5-23h62v62h-62z"/></clipPath><clipPath id="clip-path-27"><path class="cls-1" d="M160.67 209.99h19v19h-19z"/></clipPath><clipPath id="clip-path-29"><path class="cls-2" d="M131.67 236.49h-1.5v22h22v-22h-20.5zm0 3h19l-1.5-1.5v19l1.5-1.5h-19l1.5 1.5V238zm-21.5-23h62v62h-62z"/></clipPath><clipPath id="clip-path-30"><path class="cls-1" d="M131.67 237.99h19v19h-19z"/></clipPath><clipPath id="clip-path-32"><path class="cls-2" d="M160.67 236.49h-1.5v22h22v-22h-20.5zm0 3h19l-1.5-1.5v19l1.5-1.5h-19l1.5 1.5V238zm-21.5-23h62v62h-62z"/></clipPath><clipPath id="clip-path-33"><path class="cls-1" d="M160.67 237.99h19v19h-19z"/></clipPath><clipPath id="clip-path-35"><path class="cls-2" d="M136.67 213.49h-1.5v12h12v-12h-10.5zm0 3h9l-1.5-1.5v9l1.5-1.5h-9l1.5 1.5v-9zm-21.5-23h52v52h-52z"/></clipPath><clipPath id="clip-path-36"><path class="cls-1" d="M136.67 214.99h9v9h-9z"/></clipPath><clipPath id="clip-path-38"><path class="cls-2" d="M165.67 213.49h-1.5v12h12v-12h-10.5zm0 3h9l-1.5-1.5v9l1.5-1.5h-9l1.5 1.5v-9zm-21.5-23h52v52h-52z"/></clipPath><clipPath id="clip-path-39"><path class="cls-1" d="M165.67 214.99h9v9h-9z"/></clipPath><clipPath id="clip-path-41"><path class="cls-2" d="M136.67 241.49h-1.5v12h12v-12h-10.5zm0 3h9l-1.5-1.5v9l1.5-1.5h-9l1.5 1.5v-9zm-21.5-23h52v52h-52z"/></clipPath><clipPath id="clip-path-42"><path class="cls-1" d="M136.67 242.99h9v9h-9z"/></clipPath><clipPath id="clip-path-44"><path class="cls-2" d="M165.67 241.49h-1.5v12h12v-12h-10.5zm0 3h9l-1.5-1.5v9l1.5-1.5h-9l1.5 1.5v-9zm-21.5-23h52v52h-52z"/></clipPath><clipPath id="clip-path-45"><path class="cls-1" d="M165.67 242.99h9v9h-9z"/></clipPath></defs><path class="cls-36" d="M195.65 90.57V79.14h-84.08V53.83H92.28L86 66.94a148.29 148.29 0 0 0-17.85 4.75v18.88z"/><path class="cls-37" d="M197.15 92.07H66.63V70.61l1-.34A154.84 154.84 0 0 1 85 65.62l6.39-13.29H113v25.31h84.07zm-127.52-3h124.52v-8.43h-84.07V55.33H93.22L87 68.28l-.75.14a147.82 147.82 0 0 0-16.62 4.36z"/><path class="cls-36" d="M106.41 72.2h-14.2v-3.92l4.02-8.61h10.18V72.2z"/><path class="cls-37" d="M107.91 73.7h-17.2v-5.75l4.56-9.78h12.63zm-14.19-3h11.19v-9.53h-7.73l-3.47 7.44zM86.05 92a1.5 1.5 0 0 1-1.5-1.5V67.13a1.5 1.5 0 0 1 3 0v23.36a1.5 1.5 0 0 1-1.5 1.51zm25.55 0a1.5 1.5 0 0 1-1.5-1.5V77.84a1.5 1.5 0 0 1 3 0v12.65a1.5 1.5 0 0 1-1.5 1.51z"/><circle class="cls-36" cx="89.47" cy="94.93" r="10.97"/><path class="cls-37" d="M89.47 107.4a12.47 12.47 0 1 1 12.47-12.47 12.48 12.48 0 0 1-12.47 12.47zm0-21.93a9.47 9.47 0 1 0 9.47 9.47 9.48 9.48 0 0 0-9.47-9.47z"/><circle class="cls-36" cx="179.04" cy="94.93" r="10.97"/><path class="cls-37" d="M179 107.4a12.47 12.47 0 1 1 12.5-12.47A12.48 12.48 0 0 1 179 107.4zm0-21.93a9.47 9.47 0 1 0 9.47 9.47 9.48 9.48 0 0 0-9.47-9.47z"/><circle class="cls-36" cx="89.33" cy="94.79" r="4.98"/><path class="cls-37" d="M89.33 101.26a6.48 6.48 0 1 1 6.48-6.48 6.49 6.49 0 0 1-6.48 6.48zm0-10a3.48 3.48 0 1 0 3.48 3.48 3.48 3.48 0 0 0-3.48-3.43z"/><circle class="cls-36" cx="178.89" cy="94.79" r="4.98"/><path class="cls-37" d="M178.89 101.26a6.48 6.48 0 1 1 6.48-6.48 6.49 6.49 0 0 1-6.48 6.48zm0-10a3.48 3.48 0 1 0 3.48 3.48 3.48 3.48 0 0 0-3.48-3.43z"/><path class="cls-38" d="M207.44 90.57H113.1V35.14h94.34z"/><circle class="cls-38" cx="158.25" cy="62" r="18.75"/><path class="cls-38" d="M163.5 72.5v-6h5v-9h-5v-6h-10v6h-5v9h5v6h10z"/></svg>