<svg id="Layer_1" data-name="Layer 1" xmlns="http://www.w3.org/2000/svg" viewBox="0 0 276 137"><defs><style>.cls-1,.cls-2,.cls-3,.cls-35{fill:none}.cls-2{clip-rule:evenodd}.cls-3{fill-rule:evenodd}.cls-4{clip-path:url(#clip-path)}.cls-5{clip-path:url(#clip-path-2)}.cls-6{clip-path:url(#clip-path-3)}.cls-7{clip-path:url(#clip-path-4)}.cls-8{clip-path:url(#clip-path-6)}.cls-9{clip-path:url(#clip-path-7)}.cls-10{clip-path:url(#clip-path-9)}.cls-11{clip-path:url(#clip-path-10)}.cls-12{clip-path:url(#clip-path-12)}.cls-13{clip-path:url(#clip-path-13)}.cls-14{clip-path:url(#clip-path-15)}.cls-15{clip-path:url(#clip-path-16)}.cls-16{clip-path:url(#clip-path-18)}.cls-17{clip-path:url(#clip-path-19)}.cls-18{clip-path:url(#clip-path-21)}.cls-19{clip-path:url(#clip-path-22)}.cls-20{clip-path:url(#clip-path-24)}.cls-21{clip-path:url(#clip-path-25)}.cls-22{clip-path:url(#clip-path-27)}.cls-23{clip-path:url(#clip-path-28)}.cls-24{clip-path:url(#clip-path-30)}.cls-25{clip-path:url(#clip-path-31)}.cls-26{clip-path:url(#clip-path-33)}.cls-27{clip-path:url(#clip-path-34)}.cls-28{clip-path:url(#clip-path-36)}.cls-29{clip-path:url(#clip-path-37)}.cls-30{clip-path:url(#clip-path-39)}.cls-31{clip-path:url(#clip-path-40)}.cls-32{clip-path:url(#clip-path-42)}.cls-33{clip-path:url(#clip-path-43)}.cls-34,.cls-36{fill:#fff}.cls-34,.cls-35,.cls-36{stroke:#0c1f2e;stroke-miterlimit:10;stroke-width:3px}.cls-35,.cls-36{stroke-linecap:round}</style><clipPath id="clip-path"><circle class="cls-1" cx="434" cy="-89.5" r="50.5"/></clipPath><clipPath id="clip-path-2"><circle class="cls-1" cx="434" cy="-89.5" r="43.5"/></clipPath><clipPath id="clip-path-3"><path class="cls-2" d="M679.67 186.49h-1.5v84h108v-84h-106.5zm0 3h105l-1.5-1.5v81l1.5-1.5h-105l1.5 1.5V188zm-21.5-23h148v124h-148z"/></clipPath><clipPath id="clip-path-4"><path class="cls-1" d="M679.67 187.99h105v81h-105z"/></clipPath><clipPath id="clip-path-6"><path class="cls-2" d="M673.67 203.49h-2.24l.85-2.07 9.07-22 .38-.93H782.6l.38.93 9.07 22 .85 2.07H673.67zm0-3h117l-1.39 2.07-9.07-22 1.39.93h-98.86l1.39-.93-9.07 22zm-22.24 23h161.48v-65H651.43z"/></clipPath><clipPath id="clip-path-7"><path class="cls-2" d="M673.67 201.99h117l-9.07-22h-98.86l-9.07 22z"/></clipPath><clipPath id="clip-path-9"><path class="cls-2" d="M758.67 170.49h-1.5v19h15v-19h-13.5zm0 3h12l-1.5-1.5v16l1.5-1.5h-12l1.5 1.5V172zm-21.5-23h55v59h-55z"/></clipPath><clipPath id="clip-path-10"><path class="cls-1" d="M758.67 171.99h12v16h-12z"/></clipPath><clipPath id="clip-path-12"><path class="cls-2" d="M692.67 236.49h-1.5v34h24v-34h-22.5zm0 3h21l-1.5-1.5v31l1.5-1.5h-21l1.5 1.5V238zm-21.5-23h64v74h-64z"/></clipPath><clipPath id="clip-path-13"><path class="cls-1" d="M692.67 237.99h21v31h-21z"/></clipPath><clipPath id="clip-path-15"><path class="cls-2" d="M693.67 208.49h-1.5v22h22v-22h-20.5zm0 3h19l-1.5-1.5v19l1.5-1.5h-19l1.5 1.5V210zm-21.5-23h62v62h-62z"/></clipPath><clipPath id="clip-path-16"><path class="cls-1" d="M693.67 209.99h19v19h-19z"/></clipPath><clipPath id="clip-path-18"><path class="cls-2" d="M698.67 213.49h-1.5v12h12v-12h-10.5zm0 3h9l-1.5-1.5v9l1.5-1.5h-9l1.5 1.5v-9zm-21.5-23h52v52h-52z"/></clipPath><clipPath id="clip-path-19"><path class="cls-1" d="M698.67 214.99h9v9h-9z"/></clipPath><clipPath id="clip-path-21"><path class="cls-2" d="M723.67 208.49h-1.5v22h22v-22h-20.5zm0 3h19l-1.5-1.5v19l1.5-1.5h-19l1.5 1.5V210zm-21.5-23h62v62h-62z"/></clipPath><clipPath id="clip-path-22"><path class="cls-1" d="M723.67 209.99h19v19h-19z"/></clipPath><clipPath id="clip-path-24"><path class="cls-2" d="M752.67 208.49h-1.5v22h22v-22h-20.5zm0 3h19l-1.5-1.5v19l1.5-1.5h-19l1.5 1.5V210zm-21.5-23h62v62h-62z"/></clipPath><clipPath id="clip-path-25"><path class="cls-1" d="M752.67 209.99h19v19h-19z"/></clipPath><clipPath id="clip-path-27"><path class="cls-2" d="M723.67 236.49h-1.5v22h22v-22h-20.5zm0 3h19l-1.5-1.5v19l1.5-1.5h-19l1.5 1.5V238zm-21.5-23h62v62h-62z"/></clipPath><clipPath id="clip-path-28"><path class="cls-1" d="M723.67 237.99h19v19h-19z"/></clipPath><clipPath id="clip-path-30"><path class="cls-2" d="M752.67 236.49h-1.5v22h22v-22h-20.5zm0 3h19l-1.5-1.5v19l1.5-1.5h-19l1.5 1.5V238zm-21.5-23h62v62h-62z"/></clipPath><clipPath id="clip-path-31"><path class="cls-1" d="M752.67 237.99h19v19h-19z"/></clipPath><clipPath id="clip-path-33"><path class="cls-2" d="M728.67 213.49h-1.5v12h12v-12h-10.5zm0 3h9l-1.5-1.5v9l1.5-1.5h-9l1.5 1.5v-9zm-21.5-23h52v52h-52z"/></clipPath><clipPath id="clip-path-34"><path class="cls-1" d="M728.67 214.99h9v9h-9z"/></clipPath><clipPath id="clip-path-36"><path class="cls-2" d="M757.67 213.49h-1.5v12h12v-12h-10.5zm0 3h9l-1.5-1.5v9l1.5-1.5h-9l1.5 1.5v-9zm-21.5-23h52v52h-52z"/></clipPath><clipPath id="clip-path-37"><path class="cls-1" d="M757.67 214.99h9v9h-9z"/></clipPath><clipPath id="clip-path-39"><path class="cls-2" d="M728.67 241.49h-1.5v12h12v-12h-10.5zm0 3h9l-1.5-1.5v9l1.5-1.5h-9l1.5 1.5v-9zm-21.5-23h52v52h-52z"/></clipPath><clipPath id="clip-path-40"><path class="cls-1" d="M728.67 242.99h9v9h-9z"/></clipPath><clipPath id="clip-path-42"><path class="cls-2" d="M757.67 241.49h-1.5v12h12v-12h-10.5zm0 3h9l-1.5-1.5v9l1.5-1.5h-9l1.5 1.5v-9zm-21.5-23h52v52h-52z"/></clipPath><clipPath id="clip-path-43"><path class="cls-1" d="M757.67 242.99h9v9h-9z"/></clipPath></defs><title>EXPERIENTIAL ICONS</title><path class="cls-34" d="M87.73 46.88h100.53v65.48H87.73z"/><path class="cls-35" d="M88 79.5h100"/><circle class="cls-36" cx="138" cy="79.5" r="14.83"/><path class="cls-35" d="M119.5 47V32.5h37V47M138 88.52V70.48M147.02 79.5h-18.04"/></svg>