<svg id="Layer_1" data-name="Layer 1" xmlns="http://www.w3.org/2000/svg" viewBox="0 0 276 137"><defs><style>.cls-1{fill:none}.cls-2{clip-path:url(#clip-path)}.cls-3{clip-path:url(#clip-path-2)}.cls-4,.cls-7{fill:#fff}.cls-5{fill:#0f1f2d}.cls-6{fill:#0c1f2e}.cls-7{stroke:#0c1f2e;stroke-miterlimit:10;stroke-width:3px}</style><clipPath id="clip-path"><circle class="cls-1" cx="-755.22" cy="-89.5" r="50.5"/></clipPath><clipPath id="clip-path-2"><circle class="cls-1" cx="-755.22" cy="-89.5" r="43.5"/></clipPath></defs><title>EXPERIENTIAL ICONS</title><circle class="cls-4" cx="146" cy="68.5" r="46.57"/><path class="cls-5" d="M146 116.57a48.07 48.07 0 1 1 48.07-48.07A48.12 48.12 0 0 1 146 116.57zm0-93.13a45.07 45.07 0 1 0 45.07 45.06A45.12 45.12 0 0 0 146 23.43z"/><circle class="cls-4" cx="146.07" cy="68.4" r="40.8"/><path class="cls-6" d="M146.07 110.7a42.3 42.3 0 1 1 42.3-42.3 42.35 42.35 0 0 1-42.3 42.3zm0-81.61a39.3 39.3 0 1 0 39.3 39.3 39.35 39.35 0 0 0-39.3-39.3z"/><path class="cls-7" d="M171.5 63.5h-17.7l12.65-12.48-3.92-3.98-13.03 13.25V41.5h-6v18.79l-13.18-13.17-4.05 3.9 12.64 12.48H120.5v6h19.46l-13.7 13.72 4.06 4.07 13.18-13.15V92.5h6V74.14l13.03 13.17 3.99-4.09-13.76-13.72h18.74v-6z"/></svg>