<svg xmlns="http://www.w3.org/2000/svg" xmlns:xlink="http://www.w3.org/1999/xlink" viewBox="0 0 276 137"><defs><circle id="a" cx="132.1" cy="-95" r="43.5"/></defs><defs><path id="b" d="M132.1-50c-24.8 0-45-20.2-45-45s20.2-45 45-45 45 20.2 45 45-20.1 45-45 45zm0-87c-23.2 0-42 18.8-42 42s18.8 42 42 42 42-18.8 42-42-18.8-42-42-42z"/></defs><use xlink:href="#a" overflow="visible" fill-rule="evenodd" clip-rule="evenodd" fill="#FFF"/><use xlink:href="#b" overflow="visible" fill="#0F1F2D"/><clipPath id="c"><use xlink:href="#a" overflow="visible"/></clipPath><clipPath id="d" clip-path="url(#c)"><use xlink:href="#b" overflow="visible"/></clipPath><g clip-path="url(#d)"><defs><path id="e" d="M-42.4-831h1121V199h-1121z"/></defs><defs><path id="f" d="M1080.1 200.5h-1124v-1033h1124v1033zm-1121-3h1118v-1027h-1118v1027z"/></defs><use xlink:href="#e" overflow="visible" fill="#FFF"/><use xlink:href="#f" overflow="visible" fill="#0F1F2D"/><clipPath id="g"><use xlink:href="#e" overflow="visible"/></clipPath></g><defs><path id="h" d="M367.2-258h-1.5v38h142v-25.1l-.4-.4-11.4-12-.4-.5H367.2zm0 3h127.6l-1.1-.5 11.4 12-.4-1v23l1.5-1.5h-139l1.5 1.5v-35l-1.5 1.5zm-21.5-23h182v78h-182v-78z"/></defs><clipPath id="i"><use xlink:href="#h" overflow="visible"/></clipPath><g clip-path="url(#i)"><defs><path id="j" d="M367.2-256.5h127.6l11.4 12v23h-139z"/></defs><clipPath id="k"><use xlink:href="#j" overflow="visible"/></clipPath><g clip-path="url(#k)"><defs><path id="l" d="M-4.8-791.5h1121v1030H-4.8z"/></defs></g></g><defs><path id="m" d="M367.2-256.5h127.6l11.4 12v23h-139z"/></defs><clipPath id="n"><use xlink:href="#m" overflow="visible"/></clipPath><g clip-path="url(#n)"><defs><path id="o" d="M-4.8-791.5h1121v1030H-4.8z"/></defs></g><defs><path id="p" d="M400.2-206.6c-8 0-14.5-6.5-14.5-14.5s6.5-14.5 14.5-14.5 14.5 6.5 14.5 14.5-6.4 14.5-14.5 14.5zm0 3c9.7 0 17.5-7.8 17.5-17.5s-7.8-17.5-17.5-17.5-17.5 7.8-17.5 17.5 7.9 17.5 17.5 17.5zm-37.5-55h75v75h-75v-75z"/></defs><clipPath id="q"><use xlink:href="#p" overflow="visible"/></clipPath><g clip-path="url(#q)"><defs><circle id="r" cx="400.2" cy="-221.1" r="16"/></defs><clipPath id="s"><use xlink:href="#r" overflow="visible"/></clipPath><g clip-path="url(#s)"><defs><path id="t" d="M-4.8-791.5h1121v1030H-4.8z"/></defs></g></g><defs><circle id="u" cx="400.2" cy="-221.1" r="16"/></defs><clipPath id="v"><use xlink:href="#u" overflow="visible"/></clipPath><g clip-path="url(#v)"><defs><path id="w" d="M-4.8-791.5h1121v1030H-4.8z"/></defs></g><defs><path id="x" d="M400.2-213.6c-4.1 0-7.5-3.4-7.5-7.5s3.4-7.5 7.5-7.5 7.5 3.4 7.5 7.5-3.3 7.5-7.5 7.5zm0 3c5.8 0 10.5-4.7 10.5-10.5s-4.7-10.5-10.5-10.5-10.5 4.7-10.5 10.5 4.7 10.5 10.5 10.5zm-30.5-41h61v61h-61v-61z"/></defs><clipPath id="y"><use xlink:href="#x" overflow="visible"/></clipPath><g clip-path="url(#y)"><defs><circle id="z" cx="400.2" cy="-221.1" r="9"/></defs><clipPath id="A"><use xlink:href="#z" overflow="visible"/></clipPath><g clip-path="url(#A)"><defs><path id="B" d="M-4.8-791.5h1121v1030H-4.8z"/></defs></g></g><defs><circle id="C" cx="400.2" cy="-221.1" r="9"/></defs><clipPath id="D"><use xlink:href="#C" overflow="visible"/></clipPath><g clip-path="url(#D)"><defs><path id="E" d="M-4.8-791.5h1121v1030H-4.8z"/></defs></g><defs><path id="F" d="M466.5-206.6c-8 0-14.5-6.5-14.5-14.5s6.5-14.5 14.5-14.5 14.5 6.5 14.5 14.5-6.5 14.5-14.5 14.5zm0 3c9.7 0 17.5-7.8 17.5-17.5s-7.8-17.5-17.5-17.5-17.5 7.8-17.5 17.5 7.8 17.5 17.5 17.5zm-37.5-55h75v75h-75v-75z"/></defs><clipPath id="G"><use xlink:href="#F" overflow="visible"/></clipPath><g clip-path="url(#G)"><defs><circle id="H" cx="466.5" cy="-221.1" r="16"/></defs><clipPath id="I"><use xlink:href="#H" overflow="visible"/></clipPath><g clip-path="url(#I)"><defs><path id="J" d="M-4.8-791.5h1121v1030H-4.8z"/></defs></g></g><defs><circle id="K" cx="466.5" cy="-221.1" r="16"/></defs><clipPath id="L"><use xlink:href="#K" overflow="visible"/></clipPath><g clip-path="url(#L)"><defs><path id="M" d="M-4.8-791.5h1121v1030H-4.8z"/></defs></g><defs><path id="N" d="M466.7-261.4L459-277h-27.2v15.6h34.9zm-75.2-.1l7.4-15.6h27.2v15.6h-34.6zm-10.3 5.4l14.1-26.9h66.8l15.3 27.9-96.2-1z"/></defs><clipPath id="O"><use xlink:href="#N" overflow="visible"/></clipPath><g clip-path="url(#O)"><defs><path id="P" d="M-4.8-791.5h1121v1030H-4.8z"/></defs></g><defs><path id="Q" d="M466.5-213.6c-4.1 0-7.5-3.4-7.5-7.5s3.4-7.5 7.5-7.5 7.5 3.4 7.5 7.5-3.4 7.5-7.5 7.5zm0 3c5.8 0 10.5-4.7 10.5-10.5s-4.7-10.5-10.5-10.5-10.5 4.7-10.5 10.5 4.7 10.5 10.5 10.5zm-30.5-41h61v61h-61v-61z"/></defs><clipPath id="R"><use xlink:href="#Q" overflow="visible"/></clipPath><g clip-path="url(#R)"><defs><circle id="S" cx="466.5" cy="-221.1" r="9"/></defs><clipPath id="T"><use xlink:href="#S" overflow="visible"/></clipPath><g clip-path="url(#T)"><defs><path id="U" d="M-4.8-791.5h1121v1030H-4.8z"/></defs></g></g><defs><circle id="V" cx="466.5" cy="-221.1" r="9"/></defs><clipPath id="W"><use xlink:href="#V" overflow="visible"/></clipPath><g clip-path="url(#W)"><defs><path id="X" d="M-4.8-791.5h1121v1030H-4.8z"/></defs></g><defs><path id="Y" d="M91.4-288.4h-1.5v84h108v-84H91.4zm0 3h105l-1.5-1.5v81l1.5-1.5h-105l1.5 1.5v-81l-1.5 1.5zm-21.5-23h148v124h-148v-124z"/></defs><clipPath id="Z"><use xlink:href="#Y" overflow="visible"/></clipPath><g clip-path="url(#Z)"><defs><path id="aa" d="M91.4-286.9h105v81h-105z"/></defs><clipPath id="ab"><use xlink:href="#aa" overflow="visible"/></clipPath><g clip-path="url(#ab)"><defs><path id="ac" d="M-789.6-785.9h1121v1030h-1121z"/></defs></g></g><defs><path id="ad" d="M91.4-286.9h105v81h-105z"/></defs><clipPath id="ae"><use xlink:href="#ad" overflow="visible"/></clipPath><g clip-path="url(#ae)"><defs><path id="af" d="M-789.6-785.9h1121v1030h-1121z"/></defs></g><g><defs><path id="ag" d="M85.4-271.4h-2.2l.9-2.1 9.1-22 .4-.9h100.9l.4.9 9.1 22 .9 2.1H85.4zm0-3h117l-1.4 2.1-9.1-22 1.4.9H94.5l1.4-.9-9.1 22-1.4-2.1zm-22.3 23h161.5v-65H63.1v65z"/></defs><clipPath id="ah"><use xlink:href="#ag" overflow="visible"/></clipPath><g clip-path="url(#ah)"><defs><path id="ai" d="M85.4-272.9h117l-9.1-22H94.5z"/></defs><clipPath id="aj"><use xlink:href="#ai" overflow="visible"/></clipPath><g clip-path="url(#aj)"><defs><path id="ak" d="M-789.6-785.9h1121v1030h-1121z"/></defs></g></g></g><g><defs><path id="al" d="M85.4-272.9h117l-9.1-22H94.5z"/></defs><clipPath id="am"><use xlink:href="#al" overflow="visible"/></clipPath><g clip-path="url(#am)"><defs><path id="an" d="M-789.6-785.9h1121v1030h-1121z"/></defs></g></g><g><defs><path id="ao" d="M170.4-304.4h-1.5v19h15v-19h-13.5zm0 3h12l-1.5-1.5v16l1.5-1.5h-12l1.5 1.5v-16l-1.5 1.5zm-21.5-23h55v59h-55v-59z"/></defs><clipPath id="ap"><use xlink:href="#ao" overflow="visible"/></clipPath><g clip-path="url(#ap)"><defs><path id="aq" d="M170.4-302.9h12v16h-12z"/></defs><clipPath id="ar"><use xlink:href="#aq" overflow="visible"/></clipPath><g clip-path="url(#ar)"><defs><path id="as" d="M-789.6-785.9h1121v1030h-1121z"/></defs></g></g></g><g><defs><path id="at" d="M170.4-302.9h12v16h-12z"/></defs><clipPath id="au"><use xlink:href="#at" overflow="visible"/></clipPath><g clip-path="url(#au)"><defs><path id="av" d="M-789.6-785.9h1121v1030h-1121z"/></defs></g></g><g><defs><path id="aw" d="M104.4-238.4h-1.5v34h24v-34h-22.5zm0 3h21l-1.5-1.5v31l1.5-1.5h-21l1.5 1.5v-31l-1.5 1.5zm-21.5-23h64v74h-64v-74z"/></defs><clipPath id="ax"><use xlink:href="#aw" overflow="visible"/></clipPath><g clip-path="url(#ax)"><defs><path id="ay" d="M104.4-236.9h21v31h-21z"/></defs><clipPath id="az"><use xlink:href="#ay" overflow="visible"/></clipPath><g clip-path="url(#az)"><defs><path id="aA" d="M-789.6-785.9h1121v1030h-1121z"/></defs></g></g></g><g><defs><path id="aB" d="M104.4-236.9h21v31h-21z"/></defs><clipPath id="aC"><use xlink:href="#aB" overflow="visible"/></clipPath><g clip-path="url(#aC)"><defs><path id="aD" d="M-789.6-785.9h1121v1030h-1121z"/></defs></g></g><g><defs><path id="aE" d="M105.4-266.4h-1.5v22h22v-22h-20.5zm0 3h19l-1.5-1.5v19l1.5-1.5h-19l1.5 1.5v-19l-1.5 1.5zm-21.5-23h62v62h-62v-62z"/></defs><clipPath id="aF"><use xlink:href="#aE" overflow="visible"/></clipPath><g clip-path="url(#aF)"><defs><path id="aG" d="M105.4-264.9h19v19h-19z"/></defs><clipPath id="aH"><use xlink:href="#aG" overflow="visible"/></clipPath><g clip-path="url(#aH)"><defs><path id="aI" d="M-789.6-785.9h1121v1030h-1121z"/></defs></g></g></g><g><defs><path id="aJ" d="M105.4-264.9h19v19h-19z"/></defs><clipPath id="aK"><use xlink:href="#aJ" overflow="visible"/></clipPath><g clip-path="url(#aK)"><defs><path id="aL" d="M-789.6-785.9h1121v1030h-1121z"/></defs></g></g><g><defs><path id="aM" d="M110.4-261.4h-1.5v12h12v-12h-10.5zm0 3h9l-1.5-1.5v9l1.5-1.5h-9l1.5 1.5v-9l-1.5 1.5zm-21.5-23h52v52h-52v-52z"/></defs><clipPath id="aN"><use xlink:href="#aM" overflow="visible"/></clipPath><g clip-path="url(#aN)"><defs><path id="aO" d="M110.4-259.9h9v9h-9z"/></defs><clipPath id="aP"><use xlink:href="#aO" overflow="visible"/></clipPath><g clip-path="url(#aP)"><defs><path id="aQ" d="M-789.6-785.9h1121v1030h-1121z"/></defs></g></g></g><g><defs><path id="aR" d="M110.4-259.9h9v9h-9z"/></defs><clipPath id="aS"><use xlink:href="#aR" overflow="visible"/></clipPath><g clip-path="url(#aS)"><defs><path id="aT" d="M-789.6-785.9h1121v1030h-1121z"/></defs></g></g><g><defs><path id="aU" d="M135.4-266.4h-1.5v22h22v-22h-20.5zm0 3h19l-1.5-1.5v19l1.5-1.5h-19l1.5 1.5v-19l-1.5 1.5zm-21.5-23h62v62h-62v-62z"/></defs><clipPath id="aV"><use xlink:href="#aU" overflow="visible"/></clipPath><g clip-path="url(#aV)"><defs><path id="aW" d="M135.4-264.9h19v19h-19z"/></defs><clipPath id="aX"><use xlink:href="#aW" overflow="visible"/></clipPath><g clip-path="url(#aX)"><defs><path id="aY" d="M-789.6-785.9h1121v1030h-1121z"/></defs></g></g></g><g><defs><path id="aZ" d="M135.4-264.9h19v19h-19z"/></defs><clipPath id="ba"><use xlink:href="#aZ" overflow="visible"/></clipPath><g clip-path="url(#ba)"><defs><path id="bb" d="M-789.6-785.9h1121v1030h-1121z"/></defs></g></g><g><defs><path id="bc" d="M164.4-266.4h-1.5v22h22v-22h-20.5zm0 3h19l-1.5-1.5v19l1.5-1.5h-19l1.5 1.5v-19l-1.5 1.5zm-21.5-23h62v62h-62v-62z"/></defs><clipPath id="bd"><use xlink:href="#bc" overflow="visible"/></clipPath><g clip-path="url(#bd)"><defs><path id="be" d="M164.4-264.9h19v19h-19z"/></defs><clipPath id="bf"><use xlink:href="#be" overflow="visible"/></clipPath><g clip-path="url(#bf)"><defs><path id="bg" d="M-789.6-785.9h1121v1030h-1121z"/></defs></g></g></g><g><defs><path id="bh" d="M164.4-264.9h19v19h-19z"/></defs><clipPath id="bi"><use xlink:href="#bh" overflow="visible"/></clipPath><g clip-path="url(#bi)"><defs><path id="bj" d="M-789.6-785.9h1121v1030h-1121z"/></defs></g></g><g><defs><path id="bk" d="M135.4-238.4h-1.5v22h22v-22h-20.5zm0 3h19l-1.5-1.5v19l1.5-1.5h-19l1.5 1.5v-19l-1.5 1.5zm-21.5-23h62v62h-62v-62z"/></defs><clipPath id="bl"><use xlink:href="#bk" overflow="visible"/></clipPath><g clip-path="url(#bl)"><defs><path id="bm" d="M135.4-236.9h19v19h-19z"/></defs><clipPath id="bn"><use xlink:href="#bm" overflow="visible"/></clipPath><g clip-path="url(#bn)"><defs><path id="bo" d="M-789.6-785.9h1121v1030h-1121z"/></defs></g></g></g><g><defs><path id="bp" d="M135.4-236.9h19v19h-19z"/></defs><clipPath id="bq"><use xlink:href="#bp" overflow="visible"/></clipPath><g clip-path="url(#bq)"><defs><path id="br" d="M-789.6-785.9h1121v1030h-1121z"/></defs></g></g><g><defs><path id="bs" d="M164.4-238.4h-1.5v22h22v-22h-20.5zm0 3h19l-1.5-1.5v19l1.5-1.5h-19l1.5 1.5v-19l-1.5 1.5zm-21.5-23h62v62h-62v-62z"/></defs><clipPath id="bt"><use xlink:href="#bs" overflow="visible"/></clipPath><g clip-path="url(#bt)"><defs><path id="bu" d="M164.4-236.9h19v19h-19z"/></defs><clipPath id="bv"><use xlink:href="#bu" overflow="visible"/></clipPath><g clip-path="url(#bv)"><defs><path id="bw" d="M-789.6-785.9h1121v1030h-1121z"/></defs></g></g></g><g><defs><path id="bx" d="M164.4-236.9h19v19h-19z"/></defs><clipPath id="by"><use xlink:href="#bx" overflow="visible"/></clipPath><g clip-path="url(#by)"><defs><path id="bz" d="M-789.6-785.9h1121v1030h-1121z"/></defs></g></g><g><defs><path id="bA" d="M140.4-261.4h-1.5v12h12v-12h-10.5zm0 3h9l-1.5-1.5v9l1.5-1.5h-9l1.5 1.5v-9l-1.5 1.5zm-21.5-23h52v52h-52v-52z"/></defs><clipPath id="bB"><use xlink:href="#bA" overflow="visible"/></clipPath><g clip-path="url(#bB)"><defs><path id="bC" d="M140.4-259.9h9v9h-9z"/></defs><clipPath id="bD"><use xlink:href="#bC" overflow="visible"/></clipPath><g clip-path="url(#bD)"><defs><path id="bE" d="M-789.6-785.9h1121v1030h-1121z"/></defs></g></g></g><g><defs><path id="bF" d="M140.4-259.9h9v9h-9z"/></defs><clipPath id="bG"><use xlink:href="#bF" overflow="visible"/></clipPath><g clip-path="url(#bG)"><defs><path id="bH" d="M-789.6-785.9h1121v1030h-1121z"/></defs></g></g><g><defs><path id="bI" d="M169.4-261.4h-1.5v12h12v-12h-10.5zm0 3h9l-1.5-1.5v9l1.5-1.5h-9l1.5 1.5v-9l-1.5 1.5zm-21.5-23h52v52h-52v-52z"/></defs><clipPath id="bJ"><use xlink:href="#bI" overflow="visible"/></clipPath><g clip-path="url(#bJ)"><defs><path id="bK" d="M169.4-259.9h9v9h-9z"/></defs><clipPath id="bL"><use xlink:href="#bK" overflow="visible"/></clipPath><g clip-path="url(#bL)"><defs><path id="bM" d="M-789.6-785.9h1121v1030h-1121z"/></defs></g></g></g><g><defs><path id="bN" d="M169.4-259.9h9v9h-9z"/></defs><clipPath id="bO"><use xlink:href="#bN" overflow="visible"/></clipPath><g clip-path="url(#bO)"><defs><path id="bP" d="M-789.6-785.9h1121v1030h-1121z"/></defs></g></g><g><defs><path id="bQ" d="M140.4-233.4h-1.5v12h12v-12h-10.5zm0 3h9l-1.5-1.5v9l1.5-1.5h-9l1.5 1.5v-9l-1.5 1.5zm-21.5-23h52v52h-52v-52z"/></defs><clipPath id="bR"><use xlink:href="#bQ" overflow="visible"/></clipPath><g clip-path="url(#bR)"><defs><path id="bS" d="M140.4-231.9h9v9h-9z"/></defs><clipPath id="bT"><use xlink:href="#bS" overflow="visible"/></clipPath><g clip-path="url(#bT)"><defs><path id="bU" d="M-789.6-785.9h1121v1030h-1121z"/></defs></g></g></g><g><defs><path id="bV" d="M140.4-231.9h9v9h-9z"/></defs><clipPath id="bW"><use xlink:href="#bV" overflow="visible"/></clipPath><g clip-path="url(#bW)"><defs><path id="bX" d="M-789.6-785.9h1121v1030h-1121z"/></defs></g></g><g><defs><path id="bY" d="M169.4-233.4h-1.5v12h12v-12h-10.5zm0 3h9l-1.5-1.5v9l1.5-1.5h-9l1.5 1.5v-9l-1.5 1.5zm-21.5-23h52v52h-52v-52z"/></defs><clipPath id="bZ"><use xlink:href="#bY" overflow="visible"/></clipPath><g clip-path="url(#bZ)"><defs><path id="ca" d="M169.4-231.9h9v9h-9z"/></defs><clipPath id="cb"><use xlink:href="#ca" overflow="visible"/></clipPath><g clip-path="url(#cb)"><defs><path id="cc" d="M-789.6-785.9h1121v1030h-1121z"/></defs></g></g></g><g><defs><path id="cd" d="M169.4-231.9h9v9h-9z"/></defs><clipPath id="ce"><use xlink:href="#cd" overflow="visible"/></clipPath><g clip-path="url(#ce)"><defs><path id="cf" d="M-789.6-785.9h1121v1030h-1121z"/></defs></g></g><g><path fill="#FFF" d="M111.5 66.9H92.8l-13.3 10v34.6h45.2V77.3z"/><path fill="#0C1F2E" d="M126.2 113H78V76.2l14.3-10.8H112l14.2 11.2V113zM81 110h42.2V78L111 68.4H93.3L81 77.7V110z"/></g><g><circle fill="#FFF" cx="101.7" cy="46.4" r="12"/><path fill="#0C1F2E" d="M101.7 59.9c-7.4 0-13.5-6.1-13.5-13.5s6.1-13.5 13.5-13.5 13.5 6.1 13.5 13.5-6 13.5-13.5 13.5zm0-24c-5.8 0-10.5 4.7-10.5 10.5s4.7 10.5 10.5 10.5 10.5-4.7 10.5-10.5-4.7-10.5-10.5-10.5z"/></g><g><path fill="#FFF" d="M178 66.9h-18.7l-13.3 10v34.6h45.2V77.3z"/><path fill="#0C1F2E" d="M192.7 113h-48.2V76.2l14.3-10.8h19.7l14.2 11.2V113zm-45.2-3h42.2V78l-12.2-9.7h-17.7l-12.3 9.3V110z"/></g><g><circle fill="#FFF" cx="168.2" cy="46.4" r="12"/><path fill="#0C1F2E" d="M168.2 59.9c-7.4 0-13.5-6.1-13.5-13.5s6.1-13.5 13.5-13.5 13.5 6.1 13.5 13.5-6 13.5-13.5 13.5zm0-24c-5.8 0-10.5 4.7-10.5 10.5s4.7 10.5 10.5 10.5 10.5-4.7 10.5-10.5-4.7-10.5-10.5-10.5z"/></g><g><path fill="#0F1F2D" d="M136.5 123.5c-.8 0-1.5-.7-1.5-1.5V29c0-.8.7-1.5 1.5-1.5s1.5.7 1.5 1.5v93c0 .8-.7 1.5-1.5 1.5z"/></g></svg>