<svg xmlns="http://www.w3.org/2000/svg" xmlns:xlink="http://www.w3.org/1999/xlink" viewBox="0 0 276 137"><defs><circle id="a" cx="132.1" cy="-95" r="43.5"/></defs><defs><path id="b" d="M132.1-50c-24.8 0-45-20.2-45-45s20.2-45 45-45 45 20.2 45 45-20.1 45-45 45zm0-87c-23.2 0-42 18.8-42 42s18.8 42 42 42 42-18.8 42-42-18.8-42-42-42z"/></defs><use xlink:href="#a" overflow="visible" fill-rule="evenodd" clip-rule="evenodd" fill="#FFF"/><use xlink:href="#b" overflow="visible" fill="#0F1F2D"/><clipPath id="c"><use xlink:href="#a" overflow="visible"/></clipPath><clipPath id="d" clip-path="url(#c)"><use xlink:href="#b" overflow="visible"/></clipPath><g clip-path="url(#d)"><defs><path id="e" d="M-42.4-831h1121V199h-1121z"/></defs><defs><path id="f" d="M1080.1 200.5h-1124v-1033h1124v1033zm-1121-3h1118v-1027h-1118v1027z"/></defs><use xlink:href="#e" overflow="visible" fill="#FFF"/><use xlink:href="#f" overflow="visible" fill="#0F1F2D"/></g><defs><path id="g" d="M367.2-258h-1.5v38h142v-25.1l-.4-.4-11.4-12-.4-.5H367.2zm0 3h127.6l-1.1-.5 11.4 12-.4-1v23l1.5-1.5h-139l1.5 1.5v-35l-1.5 1.5zm-21.5-23h182v78h-182v-78z"/></defs><clipPath id="h"><use xlink:href="#g" overflow="visible"/></clipPath><g clip-path="url(#h)"><defs><path id="i" d="M367.2-256.5h127.6l11.4 12v23h-139z"/></defs></g><defs><path id="j" d="M367.2-256.5h127.6l11.4 12v23h-139z"/></defs><defs><path id="k" d="M400.2-206.6c-8 0-14.5-6.5-14.5-14.5s6.5-14.5 14.5-14.5 14.5 6.5 14.5 14.5-6.4 14.5-14.5 14.5zm0 3c9.7 0 17.5-7.8 17.5-17.5s-7.8-17.5-17.5-17.5-17.5 7.8-17.5 17.5 7.9 17.5 17.5 17.5zm-37.5-55h75v75h-75v-75z"/></defs><clipPath id="l"><use xlink:href="#k" overflow="visible"/></clipPath><g clip-path="url(#l)"><defs><circle id="m" cx="400.2" cy="-221.1" r="16"/></defs></g><defs><circle id="n" cx="400.2" cy="-221.1" r="16"/></defs><defs><path id="o" d="M400.2-213.6c-4.1 0-7.5-3.4-7.5-7.5s3.4-7.5 7.5-7.5 7.5 3.4 7.5 7.5-3.3 7.5-7.5 7.5zm0 3c5.8 0 10.5-4.7 10.5-10.5s-4.7-10.5-10.5-10.5-10.5 4.7-10.5 10.5 4.7 10.5 10.5 10.5zm-30.5-41h61v61h-61v-61z"/></defs><clipPath id="p"><use xlink:href="#o" overflow="visible"/></clipPath><g clip-path="url(#p)"><defs><circle id="q" cx="400.2" cy="-221.1" r="9"/></defs></g><defs><circle id="r" cx="400.2" cy="-221.1" r="9"/></defs><defs><path id="s" d="M466.5-206.6c-8 0-14.5-6.5-14.5-14.5s6.5-14.5 14.5-14.5 14.5 6.5 14.5 14.5-6.5 14.5-14.5 14.5zm0 3c9.7 0 17.5-7.8 17.5-17.5s-7.8-17.5-17.5-17.5-17.5 7.8-17.5 17.5 7.8 17.5 17.5 17.5zm-37.5-55h75v75h-75v-75z"/></defs><clipPath id="t"><use xlink:href="#s" overflow="visible"/></clipPath><g clip-path="url(#t)"><defs><circle id="u" cx="466.5" cy="-221.1" r="16"/></defs></g><defs><circle id="v" cx="466.5" cy="-221.1" r="16"/></defs><defs><path id="w" d="M466.7-261.4L459-277h-27.2v15.6h34.9zm-75.2-.1l7.4-15.6h27.2v15.6h-34.6zm-10.3 5.4l14.1-26.9h66.8l15.3 27.9-96.2-1z"/></defs><defs><path id="x" d="M466.5-213.6c-4.1 0-7.5-3.4-7.5-7.5s3.4-7.5 7.5-7.5 7.5 3.4 7.5 7.5-3.4 7.5-7.5 7.5zm0 3c5.8 0 10.5-4.7 10.5-10.5s-4.7-10.5-10.5-10.5-10.5 4.7-10.5 10.5 4.7 10.5 10.5 10.5zm-30.5-41h61v61h-61v-61z"/></defs><clipPath id="y"><use xlink:href="#x" overflow="visible"/></clipPath><g clip-path="url(#y)"><defs><circle id="z" cx="466.5" cy="-221.1" r="9"/></defs></g><defs><circle id="A" cx="466.5" cy="-221.1" r="9"/></defs><defs><path id="B" d="M91.4-288.4h-1.5v84h108v-84H91.4zm0 3h105l-1.5-1.5v81l1.5-1.5h-105l1.5 1.5v-81l-1.5 1.5zm-21.5-23h148v124h-148v-124z"/></defs><clipPath id="C"><use xlink:href="#B" overflow="visible"/></clipPath><g clip-path="url(#C)"><defs><path id="D" d="M91.4-286.9h105v81h-105z"/></defs></g><defs><path id="E" d="M91.4-286.9h105v81h-105z"/></defs><defs><path id="F" d="M85.4-271.4h-2.2l.9-2.1 9.1-22 .4-.9h100.9l.4.9 9.1 22 .9 2.1H85.4zm0-3h117l-1.4 2.1-9.1-22 1.4.9H94.5l1.4-.9-9.1 22-1.4-2.1zm-22.3 23h161.5v-65H63.1v65z"/></defs><clipPath id="G"><use xlink:href="#F" overflow="visible"/></clipPath><g clip-path="url(#G)"><defs><path id="H" d="M85.4-272.9h117l-9.1-22H94.5z"/></defs></g><defs><path id="I" d="M85.4-272.9h117l-9.1-22H94.5z"/></defs><defs><path id="J" d="M170.4-304.4h-1.5v19h15v-19h-13.5zm0 3h12l-1.5-1.5v16l1.5-1.5h-12l1.5 1.5v-16l-1.5 1.5zm-21.5-23h55v59h-55v-59z"/></defs><clipPath id="K"><use xlink:href="#J" overflow="visible"/></clipPath><g clip-path="url(#K)"><defs><path id="L" d="M170.4-302.9h12v16h-12z"/></defs></g><defs><path id="M" d="M170.4-302.9h12v16h-12z"/></defs><defs><path id="N" d="M104.4-238.4h-1.5v34h24v-34h-22.5zm0 3h21l-1.5-1.5v31l1.5-1.5h-21l1.5 1.5v-31l-1.5 1.5zm-21.5-23h64v74h-64v-74z"/></defs><clipPath id="O"><use xlink:href="#N" overflow="visible"/></clipPath><g clip-path="url(#O)"><defs><path id="P" d="M104.4-236.9h21v31h-21z"/></defs></g><defs><path id="Q" d="M104.4-236.9h21v31h-21z"/></defs><defs><path id="R" d="M105.4-266.4h-1.5v22h22v-22h-20.5zm0 3h19l-1.5-1.5v19l1.5-1.5h-19l1.5 1.5v-19l-1.5 1.5zm-21.5-23h62v62h-62v-62z"/></defs><clipPath id="S"><use xlink:href="#R" overflow="visible"/></clipPath><g clip-path="url(#S)"><defs><path id="T" d="M105.4-264.9h19v19h-19z"/></defs></g><defs><path id="U" d="M105.4-264.9h19v19h-19z"/></defs><defs><path id="V" d="M110.4-261.4h-1.5v12h12v-12h-10.5zm0 3h9l-1.5-1.5v9l1.5-1.5h-9l1.5 1.5v-9l-1.5 1.5zm-21.5-23h52v52h-52v-52z"/></defs><clipPath id="W"><use xlink:href="#V" overflow="visible"/></clipPath><g clip-path="url(#W)"><defs><path id="X" d="M110.4-259.9h9v9h-9z"/></defs></g><defs><path id="Y" d="M110.4-259.9h9v9h-9z"/></defs><defs><path id="Z" d="M135.4-266.4h-1.5v22h22v-22h-20.5zm0 3h19l-1.5-1.5v19l1.5-1.5h-19l1.5 1.5v-19l-1.5 1.5zm-21.5-23h62v62h-62v-62z"/></defs><clipPath id="aa"><use xlink:href="#Z" overflow="visible"/></clipPath><g clip-path="url(#aa)"><defs><path id="ab" d="M135.4-264.9h19v19h-19z"/></defs></g><defs><path id="ac" d="M135.4-264.9h19v19h-19z"/></defs><defs><path id="ad" d="M164.4-266.4h-1.5v22h22v-22h-20.5zm0 3h19l-1.5-1.5v19l1.5-1.5h-19l1.5 1.5v-19l-1.5 1.5zm-21.5-23h62v62h-62v-62z"/></defs><clipPath id="ae"><use xlink:href="#ad" overflow="visible"/></clipPath><g clip-path="url(#ae)"><defs><path id="af" d="M164.4-264.9h19v19h-19z"/></defs></g><defs><path id="ag" d="M164.4-264.9h19v19h-19z"/></defs><defs><path id="ah" d="M135.4-238.4h-1.5v22h22v-22h-20.5zm0 3h19l-1.5-1.5v19l1.5-1.5h-19l1.5 1.5v-19l-1.5 1.5zm-21.5-23h62v62h-62v-62z"/></defs><clipPath id="ai"><use xlink:href="#ah" overflow="visible"/></clipPath><g clip-path="url(#ai)"><defs><path id="aj" d="M135.4-236.9h19v19h-19z"/></defs></g><defs><path id="ak" d="M135.4-236.9h19v19h-19z"/></defs><defs><path id="al" d="M164.4-238.4h-1.5v22h22v-22h-20.5zm0 3h19l-1.5-1.5v19l1.5-1.5h-19l1.5 1.5v-19l-1.5 1.5zm-21.5-23h62v62h-62v-62z"/></defs><clipPath id="am"><use xlink:href="#al" overflow="visible"/></clipPath><g clip-path="url(#am)"><defs><path id="an" d="M164.4-236.9h19v19h-19z"/></defs></g><defs><path id="ao" d="M164.4-236.9h19v19h-19z"/></defs><defs><path id="ap" d="M140.4-261.4h-1.5v12h12v-12h-10.5zm0 3h9l-1.5-1.5v9l1.5-1.5h-9l1.5 1.5v-9l-1.5 1.5zm-21.5-23h52v52h-52v-52z"/></defs><clipPath id="aq"><use xlink:href="#ap" overflow="visible"/></clipPath><g clip-path="url(#aq)"><defs><path id="ar" d="M140.4-259.9h9v9h-9z"/></defs></g><defs><path id="as" d="M140.4-259.9h9v9h-9z"/></defs><defs><path id="at" d="M169.4-261.4h-1.5v12h12v-12h-10.5zm0 3h9l-1.5-1.5v9l1.5-1.5h-9l1.5 1.5v-9l-1.5 1.5zm-21.5-23h52v52h-52v-52z"/></defs><clipPath id="au"><use xlink:href="#at" overflow="visible"/></clipPath><g clip-path="url(#au)"><defs><path id="av" d="M169.4-259.9h9v9h-9z"/></defs></g><g><defs><path id="aw" d="M169.4-259.9h9v9h-9z"/></defs></g><g><defs><path id="ax" d="M140.4-233.4h-1.5v12h12v-12h-10.5zm0 3h9l-1.5-1.5v9l1.5-1.5h-9l1.5 1.5v-9l-1.5 1.5zm-21.5-23h52v52h-52v-52z"/></defs><clipPath id="ay"><use xlink:href="#ax" overflow="visible"/></clipPath><g clip-path="url(#ay)"><defs><path id="az" d="M140.4-231.9h9v9h-9z"/></defs></g></g><g><defs><path id="aA" d="M140.4-231.9h9v9h-9z"/></defs></g><g><defs><path id="aB" d="M169.4-233.4h-1.5v12h12v-12h-10.5zm0 3h9l-1.5-1.5v9l1.5-1.5h-9l1.5 1.5v-9l-1.5 1.5zm-21.5-23h52v52h-52v-52z"/></defs><clipPath id="aC"><use xlink:href="#aB" overflow="visible"/></clipPath><g clip-path="url(#aC)"><defs><path id="aD" d="M169.4-231.9h9v9h-9z"/></defs></g></g><g><defs><path id="aE" d="M169.4-231.9h9v9h-9z"/></defs></g><g><path fill="#FFF" d="M111.5 66.9H92.8l-13.3 10v34.6h45.2V77.3z"/><path fill="#0C1F2E" d="M126.2 113H78V76.2l14.3-10.8H112l14.2 11.2V113zM81 110h42.2V78L111 68.4H93.3L81 77.7V110z"/></g><g><circle fill="#FFF" cx="101.7" cy="46.4" r="12"/><path fill="#0C1F2E" d="M101.7 59.9c-7.4 0-13.5-6.1-13.5-13.5s6.1-13.5 13.5-13.5 13.5 6.1 13.5 13.5-6 13.5-13.5 13.5zm0-24c-5.8 0-10.5 4.7-10.5 10.5s4.7 10.5 10.5 10.5 10.5-4.7 10.5-10.5-4.7-10.5-10.5-10.5z"/></g><g><path fill="#FFF" d="M178 66.9h-18.7l-13.3 10v34.6h45.2V77.3z"/><path fill="#0C1F2E" d="M192.7 113h-48.2V76.2l14.3-10.8h19.7l14.2 11.2V113zm-45.2-3h42.2V78l-12.2-9.7h-17.7l-12.3 9.3V110z"/></g><g><circle fill="#FFF" cx="168.2" cy="46.4" r="12"/><path fill="#0C1F2E" d="M168.2 59.9c-7.4 0-13.5-6.1-13.5-13.5s6.1-13.5 13.5-13.5 13.5 6.1 13.5 13.5-6 13.5-13.5 13.5zm0-24c-5.8 0-10.5 4.7-10.5 10.5s4.7 10.5 10.5 10.5 10.5-4.7 10.5-10.5-4.7-10.5-10.5-10.5z"/></g><g><path fill="#0F1F2D" d="M136.5 123.5c-.8 0-1.5-.7-1.5-1.5V29c0-.8.7-1.5 1.5-1.5s1.5.7 1.5 1.5v93c0 .8-.7 1.5-1.5 1.5z"/></g></svg>