<svg id="Layer_1" data-name="Layer 1" xmlns="http://www.w3.org/2000/svg" viewBox="0 0 276 137"><defs><style>.cls-1,.cls-2,.cls-34,.cls-36{fill:none}.cls-2{clip-rule:evenodd}.cls-34,.cls-35,.cls-36{stroke:#0c1f2e;stroke-miterlimit:10}.cls-34,.cls-35{stroke-width:3px}.cls-35{fill:#fff}.cls-36{stroke-width:2px}</style><clipPath id="clip-path"><circle class="cls-1" cx="434" cy="-246.5" r="50.5"/></clipPath><clipPath id="clip-path-2"><circle class="cls-1" cx="434" cy="-246.5" r="43.5"/></clipPath><clipPath id="clip-path-3"><path class="cls-2" d="M679.67 29.49h-1.5v84h108v-84h-106.5zm0 3h105l-1.5-1.5v81l1.5-1.5h-105l1.5 1.5V31zm-21.5-23h148v124h-148z"/></clipPath><clipPath id="clip-path-4"><path class="cls-1" d="M679.67 30.99h105v81h-105z"/></clipPath><clipPath id="clip-path-6"><path class="cls-2" d="M673.67 46.49h-2.24l.85-2.07 9.07-22 .38-.93H782.6l.38.93 9.07 22 .85 2.07H673.67zm0-3h117l-1.39 2.07-9.07-22 1.39.93h-98.86l1.39-.93-9.07 22zm-22.24 23h161.48v-65H651.43z"/></clipPath><clipPath id="clip-path-7"><path class="cls-2" d="M673.67 44.99h117l-9.07-22h-98.86l-9.07 22z"/></clipPath><clipPath id="clip-path-9"><path class="cls-2" d="M758.67 13.49h-1.5v19h15v-19h-13.5zm0 3h12l-1.5-1.5V31l1.5-1.5h-12l1.5 1.5V15zm-21.5-23h55v59h-55z"/></clipPath><clipPath id="clip-path-10"><path class="cls-1" d="M758.67 14.99h12v16h-12z"/></clipPath><clipPath id="clip-path-12"><path class="cls-2" d="M692.67 79.49h-1.5v34h24v-34h-22.5zm0 3h21l-1.5-1.5v31l1.5-1.5h-21l1.5 1.5V81zm-21.5-23h64v74h-64z"/></clipPath><clipPath id="clip-path-13"><path class="cls-1" d="M692.67 80.99h21v31h-21z"/></clipPath><clipPath id="clip-path-15"><path class="cls-2" d="M693.67 51.49h-1.5v22h22v-22h-20.5zm0 3h19l-1.5-1.5V72l1.5-1.5h-19l1.5 1.5V53zm-21.5-23h62v62h-62z"/></clipPath><clipPath id="clip-path-16"><path class="cls-1" d="M693.67 52.99h19v19h-19z"/></clipPath><clipPath id="clip-path-18"><path class="cls-2" d="M698.67 56.49h-1.5v12h12v-12h-10.5zm0 3h9l-1.5-1.5v9l1.5-1.5h-9l1.5 1.5V58zm-21.5-23h52v52h-52z"/></clipPath><clipPath id="clip-path-19"><path class="cls-1" d="M698.67 57.99h9v9h-9z"/></clipPath><clipPath id="clip-path-21"><path class="cls-2" d="M723.67 51.49h-1.5v22h22v-22h-20.5zm0 3h19l-1.5-1.5V72l1.5-1.5h-19l1.5 1.5V53zm-21.5-23h62v62h-62z"/></clipPath><clipPath id="clip-path-22"><path class="cls-1" d="M723.67 52.99h19v19h-19z"/></clipPath><clipPath id="clip-path-24"><path class="cls-2" d="M752.67 51.49h-1.5v22h22v-22h-20.5zm0 3h19l-1.5-1.5V72l1.5-1.5h-19l1.5 1.5V53zm-21.5-23h62v62h-62z"/></clipPath><clipPath id="clip-path-25"><path class="cls-1" d="M752.67 52.99h19v19h-19z"/></clipPath><clipPath id="clip-path-27"><path class="cls-2" d="M723.67 79.49h-1.5v22h22v-22h-20.5zm0 3h19l-1.5-1.5v19l1.5-1.5h-19l1.5 1.5V81zm-21.5-23h62v62h-62z"/></clipPath><clipPath id="clip-path-28"><path class="cls-1" d="M723.67 80.99h19v19h-19z"/></clipPath><clipPath id="clip-path-30"><path class="cls-2" d="M752.67 79.49h-1.5v22h22v-22h-20.5zm0 3h19l-1.5-1.5v19l1.5-1.5h-19l1.5 1.5V81zm-21.5-23h62v62h-62z"/></clipPath><clipPath id="clip-path-31"><path class="cls-1" d="M752.67 80.99h19v19h-19z"/></clipPath><clipPath id="clip-path-33"><path class="cls-2" d="M728.67 56.49h-1.5v12h12v-12h-10.5zm0 3h9l-1.5-1.5v9l1.5-1.5h-9l1.5 1.5V58zm-21.5-23h52v52h-52z"/></clipPath><clipPath id="clip-path-34"><path class="cls-1" d="M728.67 57.99h9v9h-9z"/></clipPath><clipPath id="clip-path-36"><path class="cls-2" d="M757.67 56.49h-1.5v12h12v-12h-10.5zm0 3h9l-1.5-1.5v9l1.5-1.5h-9l1.5 1.5V58zm-21.5-23h52v52h-52z"/></clipPath><clipPath id="clip-path-37"><path class="cls-1" d="M757.67 57.99h9v9h-9z"/></clipPath><clipPath id="clip-path-39"><path class="cls-2" d="M728.67 84.49h-1.5v12h12v-12h-10.5zm0 3h9l-1.5-1.5v9l1.5-1.5h-9l1.5 1.5V86zm-21.5-23h52v52h-52z"/></clipPath><clipPath id="clip-path-40"><path class="cls-1" d="M728.67 85.99h9v9h-9z"/></clipPath><clipPath id="clip-path-42"><path class="cls-2" d="M757.67 84.49h-1.5v12h12v-12h-10.5zm0 3h9l-1.5-1.5v9l1.5-1.5h-9l1.5 1.5V86zm-21.5-23h52v52h-52z"/></clipPath><clipPath id="clip-path-43"><path class="cls-1" d="M757.67 85.99h9v9h-9z"/></clipPath></defs><path class="cls-34" d="M103.5 34v72"/><path class="cls-35" d="M86.96 50.21h33.88v39.83H86.96z"/><path class="cls-34" d="M94.14 105.73l9.68-9.73 9.83 9.83m8.77-.24l18.62-44.97 18.91 45.26M178.5 34v72m-10.13-.27l9.68-9.73 9.83 9.83"/><path class="cls-35" d="M161.19 50.21h33.88v39.83h-33.88z"/><circle class="cls-35" cx="141.19" cy="78.52" r="26.13"/><ellipse class="cls-34" cx="103.9" cy="41.54" rx="1.14" ry="14.59" transform="rotate(-81.63 103.902 41.53)"/><ellipse class="cls-34" cx="178.08" cy="42.39" rx="14.59" ry="1.14" transform="rotate(-1.41 177.885 42.422)"/><ellipse class="cls-34" cx="178.13" cy="37.26" rx="14.59" ry="1.14" transform="rotate(-1.41 177.95 37.14)"/><path class="cls-34" d="M87 57.5h34m40 0h35"/><path class="cls-36" d="M88.31 51.4l4.56 6.13 5.43-6.13 5.1 6.13 6.28-6.13 4.26 6.13 5.54-6.13m43.06-.57l4.56 6.7 5.43-6.7 5.1 6.7 6.28-6.7 4.26 6.7 5.54-6.7"/></svg>