<svg xmlns="http://www.w3.org/2000/svg" xmlns:xlink="http://www.w3.org/1999/xlink" viewBox="0 0 276 137"><defs><circle id="a" cx="-163.9" cy="227.5" r="43.5"/></defs><defs><path id="b" d="M-163.9 272.5c-24.8 0-45-20.2-45-45s20.2-45 45-45 45 20.2 45 45-20.1 45-45 45zm0-87c-23.2 0-42 18.8-42 42s18.8 42 42 42 42-18.8 42-42-18.8-42-42-42z"/></defs><use xlink:href="#a" overflow="visible" fill-rule="evenodd" clip-rule="evenodd" fill="#FFF"/><use xlink:href="#b" overflow="visible" fill="#0F1F2D"/><clipPath id="c"><use xlink:href="#a" overflow="visible"/></clipPath><clipPath id="d" clip-path="url(#c)"><use xlink:href="#b" overflow="visible"/></clipPath><g clip-path="url(#d)"><defs><path id="e" d="M-338.4-508.5h1121v1030h-1121z"/></defs><defs><path id="f" d="M784.1 523h-1124V-510h1124V523zm-1121-3h1118V-507h-1118V520z"/></defs><use xlink:href="#e" overflow="visible" fill="#FFF"/><use xlink:href="#f" overflow="visible" fill="#0F1F2D"/><clipPath id="g"><use xlink:href="#e" overflow="visible"/></clipPath></g><circle fill="#FFF" cx="197.5" cy="39.5" r="18.5"/><path fill="#0F1F2D" d="M197.5 59.5c-5.3 0-10.4-2.1-14.1-5.9-7.8-7.8-7.8-20.5 0-28.3 3.8-3.8 8.8-5.9 14.1-5.9s10.4 2.1 14.1 5.9c3.8 3.8 5.9 8.8 5.9 14.1 0 5.3-2.1 10.4-5.9 14.1-3.7 3.9-8.8 6-14.1 6zm0-37c-4.5 0-8.8 1.8-12 5-6.6 6.6-6.6 17.4 0 24 3.2 3.2 7.5 5 12 5s8.8-1.8 12-5c3.2-3.2 5-7.5 5-12s-1.8-8.8-5-12c-3.2-3.2-7.5-5-12-5z"/><path d="M199 46.8V50h-2.8v-3.3c-1.9-.3-3.7-1.1-5.1-2.2l1.5-2.9c1.5 1.3 3.8 2.2 5.4 2.2 1.2 0 1.9-.4 1.9-1.3 0-2.6-7.8-1.1-7.8-6.3 0-2.3 1.6-3.8 4.2-4.3v-3.1h2.8v3c1.8.2 3.5.8 4.8 1.6l-1.4 2.9c-1.6-.9-3.5-1.5-4.7-1.5-1 0-1.6.4-1.6 1.1 0 2.6 7.8 1.1 7.8 6.5-.2 2.6-2.3 4.1-5 4.4z"/><defs><path id="h" d="M71.2 64.5h-1.5v38h142V77.4l-.4-.4-11.4-12-.4-.5H71.2zm0 3h127.6l-1.1-.5 11.4 12-.4-1v23l1.5-1.5h-139l1.5 1.5V66l-1.5 1.5zm-21.5-23h182v78h-182v-78z"/></defs><clipPath id="i"><use xlink:href="#h" overflow="visible"/></clipPath><g clip-path="url(#i)"><defs><path id="j" d="M71.2 66h127.6l11.4 12v23h-139z"/></defs><clipPath id="k"><use xlink:href="#j" overflow="visible"/></clipPath><g clip-path="url(#k)"><defs><path id="l" d="M-300.8-469h1121V561h-1121z"/></defs><clipPath id="m"><use xlink:href="#l" overflow="visible"/></clipPath><g clip-path="url(#m)"><path fill-rule="evenodd" clip-rule="evenodd" fill="#FFF" d="M71.2 66h127.6l11.4 12v23h-139z"/></g></g></g><defs><path id="n" d="M71.2 66h127.6l11.4 12v23h-139z"/></defs><clipPath id="o"><use xlink:href="#n" overflow="visible"/></clipPath><g clip-path="url(#o)"><defs><path id="p" d="M-300.8-469h1121V561h-1121z"/></defs><clipPath id="q"><use xlink:href="#p" overflow="visible"/></clipPath><g clip-path="url(#q)"><path fill="#0C1F2E" d="M213.2 104h-145V63H200l13.2 13.8V104zm-139-6h133V79.2L197.5 69H74.2v29z"/></g></g><defs><path id="r" d="M104.2 115.9c-8 0-14.5-6.5-14.5-14.5s6.5-14.5 14.5-14.5 14.5 6.5 14.5 14.5-6.4 14.5-14.5 14.5zm0 3c9.7 0 17.5-7.8 17.5-17.5s-7.8-17.5-17.5-17.5-17.5 7.8-17.5 17.5c0 9.6 7.9 17.5 17.5 17.5zm-37.5-55h75v75h-75v-75z"/></defs><clipPath id="s"><use xlink:href="#r" overflow="visible"/></clipPath><g clip-path="url(#s)"><defs><circle id="t" cx="104.2" cy="101.4" r="16"/></defs><clipPath id="u"><use xlink:href="#t" overflow="visible"/></clipPath><g clip-path="url(#u)"><defs><path id="v" d="M-300.8-469h1121V561h-1121z"/></defs><clipPath id="w"><use xlink:href="#v" overflow="visible"/></clipPath><g clip-path="url(#w)"><circle fill-rule="evenodd" clip-rule="evenodd" fill="#FFF" cx="104.2" cy="101.4" r="16"/></g></g></g><defs><circle id="x" cx="104.2" cy="101.4" r="16"/></defs><clipPath id="y"><use xlink:href="#x" overflow="visible"/></clipPath><g clip-path="url(#y)"><defs><path id="z" d="M-300.8-469h1121V561h-1121z"/></defs><clipPath id="A"><use xlink:href="#z" overflow="visible"/></clipPath><g clip-path="url(#A)"><path fill="#0C1F2E" d="M104.2 120.4c-10.5 0-19-8.5-19-19s8.5-19 19-19 19 8.5 19 19-8.5 19-19 19zm0-32c-7.2 0-13 5.8-13 13s5.8 13 13 13 13-5.8 13-13-5.8-13-13-13z"/></g></g><defs><path id="B" d="M104.2 108.9c-4.1 0-7.5-3.4-7.5-7.5s3.4-7.5 7.5-7.5 7.5 3.4 7.5 7.5-3.3 7.5-7.5 7.5zm0 3c5.8 0 10.5-4.7 10.5-10.5s-4.7-10.5-10.5-10.5-10.5 4.7-10.5 10.5 4.7 10.5 10.5 10.5zm-30.5-41h61v61h-61v-61z"/></defs><clipPath id="C"><use xlink:href="#B" overflow="visible"/></clipPath><g clip-path="url(#C)"><defs><circle id="D" cx="104.2" cy="101.4" r="9"/></defs><clipPath id="E"><use xlink:href="#D" overflow="visible"/></clipPath><g clip-path="url(#E)"><defs><path id="F" d="M-300.8-469h1121V561h-1121z"/></defs><clipPath id="G"><use xlink:href="#F" overflow="visible"/></clipPath><g clip-path="url(#G)"><circle fill-rule="evenodd" clip-rule="evenodd" fill="#FFF" cx="104.2" cy="101.4" r="9"/></g></g></g><defs><circle id="H" cx="104.2" cy="101.4" r="9"/></defs><clipPath id="I"><use xlink:href="#H" overflow="visible"/></clipPath><g clip-path="url(#I)"><defs><path id="J" d="M-300.8-469h1121V561h-1121z"/></defs><clipPath id="K"><use xlink:href="#J" overflow="visible"/></clipPath><g clip-path="url(#K)"><path fill="#0C1F2E" d="M104.2 113.4c-6.6 0-12-5.4-12-12s5.4-12 12-12 12 5.4 12 12-5.3 12-12 12zm0-18c-3.3 0-6 2.7-6 6s2.7 6 6 6 6-2.7 6-6-2.6-6-6-6z"/></g></g><defs><path id="L" d="M170.5 115.9c-8 0-14.5-6.5-14.5-14.5s6.5-14.5 14.5-14.5 14.5 6.5 14.5 14.5-6.5 14.5-14.5 14.5zm0 3c9.7 0 17.5-7.8 17.5-17.5s-7.8-17.5-17.5-17.5-17.5 7.8-17.5 17.5c0 9.6 7.8 17.5 17.5 17.5zm-37.5-55h75v75h-75v-75z"/></defs><clipPath id="M"><use xlink:href="#L" overflow="visible"/></clipPath><g clip-path="url(#M)"><defs><circle id="N" cx="170.5" cy="101.4" r="16"/></defs><clipPath id="O"><use xlink:href="#N" overflow="visible"/></clipPath><g clip-path="url(#O)"><defs><path id="P" d="M-300.8-469h1121V561h-1121z"/></defs><clipPath id="Q"><use xlink:href="#P" overflow="visible"/></clipPath><g clip-path="url(#Q)"><circle fill-rule="evenodd" clip-rule="evenodd" fill="#FFF" cx="170.5" cy="101.4" r="16"/></g></g></g><defs><circle id="R" cx="170.5" cy="101.4" r="16"/></defs><clipPath id="S"><use xlink:href="#R" overflow="visible"/></clipPath><g clip-path="url(#S)"><defs><path id="T" d="M-300.8-469h1121V561h-1121z"/></defs><clipPath id="U"><use xlink:href="#T" overflow="visible"/></clipPath><g clip-path="url(#U)"><path fill="#0C1F2E" d="M170.5 120.4c-10.5 0-19-8.5-19-19s8.5-19 19-19 19 8.5 19 19-8.5 19-19 19zm0-32c-7.2 0-13 5.8-13 13s5.8 13 13 13 13-5.8 13-13-5.9-13-13-13z"/></g></g><defs><path id="V" d="M170.7 61L163 45.4h-27.2V61h34.9zm-75.2 0l7.4-15.6h27.2V61H95.5zm-10.3 5.4l14.1-26.9h66.8l15.3 27.9-96.2-1z"/></defs><clipPath id="W"><use xlink:href="#V" overflow="visible"/></clipPath><g clip-path="url(#W)"><defs><path id="X" d="M-300.8-469h1121V561h-1121z"/></defs><clipPath id="Y"><use xlink:href="#X" overflow="visible"/></clipPath><g clip-path="url(#Y)"><path fill="#FFF" d="M80.2 34.5h106.3v37.9H80.2z"/></g></g><path fill="#0C1F2E" d="M184.1 68.9l-101.4-1L98.5 38h68.6l17 30.9zm-96.4-4l91.3.9L165.3 41h-65L87.7 64.9zm85.4-2.4h-38.7V44H164l9.1 18.5zm-35.7-3h30.9L162.1 47h-24.7v12.5zm-5.8 3H93.2L102 44h29.6v18.5zm-33.7-3h30.7V47h-24.7l-6 12.5z"/><defs><path id="Z" d="M170.5 108.9c-4.1 0-7.5-3.4-7.5-7.5s3.4-7.5 7.5-7.5 7.5 3.4 7.5 7.5-3.4 7.5-7.5 7.5zm0 3c5.8 0 10.5-4.7 10.5-10.5s-4.7-10.5-10.5-10.5-10.5 4.7-10.5 10.5 4.7 10.5 10.5 10.5zm-30.5-41h61v61h-61v-61z"/></defs><clipPath id="aa"><use xlink:href="#Z" overflow="visible"/></clipPath><g clip-path="url(#aa)"><defs><circle id="ab" cx="170.5" cy="101.4" r="9"/></defs><clipPath id="ac"><use xlink:href="#ab" overflow="visible"/></clipPath><g clip-path="url(#ac)"><defs><path id="ad" d="M-300.8-469h1121V561h-1121z"/></defs><clipPath id="ae"><use xlink:href="#ad" overflow="visible"/></clipPath><g clip-path="url(#ae)"><circle fill-rule="evenodd" clip-rule="evenodd" fill="#FFF" cx="170.5" cy="101.4" r="9"/></g></g></g><defs><circle id="af" cx="170.5" cy="101.4" r="9"/></defs><clipPath id="ag"><use xlink:href="#af" overflow="visible"/></clipPath><g clip-path="url(#ag)"><defs><path id="ah" d="M-300.8-469h1121V561h-1121z"/></defs><clipPath id="ai"><use xlink:href="#ah" overflow="visible"/></clipPath><g clip-path="url(#ai)"><path fill="#0C1F2E" d="M170.5 113.4c-6.6 0-12-5.4-12-12s5.4-12 12-12 12 5.4 12 12-5.4 12-12 12zm0-18c-3.3 0-6 2.7-6 6s2.7 6 6 6 6-2.7 6-6-2.7-6-6-6z"/></g></g><path fill="#0C1F2E" d="M134.6 100.7c-.8 0-1.5-.7-1.5-1.5V68.3c0-.8.7-1.5 1.5-1.5s1.5.7 1.5 1.5v30.9c0 .8-.6 1.5-1.5 1.5zM104.1 75.6H95c-.8 0-1.5-.7-1.5-1.5s.7-1.5 1.5-1.5h9.2c.8 0 1.5.7 1.5 1.5s-.7 1.5-1.6 1.5zM152.1 75.6H143c-.8 0-1.5-.7-1.5-1.5s.7-1.5 1.5-1.5h9.2c.8 0 1.5.7 1.5 1.5s-.7 1.5-1.6 1.5z"/><g><defs><circle id="aj" cx="143.3" cy="222.7" r="28"/></defs><defs><path id="ak" d="M143.3 252.1c-16.3 0-29.5-13.2-29.5-29.5s13.2-29.5 29.5-29.5 29.5 13.2 29.5 29.5-13.2 29.5-29.5 29.5zm0-55.9c-14.6 0-26.5 11.9-26.5 26.5s11.9 26.5 26.5 26.5 26.5-11.9 26.5-26.5c0-14.7-11.9-26.5-26.5-26.5z"/></defs><use xlink:href="#aj" overflow="visible" fill-rule="evenodd" clip-rule="evenodd" fill="#FFF"/><use xlink:href="#ak" overflow="visible" fill="#0F1F2D"/><clipPath id="al"><use xlink:href="#aj" overflow="visible"/></clipPath><clipPath id="am" clip-path="url(#al)"><use xlink:href="#ak" overflow="visible"/></clipPath><g clip-path="url(#am)"><defs><path id="an" d="M31.1-250.8h721.1v662.6H31.1z"/></defs><defs><path id="ao" d="M753.7 413.3H29.6v-665.6h724.1v665.6zm-721.1-3h718.1v-659.6H32.6v659.6z"/></defs><use xlink:href="#an" overflow="visible" fill="#FFF"/><use xlink:href="#ao" overflow="visible" fill="#0F1F2D"/><clipPath id="ap"><use xlink:href="#an" overflow="visible"/></clipPath></g></g><g><defs><path id="aq" d="M-204.6 34.1h-1.5v84h108v-84h-106.5zm0 3h105l-1.5-1.5v81l1.5-1.5h-105l1.5 1.5v-81l-1.5 1.5zm-21.5-23h148v124h-148v-124z"/></defs><clipPath id="ar"><use xlink:href="#aq" overflow="visible"/></clipPath><g clip-path="url(#ar)"><defs><path id="as" d="M-204.6 35.6h105v81h-105z"/></defs><clipPath id="at"><use xlink:href="#as" overflow="visible"/></clipPath><g clip-path="url(#at)"><defs><path id="au" d="M-1085.6-463.4h1121v1030h-1121z"/></defs></g></g></g><g><defs><path id="av" d="M-204.6 35.6h105v81h-105z"/></defs><clipPath id="aw"><use xlink:href="#av" overflow="visible"/></clipPath><g clip-path="url(#aw)"><defs><path id="ax" d="M-1085.6-463.4h1121v1030h-1121z"/></defs></g></g><g><defs><path id="ay" d="M-210.6 51.1h-2.2l.9-2.1 9.1-22 .4-.9h100.9l.4.9 9.1 22 .9 2.1h-119.5zm0-3h117l-1.4 2.1-9.1-22 1.4.9h-98.9l1.4-.9-9.1 22-1.3-2.1zm-22.3 23h161.5v-65h-161.5v65z"/></defs><clipPath id="az"><use xlink:href="#ay" overflow="visible"/></clipPath><g clip-path="url(#az)"><defs><path id="aA" d="M-210.6 49.6h117l-9.1-22h-98.8z"/></defs><clipPath id="aB"><use xlink:href="#aA" overflow="visible"/></clipPath><g clip-path="url(#aB)"><defs><path id="aC" d="M-1085.6-463.4h1121v1030h-1121z"/></defs></g></g></g><g><defs><path id="aD" d="M-210.6 49.6h117l-9.1-22h-98.8z"/></defs><clipPath id="aE"><use xlink:href="#aD" overflow="visible"/></clipPath><g clip-path="url(#aE)"><defs><path id="aF" d="M-1085.6-463.4h1121v1030h-1121z"/></defs></g></g><g><defs><path id="aG" d="M-125.6 18.1h-1.5v19h15v-19h-13.5zm0 3h12l-1.5-1.5v16l1.5-1.5h-12l1.5 1.5v-16l-1.5 1.5zm-21.5-23h55v59h-55v-59z"/></defs><clipPath id="aH"><use xlink:href="#aG" overflow="visible"/></clipPath><g clip-path="url(#aH)"><defs><path id="aI" d="M-125.6 19.6h12v16h-12z"/></defs><clipPath id="aJ"><use xlink:href="#aI" overflow="visible"/></clipPath><g clip-path="url(#aJ)"><defs><path id="aK" d="M-1085.6-463.4h1121v1030h-1121z"/></defs></g></g></g><g><defs><path id="aL" d="M-125.6 19.6h12v16h-12z"/></defs><clipPath id="aM"><use xlink:href="#aL" overflow="visible"/></clipPath><g clip-path="url(#aM)"><defs><path id="aN" d="M-1085.6-463.4h1121v1030h-1121z"/></defs></g></g><g><defs><path id="aO" d="M-191.6 84.1h-1.5v34h24v-34h-22.5zm0 3h21l-1.5-1.5v31l1.5-1.5h-21l1.5 1.5v-31l-1.5 1.5zm-21.5-23h64v74h-64v-74z"/></defs><clipPath id="aP"><use xlink:href="#aO" overflow="visible"/></clipPath><g clip-path="url(#aP)"><defs><path id="aQ" d="M-191.6 85.6h21v31h-21z"/></defs><clipPath id="aR"><use xlink:href="#aQ" overflow="visible"/></clipPath><g clip-path="url(#aR)"><defs><path id="aS" d="M-1085.6-463.4h1121v1030h-1121z"/></defs></g></g></g><g><defs><path id="aT" d="M-191.6 85.6h21v31h-21z"/></defs><clipPath id="aU"><use xlink:href="#aT" overflow="visible"/></clipPath><g clip-path="url(#aU)"><defs><path id="aV" d="M-1085.6-463.4h1121v1030h-1121z"/></defs></g></g><g><defs><path id="aW" d="M-190.6 56.1h-1.5v22h22v-22h-20.5zm0 3h19l-1.5-1.5v19l1.5-1.5h-19l1.5 1.5v-19l-1.5 1.5zm-21.5-23h62v62h-62v-62z"/></defs><clipPath id="aX"><use xlink:href="#aW" overflow="visible"/></clipPath><g clip-path="url(#aX)"><defs><path id="aY" d="M-190.6 57.6h19v19h-19z"/></defs><clipPath id="aZ"><use xlink:href="#aY" overflow="visible"/></clipPath><g clip-path="url(#aZ)"><defs><path id="ba" d="M-1085.6-463.4h1121v1030h-1121z"/></defs></g></g></g><g><defs><path id="bb" d="M-190.6 57.6h19v19h-19z"/></defs><clipPath id="bc"><use xlink:href="#bb" overflow="visible"/></clipPath><g clip-path="url(#bc)"><defs><path id="bd" d="M-1085.6-463.4h1121v1030h-1121z"/></defs></g></g><g><defs><path id="be" d="M-185.6 61.1h-1.5v12h12v-12h-10.5zm0 3h9l-1.5-1.5v9l1.5-1.5h-9l1.5 1.5v-9l-1.5 1.5zm-21.5-23h52v52h-52v-52z"/></defs><clipPath id="bf"><use xlink:href="#be" overflow="visible"/></clipPath><g clip-path="url(#bf)"><defs><path id="bg" d="M-185.6 62.6h9v9h-9z"/></defs><clipPath id="bh"><use xlink:href="#bg" overflow="visible"/></clipPath><g clip-path="url(#bh)"><defs><path id="bi" d="M-1085.6-463.4h1121v1030h-1121z"/></defs></g></g></g><g><defs><path id="bj" d="M-185.6 62.6h9v9h-9z"/></defs><clipPath id="bk"><use xlink:href="#bj" overflow="visible"/></clipPath><g clip-path="url(#bk)"><defs><path id="bl" d="M-1085.6-463.4h1121v1030h-1121z"/></defs></g></g><g><defs><path id="bm" d="M-160.6 56.1h-1.5v22h22v-22h-20.5zm0 3h19l-1.5-1.5v19l1.5-1.5h-19l1.5 1.5v-19l-1.5 1.5zm-21.5-23h62v62h-62v-62z"/></defs><clipPath id="bn"><use xlink:href="#bm" overflow="visible"/></clipPath><g clip-path="url(#bn)"><defs><path id="bo" d="M-160.6 57.6h19v19h-19z"/></defs><clipPath id="bp"><use xlink:href="#bo" overflow="visible"/></clipPath><g clip-path="url(#bp)"><defs><path id="bq" d="M-1085.6-463.4h1121v1030h-1121z"/></defs></g></g></g><g><defs><path id="br" d="M-160.6 57.6h19v19h-19z"/></defs><clipPath id="bs"><use xlink:href="#br" overflow="visible"/></clipPath><g clip-path="url(#bs)"><defs><path id="bt" d="M-1085.6-463.4h1121v1030h-1121z"/></defs></g></g><g><defs><path id="bu" d="M-131.6 56.1h-1.5v22h22v-22h-20.5zm0 3h19l-1.5-1.5v19l1.5-1.5h-19l1.5 1.5v-19l-1.5 1.5zm-21.5-23h62v62h-62v-62z"/></defs><clipPath id="bv"><use xlink:href="#bu" overflow="visible"/></clipPath><g clip-path="url(#bv)"><defs><path id="bw" d="M-131.6 57.6h19v19h-19z"/></defs><clipPath id="bx"><use xlink:href="#bw" overflow="visible"/></clipPath><g clip-path="url(#bx)"><defs><path id="by" d="M-1085.6-463.4h1121v1030h-1121z"/></defs></g></g></g><g><defs><path id="bz" d="M-131.6 57.6h19v19h-19z"/></defs><clipPath id="bA"><use xlink:href="#bz" overflow="visible"/></clipPath><g clip-path="url(#bA)"><defs><path id="bB" d="M-1085.6-463.4h1121v1030h-1121z"/></defs></g></g><g><defs><path id="bC" d="M-160.6 84.1h-1.5v22h22v-22h-20.5zm0 3h19l-1.5-1.5v19l1.5-1.5h-19l1.5 1.5v-19l-1.5 1.5zm-21.5-23h62v62h-62v-62z"/></defs><clipPath id="bD"><use xlink:href="#bC" overflow="visible"/></clipPath><g clip-path="url(#bD)"><defs><path id="bE" d="M-160.6 85.6h19v19h-19z"/></defs><clipPath id="bF"><use xlink:href="#bE" overflow="visible"/></clipPath><g clip-path="url(#bF)"><defs><path id="bG" d="M-1085.6-463.4h1121v1030h-1121z"/></defs></g></g></g><g><defs><path id="bH" d="M-160.6 85.6h19v19h-19z"/></defs><clipPath id="bI"><use xlink:href="#bH" overflow="visible"/></clipPath><g clip-path="url(#bI)"><defs><path id="bJ" d="M-1085.6-463.4h1121v1030h-1121z"/></defs></g></g><g><defs><path id="bK" d="M-131.6 84.1h-1.5v22h22v-22h-20.5zm0 3h19l-1.5-1.5v19l1.5-1.5h-19l1.5 1.5v-19l-1.5 1.5zm-21.5-23h62v62h-62v-62z"/></defs><clipPath id="bL"><use xlink:href="#bK" overflow="visible"/></clipPath><g clip-path="url(#bL)"><defs><path id="bM" d="M-131.6 85.6h19v19h-19z"/></defs><clipPath id="bN"><use xlink:href="#bM" overflow="visible"/></clipPath><g clip-path="url(#bN)"><defs><path id="bO" d="M-1085.6-463.4h1121v1030h-1121z"/></defs></g></g></g><g><defs><path id="bP" d="M-131.6 85.6h19v19h-19z"/></defs><clipPath id="bQ"><use xlink:href="#bP" overflow="visible"/></clipPath><g clip-path="url(#bQ)"><defs><path id="bR" d="M-1085.6-463.4h1121v1030h-1121z"/></defs></g></g><g><defs><path id="bS" d="M-155.6 61.1h-1.5v12h12v-12h-10.5zm0 3h9l-1.5-1.5v9l1.5-1.5h-9l1.5 1.5v-9l-1.5 1.5zm-21.5-23h52v52h-52v-52z"/></defs><clipPath id="bT"><use xlink:href="#bS" overflow="visible"/></clipPath><g clip-path="url(#bT)"><defs><path id="bU" d="M-155.6 62.6h9v9h-9z"/></defs><clipPath id="bV"><use xlink:href="#bU" overflow="visible"/></clipPath><g clip-path="url(#bV)"><defs><path id="bW" d="M-1085.6-463.4h1121v1030h-1121z"/></defs></g></g></g><g><defs><path id="bX" d="M-155.6 62.6h9v9h-9z"/></defs><clipPath id="bY"><use xlink:href="#bX" overflow="visible"/></clipPath><g clip-path="url(#bY)"><defs><path id="bZ" d="M-1085.6-463.4h1121v1030h-1121z"/></defs></g></g><g><defs><path id="ca" d="M-126.6 61.1h-1.5v12h12v-12h-10.5zm0 3h9l-1.5-1.5v9l1.5-1.5h-9l1.5 1.5v-9l-1.5 1.5zm-21.5-23h52v52h-52v-52z"/></defs><clipPath id="cb"><use xlink:href="#ca" overflow="visible"/></clipPath><g clip-path="url(#cb)"><defs><path id="cc" d="M-126.6 62.6h9v9h-9z"/></defs><clipPath id="cd"><use xlink:href="#cc" overflow="visible"/></clipPath><g clip-path="url(#cd)"><defs><path id="ce" d="M-1085.6-463.4h1121v1030h-1121z"/></defs></g></g></g><g><defs><path id="cf" d="M-126.6 62.6h9v9h-9z"/></defs><clipPath id="cg"><use xlink:href="#cf" overflow="visible"/></clipPath><g clip-path="url(#cg)"><defs><path id="ch" d="M-1085.6-463.4h1121v1030h-1121z"/></defs></g></g><g><defs><path id="ci" d="M-155.6 89.1h-1.5v12h12v-12h-10.5zm0 3h9l-1.5-1.5v9l1.5-1.5h-9l1.5 1.5v-9l-1.5 1.5zm-21.5-23h52v52h-52v-52z"/></defs><clipPath id="cj"><use xlink:href="#ci" overflow="visible"/></clipPath><g clip-path="url(#cj)"><defs><path id="ck" d="M-155.6 90.6h9v9h-9z"/></defs><clipPath id="cl"><use xlink:href="#ck" overflow="visible"/></clipPath><g clip-path="url(#cl)"><defs><path id="cm" d="M-1085.6-463.4h1121v1030h-1121z"/></defs></g></g></g><g><defs><path id="cn" d="M-155.6 90.6h9v9h-9z"/></defs><clipPath id="co"><use xlink:href="#cn" overflow="visible"/></clipPath><g clip-path="url(#co)"><defs><path id="cp" d="M-1085.6-463.4h1121v1030h-1121z"/></defs></g></g><g><defs><path id="cq" d="M-126.6 89.1h-1.5v12h12v-12h-10.5zm0 3h9l-1.5-1.5v9l1.5-1.5h-9l1.5 1.5v-9l-1.5 1.5zm-21.5-23h52v52h-52v-52z"/></defs><clipPath id="cr"><use xlink:href="#cq" overflow="visible"/></clipPath><g clip-path="url(#cr)"><defs><path id="cs" d="M-126.6 90.6h9v9h-9z"/></defs><clipPath id="ct"><use xlink:href="#cs" overflow="visible"/></clipPath><g clip-path="url(#ct)"><defs><path id="cu" d="M-1085.6-463.4h1121v1030h-1121z"/></defs></g></g></g><g><defs><path id="cv" d="M-126.6 90.6h9v9h-9z"/></defs><clipPath id="cw"><use xlink:href="#cv" overflow="visible"/></clipPath><g clip-path="url(#cw)"><defs><path id="cx" d="M-1085.6-463.4h1121v1030h-1121z"/></defs></g></g></svg>