<svg xmlns="http://www.w3.org/2000/svg" xmlns:xlink="http://www.w3.org/1999/xlink" viewBox="0 0 276 137"><defs><circle id="a" cx="-163.9" cy="227.5" r="43.5"/></defs><defs><path id="b" d="M-163.9 272.5c-24.8 0-45-20.2-45-45s20.2-45 45-45 45 20.2 45 45-20.1 45-45 45zm0-87c-23.2 0-42 18.8-42 42s18.8 42 42 42 42-18.8 42-42-18.8-42-42-42z"/></defs><use xlink:href="#a" overflow="visible" fill-rule="evenodd" clip-rule="evenodd" fill="#FFF"/><use xlink:href="#b" overflow="visible" fill="#0F1F2D"/><clipPath id="c"><use xlink:href="#a" overflow="visible"/></clipPath><clipPath id="d" clip-path="url(#c)"><use xlink:href="#b" overflow="visible"/></clipPath><g clip-path="url(#d)"><defs><path id="e" d="M-338.4-508.5h1121v1030h-1121z"/></defs><defs><path id="f" d="M784.1 523h-1124V-510h1124V523zm-1121-3h1118V-507h-1118V520z"/></defs><use xlink:href="#e" overflow="visible" fill="#FFF"/><use xlink:href="#f" overflow="visible" fill="#0F1F2D"/></g><circle fill="#FFF" cx="197.5" cy="39.5" r="18.5"/><path fill="#0F1F2D" d="M197.5 59.5c-5.3 0-10.4-2.1-14.1-5.9-7.8-7.8-7.8-20.5 0-28.3 3.8-3.8 8.8-5.9 14.1-5.9s10.4 2.1 14.1 5.9c3.8 3.8 5.9 8.8 5.9 14.1 0 5.3-2.1 10.4-5.9 14.1-3.7 3.9-8.8 6-14.1 6zm0-37c-4.5 0-8.8 1.8-12 5-6.6 6.6-6.6 17.4 0 24 3.2 3.2 7.5 5 12 5s8.8-1.8 12-5c3.2-3.2 5-7.5 5-12s-1.8-8.8-5-12c-3.2-3.2-7.5-5-12-5z"/><path d="M199 46.8V50h-2.8v-3.3c-1.9-.3-3.7-1.1-5.1-2.2l1.5-2.9c1.5 1.3 3.8 2.2 5.4 2.2 1.2 0 1.9-.4 1.9-1.3 0-2.6-7.8-1.1-7.8-6.3 0-2.3 1.6-3.8 4.2-4.3v-3.1h2.8v3c1.8.2 3.5.8 4.8 1.6l-1.4 2.9c-1.6-.9-3.5-1.5-4.7-1.5-1 0-1.6.4-1.6 1.1 0 2.6 7.8 1.1 7.8 6.5-.2 2.6-2.3 4.1-5 4.4z"/><defs><path id="g" d="M71.2 64.5h-1.5v38h142V77.4l-.4-.4-11.4-12-.4-.5H71.2zm0 3h127.6l-1.1-.5 11.4 12-.4-1v23l1.5-1.5h-139l1.5 1.5V66l-1.5 1.5zm-21.5-23h182v78h-182v-78z"/></defs><clipPath id="h"><use xlink:href="#g" overflow="visible"/></clipPath><g clip-path="url(#h)"><defs><path id="i" d="M71.2 66h127.6l11.4 12v23h-139z"/></defs><clipPath id="j"><use xlink:href="#i" overflow="visible"/></clipPath><g clip-path="url(#j)"><defs><path id="k" d="M-300.8-469h1121V561h-1121z"/></defs><clipPath id="l"><use xlink:href="#k" overflow="visible"/></clipPath><g clip-path="url(#l)"><path fill-rule="evenodd" clip-rule="evenodd" fill="#FFF" d="M71.2 66h127.6l11.4 12v23h-139z"/></g></g></g><defs><path id="m" d="M71.2 66h127.6l11.4 12v23h-139z"/></defs><clipPath id="n"><use xlink:href="#m" overflow="visible"/></clipPath><g clip-path="url(#n)"><defs><path id="o" d="M-300.8-469h1121V561h-1121z"/></defs><clipPath id="p"><use xlink:href="#o" overflow="visible"/></clipPath><g clip-path="url(#p)"><path fill="#0C1F2E" d="M213.2 104h-145V63H200l13.2 13.8V104zm-139-6h133V79.2L197.5 69H74.2v29z"/></g></g><defs><path id="q" d="M104.2 115.9c-8 0-14.5-6.5-14.5-14.5s6.5-14.5 14.5-14.5 14.5 6.5 14.5 14.5-6.4 14.5-14.5 14.5zm0 3c9.7 0 17.5-7.8 17.5-17.5s-7.8-17.5-17.5-17.5-17.5 7.8-17.5 17.5c0 9.6 7.9 17.5 17.5 17.5zm-37.5-55h75v75h-75v-75z"/></defs><clipPath id="r"><use xlink:href="#q" overflow="visible"/></clipPath><g clip-path="url(#r)"><defs><circle id="s" cx="104.2" cy="101.4" r="16"/></defs><clipPath id="t"><use xlink:href="#s" overflow="visible"/></clipPath><g clip-path="url(#t)"><defs><path id="u" d="M-300.8-469h1121V561h-1121z"/></defs><clipPath id="v"><use xlink:href="#u" overflow="visible"/></clipPath><g clip-path="url(#v)"><circle fill-rule="evenodd" clip-rule="evenodd" fill="#FFF" cx="104.2" cy="101.4" r="16"/></g></g></g><defs><circle id="w" cx="104.2" cy="101.4" r="16"/></defs><clipPath id="x"><use xlink:href="#w" overflow="visible"/></clipPath><g clip-path="url(#x)"><defs><path id="y" d="M-300.8-469h1121V561h-1121z"/></defs><clipPath id="z"><use xlink:href="#y" overflow="visible"/></clipPath><g clip-path="url(#z)"><path fill="#0C1F2E" d="M104.2 120.4c-10.5 0-19-8.5-19-19s8.5-19 19-19 19 8.5 19 19-8.5 19-19 19zm0-32c-7.2 0-13 5.8-13 13s5.8 13 13 13 13-5.8 13-13-5.8-13-13-13z"/></g></g><defs><path id="A" d="M104.2 108.9c-4.1 0-7.5-3.4-7.5-7.5s3.4-7.5 7.5-7.5 7.5 3.4 7.5 7.5-3.3 7.5-7.5 7.5zm0 3c5.8 0 10.5-4.7 10.5-10.5s-4.7-10.5-10.5-10.5-10.5 4.7-10.5 10.5 4.7 10.5 10.5 10.5zm-30.5-41h61v61h-61v-61z"/></defs><clipPath id="B"><use xlink:href="#A" overflow="visible"/></clipPath><g clip-path="url(#B)"><defs><circle id="C" cx="104.2" cy="101.4" r="9"/></defs><clipPath id="D"><use xlink:href="#C" overflow="visible"/></clipPath><g clip-path="url(#D)"><defs><path id="E" d="M-300.8-469h1121V561h-1121z"/></defs><clipPath id="F"><use xlink:href="#E" overflow="visible"/></clipPath><g clip-path="url(#F)"><circle fill-rule="evenodd" clip-rule="evenodd" fill="#FFF" cx="104.2" cy="101.4" r="9"/></g></g></g><defs><circle id="G" cx="104.2" cy="101.4" r="9"/></defs><clipPath id="H"><use xlink:href="#G" overflow="visible"/></clipPath><g clip-path="url(#H)"><defs><path id="I" d="M-300.8-469h1121V561h-1121z"/></defs><clipPath id="J"><use xlink:href="#I" overflow="visible"/></clipPath><g clip-path="url(#J)"><path fill="#0C1F2E" d="M104.2 113.4c-6.6 0-12-5.4-12-12s5.4-12 12-12 12 5.4 12 12-5.3 12-12 12zm0-18c-3.3 0-6 2.7-6 6s2.7 6 6 6 6-2.7 6-6-2.6-6-6-6z"/></g></g><defs><path id="K" d="M170.5 115.9c-8 0-14.5-6.5-14.5-14.5s6.5-14.5 14.5-14.5 14.5 6.5 14.5 14.5-6.5 14.5-14.5 14.5zm0 3c9.7 0 17.5-7.8 17.5-17.5s-7.8-17.5-17.5-17.5-17.5 7.8-17.5 17.5c0 9.6 7.8 17.5 17.5 17.5zm-37.5-55h75v75h-75v-75z"/></defs><clipPath id="L"><use xlink:href="#K" overflow="visible"/></clipPath><g clip-path="url(#L)"><defs><circle id="M" cx="170.5" cy="101.4" r="16"/></defs><clipPath id="N"><use xlink:href="#M" overflow="visible"/></clipPath><g clip-path="url(#N)"><defs><path id="O" d="M-300.8-469h1121V561h-1121z"/></defs><clipPath id="P"><use xlink:href="#O" overflow="visible"/></clipPath><g clip-path="url(#P)"><circle fill-rule="evenodd" clip-rule="evenodd" fill="#FFF" cx="170.5" cy="101.4" r="16"/></g></g></g><defs><circle id="Q" cx="170.5" cy="101.4" r="16"/></defs><clipPath id="R"><use xlink:href="#Q" overflow="visible"/></clipPath><g clip-path="url(#R)"><defs><path id="S" d="M-300.8-469h1121V561h-1121z"/></defs><clipPath id="T"><use xlink:href="#S" overflow="visible"/></clipPath><g clip-path="url(#T)"><path fill="#0C1F2E" d="M170.5 120.4c-10.5 0-19-8.5-19-19s8.5-19 19-19 19 8.5 19 19-8.5 19-19 19zm0-32c-7.2 0-13 5.8-13 13s5.8 13 13 13 13-5.8 13-13-5.9-13-13-13z"/></g></g><defs><path id="U" d="M170.7 61L163 45.4h-27.2V61h34.9zm-75.2 0l7.4-15.6h27.2V61H95.5zm-10.3 5.4l14.1-26.9h66.8l15.3 27.9-96.2-1z"/></defs><clipPath id="V"><use xlink:href="#U" overflow="visible"/></clipPath><g clip-path="url(#V)"><defs><path id="W" d="M-300.8-469h1121V561h-1121z"/></defs><clipPath id="X"><use xlink:href="#W" overflow="visible"/></clipPath><g clip-path="url(#X)"><path fill="#FFF" d="M80.2 34.5h106.3v37.9H80.2z"/></g></g><path fill="#0C1F2E" d="M184.1 68.9l-101.4-1L98.5 38h68.6l17 30.9zm-96.4-4l91.3.9L165.3 41h-65L87.7 64.9zm85.4-2.4h-38.7V44H164l9.1 18.5zm-35.7-3h30.9L162.1 47h-24.7v12.5zm-5.8 3H93.2L102 44h29.6v18.5zm-33.7-3h30.7V47h-24.7l-6 12.5z"/><defs><path id="Y" d="M170.5 108.9c-4.1 0-7.5-3.4-7.5-7.5s3.4-7.5 7.5-7.5 7.5 3.4 7.5 7.5-3.4 7.5-7.5 7.5zm0 3c5.8 0 10.5-4.7 10.5-10.5s-4.7-10.5-10.5-10.5-10.5 4.7-10.5 10.5 4.7 10.5 10.5 10.5zm-30.5-41h61v61h-61v-61z"/></defs><clipPath id="Z"><use xlink:href="#Y" overflow="visible"/></clipPath><g clip-path="url(#Z)"><defs><circle id="aa" cx="170.5" cy="101.4" r="9"/></defs><clipPath id="ab"><use xlink:href="#aa" overflow="visible"/></clipPath><g clip-path="url(#ab)"><defs><path id="ac" d="M-300.8-469h1121V561h-1121z"/></defs><clipPath id="ad"><use xlink:href="#ac" overflow="visible"/></clipPath><g clip-path="url(#ad)"><circle fill-rule="evenodd" clip-rule="evenodd" fill="#FFF" cx="170.5" cy="101.4" r="9"/></g></g></g><defs><circle id="ae" cx="170.5" cy="101.4" r="9"/></defs><clipPath id="af"><use xlink:href="#ae" overflow="visible"/></clipPath><g clip-path="url(#af)"><defs><path id="ag" d="M-300.8-469h1121V561h-1121z"/></defs><clipPath id="ah"><use xlink:href="#ag" overflow="visible"/></clipPath><g clip-path="url(#ah)"><path fill="#0C1F2E" d="M170.5 113.4c-6.6 0-12-5.4-12-12s5.4-12 12-12 12 5.4 12 12-5.4 12-12 12zm0-18c-3.3 0-6 2.7-6 6s2.7 6 6 6 6-2.7 6-6-2.7-6-6-6z"/></g></g><path fill="#0C1F2E" d="M134.6 100.7c-.8 0-1.5-.7-1.5-1.5V68.3c0-.8.7-1.5 1.5-1.5s1.5.7 1.5 1.5v30.9c0 .8-.6 1.5-1.5 1.5zm-30.5-25.1H95c-.8 0-1.5-.7-1.5-1.5s.7-1.5 1.5-1.5h9.2c.8 0 1.5.7 1.5 1.5s-.7 1.5-1.6 1.5zm48 0H143c-.8 0-1.5-.7-1.5-1.5s.7-1.5 1.5-1.5h9.2c.8 0 1.5.7 1.5 1.5s-.7 1.5-1.6 1.5z"/><defs><circle id="ai" cx="143.3" cy="222.7" r="28"/></defs><defs><path id="aj" d="M143.3 252.1c-16.3 0-29.5-13.2-29.5-29.5s13.2-29.5 29.5-29.5 29.5 13.2 29.5 29.5-13.2 29.5-29.5 29.5zm0-55.9c-14.6 0-26.5 11.9-26.5 26.5s11.9 26.5 26.5 26.5 26.5-11.9 26.5-26.5c0-14.7-11.9-26.5-26.5-26.5z"/></defs><use xlink:href="#ai" overflow="visible" fill-rule="evenodd" clip-rule="evenodd" fill="#FFF"/><use xlink:href="#aj" overflow="visible" fill="#0F1F2D"/><clipPath id="ak"><use xlink:href="#ai" overflow="visible"/></clipPath><clipPath id="al" clip-path="url(#ak)"><use xlink:href="#aj" overflow="visible"/></clipPath><g clip-path="url(#al)"><defs><path id="am" d="M31.1-250.8h721.1v662.6H31.1z"/></defs><defs><path id="an" d="M753.7 413.3H29.6v-665.6h724.1v665.6zm-721.1-3h718.1v-659.6H32.6v659.6z"/></defs><use xlink:href="#am" overflow="visible" fill="#FFF"/><use xlink:href="#an" overflow="visible" fill="#0F1F2D"/></g><defs><path id="ao" d="M-204.6 34.1h-1.5v84h108v-84h-106.5zm0 3h105l-1.5-1.5v81l1.5-1.5h-105l1.5 1.5v-81l-1.5 1.5zm-21.5-23h148v124h-148v-124z"/></defs><defs><path id="ap" d="M-210.6 51.1h-2.2l.9-2.1 9.1-22 .4-.9h100.9l.4.9 9.1 22 .9 2.1h-119.5zm0-3h117l-1.4 2.1-9.1-22 1.4.9h-98.9l1.4-.9-9.1 22-1.3-2.1zm-22.3 23h161.5v-65h-161.5v65z"/></defs><defs><path id="aq" d="M-125.6 18.1h-1.5v19h15v-19h-13.5zm0 3h12l-1.5-1.5v16l1.5-1.5h-12l1.5 1.5v-16l-1.5 1.5zm-21.5-23h55v59h-55v-59z"/></defs><defs><path id="ar" d="M-191.6 84.1h-1.5v34h24v-34h-22.5zm0 3h21l-1.5-1.5v31l1.5-1.5h-21l1.5 1.5v-31l-1.5 1.5zm-21.5-23h64v74h-64v-74z"/></defs><defs><path id="as" d="M-190.6 56.1h-1.5v22h22v-22h-20.5zm0 3h19l-1.5-1.5v19l1.5-1.5h-19l1.5 1.5v-19l-1.5 1.5zm-21.5-23h62v62h-62v-62z"/></defs><defs><path id="at" d="M-185.6 61.1h-1.5v12h12v-12h-10.5zm0 3h9l-1.5-1.5v9l1.5-1.5h-9l1.5 1.5v-9l-1.5 1.5zm-21.5-23h52v52h-52v-52z"/></defs><defs><path id="au" d="M-160.6 56.1h-1.5v22h22v-22h-20.5zm0 3h19l-1.5-1.5v19l1.5-1.5h-19l1.5 1.5v-19l-1.5 1.5zm-21.5-23h62v62h-62v-62z"/></defs><defs><path id="av" d="M-131.6 56.1h-1.5v22h22v-22h-20.5zm0 3h19l-1.5-1.5v19l1.5-1.5h-19l1.5 1.5v-19l-1.5 1.5zm-21.5-23h62v62h-62v-62z"/></defs><defs><path id="aw" d="M-160.6 84.1h-1.5v22h22v-22h-20.5zm0 3h19l-1.5-1.5v19l1.5-1.5h-19l1.5 1.5v-19l-1.5 1.5zm-21.5-23h62v62h-62v-62z"/></defs><defs><path id="ax" d="M-131.6 84.1h-1.5v22h22v-22h-20.5zm0 3h19l-1.5-1.5v19l1.5-1.5h-19l1.5 1.5v-19l-1.5 1.5zm-21.5-23h62v62h-62v-62z"/></defs><defs><path id="ay" d="M-155.6 61.1h-1.5v12h12v-12h-10.5zm0 3h9l-1.5-1.5v9l1.5-1.5h-9l1.5 1.5v-9l-1.5 1.5zm-21.5-23h52v52h-52v-52z"/></defs><defs><path id="az" d="M-126.6 61.1h-1.5v12h12v-12h-10.5zm0 3h9l-1.5-1.5v9l1.5-1.5h-9l1.5 1.5v-9l-1.5 1.5zm-21.5-23h52v52h-52v-52z"/></defs><defs><path id="aA" d="M-155.6 89.1h-1.5v12h12v-12h-10.5zm0 3h9l-1.5-1.5v9l1.5-1.5h-9l1.5 1.5v-9l-1.5 1.5zm-21.5-23h52v52h-52v-52z"/></defs><defs><path id="aB" d="M-126.6 89.1h-1.5v12h12v-12h-10.5zm0 3h9l-1.5-1.5v9l1.5-1.5h-9l1.5 1.5v-9l-1.5 1.5zm-21.5-23h52v52h-52v-52z"/></defs></svg>