<svg id="Layer_1" data-name="Layer 1" xmlns="http://www.w3.org/2000/svg" viewBox="0 0 276 137"><defs><style>.cls-1,.cls-2,.cls-3,.cls-9{fill:none}.cls-2{clip-rule:evenodd}.cls-3{fill-rule:evenodd}.cls-4{clip-path:url(#clip-path)}.cls-5{clip-path:url(#clip-path-2)}.cls-6{clip-path:url(#clip-path-3)}.cls-7{clip-path:url(#clip-path-4)}.cls-8{fill:#fff}.cls-10,.cls-8,.cls-9{stroke:#0e1f2d;stroke-miterlimit:10}.cls-8,.cls-9{stroke-linecap:round;stroke-width:3px}.cls-10{fill:#0c1f2e}.cls-11{clip-path:url(#clip-path-5)}.cls-12{clip-path:url(#clip-path-6)}.cls-13{clip-path:url(#clip-path-8)}.cls-14{clip-path:url(#clip-path-9)}.cls-15{clip-path:url(#clip-path-11)}.cls-16{clip-path:url(#clip-path-12)}.cls-17{clip-path:url(#clip-path-14)}.cls-18{clip-path:url(#clip-path-15)}.cls-19{clip-path:url(#clip-path-17)}.cls-20{clip-path:url(#clip-path-18)}.cls-21{clip-path:url(#clip-path-20)}.cls-22{clip-path:url(#clip-path-21)}.cls-23{clip-path:url(#clip-path-23)}.cls-24{clip-path:url(#clip-path-24)}.cls-25{clip-path:url(#clip-path-26)}.cls-26{clip-path:url(#clip-path-27)}.cls-27{clip-path:url(#clip-path-29)}.cls-28{clip-path:url(#clip-path-30)}.cls-29{clip-path:url(#clip-path-32)}.cls-30{clip-path:url(#clip-path-33)}.cls-31{clip-path:url(#clip-path-35)}.cls-32{clip-path:url(#clip-path-36)}.cls-33{clip-path:url(#clip-path-38)}.cls-34{clip-path:url(#clip-path-39)}.cls-35{clip-path:url(#clip-path-41)}.cls-36{clip-path:url(#clip-path-42)}.cls-37{clip-path:url(#clip-path-44)}.cls-38{clip-path:url(#clip-path-45)}</style><clipPath id="clip-path"><circle class="cls-1" cx="-454" cy="-89.5" r="50.5"/></clipPath><clipPath id="clip-path-2"><circle class="cls-1" cx="-454" cy="-89.5" r="43.5"/></clipPath><clipPath id="clip-path-3"><circle class="cls-1" cx="-163.22" cy="-89.5" r="50.5"/></clipPath><clipPath id="clip-path-4"><circle class="cls-1" cx="-163.22" cy="-89.5" r="43.5"/></clipPath><clipPath id="clip-path-5"><path class="cls-2" d="M-208.33 186.49h-1.5v84h108v-84h-106.5zm0 3h105l-1.5-1.5v81l1.5-1.5h-105l1.5 1.5V188zm-21.5-23h148v124h-148z"/></clipPath><clipPath id="clip-path-6"><path class="cls-1" d="M-208.33 187.99h105v81h-105z"/></clipPath><clipPath id="clip-path-8"><path class="cls-2" d="M-214.33 203.49h-2.24l.85-2.07 9.07-22 .38-.93h100.87l.38.93 9.07 22 .85 2.07h-119.23zm0-3h117l-1.39 2.07-9.07-22 1.39.93h-98.86l1.39-.93-9.07 22zm-22.24 23h161.48v-65h-161.48z"/></clipPath><clipPath id="clip-path-9"><path class="cls-2" d="M-214.33 201.99h117l-9.07-22h-98.86l-9.07 22z"/></clipPath><clipPath id="clip-path-11"><path class="cls-2" d="M-129.33 170.49h-1.5v19h15v-19h-13.5zm0 3h12l-1.5-1.5v16l1.5-1.5h-12l1.5 1.5V172zm-21.5-23h55v59h-55z"/></clipPath><clipPath id="clip-path-12"><path class="cls-1" d="M-129.33 171.99h12v16h-12z"/></clipPath><clipPath id="clip-path-14"><path class="cls-2" d="M-195.33 236.49h-1.5v34h24v-34h-22.5zm0 3h21l-1.5-1.5v31l1.5-1.5h-21l1.5 1.5V238zm-21.5-23h64v74h-64z"/></clipPath><clipPath id="clip-path-15"><path class="cls-1" d="M-195.33 237.99h21v31h-21z"/></clipPath><clipPath id="clip-path-17"><path class="cls-2" d="M-194.33 208.49h-1.5v22h22v-22h-20.5zm0 3h19l-1.5-1.5v19l1.5-1.5h-19l1.5 1.5V210zm-21.5-23h62v62h-62z"/></clipPath><clipPath id="clip-path-18"><path class="cls-1" d="M-194.33 209.99h19v19h-19z"/></clipPath><clipPath id="clip-path-20"><path class="cls-2" d="M-189.33 213.49h-1.5v12h12v-12h-10.5zm0 3h9l-1.5-1.5v9l1.5-1.5h-9l1.5 1.5v-9zm-21.5-23h52v52h-52z"/></clipPath><clipPath id="clip-path-21"><path class="cls-1" d="M-189.33 214.99h9v9h-9z"/></clipPath><clipPath id="clip-path-23"><path class="cls-2" d="M-164.33 208.49h-1.5v22h22v-22h-20.5zm0 3h19l-1.5-1.5v19l1.5-1.5h-19l1.5 1.5V210zm-21.5-23h62v62h-62z"/></clipPath><clipPath id="clip-path-24"><path class="cls-1" d="M-164.33 209.99h19v19h-19z"/></clipPath><clipPath id="clip-path-26"><path class="cls-2" d="M-135.33 208.49h-1.5v22h22v-22h-20.5zm0 3h19l-1.5-1.5v19l1.5-1.5h-19l1.5 1.5V210zm-21.5-23h62v62h-62z"/></clipPath><clipPath id="clip-path-27"><path class="cls-1" d="M-135.33 209.99h19v19h-19z"/></clipPath><clipPath id="clip-path-29"><path class="cls-2" d="M-164.33 236.49h-1.5v22h22v-22h-20.5zm0 3h19l-1.5-1.5v19l1.5-1.5h-19l1.5 1.5V238zm-21.5-23h62v62h-62z"/></clipPath><clipPath id="clip-path-30"><path class="cls-1" d="M-164.33 237.99h19v19h-19z"/></clipPath><clipPath id="clip-path-32"><path class="cls-2" d="M-135.33 236.49h-1.5v22h22v-22h-20.5zm0 3h19l-1.5-1.5v19l1.5-1.5h-19l1.5 1.5V238zm-21.5-23h62v62h-62z"/></clipPath><clipPath id="clip-path-33"><path class="cls-1" d="M-135.33 237.99h19v19h-19z"/></clipPath><clipPath id="clip-path-35"><path class="cls-2" d="M-159.33 213.49h-1.5v12h12v-12h-10.5zm0 3h9l-1.5-1.5v9l1.5-1.5h-9l1.5 1.5v-9zm-21.5-23h52v52h-52z"/></clipPath><clipPath id="clip-path-36"><path class="cls-1" d="M-159.33 214.99h9v9h-9z"/></clipPath><clipPath id="clip-path-38"><path class="cls-2" d="M-130.33 213.49h-1.5v12h12v-12h-10.5zm0 3h9l-1.5-1.5v9l1.5-1.5h-9l1.5 1.5v-9zm-21.5-23h52v52h-52z"/></clipPath><clipPath id="clip-path-39"><path class="cls-1" d="M-130.33 214.99h9v9h-9z"/></clipPath><clipPath id="clip-path-41"><path class="cls-2" d="M-159.33 241.49h-1.5v12h12v-12h-10.5zm0 3h9l-1.5-1.5v9l1.5-1.5h-9l1.5 1.5v-9zm-21.5-23h52v52h-52z"/></clipPath><clipPath id="clip-path-42"><path class="cls-1" d="M-159.33 242.99h9v9h-9z"/></clipPath><clipPath id="clip-path-44"><path class="cls-2" d="M-130.33 241.49h-1.5v12h12v-12h-10.5zm0 3h9l-1.5-1.5v9l1.5-1.5h-9l1.5 1.5v-9zm-21.5-23h52v52h-52z"/></clipPath><clipPath id="clip-path-45"><path class="cls-1" d="M-130.33 242.99h9v9h-9z"/></clipPath></defs><title>EXPERIENTIAL ICONS</title><path class="cls-8" d="M169.99 113.85h-63.98V30.2h63.98v83.65z"/><path class="cls-9" d="M98.47 23.94h79.07v96.2H98.47z"/><path class="cls-8" d="M144.88 20a6.83 6.83 0 0 0-13.6 0H123v10h30V20z"/><circle class="cls-10" cx="138" cy="20.47" r="2"/><path class="cls-9" d="M116 44.5h43M116 58.5h43M116 72.5h43M116 86.5h43M116 100.5h43"/></svg>