<svg xmlns="http://www.w3.org/2000/svg" xmlns:xlink="http://www.w3.org/1999/xlink" viewBox="0 0 276 137"><defs><path id="a" d="M379.4-134.8h-1.5v84h108v-84H379.4zm0 3h105l-1.5-1.5v81l1.5-1.5h-105l1.5 1.5v-81l-1.5 1.5zm-21.5-23h148v124h-148v-124z"/></defs><clipPath id="b"><use xlink:href="#a" overflow="visible"/></clipPath><g clip-path="url(#b)"><defs><path id="c" d="M379.4-133.3h105v81h-105z"/></defs></g><defs><path id="d" d="M379.4-133.3h105v81h-105z"/></defs><defs><path id="e" d="M373.4-117.8h-2.2l.9-2.1 9.1-22 .4-.9h100.9l.4.9 9.1 22 .9 2.1H373.4zm0-3h117l-1.4 2.1-9.1-22 1.4.9h-98.9l1.4-.9-9.1 22-1.3-2.1zm-22.3 23h161.5v-65H351.1v65z"/></defs><clipPath id="f"><use xlink:href="#e" overflow="visible"/></clipPath><g clip-path="url(#f)"><defs><path id="g" d="M373.4-119.3h117l-9.1-22h-98.8z"/></defs></g><defs><path id="h" d="M373.4-119.3h117l-9.1-22h-98.8z"/></defs><defs><path id="i" d="M458.4-150.8h-1.5v19h15v-19h-13.5zm0 3h12l-1.5-1.5v16l1.5-1.5h-12l1.5 1.5v-16l-1.5 1.5zm-21.5-23h55v59h-55v-59z"/></defs><clipPath id="j"><use xlink:href="#i" overflow="visible"/></clipPath><g clip-path="url(#j)"><defs><path id="k" d="M458.4-149.3h12v16h-12z"/></defs></g><defs><path id="l" d="M458.4-149.3h12v16h-12z"/></defs><defs><path id="m" d="M392.4-84.8h-1.5v34h24v-34h-22.5zm0 3h21l-1.5-1.5v31l1.5-1.5h-21l1.5 1.5v-31l-1.5 1.5zm-21.5-23h64v74h-64v-74z"/></defs><clipPath id="n"><use xlink:href="#m" overflow="visible"/></clipPath><g clip-path="url(#n)"><defs><path id="o" d="M392.4-83.3h21v31h-21z"/></defs></g><defs><path id="p" d="M392.4-83.3h21v31h-21z"/></defs><defs><path id="q" d="M393.4-112.8h-1.5v22h22v-22h-20.5zm0 3h19l-1.5-1.5v19l1.5-1.5h-19l1.5 1.5v-19l-1.5 1.5zm-21.5-23h62v62h-62v-62z"/></defs><clipPath id="r"><use xlink:href="#q" overflow="visible"/></clipPath><g clip-path="url(#r)"><defs><path id="s" d="M393.4-111.3h19v19h-19z"/></defs></g><defs><path id="t" d="M393.4-111.3h19v19h-19z"/></defs><defs><path id="u" d="M398.4-107.8h-1.5v12h12v-12h-10.5zm0 3h9l-1.5-1.5v9l1.5-1.5h-9l1.5 1.5v-9l-1.5 1.5zm-21.5-23h52v52h-52v-52z"/></defs><clipPath id="v"><use xlink:href="#u" overflow="visible"/></clipPath><g clip-path="url(#v)"><defs><path id="w" d="M398.4-106.3h9v9h-9z"/></defs></g><defs><path id="x" d="M398.4-106.3h9v9h-9z"/></defs><defs><path id="y" d="M423.4-112.8h-1.5v22h22v-22h-20.5zm0 3h19l-1.5-1.5v19l1.5-1.5h-19l1.5 1.5v-19l-1.5 1.5zm-21.5-23h62v62h-62v-62z"/></defs><clipPath id="z"><use xlink:href="#y" overflow="visible"/></clipPath><g clip-path="url(#z)"><defs><path id="A" d="M423.4-111.3h19v19h-19z"/></defs></g><defs><path id="B" d="M423.4-111.3h19v19h-19z"/></defs><defs><path id="C" d="M452.4-112.8h-1.5v22h22v-22h-20.5zm0 3h19l-1.5-1.5v19l1.5-1.5h-19l1.5 1.5v-19l-1.5 1.5zm-21.5-23h62v62h-62v-62z"/></defs><clipPath id="D"><use xlink:href="#C" overflow="visible"/></clipPath><g clip-path="url(#D)"><defs><path id="E" d="M452.4-111.3h19v19h-19z"/></defs></g><defs><path id="F" d="M452.4-111.3h19v19h-19z"/></defs><defs><path id="G" d="M423.4-84.8h-1.5v22h22v-22h-20.5zm0 3h19l-1.5-1.5v19l1.5-1.5h-19l1.5 1.5v-19l-1.5 1.5zm-21.5-23h62v62h-62v-62z"/></defs><clipPath id="H"><use xlink:href="#G" overflow="visible"/></clipPath><g clip-path="url(#H)"><defs><path id="I" d="M423.4-83.3h19v19h-19z"/></defs></g><defs><path id="J" d="M423.4-83.3h19v19h-19z"/></defs><defs><path id="K" d="M452.4-84.8h-1.5v22h22v-22h-20.5zm0 3h19l-1.5-1.5v19l1.5-1.5h-19l1.5 1.5v-19l-1.5 1.5zm-21.5-23h62v62h-62v-62z"/></defs><clipPath id="L"><use xlink:href="#K" overflow="visible"/></clipPath><g clip-path="url(#L)"><defs><path id="M" d="M452.4-83.3h19v19h-19z"/></defs></g><defs><path id="N" d="M452.4-83.3h19v19h-19z"/></defs><defs><path id="O" d="M428.4-107.8h-1.5v12h12v-12h-10.5zm0 3h9l-1.5-1.5v9l1.5-1.5h-9l1.5 1.5v-9l-1.5 1.5zm-21.5-23h52v52h-52v-52z"/></defs><clipPath id="P"><use xlink:href="#O" overflow="visible"/></clipPath><g clip-path="url(#P)"><defs><path id="Q" d="M428.4-106.3h9v9h-9z"/></defs></g><defs><path id="R" d="M428.4-106.3h9v9h-9z"/></defs><defs><path id="S" d="M457.4-107.8h-1.5v12h12v-12h-10.5zm0 3h9l-1.5-1.5v9l1.5-1.5h-9l1.5 1.5v-9l-1.5 1.5zm-21.5-23h52v52h-52v-52z"/></defs><clipPath id="T"><use xlink:href="#S" overflow="visible"/></clipPath><g clip-path="url(#T)"><defs><path id="U" d="M457.4-106.3h9v9h-9z"/></defs></g><defs><path id="V" d="M457.4-106.3h9v9h-9z"/></defs><defs><path id="W" d="M428.4-79.8h-1.5v12h12v-12h-10.5zm0 3h9l-1.5-1.5v9l1.5-1.5h-9l1.5 1.5v-9l-1.5 1.5zm-21.5-23h52v52h-52v-52z"/></defs><clipPath id="X"><use xlink:href="#W" overflow="visible"/></clipPath><g clip-path="url(#X)"><defs><path id="Y" d="M428.4-78.3h9v9h-9z"/></defs></g><defs><path id="Z" d="M428.4-78.3h9v9h-9z"/></defs><defs><path id="aa" d="M457.4-79.8h-1.5v12h12v-12h-10.5zm0 3h9l-1.5-1.5v9l1.5-1.5h-9l1.5 1.5v-9l-1.5 1.5zm-21.5-23h52v52h-52v-52z"/></defs><clipPath id="ab"><use xlink:href="#aa" overflow="visible"/></clipPath><g clip-path="url(#ab)"><defs><path id="ac" d="M457.4-78.3h9v9h-9z"/></defs></g><defs><path id="ad" d="M457.4-78.3h9v9h-9z"/></defs><defs><path id="ae" d="M979.4-451.8h-1.5v84h108v-84H979.4zm0 3h105l-1.5-1.5v81l1.5-1.5h-105l1.5 1.5v-81l-1.5 1.5zm-21.5-23h148v124h-148v-124z"/></defs><clipPath id="af"><use xlink:href="#ae" overflow="visible"/></clipPath><g clip-path="url(#af)"><defs><path id="ag" d="M979.4-450.3h105v81h-105z"/></defs></g><defs><path id="ah" d="M979.4-450.3h105v81h-105z"/></defs><defs><path id="ai" d="M973.4-434.8h-2.2l.9-2.1 9.1-22 .4-.9h100.9l.4.9 9.1 22 .9 2.1H973.4zm0-3h117l-1.4 2.1-9.1-22 1.4.9h-98.9l1.4-.9-9.1 22-1.3-2.1zm-22.3 23h161.5v-65H951.1v65z"/></defs><clipPath id="aj"><use xlink:href="#ai" overflow="visible"/></clipPath><g clip-path="url(#aj)"><defs><path id="ak" d="M973.4-436.3h117l-9.1-22h-98.8z"/></defs></g><defs><path id="al" d="M973.4-436.3h117l-9.1-22h-98.8z"/></defs><defs><path id="am" d="M1058.4-467.8h-1.5v19h15v-19h-13.5zm0 3h12l-1.5-1.5v16l1.5-1.5h-12l1.5 1.5v-16l-1.5 1.5zm-21.5-23h55v59h-55v-59z"/></defs><clipPath id="an"><use xlink:href="#am" overflow="visible"/></clipPath><g clip-path="url(#an)"><defs><path id="ao" d="M1058.4-466.3h12v16h-12z"/></defs></g><defs><path id="ap" d="M1058.4-466.3h12v16h-12z"/></defs><defs><path id="aq" d="M992.4-401.8h-1.5v34h24v-34h-22.5zm0 3h21l-1.5-1.5v31l1.5-1.5h-21l1.5 1.5v-31l-1.5 1.5zm-21.5-23h64v74h-64v-74z"/></defs><clipPath id="ar"><use xlink:href="#aq" overflow="visible"/></clipPath><g clip-path="url(#ar)"><defs><path id="as" d="M992.4-400.3h21v31h-21z"/></defs></g><defs><path id="at" d="M992.4-400.3h21v31h-21z"/></defs><defs><path id="au" d="M993.4-429.8h-1.5v22h22v-22h-20.5zm0 3h19l-1.5-1.5v19l1.5-1.5h-19l1.5 1.5v-19l-1.5 1.5zm-21.5-23h62v62h-62v-62z"/></defs><clipPath id="av"><use xlink:href="#au" overflow="visible"/></clipPath><g clip-path="url(#av)"><defs><path id="aw" d="M993.4-428.3h19v19h-19z"/></defs></g><defs><path id="ax" d="M993.4-428.3h19v19h-19z"/></defs><defs><path id="ay" d="M998.4-424.8h-1.5v12h12v-12h-10.5zm0 3h9l-1.5-1.5v9l1.5-1.5h-9l1.5 1.5v-9l-1.5 1.5zm-21.5-23h52v52h-52v-52z"/></defs><clipPath id="az"><use xlink:href="#ay" overflow="visible"/></clipPath><g clip-path="url(#az)"><defs><path id="aA" d="M998.4-423.3h9v9h-9z"/></defs></g><defs><path id="aB" d="M998.4-423.3h9v9h-9z"/></defs><defs><path id="aC" d="M1023.4-429.8h-1.5v22h22v-22h-20.5zm0 3h19l-1.5-1.5v19l1.5-1.5h-19l1.5 1.5v-19l-1.5 1.5zm-21.5-23h62v62h-62v-62z"/></defs><clipPath id="aD"><use xlink:href="#aC" overflow="visible"/></clipPath><g clip-path="url(#aD)"><defs><path id="aE" d="M1023.4-428.3h19v19h-19z"/></defs></g><defs><path id="aF" d="M1023.4-428.3h19v19h-19z"/></defs><defs><path id="aG" d="M1052.4-429.8h-1.5v22h22v-22h-20.5zm0 3h19l-1.5-1.5v19l1.5-1.5h-19l1.5 1.5v-19l-1.5 1.5zm-21.5-23h62v62h-62v-62z"/></defs><clipPath id="aH"><use xlink:href="#aG" overflow="visible"/></clipPath><g clip-path="url(#aH)"><defs><path id="aI" d="M1052.4-428.3h19v19h-19z"/></defs></g><defs><path id="aJ" d="M1052.4-428.3h19v19h-19z"/></defs><defs><path id="aK" d="M1023.4-401.8h-1.5v22h22v-22h-20.5zm0 3h19l-1.5-1.5v19l1.5-1.5h-19l1.5 1.5v-19l-1.5 1.5zm-21.5-23h62v62h-62v-62z"/></defs><clipPath id="aL"><use xlink:href="#aK" overflow="visible"/></clipPath><g clip-path="url(#aL)"><defs><path id="aM" d="M1023.4-400.3h19v19h-19z"/></defs></g><defs><path id="aN" d="M1023.4-400.3h19v19h-19z"/></defs><defs><path id="aO" d="M1052.4-401.8h-1.5v22h22v-22h-20.5zm0 3h19l-1.5-1.5v19l1.5-1.5h-19l1.5 1.5v-19l-1.5 1.5zm-21.5-23h62v62h-62v-62z"/></defs><clipPath id="aP"><use xlink:href="#aO" overflow="visible"/></clipPath><g clip-path="url(#aP)"><defs><path id="aQ" d="M1052.4-400.3h19v19h-19z"/></defs></g><defs><path id="aR" d="M1052.4-400.3h19v19h-19z"/></defs><defs><path id="aS" d="M1028.4-424.8h-1.5v12h12v-12h-10.5zm0 3h9l-1.5-1.5v9l1.5-1.5h-9l1.5 1.5v-9l-1.5 1.5zm-21.5-23h52v52h-52v-52z"/></defs><clipPath id="aT"><use xlink:href="#aS" overflow="visible"/></clipPath><g clip-path="url(#aT)"><defs><path id="aU" d="M1028.4-423.3h9v9h-9z"/></defs></g><defs><path id="aV" d="M1028.4-423.3h9v9h-9z"/></defs><defs><path id="aW" d="M1057.4-424.8h-1.5v12h12v-12h-10.5zm0 3h9l-1.5-1.5v9l1.5-1.5h-9l1.5 1.5v-9l-1.5 1.5zm-21.5-23h52v52h-52v-52z"/></defs><clipPath id="aX"><use xlink:href="#aW" overflow="visible"/></clipPath><g clip-path="url(#aX)"><defs><path id="aY" d="M1057.4-423.3h9v9h-9z"/></defs></g><defs><path id="aZ" d="M1057.4-423.3h9v9h-9z"/></defs><defs><path id="ba" d="M1028.4-396.8h-1.5v12h12v-12h-10.5zm0 3h9l-1.5-1.5v9l1.5-1.5h-9l1.5 1.5v-9l-1.5 1.5zm-21.5-23h52v52h-52v-52z"/></defs><clipPath id="bb"><use xlink:href="#ba" overflow="visible"/></clipPath><g clip-path="url(#bb)"><defs><path id="bc" d="M1028.4-395.3h9v9h-9z"/></defs></g><defs><path id="bd" d="M1028.4-395.3h9v9h-9z"/></defs><defs><path id="be" d="M1057.4-396.8h-1.5v12h12v-12h-10.5zm0 3h9l-1.5-1.5v9l1.5-1.5h-9l1.5 1.5v-9l-1.5 1.5zm-21.5-23h52v52h-52v-52z"/></defs><clipPath id="bf"><use xlink:href="#be" overflow="visible"/></clipPath><g clip-path="url(#bf)"><defs><path id="bg" d="M1057.4-395.3h9v9h-9z"/></defs></g><defs><path id="bh" d="M1057.4-395.3h9v9h-9z"/></defs><path fill="#0C1F2E" d="M137.2 85.5h-.1c-4.9-.5-8.6-5.6-8.6-11.9v-.7c0-.8.7-1.5 1.6-1.4.8 0 1.5.7 1.4 1.6v.6c0 4.7 2.6 8.6 5.9 8.9.8.1 1.4.8 1.4 1.6-.2.7-.8 1.3-1.6 1.3z"/><path fill-rule="evenodd" clip-rule="evenodd" fill="#FFF" d="M71 45.5v17.1c0 4.9 28.2 8.9 63.5 8.9s63.5-4 63.5-8.9V45.5H71z"/><path fill="#0C1F2E" d="M135 73c-2.7 0-65-.1-65-10.4V43.5h130v19.1c0 10.3-62.3 10.4-65 10.4zM73 46.5v16.1c.9 2.6 22.4 7.4 62 7.4s61.1-4.8 62-7.5V46.4H73z"/><ellipse fill-rule="evenodd" clip-rule="evenodd" fill="#FFF" cx="135.2" cy="44.7" rx="64" ry="8.9"/><path fill="#0C1F2E" d="M135.2 55.2c-17.2 0-33.3-.9-45.4-2.6-17.8-2.5-20-5.5-20-7.8s2.3-5.3 20-7.8c12.1-1.7 28.3-2.6 45.4-2.6s33.3.9 45.4 2.6c17.8 2.5 20 5.5 20 7.8s-2.3 5.3-20 7.8c-12.1 1.6-28.2 2.6-45.4 2.6zM72.8 44.7c1.2 2.7 22.9 7.4 62.5 7.4s61.3-4.7 62.5-7.4c-1.2-2.7-22.9-7.4-62.5-7.4-39.7 0-61.3 4.7-62.5 7.4z"/><circle fill-rule="evenodd" clip-rule="evenodd" fill="#FFF" cx="137.4" cy="96.3" r="17.7"/><path fill="#0C1F2E" d="M137.4 115.5c-10.6 0-19.2-8.6-19.2-19.2S126.8 77 137.4 77s19.2 8.6 19.2 19.2-8.6 19.3-19.2 19.3zm0-35.5c-9 0-16.2 7.3-16.2 16.2s7.3 16.2 16.2 16.2 16.2-7.3 16.2-16.2S146.4 80 137.4 80z"/><path fill="#0C1F2E" d="M139.1 85.4c-.7 0-1.3-.5-1.5-1.2-.2-.8.3-1.6 1.1-1.8 3-.7 5.3-4.5 5.3-8.8 0-4.9-2.8-8.9-6.3-8.9h-.2c-.8 0-1.5-.6-1.6-1.4 0-.8.6-1.5 1.4-1.6h.3c5.1 0 9.3 5.4 9.3 11.9 0 5.8-3.2 10.7-7.6 11.7 0 .1-.1.1-.2.1z"/><path fill="#FFF" d="M143.9 94.4c0 3.6-6.5 12.2-6.5 12.2S131 98 131 94.4c0-3.6 2.9-6.5 6.5-6.5 3.5.1 6.4 3 6.4 6.5z"/><path fill="#0F1F2D" d="M137.4 109.2l-1.2-1.6c-1.1-1.5-6.8-9.3-6.8-13.1 0-4.4 3.6-8 8-8s8 3.6 8 8c0 3.9-5.6 11.6-6.8 13.1l-1.2 1.6zm0-19.7c-2.7 0-5 2.2-5 5 0 1.8 2.6 6.3 5 9.7 2.3-3.3 5-7.8 5-9.7 0-2.8-2.2-5-5-5z"/><circle fill="#0F1F2D" cx="137.4" cy="93.8" r="2.1"/><defs><path id="bi" d="M70.5 184H69v90h134v-90H70.5zm0 3h131l-1.5-1.5v87l1.5-1.5h-131l1.5 1.5v-87l-1.5 1.5zM49 164h174v130H49V164z"/></defs><clipPath id="bj"><use xlink:href="#bi" overflow="visible"/></clipPath><g clip-path="url(#bj)"><defs><path id="bk" d="M70.5 185.5h131v87h-131z"/></defs></g><defs><path id="bl" d="M70.5 185.5h131v87h-131z"/></defs><defs><path id="bm" d="M75.5 189H74v80h124v-80H75.5zm0 3h121l-1.5-1.5v77l1.5-1.5h-121l1.5 1.5v-77l-1.5 1.5zM54 169h164v120H54V169z"/></defs><clipPath id="bn"><use xlink:href="#bm" overflow="visible"/></clipPath><g clip-path="url(#bn)"><defs><path id="bo" d="M75.5 190.5h121v77h-121z"/></defs></g><defs><path id="bp" d="M75.5 190.5h121v77h-121z"/></defs><defs><path id="bq" d="M140.5 204H139v6h47v-6h-45.5zm0 3h44l-1.5-1.5v3l1.5-1.5h-44l1.5 1.5v-3l-1.5 1.5zM119 184h87v46h-87v-46z"/></defs><clipPath id="br"><use xlink:href="#bq" overflow="visible"/></clipPath><g clip-path="url(#br)"><defs><path id="bs" d="M140.5 205.5h44v3h-44z"/></defs></g><defs><path id="bt" d="M140.5 205.5h44v3h-44z"/></defs><defs><path id="bu" d="M140.5 210H139v6h47v-6h-45.5zm0 3h44l-1.5-1.5v3l1.5-1.5h-44l1.5 1.5v-3l-1.5 1.5zM119 190h87v46h-87v-46z"/></defs><clipPath id="bv"><use xlink:href="#bu" overflow="visible"/></clipPath><g clip-path="url(#bv)"><defs><path id="bw" d="M140.5 211.5h44v3h-44z"/></defs></g><g><defs><path id="bx" d="M140.5 211.5h44v3h-44z"/></defs></g><g><defs><path id="by" d="M140.5 216H139v6h47v-6h-45.5zm0 3h44l-1.5-1.5v3l1.5-1.5h-44l1.5 1.5v-3l-1.5 1.5zM119 196h87v46h-87v-46z"/></defs><clipPath id="bz"><use xlink:href="#by" overflow="visible"/></clipPath><g clip-path="url(#bz)"><defs><path id="bA" d="M140.5 217.5h44v3h-44z"/></defs></g></g><g><defs><path id="bB" d="M140.5 217.5h44v3h-44z"/></defs></g><g><defs><path id="bC" d="M140.5 222H139v6h47v-6h-45.5zm0 3h44l-1.5-1.5v3l1.5-1.5h-44l1.5 1.5v-3l-1.5 1.5zM119 202h87v46h-87v-46z"/></defs><clipPath id="bD"><use xlink:href="#bC" overflow="visible"/></clipPath><g clip-path="url(#bD)"><defs><path id="bE" d="M140.5 223.5h44v3h-44z"/></defs></g></g><g><defs><path id="bF" d="M140.5 223.5h44v3h-44z"/></defs></g><g><defs><path id="bG" d="M364.1 184h-1.5v90h134v-90H364.1zm0 3h131l-1.5-1.5v87l1.5-1.5h-131l1.5 1.5v-87l-1.5 1.5zm-21.5-23h174v130h-174V164z"/></defs><clipPath id="bH"><use xlink:href="#bG" overflow="visible"/></clipPath><g clip-path="url(#bH)"><defs><path id="bI" d="M364.1 185.5h131v87h-131z"/></defs></g></g><g><defs><path id="bJ" d="M364.1 185.5h131v87h-131z"/></defs></g><g><defs><path id="bK" d="M369.1 189h-1.5v80h124v-80H369.1zm0 3h121l-1.5-1.5v77l1.5-1.5h-121l1.5 1.5v-77l-1.5 1.5zm-21.5-23h164v120h-164V169z"/></defs><clipPath id="bL"><use xlink:href="#bK" overflow="visible"/></clipPath><g clip-path="url(#bL)"><defs><path id="bM" d="M369.1 190.5h121v77h-121z"/></defs></g></g><g><defs><path id="bN" d="M369.1 190.5h121v77h-121z"/></defs></g><g><defs><path id="bO" d="M434.1 204h-1.5v6h47v-6h-45.5zm0 3h44l-1.5-1.5v3l1.5-1.5h-44l1.5 1.5v-3l-1.5 1.5zm-21.5-23h87v46h-87v-46z"/></defs><clipPath id="bP"><use xlink:href="#bO" overflow="visible"/></clipPath><g clip-path="url(#bP)"><defs><path id="bQ" d="M434.1 205.5h44v3h-44z"/></defs></g></g><g><defs><path id="bR" d="M434.1 205.5h44v3h-44z"/></defs></g><g><defs><path id="bS" d="M434.1 210h-1.5v6h47v-6h-45.5zm0 3h44l-1.5-1.5v3l1.5-1.5h-44l1.5 1.5v-3l-1.5 1.5zm-21.5-23h87v46h-87v-46z"/></defs><clipPath id="bT"><use xlink:href="#bS" overflow="visible"/></clipPath><g clip-path="url(#bT)"><defs><path id="bU" d="M434.1 211.5h44v3h-44z"/></defs></g></g><g><defs><path id="bV" d="M434.1 211.5h44v3h-44z"/></defs></g><g><defs><path id="bW" d="M434.1 216h-1.5v6h47v-6h-45.5zm0 3h44l-1.5-1.5v3l1.5-1.5h-44l1.5 1.5v-3l-1.5 1.5zm-21.5-23h87v46h-87v-46z"/></defs><clipPath id="bX"><use xlink:href="#bW" overflow="visible"/></clipPath><g clip-path="url(#bX)"><defs><path id="bY" d="M434.1 217.5h44v3h-44z"/></defs></g></g><g><defs><path id="bZ" d="M434.1 217.5h44v3h-44z"/></defs></g><g><defs><path id="ca" d="M434.1 222h-1.5v6h47v-6h-45.5zm0 3h44l-1.5-1.5v3l1.5-1.5h-44l1.5 1.5v-3l-1.5 1.5zm-21.5-23h87v46h-87v-46z"/></defs><clipPath id="cb"><use xlink:href="#ca" overflow="visible"/></clipPath><g clip-path="url(#cb)"><defs><path id="cc" d="M434.1 223.5h44v3h-44z"/></defs></g></g><g><defs><path id="cd" d="M434.1 223.5h44v3h-44z"/></defs></g></svg>