<svg id="Layer_1" data-name="Layer 1" xmlns="http://www.w3.org/2000/svg" viewBox="0 0 276 137"><defs><style>.cls-1{fill:none}.cls-2{fill:#0c1f2e}.cls-3,.cls-5{fill:#fff}.cls-4{fill:#101f2c}.cls-5{stroke:#101f2c;stroke-linecap:round;stroke-miterlimit:10;stroke-width:2.17px}</style><clipPath id="clip-path"><circle class="cls-1" cx="-454" cy="225.5" r="50.5"/></clipPath><clipPath id="clip-path-2"><circle class="cls-1" cx="-454" cy="225.5" r="43.5"/></clipPath><clipPath id="clip-path-3"><circle class="cls-1" cx="434" cy="225.5" r="50.5"/></clipPath><clipPath id="clip-path-4"><circle class="cls-1" cx="434" cy="225.5" r="43.5"/></clipPath></defs><path class="cls-2" d="M90 24v74H78v1.7a13.14 13.14 0 0 0 12.81 13h94.21a12.74 12.74 0 0 0 13-12.5l.18-76.2zm.93 85.74a10.09 10.09 0 0 1-9.69-8.58h91a12.61 12.61 0 0 0 4.47 8.5zm104.16-10.09a10 10 0 0 1-10 9.85c-5.81 0-10.05-4-10.05-9.78v-1.46h-82V26h102.21z"/><path class="cls-3" d="M176.66 109.7H90.93a10.09 10.09 0 0 1-9.69-8.58h91a12.61 12.61 0 0 0 4.42 8.58z"/><path class="cls-3" d="M195.25 26l-.16 73.65a10 10 0 0 1-10 9.86c-5.8 0-10-4-10-9.78v-1.47h-82V26z"/><path class="cls-2" d="M138.35 37.46h45.98v2.94h-45.98zm0 11.74h45.98v2.94h-45.98zm0 11.74h45.98v2.94h-45.98zm0 11.74h45.98v2.94h-45.98zm0 11.74h45.98v2.94h-45.98z"/><path class="cls-4" d="M120.17 83.46h-8.66l1-12.64-5.09-11.51h5.17l3.13 7 2.18-7h6.38L118.88 71zM113 82h5.55l-1.17-11.28 4.63-10h-3.12l-3 9.64-4.29-9.64h-2.07l4.36 9.85z"/><path class="cls-5" d="M111.59 61.82a7.19 7.19 0 0 0 7.07.11 3.81 3.81 0 0 0 6.23-1.93 3.85 3.85 0 0 0 .08-.4 6.49 6.49 0 0 0 2-12.77 3.24 3.24 0 0 0-4.42-4.2 7.56 7.56 0 0 0-13.43-.25 3.29 3.29 0 0 0-3.45 4.84 5.89 5.89 0 0 0-.46 10.56 3.78 3.78 0 0 0 6.4 4z"/></svg>