<svg xmlns="http://www.w3.org/2000/svg" xmlns:xlink="http://www.w3.org/1999/xlink" viewBox="0 0 276 137"><defs><path id="a" d="M70.9 61.4h-1.5v38h142V74.3l-.4-.4-11.4-12-.4-.5H70.9zm0 3h127.6l-1.1-.5 11.4 12-.4-1v23l1.5-1.5h-139l1.5 1.5v-35l-1.5 1.5zm-21.5-23h182v78h-182v-78z"/></defs><clipPath id="b"><use xlink:href="#a" overflow="visible"/></clipPath><g clip-path="url(#b)"><defs><path id="c" d="M70.9 62.9h127.6l11.4 12v23h-139z"/></defs><clipPath id="d"><use xlink:href="#c" overflow="visible"/></clipPath><g clip-path="url(#d)"><defs><path id="e" d="M-301.1-472.1h1121v1030h-1121z"/></defs><clipPath id="f"><use xlink:href="#e" overflow="visible"/></clipPath><g clip-path="url(#f)"><path fill-rule="evenodd" clip-rule="evenodd" fill="#FFF" d="M70.9 62.9h127.6l11.4 12v23h-139z"/></g></g></g><defs><path id="g" d="M70.9 62.9h127.6l11.4 12v23h-139z"/></defs><clipPath id="h"><use xlink:href="#g" overflow="visible"/></clipPath><g clip-path="url(#h)"><defs><path id="i" d="M-301.1-472.1h1121v1030h-1121z"/></defs><clipPath id="j"><use xlink:href="#i" overflow="visible"/></clipPath><g clip-path="url(#j)"><path fill="#0C1F2E" d="M212.9 100.9h-145v-41h131.8l13.2 13.8v27.2zm-139-6h133V76.1l-9.7-10.2H73.9v29z"/></g></g><defs><path id="k" d="M103.9 112.8c-8 0-14.5-6.5-14.5-14.5s6.5-14.5 14.5-14.5 14.5 6.5 14.5 14.5-6.5 14.5-14.5 14.5zm0 3c9.7 0 17.5-7.8 17.5-17.5s-7.8-17.5-17.5-17.5-17.5 7.8-17.5 17.5 7.9 17.5 17.5 17.5zm-37.5-55h75v75h-75v-75z"/></defs><clipPath id="l"><use xlink:href="#k" overflow="visible"/></clipPath><g clip-path="url(#l)"><defs><circle id="m" cx="103.9" cy="98.3" r="16"/></defs><clipPath id="n"><use xlink:href="#m" overflow="visible"/></clipPath><g clip-path="url(#n)"><defs><path id="o" d="M-301.1-472.1h1121v1030h-1121z"/></defs><clipPath id="p"><use xlink:href="#o" overflow="visible"/></clipPath><g clip-path="url(#p)"><circle fill-rule="evenodd" clip-rule="evenodd" fill="#FFF" cx="103.9" cy="98.3" r="16"/></g></g></g><defs><circle id="q" cx="103.9" cy="98.3" r="16"/></defs><clipPath id="r"><use xlink:href="#q" overflow="visible"/></clipPath><g clip-path="url(#r)"><defs><path id="s" d="M-301.1-472.1h1121v1030h-1121z"/></defs><clipPath id="t"><use xlink:href="#s" overflow="visible"/></clipPath><g clip-path="url(#t)"><path fill="#0C1F2E" d="M103.9 117.3c-10.5 0-19-8.5-19-19s8.5-19 19-19 19 8.5 19 19-8.5 19-19 19zm0-32c-7.2 0-13 5.8-13 13s5.8 13 13 13 13-5.8 13-13-5.8-13-13-13z"/></g></g><defs><path id="u" d="M103.9 105.8c-4.1 0-7.5-3.4-7.5-7.5s3.4-7.5 7.5-7.5 7.5 3.4 7.5 7.5c0 4.2-3.3 7.5-7.5 7.5zm0 3c5.8 0 10.5-4.7 10.5-10.5s-4.7-10.5-10.5-10.5-10.5 4.7-10.5 10.5 4.7 10.5 10.5 10.5zm-30.5-41h61v61h-61v-61z"/></defs><clipPath id="v"><use xlink:href="#u" overflow="visible"/></clipPath><g clip-path="url(#v)"><defs><circle id="w" cx="103.9" cy="98.3" r="9"/></defs><clipPath id="x"><use xlink:href="#w" overflow="visible"/></clipPath><g clip-path="url(#x)"><defs><path id="y" d="M-301.1-472.1h1121v1030h-1121z"/></defs><clipPath id="z"><use xlink:href="#y" overflow="visible"/></clipPath><g clip-path="url(#z)"><circle fill-rule="evenodd" clip-rule="evenodd" fill="#FFF" cx="103.9" cy="98.3" r="9"/></g></g></g><defs><circle id="A" cx="103.9" cy="98.3" r="9"/></defs><clipPath id="B"><use xlink:href="#A" overflow="visible"/></clipPath><g clip-path="url(#B)"><defs><path id="C" d="M-301.1-472.1h1121v1030h-1121z"/></defs><clipPath id="D"><use xlink:href="#C" overflow="visible"/></clipPath><g clip-path="url(#D)"><path fill="#0C1F2E" d="M103.9 110.3c-6.6 0-12-5.4-12-12s5.4-12 12-12 12 5.4 12 12-5.4 12-12 12zm0-18c-3.3 0-6 2.7-6 6s2.7 6 6 6 6-2.7 6-6-2.7-6-6-6z"/></g></g><defs><path id="E" d="M170.2 112.8c-8 0-14.5-6.5-14.5-14.5s6.5-14.5 14.5-14.5 14.5 6.5 14.5 14.5-6.5 14.5-14.5 14.5zm0 3c9.7 0 17.5-7.8 17.5-17.5s-7.8-17.5-17.5-17.5-17.5 7.8-17.5 17.5 7.8 17.5 17.5 17.5zm-37.5-55h75v75h-75v-75z"/></defs><clipPath id="F"><use xlink:href="#E" overflow="visible"/></clipPath><g clip-path="url(#F)"><defs><circle id="G" cx="170.2" cy="98.3" r="16"/></defs><clipPath id="H"><use xlink:href="#G" overflow="visible"/></clipPath><g clip-path="url(#H)"><defs><path id="I" d="M-301.1-472.1h1121v1030h-1121z"/></defs><clipPath id="J"><use xlink:href="#I" overflow="visible"/></clipPath><g clip-path="url(#J)"><circle fill-rule="evenodd" clip-rule="evenodd" fill="#FFF" cx="170.2" cy="98.3" r="16"/></g></g></g><defs><circle id="K" cx="170.2" cy="98.3" r="16"/></defs><clipPath id="L"><use xlink:href="#K" overflow="visible"/></clipPath><g clip-path="url(#L)"><defs><path id="M" d="M-301.1-472.1h1121v1030h-1121z"/></defs><clipPath id="N"><use xlink:href="#M" overflow="visible"/></clipPath><g clip-path="url(#N)"><path fill="#0C1F2E" d="M170.2 117.3c-10.5 0-19-8.5-19-19s8.5-19 19-19 19 8.5 19 19-8.6 19-19 19zm0-32c-7.2 0-13 5.8-13 13s5.8 13 13 13 13-5.8 13-13-5.9-13-13-13z"/></g></g><defs><path id="O" d="M170.4 58l-7.7-15.6h-27.2V58h34.9zm-75.2 0l7.4-15.6h27.2V58H95.2zm-10.3 5.3L99 36.4h66.8l15.3 27.9-96.2-1z"/></defs><clipPath id="P"><use xlink:href="#O" overflow="visible"/></clipPath><g clip-path="url(#P)"><defs><path id="Q" d="M-301.1-472.1h1121v1030h-1121z"/></defs><clipPath id="R"><use xlink:href="#Q" overflow="visible"/></clipPath><g clip-path="url(#R)"><path fill="#FFF" d="M79.9 31.4h106.3v37.9H79.9z"/></g></g><path fill="#0C1F2E" d="M183.8 65.8l-101.4-1 15.7-29.9h68.6l17.1 30.9zm-96.4-4l91.3.9L165 37.9h-65L87.4 61.8zm85.4-2.3h-38.7V40.9h29.6l9.1 18.6zm-35.7-3H168l-6.2-12.6h-24.7v12.6zm-5.8 3H92.8l8.8-18.6h29.6v18.6zm-33.7-3h30.7V43.9h-24.7l-6 12.6z"/><defs><path id="S" d="M170.2 105.8c-4.1 0-7.5-3.4-7.5-7.5s3.4-7.5 7.5-7.5 7.5 3.4 7.5 7.5c0 4.2-3.4 7.5-7.5 7.5zm0 3c5.8 0 10.5-4.7 10.5-10.5s-4.7-10.5-10.5-10.5-10.5 4.7-10.5 10.5 4.7 10.5 10.5 10.5zm-30.5-41h61v61h-61v-61z"/></defs><clipPath id="T"><use xlink:href="#S" overflow="visible"/></clipPath><g clip-path="url(#T)"><defs><circle id="U" cx="170.2" cy="98.3" r="9"/></defs><clipPath id="V"><use xlink:href="#U" overflow="visible"/></clipPath><g clip-path="url(#V)"><defs><path id="W" d="M-301.1-472.1h1121v1030h-1121z"/></defs><clipPath id="X"><use xlink:href="#W" overflow="visible"/></clipPath><g clip-path="url(#X)"><circle fill-rule="evenodd" clip-rule="evenodd" fill="#FFF" cx="170.2" cy="98.3" r="9"/></g></g></g><defs><circle id="Y" cx="170.2" cy="98.3" r="9"/></defs><clipPath id="Z"><use xlink:href="#Y" overflow="visible"/></clipPath><g clip-path="url(#Z)"><defs><path id="aa" d="M-301.1-472.1h1121v1030h-1121z"/></defs><clipPath id="ab"><use xlink:href="#aa" overflow="visible"/></clipPath><g clip-path="url(#ab)"><path fill="#0C1F2E" d="M170.2 110.3c-6.6 0-12-5.4-12-12s5.4-12 12-12 12 5.4 12 12-5.4 12-12 12zm0-18c-3.3 0-6 2.7-6 6s2.7 6 6 6 6-2.7 6-6-2.7-6-6-6z"/></g></g><path fill="#0C1F2E" d="M134.3 97.6c-.8 0-1.5-.7-1.5-1.5V65.2c0-.8.7-1.5 1.5-1.5s1.5.7 1.5 1.5v30.9c0 .8-.7 1.5-1.5 1.5zm-30.5-25h-9.2c-.8 0-1.5-.7-1.5-1.5s.7-1.5 1.5-1.5h9.2c.8 0 1.5.7 1.5 1.5s-.7 1.5-1.5 1.5zm48 0h-9.2c-.8 0-1.5-.7-1.5-1.5s.7-1.5 1.5-1.5h9.2c.8 0 1.5.7 1.5 1.5s-.7 1.5-1.5 1.5z"/><ellipse transform="rotate(-45.001 200.655 39.54)" fill="#FFF" stroke="#0F1F2D" stroke-width="3" stroke-linecap="round" stroke-miterlimit="10" cx="200.7" cy="39.5" rx="18.5" ry="18.5"/><path fill="none" stroke="#0F1F2D" stroke-width="3" stroke-miterlimit="10" d="M191.4 48.9l8.6-8.6"/><circle fill="#FFF" stroke="#0F1F2D" stroke-width="3" stroke-linecap="round" stroke-miterlimit="10" cx="204.2" cy="35.9" r="6.2"/></svg>