<svg xmlns="http://www.w3.org/2000/svg" xmlns:xlink="http://www.w3.org/1999/xlink" viewBox="0 0 276 137"><defs><path id="a" d="M973.5-279.8H972v84h108v-84H973.5zm0 3h105l-1.5-1.5v81l1.5-1.5h-105l1.5 1.5v-81l-1.5 1.5zm-21.5-23h148v124H952v-124z"/></defs><clipPath id="b"><use xlink:href="#a" overflow="visible"/></clipPath><g clip-path="url(#b)"><defs><path id="c" d="M973.5-278.3h105v81h-105z"/></defs></g><defs><path id="d" d="M973.5-278.3h105v81h-105z"/></defs><defs><path id="e" d="M967.5-262.8h-2.2l.9-2.1 9.1-22 .4-.9h100.9l.4.9 9.1 22 .9 2.1H967.5zm0-3h117l-1.4 2.1-9.1-22 1.4.9h-98.9l1.4-.9-9.1 22-1.3-2.1zm-22.2 23h161.5v-65H945.3v65z"/></defs><clipPath id="f"><use xlink:href="#e" overflow="visible"/></clipPath><g clip-path="url(#f)"><defs><path id="g" d="M967.5-264.3h117l-9.1-22h-98.8z"/></defs></g><defs><path id="h" d="M967.5-264.3h117l-9.1-22h-98.8z"/></defs><defs><path id="i" d="M1052.5-295.8h-1.5v19h15v-19h-13.5zm0 3h12l-1.5-1.5v16l1.5-1.5h-12l1.5 1.5v-16l-1.5 1.5zm-21.5-23h55v59h-55v-59z"/></defs><clipPath id="j"><use xlink:href="#i" overflow="visible"/></clipPath><g clip-path="url(#j)"><defs><path id="k" d="M1052.5-294.3h12v16h-12z"/></defs></g><defs><path id="l" d="M1052.5-294.3h12v16h-12z"/></defs><defs><path id="m" d="M986.5-229.8H985v34h24v-34h-22.5zm0 3h21l-1.5-1.5v31l1.5-1.5h-21l1.5 1.5v-31l-1.5 1.5zm-21.5-23h64v74h-64v-74z"/></defs><clipPath id="n"><use xlink:href="#m" overflow="visible"/></clipPath><g clip-path="url(#n)"><defs><path id="o" d="M986.5-228.3h21v31h-21z"/></defs></g><defs><path id="p" d="M986.5-228.3h21v31h-21z"/></defs><defs><path id="q" d="M987.5-257.8H986v22h22v-22h-20.5zm0 3h19l-1.5-1.5v19l1.5-1.5h-19l1.5 1.5v-19l-1.5 1.5zm-21.5-23h62v62h-62v-62z"/></defs><clipPath id="r"><use xlink:href="#q" overflow="visible"/></clipPath><g clip-path="url(#r)"><defs><path id="s" d="M987.5-256.3h19v19h-19z"/></defs></g><defs><path id="t" d="M987.5-256.3h19v19h-19z"/></defs><defs><path id="u" d="M992.5-252.8H991v12h12v-12h-10.5zm0 3h9l-1.5-1.5v9l1.5-1.5h-9l1.5 1.5v-9l-1.5 1.5zm-21.5-23h52v52h-52v-52z"/></defs><clipPath id="v"><use xlink:href="#u" overflow="visible"/></clipPath><g clip-path="url(#v)"><defs><path id="w" d="M992.5-251.3h9v9h-9z"/></defs></g><defs><path id="x" d="M992.5-251.3h9v9h-9z"/></defs><defs><path id="y" d="M1017.5-257.8h-1.5v22h22v-22h-20.5zm0 3h19l-1.5-1.5v19l1.5-1.5h-19l1.5 1.5v-19l-1.5 1.5zm-21.5-23h62v62h-62v-62z"/></defs><clipPath id="z"><use xlink:href="#y" overflow="visible"/></clipPath><g clip-path="url(#z)"><defs><path id="A" d="M1017.5-256.3h19v19h-19z"/></defs></g><defs><path id="B" d="M1017.5-256.3h19v19h-19z"/></defs><defs><path id="C" d="M1046.5-257.8h-1.5v22h22v-22h-20.5zm0 3h19l-1.5-1.5v19l1.5-1.5h-19l1.5 1.5v-19l-1.5 1.5zm-21.5-23h62v62h-62v-62z"/></defs><clipPath id="D"><use xlink:href="#C" overflow="visible"/></clipPath><g clip-path="url(#D)"><defs><path id="E" d="M1046.5-256.3h19v19h-19z"/></defs></g><defs><path id="F" d="M1046.5-256.3h19v19h-19z"/></defs><defs><path id="G" d="M1017.5-229.8h-1.5v22h22v-22h-20.5zm0 3h19l-1.5-1.5v19l1.5-1.5h-19l1.5 1.5v-19l-1.5 1.5zm-21.5-23h62v62h-62v-62z"/></defs><clipPath id="H"><use xlink:href="#G" overflow="visible"/></clipPath><g clip-path="url(#H)"><defs><path id="I" d="M1017.5-228.3h19v19h-19z"/></defs></g><defs><path id="J" d="M1017.5-228.3h19v19h-19z"/></defs><defs><path id="K" d="M1046.5-229.8h-1.5v22h22v-22h-20.5zm0 3h19l-1.5-1.5v19l1.5-1.5h-19l1.5 1.5v-19l-1.5 1.5zm-21.5-23h62v62h-62v-62z"/></defs><clipPath id="L"><use xlink:href="#K" overflow="visible"/></clipPath><g clip-path="url(#L)"><defs><path id="M" d="M1046.5-228.3h19v19h-19z"/></defs></g><defs><path id="N" d="M1046.5-228.3h19v19h-19z"/></defs><defs><path id="O" d="M1022.5-252.8h-1.5v12h12v-12h-10.5zm0 3h9l-1.5-1.5v9l1.5-1.5h-9l1.5 1.5v-9l-1.5 1.5zm-21.5-23h52v52h-52v-52z"/></defs><clipPath id="P"><use xlink:href="#O" overflow="visible"/></clipPath><g clip-path="url(#P)"><defs><path id="Q" d="M1022.5-251.3h9v9h-9z"/></defs></g><defs><path id="R" d="M1022.5-251.3h9v9h-9z"/></defs><defs><path id="S" d="M1051.5-252.8h-1.5v12h12v-12h-10.5zm0 3h9l-1.5-1.5v9l1.5-1.5h-9l1.5 1.5v-9l-1.5 1.5zm-21.5-23h52v52h-52v-52z"/></defs><clipPath id="T"><use xlink:href="#S" overflow="visible"/></clipPath><g clip-path="url(#T)"><defs><path id="U" d="M1051.5-251.3h9v9h-9z"/></defs></g><defs><path id="V" d="M1051.5-251.3h9v9h-9z"/></defs><defs><path id="W" d="M1022.5-224.8h-1.5v12h12v-12h-10.5zm0 3h9l-1.5-1.5v9l1.5-1.5h-9l1.5 1.5v-9l-1.5 1.5zm-21.5-23h52v52h-52v-52z"/></defs><clipPath id="X"><use xlink:href="#W" overflow="visible"/></clipPath><g clip-path="url(#X)"><defs><path id="Y" d="M1022.5-223.3h9v9h-9z"/></defs></g><defs><path id="Z" d="M1022.5-223.3h9v9h-9z"/></defs><defs><path id="aa" d="M1051.5-224.8h-1.5v12h12v-12h-10.5zm0 3h9l-1.5-1.5v9l1.5-1.5h-9l1.5 1.5v-9l-1.5 1.5zm-21.5-23h52v52h-52v-52z"/></defs><clipPath id="ab"><use xlink:href="#aa" overflow="visible"/></clipPath><g clip-path="url(#ab)"><defs><path id="ac" d="M1051.5-223.3h9v9h-9z"/></defs></g><defs><path id="ad" d="M1051.5-223.3h9v9h-9z"/></defs><path fill="#FFF" stroke="#0F1F2D" stroke-width="3" stroke-miterlimit="10" d="M85.4 35.9h101.2v73.6H85.4z"/><path fill="#FFF" stroke="#0F1F2D" stroke-width="3" stroke-miterlimit="10" d="M85.5 35.9h101l-9.2 29.3H94.7z"/><path fill="#FFF" stroke="#0F1F2D" stroke-width="3" stroke-miterlimit="10" d="M107.8 54.2h7.6v18.7h-7.6zm47.1 0h7.6v18.7h-7.6z"/><circle fill="#FFF" stroke="#0F1F2D" stroke-width="3" stroke-linecap="round" stroke-miterlimit="10" cx="184.9" cy="104.3" r="18.5"/><path fill="#FFF" stroke="#0F1F2D" stroke-width="3" stroke-miterlimit="10" d="M112.2 19.5h47.7v16.4h-47.7z"/><path fill="#FFF" stroke="#0F1F2D" stroke-width="3" stroke-miterlimit="10" d="M121.4 27.7h29.2v8.2h-29.2z"/><path fill="none" stroke="#0F1F2D" stroke-width="3" stroke-miterlimit="10" d="M175.6 113.8l8.6-8.7"/><circle fill="#FFF" stroke="#0F1F2D" stroke-width="3" stroke-linecap="round" stroke-miterlimit="10" cx="188.4" cy="100.7" r="6.2"/></svg>