<svg xmlns="http://www.w3.org/2000/svg" xmlns:xlink="http://www.w3.org/1999/xlink" viewBox="0 0 276 137"><defs><path id="a" d="M379.4-134.8h-1.5v84h108v-84H379.4zm0 3h105l-1.5-1.5v81l1.5-1.5h-105l1.5 1.5v-81l-1.5 1.5zm-21.5-23h148v124h-148v-124z"/></defs><clipPath id="b"><use xlink:href="#a" overflow="visible"/></clipPath><g clip-path="url(#b)"><defs><path id="c" d="M379.4-133.3h105v81h-105z"/></defs><clipPath id="d"><use xlink:href="#c" overflow="visible"/></clipPath><g clip-path="url(#d)"><defs><path id="e" d="M-501.6-632.3h1121v1030h-1121z"/></defs></g></g><defs><path id="f" d="M379.4-133.3h105v81h-105z"/></defs><clipPath id="g"><use xlink:href="#f" overflow="visible"/></clipPath><g clip-path="url(#g)"><defs><path id="h" d="M-501.6-632.3h1121v1030h-1121z"/></defs></g><defs><path id="i" d="M373.4-117.8h-2.2l.9-2.1 9.1-22 .4-.9h100.9l.4.9 9.1 22 .9 2.1H373.4zm0-3h117l-1.4 2.1-9.1-22 1.4.9h-98.9l1.4-.9-9.1 22-1.3-2.1zm-22.3 23h161.5v-65H351.1v65z"/></defs><clipPath id="j"><use xlink:href="#i" overflow="visible"/></clipPath><g clip-path="url(#j)"><defs><path id="k" d="M373.4-119.3h117l-9.1-22h-98.8z"/></defs><clipPath id="l"><use xlink:href="#k" overflow="visible"/></clipPath><g clip-path="url(#l)"><defs><path id="m" d="M-501.6-632.3h1121v1030h-1121z"/></defs></g></g><defs><path id="n" d="M373.4-119.3h117l-9.1-22h-98.8z"/></defs><clipPath id="o"><use xlink:href="#n" overflow="visible"/></clipPath><g clip-path="url(#o)"><defs><path id="p" d="M-501.6-632.3h1121v1030h-1121z"/></defs></g><defs><path id="q" d="M458.4-150.8h-1.5v19h15v-19h-13.5zm0 3h12l-1.5-1.5v16l1.5-1.5h-12l1.5 1.5v-16l-1.5 1.5zm-21.5-23h55v59h-55v-59z"/></defs><clipPath id="r"><use xlink:href="#q" overflow="visible"/></clipPath><g clip-path="url(#r)"><defs><path id="s" d="M458.4-149.3h12v16h-12z"/></defs><clipPath id="t"><use xlink:href="#s" overflow="visible"/></clipPath><g clip-path="url(#t)"><defs><path id="u" d="M-501.6-632.3h1121v1030h-1121z"/></defs></g></g><defs><path id="v" d="M458.4-149.3h12v16h-12z"/></defs><clipPath id="w"><use xlink:href="#v" overflow="visible"/></clipPath><g clip-path="url(#w)"><defs><path id="x" d="M-501.6-632.3h1121v1030h-1121z"/></defs></g><defs><path id="y" d="M392.4-84.8h-1.5v34h24v-34h-22.5zm0 3h21l-1.5-1.5v31l1.5-1.5h-21l1.5 1.5v-31l-1.5 1.5zm-21.5-23h64v74h-64v-74z"/></defs><clipPath id="z"><use xlink:href="#y" overflow="visible"/></clipPath><g clip-path="url(#z)"><defs><path id="A" d="M392.4-83.3h21v31h-21z"/></defs><clipPath id="B"><use xlink:href="#A" overflow="visible"/></clipPath><g clip-path="url(#B)"><defs><path id="C" d="M-501.6-632.3h1121v1030h-1121z"/></defs></g></g><defs><path id="D" d="M392.4-83.3h21v31h-21z"/></defs><clipPath id="E"><use xlink:href="#D" overflow="visible"/></clipPath><g clip-path="url(#E)"><defs><path id="F" d="M-501.6-632.3h1121v1030h-1121z"/></defs></g><defs><path id="G" d="M393.4-112.8h-1.5v22h22v-22h-20.5zm0 3h19l-1.5-1.5v19l1.5-1.5h-19l1.5 1.5v-19l-1.5 1.5zm-21.5-23h62v62h-62v-62z"/></defs><clipPath id="H"><use xlink:href="#G" overflow="visible"/></clipPath><g clip-path="url(#H)"><defs><path id="I" d="M393.4-111.3h19v19h-19z"/></defs><clipPath id="J"><use xlink:href="#I" overflow="visible"/></clipPath><g clip-path="url(#J)"><defs><path id="K" d="M-501.6-632.3h1121v1030h-1121z"/></defs></g></g><defs><path id="L" d="M393.4-111.3h19v19h-19z"/></defs><clipPath id="M"><use xlink:href="#L" overflow="visible"/></clipPath><g clip-path="url(#M)"><defs><path id="N" d="M-501.6-632.3h1121v1030h-1121z"/></defs></g><defs><path id="O" d="M398.4-107.8h-1.5v12h12v-12h-10.5zm0 3h9l-1.5-1.5v9l1.5-1.5h-9l1.5 1.5v-9l-1.5 1.5zm-21.5-23h52v52h-52v-52z"/></defs><clipPath id="P"><use xlink:href="#O" overflow="visible"/></clipPath><g clip-path="url(#P)"><defs><path id="Q" d="M398.4-106.3h9v9h-9z"/></defs><clipPath id="R"><use xlink:href="#Q" overflow="visible"/></clipPath><g clip-path="url(#R)"><defs><path id="S" d="M-501.6-632.3h1121v1030h-1121z"/></defs></g></g><defs><path id="T" d="M398.4-106.3h9v9h-9z"/></defs><clipPath id="U"><use xlink:href="#T" overflow="visible"/></clipPath><g clip-path="url(#U)"><defs><path id="V" d="M-501.6-632.3h1121v1030h-1121z"/></defs></g><defs><path id="W" d="M423.4-112.8h-1.5v22h22v-22h-20.5zm0 3h19l-1.5-1.5v19l1.5-1.5h-19l1.5 1.5v-19l-1.5 1.5zm-21.5-23h62v62h-62v-62z"/></defs><clipPath id="X"><use xlink:href="#W" overflow="visible"/></clipPath><g clip-path="url(#X)"><defs><path id="Y" d="M423.4-111.3h19v19h-19z"/></defs><clipPath id="Z"><use xlink:href="#Y" overflow="visible"/></clipPath><g clip-path="url(#Z)"><defs><path id="aa" d="M-501.6-632.3h1121v1030h-1121z"/></defs></g></g><defs><path id="ab" d="M423.4-111.3h19v19h-19z"/></defs><clipPath id="ac"><use xlink:href="#ab" overflow="visible"/></clipPath><g clip-path="url(#ac)"><defs><path id="ad" d="M-501.6-632.3h1121v1030h-1121z"/></defs></g><defs><path id="ae" d="M452.4-112.8h-1.5v22h22v-22h-20.5zm0 3h19l-1.5-1.5v19l1.5-1.5h-19l1.5 1.5v-19l-1.5 1.5zm-21.5-23h62v62h-62v-62z"/></defs><clipPath id="af"><use xlink:href="#ae" overflow="visible"/></clipPath><g clip-path="url(#af)"><defs><path id="ag" d="M452.4-111.3h19v19h-19z"/></defs><clipPath id="ah"><use xlink:href="#ag" overflow="visible"/></clipPath><g clip-path="url(#ah)"><defs><path id="ai" d="M-501.6-632.3h1121v1030h-1121z"/></defs></g></g><defs><path id="aj" d="M452.4-111.3h19v19h-19z"/></defs><clipPath id="ak"><use xlink:href="#aj" overflow="visible"/></clipPath><g clip-path="url(#ak)"><defs><path id="al" d="M-501.6-632.3h1121v1030h-1121z"/></defs></g><defs><path id="am" d="M423.4-84.8h-1.5v22h22v-22h-20.5zm0 3h19l-1.5-1.5v19l1.5-1.5h-19l1.5 1.5v-19l-1.5 1.5zm-21.5-23h62v62h-62v-62z"/></defs><clipPath id="an"><use xlink:href="#am" overflow="visible"/></clipPath><g clip-path="url(#an)"><defs><path id="ao" d="M423.4-83.3h19v19h-19z"/></defs><clipPath id="ap"><use xlink:href="#ao" overflow="visible"/></clipPath><g clip-path="url(#ap)"><defs><path id="aq" d="M-501.6-632.3h1121v1030h-1121z"/></defs></g></g><defs><path id="ar" d="M423.4-83.3h19v19h-19z"/></defs><clipPath id="as"><use xlink:href="#ar" overflow="visible"/></clipPath><g clip-path="url(#as)"><defs><path id="at" d="M-501.6-632.3h1121v1030h-1121z"/></defs></g><defs><path id="au" d="M452.4-84.8h-1.5v22h22v-22h-20.5zm0 3h19l-1.5-1.5v19l1.5-1.5h-19l1.5 1.5v-19l-1.5 1.5zm-21.5-23h62v62h-62v-62z"/></defs><clipPath id="av"><use xlink:href="#au" overflow="visible"/></clipPath><g clip-path="url(#av)"><defs><path id="aw" d="M452.4-83.3h19v19h-19z"/></defs><clipPath id="ax"><use xlink:href="#aw" overflow="visible"/></clipPath><g clip-path="url(#ax)"><defs><path id="ay" d="M-501.6-632.3h1121v1030h-1121z"/></defs></g></g><defs><path id="az" d="M452.4-83.3h19v19h-19z"/></defs><clipPath id="aA"><use xlink:href="#az" overflow="visible"/></clipPath><g clip-path="url(#aA)"><defs><path id="aB" d="M-501.6-632.3h1121v1030h-1121z"/></defs></g><defs><path id="aC" d="M428.4-107.8h-1.5v12h12v-12h-10.5zm0 3h9l-1.5-1.5v9l1.5-1.5h-9l1.5 1.5v-9l-1.5 1.5zm-21.5-23h52v52h-52v-52z"/></defs><clipPath id="aD"><use xlink:href="#aC" overflow="visible"/></clipPath><g clip-path="url(#aD)"><defs><path id="aE" d="M428.4-106.3h9v9h-9z"/></defs><clipPath id="aF"><use xlink:href="#aE" overflow="visible"/></clipPath><g clip-path="url(#aF)"><defs><path id="aG" d="M-501.6-632.3h1121v1030h-1121z"/></defs></g></g><defs><path id="aH" d="M428.4-106.3h9v9h-9z"/></defs><clipPath id="aI"><use xlink:href="#aH" overflow="visible"/></clipPath><g clip-path="url(#aI)"><defs><path id="aJ" d="M-501.6-632.3h1121v1030h-1121z"/></defs></g><defs><path id="aK" d="M457.4-107.8h-1.5v12h12v-12h-10.5zm0 3h9l-1.5-1.5v9l1.5-1.5h-9l1.5 1.5v-9l-1.5 1.5zm-21.5-23h52v52h-52v-52z"/></defs><clipPath id="aL"><use xlink:href="#aK" overflow="visible"/></clipPath><g clip-path="url(#aL)"><defs><path id="aM" d="M457.4-106.3h9v9h-9z"/></defs><clipPath id="aN"><use xlink:href="#aM" overflow="visible"/></clipPath><g clip-path="url(#aN)"><defs><path id="aO" d="M-501.6-632.3h1121v1030h-1121z"/></defs></g></g><defs><path id="aP" d="M457.4-106.3h9v9h-9z"/></defs><clipPath id="aQ"><use xlink:href="#aP" overflow="visible"/></clipPath><g clip-path="url(#aQ)"><defs><path id="aR" d="M-501.6-632.3h1121v1030h-1121z"/></defs></g><defs><path id="aS" d="M428.4-79.8h-1.5v12h12v-12h-10.5zm0 3h9l-1.5-1.5v9l1.5-1.5h-9l1.5 1.5v-9l-1.5 1.5zm-21.5-23h52v52h-52v-52z"/></defs><clipPath id="aT"><use xlink:href="#aS" overflow="visible"/></clipPath><g clip-path="url(#aT)"><defs><path id="aU" d="M428.4-78.3h9v9h-9z"/></defs><clipPath id="aV"><use xlink:href="#aU" overflow="visible"/></clipPath><g clip-path="url(#aV)"><defs><path id="aW" d="M-501.6-632.3h1121v1030h-1121z"/></defs></g></g><defs><path id="aX" d="M428.4-78.3h9v9h-9z"/></defs><clipPath id="aY"><use xlink:href="#aX" overflow="visible"/></clipPath><g clip-path="url(#aY)"><defs><path id="aZ" d="M-501.6-632.3h1121v1030h-1121z"/></defs></g><defs><path id="ba" d="M457.4-79.8h-1.5v12h12v-12h-10.5zm0 3h9l-1.5-1.5v9l1.5-1.5h-9l1.5 1.5v-9l-1.5 1.5zm-21.5-23h52v52h-52v-52z"/></defs><clipPath id="bb"><use xlink:href="#ba" overflow="visible"/></clipPath><g clip-path="url(#bb)"><defs><path id="bc" d="M457.4-78.3h9v9h-9z"/></defs><clipPath id="bd"><use xlink:href="#bc" overflow="visible"/></clipPath><g clip-path="url(#bd)"><defs><path id="be" d="M-501.6-632.3h1121v1030h-1121z"/></defs></g></g><defs><path id="bf" d="M457.4-78.3h9v9h-9z"/></defs><clipPath id="bg"><use xlink:href="#bf" overflow="visible"/></clipPath><g clip-path="url(#bg)"><defs><path id="bh" d="M-501.6-632.3h1121v1030h-1121z"/></defs></g><defs><path id="bi" d="M979.4-451.8h-1.5v84h108v-84H979.4zm0 3h105l-1.5-1.5v81l1.5-1.5h-105l1.5 1.5v-81l-1.5 1.5zm-21.5-23h148v124h-148v-124z"/></defs><clipPath id="bj"><use xlink:href="#bi" overflow="visible"/></clipPath><g clip-path="url(#bj)"><defs><path id="bk" d="M979.4-450.3h105v81h-105z"/></defs><clipPath id="bl"><use xlink:href="#bk" overflow="visible"/></clipPath><g clip-path="url(#bl)"><defs><path id="bm" d="M98.4-949.3h1121v1030H98.4z"/></defs></g></g><g><defs><path id="bn" d="M979.4-450.3h105v81h-105z"/></defs><clipPath id="bo"><use xlink:href="#bn" overflow="visible"/></clipPath><g clip-path="url(#bo)"><defs><path id="bp" d="M98.4-949.3h1121v1030H98.4z"/></defs></g></g><g><defs><path id="bq" d="M973.4-434.8h-2.2l.9-2.1 9.1-22 .4-.9h100.9l.4.9 9.1 22 .9 2.1H973.4zm0-3h117l-1.4 2.1-9.1-22 1.4.9h-98.9l1.4-.9-9.1 22-1.3-2.1zm-22.3 23h161.5v-65H951.1v65z"/></defs><clipPath id="br"><use xlink:href="#bq" overflow="visible"/></clipPath><g clip-path="url(#br)"><defs><path id="bs" d="M973.4-436.3h117l-9.1-22h-98.8z"/></defs><clipPath id="bt"><use xlink:href="#bs" overflow="visible"/></clipPath><g clip-path="url(#bt)"><defs><path id="bu" d="M98.4-949.3h1121v1030H98.4z"/></defs></g></g></g><g><defs><path id="bv" d="M973.4-436.3h117l-9.1-22h-98.8z"/></defs><clipPath id="bw"><use xlink:href="#bv" overflow="visible"/></clipPath><g clip-path="url(#bw)"><defs><path id="bx" d="M98.4-949.3h1121v1030H98.4z"/></defs></g></g><g><defs><path id="by" d="M1058.4-467.8h-1.5v19h15v-19h-13.5zm0 3h12l-1.5-1.5v16l1.5-1.5h-12l1.5 1.5v-16l-1.5 1.5zm-21.5-23h55v59h-55v-59z"/></defs><clipPath id="bz"><use xlink:href="#by" overflow="visible"/></clipPath><g clip-path="url(#bz)"><defs><path id="bA" d="M1058.4-466.3h12v16h-12z"/></defs><clipPath id="bB"><use xlink:href="#bA" overflow="visible"/></clipPath><g clip-path="url(#bB)"><defs><path id="bC" d="M98.4-949.3h1121v1030H98.4z"/></defs></g></g></g><g><defs><path id="bD" d="M1058.4-466.3h12v16h-12z"/></defs><clipPath id="bE"><use xlink:href="#bD" overflow="visible"/></clipPath><g clip-path="url(#bE)"><defs><path id="bF" d="M98.4-949.3h1121v1030H98.4z"/></defs></g></g><g><defs><path id="bG" d="M992.4-401.8h-1.5v34h24v-34h-22.5zm0 3h21l-1.5-1.5v31l1.5-1.5h-21l1.5 1.5v-31l-1.5 1.5zm-21.5-23h64v74h-64v-74z"/></defs><clipPath id="bH"><use xlink:href="#bG" overflow="visible"/></clipPath><g clip-path="url(#bH)"><defs><path id="bI" d="M992.4-400.3h21v31h-21z"/></defs><clipPath id="bJ"><use xlink:href="#bI" overflow="visible"/></clipPath><g clip-path="url(#bJ)"><defs><path id="bK" d="M98.4-949.3h1121v1030H98.4z"/></defs></g></g></g><g><defs><path id="bL" d="M992.4-400.3h21v31h-21z"/></defs><clipPath id="bM"><use xlink:href="#bL" overflow="visible"/></clipPath><g clip-path="url(#bM)"><defs><path id="bN" d="M98.4-949.3h1121v1030H98.4z"/></defs></g></g><g><defs><path id="bO" d="M993.4-429.8h-1.5v22h22v-22h-20.5zm0 3h19l-1.5-1.5v19l1.5-1.5h-19l1.5 1.5v-19l-1.5 1.5zm-21.5-23h62v62h-62v-62z"/></defs><clipPath id="bP"><use xlink:href="#bO" overflow="visible"/></clipPath><g clip-path="url(#bP)"><defs><path id="bQ" d="M993.4-428.3h19v19h-19z"/></defs><clipPath id="bR"><use xlink:href="#bQ" overflow="visible"/></clipPath><g clip-path="url(#bR)"><defs><path id="bS" d="M98.4-949.3h1121v1030H98.4z"/></defs></g></g></g><g><defs><path id="bT" d="M993.4-428.3h19v19h-19z"/></defs><clipPath id="bU"><use xlink:href="#bT" overflow="visible"/></clipPath><g clip-path="url(#bU)"><defs><path id="bV" d="M98.4-949.3h1121v1030H98.4z"/></defs></g></g><g><defs><path id="bW" d="M998.4-424.8h-1.5v12h12v-12h-10.5zm0 3h9l-1.5-1.5v9l1.5-1.5h-9l1.5 1.5v-9l-1.5 1.5zm-21.5-23h52v52h-52v-52z"/></defs><clipPath id="bX"><use xlink:href="#bW" overflow="visible"/></clipPath><g clip-path="url(#bX)"><defs><path id="bY" d="M998.4-423.3h9v9h-9z"/></defs><clipPath id="bZ"><use xlink:href="#bY" overflow="visible"/></clipPath><g clip-path="url(#bZ)"><defs><path id="ca" d="M98.4-949.3h1121v1030H98.4z"/></defs></g></g></g><g><defs><path id="cb" d="M998.4-423.3h9v9h-9z"/></defs><clipPath id="cc"><use xlink:href="#cb" overflow="visible"/></clipPath><g clip-path="url(#cc)"><defs><path id="cd" d="M98.4-949.3h1121v1030H98.4z"/></defs></g></g><g><defs><path id="ce" d="M1023.4-429.8h-1.5v22h22v-22h-20.5zm0 3h19l-1.5-1.5v19l1.5-1.5h-19l1.5 1.5v-19l-1.5 1.5zm-21.5-23h62v62h-62v-62z"/></defs><clipPath id="cf"><use xlink:href="#ce" overflow="visible"/></clipPath><g clip-path="url(#cf)"><defs><path id="cg" d="M1023.4-428.3h19v19h-19z"/></defs><clipPath id="ch"><use xlink:href="#cg" overflow="visible"/></clipPath><g clip-path="url(#ch)"><defs><path id="ci" d="M98.4-949.3h1121v1030H98.4z"/></defs></g></g></g><g><defs><path id="cj" d="M1023.4-428.3h19v19h-19z"/></defs><clipPath id="ck"><use xlink:href="#cj" overflow="visible"/></clipPath><g clip-path="url(#ck)"><defs><path id="cl" d="M98.4-949.3h1121v1030H98.4z"/></defs></g></g><g><defs><path id="cm" d="M1052.4-429.8h-1.5v22h22v-22h-20.5zm0 3h19l-1.5-1.5v19l1.5-1.5h-19l1.5 1.5v-19l-1.5 1.5zm-21.5-23h62v62h-62v-62z"/></defs><clipPath id="cn"><use xlink:href="#cm" overflow="visible"/></clipPath><g clip-path="url(#cn)"><defs><path id="co" d="M1052.4-428.3h19v19h-19z"/></defs><clipPath id="cp"><use xlink:href="#co" overflow="visible"/></clipPath><g clip-path="url(#cp)"><defs><path id="cq" d="M98.4-949.3h1121v1030H98.4z"/></defs></g></g></g><g><defs><path id="cr" d="M1052.4-428.3h19v19h-19z"/></defs><clipPath id="cs"><use xlink:href="#cr" overflow="visible"/></clipPath><g clip-path="url(#cs)"><defs><path id="ct" d="M98.4-949.3h1121v1030H98.4z"/></defs></g></g><g><defs><path id="cu" d="M1023.4-401.8h-1.5v22h22v-22h-20.5zm0 3h19l-1.5-1.5v19l1.5-1.5h-19l1.5 1.5v-19l-1.5 1.5zm-21.5-23h62v62h-62v-62z"/></defs><clipPath id="cv"><use xlink:href="#cu" overflow="visible"/></clipPath><g clip-path="url(#cv)"><defs><path id="cw" d="M1023.4-400.3h19v19h-19z"/></defs><clipPath id="cx"><use xlink:href="#cw" overflow="visible"/></clipPath><g clip-path="url(#cx)"><defs><path id="cy" d="M98.4-949.3h1121v1030H98.4z"/></defs></g></g></g><g><defs><path id="cz" d="M1023.4-400.3h19v19h-19z"/></defs><clipPath id="cA"><use xlink:href="#cz" overflow="visible"/></clipPath><g clip-path="url(#cA)"><defs><path id="cB" d="M98.4-949.3h1121v1030H98.4z"/></defs></g></g><g><defs><path id="cC" d="M1052.4-401.8h-1.5v22h22v-22h-20.5zm0 3h19l-1.5-1.5v19l1.5-1.5h-19l1.5 1.5v-19l-1.5 1.5zm-21.5-23h62v62h-62v-62z"/></defs><clipPath id="cD"><use xlink:href="#cC" overflow="visible"/></clipPath><g clip-path="url(#cD)"><defs><path id="cE" d="M1052.4-400.3h19v19h-19z"/></defs><clipPath id="cF"><use xlink:href="#cE" overflow="visible"/></clipPath><g clip-path="url(#cF)"><defs><path id="cG" d="M98.4-949.3h1121v1030H98.4z"/></defs></g></g></g><g><defs><path id="cH" d="M1052.4-400.3h19v19h-19z"/></defs><clipPath id="cI"><use xlink:href="#cH" overflow="visible"/></clipPath><g clip-path="url(#cI)"><defs><path id="cJ" d="M98.4-949.3h1121v1030H98.4z"/></defs></g></g><g><defs><path id="cK" d="M1028.4-424.8h-1.5v12h12v-12h-10.5zm0 3h9l-1.5-1.5v9l1.5-1.5h-9l1.5 1.5v-9l-1.5 1.5zm-21.5-23h52v52h-52v-52z"/></defs><clipPath id="cL"><use xlink:href="#cK" overflow="visible"/></clipPath><g clip-path="url(#cL)"><defs><path id="cM" d="M1028.4-423.3h9v9h-9z"/></defs><clipPath id="cN"><use xlink:href="#cM" overflow="visible"/></clipPath><g clip-path="url(#cN)"><defs><path id="cO" d="M98.4-949.3h1121v1030H98.4z"/></defs></g></g></g><g><defs><path id="cP" d="M1028.4-423.3h9v9h-9z"/></defs><clipPath id="cQ"><use xlink:href="#cP" overflow="visible"/></clipPath><g clip-path="url(#cQ)"><defs><path id="cR" d="M98.4-949.3h1121v1030H98.4z"/></defs></g></g><g><defs><path id="cS" d="M1057.4-424.8h-1.5v12h12v-12h-10.5zm0 3h9l-1.5-1.5v9l1.5-1.5h-9l1.5 1.5v-9l-1.5 1.5zm-21.5-23h52v52h-52v-52z"/></defs><clipPath id="cT"><use xlink:href="#cS" overflow="visible"/></clipPath><g clip-path="url(#cT)"><defs><path id="cU" d="M1057.4-423.3h9v9h-9z"/></defs><clipPath id="cV"><use xlink:href="#cU" overflow="visible"/></clipPath><g clip-path="url(#cV)"><defs><path id="cW" d="M98.4-949.3h1121v1030H98.4z"/></defs></g></g></g><g><defs><path id="cX" d="M1057.4-423.3h9v9h-9z"/></defs><clipPath id="cY"><use xlink:href="#cX" overflow="visible"/></clipPath><g clip-path="url(#cY)"><defs><path id="cZ" d="M98.4-949.3h1121v1030H98.4z"/></defs></g></g><g><defs><path id="da" d="M1028.4-396.8h-1.5v12h12v-12h-10.5zm0 3h9l-1.5-1.5v9l1.5-1.5h-9l1.5 1.5v-9l-1.5 1.5zm-21.5-23h52v52h-52v-52z"/></defs><clipPath id="db"><use xlink:href="#da" overflow="visible"/></clipPath><g clip-path="url(#db)"><defs><path id="dc" d="M1028.4-395.3h9v9h-9z"/></defs><clipPath id="dd"><use xlink:href="#dc" overflow="visible"/></clipPath><g clip-path="url(#dd)"><defs><path id="de" d="M98.4-949.3h1121v1030H98.4z"/></defs></g></g></g><g><defs><path id="df" d="M1028.4-395.3h9v9h-9z"/></defs><clipPath id="dg"><use xlink:href="#df" overflow="visible"/></clipPath><g clip-path="url(#dg)"><defs><path id="dh" d="M98.4-949.3h1121v1030H98.4z"/></defs></g></g><g><defs><path id="di" d="M1057.4-396.8h-1.5v12h12v-12h-10.5zm0 3h9l-1.5-1.5v9l1.5-1.5h-9l1.5 1.5v-9l-1.5 1.5zm-21.5-23h52v52h-52v-52z"/></defs><clipPath id="dj"><use xlink:href="#di" overflow="visible"/></clipPath><g clip-path="url(#dj)"><defs><path id="dk" d="M1057.4-395.3h9v9h-9z"/></defs><clipPath id="dl"><use xlink:href="#dk" overflow="visible"/></clipPath><g clip-path="url(#dl)"><defs><path id="dm" d="M98.4-949.3h1121v1030H98.4z"/></defs></g></g></g><g><defs><path id="dn" d="M1057.4-395.3h9v9h-9z"/></defs><clipPath id="do"><use xlink:href="#dn" overflow="visible"/></clipPath><g clip-path="url(#do)"><defs><path id="dp" d="M98.4-949.3h1121v1030H98.4z"/></defs></g></g><g><path fill="#0C1F2E" d="M137.2 85.5h-.1c-4.9-.5-8.6-5.6-8.6-11.9v-.7c0-.8.7-1.5 1.6-1.4.8 0 1.5.7 1.4 1.6v.6c0 4.7 2.6 8.6 5.9 8.9.8.1 1.4.8 1.4 1.6-.2.7-.8 1.3-1.6 1.3z"/></g><g><path fill-rule="evenodd" clip-rule="evenodd" fill="#FFF" d="M71 45.5v17.1c0 4.9 28.2 8.9 63.5 8.9s63.5-4 63.5-8.9V45.5H71z"/><path fill="#0C1F2E" d="M135 73c-2.7 0-65-.1-65-10.4V43.5h130v19.1c0 10.3-62.3 10.4-65 10.4zM73 46.5v16.1c.9 2.6 22.4 7.4 62 7.4s61.1-4.8 62-7.5V46.4H73z"/></g><g><ellipse fill-rule="evenodd" clip-rule="evenodd" fill="#FFF" cx="135.2" cy="44.7" rx="64" ry="8.9"/><path fill="#0C1F2E" d="M135.2 55.2c-17.2 0-33.3-.9-45.4-2.6-17.8-2.5-20-5.5-20-7.8s2.3-5.3 20-7.8c12.1-1.7 28.3-2.6 45.4-2.6s33.3.9 45.4 2.6c17.8 2.5 20 5.5 20 7.8s-2.3 5.3-20 7.8c-12.1 1.6-28.2 2.6-45.4 2.6zM72.8 44.7c1.2 2.7 22.9 7.4 62.5 7.4s61.3-4.7 62.5-7.4c-1.2-2.7-22.9-7.4-62.5-7.4-39.7 0-61.3 4.7-62.5 7.4z"/></g><g><circle fill-rule="evenodd" clip-rule="evenodd" fill="#FFF" cx="137.4" cy="96.3" r="17.7"/><path fill="#0C1F2E" d="M137.4 115.5c-10.6 0-19.2-8.6-19.2-19.2S126.8 77 137.4 77s19.2 8.6 19.2 19.2-8.6 19.3-19.2 19.3zm0-35.5c-9 0-16.2 7.3-16.2 16.2s7.3 16.2 16.2 16.2 16.2-7.3 16.2-16.2S146.4 80 137.4 80z"/></g><g><path fill="#0C1F2E" d="M139.1 85.4c-.7 0-1.3-.5-1.5-1.2-.2-.8.3-1.6 1.1-1.8 3-.7 5.3-4.5 5.3-8.8 0-4.9-2.8-8.9-6.3-8.9h-.2c-.8 0-1.5-.6-1.6-1.4 0-.8.6-1.5 1.4-1.6h.3c5.1 0 9.3 5.4 9.3 11.9 0 5.8-3.2 10.7-7.6 11.7 0 .1-.1.1-.2.1z"/></g><g><path fill="#FFF" d="M143.9 94.4c0 3.6-6.5 12.2-6.5 12.2S131 98 131 94.4c0-3.6 2.9-6.5 6.5-6.5 3.5.1 6.4 3 6.4 6.5z"/><path fill="#0F1F2D" d="M137.4 109.2l-1.2-1.6c-1.1-1.5-6.8-9.3-6.8-13.1 0-4.4 3.6-8 8-8s8 3.6 8 8c0 3.9-5.6 11.6-6.8 13.1l-1.2 1.6zm0-19.7c-2.7 0-5 2.2-5 5 0 1.8 2.6 6.3 5 9.7 2.3-3.3 5-7.8 5-9.7 0-2.8-2.2-5-5-5z"/></g><g><circle fill="#0F1F2D" cx="137.4" cy="93.8" r="2.1"/></g><g><defs><path id="dq" d="M70.5 184H69v90h134v-90H70.5zm0 3h131l-1.5-1.5v87l1.5-1.5h-131l1.5 1.5v-87l-1.5 1.5zM49 164h174v130H49V164z"/></defs><clipPath id="dr"><use xlink:href="#dq" overflow="visible"/></clipPath><g clip-path="url(#dr)"><defs><path id="ds" d="M70.5 185.5h131v87h-131z"/></defs><clipPath id="dt"><use xlink:href="#ds" overflow="visible"/></clipPath><g clip-path="url(#dt)"><defs><path id="du" d="M-538.5-118.5h1121v1030h-1121z"/></defs></g></g></g><g><defs><path id="dv" d="M70.5 185.5h131v87h-131z"/></defs><clipPath id="dw"><use xlink:href="#dv" overflow="visible"/></clipPath><g clip-path="url(#dw)"><defs><path id="dx" d="M-538.5-118.5h1121v1030h-1121z"/></defs></g></g><g><defs><path id="dy" d="M75.5 189H74v80h124v-80H75.5zm0 3h121l-1.5-1.5v77l1.5-1.5h-121l1.5 1.5v-77l-1.5 1.5zM54 169h164v120H54V169z"/></defs><clipPath id="dz"><use xlink:href="#dy" overflow="visible"/></clipPath><g clip-path="url(#dz)"><defs><path id="dA" d="M75.5 190.5h121v77h-121z"/></defs><clipPath id="dB"><use xlink:href="#dA" overflow="visible"/></clipPath><g clip-path="url(#dB)"><defs><path id="dC" d="M-538.5-118.5h1121v1030h-1121z"/></defs></g></g></g><g><defs><path id="dD" d="M75.5 190.5h121v77h-121z"/></defs><clipPath id="dE"><use xlink:href="#dD" overflow="visible"/></clipPath><g clip-path="url(#dE)"><defs><path id="dF" d="M-538.5-118.5h1121v1030h-1121z"/></defs></g></g><g><defs><path id="dG" d="M140.5 204H139v6h47v-6h-45.5zm0 3h44l-1.5-1.5v3l1.5-1.5h-44l1.5 1.5v-3l-1.5 1.5zM119 184h87v46h-87v-46z"/></defs><clipPath id="dH"><use xlink:href="#dG" overflow="visible"/></clipPath><g clip-path="url(#dH)"><defs><path id="dI" d="M140.5 205.5h44v3h-44z"/></defs><clipPath id="dJ"><use xlink:href="#dI" overflow="visible"/></clipPath><g clip-path="url(#dJ)"><defs><path id="dK" d="M-538.5-118.5h1121v1030h-1121z"/></defs></g></g></g><g><defs><path id="dL" d="M140.5 205.5h44v3h-44z"/></defs><clipPath id="dM"><use xlink:href="#dL" overflow="visible"/></clipPath><g clip-path="url(#dM)"><defs><path id="dN" d="M-538.5-118.5h1121v1030h-1121z"/></defs></g></g><g><defs><path id="dO" d="M140.5 210H139v6h47v-6h-45.5zm0 3h44l-1.5-1.5v3l1.5-1.5h-44l1.5 1.5v-3l-1.5 1.5zM119 190h87v46h-87v-46z"/></defs><clipPath id="dP"><use xlink:href="#dO" overflow="visible"/></clipPath><g clip-path="url(#dP)"><defs><path id="dQ" d="M140.5 211.5h44v3h-44z"/></defs><clipPath id="dR"><use xlink:href="#dQ" overflow="visible"/></clipPath><g clip-path="url(#dR)"><defs><path id="dS" d="M-538.5-118.5h1121v1030h-1121z"/></defs></g></g></g><g><defs><path id="dT" d="M140.5 211.5h44v3h-44z"/></defs><clipPath id="dU"><use xlink:href="#dT" overflow="visible"/></clipPath><g clip-path="url(#dU)"><defs><path id="dV" d="M-538.5-118.5h1121v1030h-1121z"/></defs></g></g><g><defs><path id="dW" d="M140.5 216H139v6h47v-6h-45.5zm0 3h44l-1.5-1.5v3l1.5-1.5h-44l1.5 1.5v-3l-1.5 1.5zM119 196h87v46h-87v-46z"/></defs><clipPath id="dX"><use xlink:href="#dW" overflow="visible"/></clipPath><g clip-path="url(#dX)"><defs><path id="dY" d="M140.5 217.5h44v3h-44z"/></defs><clipPath id="dZ"><use xlink:href="#dY" overflow="visible"/></clipPath><g clip-path="url(#dZ)"><defs><path id="ea" d="M-538.5-118.5h1121v1030h-1121z"/></defs></g></g></g><g><defs><path id="eb" d="M140.5 217.5h44v3h-44z"/></defs><clipPath id="ec"><use xlink:href="#eb" overflow="visible"/></clipPath><g clip-path="url(#ec)"><defs><path id="ed" d="M-538.5-118.5h1121v1030h-1121z"/></defs></g></g><g><defs><path id="ee" d="M140.5 222H139v6h47v-6h-45.5zm0 3h44l-1.5-1.5v3l1.5-1.5h-44l1.5 1.5v-3l-1.5 1.5zM119 202h87v46h-87v-46z"/></defs><clipPath id="ef"><use xlink:href="#ee" overflow="visible"/></clipPath><g clip-path="url(#ef)"><defs><path id="eg" d="M140.5 223.5h44v3h-44z"/></defs><clipPath id="eh"><use xlink:href="#eg" overflow="visible"/></clipPath><g clip-path="url(#eh)"><defs><path id="ei" d="M-538.5-118.5h1121v1030h-1121z"/></defs></g></g></g><g><defs><path id="ej" d="M140.5 223.5h44v3h-44z"/></defs><clipPath id="ek"><use xlink:href="#ej" overflow="visible"/></clipPath><g clip-path="url(#ek)"><defs><path id="el" d="M-538.5-118.5h1121v1030h-1121z"/></defs></g></g><g><defs><path id="em" d="M364.1 184h-1.5v90h134v-90H364.1zm0 3h131l-1.5-1.5v87l1.5-1.5h-131l1.5 1.5v-87l-1.5 1.5zm-21.5-23h174v130h-174V164z"/></defs><clipPath id="en"><use xlink:href="#em" overflow="visible"/></clipPath><g clip-path="url(#en)"><defs><path id="eo" d="M364.1 185.5h131v87h-131z"/></defs><clipPath id="ep"><use xlink:href="#eo" overflow="visible"/></clipPath><g clip-path="url(#ep)"><defs><path id="eq" d="M-244.9-118.5h1121v1030h-1121z"/></defs></g></g></g><g><defs><path id="er" d="M364.1 185.5h131v87h-131z"/></defs><clipPath id="es"><use xlink:href="#er" overflow="visible"/></clipPath><g clip-path="url(#es)"><defs><path id="et" d="M-244.9-118.5h1121v1030h-1121z"/></defs></g></g><g><defs><path id="eu" d="M369.1 189h-1.5v80h124v-80H369.1zm0 3h121l-1.5-1.5v77l1.5-1.5h-121l1.5 1.5v-77l-1.5 1.5zm-21.5-23h164v120h-164V169z"/></defs><clipPath id="ev"><use xlink:href="#eu" overflow="visible"/></clipPath><g clip-path="url(#ev)"><defs><path id="ew" d="M369.1 190.5h121v77h-121z"/></defs><clipPath id="ex"><use xlink:href="#ew" overflow="visible"/></clipPath><g clip-path="url(#ex)"><defs><path id="ey" d="M-244.9-118.5h1121v1030h-1121z"/></defs></g></g></g><g><defs><path id="ez" d="M369.1 190.5h121v77h-121z"/></defs><clipPath id="eA"><use xlink:href="#ez" overflow="visible"/></clipPath><g clip-path="url(#eA)"><defs><path id="eB" d="M-244.9-118.5h1121v1030h-1121z"/></defs></g></g><g><defs><path id="eC" d="M434.1 204h-1.5v6h47v-6h-45.5zm0 3h44l-1.5-1.5v3l1.5-1.5h-44l1.5 1.5v-3l-1.5 1.5zm-21.5-23h87v46h-87v-46z"/></defs><clipPath id="eD"><use xlink:href="#eC" overflow="visible"/></clipPath><g clip-path="url(#eD)"><defs><path id="eE" d="M434.1 205.5h44v3h-44z"/></defs><clipPath id="eF"><use xlink:href="#eE" overflow="visible"/></clipPath><g clip-path="url(#eF)"><defs><path id="eG" d="M-244.9-118.5h1121v1030h-1121z"/></defs></g></g></g><g><defs><path id="eH" d="M434.1 205.5h44v3h-44z"/></defs><clipPath id="eI"><use xlink:href="#eH" overflow="visible"/></clipPath><g clip-path="url(#eI)"><defs><path id="eJ" d="M-244.9-118.5h1121v1030h-1121z"/></defs></g></g><g><defs><path id="eK" d="M434.1 210h-1.5v6h47v-6h-45.5zm0 3h44l-1.5-1.5v3l1.5-1.5h-44l1.5 1.5v-3l-1.5 1.5zm-21.5-23h87v46h-87v-46z"/></defs><clipPath id="eL"><use xlink:href="#eK" overflow="visible"/></clipPath><g clip-path="url(#eL)"><defs><path id="eM" d="M434.1 211.5h44v3h-44z"/></defs><clipPath id="eN"><use xlink:href="#eM" overflow="visible"/></clipPath><g clip-path="url(#eN)"><defs><path id="eO" d="M-244.9-118.5h1121v1030h-1121z"/></defs></g></g></g><g><defs><path id="eP" d="M434.1 211.5h44v3h-44z"/></defs><clipPath id="eQ"><use xlink:href="#eP" overflow="visible"/></clipPath><g clip-path="url(#eQ)"><defs><path id="eR" d="M-244.9-118.5h1121v1030h-1121z"/></defs></g></g><g><defs><path id="eS" d="M434.1 216h-1.5v6h47v-6h-45.5zm0 3h44l-1.5-1.5v3l1.5-1.5h-44l1.5 1.5v-3l-1.5 1.5zm-21.5-23h87v46h-87v-46z"/></defs><clipPath id="eT"><use xlink:href="#eS" overflow="visible"/></clipPath><g clip-path="url(#eT)"><defs><path id="eU" d="M434.1 217.5h44v3h-44z"/></defs><clipPath id="eV"><use xlink:href="#eU" overflow="visible"/></clipPath><g clip-path="url(#eV)"><defs><path id="eW" d="M-244.9-118.5h1121v1030h-1121z"/></defs></g></g></g><g><defs><path id="eX" d="M434.1 217.5h44v3h-44z"/></defs><clipPath id="eY"><use xlink:href="#eX" overflow="visible"/></clipPath><g clip-path="url(#eY)"><defs><path id="eZ" d="M-244.9-118.5h1121v1030h-1121z"/></defs></g></g><g><defs><path id="fa" d="M434.1 222h-1.5v6h47v-6h-45.5zm0 3h44l-1.5-1.5v3l1.5-1.5h-44l1.5 1.5v-3l-1.5 1.5zm-21.5-23h87v46h-87v-46z"/></defs><clipPath id="fb"><use xlink:href="#fa" overflow="visible"/></clipPath><g clip-path="url(#fb)"><defs><path id="fc" d="M434.1 223.5h44v3h-44z"/></defs><clipPath id="fd"><use xlink:href="#fc" overflow="visible"/></clipPath><g clip-path="url(#fd)"><defs><path id="fe" d="M-244.9-118.5h1121v1030h-1121z"/></defs></g></g></g><g><defs><path id="ff" d="M434.1 223.5h44v3h-44z"/></defs><clipPath id="fg"><use xlink:href="#ff" overflow="visible"/></clipPath><g clip-path="url(#fg)"><defs><path id="fh" d="M-244.9-118.5h1121v1030h-1121z"/></defs></g></g></svg>