<svg xmlns="http://www.w3.org/2000/svg" viewBox="0 0 276 137"><defs><path id="a" d="M379.4-134.8h-1.5v84h108v-84H379.4zm0 3h105l-1.5-1.5v81l1.5-1.5h-105l1.5 1.5v-81l-1.5 1.5zm-21.5-23h148v124h-148v-124z"/></defs><defs><path id="b" d="M373.4-117.8h-2.2l.9-2.1 9.1-22 .4-.9h100.9l.4.9 9.1 22 .9 2.1H373.4zm0-3h117l-1.4 2.1-9.1-22 1.4.9h-98.9l1.4-.9-9.1 22-1.3-2.1zm-22.3 23h161.5v-65H351.1v65z"/></defs><defs><path id="c" d="M458.4-150.8h-1.5v19h15v-19h-13.5zm0 3h12l-1.5-1.5v16l1.5-1.5h-12l1.5 1.5v-16l-1.5 1.5zm-21.5-23h55v59h-55v-59z"/></defs><defs><path id="d" d="M392.4-84.8h-1.5v34h24v-34h-22.5zm0 3h21l-1.5-1.5v31l1.5-1.5h-21l1.5 1.5v-31l-1.5 1.5zm-21.5-23h64v74h-64v-74z"/></defs><defs><path id="e" d="M393.4-112.8h-1.5v22h22v-22h-20.5zm0 3h19l-1.5-1.5v19l1.5-1.5h-19l1.5 1.5v-19l-1.5 1.5zm-21.5-23h62v62h-62v-62z"/></defs><defs><path id="f" d="M398.4-107.8h-1.5v12h12v-12h-10.5zm0 3h9l-1.5-1.5v9l1.5-1.5h-9l1.5 1.5v-9l-1.5 1.5zm-21.5-23h52v52h-52v-52z"/></defs><defs><path id="g" d="M423.4-112.8h-1.5v22h22v-22h-20.5zm0 3h19l-1.5-1.5v19l1.5-1.5h-19l1.5 1.5v-19l-1.5 1.5zm-21.5-23h62v62h-62v-62z"/></defs><defs><path id="h" d="M452.4-112.8h-1.5v22h22v-22h-20.5zm0 3h19l-1.5-1.5v19l1.5-1.5h-19l1.5 1.5v-19l-1.5 1.5zm-21.5-23h62v62h-62v-62z"/></defs><defs><path id="i" d="M423.4-84.8h-1.5v22h22v-22h-20.5zm0 3h19l-1.5-1.5v19l1.5-1.5h-19l1.5 1.5v-19l-1.5 1.5zm-21.5-23h62v62h-62v-62z"/></defs><defs><path id="j" d="M452.4-84.8h-1.5v22h22v-22h-20.5zm0 3h19l-1.5-1.5v19l1.5-1.5h-19l1.5 1.5v-19l-1.5 1.5zm-21.5-23h62v62h-62v-62z"/></defs><defs><path id="k" d="M428.4-107.8h-1.5v12h12v-12h-10.5zm0 3h9l-1.5-1.5v9l1.5-1.5h-9l1.5 1.5v-9l-1.5 1.5zm-21.5-23h52v52h-52v-52z"/></defs><defs><path id="l" d="M457.4-107.8h-1.5v12h12v-12h-10.5zm0 3h9l-1.5-1.5v9l1.5-1.5h-9l1.5 1.5v-9l-1.5 1.5zm-21.5-23h52v52h-52v-52z"/></defs><defs><path id="m" d="M428.4-79.8h-1.5v12h12v-12h-10.5zm0 3h9l-1.5-1.5v9l1.5-1.5h-9l1.5 1.5v-9l-1.5 1.5zm-21.5-23h52v52h-52v-52z"/></defs><defs><path id="n" d="M457.4-79.8h-1.5v12h12v-12h-10.5zm0 3h9l-1.5-1.5v9l1.5-1.5h-9l1.5 1.5v-9l-1.5 1.5zm-21.5-23h52v52h-52v-52z"/></defs><defs><path id="o" d="M979.4-451.8h-1.5v84h108v-84H979.4zm0 3h105l-1.5-1.5v81l1.5-1.5h-105l1.5 1.5v-81l-1.5 1.5zm-21.5-23h148v124h-148v-124z"/></defs><defs><path id="p" d="M973.4-434.8h-2.2l.9-2.1 9.1-22 .4-.9h100.9l.4.9 9.1 22 .9 2.1H973.4zm0-3h117l-1.4 2.1-9.1-22 1.4.9h-98.9l1.4-.9-9.1 22-1.3-2.1zm-22.3 23h161.5v-65H951.1v65z"/></defs><defs><path id="q" d="M1058.4-467.8h-1.5v19h15v-19h-13.5zm0 3h12l-1.5-1.5v16l1.5-1.5h-12l1.5 1.5v-16l-1.5 1.5zm-21.5-23h55v59h-55v-59z"/></defs><defs><path id="r" d="M992.4-401.8h-1.5v34h24v-34h-22.5zm0 3h21l-1.5-1.5v31l1.5-1.5h-21l1.5 1.5v-31l-1.5 1.5zm-21.5-23h64v74h-64v-74z"/></defs><defs><path id="s" d="M993.4-429.8h-1.5v22h22v-22h-20.5zm0 3h19l-1.5-1.5v19l1.5-1.5h-19l1.5 1.5v-19l-1.5 1.5zm-21.5-23h62v62h-62v-62z"/></defs><defs><path id="t" d="M998.4-424.8h-1.5v12h12v-12h-10.5zm0 3h9l-1.5-1.5v9l1.5-1.5h-9l1.5 1.5v-9l-1.5 1.5zm-21.5-23h52v52h-52v-52z"/></defs><defs><path id="u" d="M1023.4-429.8h-1.5v22h22v-22h-20.5zm0 3h19l-1.5-1.5v19l1.5-1.5h-19l1.5 1.5v-19l-1.5 1.5zm-21.5-23h62v62h-62v-62z"/></defs><defs><path id="v" d="M1052.4-429.8h-1.5v22h22v-22h-20.5zm0 3h19l-1.5-1.5v19l1.5-1.5h-19l1.5 1.5v-19l-1.5 1.5zm-21.5-23h62v62h-62v-62z"/></defs><defs><path id="w" d="M1023.4-401.8h-1.5v22h22v-22h-20.5zm0 3h19l-1.5-1.5v19l1.5-1.5h-19l1.5 1.5v-19l-1.5 1.5zm-21.5-23h62v62h-62v-62z"/></defs><defs><path id="x" d="M1052.4-401.8h-1.5v22h22v-22h-20.5zm0 3h19l-1.5-1.5v19l1.5-1.5h-19l1.5 1.5v-19l-1.5 1.5zm-21.5-23h62v62h-62v-62z"/></defs><defs><path id="y" d="M1028.4-424.8h-1.5v12h12v-12h-10.5zm0 3h9l-1.5-1.5v9l1.5-1.5h-9l1.5 1.5v-9l-1.5 1.5zm-21.5-23h52v52h-52v-52z"/></defs><defs><path id="z" d="M1057.4-424.8h-1.5v12h12v-12h-10.5zm0 3h9l-1.5-1.5v9l1.5-1.5h-9l1.5 1.5v-9l-1.5 1.5zm-21.5-23h52v52h-52v-52z"/></defs><defs><path id="A" d="M1028.4-396.8h-1.5v12h12v-12h-10.5zm0 3h9l-1.5-1.5v9l1.5-1.5h-9l1.5 1.5v-9l-1.5 1.5zm-21.5-23h52v52h-52v-52z"/></defs><defs><path id="B" d="M1057.4-396.8h-1.5v12h12v-12h-10.5zm0 3h9l-1.5-1.5v9l1.5-1.5h-9l1.5 1.5v-9l-1.5 1.5zm-21.5-23h52v52h-52v-52z"/></defs><path fill="#0C1F2E" d="M137.2 85.5h-.1c-4.9-.5-8.6-5.6-8.6-11.9v-.7c0-.8.7-1.5 1.6-1.4.8 0 1.5.7 1.4 1.6v.6c0 4.7 2.6 8.6 5.9 8.9.8.1 1.4.8 1.4 1.6-.2.7-.8 1.3-1.6 1.3z"/><path fill-rule="evenodd" clip-rule="evenodd" fill="#FFF" d="M71 45.5v17.1c0 4.9 28.2 8.9 63.5 8.9s63.5-4 63.5-8.9V45.5H71z"/><path fill="#0C1F2E" d="M135 73c-2.7 0-65-.1-65-10.4V43.5h130v19.1c0 10.3-62.3 10.4-65 10.4zM73 46.5v16.1c.9 2.6 22.4 7.4 62 7.4s61.1-4.8 62-7.5V46.4H73z"/><ellipse fill-rule="evenodd" clip-rule="evenodd" fill="#FFF" cx="135.2" cy="44.7" rx="64" ry="8.9"/><path fill="#0C1F2E" d="M135.2 55.2c-17.2 0-33.3-.9-45.4-2.6-17.8-2.5-20-5.5-20-7.8s2.3-5.3 20-7.8c12.1-1.7 28.3-2.6 45.4-2.6s33.3.9 45.4 2.6c17.8 2.5 20 5.5 20 7.8s-2.3 5.3-20 7.8c-12.1 1.6-28.2 2.6-45.4 2.6zM72.8 44.7c1.2 2.7 22.9 7.4 62.5 7.4s61.3-4.7 62.5-7.4c-1.2-2.7-22.9-7.4-62.5-7.4-39.7 0-61.3 4.7-62.5 7.4z"/><circle fill-rule="evenodd" clip-rule="evenodd" fill="#FFF" cx="137.4" cy="96.3" r="17.7"/><path fill="#0C1F2E" d="M137.4 115.5c-10.6 0-19.2-8.6-19.2-19.2S126.8 77 137.4 77s19.2 8.6 19.2 19.2-8.6 19.3-19.2 19.3zm0-35.5c-9 0-16.2 7.3-16.2 16.2s7.3 16.2 16.2 16.2 16.2-7.3 16.2-16.2S146.4 80 137.4 80z"/><path fill="#0C1F2E" d="M139.1 85.4c-.7 0-1.3-.5-1.5-1.2-.2-.8.3-1.6 1.1-1.8 3-.7 5.3-4.5 5.3-8.8 0-4.9-2.8-8.9-6.3-8.9h-.2c-.8 0-1.5-.6-1.6-1.4 0-.8.6-1.5 1.4-1.6h.3c5.1 0 9.3 5.4 9.3 11.9 0 5.8-3.2 10.7-7.6 11.7 0 .1-.1.1-.2.1z"/><path fill="#FFF" d="M143.9 94.4c0 3.6-6.5 12.2-6.5 12.2S131 98 131 94.4c0-3.6 2.9-6.5 6.5-6.5 3.5.1 6.4 3 6.4 6.5z"/><path fill="#0F1F2D" d="M137.4 109.2l-1.2-1.6c-1.1-1.5-6.8-9.3-6.8-13.1 0-4.4 3.6-8 8-8s8 3.6 8 8c0 3.9-5.6 11.6-6.8 13.1l-1.2 1.6zm0-19.7c-2.7 0-5 2.2-5 5 0 1.8 2.6 6.3 5 9.7 2.3-3.3 5-7.8 5-9.7 0-2.8-2.2-5-5-5z"/><circle fill="#0F1F2D" cx="137.4" cy="93.8" r="2.1"/><defs><path id="C" d="M70.5 184H69v90h134v-90H70.5zm0 3h131l-1.5-1.5v87l1.5-1.5h-131l1.5 1.5v-87l-1.5 1.5zM49 164h174v130H49V164z"/></defs><defs><path id="D" d="M75.5 189H74v80h124v-80H75.5zm0 3h121l-1.5-1.5v77l1.5-1.5h-121l1.5 1.5v-77l-1.5 1.5zM54 169h164v120H54V169z"/></defs><defs><path id="E" d="M140.5 204H139v6h47v-6h-45.5zm0 3h44l-1.5-1.5v3l1.5-1.5h-44l1.5 1.5v-3l-1.5 1.5zM119 184h87v46h-87v-46z"/></defs><defs><path id="F" d="M140.5 210H139v6h47v-6h-45.5zm0 3h44l-1.5-1.5v3l1.5-1.5h-44l1.5 1.5v-3l-1.5 1.5zM119 190h87v46h-87v-46z"/></defs><defs><path id="G" d="M140.5 216H139v6h47v-6h-45.5zm0 3h44l-1.5-1.5v3l1.5-1.5h-44l1.5 1.5v-3l-1.5 1.5zM119 196h87v46h-87v-46z"/></defs><defs><path id="H" d="M140.5 222H139v6h47v-6h-45.5zm0 3h44l-1.5-1.5v3l1.5-1.5h-44l1.5 1.5v-3l-1.5 1.5zM119 202h87v46h-87v-46z"/></defs><defs><path id="I" d="M364.1 184h-1.5v90h134v-90H364.1zm0 3h131l-1.5-1.5v87l1.5-1.5h-131l1.5 1.5v-87l-1.5 1.5zm-21.5-23h174v130h-174V164z"/></defs><defs><path id="J" d="M369.1 189h-1.5v80h124v-80H369.1zm0 3h121l-1.5-1.5v77l1.5-1.5h-121l1.5 1.5v-77l-1.5 1.5zm-21.5-23h164v120h-164V169z"/></defs><defs><path id="K" d="M434.1 204h-1.5v6h47v-6h-45.5zm0 3h44l-1.5-1.5v3l1.5-1.5h-44l1.5 1.5v-3l-1.5 1.5zm-21.5-23h87v46h-87v-46z"/></defs><defs><path id="L" d="M434.1 210h-1.5v6h47v-6h-45.5zm0 3h44l-1.5-1.5v3l1.5-1.5h-44l1.5 1.5v-3l-1.5 1.5zm-21.5-23h87v46h-87v-46z"/></defs><defs><path id="M" d="M434.1 216h-1.5v6h47v-6h-45.5zm0 3h44l-1.5-1.5v3l1.5-1.5h-44l1.5 1.5v-3l-1.5 1.5zm-21.5-23h87v46h-87v-46z"/></defs><defs><path id="N" d="M434.1 222h-1.5v6h47v-6h-45.5zm0 3h44l-1.5-1.5v3l1.5-1.5h-44l1.5 1.5v-3l-1.5 1.5zm-21.5-23h87v46h-87v-46z"/></defs></svg>