<svg xmlns="http://www.w3.org/2000/svg" xmlns:xlink="http://www.w3.org/1999/xlink" viewBox="0 0 276 137"><circle fill="#FFF" stroke="#0F1F2D" stroke-width="3" stroke-linecap="round" stroke-miterlimit="10" cx="130.4" cy="103.1" r="17"/><path fill="#FFF" stroke="#0F1F2D" stroke-width="3" stroke-linecap="round" stroke-miterlimit="10" d="M136.6 100.6c0 3.4-6.2 11.7-6.2 11.7s-6.2-8.3-6.2-11.7c0-3.4 2.8-6.2 6.2-6.2 3.4 0 6.2 2.8 6.2 6.2z"/><circle fill="#0F1F2D" cx="130.4" cy="100" r="2.1"/><defs><path id="a" d="M-750-199.7c-27.1 0-49-21.9-49-49s21.9-49 49-49 49 21.9 49 49c0 27-21.9 49-49 49zm0 3c28.7 0 52-23.3 52-52s-23.3-52-52-52-52 23.3-52 52 23.3 52 52 52zm-72-124h144v144h-144v-144z"/></defs><clipPath id="b"><use xlink:href="#a" overflow="visible"/></clipPath><g clip-path="url(#b)"><defs><circle id="c" cx="-750" cy="-248.7" r="50.5"/></defs><clipPath id="d"><use xlink:href="#c" overflow="visible"/></clipPath><g clip-path="url(#d)"><defs><path id="e" d="M-924.5-984.7h1121v1030h-1121z"/></defs></g></g><defs><circle id="f" cx="-750" cy="-248.7" r="50.5"/></defs><clipPath id="g"><use xlink:href="#f" overflow="visible"/></clipPath><g clip-path="url(#g)"><defs><path id="h" d="M-924.5-984.7h1121v1030h-1121z"/></defs></g><defs><circle id="i" cx="-750" cy="-248.7" r="43.5"/></defs><clipPath id="j"><use xlink:href="#i" overflow="visible"/></clipPath><g clip-path="url(#j)"><defs><path id="k" d="M-924.5-984.7h1121v1030h-1121z"/></defs></g><defs><path id="l" d="M-749.3-32.5c-24.6 0-44.6-20-44.6-44.6s20-44.6 44.6-44.6 44.6 20 44.6 44.6-20 44.6-44.6 44.6zm0 2.7c26.1 0 47.3-21.2 47.3-47.3s-21.2-47.3-47.3-47.3c-26.1 0-47.3 21.2-47.3 47.3s21.2 47.3 47.3 47.3zm-65.5-112.8h131v131h-131v-131z"/></defs><clipPath id="m"><use xlink:href="#l" overflow="visible"/></clipPath><g clip-path="url(#m)"><defs><circle id="n" cx="-749.3" cy="-77.1" r="45.9"/></defs><clipPath id="o"><use xlink:href="#n" overflow="visible"/></clipPath><g clip-path="url(#o)"><defs><path id="p" d="M-908-746.7H111.8v937H-908z"/></defs></g></g><defs><circle id="q" cx="-749.3" cy="-77.1" r="45.9"/></defs><clipPath id="r"><use xlink:href="#q" overflow="visible"/></clipPath><g clip-path="url(#r)"><defs><path id="s" d="M-908-746.7H111.8v937H-908z"/></defs></g><defs><circle id="t" cx="-749.3" cy="-77.1" r="39.6"/></defs><clipPath id="u"><use xlink:href="#t" overflow="visible"/></clipPath><g clip-path="url(#u)"><defs><path id="v" d="M-908-746.7H111.8v937H-908z"/></defs></g><path fill="#0F1F2D" d="M175.6 119.9H159l2.5-43.8h13.2v17.1l8.4-10.6 16.8-9.3-25.2 31.7.9 14.9zm-13.9-2.6h11.2l-.8-13.1 17.8-22.5-5.1 2.8-12.7 16V78.6h-8.2l-2.2 38.7zM103.6 119.9H87.9L89.7 97l-9.2-20.8h9.3l5.7 12.7 3.9-12.7H111l-9.8 21.2 2.4 22.5zm-12.9-2.6h10l-2.1-20.4 8.4-18.2h-5.6L96 96.2l-7.8-17.4h-3.7l7.9 17.8-1.7 20.7z"/><path fill="#FFF" stroke="#0F1F2D" stroke-width="3" stroke-linecap="round" stroke-miterlimit="10" d="M201.6 63.2c.2-.9.3-1.9.3-2.8 0-5.4-3.6-10-8.4-11.6.6-1.5 1-3.2 1-4.9 0-7-5.7-12.7-12.7-12.7-.6 0-1.2 0-1.8.1-1.2-4.8-5.6-8.4-10.9-8.4-5.2 0-9.5 3.5-10.8 8.3h-.4c-9.3 0-16.9 7.6-16.9 16.9 0 2.7.7 5.3 1.8 7.6-5.8 2.2-9.8 7.8-9.8 14.3 0 8.5 6.9 15.4 15.4 15.4 2.4 0 4.7-.6 6.8-1.6 1.9.9 4.1 1.4 6.3 1.4 3.5 0 6.8-1.2 9.4-3.2 2.6 2 5.9 3.2 9.4 3.2 4.3 0 8.2-1.8 11-4.7 1.7 1.3 3.8 2.1 6.1 2.1 5.6 0 10.1-4.5 10.1-10.1.1-4.2-2.4-7.7-5.9-9.3zM88.1 80.8c1 .6 2.2 1.1 3.4 1.4 3.3.8 6.6.3 9.4-1.2.8.7 1.8 1.3 2.9 1.5 3.7.9 7.4-1.3 8.4-5 .1-.2.1-.5.1-.7 5.6.4 10.8-3.2 12.2-8.9 1.6-6.3-2.3-12.7-8.5-14.2h-.1l.3-.9c.8-3.1-1.1-6.3-4.3-7.1-1.4-.4-2.8-.2-4 .4-1.7-3.5-4.9-6.2-8.9-7.2-6.2-1.5-12.4 1.4-15.3 6.8-3.1-.5-6.1 1.4-6.8 4.4-.4 1.5-.1 3.1.6 4.3-2.9 1.3-5.2 3.8-6.1 7.2-1.2 4.8 1.1 9.7 5.2 11.9-.4.6-.6 1.2-.8 1.9-.9 3.7 1.3 7.4 5 8.3 2.8.7 5.7-.5 7.3-2.9z"/><defs><path id="w" d="M-210.5 34.2h-1.5v84h108v-84h-106.5zm0 3h105l-1.5-1.5v81l1.5-1.5h-105l1.5 1.5v-81l-1.5 1.5zm-21.5-23h148v124h-148v-124z"/></defs><clipPath id="x"><use xlink:href="#w" overflow="visible"/></clipPath><g clip-path="url(#x)"><defs><path id="y" d="M-210.5 35.7h105v81h-105z"/></defs><clipPath id="z"><use xlink:href="#y" overflow="visible"/></clipPath><g clip-path="url(#z)"><defs><path id="A" d="M-1091.5-463.3h1121v1030h-1121z"/></defs></g></g><defs><path id="B" d="M-210.5 35.7h105v81h-105z"/></defs><clipPath id="C"><use xlink:href="#B" overflow="visible"/></clipPath><g clip-path="url(#C)"><defs><path id="D" d="M-1091.5-463.3h1121v1030h-1121z"/></defs></g><defs><path id="E" d="M-216.5 51.2h-2.2l.9-2.1 9.1-22 .4-.9h100.9l.4.9 9.1 22 .9 2.1h-119.5zm0-3h117l-1.4 2.1-9.1-22 1.4.9h-98.9l1.4-.9-9.1 22-1.3-2.1zm-22.2 23h161.5v-65h-161.5v65z"/></defs><clipPath id="F"><use xlink:href="#E" overflow="visible"/></clipPath><g clip-path="url(#F)"><defs><path id="G" d="M-216.5 49.7h117l-9.1-22h-98.8z"/></defs><clipPath id="H"><use xlink:href="#G" overflow="visible"/></clipPath><g clip-path="url(#H)"><defs><path id="I" d="M-1091.5-463.3h1121v1030h-1121z"/></defs></g></g><defs><path id="J" d="M-216.5 49.7h117l-9.1-22h-98.8z"/></defs><clipPath id="K"><use xlink:href="#J" overflow="visible"/></clipPath><g clip-path="url(#K)"><defs><path id="L" d="M-1091.5-463.3h1121v1030h-1121z"/></defs></g><defs><path id="M" d="M-131.5 18.2h-1.5v19h15v-19h-13.5zm0 3h12l-1.5-1.5v16l1.5-1.5h-12l1.5 1.5v-16l-1.5 1.5zm-21.5-23h55v59h-55v-59z"/></defs><clipPath id="N"><use xlink:href="#M" overflow="visible"/></clipPath><g clip-path="url(#N)"><defs><path id="O" d="M-131.5 19.7h12v16h-12z"/></defs><clipPath id="P"><use xlink:href="#O" overflow="visible"/></clipPath><g clip-path="url(#P)"><defs><path id="Q" d="M-1091.5-463.3h1121v1030h-1121z"/></defs></g></g><defs><path id="R" d="M-131.5 19.7h12v16h-12z"/></defs><clipPath id="S"><use xlink:href="#R" overflow="visible"/></clipPath><g clip-path="url(#S)"><defs><path id="T" d="M-1091.5-463.3h1121v1030h-1121z"/></defs></g><g><defs><path id="U" d="M-197.5 84.2h-1.5v34h24v-34h-22.5zm0 3h21l-1.5-1.5v31l1.5-1.5h-21l1.5 1.5v-31l-1.5 1.5zm-21.5-23h64v74h-64v-74z"/></defs><clipPath id="V"><use xlink:href="#U" overflow="visible"/></clipPath><g clip-path="url(#V)"><defs><path id="W" d="M-197.5 85.7h21v31h-21z"/></defs><clipPath id="X"><use xlink:href="#W" overflow="visible"/></clipPath><g clip-path="url(#X)"><defs><path id="Y" d="M-1091.5-463.3h1121v1030h-1121z"/></defs></g></g></g><g><defs><path id="Z" d="M-197.5 85.7h21v31h-21z"/></defs><clipPath id="aa"><use xlink:href="#Z" overflow="visible"/></clipPath><g clip-path="url(#aa)"><defs><path id="ab" d="M-1091.5-463.3h1121v1030h-1121z"/></defs></g></g><g><defs><path id="ac" d="M-196.5 56.2h-1.5v22h22v-22h-20.5zm0 3h19l-1.5-1.5v19l1.5-1.5h-19l1.5 1.5v-19l-1.5 1.5zm-21.5-23h62v62h-62v-62z"/></defs><clipPath id="ad"><use xlink:href="#ac" overflow="visible"/></clipPath><g clip-path="url(#ad)"><defs><path id="ae" d="M-196.5 57.7h19v19h-19z"/></defs><clipPath id="af"><use xlink:href="#ae" overflow="visible"/></clipPath><g clip-path="url(#af)"><defs><path id="ag" d="M-1091.5-463.3h1121v1030h-1121z"/></defs></g></g></g><g><defs><path id="ah" d="M-196.5 57.7h19v19h-19z"/></defs><clipPath id="ai"><use xlink:href="#ah" overflow="visible"/></clipPath><g clip-path="url(#ai)"><defs><path id="aj" d="M-1091.5-463.3h1121v1030h-1121z"/></defs></g></g><g><defs><path id="ak" d="M-191.5 61.2h-1.5v12h12v-12h-10.5zm0 3h9l-1.5-1.5v9l1.5-1.5h-9l1.5 1.5v-9l-1.5 1.5zm-21.5-23h52v52h-52v-52z"/></defs><clipPath id="al"><use xlink:href="#ak" overflow="visible"/></clipPath><g clip-path="url(#al)"><defs><path id="am" d="M-191.5 62.7h9v9h-9z"/></defs><clipPath id="an"><use xlink:href="#am" overflow="visible"/></clipPath><g clip-path="url(#an)"><defs><path id="ao" d="M-1091.5-463.3h1121v1030h-1121z"/></defs></g></g></g><g><defs><path id="ap" d="M-191.5 62.7h9v9h-9z"/></defs><clipPath id="aq"><use xlink:href="#ap" overflow="visible"/></clipPath><g clip-path="url(#aq)"><defs><path id="ar" d="M-1091.5-463.3h1121v1030h-1121z"/></defs></g></g><g><defs><path id="as" d="M-166.5 56.2h-1.5v22h22v-22h-20.5zm0 3h19l-1.5-1.5v19l1.5-1.5h-19l1.5 1.5v-19l-1.5 1.5zm-21.5-23h62v62h-62v-62z"/></defs><clipPath id="at"><use xlink:href="#as" overflow="visible"/></clipPath><g clip-path="url(#at)"><defs><path id="au" d="M-166.5 57.7h19v19h-19z"/></defs><clipPath id="av"><use xlink:href="#au" overflow="visible"/></clipPath><g clip-path="url(#av)"><defs><path id="aw" d="M-1091.5-463.3h1121v1030h-1121z"/></defs></g></g></g><g><defs><path id="ax" d="M-166.5 57.7h19v19h-19z"/></defs><clipPath id="ay"><use xlink:href="#ax" overflow="visible"/></clipPath><g clip-path="url(#ay)"><defs><path id="az" d="M-1091.5-463.3h1121v1030h-1121z"/></defs></g></g><g><defs><path id="aA" d="M-137.5 56.2h-1.5v22h22v-22h-20.5zm0 3h19l-1.5-1.5v19l1.5-1.5h-19l1.5 1.5v-19l-1.5 1.5zm-21.5-23h62v62h-62v-62z"/></defs><clipPath id="aB"><use xlink:href="#aA" overflow="visible"/></clipPath><g clip-path="url(#aB)"><defs><path id="aC" d="M-137.5 57.7h19v19h-19z"/></defs><clipPath id="aD"><use xlink:href="#aC" overflow="visible"/></clipPath><g clip-path="url(#aD)"><defs><path id="aE" d="M-1091.5-463.3h1121v1030h-1121z"/></defs></g></g></g><g><defs><path id="aF" d="M-137.5 57.7h19v19h-19z"/></defs><clipPath id="aG"><use xlink:href="#aF" overflow="visible"/></clipPath><g clip-path="url(#aG)"><defs><path id="aH" d="M-1091.5-463.3h1121v1030h-1121z"/></defs></g></g><g><defs><path id="aI" d="M-166.5 84.2h-1.5v22h22v-22h-20.5zm0 3h19l-1.5-1.5v19l1.5-1.5h-19l1.5 1.5v-19l-1.5 1.5zm-21.5-23h62v62h-62v-62z"/></defs><clipPath id="aJ"><use xlink:href="#aI" overflow="visible"/></clipPath><g clip-path="url(#aJ)"><defs><path id="aK" d="M-166.5 85.7h19v19h-19z"/></defs><clipPath id="aL"><use xlink:href="#aK" overflow="visible"/></clipPath><g clip-path="url(#aL)"><defs><path id="aM" d="M-1091.5-463.3h1121v1030h-1121z"/></defs></g></g></g><g><defs><path id="aN" d="M-166.5 85.7h19v19h-19z"/></defs><clipPath id="aO"><use xlink:href="#aN" overflow="visible"/></clipPath><g clip-path="url(#aO)"><defs><path id="aP" d="M-1091.5-463.3h1121v1030h-1121z"/></defs></g></g><g><defs><path id="aQ" d="M-137.5 84.2h-1.5v22h22v-22h-20.5zm0 3h19l-1.5-1.5v19l1.5-1.5h-19l1.5 1.5v-19l-1.5 1.5zm-21.5-23h62v62h-62v-62z"/></defs><clipPath id="aR"><use xlink:href="#aQ" overflow="visible"/></clipPath><g clip-path="url(#aR)"><defs><path id="aS" d="M-137.5 85.7h19v19h-19z"/></defs><clipPath id="aT"><use xlink:href="#aS" overflow="visible"/></clipPath><g clip-path="url(#aT)"><defs><path id="aU" d="M-1091.5-463.3h1121v1030h-1121z"/></defs></g></g></g><g><defs><path id="aV" d="M-137.5 85.7h19v19h-19z"/></defs><clipPath id="aW"><use xlink:href="#aV" overflow="visible"/></clipPath><g clip-path="url(#aW)"><defs><path id="aX" d="M-1091.5-463.3h1121v1030h-1121z"/></defs></g></g><g><defs><path id="aY" d="M-161.5 61.2h-1.5v12h12v-12h-10.5zm0 3h9l-1.5-1.5v9l1.5-1.5h-9l1.5 1.5v-9l-1.5 1.5zm-21.5-23h52v52h-52v-52z"/></defs><clipPath id="aZ"><use xlink:href="#aY" overflow="visible"/></clipPath><g clip-path="url(#aZ)"><defs><path id="ba" d="M-161.5 62.7h9v9h-9z"/></defs><clipPath id="bb"><use xlink:href="#ba" overflow="visible"/></clipPath><g clip-path="url(#bb)"><defs><path id="bc" d="M-1091.5-463.3h1121v1030h-1121z"/></defs></g></g></g><g><defs><path id="bd" d="M-161.5 62.7h9v9h-9z"/></defs><clipPath id="be"><use xlink:href="#bd" overflow="visible"/></clipPath><g clip-path="url(#be)"><defs><path id="bf" d="M-1091.5-463.3h1121v1030h-1121z"/></defs></g></g><g><defs><path id="bg" d="M-132.5 61.2h-1.5v12h12v-12h-10.5zm0 3h9l-1.5-1.5v9l1.5-1.5h-9l1.5 1.5v-9l-1.5 1.5zm-21.5-23h52v52h-52v-52z"/></defs><clipPath id="bh"><use xlink:href="#bg" overflow="visible"/></clipPath><g clip-path="url(#bh)"><defs><path id="bi" d="M-132.5 62.7h9v9h-9z"/></defs><clipPath id="bj"><use xlink:href="#bi" overflow="visible"/></clipPath><g clip-path="url(#bj)"><defs><path id="bk" d="M-1091.5-463.3h1121v1030h-1121z"/></defs></g></g></g><g><defs><path id="bl" d="M-132.5 62.7h9v9h-9z"/></defs><clipPath id="bm"><use xlink:href="#bl" overflow="visible"/></clipPath><g clip-path="url(#bm)"><defs><path id="bn" d="M-1091.5-463.3h1121v1030h-1121z"/></defs></g></g><g><defs><path id="bo" d="M-161.5 89.2h-1.5v12h12v-12h-10.5zm0 3h9l-1.5-1.5v9l1.5-1.5h-9l1.5 1.5v-9l-1.5 1.5zm-21.5-23h52v52h-52v-52z"/></defs><clipPath id="bp"><use xlink:href="#bo" overflow="visible"/></clipPath><g clip-path="url(#bp)"><defs><path id="bq" d="M-161.5 90.7h9v9h-9z"/></defs><clipPath id="br"><use xlink:href="#bq" overflow="visible"/></clipPath><g clip-path="url(#br)"><defs><path id="bs" d="M-1091.5-463.3h1121v1030h-1121z"/></defs></g></g></g><g><defs><path id="bt" d="M-161.5 90.7h9v9h-9z"/></defs><clipPath id="bu"><use xlink:href="#bt" overflow="visible"/></clipPath><g clip-path="url(#bu)"><defs><path id="bv" d="M-1091.5-463.3h1121v1030h-1121z"/></defs></g></g><g><defs><path id="bw" d="M-132.5 89.2h-1.5v12h12v-12h-10.5zm0 3h9l-1.5-1.5v9l1.5-1.5h-9l1.5 1.5v-9l-1.5 1.5zm-21.5-23h52v52h-52v-52z"/></defs><clipPath id="bx"><use xlink:href="#bw" overflow="visible"/></clipPath><g clip-path="url(#bx)"><defs><path id="by" d="M-132.5 90.7h9v9h-9z"/></defs><clipPath id="bz"><use xlink:href="#by" overflow="visible"/></clipPath><g clip-path="url(#bz)"><defs><path id="bA" d="M-1091.5-463.3h1121v1030h-1121z"/></defs></g></g></g><g><defs><path id="bB" d="M-132.5 90.7h9v9h-9z"/></defs><clipPath id="bC"><use xlink:href="#bB" overflow="visible"/></clipPath><g clip-path="url(#bC)"><defs><path id="bD" d="M-1091.5-463.3h1121v1030h-1121z"/></defs></g></g></svg>