<svg xmlns="http://www.w3.org/2000/svg" viewBox="0 0 276 137"><defs><path id="a" d="M973.5-279.8H972v84h108v-84H973.5zm0 3h105l-1.5-1.5v81l1.5-1.5h-105l1.5 1.5v-81l-1.5 1.5zm-21.5-23h148v124H952v-124z"/></defs><defs><path id="b" d="M967.5-262.8h-2.2l.9-2.1 9.1-22 .4-.9h100.9l.4.9 9.1 22 .9 2.1H967.5zm0-3h117l-1.4 2.1-9.1-22 1.4.9h-98.9l1.4-.9-9.1 22-1.3-2.1zm-22.2 23h161.5v-65H945.3v65z"/></defs><defs><path id="c" d="M1052.5-295.8h-1.5v19h15v-19h-13.5zm0 3h12l-1.5-1.5v16l1.5-1.5h-12l1.5 1.5v-16l-1.5 1.5zm-21.5-23h55v59h-55v-59z"/></defs><defs><path id="d" d="M986.5-229.8H985v34h24v-34h-22.5zm0 3h21l-1.5-1.5v31l1.5-1.5h-21l1.5 1.5v-31l-1.5 1.5zm-21.5-23h64v74h-64v-74z"/></defs><defs><path id="e" d="M987.5-257.8H986v22h22v-22h-20.5zm0 3h19l-1.5-1.5v19l1.5-1.5h-19l1.5 1.5v-19l-1.5 1.5zm-21.5-23h62v62h-62v-62z"/></defs><defs><path id="f" d="M992.5-252.8H991v12h12v-12h-10.5zm0 3h9l-1.5-1.5v9l1.5-1.5h-9l1.5 1.5v-9l-1.5 1.5zm-21.5-23h52v52h-52v-52z"/></defs><defs><path id="g" d="M1017.5-257.8h-1.5v22h22v-22h-20.5zm0 3h19l-1.5-1.5v19l1.5-1.5h-19l1.5 1.5v-19l-1.5 1.5zm-21.5-23h62v62h-62v-62z"/></defs><defs><path id="h" d="M1046.5-257.8h-1.5v22h22v-22h-20.5zm0 3h19l-1.5-1.5v19l1.5-1.5h-19l1.5 1.5v-19l-1.5 1.5zm-21.5-23h62v62h-62v-62z"/></defs><defs><path id="i" d="M1017.5-229.8h-1.5v22h22v-22h-20.5zm0 3h19l-1.5-1.5v19l1.5-1.5h-19l1.5 1.5v-19l-1.5 1.5zm-21.5-23h62v62h-62v-62z"/></defs><defs><path id="j" d="M1046.5-229.8h-1.5v22h22v-22h-20.5zm0 3h19l-1.5-1.5v19l1.5-1.5h-19l1.5 1.5v-19l-1.5 1.5zm-21.5-23h62v62h-62v-62z"/></defs><defs><path id="k" d="M1022.5-252.8h-1.5v12h12v-12h-10.5zm0 3h9l-1.5-1.5v9l1.5-1.5h-9l1.5 1.5v-9l-1.5 1.5zm-21.5-23h52v52h-52v-52z"/></defs><defs><path id="l" d="M1051.5-252.8h-1.5v12h12v-12h-10.5zm0 3h9l-1.5-1.5v9l1.5-1.5h-9l1.5 1.5v-9l-1.5 1.5zm-21.5-23h52v52h-52v-52z"/></defs><defs><path id="m" d="M1022.5-224.8h-1.5v12h12v-12h-10.5zm0 3h9l-1.5-1.5v9l1.5-1.5h-9l1.5 1.5v-9l-1.5 1.5zm-21.5-23h52v52h-52v-52z"/></defs><defs><path id="n" d="M1051.5-224.8h-1.5v12h12v-12h-10.5zm0 3h9l-1.5-1.5v9l1.5-1.5h-9l1.5 1.5v-9l-1.5 1.5zm-21.5-23h52v52h-52v-52z"/></defs><path fill="#FFF" stroke="#0F1F2D" stroke-width="3" stroke-miterlimit="10" d="M85.4 35.9h101.2v73.6H85.4z"/><path fill="#FFF" stroke="#0F1F2D" stroke-width="3" stroke-miterlimit="10" d="M85.5 35.9h101l-9.2 29.3H94.7z"/><path fill="#FFF" stroke="#0F1F2D" stroke-width="3" stroke-miterlimit="10" d="M107.8 54.2h7.6v18.7h-7.6zm47.1 0h7.6v18.7h-7.6z"/><circle fill="#FFF" stroke="#0F1F2D" stroke-width="3" stroke-linecap="round" stroke-miterlimit="10" cx="184.9" cy="104.3" r="18.5"/><path fill="#FFF" stroke="#0F1F2D" stroke-width="3" stroke-miterlimit="10" d="M112.2 19.5h47.7v16.4h-47.7z"/><path fill="#FFF" stroke="#0F1F2D" stroke-width="3" stroke-miterlimit="10" d="M121.4 27.7h29.2v8.2h-29.2z"/><path fill="none" stroke="#0F1F2D" stroke-width="3" stroke-miterlimit="10" d="M175.6 113.8l8.6-8.7"/><circle fill="#FFF" stroke="#0F1F2D" stroke-width="3" stroke-linecap="round" stroke-miterlimit="10" cx="188.4" cy="100.7" r="6.2"/></svg>