<svg xmlns="http://www.w3.org/2000/svg" xmlns:xlink="http://www.w3.org/1999/xlink" viewBox="0 0 276 137"><ellipse transform="rotate(-45.001 130.352 103.076)" fill="#FFF" stroke="#0F1F2D" stroke-width="3" stroke-linecap="round" stroke-miterlimit="10" cx="130.4" cy="103.1" rx="17" ry="17"/><path fill="#FFF" stroke="#0F1F2D" stroke-width="3" stroke-linecap="round" stroke-miterlimit="10" d="M136.6 100.6c0 3.4-6.2 11.7-6.2 11.7s-6.2-8.3-6.2-11.7c0-3.4 2.8-6.2 6.2-6.2 3.4 0 6.2 2.8 6.2 6.2z"/><circle fill="#0F1F2D" cx="130.4" cy="100" r="2.1"/><defs><circle id="a" cx="-153.9" cy="227.5" r="50.5"/></defs><clipPath id="b"><use xlink:href="#a" overflow="visible"/></clipPath><g clip-path="url(#b)"><defs><path id="c" d="M-328.4-508.5h1121v1030h-1121z"/></defs></g><defs><circle id="d" cx="-153.9" cy="227.5" r="43.5"/></defs><clipPath id="e"><use xlink:href="#d" overflow="visible"/></clipPath><g clip-path="url(#e)"><defs><path id="f" d="M-328.4-508.5h1121v1030h-1121z"/></defs></g><defs><path id="g" d="M-750-199.7c-27.1 0-49-21.9-49-49s21.9-49 49-49 49 21.9 49 49c0 27-21.9 49-49 49zm0 3c28.7 0 52-23.3 52-52s-23.3-52-52-52-52 23.3-52 52 23.3 52 52 52zm-72-124h144v144h-144v-144z"/></defs><clipPath id="h"><use xlink:href="#g" overflow="visible"/></clipPath><g clip-path="url(#h)"><defs><circle id="i" cx="-750" cy="-248.7" r="50.5"/></defs><clipPath id="j"><use xlink:href="#i" overflow="visible"/></clipPath><g clip-path="url(#j)"><defs><path id="k" d="M-924.5-984.7h1121v1030h-1121z"/></defs></g></g><defs><circle id="l" cx="-750" cy="-248.7" r="50.5"/></defs><clipPath id="m"><use xlink:href="#l" overflow="visible"/></clipPath><g clip-path="url(#m)"><defs><path id="n" d="M-924.5-984.7h1121v1030h-1121z"/></defs></g><defs><circle id="o" cx="-750" cy="-248.7" r="43.5"/></defs><clipPath id="p"><use xlink:href="#o" overflow="visible"/></clipPath><g clip-path="url(#p)"><defs><path id="q" d="M-924.5-984.7h1121v1030h-1121z"/></defs></g><defs><path id="r" d="M-749.3-32.5c-24.6 0-44.6-20-44.6-44.6s20-44.6 44.6-44.6 44.6 20 44.6 44.6-20 44.6-44.6 44.6zm0 2.7c26.1 0 47.3-21.2 47.3-47.3s-21.2-47.3-47.3-47.3c-26.1 0-47.3 21.2-47.3 47.3s21.2 47.3 47.3 47.3zm-65.5-112.8h131v131h-131v-131z"/></defs><clipPath id="s"><use xlink:href="#r" overflow="visible"/></clipPath><g clip-path="url(#s)"><defs><circle id="t" cx="-749.3" cy="-77.1" r="45.9"/></defs><clipPath id="u"><use xlink:href="#t" overflow="visible"/></clipPath><g clip-path="url(#u)"><defs><path id="v" d="M-908-746.7H111.8v937H-908z"/></defs></g></g><defs><circle id="w" cx="-749.3" cy="-77.1" r="45.9"/></defs><clipPath id="x"><use xlink:href="#w" overflow="visible"/></clipPath><g clip-path="url(#x)"><defs><path id="y" d="M-908-746.7H111.8v937H-908z"/></defs></g><defs><circle id="z" cx="-749.3" cy="-77.1" r="39.6"/></defs><clipPath id="A"><use xlink:href="#z" overflow="visible"/></clipPath><g clip-path="url(#A)"><defs><path id="B" d="M-908-746.7H111.8v937H-908z"/></defs></g><path fill="#0F1F2D" d="M175.6 119.9H159l2.5-43.8h13.2v17.1l8.4-10.6 16.8-9.3-25.2 31.7.9 14.9zm-13.9-2.6h11.2l-.8-13.1 17.8-22.5-5.1 2.8-12.7 16V78.6h-8.2l-2.2 38.7zM103.6 119.9H87.9L89.7 97l-9.2-20.8h9.3l5.7 12.7 3.9-12.7H111l-9.8 21.2 2.4 22.5zm-12.9-2.6h10l-2.1-20.4 8.4-18.2h-5.6L96 96.2l-7.8-17.4h-3.7l7.9 17.8-1.7 20.7z"/><path fill="#FFF" stroke="#0F1F2D" stroke-width="3" stroke-linecap="round" stroke-miterlimit="10" d="M201.6 63.2c.2-.9.3-1.9.3-2.8 0-5.4-3.6-10-8.4-11.6.6-1.5 1-3.2 1-4.9 0-7-5.7-12.7-12.7-12.7-.6 0-1.2 0-1.8.1-1.2-4.8-5.6-8.4-10.9-8.4-5.2 0-9.5 3.5-10.8 8.3h-.4c-9.3 0-16.9 7.6-16.9 16.9 0 2.7.7 5.3 1.8 7.6-5.8 2.2-9.8 7.8-9.8 14.3 0 8.5 6.9 15.4 15.4 15.4 2.4 0 4.7-.6 6.8-1.6 1.9.9 4.1 1.4 6.3 1.4 3.5 0 6.8-1.2 9.4-3.2 2.6 2 5.9 3.2 9.4 3.2 4.3 0 8.2-1.8 11-4.7 1.7 1.3 3.8 2.1 6.1 2.1 5.6 0 10.1-4.5 10.1-10.1.1-4.2-2.4-7.7-5.9-9.3zM88.1 80.8c1 .6 2.2 1.1 3.4 1.4 3.3.8 6.6.3 9.4-1.2.8.7 1.8 1.3 2.9 1.5 3.7.9 7.4-1.3 8.4-5 .1-.2.1-.5.1-.7 5.6.4 10.8-3.2 12.2-8.9 1.6-6.3-2.3-12.7-8.5-14.2h-.1l.3-.9c.8-3.1-1.1-6.3-4.3-7.1-1.4-.4-2.8-.2-4 .4-1.7-3.5-4.9-6.2-8.9-7.2-6.2-1.5-12.4 1.4-15.3 6.8-3.1-.5-6.1 1.4-6.8 4.4-.4 1.5-.1 3.1.6 4.3-2.9 1.3-5.2 3.8-6.1 7.2-1.2 4.8 1.1 9.7 5.2 11.9-.4.6-.6 1.2-.8 1.9-.9 3.7 1.3 7.4 5 8.3 2.8.7 5.7-.5 7.3-2.9z"/><defs><path id="C" d="M-210.5 34.2h-1.5v84h108v-84h-106.5zm0 3h105l-1.5-1.5v81l1.5-1.5h-105l1.5 1.5v-81l-1.5 1.5zm-21.5-23h148v124h-148v-124z"/></defs><clipPath id="D"><use xlink:href="#C" overflow="visible"/></clipPath><g clip-path="url(#D)"><defs><path id="E" d="M-210.5 35.7h105v81h-105z"/></defs><clipPath id="F"><use xlink:href="#E" overflow="visible"/></clipPath><g clip-path="url(#F)"><defs><path id="G" d="M-1091.5-463.3h1121v1030h-1121z"/></defs></g></g><defs><path id="H" d="M-210.5 35.7h105v81h-105z"/></defs><clipPath id="I"><use xlink:href="#H" overflow="visible"/></clipPath><g clip-path="url(#I)"><defs><path id="J" d="M-1091.5-463.3h1121v1030h-1121z"/></defs></g><defs><path id="K" d="M-216.5 51.2h-2.2l.9-2.1 9.1-22 .4-.9h100.9l.4.9 9.1 22 .9 2.1h-119.5zm0-3h117l-1.4 2.1-9.1-22 1.4.9h-98.9l1.4-.9-9.1 22-1.3-2.1zm-22.2 23h161.5v-65h-161.5v65z"/></defs><clipPath id="L"><use xlink:href="#K" overflow="visible"/></clipPath><g clip-path="url(#L)"><defs><path id="M" d="M-216.5 49.7h117l-9.1-22h-98.8z"/></defs><clipPath id="N"><use xlink:href="#M" overflow="visible"/></clipPath><g clip-path="url(#N)"><defs><path id="O" d="M-1091.5-463.3h1121v1030h-1121z"/></defs></g></g><defs><path id="P" d="M-216.5 49.7h117l-9.1-22h-98.8z"/></defs><clipPath id="Q"><use xlink:href="#P" overflow="visible"/></clipPath><g clip-path="url(#Q)"><defs><path id="R" d="M-1091.5-463.3h1121v1030h-1121z"/></defs></g><g><defs><path id="S" d="M-131.5 18.2h-1.5v19h15v-19h-13.5zm0 3h12l-1.5-1.5v16l1.5-1.5h-12l1.5 1.5v-16l-1.5 1.5zm-21.5-23h55v59h-55v-59z"/></defs><clipPath id="T"><use xlink:href="#S" overflow="visible"/></clipPath><g clip-path="url(#T)"><defs><path id="U" d="M-131.5 19.7h12v16h-12z"/></defs><clipPath id="V"><use xlink:href="#U" overflow="visible"/></clipPath><g clip-path="url(#V)"><defs><path id="W" d="M-1091.5-463.3h1121v1030h-1121z"/></defs></g></g></g><g><defs><path id="X" d="M-131.5 19.7h12v16h-12z"/></defs><clipPath id="Y"><use xlink:href="#X" overflow="visible"/></clipPath><g clip-path="url(#Y)"><defs><path id="Z" d="M-1091.5-463.3h1121v1030h-1121z"/></defs></g></g><g><defs><path id="aa" d="M-197.5 84.2h-1.5v34h24v-34h-22.5zm0 3h21l-1.5-1.5v31l1.5-1.5h-21l1.5 1.5v-31l-1.5 1.5zm-21.5-23h64v74h-64v-74z"/></defs><clipPath id="ab"><use xlink:href="#aa" overflow="visible"/></clipPath><g clip-path="url(#ab)"><defs><path id="ac" d="M-197.5 85.7h21v31h-21z"/></defs><clipPath id="ad"><use xlink:href="#ac" overflow="visible"/></clipPath><g clip-path="url(#ad)"><defs><path id="ae" d="M-1091.5-463.3h1121v1030h-1121z"/></defs></g></g></g><g><defs><path id="af" d="M-197.5 85.7h21v31h-21z"/></defs><clipPath id="ag"><use xlink:href="#af" overflow="visible"/></clipPath><g clip-path="url(#ag)"><defs><path id="ah" d="M-1091.5-463.3h1121v1030h-1121z"/></defs></g></g><g><defs><path id="ai" d="M-196.5 56.2h-1.5v22h22v-22h-20.5zm0 3h19l-1.5-1.5v19l1.5-1.5h-19l1.5 1.5v-19l-1.5 1.5zm-21.5-23h62v62h-62v-62z"/></defs><clipPath id="aj"><use xlink:href="#ai" overflow="visible"/></clipPath><g clip-path="url(#aj)"><defs><path id="ak" d="M-196.5 57.7h19v19h-19z"/></defs><clipPath id="al"><use xlink:href="#ak" overflow="visible"/></clipPath><g clip-path="url(#al)"><defs><path id="am" d="M-1091.5-463.3h1121v1030h-1121z"/></defs></g></g></g><g><defs><path id="an" d="M-196.5 57.7h19v19h-19z"/></defs><clipPath id="ao"><use xlink:href="#an" overflow="visible"/></clipPath><g clip-path="url(#ao)"><defs><path id="ap" d="M-1091.5-463.3h1121v1030h-1121z"/></defs></g></g><g><defs><path id="aq" d="M-191.5 61.2h-1.5v12h12v-12h-10.5zm0 3h9l-1.5-1.5v9l1.5-1.5h-9l1.5 1.5v-9l-1.5 1.5zm-21.5-23h52v52h-52v-52z"/></defs><clipPath id="ar"><use xlink:href="#aq" overflow="visible"/></clipPath><g clip-path="url(#ar)"><defs><path id="as" d="M-191.5 62.7h9v9h-9z"/></defs><clipPath id="at"><use xlink:href="#as" overflow="visible"/></clipPath><g clip-path="url(#at)"><defs><path id="au" d="M-1091.5-463.3h1121v1030h-1121z"/></defs></g></g></g><g><defs><path id="av" d="M-191.5 62.7h9v9h-9z"/></defs><clipPath id="aw"><use xlink:href="#av" overflow="visible"/></clipPath><g clip-path="url(#aw)"><defs><path id="ax" d="M-1091.5-463.3h1121v1030h-1121z"/></defs></g></g><g><defs><path id="ay" d="M-166.5 56.2h-1.5v22h22v-22h-20.5zm0 3h19l-1.5-1.5v19l1.5-1.5h-19l1.5 1.5v-19l-1.5 1.5zm-21.5-23h62v62h-62v-62z"/></defs><clipPath id="az"><use xlink:href="#ay" overflow="visible"/></clipPath><g clip-path="url(#az)"><defs><path id="aA" d="M-166.5 57.7h19v19h-19z"/></defs><clipPath id="aB"><use xlink:href="#aA" overflow="visible"/></clipPath><g clip-path="url(#aB)"><defs><path id="aC" d="M-1091.5-463.3h1121v1030h-1121z"/></defs></g></g></g><g><defs><path id="aD" d="M-166.5 57.7h19v19h-19z"/></defs><clipPath id="aE"><use xlink:href="#aD" overflow="visible"/></clipPath><g clip-path="url(#aE)"><defs><path id="aF" d="M-1091.5-463.3h1121v1030h-1121z"/></defs></g></g><g><defs><path id="aG" d="M-137.5 56.2h-1.5v22h22v-22h-20.5zm0 3h19l-1.5-1.5v19l1.5-1.5h-19l1.5 1.5v-19l-1.5 1.5zm-21.5-23h62v62h-62v-62z"/></defs><clipPath id="aH"><use xlink:href="#aG" overflow="visible"/></clipPath><g clip-path="url(#aH)"><defs><path id="aI" d="M-137.5 57.7h19v19h-19z"/></defs><clipPath id="aJ"><use xlink:href="#aI" overflow="visible"/></clipPath><g clip-path="url(#aJ)"><defs><path id="aK" d="M-1091.5-463.3h1121v1030h-1121z"/></defs></g></g></g><g><defs><path id="aL" d="M-137.5 57.7h19v19h-19z"/></defs><clipPath id="aM"><use xlink:href="#aL" overflow="visible"/></clipPath><g clip-path="url(#aM)"><defs><path id="aN" d="M-1091.5-463.3h1121v1030h-1121z"/></defs></g></g><g><defs><path id="aO" d="M-166.5 84.2h-1.5v22h22v-22h-20.5zm0 3h19l-1.5-1.5v19l1.5-1.5h-19l1.5 1.5v-19l-1.5 1.5zm-21.5-23h62v62h-62v-62z"/></defs><clipPath id="aP"><use xlink:href="#aO" overflow="visible"/></clipPath><g clip-path="url(#aP)"><defs><path id="aQ" d="M-166.5 85.7h19v19h-19z"/></defs><clipPath id="aR"><use xlink:href="#aQ" overflow="visible"/></clipPath><g clip-path="url(#aR)"><defs><path id="aS" d="M-1091.5-463.3h1121v1030h-1121z"/></defs></g></g></g><g><defs><path id="aT" d="M-166.5 85.7h19v19h-19z"/></defs><clipPath id="aU"><use xlink:href="#aT" overflow="visible"/></clipPath><g clip-path="url(#aU)"><defs><path id="aV" d="M-1091.5-463.3h1121v1030h-1121z"/></defs></g></g><g><defs><path id="aW" d="M-137.5 84.2h-1.5v22h22v-22h-20.5zm0 3h19l-1.5-1.5v19l1.5-1.5h-19l1.5 1.5v-19l-1.5 1.5zm-21.5-23h62v62h-62v-62z"/></defs><clipPath id="aX"><use xlink:href="#aW" overflow="visible"/></clipPath><g clip-path="url(#aX)"><defs><path id="aY" d="M-137.5 85.7h19v19h-19z"/></defs><clipPath id="aZ"><use xlink:href="#aY" overflow="visible"/></clipPath><g clip-path="url(#aZ)"><defs><path id="ba" d="M-1091.5-463.3h1121v1030h-1121z"/></defs></g></g></g><g><defs><path id="bb" d="M-137.5 85.7h19v19h-19z"/></defs><clipPath id="bc"><use xlink:href="#bb" overflow="visible"/></clipPath><g clip-path="url(#bc)"><defs><path id="bd" d="M-1091.5-463.3h1121v1030h-1121z"/></defs></g></g><g><defs><path id="be" d="M-161.5 61.2h-1.5v12h12v-12h-10.5zm0 3h9l-1.5-1.5v9l1.5-1.5h-9l1.5 1.5v-9l-1.5 1.5zm-21.5-23h52v52h-52v-52z"/></defs><clipPath id="bf"><use xlink:href="#be" overflow="visible"/></clipPath><g clip-path="url(#bf)"><defs><path id="bg" d="M-161.5 62.7h9v9h-9z"/></defs><clipPath id="bh"><use xlink:href="#bg" overflow="visible"/></clipPath><g clip-path="url(#bh)"><defs><path id="bi" d="M-1091.5-463.3h1121v1030h-1121z"/></defs></g></g></g><g><defs><path id="bj" d="M-161.5 62.7h9v9h-9z"/></defs><clipPath id="bk"><use xlink:href="#bj" overflow="visible"/></clipPath><g clip-path="url(#bk)"><defs><path id="bl" d="M-1091.5-463.3h1121v1030h-1121z"/></defs></g></g><g><defs><path id="bm" d="M-132.5 61.2h-1.5v12h12v-12h-10.5zm0 3h9l-1.5-1.5v9l1.5-1.5h-9l1.5 1.5v-9l-1.5 1.5zm-21.5-23h52v52h-52v-52z"/></defs><clipPath id="bn"><use xlink:href="#bm" overflow="visible"/></clipPath><g clip-path="url(#bn)"><defs><path id="bo" d="M-132.5 62.7h9v9h-9z"/></defs><clipPath id="bp"><use xlink:href="#bo" overflow="visible"/></clipPath><g clip-path="url(#bp)"><defs><path id="bq" d="M-1091.5-463.3h1121v1030h-1121z"/></defs></g></g></g><g><defs><path id="br" d="M-132.5 62.7h9v9h-9z"/></defs><clipPath id="bs"><use xlink:href="#br" overflow="visible"/></clipPath><g clip-path="url(#bs)"><defs><path id="bt" d="M-1091.5-463.3h1121v1030h-1121z"/></defs></g></g><g><defs><path id="bu" d="M-161.5 89.2h-1.5v12h12v-12h-10.5zm0 3h9l-1.5-1.5v9l1.5-1.5h-9l1.5 1.5v-9l-1.5 1.5zm-21.5-23h52v52h-52v-52z"/></defs><clipPath id="bv"><use xlink:href="#bu" overflow="visible"/></clipPath><g clip-path="url(#bv)"><defs><path id="bw" d="M-161.5 90.7h9v9h-9z"/></defs><clipPath id="bx"><use xlink:href="#bw" overflow="visible"/></clipPath><g clip-path="url(#bx)"><defs><path id="by" d="M-1091.5-463.3h1121v1030h-1121z"/></defs></g></g></g><g><defs><path id="bz" d="M-161.5 90.7h9v9h-9z"/></defs><clipPath id="bA"><use xlink:href="#bz" overflow="visible"/></clipPath><g clip-path="url(#bA)"><defs><path id="bB" d="M-1091.5-463.3h1121v1030h-1121z"/></defs></g></g><g><defs><path id="bC" d="M-132.5 89.2h-1.5v12h12v-12h-10.5zm0 3h9l-1.5-1.5v9l1.5-1.5h-9l1.5 1.5v-9l-1.5 1.5zm-21.5-23h52v52h-52v-52z"/></defs><clipPath id="bD"><use xlink:href="#bC" overflow="visible"/></clipPath><g clip-path="url(#bD)"><defs><path id="bE" d="M-132.5 90.7h9v9h-9z"/></defs><clipPath id="bF"><use xlink:href="#bE" overflow="visible"/></clipPath><g clip-path="url(#bF)"><defs><path id="bG" d="M-1091.5-463.3h1121v1030h-1121z"/></defs></g></g></g><g><defs><path id="bH" d="M-132.5 90.7h9v9h-9z"/></defs><clipPath id="bI"><use xlink:href="#bH" overflow="visible"/></clipPath><g clip-path="url(#bI)"><defs><path id="bJ" d="M-1091.5-463.3h1121v1030h-1121z"/></defs></g></g></svg>