<svg xmlns="http://www.w3.org/2000/svg" viewBox="0 0 276 137"><ellipse transform="rotate(-45.001 130.352 103.076)" fill="#FFF" stroke="#0F1F2D" stroke-width="3" stroke-linecap="round" stroke-miterlimit="10" cx="130.4" cy="103.1" rx="17" ry="17"/><path fill="#FFF" stroke="#0F1F2D" stroke-width="3" stroke-linecap="round" stroke-miterlimit="10" d="M136.6 100.6c0 3.4-6.2 11.7-6.2 11.7s-6.2-8.3-6.2-11.7c0-3.4 2.8-6.2 6.2-6.2 3.4 0 6.2 2.8 6.2 6.2z"/><circle fill="#0F1F2D" cx="130.4" cy="100" r="2.1"/><defs><path id="a" d="M-750-199.7c-27.1 0-49-21.9-49-49s21.9-49 49-49 49 21.9 49 49c0 27-21.9 49-49 49zm0 3c28.7 0 52-23.3 52-52s-23.3-52-52-52-52 23.3-52 52 23.3 52 52 52zm-72-124h144v144h-144v-144z"/></defs><defs><path id="b" d="M-749.3-32.5c-24.6 0-44.6-20-44.6-44.6s20-44.6 44.6-44.6 44.6 20 44.6 44.6-20 44.6-44.6 44.6zm0 2.7c26.1 0 47.3-21.2 47.3-47.3s-21.2-47.3-47.3-47.3c-26.1 0-47.3 21.2-47.3 47.3s21.2 47.3 47.3 47.3zm-65.5-112.8h131v131h-131v-131z"/></defs><path fill="#0F1F2D" d="M175.6 119.9H159l2.5-43.8h13.2v17.1l8.4-10.6 16.8-9.3-25.2 31.7.9 14.9zm-13.9-2.6h11.2l-.8-13.1 17.8-22.5-5.1 2.8-12.7 16V78.6h-8.2l-2.2 38.7zm-58.1 2.6H87.9L89.7 97l-9.2-20.8h9.3l5.7 12.7 3.9-12.7H111l-9.8 21.2 2.4 22.5zm-12.9-2.6h10l-2.1-20.4 8.4-18.2h-5.6L96 96.2l-7.8-17.4h-3.7l7.9 17.8-1.7 20.7z"/><path fill="#FFF" stroke="#0F1F2D" stroke-width="3" stroke-linecap="round" stroke-miterlimit="10" d="M201.6 63.2c.2-.9.3-1.9.3-2.8 0-5.4-3.6-10-8.4-11.6.6-1.5 1-3.2 1-4.9 0-7-5.7-12.7-12.7-12.7-.6 0-1.2 0-1.8.1-1.2-4.8-5.6-8.4-10.9-8.4-5.2 0-9.5 3.5-10.8 8.3h-.4c-9.3 0-16.9 7.6-16.9 16.9 0 2.7.7 5.3 1.8 7.6-5.8 2.2-9.8 7.8-9.8 14.3 0 8.5 6.9 15.4 15.4 15.4 2.4 0 4.7-.6 6.8-1.6 1.9.9 4.1 1.4 6.3 1.4 3.5 0 6.8-1.2 9.4-3.2 2.6 2 5.9 3.2 9.4 3.2 4.3 0 8.2-1.8 11-4.7 1.7 1.3 3.8 2.1 6.1 2.1 5.6 0 10.1-4.5 10.1-10.1.1-4.2-2.4-7.7-5.9-9.3zM88.1 80.8c1 .6 2.2 1.1 3.4 1.4 3.3.8 6.6.3 9.4-1.2.8.7 1.8 1.3 2.9 1.5 3.7.9 7.4-1.3 8.4-5 .1-.2.1-.5.1-.7 5.6.4 10.8-3.2 12.2-8.9 1.6-6.3-2.3-12.7-8.5-14.2h-.1l.3-.9c.8-3.1-1.1-6.3-4.3-7.1-1.4-.4-2.8-.2-4 .4-1.7-3.5-4.9-6.2-8.9-7.2-6.2-1.5-12.4 1.4-15.3 6.8-3.1-.5-6.1 1.4-6.8 4.4-.4 1.5-.1 3.1.6 4.3-2.9 1.3-5.2 3.8-6.1 7.2-1.2 4.8 1.1 9.7 5.2 11.9-.4.6-.6 1.2-.8 1.9-.9 3.7 1.3 7.4 5 8.3 2.8.7 5.7-.5 7.3-2.9z"/><defs><path id="c" d="M-210.5 34.2h-1.5v84h108v-84h-106.5zm0 3h105l-1.5-1.5v81l1.5-1.5h-105l1.5 1.5v-81l-1.5 1.5zm-21.5-23h148v124h-148v-124z"/></defs><defs><path id="d" d="M-216.5 51.2h-2.2l.9-2.1 9.1-22 .4-.9h100.9l.4.9 9.1 22 .9 2.1h-119.5zm0-3h117l-1.4 2.1-9.1-22 1.4.9h-98.9l1.4-.9-9.1 22-1.3-2.1zm-22.2 23h161.5v-65h-161.5v65z"/></defs><defs><path id="e" d="M-131.5 18.2h-1.5v19h15v-19h-13.5zm0 3h12l-1.5-1.5v16l1.5-1.5h-12l1.5 1.5v-16l-1.5 1.5zm-21.5-23h55v59h-55v-59z"/></defs><defs><path id="f" d="M-197.5 84.2h-1.5v34h24v-34h-22.5zm0 3h21l-1.5-1.5v31l1.5-1.5h-21l1.5 1.5v-31l-1.5 1.5zm-21.5-23h64v74h-64v-74z"/></defs><defs><path id="g" d="M-196.5 56.2h-1.5v22h22v-22h-20.5zm0 3h19l-1.5-1.5v19l1.5-1.5h-19l1.5 1.5v-19l-1.5 1.5zm-21.5-23h62v62h-62v-62z"/></defs><defs><path id="h" d="M-191.5 61.2h-1.5v12h12v-12h-10.5zm0 3h9l-1.5-1.5v9l1.5-1.5h-9l1.5 1.5v-9l-1.5 1.5zm-21.5-23h52v52h-52v-52z"/></defs><defs><path id="i" d="M-166.5 56.2h-1.5v22h22v-22h-20.5zm0 3h19l-1.5-1.5v19l1.5-1.5h-19l1.5 1.5v-19l-1.5 1.5zm-21.5-23h62v62h-62v-62z"/></defs><defs><path id="j" d="M-137.5 56.2h-1.5v22h22v-22h-20.5zm0 3h19l-1.5-1.5v19l1.5-1.5h-19l1.5 1.5v-19l-1.5 1.5zm-21.5-23h62v62h-62v-62z"/></defs><defs><path id="k" d="M-166.5 84.2h-1.5v22h22v-22h-20.5zm0 3h19l-1.5-1.5v19l1.5-1.5h-19l1.5 1.5v-19l-1.5 1.5zm-21.5-23h62v62h-62v-62z"/></defs><defs><path id="l" d="M-137.5 84.2h-1.5v22h22v-22h-20.5zm0 3h19l-1.5-1.5v19l1.5-1.5h-19l1.5 1.5v-19l-1.5 1.5zm-21.5-23h62v62h-62v-62z"/></defs><defs><path id="m" d="M-161.5 61.2h-1.5v12h12v-12h-10.5zm0 3h9l-1.5-1.5v9l1.5-1.5h-9l1.5 1.5v-9l-1.5 1.5zm-21.5-23h52v52h-52v-52z"/></defs><defs><path id="n" d="M-132.5 61.2h-1.5v12h12v-12h-10.5zm0 3h9l-1.5-1.5v9l1.5-1.5h-9l1.5 1.5v-9l-1.5 1.5zm-21.5-23h52v52h-52v-52z"/></defs><defs><path id="o" d="M-161.5 89.2h-1.5v12h12v-12h-10.5zm0 3h9l-1.5-1.5v9l1.5-1.5h-9l1.5 1.5v-9l-1.5 1.5zm-21.5-23h52v52h-52v-52z"/></defs><defs><path id="p" d="M-132.5 89.2h-1.5v12h12v-12h-10.5zm0 3h9l-1.5-1.5v9l1.5-1.5h-9l1.5 1.5v-9l-1.5 1.5zm-21.5-23h52v52h-52v-52z"/></defs></svg>