<svg xmlns="http://www.w3.org/2000/svg" xmlns:xlink="http://www.w3.org/1999/xlink" viewBox="0 0 276 137"><defs><circle id="a" cx="-163.9" cy="391" r="43.5"/></defs><defs><path id="b" d="M-163.9 436c-24.8 0-45-20.2-45-45s20.2-45 45-45 45 20.2 45 45-20.1 45-45 45zm0-87c-23.2 0-42 18.8-42 42s18.8 42 42 42 42-18.8 42-42-18.8-42-42-42z"/></defs><use xlink:href="#a" overflow="visible" fill-rule="evenodd" clip-rule="evenodd" fill="#FFF"/><use xlink:href="#b" overflow="visible" fill="#0F1F2D"/><clipPath id="c"><use xlink:href="#a" overflow="visible"/></clipPath><clipPath id="d" clip-path="url(#c)"><use xlink:href="#b" overflow="visible"/></clipPath><g clip-path="url(#d)"><defs><path id="e" d="M-338.4-345h1121V685h-1121z"/></defs><defs><path id="f" d="M784.1 686.5h-1124v-1033h1124v1033zm-1121-3h1118v-1027h-1118v1027z"/></defs><use xlink:href="#e" overflow="visible" fill="#FFF"/><use xlink:href="#f" overflow="visible" fill="#0F1F2D"/><clipPath id="g"><use xlink:href="#e" overflow="visible"/></clipPath></g><path fill="#FFF" d="M207.6 92.3V80.9h-84.1V55.6h-19.3l-6.3 13.1s-8.1 1.5-17.9 4.7v18.9h127.6z"/><path fill="#0C1F2E" d="M209.1 93.8H78.5V72.4l1-.3c8-2.7 15-4.2 17.3-4.6l6.4-13.3H125v25.3h84.1v14.3zm-127.6-3H206v-8.4h-84V57.1h-16.8l-6.2 13-.8.1c-.1 0-7.6 1.4-16.6 4.4v16.2z"/><path fill="#FFF" d="M118.3 73.9h-14.2V70l4-8.6h10.2z"/><path fill="#0C1F2E" d="M119.8 75.4h-17.2v-5.8l4.6-9.8h12.6v15.6zm-14.2-3h11.2v-9.5h-7.7l-3.5 7.4v2.1zM98 93.7c-.8 0-1.5-.7-1.5-1.5V68.9c0-.8.7-1.5 1.5-1.5s1.5.7 1.5 1.5v23.4c0 .8-.7 1.4-1.5 1.4zM123.5 93.7c-.8 0-1.5-.7-1.5-1.5V79.6c0-.8.7-1.5 1.5-1.5s1.5.7 1.5 1.5v12.7c0 .8-.7 1.4-1.5 1.4z"/><circle fill="#FFF" cx="101.4" cy="96.7" r="11"/><path fill="#0C1F2E" d="M101.4 109.1c-6.9 0-12.5-5.6-12.5-12.5s5.6-12.5 12.5-12.5 12.5 5.6 12.5 12.5-5.6 12.5-12.5 12.5zm0-21.9c-5.2 0-9.5 4.2-9.5 9.5s4.2 9.5 9.5 9.5 9.5-4.2 9.5-9.5-4.3-9.5-9.5-9.5z"/><circle fill="#FFF" cx="191" cy="96.7" r="11"/><path fill="#0C1F2E" d="M191 109.1c-6.9 0-12.5-5.6-12.5-12.5s5.6-12.5 12.5-12.5 12.5 5.6 12.5 12.5-5.7 12.5-12.5 12.5zm0-21.9c-5.2 0-9.5 4.2-9.5 9.5s4.2 9.5 9.5 9.5 9.5-4.2 9.5-9.5-4.3-9.5-9.5-9.5z"/><circle fill="#FFF" cx="101.2" cy="96.5" r="5"/><path fill="#0C1F2E" d="M101.2 103c-3.6 0-6.5-2.9-6.5-6.5s2.9-6.5 6.5-6.5 6.5 2.9 6.5 6.5-2.9 6.5-6.5 6.5zm0-9.9c-1.9 0-3.5 1.6-3.5 3.5s1.6 3.5 3.5 3.5 3.5-1.6 3.5-3.5c0-2-1.5-3.5-3.5-3.5z"/><circle fill="#FFF" cx="190.8" cy="96.5" r="5"/><path fill="#0C1F2E" d="M190.8 103c-3.6 0-6.5-2.9-6.5-6.5s2.9-6.5 6.5-6.5 6.5 2.9 6.5 6.5-2.9 6.5-6.5 6.5zm0-9.9c-1.9 0-3.5 1.6-3.5 3.5s1.6 3.5 3.5 3.5 3.5-1.6 3.5-3.5c0-2-1.6-3.5-3.5-3.5z"/><path fill="#FFF" d="M123.5 55.6h84v25.3h-84z"/><path fill="#0C1F2E" d="M209.1 82.4h-87V54.1h87v28.3zm-84.1-3h81V57.1h-81v22.3z"/><path fill="#0C1F2E" d="M203 63h-73c-.8 0-1.5-.7-1.5-1.5s.7-1.5 1.5-1.5h73c.8 0 1.5.7 1.5 1.5s-.7 1.5-1.5 1.5zM207 51h-83c-.8 0-1.5-.7-1.5-1.5s.7-1.5 1.5-1.5h83c.8 0 1.5.7 1.5 1.5s-.7 1.5-1.5 1.5zM203 75h-73c-.8 0-1.5-.7-1.5-1.5s.7-1.5 1.5-1.5h73c.8 0 1.5.7 1.5 1.5s-.7 1.5-1.5 1.5z"/><path fill="#0C1F2E" d="M136.5 74.5c-.8 0-1.5-.7-1.5-1.5V62c0-.8.7-1.5 1.5-1.5s1.5.7 1.5 1.5v11c0 .8-.7 1.5-1.5 1.5zM145.5 74.5c-.8 0-1.5-.7-1.5-1.5V62c0-.8.7-1.5 1.5-1.5s1.5.7 1.5 1.5v11c0 .8-.7 1.5-1.5 1.5zM153.5 74.5c-.8 0-1.5-.7-1.5-1.5V62c0-.8.7-1.5 1.5-1.5s1.5.7 1.5 1.5v11c0 .8-.7 1.5-1.5 1.5zM162.5 74.5c-.8 0-1.5-.7-1.5-1.5V62c0-.8.7-1.5 1.5-1.5s1.5.7 1.5 1.5v11c0 .8-.7 1.5-1.5 1.5zM171.5 74.5c-.8 0-1.5-.7-1.5-1.5V62c0-.8.7-1.5 1.5-1.5s1.5.7 1.5 1.5v11c0 .8-.7 1.5-1.5 1.5zM180.5 74.5c-.8 0-1.5-.7-1.5-1.5V62c0-.8.7-1.5 1.5-1.5s1.5.7 1.5 1.5v11c0 .8-.7 1.5-1.5 1.5zM188.5 74.5c-.8 0-1.5-.7-1.5-1.5V62c0-.8.7-1.5 1.5-1.5s1.5.7 1.5 1.5v11c0 .8-.7 1.5-1.5 1.5zM197.5 74.5c-.8 0-1.5-.7-1.5-1.5V62c0-.8.7-1.5 1.5-1.5s1.5.7 1.5 1.5v11c0 .8-.7 1.5-1.5 1.5zM118.8 57.1h-11.3l2.6-10.5h6.2l2.5 10.5zm-7.5-3h3.7l-1.1-4.5h-1.5l-1.1 4.5z"/><defs><path id="h" d="M71.2 227.9h-1.5v38h142v-25.1l-.4-.4-11.4-12-.4-.5H71.2zm0 3h127.6l-1.1-.5 11.4 12-.4-1v23l1.5-1.5h-139l1.5 1.5v-35l-1.5 1.5zm-21.5-23h182v78h-182v-78z"/></defs><clipPath id="i"><use xlink:href="#h" overflow="visible"/></clipPath><g clip-path="url(#i)"><defs><path id="j" d="M71.2 229.4h127.6l11.4 12v23h-139z"/></defs><clipPath id="k"><use xlink:href="#j" overflow="visible"/></clipPath><g clip-path="url(#k)"><defs><path id="l" d="M-300.8-305.6h1121v1030h-1121z"/></defs></g></g><defs><path id="m" d="M71.2 229.4h127.6l11.4 12v23h-139z"/></defs><clipPath id="n"><use xlink:href="#m" overflow="visible"/></clipPath><g clip-path="url(#n)"><defs><path id="o" d="M-300.8-305.6h1121v1030h-1121z"/></defs></g><defs><path id="p" d="M104.2 279.4c-8 0-14.5-6.5-14.5-14.5s6.5-14.5 14.5-14.5 14.5 6.5 14.5 14.5-6.4 14.5-14.5 14.5zm0 3c9.7 0 17.5-7.8 17.5-17.5s-7.8-17.5-17.5-17.5-17.5 7.8-17.5 17.5c0 9.6 7.9 17.5 17.5 17.5zm-37.5-55h75v75h-75v-75z"/></defs><clipPath id="q"><use xlink:href="#p" overflow="visible"/></clipPath><g clip-path="url(#q)"><defs><circle id="r" cx="104.2" cy="264.9" r="16"/></defs><clipPath id="s"><use xlink:href="#r" overflow="visible"/></clipPath><g clip-path="url(#s)"><defs><path id="t" d="M-300.8-305.6h1121v1030h-1121z"/></defs></g></g><defs><circle id="u" cx="104.2" cy="264.9" r="16"/></defs><clipPath id="v"><use xlink:href="#u" overflow="visible"/></clipPath><g clip-path="url(#v)"><defs><path id="w" d="M-300.8-305.6h1121v1030h-1121z"/></defs></g><defs><path id="x" d="M104.2 272.4c-4.1 0-7.5-3.4-7.5-7.5s3.4-7.5 7.5-7.5 7.5 3.4 7.5 7.5-3.3 7.5-7.5 7.5zm0 3c5.8 0 10.5-4.7 10.5-10.5s-4.7-10.5-10.5-10.5-10.5 4.7-10.5 10.5 4.7 10.5 10.5 10.5zm-30.5-41h61v61h-61v-61z"/></defs><clipPath id="y"><use xlink:href="#x" overflow="visible"/></clipPath><g clip-path="url(#y)"><defs><circle id="z" cx="104.2" cy="264.9" r="9"/></defs><clipPath id="A"><use xlink:href="#z" overflow="visible"/></clipPath><g clip-path="url(#A)"><defs><path id="B" d="M-300.8-305.6h1121v1030h-1121z"/></defs></g></g><defs><circle id="C" cx="104.2" cy="264.9" r="9"/></defs><clipPath id="D"><use xlink:href="#C" overflow="visible"/></clipPath><g clip-path="url(#D)"><defs><path id="E" d="M-300.8-305.6h1121v1030h-1121z"/></defs></g><defs><path id="F" d="M170.5 279.4c-8 0-14.5-6.5-14.5-14.5s6.5-14.5 14.5-14.5 14.5 6.5 14.5 14.5-6.5 14.5-14.5 14.5zm0 3c9.7 0 17.5-7.8 17.5-17.5s-7.8-17.5-17.5-17.5-17.5 7.8-17.5 17.5c0 9.6 7.8 17.5 17.5 17.5zm-37.5-55h75v75h-75v-75z"/></defs><clipPath id="G"><use xlink:href="#F" overflow="visible"/></clipPath><g clip-path="url(#G)"><defs><circle id="H" cx="170.5" cy="264.9" r="16"/></defs><clipPath id="I"><use xlink:href="#H" overflow="visible"/></clipPath><g clip-path="url(#I)"><defs><path id="J" d="M-300.8-305.6h1121v1030h-1121z"/></defs></g></g><defs><circle id="K" cx="170.5" cy="264.9" r="16"/></defs><clipPath id="L"><use xlink:href="#K" overflow="visible"/></clipPath><g clip-path="url(#L)"><defs><path id="M" d="M-300.8-305.6h1121v1030h-1121z"/></defs></g><defs><path id="N" d="M170.7 224.5l-7.7-15.6h-27.2v15.6h34.9zm-75.2 0l7.4-15.6h27.2v15.6H95.5zm-10.3 5.4L99.4 203h66.8l15.3 27.9-96.3-1z"/></defs><clipPath id="O"><use xlink:href="#N" overflow="visible"/></clipPath><g clip-path="url(#O)"><defs><path id="P" d="M-300.8-305.6h1121v1030h-1121z"/></defs></g><g><defs><path id="Q" d="M170.5 272.4c-4.1 0-7.5-3.4-7.5-7.5s3.4-7.5 7.5-7.5 7.5 3.4 7.5 7.5-3.4 7.5-7.5 7.5zm0 3c5.8 0 10.5-4.7 10.5-10.5s-4.7-10.5-10.5-10.5-10.5 4.7-10.5 10.5 4.7 10.5 10.5 10.5zm-30.5-41h61v61h-61v-61z"/></defs><clipPath id="R"><use xlink:href="#Q" overflow="visible"/></clipPath><g clip-path="url(#R)"><defs><circle id="S" cx="170.5" cy="264.9" r="9"/></defs><clipPath id="T"><use xlink:href="#S" overflow="visible"/></clipPath><g clip-path="url(#T)"><defs><path id="U" d="M-300.8-305.6h1121v1030h-1121z"/></defs></g></g></g><g><defs><circle id="V" cx="170.5" cy="264.9" r="9"/></defs><clipPath id="W"><use xlink:href="#V" overflow="visible"/></clipPath><g clip-path="url(#W)"><defs><path id="X" d="M-300.8-305.6h1121v1030h-1121z"/></defs></g></g><g><defs><circle id="Y" cx="143.3" cy="386.1" r="28"/></defs><defs><path id="Z" d="M143.3 415.6c-16.3 0-29.5-13.2-29.5-29.5s13.2-29.5 29.5-29.5 29.5 13.2 29.5 29.5-13.2 29.5-29.5 29.5zm0-55.9c-14.6 0-26.5 11.9-26.5 26.5s11.9 26.5 26.5 26.5 26.5-11.9 26.5-26.5c0-14.7-11.9-26.5-26.5-26.5z"/></defs><use xlink:href="#Y" overflow="visible" fill-rule="evenodd" clip-rule="evenodd" fill="#FFF"/><use xlink:href="#Z" overflow="visible" fill="#0F1F2D"/><clipPath id="aa"><use xlink:href="#Y" overflow="visible"/></clipPath><clipPath id="ab" clip-path="url(#aa)"><use xlink:href="#Z" overflow="visible"/></clipPath><g clip-path="url(#ab)"><defs><path id="ac" d="M31.1-87.3h721.1v662.6H31.1z"/></defs><defs><path id="ad" d="M753.7 576.8H29.6V-88.8h724.1v665.6zm-721.1-3h718.1V-85.8H32.6v659.6z"/></defs><use xlink:href="#ac" overflow="visible" fill="#FFF"/><use xlink:href="#ad" overflow="visible" fill="#0F1F2D"/><clipPath id="ae"><use xlink:href="#ac" overflow="visible"/></clipPath></g></g><g><defs><path id="af" d="M-204.6 197.6h-1.5v84h108v-84h-106.5zm0 3h105l-1.5-1.5v81l1.5-1.5h-105l1.5 1.5v-81l-1.5 1.5zm-21.5-23h148v124h-148v-124z"/></defs><clipPath id="ag"><use xlink:href="#af" overflow="visible"/></clipPath><g clip-path="url(#ag)"><defs><path id="ah" d="M-204.6 199.1h105v81h-105z"/></defs><clipPath id="ai"><use xlink:href="#ah" overflow="visible"/></clipPath><g clip-path="url(#ai)"><defs><path id="aj" d="M-1085.6-299.9h1121v1030h-1121z"/></defs></g></g></g><g><defs><path id="ak" d="M-204.6 199.1h105v81h-105z"/></defs><clipPath id="al"><use xlink:href="#ak" overflow="visible"/></clipPath><g clip-path="url(#al)"><defs><path id="am" d="M-1085.6-299.9h1121v1030h-1121z"/></defs></g></g><g><defs><path id="an" d="M-210.6 214.6h-2.2l.9-2.1 9.1-22 .4-.9h100.9l.4.9 9.1 22 .9 2.1h-119.5zm0-3h117l-1.4 2.1-9.1-22 1.4.9h-98.9l1.4-.9-9.1 22-1.3-2.1zm-22.3 23h161.5v-65h-161.5v65z"/></defs><clipPath id="ao"><use xlink:href="#an" overflow="visible"/></clipPath><g clip-path="url(#ao)"><defs><path id="ap" d="M-210.6 213.1h117l-9.1-22h-98.8z"/></defs><clipPath id="aq"><use xlink:href="#ap" overflow="visible"/></clipPath><g clip-path="url(#aq)"><defs><path id="ar" d="M-1085.6-299.9h1121v1030h-1121z"/></defs></g></g></g><g><defs><path id="as" d="M-210.6 213.1h117l-9.1-22h-98.8z"/></defs><clipPath id="at"><use xlink:href="#as" overflow="visible"/></clipPath><g clip-path="url(#at)"><defs><path id="au" d="M-1085.6-299.9h1121v1030h-1121z"/></defs></g></g><g><defs><path id="av" d="M-125.6 181.6h-1.5v19h15v-19h-13.5zm0 3h12l-1.5-1.5v16l1.5-1.5h-12l1.5 1.5v-16l-1.5 1.5zm-21.5-23h55v59h-55v-59z"/></defs><clipPath id="aw"><use xlink:href="#av" overflow="visible"/></clipPath><g clip-path="url(#aw)"><defs><path id="ax" d="M-125.6 183.1h12v16h-12z"/></defs><clipPath id="ay"><use xlink:href="#ax" overflow="visible"/></clipPath><g clip-path="url(#ay)"><defs><path id="az" d="M-1085.6-299.9h1121v1030h-1121z"/></defs></g></g></g><g><defs><path id="aA" d="M-125.6 183.1h12v16h-12z"/></defs><clipPath id="aB"><use xlink:href="#aA" overflow="visible"/></clipPath><g clip-path="url(#aB)"><defs><path id="aC" d="M-1085.6-299.9h1121v1030h-1121z"/></defs></g></g><g><defs><path id="aD" d="M-191.6 247.6h-1.5v34h24v-34h-22.5zm0 3h21l-1.5-1.5v31l1.5-1.5h-21l1.5 1.5v-31l-1.5 1.5zm-21.5-23h64v74h-64v-74z"/></defs><clipPath id="aE"><use xlink:href="#aD" overflow="visible"/></clipPath><g clip-path="url(#aE)"><defs><path id="aF" d="M-191.6 249.1h21v31h-21z"/></defs><clipPath id="aG"><use xlink:href="#aF" overflow="visible"/></clipPath><g clip-path="url(#aG)"><defs><path id="aH" d="M-1085.6-299.9h1121v1030h-1121z"/></defs></g></g></g><g><defs><path id="aI" d="M-191.6 249.1h21v31h-21z"/></defs><clipPath id="aJ"><use xlink:href="#aI" overflow="visible"/></clipPath><g clip-path="url(#aJ)"><defs><path id="aK" d="M-1085.6-299.9h1121v1030h-1121z"/></defs></g></g><g><defs><path id="aL" d="M-190.6 219.6h-1.5v22h22v-22h-20.5zm0 3h19l-1.5-1.5v19l1.5-1.5h-19l1.5 1.5v-19l-1.5 1.5zm-21.5-23h62v62h-62v-62z"/></defs><clipPath id="aM"><use xlink:href="#aL" overflow="visible"/></clipPath><g clip-path="url(#aM)"><defs><path id="aN" d="M-190.6 221.1h19v19h-19z"/></defs><clipPath id="aO"><use xlink:href="#aN" overflow="visible"/></clipPath><g clip-path="url(#aO)"><defs><path id="aP" d="M-1085.6-299.9h1121v1030h-1121z"/></defs></g></g></g><g><defs><path id="aQ" d="M-190.6 221.1h19v19h-19z"/></defs><clipPath id="aR"><use xlink:href="#aQ" overflow="visible"/></clipPath><g clip-path="url(#aR)"><defs><path id="aS" d="M-1085.6-299.9h1121v1030h-1121z"/></defs></g></g><g><defs><path id="aT" d="M-185.6 224.6h-1.5v12h12v-12h-10.5zm0 3h9l-1.5-1.5v9l1.5-1.5h-9l1.5 1.5v-9l-1.5 1.5zm-21.5-23h52v52h-52v-52z"/></defs><clipPath id="aU"><use xlink:href="#aT" overflow="visible"/></clipPath><g clip-path="url(#aU)"><defs><path id="aV" d="M-185.6 226.1h9v9h-9z"/></defs><clipPath id="aW"><use xlink:href="#aV" overflow="visible"/></clipPath><g clip-path="url(#aW)"><defs><path id="aX" d="M-1085.6-299.9h1121v1030h-1121z"/></defs></g></g></g><g><defs><path id="aY" d="M-185.6 226.1h9v9h-9z"/></defs><clipPath id="aZ"><use xlink:href="#aY" overflow="visible"/></clipPath><g clip-path="url(#aZ)"><defs><path id="ba" d="M-1085.6-299.9h1121v1030h-1121z"/></defs></g></g><g><defs><path id="bb" d="M-160.6 219.6h-1.5v22h22v-22h-20.5zm0 3h19l-1.5-1.5v19l1.5-1.5h-19l1.5 1.5v-19l-1.5 1.5zm-21.5-23h62v62h-62v-62z"/></defs><clipPath id="bc"><use xlink:href="#bb" overflow="visible"/></clipPath><g clip-path="url(#bc)"><defs><path id="bd" d="M-160.6 221.1h19v19h-19z"/></defs><clipPath id="be"><use xlink:href="#bd" overflow="visible"/></clipPath><g clip-path="url(#be)"><defs><path id="bf" d="M-1085.6-299.9h1121v1030h-1121z"/></defs></g></g></g><g><defs><path id="bg" d="M-160.6 221.1h19v19h-19z"/></defs><clipPath id="bh"><use xlink:href="#bg" overflow="visible"/></clipPath><g clip-path="url(#bh)"><defs><path id="bi" d="M-1085.6-299.9h1121v1030h-1121z"/></defs></g></g><g><defs><path id="bj" d="M-131.6 219.6h-1.5v22h22v-22h-20.5zm0 3h19l-1.5-1.5v19l1.5-1.5h-19l1.5 1.5v-19l-1.5 1.5zm-21.5-23h62v62h-62v-62z"/></defs><clipPath id="bk"><use xlink:href="#bj" overflow="visible"/></clipPath><g clip-path="url(#bk)"><defs><path id="bl" d="M-131.6 221.1h19v19h-19z"/></defs><clipPath id="bm"><use xlink:href="#bl" overflow="visible"/></clipPath><g clip-path="url(#bm)"><defs><path id="bn" d="M-1085.6-299.9h1121v1030h-1121z"/></defs></g></g></g><g><defs><path id="bo" d="M-131.6 221.1h19v19h-19z"/></defs><clipPath id="bp"><use xlink:href="#bo" overflow="visible"/></clipPath><g clip-path="url(#bp)"><defs><path id="bq" d="M-1085.6-299.9h1121v1030h-1121z"/></defs></g></g><g><defs><path id="br" d="M-160.6 247.6h-1.5v22h22v-22h-20.5zm0 3h19l-1.5-1.5v19l1.5-1.5h-19l1.5 1.5v-19l-1.5 1.5zm-21.5-23h62v62h-62v-62z"/></defs><clipPath id="bs"><use xlink:href="#br" overflow="visible"/></clipPath><g clip-path="url(#bs)"><defs><path id="bt" d="M-160.6 249.1h19v19h-19z"/></defs><clipPath id="bu"><use xlink:href="#bt" overflow="visible"/></clipPath><g clip-path="url(#bu)"><defs><path id="bv" d="M-1085.6-299.9h1121v1030h-1121z"/></defs></g></g></g><g><defs><path id="bw" d="M-160.6 249.1h19v19h-19z"/></defs><clipPath id="bx"><use xlink:href="#bw" overflow="visible"/></clipPath><g clip-path="url(#bx)"><defs><path id="by" d="M-1085.6-299.9h1121v1030h-1121z"/></defs></g></g><g><defs><path id="bz" d="M-131.6 247.6h-1.5v22h22v-22h-20.5zm0 3h19l-1.5-1.5v19l1.5-1.5h-19l1.5 1.5v-19l-1.5 1.5zm-21.5-23h62v62h-62v-62z"/></defs><clipPath id="bA"><use xlink:href="#bz" overflow="visible"/></clipPath><g clip-path="url(#bA)"><defs><path id="bB" d="M-131.6 249.1h19v19h-19z"/></defs><clipPath id="bC"><use xlink:href="#bB" overflow="visible"/></clipPath><g clip-path="url(#bC)"><defs><path id="bD" d="M-1085.6-299.9h1121v1030h-1121z"/></defs></g></g></g><g><defs><path id="bE" d="M-131.6 249.1h19v19h-19z"/></defs><clipPath id="bF"><use xlink:href="#bE" overflow="visible"/></clipPath><g clip-path="url(#bF)"><defs><path id="bG" d="M-1085.6-299.9h1121v1030h-1121z"/></defs></g></g><g><defs><path id="bH" d="M-155.6 224.6h-1.5v12h12v-12h-10.5zm0 3h9l-1.5-1.5v9l1.5-1.5h-9l1.5 1.5v-9l-1.5 1.5zm-21.5-23h52v52h-52v-52z"/></defs><clipPath id="bI"><use xlink:href="#bH" overflow="visible"/></clipPath><g clip-path="url(#bI)"><defs><path id="bJ" d="M-155.6 226.1h9v9h-9z"/></defs><clipPath id="bK"><use xlink:href="#bJ" overflow="visible"/></clipPath><g clip-path="url(#bK)"><defs><path id="bL" d="M-1085.6-299.9h1121v1030h-1121z"/></defs></g></g></g><g><defs><path id="bM" d="M-155.6 226.1h9v9h-9z"/></defs><clipPath id="bN"><use xlink:href="#bM" overflow="visible"/></clipPath><g clip-path="url(#bN)"><defs><path id="bO" d="M-1085.6-299.9h1121v1030h-1121z"/></defs></g></g><g><defs><path id="bP" d="M-126.6 224.6h-1.5v12h12v-12h-10.5zm0 3h9l-1.5-1.5v9l1.5-1.5h-9l1.5 1.5v-9l-1.5 1.5zm-21.5-23h52v52h-52v-52z"/></defs><clipPath id="bQ"><use xlink:href="#bP" overflow="visible"/></clipPath><g clip-path="url(#bQ)"><defs><path id="bR" d="M-126.6 226.1h9v9h-9z"/></defs><clipPath id="bS"><use xlink:href="#bR" overflow="visible"/></clipPath><g clip-path="url(#bS)"><defs><path id="bT" d="M-1085.6-299.9h1121v1030h-1121z"/></defs></g></g></g><g><defs><path id="bU" d="M-126.6 226.1h9v9h-9z"/></defs><clipPath id="bV"><use xlink:href="#bU" overflow="visible"/></clipPath><g clip-path="url(#bV)"><defs><path id="bW" d="M-1085.6-299.9h1121v1030h-1121z"/></defs></g></g><g><defs><path id="bX" d="M-155.6 252.6h-1.5v12h12v-12h-10.5zm0 3h9l-1.5-1.5v9l1.5-1.5h-9l1.5 1.5v-9l-1.5 1.5zm-21.5-23h52v52h-52v-52z"/></defs><clipPath id="bY"><use xlink:href="#bX" overflow="visible"/></clipPath><g clip-path="url(#bY)"><defs><path id="bZ" d="M-155.6 254.1h9v9h-9z"/></defs><clipPath id="ca"><use xlink:href="#bZ" overflow="visible"/></clipPath><g clip-path="url(#ca)"><defs><path id="cb" d="M-1085.6-299.9h1121v1030h-1121z"/></defs></g></g></g><g><defs><path id="cc" d="M-155.6 254.1h9v9h-9z"/></defs><clipPath id="cd"><use xlink:href="#cc" overflow="visible"/></clipPath><g clip-path="url(#cd)"><defs><path id="ce" d="M-1085.6-299.9h1121v1030h-1121z"/></defs></g></g><g><defs><path id="cf" d="M-126.6 252.6h-1.5v12h12v-12h-10.5zm0 3h9l-1.5-1.5v9l1.5-1.5h-9l1.5 1.5v-9l-1.5 1.5zm-21.5-23h52v52h-52v-52z"/></defs><clipPath id="cg"><use xlink:href="#cf" overflow="visible"/></clipPath><g clip-path="url(#cg)"><defs><path id="ch" d="M-126.6 254.1h9v9h-9z"/></defs><clipPath id="ci"><use xlink:href="#ch" overflow="visible"/></clipPath><g clip-path="url(#ci)"><defs><path id="cj" d="M-1085.6-299.9h1121v1030h-1121z"/></defs></g></g></g><g><defs><path id="ck" d="M-126.6 254.1h9v9h-9z"/></defs><clipPath id="cl"><use xlink:href="#ck" overflow="visible"/></clipPath><g clip-path="url(#cl)"><defs><path id="cm" d="M-1085.6-299.9h1121v1030h-1121z"/></defs></g></g></svg>