<svg id="Layer_1" data-name="Layer 1" xmlns="http://www.w3.org/2000/svg" viewBox="0 0 276 137"><defs><style>.cls-1{fill:none}.cls-2{fill:#fff}.cls-3{clip-path:url(#clip-path)}.cls-4{clip-path:url(#clip-path-2)}.cls-5{clip-path:url(#clip-path-3)}.cls-6{clip-path:url(#clip-path-4)}.cls-7{fill:#0e1f2d}.cls-8{fill:#0f1f2d}.cls-9{clip-path:url(#clip-path-5)}.cls-10{clip-path:url(#clip-path-6)}</style><clipPath id="clip-path"><circle class="cls-1" cx="138" cy="-89.73" r="50.5"/></clipPath><clipPath id="clip-path-2"><circle class="cls-1" cx="138" cy="-89.73" r="43.5"/></clipPath><clipPath id="clip-path-3"><circle class="cls-1" cx="433.48" cy="227.59" r="50.5"/></clipPath><clipPath id="clip-path-4"><circle class="cls-1" cx="433.48" cy="227.59" r="43.5"/></clipPath><clipPath id="clip-path-5"><circle class="cls-1" cx="432.82" cy="857.42" r="50.5"/></clipPath><clipPath id="clip-path-6"><circle class="cls-1" cx="432.82" cy="857.42" r="43.5"/></clipPath></defs><title>EXPERIENTIAL ICONS</title><path class="cls-2" d="M140.43 19.94l30.87 28.92-2.3 1.97-57.81-.47-1.5-1.5 30.74-28.92z"/><path class="cls-2" d="M105.24 54.4l35.19-34.46 36.01 34.46"/><path class="cls-7" d="M175.41 55.49l-34.97-33.46-34.15 33.44-2.1-2.14 36.23-35.48 37.06 35.47-2.07 2.17z"/><path class="cls-2" d="M152.99 42.62l-12.64-12.1L128 42.62h24.99z"/><path class="cls-7" d="M156.72 44.12h-32.4l16-15.68zm-25-3h17.57l-8.89-8.51z"/><path class="cls-2" d="M107.46 105.35h67.18v6.15h-67.18z"/><path class="cls-7" d="M176.44 112.82h-70.78V104h70.78zm-67.18-2.64h63.59v-3.52h-63.59z"/><path class="cls-2" d="M111.19 50.36h58.61v54.99h-58.61z"/><path class="cls-7" d="M171.3 106.17h-61.61V48.86h61.61zm-58.61-2.32h55.61v-52h-55.61z"/><path class="cls-7" d="M128 88.93h24.99v4.84H128z"/><path class="cls-8" d="M134.57 79.55a11 11 0 0 0 1.93 2.08 18 18 0 0 0 2.36 1.7 27.33 27.33 0 0 0 2.72 1.41h.07a8.48 8.48 0 0 1-1.14-3.81 3.41 3.41 0 0 1 .42-1.64 5.21 5.21 0 0 1 1.07-1.38q.67-.61 1.49-1.23t1.63-1.32a13.73 13.73 0 0 0 1.49-1.5A6.32 6.32 0 0 0 147.7 72a7 7 0 0 0 .42-2.45 10.22 10.22 0 0 0-.47-3.13 9.5 9.5 0 0 0-1.23-2.56 11 11 0 0 0-1.93-2.08 18 18 0 0 0-2.36-1.7 27.33 27.33 0 0 0-2.72-1.41h-.05a8.73 8.73 0 0 1 1.12 3.81 3.41 3.41 0 0 1-.42 1.64 5.21 5.21 0 0 1-1.06 1.33q-.67.61-1.49 1.23T135.86 68a13.73 13.73 0 0 0-1.49 1.5 6.32 6.32 0 0 0-1.09 1.91 7 7 0 0 0-.42 2.45 10.22 10.22 0 0 0 .47 3.13 9.5 9.5 0 0 0 1.24 2.56z"/></svg>