<svg xmlns="http://www.w3.org/2000/svg" xmlns:xlink="http://www.w3.org/1999/xlink" viewBox="0 0 276 137"><defs><circle id="a" cx="132.1" cy="391" r="43.5"/></defs><defs><path id="b" d="M132.1 436c-24.8 0-45-20.2-45-45s20.2-45 45-45 45 20.2 45 45-20.1 45-45 45zm0-87c-23.2 0-42 18.8-42 42s18.8 42 42 42 42-18.8 42-42-18.8-42-42-42z"/></defs><use xlink:href="#a" overflow="visible" fill-rule="evenodd" clip-rule="evenodd" fill="#FFF"/><use xlink:href="#b" overflow="visible" fill="#0F1F2D"/><clipPath id="c"><use xlink:href="#a" overflow="visible"/></clipPath><clipPath id="d" clip-path="url(#c)"><use xlink:href="#b" overflow="visible"/></clipPath><g clip-path="url(#d)"><defs><path id="e" d="M-42.4-345h1121V685h-1121z"/></defs><defs><path id="f" d="M1080.1 686.5h-1124v-1033h1124v1033zm-1121-3h1118v-1027h-1118v1027z"/></defs><use xlink:href="#e" overflow="visible" fill="#FFF"/><use xlink:href="#f" overflow="visible" fill="#0F1F2D"/></g><circle fill="#FFF" cx="140.7" cy="68.8" r="46.6"/><path fill="#0F1F2D" d="M140.7 116.8c-26.5 0-48.1-21.6-48.1-48.1s21.6-48.1 48.1-48.1 48.1 21.6 48.1 48.1c0 26.6-21.6 48.1-48.1 48.1zm0-93.1c-24.8 0-45.1 20.2-45.1 45.1s20.2 45.1 45.1 45.1 45.1-20.2 45.1-45.1-20.2-45.1-45.1-45.1z"/><path fill="#FFF" d="M125.5 90.2c1.3 1.8 2.9 3.6 4.9 5.3 2 1.7 4 3.1 6 4.3s4.3 2.4 6.9 3.6h.2c-1.9-3.7-2.9-6.9-2.9-9.6 0-1.5.4-2.8 1.1-4.2.7-1.3 1.6-2.5 2.8-3.5 1.1-1 2.4-2.1 3.8-3.1s2.8-2.1 4.1-3.3c1.4-1.2 2.6-2.5 3.8-3.8 1.1-1.3 2.1-2.9 2.8-4.8s1.1-4 1.1-6.2c0-2.8-.4-5.4-1.2-7.9-.8-2.5-1.8-4.6-3.1-6.5-1.3-1.8-2.9-3.6-4.9-5.3-2-1.7-4-3.1-6-4.3-2-1.2-4.3-2.4-6.9-3.6h-.1c1.9 3.7 2.8 6.9 2.8 9.6 0 1.5-.4 2.8-1.1 4.2-.7 1.3-1.6 2.5-2.8 3.5s-2.4 2.1-3.8 3.1-2.8 2.1-4.1 3.3c-1.4 1.2-2.6 2.5-3.8 3.8-1.1 1.3-2.1 2.9-2.8 4.8-.7 1.9-1.1 4-1.1 6.2 0 2.8.4 5.4 1.2 7.9.7 2.5 1.8 4.7 3.1 6.5z"/><path fill="#0F1F2D" d="M150.1 108.1l-7.5-3.4c-2.6-1.2-5-2.4-7-3.6-2.1-1.2-4.1-2.7-6.2-4.4-2.1-1.7-3.8-3.6-5.1-5.6-1.4-2-2.5-4.3-3.3-6.9-.8-2.6-1.3-5.4-1.3-8.4 0-2.4.4-4.7 1.1-6.7.8-2.1 1.8-3.8 3-5.3 1.2-1.4 2.5-2.7 3.9-3.9 1.4-1.2 2.8-2.4 4.2-3.4 1.3-1 2.6-2 3.7-3 1-.9 1.8-2 2.4-3.1.6-1.1.9-2.2.9-3.4 0-2.4-.9-5.4-2.7-8.9l-5.5-5.5 7.5 3.4c2.6 1.2 5 2.4 7 3.6 2.1 1.2 4.1 2.7 6.2 4.4 2.1 1.7 3.8 3.6 5.1 5.6 1.4 2 2.5 4.3 3.3 6.9.8 2.6 1.3 5.4 1.3 8.4 0 2.4-.4 4.7-1.1 6.7-.8 2-1.8 3.8-3 5.3-1.2 1.4-2.5 2.7-3.9 3.9-1.4 1.2-2.8 2.4-4.2 3.4-1.3 1-2.6 2-3.7 3-1 .9-1.8 2-2.4 3.1-.6 1.1-.9 2.2-.9 3.4 0 2.5.9 5.5 2.7 8.9v.1l5.5 5.4zm-9.5-67.7c.9 2.4 1.3 4.6 1.3 6.6 0 1.7-.4 3.3-1.2 4.9-.8 1.4-1.8 2.8-3.1 3.9-1.2 1.1-2.5 2.1-3.9 3.2-1.3 1-2.7 2.1-4 3.3-1.3 1.1-2.5 2.4-3.6 3.6-1 1.2-1.8 2.7-2.5 4.4-.6 1.7-1 3.6-1 5.7 0 2.6.4 5.2 1.1 7.5.7 2.3 1.7 4.4 2.9 6.1 1.2 1.7 2.8 3.4 4.6 5 1.9 1.6 3.8 3 5.8 4.2 1 .6 2.1 1.2 3.2 1.8-.9-2.4-1.3-4.6-1.3-6.6 0-1.7.4-3.3 1.2-4.9.8-1.4 1.8-2.8 3.1-3.9 1.2-1.1 2.5-2.1 3.9-3.2 1.3-1 2.7-2.1 4-3.3 1.3-1.1 2.5-2.4 3.6-3.6 1-1.2 1.9-2.7 2.5-4.4.6-1.7 1-3.6 1-5.7 0-2.6-.4-5.2-1.1-7.5-.7-2.3-1.7-4.4-2.9-6.1-1.2-1.7-2.8-3.4-4.6-5-1.9-1.6-3.8-3-5.8-4.2-1-.6-2.1-1.2-3.2-1.8z"/><path fill="#0F1F2D" d="M176.6 100c-.4 0-.7-.1-1-.4l-67.1-62c-.6-.6-.6-1.5-.1-2.1.6-.6 1.5-.6 2.1-.1l67.1 62c.6.6.6 1.5.1 2.1-.3.3-.7.5-1.1.5z"/><defs><path id="g" d="M367.2 227.9h-1.5v38h142v-25.1l-.4-.4-11.4-12-.4-.5H367.2zm0 3h127.6l-1.1-.5 11.4 12-.4-1v23l1.5-1.5h-139l1.5 1.5v-35l-1.5 1.5zm-21.5-23h182v78h-182v-78z"/></defs><defs><path id="h" d="M400.2 279.4c-8 0-14.5-6.5-14.5-14.5s6.5-14.5 14.5-14.5 14.5 6.5 14.5 14.5-6.4 14.5-14.5 14.5zm0 3c9.7 0 17.5-7.8 17.5-17.5s-7.8-17.5-17.5-17.5-17.5 7.8-17.5 17.5c0 9.6 7.9 17.5 17.5 17.5zm-37.5-55h75v75h-75v-75z"/></defs><defs><path id="i" d="M400.2 272.4c-4.1 0-7.5-3.4-7.5-7.5s3.4-7.5 7.5-7.5 7.5 3.4 7.5 7.5-3.3 7.5-7.5 7.5zm0 3c5.8 0 10.5-4.7 10.5-10.5s-4.7-10.5-10.5-10.5-10.5 4.7-10.5 10.5 4.7 10.5 10.5 10.5zm-30.5-41h61v61h-61v-61z"/></defs><defs><path id="j" d="M466.5 279.4c-8 0-14.5-6.5-14.5-14.5s6.5-14.5 14.5-14.5 14.5 6.5 14.5 14.5-6.5 14.5-14.5 14.5zm0 3c9.7 0 17.5-7.8 17.5-17.5s-7.8-17.5-17.5-17.5-17.5 7.8-17.5 17.5c0 9.6 7.8 17.5 17.5 17.5zm-37.5-55h75v75h-75v-75z"/></defs><defs><path id="k" d="M466.5 272.4c-4.1 0-7.5-3.4-7.5-7.5s3.4-7.5 7.5-7.5 7.5 3.4 7.5 7.5-3.4 7.5-7.5 7.5zm0 3c5.8 0 10.5-4.7 10.5-10.5s-4.7-10.5-10.5-10.5-10.5 4.7-10.5 10.5 4.7 10.5 10.5 10.5zm-30.5-41h61v61h-61v-61z"/></defs><defs><path id="l" d="M91.4 197.6h-1.5v84h108v-84H91.4zm0 3h105l-1.5-1.5v81l1.5-1.5h-105l1.5 1.5v-81l-1.5 1.5zm-21.5-23h148v124h-148v-124z"/></defs><defs><path id="m" d="M85.4 214.6h-2.2l.9-2.1 9.1-22 .4-.9h100.9l.4.9 9.1 22 .9 2.1H85.4zm0-3h117l-1.4 2.1-9.1-22 1.4.9H94.5l1.4-.9-9.1 22-1.4-2.1zm-22.3 23h161.5v-65H63.1v65z"/></defs><defs><path id="n" d="M170.4 181.6h-1.5v19h15v-19h-13.5zm0 3h12l-1.5-1.5v16l1.5-1.5h-12l1.5 1.5v-16l-1.5 1.5zm-21.5-23h55v59h-55v-59z"/></defs><defs><path id="o" d="M104.4 247.6h-1.5v34h24v-34h-22.5zm0 3h21l-1.5-1.5v31l1.5-1.5h-21l1.5 1.5v-31l-1.5 1.5zm-21.5-23h64v74h-64v-74z"/></defs><defs><path id="p" d="M105.4 219.6h-1.5v22h22v-22h-20.5zm0 3h19l-1.5-1.5v19l1.5-1.5h-19l1.5 1.5v-19l-1.5 1.5zm-21.5-23h62v62h-62v-62z"/></defs><defs><path id="q" d="M110.4 224.6h-1.5v12h12v-12h-10.5zm0 3h9l-1.5-1.5v9l1.5-1.5h-9l1.5 1.5v-9l-1.5 1.5zm-21.5-23h52v52h-52v-52z"/></defs><defs><path id="r" d="M135.4 219.6h-1.5v22h22v-22h-20.5zm0 3h19l-1.5-1.5v19l1.5-1.5h-19l1.5 1.5v-19l-1.5 1.5zm-21.5-23h62v62h-62v-62z"/></defs><defs><path id="s" d="M164.4 219.6h-1.5v22h22v-22h-20.5zm0 3h19l-1.5-1.5v19l1.5-1.5h-19l1.5 1.5v-19l-1.5 1.5zm-21.5-23h62v62h-62v-62z"/></defs><defs><path id="t" d="M135.4 247.6h-1.5v22h22v-22h-20.5zm0 3h19l-1.5-1.5v19l1.5-1.5h-19l1.5 1.5v-19l-1.5 1.5zm-21.5-23h62v62h-62v-62z"/></defs><defs><path id="u" d="M164.4 247.6h-1.5v22h22v-22h-20.5zm0 3h19l-1.5-1.5v19l1.5-1.5h-19l1.5 1.5v-19l-1.5 1.5zm-21.5-23h62v62h-62v-62z"/></defs><defs><path id="v" d="M140.4 224.6h-1.5v12h12v-12h-10.5zm0 3h9l-1.5-1.5v9l1.5-1.5h-9l1.5 1.5v-9l-1.5 1.5zm-21.5-23h52v52h-52v-52z"/></defs><defs><path id="w" d="M169.4 224.6h-1.5v12h12v-12h-10.5zm0 3h9l-1.5-1.5v9l1.5-1.5h-9l1.5 1.5v-9l-1.5 1.5zm-21.5-23h52v52h-52v-52z"/></defs><defs><path id="x" d="M140.4 252.6h-1.5v12h12v-12h-10.5zm0 3h9l-1.5-1.5v9l1.5-1.5h-9l1.5 1.5v-9l-1.5 1.5zm-21.5-23h52v52h-52v-52z"/></defs><defs><path id="y" d="M169.4 252.6h-1.5v12h12v-12h-10.5zm0 3h9l-1.5-1.5v9l1.5-1.5h-9l1.5 1.5v-9l-1.5 1.5zm-21.5-23h52v52h-52v-52z"/></defs></svg>