<svg id="Layer_1" data-name="Layer 1" xmlns="http://www.w3.org/2000/svg" viewBox="0 0 276 137"><defs><style>.cls-1,.cls-9{fill:none}.cls-2{clip-path:url(#clip-path)}.cls-3{clip-path:url(#clip-path-2)}.cls-4{clip-path:url(#clip-path-3)}.cls-5{clip-path:url(#clip-path-4)}.cls-6{clip-path:url(#clip-path-5)}.cls-7{clip-path:url(#clip-path-6)}.cls-10,.cls-8{fill:#fff}.cls-8,.cls-9{stroke:#0e1f2d;stroke-linecap:round;stroke-miterlimit:10;stroke-width:3px}.cls-11{fill:#0c1f2e}.cls-12{fill:#0f1f2d}.cls-13{clip-path:url(#clip-path-7)}.cls-14{clip-path:url(#clip-path-8)}</style><clipPath id="clip-path"><circle class="cls-1" cx="-158" cy="-89.73" r="50.5"/></clipPath><clipPath id="clip-path-2"><circle class="cls-1" cx="-158" cy="-89.73" r="43.5"/></clipPath><clipPath id="clip-path-3"><circle class="cls-1" cx="137.48" cy="227.59" r="50.5"/></clipPath><clipPath id="clip-path-4"><circle class="cls-1" cx="137.48" cy="227.59" r="43.5"/></clipPath><clipPath id="clip-path-5"><circle class="cls-1" cx="434" cy="-244.5" r="50.5"/></clipPath><clipPath id="clip-path-6"><circle class="cls-1" cx="434" cy="-244.5" r="43.5"/></clipPath><clipPath id="clip-path-7"><circle class="cls-1" cx="136.82" cy="857.42" r="50.5"/></clipPath><clipPath id="clip-path-8"><circle class="cls-1" cx="136.82" cy="857.42" r="43.5"/></clipPath></defs><title>EXPERIENTIAL ICONS</title><path class="cls-8" d="M189.23 101.43l-22.3 6.77-27.07-6.77-24.45 7.52-24.66-7.52V27.36l24.66 7.52 24.58-7.52 26.94 6.77 22.3-6.77v74.07z"/><path class="cls-9" d="M115.15 34.88v63.69M115.15 93.63v15.6M166.42 89.55v18.05M166.42 34.08v53.58M140.48 87.65v13.98M140.48 28.32V42.3"/><circle class="cls-10" cx="140.79" cy="64.83" r="16.83"/><path class="cls-11" d="M140.79 83.08A18.25 18.25 0 1 1 159 64.83a18.27 18.27 0 0 1-18.21 18.25zm0-33.66a15.41 15.41 0 1 0 15.41 15.41 15.42 15.42 0 0 0-15.41-15.41z"/><path class="cls-12" d="M135.17 72.3a10.43 10.43 0 0 0 1.83 2 17 17 0 0 0 2.24 1.61 25.94 25.94 0 0 0 2.58 1.34h.06a8 8 0 0 1-1.08-3.62 3.24 3.24 0 0 1 .4-1.56 4.94 4.94 0 0 1 1-1.32q.64-.58 1.41-1.16t1.55-1.25a13 13 0 0 0 1.41-1.42 6 6 0 0 0 1-1.82 6.63 6.63 0 0 0 .4-2.33 9.7 9.7 0 0 0-.44-3 9 9 0 0 0-1.17-2.43 10.43 10.43 0 0 0-1.83-2 17 17 0 0 0-2.24-1.61 25.94 25.94 0 0 0-2.58-1.34 8.29 8.29 0 0 1 1.08 3.61 3.24 3.24 0 0 1-.4 1.56 4.94 4.94 0 0 1-1 1.32q-.64.58-1.41 1.16t-1.55 1.25a13 13 0 0 0-1.43 1.46 6 6 0 0 0-1 1.82 6.63 6.63 0 0 0-.4 2.33 9.7 9.7 0 0 0 .44 3 9 9 0 0 0 1.13 2.4z"/></svg>