<svg xmlns="http://www.w3.org/2000/svg" viewBox="0 0 276 137"><path fill="#FFF" d="M173.478 32.413l7.425 7.425-75.024 75.023-7.424-7.425z"/><path fill="#0F1F2D" d="M105.8 117l-9.5-9.5 77.2-77.2 9.5 9.5-77.2 77.2zm-5.2-9.5l5.3 5.3 72.9-72.9-5.3-5.3-72.9 72.9z"/><path fill="#FFF" d="M180 76.3L160 46l8.2-8.2-7.1-16.6 44 30s.1 10.3-6.5 17-18.6 8.1-18.6 8.1z"/><path fill="#0F1F2D" d="M179.2 77.9l-21.1-32.2 8.4-8.4-8.7-20.3 48.8 33.3v.8c0 .4.1 11-7 18-6.9 6.9-19 8.6-19.5 8.6l-.9.2zm-17.3-31.8l18.8 28.6c2.8-.5 11.7-2.5 16.9-7.6 5.1-5.1 5.9-12.7 6.1-15.1l-39.1-26.6 5.4 12.8-8.1 7.9z"/><path fill="#0F1F2D" d="M177.5 73.9c-.4 0-.8-.1-1.1-.4-.6-.6-.6-1.5 0-2.1L199.8 48c.6-.6 1.5-.6 2.1 0s.6 1.5 0 2.1l-23.3 23.3c-.3.4-.7.5-1.1.5z"/><path fill="#FFF" d="M188.151 105.518l-7.425 7.424-75.023-75.023 7.425-7.425z"/><path fill="#0F1F2D" d="M180.8 115l-77.2-77.2 9.5-9.5 77.2 77.2-9.5 9.5zm-73-77.1l72.9 72.9 5.3-5.3-72.9-72.9-5.3 5.3z"/><path fill="#FFF" d="M106.6 74.3l20-30.4-8.2-8.2 7.1-16.6-44 30s-.1 10.3 6.5 17 18.6 8.2 18.6 8.2z"/><path fill="#0F1F2D" d="M107.4 75.9l-.9-.1c-.5-.1-12.6-1.7-19.5-8.6-7-7-7-17.6-7-18v-.8L128.8 15l-8.7 20.3 8.4 8.4-21.1 32.2zM83 49.9c.1 2.4 1 10 6.1 15.1 5.2 5.2 14 7.1 16.9 7.6L124.8 44l-8.1-8.1 5.4-12.8L83 49.9z"/><path fill="#0F1F2D" d="M109.1 71.9c-.4 0-.8-.1-1.1-.4L84.7 48.2c-.6-.6-.6-1.5 0-2.1s1.5-.6 2.1 0l23.3 23.3c.6.6.6 1.5 0 2.1-.3.3-.7.4-1 .4z"/><defs><path id="a" d="M83.4 514.6h-1.5v84h108v-84H83.4zm0 3h105l-1.5-1.5v81l1.5-1.5h-105l1.5 1.5v-81l-1.5 1.5zm-21.5-23h148v124h-148v-124z"/></defs><defs><path id="b" d="M77.4 531.6h-2.2l.9-2.1 9.1-22 .4-.9h100.9l.4.9 9.1 22 .9 2.1H77.4zm0-3h117l-1.4 2.1-9.1-22 1.4.9H86.5l1.4-.9-9.1 22-1.4-2.1zm-22.3 23h161.5v-65H55.1v65z"/></defs><defs><path id="c" d="M162.4 498.6h-1.5v19h15v-19h-13.5zm0 3h12l-1.5-1.5v16l1.5-1.5h-12l1.5 1.5v-16l-1.5 1.5zm-21.5-23h55v59h-55v-59z"/></defs><defs><path id="d" d="M96.4 564.6h-1.5v34h24v-34H96.4zm0 3h21l-1.5-1.5v31l1.5-1.5h-21l1.5 1.5v-31l-1.5 1.5zm-21.5-23h64v74h-64v-74z"/></defs><defs><path id="e" d="M97.4 536.6h-1.5v22h22v-22H97.4zm0 3h19l-1.5-1.5v19l1.5-1.5h-19l1.5 1.5v-19l-1.5 1.5zm-21.5-23h62v62h-62v-62z"/></defs><defs><path id="f" d="M102.4 541.6h-1.5v12h12v-12h-10.5zm0 3h9l-1.5-1.5v9l1.5-1.5h-9l1.5 1.5v-9l-1.5 1.5zm-21.5-23h52v52h-52v-52z"/></defs><defs><path id="g" d="M127.4 536.6h-1.5v22h22v-22h-20.5zm0 3h19l-1.5-1.5v19l1.5-1.5h-19l1.5 1.5v-19l-1.5 1.5zm-21.5-23h62v62h-62v-62z"/></defs><defs><path id="h" d="M156.4 536.6h-1.5v22h22v-22h-20.5zm0 3h19l-1.5-1.5v19l1.5-1.5h-19l1.5 1.5v-19l-1.5 1.5zm-21.5-23h62v62h-62v-62z"/></defs><defs><path id="i" d="M127.4 564.6h-1.5v22h22v-22h-20.5zm0 3h19l-1.5-1.5v19l1.5-1.5h-19l1.5 1.5v-19l-1.5 1.5zm-21.5-23h62v62h-62v-62z"/></defs><defs><path id="j" d="M156.4 564.6h-1.5v22h22v-22h-20.5zm0 3h19l-1.5-1.5v19l1.5-1.5h-19l1.5 1.5v-19l-1.5 1.5zm-21.5-23h62v62h-62v-62z"/></defs><defs><path id="k" d="M132.4 541.6h-1.5v12h12v-12h-10.5zm0 3h9l-1.5-1.5v9l1.5-1.5h-9l1.5 1.5v-9l-1.5 1.5zm-21.5-23h52v52h-52v-52z"/></defs><defs><path id="l" d="M161.4 541.6h-1.5v12h12v-12h-10.5zm0 3h9l-1.5-1.5v9l1.5-1.5h-9l1.5 1.5v-9l-1.5 1.5zm-21.5-23h52v52h-52v-52z"/></defs><defs><path id="m" d="M132.4 569.6h-1.5v12h12v-12h-10.5zm0 3h9l-1.5-1.5v9l1.5-1.5h-9l1.5 1.5v-9l-1.5 1.5zm-21.5-23h52v52h-52v-52z"/></defs><defs><path id="n" d="M161.4 569.6h-1.5v12h12v-12h-10.5zm0 3h9l-1.5-1.5v9l1.5-1.5h-9l1.5 1.5v-9l-1.5 1.5zm-21.5-23h52v52h-52v-52z"/></defs><defs><path id="o" d="M683.4 197.6h-1.5v84h108v-84H683.4zm0 3h105l-1.5-1.5v81l1.5-1.5h-105l1.5 1.5v-81l-1.5 1.5zm-21.5-23h148v124h-148v-124z"/></defs><defs><path id="p" d="M677.4 214.6h-2.2l.9-2.1 9.1-22 .4-.9h100.9l.4.9 9.1 22 .9 2.1H677.4zm0-3h117l-1.4 2.1-9.1-22 1.4.9h-98.9l1.4-.9-9.1 22-1.3-2.1zm-22.3 23h161.5v-65H655.1v65z"/></defs><defs><path id="q" d="M762.4 181.6h-1.5v19h15v-19h-13.5zm0 3h12l-1.5-1.5v16l1.5-1.5h-12l1.5 1.5v-16l-1.5 1.5zm-21.5-23h55v59h-55v-59z"/></defs><defs><path id="r" d="M696.4 247.6h-1.5v34h24v-34h-22.5zm0 3h21l-1.5-1.5v31l1.5-1.5h-21l1.5 1.5v-31l-1.5 1.5zm-21.5-23h64v74h-64v-74z"/></defs><defs><path id="s" d="M697.4 219.6h-1.5v22h22v-22h-20.5zm0 3h19l-1.5-1.5v19l1.5-1.5h-19l1.5 1.5v-19l-1.5 1.5zm-21.5-23h62v62h-62v-62z"/></defs><defs><path id="t" d="M702.4 224.6h-1.5v12h12v-12h-10.5zm0 3h9l-1.5-1.5v9l1.5-1.5h-9l1.5 1.5v-9l-1.5 1.5zm-21.5-23h52v52h-52v-52z"/></defs><defs><path id="u" d="M727.4 219.6h-1.5v22h22v-22h-20.5zm0 3h19l-1.5-1.5v19l1.5-1.5h-19l1.5 1.5v-19l-1.5 1.5zm-21.5-23h62v62h-62v-62z"/></defs><defs><path id="v" d="M756.4 219.6h-1.5v22h22v-22h-20.5zm0 3h19l-1.5-1.5v19l1.5-1.5h-19l1.5 1.5v-19l-1.5 1.5zm-21.5-23h62v62h-62v-62z"/></defs><defs><path id="w" d="M727.4 247.6h-1.5v22h22v-22h-20.5zm0 3h19l-1.5-1.5v19l1.5-1.5h-19l1.5 1.5v-19l-1.5 1.5zm-21.5-23h62v62h-62v-62z"/></defs><defs><path id="x" d="M756.4 247.6h-1.5v22h22v-22h-20.5zm0 3h19l-1.5-1.5v19l1.5-1.5h-19l1.5 1.5v-19l-1.5 1.5zm-21.5-23h62v62h-62v-62z"/></defs><defs><path id="y" d="M732.4 224.6h-1.5v12h12v-12h-10.5zm0 3h9l-1.5-1.5v9l1.5-1.5h-9l1.5 1.5v-9l-1.5 1.5zm-21.5-23h52v52h-52v-52z"/></defs><defs><path id="z" d="M761.4 224.6h-1.5v12h12v-12h-10.5zm0 3h9l-1.5-1.5v9l1.5-1.5h-9l1.5 1.5v-9l-1.5 1.5zm-21.5-23h52v52h-52v-52z"/></defs><defs><path id="A" d="M732.4 252.6h-1.5v12h12v-12h-10.5zm0 3h9l-1.5-1.5v9l1.5-1.5h-9l1.5 1.5v-9l-1.5 1.5zm-21.5-23h52v52h-52v-52z"/></defs><defs><path id="B" d="M761.4 252.6h-1.5v12h12v-12h-10.5zm0 3h9l-1.5-1.5v9l1.5-1.5h-9l1.5 1.5v-9l-1.5 1.5zm-21.5-23h52v52h-52v-52z"/></defs></svg>