<svg xmlns="http://www.w3.org/2000/svg" xmlns:xlink="http://www.w3.org/1999/xlink" viewBox="0 0 276 137"><path fill="#FFF" d="M173.478 32.413l7.425 7.425-75.024 75.023-7.424-7.425z"/><path fill="#0F1F2D" d="M105.8 117l-9.5-9.5 77.2-77.2 9.5 9.5-77.2 77.2zm-5.2-9.5l5.3 5.3 72.9-72.9-5.3-5.3-72.9 72.9z"/><path fill="#FFF" d="M180 76.3L160 46l8.2-8.2-7.1-16.6 44 30s.1 10.3-6.5 17-18.6 8.1-18.6 8.1z"/><path fill="#0F1F2D" d="M179.2 77.9l-21.1-32.2 8.4-8.4-8.7-20.3 48.8 33.3v.8c0 .4.1 11-7 18-6.9 6.9-19 8.6-19.5 8.6l-.9.2zm-17.3-31.8l18.8 28.6c2.8-.5 11.7-2.5 16.9-7.6 5.1-5.1 5.9-12.7 6.1-15.1l-39.1-26.6 5.4 12.8-8.1 7.9z"/><path fill="#0F1F2D" d="M177.5 73.9c-.4 0-.8-.1-1.1-.4-.6-.6-.6-1.5 0-2.1L199.8 48c.6-.6 1.5-.6 2.1 0s.6 1.5 0 2.1l-23.3 23.3c-.3.4-.7.5-1.1.5z"/><path fill="#FFF" d="M188.151 105.518l-7.425 7.424-75.023-75.023 7.425-7.425z"/><path fill="#0F1F2D" d="M180.8 115l-77.2-77.2 9.5-9.5 77.2 77.2-9.5 9.5zm-73-77.1l72.9 72.9 5.3-5.3-72.9-72.9-5.3 5.3z"/><path fill="#FFF" d="M106.6 74.3l20-30.4-8.2-8.2 7.1-16.6-44 30s-.1 10.3 6.5 17 18.6 8.2 18.6 8.2z"/><path fill="#0F1F2D" d="M107.4 75.9l-.9-.1c-.5-.1-12.6-1.7-19.5-8.6-7-7-7-17.6-7-18v-.8L128.8 15l-8.7 20.3 8.4 8.4-21.1 32.2zM83 49.9c.1 2.4 1 10 6.1 15.1 5.2 5.2 14 7.1 16.9 7.6L124.8 44l-8.1-8.1 5.4-12.8L83 49.9z"/><path fill="#0F1F2D" d="M109.1 71.9c-.4 0-.8-.1-1.1-.4L84.7 48.2c-.6-.6-.6-1.5 0-2.1s1.5-.6 2.1 0l23.3 23.3c.6.6.6 1.5 0 2.1-.3.3-.7.4-1 .4z"/><defs><path id="a" d="M83.4 514.6h-1.5v84h108v-84H83.4zm0 3h105l-1.5-1.5v81l1.5-1.5h-105l1.5 1.5v-81l-1.5 1.5zm-21.5-23h148v124h-148v-124z"/></defs><clipPath id="b"><use xlink:href="#a" overflow="visible"/></clipPath><g clip-path="url(#b)"><defs><path id="c" d="M83.4 516.1h105v81h-105z"/></defs></g><defs><path id="d" d="M83.4 516.1h105v81h-105z"/></defs><defs><path id="e" d="M77.4 531.6h-2.2l.9-2.1 9.1-22 .4-.9h100.9l.4.9 9.1 22 .9 2.1H77.4zm0-3h117l-1.4 2.1-9.1-22 1.4.9H86.5l1.4-.9-9.1 22-1.4-2.1zm-22.3 23h161.5v-65H55.1v65z"/></defs><clipPath id="f"><use xlink:href="#e" overflow="visible"/></clipPath><g clip-path="url(#f)"><defs><path id="g" d="M77.4 530.1h117l-9.1-22H86.5z"/></defs></g><defs><path id="h" d="M77.4 530.1h117l-9.1-22H86.5z"/></defs><defs><path id="i" d="M162.4 498.6h-1.5v19h15v-19h-13.5zm0 3h12l-1.5-1.5v16l1.5-1.5h-12l1.5 1.5v-16l-1.5 1.5zm-21.5-23h55v59h-55v-59z"/></defs><clipPath id="j"><use xlink:href="#i" overflow="visible"/></clipPath><g clip-path="url(#j)"><defs><path id="k" d="M162.4 500.1h12v16h-12z"/></defs></g><defs><path id="l" d="M162.4 500.1h12v16h-12z"/></defs><defs><path id="m" d="M96.4 564.6h-1.5v34h24v-34H96.4zm0 3h21l-1.5-1.5v31l1.5-1.5h-21l1.5 1.5v-31l-1.5 1.5zm-21.5-23h64v74h-64v-74z"/></defs><clipPath id="n"><use xlink:href="#m" overflow="visible"/></clipPath><g clip-path="url(#n)"><defs><path id="o" d="M96.4 566.1h21v31h-21z"/></defs></g><defs><path id="p" d="M96.4 566.1h21v31h-21z"/></defs><defs><path id="q" d="M97.4 536.6h-1.5v22h22v-22H97.4zm0 3h19l-1.5-1.5v19l1.5-1.5h-19l1.5 1.5v-19l-1.5 1.5zm-21.5-23h62v62h-62v-62z"/></defs><clipPath id="r"><use xlink:href="#q" overflow="visible"/></clipPath><g clip-path="url(#r)"><defs><path id="s" d="M97.4 538.1h19v19h-19z"/></defs></g><defs><path id="t" d="M97.4 538.1h19v19h-19z"/></defs><defs><path id="u" d="M102.4 541.6h-1.5v12h12v-12h-10.5zm0 3h9l-1.5-1.5v9l1.5-1.5h-9l1.5 1.5v-9l-1.5 1.5zm-21.5-23h52v52h-52v-52z"/></defs><clipPath id="v"><use xlink:href="#u" overflow="visible"/></clipPath><g clip-path="url(#v)"><defs><path id="w" d="M102.4 543.1h9v9h-9z"/></defs></g><defs><path id="x" d="M102.4 543.1h9v9h-9z"/></defs><defs><path id="y" d="M127.4 536.6h-1.5v22h22v-22h-20.5zm0 3h19l-1.5-1.5v19l1.5-1.5h-19l1.5 1.5v-19l-1.5 1.5zm-21.5-23h62v62h-62v-62z"/></defs><clipPath id="z"><use xlink:href="#y" overflow="visible"/></clipPath><g clip-path="url(#z)"><defs><path id="A" d="M127.4 538.1h19v19h-19z"/></defs></g><defs><path id="B" d="M127.4 538.1h19v19h-19z"/></defs><defs><path id="C" d="M156.4 536.6h-1.5v22h22v-22h-20.5zm0 3h19l-1.5-1.5v19l1.5-1.5h-19l1.5 1.5v-19l-1.5 1.5zm-21.5-23h62v62h-62v-62z"/></defs><clipPath id="D"><use xlink:href="#C" overflow="visible"/></clipPath><g clip-path="url(#D)"><defs><path id="E" d="M156.4 538.1h19v19h-19z"/></defs></g><defs><path id="F" d="M156.4 538.1h19v19h-19z"/></defs><defs><path id="G" d="M127.4 564.6h-1.5v22h22v-22h-20.5zm0 3h19l-1.5-1.5v19l1.5-1.5h-19l1.5 1.5v-19l-1.5 1.5zm-21.5-23h62v62h-62v-62z"/></defs><clipPath id="H"><use xlink:href="#G" overflow="visible"/></clipPath><g clip-path="url(#H)"><defs><path id="I" d="M127.4 566.1h19v19h-19z"/></defs></g><defs><path id="J" d="M127.4 566.1h19v19h-19z"/></defs><defs><path id="K" d="M156.4 564.6h-1.5v22h22v-22h-20.5zm0 3h19l-1.5-1.5v19l1.5-1.5h-19l1.5 1.5v-19l-1.5 1.5zm-21.5-23h62v62h-62v-62z"/></defs><clipPath id="L"><use xlink:href="#K" overflow="visible"/></clipPath><g clip-path="url(#L)"><defs><path id="M" d="M156.4 566.1h19v19h-19z"/></defs></g><defs><path id="N" d="M156.4 566.1h19v19h-19z"/></defs><defs><path id="O" d="M132.4 541.6h-1.5v12h12v-12h-10.5zm0 3h9l-1.5-1.5v9l1.5-1.5h-9l1.5 1.5v-9l-1.5 1.5zm-21.5-23h52v52h-52v-52z"/></defs><clipPath id="P"><use xlink:href="#O" overflow="visible"/></clipPath><g clip-path="url(#P)"><defs><path id="Q" d="M132.4 543.1h9v9h-9z"/></defs></g><defs><path id="R" d="M132.4 543.1h9v9h-9z"/></defs><defs><path id="S" d="M161.4 541.6h-1.5v12h12v-12h-10.5zm0 3h9l-1.5-1.5v9l1.5-1.5h-9l1.5 1.5v-9l-1.5 1.5zm-21.5-23h52v52h-52v-52z"/></defs><clipPath id="T"><use xlink:href="#S" overflow="visible"/></clipPath><g clip-path="url(#T)"><defs><path id="U" d="M161.4 543.1h9v9h-9z"/></defs></g><defs><path id="V" d="M161.4 543.1h9v9h-9z"/></defs><defs><path id="W" d="M132.4 569.6h-1.5v12h12v-12h-10.5zm0 3h9l-1.5-1.5v9l1.5-1.5h-9l1.5 1.5v-9l-1.5 1.5zm-21.5-23h52v52h-52v-52z"/></defs><clipPath id="X"><use xlink:href="#W" overflow="visible"/></clipPath><g clip-path="url(#X)"><defs><path id="Y" d="M132.4 571.1h9v9h-9z"/></defs></g><defs><path id="Z" d="M132.4 571.1h9v9h-9z"/></defs><defs><path id="aa" d="M161.4 569.6h-1.5v12h12v-12h-10.5zm0 3h9l-1.5-1.5v9l1.5-1.5h-9l1.5 1.5v-9l-1.5 1.5zm-21.5-23h52v52h-52v-52z"/></defs><clipPath id="ab"><use xlink:href="#aa" overflow="visible"/></clipPath><g clip-path="url(#ab)"><defs><path id="ac" d="M161.4 571.1h9v9h-9z"/></defs></g><defs><path id="ad" d="M161.4 571.1h9v9h-9z"/></defs><defs><path id="ae" d="M683.4 197.6h-1.5v84h108v-84H683.4zm0 3h105l-1.5-1.5v81l1.5-1.5h-105l1.5 1.5v-81l-1.5 1.5zm-21.5-23h148v124h-148v-124z"/></defs><clipPath id="af"><use xlink:href="#ae" overflow="visible"/></clipPath><g clip-path="url(#af)"><defs><path id="ag" d="M683.4 199.1h105v81h-105z"/></defs></g><defs><path id="ah" d="M683.4 199.1h105v81h-105z"/></defs><defs><path id="ai" d="M677.4 214.6h-2.2l.9-2.1 9.1-22 .4-.9h100.9l.4.9 9.1 22 .9 2.1H677.4zm0-3h117l-1.4 2.1-9.1-22 1.4.9h-98.9l1.4-.9-9.1 22-1.3-2.1zm-22.3 23h161.5v-65H655.1v65z"/></defs><clipPath id="aj"><use xlink:href="#ai" overflow="visible"/></clipPath><g clip-path="url(#aj)"><defs><path id="ak" d="M677.4 213.1h117l-9.1-22h-98.8z"/></defs></g><defs><path id="al" d="M677.4 213.1h117l-9.1-22h-98.8z"/></defs><defs><path id="am" d="M762.4 181.6h-1.5v19h15v-19h-13.5zm0 3h12l-1.5-1.5v16l1.5-1.5h-12l1.5 1.5v-16l-1.5 1.5zm-21.5-23h55v59h-55v-59z"/></defs><clipPath id="an"><use xlink:href="#am" overflow="visible"/></clipPath><g clip-path="url(#an)"><defs><path id="ao" d="M762.4 183.1h12v16h-12z"/></defs></g><defs><path id="ap" d="M762.4 183.1h12v16h-12z"/></defs><defs><path id="aq" d="M696.4 247.6h-1.5v34h24v-34h-22.5zm0 3h21l-1.5-1.5v31l1.5-1.5h-21l1.5 1.5v-31l-1.5 1.5zm-21.5-23h64v74h-64v-74z"/></defs><clipPath id="ar"><use xlink:href="#aq" overflow="visible"/></clipPath><g clip-path="url(#ar)"><defs><path id="as" d="M696.4 249.1h21v31h-21z"/></defs></g><defs><path id="at" d="M696.4 249.1h21v31h-21z"/></defs><defs><path id="au" d="M697.4 219.6h-1.5v22h22v-22h-20.5zm0 3h19l-1.5-1.5v19l1.5-1.5h-19l1.5 1.5v-19l-1.5 1.5zm-21.5-23h62v62h-62v-62z"/></defs><clipPath id="av"><use xlink:href="#au" overflow="visible"/></clipPath><g clip-path="url(#av)"><defs><path id="aw" d="M697.4 221.1h19v19h-19z"/></defs></g><defs><path id="ax" d="M697.4 221.1h19v19h-19z"/></defs><defs><path id="ay" d="M702.4 224.6h-1.5v12h12v-12h-10.5zm0 3h9l-1.5-1.5v9l1.5-1.5h-9l1.5 1.5v-9l-1.5 1.5zm-21.5-23h52v52h-52v-52z"/></defs><clipPath id="az"><use xlink:href="#ay" overflow="visible"/></clipPath><g clip-path="url(#az)"><defs><path id="aA" d="M702.4 226.1h9v9h-9z"/></defs></g><defs><path id="aB" d="M702.4 226.1h9v9h-9z"/></defs><defs><path id="aC" d="M727.4 219.6h-1.5v22h22v-22h-20.5zm0 3h19l-1.5-1.5v19l1.5-1.5h-19l1.5 1.5v-19l-1.5 1.5zm-21.5-23h62v62h-62v-62z"/></defs><clipPath id="aD"><use xlink:href="#aC" overflow="visible"/></clipPath><g clip-path="url(#aD)"><defs><path id="aE" d="M727.4 221.1h19v19h-19z"/></defs></g><defs><path id="aF" d="M727.4 221.1h19v19h-19z"/></defs><defs><path id="aG" d="M756.4 219.6h-1.5v22h22v-22h-20.5zm0 3h19l-1.5-1.5v19l1.5-1.5h-19l1.5 1.5v-19l-1.5 1.5zm-21.5-23h62v62h-62v-62z"/></defs><clipPath id="aH"><use xlink:href="#aG" overflow="visible"/></clipPath><g clip-path="url(#aH)"><defs><path id="aI" d="M756.4 221.1h19v19h-19z"/></defs></g><defs><path id="aJ" d="M756.4 221.1h19v19h-19z"/></defs><g><defs><path id="aK" d="M727.4 247.6h-1.5v22h22v-22h-20.5zm0 3h19l-1.5-1.5v19l1.5-1.5h-19l1.5 1.5v-19l-1.5 1.5zm-21.5-23h62v62h-62v-62z"/></defs><clipPath id="aL"><use xlink:href="#aK" overflow="visible"/></clipPath><g clip-path="url(#aL)"><defs><path id="aM" d="M727.4 249.1h19v19h-19z"/></defs></g></g><g><defs><path id="aN" d="M727.4 249.1h19v19h-19z"/></defs></g><g><defs><path id="aO" d="M756.4 247.6h-1.5v22h22v-22h-20.5zm0 3h19l-1.5-1.5v19l1.5-1.5h-19l1.5 1.5v-19l-1.5 1.5zm-21.5-23h62v62h-62v-62z"/></defs><clipPath id="aP"><use xlink:href="#aO" overflow="visible"/></clipPath><g clip-path="url(#aP)"><defs><path id="aQ" d="M756.4 249.1h19v19h-19z"/></defs></g></g><g><defs><path id="aR" d="M756.4 249.1h19v19h-19z"/></defs></g><g><defs><path id="aS" d="M732.4 224.6h-1.5v12h12v-12h-10.5zm0 3h9l-1.5-1.5v9l1.5-1.5h-9l1.5 1.5v-9l-1.5 1.5zm-21.5-23h52v52h-52v-52z"/></defs><clipPath id="aT"><use xlink:href="#aS" overflow="visible"/></clipPath><g clip-path="url(#aT)"><defs><path id="aU" d="M732.4 226.1h9v9h-9z"/></defs></g></g><g><defs><path id="aV" d="M732.4 226.1h9v9h-9z"/></defs></g><g><defs><path id="aW" d="M761.4 224.6h-1.5v12h12v-12h-10.5zm0 3h9l-1.5-1.5v9l1.5-1.5h-9l1.5 1.5v-9l-1.5 1.5zm-21.5-23h52v52h-52v-52z"/></defs><clipPath id="aX"><use xlink:href="#aW" overflow="visible"/></clipPath><g clip-path="url(#aX)"><defs><path id="aY" d="M761.4 226.1h9v9h-9z"/></defs></g></g><g><defs><path id="aZ" d="M761.4 226.1h9v9h-9z"/></defs></g><g><defs><path id="ba" d="M732.4 252.6h-1.5v12h12v-12h-10.5zm0 3h9l-1.5-1.5v9l1.5-1.5h-9l1.5 1.5v-9l-1.5 1.5zm-21.5-23h52v52h-52v-52z"/></defs><clipPath id="bb"><use xlink:href="#ba" overflow="visible"/></clipPath><g clip-path="url(#bb)"><defs><path id="bc" d="M732.4 254.1h9v9h-9z"/></defs></g></g><g><defs><path id="bd" d="M732.4 254.1h9v9h-9z"/></defs></g><g><defs><path id="be" d="M761.4 252.6h-1.5v12h12v-12h-10.5zm0 3h9l-1.5-1.5v9l1.5-1.5h-9l1.5 1.5v-9l-1.5 1.5zm-21.5-23h52v52h-52v-52z"/></defs><clipPath id="bf"><use xlink:href="#be" overflow="visible"/></clipPath><g clip-path="url(#bf)"><defs><path id="bg" d="M761.4 254.1h9v9h-9z"/></defs></g></g><g><defs><path id="bh" d="M761.4 254.1h9v9h-9z"/></defs></g></svg>