<svg xmlns="http://www.w3.org/2000/svg" xmlns:xlink="http://www.w3.org/1999/xlink" viewBox="0 0 276 137"><path fill="#FFF" d="M173.478 32.413l7.425 7.425-75.024 75.023-7.424-7.425z"/><path fill="#0F1F2D" d="M105.8 117l-9.5-9.5 77.2-77.2 9.5 9.5-77.2 77.2zm-5.2-9.5l5.3 5.3 72.9-72.9-5.3-5.3-72.9 72.9z"/><path fill="#FFF" d="M180 76.3L160 46l8.2-8.2-7.1-16.6 44 30s.1 10.3-6.5 17-18.6 8.1-18.6 8.1z"/><path fill="#0F1F2D" d="M179.2 77.9l-21.1-32.2 8.4-8.4-8.7-20.3 48.8 33.3v.8c0 .4.1 11-7 18-6.9 6.9-19 8.6-19.5 8.6l-.9.2zm-17.3-31.8l18.8 28.6c2.8-.5 11.7-2.5 16.9-7.6 5.1-5.1 5.9-12.7 6.1-15.1l-39.1-26.6 5.4 12.8-8.1 7.9z"/><path fill="#0F1F2D" d="M177.5 73.9c-.4 0-.8-.1-1.1-.4-.6-.6-.6-1.5 0-2.1L199.8 48c.6-.6 1.5-.6 2.1 0s.6 1.5 0 2.1l-23.3 23.3c-.3.4-.7.5-1.1.5z"/><path fill="#FFF" d="M188.151 105.518l-7.425 7.424-75.023-75.023 7.425-7.425z"/><path fill="#0F1F2D" d="M180.8 115l-77.2-77.2 9.5-9.5 77.2 77.2-9.5 9.5zm-73-77.1l72.9 72.9 5.3-5.3-72.9-72.9-5.3 5.3z"/><path fill="#FFF" d="M106.6 74.3l20-30.4-8.2-8.2 7.1-16.6-44 30s-.1 10.3 6.5 17 18.6 8.2 18.6 8.2z"/><path fill="#0F1F2D" d="M107.4 75.9l-.9-.1c-.5-.1-12.6-1.7-19.5-8.6-7-7-7-17.6-7-18v-.8L128.8 15l-8.7 20.3 8.4 8.4-21.1 32.2zM83 49.9c.1 2.4 1 10 6.1 15.1 5.2 5.2 14 7.1 16.9 7.6L124.8 44l-8.1-8.1 5.4-12.8L83 49.9z"/><path fill="#0F1F2D" d="M109.1 71.9c-.4 0-.8-.1-1.1-.4L84.7 48.2c-.6-.6-.6-1.5 0-2.1s1.5-.6 2.1 0l23.3 23.3c.6.6.6 1.5 0 2.1-.3.3-.7.4-1 .4z"/><defs><path id="a" d="M83.4 514.6h-1.5v84h108v-84H83.4zm0 3h105l-1.5-1.5v81l1.5-1.5h-105l1.5 1.5v-81l-1.5 1.5zm-21.5-23h148v124h-148v-124z"/></defs><clipPath id="b"><use xlink:href="#a" overflow="visible"/></clipPath><g clip-path="url(#b)"><defs><path id="c" d="M83.4 516.1h105v81h-105z"/></defs><clipPath id="d"><use xlink:href="#c" overflow="visible"/></clipPath><g clip-path="url(#d)"><defs><path id="e" d="M-797.6 17.1h1121v1030h-1121z"/></defs></g></g><defs><path id="f" d="M83.4 516.1h105v81h-105z"/></defs><clipPath id="g"><use xlink:href="#f" overflow="visible"/></clipPath><g clip-path="url(#g)"><defs><path id="h" d="M-797.6 17.1h1121v1030h-1121z"/></defs></g><defs><path id="i" d="M77.4 531.6h-2.2l.9-2.1 9.1-22 .4-.9h100.9l.4.9 9.1 22 .9 2.1H77.4zm0-3h117l-1.4 2.1-9.1-22 1.4.9H86.5l1.4-.9-9.1 22-1.4-2.1zm-22.3 23h161.5v-65H55.1v65z"/></defs><clipPath id="j"><use xlink:href="#i" overflow="visible"/></clipPath><g clip-path="url(#j)"><defs><path id="k" d="M77.4 530.1h117l-9.1-22H86.5z"/></defs><clipPath id="l"><use xlink:href="#k" overflow="visible"/></clipPath><g clip-path="url(#l)"><defs><path id="m" d="M-797.6 17.1h1121v1030h-1121z"/></defs></g></g><defs><path id="n" d="M77.4 530.1h117l-9.1-22H86.5z"/></defs><clipPath id="o"><use xlink:href="#n" overflow="visible"/></clipPath><g clip-path="url(#o)"><defs><path id="p" d="M-797.6 17.1h1121v1030h-1121z"/></defs></g><defs><path id="q" d="M162.4 498.6h-1.5v19h15v-19h-13.5zm0 3h12l-1.5-1.5v16l1.5-1.5h-12l1.5 1.5v-16l-1.5 1.5zm-21.5-23h55v59h-55v-59z"/></defs><clipPath id="r"><use xlink:href="#q" overflow="visible"/></clipPath><g clip-path="url(#r)"><defs><path id="s" d="M162.4 500.1h12v16h-12z"/></defs><clipPath id="t"><use xlink:href="#s" overflow="visible"/></clipPath><g clip-path="url(#t)"><defs><path id="u" d="M-797.6 17.1h1121v1030h-1121z"/></defs></g></g><defs><path id="v" d="M162.4 500.1h12v16h-12z"/></defs><clipPath id="w"><use xlink:href="#v" overflow="visible"/></clipPath><g clip-path="url(#w)"><defs><path id="x" d="M-797.6 17.1h1121v1030h-1121z"/></defs></g><defs><path id="y" d="M96.4 564.6h-1.5v34h24v-34H96.4zm0 3h21l-1.5-1.5v31l1.5-1.5h-21l1.5 1.5v-31l-1.5 1.5zm-21.5-23h64v74h-64v-74z"/></defs><clipPath id="z"><use xlink:href="#y" overflow="visible"/></clipPath><g clip-path="url(#z)"><defs><path id="A" d="M96.4 566.1h21v31h-21z"/></defs><clipPath id="B"><use xlink:href="#A" overflow="visible"/></clipPath><g clip-path="url(#B)"><defs><path id="C" d="M-797.6 17.1h1121v1030h-1121z"/></defs></g></g><defs><path id="D" d="M96.4 566.1h21v31h-21z"/></defs><clipPath id="E"><use xlink:href="#D" overflow="visible"/></clipPath><g clip-path="url(#E)"><defs><path id="F" d="M-797.6 17.1h1121v1030h-1121z"/></defs></g><defs><path id="G" d="M97.4 536.6h-1.5v22h22v-22H97.4zm0 3h19l-1.5-1.5v19l1.5-1.5h-19l1.5 1.5v-19l-1.5 1.5zm-21.5-23h62v62h-62v-62z"/></defs><clipPath id="H"><use xlink:href="#G" overflow="visible"/></clipPath><g clip-path="url(#H)"><defs><path id="I" d="M97.4 538.1h19v19h-19z"/></defs><clipPath id="J"><use xlink:href="#I" overflow="visible"/></clipPath><g clip-path="url(#J)"><defs><path id="K" d="M-797.6 17.1h1121v1030h-1121z"/></defs></g></g><defs><path id="L" d="M97.4 538.1h19v19h-19z"/></defs><clipPath id="M"><use xlink:href="#L" overflow="visible"/></clipPath><g clip-path="url(#M)"><defs><path id="N" d="M-797.6 17.1h1121v1030h-1121z"/></defs></g><defs><path id="O" d="M102.4 541.6h-1.5v12h12v-12h-10.5zm0 3h9l-1.5-1.5v9l1.5-1.5h-9l1.5 1.5v-9l-1.5 1.5zm-21.5-23h52v52h-52v-52z"/></defs><clipPath id="P"><use xlink:href="#O" overflow="visible"/></clipPath><g clip-path="url(#P)"><defs><path id="Q" d="M102.4 543.1h9v9h-9z"/></defs><clipPath id="R"><use xlink:href="#Q" overflow="visible"/></clipPath><g clip-path="url(#R)"><defs><path id="S" d="M-797.6 17.1h1121v1030h-1121z"/></defs></g></g><defs><path id="T" d="M102.4 543.1h9v9h-9z"/></defs><clipPath id="U"><use xlink:href="#T" overflow="visible"/></clipPath><g clip-path="url(#U)"><defs><path id="V" d="M-797.6 17.1h1121v1030h-1121z"/></defs></g><defs><path id="W" d="M127.4 536.6h-1.5v22h22v-22h-20.5zm0 3h19l-1.5-1.5v19l1.5-1.5h-19l1.5 1.5v-19l-1.5 1.5zm-21.5-23h62v62h-62v-62z"/></defs><clipPath id="X"><use xlink:href="#W" overflow="visible"/></clipPath><g clip-path="url(#X)"><defs><path id="Y" d="M127.4 538.1h19v19h-19z"/></defs><clipPath id="Z"><use xlink:href="#Y" overflow="visible"/></clipPath><g clip-path="url(#Z)"><defs><path id="aa" d="M-797.6 17.1h1121v1030h-1121z"/></defs></g></g><defs><path id="ab" d="M127.4 538.1h19v19h-19z"/></defs><clipPath id="ac"><use xlink:href="#ab" overflow="visible"/></clipPath><g clip-path="url(#ac)"><defs><path id="ad" d="M-797.6 17.1h1121v1030h-1121z"/></defs></g><defs><path id="ae" d="M156.4 536.6h-1.5v22h22v-22h-20.5zm0 3h19l-1.5-1.5v19l1.5-1.5h-19l1.5 1.5v-19l-1.5 1.5zm-21.5-23h62v62h-62v-62z"/></defs><clipPath id="af"><use xlink:href="#ae" overflow="visible"/></clipPath><g clip-path="url(#af)"><defs><path id="ag" d="M156.4 538.1h19v19h-19z"/></defs><clipPath id="ah"><use xlink:href="#ag" overflow="visible"/></clipPath><g clip-path="url(#ah)"><defs><path id="ai" d="M-797.6 17.1h1121v1030h-1121z"/></defs></g></g><defs><path id="aj" d="M156.4 538.1h19v19h-19z"/></defs><clipPath id="ak"><use xlink:href="#aj" overflow="visible"/></clipPath><g clip-path="url(#ak)"><defs><path id="al" d="M-797.6 17.1h1121v1030h-1121z"/></defs></g><defs><path id="am" d="M127.4 564.6h-1.5v22h22v-22h-20.5zm0 3h19l-1.5-1.5v19l1.5-1.5h-19l1.5 1.5v-19l-1.5 1.5zm-21.5-23h62v62h-62v-62z"/></defs><clipPath id="an"><use xlink:href="#am" overflow="visible"/></clipPath><g clip-path="url(#an)"><defs><path id="ao" d="M127.4 566.1h19v19h-19z"/></defs><clipPath id="ap"><use xlink:href="#ao" overflow="visible"/></clipPath><g clip-path="url(#ap)"><defs><path id="aq" d="M-797.6 17.1h1121v1030h-1121z"/></defs></g></g><defs><path id="ar" d="M127.4 566.1h19v19h-19z"/></defs><clipPath id="as"><use xlink:href="#ar" overflow="visible"/></clipPath><g clip-path="url(#as)"><defs><path id="at" d="M-797.6 17.1h1121v1030h-1121z"/></defs></g><g><defs><path id="au" d="M156.4 564.6h-1.5v22h22v-22h-20.5zm0 3h19l-1.5-1.5v19l1.5-1.5h-19l1.5 1.5v-19l-1.5 1.5zm-21.5-23h62v62h-62v-62z"/></defs><clipPath id="av"><use xlink:href="#au" overflow="visible"/></clipPath><g clip-path="url(#av)"><defs><path id="aw" d="M156.4 566.1h19v19h-19z"/></defs><clipPath id="ax"><use xlink:href="#aw" overflow="visible"/></clipPath><g clip-path="url(#ax)"><defs><path id="ay" d="M-797.6 17.1h1121v1030h-1121z"/></defs></g></g></g><g><defs><path id="az" d="M156.4 566.1h19v19h-19z"/></defs><clipPath id="aA"><use xlink:href="#az" overflow="visible"/></clipPath><g clip-path="url(#aA)"><defs><path id="aB" d="M-797.6 17.1h1121v1030h-1121z"/></defs></g></g><g><defs><path id="aC" d="M132.4 541.6h-1.5v12h12v-12h-10.5zm0 3h9l-1.5-1.5v9l1.5-1.5h-9l1.5 1.5v-9l-1.5 1.5zm-21.5-23h52v52h-52v-52z"/></defs><clipPath id="aD"><use xlink:href="#aC" overflow="visible"/></clipPath><g clip-path="url(#aD)"><defs><path id="aE" d="M132.4 543.1h9v9h-9z"/></defs><clipPath id="aF"><use xlink:href="#aE" overflow="visible"/></clipPath><g clip-path="url(#aF)"><defs><path id="aG" d="M-797.6 17.1h1121v1030h-1121z"/></defs></g></g></g><g><defs><path id="aH" d="M132.4 543.1h9v9h-9z"/></defs><clipPath id="aI"><use xlink:href="#aH" overflow="visible"/></clipPath><g clip-path="url(#aI)"><defs><path id="aJ" d="M-797.6 17.1h1121v1030h-1121z"/></defs></g></g><g><defs><path id="aK" d="M161.4 541.6h-1.5v12h12v-12h-10.5zm0 3h9l-1.5-1.5v9l1.5-1.5h-9l1.5 1.5v-9l-1.5 1.5zm-21.5-23h52v52h-52v-52z"/></defs><clipPath id="aL"><use xlink:href="#aK" overflow="visible"/></clipPath><g clip-path="url(#aL)"><defs><path id="aM" d="M161.4 543.1h9v9h-9z"/></defs><clipPath id="aN"><use xlink:href="#aM" overflow="visible"/></clipPath><g clip-path="url(#aN)"><defs><path id="aO" d="M-797.6 17.1h1121v1030h-1121z"/></defs></g></g></g><g><defs><path id="aP" d="M161.4 543.1h9v9h-9z"/></defs><clipPath id="aQ"><use xlink:href="#aP" overflow="visible"/></clipPath><g clip-path="url(#aQ)"><defs><path id="aR" d="M-797.6 17.1h1121v1030h-1121z"/></defs></g></g><g><defs><path id="aS" d="M132.4 569.6h-1.5v12h12v-12h-10.5zm0 3h9l-1.5-1.5v9l1.5-1.5h-9l1.5 1.5v-9l-1.5 1.5zm-21.5-23h52v52h-52v-52z"/></defs><clipPath id="aT"><use xlink:href="#aS" overflow="visible"/></clipPath><g clip-path="url(#aT)"><defs><path id="aU" d="M132.4 571.1h9v9h-9z"/></defs><clipPath id="aV"><use xlink:href="#aU" overflow="visible"/></clipPath><g clip-path="url(#aV)"><defs><path id="aW" d="M-797.6 17.1h1121v1030h-1121z"/></defs></g></g></g><g><defs><path id="aX" d="M132.4 571.1h9v9h-9z"/></defs><clipPath id="aY"><use xlink:href="#aX" overflow="visible"/></clipPath><g clip-path="url(#aY)"><defs><path id="aZ" d="M-797.6 17.1h1121v1030h-1121z"/></defs></g></g><g><defs><path id="ba" d="M161.4 569.6h-1.5v12h12v-12h-10.5zm0 3h9l-1.5-1.5v9l1.5-1.5h-9l1.5 1.5v-9l-1.5 1.5zm-21.5-23h52v52h-52v-52z"/></defs><clipPath id="bb"><use xlink:href="#ba" overflow="visible"/></clipPath><g clip-path="url(#bb)"><defs><path id="bc" d="M161.4 571.1h9v9h-9z"/></defs><clipPath id="bd"><use xlink:href="#bc" overflow="visible"/></clipPath><g clip-path="url(#bd)"><defs><path id="be" d="M-797.6 17.1h1121v1030h-1121z"/></defs></g></g></g><g><defs><path id="bf" d="M161.4 571.1h9v9h-9z"/></defs><clipPath id="bg"><use xlink:href="#bf" overflow="visible"/></clipPath><g clip-path="url(#bg)"><defs><path id="bh" d="M-797.6 17.1h1121v1030h-1121z"/></defs></g></g><g><defs><path id="bi" d="M683.4 197.6h-1.5v84h108v-84H683.4zm0 3h105l-1.5-1.5v81l1.5-1.5h-105l1.5 1.5v-81l-1.5 1.5zm-21.5-23h148v124h-148v-124z"/></defs><clipPath id="bj"><use xlink:href="#bi" overflow="visible"/></clipPath><g clip-path="url(#bj)"><defs><path id="bk" d="M683.4 199.1h105v81h-105z"/></defs><clipPath id="bl"><use xlink:href="#bk" overflow="visible"/></clipPath><g clip-path="url(#bl)"><defs><path id="bm" d="M-197.6-299.9h1121v1030h-1121z"/></defs></g></g></g><g><defs><path id="bn" d="M683.4 199.1h105v81h-105z"/></defs><clipPath id="bo"><use xlink:href="#bn" overflow="visible"/></clipPath><g clip-path="url(#bo)"><defs><path id="bp" d="M-197.6-299.9h1121v1030h-1121z"/></defs></g></g><g><defs><path id="bq" d="M677.4 214.6h-2.2l.9-2.1 9.1-22 .4-.9h100.9l.4.9 9.1 22 .9 2.1H677.4zm0-3h117l-1.4 2.1-9.1-22 1.4.9h-98.9l1.4-.9-9.1 22-1.3-2.1zm-22.3 23h161.5v-65H655.1v65z"/></defs><clipPath id="br"><use xlink:href="#bq" overflow="visible"/></clipPath><g clip-path="url(#br)"><defs><path id="bs" d="M677.4 213.1h117l-9.1-22h-98.8z"/></defs><clipPath id="bt"><use xlink:href="#bs" overflow="visible"/></clipPath><g clip-path="url(#bt)"><defs><path id="bu" d="M-197.6-299.9h1121v1030h-1121z"/></defs></g></g></g><g><defs><path id="bv" d="M677.4 213.1h117l-9.1-22h-98.8z"/></defs><clipPath id="bw"><use xlink:href="#bv" overflow="visible"/></clipPath><g clip-path="url(#bw)"><defs><path id="bx" d="M-197.6-299.9h1121v1030h-1121z"/></defs></g></g><g><defs><path id="by" d="M762.4 181.6h-1.5v19h15v-19h-13.5zm0 3h12l-1.5-1.5v16l1.5-1.5h-12l1.5 1.5v-16l-1.5 1.5zm-21.5-23h55v59h-55v-59z"/></defs><clipPath id="bz"><use xlink:href="#by" overflow="visible"/></clipPath><g clip-path="url(#bz)"><defs><path id="bA" d="M762.4 183.1h12v16h-12z"/></defs><clipPath id="bB"><use xlink:href="#bA" overflow="visible"/></clipPath><g clip-path="url(#bB)"><defs><path id="bC" d="M-197.6-299.9h1121v1030h-1121z"/></defs></g></g></g><g><defs><path id="bD" d="M762.4 183.1h12v16h-12z"/></defs><clipPath id="bE"><use xlink:href="#bD" overflow="visible"/></clipPath><g clip-path="url(#bE)"><defs><path id="bF" d="M-197.6-299.9h1121v1030h-1121z"/></defs></g></g><g><defs><path id="bG" d="M696.4 247.6h-1.5v34h24v-34h-22.5zm0 3h21l-1.5-1.5v31l1.5-1.5h-21l1.5 1.5v-31l-1.5 1.5zm-21.5-23h64v74h-64v-74z"/></defs><clipPath id="bH"><use xlink:href="#bG" overflow="visible"/></clipPath><g clip-path="url(#bH)"><defs><path id="bI" d="M696.4 249.1h21v31h-21z"/></defs><clipPath id="bJ"><use xlink:href="#bI" overflow="visible"/></clipPath><g clip-path="url(#bJ)"><defs><path id="bK" d="M-197.6-299.9h1121v1030h-1121z"/></defs></g></g></g><g><defs><path id="bL" d="M696.4 249.1h21v31h-21z"/></defs><clipPath id="bM"><use xlink:href="#bL" overflow="visible"/></clipPath><g clip-path="url(#bM)"><defs><path id="bN" d="M-197.6-299.9h1121v1030h-1121z"/></defs></g></g><g><defs><path id="bO" d="M697.4 219.6h-1.5v22h22v-22h-20.5zm0 3h19l-1.5-1.5v19l1.5-1.5h-19l1.5 1.5v-19l-1.5 1.5zm-21.5-23h62v62h-62v-62z"/></defs><clipPath id="bP"><use xlink:href="#bO" overflow="visible"/></clipPath><g clip-path="url(#bP)"><defs><path id="bQ" d="M697.4 221.1h19v19h-19z"/></defs><clipPath id="bR"><use xlink:href="#bQ" overflow="visible"/></clipPath><g clip-path="url(#bR)"><defs><path id="bS" d="M-197.6-299.9h1121v1030h-1121z"/></defs></g></g></g><g><defs><path id="bT" d="M697.4 221.1h19v19h-19z"/></defs><clipPath id="bU"><use xlink:href="#bT" overflow="visible"/></clipPath><g clip-path="url(#bU)"><defs><path id="bV" d="M-197.6-299.9h1121v1030h-1121z"/></defs></g></g><g><defs><path id="bW" d="M702.4 224.6h-1.5v12h12v-12h-10.5zm0 3h9l-1.5-1.5v9l1.5-1.5h-9l1.5 1.5v-9l-1.5 1.5zm-21.5-23h52v52h-52v-52z"/></defs><clipPath id="bX"><use xlink:href="#bW" overflow="visible"/></clipPath><g clip-path="url(#bX)"><defs><path id="bY" d="M702.4 226.1h9v9h-9z"/></defs><clipPath id="bZ"><use xlink:href="#bY" overflow="visible"/></clipPath><g clip-path="url(#bZ)"><defs><path id="ca" d="M-197.6-299.9h1121v1030h-1121z"/></defs></g></g></g><g><defs><path id="cb" d="M702.4 226.1h9v9h-9z"/></defs><clipPath id="cc"><use xlink:href="#cb" overflow="visible"/></clipPath><g clip-path="url(#cc)"><defs><path id="cd" d="M-197.6-299.9h1121v1030h-1121z"/></defs></g></g><g><defs><path id="ce" d="M727.4 219.6h-1.5v22h22v-22h-20.5zm0 3h19l-1.5-1.5v19l1.5-1.5h-19l1.5 1.5v-19l-1.5 1.5zm-21.5-23h62v62h-62v-62z"/></defs><clipPath id="cf"><use xlink:href="#ce" overflow="visible"/></clipPath><g clip-path="url(#cf)"><defs><path id="cg" d="M727.4 221.1h19v19h-19z"/></defs><clipPath id="ch"><use xlink:href="#cg" overflow="visible"/></clipPath><g clip-path="url(#ch)"><defs><path id="ci" d="M-197.6-299.9h1121v1030h-1121z"/></defs></g></g></g><g><defs><path id="cj" d="M727.4 221.1h19v19h-19z"/></defs><clipPath id="ck"><use xlink:href="#cj" overflow="visible"/></clipPath><g clip-path="url(#ck)"><defs><path id="cl" d="M-197.6-299.9h1121v1030h-1121z"/></defs></g></g><g><defs><path id="cm" d="M756.4 219.6h-1.5v22h22v-22h-20.5zm0 3h19l-1.5-1.5v19l1.5-1.5h-19l1.5 1.5v-19l-1.5 1.5zm-21.5-23h62v62h-62v-62z"/></defs><clipPath id="cn"><use xlink:href="#cm" overflow="visible"/></clipPath><g clip-path="url(#cn)"><defs><path id="co" d="M756.4 221.1h19v19h-19z"/></defs><clipPath id="cp"><use xlink:href="#co" overflow="visible"/></clipPath><g clip-path="url(#cp)"><defs><path id="cq" d="M-197.6-299.9h1121v1030h-1121z"/></defs></g></g></g><g><defs><path id="cr" d="M756.4 221.1h19v19h-19z"/></defs><clipPath id="cs"><use xlink:href="#cr" overflow="visible"/></clipPath><g clip-path="url(#cs)"><defs><path id="ct" d="M-197.6-299.9h1121v1030h-1121z"/></defs></g></g><g><defs><path id="cu" d="M727.4 247.6h-1.5v22h22v-22h-20.5zm0 3h19l-1.5-1.5v19l1.5-1.5h-19l1.5 1.5v-19l-1.5 1.5zm-21.5-23h62v62h-62v-62z"/></defs><clipPath id="cv"><use xlink:href="#cu" overflow="visible"/></clipPath><g clip-path="url(#cv)"><defs><path id="cw" d="M727.4 249.1h19v19h-19z"/></defs><clipPath id="cx"><use xlink:href="#cw" overflow="visible"/></clipPath><g clip-path="url(#cx)"><defs><path id="cy" d="M-197.6-299.9h1121v1030h-1121z"/></defs></g></g></g><g><defs><path id="cz" d="M727.4 249.1h19v19h-19z"/></defs><clipPath id="cA"><use xlink:href="#cz" overflow="visible"/></clipPath><g clip-path="url(#cA)"><defs><path id="cB" d="M-197.6-299.9h1121v1030h-1121z"/></defs></g></g><g><defs><path id="cC" d="M756.4 247.6h-1.5v22h22v-22h-20.5zm0 3h19l-1.5-1.5v19l1.5-1.5h-19l1.5 1.5v-19l-1.5 1.5zm-21.5-23h62v62h-62v-62z"/></defs><clipPath id="cD"><use xlink:href="#cC" overflow="visible"/></clipPath><g clip-path="url(#cD)"><defs><path id="cE" d="M756.4 249.1h19v19h-19z"/></defs><clipPath id="cF"><use xlink:href="#cE" overflow="visible"/></clipPath><g clip-path="url(#cF)"><defs><path id="cG" d="M-197.6-299.9h1121v1030h-1121z"/></defs></g></g></g><g><defs><path id="cH" d="M756.4 249.1h19v19h-19z"/></defs><clipPath id="cI"><use xlink:href="#cH" overflow="visible"/></clipPath><g clip-path="url(#cI)"><defs><path id="cJ" d="M-197.6-299.9h1121v1030h-1121z"/></defs></g></g><g><defs><path id="cK" d="M732.4 224.6h-1.5v12h12v-12h-10.5zm0 3h9l-1.5-1.5v9l1.5-1.5h-9l1.5 1.5v-9l-1.5 1.5zm-21.5-23h52v52h-52v-52z"/></defs><clipPath id="cL"><use xlink:href="#cK" overflow="visible"/></clipPath><g clip-path="url(#cL)"><defs><path id="cM" d="M732.4 226.1h9v9h-9z"/></defs><clipPath id="cN"><use xlink:href="#cM" overflow="visible"/></clipPath><g clip-path="url(#cN)"><defs><path id="cO" d="M-197.6-299.9h1121v1030h-1121z"/></defs></g></g></g><g><defs><path id="cP" d="M732.4 226.1h9v9h-9z"/></defs><clipPath id="cQ"><use xlink:href="#cP" overflow="visible"/></clipPath><g clip-path="url(#cQ)"><defs><path id="cR" d="M-197.6-299.9h1121v1030h-1121z"/></defs></g></g><g><defs><path id="cS" d="M761.4 224.6h-1.5v12h12v-12h-10.5zm0 3h9l-1.5-1.5v9l1.5-1.5h-9l1.5 1.5v-9l-1.5 1.5zm-21.5-23h52v52h-52v-52z"/></defs><clipPath id="cT"><use xlink:href="#cS" overflow="visible"/></clipPath><g clip-path="url(#cT)"><defs><path id="cU" d="M761.4 226.1h9v9h-9z"/></defs><clipPath id="cV"><use xlink:href="#cU" overflow="visible"/></clipPath><g clip-path="url(#cV)"><defs><path id="cW" d="M-197.6-299.9h1121v1030h-1121z"/></defs></g></g></g><g><defs><path id="cX" d="M761.4 226.1h9v9h-9z"/></defs><clipPath id="cY"><use xlink:href="#cX" overflow="visible"/></clipPath><g clip-path="url(#cY)"><defs><path id="cZ" d="M-197.6-299.9h1121v1030h-1121z"/></defs></g></g><g><defs><path id="da" d="M732.4 252.6h-1.5v12h12v-12h-10.5zm0 3h9l-1.5-1.5v9l1.5-1.5h-9l1.5 1.5v-9l-1.5 1.5zm-21.5-23h52v52h-52v-52z"/></defs><clipPath id="db"><use xlink:href="#da" overflow="visible"/></clipPath><g clip-path="url(#db)"><defs><path id="dc" d="M732.4 254.1h9v9h-9z"/></defs><clipPath id="dd"><use xlink:href="#dc" overflow="visible"/></clipPath><g clip-path="url(#dd)"><defs><path id="de" d="M-197.6-299.9h1121v1030h-1121z"/></defs></g></g></g><g><defs><path id="df" d="M732.4 254.1h9v9h-9z"/></defs><clipPath id="dg"><use xlink:href="#df" overflow="visible"/></clipPath><g clip-path="url(#dg)"><defs><path id="dh" d="M-197.6-299.9h1121v1030h-1121z"/></defs></g></g><g><defs><path id="di" d="M761.4 252.6h-1.5v12h12v-12h-10.5zm0 3h9l-1.5-1.5v9l1.5-1.5h-9l1.5 1.5v-9l-1.5 1.5zm-21.5-23h52v52h-52v-52z"/></defs><clipPath id="dj"><use xlink:href="#di" overflow="visible"/></clipPath><g clip-path="url(#dj)"><defs><path id="dk" d="M761.4 254.1h9v9h-9z"/></defs><clipPath id="dl"><use xlink:href="#dk" overflow="visible"/></clipPath><g clip-path="url(#dl)"><defs><path id="dm" d="M-197.6-299.9h1121v1030h-1121z"/></defs></g></g></g><g><defs><path id="dn" d="M761.4 254.1h9v9h-9z"/></defs><clipPath id="do"><use xlink:href="#dn" overflow="visible"/></clipPath><g clip-path="url(#do)"><defs><path id="dp" d="M-197.6-299.9h1121v1030h-1121z"/></defs></g></g></svg>