<svg xmlns="http://www.w3.org/2000/svg" xmlns:xlink="http://www.w3.org/1999/xlink" viewBox="0 0 276 137"><defs><circle id="a" cx="-163.9" cy="391" r="43.5"/></defs><defs><path id="b" d="M-163.9 436c-24.8 0-45-20.2-45-45s20.2-45 45-45 45 20.2 45 45-20.1 45-45 45zm0-87c-23.2 0-42 18.8-42 42s18.8 42 42 42 42-18.8 42-42-18.8-42-42-42z"/></defs><use xlink:href="#a" overflow="visible" fill-rule="evenodd" clip-rule="evenodd" fill="#FFF"/><use xlink:href="#b" overflow="visible" fill="#0F1F2D"/><clipPath id="c"><use xlink:href="#a" overflow="visible"/></clipPath><clipPath id="d" clip-path="url(#c)"><use xlink:href="#b" overflow="visible"/></clipPath><g clip-path="url(#d)"><defs><path id="e" d="M-338.4-345h1121V685h-1121z"/></defs><defs><path id="f" d="M784.1 686.5h-1124v-1033h1124v1033zm-1121-3h1118v-1027h-1118v1027z"/></defs><use xlink:href="#e" overflow="visible" fill="#FFF"/><use xlink:href="#f" overflow="visible" fill="#0F1F2D"/></g><path fill="#FFF" d="M207.6 92.3V80.9h-84.1V55.6h-19.3l-6.3 13.1s-8.1 1.5-17.9 4.7v18.9h127.6z"/><path fill="#0C1F2E" d="M209.1 93.8H78.5V72.4l1-.3c8-2.7 15-4.2 17.3-4.6l6.4-13.3H125v25.3h84.1v14.3zm-127.6-3H206v-8.4h-84V57.1h-16.8l-6.2 13-.8.1c-.1 0-7.6 1.4-16.6 4.4v16.2z"/><path fill="#FFF" d="M118.3 73.9h-14.2V70l4-8.6h10.2z"/><path fill="#0C1F2E" d="M119.8 75.4h-17.2v-5.8l4.6-9.8h12.6v15.6zm-14.2-3h11.2v-9.5h-7.7l-3.5 7.4v2.1zM98 93.7c-.8 0-1.5-.7-1.5-1.5V68.9c0-.8.7-1.5 1.5-1.5s1.5.7 1.5 1.5v23.4c0 .8-.7 1.4-1.5 1.4zm25.5 0c-.8 0-1.5-.7-1.5-1.5V79.6c0-.8.7-1.5 1.5-1.5s1.5.7 1.5 1.5v12.7c0 .8-.7 1.4-1.5 1.4z"/><circle fill="#FFF" cx="101.4" cy="96.7" r="11"/><path fill="#0C1F2E" d="M101.4 109.1c-6.9 0-12.5-5.6-12.5-12.5s5.6-12.5 12.5-12.5 12.5 5.6 12.5 12.5-5.6 12.5-12.5 12.5zm0-21.9c-5.2 0-9.5 4.2-9.5 9.5s4.2 9.5 9.5 9.5 9.5-4.2 9.5-9.5-4.3-9.5-9.5-9.5z"/><circle fill="#FFF" cx="191" cy="96.7" r="11"/><path fill="#0C1F2E" d="M191 109.1c-6.9 0-12.5-5.6-12.5-12.5s5.6-12.5 12.5-12.5 12.5 5.6 12.5 12.5-5.7 12.5-12.5 12.5zm0-21.9c-5.2 0-9.5 4.2-9.5 9.5s4.2 9.5 9.5 9.5 9.5-4.2 9.5-9.5-4.3-9.5-9.5-9.5z"/><circle fill="#FFF" cx="101.2" cy="96.5" r="5"/><path fill="#0C1F2E" d="M101.2 103c-3.6 0-6.5-2.9-6.5-6.5s2.9-6.5 6.5-6.5 6.5 2.9 6.5 6.5-2.9 6.5-6.5 6.5zm0-9.9c-1.9 0-3.5 1.6-3.5 3.5s1.6 3.5 3.5 3.5 3.5-1.6 3.5-3.5c0-2-1.5-3.5-3.5-3.5z"/><circle fill="#FFF" cx="190.8" cy="96.5" r="5"/><path fill="#0C1F2E" d="M190.8 103c-3.6 0-6.5-2.9-6.5-6.5s2.9-6.5 6.5-6.5 6.5 2.9 6.5 6.5-2.9 6.5-6.5 6.5zm0-9.9c-1.9 0-3.5 1.6-3.5 3.5s1.6 3.5 3.5 3.5 3.5-1.6 3.5-3.5c0-2-1.6-3.5-3.5-3.5z"/><path fill="#FFF" d="M123.5 55.6h84v25.3h-84z"/><path fill="#0C1F2E" d="M209.1 82.4h-87V54.1h87v28.3zm-84.1-3h81V57.1h-81v22.3z"/><path fill="#0C1F2E" d="M203 63h-73c-.8 0-1.5-.7-1.5-1.5s.7-1.5 1.5-1.5h73c.8 0 1.5.7 1.5 1.5s-.7 1.5-1.5 1.5zm4-12h-83c-.8 0-1.5-.7-1.5-1.5s.7-1.5 1.5-1.5h83c.8 0 1.5.7 1.5 1.5s-.7 1.5-1.5 1.5zm-4 24h-73c-.8 0-1.5-.7-1.5-1.5s.7-1.5 1.5-1.5h73c.8 0 1.5.7 1.5 1.5s-.7 1.5-1.5 1.5z"/><path fill="#0C1F2E" d="M136.5 74.5c-.8 0-1.5-.7-1.5-1.5V62c0-.8.7-1.5 1.5-1.5s1.5.7 1.5 1.5v11c0 .8-.7 1.5-1.5 1.5zm9 0c-.8 0-1.5-.7-1.5-1.5V62c0-.8.7-1.5 1.5-1.5s1.5.7 1.5 1.5v11c0 .8-.7 1.5-1.5 1.5zm8 0c-.8 0-1.5-.7-1.5-1.5V62c0-.8.7-1.5 1.5-1.5s1.5.7 1.5 1.5v11c0 .8-.7 1.5-1.5 1.5zm9 0c-.8 0-1.5-.7-1.5-1.5V62c0-.8.7-1.5 1.5-1.5s1.5.7 1.5 1.5v11c0 .8-.7 1.5-1.5 1.5zm9 0c-.8 0-1.5-.7-1.5-1.5V62c0-.8.7-1.5 1.5-1.5s1.5.7 1.5 1.5v11c0 .8-.7 1.5-1.5 1.5zm9 0c-.8 0-1.5-.7-1.5-1.5V62c0-.8.7-1.5 1.5-1.5s1.5.7 1.5 1.5v11c0 .8-.7 1.5-1.5 1.5zm8 0c-.8 0-1.5-.7-1.5-1.5V62c0-.8.7-1.5 1.5-1.5s1.5.7 1.5 1.5v11c0 .8-.7 1.5-1.5 1.5zm9 0c-.8 0-1.5-.7-1.5-1.5V62c0-.8.7-1.5 1.5-1.5s1.5.7 1.5 1.5v11c0 .8-.7 1.5-1.5 1.5zm-78.7-17.4h-11.3l2.6-10.5h6.2l2.5 10.5zm-7.5-3h3.7l-1.1-4.5h-1.5l-1.1 4.5z"/><defs><path id="g" d="M71.2 227.9h-1.5v38h142v-25.1l-.4-.4-11.4-12-.4-.5H71.2zm0 3h127.6l-1.1-.5 11.4 12-.4-1v23l1.5-1.5h-139l1.5 1.5v-35l-1.5 1.5zm-21.5-23h182v78h-182v-78z"/></defs><defs><path id="h" d="M104.2 279.4c-8 0-14.5-6.5-14.5-14.5s6.5-14.5 14.5-14.5 14.5 6.5 14.5 14.5-6.4 14.5-14.5 14.5zm0 3c9.7 0 17.5-7.8 17.5-17.5s-7.8-17.5-17.5-17.5-17.5 7.8-17.5 17.5c0 9.6 7.9 17.5 17.5 17.5zm-37.5-55h75v75h-75v-75z"/></defs><defs><path id="i" d="M104.2 272.4c-4.1 0-7.5-3.4-7.5-7.5s3.4-7.5 7.5-7.5 7.5 3.4 7.5 7.5-3.3 7.5-7.5 7.5zm0 3c5.8 0 10.5-4.7 10.5-10.5s-4.7-10.5-10.5-10.5-10.5 4.7-10.5 10.5 4.7 10.5 10.5 10.5zm-30.5-41h61v61h-61v-61z"/></defs><defs><path id="j" d="M170.5 279.4c-8 0-14.5-6.5-14.5-14.5s6.5-14.5 14.5-14.5 14.5 6.5 14.5 14.5-6.5 14.5-14.5 14.5zm0 3c9.7 0 17.5-7.8 17.5-17.5s-7.8-17.5-17.5-17.5-17.5 7.8-17.5 17.5c0 9.6 7.8 17.5 17.5 17.5zm-37.5-55h75v75h-75v-75z"/></defs><defs><path id="k" d="M170.5 272.4c-4.1 0-7.5-3.4-7.5-7.5s3.4-7.5 7.5-7.5 7.5 3.4 7.5 7.5-3.4 7.5-7.5 7.5zm0 3c5.8 0 10.5-4.7 10.5-10.5s-4.7-10.5-10.5-10.5-10.5 4.7-10.5 10.5 4.7 10.5 10.5 10.5zm-30.5-41h61v61h-61v-61z"/></defs><defs><circle id="l" cx="143.3" cy="386.1" r="28"/></defs><defs><path id="m" d="M143.3 415.6c-16.3 0-29.5-13.2-29.5-29.5s13.2-29.5 29.5-29.5 29.5 13.2 29.5 29.5-13.2 29.5-29.5 29.5zm0-55.9c-14.6 0-26.5 11.9-26.5 26.5s11.9 26.5 26.5 26.5 26.5-11.9 26.5-26.5c0-14.7-11.9-26.5-26.5-26.5z"/></defs><use xlink:href="#l" overflow="visible" fill-rule="evenodd" clip-rule="evenodd" fill="#FFF"/><use xlink:href="#m" overflow="visible" fill="#0F1F2D"/><clipPath id="n"><use xlink:href="#l" overflow="visible"/></clipPath><clipPath id="o" clip-path="url(#n)"><use xlink:href="#m" overflow="visible"/></clipPath><g clip-path="url(#o)"><defs><path id="p" d="M31.1-87.3h721.1v662.6H31.1z"/></defs><defs><path id="q" d="M753.7 576.8H29.6V-88.8h724.1v665.6zm-721.1-3h718.1V-85.8H32.6v659.6z"/></defs><use xlink:href="#p" overflow="visible" fill="#FFF"/><use xlink:href="#q" overflow="visible" fill="#0F1F2D"/></g><defs><path id="r" d="M-204.6 197.6h-1.5v84h108v-84h-106.5zm0 3h105l-1.5-1.5v81l1.5-1.5h-105l1.5 1.5v-81l-1.5 1.5zm-21.5-23h148v124h-148v-124z"/></defs><defs><path id="s" d="M-210.6 214.6h-2.2l.9-2.1 9.1-22 .4-.9h100.9l.4.9 9.1 22 .9 2.1h-119.5zm0-3h117l-1.4 2.1-9.1-22 1.4.9h-98.9l1.4-.9-9.1 22-1.3-2.1zm-22.3 23h161.5v-65h-161.5v65z"/></defs><defs><path id="t" d="M-125.6 181.6h-1.5v19h15v-19h-13.5zm0 3h12l-1.5-1.5v16l1.5-1.5h-12l1.5 1.5v-16l-1.5 1.5zm-21.5-23h55v59h-55v-59z"/></defs><defs><path id="u" d="M-191.6 247.6h-1.5v34h24v-34h-22.5zm0 3h21l-1.5-1.5v31l1.5-1.5h-21l1.5 1.5v-31l-1.5 1.5zm-21.5-23h64v74h-64v-74z"/></defs><defs><path id="v" d="M-190.6 219.6h-1.5v22h22v-22h-20.5zm0 3h19l-1.5-1.5v19l1.5-1.5h-19l1.5 1.5v-19l-1.5 1.5zm-21.5-23h62v62h-62v-62z"/></defs><defs><path id="w" d="M-185.6 224.6h-1.5v12h12v-12h-10.5zm0 3h9l-1.5-1.5v9l1.5-1.5h-9l1.5 1.5v-9l-1.5 1.5zm-21.5-23h52v52h-52v-52z"/></defs><defs><path id="x" d="M-160.6 219.6h-1.5v22h22v-22h-20.5zm0 3h19l-1.5-1.5v19l1.5-1.5h-19l1.5 1.5v-19l-1.5 1.5zm-21.5-23h62v62h-62v-62z"/></defs><defs><path id="y" d="M-131.6 219.6h-1.5v22h22v-22h-20.5zm0 3h19l-1.5-1.5v19l1.5-1.5h-19l1.5 1.5v-19l-1.5 1.5zm-21.5-23h62v62h-62v-62z"/></defs><defs><path id="z" d="M-160.6 247.6h-1.5v22h22v-22h-20.5zm0 3h19l-1.5-1.5v19l1.5-1.5h-19l1.5 1.5v-19l-1.5 1.5zm-21.5-23h62v62h-62v-62z"/></defs><defs><path id="A" d="M-131.6 247.6h-1.5v22h22v-22h-20.5zm0 3h19l-1.5-1.5v19l1.5-1.5h-19l1.5 1.5v-19l-1.5 1.5zm-21.5-23h62v62h-62v-62z"/></defs><defs><path id="B" d="M-155.6 224.6h-1.5v12h12v-12h-10.5zm0 3h9l-1.5-1.5v9l1.5-1.5h-9l1.5 1.5v-9l-1.5 1.5zm-21.5-23h52v52h-52v-52z"/></defs><defs><path id="C" d="M-126.6 224.6h-1.5v12h12v-12h-10.5zm0 3h9l-1.5-1.5v9l1.5-1.5h-9l1.5 1.5v-9l-1.5 1.5zm-21.5-23h52v52h-52v-52z"/></defs><defs><path id="D" d="M-155.6 252.6h-1.5v12h12v-12h-10.5zm0 3h9l-1.5-1.5v9l1.5-1.5h-9l1.5 1.5v-9l-1.5 1.5zm-21.5-23h52v52h-52v-52z"/></defs><defs><path id="E" d="M-126.6 252.6h-1.5v12h12v-12h-10.5zm0 3h9l-1.5-1.5v9l1.5-1.5h-9l1.5 1.5v-9l-1.5 1.5zm-21.5-23h52v52h-52v-52z"/></defs></svg>