<svg xmlns="http://www.w3.org/2000/svg" xmlns:xlink="http://www.w3.org/1999/xlink" viewBox="0 0 276 137"><defs><path id="a" d="M677.5-279.8H676v84h108v-84H677.5zm0 3h105l-1.5-1.5v81l1.5-1.5h-105l1.5 1.5v-81l-1.5 1.5zm-21.5-23h148v124H656v-124z"/></defs><clipPath id="b"><use xlink:href="#a" overflow="visible"/></clipPath><g clip-path="url(#b)"><defs><path id="c" d="M677.5-278.3h105v81h-105z"/></defs><clipPath id="d"><use xlink:href="#c" overflow="visible"/></clipPath><g clip-path="url(#d)"><defs><path id="e" d="M-203.5-777.3h1121v1030h-1121z"/></defs></g></g><defs><path id="f" d="M677.5-278.3h105v81h-105z"/></defs><clipPath id="g"><use xlink:href="#f" overflow="visible"/></clipPath><g clip-path="url(#g)"><defs><path id="h" d="M-203.5-777.3h1121v1030h-1121z"/></defs></g><defs><path id="i" d="M671.5-262.8h-2.2l.9-2.1 9.1-22 .4-.9h100.9l.4.9 9.1 22 .9 2.1H671.5zm0-3h117l-1.4 2.1-9.1-22 1.4.9h-98.9l1.4-.9-9.1 22-1.3-2.1zm-22.2 23h161.5v-65H649.3v65z"/></defs><clipPath id="j"><use xlink:href="#i" overflow="visible"/></clipPath><g clip-path="url(#j)"><defs><path id="k" d="M671.5-264.3h117l-9.1-22h-98.8z"/></defs><clipPath id="l"><use xlink:href="#k" overflow="visible"/></clipPath><g clip-path="url(#l)"><defs><path id="m" d="M-203.5-777.3h1121v1030h-1121z"/></defs></g></g><defs><path id="n" d="M671.5-264.3h117l-9.1-22h-98.8z"/></defs><clipPath id="o"><use xlink:href="#n" overflow="visible"/></clipPath><g clip-path="url(#o)"><defs><path id="p" d="M-203.5-777.3h1121v1030h-1121z"/></defs></g><defs><path id="q" d="M756.5-295.8H755v19h15v-19h-13.5zm0 3h12l-1.5-1.5v16l1.5-1.5h-12l1.5 1.5v-16l-1.5 1.5zm-21.5-23h55v59h-55v-59z"/></defs><clipPath id="r"><use xlink:href="#q" overflow="visible"/></clipPath><g clip-path="url(#r)"><defs><path id="s" d="M756.5-294.3h12v16h-12z"/></defs><clipPath id="t"><use xlink:href="#s" overflow="visible"/></clipPath><g clip-path="url(#t)"><defs><path id="u" d="M-203.5-777.3h1121v1030h-1121z"/></defs></g></g><defs><path id="v" d="M756.5-294.3h12v16h-12z"/></defs><clipPath id="w"><use xlink:href="#v" overflow="visible"/></clipPath><g clip-path="url(#w)"><defs><path id="x" d="M-203.5-777.3h1121v1030h-1121z"/></defs></g><defs><path id="y" d="M690.5-229.8H689v34h24v-34h-22.5zm0 3h21l-1.5-1.5v31l1.5-1.5h-21l1.5 1.5v-31l-1.5 1.5zm-21.5-23h64v74h-64v-74z"/></defs><clipPath id="z"><use xlink:href="#y" overflow="visible"/></clipPath><g clip-path="url(#z)"><defs><path id="A" d="M690.5-228.3h21v31h-21z"/></defs><clipPath id="B"><use xlink:href="#A" overflow="visible"/></clipPath><g clip-path="url(#B)"><defs><path id="C" d="M-203.5-777.3h1121v1030h-1121z"/></defs></g></g><defs><path id="D" d="M690.5-228.3h21v31h-21z"/></defs><clipPath id="E"><use xlink:href="#D" overflow="visible"/></clipPath><g clip-path="url(#E)"><defs><path id="F" d="M-203.5-777.3h1121v1030h-1121z"/></defs></g><defs><path id="G" d="M691.5-257.8H690v22h22v-22h-20.5zm0 3h19l-1.5-1.5v19l1.5-1.5h-19l1.5 1.5v-19l-1.5 1.5zm-21.5-23h62v62h-62v-62z"/></defs><clipPath id="H"><use xlink:href="#G" overflow="visible"/></clipPath><g clip-path="url(#H)"><defs><path id="I" d="M691.5-256.3h19v19h-19z"/></defs><clipPath id="J"><use xlink:href="#I" overflow="visible"/></clipPath><g clip-path="url(#J)"><defs><path id="K" d="M-203.5-777.3h1121v1030h-1121z"/></defs></g></g><defs><path id="L" d="M691.5-256.3h19v19h-19z"/></defs><clipPath id="M"><use xlink:href="#L" overflow="visible"/></clipPath><g clip-path="url(#M)"><defs><path id="N" d="M-203.5-777.3h1121v1030h-1121z"/></defs></g><defs><path id="O" d="M696.5-252.8H695v12h12v-12h-10.5zm0 3h9l-1.5-1.5v9l1.5-1.5h-9l1.5 1.5v-9l-1.5 1.5zm-21.5-23h52v52h-52v-52z"/></defs><clipPath id="P"><use xlink:href="#O" overflow="visible"/></clipPath><g clip-path="url(#P)"><defs><path id="Q" d="M696.5-251.3h9v9h-9z"/></defs><clipPath id="R"><use xlink:href="#Q" overflow="visible"/></clipPath><g clip-path="url(#R)"><defs><path id="S" d="M-203.5-777.3h1121v1030h-1121z"/></defs></g></g><defs><path id="T" d="M696.5-251.3h9v9h-9z"/></defs><clipPath id="U"><use xlink:href="#T" overflow="visible"/></clipPath><g clip-path="url(#U)"><defs><path id="V" d="M-203.5-777.3h1121v1030h-1121z"/></defs></g><defs><path id="W" d="M721.5-257.8H720v22h22v-22h-20.5zm0 3h19l-1.5-1.5v19l1.5-1.5h-19l1.5 1.5v-19l-1.5 1.5zm-21.5-23h62v62h-62v-62z"/></defs><clipPath id="X"><use xlink:href="#W" overflow="visible"/></clipPath><g clip-path="url(#X)"><defs><path id="Y" d="M721.5-256.3h19v19h-19z"/></defs><clipPath id="Z"><use xlink:href="#Y" overflow="visible"/></clipPath><g clip-path="url(#Z)"><defs><path id="aa" d="M-203.5-777.3h1121v1030h-1121z"/></defs></g></g><defs><path id="ab" d="M721.5-256.3h19v19h-19z"/></defs><clipPath id="ac"><use xlink:href="#ab" overflow="visible"/></clipPath><g clip-path="url(#ac)"><defs><path id="ad" d="M-203.5-777.3h1121v1030h-1121z"/></defs></g><g><defs><path id="ae" d="M750.5-257.8H749v22h22v-22h-20.5zm0 3h19l-1.5-1.5v19l1.5-1.5h-19l1.5 1.5v-19l-1.5 1.5zm-21.5-23h62v62h-62v-62z"/></defs><clipPath id="af"><use xlink:href="#ae" overflow="visible"/></clipPath><g clip-path="url(#af)"><defs><path id="ag" d="M750.5-256.3h19v19h-19z"/></defs><clipPath id="ah"><use xlink:href="#ag" overflow="visible"/></clipPath><g clip-path="url(#ah)"><defs><path id="ai" d="M-203.5-777.3h1121v1030h-1121z"/></defs></g></g></g><g><defs><path id="aj" d="M750.5-256.3h19v19h-19z"/></defs><clipPath id="ak"><use xlink:href="#aj" overflow="visible"/></clipPath><g clip-path="url(#ak)"><defs><path id="al" d="M-203.5-777.3h1121v1030h-1121z"/></defs></g></g><g><defs><path id="am" d="M721.5-229.8H720v22h22v-22h-20.5zm0 3h19l-1.5-1.5v19l1.5-1.5h-19l1.5 1.5v-19l-1.5 1.5zm-21.5-23h62v62h-62v-62z"/></defs><clipPath id="an"><use xlink:href="#am" overflow="visible"/></clipPath><g clip-path="url(#an)"><defs><path id="ao" d="M721.5-228.3h19v19h-19z"/></defs><clipPath id="ap"><use xlink:href="#ao" overflow="visible"/></clipPath><g clip-path="url(#ap)"><defs><path id="aq" d="M-203.5-777.3h1121v1030h-1121z"/></defs></g></g></g><g><defs><path id="ar" d="M721.5-228.3h19v19h-19z"/></defs><clipPath id="as"><use xlink:href="#ar" overflow="visible"/></clipPath><g clip-path="url(#as)"><defs><path id="at" d="M-203.5-777.3h1121v1030h-1121z"/></defs></g></g><g><defs><path id="au" d="M750.5-229.8H749v22h22v-22h-20.5zm0 3h19l-1.5-1.5v19l1.5-1.5h-19l1.5 1.5v-19l-1.5 1.5zm-21.5-23h62v62h-62v-62z"/></defs><clipPath id="av"><use xlink:href="#au" overflow="visible"/></clipPath><g clip-path="url(#av)"><defs><path id="aw" d="M750.5-228.3h19v19h-19z"/></defs><clipPath id="ax"><use xlink:href="#aw" overflow="visible"/></clipPath><g clip-path="url(#ax)"><defs><path id="ay" d="M-203.5-777.3h1121v1030h-1121z"/></defs></g></g></g><g><defs><path id="az" d="M750.5-228.3h19v19h-19z"/></defs><clipPath id="aA"><use xlink:href="#az" overflow="visible"/></clipPath><g clip-path="url(#aA)"><defs><path id="aB" d="M-203.5-777.3h1121v1030h-1121z"/></defs></g></g><g><defs><path id="aC" d="M726.5-252.8H725v12h12v-12h-10.5zm0 3h9l-1.5-1.5v9l1.5-1.5h-9l1.5 1.5v-9l-1.5 1.5zm-21.5-23h52v52h-52v-52z"/></defs><clipPath id="aD"><use xlink:href="#aC" overflow="visible"/></clipPath><g clip-path="url(#aD)"><defs><path id="aE" d="M726.5-251.3h9v9h-9z"/></defs><clipPath id="aF"><use xlink:href="#aE" overflow="visible"/></clipPath><g clip-path="url(#aF)"><defs><path id="aG" d="M-203.5-777.3h1121v1030h-1121z"/></defs></g></g></g><g><defs><path id="aH" d="M726.5-251.3h9v9h-9z"/></defs><clipPath id="aI"><use xlink:href="#aH" overflow="visible"/></clipPath><g clip-path="url(#aI)"><defs><path id="aJ" d="M-203.5-777.3h1121v1030h-1121z"/></defs></g></g><g><defs><path id="aK" d="M755.5-252.8H754v12h12v-12h-10.5zm0 3h9l-1.5-1.5v9l1.5-1.5h-9l1.5 1.5v-9l-1.5 1.5zm-21.5-23h52v52h-52v-52z"/></defs><clipPath id="aL"><use xlink:href="#aK" overflow="visible"/></clipPath><g clip-path="url(#aL)"><defs><path id="aM" d="M755.5-251.3h9v9h-9z"/></defs><clipPath id="aN"><use xlink:href="#aM" overflow="visible"/></clipPath><g clip-path="url(#aN)"><defs><path id="aO" d="M-203.5-777.3h1121v1030h-1121z"/></defs></g></g></g><g><defs><path id="aP" d="M755.5-251.3h9v9h-9z"/></defs><clipPath id="aQ"><use xlink:href="#aP" overflow="visible"/></clipPath><g clip-path="url(#aQ)"><defs><path id="aR" d="M-203.5-777.3h1121v1030h-1121z"/></defs></g></g><g><defs><path id="aS" d="M726.5-224.8H725v12h12v-12h-10.5zm0 3h9l-1.5-1.5v9l1.5-1.5h-9l1.5 1.5v-9l-1.5 1.5zm-21.5-23h52v52h-52v-52z"/></defs><clipPath id="aT"><use xlink:href="#aS" overflow="visible"/></clipPath><g clip-path="url(#aT)"><defs><path id="aU" d="M726.5-223.3h9v9h-9z"/></defs><clipPath id="aV"><use xlink:href="#aU" overflow="visible"/></clipPath><g clip-path="url(#aV)"><defs><path id="aW" d="M-203.5-777.3h1121v1030h-1121z"/></defs></g></g></g><g><defs><path id="aX" d="M726.5-223.3h9v9h-9z"/></defs><clipPath id="aY"><use xlink:href="#aX" overflow="visible"/></clipPath><g clip-path="url(#aY)"><defs><path id="aZ" d="M-203.5-777.3h1121v1030h-1121z"/></defs></g></g><g><defs><path id="ba" d="M755.5-224.8H754v12h12v-12h-10.5zm0 3h9l-1.5-1.5v9l1.5-1.5h-9l1.5 1.5v-9l-1.5 1.5zm-21.5-23h52v52h-52v-52z"/></defs><clipPath id="bb"><use xlink:href="#ba" overflow="visible"/></clipPath><g clip-path="url(#bb)"><defs><path id="bc" d="M755.5-223.3h9v9h-9z"/></defs><clipPath id="bd"><use xlink:href="#bc" overflow="visible"/></clipPath><g clip-path="url(#bd)"><defs><path id="be" d="M-203.5-777.3h1121v1030h-1121z"/></defs></g></g></g><g><defs><path id="bf" d="M755.5-223.3h9v9h-9z"/></defs><clipPath id="bg"><use xlink:href="#bf" overflow="visible"/></clipPath><g clip-path="url(#bg)"><defs><path id="bh" d="M-203.5-777.3h1121v1030h-1121z"/></defs></g></g><path fill="#0F1F2D" stroke="#FFF" stroke-width="3" stroke-miterlimit="10" d="M167.8 38.4c-1.7-4.4 1.8-10 1.8-10s6.4 1.6 8.1 6.1-1.8 10-1.8 10-6.4-1.7-8.1-6.1zM111.2 29.8c2.5-4.1 9.1-4.6 9.1-4.6s2.5 6.1.1 10.2c-2.5 4.1-9.1 4.6-9.1 4.6s-2.5-6.1-.1-10.2z"/><g fill="#FFF" stroke="#0F1F2D" stroke-width="3" stroke-miterlimit="10"><path d="M178.4 49.9c1.5-2.8.5-6.3-2.3-7.8s-6.3-.5-7.8 2.3c-2.9 5.3-9.2 6.9-11.6 11.4-2.8 5.2-.8 11.6 4.3 14.4s11.6.8 14.4-4.3c2.3-4.5 0-10.5 3-16zM183.6 34.1c-5.6-1.2-5.6 3.9-8.1 8.5"/></g><circle fill="#FFF" stroke="#0F1F2D" stroke-width="3" stroke-miterlimit="10" cx="156.6" cy="61.8" r="13"/><g fill="#FFF" stroke="#0F1F2D" stroke-width="3" stroke-miterlimit="10"><path d="M153.7 44.5c.7-3.1-1.3-6.2-4.4-6.8-3.1-.7-6.2 1.3-6.8 4.4-1.3 5.9-6.9 9.3-8 14.2-1.2 5.7 2.4 11.4 8.2 12.6 5.7 1.2 11.4-2.4 12.6-8.2.9-4.9-2.9-10.1-1.6-16.2zM154.3 28.6c-5.7.4-4.3 4.7-5.4 9.7"/></g><g fill="#FFF" stroke="#0F1F2D" stroke-width="3" stroke-miterlimit="10"><path d="M118.7 39.7c-1.4-2.8-4.9-4-7.7-2.5-2.8 1.4-4 4.9-2.5 7.7 2.7 5.4.4 11.6 2.7 16 2.7 5.2 9 7.3 14.3 4.6s7.3-9 4.6-14.3c-2.3-4.4-8.6-6-11.4-11.5zM111 27.3c-4.2 3.9-2.2 6 .1 10.6"/></g><circle fill="#FFF" stroke="#0F1F2D" stroke-width="3" stroke-miterlimit="10" cx="104.9" cy="62" r="13.2"/><path fill="#FFF" stroke="#0F1F2D" stroke-width="3" stroke-miterlimit="10" d="M87.2 62.7h95.3v7.2H87.2zM169.7 119.8h-69.6l-8.8-49.7h87.2z"/><path fill="#FFF" stroke="#0F1F2D" stroke-width="3" stroke-miterlimit="10" d="M109 78.7h8.6v33.5H109zM151.3 78.7h8.6v33.5h-8.6zM130 78.7h8.6v33.5H130zM130 21.8h8.6v48.3H130z"/></svg>