<svg id="Layer_1" data-name="Layer 1" xmlns="http://www.w3.org/2000/svg" viewBox="0 0 276 137"><defs><style>.cls-1,.cls-2,.cls-3{fill:none}.cls-2{clip-rule:evenodd}.cls-3{fill-rule:evenodd}.cls-4{clip-path:url(#clip-path)}.cls-5{clip-path:url(#clip-path-2)}.cls-6{clip-path:url(#clip-path-3)}.cls-7{clip-path:url(#clip-path-4)}.cls-8{clip-path:url(#clip-path-5)}.cls-9{clip-path:url(#clip-path-6)}.cls-10{clip-path:url(#clip-path-8)}.cls-11{clip-path:url(#clip-path-9)}.cls-12{clip-path:url(#clip-path-11)}.cls-13{clip-path:url(#clip-path-12)}.cls-14{clip-path:url(#clip-path-14)}.cls-15{clip-path:url(#clip-path-15)}.cls-16{clip-path:url(#clip-path-17)}.cls-17{clip-path:url(#clip-path-18)}.cls-18{clip-path:url(#clip-path-20)}.cls-19{clip-path:url(#clip-path-21)}.cls-20{clip-path:url(#clip-path-23)}.cls-21{clip-path:url(#clip-path-24)}.cls-22{clip-path:url(#clip-path-26)}.cls-23{clip-path:url(#clip-path-27)}.cls-24{clip-path:url(#clip-path-29)}.cls-25{clip-path:url(#clip-path-30)}.cls-26{clip-path:url(#clip-path-32)}.cls-27{clip-path:url(#clip-path-33)}.cls-28{clip-path:url(#clip-path-35)}.cls-29{clip-path:url(#clip-path-36)}.cls-30{clip-path:url(#clip-path-38)}.cls-31{clip-path:url(#clip-path-39)}.cls-32{clip-path:url(#clip-path-41)}.cls-33{clip-path:url(#clip-path-42)}.cls-34{clip-path:url(#clip-path-44)}.cls-35{clip-path:url(#clip-path-45)}.cls-36,.cls-38{fill:#fff}.cls-37{fill:#0c1f2e}.cls-38{stroke:#0c1f2e;stroke-miterlimit:10;stroke-width:3px}</style><clipPath id="clip-path"><circle class="cls-1" cx="138" cy="-89.5" r="50.5"/></clipPath><clipPath id="clip-path-2"><circle class="cls-1" cx="138" cy="-89.5" r="43.5"/></clipPath><clipPath id="clip-path-3"><circle class="cls-1" cx="428.78" cy="-89.5" r="50.5"/></clipPath><clipPath id="clip-path-4"><circle class="cls-1" cx="428.78" cy="-89.5" r="43.5"/></clipPath><clipPath id="clip-path-5"><path class="cls-2" d="M383.67 186.49h-1.5v84h108v-84h-106.5zm0 3h105l-1.5-1.5v81l1.5-1.5h-105l1.5 1.5V188zm-21.5-23h148v124h-148z"/></clipPath><clipPath id="clip-path-6"><path class="cls-1" d="M383.67 187.99h105v81h-105z"/></clipPath><clipPath id="clip-path-8"><path class="cls-2" d="M377.67 203.49h-2.24l.85-2.07 9.07-22 .38-.93H486.6l.38.93 9.07 22 .85 2.07H377.67zm0-3h117l-1.39 2.07-9.07-22 1.39.93h-98.86l1.39-.93-9.07 22zm-22.24 23h161.48v-65H355.43z"/></clipPath><clipPath id="clip-path-9"><path class="cls-2" d="M377.67 201.99h117l-9.07-22h-98.86l-9.07 22z"/></clipPath><clipPath id="clip-path-11"><path class="cls-2" d="M462.67 170.49h-1.5v19h15v-19h-13.5zm0 3h12l-1.5-1.5v16l1.5-1.5h-12l1.5 1.5V172zm-21.5-23h55v59h-55z"/></clipPath><clipPath id="clip-path-12"><path class="cls-1" d="M462.67 171.99h12v16h-12z"/></clipPath><clipPath id="clip-path-14"><path class="cls-2" d="M396.67 236.49h-1.5v34h24v-34h-22.5zm0 3h21l-1.5-1.5v31l1.5-1.5h-21l1.5 1.5V238zm-21.5-23h64v74h-64z"/></clipPath><clipPath id="clip-path-15"><path class="cls-1" d="M396.67 237.99h21v31h-21z"/></clipPath><clipPath id="clip-path-17"><path class="cls-2" d="M397.67 208.49h-1.5v22h22v-22h-20.5zm0 3h19l-1.5-1.5v19l1.5-1.5h-19l1.5 1.5V210zm-21.5-23h62v62h-62z"/></clipPath><clipPath id="clip-path-18"><path class="cls-1" d="M397.67 209.99h19v19h-19z"/></clipPath><clipPath id="clip-path-20"><path class="cls-2" d="M402.67 213.49h-1.5v12h12v-12h-10.5zm0 3h9l-1.5-1.5v9l1.5-1.5h-9l1.5 1.5v-9zm-21.5-23h52v52h-52z"/></clipPath><clipPath id="clip-path-21"><path class="cls-1" d="M402.67 214.99h9v9h-9z"/></clipPath><clipPath id="clip-path-23"><path class="cls-2" d="M427.67 208.49h-1.5v22h22v-22h-20.5zm0 3h19l-1.5-1.5v19l1.5-1.5h-19l1.5 1.5V210zm-21.5-23h62v62h-62z"/></clipPath><clipPath id="clip-path-24"><path class="cls-1" d="M427.67 209.99h19v19h-19z"/></clipPath><clipPath id="clip-path-26"><path class="cls-2" d="M456.67 208.49h-1.5v22h22v-22h-20.5zm0 3h19l-1.5-1.5v19l1.5-1.5h-19l1.5 1.5V210zm-21.5-23h62v62h-62z"/></clipPath><clipPath id="clip-path-27"><path class="cls-1" d="M456.67 209.99h19v19h-19z"/></clipPath><clipPath id="clip-path-29"><path class="cls-2" d="M427.67 236.49h-1.5v22h22v-22h-20.5zm0 3h19l-1.5-1.5v19l1.5-1.5h-19l1.5 1.5V238zm-21.5-23h62v62h-62z"/></clipPath><clipPath id="clip-path-30"><path class="cls-1" d="M427.67 237.99h19v19h-19z"/></clipPath><clipPath id="clip-path-32"><path class="cls-2" d="M456.67 236.49h-1.5v22h22v-22h-20.5zm0 3h19l-1.5-1.5v19l1.5-1.5h-19l1.5 1.5V238zm-21.5-23h62v62h-62z"/></clipPath><clipPath id="clip-path-33"><path class="cls-1" d="M456.67 237.99h19v19h-19z"/></clipPath><clipPath id="clip-path-35"><path class="cls-2" d="M432.67 213.49h-1.5v12h12v-12h-10.5zm0 3h9l-1.5-1.5v9l1.5-1.5h-9l1.5 1.5v-9zm-21.5-23h52v52h-52z"/></clipPath><clipPath id="clip-path-36"><path class="cls-1" d="M432.67 214.99h9v9h-9z"/></clipPath><clipPath id="clip-path-38"><path class="cls-2" d="M461.67 213.49h-1.5v12h12v-12h-10.5zm0 3h9l-1.5-1.5v9l1.5-1.5h-9l1.5 1.5v-9zm-21.5-23h52v52h-52z"/></clipPath><clipPath id="clip-path-39"><path class="cls-1" d="M461.67 214.99h9v9h-9z"/></clipPath><clipPath id="clip-path-41"><path class="cls-2" d="M432.67 241.49h-1.5v12h12v-12h-10.5zm0 3h9l-1.5-1.5v9l1.5-1.5h-9l1.5 1.5v-9zm-21.5-23h52v52h-52z"/></clipPath><clipPath id="clip-path-42"><path class="cls-1" d="M432.67 242.99h9v9h-9z"/></clipPath><clipPath id="clip-path-44"><path class="cls-2" d="M461.67 241.49h-1.5v12h12v-12h-10.5zm0 3h9l-1.5-1.5v9l1.5-1.5h-9l1.5 1.5v-9zm-21.5-23h52v52h-52z"/></clipPath><clipPath id="clip-path-45"><path class="cls-1" d="M461.67 242.99h9v9h-9z"/></clipPath></defs><title>EXPERIENTIAL ICONS</title><path class="cls-36" d="M194.06 88.57V77.14H110V51.83H90.69l-6.3 13.11a148.29 148.29 0 0 0-17.85 4.75v18.88z"/><path class="cls-37" d="M195.56 90.07H65V68.61l1-.34a154.84 154.84 0 0 1 17.3-4.65l6.39-13.29h21.7v25.31h84.07zM68 87.07h124.56v-8.43h-84.07V53.33H91.64l-6.22 13-.75.14A147.82 147.82 0 0 0 68 70.78z"/><path class="cls-36" d="M104.82 70.2H90.63v-3.92l4.01-8.61h10.18V70.2z"/><path class="cls-37" d="M106.32 71.7H89.13v-5.75l4.56-9.78h12.63zm-14.19-3h11.19v-9.53H95.6l-3.47 7.44zM84.46 90a1.5 1.5 0 0 1-1.5-1.5V65.13a1.5 1.5 0 1 1 3 0v23.36a1.5 1.5 0 0 1-1.5 1.51zM110 90a1.5 1.5 0 0 1-1.5-1.5V75.84a1.5 1.5 0 1 1 3 0v12.65A1.5 1.5 0 0 1 110 90z"/><circle class="cls-36" cx="87.89" cy="92.94" r="10.97"/><path class="cls-37" d="M87.89 105.4a12.47 12.47 0 1 1 12.47-12.47 12.48 12.48 0 0 1-12.47 12.47zm0-21.93a9.47 9.47 0 1 0 9.47 9.47 9.48 9.48 0 0 0-9.47-9.47z"/><circle class="cls-36" cx="177.45" cy="92.94" r="10.97"/><path class="cls-37" d="M177.45 105.4a12.47 12.47 0 1 1 12.47-12.47 12.48 12.48 0 0 1-12.47 12.47zm0-21.93a9.47 9.47 0 1 0 9.47 9.47 9.48 9.48 0 0 0-9.47-9.47z"/><circle class="cls-36" cx="87.74" cy="92.79" r="4.98"/><path class="cls-37" d="M87.74 99.27a6.48 6.48 0 1 1 6.48-6.48 6.49 6.49 0 0 1-6.48 6.48zm0-10a3.48 3.48 0 1 0 3.48 3.48 3.48 3.48 0 0 0-3.48-3.44z"/><circle class="cls-36" cx="177.3" cy="92.79" r="4.98"/><path class="cls-37" d="M177.3 99.27a6.48 6.48 0 1 1 6.48-6.48 6.49 6.49 0 0 1-6.48 6.48zm0-10a3.48 3.48 0 1 0 3.48 3.48 3.48 3.48 0 0 0-3.48-3.44z"/><path class="cls-38" d="M205.85 88.57h-94.34V33.14h94.34z"/><path class="cls-38" d="M125.47 46h66.28v29.64h-66.28z"/><path class="cls-38" d="M122.25 39.75h74v10.58h-74z"/></svg>