<svg xmlns="http://www.w3.org/2000/svg" xmlns:xlink="http://www.w3.org/1999/xlink" viewBox="0 0 276 137"><defs><path id="a" d="M677.5-279.8H676v84h108v-84H677.5zm0 3h105l-1.5-1.5v81l1.5-1.5h-105l1.5 1.5v-81l-1.5 1.5zm-21.5-23h148v124H656v-124z"/></defs><clipPath id="b"><use xlink:href="#a" overflow="visible"/></clipPath><g clip-path="url(#b)"><defs><path id="c" d="M677.5-278.3h105v81h-105z"/></defs></g><defs><path id="d" d="M677.5-278.3h105v81h-105z"/></defs><defs><path id="e" d="M671.5-262.8h-2.2l.9-2.1 9.1-22 .4-.9h100.9l.4.9 9.1 22 .9 2.1H671.5zm0-3h117l-1.4 2.1-9.1-22 1.4.9h-98.9l1.4-.9-9.1 22-1.3-2.1zm-22.2 23h161.5v-65H649.3v65z"/></defs><clipPath id="f"><use xlink:href="#e" overflow="visible"/></clipPath><g clip-path="url(#f)"><defs><path id="g" d="M671.5-264.3h117l-9.1-22h-98.8z"/></defs></g><defs><path id="h" d="M671.5-264.3h117l-9.1-22h-98.8z"/></defs><defs><path id="i" d="M756.5-295.8H755v19h15v-19h-13.5zm0 3h12l-1.5-1.5v16l1.5-1.5h-12l1.5 1.5v-16l-1.5 1.5zm-21.5-23h55v59h-55v-59z"/></defs><clipPath id="j"><use xlink:href="#i" overflow="visible"/></clipPath><g clip-path="url(#j)"><defs><path id="k" d="M756.5-294.3h12v16h-12z"/></defs></g><defs><path id="l" d="M756.5-294.3h12v16h-12z"/></defs><defs><path id="m" d="M690.5-229.8H689v34h24v-34h-22.5zm0 3h21l-1.5-1.5v31l1.5-1.5h-21l1.5 1.5v-31l-1.5 1.5zm-21.5-23h64v74h-64v-74z"/></defs><clipPath id="n"><use xlink:href="#m" overflow="visible"/></clipPath><g clip-path="url(#n)"><defs><path id="o" d="M690.5-228.3h21v31h-21z"/></defs></g><defs><path id="p" d="M690.5-228.3h21v31h-21z"/></defs><defs><path id="q" d="M691.5-257.8H690v22h22v-22h-20.5zm0 3h19l-1.5-1.5v19l1.5-1.5h-19l1.5 1.5v-19l-1.5 1.5zm-21.5-23h62v62h-62v-62z"/></defs><clipPath id="r"><use xlink:href="#q" overflow="visible"/></clipPath><g clip-path="url(#r)"><defs><path id="s" d="M691.5-256.3h19v19h-19z"/></defs></g><defs><path id="t" d="M691.5-256.3h19v19h-19z"/></defs><defs><path id="u" d="M696.5-252.8H695v12h12v-12h-10.5zm0 3h9l-1.5-1.5v9l1.5-1.5h-9l1.5 1.5v-9l-1.5 1.5zm-21.5-23h52v52h-52v-52z"/></defs><clipPath id="v"><use xlink:href="#u" overflow="visible"/></clipPath><g clip-path="url(#v)"><defs><path id="w" d="M696.5-251.3h9v9h-9z"/></defs></g><defs><path id="x" d="M696.5-251.3h9v9h-9z"/></defs><defs><path id="y" d="M721.5-257.8H720v22h22v-22h-20.5zm0 3h19l-1.5-1.5v19l1.5-1.5h-19l1.5 1.5v-19l-1.5 1.5zm-21.5-23h62v62h-62v-62z"/></defs><clipPath id="z"><use xlink:href="#y" overflow="visible"/></clipPath><g clip-path="url(#z)"><defs><path id="A" d="M721.5-256.3h19v19h-19z"/></defs></g><defs><path id="B" d="M721.5-256.3h19v19h-19z"/></defs><defs><path id="C" d="M750.5-257.8H749v22h22v-22h-20.5zm0 3h19l-1.5-1.5v19l1.5-1.5h-19l1.5 1.5v-19l-1.5 1.5zm-21.5-23h62v62h-62v-62z"/></defs><clipPath id="D"><use xlink:href="#C" overflow="visible"/></clipPath><g clip-path="url(#D)"><defs><path id="E" d="M750.5-256.3h19v19h-19z"/></defs></g><defs><path id="F" d="M750.5-256.3h19v19h-19z"/></defs><defs><path id="G" d="M721.5-229.8H720v22h22v-22h-20.5zm0 3h19l-1.5-1.5v19l1.5-1.5h-19l1.5 1.5v-19l-1.5 1.5zm-21.5-23h62v62h-62v-62z"/></defs><clipPath id="H"><use xlink:href="#G" overflow="visible"/></clipPath><g clip-path="url(#H)"><defs><path id="I" d="M721.5-228.3h19v19h-19z"/></defs></g><defs><path id="J" d="M721.5-228.3h19v19h-19z"/></defs><defs><path id="K" d="M750.5-229.8H749v22h22v-22h-20.5zm0 3h19l-1.5-1.5v19l1.5-1.5h-19l1.5 1.5v-19l-1.5 1.5zm-21.5-23h62v62h-62v-62z"/></defs><clipPath id="L"><use xlink:href="#K" overflow="visible"/></clipPath><g clip-path="url(#L)"><defs><path id="M" d="M750.5-228.3h19v19h-19z"/></defs></g><defs><path id="N" d="M750.5-228.3h19v19h-19z"/></defs><defs><path id="O" d="M726.5-252.8H725v12h12v-12h-10.5zm0 3h9l-1.5-1.5v9l1.5-1.5h-9l1.5 1.5v-9l-1.5 1.5zm-21.5-23h52v52h-52v-52z"/></defs><clipPath id="P"><use xlink:href="#O" overflow="visible"/></clipPath><g clip-path="url(#P)"><defs><path id="Q" d="M726.5-251.3h9v9h-9z"/></defs></g><defs><path id="R" d="M726.5-251.3h9v9h-9z"/></defs><defs><path id="S" d="M755.5-252.8H754v12h12v-12h-10.5zm0 3h9l-1.5-1.5v9l1.5-1.5h-9l1.5 1.5v-9l-1.5 1.5zm-21.5-23h52v52h-52v-52z"/></defs><clipPath id="T"><use xlink:href="#S" overflow="visible"/></clipPath><g clip-path="url(#T)"><defs><path id="U" d="M755.5-251.3h9v9h-9z"/></defs></g><defs><path id="V" d="M755.5-251.3h9v9h-9z"/></defs><defs><path id="W" d="M726.5-224.8H725v12h12v-12h-10.5zm0 3h9l-1.5-1.5v9l1.5-1.5h-9l1.5 1.5v-9l-1.5 1.5zm-21.5-23h52v52h-52v-52z"/></defs><clipPath id="X"><use xlink:href="#W" overflow="visible"/></clipPath><g clip-path="url(#X)"><defs><path id="Y" d="M726.5-223.3h9v9h-9z"/></defs></g><defs><path id="Z" d="M726.5-223.3h9v9h-9z"/></defs><defs><path id="aa" d="M755.5-224.8H754v12h12v-12h-10.5zm0 3h9l-1.5-1.5v9l1.5-1.5h-9l1.5 1.5v-9l-1.5 1.5zm-21.5-23h52v52h-52v-52z"/></defs><clipPath id="ab"><use xlink:href="#aa" overflow="visible"/></clipPath><g clip-path="url(#ab)"><defs><path id="ac" d="M755.5-223.3h9v9h-9z"/></defs></g><defs><path id="ad" d="M755.5-223.3h9v9h-9z"/></defs><path fill="#0F1F2D" stroke="#FFF" stroke-width="3" stroke-miterlimit="10" d="M167.8 38.4c-1.7-4.4 1.8-10 1.8-10s6.4 1.6 8.1 6.1-1.8 10-1.8 10-6.4-1.7-8.1-6.1zm-56.6-8.6c2.5-4.1 9.1-4.6 9.1-4.6s2.5 6.1.1 10.2c-2.5 4.1-9.1 4.6-9.1 4.6s-2.5-6.1-.1-10.2z"/><path d="M178.4 49.9c1.5-2.8.5-6.3-2.3-7.8s-6.3-.5-7.8 2.3c-2.9 5.3-9.2 6.9-11.6 11.4-2.8 5.2-.8 11.6 4.3 14.4s11.6.8 14.4-4.3c2.3-4.5 0-10.5 3-16zm5.2-15.8c-5.6-1.2-5.6 3.9-8.1 8.5" fill="#FFF" stroke="#0F1F2D" stroke-width="3" stroke-miterlimit="10"/><circle fill="#FFF" stroke="#0F1F2D" stroke-width="3" stroke-miterlimit="10" cx="156.6" cy="61.8" r="13"/><g fill="#FFF" stroke="#0F1F2D" stroke-width="3" stroke-miterlimit="10"><path d="M153.7 44.5c.7-3.1-1.3-6.2-4.4-6.8-3.1-.7-6.2 1.3-6.8 4.4-1.3 5.9-6.9 9.3-8 14.2-1.2 5.7 2.4 11.4 8.2 12.6 5.7 1.2 11.4-2.4 12.6-8.2.9-4.9-2.9-10.1-1.6-16.2zm.6-15.9c-5.7.4-4.3 4.7-5.4 9.7"/></g><g fill="#FFF" stroke="#0F1F2D" stroke-width="3" stroke-miterlimit="10"><path d="M118.7 39.7c-1.4-2.8-4.9-4-7.7-2.5-2.8 1.4-4 4.9-2.5 7.7 2.7 5.4.4 11.6 2.7 16 2.7 5.2 9 7.3 14.3 4.6s7.3-9 4.6-14.3c-2.3-4.4-8.6-6-11.4-11.5zM111 27.3c-4.2 3.9-2.2 6 .1 10.6"/></g><circle fill="#FFF" stroke="#0F1F2D" stroke-width="3" stroke-miterlimit="10" cx="104.9" cy="62" r="13.2"/><path fill="#FFF" stroke="#0F1F2D" stroke-width="3" stroke-miterlimit="10" d="M87.2 62.7h95.3v7.2H87.2zm82.5 57.1h-69.6l-8.8-49.7h87.2z"/><path fill="#FFF" stroke="#0F1F2D" stroke-width="3" stroke-miterlimit="10" d="M109 78.7h8.6v33.5H109zm42.3 0h8.6v33.5h-8.6zm-21.3 0h8.6v33.5H130zm0-56.9h8.6v48.3H130z"/></svg>