<svg xmlns="http://www.w3.org/2000/svg" viewBox="0 0 276 137"><defs><path id="a" d="M677.5-279.8H676v84h108v-84H677.5zm0 3h105l-1.5-1.5v81l1.5-1.5h-105l1.5 1.5v-81l-1.5 1.5zm-21.5-23h148v124H656v-124z"/></defs><defs><path id="b" d="M671.5-262.8h-2.2l.9-2.1 9.1-22 .4-.9h100.9l.4.9 9.1 22 .9 2.1H671.5zm0-3h117l-1.4 2.1-9.1-22 1.4.9h-98.9l1.4-.9-9.1 22-1.3-2.1zm-22.2 23h161.5v-65H649.3v65z"/></defs><defs><path id="c" d="M756.5-295.8H755v19h15v-19h-13.5zm0 3h12l-1.5-1.5v16l1.5-1.5h-12l1.5 1.5v-16l-1.5 1.5zm-21.5-23h55v59h-55v-59z"/></defs><defs><path id="d" d="M690.5-229.8H689v34h24v-34h-22.5zm0 3h21l-1.5-1.5v31l1.5-1.5h-21l1.5 1.5v-31l-1.5 1.5zm-21.5-23h64v74h-64v-74z"/></defs><defs><path id="e" d="M691.5-257.8H690v22h22v-22h-20.5zm0 3h19l-1.5-1.5v19l1.5-1.5h-19l1.5 1.5v-19l-1.5 1.5zm-21.5-23h62v62h-62v-62z"/></defs><defs><path id="f" d="M696.5-252.8H695v12h12v-12h-10.5zm0 3h9l-1.5-1.5v9l1.5-1.5h-9l1.5 1.5v-9l-1.5 1.5zm-21.5-23h52v52h-52v-52z"/></defs><defs><path id="g" d="M721.5-257.8H720v22h22v-22h-20.5zm0 3h19l-1.5-1.5v19l1.5-1.5h-19l1.5 1.5v-19l-1.5 1.5zm-21.5-23h62v62h-62v-62z"/></defs><defs><path id="h" d="M750.5-257.8H749v22h22v-22h-20.5zm0 3h19l-1.5-1.5v19l1.5-1.5h-19l1.5 1.5v-19l-1.5 1.5zm-21.5-23h62v62h-62v-62z"/></defs><defs><path id="i" d="M721.5-229.8H720v22h22v-22h-20.5zm0 3h19l-1.5-1.5v19l1.5-1.5h-19l1.5 1.5v-19l-1.5 1.5zm-21.5-23h62v62h-62v-62z"/></defs><defs><path id="j" d="M750.5-229.8H749v22h22v-22h-20.5zm0 3h19l-1.5-1.5v19l1.5-1.5h-19l1.5 1.5v-19l-1.5 1.5zm-21.5-23h62v62h-62v-62z"/></defs><defs><path id="k" d="M726.5-252.8H725v12h12v-12h-10.5zm0 3h9l-1.5-1.5v9l1.5-1.5h-9l1.5 1.5v-9l-1.5 1.5zm-21.5-23h52v52h-52v-52z"/></defs><defs><path id="l" d="M755.5-252.8H754v12h12v-12h-10.5zm0 3h9l-1.5-1.5v9l1.5-1.5h-9l1.5 1.5v-9l-1.5 1.5zm-21.5-23h52v52h-52v-52z"/></defs><defs><path id="m" d="M726.5-224.8H725v12h12v-12h-10.5zm0 3h9l-1.5-1.5v9l1.5-1.5h-9l1.5 1.5v-9l-1.5 1.5zm-21.5-23h52v52h-52v-52z"/></defs><defs><path id="n" d="M755.5-224.8H754v12h12v-12h-10.5zm0 3h9l-1.5-1.5v9l1.5-1.5h-9l1.5 1.5v-9l-1.5 1.5zm-21.5-23h52v52h-52v-52z"/></defs><path fill="#0F1F2D" stroke="#FFF" stroke-width="3" stroke-miterlimit="10" d="M167.8 38.4c-1.7-4.4 1.8-10 1.8-10s6.4 1.6 8.1 6.1-1.8 10-1.8 10-6.4-1.7-8.1-6.1zm-56.6-8.6c2.5-4.1 9.1-4.6 9.1-4.6s2.5 6.1.1 10.2c-2.5 4.1-9.1 4.6-9.1 4.6s-2.5-6.1-.1-10.2z"/><path d="M178.4 49.9c1.5-2.8.5-6.3-2.3-7.8s-6.3-.5-7.8 2.3c-2.9 5.3-9.2 6.9-11.6 11.4-2.8 5.2-.8 11.6 4.3 14.4s11.6.8 14.4-4.3c2.3-4.5 0-10.5 3-16zm5.2-15.8c-5.6-1.2-5.6 3.9-8.1 8.5" fill="#FFF" stroke="#0F1F2D" stroke-width="3" stroke-miterlimit="10"/><circle fill="#FFF" stroke="#0F1F2D" stroke-width="3" stroke-miterlimit="10" cx="156.6" cy="61.8" r="13"/><path d="M153.7 44.5c.7-3.1-1.3-6.2-4.4-6.8-3.1-.7-6.2 1.3-6.8 4.4-1.3 5.9-6.9 9.3-8 14.2-1.2 5.7 2.4 11.4 8.2 12.6 5.7 1.2 11.4-2.4 12.6-8.2.9-4.9-2.9-10.1-1.6-16.2zm.6-15.9c-5.7.4-4.3 4.7-5.4 9.7m-30.2 1.4c-1.4-2.8-4.9-4-7.7-2.5-2.8 1.4-4 4.9-2.5 7.7 2.7 5.4.4 11.6 2.7 16 2.7 5.2 9 7.3 14.3 4.6s7.3-9 4.6-14.3c-2.3-4.4-8.6-6-11.4-11.5zM111 27.3c-4.2 3.9-2.2 6 .1 10.6" fill="#FFF" stroke="#0F1F2D" stroke-width="3" stroke-miterlimit="10"/><circle fill="#FFF" stroke="#0F1F2D" stroke-width="3" stroke-miterlimit="10" cx="104.9" cy="62" r="13.2"/><path fill="#FFF" stroke="#0F1F2D" stroke-width="3" stroke-miterlimit="10" d="M87.2 62.7h95.3v7.2H87.2zm82.5 57.1h-69.6l-8.8-49.7h87.2z"/><path fill="#FFF" stroke="#0F1F2D" stroke-width="3" stroke-miterlimit="10" d="M109 78.7h8.6v33.5H109zm42.3 0h8.6v33.5h-8.6zm-21.3 0h8.6v33.5H130zm0-56.9h8.6v48.3H130z"/></svg>