<svg xmlns="http://www.w3.org/2000/svg" xmlns:xlink="http://www.w3.org/1999/xlink" viewBox="0 0 276 137"><defs><circle id="a" cx="438.1" cy="-86.5" r="50.5"/></defs><defs><circle id="b" cx="438.1" cy="-86.5" r="43.5"/></defs><path fill="#FFF" stroke="#0C1F2E" stroke-width="3" stroke-linecap="round" stroke-miterlimit="10" d="M90.5 52.1h96.2v59.3H90.5z"/><path fill="#FFF" stroke="#0C1F2E" stroke-width="3" stroke-linecap="round" stroke-miterlimit="10" d="M90.5 52.1h96.2v59.3H90.5z"/><path fill="none" stroke="#0C1F2E" stroke-width="3" stroke-linecap="round" stroke-miterlimit="10" d="M113.5 52.1l25-34.4 23.9 34.4"/><circle fill="#FFF" stroke="#0F1F2D" stroke-width="3" stroke-linecap="round" stroke-miterlimit="10" cx="191.1" cy="106.8" r="19.1"/><defs><path id="c" d="M381.5-279.8H380v84h108v-84H381.5zm0 3h105l-1.5-1.5v81l1.5-1.5h-105l1.5 1.5v-81l-1.5 1.5zm-21.5-23h148v124H360v-124z"/></defs><clipPath id="d"><use xlink:href="#c" overflow="visible"/></clipPath><g clip-path="url(#d)"><defs><path id="e" d="M381.5-278.3h105v81h-105z"/></defs></g><defs><path id="f" d="M381.5-278.3h105v81h-105z"/></defs><defs><path id="g" d="M375.5-262.8h-2.2l.9-2.1 9.1-22 .4-.9h100.9l.4.9 9.1 22 .9 2.1H375.5zm0-3h117l-1.4 2.1-9.1-22 1.4.9h-98.9l1.4-.9-9.1 22-1.3-2.1zm-22.2 23h161.5v-65H353.3v65z"/></defs><clipPath id="h"><use xlink:href="#g" overflow="visible"/></clipPath><g clip-path="url(#h)"><defs><path id="i" d="M375.5-264.3h117l-9.1-22h-98.8z"/></defs></g><defs><path id="j" d="M375.5-264.3h117l-9.1-22h-98.8z"/></defs><defs><path id="k" d="M460.5-295.8H459v19h15v-19h-13.5zm0 3h12l-1.5-1.5v16l1.5-1.5h-12l1.5 1.5v-16l-1.5 1.5zm-21.5-23h55v59h-55v-59z"/></defs><clipPath id="l"><use xlink:href="#k" overflow="visible"/></clipPath><g clip-path="url(#l)"><defs><path id="m" d="M460.5-294.3h12v16h-12z"/></defs></g><defs><path id="n" d="M460.5-294.3h12v16h-12z"/></defs><defs><path id="o" d="M394.5-229.8H393v34h24v-34h-22.5zm0 3h21l-1.5-1.5v31l1.5-1.5h-21l1.5 1.5v-31l-1.5 1.5zm-21.5-23h64v74h-64v-74z"/></defs><clipPath id="p"><use xlink:href="#o" overflow="visible"/></clipPath><g clip-path="url(#p)"><defs><path id="q" d="M394.5-228.3h21v31h-21z"/></defs></g><defs><path id="r" d="M394.5-228.3h21v31h-21z"/></defs><defs><path id="s" d="M395.5-257.8H394v22h22v-22h-20.5zm0 3h19l-1.5-1.5v19l1.5-1.5h-19l1.5 1.5v-19l-1.5 1.5zm-21.5-23h62v62h-62v-62z"/></defs><clipPath id="t"><use xlink:href="#s" overflow="visible"/></clipPath><g clip-path="url(#t)"><defs><path id="u" d="M395.5-256.3h19v19h-19z"/></defs></g><defs><path id="v" d="M395.5-256.3h19v19h-19z"/></defs><defs><path id="w" d="M400.5-252.8H399v12h12v-12h-10.5zm0 3h9l-1.5-1.5v9l1.5-1.5h-9l1.5 1.5v-9l-1.5 1.5zm-21.5-23h52v52h-52v-52z"/></defs><clipPath id="x"><use xlink:href="#w" overflow="visible"/></clipPath><g clip-path="url(#x)"><defs><path id="y" d="M400.5-251.3h9v9h-9z"/></defs></g><defs><path id="z" d="M400.5-251.3h9v9h-9z"/></defs><defs><path id="A" d="M425.5-257.8H424v22h22v-22h-20.5zm0 3h19l-1.5-1.5v19l1.5-1.5h-19l1.5 1.5v-19l-1.5 1.5zm-21.5-23h62v62h-62v-62z"/></defs><clipPath id="B"><use xlink:href="#A" overflow="visible"/></clipPath><g clip-path="url(#B)"><defs><path id="C" d="M425.5-256.3h19v19h-19z"/></defs></g><defs><path id="D" d="M425.5-256.3h19v19h-19z"/></defs><defs><path id="E" d="M454.5-257.8H453v22h22v-22h-20.5zm0 3h19l-1.5-1.5v19l1.5-1.5h-19l1.5 1.5v-19l-1.5 1.5zm-21.5-23h62v62h-62v-62z"/></defs><clipPath id="F"><use xlink:href="#E" overflow="visible"/></clipPath><g clip-path="url(#F)"><defs><path id="G" d="M454.5-256.3h19v19h-19z"/></defs></g><defs><path id="H" d="M454.5-256.3h19v19h-19z"/></defs><defs><path id="I" d="M425.5-229.8H424v22h22v-22h-20.5zm0 3h19l-1.5-1.5v19l1.5-1.5h-19l1.5 1.5v-19l-1.5 1.5zm-21.5-23h62v62h-62v-62z"/></defs><clipPath id="J"><use xlink:href="#I" overflow="visible"/></clipPath><g clip-path="url(#J)"><defs><path id="K" d="M425.5-228.3h19v19h-19z"/></defs></g><defs><path id="L" d="M425.5-228.3h19v19h-19z"/></defs><defs><path id="M" d="M454.5-229.8H453v22h22v-22h-20.5zm0 3h19l-1.5-1.5v19l1.5-1.5h-19l1.5 1.5v-19l-1.5 1.5zm-21.5-23h62v62h-62v-62z"/></defs><clipPath id="N"><use xlink:href="#M" overflow="visible"/></clipPath><g clip-path="url(#N)"><defs><path id="O" d="M454.5-228.3h19v19h-19z"/></defs></g><defs><path id="P" d="M454.5-228.3h19v19h-19z"/></defs><defs><path id="Q" d="M430.5-252.8H429v12h12v-12h-10.5zm0 3h9l-1.5-1.5v9l1.5-1.5h-9l1.5 1.5v-9l-1.5 1.5zm-21.5-23h52v52h-52v-52z"/></defs><clipPath id="R"><use xlink:href="#Q" overflow="visible"/></clipPath><g clip-path="url(#R)"><defs><path id="S" d="M430.5-251.3h9v9h-9z"/></defs></g><defs><path id="T" d="M430.5-251.3h9v9h-9z"/></defs><defs><path id="U" d="M459.5-252.8H458v12h12v-12h-10.5zm0 3h9l-1.5-1.5v9l1.5-1.5h-9l1.5 1.5v-9l-1.5 1.5zm-21.5-23h52v52h-52v-52z"/></defs><clipPath id="V"><use xlink:href="#U" overflow="visible"/></clipPath><g clip-path="url(#V)"><defs><path id="W" d="M459.5-251.3h9v9h-9z"/></defs></g><g><defs><path id="X" d="M459.5-251.3h9v9h-9z"/></defs></g><g><defs><path id="Y" d="M430.5-224.8H429v12h12v-12h-10.5zm0 3h9l-1.5-1.5v9l1.5-1.5h-9l1.5 1.5v-9l-1.5 1.5zm-21.5-23h52v52h-52v-52z"/></defs><clipPath id="Z"><use xlink:href="#Y" overflow="visible"/></clipPath><g clip-path="url(#Z)"><defs><path id="aa" d="M430.5-223.3h9v9h-9z"/></defs></g></g><g><defs><path id="ab" d="M430.5-223.3h9v9h-9z"/></defs></g><g><defs><path id="ac" d="M459.5-224.8H458v12h12v-12h-10.5zm0 3h9l-1.5-1.5v9l1.5-1.5h-9l1.5 1.5v-9l-1.5 1.5zm-21.5-23h52v52h-52v-52z"/></defs><clipPath id="ad"><use xlink:href="#ac" overflow="visible"/></clipPath><g clip-path="url(#ad)"><defs><path id="ae" d="M459.5-223.3h9v9h-9z"/></defs></g></g><g><defs><path id="af" d="M459.5-223.3h9v9h-9z"/></defs></g><g fill="none" stroke="#0F1F2D" stroke-width="3" stroke-linecap="round" stroke-miterlimit="10"><path d="M183.9 99.7l14.4 14.3m-14.4 0l14.4-14.3"/></g><g><path d="M119.7 64.9c2.6 0 4.2 1.1 4.2 2.9 0 1.2-.8 2.2-2 2.5 1.5.3 2.4 1.4 2.4 2.9 0 2-1.7 3.2-4.4 3.2h-5.7V64.9h5.5zm-2.6 4.6h2.4c.9 0 1.4-.5 1.4-1.2s-.5-1.2-1.4-1.2h-2.4v2.4zm0 4.7h2.4c1.1 0 1.8-.5 1.8-1.3s-.7-1.3-1.8-1.3h-2.4v2.6zm11.5.1l-.8 2.1h-3l5-11.5h3l4.9 11.5h-3.1l-.8-2.1h-5.2zm2.6-6.5l-1.7 4.3h3.3l-1.6-4.3zm15.6 8.6l-5.3-7.1v7.1h-2.8V64.9h2.6l5.3 7.1v-7.1h2.7v11.5h-2.5zm9.3-4.5l-1.5 1.7v2.8h-2.9V64.9h2.9v5l4.4-5h3.4l-4.3 4.8 4.6 6.8h-3.5l-3.1-4.6zm-41 18.5c0 3.4-2.7 5.9-6.3 5.9-3.6 0-6.2-2.5-6.2-5.9 0-3.4 2.7-5.9 6.2-5.9 3.6.1 6.3 2.6 6.3 5.9zm-9.5 0c0 1.9 1.5 3.4 3.3 3.4 1.8 0 3.2-1.5 3.2-3.4s-1.4-3.4-3.2-3.4c-1.8 0-3.3 1.5-3.3 3.4zm20.8 5.8l-2.1-8-2.2 8h-3l-3.8-11.5h3.1l2.3 8.5 2.2-8.5h2.9l2.3 8.5 2.2-8.5h3l-3.8 11.5h-3.1zm16 0l-5.3-7.1v7.1h-2.8V84.7h2.6l5.3 7.1v-7.1h2.7v11.5h-2.5zm7.8-9.2v2.3h5.5v2.3h-5.5v2.3h6.3v2.3h-9.2V84.7h9V87h-6.1zm13.1-2.3c3.6 0 6.1 2.3 6.1 5.8 0 3.4-2.5 5.8-6.3 5.8h-4.8V84.7h5zm-2 9.2h2.1c1.8 0 3.1-1.4 3.1-3.4s-1.4-3.4-3.2-3.4h-2v6.8z"/></g></svg>