<svg xmlns="http://www.w3.org/2000/svg" xmlns:xlink="http://www.w3.org/1999/xlink" viewBox="0 0 276 137"><defs><circle id="a" cx="438.1" cy="-86.5" r="50.5"/></defs><clipPath id="b"><use xlink:href="#a" overflow="visible"/></clipPath><g clip-path="url(#b)"><defs><path id="c" d="M263.6-822.5h1121v1030h-1121z"/></defs></g><defs><circle id="d" cx="438.1" cy="-86.5" r="43.5"/></defs><clipPath id="e"><use xlink:href="#d" overflow="visible"/></clipPath><g clip-path="url(#e)"><defs><path id="f" d="M263.6-822.5h1121v1030h-1121z"/></defs></g><path fill="#FFF" stroke="#0C1F2E" stroke-width="3" stroke-linecap="round" stroke-miterlimit="10" d="M90.5 52.1h96.2v59.3H90.5z"/><path fill="#FFF" stroke="#0C1F2E" stroke-width="3" stroke-linecap="round" stroke-miterlimit="10" d="M90.5 52.1h96.2v59.3H90.5z"/><path fill="none" stroke="#0C1F2E" stroke-width="3" stroke-linecap="round" stroke-miterlimit="10" d="M113.5 52.1l25-34.4 23.9 34.4"/><circle fill="#FFF" stroke="#0F1F2D" stroke-width="3" stroke-linecap="round" stroke-miterlimit="10" cx="191.1" cy="106.8" r="19.1"/><defs><path id="g" d="M381.5-279.8H380v84h108v-84H381.5zm0 3h105l-1.5-1.5v81l1.5-1.5h-105l1.5 1.5v-81l-1.5 1.5zm-21.5-23h148v124H360v-124z"/></defs><clipPath id="h"><use xlink:href="#g" overflow="visible"/></clipPath><g clip-path="url(#h)"><defs><path id="i" d="M381.5-278.3h105v81h-105z"/></defs><clipPath id="j"><use xlink:href="#i" overflow="visible"/></clipPath><g clip-path="url(#j)"><defs><path id="k" d="M-499.5-777.3h1121v1030h-1121z"/></defs></g></g><defs><path id="l" d="M381.5-278.3h105v81h-105z"/></defs><clipPath id="m"><use xlink:href="#l" overflow="visible"/></clipPath><g clip-path="url(#m)"><defs><path id="n" d="M-499.5-777.3h1121v1030h-1121z"/></defs></g><defs><path id="o" d="M375.5-262.8h-2.2l.9-2.1 9.1-22 .4-.9h100.9l.4.9 9.1 22 .9 2.1H375.5zm0-3h117l-1.4 2.1-9.1-22 1.4.9h-98.9l1.4-.9-9.1 22-1.3-2.1zm-22.2 23h161.5v-65H353.3v65z"/></defs><clipPath id="p"><use xlink:href="#o" overflow="visible"/></clipPath><g clip-path="url(#p)"><defs><path id="q" d="M375.5-264.3h117l-9.1-22h-98.8z"/></defs><clipPath id="r"><use xlink:href="#q" overflow="visible"/></clipPath><g clip-path="url(#r)"><defs><path id="s" d="M-499.5-777.3h1121v1030h-1121z"/></defs></g></g><defs><path id="t" d="M375.5-264.3h117l-9.1-22h-98.8z"/></defs><clipPath id="u"><use xlink:href="#t" overflow="visible"/></clipPath><g clip-path="url(#u)"><defs><path id="v" d="M-499.5-777.3h1121v1030h-1121z"/></defs></g><defs><path id="w" d="M460.5-295.8H459v19h15v-19h-13.5zm0 3h12l-1.5-1.5v16l1.5-1.5h-12l1.5 1.5v-16l-1.5 1.5zm-21.5-23h55v59h-55v-59z"/></defs><clipPath id="x"><use xlink:href="#w" overflow="visible"/></clipPath><g clip-path="url(#x)"><defs><path id="y" d="M460.5-294.3h12v16h-12z"/></defs><clipPath id="z"><use xlink:href="#y" overflow="visible"/></clipPath><g clip-path="url(#z)"><defs><path id="A" d="M-499.5-777.3h1121v1030h-1121z"/></defs></g></g><defs><path id="B" d="M460.5-294.3h12v16h-12z"/></defs><clipPath id="C"><use xlink:href="#B" overflow="visible"/></clipPath><g clip-path="url(#C)"><defs><path id="D" d="M-499.5-777.3h1121v1030h-1121z"/></defs></g><defs><path id="E" d="M394.5-229.8H393v34h24v-34h-22.5zm0 3h21l-1.5-1.5v31l1.5-1.5h-21l1.5 1.5v-31l-1.5 1.5zm-21.5-23h64v74h-64v-74z"/></defs><clipPath id="F"><use xlink:href="#E" overflow="visible"/></clipPath><g clip-path="url(#F)"><defs><path id="G" d="M394.5-228.3h21v31h-21z"/></defs><clipPath id="H"><use xlink:href="#G" overflow="visible"/></clipPath><g clip-path="url(#H)"><defs><path id="I" d="M-499.5-777.3h1121v1030h-1121z"/></defs></g></g><defs><path id="J" d="M394.5-228.3h21v31h-21z"/></defs><clipPath id="K"><use xlink:href="#J" overflow="visible"/></clipPath><g clip-path="url(#K)"><defs><path id="L" d="M-499.5-777.3h1121v1030h-1121z"/></defs></g><defs><path id="M" d="M395.5-257.8H394v22h22v-22h-20.5zm0 3h19l-1.5-1.5v19l1.5-1.5h-19l1.5 1.5v-19l-1.5 1.5zm-21.5-23h62v62h-62v-62z"/></defs><clipPath id="N"><use xlink:href="#M" overflow="visible"/></clipPath><g clip-path="url(#N)"><defs><path id="O" d="M395.5-256.3h19v19h-19z"/></defs><clipPath id="P"><use xlink:href="#O" overflow="visible"/></clipPath><g clip-path="url(#P)"><defs><path id="Q" d="M-499.5-777.3h1121v1030h-1121z"/></defs></g></g><g><defs><path id="R" d="M395.5-256.3h19v19h-19z"/></defs><clipPath id="S"><use xlink:href="#R" overflow="visible"/></clipPath><g clip-path="url(#S)"><defs><path id="T" d="M-499.5-777.3h1121v1030h-1121z"/></defs></g></g><g><defs><path id="U" d="M400.5-252.8H399v12h12v-12h-10.5zm0 3h9l-1.5-1.5v9l1.5-1.5h-9l1.5 1.5v-9l-1.5 1.5zm-21.5-23h52v52h-52v-52z"/></defs><clipPath id="V"><use xlink:href="#U" overflow="visible"/></clipPath><g clip-path="url(#V)"><defs><path id="W" d="M400.5-251.3h9v9h-9z"/></defs><clipPath id="X"><use xlink:href="#W" overflow="visible"/></clipPath><g clip-path="url(#X)"><defs><path id="Y" d="M-499.5-777.3h1121v1030h-1121z"/></defs></g></g></g><g><defs><path id="Z" d="M400.5-251.3h9v9h-9z"/></defs><clipPath id="aa"><use xlink:href="#Z" overflow="visible"/></clipPath><g clip-path="url(#aa)"><defs><path id="ab" d="M-499.5-777.3h1121v1030h-1121z"/></defs></g></g><g><defs><path id="ac" d="M425.5-257.8H424v22h22v-22h-20.5zm0 3h19l-1.5-1.5v19l1.5-1.5h-19l1.5 1.5v-19l-1.5 1.5zm-21.5-23h62v62h-62v-62z"/></defs><clipPath id="ad"><use xlink:href="#ac" overflow="visible"/></clipPath><g clip-path="url(#ad)"><defs><path id="ae" d="M425.5-256.3h19v19h-19z"/></defs><clipPath id="af"><use xlink:href="#ae" overflow="visible"/></clipPath><g clip-path="url(#af)"><defs><path id="ag" d="M-499.5-777.3h1121v1030h-1121z"/></defs></g></g></g><g><defs><path id="ah" d="M425.5-256.3h19v19h-19z"/></defs><clipPath id="ai"><use xlink:href="#ah" overflow="visible"/></clipPath><g clip-path="url(#ai)"><defs><path id="aj" d="M-499.5-777.3h1121v1030h-1121z"/></defs></g></g><g><defs><path id="ak" d="M454.5-257.8H453v22h22v-22h-20.5zm0 3h19l-1.5-1.5v19l1.5-1.5h-19l1.5 1.5v-19l-1.5 1.5zm-21.5-23h62v62h-62v-62z"/></defs><clipPath id="al"><use xlink:href="#ak" overflow="visible"/></clipPath><g clip-path="url(#al)"><defs><path id="am" d="M454.5-256.3h19v19h-19z"/></defs><clipPath id="an"><use xlink:href="#am" overflow="visible"/></clipPath><g clip-path="url(#an)"><defs><path id="ao" d="M-499.5-777.3h1121v1030h-1121z"/></defs></g></g></g><g><defs><path id="ap" d="M454.5-256.3h19v19h-19z"/></defs><clipPath id="aq"><use xlink:href="#ap" overflow="visible"/></clipPath><g clip-path="url(#aq)"><defs><path id="ar" d="M-499.5-777.3h1121v1030h-1121z"/></defs></g></g><g><defs><path id="as" d="M425.5-229.8H424v22h22v-22h-20.5zm0 3h19l-1.5-1.5v19l1.5-1.5h-19l1.5 1.5v-19l-1.5 1.5zm-21.5-23h62v62h-62v-62z"/></defs><clipPath id="at"><use xlink:href="#as" overflow="visible"/></clipPath><g clip-path="url(#at)"><defs><path id="au" d="M425.5-228.3h19v19h-19z"/></defs><clipPath id="av"><use xlink:href="#au" overflow="visible"/></clipPath><g clip-path="url(#av)"><defs><path id="aw" d="M-499.5-777.3h1121v1030h-1121z"/></defs></g></g></g><g><defs><path id="ax" d="M425.5-228.3h19v19h-19z"/></defs><clipPath id="ay"><use xlink:href="#ax" overflow="visible"/></clipPath><g clip-path="url(#ay)"><defs><path id="az" d="M-499.5-777.3h1121v1030h-1121z"/></defs></g></g><g><defs><path id="aA" d="M454.5-229.8H453v22h22v-22h-20.5zm0 3h19l-1.5-1.5v19l1.5-1.5h-19l1.5 1.5v-19l-1.5 1.5zm-21.5-23h62v62h-62v-62z"/></defs><clipPath id="aB"><use xlink:href="#aA" overflow="visible"/></clipPath><g clip-path="url(#aB)"><defs><path id="aC" d="M454.5-228.3h19v19h-19z"/></defs><clipPath id="aD"><use xlink:href="#aC" overflow="visible"/></clipPath><g clip-path="url(#aD)"><defs><path id="aE" d="M-499.5-777.3h1121v1030h-1121z"/></defs></g></g></g><g><defs><path id="aF" d="M454.5-228.3h19v19h-19z"/></defs><clipPath id="aG"><use xlink:href="#aF" overflow="visible"/></clipPath><g clip-path="url(#aG)"><defs><path id="aH" d="M-499.5-777.3h1121v1030h-1121z"/></defs></g></g><g><defs><path id="aI" d="M430.5-252.8H429v12h12v-12h-10.5zm0 3h9l-1.5-1.5v9l1.5-1.5h-9l1.5 1.5v-9l-1.5 1.5zm-21.5-23h52v52h-52v-52z"/></defs><clipPath id="aJ"><use xlink:href="#aI" overflow="visible"/></clipPath><g clip-path="url(#aJ)"><defs><path id="aK" d="M430.5-251.3h9v9h-9z"/></defs><clipPath id="aL"><use xlink:href="#aK" overflow="visible"/></clipPath><g clip-path="url(#aL)"><defs><path id="aM" d="M-499.5-777.3h1121v1030h-1121z"/></defs></g></g></g><g><defs><path id="aN" d="M430.5-251.3h9v9h-9z"/></defs><clipPath id="aO"><use xlink:href="#aN" overflow="visible"/></clipPath><g clip-path="url(#aO)"><defs><path id="aP" d="M-499.5-777.3h1121v1030h-1121z"/></defs></g></g><g><defs><path id="aQ" d="M459.5-252.8H458v12h12v-12h-10.5zm0 3h9l-1.5-1.5v9l1.5-1.5h-9l1.5 1.5v-9l-1.5 1.5zm-21.5-23h52v52h-52v-52z"/></defs><clipPath id="aR"><use xlink:href="#aQ" overflow="visible"/></clipPath><g clip-path="url(#aR)"><defs><path id="aS" d="M459.5-251.3h9v9h-9z"/></defs><clipPath id="aT"><use xlink:href="#aS" overflow="visible"/></clipPath><g clip-path="url(#aT)"><defs><path id="aU" d="M-499.5-777.3h1121v1030h-1121z"/></defs></g></g></g><g><defs><path id="aV" d="M459.5-251.3h9v9h-9z"/></defs><clipPath id="aW"><use xlink:href="#aV" overflow="visible"/></clipPath><g clip-path="url(#aW)"><defs><path id="aX" d="M-499.5-777.3h1121v1030h-1121z"/></defs></g></g><g><defs><path id="aY" d="M430.5-224.8H429v12h12v-12h-10.5zm0 3h9l-1.5-1.5v9l1.5-1.5h-9l1.5 1.5v-9l-1.5 1.5zm-21.5-23h52v52h-52v-52z"/></defs><clipPath id="aZ"><use xlink:href="#aY" overflow="visible"/></clipPath><g clip-path="url(#aZ)"><defs><path id="ba" d="M430.5-223.3h9v9h-9z"/></defs><clipPath id="bb"><use xlink:href="#ba" overflow="visible"/></clipPath><g clip-path="url(#bb)"><defs><path id="bc" d="M-499.5-777.3h1121v1030h-1121z"/></defs></g></g></g><g><defs><path id="bd" d="M430.5-223.3h9v9h-9z"/></defs><clipPath id="be"><use xlink:href="#bd" overflow="visible"/></clipPath><g clip-path="url(#be)"><defs><path id="bf" d="M-499.5-777.3h1121v1030h-1121z"/></defs></g></g><g><defs><path id="bg" d="M459.5-224.8H458v12h12v-12h-10.5zm0 3h9l-1.5-1.5v9l1.5-1.5h-9l1.5 1.5v-9l-1.5 1.5zm-21.5-23h52v52h-52v-52z"/></defs><clipPath id="bh"><use xlink:href="#bg" overflow="visible"/></clipPath><g clip-path="url(#bh)"><defs><path id="bi" d="M459.5-223.3h9v9h-9z"/></defs><clipPath id="bj"><use xlink:href="#bi" overflow="visible"/></clipPath><g clip-path="url(#bj)"><defs><path id="bk" d="M-499.5-777.3h1121v1030h-1121z"/></defs></g></g></g><g><defs><path id="bl" d="M459.5-223.3h9v9h-9z"/></defs><clipPath id="bm"><use xlink:href="#bl" overflow="visible"/></clipPath><g clip-path="url(#bm)"><defs><path id="bn" d="M-499.5-777.3h1121v1030h-1121z"/></defs></g></g><g fill="none" stroke="#0F1F2D" stroke-width="3" stroke-linecap="round" stroke-miterlimit="10"><path d="M183.9 99.7l14.4 14.3M183.9 114l14.4-14.3"/></g><g><path d="M119.7 64.9c2.6 0 4.2 1.1 4.2 2.9 0 1.2-.8 2.2-2 2.5 1.5.3 2.4 1.4 2.4 2.9 0 2-1.7 3.2-4.4 3.2h-5.7V64.9h5.5zm-2.6 4.6h2.4c.9 0 1.4-.5 1.4-1.2s-.5-1.2-1.4-1.2h-2.4v2.4zm0 4.7h2.4c1.1 0 1.8-.5 1.8-1.3s-.7-1.3-1.8-1.3h-2.4v2.6zM128.6 74.3l-.8 2.1h-3l5-11.5h3l4.9 11.5h-3.1l-.8-2.1h-5.2zm2.6-6.5l-1.7 4.3h3.3l-1.6-4.3zM146.8 76.4l-5.3-7.1v7.1h-2.8V64.9h2.6l5.3 7.1v-7.1h2.7v11.5h-2.5zM156.1 71.9l-1.5 1.7v2.8h-2.9V64.9h2.9v5l4.4-5h3.4l-4.3 4.8 4.6 6.8h-3.5l-3.1-4.6zM115.1 90.4c0 3.4-2.7 5.9-6.3 5.9-3.6 0-6.2-2.5-6.2-5.9 0-3.4 2.7-5.9 6.2-5.9 3.6.1 6.3 2.6 6.3 5.9zm-9.5 0c0 1.9 1.5 3.4 3.3 3.4 1.8 0 3.2-1.5 3.2-3.4s-1.4-3.4-3.2-3.4c-1.8 0-3.3 1.5-3.3 3.4zM126.4 96.2l-2.1-8-2.2 8h-3l-3.8-11.5h3.1l2.3 8.5 2.2-8.5h2.9l2.3 8.5 2.2-8.5h3l-3.8 11.5h-3.1zM142.4 96.2l-5.3-7.1v7.1h-2.8V84.7h2.6l5.3 7.1v-7.1h2.7v11.5h-2.5zM150.2 87v2.3h5.5v2.3h-5.5v2.3h6.3v2.3h-9.2V84.7h9V87h-6.1zM163.3 84.7c3.6 0 6.1 2.3 6.1 5.8 0 3.4-2.5 5.8-6.3 5.8h-4.8V84.7h5zm-2 9.2h2.1c1.8 0 3.1-1.4 3.1-3.4s-1.4-3.4-3.2-3.4h-2v6.8z"/></g></svg>