<svg xmlns="http://www.w3.org/2000/svg" viewBox="0 0 276 137"><defs><path id="a" d="M-227.9-309.5h-1.5v90h134v-90h-132.5zm0 3h131l-1.5-1.5v87l1.5-1.5h-131l1.5 1.5v-87l-1.5 1.5zm-21.5-23h174v130h-174v-130z"/></defs><defs><path id="b" d="M-222.9-304.5h-1.5v80h124v-80h-122.5zm0 3h121l-1.5-1.5v77l1.5-1.5h-121l1.5 1.5v-77l-1.5 1.5zm-21.5-23h164v120h-164v-120z"/></defs><defs><path id="c" d="M-157.9-289.5h-1.5v6h47v-6h-45.5zm0 3h44l-1.5-1.5v3l1.5-1.5h-44l1.5 1.5v-3l-1.5 1.5zm-21.5-23h87v46h-87v-46z"/></defs><defs><path id="d" d="M-157.9-283.5h-1.5v6h47v-6h-45.5zm0 3h44l-1.5-1.5v3l1.5-1.5h-44l1.5 1.5v-3l-1.5 1.5zm-21.5-23h87v46h-87v-46z"/></defs><defs><path id="e" d="M-157.9-277.5h-1.5v6h47v-6h-45.5zm0 3h44l-1.5-1.5v3l1.5-1.5h-44l1.5 1.5v-3l-1.5 1.5zm-21.5-23h87v46h-87v-46z"/></defs><defs><path id="f" d="M-157.9-271.5h-1.5v6h47v-6h-45.5zm0 3h44l-1.5-1.5v3l1.5-1.5h-44l1.5 1.5v-3l-1.5 1.5zm-21.5-23h87v46h-87v-46z"/></defs><defs><path id="g" d="M366.9-108.1h-1.5v38h142v-25.1l-.4-.4-11.4-12-.4-.5H366.9zm0 3h127.6l-1.1-.5 11.4 12-.4-1v23l1.5-1.5h-139l1.5 1.5v-35l-1.5 1.5zm-21.5-23h182v78h-182v-78z"/></defs><defs><path id="h" d="M399.9-56.7c-8 0-14.5-6.5-14.5-14.5s6.5-14.5 14.5-14.5 14.5 6.5 14.5 14.5-6.5 14.5-14.5 14.5zm0 3c9.7 0 17.5-7.8 17.5-17.5s-7.8-17.5-17.5-17.5-17.5 7.8-17.5 17.5 7.9 17.5 17.5 17.5zm-37.5-55h75v75h-75v-75z"/></defs><defs><path id="i" d="M399.9-63.7c-4.1 0-7.5-3.4-7.5-7.5s3.4-7.5 7.5-7.5 7.5 3.4 7.5 7.5c0 4.2-3.3 7.5-7.5 7.5zm0 3c5.8 0 10.5-4.7 10.5-10.5s-4.7-10.5-10.5-10.5-10.5 4.7-10.5 10.5 4.7 10.5 10.5 10.5zm-30.5-41h61v61h-61v-61z"/></defs><defs><path id="j" d="M466.2-56.7c-8 0-14.5-6.5-14.5-14.5s6.5-14.5 14.5-14.5 14.5 6.5 14.5 14.5-6.5 14.5-14.5 14.5zm0 3c9.7 0 17.5-7.8 17.5-17.5s-7.8-17.5-17.5-17.5-17.5 7.8-17.5 17.5 7.8 17.5 17.5 17.5zm-37.5-55h75v75h-75v-75z"/></defs><defs><path id="k" d="M466.2-63.7c-4.1 0-7.5-3.4-7.5-7.5s3.4-7.5 7.5-7.5 7.5 3.4 7.5 7.5c0 4.2-3.4 7.5-7.5 7.5zm0 3c5.8 0 10.5-4.7 10.5-10.5s-4.7-10.5-10.5-10.5-10.5 4.7-10.5 10.5 4.7 10.5 10.5 10.5zm-30.5-41h61v61h-61v-61z"/></defs><ellipse fill="#FFF" stroke="#091F2F" stroke-width="3" stroke-miterlimit="10" cx="144.6" cy="48.2" rx="30.1" ry="12.3"/><path fill="#FFF" stroke="#091F2F" stroke-width="3" stroke-miterlimit="10" d="M201.1 72.1c0 5-25.2 31.4-56.2 31.4S88.7 78.3 88.7 72.1c0-6.2 25.2-31.4 56.2-31.4s56.2 26.4 56.2 31.4zm-112.4 0h112.4"/><path d="M121.4 58c1.3 0 2.4-1.1 2.4-2.4V44.8c-1.6.6-3.2 1.2-4.8 1.9v8.9c.1 1.3 1.1 2.4 2.4 2.4zm11.8 0c1.3 0 2.4-1.1 2.4-2.4v-14c-1.6.3-3.2.6-4.8 1v12.9c0 1.4 1.1 2.5 2.4 2.5zm11.7 0c1.3 0 2.4-1.1 2.4-2.4V40.8h-1.6c-1.1 0-2.1 0-3.1.1v14.7c0 1.3 1 2.4 2.3 2.4zm11.8 0c1.3 0 2.4-1.1 2.4-2.4V42.3c-1.6-.4-3.2-.7-4.8-.9v14.2c0 1.3 1.1 2.4 2.4 2.4zm11.7 0c1.3 0 2.4-1.1 2.4-2.4v-9.3c-1.6-.7-3.1-1.3-4.8-1.9v11.2c0 1.3 1.1 2.4 2.4 2.4z" fill="#FFF" stroke="#091F2F" stroke-width="3" stroke-miterlimit="10"/></svg>