<svg xmlns="http://www.w3.org/2000/svg" xmlns:xlink="http://www.w3.org/1999/xlink" viewBox="0 0 276 137"><defs><path id="a" d="M-227.9-309.5h-1.5v90h134v-90h-132.5zm0 3h131l-1.5-1.5v87l1.5-1.5h-131l1.5 1.5v-87l-1.5 1.5zm-21.5-23h174v130h-174v-130z"/></defs><clipPath id="b"><use xlink:href="#a" overflow="visible"/></clipPath><g clip-path="url(#b)"><defs><path id="c" d="M-227.9-308h131v87h-131z"/></defs><clipPath id="d"><use xlink:href="#c" overflow="visible"/></clipPath><g clip-path="url(#d)"><defs><path id="e" d="M-836.9-612h1121V418h-1121z"/></defs></g></g><defs><path id="f" d="M-227.9-308h131v87h-131z"/></defs><clipPath id="g"><use xlink:href="#f" overflow="visible"/></clipPath><g clip-path="url(#g)"><defs><path id="h" d="M-836.9-612h1121V418h-1121z"/></defs></g><defs><path id="i" d="M-222.9-304.5h-1.5v80h124v-80h-122.5zm0 3h121l-1.5-1.5v77l1.5-1.5h-121l1.5 1.5v-77l-1.5 1.5zm-21.5-23h164v120h-164v-120z"/></defs><clipPath id="j"><use xlink:href="#i" overflow="visible"/></clipPath><g clip-path="url(#j)"><defs><path id="k" d="M-222.9-303h121v77h-121z"/></defs><clipPath id="l"><use xlink:href="#k" overflow="visible"/></clipPath><g clip-path="url(#l)"><defs><path id="m" d="M-836.9-612h1121V418h-1121z"/></defs></g></g><defs><path id="n" d="M-222.9-303h121v77h-121z"/></defs><clipPath id="o"><use xlink:href="#n" overflow="visible"/></clipPath><g clip-path="url(#o)"><defs><path id="p" d="M-836.9-612h1121V418h-1121z"/></defs></g><defs><path id="q" d="M-157.9-289.5h-1.5v6h47v-6h-45.5zm0 3h44l-1.5-1.5v3l1.5-1.5h-44l1.5 1.5v-3l-1.5 1.5zm-21.5-23h87v46h-87v-46z"/></defs><clipPath id="r"><use xlink:href="#q" overflow="visible"/></clipPath><g clip-path="url(#r)"><defs><path id="s" d="M-157.9-288h44v3h-44z"/></defs><clipPath id="t"><use xlink:href="#s" overflow="visible"/></clipPath><g clip-path="url(#t)"><defs><path id="u" d="M-836.9-612h1121V418h-1121z"/></defs></g></g><defs><path id="v" d="M-157.9-288h44v3h-44z"/></defs><clipPath id="w"><use xlink:href="#v" overflow="visible"/></clipPath><g clip-path="url(#w)"><defs><path id="x" d="M-836.9-612h1121V418h-1121z"/></defs></g><defs><path id="y" d="M-157.9-283.5h-1.5v6h47v-6h-45.5zm0 3h44l-1.5-1.5v3l1.5-1.5h-44l1.5 1.5v-3l-1.5 1.5zm-21.5-23h87v46h-87v-46z"/></defs><clipPath id="z"><use xlink:href="#y" overflow="visible"/></clipPath><g clip-path="url(#z)"><defs><path id="A" d="M-157.9-282h44v3h-44z"/></defs><clipPath id="B"><use xlink:href="#A" overflow="visible"/></clipPath><g clip-path="url(#B)"><defs><path id="C" d="M-836.9-612h1121V418h-1121z"/></defs></g></g><defs><path id="D" d="M-157.9-282h44v3h-44z"/></defs><clipPath id="E"><use xlink:href="#D" overflow="visible"/></clipPath><g clip-path="url(#E)"><defs><path id="F" d="M-836.9-612h1121V418h-1121z"/></defs></g><defs><path id="G" d="M-157.9-277.5h-1.5v6h47v-6h-45.5zm0 3h44l-1.5-1.5v3l1.5-1.5h-44l1.5 1.5v-3l-1.5 1.5zm-21.5-23h87v46h-87v-46z"/></defs><clipPath id="H"><use xlink:href="#G" overflow="visible"/></clipPath><g clip-path="url(#H)"><defs><path id="I" d="M-157.9-276h44v3h-44z"/></defs><clipPath id="J"><use xlink:href="#I" overflow="visible"/></clipPath><g clip-path="url(#J)"><defs><path id="K" d="M-836.9-612h1121V418h-1121z"/></defs></g></g><g><defs><path id="L" d="M-157.9-276h44v3h-44z"/></defs><clipPath id="M"><use xlink:href="#L" overflow="visible"/></clipPath><g clip-path="url(#M)"><defs><path id="N" d="M-836.9-612h1121V418h-1121z"/></defs></g></g><g><defs><path id="O" d="M-157.9-271.5h-1.5v6h47v-6h-45.5zm0 3h44l-1.5-1.5v3l1.5-1.5h-44l1.5 1.5v-3l-1.5 1.5zm-21.5-23h87v46h-87v-46z"/></defs><clipPath id="P"><use xlink:href="#O" overflow="visible"/></clipPath><g clip-path="url(#P)"><defs><path id="Q" d="M-157.9-270h44v3h-44z"/></defs><clipPath id="R"><use xlink:href="#Q" overflow="visible"/></clipPath><g clip-path="url(#R)"><defs><path id="S" d="M-836.9-612h1121V418h-1121z"/></defs></g></g></g><g><defs><path id="T" d="M-157.9-270h44v3h-44z"/></defs><clipPath id="U"><use xlink:href="#T" overflow="visible"/></clipPath><g clip-path="url(#U)"><defs><path id="V" d="M-836.9-612h1121V418h-1121z"/></defs></g></g><g><defs><path id="W" d="M366.9-108.1h-1.5v38h142v-25.1l-.4-.4-11.4-12-.4-.5H366.9zm0 3h127.6l-1.1-.5 11.4 12-.4-1v23l1.5-1.5h-139l1.5 1.5v-35l-1.5 1.5zm-21.5-23h182v78h-182v-78z"/></defs><clipPath id="X"><use xlink:href="#W" overflow="visible"/></clipPath><g clip-path="url(#X)"><defs><path id="Y" d="M366.9-106.6h127.6l11.4 12v23h-139z"/></defs><clipPath id="Z"><use xlink:href="#Y" overflow="visible"/></clipPath><g clip-path="url(#Z)"><defs><path id="aa" d="M-5.1-641.6h1121v1030H-5.1z"/></defs></g></g></g><g><defs><path id="ab" d="M366.9-106.6h127.6l11.4 12v23h-139z"/></defs><clipPath id="ac"><use xlink:href="#ab" overflow="visible"/></clipPath><g clip-path="url(#ac)"><defs><path id="ad" d="M-5.1-641.6h1121v1030H-5.1z"/></defs></g></g><g><defs><path id="ae" d="M399.9-56.7c-8 0-14.5-6.5-14.5-14.5s6.5-14.5 14.5-14.5 14.5 6.5 14.5 14.5-6.5 14.5-14.5 14.5zm0 3c9.7 0 17.5-7.8 17.5-17.5s-7.8-17.5-17.5-17.5-17.5 7.8-17.5 17.5 7.9 17.5 17.5 17.5zm-37.5-55h75v75h-75v-75z"/></defs><clipPath id="af"><use xlink:href="#ae" overflow="visible"/></clipPath><g clip-path="url(#af)"><defs><circle id="ag" cx="399.9" cy="-71.2" r="16"/></defs><clipPath id="ah"><use xlink:href="#ag" overflow="visible"/></clipPath><g clip-path="url(#ah)"><defs><path id="ai" d="M-5.1-641.6h1121v1030H-5.1z"/></defs></g></g></g><g><defs><circle id="aj" cx="399.9" cy="-71.2" r="16"/></defs><clipPath id="ak"><use xlink:href="#aj" overflow="visible"/></clipPath><g clip-path="url(#ak)"><defs><path id="al" d="M-5.1-641.6h1121v1030H-5.1z"/></defs></g></g><g><defs><path id="am" d="M399.9-63.7c-4.1 0-7.5-3.4-7.5-7.5s3.4-7.5 7.5-7.5 7.5 3.4 7.5 7.5c0 4.2-3.3 7.5-7.5 7.5zm0 3c5.8 0 10.5-4.7 10.5-10.5s-4.7-10.5-10.5-10.5-10.5 4.7-10.5 10.5 4.7 10.5 10.5 10.5zm-30.5-41h61v61h-61v-61z"/></defs><clipPath id="an"><use xlink:href="#am" overflow="visible"/></clipPath><g clip-path="url(#an)"><defs><circle id="ao" cx="399.9" cy="-71.2" r="9"/></defs><clipPath id="ap"><use xlink:href="#ao" overflow="visible"/></clipPath><g clip-path="url(#ap)"><defs><path id="aq" d="M-5.1-641.6h1121v1030H-5.1z"/></defs></g></g></g><g><defs><circle id="ar" cx="399.9" cy="-71.2" r="9"/></defs><clipPath id="as"><use xlink:href="#ar" overflow="visible"/></clipPath><g clip-path="url(#as)"><defs><path id="at" d="M-5.1-641.6h1121v1030H-5.1z"/></defs></g></g><g><defs><path id="au" d="M466.2-56.7c-8 0-14.5-6.5-14.5-14.5s6.5-14.5 14.5-14.5 14.5 6.5 14.5 14.5-6.5 14.5-14.5 14.5zm0 3c9.7 0 17.5-7.8 17.5-17.5s-7.8-17.5-17.5-17.5-17.5 7.8-17.5 17.5 7.8 17.5 17.5 17.5zm-37.5-55h75v75h-75v-75z"/></defs><clipPath id="av"><use xlink:href="#au" overflow="visible"/></clipPath><g clip-path="url(#av)"><defs><circle id="aw" cx="466.2" cy="-71.2" r="16"/></defs><clipPath id="ax"><use xlink:href="#aw" overflow="visible"/></clipPath><g clip-path="url(#ax)"><defs><path id="ay" d="M-5.1-641.6h1121v1030H-5.1z"/></defs></g></g></g><g><defs><circle id="az" cx="466.2" cy="-71.2" r="16"/></defs><clipPath id="aA"><use xlink:href="#az" overflow="visible"/></clipPath><g clip-path="url(#aA)"><defs><path id="aB" d="M-5.1-641.6h1121v1030H-5.1z"/></defs></g></g><g><defs><path id="aC" d="M466.4-111.5l-7.7-15.6h-27.2v15.6h34.9zm-75.2 0l7.4-15.6h27.2v15.6h-34.6zm-10.3 5.3l14.1-26.9h66.8l15.3 27.9-96.2-1z"/></defs><clipPath id="aD"><use xlink:href="#aC" overflow="visible"/></clipPath><g clip-path="url(#aD)"><defs><path id="aE" d="M-5.1-641.6h1121v1030H-5.1z"/></defs></g></g><g><defs><path id="aF" d="M466.2-63.7c-4.1 0-7.5-3.4-7.5-7.5s3.4-7.5 7.5-7.5 7.5 3.4 7.5 7.5c0 4.2-3.4 7.5-7.5 7.5zm0 3c5.8 0 10.5-4.7 10.5-10.5s-4.7-10.5-10.5-10.5-10.5 4.7-10.5 10.5 4.7 10.5 10.5 10.5zm-30.5-41h61v61h-61v-61z"/></defs><clipPath id="aG"><use xlink:href="#aF" overflow="visible"/></clipPath><g clip-path="url(#aG)"><defs><circle id="aH" cx="466.2" cy="-71.2" r="9"/></defs><clipPath id="aI"><use xlink:href="#aH" overflow="visible"/></clipPath><g clip-path="url(#aI)"><defs><path id="aJ" d="M-5.1-641.6h1121v1030H-5.1z"/></defs></g></g></g><g><defs><circle id="aK" cx="466.2" cy="-71.2" r="9"/></defs><clipPath id="aL"><use xlink:href="#aK" overflow="visible"/></clipPath><g clip-path="url(#aL)"><defs><path id="aM" d="M-5.1-641.6h1121v1030H-5.1z"/></defs></g></g><ellipse fill="#FFF" stroke="#091F2F" stroke-width="3" stroke-miterlimit="10" cx="144.6" cy="48.2" rx="30.1" ry="12.3"/><path fill="#FFF" stroke="#091F2F" stroke-width="3" stroke-miterlimit="10" d="M201.1 72.1c0 5-25.2 31.4-56.2 31.4S88.7 78.3 88.7 72.1c0-6.2 25.2-31.4 56.2-31.4s56.2 26.4 56.2 31.4zM88.7 72.1h112.4"/><g fill="#FFF" stroke="#091F2F" stroke-width="3" stroke-miterlimit="10"><path d="M121.4 58c1.3 0 2.4-1.1 2.4-2.4V44.8c-1.6.6-3.2 1.2-4.8 1.9v8.9c.1 1.3 1.1 2.4 2.4 2.4zM133.2 58c1.3 0 2.4-1.1 2.4-2.4v-14c-1.6.3-3.2.6-4.8 1v12.9c0 1.4 1.1 2.5 2.4 2.5zM144.9 58c1.3 0 2.4-1.1 2.4-2.4V40.8h-1.6c-1.1 0-2.1 0-3.1.1v14.7c0 1.3 1 2.4 2.3 2.4zM156.7 58c1.3 0 2.4-1.1 2.4-2.4V42.3c-1.6-.4-3.2-.7-4.8-.9v14.2c0 1.3 1.1 2.4 2.4 2.4zM168.4 58c1.3 0 2.4-1.1 2.4-2.4v-9.3c-1.6-.7-3.1-1.3-4.8-1.9v11.2c0 1.3 1.1 2.4 2.4 2.4z"/></g></svg>