<svg id="Layer_1" data-name="Layer 1" xmlns="http://www.w3.org/2000/svg" viewBox="0 0 276 137"><defs><style>.cls-1,.cls-4,.cls-5,.cls-7{fill:#fff}.cls-1,.cls-10,.cls-9{stroke:#0e1f2d}.cls-1,.cls-10,.cls-5,.cls-6,.cls-9{stroke-miterlimit:10;stroke-width:3px}.cls-1{clip-rule:evenodd}.cls-10,.cls-2,.cls-6,.cls-9{fill:none}.cls-3{fill:#0c1f2e}.cls-5,.cls-6{stroke:#101f2c}.cls-10,.cls-7{fill-rule:evenodd}.cls-8{clip-path:url(#clip-path)}</style><clipPath id="clip-path"><path class="cls-1" d="M67.23 388.73H176.7l9.82 9.65v18.51H67.23v-28.16z"/></clipPath><clipPath id="clip-path-2"><circle class="cls-2" cx="-441.7" cy="545.62" r="50.5"/></clipPath><clipPath id="clip-path-3"><circle class="cls-2" cx="-441.7" cy="545.62" r="43.5"/></clipPath></defs><path class="cls-3" d="M80.26 26.09v78.47H68.4v1.55a13.76 13.76 0 0 0 13.4 13.69l99.31-.05a13.49 13.49 0 0 0 13.66-13.28l.18-80.37zm1.58 90.61a10.65 10.65 0 0 1-10.22-9.05h95.91a13.27 13.27 0 0 0 4.72 9zm109.84-10.24a10.4 10.4 0 0 1-10.57 10.19 10.2 10.2 0 0 1-10.56-10.51v-1.55H83.36V29.18h108.49z"/><path class="cls-4" d="M172.25 116.64l-90.41.05a10.65 10.65 0 0 1-10.22-9.05h95.91a13.27 13.27 0 0 0 4.72 9z"/><path class="cls-4" d="M83.36 29.18v75.37h87.19v1.55a10.2 10.2 0 0 0 10.56 10.51 10.4 10.4 0 0 0 10.57-10.19l.17-77.27zm97 63.9h-48.52V90h48.49zm0-12.38h-48.52v-3.1h48.49zm0-12.38h-48.52v-3.1h48.49zm0-12.38h-48.52v-3.1h48.49zm0-12.38h-48.52v-3.1h48.49z"/><path class="cls-3" d="M131.84 40.47h48.49v3.1h-48.49zm0 12.38h48.49v3.1h-48.49zm0 12.38h48.49v3.1h-48.49zm0 12.38h48.49v3.1h-48.49zm0 12.38h48.49v3.1h-48.49z"/><path class="cls-5" d="M104 44.86c3.09 2.18 3.15 7.41 3.15 7.41s-5 1.7-8-.48S96 44.38 96 44.38s4.9-1.69 8 .48zm10.53 14.43a6.57 6.57 0 0 0-6.33-6.65s-.39.25-.39 0a6.57 6.57 0 0 0-6.43 6.49c0 3.63-1.62 6.75-3.11 9.73a17.15 17.15 0 0 0-.79 13.87 11.55 11.55 0 0 0 1.4 2.63c2.51 3.41 7.78 3.73 8.72 3.74a12.13 12.13 0 0 0 12.27-12c.07-5.73-5.43-10.68-5.34-17.81z"/><path class="cls-6" d="M113.78 45.15s-6.35 2.27-6.35 8.33"/><path class="cls-7" d="M67.23 388.73H176.7l9.82 9.65v18.51H67.23v-28.16z"/><g class="cls-8"><path class="cls-4" d="M-252.03-41.78h962.06v828.83h-962.06z"/><path class="cls-9" d="M-252.03-41.78h962.06v828.83h-962.06z"/></g><path class="cls-10" d="M67.23 388.73H176.7l9.82 9.65v18.51H67.23v-28.16z"/></svg>