<svg xmlns="http://www.w3.org/2000/svg" xmlns:xlink="http://www.w3.org/1999/xlink" viewBox="0 0 276 137"><defs><path id="a" d="M-217.5-363.6c-21.5 0-38.9-17.4-38.9-38.9s17.4-38.9 38.9-38.9 38.9 17.4 38.9 38.9-17.4 38.9-38.9 38.9zm0 3c23.2 0 41.9-18.8 41.9-41.9s-18.8-41.9-41.9-41.9c-23.2 0-41.9 18.8-41.9 41.9s18.7 41.9 41.9 41.9zm-62-103.8h123.9v123.9h-123.9v-123.9z"/></defs><clipPath id="b"><use xlink:href="#a" overflow="visible"/></clipPath><g clip-path="url(#b)"><defs><circle id="c" cx="-217.5" cy="-402.5" r="40.4"/></defs></g><defs><circle id="d" cx="-217.5" cy="-402.5" r="40.4"/></defs><defs><path id="e" d="M-104.5-363.6c-21.5 0-38.9-17.4-38.9-38.9s17.4-38.9 38.9-38.9 38.9 17.4 38.9 38.9-17.4 38.9-38.9 38.9zm0 3c23.2 0 41.9-18.8 41.9-41.9s-18.8-41.9-41.9-41.9c-23.2 0-41.9 18.8-41.9 41.9s18.7 41.9 41.9 41.9zm-62-103.8h123.9v123.9h-123.9v-123.9z"/></defs><clipPath id="f"><use xlink:href="#e" overflow="visible"/></clipPath><g clip-path="url(#f)"><defs><circle id="g" cx="-104.5" cy="-402.5" r="40.4"/></defs></g><defs><circle id="h" cx="-104.5" cy="-402.5" r="40.4"/></defs><defs><path id="i" d="M83.8-438.1h-1.5v84h108v-84H83.8zm0 3h105l-1.5-1.5v81l1.5-1.5h-105l1.5 1.5v-81l-1.5 1.5zm-21.5-23h148v124h-148v-124z"/></defs><clipPath id="j"><use xlink:href="#i" overflow="visible"/></clipPath><g clip-path="url(#j)"><defs><path id="k" d="M83.8-436.6h105v81h-105z"/></defs></g><defs><path id="l" d="M83.8-436.6h105v81h-105z"/></defs><defs><path id="m" d="M77.8-421.1h-2.2l.9-2.1 9.1-22 .4-.9h100.9l.4.9 9.1 22 .9 2.1H77.8zm0-3h117l-1.4 2.1-9.1-22 1.4.9H86.9l1.4-.9-9.1 22-1.4-2.1zm-22.2 23H217v-65H55.6v65z"/></defs><clipPath id="n"><use xlink:href="#m" overflow="visible"/></clipPath><g clip-path="url(#n)"><defs><path id="o" d="M77.8-422.6h117l-9.1-22H86.9z"/></defs></g><defs><path id="p" d="M77.8-422.6h117l-9.1-22H86.9z"/></defs><defs><path id="q" d="M162.8-454.1h-1.5v19h15v-19h-13.5zm0 3h12l-1.5-1.5v16l1.5-1.5h-12l1.5 1.5v-16l-1.5 1.5zm-21.5-23h55v59h-55v-59z"/></defs><clipPath id="r"><use xlink:href="#q" overflow="visible"/></clipPath><g clip-path="url(#r)"><defs><path id="s" d="M162.8-452.6h12v16h-12z"/></defs></g><defs><path id="t" d="M162.8-452.6h12v16h-12z"/></defs><defs><path id="u" d="M96.8-388.1h-1.5v34h24v-34H96.8zm0 3h21l-1.5-1.5v31l1.5-1.5h-21l1.5 1.5v-31l-1.5 1.5zm-21.5-23h64v74h-64v-74z"/></defs><clipPath id="v"><use xlink:href="#u" overflow="visible"/></clipPath><g clip-path="url(#v)"><defs><path id="w" d="M96.8-386.6h21v31h-21z"/></defs></g><defs><path id="x" d="M96.8-386.6h21v31h-21z"/></defs><defs><path id="y" d="M97.8-416.1h-1.5v22h22v-22H97.8zm0 3h19l-1.5-1.5v19l1.5-1.5h-19l1.5 1.5v-19l-1.5 1.5zm-21.5-23h62v62h-62v-62z"/></defs><clipPath id="z"><use xlink:href="#y" overflow="visible"/></clipPath><g clip-path="url(#z)"><defs><path id="A" d="M97.8-414.6h19v19h-19z"/></defs></g><defs><path id="B" d="M97.8-414.6h19v19h-19z"/></defs><defs><path id="C" d="M102.8-411.1h-1.5v12h12v-12h-10.5zm0 3h9l-1.5-1.5v9l1.5-1.5h-9l1.5 1.5v-9l-1.5 1.5zm-21.5-23h52v52h-52v-52z"/></defs><clipPath id="D"><use xlink:href="#C" overflow="visible"/></clipPath><g clip-path="url(#D)"><defs><path id="E" d="M102.8-409.6h9v9h-9z"/></defs></g><defs><path id="F" d="M102.8-409.6h9v9h-9z"/></defs><defs><path id="G" d="M127.8-416.1h-1.5v22h22v-22h-20.5zm0 3h19l-1.5-1.5v19l1.5-1.5h-19l1.5 1.5v-19l-1.5 1.5zm-21.5-23h62v62h-62v-62z"/></defs><clipPath id="H"><use xlink:href="#G" overflow="visible"/></clipPath><g clip-path="url(#H)"><defs><path id="I" d="M127.8-414.6h19v19h-19z"/></defs></g><defs><path id="J" d="M127.8-414.6h19v19h-19z"/></defs><defs><path id="K" d="M156.8-416.1h-1.5v22h22v-22h-20.5zm0 3h19l-1.5-1.5v19l1.5-1.5h-19l1.5 1.5v-19l-1.5 1.5zm-21.5-23h62v62h-62v-62z"/></defs><clipPath id="L"><use xlink:href="#K" overflow="visible"/></clipPath><g clip-path="url(#L)"><defs><path id="M" d="M156.8-414.6h19v19h-19z"/></defs></g><defs><path id="N" d="M156.8-414.6h19v19h-19z"/></defs><defs><path id="O" d="M127.8-388.1h-1.5v22h22v-22h-20.5zm0 3h19l-1.5-1.5v19l1.5-1.5h-19l1.5 1.5v-19l-1.5 1.5zm-21.5-23h62v62h-62v-62z"/></defs><clipPath id="P"><use xlink:href="#O" overflow="visible"/></clipPath><g clip-path="url(#P)"><defs><path id="Q" d="M127.8-386.6h19v19h-19z"/></defs></g><defs><path id="R" d="M127.8-386.6h19v19h-19z"/></defs><defs><path id="S" d="M156.8-388.1h-1.5v22h22v-22h-20.5zm0 3h19l-1.5-1.5v19l1.5-1.5h-19l1.5 1.5v-19l-1.5 1.5zm-21.5-23h62v62h-62v-62z"/></defs><clipPath id="T"><use xlink:href="#S" overflow="visible"/></clipPath><g clip-path="url(#T)"><defs><path id="U" d="M156.8-386.6h19v19h-19z"/></defs></g><defs><path id="V" d="M156.8-386.6h19v19h-19z"/></defs><defs><path id="W" d="M132.8-411.1h-1.5v12h12v-12h-10.5zm0 3h9l-1.5-1.5v9l1.5-1.5h-9l1.5 1.5v-9l-1.5 1.5zm-21.5-23h52v52h-52v-52z"/></defs><clipPath id="X"><use xlink:href="#W" overflow="visible"/></clipPath><g clip-path="url(#X)"><defs><path id="Y" d="M132.8-409.6h9v9h-9z"/></defs></g><defs><path id="Z" d="M132.8-409.6h9v9h-9z"/></defs><defs><path id="aa" d="M161.8-411.1h-1.5v12h12v-12h-10.5zm0 3h9l-1.5-1.5v9l1.5-1.5h-9l1.5 1.5v-9l-1.5 1.5zm-21.5-23h52v52h-52v-52z"/></defs><clipPath id="ab"><use xlink:href="#aa" overflow="visible"/></clipPath><g clip-path="url(#ab)"><defs><path id="ac" d="M161.8-409.6h9v9h-9z"/></defs></g><defs><path id="ad" d="M161.8-409.6h9v9h-9z"/></defs><defs><path id="ae" d="M132.8-383.1h-1.5v12h12v-12h-10.5zm0 3h9l-1.5-1.5v9l1.5-1.5h-9l1.5 1.5v-9l-1.5 1.5zm-21.5-23h52v52h-52v-52z"/></defs><clipPath id="af"><use xlink:href="#ae" overflow="visible"/></clipPath><g clip-path="url(#af)"><defs><path id="ag" d="M132.8-381.6h9v9h-9z"/></defs></g><defs><path id="ah" d="M132.8-381.6h9v9h-9z"/></defs><defs><path id="ai" d="M161.8-383.1h-1.5v12h12v-12h-10.5zm0 3h9l-1.5-1.5v9l1.5-1.5h-9l1.5 1.5v-9l-1.5 1.5zm-21.5-23h52v52h-52v-52z"/></defs><clipPath id="aj"><use xlink:href="#ai" overflow="visible"/></clipPath><g clip-path="url(#aj)"><defs><path id="ak" d="M161.8-381.6h9v9h-9z"/></defs></g><defs><path id="al" d="M161.8-381.6h9v9h-9z"/></defs><defs><path id="am" d="M138-199.7c-27.1 0-49-21.9-49-49s21.9-49 49-49 49 21.9 49 49c0 27-21.9 49-49 49zm0 3c28.7 0 52-23.3 52-52s-23.3-52-52-52-52 23.3-52 52 23.3 52 52 52zm-72-124h144v144H66v-144z"/></defs><clipPath id="an"><use xlink:href="#am" overflow="visible"/></clipPath><g clip-path="url(#an)"><defs><circle id="ao" cx="138" cy="-248.7" r="50.5"/></defs></g><defs><circle id="ap" cx="138" cy="-248.7" r="50.5"/></defs><defs><circle id="aq" cx="138" cy="-248.7" r="43.5"/></defs><defs><path id="ar" d="M138.7-32.5c-24.6 0-44.6-20-44.6-44.6s20-44.6 44.6-44.6 44.6 20 44.6 44.6-20 44.6-44.6 44.6zm0 2.7c26.1 0 47.3-21.2 47.3-47.3s-21.2-47.3-47.3-47.3-47.3 21.2-47.3 47.3 21.2 47.3 47.3 47.3zM73.2-142.6h131v131h-131v-131z"/></defs><clipPath id="as"><use xlink:href="#ar" overflow="visible"/></clipPath><g clip-path="url(#as)"><defs><circle id="at" cx="138.7" cy="-77.1" r="45.9"/></defs></g><defs><circle id="au" cx="138.7" cy="-77.1" r="45.9"/></defs><defs><circle id="av" cx="138.7" cy="-77.1" r="39.6"/></defs><path fill="#FFF" stroke="#0C1F2E" stroke-width="3" stroke-linecap="round" stroke-miterlimit="10" d="M169.3 110.4h-64V26.7h64v19.1z"/><path fill="none" stroke="#0C1F2E" stroke-width="3" stroke-linecap="round" stroke-miterlimit="10" d="M97.4 20.5h79.1v96.2H97.4z"/><path fill="#FFF" stroke="#0C1F2E" stroke-width="3" stroke-linecap="round" stroke-miterlimit="10" d="M144.4 16.5c-.3-3-3.3-6.1-6.8-6.1s-6.4 3.1-6.8 6.1h-8.3v10h30v-10h-8.1z"/><circle fill="#0C1F2E" cx="137.6" cy="17" r="2"/><path fill="#FFF" stroke="#0C1F2E" stroke-width="3" stroke-linecap="round" stroke-miterlimit="10" d="M134.7 38.5h10.1l-7 16h11.4l-10.3 19h10.3l-16.5 22.1 3.7-16.1h-9.9l9.6-19H124z"/><defs><path id="aw" d="M677.5 34.2H676v84h108v-84H677.5zm0 3h105l-1.5-1.5v81l1.5-1.5h-105l1.5 1.5v-81l-1.5 1.5zm-21.5-23h148v124H656v-124z"/></defs><clipPath id="ax"><use xlink:href="#aw" overflow="visible"/></clipPath><g clip-path="url(#ax)"><defs><path id="ay" d="M677.5 35.7h105v81h-105z"/></defs></g><defs><path id="az" d="M677.5 35.7h105v81h-105z"/></defs><defs><path id="aA" d="M671.5 51.2h-2.2l.9-2.1 9.1-22 .4-.9h100.9l.4.9 9.1 22 .9 2.1H671.5zm0-3h117l-1.4 2.1-9.1-22 1.4.9h-98.9l1.4-.9-9.1 22-1.3-2.1zm-22.2 23h161.5v-65H649.3v65z"/></defs><clipPath id="aB"><use xlink:href="#aA" overflow="visible"/></clipPath><g clip-path="url(#aB)"><defs><path id="aC" d="M671.5 49.7h117l-9.1-22h-98.8z"/></defs></g><defs><path id="aD" d="M671.5 49.7h117l-9.1-22h-98.8z"/></defs><defs><path id="aE" d="M756.5 18.2H755v19h15v-19h-13.5zm0 3h12l-1.5-1.5v16l1.5-1.5h-12l1.5 1.5v-16l-1.5 1.5zM735-1.8h55v59h-55v-59z"/></defs><clipPath id="aF"><use xlink:href="#aE" overflow="visible"/></clipPath><g clip-path="url(#aF)"><defs><path id="aG" d="M756.5 19.7h12v16h-12z"/></defs></g><defs><path id="aH" d="M756.5 19.7h12v16h-12z"/></defs><defs><path id="aI" d="M690.5 84.2H689v34h24v-34h-22.5zm0 3h21l-1.5-1.5v31l1.5-1.5h-21l1.5 1.5v-31l-1.5 1.5zm-21.5-23h64v74h-64v-74z"/></defs><clipPath id="aJ"><use xlink:href="#aI" overflow="visible"/></clipPath><g clip-path="url(#aJ)"><defs><path id="aK" d="M690.5 85.7h21v31h-21z"/></defs></g><defs><path id="aL" d="M690.5 85.7h21v31h-21z"/></defs><defs><path id="aM" d="M691.5 56.2H690v22h22v-22h-20.5zm0 3h19l-1.5-1.5v19l1.5-1.5h-19l1.5 1.5v-19l-1.5 1.5zm-21.5-23h62v62h-62v-62z"/></defs><clipPath id="aN"><use xlink:href="#aM" overflow="visible"/></clipPath><g clip-path="url(#aN)"><defs><path id="aO" d="M691.5 57.7h19v19h-19z"/></defs></g><defs><path id="aP" d="M691.5 57.7h19v19h-19z"/></defs><defs><path id="aQ" d="M696.5 61.2H695v12h12v-12h-10.5zm0 3h9l-1.5-1.5v9l1.5-1.5h-9l1.5 1.5v-9l-1.5 1.5zm-21.5-23h52v52h-52v-52z"/></defs><clipPath id="aR"><use xlink:href="#aQ" overflow="visible"/></clipPath><g clip-path="url(#aR)"><defs><path id="aS" d="M696.5 62.7h9v9h-9z"/></defs></g><defs><path id="aT" d="M696.5 62.7h9v9h-9z"/></defs><defs><path id="aU" d="M721.5 56.2H720v22h22v-22h-20.5zm0 3h19l-1.5-1.5v19l1.5-1.5h-19l1.5 1.5v-19l-1.5 1.5zm-21.5-23h62v62h-62v-62z"/></defs><clipPath id="aV"><use xlink:href="#aU" overflow="visible"/></clipPath><g clip-path="url(#aV)"><defs><path id="aW" d="M721.5 57.7h19v19h-19z"/></defs></g><defs><path id="aX" d="M721.5 57.7h19v19h-19z"/></defs><g><defs><path id="aY" d="M750.5 56.2H749v22h22v-22h-20.5zm0 3h19l-1.5-1.5v19l1.5-1.5h-19l1.5 1.5v-19l-1.5 1.5zm-21.5-23h62v62h-62v-62z"/></defs><clipPath id="aZ"><use xlink:href="#aY" overflow="visible"/></clipPath><g clip-path="url(#aZ)"><defs><path id="ba" d="M750.5 57.7h19v19h-19z"/></defs></g></g><g><defs><path id="bb" d="M750.5 57.7h19v19h-19z"/></defs></g><g><defs><path id="bc" d="M721.5 84.2H720v22h22v-22h-20.5zm0 3h19l-1.5-1.5v19l1.5-1.5h-19l1.5 1.5v-19l-1.5 1.5zm-21.5-23h62v62h-62v-62z"/></defs><clipPath id="bd"><use xlink:href="#bc" overflow="visible"/></clipPath><g clip-path="url(#bd)"><defs><path id="be" d="M721.5 85.7h19v19h-19z"/></defs></g></g><g><defs><path id="bf" d="M721.5 85.7h19v19h-19z"/></defs></g><g><defs><path id="bg" d="M750.5 84.2H749v22h22v-22h-20.5zm0 3h19l-1.5-1.5v19l1.5-1.5h-19l1.5 1.5v-19l-1.5 1.5zm-21.5-23h62v62h-62v-62z"/></defs><clipPath id="bh"><use xlink:href="#bg" overflow="visible"/></clipPath><g clip-path="url(#bh)"><defs><path id="bi" d="M750.5 85.7h19v19h-19z"/></defs></g></g><g><defs><path id="bj" d="M750.5 85.7h19v19h-19z"/></defs></g><g><defs><path id="bk" d="M726.5 61.2H725v12h12v-12h-10.5zm0 3h9l-1.5-1.5v9l1.5-1.5h-9l1.5 1.5v-9l-1.5 1.5zm-21.5-23h52v52h-52v-52z"/></defs><clipPath id="bl"><use xlink:href="#bk" overflow="visible"/></clipPath><g clip-path="url(#bl)"><defs><path id="bm" d="M726.5 62.7h9v9h-9z"/></defs></g></g><g><defs><path id="bn" d="M726.5 62.7h9v9h-9z"/></defs></g><g><defs><path id="bo" d="M755.5 61.2H754v12h12v-12h-10.5zm0 3h9l-1.5-1.5v9l1.5-1.5h-9l1.5 1.5v-9l-1.5 1.5zm-21.5-23h52v52h-52v-52z"/></defs><clipPath id="bp"><use xlink:href="#bo" overflow="visible"/></clipPath><g clip-path="url(#bp)"><defs><path id="bq" d="M755.5 62.7h9v9h-9z"/></defs></g></g><g><defs><path id="br" d="M755.5 62.7h9v9h-9z"/></defs></g><g><defs><path id="bs" d="M726.5 89.2H725v12h12v-12h-10.5zm0 3h9l-1.5-1.5v9l1.5-1.5h-9l1.5 1.5v-9l-1.5 1.5zm-21.5-23h52v52h-52v-52z"/></defs><clipPath id="bt"><use xlink:href="#bs" overflow="visible"/></clipPath><g clip-path="url(#bt)"><defs><path id="bu" d="M726.5 90.7h9v9h-9z"/></defs></g></g><g><defs><path id="bv" d="M726.5 90.7h9v9h-9z"/></defs></g><g><defs><path id="bw" d="M755.5 89.2H754v12h12v-12h-10.5zm0 3h9l-1.5-1.5v9l1.5-1.5h-9l1.5 1.5v-9l-1.5 1.5zm-21.5-23h52v52h-52v-52z"/></defs><clipPath id="bx"><use xlink:href="#bw" overflow="visible"/></clipPath><g clip-path="url(#bx)"><defs><path id="by" d="M755.5 90.7h9v9h-9z"/></defs></g></g><g><defs><path id="bz" d="M755.5 90.7h9v9h-9z"/></defs></g></svg>