<svg xmlns="http://www.w3.org/2000/svg" viewBox="0 0 276 137"><defs><path id="a" d="M-217.5-363.6c-21.5 0-38.9-17.4-38.9-38.9s17.4-38.9 38.9-38.9 38.9 17.4 38.9 38.9-17.4 38.9-38.9 38.9zm0 3c23.2 0 41.9-18.8 41.9-41.9s-18.8-41.9-41.9-41.9c-23.2 0-41.9 18.8-41.9 41.9s18.7 41.9 41.9 41.9zm-62-103.8h123.9v123.9h-123.9v-123.9z"/></defs><defs><path id="b" d="M-104.5-363.6c-21.5 0-38.9-17.4-38.9-38.9s17.4-38.9 38.9-38.9 38.9 17.4 38.9 38.9-17.4 38.9-38.9 38.9zm0 3c23.2 0 41.9-18.8 41.9-41.9s-18.8-41.9-41.9-41.9c-23.2 0-41.9 18.8-41.9 41.9s18.7 41.9 41.9 41.9zm-62-103.8h123.9v123.9h-123.9v-123.9z"/></defs><defs><path id="c" d="M83.8-438.1h-1.5v84h108v-84H83.8zm0 3h105l-1.5-1.5v81l1.5-1.5h-105l1.5 1.5v-81l-1.5 1.5zm-21.5-23h148v124h-148v-124z"/></defs><defs><path id="d" d="M77.8-421.1h-2.2l.9-2.1 9.1-22 .4-.9h100.9l.4.9 9.1 22 .9 2.1H77.8zm0-3h117l-1.4 2.1-9.1-22 1.4.9H86.9l1.4-.9-9.1 22-1.4-2.1zm-22.2 23H217v-65H55.6v65z"/></defs><defs><path id="e" d="M162.8-454.1h-1.5v19h15v-19h-13.5zm0 3h12l-1.5-1.5v16l1.5-1.5h-12l1.5 1.5v-16l-1.5 1.5zm-21.5-23h55v59h-55v-59z"/></defs><defs><path id="f" d="M96.8-388.1h-1.5v34h24v-34H96.8zm0 3h21l-1.5-1.5v31l1.5-1.5h-21l1.5 1.5v-31l-1.5 1.5zm-21.5-23h64v74h-64v-74z"/></defs><defs><path id="g" d="M97.8-416.1h-1.5v22h22v-22H97.8zm0 3h19l-1.5-1.5v19l1.5-1.5h-19l1.5 1.5v-19l-1.5 1.5zm-21.5-23h62v62h-62v-62z"/></defs><defs><path id="h" d="M102.8-411.1h-1.5v12h12v-12h-10.5zm0 3h9l-1.5-1.5v9l1.5-1.5h-9l1.5 1.5v-9l-1.5 1.5zm-21.5-23h52v52h-52v-52z"/></defs><defs><path id="i" d="M127.8-416.1h-1.5v22h22v-22h-20.5zm0 3h19l-1.5-1.5v19l1.5-1.5h-19l1.5 1.5v-19l-1.5 1.5zm-21.5-23h62v62h-62v-62z"/></defs><defs><path id="j" d="M156.8-416.1h-1.5v22h22v-22h-20.5zm0 3h19l-1.5-1.5v19l1.5-1.5h-19l1.5 1.5v-19l-1.5 1.5zm-21.5-23h62v62h-62v-62z"/></defs><defs><path id="k" d="M127.8-388.1h-1.5v22h22v-22h-20.5zm0 3h19l-1.5-1.5v19l1.5-1.5h-19l1.5 1.5v-19l-1.5 1.5zm-21.5-23h62v62h-62v-62z"/></defs><defs><path id="l" d="M156.8-388.1h-1.5v22h22v-22h-20.5zm0 3h19l-1.5-1.5v19l1.5-1.5h-19l1.5 1.5v-19l-1.5 1.5zm-21.5-23h62v62h-62v-62z"/></defs><defs><path id="m" d="M132.8-411.1h-1.5v12h12v-12h-10.5zm0 3h9l-1.5-1.5v9l1.5-1.5h-9l1.5 1.5v-9l-1.5 1.5zm-21.5-23h52v52h-52v-52z"/></defs><defs><path id="n" d="M161.8-411.1h-1.5v12h12v-12h-10.5zm0 3h9l-1.5-1.5v9l1.5-1.5h-9l1.5 1.5v-9l-1.5 1.5zm-21.5-23h52v52h-52v-52z"/></defs><defs><path id="o" d="M132.8-383.1h-1.5v12h12v-12h-10.5zm0 3h9l-1.5-1.5v9l1.5-1.5h-9l1.5 1.5v-9l-1.5 1.5zm-21.5-23h52v52h-52v-52z"/></defs><defs><path id="p" d="M161.8-383.1h-1.5v12h12v-12h-10.5zm0 3h9l-1.5-1.5v9l1.5-1.5h-9l1.5 1.5v-9l-1.5 1.5zm-21.5-23h52v52h-52v-52z"/></defs><defs><path id="q" d="M138-199.7c-27.1 0-49-21.9-49-49s21.9-49 49-49 49 21.9 49 49c0 27-21.9 49-49 49zm0 3c28.7 0 52-23.3 52-52s-23.3-52-52-52-52 23.3-52 52 23.3 52 52 52zm-72-124h144v144H66v-144z"/></defs><defs><path id="r" d="M138.7-32.5c-24.6 0-44.6-20-44.6-44.6s20-44.6 44.6-44.6 44.6 20 44.6 44.6-20 44.6-44.6 44.6zm0 2.7c26.1 0 47.3-21.2 47.3-47.3s-21.2-47.3-47.3-47.3-47.3 21.2-47.3 47.3 21.2 47.3 47.3 47.3zM73.2-142.6h131v131h-131v-131z"/></defs><path fill="#FFF" stroke="#0C1F2E" stroke-width="3" stroke-linecap="round" stroke-miterlimit="10" d="M169.3 110.4h-64V26.7h64v19.1z"/><path fill="none" stroke="#0C1F2E" stroke-width="3" stroke-linecap="round" stroke-miterlimit="10" d="M97.4 20.5h79.1v96.2H97.4z"/><path fill="#FFF" stroke="#0C1F2E" stroke-width="3" stroke-linecap="round" stroke-miterlimit="10" d="M144.4 16.5c-.3-3-3.3-6.1-6.8-6.1s-6.4 3.1-6.8 6.1h-8.3v10h30v-10h-8.1z"/><circle fill="#0C1F2E" cx="137.6" cy="17" r="2"/><path fill="#FFF" stroke="#0C1F2E" stroke-width="3" stroke-linecap="round" stroke-miterlimit="10" d="M134.7 38.5h10.1l-7 16h11.4l-10.3 19h10.3l-16.5 22.1 3.7-16.1h-9.9l9.6-19H124z"/><defs><path id="s" d="M677.5 34.2H676v84h108v-84H677.5zm0 3h105l-1.5-1.5v81l1.5-1.5h-105l1.5 1.5v-81l-1.5 1.5zm-21.5-23h148v124H656v-124z"/></defs><defs><path id="t" d="M671.5 51.2h-2.2l.9-2.1 9.1-22 .4-.9h100.9l.4.9 9.1 22 .9 2.1H671.5zm0-3h117l-1.4 2.1-9.1-22 1.4.9h-98.9l1.4-.9-9.1 22-1.3-2.1zm-22.2 23h161.5v-65H649.3v65z"/></defs><defs><path id="u" d="M756.5 18.2H755v19h15v-19h-13.5zm0 3h12l-1.5-1.5v16l1.5-1.5h-12l1.5 1.5v-16l-1.5 1.5zM735-1.8h55v59h-55v-59z"/></defs><defs><path id="v" d="M690.5 84.2H689v34h24v-34h-22.5zm0 3h21l-1.5-1.5v31l1.5-1.5h-21l1.5 1.5v-31l-1.5 1.5zm-21.5-23h64v74h-64v-74z"/></defs><defs><path id="w" d="M691.5 56.2H690v22h22v-22h-20.5zm0 3h19l-1.5-1.5v19l1.5-1.5h-19l1.5 1.5v-19l-1.5 1.5zm-21.5-23h62v62h-62v-62z"/></defs><defs><path id="x" d="M696.5 61.2H695v12h12v-12h-10.5zm0 3h9l-1.5-1.5v9l1.5-1.5h-9l1.5 1.5v-9l-1.5 1.5zm-21.5-23h52v52h-52v-52z"/></defs><defs><path id="y" d="M721.5 56.2H720v22h22v-22h-20.5zm0 3h19l-1.5-1.5v19l1.5-1.5h-19l1.5 1.5v-19l-1.5 1.5zm-21.5-23h62v62h-62v-62z"/></defs><defs><path id="z" d="M750.5 56.2H749v22h22v-22h-20.5zm0 3h19l-1.5-1.5v19l1.5-1.5h-19l1.5 1.5v-19l-1.5 1.5zm-21.5-23h62v62h-62v-62z"/></defs><defs><path id="A" d="M721.5 84.2H720v22h22v-22h-20.5zm0 3h19l-1.5-1.5v19l1.5-1.5h-19l1.5 1.5v-19l-1.5 1.5zm-21.5-23h62v62h-62v-62z"/></defs><defs><path id="B" d="M750.5 84.2H749v22h22v-22h-20.5zm0 3h19l-1.5-1.5v19l1.5-1.5h-19l1.5 1.5v-19l-1.5 1.5zm-21.5-23h62v62h-62v-62z"/></defs><defs><path id="C" d="M726.5 61.2H725v12h12v-12h-10.5zm0 3h9l-1.5-1.5v9l1.5-1.5h-9l1.5 1.5v-9l-1.5 1.5zm-21.5-23h52v52h-52v-52z"/></defs><defs><path id="D" d="M755.5 61.2H754v12h12v-12h-10.5zm0 3h9l-1.5-1.5v9l1.5-1.5h-9l1.5 1.5v-9l-1.5 1.5zm-21.5-23h52v52h-52v-52z"/></defs><defs><path id="E" d="M726.5 89.2H725v12h12v-12h-10.5zm0 3h9l-1.5-1.5v9l1.5-1.5h-9l1.5 1.5v-9l-1.5 1.5zm-21.5-23h52v52h-52v-52z"/></defs><defs><path id="F" d="M755.5 89.2H754v12h12v-12h-10.5zm0 3h9l-1.5-1.5v9l1.5-1.5h-9l1.5 1.5v-9l-1.5 1.5zm-21.5-23h52v52h-52v-52z"/></defs></svg>