<svg xmlns="http://www.w3.org/2000/svg" xmlns:xlink="http://www.w3.org/1999/xlink" viewBox="0 0 276 137"><defs><path id="a" d="M-217.5-363.6c-21.5 0-38.9-17.4-38.9-38.9s17.4-38.9 38.9-38.9 38.9 17.4 38.9 38.9-17.4 38.9-38.9 38.9zm0 3c23.2 0 41.9-18.8 41.9-41.9s-18.8-41.9-41.9-41.9c-23.2 0-41.9 18.8-41.9 41.9s18.7 41.9 41.9 41.9zm-62-103.8h123.9v123.9h-123.9v-123.9z"/></defs><clipPath id="b"><use xlink:href="#a" overflow="visible"/></clipPath><g clip-path="url(#b)"><defs><circle id="c" cx="-217.5" cy="-402.5" r="40.4"/></defs><clipPath id="d"><use xlink:href="#c" overflow="visible"/></clipPath><g clip-path="url(#d)"><defs><path id="e" d="M-850.8-947.8h1121v1030h-1121z"/></defs></g></g><defs><circle id="f" cx="-217.5" cy="-402.5" r="40.4"/></defs><clipPath id="g"><use xlink:href="#f" overflow="visible"/></clipPath><g clip-path="url(#g)"><defs><path id="h" d="M-850.8-947.8h1121v1030h-1121z"/></defs></g><defs><path id="i" d="M-104.5-363.6c-21.5 0-38.9-17.4-38.9-38.9s17.4-38.9 38.9-38.9 38.9 17.4 38.9 38.9-17.4 38.9-38.9 38.9zm0 3c23.2 0 41.9-18.8 41.9-41.9s-18.8-41.9-41.9-41.9c-23.2 0-41.9 18.8-41.9 41.9s18.7 41.9 41.9 41.9zm-62-103.8h123.9v123.9h-123.9v-123.9z"/></defs><clipPath id="j"><use xlink:href="#i" overflow="visible"/></clipPath><g clip-path="url(#j)"><defs><circle id="k" cx="-104.5" cy="-402.5" r="40.4"/></defs><clipPath id="l"><use xlink:href="#k" overflow="visible"/></clipPath><g clip-path="url(#l)"><defs><path id="m" d="M-850.8-947.8h1121v1030h-1121z"/></defs></g></g><defs><circle id="n" cx="-104.5" cy="-402.5" r="40.4"/></defs><clipPath id="o"><use xlink:href="#n" overflow="visible"/></clipPath><g clip-path="url(#o)"><defs><path id="p" d="M-850.8-947.8h1121v1030h-1121z"/></defs></g><defs><path id="q" d="M83.8-438.1h-1.5v84h108v-84H83.8zm0 3h105l-1.5-1.5v81l1.5-1.5h-105l1.5 1.5v-81l-1.5 1.5zm-21.5-23h148v124h-148v-124z"/></defs><clipPath id="r"><use xlink:href="#q" overflow="visible"/></clipPath><g clip-path="url(#r)"><defs><path id="s" d="M83.8-436.6h105v81h-105z"/></defs><clipPath id="t"><use xlink:href="#s" overflow="visible"/></clipPath><g clip-path="url(#t)"><defs><path id="u" d="M-797.2-935.6h1121v1030h-1121z"/></defs></g></g><defs><path id="v" d="M83.8-436.6h105v81h-105z"/></defs><clipPath id="w"><use xlink:href="#v" overflow="visible"/></clipPath><g clip-path="url(#w)"><defs><path id="x" d="M-797.2-935.6h1121v1030h-1121z"/></defs></g><defs><path id="y" d="M77.8-421.1h-2.2l.9-2.1 9.1-22 .4-.9h100.9l.4.9 9.1 22 .9 2.1H77.8zm0-3h117l-1.4 2.1-9.1-22 1.4.9H86.9l1.4-.9-9.1 22-1.4-2.1zm-22.2 23H217v-65H55.6v65z"/></defs><clipPath id="z"><use xlink:href="#y" overflow="visible"/></clipPath><g clip-path="url(#z)"><defs><path id="A" d="M77.8-422.6h117l-9.1-22H86.9z"/></defs><clipPath id="B"><use xlink:href="#A" overflow="visible"/></clipPath><g clip-path="url(#B)"><defs><path id="C" d="M-797.2-935.6h1121v1030h-1121z"/></defs></g></g><defs><path id="D" d="M77.8-422.6h117l-9.1-22H86.9z"/></defs><clipPath id="E"><use xlink:href="#D" overflow="visible"/></clipPath><g clip-path="url(#E)"><defs><path id="F" d="M-797.2-935.6h1121v1030h-1121z"/></defs></g><defs><path id="G" d="M162.8-454.1h-1.5v19h15v-19h-13.5zm0 3h12l-1.5-1.5v16l1.5-1.5h-12l1.5 1.5v-16l-1.5 1.5zm-21.5-23h55v59h-55v-59z"/></defs><clipPath id="H"><use xlink:href="#G" overflow="visible"/></clipPath><g clip-path="url(#H)"><defs><path id="I" d="M162.8-452.6h12v16h-12z"/></defs><clipPath id="J"><use xlink:href="#I" overflow="visible"/></clipPath><g clip-path="url(#J)"><defs><path id="K" d="M-797.2-935.6h1121v1030h-1121z"/></defs></g></g><defs><path id="L" d="M162.8-452.6h12v16h-12z"/></defs><clipPath id="M"><use xlink:href="#L" overflow="visible"/></clipPath><g clip-path="url(#M)"><defs><path id="N" d="M-797.2-935.6h1121v1030h-1121z"/></defs></g><defs><path id="O" d="M96.8-388.1h-1.5v34h24v-34H96.8zm0 3h21l-1.5-1.5v31l1.5-1.5h-21l1.5 1.5v-31l-1.5 1.5zm-21.5-23h64v74h-64v-74z"/></defs><clipPath id="P"><use xlink:href="#O" overflow="visible"/></clipPath><g clip-path="url(#P)"><defs><path id="Q" d="M96.8-386.6h21v31h-21z"/></defs><clipPath id="R"><use xlink:href="#Q" overflow="visible"/></clipPath><g clip-path="url(#R)"><defs><path id="S" d="M-797.2-935.6h1121v1030h-1121z"/></defs></g></g><defs><path id="T" d="M96.8-386.6h21v31h-21z"/></defs><clipPath id="U"><use xlink:href="#T" overflow="visible"/></clipPath><g clip-path="url(#U)"><defs><path id="V" d="M-797.2-935.6h1121v1030h-1121z"/></defs></g><defs><path id="W" d="M97.8-416.1h-1.5v22h22v-22H97.8zm0 3h19l-1.5-1.5v19l1.5-1.5h-19l1.5 1.5v-19l-1.5 1.5zm-21.5-23h62v62h-62v-62z"/></defs><clipPath id="X"><use xlink:href="#W" overflow="visible"/></clipPath><g clip-path="url(#X)"><defs><path id="Y" d="M97.8-414.6h19v19h-19z"/></defs><clipPath id="Z"><use xlink:href="#Y" overflow="visible"/></clipPath><g clip-path="url(#Z)"><defs><path id="aa" d="M-797.2-935.6h1121v1030h-1121z"/></defs></g></g><defs><path id="ab" d="M97.8-414.6h19v19h-19z"/></defs><clipPath id="ac"><use xlink:href="#ab" overflow="visible"/></clipPath><g clip-path="url(#ac)"><defs><path id="ad" d="M-797.2-935.6h1121v1030h-1121z"/></defs></g><defs><path id="ae" d="M102.8-411.1h-1.5v12h12v-12h-10.5zm0 3h9l-1.5-1.5v9l1.5-1.5h-9l1.5 1.5v-9l-1.5 1.5zm-21.5-23h52v52h-52v-52z"/></defs><clipPath id="af"><use xlink:href="#ae" overflow="visible"/></clipPath><g clip-path="url(#af)"><defs><path id="ag" d="M102.8-409.6h9v9h-9z"/></defs><clipPath id="ah"><use xlink:href="#ag" overflow="visible"/></clipPath><g clip-path="url(#ah)"><defs><path id="ai" d="M-797.2-935.6h1121v1030h-1121z"/></defs></g></g><defs><path id="aj" d="M102.8-409.6h9v9h-9z"/></defs><clipPath id="ak"><use xlink:href="#aj" overflow="visible"/></clipPath><g clip-path="url(#ak)"><defs><path id="al" d="M-797.2-935.6h1121v1030h-1121z"/></defs></g><defs><path id="am" d="M127.8-416.1h-1.5v22h22v-22h-20.5zm0 3h19l-1.5-1.5v19l1.5-1.5h-19l1.5 1.5v-19l-1.5 1.5zm-21.5-23h62v62h-62v-62z"/></defs><clipPath id="an"><use xlink:href="#am" overflow="visible"/></clipPath><g clip-path="url(#an)"><defs><path id="ao" d="M127.8-414.6h19v19h-19z"/></defs><clipPath id="ap"><use xlink:href="#ao" overflow="visible"/></clipPath><g clip-path="url(#ap)"><defs><path id="aq" d="M-797.2-935.6h1121v1030h-1121z"/></defs></g></g><defs><path id="ar" d="M127.8-414.6h19v19h-19z"/></defs><clipPath id="as"><use xlink:href="#ar" overflow="visible"/></clipPath><g clip-path="url(#as)"><defs><path id="at" d="M-797.2-935.6h1121v1030h-1121z"/></defs></g><defs><path id="au" d="M156.8-416.1h-1.5v22h22v-22h-20.5zm0 3h19l-1.5-1.5v19l1.5-1.5h-19l1.5 1.5v-19l-1.5 1.5zm-21.5-23h62v62h-62v-62z"/></defs><clipPath id="av"><use xlink:href="#au" overflow="visible"/></clipPath><g clip-path="url(#av)"><defs><path id="aw" d="M156.8-414.6h19v19h-19z"/></defs><clipPath id="ax"><use xlink:href="#aw" overflow="visible"/></clipPath><g clip-path="url(#ax)"><defs><path id="ay" d="M-797.2-935.6h1121v1030h-1121z"/></defs></g></g><defs><path id="az" d="M156.8-414.6h19v19h-19z"/></defs><clipPath id="aA"><use xlink:href="#az" overflow="visible"/></clipPath><g clip-path="url(#aA)"><defs><path id="aB" d="M-797.2-935.6h1121v1030h-1121z"/></defs></g><defs><path id="aC" d="M127.8-388.1h-1.5v22h22v-22h-20.5zm0 3h19l-1.5-1.5v19l1.5-1.5h-19l1.5 1.5v-19l-1.5 1.5zm-21.5-23h62v62h-62v-62z"/></defs><clipPath id="aD"><use xlink:href="#aC" overflow="visible"/></clipPath><g clip-path="url(#aD)"><defs><path id="aE" d="M127.8-386.6h19v19h-19z"/></defs><clipPath id="aF"><use xlink:href="#aE" overflow="visible"/></clipPath><g clip-path="url(#aF)"><defs><path id="aG" d="M-797.2-935.6h1121v1030h-1121z"/></defs></g></g><defs><path id="aH" d="M127.8-386.6h19v19h-19z"/></defs><clipPath id="aI"><use xlink:href="#aH" overflow="visible"/></clipPath><g clip-path="url(#aI)"><defs><path id="aJ" d="M-797.2-935.6h1121v1030h-1121z"/></defs></g><defs><path id="aK" d="M156.8-388.1h-1.5v22h22v-22h-20.5zm0 3h19l-1.5-1.5v19l1.5-1.5h-19l1.5 1.5v-19l-1.5 1.5zm-21.5-23h62v62h-62v-62z"/></defs><clipPath id="aL"><use xlink:href="#aK" overflow="visible"/></clipPath><g clip-path="url(#aL)"><defs><path id="aM" d="M156.8-386.6h19v19h-19z"/></defs><clipPath id="aN"><use xlink:href="#aM" overflow="visible"/></clipPath><g clip-path="url(#aN)"><defs><path id="aO" d="M-797.2-935.6h1121v1030h-1121z"/></defs></g></g><defs><path id="aP" d="M156.8-386.6h19v19h-19z"/></defs><clipPath id="aQ"><use xlink:href="#aP" overflow="visible"/></clipPath><g clip-path="url(#aQ)"><defs><path id="aR" d="M-797.2-935.6h1121v1030h-1121z"/></defs></g><g><defs><path id="aS" d="M132.8-411.1h-1.5v12h12v-12h-10.5zm0 3h9l-1.5-1.5v9l1.5-1.5h-9l1.5 1.5v-9l-1.5 1.5zm-21.5-23h52v52h-52v-52z"/></defs><clipPath id="aT"><use xlink:href="#aS" overflow="visible"/></clipPath><g clip-path="url(#aT)"><defs><path id="aU" d="M132.8-409.6h9v9h-9z"/></defs><clipPath id="aV"><use xlink:href="#aU" overflow="visible"/></clipPath><g clip-path="url(#aV)"><defs><path id="aW" d="M-797.2-935.6h1121v1030h-1121z"/></defs></g></g></g><g><defs><path id="aX" d="M132.8-409.6h9v9h-9z"/></defs><clipPath id="aY"><use xlink:href="#aX" overflow="visible"/></clipPath><g clip-path="url(#aY)"><defs><path id="aZ" d="M-797.2-935.6h1121v1030h-1121z"/></defs></g></g><g><defs><path id="ba" d="M161.8-411.1h-1.5v12h12v-12h-10.5zm0 3h9l-1.5-1.5v9l1.5-1.5h-9l1.5 1.5v-9l-1.5 1.5zm-21.5-23h52v52h-52v-52z"/></defs><clipPath id="bb"><use xlink:href="#ba" overflow="visible"/></clipPath><g clip-path="url(#bb)"><defs><path id="bc" d="M161.8-409.6h9v9h-9z"/></defs><clipPath id="bd"><use xlink:href="#bc" overflow="visible"/></clipPath><g clip-path="url(#bd)"><defs><path id="be" d="M-797.2-935.6h1121v1030h-1121z"/></defs></g></g></g><g><defs><path id="bf" d="M161.8-409.6h9v9h-9z"/></defs><clipPath id="bg"><use xlink:href="#bf" overflow="visible"/></clipPath><g clip-path="url(#bg)"><defs><path id="bh" d="M-797.2-935.6h1121v1030h-1121z"/></defs></g></g><g><defs><path id="bi" d="M132.8-383.1h-1.5v12h12v-12h-10.5zm0 3h9l-1.5-1.5v9l1.5-1.5h-9l1.5 1.5v-9l-1.5 1.5zm-21.5-23h52v52h-52v-52z"/></defs><clipPath id="bj"><use xlink:href="#bi" overflow="visible"/></clipPath><g clip-path="url(#bj)"><defs><path id="bk" d="M132.8-381.6h9v9h-9z"/></defs><clipPath id="bl"><use xlink:href="#bk" overflow="visible"/></clipPath><g clip-path="url(#bl)"><defs><path id="bm" d="M-797.2-935.6h1121v1030h-1121z"/></defs></g></g></g><g><defs><path id="bn" d="M132.8-381.6h9v9h-9z"/></defs><clipPath id="bo"><use xlink:href="#bn" overflow="visible"/></clipPath><g clip-path="url(#bo)"><defs><path id="bp" d="M-797.2-935.6h1121v1030h-1121z"/></defs></g></g><g><defs><path id="bq" d="M161.8-383.1h-1.5v12h12v-12h-10.5zm0 3h9l-1.5-1.5v9l1.5-1.5h-9l1.5 1.5v-9l-1.5 1.5zm-21.5-23h52v52h-52v-52z"/></defs><clipPath id="br"><use xlink:href="#bq" overflow="visible"/></clipPath><g clip-path="url(#br)"><defs><path id="bs" d="M161.8-381.6h9v9h-9z"/></defs><clipPath id="bt"><use xlink:href="#bs" overflow="visible"/></clipPath><g clip-path="url(#bt)"><defs><path id="bu" d="M-797.2-935.6h1121v1030h-1121z"/></defs></g></g></g><g><defs><path id="bv" d="M161.8-381.6h9v9h-9z"/></defs><clipPath id="bw"><use xlink:href="#bv" overflow="visible"/></clipPath><g clip-path="url(#bw)"><defs><path id="bx" d="M-797.2-935.6h1121v1030h-1121z"/></defs></g></g><g><defs><path id="by" d="M138-199.7c-27.1 0-49-21.9-49-49s21.9-49 49-49 49 21.9 49 49c0 27-21.9 49-49 49zm0 3c28.7 0 52-23.3 52-52s-23.3-52-52-52-52 23.3-52 52 23.3 52 52 52zm-72-124h144v144H66v-144z"/></defs><clipPath id="bz"><use xlink:href="#by" overflow="visible"/></clipPath><g clip-path="url(#bz)"><defs><circle id="bA" cx="138" cy="-248.7" r="50.5"/></defs><clipPath id="bB"><use xlink:href="#bA" overflow="visible"/></clipPath><g clip-path="url(#bB)"><defs><path id="bC" d="M-36.5-984.7h1121v1030h-1121z"/></defs></g></g></g><g><defs><circle id="bD" cx="138" cy="-248.7" r="50.5"/></defs><clipPath id="bE"><use xlink:href="#bD" overflow="visible"/></clipPath><g clip-path="url(#bE)"><defs><path id="bF" d="M-36.5-984.7h1121v1030h-1121z"/></defs></g></g><g><defs><circle id="bG" cx="138" cy="-248.7" r="43.5"/></defs><clipPath id="bH"><use xlink:href="#bG" overflow="visible"/></clipPath><g clip-path="url(#bH)"><defs><path id="bI" d="M-36.5-984.7h1121v1030h-1121z"/></defs></g></g><g><defs><path id="bJ" d="M138.7-32.5c-24.6 0-44.6-20-44.6-44.6s20-44.6 44.6-44.6 44.6 20 44.6 44.6-20 44.6-44.6 44.6zm0 2.7c26.1 0 47.3-21.2 47.3-47.3s-21.2-47.3-47.3-47.3-47.3 21.2-47.3 47.3 21.2 47.3 47.3 47.3zM73.2-142.6h131v131h-131v-131z"/></defs><clipPath id="bK"><use xlink:href="#bJ" overflow="visible"/></clipPath><g clip-path="url(#bK)"><defs><circle id="bL" cx="138.7" cy="-77.1" r="45.9"/></defs><clipPath id="bM"><use xlink:href="#bL" overflow="visible"/></clipPath><g clip-path="url(#bM)"><defs><path id="bN" d="M-20-746.7H999.8v937H-20z"/></defs></g></g></g><g><defs><circle id="bO" cx="138.7" cy="-77.1" r="45.9"/></defs><clipPath id="bP"><use xlink:href="#bO" overflow="visible"/></clipPath><g clip-path="url(#bP)"><defs><path id="bQ" d="M-20-746.7H999.8v937H-20z"/></defs></g></g><g><defs><circle id="bR" cx="138.7" cy="-77.1" r="39.6"/></defs><clipPath id="bS"><use xlink:href="#bR" overflow="visible"/></clipPath><g clip-path="url(#bS)"><defs><path id="bT" d="M-20-746.7H999.8v937H-20z"/></defs></g></g><path fill="#FFF" stroke="#0C1F2E" stroke-width="3" stroke-linecap="round" stroke-miterlimit="10" d="M169.3 110.4h-64V26.7h64v19.1z"/><path fill="none" stroke="#0C1F2E" stroke-width="3" stroke-linecap="round" stroke-miterlimit="10" d="M97.4 20.5h79.1v96.2H97.4z"/><path fill="#FFF" stroke="#0C1F2E" stroke-width="3" stroke-linecap="round" stroke-miterlimit="10" d="M144.4 16.5c-.3-3-3.3-6.1-6.8-6.1s-6.4 3.1-6.8 6.1h-8.3v10h30v-10h-8.1z"/><circle fill="#0C1F2E" cx="137.6" cy="17" r="2"/><path fill="#FFF" stroke="#0C1F2E" stroke-width="3" stroke-linecap="round" stroke-miterlimit="10" d="M134.7 38.5h10.1l-7 16h11.4l-10.3 19h10.3l-16.5 22.1 3.7-16.1h-9.9l9.6-19H124z"/><g><defs><path id="bU" d="M677.5 34.2H676v84h108v-84H677.5zm0 3h105l-1.5-1.5v81l1.5-1.5h-105l1.5 1.5v-81l-1.5 1.5zm-21.5-23h148v124H656v-124z"/></defs><clipPath id="bV"><use xlink:href="#bU" overflow="visible"/></clipPath><g clip-path="url(#bV)"><defs><path id="bW" d="M677.5 35.7h105v81h-105z"/></defs><clipPath id="bX"><use xlink:href="#bW" overflow="visible"/></clipPath><g clip-path="url(#bX)"><defs><path id="bY" d="M-203.5-463.3h1121v1030h-1121z"/></defs></g></g></g><g><defs><path id="bZ" d="M677.5 35.7h105v81h-105z"/></defs><clipPath id="ca"><use xlink:href="#bZ" overflow="visible"/></clipPath><g clip-path="url(#ca)"><defs><path id="cb" d="M-203.5-463.3h1121v1030h-1121z"/></defs></g></g><g><defs><path id="cc" d="M671.5 51.2h-2.2l.9-2.1 9.1-22 .4-.9h100.9l.4.9 9.1 22 .9 2.1H671.5zm0-3h117l-1.4 2.1-9.1-22 1.4.9h-98.9l1.4-.9-9.1 22-1.3-2.1zm-22.2 23h161.5v-65H649.3v65z"/></defs><clipPath id="cd"><use xlink:href="#cc" overflow="visible"/></clipPath><g clip-path="url(#cd)"><defs><path id="ce" d="M671.5 49.7h117l-9.1-22h-98.8z"/></defs><clipPath id="cf"><use xlink:href="#ce" overflow="visible"/></clipPath><g clip-path="url(#cf)"><defs><path id="cg" d="M-203.5-463.3h1121v1030h-1121z"/></defs></g></g></g><g><defs><path id="ch" d="M671.5 49.7h117l-9.1-22h-98.8z"/></defs><clipPath id="ci"><use xlink:href="#ch" overflow="visible"/></clipPath><g clip-path="url(#ci)"><defs><path id="cj" d="M-203.5-463.3h1121v1030h-1121z"/></defs></g></g><g><defs><path id="ck" d="M756.5 18.2H755v19h15v-19h-13.5zm0 3h12l-1.5-1.5v16l1.5-1.5h-12l1.5 1.5v-16l-1.5 1.5zM735-1.8h55v59h-55v-59z"/></defs><clipPath id="cl"><use xlink:href="#ck" overflow="visible"/></clipPath><g clip-path="url(#cl)"><defs><path id="cm" d="M756.5 19.7h12v16h-12z"/></defs><clipPath id="cn"><use xlink:href="#cm" overflow="visible"/></clipPath><g clip-path="url(#cn)"><defs><path id="co" d="M-203.5-463.3h1121v1030h-1121z"/></defs></g></g></g><g><defs><path id="cp" d="M756.5 19.7h12v16h-12z"/></defs><clipPath id="cq"><use xlink:href="#cp" overflow="visible"/></clipPath><g clip-path="url(#cq)"><defs><path id="cr" d="M-203.5-463.3h1121v1030h-1121z"/></defs></g></g><g><defs><path id="cs" d="M690.5 84.2H689v34h24v-34h-22.5zm0 3h21l-1.5-1.5v31l1.5-1.5h-21l1.5 1.5v-31l-1.5 1.5zm-21.5-23h64v74h-64v-74z"/></defs><clipPath id="ct"><use xlink:href="#cs" overflow="visible"/></clipPath><g clip-path="url(#ct)"><defs><path id="cu" d="M690.5 85.7h21v31h-21z"/></defs><clipPath id="cv"><use xlink:href="#cu" overflow="visible"/></clipPath><g clip-path="url(#cv)"><defs><path id="cw" d="M-203.5-463.3h1121v1030h-1121z"/></defs></g></g></g><g><defs><path id="cx" d="M690.5 85.7h21v31h-21z"/></defs><clipPath id="cy"><use xlink:href="#cx" overflow="visible"/></clipPath><g clip-path="url(#cy)"><defs><path id="cz" d="M-203.5-463.3h1121v1030h-1121z"/></defs></g></g><g><defs><path id="cA" d="M691.5 56.2H690v22h22v-22h-20.5zm0 3h19l-1.5-1.5v19l1.5-1.5h-19l1.5 1.5v-19l-1.5 1.5zm-21.5-23h62v62h-62v-62z"/></defs><clipPath id="cB"><use xlink:href="#cA" overflow="visible"/></clipPath><g clip-path="url(#cB)"><defs><path id="cC" d="M691.5 57.7h19v19h-19z"/></defs><clipPath id="cD"><use xlink:href="#cC" overflow="visible"/></clipPath><g clip-path="url(#cD)"><defs><path id="cE" d="M-203.5-463.3h1121v1030h-1121z"/></defs></g></g></g><g><defs><path id="cF" d="M691.5 57.7h19v19h-19z"/></defs><clipPath id="cG"><use xlink:href="#cF" overflow="visible"/></clipPath><g clip-path="url(#cG)"><defs><path id="cH" d="M-203.5-463.3h1121v1030h-1121z"/></defs></g></g><g><defs><path id="cI" d="M696.5 61.2H695v12h12v-12h-10.5zm0 3h9l-1.5-1.5v9l1.5-1.5h-9l1.5 1.5v-9l-1.5 1.5zm-21.5-23h52v52h-52v-52z"/></defs><clipPath id="cJ"><use xlink:href="#cI" overflow="visible"/></clipPath><g clip-path="url(#cJ)"><defs><path id="cK" d="M696.5 62.7h9v9h-9z"/></defs><clipPath id="cL"><use xlink:href="#cK" overflow="visible"/></clipPath><g clip-path="url(#cL)"><defs><path id="cM" d="M-203.5-463.3h1121v1030h-1121z"/></defs></g></g></g><g><defs><path id="cN" d="M696.5 62.7h9v9h-9z"/></defs><clipPath id="cO"><use xlink:href="#cN" overflow="visible"/></clipPath><g clip-path="url(#cO)"><defs><path id="cP" d="M-203.5-463.3h1121v1030h-1121z"/></defs></g></g><g><defs><path id="cQ" d="M721.5 56.2H720v22h22v-22h-20.5zm0 3h19l-1.5-1.5v19l1.5-1.5h-19l1.5 1.5v-19l-1.5 1.5zm-21.5-23h62v62h-62v-62z"/></defs><clipPath id="cR"><use xlink:href="#cQ" overflow="visible"/></clipPath><g clip-path="url(#cR)"><defs><path id="cS" d="M721.5 57.7h19v19h-19z"/></defs><clipPath id="cT"><use xlink:href="#cS" overflow="visible"/></clipPath><g clip-path="url(#cT)"><defs><path id="cU" d="M-203.5-463.3h1121v1030h-1121z"/></defs></g></g></g><g><defs><path id="cV" d="M721.5 57.7h19v19h-19z"/></defs><clipPath id="cW"><use xlink:href="#cV" overflow="visible"/></clipPath><g clip-path="url(#cW)"><defs><path id="cX" d="M-203.5-463.3h1121v1030h-1121z"/></defs></g></g><g><defs><path id="cY" d="M750.5 56.2H749v22h22v-22h-20.5zm0 3h19l-1.5-1.5v19l1.5-1.5h-19l1.5 1.5v-19l-1.5 1.5zm-21.5-23h62v62h-62v-62z"/></defs><clipPath id="cZ"><use xlink:href="#cY" overflow="visible"/></clipPath><g clip-path="url(#cZ)"><defs><path id="da" d="M750.5 57.7h19v19h-19z"/></defs><clipPath id="db"><use xlink:href="#da" overflow="visible"/></clipPath><g clip-path="url(#db)"><defs><path id="dc" d="M-203.5-463.3h1121v1030h-1121z"/></defs></g></g></g><g><defs><path id="dd" d="M750.5 57.7h19v19h-19z"/></defs><clipPath id="de"><use xlink:href="#dd" overflow="visible"/></clipPath><g clip-path="url(#de)"><defs><path id="df" d="M-203.5-463.3h1121v1030h-1121z"/></defs></g></g><g><defs><path id="dg" d="M721.5 84.2H720v22h22v-22h-20.5zm0 3h19l-1.5-1.5v19l1.5-1.5h-19l1.5 1.5v-19l-1.5 1.5zm-21.5-23h62v62h-62v-62z"/></defs><clipPath id="dh"><use xlink:href="#dg" overflow="visible"/></clipPath><g clip-path="url(#dh)"><defs><path id="di" d="M721.5 85.7h19v19h-19z"/></defs><clipPath id="dj"><use xlink:href="#di" overflow="visible"/></clipPath><g clip-path="url(#dj)"><defs><path id="dk" d="M-203.5-463.3h1121v1030h-1121z"/></defs></g></g></g><g><defs><path id="dl" d="M721.5 85.7h19v19h-19z"/></defs><clipPath id="dm"><use xlink:href="#dl" overflow="visible"/></clipPath><g clip-path="url(#dm)"><defs><path id="dn" d="M-203.5-463.3h1121v1030h-1121z"/></defs></g></g><g><defs><path id="do" d="M750.5 84.2H749v22h22v-22h-20.5zm0 3h19l-1.5-1.5v19l1.5-1.5h-19l1.5 1.5v-19l-1.5 1.5zm-21.5-23h62v62h-62v-62z"/></defs><clipPath id="dp"><use xlink:href="#do" overflow="visible"/></clipPath><g clip-path="url(#dp)"><defs><path id="dq" d="M750.5 85.7h19v19h-19z"/></defs><clipPath id="dr"><use xlink:href="#dq" overflow="visible"/></clipPath><g clip-path="url(#dr)"><defs><path id="ds" d="M-203.5-463.3h1121v1030h-1121z"/></defs></g></g></g><g><defs><path id="dt" d="M750.5 85.7h19v19h-19z"/></defs><clipPath id="du"><use xlink:href="#dt" overflow="visible"/></clipPath><g clip-path="url(#du)"><defs><path id="dv" d="M-203.5-463.3h1121v1030h-1121z"/></defs></g></g><g><defs><path id="dw" d="M726.5 61.2H725v12h12v-12h-10.5zm0 3h9l-1.5-1.5v9l1.5-1.5h-9l1.5 1.5v-9l-1.5 1.5zm-21.5-23h52v52h-52v-52z"/></defs><clipPath id="dx"><use xlink:href="#dw" overflow="visible"/></clipPath><g clip-path="url(#dx)"><defs><path id="dy" d="M726.5 62.7h9v9h-9z"/></defs><clipPath id="dz"><use xlink:href="#dy" overflow="visible"/></clipPath><g clip-path="url(#dz)"><defs><path id="dA" d="M-203.5-463.3h1121v1030h-1121z"/></defs></g></g></g><g><defs><path id="dB" d="M726.5 62.7h9v9h-9z"/></defs><clipPath id="dC"><use xlink:href="#dB" overflow="visible"/></clipPath><g clip-path="url(#dC)"><defs><path id="dD" d="M-203.5-463.3h1121v1030h-1121z"/></defs></g></g><g><defs><path id="dE" d="M755.5 61.2H754v12h12v-12h-10.5zm0 3h9l-1.5-1.5v9l1.5-1.5h-9l1.5 1.5v-9l-1.5 1.5zm-21.5-23h52v52h-52v-52z"/></defs><clipPath id="dF"><use xlink:href="#dE" overflow="visible"/></clipPath><g clip-path="url(#dF)"><defs><path id="dG" d="M755.5 62.7h9v9h-9z"/></defs><clipPath id="dH"><use xlink:href="#dG" overflow="visible"/></clipPath><g clip-path="url(#dH)"><defs><path id="dI" d="M-203.5-463.3h1121v1030h-1121z"/></defs></g></g></g><g><defs><path id="dJ" d="M755.5 62.7h9v9h-9z"/></defs><clipPath id="dK"><use xlink:href="#dJ" overflow="visible"/></clipPath><g clip-path="url(#dK)"><defs><path id="dL" d="M-203.5-463.3h1121v1030h-1121z"/></defs></g></g><g><defs><path id="dM" d="M726.5 89.2H725v12h12v-12h-10.5zm0 3h9l-1.5-1.5v9l1.5-1.5h-9l1.5 1.5v-9l-1.5 1.5zm-21.5-23h52v52h-52v-52z"/></defs><clipPath id="dN"><use xlink:href="#dM" overflow="visible"/></clipPath><g clip-path="url(#dN)"><defs><path id="dO" d="M726.5 90.7h9v9h-9z"/></defs><clipPath id="dP"><use xlink:href="#dO" overflow="visible"/></clipPath><g clip-path="url(#dP)"><defs><path id="dQ" d="M-203.5-463.3h1121v1030h-1121z"/></defs></g></g></g><g><defs><path id="dR" d="M726.5 90.7h9v9h-9z"/></defs><clipPath id="dS"><use xlink:href="#dR" overflow="visible"/></clipPath><g clip-path="url(#dS)"><defs><path id="dT" d="M-203.5-463.3h1121v1030h-1121z"/></defs></g></g><g><defs><path id="dU" d="M755.5 89.2H754v12h12v-12h-10.5zm0 3h9l-1.5-1.5v9l1.5-1.5h-9l1.5 1.5v-9l-1.5 1.5zm-21.5-23h52v52h-52v-52z"/></defs><clipPath id="dV"><use xlink:href="#dU" overflow="visible"/></clipPath><g clip-path="url(#dV)"><defs><path id="dW" d="M755.5 90.7h9v9h-9z"/></defs><clipPath id="dX"><use xlink:href="#dW" overflow="visible"/></clipPath><g clip-path="url(#dX)"><defs><path id="dY" d="M-203.5-463.3h1121v1030h-1121z"/></defs></g></g></g><g><defs><path id="dZ" d="M755.5 90.7h9v9h-9z"/></defs><clipPath id="ea"><use xlink:href="#dZ" overflow="visible"/></clipPath><g clip-path="url(#ea)"><defs><path id="eb" d="M-203.5-463.3h1121v1030h-1121z"/></defs></g></g></svg>