<svg id="Layer_1" data-name="Layer 1" xmlns="http://www.w3.org/2000/svg" viewBox="0 0 276 137"><defs><style>.cls-1,.cls-2,.cls-3,.cls-46{fill:none}.cls-1{clip-rule:evenodd}.cls-3{fill-rule:evenodd}.cls-4{clip-path:url(#clip-path)}.cls-5{clip-path:url(#clip-path-2)}.cls-6{clip-path:url(#clip-path-4)}.cls-7{clip-path:url(#clip-path-5)}.cls-8{clip-path:url(#clip-path-7)}.cls-9{clip-path:url(#clip-path-8)}.cls-10{clip-path:url(#clip-path-10)}.cls-11{clip-path:url(#clip-path-11)}.cls-12{clip-path:url(#clip-path-13)}.cls-13{clip-path:url(#clip-path-14)}.cls-14{clip-path:url(#clip-path-16)}.cls-15{clip-path:url(#clip-path-17)}.cls-16{clip-path:url(#clip-path-19)}.cls-17{clip-path:url(#clip-path-20)}.cls-18{clip-path:url(#clip-path-22)}.cls-19{clip-path:url(#clip-path-23)}.cls-20{clip-path:url(#clip-path-25)}.cls-21{clip-path:url(#clip-path-26)}.cls-22{clip-path:url(#clip-path-28)}.cls-23{clip-path:url(#clip-path-29)}.cls-24{clip-path:url(#clip-path-31)}.cls-25{clip-path:url(#clip-path-32)}.cls-26{clip-path:url(#clip-path-34)}.cls-27{clip-path:url(#clip-path-35)}.cls-28{clip-path:url(#clip-path-37)}.cls-29{clip-path:url(#clip-path-38)}.cls-30{clip-path:url(#clip-path-40)}.cls-31{clip-path:url(#clip-path-41)}.cls-32{clip-path:url(#clip-path-43)}.cls-33{clip-path:url(#clip-path-44)}.cls-34{clip-path:url(#clip-path-46)}.cls-35{clip-path:url(#clip-path-47)}.cls-36{clip-path:url(#clip-path-49)}.cls-37{clip-path:url(#clip-path-50)}.cls-38{clip-path:url(#clip-path-52)}.cls-39{clip-path:url(#clip-path-53)}.cls-40{clip-path:url(#clip-path-55)}.cls-41{clip-path:url(#clip-path-56)}.cls-42{clip-path:url(#clip-path-57)}.cls-43{fill:#0c1f2e}.cls-44,.cls-45{fill:#fff}.cls-45,.cls-46{stroke:#101f2c;stroke-miterlimit:10;stroke-width:3px}</style><clipPath id="clip-path"><path class="cls-1" d="M679.67-127.51h-1.5v84h108v-84h-106.5zm0 3h105l-1.5-1.5v81l1.5-1.5h-105l1.5 1.5v-81zm-21.5-23h148v124h-148z"/></clipPath><clipPath id="clip-path-2"><path class="cls-2" d="M679.67-126.01h105v81h-105z"/></clipPath><clipPath id="clip-path-4"><path class="cls-1" d="M673.67-110.51h-2.24l.85-2.07 9.07-22 .38-.93H782.6l.38.93 9.07 22 .85 2.07H673.67zm0-3h117l-1.39 2.07-9.07-22 1.39.93h-98.86l1.39-.93-9.07 22zm-22.24 23h161.48v-65H651.43z"/></clipPath><clipPath id="clip-path-5"><path class="cls-1" d="M673.67-112.01h117l-9.07-22h-98.86l-9.07 22z"/></clipPath><clipPath id="clip-path-7"><path class="cls-1" d="M758.67-143.51h-1.5v19h15v-19h-13.5zm0 3h12l-1.5-1.5v16l1.5-1.5h-12l1.5 1.5v-16zm-21.5-23h55v59h-55z"/></clipPath><clipPath id="clip-path-8"><path class="cls-2" d="M758.67-142.01h12v16h-12z"/></clipPath><clipPath id="clip-path-10"><path class="cls-1" d="M692.67-77.51h-1.5v34h24v-34h-22.5zm0 3h21l-1.5-1.5v31l1.5-1.5h-21l1.5 1.5V-76zm-21.5-23h64v74h-64z"/></clipPath><clipPath id="clip-path-11"><path class="cls-2" d="M692.67-76.01h21v31h-21z"/></clipPath><clipPath id="clip-path-13"><path class="cls-1" d="M693.67-105.51h-1.5v22h22v-22h-20.5zm0 3h19l-1.5-1.5v19l1.5-1.5h-19l1.5 1.5v-19zm-21.5-23h62v62h-62z"/></clipPath><clipPath id="clip-path-14"><path class="cls-2" d="M693.67-104.01h19v19h-19z"/></clipPath><clipPath id="clip-path-16"><path class="cls-1" d="M698.67-100.51h-1.5v12h12v-12h-10.5zm0 3h9l-1.5-1.5v9l1.5-1.5h-9l1.5 1.5v-9zm-21.5-23h52v52h-52z"/></clipPath><clipPath id="clip-path-17"><path class="cls-2" d="M698.67-99.01h9v9h-9z"/></clipPath><clipPath id="clip-path-19"><path class="cls-1" d="M723.67-105.51h-1.5v22h22v-22h-20.5zm0 3h19l-1.5-1.5v19l1.5-1.5h-19l1.5 1.5v-19zm-21.5-23h62v62h-62z"/></clipPath><clipPath id="clip-path-20"><path class="cls-2" d="M723.67-104.01h19v19h-19z"/></clipPath><clipPath id="clip-path-22"><path class="cls-1" d="M752.67-105.51h-1.5v22h22v-22h-20.5zm0 3h19l-1.5-1.5v19l1.5-1.5h-19l1.5 1.5v-19zm-21.5-23h62v62h-62z"/></clipPath><clipPath id="clip-path-23"><path class="cls-2" d="M752.67-104.01h19v19h-19z"/></clipPath><clipPath id="clip-path-25"><path class="cls-1" d="M723.67-77.51h-1.5v22h22v-22h-20.5zm0 3h19l-1.5-1.5v19l1.5-1.5h-19l1.5 1.5V-76zm-21.5-23h62v62h-62z"/></clipPath><clipPath id="clip-path-26"><path class="cls-2" d="M723.67-76.01h19v19h-19z"/></clipPath><clipPath id="clip-path-28"><path class="cls-1" d="M752.67-77.51h-1.5v22h22v-22h-20.5zm0 3h19l-1.5-1.5v19l1.5-1.5h-19l1.5 1.5V-76zm-21.5-23h62v62h-62z"/></clipPath><clipPath id="clip-path-29"><path class="cls-2" d="M752.67-76.01h19v19h-19z"/></clipPath><clipPath id="clip-path-31"><path class="cls-1" d="M728.67-100.51h-1.5v12h12v-12h-10.5zm0 3h9l-1.5-1.5v9l1.5-1.5h-9l1.5 1.5v-9zm-21.5-23h52v52h-52z"/></clipPath><clipPath id="clip-path-32"><path class="cls-2" d="M728.67-99.01h9v9h-9z"/></clipPath><clipPath id="clip-path-34"><path class="cls-1" d="M757.67-100.51h-1.5v12h12v-12h-10.5zm0 3h9l-1.5-1.5v9l1.5-1.5h-9l1.5 1.5v-9zm-21.5-23h52v52h-52z"/></clipPath><clipPath id="clip-path-35"><path class="cls-2" d="M757.67-99.01h9v9h-9z"/></clipPath><clipPath id="clip-path-37"><path class="cls-1" d="M728.67-72.51h-1.5v12h12v-12h-10.5zm0 3h9l-1.5-1.5v9l1.5-1.5h-9l1.5 1.5v-9zm-21.5-23h52v52h-52z"/></clipPath><clipPath id="clip-path-38"><path class="cls-2" d="M728.67-71.01h9v9h-9z"/></clipPath><clipPath id="clip-path-40"><path class="cls-1" d="M757.67-72.51h-1.5v12h12v-12h-10.5zm0 3h9l-1.5-1.5v9l1.5-1.5h-9l1.5 1.5v-9zm-21.5-23h52v52h-52z"/></clipPath><clipPath id="clip-path-41"><path class="cls-2" d="M757.67-71.01h9v9h-9z"/></clipPath><clipPath id="clip-path-43"><path class="cls-1" d="M-347.77 666.13h-1.5v38h142V679l-.41-.43-11.44-12-.44-.46h-128.2zm0 3h127.56l-1.09-.46 11.44 12-.41-1v23l1.5-1.5h-139l1.5 1.5v-35zm-21.5-23h182v78h-182z"/></clipPath><clipPath id="clip-path-44"><path class="cls-1" d="M-347.77 667.63h127.56l11.44 12v23h-139v-35z"/></clipPath><clipPath id="clip-path-46"><path class="cls-1" d="M-314.77 717.55a14.5 14.5 0 0 1-14.5-14.5 14.5 14.5 0 0 1 14.5-14.5 14.5 14.5 0 0 1 14.5 14.5 14.5 14.5 0 0 1-14.5 14.5zm0 3a17.5 17.5 0 0 0 17.5-17.5 17.5 17.5 0 0 0-17.5-17.5 17.5 17.5 0 0 0-17.5 17.5 17.5 17.5 0 0 0 17.5 17.5zm-37.5-55h75v75h-75z"/></clipPath><clipPath id="clip-path-47"><circle class="cls-2" cx="-314.77" cy="703.05" r="16"/></clipPath><clipPath id="clip-path-49"><path class="cls-1" d="M-314.77 710.55a7.5 7.5 0 0 1-7.5-7.5 7.5 7.5 0 0 1 7.5-7.5 7.5 7.5 0 0 1 7.5 7.5 7.5 7.5 0 0 1-7.5 7.5zm0 3a10.5 10.5 0 0 0 10.5-10.5 10.5 10.5 0 0 0-10.5-10.5 10.5 10.5 0 0 0-10.5 10.5 10.5 10.5 0 0 0 10.5 10.5zm-30.5-41h61v61h-61z"/></clipPath><clipPath id="clip-path-50"><circle class="cls-2" cx="-314.77" cy="703.05" r="9"/></clipPath><clipPath id="clip-path-52"><path class="cls-1" d="M-248.54 717.55a14.5 14.5 0 0 1-14.5-14.5 14.5 14.5 0 0 1 14.5-14.5 14.5 14.5 0 0 1 14.5 14.5 14.5 14.5 0 0 1-14.5 14.5zm0 3a17.5 17.5 0 0 0 17.5-17.5 17.5 17.5 0 0 0-17.5-17.5 17.5 17.5 0 0 0-17.5 17.5 17.5 17.5 0 0 0 17.5 17.5zm-37.5-55h75v75h-75z"/></clipPath><clipPath id="clip-path-53"><circle class="cls-2" cx="-248.54" cy="703.05" r="16"/></clipPath><clipPath id="clip-path-55"><path class="cls-1" d="M-248.31 662.72l-7.69-15.57h-27.17v15.57zm-75.16 0l7.38-15.55h27.17v15.53zm-10.3 5.35l14.14-26.89h66.84l15.35 27.82z"/></clipPath><clipPath id="clip-path-56"><path class="cls-1" d="M-248.54 710.55a7.5 7.5 0 0 1-7.5-7.5 7.5 7.5 0 0 1 7.5-7.5 7.5 7.5 0 0 1 7.5 7.5 7.5 7.5 0 0 1-7.5 7.5zm0 3a10.5 10.5 0 0 0 10.5-10.5 10.5 10.5 0 0 0-10.5-10.5 10.5 10.5 0 0 0-10.5 10.5 10.5 10.5 0 0 0 10.5 10.5zm-30.5-41h61v61h-61z"/></clipPath><clipPath id="clip-path-57"><circle class="cls-2" cx="-248.54" cy="703.05" r="9"/></clipPath></defs><title>EXPERIENTIAL ICONS 2 (2)</title><path class="cls-43" d="M86.58 21.65v78.47H74.73v1.55a13.76 13.76 0 0 0 13.4 13.69l99.31-.05A13.49 13.49 0 0 0 201.1 102l.18-80.37zm1.58 90.61a10.65 10.65 0 0 1-10.22-9.05h95.91a13.27 13.27 0 0 0 4.72 9zM198 102a10.4 10.4 0 0 1-10.57 10.19 10.2 10.2 0 0 1-10.56-10.51v-1.55H89.68V24.75h108.49z"/><path class="cls-44" d="M178.57 112.21l-90.41.05a10.65 10.65 0 0 1-10.22-9.05h95.91a13.27 13.27 0 0 0 4.72 9z"/><path class="cls-44" d="M89.68 24.75v75.37h87.19v1.55a10.2 10.2 0 0 0 10.56 10.51A10.4 10.4 0 0 0 198 102l.17-77.27zm97 63.9h-48.52v-3.1h48.49zm0-12.38h-48.52v-3.1h48.49zm0-12.38h-48.52v-3.1h48.49zm0-12.38h-48.52v-3.1h48.49zm0-12.38h-48.52V36h48.49z"/><path class="cls-43" d="M138.16 36.03h48.49v3.1h-48.49zM138.16 48.41h48.49v3.1h-48.49zM138.16 60.79h48.49v3.1h-48.49zM138.16 73.17h48.49v3.1h-48.49zM138.16 85.55h48.49v3.1h-48.49z"/><path class="cls-45" d="M110.31 40.43c3.09 2.18 3.15 7.41 3.15 7.41s-5 1.7-8-.48-3.19-7.36-3.19-7.36 4.95-1.75 8.04.43zM120.85 54.86a6.57 6.57 0 0 0-6.33-6.65s-.39.25-.39 0a6.57 6.57 0 0 0-6.43 6.49c0 3.63-1.62 6.75-3.11 9.73a17.15 17.15 0 0 0-.79 13.87 11.55 11.55 0 0 0 1.4 2.63c2.51 3.41 7.78 3.73 8.72 3.74a12.13 12.13 0 0 0 12.27-12c.07-5.73-5.42-10.67-5.34-17.81z"/><path class="cls-46" d="M120.1 40.72s-6.35 2.27-6.35 8.33"/></svg>