<svg id="Layer_1" data-name="Layer 1" xmlns="http://www.w3.org/2000/svg" viewBox="0 0 276 137"><defs><style>.cls-1,.cls-8{fill:none}.cls-6{fill:#0c1f2e}.cls-7{fill:#fff}.cls-8{stroke:#0e1f2d;stroke-linecap:round;stroke-miterlimit:10;stroke-width:3px}</style><clipPath id="clip-path"><circle class="cls-1" cx="-454" cy="-89.73" r="50.5"/></clipPath><clipPath id="clip-path-2"><circle class="cls-1" cx="-454" cy="-89.73" r="43.5"/></clipPath><clipPath id="clip-path-3"><circle class="cls-1" cx="138" cy="-244.5" r="50.5"/></clipPath><clipPath id="clip-path-4"><circle class="cls-1" cx="138" cy="-244.5" r="43.5"/></clipPath></defs><path class="cls-6" d="M88.67 23.55v75.28H77.29v1.49a13.2 13.2 0 0 0 12.86 13.14l95.27-.05a13 13 0 0 0 13.11-12.74l.17-77.11zm1.52 86.93a10.23 10.23 0 0 1-9.81-8.69h92a12.76 12.76 0 0 0 4.53 8.6zm105.38-9.83a10 10 0 0 1-10.14 9.78 9.79 9.79 0 0 1-10.14-10.08v-1.49H91.64V26.52h104.08z"/><path class="cls-7" d="M176.92 110.43l-86.74.05a10.23 10.23 0 0 1-9.81-8.69h92a12.76 12.76 0 0 0 4.55 8.64z"/><path class="cls-7" d="M195.72 26.52l-.16 74.13a10 10 0 0 1-10.14 9.78 9.79 9.79 0 0 1-10.14-10.08v-1.49H91.63V26.52z"/><path class="cls-6" d="M138.15 37.35h46.52v2.97h-46.52zm0 11.88h46.52v2.97h-46.52zm0 11.88h46.52v2.97h-46.52zm0 11.88h46.52v2.97h-46.52zm0 11.87h46.52v2.97h-46.52z"/><path class="cls-8" d="M114.79 60.64l12.98-17.34h-25.96l12.98 17.34 12.98-17.34h-25.96l12.98 17.34zm0 0v21.24m-6.74 0h13.47"/><path class="cls-8" d="M105.68 48.34c1.56 0 1.56 1.24 3.13 1.24s1.56-1.24 3.12-1.24 1.57 1.24 3.13 1.24 1.57-1.24 3.13-1.24 1.56 1.24 3.13 1.24a2.87 2.87 0 0 0 1.91-.88"/></svg>