<svg id="Layer_1" data-name="Layer 1" xmlns="http://www.w3.org/2000/svg" viewBox="0 0 276 137"><defs><style>.cls-1,.cls-19,.cls-2,.cls-20{fill:none}.cls-1,.cls-3{clip-rule:evenodd}.cls-16,.cls-18,.cls-21,.cls-22,.cls-23,.cls-25,.cls-3{fill:#fff}.cls-19,.cls-20,.cls-21,.cls-22,.cls-23,.cls-25,.cls-3{stroke:#0e1f2d;stroke-miterlimit:10}.cls-19,.cls-20,.cls-21,.cls-3{stroke-width:3px}.cls-16,.cls-20{fill-rule:evenodd}.cls-17{clip-path:url(#clip-path-17)}.cls-21,.cls-22,.cls-23,.cls-25{stroke-linecap:round}.cls-22{stroke-width:3.06px}.cls-23{stroke-width:1.4px}.cls-24{fill:#0e1f2d}.cls-25{stroke-width:.44px}</style><clipPath id="clip-path"><path class="cls-1" d="M-347.77 195.13h-1.5v38h142V208l-.41-.43-11.44-12-.44-.46h-128.2zm0 3h127.56l-1.09-.46 11.44 12-.41-1v23l1.5-1.5h-139l1.5 1.5v-35zm-21.5-23h182v78h-182z"/></clipPath><clipPath id="clip-path-2"><path class="cls-1" d="M-347.77 196.63h127.56l11.44 12v23h-139v-35z"/></clipPath><clipPath id="clip-path-4"><path class="cls-1" d="M-314.77 246.55a14.5 14.5 0 0 1-14.5-14.5 14.5 14.5 0 0 1 14.5-14.5 14.5 14.5 0 0 1 14.5 14.5 14.5 14.5 0 0 1-14.5 14.5zm0 3a17.5 17.5 0 0 0 17.5-17.5 17.5 17.5 0 0 0-17.5-17.5 17.5 17.5 0 0 0-17.5 17.5 17.5 17.5 0 0 0 17.5 17.5zm-37.5-55h75v75h-75z"/></clipPath><clipPath id="clip-path-5"><circle class="cls-2" cx="-314.77" cy="232.05" r="16"/></clipPath><clipPath id="clip-path-7"><path class="cls-1" d="M-314.77 239.55a7.5 7.5 0 0 1-7.5-7.5 7.5 7.5 0 0 1 7.5-7.5 7.5 7.5 0 0 1 7.5 7.5 7.5 7.5 0 0 1-7.5 7.5zm0 3a10.5 10.5 0 0 0 10.5-10.5 10.5 10.5 0 0 0-10.5-10.5 10.5 10.5 0 0 0-10.5 10.5 10.5 10.5 0 0 0 10.5 10.5zm-30.5-41h61v61h-61z"/></clipPath><clipPath id="clip-path-8"><circle class="cls-2" cx="-314.77" cy="232.05" r="9"/></clipPath><clipPath id="clip-path-10"><path class="cls-1" d="M-248.54 246.55a14.5 14.5 0 0 1-14.5-14.5 14.5 14.5 0 0 1 14.5-14.5 14.5 14.5 0 0 1 14.5 14.5 14.5 14.5 0 0 1-14.5 14.5zm0 3a17.5 17.5 0 0 0 17.5-17.5 17.5 17.5 0 0 0-17.5-17.5 17.5 17.5 0 0 0-17.5 17.5 17.5 17.5 0 0 0 17.5 17.5zm-37.5-55h75v75h-75z"/></clipPath><clipPath id="clip-path-11"><circle class="cls-2" cx="-248.54" cy="232.05" r="16"/></clipPath><clipPath id="clip-path-13"><path class="cls-1" d="M-248.31 191.72l-7.69-15.57h-27.17v15.57zm-75.16 0l7.38-15.55h27.17v15.53zm-10.3 5.35l14.14-26.89h66.84l15.35 27.82z"/></clipPath><clipPath id="clip-path-14"><path class="cls-1" d="M-248.54 239.55a7.5 7.5 0 0 1-7.5-7.5 7.5 7.5 0 0 1 7.5-7.5 7.5 7.5 0 0 1 7.5 7.5 7.5 7.5 0 0 1-7.5 7.5zm0 3a10.5 10.5 0 0 0 10.5-10.5 10.5 10.5 0 0 0-10.5-10.5 10.5 10.5 0 0 0-10.5 10.5 10.5 10.5 0 0 0 10.5 10.5zm-30.5-41h61v61h-61z"/></clipPath><clipPath id="clip-path-15"><circle class="cls-2" cx="-248.54" cy="232.05" r="9"/></clipPath><clipPath id="clip-path-17"><path class="cls-3" d="M367.25-86.67h109.48l9.81 9.65v18.51H367.25v-28.16z"/></clipPath></defs><path class="cls-16" d="M367.25-86.67h109.48l9.81 9.65v18.51H367.25v-28.16z"/><g class="cls-17"><path class="cls-18" d="M47.99-517.18h962.06v828.83H47.99z"/><path class="cls-19" d="M47.99-517.18h962.06v828.83H47.99z"/></g><path class="cls-20" d="M367.25-86.67h109.48l9.81 9.65v18.51H367.25v-28.16z"/><path class="cls-21" d="M118.81 121.61a12.5 12.5 0 1 1 12.5-12.5 12.51 12.51 0 0 1-12.5 12.5zm0-16.83a4.33 4.33 0 1 0 4.33 4.33 4.33 4.33 0 0 0-4.33-4.32z"/><path class="cls-21" d="M177 26s-60.89-.19-64.41 0H99v4.7h13.81l5 61.34c10.14 0 18.37 6.14 18.37 16.28a18.31 18.31 0 0 1-1.41 7.06h25.52l8.63-8.09zm-8.5-10.61h-47l-6.58 6.32h60.16l-6.58-6.32z"/><circle class="cls-22" cx="144.23" cy="63.99" r="18.11"/><circle class="cls-23" cx="144.23" cy="63.78" r="7.45"/><path class="cls-24" d="M150 54.59a8.1 8.1 0 0 0-1.32-4.51 8 8 0 1 1-9 0 8.1 8.1 0 0 0-1.32 4.51c0 3.93 2.61 7.11 5.82 7.11s5.82-3.18 5.82-7.11z"/><path class="cls-24" d="M148.05 73.51a8.1 8.1 0 0 0 4.13 2.26 8 8 0 1 1 6.36-6.36 8.1 8.1 0 0 0-2.26-4.13c-2.78-2.78-6.87-3.18-9.14-.91s-1.86 6.37.91 9.14z"/><path class="cls-24" d="M132.18 65.29a8.1 8.1 0 0 0-2.26 4.13 8 8 0 1 1 6.36 6.36 8.1 8.1 0 0 0 4.13-2.26c2.78-2.78 3.18-6.87.91-9.14s-6.32-1.87-9.14.91z"/><circle class="cls-25" cx="144.23" cy="64.2" r="1.68"/></svg>