<svg xmlns="http://www.w3.org/2000/svg" viewBox="0 0 276 137"><title>globe</title><g data-name="Layer 1" stroke-miterlimit="10" stroke-width="3"><path d="M114.25 72.08l-.54.66-.61.73a26.22 26.22 0 0 1-3.54-2.84l-.38-.35c-.13-.13-.25-.25-.37-.39a23.25 23.25 0 0 1-2-2.18l.31-.37.53-.65 2.81 2.31zM151.69 33.77l-.35.39-.55-.49-3.11-2.78L145 28.5l.4-.44.33-.37a24.72 24.72 0 0 1 2.37 2l.38.35.38.39a25.82 25.82 0 0 1 2.83 3.34z" fill="#fff" stroke="#101f2c"/><path d="M142.25 110.59h25.93v8.48h-60.35v-8.48h25.93V97.12A42 42 0 0 1 101 79.78l-1.9-2.66 7.76-9.41a23.25 23.25 0 0 0 2 2.18c.12.14.24.26.37.39l.38.35a26.22 26.22 0 0 0 3.54 2.84l-3.18 3.86a33.43 33.43 0 1 0 46-48.22l-4.18 4.66a25.82 25.82 0 0 0-2.81-3.33l-.48-.44-.38-.35a24.72 24.72 0 0 0-2.37-2l8.73-9.76 3 1.94a41.92 41.92 0 0 1-15.27 76.64z" fill="#fff" stroke="#101f2c"/><path d="M156.61 54.61a27.93 27.93 0 0 1-7.66 15.2 28.14 28.14 0 0 1-35.85 3.65 26.22 26.22 0 0 1-3.54-2.84l-.38-.35c-.13-.13-.25-.25-.37-.39a23.25 23.25 0 0 1-2-2.18 28.13 28.13 0 0 1 38.89-40 24.72 24.72 0 0 1 2.37 2l.38.35.38.39a25.82 25.82 0 0 1 2.81 3.33 28.07 28.07 0 0 1 4.97 20.84z" fill="#fff" stroke="#0c1f2e"/><path d="M149.42 47.58a44.28 44.28 0 0 1-9.26 13.63 44.46 44.46 0 0 1-13.42 9.58c-4.78 2.12-9.36 2.84-13 1.94a9.8 9.8 0 0 1-4.15-2.11l-.38-.35c-.13-.13-.25-.25-.37-.39a9.2 9.2 0 0 1-1.64-2.55c-1.69-3.81-1.22-9 1.09-14.59A46.8 46.8 0 0 1 131 29.53c5.43-2.42 10.61-3 14.46-1.47a9.3 9.3 0 0 1 2.7 1.64l.38.35.38.39a9.73 9.73 0 0 1 1.91 3.23c1.31 3.74.77 8.69-1.41 13.91zM107.85 29.65l41.97 41.02" fill="none" stroke="#0c1f2e"/><path fill="none" stroke="#0c1f2e" d="M123.76 22.51l7.18 7.01 18.48 18.06 7.19 7.03M101.07 45.73l7.19 7.02 18.46 18.04 7.2 7.04M149.44 29.08l-41.21 42.17"/></g></svg>