<svg id="Layer_1" data-name="Layer 1" xmlns="http://www.w3.org/2000/svg" viewBox="0 0 276 137"><defs><style>.cls-1,.cls-2,.cls-5,.cls-6,.cls-7{fill:none}.cls-2{clip-rule:evenodd}.cls-5,.cls-7{stroke:#0e1f2d}.cls-5{stroke-linecap:round}.cls-5,.cls-6,.cls-7{stroke-miterlimit:10;stroke-width:3px}.cls-6{stroke:#091f2f}</style><clipPath id="clip-path"><circle class="cls-1" cx="433.48" cy="-86.41" r="50.5"/></clipPath><clipPath id="clip-path-2"><circle class="cls-1" cx="433.48" cy="-86.41" r="43.5"/></clipPath><clipPath id="clip-path-3"><path class="cls-2" d="M692.69 259.58a29.08 29.08 0 1 1 29.08-29.08 29.08 29.08 0 0 1-29.08 29.08zm0 2.24a31.32 31.32 0 1 0-31.32-31.32 31.32 31.32 0 0 0 31.32 31.32zm-46.25-77.57h92.5v92.5h-92.5z"/></clipPath><clipPath id="clip-path-4"><circle class="cls-1" cx="692.69" cy="230.5" r="30.2"/></clipPath><clipPath id="clip-path-6"><path class="cls-2" d="M775.23 259.58a29.08 29.08 0 1 1 29.07-29.08 29.08 29.08 0 0 1-29.07 29.08zm0 2.24a31.32 31.32 0 1 0-31.32-31.32 31.32 31.32 0 0 0 31.32 31.32zM729 184.25h92.5v92.5H729z"/></clipPath><clipPath id="clip-path-7"><circle class="cls-1" cx="775.23" cy="230.5" r="30.2"/></clipPath><clipPath id="clip-path-9"><circle class="cls-1" cx="432.82" cy="543.42" r="50.5"/></clipPath><clipPath id="clip-path-10"><circle class="cls-1" cx="432.82" cy="543.42" r="43.5"/></clipPath><clipPath id="clip-path-11"><circle class="cls-1" cx="428.14" cy="700.9" r="50.5"/></clipPath><clipPath id="clip-path-12"><circle class="cls-1" cx="428.14" cy="700.9" r="43.5"/></clipPath></defs><path class="cls-5" d="M86.84 83c2.29 0 2.29 2 4.57 2s2.29-2 4.59-2 2.29 2 4.57 2 2.29-2 4.57-2 2.29 2 4.57 2 2.29-2 4.57-2 2.29 2 4.58 2 2.29-2 4.57-2 2.29 2 4.57 2 2.29-2 4.57-2 2.29 2 4.57 2 2.29-2 4.57-2 2.29 2 4.58 2 2.29-2 4.58-2 2.29 2 4.58 2 2.29-2 4.57-2 2.29 2 4.58 2 2.29-2 4.58-2 2.29 2 4.58 2 2.29-2 4.58-2m-91.5 10c2.29 0 2.29 2 4.57 2s2.29-2 4.59-2 2.29 2 4.57 2 2.29-2 4.57-2 2.29 2 4.57 2 2.29-2 4.57-2 2.29 2 4.58 2 2.29-2 4.57-2 2.29 2 4.57 2 2.29-2 4.57-2 2.29 2 4.57 2 2.29-2 4.57-2 2.29 2 4.58 2 2.29-2 4.58-2 2.29 2 4.58 2 2.29-2 4.57-2 2.29 2 4.58 2 2.29-2 4.58-2 2.29 2 4.58 2 2.29-2 4.58-2m-91.5 9.75c2.29 0 2.29 2 4.57 2s2.29-2 4.57-2 2.29 2 4.57 2 2.29-2 4.57-2 2.29 2 4.57 2 2.29-2 4.57-2 2.29 2 4.58 2 2.29-2 4.57-2 2.29 2 4.57 2 2.29-2 4.57-2 2.29 2 4.57 2 2.29-2 4.57-2 2.29 2 4.58 2 2.29-2 4.58-2 2.29 2 4.58 2 2.29-2 4.57-2 2.29 2 4.58 2 2.29-2 4.58-2 2.29 2 4.58 2 2.29-2 4.58-2"/><path class="cls-6" d="M145.05 51.32a12.18 12.18 0 1 1-24.37 0c0-6.73 12.18-24.88 12.18-24.88s12.19 18.15 12.19 24.88z"/><path class="cls-7" d="M85.84 72.5H180"/></svg>