<svg id="Layer_1" data-name="Layer 1" xmlns="http://www.w3.org/2000/svg" viewBox="0 0 276 137"><defs><style>.cls-1,.cls-2,.cls-3,.cls-48,.cls-52,.cls-53{fill:none}.cls-1,.cls-4{clip-rule:evenodd}.cls-3,.cls-49,.cls-53{fill-rule:evenodd}.cls-4,.cls-44,.cls-46,.cls-49,.cls-51{fill:#fff}.cls-4,.cls-44,.cls-46,.cls-52,.cls-53{stroke:#0e1f2d}.cls-4,.cls-44,.cls-45,.cls-46,.cls-47,.cls-48,.cls-52,.cls-53{stroke-miterlimit:10}.cls-4,.cls-52,.cls-53{stroke-width:3px}.cls-5{clip-path:url(#clip-path)}.cls-6{clip-path:url(#clip-path-2)}.cls-7{clip-path:url(#clip-path-4)}.cls-8{clip-path:url(#clip-path-5)}.cls-9{clip-path:url(#clip-path-7)}.cls-10{clip-path:url(#clip-path-8)}.cls-11{clip-path:url(#clip-path-10)}.cls-12{clip-path:url(#clip-path-11)}.cls-13{clip-path:url(#clip-path-13)}.cls-14{clip-path:url(#clip-path-14)}.cls-15{clip-path:url(#clip-path-16)}.cls-16{clip-path:url(#clip-path-17)}.cls-17{clip-path:url(#clip-path-19)}.cls-18{clip-path:url(#clip-path-20)}.cls-19{clip-path:url(#clip-path-22)}.cls-20{clip-path:url(#clip-path-23)}.cls-21{clip-path:url(#clip-path-25)}.cls-22{clip-path:url(#clip-path-26)}.cls-23{clip-path:url(#clip-path-28)}.cls-24{clip-path:url(#clip-path-29)}.cls-25{clip-path:url(#clip-path-31)}.cls-26{clip-path:url(#clip-path-32)}.cls-27{clip-path:url(#clip-path-34)}.cls-28{clip-path:url(#clip-path-35)}.cls-29{clip-path:url(#clip-path-37)}.cls-30{clip-path:url(#clip-path-38)}.cls-31{clip-path:url(#clip-path-40)}.cls-32{clip-path:url(#clip-path-41)}.cls-33{clip-path:url(#clip-path-43)}.cls-34{clip-path:url(#clip-path-44)}.cls-35{clip-path:url(#clip-path-46)}.cls-36{clip-path:url(#clip-path-47)}.cls-37{clip-path:url(#clip-path-49)}.cls-38{clip-path:url(#clip-path-50)}.cls-39{clip-path:url(#clip-path-52)}.cls-40{clip-path:url(#clip-path-53)}.cls-41{clip-path:url(#clip-path-55)}.cls-42{clip-path:url(#clip-path-56)}.cls-43{clip-path:url(#clip-path-57)}.cls-44,.cls-45,.cls-46,.cls-48{stroke-linecap:round}.cls-44,.cls-47,.cls-48{stroke-width:1.42px}.cls-45,.cls-47{fill:#0e1f2d;stroke:#0c1f2e}.cls-45,.cls-46{stroke-width:4.26px}.cls-48{stroke:#fff}.cls-50{clip-path:url(#clip-path-59)}</style><clipPath id="clip-path"><path class="cls-1" d="M679.67-441.51h-1.5v84h108v-84h-106.5zm0 3h105l-1.5-1.5v81l1.5-1.5h-105l1.5 1.5v-81zm-21.5-23h148v124h-148z"/></clipPath><clipPath id="clip-path-2"><path class="cls-2" d="M679.67-440.01h105v81h-105z"/></clipPath><clipPath id="clip-path-4"><path class="cls-1" d="M673.67-424.51h-2.24l.85-2.07 9.07-22 .38-.93H782.6l.38.93 9.07 22 .85 2.07H673.67zm0-3h117l-1.39 2.07-9.07-22 1.39.93h-98.86l1.39-.93-9.07 22zm-22.24 23h161.48v-65H651.43z"/></clipPath><clipPath id="clip-path-5"><path class="cls-1" d="M673.67-426.01h117l-9.07-22h-98.86l-9.07 22z"/></clipPath><clipPath id="clip-path-7"><path class="cls-1" d="M758.67-457.51h-1.5v19h15v-19h-13.5zm0 3h12l-1.5-1.5v16l1.5-1.5h-12l1.5 1.5v-16zm-21.5-23h55v59h-55z"/></clipPath><clipPath id="clip-path-8"><path class="cls-2" d="M758.67-456.01h12v16h-12z"/></clipPath><clipPath id="clip-path-10"><path class="cls-1" d="M692.67-391.51h-1.5v34h24v-34h-22.5zm0 3h21l-1.5-1.5v31l1.5-1.5h-21l1.5 1.5v-31zm-21.5-23h64v74h-64z"/></clipPath><clipPath id="clip-path-11"><path class="cls-2" d="M692.67-390.01h21v31h-21z"/></clipPath><clipPath id="clip-path-13"><path class="cls-1" d="M693.67-419.51h-1.5v22h22v-22h-20.5zm0 3h19l-1.5-1.5v19l1.5-1.5h-19l1.5 1.5v-19zm-21.5-23h62v62h-62z"/></clipPath><clipPath id="clip-path-14"><path class="cls-2" d="M693.67-418.01h19v19h-19z"/></clipPath><clipPath id="clip-path-16"><path class="cls-1" d="M698.67-414.51h-1.5v12h12v-12h-10.5zm0 3h9l-1.5-1.5v9l1.5-1.5h-9l1.5 1.5v-9zm-21.5-23h52v52h-52z"/></clipPath><clipPath id="clip-path-17"><path class="cls-2" d="M698.67-413.01h9v9h-9z"/></clipPath><clipPath id="clip-path-19"><path class="cls-1" d="M723.67-419.51h-1.5v22h22v-22h-20.5zm0 3h19l-1.5-1.5v19l1.5-1.5h-19l1.5 1.5v-19zm-21.5-23h62v62h-62z"/></clipPath><clipPath id="clip-path-20"><path class="cls-2" d="M723.67-418.01h19v19h-19z"/></clipPath><clipPath id="clip-path-22"><path class="cls-1" d="M752.67-419.51h-1.5v22h22v-22h-20.5zm0 3h19l-1.5-1.5v19l1.5-1.5h-19l1.5 1.5v-19zm-21.5-23h62v62h-62z"/></clipPath><clipPath id="clip-path-23"><path class="cls-2" d="M752.67-418.01h19v19h-19z"/></clipPath><clipPath id="clip-path-25"><path class="cls-1" d="M723.67-391.51h-1.5v22h22v-22h-20.5zm0 3h19l-1.5-1.5v19l1.5-1.5h-19l1.5 1.5v-19zm-21.5-23h62v62h-62z"/></clipPath><clipPath id="clip-path-26"><path class="cls-2" d="M723.67-390.01h19v19h-19z"/></clipPath><clipPath id="clip-path-28"><path class="cls-1" d="M752.67-391.51h-1.5v22h22v-22h-20.5zm0 3h19l-1.5-1.5v19l1.5-1.5h-19l1.5 1.5v-19zm-21.5-23h62v62h-62z"/></clipPath><clipPath id="clip-path-29"><path class="cls-2" d="M752.67-390.01h19v19h-19z"/></clipPath><clipPath id="clip-path-31"><path class="cls-1" d="M728.67-414.51h-1.5v12h12v-12h-10.5zm0 3h9l-1.5-1.5v9l1.5-1.5h-9l1.5 1.5v-9zm-21.5-23h52v52h-52z"/></clipPath><clipPath id="clip-path-32"><path class="cls-2" d="M728.67-413.01h9v9h-9z"/></clipPath><clipPath id="clip-path-34"><path class="cls-1" d="M757.67-414.51h-1.5v12h12v-12h-10.5zm0 3h9l-1.5-1.5v9l1.5-1.5h-9l1.5 1.5v-9zm-21.5-23h52v52h-52z"/></clipPath><clipPath id="clip-path-35"><path class="cls-2" d="M757.67-413.01h9v9h-9z"/></clipPath><clipPath id="clip-path-37"><path class="cls-1" d="M728.67-386.51h-1.5v12h12v-12h-10.5zm0 3h9l-1.5-1.5v9l1.5-1.5h-9l1.5 1.5v-9zm-21.5-23h52v52h-52z"/></clipPath><clipPath id="clip-path-38"><path class="cls-2" d="M728.67-385.01h9v9h-9z"/></clipPath><clipPath id="clip-path-40"><path class="cls-1" d="M757.67-386.51h-1.5v12h12v-12h-10.5zm0 3h9l-1.5-1.5v9l1.5-1.5h-9l1.5 1.5v-9zm-21.5-23h52v52h-52z"/></clipPath><clipPath id="clip-path-41"><path class="cls-2" d="M757.67-385.01h9v9h-9z"/></clipPath><clipPath id="clip-path-43"><path class="cls-1" d="M-347.77 352.13h-1.5v38h142V365l-.41-.43-11.44-12-.44-.46h-128.2zm0 3h127.56l-1.09-.46 11.44 12-.41-1v23l1.5-1.5h-139l1.5 1.5v-35zm-21.5-23h182v78h-182z"/></clipPath><clipPath id="clip-path-44"><path class="cls-1" d="M-347.77 353.63h127.56l11.44 12v23h-139v-35z"/></clipPath><clipPath id="clip-path-46"><path class="cls-1" d="M-314.77 403.55a14.5 14.5 0 0 1-14.5-14.5 14.5 14.5 0 0 1 14.5-14.5 14.5 14.5 0 0 1 14.5 14.5 14.5 14.5 0 0 1-14.5 14.5zm0 3a17.5 17.5 0 0 0 17.5-17.5 17.5 17.5 0 0 0-17.5-17.5 17.5 17.5 0 0 0-17.5 17.5 17.5 17.5 0 0 0 17.5 17.5zm-37.5-55h75v75h-75z"/></clipPath><clipPath id="clip-path-47"><circle class="cls-2" cx="-314.77" cy="389.05" r="16"/></clipPath><clipPath id="clip-path-49"><path class="cls-1" d="M-314.77 396.55a7.5 7.5 0 0 1-7.5-7.5 7.5 7.5 0 0 1 7.5-7.5 7.5 7.5 0 0 1 7.5 7.5 7.5 7.5 0 0 1-7.5 7.5zm0 3a10.5 10.5 0 0 0 10.5-10.5 10.5 10.5 0 0 0-10.5-10.5 10.5 10.5 0 0 0-10.5 10.5 10.5 10.5 0 0 0 10.5 10.5zm-30.5-41h61v61h-61z"/></clipPath><clipPath id="clip-path-50"><circle class="cls-2" cx="-314.77" cy="389.05" r="9"/></clipPath><clipPath id="clip-path-52"><path class="cls-1" d="M-248.54 403.55a14.5 14.5 0 0 1-14.5-14.5 14.5 14.5 0 0 1 14.5-14.5 14.5 14.5 0 0 1 14.5 14.5 14.5 14.5 0 0 1-14.5 14.5zm0 3a17.5 17.5 0 0 0 17.5-17.5 17.5 17.5 0 0 0-17.5-17.5 17.5 17.5 0 0 0-17.5 17.5 17.5 17.5 0 0 0 17.5 17.5zm-37.5-55h75v75h-75z"/></clipPath><clipPath id="clip-path-53"><circle class="cls-2" cx="-248.54" cy="389.05" r="16"/></clipPath><clipPath id="clip-path-55"><path class="cls-1" d="M-248.31 348.72l-7.69-15.57h-27.17v15.57zm-75.16 0l7.38-15.55h27.17v15.53zm-10.3 5.35l14.14-26.89h66.84l15.35 27.82z"/></clipPath><clipPath id="clip-path-56"><path class="cls-1" d="M-248.54 396.55a7.5 7.5 0 0 1-7.5-7.5 7.5 7.5 0 0 1 7.5-7.5 7.5 7.5 0 0 1 7.5 7.5 7.5 7.5 0 0 1-7.5 7.5zm0 3a10.5 10.5 0 0 0 10.5-10.5 10.5 10.5 0 0 0-10.5-10.5 10.5 10.5 0 0 0-10.5 10.5 10.5 10.5 0 0 0 10.5 10.5zm-30.5-41h61v61h-61z"/></clipPath><clipPath id="clip-path-57"><circle class="cls-2" cx="-248.54" cy="389.05" r="9"/></clipPath><clipPath id="clip-path-59"><path class="cls-4" d="M367.25 70.33h109.48l9.81 9.65v18.51H367.25V70.33z"/></clipPath></defs><title>EXPERIENTIAL ICONS 2 (2)</title><path class="cls-44" d="M129.98 77.63h6.71"/><path class="cls-45" d="M147.56 24.72v24.47a28.6 28.6 0 0 1-18.46.21l-.65-.21V24.72a9.59 9.59 0 0 1 9.55-9.56 9.6 9.6 0 0 1 9.56 9.56z"/><path class="cls-46" d="M161.43 98.4a23.43 23.43 0 1 1-33-21.4V49.19l.65.21a28.6 28.6 0 0 0 18.46-.21V77a23.42 23.42 0 0 1 13.89 21.4z"/><path class="cls-47" d="M155.05 98.67l-4.6-.15 2.31-1.94a1.09 1.09 0 0 0-1.4-1.67l-4.16 3.5-4.7-.16-1.16-2 2.29-3.79 5.69-1.31a1.09 1.09 0 1 0-.48-2.12l-3.64.84 2.48-4.11a1.26 1.26 0 0 0-2.16-1.3L143 88.54l-1-3.61a1.09 1.09 0 0 0-2.1.55l1.5 5.65-2.29 3.79-2.33-.08-2.12-3.71 1-5.92a1.09 1.09 0 1 0-2.14-.36l-.52 3.3-2.4-4.21a1.29 1.29 0 0 0-1.7-.51 1.21 1.21 0 0 0-.47 1.67l2.71 4.74-3.88-.74a1.09 1.09 0 0 0-.41 2.14l5.7 1.08 2.1 3.68-1.18 2-4.32-.14-4.37-3.86a1.09 1.09 0 1 0-1.43 1.64l2.36 2-4.71-.1a1.2 1.2 0 0 0-1.26 1.2 1.25 1.25 0 0 0 .62 1.08 1.23 1.23 0 0 0 .63.18l5.81.19-2.8 3.1a1.09 1.09 0 1 0 1.63 1.44l3.92-4.44 3.92.13 1.16 2-2.51 4.16-5.69 1.31a1.09 1.09 0 1 0 .49 2.12l3.64-.84-2.26 3.74a1.26 1.26 0 0 0 2.16 1.3l2.25-3.73 1 3.6a1.09 1.09 0 0 0 1.05.81 1 1 0 0 0 .28 0 1.09 1.09 0 0 0 .77-1.33l-1.5-5.65 2.51-4.16 2.34.08 2.07 3.63-1.12 5.54a1.09 1.09 0 0 0 .85 1.28h.22a1.1 1.1 0 0 0 1.07-.87l.62-3.08 2.5 4.39a1.3 1.3 0 0 0 .45.46 1.28 1.28 0 0 0 1.25 0 1.2 1.2 0 0 0 .47-1.67l-2.91-5.1 4.05.9a1.09 1.09 0 1 0 .46-2.12l-6-1.32-1.86-3.26 1.18-2 4 .14 4.16 4.76a1.09 1.09 0 0 0 1.64-1.43l-2.78-3.08 5.56.18a1.2 1.2 0 0 0 1.26-1.19 1.28 1.28 0 0 0-1.25-1.32zm-14.18 2l-.37.6-.73 1.21-1.44-.05h-2.17l-.71-1.25-.36-.63-.72-1.25.73-1.21.37-.6.72-1.2h3.61l.72 1.25.35.63.72 1.25z"/><path class="cls-44" d="M141.6 99.46l-.72 1.21-.37.6-.73 1.21-1.44-.06-.71-.02-1.45-.05-.72-1.25-.36-.63-.71-1.25.72-1.21.37-.6.72-1.2 1.45.04.72.03 1.44.05.72 1.25.36.62.71 1.26z"/><path class="cls-48" d="M130.78 34.39h6.13M130.78 27.86h4.68M130.78 21.33h5.53M130.78 47.96h6.13M130.78 41.43h4.68"/><path class="cls-44" d="M129.98 56.44h6.71M129.98 62.97h6.71M129.98 69.5h6.71M129.98 76.03h6.71"/><path class="cls-49" d="M367.25 70.33h109.48l9.81 9.65v18.51H367.25V70.33z"/><g class="cls-50"><path class="cls-51" d="M47.99-360.18h962.06v828.83H47.99z"/><path class="cls-52" d="M47.99-360.18h962.06v828.83H47.99z"/></g><path class="cls-53" d="M367.25 70.33h109.48l9.81 9.65v18.51H367.25V70.33z"/></svg>