<svg xmlns="http://www.w3.org/2000/svg" xmlns:xlink="http://www.w3.org/1999/xlink" viewBox="0 0 276 137"><defs><path id="a" d="M-454-199.7c-27.1 0-49-21.9-49-49s21.9-49 49-49 49 21.9 49 49c0 27-21.9 49-49 49zm0 3c28.7 0 52-23.3 52-52s-23.3-52-52-52-52 23.3-52 52 23.3 52 52 52zm-72-124h144v144h-144v-144z"/></defs><clipPath id="b"><use xlink:href="#a" overflow="visible"/></clipPath><g clip-path="url(#b)"><defs><circle id="c" cx="-454" cy="-248.7" r="50.5"/></defs></g><defs><circle id="d" cx="-454" cy="-248.7" r="50.5"/></defs><defs><circle id="e" cx="-454" cy="-248.7" r="43.5"/></defs><defs><path id="f" d="M-453.3-32.5c-24.6 0-44.6-20-44.6-44.6s20-44.6 44.6-44.6 44.6 20 44.6 44.6-20 44.6-44.6 44.6zm0 2.7c26.1 0 47.3-21.2 47.3-47.3s-21.2-47.3-47.3-47.3-47.3 21.2-47.3 47.3 21.2 47.3 47.3 47.3zm-65.5-112.8h131v131h-131v-131z"/></defs><clipPath id="g"><use xlink:href="#f" overflow="visible"/></clipPath><g clip-path="url(#g)"><defs><circle id="h" cx="-453.3" cy="-77.1" r="45.9"/></defs></g><defs><circle id="i" cx="-453.3" cy="-77.1" r="45.9"/></defs><defs><circle id="j" cx="-453.3" cy="-77.1" r="39.6"/></defs><defs><path id="k" d="M85.5 34.2H84v84h108v-84H85.5zm0 3h105l-1.5-1.5v81l1.5-1.5h-105l1.5 1.5v-81l-1.5 1.5zM64 14.2h148v124H64v-124z"/></defs><clipPath id="l"><use xlink:href="#k" overflow="visible"/></clipPath><g clip-path="url(#l)"><defs><path id="m" d="M85.5 35.7h105v81h-105z"/></defs><clipPath id="n"><use xlink:href="#m" overflow="visible"/></clipPath><g clip-path="url(#n)"><defs><path id="o" d="M-795.5-463.3h1121v1030h-1121z"/></defs><clipPath id="p"><use xlink:href="#o" overflow="visible"/></clipPath><path clip-path="url(#p)" fill-rule="evenodd" clip-rule="evenodd" fill="#FFF" d="M85.5 35.7h105v81h-105z"/></g></g><defs><path id="q" d="M85.5 35.7h105v81h-105z"/></defs><clipPath id="r"><use xlink:href="#q" overflow="visible"/></clipPath><g clip-path="url(#r)"><defs><path id="s" d="M-795.5-463.3h1121v1030h-1121z"/></defs><clipPath id="t"><use xlink:href="#s" overflow="visible"/></clipPath><path clip-path="url(#t)" fill="none" stroke="#0F1F2D" stroke-width="6" stroke-linecap="round" stroke-miterlimit="10" d="M85.5 35.7h105v81h-105z"/></g><defs><path id="u" d="M79.5 51.2h-2.2l.9-2.1 9.1-22 .4-.9h100.9l.4.9 9.1 22 .9 2.1H79.5zm0-3h117l-1.4 2.1-9.1-22 1.4.9H88.6l1.4-.9-9.1 22-1.4-2.1zm-22.2 23h161.5v-65H57.3v65z"/></defs><clipPath id="v"><use xlink:href="#u" overflow="visible"/></clipPath><g clip-path="url(#v)"><defs><path id="w" d="M79.5 49.7h117l-9.1-22H88.6z"/></defs><clipPath id="x"><use xlink:href="#w" overflow="visible"/></clipPath><g clip-path="url(#x)"><defs><path id="y" d="M-795.5-463.3h1121v1030h-1121z"/></defs><clipPath id="z"><use xlink:href="#y" overflow="visible"/></clipPath><path clip-path="url(#z)" fill-rule="evenodd" clip-rule="evenodd" fill="#FFF" d="M79.5 49.7h117l-9.1-22H88.6z"/></g></g><defs><path id="A" d="M79.5 49.7h117l-9.1-22H88.6z"/></defs><clipPath id="B"><use xlink:href="#A" overflow="visible"/></clipPath><g clip-path="url(#B)"><defs><path id="C" d="M-795.5-463.3h1121v1030h-1121z"/></defs><clipPath id="D"><use xlink:href="#C" overflow="visible"/></clipPath><path clip-path="url(#D)" fill="none" stroke="#0F1F2D" stroke-width="6" stroke-linecap="round" stroke-miterlimit="10" d="M79.5 49.7h117l-9.1-22H88.6z"/></g><defs><path id="E" d="M164.5 18.2H163v19h15v-19h-13.5zm0 3h12l-1.5-1.5v16l1.5-1.5h-12l1.5 1.5v-16l-1.5 1.5zM143-1.8h55v59h-55v-59z"/></defs><clipPath id="F"><use xlink:href="#E" overflow="visible"/></clipPath><g clip-path="url(#F)"><defs><path id="G" d="M164.5 19.7h12v16h-12z"/></defs><clipPath id="H"><use xlink:href="#G" overflow="visible"/></clipPath><g clip-path="url(#H)"><defs><path id="I" d="M-795.5-463.3h1121v1030h-1121z"/></defs><clipPath id="J"><use xlink:href="#I" overflow="visible"/></clipPath><path clip-path="url(#J)" fill-rule="evenodd" clip-rule="evenodd" fill="#FFF" d="M164.5 19.7h12v16h-12z"/></g></g><defs><path id="K" d="M164.5 19.7h12v16h-12z"/></defs><clipPath id="L"><use xlink:href="#K" overflow="visible"/></clipPath><g clip-path="url(#L)"><defs><path id="M" d="M-795.5-463.3h1121v1030h-1121z"/></defs><clipPath id="N"><use xlink:href="#M" overflow="visible"/></clipPath><path clip-path="url(#N)" fill="none" stroke="#0F1F2D" stroke-width="6" stroke-linecap="round" stroke-miterlimit="10" d="M164.5 19.7h12v16h-12z"/></g><defs><path id="O" d="M98.5 84.2H97v34h24v-34H98.5zm0 3h21l-1.5-1.5v31l1.5-1.5h-21l1.5 1.5v-31l-1.5 1.5zM77 64.2h64v74H77v-74z"/></defs><clipPath id="P"><use xlink:href="#O" overflow="visible"/></clipPath><g clip-path="url(#P)"><defs><path id="Q" d="M98.5 85.7h21v31h-21z"/></defs><clipPath id="R"><use xlink:href="#Q" overflow="visible"/></clipPath><g clip-path="url(#R)"><defs><path id="S" d="M-795.5-463.3h1121v1030h-1121z"/></defs><clipPath id="T"><use xlink:href="#S" overflow="visible"/></clipPath><path clip-path="url(#T)" fill-rule="evenodd" clip-rule="evenodd" fill="#FFF" d="M98.5 85.7h21v31h-21z"/></g></g><defs><path id="U" d="M98.5 85.7h21v31h-21z"/></defs><clipPath id="V"><use xlink:href="#U" overflow="visible"/></clipPath><g clip-path="url(#V)"><defs><path id="W" d="M-795.5-463.3h1121v1030h-1121z"/></defs><clipPath id="X"><use xlink:href="#W" overflow="visible"/></clipPath><path clip-path="url(#X)" fill="none" stroke="#0F1F2D" stroke-width="6" stroke-linecap="round" stroke-miterlimit="10" d="M98.5 85.7h21v31h-21z"/></g><defs><path id="Y" d="M99.5 56.2H98v22h22v-22H99.5zm0 3h19l-1.5-1.5v19l1.5-1.5h-19l1.5 1.5v-19l-1.5 1.5zM78 36.2h62v62H78v-62z"/></defs><clipPath id="Z"><use xlink:href="#Y" overflow="visible"/></clipPath><g clip-path="url(#Z)"><defs><path id="aa" d="M99.5 57.7h19v19h-19z"/></defs><clipPath id="ab"><use xlink:href="#aa" overflow="visible"/></clipPath><g clip-path="url(#ab)"><defs><path id="ac" d="M-795.5-463.3h1121v1030h-1121z"/></defs><clipPath id="ad"><use xlink:href="#ac" overflow="visible"/></clipPath><path clip-path="url(#ad)" fill-rule="evenodd" clip-rule="evenodd" fill="#FFF" d="M99.5 57.7h19v19h-19z"/></g></g><defs><path id="ae" d="M99.5 57.7h19v19h-19z"/></defs><clipPath id="af"><use xlink:href="#ae" overflow="visible"/></clipPath><g clip-path="url(#af)"><defs><path id="ag" d="M-795.5-463.3h1121v1030h-1121z"/></defs><clipPath id="ah"><use xlink:href="#ag" overflow="visible"/></clipPath><path clip-path="url(#ah)" fill="none" stroke="#0F1F2D" stroke-width="6" stroke-linecap="round" stroke-miterlimit="10" d="M99.5 57.7h19v19h-19z"/></g><defs><path id="ai" d="M104.5 61.2H103v12h12v-12h-10.5zm0 3h9l-1.5-1.5v9l1.5-1.5h-9l1.5 1.5v-9l-1.5 1.5zM83 41.2h52v52H83v-52z"/></defs><clipPath id="aj"><use xlink:href="#ai" overflow="visible"/></clipPath><g clip-path="url(#aj)"><defs><path id="ak" d="M104.5 62.7h9v9h-9z"/></defs><clipPath id="al"><use xlink:href="#ak" overflow="visible"/></clipPath><g clip-path="url(#al)"><defs><path id="am" d="M-795.5-463.3h1121v1030h-1121z"/></defs><clipPath id="an"><use xlink:href="#am" overflow="visible"/></clipPath><path clip-path="url(#an)" fill-rule="evenodd" clip-rule="evenodd" fill="#FFF" d="M104.5 62.7h9v9h-9z"/></g></g><defs><path id="ao" d="M104.5 62.7h9v9h-9z"/></defs><clipPath id="ap"><use xlink:href="#ao" overflow="visible"/></clipPath><g clip-path="url(#ap)"><defs><path id="aq" d="M-795.5-463.3h1121v1030h-1121z"/></defs><clipPath id="ar"><use xlink:href="#aq" overflow="visible"/></clipPath><path clip-path="url(#ar)" fill="none" stroke="#0F1F2D" stroke-width="6" stroke-linecap="round" stroke-miterlimit="10" d="M104.5 62.7h9v9h-9z"/></g><defs><path id="as" d="M129.5 56.2H128v22h22v-22h-20.5zm0 3h19l-1.5-1.5v19l1.5-1.5h-19l1.5 1.5v-19l-1.5 1.5zm-21.5-23h62v62h-62v-62z"/></defs><clipPath id="at"><use xlink:href="#as" overflow="visible"/></clipPath><g clip-path="url(#at)"><defs><path id="au" d="M129.5 57.7h19v19h-19z"/></defs><clipPath id="av"><use xlink:href="#au" overflow="visible"/></clipPath><g clip-path="url(#av)"><defs><path id="aw" d="M-795.5-463.3h1121v1030h-1121z"/></defs><clipPath id="ax"><use xlink:href="#aw" overflow="visible"/></clipPath><path clip-path="url(#ax)" fill-rule="evenodd" clip-rule="evenodd" fill="#FFF" d="M129.5 57.7h19v19h-19z"/></g></g><defs><path id="ay" d="M129.5 57.7h19v19h-19z"/></defs><clipPath id="az"><use xlink:href="#ay" overflow="visible"/></clipPath><g clip-path="url(#az)"><defs><path id="aA" d="M-795.5-463.3h1121v1030h-1121z"/></defs><clipPath id="aB"><use xlink:href="#aA" overflow="visible"/></clipPath><path clip-path="url(#aB)" fill="none" stroke="#0F1F2D" stroke-width="6" stroke-linecap="round" stroke-miterlimit="10" d="M129.5 57.7h19v19h-19z"/></g><defs><path id="aC" d="M158.5 56.2H157v22h22v-22h-20.5zm0 3h19l-1.5-1.5v19l1.5-1.5h-19l1.5 1.5v-19l-1.5 1.5zm-21.5-23h62v62h-62v-62z"/></defs><clipPath id="aD"><use xlink:href="#aC" overflow="visible"/></clipPath><g clip-path="url(#aD)"><defs><path id="aE" d="M158.5 57.7h19v19h-19z"/></defs><clipPath id="aF"><use xlink:href="#aE" overflow="visible"/></clipPath><g clip-path="url(#aF)"><defs><path id="aG" d="M-795.5-463.3h1121v1030h-1121z"/></defs><clipPath id="aH"><use xlink:href="#aG" overflow="visible"/></clipPath><path clip-path="url(#aH)" fill-rule="evenodd" clip-rule="evenodd" fill="#FFF" d="M158.5 57.7h19v19h-19z"/></g></g><defs><path id="aI" d="M158.5 57.7h19v19h-19z"/></defs><clipPath id="aJ"><use xlink:href="#aI" overflow="visible"/></clipPath><g clip-path="url(#aJ)"><defs><path id="aK" d="M-795.5-463.3h1121v1030h-1121z"/></defs><clipPath id="aL"><use xlink:href="#aK" overflow="visible"/></clipPath><path clip-path="url(#aL)" fill="none" stroke="#0F1F2D" stroke-width="6" stroke-linecap="round" stroke-miterlimit="10" d="M158.5 57.7h19v19h-19z"/></g><defs><path id="aM" d="M129.5 84.2H128v22h22v-22h-20.5zm0 3h19l-1.5-1.5v19l1.5-1.5h-19l1.5 1.5v-19l-1.5 1.5zm-21.5-23h62v62h-62v-62z"/></defs><clipPath id="aN"><use xlink:href="#aM" overflow="visible"/></clipPath><g clip-path="url(#aN)"><defs><path id="aO" d="M129.5 85.7h19v19h-19z"/></defs><clipPath id="aP"><use xlink:href="#aO" overflow="visible"/></clipPath><g clip-path="url(#aP)"><defs><path id="aQ" d="M-795.5-463.3h1121v1030h-1121z"/></defs><clipPath id="aR"><use xlink:href="#aQ" overflow="visible"/></clipPath><path clip-path="url(#aR)" fill-rule="evenodd" clip-rule="evenodd" fill="#FFF" d="M129.5 85.7h19v19h-19z"/></g></g><defs><path id="aS" d="M129.5 85.7h19v19h-19z"/></defs><clipPath id="aT"><use xlink:href="#aS" overflow="visible"/></clipPath><g clip-path="url(#aT)"><defs><path id="aU" d="M-795.5-463.3h1121v1030h-1121z"/></defs><clipPath id="aV"><use xlink:href="#aU" overflow="visible"/></clipPath><path clip-path="url(#aV)" fill="none" stroke="#0F1F2D" stroke-width="6" stroke-linecap="round" stroke-miterlimit="10" d="M129.5 85.7h19v19h-19z"/></g><defs><path id="aW" d="M158.5 84.2H157v22h22v-22h-20.5zm0 3h19l-1.5-1.5v19l1.5-1.5h-19l1.5 1.5v-19l-1.5 1.5zm-21.5-23h62v62h-62v-62z"/></defs><clipPath id="aX"><use xlink:href="#aW" overflow="visible"/></clipPath><g clip-path="url(#aX)"><defs><path id="aY" d="M158.5 85.7h19v19h-19z"/></defs><clipPath id="aZ"><use xlink:href="#aY" overflow="visible"/></clipPath><g clip-path="url(#aZ)"><defs><path id="ba" d="M-795.5-463.3h1121v1030h-1121z"/></defs><clipPath id="bb"><use xlink:href="#ba" overflow="visible"/></clipPath><path clip-path="url(#bb)" fill-rule="evenodd" clip-rule="evenodd" fill="#FFF" d="M158.5 85.7h19v19h-19z"/></g></g><defs><path id="bc" d="M158.5 85.7h19v19h-19z"/></defs><clipPath id="bd"><use xlink:href="#bc" overflow="visible"/></clipPath><g clip-path="url(#bd)"><defs><path id="be" d="M-795.5-463.3h1121v1030h-1121z"/></defs><clipPath id="bf"><use xlink:href="#be" overflow="visible"/></clipPath><path clip-path="url(#bf)" fill="none" stroke="#0F1F2D" stroke-width="6" stroke-linecap="round" stroke-miterlimit="10" d="M158.5 85.7h19v19h-19z"/></g><g><defs><path id="bg" d="M134.5 61.2H133v12h12v-12h-10.5zm0 3h9l-1.5-1.5v9l1.5-1.5h-9l1.5 1.5v-9l-1.5 1.5zm-21.5-23h52v52h-52v-52z"/></defs><clipPath id="bh"><use xlink:href="#bg" overflow="visible"/></clipPath><g clip-path="url(#bh)"><defs><path id="bi" d="M134.5 62.7h9v9h-9z"/></defs><clipPath id="bj"><use xlink:href="#bi" overflow="visible"/></clipPath><g clip-path="url(#bj)"><defs><path id="bk" d="M-795.5-463.3h1121v1030h-1121z"/></defs><clipPath id="bl"><use xlink:href="#bk" overflow="visible"/></clipPath><path clip-path="url(#bl)" fill-rule="evenodd" clip-rule="evenodd" fill="#FFF" d="M134.5 62.7h9v9h-9z"/></g></g></g><g><defs><path id="bm" d="M134.5 62.7h9v9h-9z"/></defs><clipPath id="bn"><use xlink:href="#bm" overflow="visible"/></clipPath><g clip-path="url(#bn)"><defs><path id="bo" d="M-795.5-463.3h1121v1030h-1121z"/></defs><clipPath id="bp"><use xlink:href="#bo" overflow="visible"/></clipPath><path clip-path="url(#bp)" fill="none" stroke="#0F1F2D" stroke-width="6" stroke-linecap="round" stroke-miterlimit="10" d="M134.5 62.7h9v9h-9z"/></g></g><g><defs><path id="bq" d="M163.5 61.2H162v12h12v-12h-10.5zm0 3h9l-1.5-1.5v9l1.5-1.5h-9l1.5 1.5v-9l-1.5 1.5zm-21.5-23h52v52h-52v-52z"/></defs><clipPath id="br"><use xlink:href="#bq" overflow="visible"/></clipPath><g clip-path="url(#br)"><defs><path id="bs" d="M163.5 62.7h9v9h-9z"/></defs><clipPath id="bt"><use xlink:href="#bs" overflow="visible"/></clipPath><g clip-path="url(#bt)"><defs><path id="bu" d="M-795.5-463.3h1121v1030h-1121z"/></defs><clipPath id="bv"><use xlink:href="#bu" overflow="visible"/></clipPath><path clip-path="url(#bv)" fill-rule="evenodd" clip-rule="evenodd" fill="#FFF" d="M163.5 62.7h9v9h-9z"/></g></g></g><g><defs><path id="bw" d="M163.5 62.7h9v9h-9z"/></defs><clipPath id="bx"><use xlink:href="#bw" overflow="visible"/></clipPath><g clip-path="url(#bx)"><defs><path id="by" d="M-795.5-463.3h1121v1030h-1121z"/></defs><clipPath id="bz"><use xlink:href="#by" overflow="visible"/></clipPath><path clip-path="url(#bz)" fill="none" stroke="#0F1F2D" stroke-width="6" stroke-linecap="round" stroke-miterlimit="10" d="M163.5 62.7h9v9h-9z"/></g></g><g><defs><path id="bA" d="M134.5 89.2H133v12h12v-12h-10.5zm0 3h9l-1.5-1.5v9l1.5-1.5h-9l1.5 1.5v-9l-1.5 1.5zm-21.5-23h52v52h-52v-52z"/></defs><clipPath id="bB"><use xlink:href="#bA" overflow="visible"/></clipPath><g clip-path="url(#bB)"><defs><path id="bC" d="M134.5 90.7h9v9h-9z"/></defs><clipPath id="bD"><use xlink:href="#bC" overflow="visible"/></clipPath><g clip-path="url(#bD)"><defs><path id="bE" d="M-795.5-463.3h1121v1030h-1121z"/></defs><clipPath id="bF"><use xlink:href="#bE" overflow="visible"/></clipPath><path clip-path="url(#bF)" fill-rule="evenodd" clip-rule="evenodd" fill="#FFF" d="M134.5 90.7h9v9h-9z"/></g></g></g><g><defs><path id="bG" d="M134.5 90.7h9v9h-9z"/></defs><clipPath id="bH"><use xlink:href="#bG" overflow="visible"/></clipPath><g clip-path="url(#bH)"><defs><path id="bI" d="M-795.5-463.3h1121v1030h-1121z"/></defs><clipPath id="bJ"><use xlink:href="#bI" overflow="visible"/></clipPath><path clip-path="url(#bJ)" fill="none" stroke="#0F1F2D" stroke-width="6" stroke-linecap="round" stroke-miterlimit="10" d="M134.5 90.7h9v9h-9z"/></g></g><g><defs><path id="bK" d="M163.5 89.2H162v12h12v-12h-10.5zm0 3h9l-1.5-1.5v9l1.5-1.5h-9l1.5 1.5v-9l-1.5 1.5zm-21.5-23h52v52h-52v-52z"/></defs><clipPath id="bL"><use xlink:href="#bK" overflow="visible"/></clipPath><g clip-path="url(#bL)"><defs><path id="bM" d="M163.5 90.7h9v9h-9z"/></defs><clipPath id="bN"><use xlink:href="#bM" overflow="visible"/></clipPath><g clip-path="url(#bN)"><defs><path id="bO" d="M-795.5-463.3h1121v1030h-1121z"/></defs><clipPath id="bP"><use xlink:href="#bO" overflow="visible"/></clipPath><path clip-path="url(#bP)" fill-rule="evenodd" clip-rule="evenodd" fill="#FFF" d="M163.5 90.7h9v9h-9z"/></g></g></g><g><defs><path id="bQ" d="M163.5 90.7h9v9h-9z"/></defs><clipPath id="bR"><use xlink:href="#bQ" overflow="visible"/></clipPath><g clip-path="url(#bR)"><defs><path id="bS" d="M-795.5-463.3h1121v1030h-1121z"/></defs><clipPath id="bT"><use xlink:href="#bS" overflow="visible"/></clipPath><path clip-path="url(#bT)" fill="none" stroke="#0F1F2D" stroke-width="6" stroke-linecap="round" stroke-miterlimit="10" d="M163.5 90.7h9v9h-9z"/></g></g><path fill="none" stroke="#091F2F" stroke-width="3" stroke-linecap="round" stroke-linejoin="round" stroke-miterlimit="10" d="M100 87.2h18v28h-18z"/><g fill="#FFF" stroke="#0F1F2D" stroke-width="3" stroke-linecap="round" stroke-miterlimit="10"><path d="M199.6 89.7c-7.5-7.5-19.6-7.5-27 0-6.5 6.5-7.3 16.7-2.4 24.1l6.8-6.8c-1.8-4-1-8.8 2.2-12 3-3 7.3-3.8 11.1-2.6l-7.7 7.8 1.5 5.4 5.4 1.4 7.7-7.7c1.2 3.7.4 8.1-2.6 11.1-3.1 3.1-7.6 3.8-11.3 2.5l-6.8 6.8c7.3 4.3 16.9 3.3 23.2-3 7.4-7.4 7.4-19.5-.1-27z"/><path d="M194.6 110.4c3-3 3.8-7.3 2.6-11.1l-7.7 7.7-5.4-1.4-1.5-5.4 7.7-7.8c-3.8-1.3-8.1-.4-11.1 2.6-3.3 3.3-4 8.1-2.2 12l-6.8 6.8c.7 1 1.5 2 2.4 2.9 1.2 1.2 2.5 2.2 3.9 3l6.8-6.8c3.7 1.3 8.3.6 11.3-2.5z"/></g></svg>