<svg xmlns="http://www.w3.org/2000/svg" xmlns:xlink="http://www.w3.org/1999/xlink" viewBox="0 0 276 137"><defs><path id="a" d="M-158-506.5c-29.3 0-53-23.7-53-53s23.7-53 53-53 53 23.7 53 53-23.7 53-53 53zm0 3c30.9 0 56-25.1 56-56s-25.1-56-56-56-56 25.1-56 56 25.1 56 56 56z"/></defs><defs><path id="b" d="M-158-527.5c-17.7 0-32-14.3-32-32s14.3-32 32-32 32 14.3 32 32-14.3 32-32 32zm0 3c19.3 0 35-15.7 35-35s-15.7-35-35-35-35 15.7-35 35 15.7 35 35 35zm-55-90h110v110h-110v-110z"/></defs><defs><path id="c" d="M-159.5-613.5h-1.5v13h6v-13h-4.5zm0 3h3l-1.5-1.5v10l1.5-1.5h-3l1.5 1.5v-10l-1.5 1.5z"/></defs><defs><path id="d" d="M-213.5-557.5v1.5h13v-6h-13v4.5zm3 0v-3l-1.5 1.5h10l-1.5-1.5v3l1.5-1.5h-10l1.5 1.5z"/></defs><defs><path id="e" d="M-116.5-557.5v1.5h13v-6h-13v4.5zm3 0v-3l-1.5 1.5h10l-1.5-1.5v3l1.5-1.5h-10l1.5 1.5z"/></defs><defs><path id="f" d="M-127.5-587.3l1.1 1.1 1.1-1.1 7.1-7.1 1.1-1.1-1.1-1.1-2.1-2.1-1.1-1.1-1.1 1.1-7.1 7.1-1.1 1.1 1.1 1.1 2.1 2.1zm2.1-2.2l-2.1-2.1v2.1l7.1-7.1h-2.1l2.1 2.1v-2.1l-7.1 7.1h2.1z"/></defs><defs><path id="g" d="M-187.3-588.5l1.1-1.1-1.1-1.1-7.1-7.1-1.1-1.1-1.1 1.1-2.1 2.1-1.1 1.1 1.1 1.1 7.1 7.1 1.1 1.1 1.1-1.1 2.1-2.1zm-2.2-2.1l-2.1 2.1h2.1l-7.1-7.1v2.1l2.1-2.1h-2.1l7.1 7.1v-2.1z"/></defs><defs><path id="h" d="M-127.5-531.7l1.1-1.1 1.1 1.1 7.1 7.1 1.1 1.1-1.1 1.1-2.1 2.1-1.1 1.1-1.1-1.1-7.1-7.1-1.1-1.1 1.1-1.1 2.1-2.1zm2.1 2.2l-2.1 2.1v-2.1l7.1 7.1h-2.1l2.1-2.1v2.1l-7.1-7.1h2.1z"/></defs><defs><path id="i" d="M-187.3-528.5l1.1 1.1-1.1 1.1-7.1 7.1-1.1 1.1-1.1-1.1-2.1-2.1-1.1-1.1 1.1-1.1 7.1-7.1 1.1-1.1 1.1 1.1 2.1 2.1zm-2.2 2.1l-2.1-2.1h2.1l-7.1 7.1v-2.1l2.1 2.1h-2.1l7.1-7.1v2.1z"/></defs><defs><path id="j" d="M-158-535.5c-13.3 0-24-10.7-24-24s10.7-24 24-24 24 10.7 24 24-10.7 24-24 24zm0 3c14.9 0 27-12.1 27-27s-12.1-27-27-27-27 12.1-27 27 12.1 27 27 27zm-47-74h94v94h-94v-94z"/></defs><defs><path id="k" d="M132.2-620.5h-1.5v18h19v-18h-17.5zm0 3h16l-1.5-1.5v15l1.5-1.5h-16l1.5 1.5v-15l-1.5 1.5z"/></defs><defs><path id="l" d="M108.2-608.5h-1.5v43h67v-43h-65.5zm0 3h64l-1.5-1.5v40l1.5-1.5h-64l1.5 1.5v-40l-1.5 1.5z"/></defs><defs><path id="m" d="M143.2-598.5h-1.5v33h22v-33h-20.5zm0 3h19l-1.5-1.5v30l1.5-1.5h-19l1.5 1.5v-30l-1.5 1.5z"/></defs><defs><path id="n" d="M118.2-598.5h-1.5v33h22v-33h-20.5zm0 3h19l-1.5-1.5v30l1.5-1.5h-19l1.5 1.5v-30l-1.5 1.5z"/></defs><defs><path id="o" d="M87.7-540.3c0 2.9-.8 7-2.3 11.9-.6 2.1-1.3 4.3-2.1 6.5-1 2.7-2 5.4-3.1 8-.4.9-.7 1.7-1 2.4-.2.4-.3.7-.4.9l-.9 2.1h119.4l-.7-2c-.1-.2-.2-.4-.3-.9-.2-.7-.5-1.5-.8-2.4-.8-2.5-1.6-5.2-2.4-7.9-.7-2.4-1.3-4.8-1.8-7-1.1-4.8-1.7-8.8-1.7-11.8 0-2.8.7-7 1.9-12 .5-1.9 1-3.9 1.6-6 .8-2.7 1.6-5.4 2.4-7.9.3-.9.5-1.7.8-2.4.1-.4.2-.7.3-.9l.7-2H77.9l1 2.1c.1.1.2.4.4.9.3.7.6 1.5 1 2.4 1 2.5 2.1 5.1 3.1 7.8.8 2.2 1.5 4.4 2.1 6.4 1.4 5 2.2 9 2.2 11.8zm3 0c0-3.2-.9-7.5-2.4-12.5-.6-2.1-1.4-4.3-2.2-6.5-1-2.7-2.1-5.4-3.1-8-.4-.9-.7-1.7-1-2.4-.2-.4-.3-.7-.4-.9l-1.4 2.1h115l-1.4-2c-.1.2-.2.5-.3.9-.2.7-.5 1.5-.8 2.4-.8 2.6-1.7 5.3-2.4 8-.6 2.1-1.1 4.1-1.6 6.1-1.3 5.2-2 9.5-2 12.7 0 3.2.6 7.4 1.7 12.4.5 2.3 1.1 4.7 1.8 7.1.8 2.8 1.6 5.5 2.4 8.1.3.9.6 1.7.8 2.4.1.4.2.7.3.9l1.4-2h-115l1.4 2.1c.1-.2.2-.5.4-.9.3-.7.7-1.5 1-2.4 1.1-2.6 2.1-5.3 3.1-8.1.8-2.3 1.6-4.5 2.2-6.7 1.7-5.2 2.5-9.5 2.5-12.8z"/></defs><defs><path id="p" d="M103.2-539.5h-1.5v6h72v-6h-70.5zm0 3h69l-1.5-1.5v3l1.5-1.5h-69l1.5 1.5v-3l-1.5 1.5zm-21.5-23h112v46h-112v-46z"/></defs><defs><path id="q" d="M103.2-547.5h-1.5v6h72v-6h-70.5zm0 3h69l-1.5-1.5v3l1.5-1.5h-69l1.5 1.5v-3l-1.5 1.5zm-21.5-23h112v46h-112v-46z"/></defs><defs><path id="r" d="M135.2-532.1l.5 1.6 1.5-.7c2-.9 4.2-1.3 6.4-1.3 6 0 11.3 3.3 14.1 8.4l.5 1 1.1-.2c.6-.1 1.2-.2 1.8-.2 3.5 0 6.6 2.1 7.9 5.3l.5 1.2 1.3-.3c.4-.1.9-.2 1.4-.2 3 0 5.5 2.5 5.5 5.5s-2.5 5.5-5.5 5.5c-1.5 0-2.9-.6-3.9-1.6l-.9-.9-1 .8c-1.5 1.1-3.3 1.7-5.1 1.7-1.1 0-2.2-.2-3.2-.6l-1-.4-.7.9c-3 3.8-7.6 6.1-12.6 6.1-4.9 0-9.5-2.3-12.5-6l-.7-.8-1 .3c-1.1.4-2.2.5-3.3.5-2 0-4-.6-5.7-1.7l-.8-.5-.8.5c-1.7 1.1-3.6 1.7-5.7 1.7-2.2 0-4.3-.7-6-1.9l-1.1-.7-.9.9c-1 1.1-2.5 1.7-4 1.7-3 0-5.5-2.5-5.5-5.5s2.5-5.5 5.5-5.5h1.4l.2-1.3c.8-5 5.2-8.7 10.4-8.7h1.5v-1.5c0-5.8 4.7-10.5 10.5-10.5 4.6 0 8.6 3 9.9 7.4zm2.9-.9c-1.7-5.6-6.9-9.5-12.9-9.5-7.5 0-13.5 6-13.5 13.5l1.5-1.5c-6.6 0-12.2 4.8-13.3 11.3l1.5.2v-1.5h-.2c-4.7 0-8.5 3.8-8.5 8.5s3.8 8.5 8.5 8.5c2.4 0 4.6-1 6.2-2.7l-2 .2c2.3 1.6 5 2.5 7.8 2.5 2.6 0 5.2-.8 7.3-2.2h-1.6c2.2 1.4 4.7 2.2 7.3 2.2 1.5 0 2.9-.2 4.3-.7l-.5-1.4-1.2.9c3.6 4.5 9 7.2 14.9 7.2s11.4-2.7 15-7.3l-1.2-.9-.6 1.4c1.3.5 2.8.8 4.3.8 2.6 0 5-.8 7-2.4l-2-.1c1.6 1.6 3.7 2.5 6 2.5 4.7 0 8.5-3.8 8.5-8.5s-3.8-8.5-8.5-8.5c-.7 0-1.4.1-2.1.3l.4 1.5 1.4-.6c-1.8-4.3-5.9-7.2-10.6-7.2-.8 0-1.6.1-2.4.2l.3 1.5 1.3-.7c-3.3-6.1-9.7-10-16.7-10-2.7 0-5.2.5-7.6 1.6l1.9.9zm-65.4-29.5h128v85h-128v-85z"/></defs><defs><path id="s" d="M398.3-527.4l1.2.9.9-1.2c-1.5-1-3.3-1.6-5.1-1.6-5 0-9 4-9 9 0 3.8 2.4 7.2 6 8.5l-1-1.4c0 4.9 4.1 8.9 9 8.9 1.4 0 2.8-.3 4.1-1l-.7-1.3-1.4.6c1.9 4 5.9 6.7 10.4 6.7 6.4 0 11.5-5.1 11.5-11.5 0-1.2-.2-2.5-.6-3.6l-1.4.5.8 1.3c2.6-1.6 4.2-4.5 4.2-7.6 0-5-4-9-9-9-1.2 0-2.3.2-3.4.7l.6 1.4 1.1-1c-2.2-2.6-5.4-4.1-8.8-4.1-3.8-.1-7.3 1.8-9.4 4.8zm2.4 1.7c1.6-2.3 4.2-3.7 7-3.7 2.5 0 4.9 1.1 6.5 3l.7.8 1-.4c.7-.3 1.5-.4 2.3-.4 3.3 0 6 2.7 6 6 0 2.1-1.1 4-2.8 5.1l-1 .6.4 1.1c.3.9.4 1.8.4 2.7 0 4.7-3.8 8.5-8.5 8.5-3.4 0-6.3-2-7.7-4.9l-.7-1.4-1.3.7c-.8.4-1.8.7-2.7.7-3.3 0-6-2.7-6-5.9v-1.1l-1-.3c-2.4-.8-4-3.1-4-5.7 0-3.3 2.7-6 6-6 1.2 0 2.4.4 3.4 1.1l1.2.9.8-1.4zm-34.5-26.6h81v73h-81v-73z"/></defs><defs><path id="t" d="M728.1-623.6c30.3 0 55 7.1 55 14.8v22l1.7-1.5c-.1 0-.2 0-.4-.1-.4-.1-.8-.1-1.3-.2-1.4-.2-2.9-.4-4.6-.6-4.9-.7-10-1.3-15.2-2-3.9-.5-7.7-.9-11.3-1.3-9.9-1-18.1-1.6-23.9-1.6-5.2 0-14.3.8-26.1 2.3-2.5.3-5.1.6-7.7 1-5.4.7-10.9 1.5-16.1 2.3-1.8.3-3.5.5-5 .8-.5.1-1 .2-1.4.2-.2 0-.4.1-.5.1l1.7 1.5v-23c.1-7.6 24.8-14.7 55.1-14.7zm0-3c-32.1 0-58 7.5-58 17.8v24.8l1.7-.3c.1 0 .2 0 .5-.1.4-.1.8-.1 1.4-.2 1.5-.2 3.1-.5 5-.8 5.2-.8 10.7-1.6 16.1-2.3 2.6-.4 5.2-.7 7.7-1 11.7-1.5 20.7-2.3 25.7-2.3 5.6 0 13.7.6 23.6 1.6 3.6.4 7.4.8 11.2 1.3 5.2.6 10.3 1.3 15.2 2 1.7.2 3.2.4 4.6.6.5.1.9.1 1.2.2.2 0 .4.1.4.1l1.7.3v-23.7c0-10.6-25.9-18-58-18zm-78-20h156v82.5h-156v-82.5z"/></defs><defs><path id="u" d="M728.1-601.4c30.3 0 55 7.1 55 14.8 0 7.7-24.7 14.8-55 14.8s-55-7.1-55-14.8c0-7.6 24.7-14.8 55-14.8zm0-3c-32.1 0-58 7.5-58 17.8s25.9 17.8 58 17.8 58-7.5 58-17.8-25.9-17.8-58-17.8zm-78-20h156v75.6h-156v-75.6z"/></defs><defs><path id="v" d="M688.1-582.2c0-5.3 18-10.4 40-10.4s40 5.2 40 10.4v7.1l1.2-1.5c-.1 0-.1 0-.3.1-.3 0-.6.1-.9.2-1 .2-2.1.3-3.4.5-3.6.6-7.3 1.1-11.1 1.7-2.9.4-5.6.8-8.3 1.1-7.2.9-13.1 1.3-17.2 1.3-3.7 0-10.3-.5-18.9-1.4-1.8-.2-3.7-.4-5.6-.6-4-.5-8-.9-11.8-1.4-1.3-.2-2.6-.3-3.6-.5-.4 0-.7-.1-1-.1h-.3l1.3 1.5v-8zm-3 0v9.1l1.3.2h.4c.3 0 .6.1 1 .1 1.1.1 2.3.3 3.7.5a11776882415803102 11776882415803102 0 0 0 36.7 3.5c4.3 0 10.3-.5 17.6-1.4 2.7-.3 5.4-.7 8.3-1.1 3.8-.5 7.6-1.1 11.2-1.7 1.3-.2 2.4-.4 3.4-.5.4-.1.7-.1.9-.2.3 0 .3 0 .3-.1l1.2-.2v-8.4c0-7.9-19.2-13.4-43-13.4s-43 5.7-43 13.6zm-20-33.4h126v66.9h-126v-66.9z"/></defs><defs><path id="w" d="M728.1-584.3c22 0 40 5.2 40 10.4 0 5.3-18 10.4-40 10.4s-40-5.2-40-10.4 18-10.4 40-10.4zm0-3c-23.8 0-43 5.5-43 13.4s19.2 13.4 43 13.4 43-5.5 43-13.4-19.2-13.4-43-13.4zm-63-20h126v66.9h-126v-66.9z"/></defs><defs><path id="x" d="M715.5-572.3c0 .4-.2.7-.4.8.1 0 .2-.1.4-.2.6-.2 1.6-.4 2.8-.6 2.6-.4 6-.6 9.8-.6s7.2.2 9.8.6c1.2.2 2.2.4 2.8.6l.4.2c-.2-.1-.4-.4-.4-.8s.2-.7.4-.8c-.1 0-.2.1-.4.2-.6.2-1.6.4-2.8.6-2.6.4-6 .6-9.8.6s-7.2-.2-9.8-.6c-1.2-.2-2.2-.4-2.8-.6l-.4-.2c.2.1.4.3.4.8zm-3 0c0 2.6 6.2 3.5 15.6 3.5s15.6-.9 15.6-3.5-6.2-3.5-15.6-3.5-15.6.8-15.6 3.5zm-20-23.6h71.2v47.1h-71.2v-47.1z"/></defs><defs><path id="y" d="M84.5-441.5l-1.4.4.4 1.4 30.4 99.5.4 1.4 1.4-.4 60.2-18.4 1.4-.4-.4-1.4-30.4-99.5-.4-1.4-1.4.4-60.2 18.4zm.9 2.9l60.2-18.4-1.9-1 30.4 99.5 1-1.9-60.2 18.4 1.9 1-30.4-99.5-1 1.9zm-27.3-15.7l101.4-31 43 140.6-101.4 31-43-140.6z"/></defs><defs><path id="z" d="M119.8-464.5h-1.5v107h66v-107h-64.5zm0 3h63l-1.5-1.5v104l1.5-1.5h-63l1.5 1.5v-104l-1.5 1.5zm-21.5-23h106v147h-106v-147z"/></defs><defs><path id="A" d="M389.5-464.5H388v107h66v-107h-64.5zm0 3h63L451-463v104l1.5-1.5h-63l1.5 1.5v-104l-1.5 1.5zm-21.5-23h106v147H368v-147z"/></defs><defs><path id="B" d="M461.5-343.5c-16.3 0-29.5-13.2-29.5-29.5s13.2-29.5 29.5-29.5S491-389.3 491-373s-13.2 29.5-29.5 29.5zm0 3c17.9 0 32.5-14.6 32.5-32.5s-14.6-32.5-32.5-32.5S429-390.9 429-373s14.5 32.5 32.5 32.5zm-52.5-85h105v105H409v-105z"/></defs><defs><path id="C" d="M367.8-288.3h-1.5v90h134v-90H367.8zm0 3h131l-1.5-1.5v87l1.5-1.5h-131l1.5 1.5v-87l-1.5 1.5zm-21.5-23h174v130h-174v-130z"/></defs><defs><path id="D" d="M372.8-283.3h-1.5v80h124v-80H372.8zm0 3h121l-1.5-1.5v77l1.5-1.5h-121l1.5 1.5v-77l-1.5 1.5zm-21.5-23h164v120h-164v-120z"/></defs><defs><path id="E" d="M437.8-268.3h-1.5v6h47v-6h-45.5zm0 3h44l-1.5-1.5v3l1.5-1.5h-44l1.5 1.5v-3l-1.5 1.5zm-21.5-23h87v46h-87v-46z"/></defs><defs><path id="F" d="M437.8-262.3h-1.5v6h47v-6h-45.5zm0 3h44l-1.5-1.5v3l1.5-1.5h-44l1.5 1.5v-3l-1.5 1.5zm-21.5-23h87v46h-87v-46z"/></defs><defs><path id="G" d="M437.8-256.3h-1.5v6h47v-6h-45.5zm0 3h44l-1.5-1.5v3l1.5-1.5h-44l1.5 1.5v-3l-1.5 1.5zm-21.5-23h87v46h-87v-46z"/></defs><defs><path id="H" d="M437.8-250.3h-1.5v6h47v-6h-45.5zm0 3h44l-1.5-1.5v3l1.5-1.5h-44l1.5 1.5v-3l-1.5 1.5zm-21.5-23h87v46h-87v-46z"/></defs><defs><path id="I" d="M80-125.8h-1.2v71.5h131.7v-71.5H80zm0 2.4h129.3l-1.2-1.2v69.1l1.2-1.2H80l1.2 1.2v-69.1l-1.2 1.2zm-17.3-18.5h163.9v103.6H62.7v-103.6z"/></defs><defs><path id="J" d="M86.4-119.4h-1.2v57.8h118.9v-57.8h-19.5l-.3.2-6.5 4.8.7-.2h-66.7l.8.3-5.9-4.8-.3-.3h-20zm0 2.4h19.4l-.8-.3 5.9 4.8.3.3h67.5l.3-.2 6.5-4.8-.5.2h17.9l-1.2-1.2v55.4l1.2-1.2H86.4l1.2 1.2v-55.4l-1.2 1.2zm-17.3-18.5h151v90h-151v-90z"/></defs><defs><path id="K" d="M-217.5 107.4c-21.5 0-38.9-17.4-38.9-38.9s17.4-38.9 38.9-38.9 38.9 17.4 38.9 38.9-17.4 38.9-38.9 38.9zm0 3c23.2 0 41.9-18.8 41.9-41.9s-18.8-41.9-41.9-41.9c-23.2 0-41.9 18.8-41.9 41.9s18.7 41.9 41.9 41.9zm-62-103.8h123.9v123.9h-123.9V6.6z"/></defs><defs><path id="L" d="M-104.5 107.4c-21.5 0-38.9-17.4-38.9-38.9s17.4-38.9 38.9-38.9S-65.6 47-65.6 68.5s-17.4 38.9-38.9 38.9zm0 3c23.2 0 41.9-18.8 41.9-41.9s-18.8-41.9-41.9-41.9c-23.2 0-41.9 18.8-41.9 41.9s18.7 41.9 41.9 41.9zm-62-103.8h123.9v123.9h-123.9V6.6z"/></defs><defs><path id="M" d="M-229.8-103.8h-1.5v38h142v-25.1l-.4-.4-11.4-12-.4-.5h-128.3zm0 3h127.6l-1.1-.5 11.4 12-.4-1v23l1.5-1.5h-139l1.5 1.5v-35l-1.5 1.5zm-21.5-23h182v78h-182v-78z"/></defs><defs><path id="N" d="M-196.8-52.4c-8 0-14.5-6.5-14.5-14.5s6.5-14.5 14.5-14.5 14.5 6.5 14.5 14.5-6.4 14.5-14.5 14.5zm0 3c9.7 0 17.5-7.8 17.5-17.5s-7.8-17.5-17.5-17.5-17.5 7.8-17.5 17.5 7.9 17.5 17.5 17.5zm-37.5-55h75v75h-75v-75z"/></defs><defs><path id="O" d="M-196.8-59.4c-4.1 0-7.5-3.4-7.5-7.5s3.4-7.5 7.5-7.5 7.5 3.4 7.5 7.5c0 4.2-3.3 7.5-7.5 7.5zm0 3c5.8 0 10.5-4.7 10.5-10.5s-4.7-10.5-10.5-10.5-10.5 4.7-10.5 10.5 4.7 10.5 10.5 10.5zm-30.5-41h61v61h-61v-61z"/></defs><defs><path id="P" d="M-130.5-52.4c-8 0-14.5-6.5-14.5-14.5s6.5-14.5 14.5-14.5 14.5 6.5 14.5 14.5-6.5 14.5-14.5 14.5zm0 3c9.7 0 17.5-7.8 17.5-17.5s-7.8-17.5-17.5-17.5-17.5 7.9-17.5 17.5c0 9.7 7.8 17.5 17.5 17.5zm-37.5-55h75v75h-75v-75z"/></defs><defs><path id="Q" d="M-130.5-59.4c-4.1 0-7.5-3.4-7.5-7.5s3.4-7.5 7.5-7.5 7.5 3.4 7.5 7.5c0 4.2-3.4 7.5-7.5 7.5zm0 3c5.8 0 10.5-4.7 10.5-10.5s-4.7-10.5-10.5-10.5-10.5 4.7-10.5 10.5 4.7 10.5 10.5 10.5zm-30.5-41h61v61h-61v-61z"/></defs><defs><path id="R" d="M84.2-281.5h-1.5v84h108v-84H84.2zm0 3h105l-1.5-1.5v81l1.5-1.5h-105l1.5 1.5v-81l-1.5 1.5zm-21.5-23h148v124h-148v-124z"/></defs><defs><path id="S" d="M78.2-264.5H76l.9-2.1 9.1-22 .4-.9h100.9l.4.9 9.1 22 .9 2.1H78.2zm0-3h117l-1.4 2.1-9.1-22 1.4.9H87.3l1.4-.9-9.1 22-1.4-2.1zm-22.2 23h161.5v-65H56v65z"/></defs><defs><path id="T" d="M163.2-297.5h-1.5v19h15v-19h-13.5zm0 3h12l-1.5-1.5v16l1.5-1.5h-12l1.5 1.5v-16l-1.5 1.5zm-21.5-23h55v59h-55v-59z"/></defs><defs><path id="U" d="M97.2-231.5h-1.5v34h24v-34H97.2zm0 3h21l-1.5-1.5v31l1.5-1.5h-21l1.5 1.5v-31l-1.5 1.5zm-21.5-23h64v74h-64v-74z"/></defs><defs><path id="V" d="M98.2-259.5h-1.5v22h22v-22H98.2zm0 3h19l-1.5-1.5v19l1.5-1.5h-19l1.5 1.5v-19l-1.5 1.5zm-21.5-23h62v62h-62v-62z"/></defs><defs><path id="W" d="M103.2-254.5h-1.5v12h12v-12h-10.5zm0 3h9l-1.5-1.5v9l1.5-1.5h-9l1.5 1.5v-9l-1.5 1.5zm-21.5-23h52v52h-52v-52z"/></defs><defs><path id="X" d="M128.2-259.5h-1.5v22h22v-22h-20.5zm0 3h19l-1.5-1.5v19l1.5-1.5h-19l1.5 1.5v-19l-1.5 1.5zm-21.5-23h62v62h-62v-62z"/></defs><defs><path id="Y" d="M157.2-259.5h-1.5v22h22v-22h-20.5zm0 3h19l-1.5-1.5v19l1.5-1.5h-19l1.5 1.5v-19l-1.5 1.5zm-21.5-23h62v62h-62v-62z"/></defs><defs><path id="Z" d="M128.2-231.5h-1.5v22h22v-22h-20.5zm0 3h19l-1.5-1.5v19l1.5-1.5h-19l1.5 1.5v-19l-1.5 1.5zm-21.5-23h62v62h-62v-62z"/></defs><defs><path id="aa" d="M157.2-231.5h-1.5v22h22v-22h-20.5zm0 3h19l-1.5-1.5v19l1.5-1.5h-19l1.5 1.5v-19l-1.5 1.5zm-21.5-23h62v62h-62v-62z"/></defs><defs><path id="ab" d="M133.2-254.5h-1.5v12h12v-12h-10.5zm0 3h9l-1.5-1.5v9l1.5-1.5h-9l1.5 1.5v-9l-1.5 1.5zm-21.5-23h52v52h-52v-52z"/></defs><defs><path id="ac" d="M162.2-254.5h-1.5v12h12v-12h-10.5zm0 3h9l-1.5-1.5v9l1.5-1.5h-9l1.5 1.5v-9l-1.5 1.5zm-21.5-23h52v52h-52v-52z"/></defs><defs><path id="ad" d="M133.2-226.5h-1.5v12h12v-12h-10.5zm0 3h9l-1.5-1.5v9l1.5-1.5h-9l1.5 1.5v-9l-1.5 1.5zm-21.5-23h52v52h-52v-52z"/></defs><defs><path id="ae" d="M162.2-226.5h-1.5v12h12v-12h-10.5zm0 3h9l-1.5-1.5v9l1.5-1.5h-9l1.5 1.5v-9l-1.5 1.5zm-21.5-23h52v52h-52v-52z"/></defs><defs><path id="af" d="M83.8 32.9h-1.5v84h108v-84H83.8zm0 3h105l-1.5-1.5v81l1.5-1.5h-105l1.5 1.5v-81l-1.5 1.5zm-21.5-23h148v124h-148v-124z"/></defs><clipPath id="ag"><use xlink:href="#af" overflow="visible"/></clipPath><g clip-path="url(#ag)"><defs><path id="ah" d="M83.8 34.4h105v81h-105z"/></defs><clipPath id="ai"><use xlink:href="#ah" overflow="visible"/></clipPath><g clip-path="url(#ai)"><defs><path id="aj" d="M-797.2-464.6h1121v1030h-1121z"/></defs><clipPath id="ak"><use xlink:href="#aj" overflow="visible"/></clipPath><path clip-path="url(#ak)" fill-rule="evenodd" clip-rule="evenodd" fill="#FFF" d="M83.8 34.4h105v81h-105z"/></g></g><defs><path id="al" d="M83.8 34.4h105v81h-105z"/></defs><clipPath id="am"><use xlink:href="#al" overflow="visible"/></clipPath><g clip-path="url(#am)"><defs><path id="an" d="M-797.2-464.6h1121v1030h-1121z"/></defs><clipPath id="ao"><use xlink:href="#an" overflow="visible"/></clipPath><path clip-path="url(#ao)" fill="none" stroke="#0F1F2D" stroke-width="6" stroke-linecap="round" stroke-miterlimit="10" d="M83.8 34.4h105v81h-105z"/></g><defs><path id="ap" d="M77.8 49.9h-2.2l.9-2.1 9.1-22 .4-.9h100.9l.4.9 9.1 22 .9 2.1H77.8zm0-3h117l-1.4 2.1-9.1-22 1.4.9H86.9l1.4-.9-9.1 22-1.4-2.1zm-22.2 23H217v-65H55.6v65z"/></defs><clipPath id="aq"><use xlink:href="#ap" overflow="visible"/></clipPath><g clip-path="url(#aq)"><defs><path id="ar" d="M77.8 48.4h117l-9.1-22H86.9z"/></defs><clipPath id="as"><use xlink:href="#ar" overflow="visible"/></clipPath><g clip-path="url(#as)"><defs><path id="at" d="M-797.2-464.6h1121v1030h-1121z"/></defs><clipPath id="au"><use xlink:href="#at" overflow="visible"/></clipPath><path clip-path="url(#au)" fill-rule="evenodd" clip-rule="evenodd" fill="#FFF" d="M77.8 48.4h117l-9.1-22H86.9z"/></g></g><defs><path id="av" d="M77.8 48.4h117l-9.1-22H86.9z"/></defs><clipPath id="aw"><use xlink:href="#av" overflow="visible"/></clipPath><g clip-path="url(#aw)"><defs><path id="ax" d="M-797.2-464.6h1121v1030h-1121z"/></defs><clipPath id="ay"><use xlink:href="#ax" overflow="visible"/></clipPath><path clip-path="url(#ay)" fill="none" stroke="#0F1F2D" stroke-width="6" stroke-linecap="round" stroke-miterlimit="10" d="M77.8 48.4h117l-9.1-22H86.9z"/></g><defs><path id="az" d="M162.8 16.9h-1.5v19h15v-19h-13.5zm0 3h12l-1.5-1.5v16l1.5-1.5h-12l1.5 1.5v-16l-1.5 1.5zm-21.5-23h55v59h-55v-59z"/></defs><clipPath id="aA"><use xlink:href="#az" overflow="visible"/></clipPath><g clip-path="url(#aA)"><defs><path id="aB" d="M162.8 18.4h12v16h-12z"/></defs><clipPath id="aC"><use xlink:href="#aB" overflow="visible"/></clipPath><g clip-path="url(#aC)"><defs><path id="aD" d="M-797.2-464.6h1121v1030h-1121z"/></defs><clipPath id="aE"><use xlink:href="#aD" overflow="visible"/></clipPath><path clip-path="url(#aE)" fill-rule="evenodd" clip-rule="evenodd" fill="#FFF" d="M162.8 18.4h12v16h-12z"/></g></g><defs><path id="aF" d="M162.8 18.4h12v16h-12z"/></defs><clipPath id="aG"><use xlink:href="#aF" overflow="visible"/></clipPath><g clip-path="url(#aG)"><defs><path id="aH" d="M-797.2-464.6h1121v1030h-1121z"/></defs><clipPath id="aI"><use xlink:href="#aH" overflow="visible"/></clipPath><path clip-path="url(#aI)" fill="none" stroke="#0F1F2D" stroke-width="6" stroke-linecap="round" stroke-miterlimit="10" d="M162.8 18.4h12v16h-12z"/></g><defs><path id="aJ" d="M96.8 82.9h-1.5v34h24v-34H96.8zm0 3h21l-1.5-1.5v31l1.5-1.5h-21l1.5 1.5v-31l-1.5 1.5zm-21.5-23h64v74h-64v-74z"/></defs><clipPath id="aK"><use xlink:href="#aJ" overflow="visible"/></clipPath><g clip-path="url(#aK)"><defs><path id="aL" d="M96.8 84.4h21v31h-21z"/></defs><clipPath id="aM"><use xlink:href="#aL" overflow="visible"/></clipPath><g clip-path="url(#aM)"><defs><path id="aN" d="M-797.2-464.6h1121v1030h-1121z"/></defs><clipPath id="aO"><use xlink:href="#aN" overflow="visible"/></clipPath><path clip-path="url(#aO)" fill-rule="evenodd" clip-rule="evenodd" fill="#FFF" d="M96.8 84.4h21v31h-21z"/></g></g><defs><path id="aP" d="M96.8 84.4h21v31h-21z"/></defs><clipPath id="aQ"><use xlink:href="#aP" overflow="visible"/></clipPath><g clip-path="url(#aQ)"><defs><path id="aR" d="M-797.2-464.6h1121v1030h-1121z"/></defs><clipPath id="aS"><use xlink:href="#aR" overflow="visible"/></clipPath><path clip-path="url(#aS)" fill="none" stroke="#0F1F2D" stroke-width="6" stroke-linecap="round" stroke-miterlimit="10" d="M96.8 84.4h21v31h-21z"/></g><defs><path id="aT" d="M97.8 54.9h-1.5v22h22v-22H97.8zm0 3h19l-1.5-1.5v19l1.5-1.5h-19l1.5 1.5v-19l-1.5 1.5zm-21.5-23h62v62h-62v-62z"/></defs><clipPath id="aU"><use xlink:href="#aT" overflow="visible"/></clipPath><g clip-path="url(#aU)"><defs><path id="aV" d="M97.8 56.4h19v19h-19z"/></defs><clipPath id="aW"><use xlink:href="#aV" overflow="visible"/></clipPath><g clip-path="url(#aW)"><defs><path id="aX" d="M-797.2-464.6h1121v1030h-1121z"/></defs><clipPath id="aY"><use xlink:href="#aX" overflow="visible"/></clipPath><path clip-path="url(#aY)" fill-rule="evenodd" clip-rule="evenodd" fill="#FFF" d="M97.8 56.4h19v19h-19z"/></g></g><defs><path id="aZ" d="M97.8 56.4h19v19h-19z"/></defs><clipPath id="ba"><use xlink:href="#aZ" overflow="visible"/></clipPath><g clip-path="url(#ba)"><defs><path id="bb" d="M-797.2-464.6h1121v1030h-1121z"/></defs><clipPath id="bc"><use xlink:href="#bb" overflow="visible"/></clipPath><path clip-path="url(#bc)" fill="none" stroke="#0F1F2D" stroke-width="6" stroke-linecap="round" stroke-miterlimit="10" d="M97.8 56.4h19v19h-19z"/></g><defs><path id="bd" d="M102.8 59.9h-1.5v12h12v-12h-10.5zm0 3h9l-1.5-1.5v9l1.5-1.5h-9l1.5 1.5v-9l-1.5 1.5zm-21.5-23h52v52h-52v-52z"/></defs><clipPath id="be"><use xlink:href="#bd" overflow="visible"/></clipPath><g clip-path="url(#be)"><defs><path id="bf" d="M102.8 61.4h9v9h-9z"/></defs><clipPath id="bg"><use xlink:href="#bf" overflow="visible"/></clipPath><g clip-path="url(#bg)"><defs><path id="bh" d="M-797.2-464.6h1121v1030h-1121z"/></defs><clipPath id="bi"><use xlink:href="#bh" overflow="visible"/></clipPath><path clip-path="url(#bi)" fill-rule="evenodd" clip-rule="evenodd" fill="#FFF" d="M102.8 61.4h9v9h-9z"/></g></g><defs><path id="bj" d="M102.8 61.4h9v9h-9z"/></defs><clipPath id="bk"><use xlink:href="#bj" overflow="visible"/></clipPath><g clip-path="url(#bk)"><defs><path id="bl" d="M-797.2-464.6h1121v1030h-1121z"/></defs><clipPath id="bm"><use xlink:href="#bl" overflow="visible"/></clipPath><path clip-path="url(#bm)" fill="none" stroke="#0F1F2D" stroke-width="6" stroke-linecap="round" stroke-miterlimit="10" d="M102.8 61.4h9v9h-9z"/></g><defs><path id="bn" d="M127.8 54.9h-1.5v22h22v-22h-20.5zm0 3h19l-1.5-1.5v19l1.5-1.5h-19l1.5 1.5v-19l-1.5 1.5zm-21.5-23h62v62h-62v-62z"/></defs><clipPath id="bo"><use xlink:href="#bn" overflow="visible"/></clipPath><g clip-path="url(#bo)"><defs><path id="bp" d="M127.8 56.4h19v19h-19z"/></defs><clipPath id="bq"><use xlink:href="#bp" overflow="visible"/></clipPath><g clip-path="url(#bq)"><defs><path id="br" d="M-797.2-464.6h1121v1030h-1121z"/></defs><clipPath id="bs"><use xlink:href="#br" overflow="visible"/></clipPath><path clip-path="url(#bs)" fill-rule="evenodd" clip-rule="evenodd" fill="#FFF" d="M127.8 56.4h19v19h-19z"/></g></g><defs><path id="bt" d="M127.8 56.4h19v19h-19z"/></defs><clipPath id="bu"><use xlink:href="#bt" overflow="visible"/></clipPath><g clip-path="url(#bu)"><defs><path id="bv" d="M-797.2-464.6h1121v1030h-1121z"/></defs><clipPath id="bw"><use xlink:href="#bv" overflow="visible"/></clipPath><path clip-path="url(#bw)" fill="none" stroke="#0F1F2D" stroke-width="6" stroke-linecap="round" stroke-miterlimit="10" d="M127.8 56.4h19v19h-19z"/></g><defs><path id="bx" d="M156.8 54.9h-1.5v22h22v-22h-20.5zm0 3h19l-1.5-1.5v19l1.5-1.5h-19l1.5 1.5v-19l-1.5 1.5zm-21.5-23h62v62h-62v-62z"/></defs><clipPath id="by"><use xlink:href="#bx" overflow="visible"/></clipPath><g clip-path="url(#by)"><defs><path id="bz" d="M156.8 56.4h19v19h-19z"/></defs><clipPath id="bA"><use xlink:href="#bz" overflow="visible"/></clipPath><g clip-path="url(#bA)"><defs><path id="bB" d="M-797.2-464.6h1121v1030h-1121z"/></defs><clipPath id="bC"><use xlink:href="#bB" overflow="visible"/></clipPath><path clip-path="url(#bC)" fill-rule="evenodd" clip-rule="evenodd" fill="#FFF" d="M156.8 56.4h19v19h-19z"/></g></g><defs><path id="bD" d="M156.8 56.4h19v19h-19z"/></defs><clipPath id="bE"><use xlink:href="#bD" overflow="visible"/></clipPath><g clip-path="url(#bE)"><defs><path id="bF" d="M-797.2-464.6h1121v1030h-1121z"/></defs><clipPath id="bG"><use xlink:href="#bF" overflow="visible"/></clipPath><path clip-path="url(#bG)" fill="none" stroke="#0F1F2D" stroke-width="6" stroke-linecap="round" stroke-miterlimit="10" d="M156.8 56.4h19v19h-19z"/></g><defs><path id="bH" d="M127.8 82.9h-1.5v22h22v-22h-20.5zm0 3h19l-1.5-1.5v19l1.5-1.5h-19l1.5 1.5v-19l-1.5 1.5zm-21.5-23h62v62h-62v-62z"/></defs><clipPath id="bI"><use xlink:href="#bH" overflow="visible"/></clipPath><g clip-path="url(#bI)"><defs><path id="bJ" d="M127.8 84.4h19v19h-19z"/></defs><clipPath id="bK"><use xlink:href="#bJ" overflow="visible"/></clipPath><g clip-path="url(#bK)"><defs><path id="bL" d="M-797.2-464.6h1121v1030h-1121z"/></defs><clipPath id="bM"><use xlink:href="#bL" overflow="visible"/></clipPath><path clip-path="url(#bM)" fill-rule="evenodd" clip-rule="evenodd" fill="#FFF" d="M127.8 84.4h19v19h-19z"/></g></g><defs><path id="bN" d="M127.8 84.4h19v19h-19z"/></defs><clipPath id="bO"><use xlink:href="#bN" overflow="visible"/></clipPath><g clip-path="url(#bO)"><defs><path id="bP" d="M-797.2-464.6h1121v1030h-1121z"/></defs><clipPath id="bQ"><use xlink:href="#bP" overflow="visible"/></clipPath><path clip-path="url(#bQ)" fill="none" stroke="#0F1F2D" stroke-width="6" stroke-linecap="round" stroke-miterlimit="10" d="M127.8 84.4h19v19h-19z"/></g><defs><path id="bR" d="M156.8 82.9h-1.5v22h22v-22h-20.5zm0 3h19l-1.5-1.5v19l1.5-1.5h-19l1.5 1.5v-19l-1.5 1.5zm-21.5-23h62v62h-62v-62z"/></defs><clipPath id="bS"><use xlink:href="#bR" overflow="visible"/></clipPath><g clip-path="url(#bS)"><defs><path id="bT" d="M156.8 84.4h19v19h-19z"/></defs><clipPath id="bU"><use xlink:href="#bT" overflow="visible"/></clipPath><g clip-path="url(#bU)"><defs><path id="bV" d="M-797.2-464.6h1121v1030h-1121z"/></defs><clipPath id="bW"><use xlink:href="#bV" overflow="visible"/></clipPath><path clip-path="url(#bW)" fill-rule="evenodd" clip-rule="evenodd" fill="#FFF" d="M156.8 84.4h19v19h-19z"/></g></g><defs><path id="bX" d="M156.8 84.4h19v19h-19z"/></defs><clipPath id="bY"><use xlink:href="#bX" overflow="visible"/></clipPath><g clip-path="url(#bY)"><defs><path id="bZ" d="M-797.2-464.6h1121v1030h-1121z"/></defs><clipPath id="ca"><use xlink:href="#bZ" overflow="visible"/></clipPath><path clip-path="url(#ca)" fill="none" stroke="#0F1F2D" stroke-width="6" stroke-linecap="round" stroke-miterlimit="10" d="M156.8 84.4h19v19h-19z"/></g><defs><path id="cb" d="M132.8 59.9h-1.5v12h12v-12h-10.5zm0 3h9l-1.5-1.5v9l1.5-1.5h-9l1.5 1.5v-9l-1.5 1.5zm-21.5-23h52v52h-52v-52z"/></defs><clipPath id="cc"><use xlink:href="#cb" overflow="visible"/></clipPath><g clip-path="url(#cc)"><defs><path id="cd" d="M132.8 61.4h9v9h-9z"/></defs><clipPath id="ce"><use xlink:href="#cd" overflow="visible"/></clipPath><g clip-path="url(#ce)"><defs><path id="cf" d="M-797.2-464.6h1121v1030h-1121z"/></defs><clipPath id="cg"><use xlink:href="#cf" overflow="visible"/></clipPath><path clip-path="url(#cg)" fill-rule="evenodd" clip-rule="evenodd" fill="#FFF" d="M132.8 61.4h9v9h-9z"/></g></g><defs><path id="ch" d="M132.8 61.4h9v9h-9z"/></defs><clipPath id="ci"><use xlink:href="#ch" overflow="visible"/></clipPath><g clip-path="url(#ci)"><defs><path id="cj" d="M-797.2-464.6h1121v1030h-1121z"/></defs><clipPath id="ck"><use xlink:href="#cj" overflow="visible"/></clipPath><path clip-path="url(#ck)" fill="none" stroke="#0F1F2D" stroke-width="6" stroke-linecap="round" stroke-miterlimit="10" d="M132.8 61.4h9v9h-9z"/></g><defs><path id="cl" d="M161.8 59.9h-1.5v12h12v-12h-10.5zm0 3h9l-1.5-1.5v9l1.5-1.5h-9l1.5 1.5v-9l-1.5 1.5zm-21.5-23h52v52h-52v-52z"/></defs><clipPath id="cm"><use xlink:href="#cl" overflow="visible"/></clipPath><g clip-path="url(#cm)"><defs><path id="cn" d="M161.8 61.4h9v9h-9z"/></defs><clipPath id="co"><use xlink:href="#cn" overflow="visible"/></clipPath><g clip-path="url(#co)"><defs><path id="cp" d="M-797.2-464.6h1121v1030h-1121z"/></defs><clipPath id="cq"><use xlink:href="#cp" overflow="visible"/></clipPath><path clip-path="url(#cq)" fill-rule="evenodd" clip-rule="evenodd" fill="#FFF" d="M161.8 61.4h9v9h-9z"/></g></g><defs><path id="cr" d="M161.8 61.4h9v9h-9z"/></defs><clipPath id="cs"><use xlink:href="#cr" overflow="visible"/></clipPath><g clip-path="url(#cs)"><defs><path id="ct" d="M-797.2-464.6h1121v1030h-1121z"/></defs><clipPath id="cu"><use xlink:href="#ct" overflow="visible"/></clipPath><path clip-path="url(#cu)" fill="none" stroke="#0F1F2D" stroke-width="6" stroke-linecap="round" stroke-miterlimit="10" d="M161.8 61.4h9v9h-9z"/></g><defs><path id="cv" d="M132.8 87.9h-1.5v12h12v-12h-10.5zm0 3h9l-1.5-1.5v9l1.5-1.5h-9l1.5 1.5v-9l-1.5 1.5zm-21.5-23h52v52h-52v-52z"/></defs><clipPath id="cw"><use xlink:href="#cv" overflow="visible"/></clipPath><g clip-path="url(#cw)"><defs><path id="cx" d="M132.8 89.4h9v9h-9z"/></defs><clipPath id="cy"><use xlink:href="#cx" overflow="visible"/></clipPath><g clip-path="url(#cy)"><defs><path id="cz" d="M-797.2-464.6h1121v1030h-1121z"/></defs><clipPath id="cA"><use xlink:href="#cz" overflow="visible"/></clipPath><path clip-path="url(#cA)" fill-rule="evenodd" clip-rule="evenodd" fill="#FFF" d="M132.8 89.4h9v9h-9z"/></g></g><defs><path id="cB" d="M132.8 89.4h9v9h-9z"/></defs><clipPath id="cC"><use xlink:href="#cB" overflow="visible"/></clipPath><g clip-path="url(#cC)"><defs><path id="cD" d="M-797.2-464.6h1121v1030h-1121z"/></defs><clipPath id="cE"><use xlink:href="#cD" overflow="visible"/></clipPath><path clip-path="url(#cE)" fill="none" stroke="#0F1F2D" stroke-width="6" stroke-linecap="round" stroke-miterlimit="10" d="M132.8 89.4h9v9h-9z"/></g><defs><path id="cF" d="M161.8 87.9h-1.5v12h12v-12h-10.5zm0 3h9l-1.5-1.5v9l1.5-1.5h-9l1.5 1.5v-9l-1.5 1.5zm-21.5-23h52v52h-52v-52z"/></defs><clipPath id="cG"><use xlink:href="#cF" overflow="visible"/></clipPath><g clip-path="url(#cG)"><defs><path id="cH" d="M161.8 89.4h9v9h-9z"/></defs><clipPath id="cI"><use xlink:href="#cH" overflow="visible"/></clipPath><g clip-path="url(#cI)"><defs><path id="cJ" d="M-797.2-464.6h1121v1030h-1121z"/></defs><clipPath id="cK"><use xlink:href="#cJ" overflow="visible"/></clipPath><path clip-path="url(#cK)" fill-rule="evenodd" clip-rule="evenodd" fill="#FFF" d="M161.8 89.4h9v9h-9z"/></g></g><defs><path id="cL" d="M161.8 89.4h9v9h-9z"/></defs><clipPath id="cM"><use xlink:href="#cL" overflow="visible"/></clipPath><g clip-path="url(#cM)"><defs><path id="cN" d="M-797.2-464.6h1121v1030h-1121z"/></defs><clipPath id="cO"><use xlink:href="#cN" overflow="visible"/></clipPath><path clip-path="url(#cO)" fill="none" stroke="#0F1F2D" stroke-width="6" stroke-linecap="round" stroke-miterlimit="10" d="M161.8 89.4h9v9h-9z"/></g><circle fill="#FFF" stroke="#0F1F2D" stroke-width="3" stroke-linecap="round" stroke-miterlimit="10" cx="180.4" cy="105.5" r="18.5"/><path fill="#FFF" stroke="#0F1F2D" stroke-width="3" stroke-linecap="round" stroke-miterlimit="10" d="M187.1 102.8c0 3.7-6.8 12.8-6.8 12.8s-6.8-9-6.8-12.8c0-3.7 3-6.8 6.8-6.8s6.8 3.1 6.8 6.8z"/><circle fill="#0F1F2D" cx="180.4" cy="102.1" r="2.2"/><defs><path id="cP" d="M138 271.3c-27.1 0-49-21.9-49-49s21.9-49 49-49 49 21.9 49 49c0 27-21.9 49-49 49zm0 3c28.7 0 52-23.3 52-52s-23.3-52-52-52-52 23.3-52 52 23.3 52 52 52zm-72-124h144v144H66v-144z"/></defs><defs><path id="cQ" d="M138.7 438.5c-24.6 0-44.6-20-44.6-44.6s20-44.6 44.6-44.6 44.6 20 44.6 44.6-20 44.6-44.6 44.6zm0 2.7c26.1 0 47.3-21.2 47.3-47.3s-21.2-47.3-47.3-47.3-47.3 21.2-47.3 47.3 21.2 47.3 47.3 47.3zM73.2 328.4h131v131h-131v-131z"/></defs><defs><path id="cR" d="M677.5 505.2H676v84h108v-84H677.5zm0 3h105l-1.5-1.5v81l1.5-1.5h-105l1.5 1.5v-81l-1.5 1.5zm-21.5-23h148v124H656v-124z"/></defs><defs><path id="cS" d="M671.5 522.2h-2.2l.9-2.1 9.1-22 .4-.9h100.9l.4.9 9.1 22 .9 2.1H671.5zm0-3h117l-1.4 2.1-9.1-22 1.4.9h-98.9l1.4-.9-9.1 22-1.3-2.1zm-22.2 23h161.5v-65H649.3v65z"/></defs><defs><path id="cT" d="M756.5 489.2H755v19h15v-19h-13.5zm0 3h12l-1.5-1.5v16l1.5-1.5h-12l1.5 1.5v-16l-1.5 1.5zm-21.5-23h55v59h-55v-59z"/></defs><defs><path id="cU" d="M690.5 555.2H689v34h24v-34h-22.5zm0 3h21l-1.5-1.5v31l1.5-1.5h-21l1.5 1.5v-31l-1.5 1.5zm-21.5-23h64v74h-64v-74z"/></defs><defs><path id="cV" d="M691.5 527.2H690v22h22v-22h-20.5zm0 3h19l-1.5-1.5v19l1.5-1.5h-19l1.5 1.5v-19l-1.5 1.5zm-21.5-23h62v62h-62v-62z"/></defs><defs><path id="cW" d="M696.5 532.2H695v12h12v-12h-10.5zm0 3h9l-1.5-1.5v9l1.5-1.5h-9l1.5 1.5v-9l-1.5 1.5zm-21.5-23h52v52h-52v-52z"/></defs><defs><path id="cX" d="M721.5 527.2H720v22h22v-22h-20.5zm0 3h19l-1.5-1.5v19l1.5-1.5h-19l1.5 1.5v-19l-1.5 1.5zm-21.5-23h62v62h-62v-62z"/></defs><defs><path id="cY" d="M750.5 527.2H749v22h22v-22h-20.5zm0 3h19l-1.5-1.5v19l1.5-1.5h-19l1.5 1.5v-19l-1.5 1.5zm-21.5-23h62v62h-62v-62z"/></defs><defs><path id="cZ" d="M721.5 555.2H720v22h22v-22h-20.5zm0 3h19l-1.5-1.5v19l1.5-1.5h-19l1.5 1.5v-19l-1.5 1.5zm-21.5-23h62v62h-62v-62z"/></defs><defs><path id="da" d="M750.5 555.2H749v22h22v-22h-20.5zm0 3h19l-1.5-1.5v19l1.5-1.5h-19l1.5 1.5v-19l-1.5 1.5zm-21.5-23h62v62h-62v-62z"/></defs><defs><path id="db" d="M726.5 532.2H725v12h12v-12h-10.5zm0 3h9l-1.5-1.5v9l1.5-1.5h-9l1.5 1.5v-9l-1.5 1.5zm-21.5-23h52v52h-52v-52z"/></defs><defs><path id="dc" d="M755.5 532.2H754v12h12v-12h-10.5zm0 3h9l-1.5-1.5v9l1.5-1.5h-9l1.5 1.5v-9l-1.5 1.5zm-21.5-23h52v52h-52v-52z"/></defs><defs><path id="dd" d="M726.5 560.2H725v12h12v-12h-10.5zm0 3h9l-1.5-1.5v9l1.5-1.5h-9l1.5 1.5v-9l-1.5 1.5zm-21.5-23h52v52h-52v-52z"/></defs><defs><path id="de" d="M755.5 560.2H754v12h12v-12h-10.5zm0 3h9l-1.5-1.5v9l1.5-1.5h-9l1.5 1.5v-9l-1.5 1.5zm-21.5-23h52v52h-52v-52z"/></defs></svg>