<svg xmlns="http://www.w3.org/2000/svg" xmlns:xlink="http://www.w3.org/1999/xlink" viewBox="0 0 276 137"><defs><path id="a" d="M-158-192.5c-29.3 0-53-23.7-53-53s23.7-53 53-53 53 23.7 53 53-23.7 53-53 53zm0 3c30.9 0 56-25.1 56-56s-25.1-56-56-56-56 25.1-56 56 25.1 56 56 56z"/></defs><clipPath id="b"><use xlink:href="#a" overflow="visible"/></clipPath><g clip-path="url(#b)"><defs><circle id="c" cx="-158" cy="-245.5" r="54.5"/></defs></g><defs><circle id="d" cx="-158" cy="-245.5" r="54.5"/></defs><defs><path id="e" d="M-158-213.5c-17.7 0-32-14.3-32-32s14.3-32 32-32 32 14.3 32 32-14.3 32-32 32zm0 3c19.3 0 35-15.7 35-35s-15.7-35-35-35-35 15.7-35 35 15.7 35 35 35zm-55-90h110v110h-110v-110z"/></defs><clipPath id="f"><use xlink:href="#e" overflow="visible"/></clipPath><g clip-path="url(#f)"><defs><circle id="g" cx="-158" cy="-245.5" r="33.5"/></defs></g><defs><circle id="h" cx="-158" cy="-245.5" r="33.5"/></defs><defs><path id="i" d="M-159.5-299.5h-1.5v13h6v-13h-4.5zm0 3h3l-1.5-1.5v10l1.5-1.5h-3l1.5 1.5v-10l-1.5 1.5z"/></defs><clipPath id="j"><use xlink:href="#i" overflow="visible"/></clipPath><g clip-path="url(#j)"><defs><path id="k" d="M-159.5-298h3v10h-3z"/></defs></g><defs><path id="l" d="M-159.5-298h3v10h-3z"/></defs><defs><path id="m" d="M-213.5-243.5v1.5h13v-6h-13v4.5zm3 0v-3l-1.5 1.5h10l-1.5-1.5v3l1.5-1.5h-10l1.5 1.5z"/></defs><clipPath id="n"><use xlink:href="#m" overflow="visible"/></clipPath><g clip-path="url(#n)"><defs><path id="o" d="M-212-246.5h10v3h-10z"/></defs></g><defs><path id="p" d="M-212-246.5h10v3h-10z"/></defs><defs><path id="q" d="M-116.5-243.5v1.5h13v-6h-13v4.5zm3 0v-3l-1.5 1.5h10l-1.5-1.5v3l1.5-1.5h-10l1.5 1.5z"/></defs><clipPath id="r"><use xlink:href="#q" overflow="visible"/></clipPath><g clip-path="url(#r)"><defs><path id="s" d="M-115-246.5h10v3h-10z"/></defs></g><defs><path id="t" d="M-115-246.5h10v3h-10z"/></defs><defs><path id="u" d="M-127.5-273.3l1.1 1.1 1.1-1.1 7.1-7.1 1.1-1.1-1.1-1.1-2.1-2.1-1.1-1.1-1.1 1.1-7.1 7.1-1.1 1.1 1.1 1.1 2.1 2.1zm2.1-2.2l-2.1-2.1v2.1l7.1-7.1h-2.1l2.1 2.1v-2.1l-7.1 7.1h2.1z"/></defs><clipPath id="v"><use xlink:href="#u" overflow="visible"/></clipPath><g clip-path="url(#v)"><defs><path id="w" transform="rotate(45.001 -124.004 -279)" d="M-125.5-284h3v10h-3z"/></defs></g><defs><path id="x" transform="rotate(45.001 -124.004 -279)" d="M-125.5-284h3v10h-3z"/></defs><defs><path id="y" d="M-187.3-274.5l1.1-1.1-1.1-1.1-7.1-7.1-1.1-1.1-1.1 1.1-2.1 2.1-1.1 1.1 1.1 1.1 7.1 7.1 1.1 1.1 1.1-1.1 2.1-2.1zm-2.2-2.1l-2.1 2.1h2.1l-7.1-7.1v2.1l2.1-2.1h-2.1l7.1 7.1v-2.1z"/></defs><clipPath id="z"><use xlink:href="#y" overflow="visible"/></clipPath><g clip-path="url(#z)"><defs><path id="A" transform="rotate(-45.001 -192.998 -278.004)" d="M-194.5-283h3v10h-3z"/></defs></g><defs><path id="B" transform="rotate(-45.001 -192.998 -278.004)" d="M-194.5-283h3v10h-3z"/></defs><defs><path id="C" d="M-127.5-217.7l1.1-1.1 1.1 1.1 7.1 7.1 1.1 1.1-1.1 1.1-2.1 2.1-1.1 1.1-1.1-1.1-7.1-7.1-1.1-1.1 1.1-1.1 2.1-2.1zm2.1 2.2l-2.1 2.1v-2.1l7.1 7.1h-2.1l2.1-2.1v2.1l-7.1-7.1h2.1z"/></defs><clipPath id="D"><use xlink:href="#C" overflow="visible"/></clipPath><g clip-path="url(#D)"><defs><path id="E" transform="rotate(-45.001 -123.998 -212.002)" d="M-125.5-217h3v10h-3z"/></defs></g><defs><path id="F" transform="rotate(-45.001 -123.998 -212.002)" d="M-125.5-217h3v10h-3z"/></defs><defs><path id="G" d="M-187.3-214.5l1.1 1.1-1.1 1.1-7.1 7.1-1.1 1.1-1.1-1.1-2.1-2.1-1.1-1.1 1.1-1.1 7.1-7.1 1.1-1.1 1.1 1.1 2.1 2.1zm-2.2 2.1l-2.1-2.1h2.1l-7.1 7.1v-2.1l2.1 2.1h-2.1l7.1-7.1v2.1z"/></defs><clipPath id="H"><use xlink:href="#G" overflow="visible"/></clipPath><g clip-path="url(#H)"><defs><path id="I" transform="rotate(45.001 -193.003 -210.999)" d="M-194.5-216h3v10h-3z"/></defs></g><defs><path id="J" transform="rotate(45.001 -193.003 -210.999)" d="M-194.5-216h3v10h-3z"/></defs><defs><path id="K" d="M-148.4-266.1c.7.3 1.5.6 2.2 1 1.3.7 2.5 1.6 3.6 2.4.4.3.7.6 1 .9.2.2.3.3.4.3l1.6 1.6-.3-2.2-2.1-14.7-.2-1.2-1 .6-12.3 8-1.8 1.2 2.1.2c.1 0 .3 0 .5.1.4.1.9.2 1.5.3 1.4.3 3.1.8 4.8 1.5zm7.5 4c-.1-.1-.4-.3-.7-.6l.1.9.6-.3zm0-1l.1.9.6-.3-.4-.4c-.1 0-.2-.1-.3-.2zm-1.9-13.1v.3l.3-.2-.3-.1zm-.8 0l.3-.2-.3-.2v.4zm-11.4 7.4l.7-.5h-.3c-.3 0-.5-.1-.6-.1l.2.6zm.9.3c-.4-.1-.7-.1-.9-.1l.1.6.8-.5z"/></defs><defs><path id="L" d="M-148.2-266.8c-3.9-1.6-7.1-1.9-7.1-1.9l12.3-8 2.1 14.7c.2.1-3.1-3.1-7.3-4.8zm-25-11.1l37.2-15.8 15.8 37.2-37.2 15.8-15.8-37.2z"/></defs><defs><path id="M" d="M-158-221.5c-13.3 0-24-10.7-24-24s10.7-24 24-24 24 10.7 24 24-10.7 24-24 24zm0 3c14.9 0 27-12.1 27-27s-12.1-27-27-27-27 12.1-27 27 12.1 27 27 27zm-47-74h94v94h-94v-94z"/></defs><clipPath id="N"><use xlink:href="#M" overflow="visible"/></clipPath><g clip-path="url(#N)"><defs><circle id="O" cx="-158" cy="-245.5" r="25.5"/></defs></g><defs><circle id="P" cx="-158" cy="-245.5" r="25.5"/></defs><defs><path id="Q" d="M132.2-306.5h-1.5v18h19v-18h-17.5zm0 3h16l-1.5-1.5v15l1.5-1.5h-16l1.5 1.5v-15l-1.5 1.5z"/></defs><clipPath id="R"><use xlink:href="#Q" overflow="visible"/></clipPath><g clip-path="url(#R)"><defs><path id="S" d="M132.2-305h16v15h-16z"/></defs></g><defs><path id="T" d="M132.2-305h16v15h-16z"/></defs><defs><path id="U" d="M108.2-294.5h-1.5v43h67v-43h-65.5zm0 3h64l-1.5-1.5v40l1.5-1.5h-64l1.5 1.5v-40l-1.5 1.5z"/></defs><clipPath id="V"><use xlink:href="#U" overflow="visible"/></clipPath><g clip-path="url(#V)"><defs><path id="W" d="M108.2-293h64v40h-64z"/></defs></g><defs><path id="X" d="M108.2-293h64v40h-64z"/></defs><defs><path id="Y" d="M143.2-284.5h-1.5v33h22v-33h-20.5zm0 3h19l-1.5-1.5v30l1.5-1.5h-19l1.5 1.5v-30l-1.5 1.5z"/></defs><clipPath id="Z"><use xlink:href="#Y" overflow="visible"/></clipPath><g clip-path="url(#Z)"><defs><path id="aa" d="M143.2-283h19v30h-19z"/></defs></g><defs><path id="ab" d="M143.2-283h19v30h-19z"/></defs><defs><path id="ac" d="M118.2-284.5h-1.5v33h22v-33h-20.5zm0 3h19l-1.5-1.5v30l1.5-1.5h-19l1.5 1.5v-30l-1.5 1.5z"/></defs><clipPath id="ad"><use xlink:href="#ac" overflow="visible"/></clipPath><g clip-path="url(#ad)"><defs><path id="ae" d="M118.2-283h19v30h-19z"/></defs></g><defs><path id="af" d="M118.2-283h19v30h-19z"/></defs><defs><path id="ag" d="M87.7-226.3c0 2.9-.8 7-2.3 11.9-.6 2.1-1.3 4.3-2.1 6.5-1 2.7-2 5.4-3.1 8-.4.9-.7 1.7-1 2.4-.2.4-.3.7-.4.9l-.9 2.1h119.4l-.7-2c-.1-.2-.2-.4-.3-.9-.2-.7-.5-1.5-.8-2.4-.8-2.5-1.6-5.2-2.4-7.9-.7-2.4-1.3-4.8-1.8-7-1.1-4.8-1.7-8.8-1.7-11.8 0-2.8.7-7 1.9-12 .5-1.9 1-3.9 1.6-6 .8-2.7 1.6-5.4 2.4-7.9.3-.9.5-1.7.8-2.4.1-.4.2-.7.3-.9l.7-2H77.9l1 2.1c.1.1.2.4.4.9.3.7.6 1.5 1 2.4 1 2.5 2.1 5.1 3.1 7.8.8 2.2 1.5 4.4 2.1 6.4 1.4 5 2.2 9 2.2 11.8zm3 0c0-3.2-.9-7.5-2.4-12.5-.6-2.1-1.4-4.3-2.2-6.5-1-2.7-2.1-5.4-3.1-8-.4-.9-.7-1.7-1-2.4-.2-.4-.3-.7-.4-.9l-1.4 2.1h115l-1.4-2c-.1.2-.2.5-.3.9-.2.7-.5 1.5-.8 2.4-.8 2.6-1.7 5.3-2.4 8-.6 2.1-1.1 4.1-1.6 6.1-1.3 5.2-2 9.5-2 12.7 0 3.2.6 7.4 1.7 12.4.5 2.3 1.1 4.7 1.8 7.1.8 2.8 1.6 5.5 2.4 8.1.3.9.6 1.7.8 2.4.1.4.2.7.3.9l1.4-2h-115l1.4 2.1c.1-.2.2-.5.4-.9.3-.7.7-1.5 1-2.4 1.1-2.6 2.1-5.3 3.1-8.1.8-2.3 1.6-4.5 2.2-6.7 1.7-5.2 2.5-9.5 2.5-12.8z"/></defs><clipPath id="ah"><use xlink:href="#ag" overflow="visible"/></clipPath><g clip-path="url(#ah)"><defs><path id="ai" d="M89.2-226.3c0-9.9-9-29.7-9-29.7h115s-7 20-7 29.6c0 10.5 7 30.4 7 30.4h-115s9-20.2 9-30.3z"/></defs></g><defs><path id="aj" d="M89.2-226.3c0-9.9-9-29.7-9-29.7h115s-7 20-7 29.6c0 10.5 7 30.4 7 30.4h-115s9-20.2 9-30.3z"/></defs><defs><path id="ak" d="M103.2-225.5h-1.5v6h72v-6h-70.5zm0 3h69l-1.5-1.5v3l1.5-1.5h-69l1.5 1.5v-3l-1.5 1.5zm-21.5-23h112v46h-112v-46z"/></defs><clipPath id="al"><use xlink:href="#ak" overflow="visible"/></clipPath><g clip-path="url(#al)"><defs><path id="am" d="M103.2-224h69v3h-69z"/></defs></g><defs><path id="an" d="M103.2-224h69v3h-69z"/></defs><defs><path id="ao" d="M103.2-233.5h-1.5v6h72v-6h-70.5zm0 3h69l-1.5-1.5v3l1.5-1.5h-69l1.5 1.5v-3l-1.5 1.5zm-21.5-23h112v46h-112v-46z"/></defs><clipPath id="ap"><use xlink:href="#ao" overflow="visible"/></clipPath><g clip-path="url(#ap)"><defs><path id="aq" d="M103.2-232h69v3h-69z"/></defs></g><defs><path id="ar" d="M103.2-232h69v3h-69z"/></defs><defs><path id="as" d="M135.2-218.1l.5 1.6 1.5-.7c2-.9 4.2-1.3 6.4-1.3 6 0 11.3 3.3 14.1 8.4l.5 1 1.1-.2c.6-.1 1.2-.2 1.8-.2 3.5 0 6.6 2.1 7.9 5.3l.5 1.2 1.3-.3c.4-.1.9-.2 1.4-.2 3 0 5.5 2.5 5.5 5.5s-2.5 5.5-5.5 5.5c-1.5 0-2.9-.6-3.9-1.6l-.9-.9-1 .8c-1.5 1.1-3.3 1.7-5.1 1.7-1.1 0-2.2-.2-3.2-.6l-1-.4-.7.9c-3 3.8-7.6 6.1-12.6 6.1-4.9 0-9.5-2.3-12.5-6l-.7-.8-1 .3c-1.1.4-2.2.5-3.3.5-2 0-4-.6-5.7-1.7l-.8-.5-.8.5c-1.7 1.1-3.6 1.7-5.7 1.7-2.2 0-4.3-.7-6-1.9l-1.1-.7-.9.9c-1 1.1-2.5 1.7-4 1.7-3 0-5.5-2.5-5.5-5.5s2.5-5.5 5.5-5.5h1.4l.2-1.3c.8-5 5.2-8.7 10.4-8.7h1.5v-1.5c0-5.8 4.7-10.5 10.5-10.5 4.6 0 8.6 3 9.9 7.4zm2.9-.9c-1.7-5.6-6.9-9.5-12.9-9.5-7.5 0-13.5 6-13.5 13.5l1.5-1.5c-6.6 0-12.2 4.8-13.3 11.3l1.5.2v-1.5h-.2c-4.7 0-8.5 3.8-8.5 8.5s3.8 8.5 8.5 8.5c2.4 0 4.6-1 6.2-2.7l-2 .2c2.3 1.6 5 2.5 7.8 2.5 2.6 0 5.2-.8 7.3-2.2h-1.6c2.2 1.4 4.7 2.2 7.3 2.2 1.5 0 2.9-.2 4.3-.7l-.5-1.4-1.2.9c3.6 4.5 9 7.2 14.9 7.2s11.4-2.7 15-7.3l-1.2-.9-.6 1.4c1.3.5 2.8.8 4.3.8 2.6 0 5-.8 7-2.4l-2-.1c1.6 1.6 3.7 2.5 6 2.5 4.7 0 8.5-3.8 8.5-8.5s-3.8-8.5-8.5-8.5c-.7 0-1.4.1-2.1.3l.4 1.5 1.4-.6c-1.8-4.3-5.9-7.2-10.6-7.2-.8 0-1.6.1-2.4.2l.3 1.5 1.3-.7c-3.3-6.1-9.7-10-16.7-10-2.7 0-5.2.5-7.6 1.6l1.9.9zm-65.4-29.5h128v85h-128v-85z"/></defs><clipPath id="at"><use xlink:href="#as" overflow="visible"/></clipPath><g clip-path="url(#at)"><defs><path id="au" d="M136.7-218.5c-1.5-4.9-6.1-8.5-11.5-8.5-6.6 0-12 5.4-12 12-5.9 0-10.9 4.3-11.8 10h-.2c-3.9 0-7 3.1-7 7s3.1 7 7 7c2 0 3.8-.8 5.1-2.2 2 1.4 4.3 2.2 6.9 2.2 2.4 0 4.6-.7 6.5-1.9 1.9 1.2 4.1 1.9 6.5 1.9 1.3 0 2.6-.2 3.8-.6 3.2 4 8.2 6.6 13.7 6.6 5.6 0 10.6-2.6 13.8-6.7 1.1.5 2.4.7 3.7.7 2.3 0 4.4-.8 6.1-2 1.3 1.3 3 2 4.9 2 3.9 0 7-3.1 7-7s-3.1-7-7-7c-.6 0-1.2.1-1.7.2-1.5-3.6-5.1-6.2-9.3-6.2-.7 0-1.4.1-2.1.2-3-5.5-8.8-9.2-15.4-9.2-2.5 0-4.9.5-7 1.5z"/></defs></g><defs><path id="av" d="M136.7-218.5c-1.5-4.9-6.1-8.5-11.5-8.5-6.6 0-12 5.4-12 12-5.9 0-10.9 4.3-11.8 10h-.2c-3.9 0-7 3.1-7 7s3.1 7 7 7c2 0 3.8-.8 5.1-2.2 2 1.4 4.3 2.2 6.9 2.2 2.4 0 4.6-.7 6.5-1.9 1.9 1.2 4.1 1.9 6.5 1.9 1.3 0 2.6-.2 3.8-.6 3.2 4 8.2 6.6 13.7 6.6 5.6 0 10.6-2.6 13.8-6.7 1.1.5 2.4.7 3.7.7 2.3 0 4.4-.8 6.1-2 1.3 1.3 3 2 4.9 2 3.9 0 7-3.1 7-7s-3.1-7-7-7c-.6 0-1.2.1-1.7.2-1.5-3.6-5.1-6.2-9.3-6.2-.7 0-1.4.1-2.1.2-3-5.5-8.8-9.2-15.4-9.2-2.5 0-4.9.5-7 1.5z"/></defs><defs><path id="aw" d="M407.7-253.6l56 32.4s-1.5 14.3-8.3 24.7-24.1 17.2-24.1 17.2l-53.4-38.5s13.7-4.3 21.6-13.8 8.2-22 8.2-22z"/></defs><defs><path id="ax" d="M433.2-239.8l21.8-50.6 6.2 2.7-22.4 51z"/></defs><defs><path id="ay" d="M398.3-213.4l1.2.9.9-1.2c-1.5-1-3.3-1.6-5.1-1.6-5 0-9 4-9 9 0 3.8 2.4 7.2 6 8.5l-1-1.4c0 4.9 4.1 8.9 9 8.9 1.4 0 2.8-.3 4.1-1l-.7-1.3-1.4.6c1.9 4 5.9 6.7 10.4 6.7 6.4 0 11.5-5.1 11.5-11.5 0-1.2-.2-2.5-.6-3.6l-1.4.5.8 1.3c2.6-1.6 4.2-4.5 4.2-7.6 0-5-4-9-9-9-1.2 0-2.3.2-3.4.7l.6 1.4 1.1-1c-2.2-2.6-5.4-4.1-8.8-4.1-3.8-.1-7.3 1.8-9.4 4.8zm2.4 1.7c1.6-2.3 4.2-3.7 7-3.7 2.5 0 4.9 1.1 6.5 3l.7.8 1-.4c.7-.3 1.5-.4 2.3-.4 3.3 0 6 2.7 6 6 0 2.1-1.1 4-2.8 5.1l-1 .6.4 1.1c.3.9.4 1.8.4 2.7 0 4.7-3.8 8.5-8.5 8.5-3.4 0-6.3-2-7.7-4.9l-.7-1.4-1.3.7c-.8.4-1.8.7-2.7.7-3.3 0-6-2.7-6-5.9v-1.1l-1-.3c-2.4-.8-4-3.1-4-5.7 0-3.3 2.7-6 6-6 1.2 0 2.4.4 3.4 1.1l1.2.9.8-1.4zm-34.5-26.6h81v73h-81v-73z"/></defs><clipPath id="az"><use xlink:href="#ay" overflow="visible"/></clipPath><g clip-path="url(#az)"><defs><path id="aA" d="M399.5-212.5c1.8-2.6 4.8-4.3 8.2-4.3 3.1 0 5.8 1.4 7.7 3.6.9-.4 1.8-.6 2.8-.6 4.1 0 7.5 3.4 7.5 7.5 0 2.7-1.4 5-3.5 6.3.3 1 .5 2 .5 3.2 0 5.5-4.5 10-10 10-4 0-7.5-2.4-9.1-5.8-1 .5-2.2.8-3.4.8-4.1 0-7.5-3.3-7.5-7.4-2.9-1-5-3.8-5-7.1 0-4.1 3.4-7.5 7.5-7.5 1.6 0 3.1.5 4.3 1.3z"/></defs></g><defs><path id="aB" d="M399.5-212.5c1.8-2.6 4.8-4.3 8.2-4.3 3.1 0 5.8 1.4 7.7 3.6.9-.4 1.8-.6 2.8-.6 4.1 0 7.5 3.4 7.5 7.5 0 2.7-1.4 5-3.5 6.3.3 1 .5 2 .5 3.2 0 5.5-4.5 10-10 10-4 0-7.5-2.4-9.1-5.8-1 .5-2.2.8-3.4.8-4.1 0-7.5-3.3-7.5-7.4-2.9-1-5-3.8-5-7.1 0-4.1 3.4-7.5 7.5-7.5 1.6 0 3.1.5 4.3 1.3z"/></defs><defs><path id="aC" d="M455.7-297.2l10.2 4.4 2-4.4-10.3-4-1.9 4zm-8.5 2.7l22.8 9.7 7.1-15.4-23.3-8.4-6.6 14.1z"/></defs><defs><path id="aD" d="M728.1-309.6c30.3 0 55 7.1 55 14.8v22l1.7-1.5c-.1 0-.2 0-.4-.1-.4-.1-.8-.1-1.3-.2-1.4-.2-2.9-.4-4.6-.6-4.9-.7-10-1.3-15.2-2-3.9-.5-7.7-.9-11.3-1.3-9.9-1-18.1-1.6-23.9-1.6-5.2 0-14.3.8-26.1 2.3-2.5.3-5.1.6-7.7 1-5.4.7-10.9 1.5-16.1 2.3-1.8.3-3.5.5-5 .8-.5.1-1 .2-1.4.2-.2 0-.4.1-.5.1l1.7 1.5v-23c.1-7.6 24.8-14.7 55.1-14.7zm0-3c-32.1 0-58 7.5-58 17.8v24.8l1.7-.3c.1 0 .2 0 .5-.1.4-.1.8-.1 1.4-.2 1.5-.2 3.1-.5 5-.8 5.2-.8 10.7-1.6 16.1-2.3 2.6-.4 5.2-.7 7.7-1 11.7-1.5 20.7-2.3 25.7-2.3 5.6 0 13.7.6 23.6 1.6 3.6.4 7.4.8 11.2 1.3 5.2.6 10.3 1.3 15.2 2 1.7.2 3.2.4 4.6.6.5.1.9.1 1.2.2.2 0 .4.1.4.1l1.7.3v-23.7c0-10.6-25.9-18-58-18zm-78-20h156v82.5h-156v-82.5z"/></defs><clipPath id="aE"><use xlink:href="#aD" overflow="visible"/></clipPath><g clip-path="url(#aE)"><defs><path id="aF" d="M728.1-311.1c-31.2 0-56.5 7.3-56.5 16.3v23s42.2-6.7 56.5-6.7c18 0 56.5 5.7 56.5 5.7v-22c0-9-25.3-16.3-56.5-16.3z"/></defs></g><defs><path id="aG" d="M728.1-311.1c-31.2 0-56.5 7.3-56.5 16.3v23s42.2-6.7 56.5-6.7c18 0 56.5 5.7 56.5 5.7v-22c0-9-25.3-16.3-56.5-16.3z"/></defs><defs><path id="aH" d="M728.1-287.4c30.3 0 55 7.1 55 14.8s-24.7 14.8-55 14.8-55-7.1-55-14.8 24.7-14.8 55-14.8zm0-3c-32.1 0-58 7.5-58 17.8s25.9 17.8 58 17.8 58-7.5 58-17.8-25.9-17.8-58-17.8zm-78-20h156v75.6h-156v-75.6z"/></defs><clipPath id="aI"><use xlink:href="#aH" overflow="visible"/></clipPath><g clip-path="url(#aI)"><defs><ellipse id="aJ" cx="728.1" cy="-272.5" rx="56.5" ry="16.3"/></defs></g><defs><ellipse id="aK" cx="728.1" cy="-272.5" rx="56.5" ry="16.3"/></defs><defs><path id="aL" d="M688.1-268.2c0-5.3 18-10.4 40-10.4s40 5.2 40 10.4v7.1l1.2-1.5c-.1 0-.1 0-.3.1-.3 0-.6.1-.9.2-1 .2-2.1.3-3.4.5-3.6.6-7.3 1.1-11.1 1.7-2.9.4-5.6.8-8.3 1.1-7.2.9-13.1 1.3-17.2 1.3-3.7 0-10.3-.5-18.9-1.4-1.8-.2-3.7-.4-5.6-.6-4-.5-8-.9-11.8-1.4-1.3-.2-2.6-.3-3.6-.5-.4 0-.7-.1-1-.1h-.3l1.3 1.5v-8zm-3 0v9.1l1.3.2h.4c.3 0 .6.1 1 .1 1.1.1 2.3.3 3.7.5a11776882415803102 11776882415803102 0 0 0 36.7 3.5c4.3 0 10.3-.5 17.6-1.4 2.7-.3 5.4-.7 8.3-1.1 3.8-.5 7.6-1.1 11.2-1.7 1.3-.2 2.4-.4 3.4-.5.4-.1.7-.1.9-.2.3 0 .3 0 .3-.1l1.2-.2v-8.4c0-7.9-19.2-13.4-43-13.4s-43 5.7-43 13.6zm-20-33.4h126v66.9h-126v-66.9z"/></defs><clipPath id="aM"><use xlink:href="#aL" overflow="visible"/></clipPath><g clip-path="url(#aM)"><defs><path id="aN" d="M686.6-268.2v7.8s31 4.1 41.5 4.1c13.2 0 41.5-4.8 41.5-4.8v-7.1c0-6.6-18.6-11.9-41.5-11.9s-41.5 5.3-41.5 11.9z"/></defs></g><defs><path id="aO" d="M686.6-268.2v7.8s31 4.1 41.5 4.1c13.2 0 41.5-4.8 41.5-4.8v-7.1c0-6.6-18.6-11.9-41.5-11.9s-41.5 5.3-41.5 11.9z"/></defs><defs><path id="aP" d="M728.1-270.3c22 0 40 5.2 40 10.4s-18 10.4-40 10.4-40-5.2-40-10.4 18-10.4 40-10.4zm0-3c-23.8 0-43 5.5-43 13.4s19.2 13.4 43 13.4 43-5.5 43-13.4-19.2-13.4-43-13.4zm-63-20h126v66.9h-126v-66.9z"/></defs><clipPath id="aQ"><use xlink:href="#aP" overflow="visible"/></clipPath><g clip-path="url(#aQ)"><defs><ellipse id="aR" cx="728.1" cy="-259.9" rx="41.5" ry="11.9"/></defs></g><defs><ellipse id="aS" cx="728.1" cy="-259.9" rx="41.5" ry="11.9"/></defs><defs><path id="aT" d="M715.5-258.3c0 .4-.2.7-.4.8.1 0 .2-.1.4-.2.6-.2 1.6-.4 2.8-.6 2.6-.4 6-.6 9.8-.6s7.2.2 9.8.6c1.2.2 2.2.4 2.8.6l.4.2c-.2-.1-.4-.4-.4-.8s.2-.7.4-.8c-.1 0-.2.1-.4.2-.6.2-1.6.4-2.8.6-2.6.4-6 .6-9.8.6s-7.2-.2-9.8-.6c-1.2-.2-2.2-.4-2.8-.6l-.4-.2c.2.1.4.3.4.8zm-3 0c0 2.6 6.2 3.5 15.6 3.5s15.6-.9 15.6-3.5-6.2-3.5-15.6-3.5-15.6.8-15.6 3.5zm-20-23.6h71.2v47.1h-71.2v-47.1z"/></defs><clipPath id="aU"><use xlink:href="#aT" overflow="visible"/></clipPath><g clip-path="url(#aU)"><defs><ellipse id="aV" cx="728.1" cy="-258.3" rx="14.1" ry="2"/></defs></g><defs><ellipse id="aW" cx="728.1" cy="-258.3" rx="14.1" ry="2"/></defs><defs><path id="aX" d="M720.9-241s-10.5 3.3-9.1 12.3c.9 5.5 5.6 8.1 5.6 13.5s-4.6 9.5-4.6 9.5 13.5-.3 14.6-9.5c1.1-9.2-6.7-11.3-8.3-15.6-1.4-4.3 1.8-10.2 1.8-10.2z"/></defs><defs><path id="aY" d="M736-237.7s-15.1 4.8-13 17.6c1.2 7.9 8 11.6 8 19.4s-6.5 13.6-6.5 13.6 19.3-.5 20.9-13.6c1.6-13.2-9.6-16.1-11.8-22.3s2.4-14.7 2.4-14.7z"/></defs><defs><path id="aZ" d="M84.5-127.5l-1.4.4.4 1.4 30.4 99.5.4 1.4 1.4-.4 60.2-18.4 1.4-.4-.4-1.4-30.4-99.5-.4-1.4-1.4.4-60.2 18.4zm.9 2.9l60.2-18.4-1.9-1 30.4 99.5 1-1.9L114.9-28l1.9 1-30.4-99.5-1 1.9zm-27.3-15.7l101.4-31 43 140.6L101.1.3l-43-140.6z"/></defs><clipPath id="ba"><use xlink:href="#aZ" overflow="visible"/></clipPath><g clip-path="url(#ba)"><defs><path id="bb" transform="rotate(162.999 130.296 -85.496)" d="M98.8-137.5h63v104h-63z"/></defs></g><defs><path id="bc" transform="rotate(162.999 130.296 -85.496)" d="M98.8-137.5h63v104h-63z"/></defs><defs><path id="bd" d="M119.8-150.5h-1.5v107h66v-107h-64.5zm0 3h63l-1.5-1.5v104l1.5-1.5h-63l1.5 1.5v-104l-1.5 1.5zm-21.5-23h106v147h-106v-147z"/></defs><clipPath id="be"><use xlink:href="#bd" overflow="visible"/></clipPath><g clip-path="url(#be)"><defs><path id="bf" d="M119.8-149h63v104h-63z"/></defs></g><defs><path id="bg" d="M119.8-149h63v104h-63z"/></defs><defs><path id="bh" d="M128.8-121h44v13h-44z"/></defs><defs><path id="bi" d="M128.8-111h44v13h-44z"/></defs><defs><path id="bj" d="M128.8-101h44v13h-44z"/></defs><defs><path id="bk" d="M128.8-91h44v14h-44z"/></defs><defs><path id="bl" d="M128.8-80h44v14h-44z"/></defs><defs><path id="bm" d="M128.8-69h44v14h-44z"/></defs><defs><path id="bn" d="M129.8-139h3v13h-3z"/></defs><defs><path id="bo" d="M134.8-139h3v13h-3z"/></defs><defs><path id="bp" d="M139.8-139h3v13h-3z"/></defs><defs><path id="bq" d="M144.8-139h3v13h-3z"/></defs><defs><path id="br" d="M149.8-139h3v13h-3z"/></defs><defs><path id="bs" d="M149.8-88h3v32h-3z"/></defs><defs><path id="bt" d="M154.8-139h3v13h-3z"/></defs><defs><path id="bu" d="M159.8-139h3v13h-3z"/></defs><defs><path id="bv" d="M164.8-139h3v13h-3z"/></defs><defs><path id="bw" d="M169.8-139h3v13h-3z"/></defs><defs><path id="bx" d="M87.8-124.8l53.3 34.1L117.2-29"/></defs><defs><path id="by" d="M389.5-150.5H388v107h66v-107h-64.5zm0 3h63L451-149v104l1.5-1.5h-63L391-45v-104l-1.5 1.5zm-21.5-23h106v147H368v-147z"/></defs><clipPath id="bz"><use xlink:href="#by" overflow="visible"/></clipPath><g clip-path="url(#bz)"><defs><path id="bA" d="M389.5-149h63v104h-63z"/></defs></g><defs><path id="bB" d="M389.5-149h63v104h-63z"/></defs><defs><path id="bC" d="M398.5-121h44v13h-44z"/></defs><defs><path id="bD" d="M398.5-111h44v13h-44z"/></defs><defs><path id="bE" d="M398.5-101h44v13h-44z"/></defs><defs><path id="bF" d="M398.5-91h44v14h-44z"/></defs><defs><path id="bG" d="M398.5-80h44v14h-44z"/></defs><defs><path id="bH" d="M398.5-69h44v14h-44z"/></defs><defs><path id="bI" d="M399.5-139h3v13h-3z"/></defs><defs><path id="bJ" d="M404.5-139h3v13h-3z"/></defs><defs><path id="bK" d="M409.5-139h3v13h-3z"/></defs><defs><path id="bL" d="M414.5-139h3v13h-3z"/></defs><defs><path id="bM" d="M419.5-139h3v13h-3z"/></defs><defs><path id="bN" d="M419.5-88h3v32h-3z"/></defs><defs><path id="bO" d="M424.5-139h3v13h-3z"/></defs><defs><path id="bP" d="M429.5-139h3v13h-3z"/></defs><defs><path id="bQ" d="M434.5-139h3v13h-3z"/></defs><defs><path id="bR" d="M439.5-139h3v13h-3z"/></defs><defs><path id="bS" d="M461.5-29.5C445.2-29.5 432-42.7 432-59s13.2-29.5 29.5-29.5S491-75.3 491-59s-13.2 29.5-29.5 29.5zm0 3c17.9 0 32.5-14.6 32.5-32.5s-14.6-32.5-32.5-32.5S429-76.9 429-59s14.5 32.5 32.5 32.5zm-52.5-85h105v105H409v-105z"/></defs><clipPath id="bT"><use xlink:href="#bS" overflow="visible"/></clipPath><g clip-path="url(#bT)"><defs><circle id="bU" cx="461.5" cy="-59" r="31"/></defs></g><defs><circle id="bV" cx="461.5" cy="-59" r="31"/></defs><defs><path id="bW" d="M367.8 25.7h-1.5v90h134v-90H367.8zm0 3h131l-1.5-1.5v87l1.5-1.5h-131l1.5 1.5v-87l-1.5 1.5zm-21.5-23h174v130h-174V5.7z"/></defs><clipPath id="bX"><use xlink:href="#bW" overflow="visible"/></clipPath><g clip-path="url(#bX)"><defs><path id="bY" d="M367.8 27.2h131v87h-131z"/></defs></g><defs><path id="bZ" d="M367.8 27.2h131v87h-131z"/></defs><defs><path id="ca" d="M372.8 30.7h-1.5v80h124v-80H372.8zm0 3h121l-1.5-1.5v77l1.5-1.5h-121l1.5 1.5v-77l-1.5 1.5zm-21.5-23h164v120h-164v-120z"/></defs><clipPath id="cb"><use xlink:href="#ca" overflow="visible"/></clipPath><g clip-path="url(#cb)"><defs><path id="cc" d="M372.8 32.2h121v77h-121z"/></defs></g><defs><path id="cd" d="M372.8 32.2h121v77h-121z"/></defs><defs><path id="ce" d="M437.8 45.7h-1.5v6h47v-6h-45.5zm0 3h44l-1.5-1.5v3l1.5-1.5h-44l1.5 1.5v-3l-1.5 1.5zm-21.5-23h87v46h-87v-46z"/></defs><clipPath id="cf"><use xlink:href="#ce" overflow="visible"/></clipPath><g clip-path="url(#cf)"><defs><path id="cg" d="M437.8 47.2h44v3h-44z"/></defs></g><defs><path id="ch" d="M437.8 47.2h44v3h-44z"/></defs><defs><path id="ci" d="M437.8 51.7h-1.5v6h47v-6h-45.5zm0 3h44l-1.5-1.5v3l1.5-1.5h-44l1.5 1.5v-3l-1.5 1.5zm-21.5-23h87v46h-87v-46z"/></defs><clipPath id="cj"><use xlink:href="#ci" overflow="visible"/></clipPath><g clip-path="url(#cj)"><defs><path id="ck" d="M437.8 53.2h44v3h-44z"/></defs></g><defs><path id="cl" d="M437.8 53.2h44v3h-44z"/></defs><defs><path id="cm" d="M437.8 57.7h-1.5v6h47v-6h-45.5zm0 3h44l-1.5-1.5v3l1.5-1.5h-44l1.5 1.5v-3l-1.5 1.5zm-21.5-23h87v46h-87v-46z"/></defs><clipPath id="cn"><use xlink:href="#cm" overflow="visible"/></clipPath><g clip-path="url(#cn)"><defs><path id="co" d="M437.8 59.2h44v3h-44z"/></defs></g><defs><path id="cp" d="M437.8 59.2h44v3h-44z"/></defs><defs><path id="cq" d="M437.8 63.7h-1.5v6h47v-6h-45.5zm0 3h44l-1.5-1.5v3l1.5-1.5h-44l1.5 1.5v-3l-1.5 1.5zm-21.5-23h87v46h-87v-46z"/></defs><clipPath id="cr"><use xlink:href="#cq" overflow="visible"/></clipPath><g clip-path="url(#cr)"><defs><path id="cs" d="M437.8 65.2h44v3h-44z"/></defs></g><defs><path id="ct" d="M437.8 65.2h44v3h-44z"/></defs><defs><path id="cu" d="M80 188.2h-1.2v71.5h131.7v-71.5H80zm0 2.4h129.3l-1.2-1.2v69.1l1.2-1.2H80l1.2 1.2v-69.1l-1.2 1.2zm-17.3-18.5h163.9v103.6H62.7V172.1z"/></defs><clipPath id="cv"><use xlink:href="#cu" overflow="visible"/></clipPath><g clip-path="url(#cv)"><defs><path id="cw" d="M80 189.4h129.3v69.1H80z"/></defs></g><defs><path id="cx" d="M80 189.4h129.3v69.1H80z"/></defs><defs><path id="cy" d="M86.4 194.6h-1.2v57.8h118.9v-57.8h-19.5l-.3.2-6.5 4.8.7-.2h-66.7l.8.3-5.9-4.8-.3-.3h-20zm0 2.4h19.4l-.8-.3 5.9 4.8.3.3h67.5l.3-.2 6.5-4.8-.5.2h17.9l-1.2-1.2v55.4l1.2-1.2H86.4l1.2 1.2v-55.4l-1.2 1.2zm-17.3-18.5h151v90h-151v-90z"/></defs><clipPath id="cz"><use xlink:href="#cy" overflow="visible"/></clipPath><g clip-path="url(#cz)"><defs><path id="cA" d="M86.4 195.8h19.5l5.9 4.8h66.7l6.5-4.8h17.9v55.4H86.4z"/></defs></g><defs><path id="cB" d="M86.4 195.8h19.5l5.9 4.8h66.7l6.5-4.8h17.9v55.4H86.4z"/></defs><defs><path id="cC" d="M114.5 195h5.6v2.4h-5.6z"/></defs><defs><path id="cD" d="M170.8 195h5.6v2.4h-5.6z"/></defs><defs><path id="cE" d="M-217.5 421.4c-21.5 0-38.9-17.4-38.9-38.9s17.4-38.9 38.9-38.9 38.9 17.4 38.9 38.9-17.4 38.9-38.9 38.9zm0 3c23.2 0 41.9-18.8 41.9-41.9s-18.8-41.9-41.9-41.9c-23.2 0-41.9 18.8-41.9 41.9s18.7 41.9 41.9 41.9zm-62-103.8h123.9v123.9h-123.9V320.6z"/></defs><clipPath id="cF"><use xlink:href="#cE" overflow="visible"/></clipPath><g clip-path="url(#cF)"><defs><circle id="cG" cx="-217.5" cy="382.5" r="40.4"/></defs></g><defs><circle id="cH" cx="-217.5" cy="382.5" r="40.4"/></defs><defs><path id="cI" d="M-104.5 421.4c-21.5 0-38.9-17.4-38.9-38.9s17.4-38.9 38.9-38.9 38.9 17.4 38.9 38.9-17.4 38.9-38.9 38.9zm0 3c23.2 0 41.9-18.8 41.9-41.9s-18.8-41.9-41.9-41.9c-23.2 0-41.9 18.8-41.9 41.9s18.7 41.9 41.9 41.9zm-62-103.8h123.9v123.9h-123.9V320.6z"/></defs><clipPath id="cJ"><use xlink:href="#cI" overflow="visible"/></clipPath><g clip-path="url(#cJ)"><defs><circle id="cK" cx="-104.5" cy="382.5" r="40.4"/></defs></g><defs><circle id="cL" cx="-104.5" cy="382.5" r="40.4"/></defs><defs><path id="cM" d="M-229.8 210.2h-1.5v38h142v-25.1l-.4-.4-11.4-12-.4-.5h-128.3zm0 3h127.6l-1.1-.5 11.4 12-.4-1v23l1.5-1.5h-139l1.5 1.5v-35l-1.5 1.5zm-21.5-23h182v78h-182v-78z"/></defs><clipPath id="cN"><use xlink:href="#cM" overflow="visible"/></clipPath><g clip-path="url(#cN)"><defs><path id="cO" d="M-229.8 211.7h127.6l11.4 12v23h-139z"/></defs></g><defs><path id="cP" d="M-229.8 211.7h127.6l11.4 12v23h-139z"/></defs><defs><path id="cQ" d="M-196.8 261.6c-8 0-14.5-6.5-14.5-14.5s6.5-14.5 14.5-14.5 14.5 6.5 14.5 14.5-6.4 14.5-14.5 14.5zm0 3c9.7 0 17.5-7.8 17.5-17.5s-7.8-17.5-17.5-17.5-17.5 7.8-17.5 17.5 7.9 17.5 17.5 17.5zm-37.5-55h75v75h-75v-75z"/></defs><clipPath id="cR"><use xlink:href="#cQ" overflow="visible"/></clipPath><g clip-path="url(#cR)"><defs><circle id="cS" cx="-196.8" cy="247.1" r="16"/></defs></g><defs><circle id="cT" cx="-196.8" cy="247.1" r="16"/></defs><defs><path id="cU" d="M-196.8 254.6c-4.1 0-7.5-3.4-7.5-7.5s3.4-7.5 7.5-7.5 7.5 3.4 7.5 7.5c0 4.2-3.3 7.5-7.5 7.5zm0 3c5.8 0 10.5-4.7 10.5-10.5s-4.7-10.5-10.5-10.5-10.5 4.7-10.5 10.5 4.7 10.5 10.5 10.5zm-30.5-41h61v61h-61v-61z"/></defs><clipPath id="cV"><use xlink:href="#cU" overflow="visible"/></clipPath><g clip-path="url(#cV)"><defs><circle id="cW" cx="-196.8" cy="247.1" r="9"/></defs></g><defs><circle id="cX" cx="-196.8" cy="247.1" r="9"/></defs><defs><path id="cY" d="M-130.5 261.6c-8 0-14.5-6.5-14.5-14.5s6.5-14.5 14.5-14.5 14.5 6.5 14.5 14.5-6.5 14.5-14.5 14.5zm0 3c9.7 0 17.5-7.8 17.5-17.5s-7.8-17.5-17.5-17.5-17.5 7.8-17.5 17.5 7.8 17.5 17.5 17.5zm-37.5-55h75v75h-75v-75z"/></defs><clipPath id="cZ"><use xlink:href="#cY" overflow="visible"/></clipPath><g clip-path="url(#cZ)"><defs><circle id="da" cx="-130.5" cy="247.1" r="16"/></defs></g><defs><circle id="db" cx="-130.5" cy="247.1" r="16"/></defs><defs><path id="dc" d="M-130.3 206.8l-7.7-15.6h-27.2v15.6h34.9zm-75.2 0l7.4-15.6h27.2v15.6h-34.6zm-10.3 5.3l14.1-26.9h66.8l15.3 27.9-96.2-1z"/></defs><defs><path id="dd" d="M-130.5 254.6c-4.1 0-7.5-3.4-7.5-7.5s3.4-7.5 7.5-7.5 7.5 3.4 7.5 7.5c0 4.2-3.4 7.5-7.5 7.5zm0 3c5.8 0 10.5-4.7 10.5-10.5s-4.7-10.5-10.5-10.5-10.5 4.7-10.5 10.5 4.7 10.5 10.5 10.5zm-30.5-41h61v61h-61v-61z"/></defs><clipPath id="de"><use xlink:href="#dd" overflow="visible"/></clipPath><g clip-path="url(#de)"><defs><circle id="df" cx="-130.5" cy="247.1" r="9"/></defs></g><defs><circle id="dg" cx="-130.5" cy="247.1" r="9"/></defs><defs><path id="dh" d="M84.2 32.5h-1.5v84h108v-84H84.2zm0 3h105l-1.5-1.5v81l1.5-1.5h-105l1.5 1.5V34l-1.5 1.5zm-21.5-23h148v124h-148v-124z"/></defs><clipPath id="di"><use xlink:href="#dh" overflow="visible"/></clipPath><g clip-path="url(#di)"><defs><path id="dj" d="M84.2 34h105v81h-105z"/></defs><clipPath id="dk"><use xlink:href="#dj" overflow="visible"/></clipPath><g clip-path="url(#dk)"><defs><path id="dl" d="M-796.8-465h1121V565h-1121z"/></defs><clipPath id="dm"><use xlink:href="#dl" overflow="visible"/></clipPath><path clip-path="url(#dm)" fill-rule="evenodd" clip-rule="evenodd" fill="#FFF" d="M84.2 34h105v81h-105z"/></g></g><defs><path id="dn" d="M84.2 34h105v81h-105z"/></defs><clipPath id="do"><use xlink:href="#dn" overflow="visible"/></clipPath><g clip-path="url(#do)"><defs><path id="dp" d="M-796.8-465h1121V565h-1121z"/></defs><clipPath id="dq"><use xlink:href="#dp" overflow="visible"/></clipPath><path clip-path="url(#dq)" fill="none" stroke="#0C1F2E" stroke-width="6" stroke-linecap="round" stroke-miterlimit="10" d="M84.2 34h105v81h-105z"/></g><defs><path id="dr" d="M78.2 49.5H76l.9-2.1 9.1-22 .4-.9h100.9l.4.9 9.1 22 .9 2.1H78.2zm0-3h117l-1.4 2.1-9.1-22 1.4.9H87.3l1.4-.9-9.1 22-1.4-2.1zM56 69.5h161.5v-65H56v65z"/></defs><clipPath id="ds"><use xlink:href="#dr" overflow="visible"/></clipPath><g clip-path="url(#ds)"><defs><path id="dt" d="M78.2 48h117l-9.1-22H87.3z"/></defs><clipPath id="du"><use xlink:href="#dt" overflow="visible"/></clipPath><g clip-path="url(#du)"><defs><path id="dv" d="M-796.8-465h1121V565h-1121z"/></defs><clipPath id="dw"><use xlink:href="#dv" overflow="visible"/></clipPath><path clip-path="url(#dw)" fill-rule="evenodd" clip-rule="evenodd" fill="#FFF" d="M78.2 48h117l-9.1-22H87.3z"/></g></g><defs><path id="dx" d="M78.2 48h117l-9.1-22H87.3z"/></defs><clipPath id="dy"><use xlink:href="#dx" overflow="visible"/></clipPath><g clip-path="url(#dy)"><defs><path id="dz" d="M-796.8-465h1121V565h-1121z"/></defs><clipPath id="dA"><use xlink:href="#dz" overflow="visible"/></clipPath><path clip-path="url(#dA)" fill="none" stroke="#0C1F2E" stroke-width="6" stroke-linecap="round" stroke-miterlimit="10" d="M78.2 48h117l-9.1-22H87.3z"/></g><defs><path id="dB" d="M163.2 16.5h-1.5v19h15v-19h-13.5zm0 3h12l-1.5-1.5v16l1.5-1.5h-12l1.5 1.5V18l-1.5 1.5zm-21.5-23h55v59h-55v-59z"/></defs><clipPath id="dC"><use xlink:href="#dB" overflow="visible"/></clipPath><g clip-path="url(#dC)"><defs><path id="dD" d="M163.2 18h12v16h-12z"/></defs><clipPath id="dE"><use xlink:href="#dD" overflow="visible"/></clipPath><g clip-path="url(#dE)"><defs><path id="dF" d="M-796.8-465h1121V565h-1121z"/></defs><clipPath id="dG"><use xlink:href="#dF" overflow="visible"/></clipPath><path clip-path="url(#dG)" fill-rule="evenodd" clip-rule="evenodd" fill="#FFF" d="M163.2 18h12v16h-12z"/></g></g><defs><path id="dH" d="M163.2 18h12v16h-12z"/></defs><clipPath id="dI"><use xlink:href="#dH" overflow="visible"/></clipPath><g clip-path="url(#dI)"><defs><path id="dJ" d="M-796.8-465h1121V565h-1121z"/></defs><clipPath id="dK"><use xlink:href="#dJ" overflow="visible"/></clipPath><path clip-path="url(#dK)" fill="none" stroke="#0C1F2E" stroke-width="6" stroke-linecap="round" stroke-miterlimit="10" d="M163.2 18h12v16h-12z"/></g><defs><path id="dL" d="M97.2 82.5h-1.5v34h24v-34H97.2zm0 3h21l-1.5-1.5v31l1.5-1.5h-21l1.5 1.5V84l-1.5 1.5zm-21.5-23h64v74h-64v-74z"/></defs><clipPath id="dM"><use xlink:href="#dL" overflow="visible"/></clipPath><g clip-path="url(#dM)"><defs><path id="dN" d="M97.2 84h21v31h-21z"/></defs><clipPath id="dO"><use xlink:href="#dN" overflow="visible"/></clipPath><g clip-path="url(#dO)"><defs><path id="dP" d="M-796.8-465h1121V565h-1121z"/></defs><clipPath id="dQ"><use xlink:href="#dP" overflow="visible"/></clipPath><path clip-path="url(#dQ)" fill-rule="evenodd" clip-rule="evenodd" fill="#FFF" d="M97.2 84h21v31h-21z"/></g></g><defs><path id="dR" d="M97.2 84h21v31h-21z"/></defs><clipPath id="dS"><use xlink:href="#dR" overflow="visible"/></clipPath><g clip-path="url(#dS)"><defs><path id="dT" d="M-796.8-465h1121V565h-1121z"/></defs><clipPath id="dU"><use xlink:href="#dT" overflow="visible"/></clipPath><path clip-path="url(#dU)" fill="none" stroke="#0C1F2E" stroke-width="6" stroke-linecap="round" stroke-miterlimit="10" d="M97.2 84h21v31h-21z"/></g><defs><path id="dV" d="M98.2 54.5h-1.5v22h22v-22H98.2zm0 3h19l-1.5-1.5v19l1.5-1.5h-19l1.5 1.5V56l-1.5 1.5zm-21.5-23h62v62h-62v-62z"/></defs><clipPath id="dW"><use xlink:href="#dV" overflow="visible"/></clipPath><g clip-path="url(#dW)"><defs><path id="dX" d="M98.2 56h19v19h-19z"/></defs><clipPath id="dY"><use xlink:href="#dX" overflow="visible"/></clipPath><g clip-path="url(#dY)"><defs><path id="dZ" d="M-796.8-465h1121V565h-1121z"/></defs><clipPath id="ea"><use xlink:href="#dZ" overflow="visible"/></clipPath><path clip-path="url(#ea)" fill-rule="evenodd" clip-rule="evenodd" fill="#FFF" d="M98.2 56h19v19h-19z"/></g></g><defs><path id="eb" d="M98.2 56h19v19h-19z"/></defs><clipPath id="ec"><use xlink:href="#eb" overflow="visible"/></clipPath><g clip-path="url(#ec)"><defs><path id="ed" d="M-796.8-465h1121V565h-1121z"/></defs><clipPath id="ee"><use xlink:href="#ed" overflow="visible"/></clipPath><path clip-path="url(#ee)" fill="none" stroke="#0C1F2E" stroke-width="6" stroke-linecap="round" stroke-miterlimit="10" d="M98.2 56h19v19h-19z"/></g><defs><path id="ef" d="M103.2 59.5h-1.5v12h12v-12h-10.5zm0 3h9l-1.5-1.5v9l1.5-1.5h-9l1.5 1.5v-9l-1.5 1.5zm-21.5-23h52v52h-52v-52z"/></defs><clipPath id="eg"><use xlink:href="#ef" overflow="visible"/></clipPath><g clip-path="url(#eg)"><defs><path id="eh" d="M103.2 61h9v9h-9z"/></defs><clipPath id="ei"><use xlink:href="#eh" overflow="visible"/></clipPath><g clip-path="url(#ei)"><defs><path id="ej" d="M-796.8-465h1121V565h-1121z"/></defs><clipPath id="ek"><use xlink:href="#ej" overflow="visible"/></clipPath><path clip-path="url(#ek)" fill-rule="evenodd" clip-rule="evenodd" fill="#FFF" d="M103.2 61h9v9h-9z"/></g></g><defs><path id="el" d="M103.2 61h9v9h-9z"/></defs><clipPath id="em"><use xlink:href="#el" overflow="visible"/></clipPath><g clip-path="url(#em)"><defs><path id="en" d="M-796.8-465h1121V565h-1121z"/></defs><clipPath id="eo"><use xlink:href="#en" overflow="visible"/></clipPath><path clip-path="url(#eo)" fill="none" stroke="#0C1F2E" stroke-width="6" stroke-linecap="round" stroke-miterlimit="10" d="M103.2 61h9v9h-9z"/></g><defs><path id="ep" d="M128.2 54.5h-1.5v22h22v-22h-20.5zm0 3h19l-1.5-1.5v19l1.5-1.5h-19l1.5 1.5V56l-1.5 1.5zm-21.5-23h62v62h-62v-62z"/></defs><clipPath id="eq"><use xlink:href="#ep" overflow="visible"/></clipPath><g clip-path="url(#eq)"><defs><path id="er" d="M128.2 56h19v19h-19z"/></defs><clipPath id="es"><use xlink:href="#er" overflow="visible"/></clipPath><g clip-path="url(#es)"><defs><path id="et" d="M-796.8-465h1121V565h-1121z"/></defs><clipPath id="eu"><use xlink:href="#et" overflow="visible"/></clipPath><path clip-path="url(#eu)" fill-rule="evenodd" clip-rule="evenodd" fill="#FFF" d="M128.2 56h19v19h-19z"/></g></g><defs><path id="ev" d="M128.2 56h19v19h-19z"/></defs><clipPath id="ew"><use xlink:href="#ev" overflow="visible"/></clipPath><g clip-path="url(#ew)"><defs><path id="ex" d="M-796.8-465h1121V565h-1121z"/></defs><clipPath id="ey"><use xlink:href="#ex" overflow="visible"/></clipPath><path clip-path="url(#ey)" fill="none" stroke="#0C1F2E" stroke-width="6" stroke-linecap="round" stroke-miterlimit="10" d="M128.2 56h19v19h-19z"/></g><defs><path id="ez" d="M157.2 54.5h-1.5v22h22v-22h-20.5zm0 3h19l-1.5-1.5v19l1.5-1.5h-19l1.5 1.5V56l-1.5 1.5zm-21.5-23h62v62h-62v-62z"/></defs><clipPath id="eA"><use xlink:href="#ez" overflow="visible"/></clipPath><g clip-path="url(#eA)"><defs><path id="eB" d="M157.2 56h19v19h-19z"/></defs><clipPath id="eC"><use xlink:href="#eB" overflow="visible"/></clipPath><g clip-path="url(#eC)"><defs><path id="eD" d="M-796.8-465h1121V565h-1121z"/></defs><clipPath id="eE"><use xlink:href="#eD" overflow="visible"/></clipPath><path clip-path="url(#eE)" fill-rule="evenodd" clip-rule="evenodd" fill="#FFF" d="M157.2 56h19v19h-19z"/></g></g><defs><path id="eF" d="M157.2 56h19v19h-19z"/></defs><clipPath id="eG"><use xlink:href="#eF" overflow="visible"/></clipPath><g clip-path="url(#eG)"><defs><path id="eH" d="M-796.8-465h1121V565h-1121z"/></defs><clipPath id="eI"><use xlink:href="#eH" overflow="visible"/></clipPath><path clip-path="url(#eI)" fill="none" stroke="#0C1F2E" stroke-width="6" stroke-linecap="round" stroke-miterlimit="10" d="M157.2 56h19v19h-19z"/></g><defs><path id="eJ" d="M128.2 82.5h-1.5v22h22v-22h-20.5zm0 3h19l-1.5-1.5v19l1.5-1.5h-19l1.5 1.5V84l-1.5 1.5zm-21.5-23h62v62h-62v-62z"/></defs><clipPath id="eK"><use xlink:href="#eJ" overflow="visible"/></clipPath><g clip-path="url(#eK)"><defs><path id="eL" d="M128.2 84h19v19h-19z"/></defs><clipPath id="eM"><use xlink:href="#eL" overflow="visible"/></clipPath><g clip-path="url(#eM)"><defs><path id="eN" d="M-796.8-465h1121V565h-1121z"/></defs><clipPath id="eO"><use xlink:href="#eN" overflow="visible"/></clipPath><path clip-path="url(#eO)" fill-rule="evenodd" clip-rule="evenodd" fill="#FFF" d="M128.2 84h19v19h-19z"/></g></g><defs><path id="eP" d="M128.2 84h19v19h-19z"/></defs><clipPath id="eQ"><use xlink:href="#eP" overflow="visible"/></clipPath><g clip-path="url(#eQ)"><defs><path id="eR" d="M-796.8-465h1121V565h-1121z"/></defs><clipPath id="eS"><use xlink:href="#eR" overflow="visible"/></clipPath><path clip-path="url(#eS)" fill="none" stroke="#0C1F2E" stroke-width="6" stroke-linecap="round" stroke-miterlimit="10" d="M128.2 84h19v19h-19z"/></g><defs><path id="eT" d="M157.2 82.5h-1.5v22h22v-22h-20.5zm0 3h19l-1.5-1.5v19l1.5-1.5h-19l1.5 1.5V84l-1.5 1.5zm-21.5-23h62v62h-62v-62z"/></defs><clipPath id="eU"><use xlink:href="#eT" overflow="visible"/></clipPath><g clip-path="url(#eU)"><defs><path id="eV" d="M157.2 84h19v19h-19z"/></defs><clipPath id="eW"><use xlink:href="#eV" overflow="visible"/></clipPath><g clip-path="url(#eW)"><defs><path id="eX" d="M-796.8-465h1121V565h-1121z"/></defs><clipPath id="eY"><use xlink:href="#eX" overflow="visible"/></clipPath><path clip-path="url(#eY)" fill-rule="evenodd" clip-rule="evenodd" fill="#FFF" d="M157.2 84h19v19h-19z"/></g></g><defs><path id="eZ" d="M157.2 84h19v19h-19z"/></defs><clipPath id="fa"><use xlink:href="#eZ" overflow="visible"/></clipPath><g clip-path="url(#fa)"><defs><path id="fb" d="M-796.8-465h1121V565h-1121z"/></defs><clipPath id="fc"><use xlink:href="#fb" overflow="visible"/></clipPath><path clip-path="url(#fc)" fill="none" stroke="#0C1F2E" stroke-width="6" stroke-linecap="round" stroke-miterlimit="10" d="M157.2 84h19v19h-19z"/></g><defs><path id="fd" d="M133.2 59.5h-1.5v12h12v-12h-10.5zm0 3h9l-1.5-1.5v9l1.5-1.5h-9l1.5 1.5v-9l-1.5 1.5zm-21.5-23h52v52h-52v-52z"/></defs><clipPath id="fe"><use xlink:href="#fd" overflow="visible"/></clipPath><g clip-path="url(#fe)"><defs><path id="ff" d="M133.2 61h9v9h-9z"/></defs><clipPath id="fg"><use xlink:href="#ff" overflow="visible"/></clipPath><g clip-path="url(#fg)"><defs><path id="fh" d="M-796.8-465h1121V565h-1121z"/></defs><clipPath id="fi"><use xlink:href="#fh" overflow="visible"/></clipPath><path clip-path="url(#fi)" fill-rule="evenodd" clip-rule="evenodd" fill="#FFF" d="M133.2 61h9v9h-9z"/></g></g><defs><path id="fj" d="M133.2 61h9v9h-9z"/></defs><clipPath id="fk"><use xlink:href="#fj" overflow="visible"/></clipPath><g clip-path="url(#fk)"><defs><path id="fl" d="M-796.8-465h1121V565h-1121z"/></defs><clipPath id="fm"><use xlink:href="#fl" overflow="visible"/></clipPath><path clip-path="url(#fm)" fill="none" stroke="#0C1F2E" stroke-width="6" stroke-linecap="round" stroke-miterlimit="10" d="M133.2 61h9v9h-9z"/></g><defs><path id="fn" d="M162.2 59.5h-1.5v12h12v-12h-10.5zm0 3h9l-1.5-1.5v9l1.5-1.5h-9l1.5 1.5v-9l-1.5 1.5zm-21.5-23h52v52h-52v-52z"/></defs><clipPath id="fo"><use xlink:href="#fn" overflow="visible"/></clipPath><g clip-path="url(#fo)"><defs><path id="fp" d="M162.2 61h9v9h-9z"/></defs><clipPath id="fq"><use xlink:href="#fp" overflow="visible"/></clipPath><g clip-path="url(#fq)"><defs><path id="fr" d="M-796.8-465h1121V565h-1121z"/></defs><clipPath id="fs"><use xlink:href="#fr" overflow="visible"/></clipPath><path clip-path="url(#fs)" fill-rule="evenodd" clip-rule="evenodd" fill="#FFF" d="M162.2 61h9v9h-9z"/></g></g><defs><path id="ft" d="M162.2 61h9v9h-9z"/></defs><clipPath id="fu"><use xlink:href="#ft" overflow="visible"/></clipPath><g clip-path="url(#fu)"><defs><path id="fv" d="M-796.8-465h1121V565h-1121z"/></defs><clipPath id="fw"><use xlink:href="#fv" overflow="visible"/></clipPath><path clip-path="url(#fw)" fill="none" stroke="#0C1F2E" stroke-width="6" stroke-linecap="round" stroke-miterlimit="10" d="M162.2 61h9v9h-9z"/></g><g><defs><path id="fx" d="M133.2 87.5h-1.5v12h12v-12h-10.5zm0 3h9l-1.5-1.5v9l1.5-1.5h-9l1.5 1.5v-9l-1.5 1.5zm-21.5-23h52v52h-52v-52z"/></defs><clipPath id="fy"><use xlink:href="#fx" overflow="visible"/></clipPath><g clip-path="url(#fy)"><defs><path id="fz" d="M133.2 89h9v9h-9z"/></defs><clipPath id="fA"><use xlink:href="#fz" overflow="visible"/></clipPath><g clip-path="url(#fA)"><defs><path id="fB" d="M-796.8-465h1121V565h-1121z"/></defs><clipPath id="fC"><use xlink:href="#fB" overflow="visible"/></clipPath><path clip-path="url(#fC)" fill-rule="evenodd" clip-rule="evenodd" fill="#FFF" d="M133.2 89h9v9h-9z"/></g></g></g><g><defs><path id="fD" d="M133.2 89h9v9h-9z"/></defs><clipPath id="fE"><use xlink:href="#fD" overflow="visible"/></clipPath><g clip-path="url(#fE)"><defs><path id="fF" d="M-796.8-465h1121V565h-1121z"/></defs><clipPath id="fG"><use xlink:href="#fF" overflow="visible"/></clipPath><path clip-path="url(#fG)" fill="none" stroke="#0C1F2E" stroke-width="6" stroke-linecap="round" stroke-miterlimit="10" d="M133.2 89h9v9h-9z"/></g></g><g><defs><path id="fH" d="M162.2 87.5h-1.5v12h12v-12h-10.5zm0 3h9l-1.5-1.5v9l1.5-1.5h-9l1.5 1.5v-9l-1.5 1.5zm-21.5-23h52v52h-52v-52z"/></defs><clipPath id="fI"><use xlink:href="#fH" overflow="visible"/></clipPath><g clip-path="url(#fI)"><defs><path id="fJ" d="M162.2 89h9v9h-9z"/></defs><clipPath id="fK"><use xlink:href="#fJ" overflow="visible"/></clipPath><g clip-path="url(#fK)"><defs><path id="fL" d="M-796.8-465h1121V565h-1121z"/></defs><clipPath id="fM"><use xlink:href="#fL" overflow="visible"/></clipPath><path clip-path="url(#fM)" fill-rule="evenodd" clip-rule="evenodd" fill="#FFF" d="M162.2 89h9v9h-9z"/></g></g></g><g><defs><path id="fN" d="M162.2 89h9v9h-9z"/></defs><clipPath id="fO"><use xlink:href="#fN" overflow="visible"/></clipPath><g clip-path="url(#fO)"><defs><path id="fP" d="M-796.8-465h1121V565h-1121z"/></defs><clipPath id="fQ"><use xlink:href="#fP" overflow="visible"/></clipPath><path clip-path="url(#fQ)" fill="none" stroke="#0C1F2E" stroke-width="6" stroke-linecap="round" stroke-miterlimit="10" d="M162.2 89h9v9h-9z"/></g></g><g><defs><path id="fR" d="M-158.6-39.5c-27.1 0-49-21.9-49-49s21.9-49 49-49 49 21.9 49 49-21.9 49-49 49zm0 3c28.7 0 52-23.3 52-52s-23.3-52-52-52-52 23.3-52 52 23.3 52 52 52zm-72-124h144v144h-144v-144z"/></defs><clipPath id="fS"><use xlink:href="#fR" overflow="visible"/></clipPath><g clip-path="url(#fS)"><defs><circle id="fT" cx="-158.6" cy="-88.5" r="50.5"/></defs></g></g><g><defs><circle id="fU" cx="-158.6" cy="-88.5" r="50.5"/></defs></g><g><defs><circle id="fV" cx="-158.6" cy="-88.5" r="43.5"/></defs></g><g><defs><path id="fW" d="M-165.1-112.5h-1.7l.2 1.6 3.1 32 .1 1.4h11.4l.1-1.4 2.3-32 .1-1.6h-15.6zm0 3h14l-1.5-1.6-2.3 32 1.5-1.4h-8.6l1.5 1.4-3.1-32-1.5 1.6zm-21.6-23h57.3v75h-57.3v-75z"/></defs><clipPath id="fX"><use xlink:href="#fW" overflow="visible"/></clipPath><g clip-path="url(#fX)"><defs><path id="fY" d="M-165.1-111h14l-2.3 32h-8.5z"/></defs></g></g><g><defs><path id="fZ" d="M-165.1-110.7h14l-2.3 32h-8.5z"/></defs></g><g><defs><path id="ga" d="M-157.6-65.5c-2.2 0-4-1.8-4-4s1.8-4 4-4 4 1.8 4 4-1.8 4-4 4zm0 3c3.9 0 7-3.1 7-7s-3.1-7-7-7-7 3.1-7 7 3.2 7 7 7zm-27-34h54v54h-54v-54z"/></defs><clipPath id="gb"><use xlink:href="#ga" overflow="visible"/></clipPath><g clip-path="url(#gb)"><defs><circle id="gc" cx="-157.6" cy="-69.5" r="5.5"/></defs></g></g><g><defs><circle id="gd" cx="-157.6" cy="-69.2" r="5.5"/></defs></g><g><defs><path id="ge" d="M661.1-132h-1.5v90h134v-90H661.1zm0 3h131l-1.5-1.5v87l1.5-1.5h-131l1.5 1.5v-87l-1.5 1.5zm-21.5-23h174v130h-174v-130z"/></defs><clipPath id="gf"><use xlink:href="#ge" overflow="visible"/></clipPath><g clip-path="url(#gf)"><defs><path id="gg" d="M661.1-130.5h131v87h-131z"/></defs></g></g><g><defs><path id="gh" d="M661.1-130.5h131v87h-131z"/></defs></g><g><defs><path id="gi" d="M765.1-123h-1.5v23h21v-23h-19.5zm0 3h18l-1.5-1.5v20l1.5-1.5h-18l1.5 1.5v-20l-1.5 1.5zm-21.5-23h61v63h-61v-63z"/></defs><clipPath id="gj"><use xlink:href="#gi" overflow="visible"/></clipPath><g clip-path="url(#gj)"><defs><path id="gk" d="M765.1-121.5h18v20h-18z"/></defs></g></g><g><defs><path id="gl" d="M765.1-121.5h18v20h-18z"/></defs></g><g><defs><path id="gm" d="M770.1-118h-1.5v13h11v-13h-9.5zm0 3h8l-1.5-1.5v10l1.5-1.5h-8l1.5 1.5v-10l-1.5 1.5zm-21.5-23h51v53h-51v-53z"/></defs><clipPath id="gn"><use xlink:href="#gm" overflow="visible"/></clipPath><g clip-path="url(#gn)"><defs><path id="go" d="M770.1-116.5h8v10h-8z"/></defs></g></g><g><defs><path id="gp" d="M770.1-116.5h8v10h-8z"/></defs></g><g><defs><path id="gq" d="M-137.9 54.2l.2 3c8.3-.7 15.9-2.1 21.4-3.8 2.5-.7 4.4-1.5 5.5-2.2 1.8-1.1 2.5-3 .4-4.1-8.1-4.3-23.9-7.1-41.3-7.1-17.2 0-32.8 2.7-41 6.9-1.8.9-1.5 2.7 0 3.9.9.7 2.4 1.4 4.4 2.1 4.3 1.5 10.5 2.8 17.5 3.7l.3-3c-21.2-2.3-35.5-8.1-35.5-13.8 0-7.7 24.7-14.8 55-14.8s55 7.1 55 14.8c-.1 6.4-17.6 12.7-41.9 14.4zm.2 3c26-1.8 44.7-8.5 44.7-17.4 0-10.3-25.9-17.8-58-17.8s-58 7.5-58 17.8c0 8.1 15.4 14.4 38.2 16.8l.3-3c-6.9-.9-12.9-2.2-16.9-3.6-1.7-.6-3-1.2-3.6-1.6-.1-.1-.1-.1-.2-.1 0 .1.1.2.1.3.1.5-.2.8-.4.9 7.7-4 22.9-6.6 39.7-6.6 17 0 32.3 2.6 39.9 6.7-.1 0-.2-.1-.3-.3-.1-.3-.2-.6-.1-.9 0-.1.1-.2.1-.2-.1.1-.2.2-.4.3-.9.5-2.5 1.2-4.8 1.9-5.2 1.6-12.6 2.9-20.8 3.6l.5 3.2zM-229.1 2h156v75.2h-156V2z"/></defs><clipPath id="gr"><use xlink:href="#gq" overflow="visible"/></clipPath><g clip-path="url(#gr)"><defs><path id="gs" d="M-137.8 55.7c24.8-1.7 43.3-8.2 43.3-15.9 0-9-25.3-16.3-56.5-16.3s-56.5 7.3-56.5 16.3c0 7 15.3 13 36.9 15.3-14.9-1.9-24-5.5-21.4-6.9 7.8-4 22.9-6.8 40.4-6.8 17.6 0 32.9 2.8 40.6 6.9 2.6 1.5-9 5.8-26.8 7.4z"/></defs></g></g><g><defs><path id="gt" d="M-137.8 55.7c24.8-1.7 43.3-8.2 43.3-15.9 0-9-25.3-16.3-56.5-16.3s-56.5 7.3-56.5 16.3c0 7 15.3 13 36.9 15.3-14.9-1.9-24-5.5-21.4-6.9 7.8-4 22.9-6.8 40.4-6.8 17.6 0 32.9 2.8 40.6 6.9 2.6 1.5-9 5.8-26.8 7.4z"/></defs></g><g><defs><path id="gu" d="M-151.1 76c-30.3 0-55-7.1-55-14.8v-22l-2.8.8c.3.6 1.1 1.4 2.4 2.4 2 1.6 4.9 3.2 8.6 4.7 10.5 4.1 26.3 6.6 48.5 6.6 19.8 0 34.5-2.6 44.8-7.1 3.7-1.6 6.5-3.3 8.6-5 1.3-1.1 2.1-1.9 2.5-2.5l-2.7-.9v23c.1 7.7-24.6 14.8-54.9 14.8zm0 3c32.1 0 58-7.5 58-17.8V33.5l-2.7 3.8c0 .1-.2.2-.4.4-.4.4-.9.9-1.6 1.4-1.9 1.5-4.5 3.1-8 4.6-9.9 4.3-24.2 6.8-43.6 6.8-21.8 0-37.3-2.4-47.4-6.4-3.5-1.4-6.1-2.8-7.9-4.2-1-.8-1.5-1.4-1.7-1.6l-2.8-4.5v27.3c.1 10.4 26 17.9 58.1 17.9zm-78-65.5h156V99h-156V13.5z"/></defs><clipPath id="gv"><use xlink:href="#gu" overflow="visible"/></clipPath><g clip-path="url(#gv)"><defs><path id="gw" d="M-151.1 77.5c31.2 0 56.5-7.3 56.5-16.3v-23s-9.9 13.9-54.8 13.9c-50.2 0-58.2-13-58.2-13v22c0 9.1 25.3 16.4 56.5 16.4z"/></defs></g></g><g><defs><path id="gx" d="M-151.1 77.5c31.2 0 56.5-7.3 56.5-16.3v-23s-9.9 13.9-54.8 13.9c-50.2 0-58.2-13-58.2-13v22c0 9.1 25.3 16.4 56.5 16.4z"/></defs></g><g><defs><path id="gy" d="M-146.5 112c-8.5 0-15.4-6.9-15.4-15.4s6.9-15.4 15.4-15.4 15.5 6.9 15.5 15.4-7 15.4-15.5 15.4zm0 3c10.2 0 18.5-8.2 18.5-18.4s-8.3-18.4-18.5-18.4-18.4 8.2-18.4 18.4 8.2 18.4 18.4 18.4zM-185 58.2h76.9V135H-185V58.2z"/></defs><clipPath id="gz"><use xlink:href="#gy" overflow="visible"/></clipPath><g clip-path="url(#gz)"><defs><ellipse id="gA" cx="-146.5" cy="96.6" rx="17" ry="16.9"/></defs></g></g><g><defs><ellipse id="gB" cx="-146.5" cy="96.6" rx="17" ry="16.9"/></defs></g><g><defs><path id="gC" d="M83.8 346.9h-1.5v84h108v-84H83.8zm0 3h105l-1.5-1.5v81l1.5-1.5h-105l1.5 1.5v-81l-1.5 1.5zm-21.5-23h148v124h-148v-124z"/></defs><clipPath id="gD"><use xlink:href="#gC" overflow="visible"/></clipPath><g clip-path="url(#gD)"><defs><path id="gE" d="M83.8 348.4h105v81h-105z"/></defs></g></g><g><defs><path id="gF" d="M83.8 348.4h105v81h-105z"/></defs></g><g><defs><path id="gG" d="M77.8 363.9h-2.2l.9-2.1 9.1-22 .4-.9h100.9l.4.9 9.1 22 .9 2.1H77.8zm0-3h117l-1.4 2.1-9.1-22 1.4.9H86.9l1.4-.9-9.1 22-1.4-2.1zm-22.2 23H217v-65H55.6v65z"/></defs><clipPath id="gH"><use xlink:href="#gG" overflow="visible"/></clipPath><g clip-path="url(#gH)"><defs><path id="gI" d="M77.8 362.4h117l-9.1-22H86.9z"/></defs></g></g><g><defs><path id="gJ" d="M77.8 362.4h117l-9.1-22H86.9z"/></defs></g><g><defs><path id="gK" d="M162.8 330.9h-1.5v19h15v-19h-13.5zm0 3h12l-1.5-1.5v16l1.5-1.5h-12l1.5 1.5v-16l-1.5 1.5zm-21.5-23h55v59h-55v-59z"/></defs><clipPath id="gL"><use xlink:href="#gK" overflow="visible"/></clipPath><g clip-path="url(#gL)"><defs><path id="gM" d="M162.8 332.4h12v16h-12z"/></defs></g></g><g><defs><path id="gN" d="M162.8 332.4h12v16h-12z"/></defs></g><g><defs><path id="gO" d="M96.8 396.9h-1.5v34h24v-34H96.8zm0 3h21l-1.5-1.5v31l1.5-1.5h-21l1.5 1.5v-31l-1.5 1.5zm-21.5-23h64v74h-64v-74z"/></defs><clipPath id="gP"><use xlink:href="#gO" overflow="visible"/></clipPath><g clip-path="url(#gP)"><defs><path id="gQ" d="M96.8 398.4h21v31h-21z"/></defs></g></g><g><defs><path id="gR" d="M96.8 398.4h21v31h-21z"/></defs></g><g><defs><path id="gS" d="M97.8 368.9h-1.5v22h22v-22H97.8zm0 3h19l-1.5-1.5v19l1.5-1.5h-19l1.5 1.5v-19l-1.5 1.5zm-21.5-23h62v62h-62v-62z"/></defs><clipPath id="gT"><use xlink:href="#gS" overflow="visible"/></clipPath><g clip-path="url(#gT)"><defs><path id="gU" d="M97.8 370.4h19v19h-19z"/></defs></g></g><g><defs><path id="gV" d="M97.8 370.4h19v19h-19z"/></defs></g><g><defs><path id="gW" d="M102.8 373.9h-1.5v12h12v-12h-10.5zm0 3h9l-1.5-1.5v9l1.5-1.5h-9l1.5 1.5v-9l-1.5 1.5zm-21.5-23h52v52h-52v-52z"/></defs><clipPath id="gX"><use xlink:href="#gW" overflow="visible"/></clipPath><g clip-path="url(#gX)"><defs><path id="gY" d="M102.8 375.4h9v9h-9z"/></defs></g></g><g><defs><path id="gZ" d="M102.8 375.4h9v9h-9z"/></defs></g><g><defs><path id="ha" d="M127.8 368.9h-1.5v22h22v-22h-20.5zm0 3h19l-1.5-1.5v19l1.5-1.5h-19l1.5 1.5v-19l-1.5 1.5zm-21.5-23h62v62h-62v-62z"/></defs><clipPath id="hb"><use xlink:href="#ha" overflow="visible"/></clipPath><g clip-path="url(#hb)"><defs><path id="hc" d="M127.8 370.4h19v19h-19z"/></defs></g></g><g><defs><path id="hd" d="M127.8 370.4h19v19h-19z"/></defs></g><g><defs><path id="he" d="M156.8 368.9h-1.5v22h22v-22h-20.5zm0 3h19l-1.5-1.5v19l1.5-1.5h-19l1.5 1.5v-19l-1.5 1.5zm-21.5-23h62v62h-62v-62z"/></defs><clipPath id="hf"><use xlink:href="#he" overflow="visible"/></clipPath><g clip-path="url(#hf)"><defs><path id="hg" d="M156.8 370.4h19v19h-19z"/></defs></g></g><g><defs><path id="hh" d="M156.8 370.4h19v19h-19z"/></defs></g><g><defs><path id="hi" d="M127.8 396.9h-1.5v22h22v-22h-20.5zm0 3h19l-1.5-1.5v19l1.5-1.5h-19l1.5 1.5v-19l-1.5 1.5zm-21.5-23h62v62h-62v-62z"/></defs><clipPath id="hj"><use xlink:href="#hi" overflow="visible"/></clipPath><g clip-path="url(#hj)"><defs><path id="hk" d="M127.8 398.4h19v19h-19z"/></defs></g></g><g><defs><path id="hl" d="M127.8 398.4h19v19h-19z"/></defs></g><g><defs><path id="hm" d="M156.8 396.9h-1.5v22h22v-22h-20.5zm0 3h19l-1.5-1.5v19l1.5-1.5h-19l1.5 1.5v-19l-1.5 1.5zm-21.5-23h62v62h-62v-62z"/></defs><clipPath id="hn"><use xlink:href="#hm" overflow="visible"/></clipPath><g clip-path="url(#hn)"><defs><path id="ho" d="M156.8 398.4h19v19h-19z"/></defs></g></g><g><defs><path id="hp" d="M156.8 398.4h19v19h-19z"/></defs></g><g><defs><path id="hq" d="M132.8 373.9h-1.5v12h12v-12h-10.5zm0 3h9l-1.5-1.5v9l1.5-1.5h-9l1.5 1.5v-9l-1.5 1.5zm-21.5-23h52v52h-52v-52z"/></defs><clipPath id="hr"><use xlink:href="#hq" overflow="visible"/></clipPath><g clip-path="url(#hr)"><defs><path id="hs" d="M132.8 375.4h9v9h-9z"/></defs></g></g><g><defs><path id="ht" d="M132.8 375.4h9v9h-9z"/></defs></g><g><defs><path id="hu" d="M161.8 373.9h-1.5v12h12v-12h-10.5zm0 3h9l-1.5-1.5v9l1.5-1.5h-9l1.5 1.5v-9l-1.5 1.5zm-21.5-23h52v52h-52v-52z"/></defs><clipPath id="hv"><use xlink:href="#hu" overflow="visible"/></clipPath><g clip-path="url(#hv)"><defs><path id="hw" d="M161.8 375.4h9v9h-9z"/></defs></g></g><g><defs><path id="hx" d="M161.8 375.4h9v9h-9z"/></defs></g><g><defs><path id="hy" d="M132.8 401.9h-1.5v12h12v-12h-10.5zm0 3h9l-1.5-1.5v9l1.5-1.5h-9l1.5 1.5v-9l-1.5 1.5zm-21.5-23h52v52h-52v-52z"/></defs><clipPath id="hz"><use xlink:href="#hy" overflow="visible"/></clipPath><g clip-path="url(#hz)"><defs><path id="hA" d="M132.8 403.4h9v9h-9z"/></defs></g></g><g><defs><path id="hB" d="M132.8 403.4h9v9h-9z"/></defs></g><g><defs><path id="hC" d="M161.8 401.9h-1.5v12h12v-12h-10.5zm0 3h9l-1.5-1.5v9l1.5-1.5h-9l1.5 1.5v-9l-1.5 1.5zm-21.5-23h52v52h-52v-52z"/></defs><clipPath id="hD"><use xlink:href="#hC" overflow="visible"/></clipPath><g clip-path="url(#hD)"><defs><path id="hE" d="M161.8 403.4h9v9h-9z"/></defs></g></g><g><defs><path id="hF" d="M161.8 403.4h9v9h-9z"/></defs></g><g><defs><path id="hG" d="M138 585.3c-27.1 0-49-21.9-49-49s21.9-49 49-49 49 21.9 49 49c0 27-21.9 49-49 49zm0 3c28.7 0 52-23.3 52-52s-23.3-52-52-52-52 23.3-52 52 23.3 52 52 52zm-72-124h144v144H66v-144z"/></defs><clipPath id="hH"><use xlink:href="#hG" overflow="visible"/></clipPath><g clip-path="url(#hH)"><defs><circle id="hI" cx="138" cy="536.3" r="50.5"/></defs></g></g><g><defs><circle id="hJ" cx="138" cy="536.3" r="50.5"/></defs></g><g><defs><circle id="hK" cx="138" cy="536.3" r="43.5"/></defs></g><g><defs><path id="hL" d="M138.7 752.5c-24.6 0-44.6-20-44.6-44.6s20-44.6 44.6-44.6 44.6 20 44.6 44.6-20 44.6-44.6 44.6zm0 2.7c26.1 0 47.3-21.2 47.3-47.3 0-26.1-21.2-47.3-47.3-47.3s-47.3 21.2-47.3 47.3c0 26.1 21.2 47.3 47.3 47.3zM73.2 642.4h131v131h-131v-131z"/></defs><clipPath id="hM"><use xlink:href="#hL" overflow="visible"/></clipPath><g clip-path="url(#hM)"><defs><circle id="hN" cx="138.7" cy="707.9" r="45.9"/></defs></g></g><g><defs><circle id="hO" cx="138.7" cy="707.9" r="45.9"/></defs></g><g><defs><circle id="hP" cx="138.7" cy="707.9" r="39.6"/></defs></g></svg>