<svg xmlns="http://www.w3.org/2000/svg" xmlns:xlink="http://www.w3.org/1999/xlink" viewBox="0 0 276 137"><defs><path id="a" d="M-158-506.5c-29.3 0-53-23.7-53-53s23.7-53 53-53 53 23.7 53 53-23.7 53-53 53zm0 3c30.9 0 56-25.1 56-56s-25.1-56-56-56-56 25.1-56 56 25.1 56 56 56z"/></defs><clipPath id="b"><use xlink:href="#a" overflow="visible"/></clipPath><g clip-path="url(#b)"><defs><circle id="c" cx="-158" cy="-559.5" r="54.5"/></defs></g><defs><circle id="d" cx="-158" cy="-559.5" r="54.5"/></defs><defs><path id="e" d="M-158-527.5c-17.7 0-32-14.3-32-32s14.3-32 32-32 32 14.3 32 32-14.3 32-32 32zm0 3c19.3 0 35-15.7 35-35s-15.7-35-35-35-35 15.7-35 35 15.7 35 35 35zm-55-90h110v110h-110v-110z"/></defs><clipPath id="f"><use xlink:href="#e" overflow="visible"/></clipPath><g clip-path="url(#f)"><defs><circle id="g" cx="-158" cy="-559.5" r="33.5"/></defs></g><defs><circle id="h" cx="-158" cy="-559.5" r="33.5"/></defs><defs><path id="i" d="M-159.5-613.5h-1.5v13h6v-13h-4.5zm0 3h3l-1.5-1.5v10l1.5-1.5h-3l1.5 1.5v-10l-1.5 1.5z"/></defs><clipPath id="j"><use xlink:href="#i" overflow="visible"/></clipPath><g clip-path="url(#j)"><defs><path id="k" d="M-159.5-612h3v10h-3z"/></defs></g><defs><path id="l" d="M-159.5-612h3v10h-3z"/></defs><defs><path id="m" d="M-213.5-557.5v1.5h13v-6h-13v4.5zm3 0v-3l-1.5 1.5h10l-1.5-1.5v3l1.5-1.5h-10l1.5 1.5z"/></defs><clipPath id="n"><use xlink:href="#m" overflow="visible"/></clipPath><g clip-path="url(#n)"><defs><path id="o" d="M-212-560.5h10v3h-10z"/></defs></g><defs><path id="p" d="M-212-560.5h10v3h-10z"/></defs><defs><path id="q" d="M-116.5-557.5v1.5h13v-6h-13v4.5zm3 0v-3l-1.5 1.5h10l-1.5-1.5v3l1.5-1.5h-10l1.5 1.5z"/></defs><clipPath id="r"><use xlink:href="#q" overflow="visible"/></clipPath><g clip-path="url(#r)"><defs><path id="s" d="M-115-560.5h10v3h-10z"/></defs></g><defs><path id="t" d="M-115-560.5h10v3h-10z"/></defs><defs><path id="u" d="M-127.5-587.3l1.1 1.1 1.1-1.1 7.1-7.1 1.1-1.1-1.1-1.1-2.1-2.1-1.1-1.1-1.1 1.1-7.1 7.1-1.1 1.1 1.1 1.1 2.1 2.1zm2.1-2.2l-2.1-2.1v2.1l7.1-7.1h-2.1l2.1 2.1v-2.1l-7.1 7.1h2.1z"/></defs><clipPath id="v"><use xlink:href="#u" overflow="visible"/></clipPath><g clip-path="url(#v)"><defs><path id="w" transform="rotate(45.001 -124.008 -593.001)" d="M-125.5-598h3v10h-3z"/></defs></g><defs><path id="x" transform="rotate(45.001 -124.008 -593.001)" d="M-125.5-598h3v10h-3z"/></defs><defs><path id="y" d="M-187.3-588.5l1.1-1.1-1.1-1.1-7.1-7.1-1.1-1.1-1.1 1.1-2.1 2.1-1.1 1.1 1.1 1.1 7.1 7.1 1.1 1.1 1.1-1.1 2.1-2.1zm-2.2-2.1l-2.1 2.1h2.1l-7.1-7.1v2.1l2.1-2.1h-2.1l7.1 7.1v-2.1z"/></defs><clipPath id="z"><use xlink:href="#y" overflow="visible"/></clipPath><g clip-path="url(#z)"><defs><path id="A" transform="rotate(-45.001 -192.995 -592.006)" d="M-194.5-597h3v10h-3z"/></defs></g><defs><path id="B" transform="rotate(-45.001 -192.995 -592.006)" d="M-194.5-597h3v10h-3z"/></defs><defs><path id="C" d="M-127.5-531.7l1.1-1.1 1.1 1.1 7.1 7.1 1.1 1.1-1.1 1.1-2.1 2.1-1.1 1.1-1.1-1.1-7.1-7.1-1.1-1.1 1.1-1.1 2.1-2.1zm2.1 2.2l-2.1 2.1v-2.1l7.1 7.1h-2.1l2.1-2.1v2.1l-7.1-7.1h2.1z"/></defs><clipPath id="D"><use xlink:href="#C" overflow="visible"/></clipPath><g clip-path="url(#D)"><defs><path id="E" transform="rotate(-45.001 -123.994 -526.004)" d="M-125.5-531h3v10h-3z"/></defs></g><defs><path id="F" transform="rotate(-45.001 -123.994 -526.004)" d="M-125.5-531h3v10h-3z"/></defs><defs><path id="G" d="M-187.3-528.5l1.1 1.1-1.1 1.1-7.1 7.1-1.1 1.1-1.1-1.1-2.1-2.1-1.1-1.1 1.1-1.1 7.1-7.1 1.1-1.1 1.1 1.1 2.1 2.1zm-2.2 2.1l-2.1-2.1h2.1l-7.1 7.1v-2.1l2.1 2.1h-2.1l7.1-7.1v2.1z"/></defs><clipPath id="H"><use xlink:href="#G" overflow="visible"/></clipPath><g clip-path="url(#H)"><defs><path id="I" transform="rotate(45.001 -193.007 -525)" d="M-194.5-530h3v10h-3z"/></defs></g><defs><path id="J" transform="rotate(45.001 -193.007 -525)" d="M-194.5-530h3v10h-3z"/></defs><defs><path id="K" d="M-148.4-580.1c.7.3 1.5.6 2.2 1 1.3.7 2.5 1.6 3.6 2.4.4.3.7.6 1 .9.2.2.3.3.4.3l1.6 1.6-.3-2.2-2.1-14.7-.2-1.2-1 .6-12.3 8-1.8 1.2 2.1.2c.1 0 .3 0 .5.1.4.1.9.2 1.5.3 1.4.3 3.1.8 4.8 1.5zm7.5 4c-.1-.1-.4-.3-.7-.6l.1.9.6-.3zm0-1l.1.9.6-.3-.4-.4c-.1 0-.2-.1-.3-.2zm-1.9-13.1v.3l.3-.2-.3-.1zm-.8 0l.3-.2-.3-.2v.4zm-11.4 7.4l.7-.5h-.3c-.3 0-.5-.1-.6-.1l.2.6zm.9.3c-.4-.1-.7-.1-.9-.1l.1.6.8-.5z"/></defs><defs><path id="L" d="M-148.2-580.8c-3.9-1.6-7.1-1.9-7.1-1.9l12.3-8 2.1 14.7c.2.1-3.1-3.1-7.3-4.8zm-25-11.1l37.2-15.8 15.8 37.2-37.2 15.8-15.8-37.2z"/></defs><defs><path id="M" d="M-158-535.5c-13.3 0-24-10.7-24-24s10.7-24 24-24 24 10.7 24 24-10.7 24-24 24zm0 3c14.9 0 27-12.1 27-27s-12.1-27-27-27-27 12.1-27 27 12.1 27 27 27zm-47-74h94v94h-94v-94z"/></defs><clipPath id="N"><use xlink:href="#M" overflow="visible"/></clipPath><g clip-path="url(#N)"><defs><circle id="O" cx="-158" cy="-559.5" r="25.5"/></defs></g><defs><circle id="P" cx="-158" cy="-559.5" r="25.5"/></defs><defs><path id="Q" d="M132.2-620.5h-1.5v18h19v-18h-17.5zm0 3h16l-1.5-1.5v15l1.5-1.5h-16l1.5 1.5v-15l-1.5 1.5z"/></defs><clipPath id="R"><use xlink:href="#Q" overflow="visible"/></clipPath><g clip-path="url(#R)"><defs><path id="S" d="M132.2-619h16v15h-16z"/></defs></g><defs><path id="T" d="M132.2-619h16v15h-16z"/></defs><defs><path id="U" d="M108.2-608.5h-1.5v43h67v-43h-65.5zm0 3h64l-1.5-1.5v40l1.5-1.5h-64l1.5 1.5v-40l-1.5 1.5z"/></defs><clipPath id="V"><use xlink:href="#U" overflow="visible"/></clipPath><g clip-path="url(#V)"><defs><path id="W" d="M108.2-607h64v40h-64z"/></defs></g><defs><path id="X" d="M108.2-607h64v40h-64z"/></defs><defs><path id="Y" d="M143.2-598.5h-1.5v33h22v-33h-20.5zm0 3h19l-1.5-1.5v30l1.5-1.5h-19l1.5 1.5v-30l-1.5 1.5z"/></defs><clipPath id="Z"><use xlink:href="#Y" overflow="visible"/></clipPath><g clip-path="url(#Z)"><defs><path id="aa" d="M143.2-597h19v30h-19z"/></defs></g><defs><path id="ab" d="M143.2-597h19v30h-19z"/></defs><defs><path id="ac" d="M118.2-598.5h-1.5v33h22v-33h-20.5zm0 3h19l-1.5-1.5v30l1.5-1.5h-19l1.5 1.5v-30l-1.5 1.5z"/></defs><clipPath id="ad"><use xlink:href="#ac" overflow="visible"/></clipPath><g clip-path="url(#ad)"><defs><path id="ae" d="M118.2-597h19v30h-19z"/></defs></g><defs><path id="af" d="M118.2-597h19v30h-19z"/></defs><defs><path id="ag" d="M87.7-540.3c0 2.9-.8 7-2.3 11.9-.6 2.1-1.3 4.3-2.1 6.5-1 2.7-2 5.4-3.1 8-.4.9-.7 1.7-1 2.4-.2.4-.3.7-.4.9l-.9 2.1h119.4l-.7-2c-.1-.2-.2-.4-.3-.9-.2-.7-.5-1.5-.8-2.4-.8-2.5-1.6-5.2-2.4-7.9-.7-2.4-1.3-4.8-1.8-7-1.1-4.8-1.7-8.8-1.7-11.8 0-2.8.7-7 1.9-12 .5-1.9 1-3.9 1.6-6 .8-2.7 1.6-5.4 2.4-7.9.3-.9.5-1.7.8-2.4.1-.4.2-.7.3-.9l.7-2H77.9l1 2.1c.1.1.2.4.4.9.3.7.6 1.5 1 2.4 1 2.5 2.1 5.1 3.1 7.8.8 2.2 1.5 4.4 2.1 6.4 1.4 5 2.2 9 2.2 11.8zm3 0c0-3.2-.9-7.5-2.4-12.5-.6-2.1-1.4-4.3-2.2-6.5-1-2.7-2.1-5.4-3.1-8-.4-.9-.7-1.7-1-2.4-.2-.4-.3-.7-.4-.9l-1.4 2.1h115l-1.4-2c-.1.2-.2.5-.3.9-.2.7-.5 1.5-.8 2.4-.8 2.6-1.7 5.3-2.4 8-.6 2.1-1.1 4.1-1.6 6.1-1.3 5.2-2 9.5-2 12.7 0 3.2.6 7.4 1.7 12.4.5 2.3 1.1 4.7 1.8 7.1.8 2.8 1.6 5.5 2.4 8.1.3.9.6 1.7.8 2.4.1.4.2.7.3.9l1.4-2h-115l1.4 2.1c.1-.2.2-.5.4-.9.3-.7.7-1.5 1-2.4 1.1-2.6 2.1-5.3 3.1-8.1.8-2.3 1.6-4.5 2.2-6.7 1.7-5.2 2.5-9.5 2.5-12.8z"/></defs><clipPath id="ah"><use xlink:href="#ag" overflow="visible"/></clipPath><g clip-path="url(#ah)"><defs><path id="ai" d="M89.2-540.3c0-9.9-9-29.7-9-29.7h115s-7 20-7 29.6c0 10.5 7 30.4 7 30.4h-115s9-20.2 9-30.3z"/></defs></g><defs><path id="aj" d="M89.2-540.3c0-9.9-9-29.7-9-29.7h115s-7 20-7 29.6c0 10.5 7 30.4 7 30.4h-115s9-20.2 9-30.3z"/></defs><defs><path id="ak" d="M103.2-539.5h-1.5v6h72v-6h-70.5zm0 3h69l-1.5-1.5v3l1.5-1.5h-69l1.5 1.5v-3l-1.5 1.5zm-21.5-23h112v46h-112v-46z"/></defs><clipPath id="al"><use xlink:href="#ak" overflow="visible"/></clipPath><g clip-path="url(#al)"><defs><path id="am" d="M103.2-538h69v3h-69z"/></defs></g><defs><path id="an" d="M103.2-538h69v3h-69z"/></defs><defs><path id="ao" d="M103.2-547.5h-1.5v6h72v-6h-70.5zm0 3h69l-1.5-1.5v3l1.5-1.5h-69l1.5 1.5v-3l-1.5 1.5zm-21.5-23h112v46h-112v-46z"/></defs><clipPath id="ap"><use xlink:href="#ao" overflow="visible"/></clipPath><g clip-path="url(#ap)"><defs><path id="aq" d="M103.2-546h69v3h-69z"/></defs></g><defs><path id="ar" d="M103.2-546h69v3h-69z"/></defs><defs><path id="as" d="M135.2-532.1l.5 1.6 1.5-.7c2-.9 4.2-1.3 6.4-1.3 6 0 11.3 3.3 14.1 8.4l.5 1 1.1-.2c.6-.1 1.2-.2 1.8-.2 3.5 0 6.6 2.1 7.9 5.3l.5 1.2 1.3-.3c.4-.1.9-.2 1.4-.2 3 0 5.5 2.5 5.5 5.5s-2.5 5.5-5.5 5.5c-1.5 0-2.9-.6-3.9-1.6l-.9-.9-1 .8c-1.5 1.1-3.3 1.7-5.1 1.7-1.1 0-2.2-.2-3.2-.6l-1-.4-.7.9c-3 3.8-7.6 6.1-12.6 6.1-4.9 0-9.5-2.3-12.5-6l-.7-.8-1 .3c-1.1.4-2.2.5-3.3.5-2 0-4-.6-5.7-1.7l-.8-.5-.8.5c-1.7 1.1-3.6 1.7-5.7 1.7-2.2 0-4.3-.7-6-1.9l-1.1-.7-.9.9c-1 1.1-2.5 1.7-4 1.7-3 0-5.5-2.5-5.5-5.5s2.5-5.5 5.5-5.5h1.4l.2-1.3c.8-5 5.2-8.7 10.4-8.7h1.5v-1.5c0-5.8 4.7-10.5 10.5-10.5 4.6 0 8.6 3 9.9 7.4zm2.9-.9c-1.7-5.6-6.9-9.5-12.9-9.5-7.5 0-13.5 6-13.5 13.5l1.5-1.5c-6.6 0-12.2 4.8-13.3 11.3l1.5.2v-1.5h-.2c-4.7 0-8.5 3.8-8.5 8.5s3.8 8.5 8.5 8.5c2.4 0 4.6-1 6.2-2.7l-2 .2c2.3 1.6 5 2.5 7.8 2.5 2.6 0 5.2-.8 7.3-2.2h-1.6c2.2 1.4 4.7 2.2 7.3 2.2 1.5 0 2.9-.2 4.3-.7l-.5-1.4-1.2.9c3.6 4.5 9 7.2 14.9 7.2s11.4-2.7 15-7.3l-1.2-.9-.6 1.4c1.3.5 2.8.8 4.3.8 2.6 0 5-.8 7-2.4l-2-.1c1.6 1.6 3.7 2.5 6 2.5 4.7 0 8.5-3.8 8.5-8.5s-3.8-8.5-8.5-8.5c-.7 0-1.4.1-2.1.3l.4 1.5 1.4-.6c-1.8-4.3-5.9-7.2-10.6-7.2-.8 0-1.6.1-2.4.2l.3 1.5 1.3-.7c-3.3-6.1-9.7-10-16.7-10-2.7 0-5.2.5-7.6 1.6l1.9.9zm-65.4-29.5h128v85h-128v-85z"/></defs><clipPath id="at"><use xlink:href="#as" overflow="visible"/></clipPath><g clip-path="url(#at)"><defs><path id="au" d="M136.7-532.5c-1.5-4.9-6.1-8.5-11.5-8.5-6.6 0-12 5.4-12 12-5.9 0-10.9 4.3-11.8 10h-.2c-3.9 0-7 3.1-7 7s3.1 7 7 7c2 0 3.8-.8 5.1-2.2 2 1.4 4.3 2.2 6.9 2.2 2.4 0 4.6-.7 6.5-1.9 1.9 1.2 4.1 1.9 6.5 1.9 1.3 0 2.6-.2 3.8-.6 3.2 4 8.2 6.6 13.7 6.6 5.6 0 10.6-2.6 13.8-6.7 1.1.5 2.4.7 3.7.7 2.3 0 4.4-.8 6.1-2 1.3 1.3 3 2 4.9 2 3.9 0 7-3.1 7-7s-3.1-7-7-7c-.6 0-1.2.1-1.7.2-1.5-3.6-5.1-6.2-9.3-6.2-.7 0-1.4.1-2.1.2-3-5.5-8.8-9.2-15.4-9.2-2.5 0-4.9.5-7 1.5z"/></defs></g><defs><path id="av" d="M136.7-532.5c-1.5-4.9-6.1-8.5-11.5-8.5-6.6 0-12 5.4-12 12-5.9 0-10.9 4.3-11.8 10h-.2c-3.9 0-7 3.1-7 7s3.1 7 7 7c2 0 3.8-.8 5.1-2.2 2 1.4 4.3 2.2 6.9 2.2 2.4 0 4.6-.7 6.5-1.9 1.9 1.2 4.1 1.9 6.5 1.9 1.3 0 2.6-.2 3.8-.6 3.2 4 8.2 6.6 13.7 6.6 5.6 0 10.6-2.6 13.8-6.7 1.1.5 2.4.7 3.7.7 2.3 0 4.4-.8 6.1-2 1.3 1.3 3 2 4.9 2 3.9 0 7-3.1 7-7s-3.1-7-7-7c-.6 0-1.2.1-1.7.2-1.5-3.6-5.1-6.2-9.3-6.2-.7 0-1.4.1-2.1.2-3-5.5-8.8-9.2-15.4-9.2-2.5 0-4.9.5-7 1.5z"/></defs><defs><path id="aw" d="M407.7-567.6l56 32.4s-1.5 14.3-8.3 24.7c-6.8 10.4-24.1 17.2-24.1 17.2l-53.4-38.5s13.7-4.3 21.6-13.8 8.2-22 8.2-22z"/></defs><defs><path id="ax" d="M433.2-553.8l21.8-50.6 6.2 2.7-22.4 51z"/></defs><defs><path id="ay" d="M398.3-527.4l1.2.9.9-1.2c-1.5-1-3.3-1.6-5.1-1.6-5 0-9 4-9 9 0 3.8 2.4 7.2 6 8.5l-1-1.4c0 4.9 4.1 8.9 9 8.9 1.4 0 2.8-.3 4.1-1l-.7-1.3-1.4.6c1.9 4 5.9 6.7 10.4 6.7 6.4 0 11.5-5.1 11.5-11.5 0-1.2-.2-2.5-.6-3.6l-1.4.5.8 1.3c2.6-1.6 4.2-4.5 4.2-7.6 0-5-4-9-9-9-1.2 0-2.3.2-3.4.7l.6 1.4 1.1-1c-2.2-2.6-5.4-4.1-8.8-4.1-3.8-.1-7.3 1.8-9.4 4.8zm2.4 1.7c1.6-2.3 4.2-3.7 7-3.7 2.5 0 4.9 1.1 6.5 3l.7.8 1-.4c.7-.3 1.5-.4 2.3-.4 3.3 0 6 2.7 6 6 0 2.1-1.1 4-2.8 5.1l-1 .6.4 1.1c.3.9.4 1.8.4 2.7 0 4.7-3.8 8.5-8.5 8.5-3.4 0-6.3-2-7.7-4.9l-.7-1.4-1.3.7c-.8.4-1.8.7-2.7.7-3.3 0-6-2.7-6-5.9v-1.1l-1-.3c-2.4-.8-4-3.1-4-5.7 0-3.3 2.7-6 6-6 1.2 0 2.4.4 3.4 1.1l1.2.9.8-1.4zm-34.5-26.6h81v73h-81v-73z"/></defs><clipPath id="az"><use xlink:href="#ay" overflow="visible"/></clipPath><g clip-path="url(#az)"><defs><path id="aA" d="M399.5-526.5c1.8-2.6 4.8-4.3 8.2-4.3 3.1 0 5.8 1.4 7.7 3.6.9-.4 1.8-.6 2.8-.6 4.1 0 7.5 3.4 7.5 7.5 0 2.7-1.4 5-3.5 6.3.3 1 .5 2 .5 3.2 0 5.5-4.5 10-10 10-4 0-7.5-2.4-9.1-5.8-1 .5-2.2.8-3.4.8-4.1 0-7.5-3.3-7.5-7.4-2.9-1-5-3.8-5-7.1 0-4.1 3.4-7.5 7.5-7.5 1.6 0 3.1.5 4.3 1.3z"/></defs></g><defs><path id="aB" d="M399.5-526.5c1.8-2.6 4.8-4.3 8.2-4.3 3.1 0 5.8 1.4 7.7 3.6.9-.4 1.8-.6 2.8-.6 4.1 0 7.5 3.4 7.5 7.5 0 2.7-1.4 5-3.5 6.3.3 1 .5 2 .5 3.2 0 5.5-4.5 10-10 10-4 0-7.5-2.4-9.1-5.8-1 .5-2.2.8-3.4.8-4.1 0-7.5-3.3-7.5-7.4-2.9-1-5-3.8-5-7.1 0-4.1 3.4-7.5 7.5-7.5 1.6 0 3.1.5 4.3 1.3z"/></defs><defs><path id="aC" d="M455.7-611.2l10.2 4.4 2-4.4-10.3-4-1.9 4zm-8.5 2.7l22.8 9.7 7.1-15.4-23.3-8.4-6.6 14.1z"/></defs><defs><path id="aD" d="M728.1-623.6c30.3 0 55 7.1 55 14.8v22l1.7-1.5c-.1 0-.2 0-.4-.1-.4-.1-.8-.1-1.3-.2-1.4-.2-2.9-.4-4.6-.6-4.9-.7-10-1.3-15.2-2-3.9-.5-7.7-.9-11.3-1.3-9.9-1-18.1-1.6-23.9-1.6-5.2 0-14.3.8-26.1 2.3-2.5.3-5.1.6-7.7 1-5.4.7-10.9 1.5-16.1 2.3-1.8.3-3.5.5-5 .8-.5.1-1 .2-1.4.2-.2 0-.4.1-.5.1l1.7 1.5v-23c.1-7.6 24.8-14.7 55.1-14.7zm0-3c-32.1 0-58 7.5-58 17.8v24.8l1.7-.3c.1 0 .2 0 .5-.1.4-.1.8-.1 1.4-.2 1.5-.2 3.1-.5 5-.8 5.2-.8 10.7-1.6 16.1-2.3 2.6-.4 5.2-.7 7.7-1 11.7-1.5 20.7-2.3 25.7-2.3 5.6 0 13.7.6 23.6 1.6 3.6.4 7.4.8 11.2 1.3 5.2.6 10.3 1.3 15.2 2 1.7.2 3.2.4 4.6.6.5.1.9.1 1.2.2.2 0 .4.1.4.1l1.7.3v-23.7c0-10.6-25.9-18-58-18zm-78-20h156v82.5h-156v-82.5z"/></defs><clipPath id="aE"><use xlink:href="#aD" overflow="visible"/></clipPath><g clip-path="url(#aE)"><defs><path id="aF" d="M728.1-625.1c-31.2 0-56.5 7.3-56.5 16.3v23s42.2-6.7 56.5-6.7c18 0 56.5 5.7 56.5 5.7v-22c0-9-25.3-16.3-56.5-16.3z"/></defs></g><defs><path id="aG" d="M728.1-625.1c-31.2 0-56.5 7.3-56.5 16.3v23s42.2-6.7 56.5-6.7c18 0 56.5 5.7 56.5 5.7v-22c0-9-25.3-16.3-56.5-16.3z"/></defs><defs><path id="aH" d="M728.1-601.4c30.3 0 55 7.1 55 14.8 0 7.7-24.7 14.8-55 14.8s-55-7.1-55-14.8c0-7.6 24.7-14.8 55-14.8zm0-3c-32.1 0-58 7.5-58 17.8s25.9 17.8 58 17.8 58-7.5 58-17.8-25.9-17.8-58-17.8zm-78-20h156v75.6h-156v-75.6z"/></defs><clipPath id="aI"><use xlink:href="#aH" overflow="visible"/></clipPath><g clip-path="url(#aI)"><defs><ellipse id="aJ" cx="728.1" cy="-586.5" rx="56.5" ry="16.3"/></defs></g><defs><ellipse id="aK" cx="728.1" cy="-586.5" rx="56.5" ry="16.3"/></defs><defs><path id="aL" d="M688.1-582.2c0-5.3 18-10.4 40-10.4s40 5.2 40 10.4v7.1l1.2-1.5c-.1 0-.1 0-.3.1-.3 0-.6.1-.9.2-1 .2-2.1.3-3.4.5-3.6.6-7.3 1.1-11.1 1.7-2.9.4-5.6.8-8.3 1.1-7.2.9-13.1 1.3-17.2 1.3-3.7 0-10.3-.5-18.9-1.4-1.8-.2-3.7-.4-5.6-.6-4-.5-8-.9-11.8-1.4-1.3-.2-2.6-.3-3.6-.5-.4 0-.7-.1-1-.1h-.3l1.3 1.5v-8zm-3 0v9.1l1.3.2h.4c.3 0 .6.1 1 .1 1.1.1 2.3.3 3.7.5a11776882415803102 11776882415803102 0 0 0 36.7 3.5c4.3 0 10.3-.5 17.6-1.4 2.7-.3 5.4-.7 8.3-1.1 3.8-.5 7.6-1.1 11.2-1.7 1.3-.2 2.4-.4 3.4-.5.4-.1.7-.1.9-.2.3 0 .3 0 .3-.1l1.2-.2v-8.4c0-7.9-19.2-13.4-43-13.4s-43 5.7-43 13.6zm-20-33.4h126v66.9h-126v-66.9z"/></defs><clipPath id="aM"><use xlink:href="#aL" overflow="visible"/></clipPath><g clip-path="url(#aM)"><defs><path id="aN" d="M686.6-582.2v7.8s31 4.1 41.5 4.1c13.2 0 41.5-4.8 41.5-4.8v-7.1c0-6.6-18.6-11.9-41.5-11.9s-41.5 5.3-41.5 11.9z"/></defs></g><defs><path id="aO" d="M686.6-582.2v7.8s31 4.1 41.5 4.1c13.2 0 41.5-4.8 41.5-4.8v-7.1c0-6.6-18.6-11.9-41.5-11.9s-41.5 5.3-41.5 11.9z"/></defs><defs><path id="aP" d="M728.1-584.3c22 0 40 5.2 40 10.4 0 5.3-18 10.4-40 10.4s-40-5.2-40-10.4 18-10.4 40-10.4zm0-3c-23.8 0-43 5.5-43 13.4s19.2 13.4 43 13.4 43-5.5 43-13.4-19.2-13.4-43-13.4zm-63-20h126v66.9h-126v-66.9z"/></defs><clipPath id="aQ"><use xlink:href="#aP" overflow="visible"/></clipPath><g clip-path="url(#aQ)"><defs><ellipse id="aR" cx="728.1" cy="-573.9" rx="41.5" ry="11.9"/></defs></g><defs><ellipse id="aS" cx="728.1" cy="-573.9" rx="41.5" ry="11.9"/></defs><defs><path id="aT" d="M715.5-572.3c0 .4-.2.7-.4.8.1 0 .2-.1.4-.2.6-.2 1.6-.4 2.8-.6 2.6-.4 6-.6 9.8-.6s7.2.2 9.8.6c1.2.2 2.2.4 2.8.6l.4.2c-.2-.1-.4-.4-.4-.8s.2-.7.4-.8c-.1 0-.2.1-.4.2-.6.2-1.6.4-2.8.6-2.6.4-6 .6-9.8.6s-7.2-.2-9.8-.6c-1.2-.2-2.2-.4-2.8-.6l-.4-.2c.2.1.4.3.4.8zm-3 0c0 2.6 6.2 3.5 15.6 3.5s15.6-.9 15.6-3.5-6.2-3.5-15.6-3.5-15.6.8-15.6 3.5zm-20-23.6h71.2v47.1h-71.2v-47.1z"/></defs><clipPath id="aU"><use xlink:href="#aT" overflow="visible"/></clipPath><g clip-path="url(#aU)"><defs><ellipse id="aV" cx="728.1" cy="-572.3" rx="14.1" ry="2"/></defs></g><defs><ellipse id="aW" cx="728.1" cy="-572.3" rx="14.1" ry="2"/></defs><defs><path id="aX" d="M720.9-555s-10.5 3.3-9.1 12.3c.9 5.5 5.6 8.1 5.6 13.5s-4.6 9.5-4.6 9.5 13.5-.3 14.6-9.5c1.1-9.2-6.7-11.3-8.3-15.6-1.4-4.3 1.8-10.2 1.8-10.2z"/></defs><defs><path id="aY" d="M736-551.7s-15.1 4.8-13 17.6c1.2 7.9 8 11.6 8 19.4 0 7.7-6.5 13.6-6.5 13.6s19.3-.5 20.9-13.6c1.6-13.2-9.6-16.1-11.8-22.3s2.4-14.7 2.4-14.7z"/></defs><defs><path id="aZ" d="M84.5-441.5l-1.4.4.4 1.4 30.4 99.5.4 1.4 1.4-.4 60.2-18.4 1.4-.4-.4-1.4-30.4-99.5-.4-1.4-1.4.4-60.2 18.4zm.9 2.9l60.2-18.4-1.9-1 30.4 99.5 1-1.9-60.2 18.4 1.9 1-30.4-99.5-1 1.9zm-27.3-15.7l101.4-31 43 140.6-101.4 31-43-140.6z"/></defs><clipPath id="ba"><use xlink:href="#aZ" overflow="visible"/></clipPath><g clip-path="url(#ba)"><defs><path id="bb" transform="rotate(162.999 130.3 -399.496)" d="M98.8-451.5h63v104h-63z"/></defs></g><defs><path id="bc" transform="rotate(162.999 130.3 -399.496)" d="M98.8-451.5h63v104h-63z"/></defs><defs><path id="bd" d="M119.8-464.5h-1.5v107h66v-107h-64.5zm0 3h63l-1.5-1.5v104l1.5-1.5h-63l1.5 1.5v-104l-1.5 1.5zm-21.5-23h106v147h-106v-147z"/></defs><clipPath id="be"><use xlink:href="#bd" overflow="visible"/></clipPath><g clip-path="url(#be)"><defs><path id="bf" d="M119.8-463h63v104h-63z"/></defs></g><defs><path id="bg" d="M119.8-463h63v104h-63z"/></defs><defs><path id="bh" d="M128.8-435h44v13h-44z"/></defs><defs><path id="bi" d="M128.8-425h44v13h-44z"/></defs><defs><path id="bj" d="M128.8-415h44v13h-44z"/></defs><defs><path id="bk" d="M128.8-405h44v14h-44z"/></defs><defs><path id="bl" d="M128.8-394h44v14h-44z"/></defs><defs><path id="bm" d="M128.8-383h44v14h-44z"/></defs><defs><path id="bn" d="M129.8-453h3v13h-3z"/></defs><defs><path id="bo" d="M134.8-453h3v13h-3z"/></defs><defs><path id="bp" d="M139.8-453h3v13h-3z"/></defs><defs><path id="bq" d="M144.8-453h3v13h-3z"/></defs><defs><path id="br" d="M149.8-453h3v13h-3z"/></defs><defs><path id="bs" d="M149.8-402h3v32h-3z"/></defs><defs><path id="bt" d="M154.8-453h3v13h-3z"/></defs><defs><path id="bu" d="M159.8-453h3v13h-3z"/></defs><defs><path id="bv" d="M164.8-453h3v13h-3z"/></defs><defs><path id="bw" d="M169.8-453h3v13h-3z"/></defs><defs><path id="bx" d="M87.8-438.8l53.3 34.1-23.9 61.7"/></defs><defs><path id="by" d="M389.5-464.5H388v107h66v-107h-64.5zm0 3h63L451-463v104l1.5-1.5h-63l1.5 1.5v-104l-1.5 1.5zm-21.5-23h106v147H368v-147z"/></defs><clipPath id="bz"><use xlink:href="#by" overflow="visible"/></clipPath><g clip-path="url(#bz)"><defs><path id="bA" d="M389.5-463h63v104h-63z"/></defs></g><defs><path id="bB" d="M389.5-463h63v104h-63z"/></defs><defs><path id="bC" d="M398.5-435h44v13h-44z"/></defs><defs><path id="bD" d="M398.5-425h44v13h-44z"/></defs><defs><path id="bE" d="M398.5-415h44v13h-44z"/></defs><defs><path id="bF" d="M398.5-405h44v14h-44z"/></defs><defs><path id="bG" d="M398.5-394h44v14h-44z"/></defs><defs><path id="bH" d="M398.5-383h44v14h-44z"/></defs><defs><path id="bI" d="M399.5-453h3v13h-3z"/></defs><defs><path id="bJ" d="M404.5-453h3v13h-3z"/></defs><defs><path id="bK" d="M409.5-453h3v13h-3z"/></defs><defs><path id="bL" d="M414.5-453h3v13h-3z"/></defs><defs><path id="bM" d="M419.5-453h3v13h-3z"/></defs><defs><path id="bN" d="M419.5-402h3v32h-3z"/></defs><defs><path id="bO" d="M424.5-453h3v13h-3z"/></defs><defs><path id="bP" d="M429.5-453h3v13h-3z"/></defs><defs><path id="bQ" d="M434.5-453h3v13h-3z"/></defs><defs><path id="bR" d="M439.5-453h3v13h-3z"/></defs><defs><path id="bS" d="M461.5-343.5c-16.3 0-29.5-13.2-29.5-29.5s13.2-29.5 29.5-29.5S491-389.3 491-373s-13.2 29.5-29.5 29.5zm0 3c17.9 0 32.5-14.6 32.5-32.5s-14.6-32.5-32.5-32.5S429-390.9 429-373s14.5 32.5 32.5 32.5zm-52.5-85h105v105H409v-105z"/></defs><clipPath id="bT"><use xlink:href="#bS" overflow="visible"/></clipPath><g clip-path="url(#bT)"><defs><circle id="bU" cx="461.5" cy="-373" r="31"/></defs></g><defs><circle id="bV" cx="461.5" cy="-373" r="31"/></defs><defs><path id="bW" d="M367.8-288.3h-1.5v90h134v-90H367.8zm0 3h131l-1.5-1.5v87l1.5-1.5h-131l1.5 1.5v-87l-1.5 1.5zm-21.5-23h174v130h-174v-130z"/></defs><clipPath id="bX"><use xlink:href="#bW" overflow="visible"/></clipPath><g clip-path="url(#bX)"><defs><path id="bY" d="M367.8-286.8h131v87h-131z"/></defs></g><defs><path id="bZ" d="M367.8-286.8h131v87h-131z"/></defs><defs><path id="ca" d="M372.8-283.3h-1.5v80h124v-80H372.8zm0 3h121l-1.5-1.5v77l1.5-1.5h-121l1.5 1.5v-77l-1.5 1.5zm-21.5-23h164v120h-164v-120z"/></defs><clipPath id="cb"><use xlink:href="#ca" overflow="visible"/></clipPath><g clip-path="url(#cb)"><defs><path id="cc" d="M372.8-281.8h121v77h-121z"/></defs></g><defs><path id="cd" d="M372.8-281.8h121v77h-121z"/></defs><defs><path id="ce" d="M437.8-268.3h-1.5v6h47v-6h-45.5zm0 3h44l-1.5-1.5v3l1.5-1.5h-44l1.5 1.5v-3l-1.5 1.5zm-21.5-23h87v46h-87v-46z"/></defs><clipPath id="cf"><use xlink:href="#ce" overflow="visible"/></clipPath><g clip-path="url(#cf)"><defs><path id="cg" d="M437.8-266.8h44v3h-44z"/></defs></g><defs><path id="ch" d="M437.8-266.8h44v3h-44z"/></defs><defs><path id="ci" d="M437.8-262.3h-1.5v6h47v-6h-45.5zm0 3h44l-1.5-1.5v3l1.5-1.5h-44l1.5 1.5v-3l-1.5 1.5zm-21.5-23h87v46h-87v-46z"/></defs><clipPath id="cj"><use xlink:href="#ci" overflow="visible"/></clipPath><g clip-path="url(#cj)"><defs><path id="ck" d="M437.8-260.8h44v3h-44z"/></defs></g><defs><path id="cl" d="M437.8-260.8h44v3h-44z"/></defs><defs><path id="cm" d="M437.8-256.3h-1.5v6h47v-6h-45.5zm0 3h44l-1.5-1.5v3l1.5-1.5h-44l1.5 1.5v-3l-1.5 1.5zm-21.5-23h87v46h-87v-46z"/></defs><clipPath id="cn"><use xlink:href="#cm" overflow="visible"/></clipPath><g clip-path="url(#cn)"><defs><path id="co" d="M437.8-254.8h44v3h-44z"/></defs></g><defs><path id="cp" d="M437.8-254.8h44v3h-44z"/></defs><defs><path id="cq" d="M437.8-250.3h-1.5v6h47v-6h-45.5zm0 3h44l-1.5-1.5v3l1.5-1.5h-44l1.5 1.5v-3l-1.5 1.5zm-21.5-23h87v46h-87v-46z"/></defs><clipPath id="cr"><use xlink:href="#cq" overflow="visible"/></clipPath><g clip-path="url(#cr)"><defs><path id="cs" d="M437.8-248.8h44v3h-44z"/></defs></g><defs><path id="ct" d="M437.8-248.8h44v3h-44z"/></defs><defs><path id="cu" d="M80-125.8h-1.2v71.5h131.7v-71.5H80zm0 2.4h129.3l-1.2-1.2v69.1l1.2-1.2H80l1.2 1.2v-69.1l-1.2 1.2zm-17.3-18.5h163.9v103.6H62.7v-103.6z"/></defs><clipPath id="cv"><use xlink:href="#cu" overflow="visible"/></clipPath><g clip-path="url(#cv)"><defs><path id="cw" d="M80-124.6h129.3v69.1H80z"/></defs></g><defs><path id="cx" d="M80-124.6h129.3v69.1H80z"/></defs><defs><path id="cy" d="M86.4-119.4h-1.2v57.8h118.9v-57.8h-19.5l-.3.2-6.5 4.8.7-.2h-66.7l.8.3-5.9-4.8-.3-.3h-20zm0 2.4h19.4l-.8-.3 5.9 4.8.3.3h67.5l.3-.2 6.5-4.8-.5.2h17.9l-1.2-1.2v55.4l1.2-1.2H86.4l1.2 1.2v-55.4l-1.2 1.2zm-17.3-18.5h151v90h-151v-90z"/></defs><clipPath id="cz"><use xlink:href="#cy" overflow="visible"/></clipPath><g clip-path="url(#cz)"><defs><path id="cA" d="M86.4-118.2h19.5l5.9 4.8h66.7l6.5-4.8h17.9v55.4H86.4z"/></defs></g><defs><path id="cB" d="M86.4-118.2h19.5l5.9 4.8h66.7l6.5-4.8h17.9v55.4H86.4z"/></defs><defs><path id="cC" d="M114.5-119h5.6v2.4h-5.6z"/></defs><defs><path id="cD" d="M170.8-119h5.6v2.4h-5.6z"/></defs><defs><path id="cE" d="M-217.5 107.4c-21.5 0-38.9-17.4-38.9-38.9s17.4-38.9 38.9-38.9 38.9 17.4 38.9 38.9-17.4 38.9-38.9 38.9zm0 3c23.2 0 41.9-18.8 41.9-41.9s-18.8-41.9-41.9-41.9c-23.2 0-41.9 18.8-41.9 41.9s18.7 41.9 41.9 41.9zm-62-103.8h123.9v123.9h-123.9V6.6z"/></defs><clipPath id="cF"><use xlink:href="#cE" overflow="visible"/></clipPath><g clip-path="url(#cF)"><defs><circle id="cG" cx="-217.5" cy="68.5" r="40.4"/></defs></g><defs><circle id="cH" cx="-217.5" cy="68.5" r="40.4"/></defs><defs><path id="cI" d="M-104.5 107.4c-21.5 0-38.9-17.4-38.9-38.9s17.4-38.9 38.9-38.9S-65.6 47-65.6 68.5s-17.4 38.9-38.9 38.9zm0 3c23.2 0 41.9-18.8 41.9-41.9s-18.8-41.9-41.9-41.9c-23.2 0-41.9 18.8-41.9 41.9s18.7 41.9 41.9 41.9zm-62-103.8h123.9v123.9h-123.9V6.6z"/></defs><clipPath id="cJ"><use xlink:href="#cI" overflow="visible"/></clipPath><g clip-path="url(#cJ)"><defs><circle id="cK" cx="-104.5" cy="68.5" r="40.4"/></defs></g><defs><circle id="cL" cx="-104.5" cy="68.5" r="40.4"/></defs><defs><path id="cM" d="M-229.8-103.8h-1.5v38h142v-25.1l-.4-.4-11.4-12-.4-.5h-128.3zm0 3h127.6l-1.1-.5 11.4 12-.4-1v23l1.5-1.5h-139l1.5 1.5v-35l-1.5 1.5zm-21.5-23h182v78h-182v-78z"/></defs><clipPath id="cN"><use xlink:href="#cM" overflow="visible"/></clipPath><g clip-path="url(#cN)"><defs><path id="cO" d="M-229.8-102.3h127.6l11.4 12v23h-139z"/></defs></g><defs><path id="cP" d="M-229.8-102.3h127.6l11.4 12v23h-139z"/></defs><defs><path id="cQ" d="M-196.8-52.4c-8 0-14.5-6.5-14.5-14.5s6.5-14.5 14.5-14.5 14.5 6.5 14.5 14.5-6.4 14.5-14.5 14.5zm0 3c9.7 0 17.5-7.8 17.5-17.5s-7.8-17.5-17.5-17.5-17.5 7.8-17.5 17.5 7.9 17.5 17.5 17.5zm-37.5-55h75v75h-75v-75z"/></defs><clipPath id="cR"><use xlink:href="#cQ" overflow="visible"/></clipPath><g clip-path="url(#cR)"><defs><circle id="cS" cx="-196.8" cy="-66.9" r="16"/></defs></g><defs><circle id="cT" cx="-196.8" cy="-66.9" r="16"/></defs><defs><path id="cU" d="M-196.8-59.4c-4.1 0-7.5-3.4-7.5-7.5s3.4-7.5 7.5-7.5 7.5 3.4 7.5 7.5c0 4.2-3.3 7.5-7.5 7.5zm0 3c5.8 0 10.5-4.7 10.5-10.5s-4.7-10.5-10.5-10.5-10.5 4.7-10.5 10.5 4.7 10.5 10.5 10.5zm-30.5-41h61v61h-61v-61z"/></defs><clipPath id="cV"><use xlink:href="#cU" overflow="visible"/></clipPath><g clip-path="url(#cV)"><defs><circle id="cW" cx="-196.8" cy="-66.9" r="9"/></defs></g><defs><circle id="cX" cx="-196.8" cy="-66.9" r="9"/></defs><defs><path id="cY" d="M-130.5-52.4c-8 0-14.5-6.5-14.5-14.5s6.5-14.5 14.5-14.5 14.5 6.5 14.5 14.5-6.5 14.5-14.5 14.5zm0 3c9.7 0 17.5-7.8 17.5-17.5s-7.8-17.5-17.5-17.5-17.5 7.9-17.5 17.5c0 9.7 7.8 17.5 17.5 17.5zm-37.5-55h75v75h-75v-75z"/></defs><clipPath id="cZ"><use xlink:href="#cY" overflow="visible"/></clipPath><g clip-path="url(#cZ)"><defs><circle id="da" cx="-130.5" cy="-66.9" r="16"/></defs></g><defs><circle id="db" cx="-130.5" cy="-66.9" r="16"/></defs><defs><path id="dc" d="M-130.3-107.2l-7.7-15.6h-27.2v15.6h34.9zm-75.2 0l7.4-15.6h27.2v15.6h-34.6zm-10.3 5.3l14.1-26.9h66.8l15.3 27.9-96.2-1z"/></defs><defs><path id="dd" d="M-130.5-59.4c-4.1 0-7.5-3.4-7.5-7.5s3.4-7.5 7.5-7.5 7.5 3.4 7.5 7.5c0 4.2-3.4 7.5-7.5 7.5zm0 3c5.8 0 10.5-4.7 10.5-10.5s-4.7-10.5-10.5-10.5-10.5 4.7-10.5 10.5 4.7 10.5 10.5 10.5zm-30.5-41h61v61h-61v-61z"/></defs><clipPath id="de"><use xlink:href="#dd" overflow="visible"/></clipPath><g clip-path="url(#de)"><defs><circle id="df" cx="-130.5" cy="-66.9" r="9"/></defs></g><defs><circle id="dg" cx="-130.5" cy="-66.9" r="9"/></defs><defs><path id="dh" d="M84.2-281.5h-1.5v84h108v-84H84.2zm0 3h105l-1.5-1.5v81l1.5-1.5h-105l1.5 1.5v-81l-1.5 1.5zm-21.5-23h148v124h-148v-124z"/></defs><clipPath id="di"><use xlink:href="#dh" overflow="visible"/></clipPath><g clip-path="url(#di)"><defs><path id="dj" d="M84.2-280h105v81h-105z"/></defs></g><defs><path id="dk" d="M84.2-280h105v81h-105z"/></defs><defs><path id="dl" d="M78.2-264.5H76l.9-2.1 9.1-22 .4-.9h100.9l.4.9 9.1 22 .9 2.1H78.2zm0-3h117l-1.4 2.1-9.1-22 1.4.9H87.3l1.4-.9-9.1 22-1.4-2.1zm-22.2 23h161.5v-65H56v65z"/></defs><clipPath id="dm"><use xlink:href="#dl" overflow="visible"/></clipPath><g clip-path="url(#dm)"><defs><path id="dn" d="M78.2-266h117l-9.1-22H87.3z"/></defs></g><defs><path id="do" d="M78.2-266h117l-9.1-22H87.3z"/></defs><defs><path id="dp" d="M163.2-297.5h-1.5v19h15v-19h-13.5zm0 3h12l-1.5-1.5v16l1.5-1.5h-12l1.5 1.5v-16l-1.5 1.5zm-21.5-23h55v59h-55v-59z"/></defs><clipPath id="dq"><use xlink:href="#dp" overflow="visible"/></clipPath><g clip-path="url(#dq)"><defs><path id="dr" d="M163.2-296h12v16h-12z"/></defs></g><defs><path id="ds" d="M163.2-296h12v16h-12z"/></defs><defs><path id="dt" d="M97.2-231.5h-1.5v34h24v-34H97.2zm0 3h21l-1.5-1.5v31l1.5-1.5h-21l1.5 1.5v-31l-1.5 1.5zm-21.5-23h64v74h-64v-74z"/></defs><clipPath id="du"><use xlink:href="#dt" overflow="visible"/></clipPath><g clip-path="url(#du)"><defs><path id="dv" d="M97.2-230h21v31h-21z"/></defs></g><defs><path id="dw" d="M97.2-230h21v31h-21z"/></defs><defs><path id="dx" d="M98.2-259.5h-1.5v22h22v-22H98.2zm0 3h19l-1.5-1.5v19l1.5-1.5h-19l1.5 1.5v-19l-1.5 1.5zm-21.5-23h62v62h-62v-62z"/></defs><clipPath id="dy"><use xlink:href="#dx" overflow="visible"/></clipPath><g clip-path="url(#dy)"><defs><path id="dz" d="M98.2-258h19v19h-19z"/></defs></g><defs><path id="dA" d="M98.2-258h19v19h-19z"/></defs><defs><path id="dB" d="M103.2-254.5h-1.5v12h12v-12h-10.5zm0 3h9l-1.5-1.5v9l1.5-1.5h-9l1.5 1.5v-9l-1.5 1.5zm-21.5-23h52v52h-52v-52z"/></defs><clipPath id="dC"><use xlink:href="#dB" overflow="visible"/></clipPath><g clip-path="url(#dC)"><defs><path id="dD" d="M103.2-253h9v9h-9z"/></defs></g><defs><path id="dE" d="M103.2-253h9v9h-9z"/></defs><defs><path id="dF" d="M128.2-259.5h-1.5v22h22v-22h-20.5zm0 3h19l-1.5-1.5v19l1.5-1.5h-19l1.5 1.5v-19l-1.5 1.5zm-21.5-23h62v62h-62v-62z"/></defs><clipPath id="dG"><use xlink:href="#dF" overflow="visible"/></clipPath><g clip-path="url(#dG)"><defs><path id="dH" d="M128.2-258h19v19h-19z"/></defs></g><defs><path id="dI" d="M128.2-258h19v19h-19z"/></defs><defs><path id="dJ" d="M157.2-259.5h-1.5v22h22v-22h-20.5zm0 3h19l-1.5-1.5v19l1.5-1.5h-19l1.5 1.5v-19l-1.5 1.5zm-21.5-23h62v62h-62v-62z"/></defs><clipPath id="dK"><use xlink:href="#dJ" overflow="visible"/></clipPath><g clip-path="url(#dK)"><defs><path id="dL" d="M157.2-258h19v19h-19z"/></defs></g><defs><path id="dM" d="M157.2-258h19v19h-19z"/></defs><defs><path id="dN" d="M128.2-231.5h-1.5v22h22v-22h-20.5zm0 3h19l-1.5-1.5v19l1.5-1.5h-19l1.5 1.5v-19l-1.5 1.5zm-21.5-23h62v62h-62v-62z"/></defs><clipPath id="dO"><use xlink:href="#dN" overflow="visible"/></clipPath><g clip-path="url(#dO)"><defs><path id="dP" d="M128.2-230h19v19h-19z"/></defs></g><defs><path id="dQ" d="M128.2-230h19v19h-19z"/></defs><defs><path id="dR" d="M157.2-231.5h-1.5v22h22v-22h-20.5zm0 3h19l-1.5-1.5v19l1.5-1.5h-19l1.5 1.5v-19l-1.5 1.5zm-21.5-23h62v62h-62v-62z"/></defs><clipPath id="dS"><use xlink:href="#dR" overflow="visible"/></clipPath><g clip-path="url(#dS)"><defs><path id="dT" d="M157.2-230h19v19h-19z"/></defs></g><defs><path id="dU" d="M157.2-230h19v19h-19z"/></defs><defs><path id="dV" d="M133.2-254.5h-1.5v12h12v-12h-10.5zm0 3h9l-1.5-1.5v9l1.5-1.5h-9l1.5 1.5v-9l-1.5 1.5zm-21.5-23h52v52h-52v-52z"/></defs><clipPath id="dW"><use xlink:href="#dV" overflow="visible"/></clipPath><g clip-path="url(#dW)"><defs><path id="dX" d="M133.2-253h9v9h-9z"/></defs></g><defs><path id="dY" d="M133.2-253h9v9h-9z"/></defs><defs><path id="dZ" d="M162.2-254.5h-1.5v12h12v-12h-10.5zm0 3h9l-1.5-1.5v9l1.5-1.5h-9l1.5 1.5v-9l-1.5 1.5zm-21.5-23h52v52h-52v-52z"/></defs><clipPath id="ea"><use xlink:href="#dZ" overflow="visible"/></clipPath><g clip-path="url(#ea)"><defs><path id="eb" d="M162.2-253h9v9h-9z"/></defs></g><defs><path id="ec" d="M162.2-253h9v9h-9z"/></defs><defs><path id="ed" d="M133.2-226.5h-1.5v12h12v-12h-10.5zm0 3h9l-1.5-1.5v9l1.5-1.5h-9l1.5 1.5v-9l-1.5 1.5zm-21.5-23h52v52h-52v-52z"/></defs><clipPath id="ee"><use xlink:href="#ed" overflow="visible"/></clipPath><g clip-path="url(#ee)"><defs><path id="ef" d="M133.2-225h9v9h-9z"/></defs></g><defs><path id="eg" d="M133.2-225h9v9h-9z"/></defs><defs><path id="eh" d="M162.2-226.5h-1.5v12h12v-12h-10.5zm0 3h9l-1.5-1.5v9l1.5-1.5h-9l1.5 1.5v-9l-1.5 1.5zm-21.5-23h52v52h-52v-52z"/></defs><clipPath id="ei"><use xlink:href="#eh" overflow="visible"/></clipPath><g clip-path="url(#ei)"><defs><path id="ej" d="M162.2-225h9v9h-9z"/></defs></g><defs><path id="ek" d="M162.2-225h9v9h-9z"/></defs><defs><path id="el" d="M83.8 32.9h-1.5v84h108v-84H83.8zm0 3h105l-1.5-1.5v81l1.5-1.5h-105l1.5 1.5v-81l-1.5 1.5zm-21.5-23h148v124h-148v-124z"/></defs><clipPath id="em"><use xlink:href="#el" overflow="visible"/></clipPath><g clip-path="url(#em)"><defs><path id="en" d="M83.8 34.4h105v81h-105z"/></defs><clipPath id="eo"><use xlink:href="#en" overflow="visible"/></clipPath><g clip-path="url(#eo)"><defs><path id="ep" d="M-797.2-464.6h1121v1030h-1121z"/></defs><clipPath id="eq"><use xlink:href="#ep" overflow="visible"/></clipPath><path clip-path="url(#eq)" fill-rule="evenodd" clip-rule="evenodd" fill="#FFF" d="M83.8 34.4h105v81h-105z"/></g></g><defs><path id="er" d="M83.8 34.4h105v81h-105z"/></defs><clipPath id="es"><use xlink:href="#er" overflow="visible"/></clipPath><g clip-path="url(#es)"><defs><path id="et" d="M-797.2-464.6h1121v1030h-1121z"/></defs><clipPath id="eu"><use xlink:href="#et" overflow="visible"/></clipPath><path clip-path="url(#eu)" fill="none" stroke="#0F1F2D" stroke-width="6" stroke-linecap="round" stroke-miterlimit="10" d="M83.8 34.4h105v81h-105z"/></g><defs><path id="ev" d="M77.8 49.9h-2.2l.9-2.1 9.1-22 .4-.9h100.9l.4.9 9.1 22 .9 2.1H77.8zm0-3h117l-1.4 2.1-9.1-22 1.4.9H86.9l1.4-.9-9.1 22-1.4-2.1zm-22.2 23H217v-65H55.6v65z"/></defs><clipPath id="ew"><use xlink:href="#ev" overflow="visible"/></clipPath><g clip-path="url(#ew)"><defs><path id="ex" d="M77.8 48.4h117l-9.1-22H86.9z"/></defs><clipPath id="ey"><use xlink:href="#ex" overflow="visible"/></clipPath><g clip-path="url(#ey)"><defs><path id="ez" d="M-797.2-464.6h1121v1030h-1121z"/></defs><clipPath id="eA"><use xlink:href="#ez" overflow="visible"/></clipPath><path clip-path="url(#eA)" fill-rule="evenodd" clip-rule="evenodd" fill="#FFF" d="M77.8 48.4h117l-9.1-22H86.9z"/></g></g><defs><path id="eB" d="M77.8 48.4h117l-9.1-22H86.9z"/></defs><clipPath id="eC"><use xlink:href="#eB" overflow="visible"/></clipPath><g clip-path="url(#eC)"><defs><path id="eD" d="M-797.2-464.6h1121v1030h-1121z"/></defs><clipPath id="eE"><use xlink:href="#eD" overflow="visible"/></clipPath><path clip-path="url(#eE)" fill="none" stroke="#0F1F2D" stroke-width="6" stroke-linecap="round" stroke-miterlimit="10" d="M77.8 48.4h117l-9.1-22H86.9z"/></g><defs><path id="eF" d="M162.8 16.9h-1.5v19h15v-19h-13.5zm0 3h12l-1.5-1.5v16l1.5-1.5h-12l1.5 1.5v-16l-1.5 1.5zm-21.5-23h55v59h-55v-59z"/></defs><clipPath id="eG"><use xlink:href="#eF" overflow="visible"/></clipPath><g clip-path="url(#eG)"><defs><path id="eH" d="M162.8 18.4h12v16h-12z"/></defs><clipPath id="eI"><use xlink:href="#eH" overflow="visible"/></clipPath><g clip-path="url(#eI)"><defs><path id="eJ" d="M-797.2-464.6h1121v1030h-1121z"/></defs><clipPath id="eK"><use xlink:href="#eJ" overflow="visible"/></clipPath><path clip-path="url(#eK)" fill-rule="evenodd" clip-rule="evenodd" fill="#FFF" d="M162.8 18.4h12v16h-12z"/></g></g><defs><path id="eL" d="M162.8 18.4h12v16h-12z"/></defs><clipPath id="eM"><use xlink:href="#eL" overflow="visible"/></clipPath><g clip-path="url(#eM)"><defs><path id="eN" d="M-797.2-464.6h1121v1030h-1121z"/></defs><clipPath id="eO"><use xlink:href="#eN" overflow="visible"/></clipPath><path clip-path="url(#eO)" fill="none" stroke="#0F1F2D" stroke-width="6" stroke-linecap="round" stroke-miterlimit="10" d="M162.8 18.4h12v16h-12z"/></g><defs><path id="eP" d="M96.8 82.9h-1.5v34h24v-34H96.8zm0 3h21l-1.5-1.5v31l1.5-1.5h-21l1.5 1.5v-31l-1.5 1.5zm-21.5-23h64v74h-64v-74z"/></defs><clipPath id="eQ"><use xlink:href="#eP" overflow="visible"/></clipPath><g clip-path="url(#eQ)"><defs><path id="eR" d="M96.8 84.4h21v31h-21z"/></defs><clipPath id="eS"><use xlink:href="#eR" overflow="visible"/></clipPath><g clip-path="url(#eS)"><defs><path id="eT" d="M-797.2-464.6h1121v1030h-1121z"/></defs><clipPath id="eU"><use xlink:href="#eT" overflow="visible"/></clipPath><path clip-path="url(#eU)" fill-rule="evenodd" clip-rule="evenodd" fill="#FFF" d="M96.8 84.4h21v31h-21z"/></g></g><defs><path id="eV" d="M96.8 84.4h21v31h-21z"/></defs><clipPath id="eW"><use xlink:href="#eV" overflow="visible"/></clipPath><g clip-path="url(#eW)"><defs><path id="eX" d="M-797.2-464.6h1121v1030h-1121z"/></defs><clipPath id="eY"><use xlink:href="#eX" overflow="visible"/></clipPath><path clip-path="url(#eY)" fill="none" stroke="#0F1F2D" stroke-width="6" stroke-linecap="round" stroke-miterlimit="10" d="M96.8 84.4h21v31h-21z"/></g><defs><path id="eZ" d="M97.8 54.9h-1.5v22h22v-22H97.8zm0 3h19l-1.5-1.5v19l1.5-1.5h-19l1.5 1.5v-19l-1.5 1.5zm-21.5-23h62v62h-62v-62z"/></defs><clipPath id="fa"><use xlink:href="#eZ" overflow="visible"/></clipPath><g clip-path="url(#fa)"><defs><path id="fb" d="M97.8 56.4h19v19h-19z"/></defs><clipPath id="fc"><use xlink:href="#fb" overflow="visible"/></clipPath><g clip-path="url(#fc)"><defs><path id="fd" d="M-797.2-464.6h1121v1030h-1121z"/></defs><clipPath id="fe"><use xlink:href="#fd" overflow="visible"/></clipPath><path clip-path="url(#fe)" fill-rule="evenodd" clip-rule="evenodd" fill="#FFF" d="M97.8 56.4h19v19h-19z"/></g></g><defs><path id="ff" d="M97.8 56.4h19v19h-19z"/></defs><clipPath id="fg"><use xlink:href="#ff" overflow="visible"/></clipPath><g clip-path="url(#fg)"><defs><path id="fh" d="M-797.2-464.6h1121v1030h-1121z"/></defs><clipPath id="fi"><use xlink:href="#fh" overflow="visible"/></clipPath><path clip-path="url(#fi)" fill="none" stroke="#0F1F2D" stroke-width="6" stroke-linecap="round" stroke-miterlimit="10" d="M97.8 56.4h19v19h-19z"/></g><defs><path id="fj" d="M102.8 59.9h-1.5v12h12v-12h-10.5zm0 3h9l-1.5-1.5v9l1.5-1.5h-9l1.5 1.5v-9l-1.5 1.5zm-21.5-23h52v52h-52v-52z"/></defs><clipPath id="fk"><use xlink:href="#fj" overflow="visible"/></clipPath><g clip-path="url(#fk)"><defs><path id="fl" d="M102.8 61.4h9v9h-9z"/></defs><clipPath id="fm"><use xlink:href="#fl" overflow="visible"/></clipPath><g clip-path="url(#fm)"><defs><path id="fn" d="M-797.2-464.6h1121v1030h-1121z"/></defs><clipPath id="fo"><use xlink:href="#fn" overflow="visible"/></clipPath><path clip-path="url(#fo)" fill-rule="evenodd" clip-rule="evenodd" fill="#FFF" d="M102.8 61.4h9v9h-9z"/></g></g><g><defs><path id="fp" d="M102.8 61.4h9v9h-9z"/></defs><clipPath id="fq"><use xlink:href="#fp" overflow="visible"/></clipPath><g clip-path="url(#fq)"><defs><path id="fr" d="M-797.2-464.6h1121v1030h-1121z"/></defs><clipPath id="fs"><use xlink:href="#fr" overflow="visible"/></clipPath><path clip-path="url(#fs)" fill="none" stroke="#0F1F2D" stroke-width="6" stroke-linecap="round" stroke-miterlimit="10" d="M102.8 61.4h9v9h-9z"/></g></g><g><defs><path id="ft" d="M127.8 54.9h-1.5v22h22v-22h-20.5zm0 3h19l-1.5-1.5v19l1.5-1.5h-19l1.5 1.5v-19l-1.5 1.5zm-21.5-23h62v62h-62v-62z"/></defs><clipPath id="fu"><use xlink:href="#ft" overflow="visible"/></clipPath><g clip-path="url(#fu)"><defs><path id="fv" d="M127.8 56.4h19v19h-19z"/></defs><clipPath id="fw"><use xlink:href="#fv" overflow="visible"/></clipPath><g clip-path="url(#fw)"><defs><path id="fx" d="M-797.2-464.6h1121v1030h-1121z"/></defs><clipPath id="fy"><use xlink:href="#fx" overflow="visible"/></clipPath><path clip-path="url(#fy)" fill-rule="evenodd" clip-rule="evenodd" fill="#FFF" d="M127.8 56.4h19v19h-19z"/></g></g></g><g><defs><path id="fz" d="M127.8 56.4h19v19h-19z"/></defs><clipPath id="fA"><use xlink:href="#fz" overflow="visible"/></clipPath><g clip-path="url(#fA)"><defs><path id="fB" d="M-797.2-464.6h1121v1030h-1121z"/></defs><clipPath id="fC"><use xlink:href="#fB" overflow="visible"/></clipPath><path clip-path="url(#fC)" fill="none" stroke="#0F1F2D" stroke-width="6" stroke-linecap="round" stroke-miterlimit="10" d="M127.8 56.4h19v19h-19z"/></g></g><g><defs><path id="fD" d="M156.8 54.9h-1.5v22h22v-22h-20.5zm0 3h19l-1.5-1.5v19l1.5-1.5h-19l1.5 1.5v-19l-1.5 1.5zm-21.5-23h62v62h-62v-62z"/></defs><clipPath id="fE"><use xlink:href="#fD" overflow="visible"/></clipPath><g clip-path="url(#fE)"><defs><path id="fF" d="M156.8 56.4h19v19h-19z"/></defs><clipPath id="fG"><use xlink:href="#fF" overflow="visible"/></clipPath><g clip-path="url(#fG)"><defs><path id="fH" d="M-797.2-464.6h1121v1030h-1121z"/></defs><clipPath id="fI"><use xlink:href="#fH" overflow="visible"/></clipPath><path clip-path="url(#fI)" fill-rule="evenodd" clip-rule="evenodd" fill="#FFF" d="M156.8 56.4h19v19h-19z"/></g></g></g><g><defs><path id="fJ" d="M156.8 56.4h19v19h-19z"/></defs><clipPath id="fK"><use xlink:href="#fJ" overflow="visible"/></clipPath><g clip-path="url(#fK)"><defs><path id="fL" d="M-797.2-464.6h1121v1030h-1121z"/></defs><clipPath id="fM"><use xlink:href="#fL" overflow="visible"/></clipPath><path clip-path="url(#fM)" fill="none" stroke="#0F1F2D" stroke-width="6" stroke-linecap="round" stroke-miterlimit="10" d="M156.8 56.4h19v19h-19z"/></g></g><g><defs><path id="fN" d="M127.8 82.9h-1.5v22h22v-22h-20.5zm0 3h19l-1.5-1.5v19l1.5-1.5h-19l1.5 1.5v-19l-1.5 1.5zm-21.5-23h62v62h-62v-62z"/></defs><clipPath id="fO"><use xlink:href="#fN" overflow="visible"/></clipPath><g clip-path="url(#fO)"><defs><path id="fP" d="M127.8 84.4h19v19h-19z"/></defs><clipPath id="fQ"><use xlink:href="#fP" overflow="visible"/></clipPath><g clip-path="url(#fQ)"><defs><path id="fR" d="M-797.2-464.6h1121v1030h-1121z"/></defs><clipPath id="fS"><use xlink:href="#fR" overflow="visible"/></clipPath><path clip-path="url(#fS)" fill-rule="evenodd" clip-rule="evenodd" fill="#FFF" d="M127.8 84.4h19v19h-19z"/></g></g></g><g><defs><path id="fT" d="M127.8 84.4h19v19h-19z"/></defs><clipPath id="fU"><use xlink:href="#fT" overflow="visible"/></clipPath><g clip-path="url(#fU)"><defs><path id="fV" d="M-797.2-464.6h1121v1030h-1121z"/></defs><clipPath id="fW"><use xlink:href="#fV" overflow="visible"/></clipPath><path clip-path="url(#fW)" fill="none" stroke="#0F1F2D" stroke-width="6" stroke-linecap="round" stroke-miterlimit="10" d="M127.8 84.4h19v19h-19z"/></g></g><g><defs><path id="fX" d="M156.8 82.9h-1.5v22h22v-22h-20.5zm0 3h19l-1.5-1.5v19l1.5-1.5h-19l1.5 1.5v-19l-1.5 1.5zm-21.5-23h62v62h-62v-62z"/></defs><clipPath id="fY"><use xlink:href="#fX" overflow="visible"/></clipPath><g clip-path="url(#fY)"><defs><path id="fZ" d="M156.8 84.4h19v19h-19z"/></defs><clipPath id="ga"><use xlink:href="#fZ" overflow="visible"/></clipPath><g clip-path="url(#ga)"><defs><path id="gb" d="M-797.2-464.6h1121v1030h-1121z"/></defs><clipPath id="gc"><use xlink:href="#gb" overflow="visible"/></clipPath><path clip-path="url(#gc)" fill-rule="evenodd" clip-rule="evenodd" fill="#FFF" d="M156.8 84.4h19v19h-19z"/></g></g></g><g><defs><path id="gd" d="M156.8 84.4h19v19h-19z"/></defs><clipPath id="ge"><use xlink:href="#gd" overflow="visible"/></clipPath><g clip-path="url(#ge)"><defs><path id="gf" d="M-797.2-464.6h1121v1030h-1121z"/></defs><clipPath id="gg"><use xlink:href="#gf" overflow="visible"/></clipPath><path clip-path="url(#gg)" fill="none" stroke="#0F1F2D" stroke-width="6" stroke-linecap="round" stroke-miterlimit="10" d="M156.8 84.4h19v19h-19z"/></g></g><g><defs><path id="gh" d="M132.8 59.9h-1.5v12h12v-12h-10.5zm0 3h9l-1.5-1.5v9l1.5-1.5h-9l1.5 1.5v-9l-1.5 1.5zm-21.5-23h52v52h-52v-52z"/></defs><clipPath id="gi"><use xlink:href="#gh" overflow="visible"/></clipPath><g clip-path="url(#gi)"><defs><path id="gj" d="M132.8 61.4h9v9h-9z"/></defs><clipPath id="gk"><use xlink:href="#gj" overflow="visible"/></clipPath><g clip-path="url(#gk)"><defs><path id="gl" d="M-797.2-464.6h1121v1030h-1121z"/></defs><clipPath id="gm"><use xlink:href="#gl" overflow="visible"/></clipPath><path clip-path="url(#gm)" fill-rule="evenodd" clip-rule="evenodd" fill="#FFF" d="M132.8 61.4h9v9h-9z"/></g></g></g><g><defs><path id="gn" d="M132.8 61.4h9v9h-9z"/></defs><clipPath id="go"><use xlink:href="#gn" overflow="visible"/></clipPath><g clip-path="url(#go)"><defs><path id="gp" d="M-797.2-464.6h1121v1030h-1121z"/></defs><clipPath id="gq"><use xlink:href="#gp" overflow="visible"/></clipPath><path clip-path="url(#gq)" fill="none" stroke="#0F1F2D" stroke-width="6" stroke-linecap="round" stroke-miterlimit="10" d="M132.8 61.4h9v9h-9z"/></g></g><g><defs><path id="gr" d="M161.8 59.9h-1.5v12h12v-12h-10.5zm0 3h9l-1.5-1.5v9l1.5-1.5h-9l1.5 1.5v-9l-1.5 1.5zm-21.5-23h52v52h-52v-52z"/></defs><clipPath id="gs"><use xlink:href="#gr" overflow="visible"/></clipPath><g clip-path="url(#gs)"><defs><path id="gt" d="M161.8 61.4h9v9h-9z"/></defs><clipPath id="gu"><use xlink:href="#gt" overflow="visible"/></clipPath><g clip-path="url(#gu)"><defs><path id="gv" d="M-797.2-464.6h1121v1030h-1121z"/></defs><clipPath id="gw"><use xlink:href="#gv" overflow="visible"/></clipPath><path clip-path="url(#gw)" fill-rule="evenodd" clip-rule="evenodd" fill="#FFF" d="M161.8 61.4h9v9h-9z"/></g></g></g><g><defs><path id="gx" d="M161.8 61.4h9v9h-9z"/></defs><clipPath id="gy"><use xlink:href="#gx" overflow="visible"/></clipPath><g clip-path="url(#gy)"><defs><path id="gz" d="M-797.2-464.6h1121v1030h-1121z"/></defs><clipPath id="gA"><use xlink:href="#gz" overflow="visible"/></clipPath><path clip-path="url(#gA)" fill="none" stroke="#0F1F2D" stroke-width="6" stroke-linecap="round" stroke-miterlimit="10" d="M161.8 61.4h9v9h-9z"/></g></g><g><defs><path id="gB" d="M132.8 87.9h-1.5v12h12v-12h-10.5zm0 3h9l-1.5-1.5v9l1.5-1.5h-9l1.5 1.5v-9l-1.5 1.5zm-21.5-23h52v52h-52v-52z"/></defs><clipPath id="gC"><use xlink:href="#gB" overflow="visible"/></clipPath><g clip-path="url(#gC)"><defs><path id="gD" d="M132.8 89.4h9v9h-9z"/></defs><clipPath id="gE"><use xlink:href="#gD" overflow="visible"/></clipPath><g clip-path="url(#gE)"><defs><path id="gF" d="M-797.2-464.6h1121v1030h-1121z"/></defs><clipPath id="gG"><use xlink:href="#gF" overflow="visible"/></clipPath><path clip-path="url(#gG)" fill-rule="evenodd" clip-rule="evenodd" fill="#FFF" d="M132.8 89.4h9v9h-9z"/></g></g></g><g><defs><path id="gH" d="M132.8 89.4h9v9h-9z"/></defs><clipPath id="gI"><use xlink:href="#gH" overflow="visible"/></clipPath><g clip-path="url(#gI)"><defs><path id="gJ" d="M-797.2-464.6h1121v1030h-1121z"/></defs><clipPath id="gK"><use xlink:href="#gJ" overflow="visible"/></clipPath><path clip-path="url(#gK)" fill="none" stroke="#0F1F2D" stroke-width="6" stroke-linecap="round" stroke-miterlimit="10" d="M132.8 89.4h9v9h-9z"/></g></g><g><defs><path id="gL" d="M161.8 87.9h-1.5v12h12v-12h-10.5zm0 3h9l-1.5-1.5v9l1.5-1.5h-9l1.5 1.5v-9l-1.5 1.5zm-21.5-23h52v52h-52v-52z"/></defs><clipPath id="gM"><use xlink:href="#gL" overflow="visible"/></clipPath><g clip-path="url(#gM)"><defs><path id="gN" d="M161.8 89.4h9v9h-9z"/></defs><clipPath id="gO"><use xlink:href="#gN" overflow="visible"/></clipPath><g clip-path="url(#gO)"><defs><path id="gP" d="M-797.2-464.6h1121v1030h-1121z"/></defs><clipPath id="gQ"><use xlink:href="#gP" overflow="visible"/></clipPath><path clip-path="url(#gQ)" fill-rule="evenodd" clip-rule="evenodd" fill="#FFF" d="M161.8 89.4h9v9h-9z"/></g></g></g><g><defs><path id="gR" d="M161.8 89.4h9v9h-9z"/></defs><clipPath id="gS"><use xlink:href="#gR" overflow="visible"/></clipPath><g clip-path="url(#gS)"><defs><path id="gT" d="M-797.2-464.6h1121v1030h-1121z"/></defs><clipPath id="gU"><use xlink:href="#gT" overflow="visible"/></clipPath><path clip-path="url(#gU)" fill="none" stroke="#0F1F2D" stroke-width="6" stroke-linecap="round" stroke-miterlimit="10" d="M161.8 89.4h9v9h-9z"/></g></g><circle fill="#FFF" stroke="#0F1F2D" stroke-width="3" stroke-linecap="round" stroke-miterlimit="10" cx="180.4" cy="105.5" r="18.5"/><path fill="#FFF" stroke="#0F1F2D" stroke-width="3" stroke-linecap="round" stroke-miterlimit="10" d="M187.1 102.8c0 3.7-6.8 12.8-6.8 12.8s-6.8-9-6.8-12.8c0-3.7 3-6.8 6.8-6.8s6.8 3.1 6.8 6.8z"/><circle fill="#0F1F2D" cx="180.4" cy="102.1" r="2.2"/><g><defs><path id="gV" d="M138 271.3c-27.1 0-49-21.9-49-49s21.9-49 49-49 49 21.9 49 49c0 27-21.9 49-49 49zm0 3c28.7 0 52-23.3 52-52s-23.3-52-52-52-52 23.3-52 52 23.3 52 52 52zm-72-124h144v144H66v-144z"/></defs><clipPath id="gW"><use xlink:href="#gV" overflow="visible"/></clipPath><g clip-path="url(#gW)"><defs><circle id="gX" cx="138" cy="222.3" r="50.5"/></defs></g></g><g><defs><circle id="gY" cx="138" cy="222.3" r="50.5"/></defs></g><g><defs><circle id="gZ" cx="138" cy="222.3" r="43.5"/></defs></g><g><defs><path id="ha" d="M138.7 438.5c-24.6 0-44.6-20-44.6-44.6s20-44.6 44.6-44.6 44.6 20 44.6 44.6-20 44.6-44.6 44.6zm0 2.7c26.1 0 47.3-21.2 47.3-47.3s-21.2-47.3-47.3-47.3-47.3 21.2-47.3 47.3 21.2 47.3 47.3 47.3zM73.2 328.4h131v131h-131v-131z"/></defs><clipPath id="hb"><use xlink:href="#ha" overflow="visible"/></clipPath><g clip-path="url(#hb)"><defs><circle id="hc" cx="138.7" cy="393.9" r="45.9"/></defs></g></g><g><defs><circle id="hd" cx="138.7" cy="393.9" r="45.9"/></defs></g><g><defs><circle id="he" cx="138.7" cy="393.9" r="39.6"/></defs></g><g><defs><path id="hf" d="M677.5 505.2H676v84h108v-84H677.5zm0 3h105l-1.5-1.5v81l1.5-1.5h-105l1.5 1.5v-81l-1.5 1.5zm-21.5-23h148v124H656v-124z"/></defs><clipPath id="hg"><use xlink:href="#hf" overflow="visible"/></clipPath><g clip-path="url(#hg)"><defs><path id="hh" d="M677.5 506.7h105v81h-105z"/></defs></g></g><g><defs><path id="hi" d="M677.5 506.7h105v81h-105z"/></defs></g><g><defs><path id="hj" d="M671.5 522.2h-2.2l.9-2.1 9.1-22 .4-.9h100.9l.4.9 9.1 22 .9 2.1H671.5zm0-3h117l-1.4 2.1-9.1-22 1.4.9h-98.9l1.4-.9-9.1 22-1.3-2.1zm-22.2 23h161.5v-65H649.3v65z"/></defs><clipPath id="hk"><use xlink:href="#hj" overflow="visible"/></clipPath><g clip-path="url(#hk)"><defs><path id="hl" d="M671.5 520.7h117l-9.1-22h-98.8z"/></defs></g></g><g><defs><path id="hm" d="M671.5 520.7h117l-9.1-22h-98.8z"/></defs></g><g><defs><path id="hn" d="M756.5 489.2H755v19h15v-19h-13.5zm0 3h12l-1.5-1.5v16l1.5-1.5h-12l1.5 1.5v-16l-1.5 1.5zm-21.5-23h55v59h-55v-59z"/></defs><clipPath id="ho"><use xlink:href="#hn" overflow="visible"/></clipPath><g clip-path="url(#ho)"><defs><path id="hp" d="M756.5 490.7h12v16h-12z"/></defs></g></g><g><defs><path id="hq" d="M756.5 490.7h12v16h-12z"/></defs></g><g><defs><path id="hr" d="M690.5 555.2H689v34h24v-34h-22.5zm0 3h21l-1.5-1.5v31l1.5-1.5h-21l1.5 1.5v-31l-1.5 1.5zm-21.5-23h64v74h-64v-74z"/></defs><clipPath id="hs"><use xlink:href="#hr" overflow="visible"/></clipPath><g clip-path="url(#hs)"><defs><path id="ht" d="M690.5 556.7h21v31h-21z"/></defs></g></g><g><defs><path id="hu" d="M690.5 556.7h21v31h-21z"/></defs></g><g><defs><path id="hv" d="M691.5 527.2H690v22h22v-22h-20.5zm0 3h19l-1.5-1.5v19l1.5-1.5h-19l1.5 1.5v-19l-1.5 1.5zm-21.5-23h62v62h-62v-62z"/></defs><clipPath id="hw"><use xlink:href="#hv" overflow="visible"/></clipPath><g clip-path="url(#hw)"><defs><path id="hx" d="M691.5 528.7h19v19h-19z"/></defs></g></g><g><defs><path id="hy" d="M691.5 528.7h19v19h-19z"/></defs></g><g><defs><path id="hz" d="M696.5 532.2H695v12h12v-12h-10.5zm0 3h9l-1.5-1.5v9l1.5-1.5h-9l1.5 1.5v-9l-1.5 1.5zm-21.5-23h52v52h-52v-52z"/></defs><clipPath id="hA"><use xlink:href="#hz" overflow="visible"/></clipPath><g clip-path="url(#hA)"><defs><path id="hB" d="M696.5 533.7h9v9h-9z"/></defs></g></g><g><defs><path id="hC" d="M696.5 533.7h9v9h-9z"/></defs></g><g><defs><path id="hD" d="M721.5 527.2H720v22h22v-22h-20.5zm0 3h19l-1.5-1.5v19l1.5-1.5h-19l1.5 1.5v-19l-1.5 1.5zm-21.5-23h62v62h-62v-62z"/></defs><clipPath id="hE"><use xlink:href="#hD" overflow="visible"/></clipPath><g clip-path="url(#hE)"><defs><path id="hF" d="M721.5 528.7h19v19h-19z"/></defs></g></g><g><defs><path id="hG" d="M721.5 528.7h19v19h-19z"/></defs></g><g><defs><path id="hH" d="M750.5 527.2H749v22h22v-22h-20.5zm0 3h19l-1.5-1.5v19l1.5-1.5h-19l1.5 1.5v-19l-1.5 1.5zm-21.5-23h62v62h-62v-62z"/></defs><clipPath id="hI"><use xlink:href="#hH" overflow="visible"/></clipPath><g clip-path="url(#hI)"><defs><path id="hJ" d="M750.5 528.7h19v19h-19z"/></defs></g></g><g><defs><path id="hK" d="M750.5 528.7h19v19h-19z"/></defs></g><g><defs><path id="hL" d="M721.5 555.2H720v22h22v-22h-20.5zm0 3h19l-1.5-1.5v19l1.5-1.5h-19l1.5 1.5v-19l-1.5 1.5zm-21.5-23h62v62h-62v-62z"/></defs><clipPath id="hM"><use xlink:href="#hL" overflow="visible"/></clipPath><g clip-path="url(#hM)"><defs><path id="hN" d="M721.5 556.7h19v19h-19z"/></defs></g></g><g><defs><path id="hO" d="M721.5 556.7h19v19h-19z"/></defs></g><g><defs><path id="hP" d="M750.5 555.2H749v22h22v-22h-20.5zm0 3h19l-1.5-1.5v19l1.5-1.5h-19l1.5 1.5v-19l-1.5 1.5zm-21.5-23h62v62h-62v-62z"/></defs><clipPath id="hQ"><use xlink:href="#hP" overflow="visible"/></clipPath><g clip-path="url(#hQ)"><defs><path id="hR" d="M750.5 556.7h19v19h-19z"/></defs></g></g><g><defs><path id="hS" d="M750.5 556.7h19v19h-19z"/></defs></g><g><defs><path id="hT" d="M726.5 532.2H725v12h12v-12h-10.5zm0 3h9l-1.5-1.5v9l1.5-1.5h-9l1.5 1.5v-9l-1.5 1.5zm-21.5-23h52v52h-52v-52z"/></defs><clipPath id="hU"><use xlink:href="#hT" overflow="visible"/></clipPath><g clip-path="url(#hU)"><defs><path id="hV" d="M726.5 533.7h9v9h-9z"/></defs></g></g><g><defs><path id="hW" d="M726.5 533.7h9v9h-9z"/></defs></g><g><defs><path id="hX" d="M755.5 532.2H754v12h12v-12h-10.5zm0 3h9l-1.5-1.5v9l1.5-1.5h-9l1.5 1.5v-9l-1.5 1.5zm-21.5-23h52v52h-52v-52z"/></defs><clipPath id="hY"><use xlink:href="#hX" overflow="visible"/></clipPath><g clip-path="url(#hY)"><defs><path id="hZ" d="M755.5 533.7h9v9h-9z"/></defs></g></g><g><defs><path id="ia" d="M755.5 533.7h9v9h-9z"/></defs></g><g><defs><path id="ib" d="M726.5 560.2H725v12h12v-12h-10.5zm0 3h9l-1.5-1.5v9l1.5-1.5h-9l1.5 1.5v-9l-1.5 1.5zm-21.5-23h52v52h-52v-52z"/></defs><clipPath id="ic"><use xlink:href="#ib" overflow="visible"/></clipPath><g clip-path="url(#ic)"><defs><path id="id" d="M726.5 561.7h9v9h-9z"/></defs></g></g><g><defs><path id="ie" d="M726.5 561.7h9v9h-9z"/></defs></g><g><defs><path id="if" d="M755.5 560.2H754v12h12v-12h-10.5zm0 3h9l-1.5-1.5v9l1.5-1.5h-9l1.5 1.5v-9l-1.5 1.5zm-21.5-23h52v52h-52v-52z"/></defs><clipPath id="ig"><use xlink:href="#if" overflow="visible"/></clipPath><g clip-path="url(#ig)"><defs><path id="ih" d="M755.5 561.7h9v9h-9z"/></defs></g></g><g><defs><path id="ii" d="M755.5 561.7h9v9h-9z"/></defs></g></svg>