<svg id="Layer_1" data-name="Layer 1" xmlns="http://www.w3.org/2000/svg" viewBox="0 0 276 137"><defs><style>.cls-1,.cls-12,.cls-2,.cls-3,.cls-40{fill:none}.cls-2{clip-rule:evenodd}.cls-15,.cls-3{fill-rule:evenodd}.cls-4{clip-path:url(#clip-path)}.cls-5{clip-path:url(#clip-path-2)}.cls-6{clip-path:url(#clip-path-3)}.cls-7{clip-path:url(#clip-path-4)}.cls-8{clip-path:url(#clip-path-5)}.cls-9{clip-path:url(#clip-path-6)}.cls-10{clip-path:url(#clip-path-7)}.cls-11,.cls-15{fill:#fff}.cls-12{stroke:#0f1f2d;stroke-miterlimit:10;stroke-width:6px}.cls-12,.cls-40{stroke-linecap:round}.cls-13{clip-path:url(#clip-path-10)}.cls-14{clip-path:url(#clip-path-11)}.cls-16{clip-path:url(#clip-path-15)}.cls-17{clip-path:url(#clip-path-16)}.cls-18{clip-path:url(#clip-path-20)}.cls-19{clip-path:url(#clip-path-21)}.cls-20{clip-path:url(#clip-path-25)}.cls-21{clip-path:url(#clip-path-26)}.cls-22{clip-path:url(#clip-path-30)}.cls-23{clip-path:url(#clip-path-31)}.cls-24{clip-path:url(#clip-path-35)}.cls-25{clip-path:url(#clip-path-36)}.cls-26{clip-path:url(#clip-path-40)}.cls-27{clip-path:url(#clip-path-41)}.cls-28{clip-path:url(#clip-path-45)}.cls-29{clip-path:url(#clip-path-46)}.cls-30{clip-path:url(#clip-path-50)}.cls-31{clip-path:url(#clip-path-51)}.cls-32{clip-path:url(#clip-path-55)}.cls-33{clip-path:url(#clip-path-56)}.cls-34{clip-path:url(#clip-path-60)}.cls-35{clip-path:url(#clip-path-61)}.cls-36{clip-path:url(#clip-path-65)}.cls-37{clip-path:url(#clip-path-66)}.cls-38{clip-path:url(#clip-path-70)}.cls-39{clip-path:url(#clip-path-71)}.cls-40{stroke:#091f2f;stroke-linejoin:round;stroke-width:3px}.cls-41{fill:#0f1f2d}.cls-42{fill:#0e1f2d}</style><clipPath id="clip-path"><circle class="cls-1" cx="-158" cy="-246.5" r="50.5"/></clipPath><clipPath id="clip-path-2"><circle class="cls-1" cx="-158" cy="-246.5" r="43.5"/></clipPath><clipPath id="clip-path-3"><circle class="cls-1" cx="132.78" cy="-246.5" r="50.5"/></clipPath><clipPath id="clip-path-4"><circle class="cls-1" cx="132.78" cy="-246.5" r="43.5"/></clipPath><clipPath id="clip-path-5"><path class="cls-2" d="M87.67 29.49h-1.5v84h108v-84H87.67zm0 3h105l-1.5-1.5v81l1.5-1.5h-105l1.5 1.5V31zm-21.5-23h148v124h-148z"/></clipPath><clipPath id="clip-path-6"><path class="cls-1" d="M87.67 30.99h105v81h-105z"/></clipPath><clipPath id="clip-path-7"><path class="cls-1" d="M-793.33-468.01h1121v1030h-1121z"/></clipPath><clipPath id="clip-path-10"><path class="cls-2" d="M81.67 46.49h-2.24l.85-2.07 9.07-22 .38-.93H190.6l.38.93 9.07 22 .85 2.07H81.67zm0-3h117l-1.39 2.07-9.07-22 1.39.93H90.74l1.39-.93-9.07 22zm-22.24 23h161.48v-65H59.43z"/></clipPath><clipPath id="clip-path-11"><path class="cls-2" d="M81.67 44.99h117l-9.07-22H90.74l-9.07 22z"/></clipPath><clipPath id="clip-path-15"><path class="cls-2" d="M166.67 13.49h-1.5v19h15v-19h-13.5zm0 3h12l-1.5-1.5V31l1.5-1.5h-12l1.5 1.5V15zm-21.5-23h55v59h-55z"/></clipPath><clipPath id="clip-path-16"><path class="cls-1" d="M166.67 14.99h12v16h-12z"/></clipPath><clipPath id="clip-path-20"><path class="cls-2" d="M100.67 79.49h-1.5v34h24v-34h-22.5zm0 3h21l-1.5-1.5v31l1.5-1.5h-21l1.5 1.5V81zm-21.5-23h64v74h-64z"/></clipPath><clipPath id="clip-path-21"><path class="cls-1" d="M100.67 80.99h21v31h-21z"/></clipPath><clipPath id="clip-path-25"><path class="cls-2" d="M101.67 51.49h-1.5v22h22v-22h-20.5zm0 3h19l-1.5-1.5V72l1.5-1.5h-19l1.5 1.5V53zm-21.5-23h62v62h-62z"/></clipPath><clipPath id="clip-path-26"><path class="cls-1" d="M101.67 52.99h19v19h-19z"/></clipPath><clipPath id="clip-path-30"><path class="cls-2" d="M106.67 56.49h-1.5v12h12v-12h-10.5zm0 3h9l-1.5-1.5v9l1.5-1.5h-9l1.5 1.5V58zm-21.5-23h52v52h-52z"/></clipPath><clipPath id="clip-path-31"><path class="cls-1" d="M106.67 57.99h9v9h-9z"/></clipPath><clipPath id="clip-path-35"><path class="cls-2" d="M131.67 51.49h-1.5v22h22v-22h-20.5zm0 3h19l-1.5-1.5V72l1.5-1.5h-19l1.5 1.5V53zm-21.5-23h62v62h-62z"/></clipPath><clipPath id="clip-path-36"><path class="cls-1" d="M131.67 52.99h19v19h-19z"/></clipPath><clipPath id="clip-path-40"><path class="cls-2" d="M160.67 51.49h-1.5v22h22v-22h-20.5zm0 3h19l-1.5-1.5V72l1.5-1.5h-19l1.5 1.5V53zm-21.5-23h62v62h-62z"/></clipPath><clipPath id="clip-path-41"><path class="cls-1" d="M160.67 52.99h19v19h-19z"/></clipPath><clipPath id="clip-path-45"><path class="cls-2" d="M131.67 79.49h-1.5v22h22v-22h-20.5zm0 3h19l-1.5-1.5v19l1.5-1.5h-19l1.5 1.5V81zm-21.5-23h62v62h-62z"/></clipPath><clipPath id="clip-path-46"><path class="cls-1" d="M131.67 80.99h19v19h-19z"/></clipPath><clipPath id="clip-path-50"><path class="cls-2" d="M160.67 79.49h-1.5v22h22v-22h-20.5zm0 3h19l-1.5-1.5v19l1.5-1.5h-19l1.5 1.5V81zm-21.5-23h62v62h-62z"/></clipPath><clipPath id="clip-path-51"><path class="cls-1" d="M160.67 80.99h19v19h-19z"/></clipPath><clipPath id="clip-path-55"><path class="cls-2" d="M136.67 56.49h-1.5v12h12v-12h-10.5zm0 3h9l-1.5-1.5v9l1.5-1.5h-9l1.5 1.5V58zm-21.5-23h52v52h-52z"/></clipPath><clipPath id="clip-path-56"><path class="cls-1" d="M136.67 57.99h9v9h-9z"/></clipPath><clipPath id="clip-path-60"><path class="cls-2" d="M165.67 56.49h-1.5v12h12v-12h-10.5zm0 3h9l-1.5-1.5v9l1.5-1.5h-9l1.5 1.5V58zm-21.5-23h52v52h-52z"/></clipPath><clipPath id="clip-path-61"><path class="cls-1" d="M165.67 57.99h9v9h-9z"/></clipPath><clipPath id="clip-path-65"><path class="cls-2" d="M136.67 84.49h-1.5v12h12v-12h-10.5zm0 3h9l-1.5-1.5v9l1.5-1.5h-9l1.5 1.5V86zm-21.5-23h52v52h-52z"/></clipPath><clipPath id="clip-path-66"><path class="cls-1" d="M136.67 85.99h9v9h-9z"/></clipPath><clipPath id="clip-path-70"><path class="cls-2" d="M165.67 84.49h-1.5v12h12v-12h-10.5zm0 3h9l-1.5-1.5v9l1.5-1.5h-9l1.5 1.5V86zm-21.5-23h52v52h-52z"/></clipPath><clipPath id="clip-path-71"><path class="cls-1" d="M165.67 85.99h9v9h-9z"/></clipPath></defs><title>EXPERIENTIAL ICONS</title><g class="cls-8"><g class="cls-9"><g class="cls-10"><path class="cls-11" d="M87.67 30.99h105v81h-105z"/></g></g></g><g class="cls-9"><g class="cls-10"><path class="cls-12" d="M87.67 30.99h105v81h-105z"/></g></g><g class="cls-13"><g class="cls-14"><g class="cls-10"><path class="cls-15" d="M81.67 44.99h117l-9.07-22H90.74l-9.07 22z"/></g></g></g><g class="cls-14"><g class="cls-10"><path class="cls-12" d="M81.67 44.99h117l-9.07-22H90.74l-9.07 22z"/></g></g><g class="cls-16"><g class="cls-17"><g class="cls-10"><path class="cls-11" d="M166.67 14.99h12v16h-12z"/></g></g></g><g class="cls-17"><g class="cls-10"><path class="cls-12" d="M166.67 14.99h12v16h-12z"/></g></g><g class="cls-18"><g class="cls-19"><g class="cls-10"><path class="cls-11" d="M100.67 80.99h21v31h-21z"/></g></g></g><g class="cls-19"><g class="cls-10"><path class="cls-12" d="M100.67 80.99h21v31h-21z"/></g></g><g class="cls-20"><g class="cls-21"><g class="cls-10"><path class="cls-11" d="M101.67 52.99h19v19h-19z"/></g></g></g><g class="cls-21"><g class="cls-10"><path class="cls-12" d="M101.67 52.99h19v19h-19z"/></g></g><g class="cls-22"><g class="cls-23"><g class="cls-10"><path class="cls-11" d="M106.67 57.99h9v9h-9z"/></g></g></g><g class="cls-23"><g class="cls-10"><path class="cls-12" d="M106.67 57.99h9v9h-9z"/></g></g><g class="cls-24"><g class="cls-25"><g class="cls-10"><path class="cls-11" d="M131.67 52.99h19v19h-19z"/></g></g></g><g class="cls-25"><g class="cls-10"><path class="cls-12" d="M131.67 52.99h19v19h-19z"/></g></g><g class="cls-26"><g class="cls-27"><g class="cls-10"><path class="cls-11" d="M160.67 52.99h19v19h-19z"/></g></g></g><g class="cls-27"><g class="cls-10"><path class="cls-12" d="M160.67 52.99h19v19h-19z"/></g></g><g class="cls-28"><g class="cls-29"><g class="cls-10"><path class="cls-11" d="M131.67 80.99h19v19h-19z"/></g></g></g><g class="cls-29"><g class="cls-10"><path class="cls-12" d="M131.67 80.99h19v19h-19z"/></g></g><g class="cls-30"><g class="cls-31"><g class="cls-10"><path class="cls-11" d="M160.67 80.99h19v19h-19z"/></g></g></g><g class="cls-31"><g class="cls-10"><path class="cls-12" d="M160.67 80.99h19v19h-19z"/></g></g><g class="cls-32"><g class="cls-33"><g class="cls-10"><path class="cls-11" d="M136.67 57.99h9v9h-9z"/></g></g></g><g class="cls-33"><g class="cls-10"><path class="cls-12" d="M136.67 57.99h9v9h-9z"/></g></g><g class="cls-34"><g class="cls-35"><g class="cls-10"><path class="cls-11" d="M165.67 57.99h9v9h-9z"/></g></g></g><g class="cls-35"><g class="cls-10"><path class="cls-12" d="M165.67 57.99h9v9h-9z"/></g></g><g class="cls-36"><g class="cls-37"><g class="cls-10"><path class="cls-11" d="M136.67 85.99h9v9h-9z"/></g></g></g><g class="cls-37"><g class="cls-10"><path class="cls-12" d="M136.67 85.99h9v9h-9z"/></g></g><g class="cls-38"><g class="cls-39"><g class="cls-10"><path class="cls-11" d="M165.67 85.99h9v9h-9z"/></g></g></g><g class="cls-39"><g class="cls-10"><path class="cls-12" d="M165.67 85.99h9v9h-9z"/></g></g><path class="cls-40" d="M102.17 82.49h18v28h-18z"/><circle class="cls-11" cx="189.14" cy="98.38" r="18.48" transform="rotate(-45 189.142 98.385)"/><path class="cls-41" d="M189.14 118.36a20 20 0 1 1 14.13-5.85 19.85 19.85 0 0 1-14.13 5.85zm0-37a17 17 0 1 0 12 5 16.87 16.87 0 0 0-12-4.96z"/><path class="cls-42" d="M182.49 93.06c.06-4.29 2.61-6.81 6.84-6.81 4 0 6.45 1.86 6.45 5.22 0 4.56-4.59 5.1-4.59 8.7h-3.87c0-4.65 3.69-4.89 3.69-7.86 0-1.35-.81-2-2.16-2-1.5 0-2.34.87-2.37 2.73zm9.21 12a2.41 2.41 0 0 1-2.52 2.52 2.5 2.5 0 1 1 2.52-2.52z"/></svg>