<svg xmlns="http://www.w3.org/2000/svg" xmlns:xlink="http://www.w3.org/1999/xlink" viewBox="0 0 276 137"><defs><circle id="a" cx="438.1" cy="70.5" r="50.5"/></defs><clipPath id="b"><use xlink:href="#a" overflow="visible"/></clipPath><g clip-path="url(#b)"><defs><path id="c" d="M263.6-665.5h1121v1030h-1121z"/></defs></g><defs><circle id="d" cx="438.1" cy="70.5" r="43.5"/></defs><clipPath id="e"><use xlink:href="#d" overflow="visible"/></clipPath><g clip-path="url(#e)"><defs><path id="f" d="M263.6-665.5h1121v1030h-1121z"/></defs></g><defs><path id="g" d="M-157.3-189.5c-24.6 0-44.6-20-44.6-44.6s20-44.6 44.6-44.6 44.6 20 44.6 44.6-20 44.6-44.6 44.6zm0 2.7c26.1 0 47.3-21.2 47.3-47.3s-21.2-47.3-47.3-47.3-47.3 21.2-47.3 47.3 21.2 47.3 47.3 47.3zm-65.5-112.8h131v131h-131v-131z"/></defs><clipPath id="h"><use xlink:href="#g" overflow="visible"/></clipPath><g clip-path="url(#h)"><defs><circle id="i" cx="-157.3" cy="-234.1" r="45.9"/></defs><clipPath id="j"><use xlink:href="#i" overflow="visible"/></clipPath><g clip-path="url(#j)"><defs><path id="k" d="M-316-903.7H703.8v937H-316z"/></defs></g></g><defs><circle id="l" cx="-157.3" cy="-234.1" r="45.9"/></defs><clipPath id="m"><use xlink:href="#l" overflow="visible"/></clipPath><g clip-path="url(#m)"><defs><path id="n" d="M-316-903.7H703.8v937H-316z"/></defs></g><defs><circle id="o" cx="-157.3" cy="-234.1" r="39.6"/></defs><clipPath id="p"><use xlink:href="#o" overflow="visible"/></clipPath><g clip-path="url(#p)"><defs><path id="q" d="M-316-903.7H703.8v937H-316z"/></defs></g><defs><path id="r" d="M381.5-122.8H380v84h108v-84H381.5zm0 3h105l-1.5-1.5v81l1.5-1.5h-105l1.5 1.5v-81l-1.5 1.5zm-21.5-23h148v124H360v-124z"/></defs><clipPath id="s"><use xlink:href="#r" overflow="visible"/></clipPath><g clip-path="url(#s)"><defs><path id="t" d="M381.5-121.3h105v81h-105z"/></defs><clipPath id="u"><use xlink:href="#t" overflow="visible"/></clipPath><g clip-path="url(#u)"><defs><path id="v" d="M-499.5-620.3h1121v1030h-1121z"/></defs></g></g><defs><path id="w" d="M381.5-121.3h105v81h-105z"/></defs><clipPath id="x"><use xlink:href="#w" overflow="visible"/></clipPath><g clip-path="url(#x)"><defs><path id="y" d="M-499.5-620.3h1121v1030h-1121z"/></defs></g><defs><path id="z" d="M375.5-105.8h-2.2l.9-2.1 9.1-22 .4-.9h100.9l.4.9 9.1 22 .9 2.1H375.5zm0-3h117l-1.4 2.1-9.1-22 1.4.9h-98.9l1.4-.9-9.1 22-1.3-2.1zm-22.2 23h161.5v-65H353.3v65z"/></defs><clipPath id="A"><use xlink:href="#z" overflow="visible"/></clipPath><g clip-path="url(#A)"><defs><path id="B" d="M375.5-107.3h117l-9.1-22h-98.8z"/></defs><clipPath id="C"><use xlink:href="#B" overflow="visible"/></clipPath><g clip-path="url(#C)"><defs><path id="D" d="M-499.5-620.3h1121v1030h-1121z"/></defs></g></g><defs><path id="E" d="M375.5-107.3h117l-9.1-22h-98.8z"/></defs><clipPath id="F"><use xlink:href="#E" overflow="visible"/></clipPath><g clip-path="url(#F)"><defs><path id="G" d="M-499.5-620.3h1121v1030h-1121z"/></defs></g><defs><path id="H" d="M460.5-138.8H459v19h15v-19h-13.5zm0 3h12l-1.5-1.5v16l1.5-1.5h-12l1.5 1.5v-16l-1.5 1.5zm-21.5-23h55v59h-55v-59z"/></defs><clipPath id="I"><use xlink:href="#H" overflow="visible"/></clipPath><g clip-path="url(#I)"><defs><path id="J" d="M460.5-137.3h12v16h-12z"/></defs><clipPath id="K"><use xlink:href="#J" overflow="visible"/></clipPath><g clip-path="url(#K)"><defs><path id="L" d="M-499.5-620.3h1121v1030h-1121z"/></defs></g></g><defs><path id="M" d="M460.5-137.3h12v16h-12z"/></defs><clipPath id="N"><use xlink:href="#M" overflow="visible"/></clipPath><g clip-path="url(#N)"><defs><path id="O" d="M-499.5-620.3h1121v1030h-1121z"/></defs></g><defs><path id="P" d="M394.5-72.8H393v34h24v-34h-22.5zm0 3h21l-1.5-1.5v31l1.5-1.5h-21l1.5 1.5v-31l-1.5 1.5zm-21.5-23h64v74h-64v-74z"/></defs><clipPath id="Q"><use xlink:href="#P" overflow="visible"/></clipPath><g clip-path="url(#Q)"><defs><path id="R" d="M394.5-71.3h21v31h-21z"/></defs><clipPath id="S"><use xlink:href="#R" overflow="visible"/></clipPath><g clip-path="url(#S)"><defs><path id="T" d="M-499.5-620.3h1121v1030h-1121z"/></defs></g></g><defs><path id="U" d="M394.5-71.3h21v31h-21z"/></defs><clipPath id="V"><use xlink:href="#U" overflow="visible"/></clipPath><g clip-path="url(#V)"><defs><path id="W" d="M-499.5-620.3h1121v1030h-1121z"/></defs></g><defs><path id="X" d="M395.5-100.8H394v22h22v-22h-20.5zm0 3h19l-1.5-1.5v19l1.5-1.5h-19l1.5 1.5v-19l-1.5 1.5zm-21.5-23h62v62h-62v-62z"/></defs><clipPath id="Y"><use xlink:href="#X" overflow="visible"/></clipPath><g clip-path="url(#Y)"><defs><path id="Z" d="M395.5-99.3h19v19h-19z"/></defs><clipPath id="aa"><use xlink:href="#Z" overflow="visible"/></clipPath><g clip-path="url(#aa)"><defs><path id="ab" d="M-499.5-620.3h1121v1030h-1121z"/></defs></g></g><g><defs><path id="ac" d="M395.5-99.3h19v19h-19z"/></defs><clipPath id="ad"><use xlink:href="#ac" overflow="visible"/></clipPath><g clip-path="url(#ad)"><defs><path id="ae" d="M-499.5-620.3h1121v1030h-1121z"/></defs></g></g><g><defs><path id="af" d="M400.5-95.8H399v12h12v-12h-10.5zm0 3h9l-1.5-1.5v9l1.5-1.5h-9l1.5 1.5v-9l-1.5 1.5zm-21.5-23h52v52h-52v-52z"/></defs><clipPath id="ag"><use xlink:href="#af" overflow="visible"/></clipPath><g clip-path="url(#ag)"><defs><path id="ah" d="M400.5-94.3h9v9h-9z"/></defs><clipPath id="ai"><use xlink:href="#ah" overflow="visible"/></clipPath><g clip-path="url(#ai)"><defs><path id="aj" d="M-499.5-620.3h1121v1030h-1121z"/></defs></g></g></g><g><defs><path id="ak" d="M400.5-94.3h9v9h-9z"/></defs><clipPath id="al"><use xlink:href="#ak" overflow="visible"/></clipPath><g clip-path="url(#al)"><defs><path id="am" d="M-499.5-620.3h1121v1030h-1121z"/></defs></g></g><g><defs><path id="an" d="M425.5-100.8H424v22h22v-22h-20.5zm0 3h19l-1.5-1.5v19l1.5-1.5h-19l1.5 1.5v-19l-1.5 1.5zm-21.5-23h62v62h-62v-62z"/></defs><clipPath id="ao"><use xlink:href="#an" overflow="visible"/></clipPath><g clip-path="url(#ao)"><defs><path id="ap" d="M425.5-99.3h19v19h-19z"/></defs><clipPath id="aq"><use xlink:href="#ap" overflow="visible"/></clipPath><g clip-path="url(#aq)"><defs><path id="ar" d="M-499.5-620.3h1121v1030h-1121z"/></defs></g></g></g><g><defs><path id="as" d="M425.5-99.3h19v19h-19z"/></defs><clipPath id="at"><use xlink:href="#as" overflow="visible"/></clipPath><g clip-path="url(#at)"><defs><path id="au" d="M-499.5-620.3h1121v1030h-1121z"/></defs></g></g><g><defs><path id="av" d="M454.5-100.8H453v22h22v-22h-20.5zm0 3h19l-1.5-1.5v19l1.5-1.5h-19l1.5 1.5v-19l-1.5 1.5zm-21.5-23h62v62h-62v-62z"/></defs><clipPath id="aw"><use xlink:href="#av" overflow="visible"/></clipPath><g clip-path="url(#aw)"><defs><path id="ax" d="M454.5-99.3h19v19h-19z"/></defs><clipPath id="ay"><use xlink:href="#ax" overflow="visible"/></clipPath><g clip-path="url(#ay)"><defs><path id="az" d="M-499.5-620.3h1121v1030h-1121z"/></defs></g></g></g><g><defs><path id="aA" d="M454.5-99.3h19v19h-19z"/></defs><clipPath id="aB"><use xlink:href="#aA" overflow="visible"/></clipPath><g clip-path="url(#aB)"><defs><path id="aC" d="M-499.5-620.3h1121v1030h-1121z"/></defs></g></g><g><defs><path id="aD" d="M425.5-72.8H424v22h22v-22h-20.5zm0 3h19l-1.5-1.5v19l1.5-1.5h-19l1.5 1.5v-19l-1.5 1.5zm-21.5-23h62v62h-62v-62z"/></defs><clipPath id="aE"><use xlink:href="#aD" overflow="visible"/></clipPath><g clip-path="url(#aE)"><defs><path id="aF" d="M425.5-71.3h19v19h-19z"/></defs><clipPath id="aG"><use xlink:href="#aF" overflow="visible"/></clipPath><g clip-path="url(#aG)"><defs><path id="aH" d="M-499.5-620.3h1121v1030h-1121z"/></defs></g></g></g><g><defs><path id="aI" d="M425.5-71.3h19v19h-19z"/></defs><clipPath id="aJ"><use xlink:href="#aI" overflow="visible"/></clipPath><g clip-path="url(#aJ)"><defs><path id="aK" d="M-499.5-620.3h1121v1030h-1121z"/></defs></g></g><g><defs><path id="aL" d="M454.5-72.8H453v22h22v-22h-20.5zm0 3h19l-1.5-1.5v19l1.5-1.5h-19l1.5 1.5v-19l-1.5 1.5zm-21.5-23h62v62h-62v-62z"/></defs><clipPath id="aM"><use xlink:href="#aL" overflow="visible"/></clipPath><g clip-path="url(#aM)"><defs><path id="aN" d="M454.5-71.3h19v19h-19z"/></defs><clipPath id="aO"><use xlink:href="#aN" overflow="visible"/></clipPath><g clip-path="url(#aO)"><defs><path id="aP" d="M-499.5-620.3h1121v1030h-1121z"/></defs></g></g></g><g><defs><path id="aQ" d="M454.5-71.3h19v19h-19z"/></defs><clipPath id="aR"><use xlink:href="#aQ" overflow="visible"/></clipPath><g clip-path="url(#aR)"><defs><path id="aS" d="M-499.5-620.3h1121v1030h-1121z"/></defs></g></g><g><defs><path id="aT" d="M430.5-95.8H429v12h12v-12h-10.5zm0 3h9l-1.5-1.5v9l1.5-1.5h-9l1.5 1.5v-9l-1.5 1.5zm-21.5-23h52v52h-52v-52z"/></defs><clipPath id="aU"><use xlink:href="#aT" overflow="visible"/></clipPath><g clip-path="url(#aU)"><defs><path id="aV" d="M430.5-94.3h9v9h-9z"/></defs><clipPath id="aW"><use xlink:href="#aV" overflow="visible"/></clipPath><g clip-path="url(#aW)"><defs><path id="aX" d="M-499.5-620.3h1121v1030h-1121z"/></defs></g></g></g><g><defs><path id="aY" d="M430.5-94.3h9v9h-9z"/></defs><clipPath id="aZ"><use xlink:href="#aY" overflow="visible"/></clipPath><g clip-path="url(#aZ)"><defs><path id="ba" d="M-499.5-620.3h1121v1030h-1121z"/></defs></g></g><g><defs><path id="bb" d="M459.5-95.8H458v12h12v-12h-10.5zm0 3h9l-1.5-1.5v9l1.5-1.5h-9l1.5 1.5v-9l-1.5 1.5zm-21.5-23h52v52h-52v-52z"/></defs><clipPath id="bc"><use xlink:href="#bb" overflow="visible"/></clipPath><g clip-path="url(#bc)"><defs><path id="bd" d="M459.5-94.3h9v9h-9z"/></defs><clipPath id="be"><use xlink:href="#bd" overflow="visible"/></clipPath><g clip-path="url(#be)"><defs><path id="bf" d="M-499.5-620.3h1121v1030h-1121z"/></defs></g></g></g><g><defs><path id="bg" d="M459.5-94.3h9v9h-9z"/></defs><clipPath id="bh"><use xlink:href="#bg" overflow="visible"/></clipPath><g clip-path="url(#bh)"><defs><path id="bi" d="M-499.5-620.3h1121v1030h-1121z"/></defs></g></g><g><defs><path id="bj" d="M430.5-67.8H429v12h12v-12h-10.5zm0 3h9l-1.5-1.5v9l1.5-1.5h-9l1.5 1.5v-9l-1.5 1.5zm-21.5-23h52v52h-52v-52z"/></defs><clipPath id="bk"><use xlink:href="#bj" overflow="visible"/></clipPath><g clip-path="url(#bk)"><defs><path id="bl" d="M430.5-66.3h9v9h-9z"/></defs><clipPath id="bm"><use xlink:href="#bl" overflow="visible"/></clipPath><g clip-path="url(#bm)"><defs><path id="bn" d="M-499.5-620.3h1121v1030h-1121z"/></defs></g></g></g><g><defs><path id="bo" d="M430.5-66.3h9v9h-9z"/></defs><clipPath id="bp"><use xlink:href="#bo" overflow="visible"/></clipPath><g clip-path="url(#bp)"><defs><path id="bq" d="M-499.5-620.3h1121v1030h-1121z"/></defs></g></g><g><path fill="none" stroke="#091F2F" stroke-width="3" stroke-miterlimit="10" d="M196.8 54.6v53.2h-44.4"/></g><g><defs><path id="br" d="M459.5-67.8H458v12h12v-12h-10.5zm0 3h9l-1.5-1.5v9l1.5-1.5h-9l1.5 1.5v-9l-1.5 1.5zm-21.5-23h52v52h-52v-52z"/></defs><clipPath id="bs"><use xlink:href="#br" overflow="visible"/></clipPath><g clip-path="url(#bs)"><defs><path id="bt" d="M459.5-66.3h9v9h-9z"/></defs><clipPath id="bu"><use xlink:href="#bt" overflow="visible"/></clipPath><g clip-path="url(#bu)"><defs><path id="bv" d="M-499.5-620.3h1121v1030h-1121z"/></defs></g></g></g><g><defs><path id="bw" d="M459.5-66.3h9v9h-9z"/></defs><clipPath id="bx"><use xlink:href="#bw" overflow="visible"/></clipPath><g clip-path="url(#bx)"><defs><path id="by" d="M-499.5-620.3h1121v1030h-1121z"/></defs></g></g><path fill="#FFF" stroke="#091F2F" stroke-width="3" stroke-miterlimit="10" d="M200.4 59.5H79.6l40.9-26.4h79.9z"/><path fill="none" stroke="#091F2F" stroke-width="3" stroke-miterlimit="10" d="M129.5 77.2h8.2V85h-8.2z"/><path fill="none" stroke="#091F2F" stroke-width="3" stroke-miterlimit="10" d="M123.5 71.5h20.2v19.1h-20.2z"/><path fill="none" stroke="#091F2F" stroke-width="3" stroke-miterlimit="10" d="M152.5 54.6v53.2H83.1V55.2"/><path fill="#FFF" stroke="#091F2F" stroke-width="3" stroke-miterlimit="10" d="M72.6 59.5l44.9-30.9 42.9 30.9z"/><path fill="none" stroke="#091F2F" stroke-width="3" stroke-miterlimit="10" d="M93.3 71.5h20.2v35.3H93.3z"/><g><path fill="none" stroke="#091F2F" stroke-width="3" stroke-miterlimit="10" d="M170.8 77.2h8.2V85h-8.2z"/><path fill="none" stroke="#091F2F" stroke-width="3" stroke-miterlimit="10" d="M164.8 71.5H185v19.1h-20.2z"/></g></svg>