<svg xmlns="http://www.w3.org/2000/svg" xmlns:xlink="http://www.w3.org/1999/xlink" viewBox="0 0 276 137"><defs><path id="a" d="M71.2-93h-1.5v38h142v-25.1l-.4-.4-11.4-12-.4-.5H71.2zm0 3h127.6l-1.1-.5 11.4 12-.4-1v23l1.5-1.5h-139l1.5 1.5v-35L71.2-90zm-21.5-23h182v78h-182v-78z"/></defs><clipPath id="b"><use xlink:href="#a" overflow="visible"/></clipPath><g clip-path="url(#b)"><defs><path id="c" d="M71.2-91.5h127.6l11.4 12v23h-139z"/></defs><clipPath id="d"><use xlink:href="#c" overflow="visible"/></clipPath><g clip-path="url(#d)"><defs><path id="e" d="M-300.8-626.5h1121v1030h-1121z"/></defs></g></g><defs><path id="f" d="M71.2-91.5h127.6l11.4 12v23h-139z"/></defs><clipPath id="g"><use xlink:href="#f" overflow="visible"/></clipPath><g clip-path="url(#g)"><defs><path id="h" d="M-300.8-626.5h1121v1030h-1121z"/></defs></g><defs><path id="i" d="M104.2-41.6c-8 0-14.5-6.5-14.5-14.5s6.5-14.5 14.5-14.5 14.5 6.5 14.5 14.5-6.4 14.5-14.5 14.5zm0 3c9.7 0 17.5-7.8 17.5-17.5s-7.8-17.5-17.5-17.5-17.5 7.8-17.5 17.5c0 9.6 7.9 17.5 17.5 17.5zm-37.5-55h75v75h-75v-75z"/></defs><clipPath id="j"><use xlink:href="#i" overflow="visible"/></clipPath><g clip-path="url(#j)"><defs><circle id="k" cx="104.2" cy="-56.1" r="16"/></defs><clipPath id="l"><use xlink:href="#k" overflow="visible"/></clipPath><g clip-path="url(#l)"><defs><path id="m" d="M-300.8-626.5h1121v1030h-1121z"/></defs></g></g><defs><circle id="n" cx="104.2" cy="-56.1" r="16"/></defs><clipPath id="o"><use xlink:href="#n" overflow="visible"/></clipPath><g clip-path="url(#o)"><defs><path id="p" d="M-300.8-626.5h1121v1030h-1121z"/></defs></g><defs><path id="q" d="M104.2-48.6c-4.1 0-7.5-3.4-7.5-7.5s3.4-7.5 7.5-7.5 7.5 3.4 7.5 7.5-3.3 7.5-7.5 7.5zm0 3c5.8 0 10.5-4.7 10.5-10.5s-4.7-10.5-10.5-10.5-10.5 4.7-10.5 10.5 4.7 10.5 10.5 10.5zm-30.5-41h61v61h-61v-61z"/></defs><clipPath id="r"><use xlink:href="#q" overflow="visible"/></clipPath><g clip-path="url(#r)"><defs><circle id="s" cx="104.2" cy="-56.1" r="9"/></defs><clipPath id="t"><use xlink:href="#s" overflow="visible"/></clipPath><g clip-path="url(#t)"><defs><path id="u" d="M-300.8-626.5h1121v1030h-1121z"/></defs></g></g><defs><circle id="v" cx="104.2" cy="-56.1" r="9"/></defs><clipPath id="w"><use xlink:href="#v" overflow="visible"/></clipPath><g clip-path="url(#w)"><defs><path id="x" d="M-300.8-626.5h1121v1030h-1121z"/></defs></g><defs><path id="y" d="M170.5-41.6c-8 0-14.5-6.5-14.5-14.5s6.5-14.5 14.5-14.5S185-64.1 185-56.1s-6.5 14.5-14.5 14.5zm0 3c9.7 0 17.5-7.8 17.5-17.5s-7.8-17.5-17.5-17.5S153-65.8 153-56.1c0 9.6 7.8 17.5 17.5 17.5zm-37.5-55h75v75h-75v-75z"/></defs><clipPath id="z"><use xlink:href="#y" overflow="visible"/></clipPath><g clip-path="url(#z)"><defs><circle id="A" cx="170.5" cy="-56.1" r="16"/></defs><clipPath id="B"><use xlink:href="#A" overflow="visible"/></clipPath><g clip-path="url(#B)"><defs><path id="C" d="M-300.8-626.5h1121v1030h-1121z"/></defs></g></g><defs><circle id="D" cx="170.5" cy="-56.1" r="16"/></defs><clipPath id="E"><use xlink:href="#D" overflow="visible"/></clipPath><g clip-path="url(#E)"><defs><path id="F" d="M-300.8-626.5h1121v1030h-1121z"/></defs></g><defs><path id="G" d="M170.7-96.4L163-112h-27.2v15.6h34.9zm-75.2-.1l7.4-15.6h27.2v15.6H95.5zm-10.3 5.4L99.4-118h66.8l15.3 27.9-96.3-1z"/></defs><clipPath id="H"><use xlink:href="#G" overflow="visible"/></clipPath><g clip-path="url(#H)"><defs><path id="I" d="M-300.8-626.5h1121v1030h-1121z"/></defs></g><defs><path id="J" d="M170.5-48.6c-4.1 0-7.5-3.4-7.5-7.5s3.4-7.5 7.5-7.5 7.5 3.4 7.5 7.5-3.4 7.5-7.5 7.5zm0 3c5.8 0 10.5-4.7 10.5-10.5s-4.7-10.5-10.5-10.5S160-61.9 160-56.1s4.7 10.5 10.5 10.5zm-30.5-41h61v61h-61v-61z"/></defs><clipPath id="K"><use xlink:href="#J" overflow="visible"/></clipPath><g clip-path="url(#K)"><defs><circle id="L" cx="170.5" cy="-56.1" r="9"/></defs><clipPath id="M"><use xlink:href="#L" overflow="visible"/></clipPath><g clip-path="url(#M)"><defs><path id="N" d="M-300.8-626.5h1121v1030h-1121z"/></defs></g></g><defs><circle id="O" cx="170.5" cy="-56.1" r="9"/></defs><clipPath id="P"><use xlink:href="#O" overflow="visible"/></clipPath><g clip-path="url(#P)"><defs><path id="Q" d="M-300.8-626.5h1121v1030h-1121z"/></defs></g><path fill="#FFF" d="M67.3 22.1h129.2V110H67.3z"/><path fill="#091F2F" d="M198 111.5H65.8V20.6H198v90.9zm-129.2-3H195V23.6H68.8v84.9z"/><path fill="#FFF" d="M74.5 28.6h115v73.7h-115z"/><path fill="#091F2F" d="M190.9 103.7H73V27.1h118v76.6zm-114.9-3h112V30.1H76v70.6zM90 117h83v3H90z"/><defs><path id="R" d="M-204.6-123.4h-1.5v84h108v-84h-106.5zm0 3h105l-1.5-1.5v81l1.5-1.5h-105l1.5 1.5v-81l-1.5 1.5zm-21.5-23h148v124h-148v-124z"/></defs><clipPath id="S"><use xlink:href="#R" overflow="visible"/></clipPath><g clip-path="url(#S)"><defs><path id="T" d="M-204.6-121.9h105v81h-105z"/></defs><clipPath id="U"><use xlink:href="#T" overflow="visible"/></clipPath><g clip-path="url(#U)"><defs><path id="V" d="M-1085.6-620.9h1121v1030h-1121z"/></defs></g></g><defs><path id="W" d="M-204.6-121.9h105v81h-105z"/></defs><clipPath id="X"><use xlink:href="#W" overflow="visible"/></clipPath><g clip-path="url(#X)"><defs><path id="Y" d="M-1085.6-620.9h1121v1030h-1121z"/></defs></g><defs><path id="Z" d="M-210.6-106.4h-2.2l.9-2.1 9.1-22 .4-.9h100.9l.4.9 9.1 22 .9 2.1h-119.5zm0-3h117l-1.4 2.1-9.1-22 1.4.9h-98.9l1.4-.9-9.1 22-1.3-2.1zm-22.3 23h161.5v-65h-161.5v65z"/></defs><clipPath id="aa"><use xlink:href="#Z" overflow="visible"/></clipPath><g clip-path="url(#aa)"><defs><path id="ab" d="M-210.6-107.9h117l-9.1-22h-98.8z"/></defs><clipPath id="ac"><use xlink:href="#ab" overflow="visible"/></clipPath><g clip-path="url(#ac)"><defs><path id="ad" d="M-1085.6-620.9h1121v1030h-1121z"/></defs></g></g><g><defs><path id="ae" d="M-210.6-107.9h117l-9.1-22h-98.8z"/></defs><clipPath id="af"><use xlink:href="#ae" overflow="visible"/></clipPath><g clip-path="url(#af)"><defs><path id="ag" d="M-1085.6-620.9h1121v1030h-1121z"/></defs></g></g><g><defs><path id="ah" d="M-125.6-139.4h-1.5v19h15v-19h-13.5zm0 3h12l-1.5-1.5v16l1.5-1.5h-12l1.5 1.5v-16l-1.5 1.5zm-21.5-23h55v59h-55v-59z"/></defs><clipPath id="ai"><use xlink:href="#ah" overflow="visible"/></clipPath><g clip-path="url(#ai)"><defs><path id="aj" d="M-125.6-137.9h12v16h-12z"/></defs><clipPath id="ak"><use xlink:href="#aj" overflow="visible"/></clipPath><g clip-path="url(#ak)"><defs><path id="al" d="M-1085.6-620.9h1121v1030h-1121z"/></defs></g></g></g><g><defs><path id="am" d="M-125.6-137.9h12v16h-12z"/></defs><clipPath id="an"><use xlink:href="#am" overflow="visible"/></clipPath><g clip-path="url(#an)"><defs><path id="ao" d="M-1085.6-620.9h1121v1030h-1121z"/></defs></g></g><g><defs><path id="ap" d="M-191.6-73.4h-1.5v34h24v-34h-22.5zm0 3h21l-1.5-1.5v31l1.5-1.5h-21l1.5 1.5v-31l-1.5 1.5zm-21.5-23h64v74h-64v-74z"/></defs><clipPath id="aq"><use xlink:href="#ap" overflow="visible"/></clipPath><g clip-path="url(#aq)"><defs><path id="ar" d="M-191.6-71.9h21v31h-21z"/></defs><clipPath id="as"><use xlink:href="#ar" overflow="visible"/></clipPath><g clip-path="url(#as)"><defs><path id="at" d="M-1085.6-620.9h1121v1030h-1121z"/></defs></g></g></g><g><defs><path id="au" d="M-191.6-71.9h21v31h-21z"/></defs><clipPath id="av"><use xlink:href="#au" overflow="visible"/></clipPath><g clip-path="url(#av)"><defs><path id="aw" d="M-1085.6-620.9h1121v1030h-1121z"/></defs></g></g><g><defs><path id="ax" d="M-190.6-101.4h-1.5v22h22v-22h-20.5zm0 3h19l-1.5-1.5v19l1.5-1.5h-19l1.5 1.5v-19l-1.5 1.5zm-21.5-23h62v62h-62v-62z"/></defs><clipPath id="ay"><use xlink:href="#ax" overflow="visible"/></clipPath><g clip-path="url(#ay)"><defs><path id="az" d="M-190.6-99.9h19v19h-19z"/></defs><clipPath id="aA"><use xlink:href="#az" overflow="visible"/></clipPath><g clip-path="url(#aA)"><defs><path id="aB" d="M-1085.6-620.9h1121v1030h-1121z"/></defs></g></g></g><g><defs><path id="aC" d="M-190.6-99.9h19v19h-19z"/></defs><clipPath id="aD"><use xlink:href="#aC" overflow="visible"/></clipPath><g clip-path="url(#aD)"><defs><path id="aE" d="M-1085.6-620.9h1121v1030h-1121z"/></defs></g></g><g><defs><path id="aF" d="M-185.6-96.4h-1.5v12h12v-12h-10.5zm0 3h9l-1.5-1.5v9l1.5-1.5h-9l1.5 1.5v-9l-1.5 1.5zm-21.5-23h52v52h-52v-52z"/></defs><clipPath id="aG"><use xlink:href="#aF" overflow="visible"/></clipPath><g clip-path="url(#aG)"><defs><path id="aH" d="M-185.6-94.9h9v9h-9z"/></defs><clipPath id="aI"><use xlink:href="#aH" overflow="visible"/></clipPath><g clip-path="url(#aI)"><defs><path id="aJ" d="M-1085.6-620.9h1121v1030h-1121z"/></defs></g></g></g><g><defs><path id="aK" d="M-185.6-94.9h9v9h-9z"/></defs><clipPath id="aL"><use xlink:href="#aK" overflow="visible"/></clipPath><g clip-path="url(#aL)"><defs><path id="aM" d="M-1085.6-620.9h1121v1030h-1121z"/></defs></g></g><g><defs><path id="aN" d="M-160.6-101.4h-1.5v22h22v-22h-20.5zm0 3h19l-1.5-1.5v19l1.5-1.5h-19l1.5 1.5v-19l-1.5 1.5zm-21.5-23h62v62h-62v-62z"/></defs><clipPath id="aO"><use xlink:href="#aN" overflow="visible"/></clipPath><g clip-path="url(#aO)"><defs><path id="aP" d="M-160.6-99.9h19v19h-19z"/></defs><clipPath id="aQ"><use xlink:href="#aP" overflow="visible"/></clipPath><g clip-path="url(#aQ)"><defs><path id="aR" d="M-1085.6-620.9h1121v1030h-1121z"/></defs></g></g></g><g><defs><path id="aS" d="M-160.6-99.9h19v19h-19z"/></defs><clipPath id="aT"><use xlink:href="#aS" overflow="visible"/></clipPath><g clip-path="url(#aT)"><defs><path id="aU" d="M-1085.6-620.9h1121v1030h-1121z"/></defs></g></g><g><defs><path id="aV" d="M-131.6-101.4h-1.5v22h22v-22h-20.5zm0 3h19l-1.5-1.5v19l1.5-1.5h-19l1.5 1.5v-19l-1.5 1.5zm-21.5-23h62v62h-62v-62z"/></defs><clipPath id="aW"><use xlink:href="#aV" overflow="visible"/></clipPath><g clip-path="url(#aW)"><defs><path id="aX" d="M-131.6-99.9h19v19h-19z"/></defs><clipPath id="aY"><use xlink:href="#aX" overflow="visible"/></clipPath><g clip-path="url(#aY)"><defs><path id="aZ" d="M-1085.6-620.9h1121v1030h-1121z"/></defs></g></g></g><g><defs><path id="ba" d="M-131.6-99.9h19v19h-19z"/></defs><clipPath id="bb"><use xlink:href="#ba" overflow="visible"/></clipPath><g clip-path="url(#bb)"><defs><path id="bc" d="M-1085.6-620.9h1121v1030h-1121z"/></defs></g></g><g><defs><path id="bd" d="M-160.6-73.4h-1.5v22h22v-22h-20.5zm0 3h19l-1.5-1.5v19l1.5-1.5h-19l1.5 1.5v-19l-1.5 1.5zm-21.5-23h62v62h-62v-62z"/></defs><clipPath id="be"><use xlink:href="#bd" overflow="visible"/></clipPath><g clip-path="url(#be)"><defs><path id="bf" d="M-160.6-71.9h19v19h-19z"/></defs><clipPath id="bg"><use xlink:href="#bf" overflow="visible"/></clipPath><g clip-path="url(#bg)"><defs><path id="bh" d="M-1085.6-620.9h1121v1030h-1121z"/></defs></g></g></g><g><defs><path id="bi" d="M-160.6-71.9h19v19h-19z"/></defs><clipPath id="bj"><use xlink:href="#bi" overflow="visible"/></clipPath><g clip-path="url(#bj)"><defs><path id="bk" d="M-1085.6-620.9h1121v1030h-1121z"/></defs></g></g><g><defs><path id="bl" d="M-131.6-73.4h-1.5v22h22v-22h-20.5zm0 3h19l-1.5-1.5v19l1.5-1.5h-19l1.5 1.5v-19l-1.5 1.5zm-21.5-23h62v62h-62v-62z"/></defs><clipPath id="bm"><use xlink:href="#bl" overflow="visible"/></clipPath><g clip-path="url(#bm)"><defs><path id="bn" d="M-131.6-71.9h19v19h-19z"/></defs><clipPath id="bo"><use xlink:href="#bn" overflow="visible"/></clipPath><g clip-path="url(#bo)"><defs><path id="bp" d="M-1085.6-620.9h1121v1030h-1121z"/></defs></g></g></g><g><defs><path id="bq" d="M-131.6-71.9h19v19h-19z"/></defs><clipPath id="br"><use xlink:href="#bq" overflow="visible"/></clipPath><g clip-path="url(#br)"><defs><path id="bs" d="M-1085.6-620.9h1121v1030h-1121z"/></defs></g></g><g><defs><path id="bt" d="M-155.6-96.4h-1.5v12h12v-12h-10.5zm0 3h9l-1.5-1.5v9l1.5-1.5h-9l1.5 1.5v-9l-1.5 1.5zm-21.5-23h52v52h-52v-52z"/></defs><clipPath id="bu"><use xlink:href="#bt" overflow="visible"/></clipPath><g clip-path="url(#bu)"><defs><path id="bv" d="M-155.6-94.9h9v9h-9z"/></defs><clipPath id="bw"><use xlink:href="#bv" overflow="visible"/></clipPath><g clip-path="url(#bw)"><defs><path id="bx" d="M-1085.6-620.9h1121v1030h-1121z"/></defs></g></g></g><g><defs><path id="by" d="M-155.6-94.9h9v9h-9z"/></defs><clipPath id="bz"><use xlink:href="#by" overflow="visible"/></clipPath><g clip-path="url(#bz)"><defs><path id="bA" d="M-1085.6-620.9h1121v1030h-1121z"/></defs></g></g><g><defs><path id="bB" d="M-126.6-96.4h-1.5v12h12v-12h-10.5zm0 3h9l-1.5-1.5v9l1.5-1.5h-9l1.5 1.5v-9l-1.5 1.5zm-21.5-23h52v52h-52v-52z"/></defs><clipPath id="bC"><use xlink:href="#bB" overflow="visible"/></clipPath><g clip-path="url(#bC)"><defs><path id="bD" d="M-126.6-94.9h9v9h-9z"/></defs><clipPath id="bE"><use xlink:href="#bD" overflow="visible"/></clipPath><g clip-path="url(#bE)"><defs><path id="bF" d="M-1085.6-620.9h1121v1030h-1121z"/></defs></g></g></g><g><defs><path id="bG" d="M-126.6-94.9h9v9h-9z"/></defs><clipPath id="bH"><use xlink:href="#bG" overflow="visible"/></clipPath><g clip-path="url(#bH)"><defs><path id="bI" d="M-1085.6-620.9h1121v1030h-1121z"/></defs></g></g><g><defs><path id="bJ" d="M-155.6-68.4h-1.5v12h12v-12h-10.5zm0 3h9l-1.5-1.5v9l1.5-1.5h-9l1.5 1.5v-9l-1.5 1.5zm-21.5-23h52v52h-52v-52z"/></defs><clipPath id="bK"><use xlink:href="#bJ" overflow="visible"/></clipPath><g clip-path="url(#bK)"><defs><path id="bL" d="M-155.6-66.9h9v9h-9z"/></defs><clipPath id="bM"><use xlink:href="#bL" overflow="visible"/></clipPath><g clip-path="url(#bM)"><defs><path id="bN" d="M-1085.6-620.9h1121v1030h-1121z"/></defs></g></g></g><g><defs><path id="bO" d="M-155.6-66.9h9v9h-9z"/></defs><clipPath id="bP"><use xlink:href="#bO" overflow="visible"/></clipPath><g clip-path="url(#bP)"><defs><path id="bQ" d="M-1085.6-620.9h1121v1030h-1121z"/></defs></g></g><g><defs><path id="bR" d="M-126.6-68.4h-1.5v12h12v-12h-10.5zm0 3h9l-1.5-1.5v9l1.5-1.5h-9l1.5 1.5v-9l-1.5 1.5zm-21.5-23h52v52h-52v-52z"/></defs><clipPath id="bS"><use xlink:href="#bR" overflow="visible"/></clipPath><g clip-path="url(#bS)"><defs><path id="bT" d="M-126.6-66.9h9v9h-9z"/></defs><clipPath id="bU"><use xlink:href="#bT" overflow="visible"/></clipPath><g clip-path="url(#bU)"><defs><path id="bV" d="M-1085.6-620.9h1121v1030h-1121z"/></defs></g></g></g><g><defs><path id="bW" d="M-126.6-66.9h9v9h-9z"/></defs><clipPath id="bX"><use xlink:href="#bW" overflow="visible"/></clipPath><g clip-path="url(#bX)"><defs><path id="bY" d="M-1085.6-620.9h1121v1030h-1121z"/></defs></g></g><circle fill="#FFF" stroke="#0C1F2E" stroke-width="3" stroke-miterlimit="10" cx="131.5" cy="65.9" r="24.1"/><g><path fill="#091F2F" d="M133.721 60.177l2.546 2.546-18.173 18.172-2.545-2.545z"/></g><g><path fill="#091F2F" d="M128.795 56.567l6.01-6.01 10.04 10.04-6.01 6.01z"/></g><g><path fill="#091F2F" d="M126.948 54.725l6.01-6.01 1.415 1.413-6.01 6.01z"/></g><g><path fill="#091F2F" d="M139.242 67.109l6.01-6.01 1.414 1.414-6.01 6.01z"/></g></svg>