<svg id="Layer_1" data-name="Layer 1" xmlns="http://www.w3.org/2000/svg" viewBox="0 0 276 137"><defs><style>.cls-1,.cls-3,.cls-5{fill:#fff}.cls-1,.cls-6,.cls-7{stroke:#0e1f2d;stroke-miterlimit:10;stroke-width:1.88px}.cls-1{clip-rule:evenodd}.cls-2,.cls-6,.cls-7{fill:none}.cls-3,.cls-7{fill-rule:evenodd}.cls-4{clip-path:url(#clip-path)}.cls-8{clip-path:url(#clip-path-2)}.cls-9{clip-path:url(#clip-path-4)}.cls-10{clip-path:url(#clip-path-5)}.cls-11{clip-path:url(#clip-path-6)}.cls-12{clip-path:url(#clip-path-7)}.cls-13{clip-path:url(#clip-path-8)}.cls-14{clip-path:url(#clip-path-9)}.cls-15{clip-path:url(#clip-path-10)}.cls-16{clip-path:url(#clip-path-11)}.cls-17{clip-path:url(#clip-path-12)}.cls-18{clip-path:url(#clip-path-13)}.cls-19{clip-path:url(#clip-path-14)}.cls-20{clip-path:url(#clip-path-15)}.cls-21{clip-path:url(#clip-path-16)}.cls-22{clip-path:url(#clip-path-17)}.cls-23{clip-path:url(#clip-path-18)}.cls-24{clip-path:url(#clip-path-19)}.cls-25{clip-path:url(#clip-path-20)}.cls-26{fill:#0c1f2e}.cls-27{clip-path:url(#clip-path-22)}.cls-28{clip-path:url(#clip-path-23)}.cls-29{clip-path:url(#clip-path-24)}.cls-30{clip-path:url(#clip-path-25)}.cls-31{clip-path:url(#clip-path-26)}.cls-32{clip-path:url(#clip-path-27)}</style><clipPath id="clip-path"><path class="cls-1" d="M-202.67-106.21h65.16l5.85 5.75v11.01h-71.01v-16.76z"/></clipPath><clipPath id="clip-path-2"><path class="cls-2" d="M-201.74 17.12h53.51v88.33h-53.51z"/></clipPath><clipPath id="clip-path-4"><path class="cls-2" d="M-194.1 40.9h37.37v11.04h-37.37z"/></clipPath><clipPath id="clip-path-5"><path class="cls-2" d="M-194.1 49.39h37.37v11.04h-37.37z"/></clipPath><clipPath id="clip-path-6"><path class="cls-2" d="M-194.1 57.88h37.37v11.04h-37.37z"/></clipPath><clipPath id="clip-path-7"><path class="cls-2" d="M-194.1 66.38h37.37v11.89h-37.37z"/></clipPath><clipPath id="clip-path-8"><path class="cls-2" d="M-194.1 75.72h37.37v11.89h-37.37z"/></clipPath><clipPath id="clip-path-9"><path class="cls-2" d="M-194.1 85.06h37.37v11.89h-37.37z"/></clipPath><clipPath id="clip-path-10"><path class="cls-2" d="M-193.25 25.61h2.55v11.04h-2.55z"/></clipPath><clipPath id="clip-path-11"><path class="cls-2" d="M-189 25.61h2.55v11.04H-189z"/></clipPath><clipPath id="clip-path-12"><path class="cls-2" d="M-184.75 25.61h2.55v11.04h-2.55z"/></clipPath><clipPath id="clip-path-13"><path class="cls-2" d="M-180.51 25.61h2.55v11.04h-2.55z"/></clipPath><clipPath id="clip-path-14"><path class="cls-2" d="M-176.26 25.61h2.55v11.04h-2.55z"/></clipPath><clipPath id="clip-path-15"><path class="cls-2" d="M-176.26 68.92h2.55V96.1h-2.55z"/></clipPath><clipPath id="clip-path-16"><path class="cls-2" d="M-172.01 25.61h2.55v11.04h-2.55z"/></clipPath><clipPath id="clip-path-17"><path class="cls-2" d="M-167.77 25.61h2.55v11.04h-2.55z"/></clipPath><clipPath id="clip-path-18"><path class="cls-2" d="M-163.52 25.61h2.55v11.04h-2.55z"/></clipPath><clipPath id="clip-path-19"><path class="cls-2" d="M-159.27 25.61h2.55v11.04h-2.55z"/></clipPath><clipPath id="clip-path-20"><circle class="cls-2" cx="-140.59" cy="93.56" r="26.33"/></clipPath><clipPath id="clip-path-22"><circle class="cls-2" cx="-454" cy="68.5" r="50.5"/></clipPath><clipPath id="clip-path-23"><circle class="cls-2" cx="-454" cy="68.5" r="43.5"/></clipPath><clipPath id="clip-path-24"><circle class="cls-2" cx="-159.84" cy="225.5" r="50.5"/></clipPath><clipPath id="clip-path-25"><circle class="cls-2" cx="-159.84" cy="225.5" r="43.5"/></clipPath><clipPath id="clip-path-26"><circle class="cls-2" cx="434" cy="225.5" r="50.5"/></clipPath><clipPath id="clip-path-27"><circle class="cls-2" cx="434" cy="225.5" r="43.5"/></clipPath></defs><title>EXPERIENTIAL ICONS 2 (2)</title><path class="cls-3" d="M-202.67-106.21h65.16l5.85 5.75v11.01h-71.01v-16.76z"/><g class="cls-4"><path class="cls-5" d="M-392.69-362.45h572.62v493.32h-572.62z"/><path class="cls-6" d="M-392.69-362.45h572.62v493.32h-572.62z"/></g><path class="cls-7" d="M-202.67-106.21h65.16l5.85 5.75v11.01h-71.01v-16.76z"/><path class="cls-26" d="M90 25v73H79v1.36a12.72 12.72 0 0 0 12.35 12.84l92.93-.05c7.06 0 12.74-5.29 12.74-12.15l.11-75zm1.18 84.29a10 10 0 0 1-9.57-8.48h89.85a12.42 12.42 0 0 0 4.41 8.4zM194.07 100c0 5.26-4.57 9.37-10 9.37a9.8 9.8 0 0 1-10-10v-1.42h-81V28h101.16z"/><path class="cls-5" d="M175.86 109.24H91.17a10 10 0 0 1-9.57-8.48h89.85a12.42 12.42 0 0 0 4.41 8.48z"/><path class="cls-5" d="M194.23 28l-.16 72c0 5.27-4.58 9.38-10 9.38a9.8 9.8 0 0 1-10-10v-1.43h-81V28z"/><path class="cls-26" d="M137.95 37.89h45.42v2.9h-45.42zM137.95 49.49h45.42v2.9h-45.42zM137.95 61.08h45.42v2.9h-45.42zM137.95 72.68h45.42v2.9h-45.42zM137.95 84.28h45.42v2.9h-45.42zM100.15 52.81v8.87H131v-8.87zm7.91 7.39h-3.33v-4c0-.84.46-1.43 1.17-1.43h.92a1.31 1.31 0 0 1 1.25 1.43zm6.25 0H111v-4c0-.84.37-1.43 1.08-1.43h.92a1.4 1.4 0 0 1 1.37 1.43v4zm5.83 0h-3.34v-4a1.44 1.44 0 0 1 1.42-1.43h.92c.71 0 1 .59 1 1.43v4zm6.25 0h-3.33v-4a1.36 1.36 0 0 1 1.29-1.43h.92c.71 0 1.12.59 1.12 1.43zM100.15 63.16V72H131v-8.84zm7.91 6.9h-3.33v-3.94c0-.84.46-1.53 1.17-1.53h.92a1.4 1.4 0 0 1 1.25 1.53zm6.25 0H111v-3.94c0-.84.37-1.53 1.08-1.53h.92a1.5 1.5 0 0 1 1.37 1.53v3.94zm5.83 0h-3.34v-3.94a1.53 1.53 0 0 1 1.42-1.53h.92c.71 0 1 .69 1 1.53v3.94zm6.25 0h-3.33v-3.94a1.46 1.46 0 0 1 1.29-1.53h.92a1.37 1.37 0 0 1 1.12 1.53zM131 50.84l-11.29-6v-4a3.27 3.27 0 0 0-3.16-3.25h-2a3.21 3.21 0 0 0-3.12 3.25v3.89l-11.7 6.16zM100.15 73v8.87H131V73zm7.91 7.39h-3.33v-4.12a1.12 1.12 0 0 1 1.16-1.27h.92a1.21 1.21 0 0 1 1.25 1.28zm6.25 0H111v-4.12c0-.84.37-1.28 1.08-1.28h.92a1.31 1.31 0 0 1 1.37 1.28v4.14zm5.83 0h-3.34v-4.12a1.31 1.31 0 0 1 1.42-1.27h.92c.71 0 1 .49 1 1.28v4.14zm6.25 0h-3.33v-4.12a1.23 1.23 0 0 1 1.28-1.27h.92c.71 0 1.12.49 1.12 1.28z"/></svg>