<svg id="Layer_1" data-name="Layer 1" xmlns="http://www.w3.org/2000/svg" viewBox="0 0 276 137"><defs><style>.cls-1,.cls-7{fill:none}.cls-11,.cls-4,.cls-9{fill:#fff}.cls-5{clip-path:url(#clip-path-3)}.cls-6{clip-path:url(#clip-path-4)}.cls-7{stroke:#101f2c;stroke-linecap:round;stroke-width:6px}.cls-10,.cls-11,.cls-13,.cls-7,.cls-9{stroke-miterlimit:10}.cls-8{clip-path:url(#clip-path-5)}.cls-11,.cls-9{stroke:#0c1f2e}.cls-9{stroke-width:2.03px}.cls-10,.cls-12,.cls-13{fill:#0c1f2e}.cls-10,.cls-13{stroke:#fff}.cls-10{stroke-width:.7px}.cls-11{stroke-width:1.57px}.cls-13{stroke-width:.95px}</style><clipPath id="clip-path"><circle class="cls-1" cx="-750" cy="68.5" r="50.5"/></clipPath><clipPath id="clip-path-2"><circle class="cls-1" cx="-750" cy="68.5" r="43.5"/></clipPath><clipPath id="clip-path-3"><circle class="cls-1" cx="138" cy="68.5" r="50.5"/></clipPath><clipPath id="clip-path-4"><path class="cls-1" d="M-36.5-667.5h1121v1030h-1121z"/></clipPath><clipPath id="clip-path-5"><circle class="cls-1" cx="138" cy="68.5" r="43.5"/></clipPath></defs><circle class="cls-4" cx="138" cy="68.5" r="48.55" transform="rotate(-45 137.994 68.501)"/><g class="cls-5"><g class="cls-6"><circle class="cls-7" cx="138" cy="68.5" r="50.5"/></g></g><g class="cls-8"><g class="cls-6"><circle class="cls-7" cx="138" cy="68.5" r="43.5"/></g></g><path class="cls-9" transform="rotate(45 156.884 56.314)" d="M145.63 50.73h22.49v11.16h-22.49z"/><path class="cls-9" d="M158.33 63.53l-1.33-.81a17.77 17.77 0 0 1-6.18-6.15l-.88-1.46a8.14 8.14 0 0 0-11.48 0L130 63.53A8.14 8.14 0 0 0 130 75l8.42 8.42a8.14 8.14 0 0 0 11.48 0l8.43-8.42a8.14 8.14 0 0 0 0-11.47z"/><path class="cls-10" d="M117.36 71.69l8 8.47a7.72 7.72 0 0 0 2.35 1.69l11.64 12.34a2.18 2.18 0 0 0 3.19 0l.89-.95a2.5 2.5 0 0 0 0-3.38l-8.26-8.75a7.6 7.6 0 0 0 .65-.53l10.5 11.12a2.18 2.18 0 0 0 3.19 0l.89-.94a2.51 2.51 0 0 0 0-3.38l-10.48-11.1.58-.61 12.4 13.13a2.17 2.17 0 0 0 3.19 0l.89-.94a2.49 2.49 0 0 0 0-3.38l-12.42-13.12a8 8 0 0 0 .51-.67l11.11 11.77a2.18 2.18 0 0 0 3.19 0l.89-.94a2.5 2.5 0 0 0 0-3.38L146 63a8.06 8.06 0 0 0-1.76-2.9l-8-8.47a7.41 7.41 0 0 0-10.9 0l-.75 1.37a17.39 17.39 0 0 1-5.84 6.22l-1.39.88a8.55 8.55 0 0 0 0 11.59z"/><rect class="cls-11" x="118.36" y="72.18" width="6.51" height="8.89" rx="3.25" ry="3.25" transform="rotate(45 121.612 76.623)"/><rect class="cls-11" x="122.55" y="75.93" width="6.51" height="11.57" rx="3.25" ry="3.25" transform="rotate(45 125.801 81.719)"/><rect class="cls-11" x="126.71" y="80.52" width="6.51" height="12.72" rx="3.25" ry="3.25" transform="rotate(45 129.957 86.87)"/><rect class="cls-11" x="132.02" y="85.44" width="6.51" height="10.87" rx="3.25" ry="3.25" transform="rotate(45 135.267 90.88)"/><path class="cls-4" d="M130.39 59.09h.07l.74-.33 10-4.46a3.25 3.25 0 1 1 2.65 5.94l-9.19 4.11-1.22 3.19a3.25 3.25 0 1 1-6.08-2.32l1.19-3.11.53-1.39a3.2 3.2 0 0 1 1.31-1.63z"/><path class="cls-12" d="M130.46 49.32l6.51.75a6.79 6.79 0 0 1 2.21.65L143.7 53l-5.22 2.52"/><path class="cls-13" transform="rotate(-45 119.447 53.564)" d="M107.74 47.98h23.42v11.16h-23.42z"/></svg>