<svg id="Layer_1" data-name="Layer 1" xmlns="http://www.w3.org/2000/svg" viewBox="0 0 276 137"><defs><style>.cls-1,.cls-3,.cls-5{fill:#fff}.cls-1,.cls-10,.cls-6,.cls-7{stroke:#0e1f2d;stroke-miterlimit:10}.cls-1,.cls-6,.cls-7{stroke-width:1.88px}.cls-1{clip-rule:evenodd}.cls-10,.cls-2,.cls-6,.cls-7{fill:none}.cls-3,.cls-7{fill-rule:evenodd}.cls-4{clip-path:url(#clip-path)}.cls-8{clip-path:url(#clip-path-2)}.cls-9{clip-path:url(#clip-path-3)}.cls-10{stroke-linecap:round;stroke-width:5.1px}.cls-11{clip-path:url(#clip-path-6)}.cls-12{clip-path:url(#clip-path-8)}.cls-13{clip-path:url(#clip-path-10)}.cls-14{clip-path:url(#clip-path-12)}.cls-15{clip-path:url(#clip-path-14)}.cls-16{clip-path:url(#clip-path-16)}.cls-17{clip-path:url(#clip-path-18)}.cls-18{fill:#0e1f2d}.cls-19{clip-path:url(#clip-path-20)}.cls-20{clip-path:url(#clip-path-22)}.cls-21{clip-path:url(#clip-path-24)}.cls-22{clip-path:url(#clip-path-26)}.cls-23{clip-path:url(#clip-path-28)}.cls-24{clip-path:url(#clip-path-30)}.cls-25{clip-path:url(#clip-path-32)}.cls-26{clip-path:url(#clip-path-34)}.cls-27{clip-path:url(#clip-path-36)}.cls-28{clip-path:url(#clip-path-38)}.cls-29{fill:#0c1f2e}</style><clipPath id="clip-path"><path class="cls-1" d="M93.33-106.21h65.16l5.85 5.75v11.01H93.33v-16.76z"/></clipPath><clipPath id="clip-path-2"><path class="cls-2" d="M94.26 17.12h53.51v88.33H94.26z"/></clipPath><clipPath id="clip-path-3"><path class="cls-2" d="M-236.98-220.7h952.1v874.81h-952.1z"/></clipPath><clipPath id="clip-path-6"><path class="cls-2" d="M101.9 40.9h37.37v11.04H101.9z"/></clipPath><clipPath id="clip-path-8"><path class="cls-2" d="M101.9 49.39h37.37v11.04H101.9z"/></clipPath><clipPath id="clip-path-10"><path class="cls-2" d="M101.9 57.88h37.37v11.04H101.9z"/></clipPath><clipPath id="clip-path-12"><path class="cls-2" d="M101.9 66.38h37.37v11.89H101.9z"/></clipPath><clipPath id="clip-path-14"><path class="cls-2" d="M101.9 75.72h37.37v11.89H101.9z"/></clipPath><clipPath id="clip-path-16"><path class="cls-2" d="M101.9 85.06h37.37v11.89H101.9z"/></clipPath><clipPath id="clip-path-18"><path class="cls-2" d="M102.75 25.61h2.55v11.04h-2.55z"/></clipPath><clipPath id="clip-path-20"><path class="cls-2" d="M107 25.61h2.55v11.04H107z"/></clipPath><clipPath id="clip-path-22"><path class="cls-2" d="M111.25 25.61h2.55v11.04h-2.55z"/></clipPath><clipPath id="clip-path-24"><path class="cls-2" d="M115.49 25.61h2.55v11.04h-2.55z"/></clipPath><clipPath id="clip-path-26"><path class="cls-2" d="M119.74 25.61h2.55v11.04h-2.55z"/></clipPath><clipPath id="clip-path-28"><path class="cls-2" d="M119.74 68.92h2.55V96.1h-2.55z"/></clipPath><clipPath id="clip-path-30"><path class="cls-2" d="M123.99 25.61h2.55v11.04h-2.55z"/></clipPath><clipPath id="clip-path-32"><path class="cls-2" d="M128.23 25.61h2.55v11.04h-2.55z"/></clipPath><clipPath id="clip-path-34"><path class="cls-2" d="M132.48 25.61h2.55v11.04h-2.55z"/></clipPath><clipPath id="clip-path-36"><path class="cls-2" d="M136.73 25.61h2.55v11.04h-2.55z"/></clipPath><clipPath id="clip-path-38"><circle class="cls-2" cx="155.41" cy="93.56" r="26.33"/></clipPath><clipPath id="clip-path-42"><circle class="cls-2" cx="-158" cy="68.5" r="50.5"/></clipPath><clipPath id="clip-path-43"><circle class="cls-2" cx="-158" cy="68.5" r="43.5"/></clipPath><clipPath id="clip-path-44"><circle class="cls-2" cx="136.16" cy="225.5" r="50.5"/></clipPath><clipPath id="clip-path-45"><circle class="cls-2" cx="136.16" cy="225.5" r="43.5"/></clipPath></defs><path class="cls-3" d="M93.33-106.21h65.16l5.85 5.75v11.01H93.33v-16.76z"/><g class="cls-4"><path class="cls-5" d="M-96.69-362.45h572.62v493.32H-96.69z"/><path class="cls-6" d="M-96.69-362.45h572.62v493.32H-96.69z"/></g><path class="cls-7" d="M93.33-106.21h65.16l5.85 5.75v11.01H93.33v-16.76z"/><g class="cls-8"><g class="cls-9"><path class="cls-5" d="M94.26 17.12h53.51v88.33H94.26z"/></g></g><g class="cls-8"><g class="cls-9"><path class="cls-10" d="M94.26 17.12h53.51v88.33H94.26z"/></g></g><g class="cls-11"><g class="cls-9"><path class="cls-10" d="M101.9 40.9h37.37v11.04H101.9z"/></g></g><g class="cls-12"><g class="cls-9"><path class="cls-10" d="M101.9 49.39h37.37v11.04H101.9z"/></g></g><g class="cls-13"><g class="cls-9"><path class="cls-10" d="M101.9 57.88h37.37v11.04H101.9z"/></g></g><g class="cls-14"><g class="cls-9"><path class="cls-10" d="M101.9 66.38h37.37v11.89H101.9z"/></g></g><g class="cls-15"><g class="cls-9"><path class="cls-10" d="M101.9 75.72h37.37v11.89H101.9z"/></g></g><g class="cls-16"><g class="cls-9"><path class="cls-10" d="M101.9 85.06h37.37v11.89H101.9z"/></g></g><g class="cls-17"><g class="cls-9"><path class="cls-18" d="M98.51 21.36h11.04v19.53H98.51z"/></g></g><g class="cls-19"><g class="cls-9"><path class="cls-18" d="M102.75 21.36h11.04v19.53h-11.04z"/></g></g><g class="cls-20"><g class="cls-9"><path class="cls-18" d="M107 21.36h11.04v19.53H107z"/></g></g><g class="cls-21"><g class="cls-9"><path class="cls-18" d="M111.25 21.36h11.04v19.53h-11.04z"/></g></g><g class="cls-22"><g class="cls-9"><path class="cls-18" d="M115.49 21.36h11.04v19.53h-11.04z"/></g></g><g class="cls-23"><g class="cls-9"><path class="cls-18" d="M115.49 64.68h11.04v35.67h-11.04z"/></g></g><g class="cls-24"><g class="cls-9"><path class="cls-18" d="M119.74 21.36h11.04v19.53h-11.04z"/></g></g><g class="cls-25"><g class="cls-9"><path class="cls-18" d="M123.99 21.36h11.04v19.53h-11.04z"/></g></g><g class="cls-26"><g class="cls-9"><path class="cls-18" d="M128.23 21.36h11.04v19.53h-11.04z"/></g></g><g class="cls-27"><g class="cls-9"><path class="cls-18" d="M132.48 21.36h11.04v19.53h-11.04z"/></g></g><g class="cls-28"><g class="cls-9"><circle class="cls-5" cx="155.41" cy="93.56" r="26.33"/></g></g><circle class="cls-2" cx="155.41" cy="93.56" r="25.06"/><g class="cls-28"><g class="cls-9"><circle class="cls-10" cx="155.41" cy="93.56" r="26.33"/></g></g><path class="cls-29" d="M150.71 77.37h9.4l-1.57 21.48h-5.74l-2.09-21.48z"/><circle class="cls-29" cx="155.41" cy="106.04" r="3.69"/></svg>