<svg id="Layer_1" data-name="Layer 1" xmlns="http://www.w3.org/2000/svg" viewBox="0 0 276 137"><defs><style>.cls-1,.cls-3,.cls-4,.cls-6{fill:#fff}.cls-1,.cls-7,.cls-8{stroke:#0e1f2d;stroke-width:3px}.cls-1,.cls-11,.cls-3,.cls-7,.cls-8{stroke-miterlimit:10}.cls-1{clip-rule:evenodd}.cls-11,.cls-2,.cls-7,.cls-8{fill:none}.cls-11,.cls-3{stroke:#0c1f2e;stroke-width:2.62px}.cls-4,.cls-8{fill-rule:evenodd}.cls-5{clip-path:url(#clip-path)}.cls-11{stroke-linecap:round}</style><clipPath id="clip-path"><path class="cls-1" d="M-228.77 231.73h109.47l9.82 9.65v18.51h-119.29v-28.16z"/></clipPath><clipPath id="clip-path-2"><circle class="cls-2" cx="-737.7" cy="388.62" r="50.5"/></clipPath><clipPath id="clip-path-3"><circle class="cls-2" cx="-737.7" cy="388.62" r="43.5"/></clipPath></defs><path class="cls-3" d="M136.82 30l-51.13 88.54H188zm0 10.74l39.56 72.1H97.25z"/><path class="cls-3" d="M176.38 112.82H97.25l39.57-72.1 39.56 72.1z"/><path class="cls-4" d="M-228.77 231.73h109.47l9.82 9.65v18.51h-119.29v-28.16z"/><g class="cls-5"><path class="cls-6" d="M-548.03-198.78h962.06v828.83h-962.06z"/><path class="cls-7" d="M-548.03-198.78h962.06v828.83h-962.06z"/></g><path class="cls-8" d="M-228.77 231.73h109.47l9.82 9.65v18.51h-119.29v-28.16z"/><path class="cls-11" d="M131.55 66.13h10.54l-1.76 24.09h-6.44l-2.34-24.09z"/><circle class="cls-11" cx="136.82" cy="98.29" r="4.14"/></svg>