<svg id="Layer_1" data-name="Layer 1" xmlns="http://www.w3.org/2000/svg" viewBox="0 0 276 137"><defs><style>.cls-1{fill:none}.cls-6{fill:#fff}.cls-7{fill:#0f1f2d}.cls-8{fill:#0c1f2e}.cls-9{fill:#091f2f}</style><clipPath id="clip-path"><circle class="cls-1" cx="-750" cy="-246.5" r="50.5"/></clipPath><clipPath id="clip-path-2"><circle class="cls-1" cx="-750" cy="-246.5" r="43.5"/></clipPath><clipPath id="clip-path-3"><circle class="cls-1" cx="-459.22" cy="-246.5" r="50.5"/></clipPath><clipPath id="clip-path-4"><circle class="cls-1" cx="-459.22" cy="-246.5" r="43.5"/></clipPath></defs><circle class="cls-6" cx="138.2" cy="73.2" r="46.57"/><path class="cls-7" d="M138.2 121.27a48.07 48.07 0 1 1 48.07-48.07 48.12 48.12 0 0 1-48.07 48.07zm0-93.13a45.07 45.07 0 1 0 45.07 45.07 45.12 45.12 0 0 0-45.07-45.07z"/><circle class="cls-6" cx="138.26" cy="73.1" r="40.8"/><path class="cls-8" d="M138.27 115.41a42.3 42.3 0 1 1 42.3-42.3 42.35 42.35 0 0 1-42.3 42.3zm0-81.61a39.3 39.3 0 1 0 39.3 39.3 39.35 39.35 0 0 0-39.3-39.3z"/><path class="cls-9" d="M139 84.12a9.71 9.71 0 1 1 6.8-2.78 9.64 9.64 0 0 1-6.8 2.78zm0-16.41a6.71 6.71 0 1 0 4.78 2 6.67 6.67 0 0 0-4.78-2z"/><path class="cls-9" d="M138.93 90.78a17 17 0 0 1-16.39-13.68c-3.64-17.56 20.88-39 21.92-39.86a1.5 1.5 0 0 1 2.21 2c-5.7 8.13-6 12.93-5.25 15.52a5.89 5.89 0 0 0 3.58 3.86 16.65 16.65 0 0 1-6 32.17zm.36-44.16c-6.86 7.55-15.9 19.75-13.8 29.87a14 14 0 0 0 13.45 11.29 13.65 13.65 0 0 0 4.91-26.38 8.9 8.9 0 0 1-5.3-5.8c-.55-1.98-.72-4.91.73-8.98z"/><path class="cls-9" d="M127.58 93.53a97.12 97.12 0 0 1-22.18-2.84 1.36 1.36 0 0 1-1.1-1.52 1.39 1.39 0 0 1 1.49-1.17l.65-.13c9.52 0 13.49-2.49 15.14-4.53a6 6 0 0 0 1.17-5.1 16.66 16.66 0 0 1 28.09-15.48 16.77 16.77 0 0 1-.17 23.51c-4.67 4.82-12.4 7.26-23.09 7.26zm-11.52-3.86a84.7 84.7 0 0 0 11.52.86c9.85 0 16.9-2.13 20.94-6.33a13.79 13.79 0 0 0 .19-19.33 13.65 13.65 0 0 0-23 12.7 8.9 8.9 0 0 1-1.77 7.6c-1.31 1.6-3.66 3.39-7.89 4.5z"/><path class="cls-9" d="M171 92.57a1.5 1.5 0 0 1-1.19-.58c-6.15-7.94-10.67-9.61-13.38-9.61a5.89 5.89 0 0 0-4.62 2.23 16.54 16.54 0 0 1-13 6.29 16.88 16.88 0 0 1-2.07-.13 16.65 16.65 0 0 1-14.48-18.57 16.82 16.82 0 0 1 16.82-14.55c.57 0 1.15 0 1.72.08 17.85 1.72 31 31.48 31.58 32.75a1.5 1.5 0 0 1-1.37 2.1zm-31.92-31.92a13.63 13.63 0 1 0 10.41 22.08 8.91 8.91 0 0 1 6.95-3.34c2.09 0 5 .71 8.51 3.36-5.17-8.79-14.15-21-24.44-22-.51-.08-.96-.1-1.43-.1z"/></svg>