<svg xmlns="http://www.w3.org/2000/svg" viewBox="0 0 276 137"><path fill="none" stroke="#0E1F2D" stroke-width="3" stroke-linecap="round" stroke-miterlimit="10" d="M99.9 82.7c3.4 0 3.4 2.9 6.9 2.9 3.4 0 3.4-2.9 6.9-2.9 3.4 0 3.4 2.9 6.9 2.9 3.4 0 3.4-2.9 6.9-2.9 3.4 0 3.4 2.9 6.9 2.9 3.4 0 3.4-2.9 6.9-2.9 3.4 0 3.4 2.9 6.9 2.9 3.4 0 3.4-2.9 6.9-2.9s3.4 2.9 6.9 2.9M99.9 92.8c3.4 0 3.4 2.9 6.9 2.9 3.4 0 3.4-2.9 6.9-2.9 3.4 0 3.4 2.9 6.9 2.9 3.4 0 3.4-2.9 6.9-2.9 3.4 0 3.4 2.9 6.9 2.9 3.4 0 3.4-2.9 6.9-2.9 3.4 0 3.4 2.9 6.9 2.9 3.4 0 3.4-2.9 6.9-2.9s3.4 2.9 6.9 2.9M99.9 52.6c3.4 0 3.4 2.9 6.9 2.9 3.4 0 3.4-2.9 6.9-2.9 3.4 0 3.4 2.9 6.9 2.9 3.4 0 3.4-2.9 6.9-2.9 3.4 0 3.4 2.9 6.9 2.9 3.4 0 3.4-2.9 6.9-2.9 3.4 0 3.4 2.9 6.9 2.9 3.4 0 3.4-2.9 6.9-2.9s3.4 2.9 6.9 2.9M99.9 42.5c3.4 0 3.4 2.9 6.9 2.9 3.4 0 3.4-2.9 6.9-2.9 3.4 0 3.4 2.9 6.9 2.9 3.4 0 3.4-2.9 6.9-2.9 3.4 0 3.4 2.9 6.9 2.9 3.4 0 3.4-2.9 6.9-2.9 3.4 0 3.4 2.9 6.9 2.9 3.4 0 3.4-2.9 6.9-2.9s3.4 2.9 6.9 2.9M99.9 62.6c3.4 0 3.4 2.9 6.9 2.9 3.4 0 3.4-2.9 6.9-2.9 3.4 0 3.4 2.9 6.9 2.9 3.4 0 3.4-2.9 6.9-2.9 3.4 0 3.4 2.9 6.9 2.9 3.4 0 3.4-2.9 6.9-2.9 3.4 0 3.4 2.9 6.9 2.9 3.4 0 3.4-2.9 6.9-2.9s3.4 2.9 6.9 2.9M99.9 72.7c3.4 0 3.4 2.9 6.9 2.9 3.4 0 3.4-2.9 6.9-2.9 3.4 0 3.4 2.9 6.9 2.9 3.4 0 3.4-2.9 6.9-2.9 3.4 0 3.4 2.9 6.9 2.9 3.4 0 3.4-2.9 6.9-2.9 3.4 0 3.4 2.9 6.9 2.9 3.4 0 3.4-2.9 6.9-2.9s3.4 2.9 6.9 2.9"/><path fill="#FFF" stroke="#0E1F2D" stroke-width="3" stroke-linecap="round" stroke-miterlimit="10" d="M169.5 37.3h11v65h-11z"/><path fill="none" stroke="#0E1F2D" stroke-width="3" stroke-linecap="round" stroke-miterlimit="10" d="M169.5 43.6h3.5M169.5 49.6h5.5M169.5 55.5h3.5M169.5 61.5h5.5M169.5 67.4h3.5M169.5 73.4h5.5M169.5 79.3h3.5M169.5 85.3h5.5M169.5 91.2h3.5M169.5 97.2h5.5"/></svg>