<svg xmlns="http://www.w3.org/2000/svg" viewBox="0 0 276 137"><path fill="none" stroke="#0E1F2D" stroke-width="3" stroke-linecap="round" stroke-miterlimit="10" d="M99.9 82.7c3.4 0 3.4 2.9 6.9 2.9 3.4 0 3.4-2.9 6.9-2.9 3.4 0 3.4 2.9 6.9 2.9 3.4 0 3.4-2.9 6.9-2.9 3.4 0 3.4 2.9 6.9 2.9 3.4 0 3.4-2.9 6.9-2.9 3.4 0 3.4 2.9 6.9 2.9 3.4 0 3.4-2.9 6.9-2.9s3.4 2.9 6.9 2.9m-62.1 7.2c3.4 0 3.4 2.9 6.9 2.9 3.4 0 3.4-2.9 6.9-2.9 3.4 0 3.4 2.9 6.9 2.9 3.4 0 3.4-2.9 6.9-2.9 3.4 0 3.4 2.9 6.9 2.9 3.4 0 3.4-2.9 6.9-2.9 3.4 0 3.4 2.9 6.9 2.9 3.4 0 3.4-2.9 6.9-2.9s3.4 2.9 6.9 2.9M99.9 52.6c3.4 0 3.4 2.9 6.9 2.9 3.4 0 3.4-2.9 6.9-2.9 3.4 0 3.4 2.9 6.9 2.9 3.4 0 3.4-2.9 6.9-2.9 3.4 0 3.4 2.9 6.9 2.9 3.4 0 3.4-2.9 6.9-2.9 3.4 0 3.4 2.9 6.9 2.9 3.4 0 3.4-2.9 6.9-2.9s3.4 2.9 6.9 2.9m-62.1-13c3.4 0 3.4 2.9 6.9 2.9 3.4 0 3.4-2.9 6.9-2.9 3.4 0 3.4 2.9 6.9 2.9 3.4 0 3.4-2.9 6.9-2.9 3.4 0 3.4 2.9 6.9 2.9 3.4 0 3.4-2.9 6.9-2.9 3.4 0 3.4 2.9 6.9 2.9 3.4 0 3.4-2.9 6.9-2.9s3.4 2.9 6.9 2.9M99.9 62.6c3.4 0 3.4 2.9 6.9 2.9 3.4 0 3.4-2.9 6.9-2.9 3.4 0 3.4 2.9 6.9 2.9 3.4 0 3.4-2.9 6.9-2.9 3.4 0 3.4 2.9 6.9 2.9 3.4 0 3.4-2.9 6.9-2.9 3.4 0 3.4 2.9 6.9 2.9 3.4 0 3.4-2.9 6.9-2.9s3.4 2.9 6.9 2.9m-62.1 7.2c3.4 0 3.4 2.9 6.9 2.9 3.4 0 3.4-2.9 6.9-2.9 3.4 0 3.4 2.9 6.9 2.9 3.4 0 3.4-2.9 6.9-2.9 3.4 0 3.4 2.9 6.9 2.9 3.4 0 3.4-2.9 6.9-2.9 3.4 0 3.4 2.9 6.9 2.9 3.4 0 3.4-2.9 6.9-2.9s3.4 2.9 6.9 2.9"/><path fill="#FFF" stroke="#0E1F2D" stroke-width="3" stroke-linecap="round" stroke-miterlimit="10" d="M169.5 37.3h11v65h-11z"/><path fill="none" stroke="#0E1F2D" stroke-width="3" stroke-linecap="round" stroke-miterlimit="10" d="M169.5 43.6h3.5m-3.5 6h5.5m-5.5 5.9h3.5m-3.5 6h5.5m-5.5 5.9h3.5m-3.5 6h5.5m-5.5 5.9h3.5m-3.5 6h5.5m-5.5 5.9h3.5m-3.5 6h5.5"/></svg>