<svg id="Layer_1" data-name="Layer 1" xmlns="http://www.w3.org/2000/svg" viewBox="0 0 276 137"><defs><style>.cls-1{fill:none}.cls-4{fill:#fff}.cls-5{fill:#0e1f2d}</style><clipPath id="clip-path"><circle class="cls-1" cx="434" cy="-89.73" r="50.5"/></clipPath><clipPath id="clip-path-2"><circle class="cls-1" cx="434" cy="-89.73" r="43.5"/></clipPath></defs><path class="cls-4" d="M134.12 16.53h7.5v7.5h-7.5z"/><path class="cls-5" d="M143.13 25.53h-10.5V15h10.5zm-7.5-3h4.5V18h-4.5z"/><path class="cls-4" d="M108.73 65.68h8.37V85.8h-8.37z"/><path class="cls-5" d="M118.6 87.3h-11.37V64.18h11.37zm-8.37-3h5.37V67.18h-5.37z"/><path class="cls-4" d="M104.55 63.18h4.18V89h-4.18z"/><path class="cls-5" d="M110.23 90.5H103V61.68h7.18zm-4.18-3h1.18V64.68H106z"/><path class="cls-4" transform="rotate(180 162.755 76.44)" d="M158.57 66.38h8.37V86.5h-8.37z"/><path class="cls-5" d="M168.44 88h-11.37V64.88h11.37zm-8.37-3h5.37V67.88h-5.37z"/><path class="cls-4" transform="rotate(180 169.03 76.09)" d="M166.94 63.18h4.18V89h-4.18z"/><path class="cls-5" d="M172.62 90.5h-7.18V61.68h7.18zm-4.18-3h1.18V64.68h-1.18z"/><path class="cls-4" d="M138.07 21.82a19.72 19.72 0 0 0-19.72 19.72h39.44a19.72 19.72 0 0 0-19.72-19.72z"/><path class="cls-5" d="M159.29 43h-42.44v-1.5a21.22 21.22 0 0 1 42.44 0zm-39.38-3h36.32a18.22 18.22 0 0 0-36.32 0z"/><path class="cls-4" d="M113.82 41.74h48.5v6.22h-48.5z"/><path class="cls-5" d="M163.82 49.46h-51.5v-9.22h51.5zm-48.5-3h45.5v-3.22h-45.5z"/><path class="cls-4" d="M110.06 109.82h56.04v7h-56.04z"/><path class="cls-5" d="M167.59 118.32h-59v-10h59zm-56-3h53v-4h-53z"/><path class="cls-4" d="M116.35 47.96h42.5v61.85h-42.5z"/><path class="cls-5" d="M160.35 111.32h-45.5V46.46h45.5zm-42.5-3h39.5V49.46h-39.5z"/><path class="cls-4" d="M144.6 64.14h-13.72l-6.87 11.88 6.87 11.88h13.72l6.86-11.88-6.86-11.88z"/><path class="cls-5" d="M145.46 89.4H130L122.28 76 130 62.64h15.45L153.19 76zm-13.72-3h12l6-10.38-6-10.38h-12l-6 10.38z"/><path class="cls-4" d="M141.29 69.86h-7.11l-3.56 6.16 3.56 6.17h7.11l3.56-6.17-3.56-6.16z"/><path class="cls-5" d="M142.16 83.69h-8.85L128.88 76l4.43-7.67h8.85l4.43 7.67zm-7.12-3h5.39l2.69-4.69-2.69-4.67H135L132.35 76z"/></svg>