<svg id="Layer_1" data-name="Layer 1" xmlns="http://www.w3.org/2000/svg" viewBox="0 0 276 137"><defs><style>.cls-1,.cls-2,.cls-4,.cls-56,.cls-57{fill:none}.cls-1,.cls-3{clip-rule:evenodd}.cls-3,.cls-53,.cls-55,.cls-58,.cls-60{fill:#fff}.cls-3,.cls-56,.cls-57,.cls-58{stroke:#0e1f2d}.cls-3,.cls-56,.cls-57,.cls-58,.cls-60{stroke-miterlimit:10}.cls-3,.cls-56,.cls-57{stroke-width:3px}.cls-4,.cls-53,.cls-57{fill-rule:evenodd}.cls-5{clip-path:url(#clip-path)}.cls-6{clip-path:url(#clip-path-2)}.cls-7{clip-path:url(#clip-path-4)}.cls-8{clip-path:url(#clip-path-5)}.cls-9{clip-path:url(#clip-path-7)}.cls-10{clip-path:url(#clip-path-8)}.cls-11{clip-path:url(#clip-path-10)}.cls-12{clip-path:url(#clip-path-11)}.cls-13{clip-path:url(#clip-path-13)}.cls-14{clip-path:url(#clip-path-14)}.cls-15{clip-path:url(#clip-path-16)}.cls-16{clip-path:url(#clip-path-17)}.cls-17{clip-path:url(#clip-path-19)}.cls-18{clip-path:url(#clip-path-20)}.cls-19{clip-path:url(#clip-path-22)}.cls-20{clip-path:url(#clip-path-23)}.cls-21{clip-path:url(#clip-path-25)}.cls-22{clip-path:url(#clip-path-26)}.cls-23{clip-path:url(#clip-path-28)}.cls-24{clip-path:url(#clip-path-29)}.cls-25{clip-path:url(#clip-path-31)}.cls-26{clip-path:url(#clip-path-32)}.cls-27{clip-path:url(#clip-path-34)}.cls-28{clip-path:url(#clip-path-35)}.cls-29{clip-path:url(#clip-path-37)}.cls-30{clip-path:url(#clip-path-38)}.cls-31{clip-path:url(#clip-path-40)}.cls-32{clip-path:url(#clip-path-41)}.cls-33{clip-path:url(#clip-path-43)}.cls-34{clip-path:url(#clip-path-45)}.cls-35{clip-path:url(#clip-path-46)}.cls-36{clip-path:url(#clip-path-47)}.cls-37{clip-path:url(#clip-path-48)}.cls-38{clip-path:url(#clip-path-49)}.cls-39{clip-path:url(#clip-path-50)}.cls-40{clip-path:url(#clip-path-51)}.cls-41{clip-path:url(#clip-path-52)}.cls-42{clip-path:url(#clip-path-53)}.cls-43{clip-path:url(#clip-path-54)}.cls-44{clip-path:url(#clip-path-55)}.cls-45{clip-path:url(#clip-path-56)}.cls-46{clip-path:url(#clip-path-57)}.cls-47{clip-path:url(#clip-path-58)}.cls-48{clip-path:url(#clip-path-59)}.cls-49{clip-path:url(#clip-path-60)}.cls-50{clip-path:url(#clip-path-61)}.cls-51{clip-path:url(#clip-path-63)}.cls-52{clip-path:url(#clip-path-64)}.cls-54{clip-path:url(#clip-path-65)}.cls-58{stroke-linecap:round;stroke-width:4.63px}.cls-59{fill:#0e1f2d}.cls-60{stroke:#0c1f2e;stroke-width:1.78px}.cls-61{clip-path:url(#clip-path-66)}.cls-62{clip-path:url(#clip-path-67)}</style><clipPath id="clip-path"><path class="cls-1" d="M-208.33-441.51h-1.5v84h108v-84h-106.5zm0 3h105l-1.5-1.5v81l1.5-1.5h-105l1.5 1.5v-81zm-21.5-23h148v124h-148z"/></clipPath><clipPath id="clip-path-2"><path class="cls-2" d="M-208.33-440.01h105v81h-105z"/></clipPath><clipPath id="clip-path-4"><path class="cls-1" d="M-214.33-424.51h-2.24l.85-2.07 9.07-22 .38-.93h100.87l.38.93 9.07 22 .85 2.07h-119.23zm0-3h117l-1.39 2.07-9.07-22 1.39.93h-98.86l1.39-.93-9.07 22zm-22.24 23h161.48v-65h-161.48z"/></clipPath><clipPath id="clip-path-5"><path class="cls-1" d="M-214.33-426.01h117l-9.07-22h-98.86l-9.07 22z"/></clipPath><clipPath id="clip-path-7"><path class="cls-1" d="M-129.33-457.51h-1.5v19h15v-19h-13.5zm0 3h12l-1.5-1.5v16l1.5-1.5h-12l1.5 1.5v-16zm-21.5-23h55v59h-55z"/></clipPath><clipPath id="clip-path-8"><path class="cls-2" d="M-129.33-456.01h12v16h-12z"/></clipPath><clipPath id="clip-path-10"><path class="cls-1" d="M-195.33-391.51h-1.5v34h24v-34h-22.5zm0 3h21l-1.5-1.5v31l1.5-1.5h-21l1.5 1.5v-31zm-21.5-23h64v74h-64z"/></clipPath><clipPath id="clip-path-11"><path class="cls-2" d="M-195.33-390.01h21v31h-21z"/></clipPath><clipPath id="clip-path-13"><path class="cls-1" d="M-194.33-419.51h-1.5v22h22v-22h-20.5zm0 3h19l-1.5-1.5v19l1.5-1.5h-19l1.5 1.5v-19zm-21.5-23h62v62h-62z"/></clipPath><clipPath id="clip-path-14"><path class="cls-2" d="M-194.33-418.01h19v19h-19z"/></clipPath><clipPath id="clip-path-16"><path class="cls-1" d="M-189.33-414.51h-1.5v12h12v-12h-10.5zm0 3h9l-1.5-1.5v9l1.5-1.5h-9l1.5 1.5v-9zm-21.5-23h52v52h-52z"/></clipPath><clipPath id="clip-path-17"><path class="cls-2" d="M-189.33-413.01h9v9h-9z"/></clipPath><clipPath id="clip-path-19"><path class="cls-1" d="M-164.33-419.51h-1.5v22h22v-22h-20.5zm0 3h19l-1.5-1.5v19l1.5-1.5h-19l1.5 1.5v-19zm-21.5-23h62v62h-62z"/></clipPath><clipPath id="clip-path-20"><path class="cls-2" d="M-164.33-418.01h19v19h-19z"/></clipPath><clipPath id="clip-path-22"><path class="cls-1" d="M-135.33-419.51h-1.5v22h22v-22h-20.5zm0 3h19l-1.5-1.5v19l1.5-1.5h-19l1.5 1.5v-19zm-21.5-23h62v62h-62z"/></clipPath><clipPath id="clip-path-23"><path class="cls-2" d="M-135.33-418.01h19v19h-19z"/></clipPath><clipPath id="clip-path-25"><path class="cls-1" d="M-164.33-391.51h-1.5v22h22v-22h-20.5zm0 3h19l-1.5-1.5v19l1.5-1.5h-19l1.5 1.5v-19zm-21.5-23h62v62h-62z"/></clipPath><clipPath id="clip-path-26"><path class="cls-2" d="M-164.33-390.01h19v19h-19z"/></clipPath><clipPath id="clip-path-28"><path class="cls-1" d="M-135.33-391.51h-1.5v22h22v-22h-20.5zm0 3h19l-1.5-1.5v19l1.5-1.5h-19l1.5 1.5v-19zm-21.5-23h62v62h-62z"/></clipPath><clipPath id="clip-path-29"><path class="cls-2" d="M-135.33-390.01h19v19h-19z"/></clipPath><clipPath id="clip-path-31"><path class="cls-1" d="M-159.33-414.51h-1.5v12h12v-12h-10.5zm0 3h9l-1.5-1.5v9l1.5-1.5h-9l1.5 1.5v-9zm-21.5-23h52v52h-52z"/></clipPath><clipPath id="clip-path-32"><path class="cls-2" d="M-159.33-413.01h9v9h-9z"/></clipPath><clipPath id="clip-path-34"><path class="cls-1" d="M-130.33-414.51h-1.5v12h12v-12h-10.5zm0 3h9l-1.5-1.5v9l1.5-1.5h-9l1.5 1.5v-9zm-21.5-23h52v52h-52z"/></clipPath><clipPath id="clip-path-35"><path class="cls-2" d="M-130.33-413.01h9v9h-9z"/></clipPath><clipPath id="clip-path-37"><path class="cls-1" d="M-159.33-386.51h-1.5v12h12v-12h-10.5zm0 3h9l-1.5-1.5v9l1.5-1.5h-9l1.5 1.5v-9zm-21.5-23h52v52h-52z"/></clipPath><clipPath id="clip-path-38"><path class="cls-2" d="M-159.33-385.01h9v9h-9z"/></clipPath><clipPath id="clip-path-40"><path class="cls-1" d="M-130.33-386.51h-1.5v12h12v-12h-10.5zm0 3h9l-1.5-1.5v9l1.5-1.5h-9l1.5 1.5v-9zm-21.5-23h52v52h-52z"/></clipPath><clipPath id="clip-path-41"><path class="cls-2" d="M-130.33-385.01h9v9h-9z"/></clipPath><clipPath id="clip-path-43"><path class="cls-2" d="M390.26-139.88h53.51v88.33h-53.51z"/></clipPath><clipPath id="clip-path-45"><path class="cls-2" d="M397.9-116.1h37.37v11.04H397.9z"/></clipPath><clipPath id="clip-path-46"><path class="cls-2" d="M397.9-107.61h37.37v11.04H397.9z"/></clipPath><clipPath id="clip-path-47"><path class="cls-2" d="M397.9-99.12h37.37v11.04H397.9z"/></clipPath><clipPath id="clip-path-48"><path class="cls-2" d="M397.9-90.62h37.37v11.89H397.9z"/></clipPath><clipPath id="clip-path-49"><path class="cls-2" d="M397.9-81.28h37.37v11.89H397.9z"/></clipPath><clipPath id="clip-path-50"><path class="cls-2" d="M397.9-71.94h37.37v11.89H397.9z"/></clipPath><clipPath id="clip-path-51"><path class="cls-2" d="M398.75-131.39h2.55v11.04h-2.55z"/></clipPath><clipPath id="clip-path-52"><path class="cls-2" d="M403-131.39h2.55v11.04H403z"/></clipPath><clipPath id="clip-path-53"><path class="cls-2" d="M407.25-131.39h2.55v11.04h-2.55z"/></clipPath><clipPath id="clip-path-54"><path class="cls-2" d="M411.49-131.39h2.55v11.04h-2.55z"/></clipPath><clipPath id="clip-path-55"><path class="cls-2" d="M415.74-131.39h2.55v11.04h-2.55z"/></clipPath><clipPath id="clip-path-56"><path class="cls-2" d="M415.74-88.08h2.55v27.18h-2.55z"/></clipPath><clipPath id="clip-path-57"><path class="cls-2" d="M419.99-131.39h2.55v11.04h-2.55z"/></clipPath><clipPath id="clip-path-58"><path class="cls-2" d="M424.23-131.39h2.55v11.04h-2.55z"/></clipPath><clipPath id="clip-path-59"><path class="cls-2" d="M428.48-131.39h2.55v11.04h-2.55z"/></clipPath><clipPath id="clip-path-60"><path class="cls-2" d="M432.73-131.39h2.55v11.04h-2.55z"/></clipPath><clipPath id="clip-path-61"><circle class="cls-2" cx="451.41" cy="-63.44" r="26.33"/></clipPath><clipPath id="clip-path-63"><circle class="cls-2" cx="138" cy="-88.5" r="50.5"/></clipPath><clipPath id="clip-path-64"><circle class="cls-2" cx="138" cy="-88.5" r="43.5"/></clipPath><clipPath id="clip-path-65"><path class="cls-3" d="M-520.75 70.33h109.48l9.81 9.65v18.51h-119.29V70.33z"/></clipPath><clipPath id="clip-path-66"><circle class="cls-2" cx="432.16" cy="68.5" r="50.5"/></clipPath><clipPath id="clip-path-67"><circle class="cls-2" cx="432.16" cy="68.5" r="43.5"/></clipPath></defs><title>EXPERIENTIAL ICONS 2 (2)</title><path class="cls-53" d="M-520.75 70.33h109.48l9.81 9.65v18.51h-119.29V70.33z"/><g class="cls-54"><path class="cls-55" d="M-840.01-360.18h962.06v828.83h-962.06z"/><path class="cls-56" d="M-840.01-360.18h962.06v828.83h-962.06z"/></g><path class="cls-57" d="M-520.75 70.33h109.48l9.81 9.65v18.51h-119.29V70.33z"/><path class="cls-58" d="M185.21 53.57h-23.12l-7.07-15.41h-34.68l-6.9 15.41H90.79V34.3l24.41-10.79h44.96l25.05 14v16.06z"/><path class="cls-59" d="M166.14 85.91l-7.59-.26 3.81-3.19a1.8 1.8 0 0 0-2.3-2.75l-6.86 5.78-7.75-.27-1.91-3.35 3.77-6.25 9.38-2.16a1.79 1.79 0 1 0-.8-3.5l-6 1.38 4.11-6.78a2.08 2.08 0 0 0-3.57-2.14l-4.09 6.78-1.58-6a1.79 1.79 0 0 0-3.47.91l2.48 9.32-3.77 6.29-3.85-.12-3.5-6.12 1.64-9.77a1.79 1.79 0 1 0-3.54-.59l-.91 5.43-4-6.95a2.13 2.13 0 0 0-2.81-.84 2 2 0 0 0-.78 2.75l4.46 7.82-6.4-1.22a1.79 1.79 0 0 0-.67 3.53l9.4 1.79 3.47 6.07-2 3.23-7.13-.24-7.24-6.26a1.79 1.79 0 1 0-2.35 2.71l3.89 3.37-7.8-.31a2 2 0 0 0-2.07 2 2.07 2.07 0 0 0 1 1.79 2 2 0 0 0 1 .3l9.58.32-4.52 5.1a1.8 1.8 0 1 0 2.69 2.38l6.47-7.32 6.47.21 1.92 3.35-4.09 6.87-9.38 2.17a1.79 1.79 0 1 0 .8 3.49l6-1.38-3.75 6.17a2.08 2.08 0 0 0 3.57 2.14l3.72-6.16 1.57 5.94a1.8 1.8 0 0 0 1.73 1.34 1.56 1.56 0 0 0 .46-.07 1.8 1.8 0 0 0 1.28-2.19l-2.47-9.32L136 94.3l3.86.14 3.42 6-1.83 9.12a1.79 1.79 0 0 0 1.4 2.11 1.53 1.53 0 0 0 .36 0 1.81 1.81 0 0 0 1.76-1.44l1-5.09 4.13 7.25a2.15 2.15 0 0 0 .75.77 2.12 2.12 0 0 0 2.07.07 2 2 0 0 0 .77-2.75l-4.8-8.41 6.68 1.48a1.79 1.79 0 1 0 .77-3.5l-9.84-2.18-3.07-5.38 1.94-3.23 6.61.23 6.87 7.85A1.79 1.79 0 0 0 161.6 95l-4.65-5.33 9.17.3a2 2 0 0 0 2.07-2 2.11 2.11 0 0 0-2.05-2.06zm-23.39 3.29l-.61 1-1.21 2-2.37-.09h-1.18L135 92l-1.18-2.07-.59-1-1.23-2.11 1.2-2 .61-1 1.19-2 2.39.08h1.18l2.43.1 1.19 2.07.58 1L144 87.2z"/><path class="cls-60" d="M143.95 87.2l-1.2 2-.61.99-1.2 2-2.37-.09-1.18-.04-2.4-.08-1.17-2.06-.6-1.04-1.18-2.06 1.2-2 .61-1 1.19-1.98 2.39.08 1.18.04 2.39.08 1.18 2.06.58 1.04 1.19 2.06z"/></svg>