<svg xmlns="http://www.w3.org/2000/svg" viewBox="0 0 276 137"><g data-name="Layer 1"><path fill="#fff" stroke="#091f2f" stroke-miterlimit="10" stroke-width="3" d="M138.14 35.79h37.15v77.93h-37.15z"/><path fill="#fff" stroke="#091f2f" stroke-miterlimit="10" stroke-width="3.23" d="M100.64 23.29h37.15v90.43h-37.15z"/><path fill="#091f2f" d="M138.21 35.79h37.15v19.6h-37.15z"/><path fill="none" stroke="#fff" stroke-miterlimit="10" stroke-width="2" d="M144.41 57.38v-21.6m8.2 21.6v-21.6m8.2 21.6v-21.6m8.21 21.6v-21.6"/><path fill="#091f2f" d="M100.71 23.29h37.15v19.6h-37.15z"/><path fill="none" stroke="#fff" stroke-miterlimit="10" stroke-width="2" d="M106.91 44.88V23.29m8.2 21.59V23.29m8.2 21.59V23.29m8.21 21.59V23.29"/><path fill="#091f2f" d="M105.04 50.47h28.5v3.5h-28.5zm0 8.83h28.5v3.5h-28.5zm0 8.83h28.5v3.5h-28.5zm0 8.84h28.5v3.5h-28.5zm0 8.83h28.5v3.5h-28.5zm0 8.83h28.5v3.5h-28.5zm0 8.84h28.5v3.5h-28.5zm37.49-44.17h28.5v3.5h-28.5zm0 8.83h28.5v3.5h-28.5zm0 8.84h28.5v3.5h-28.5zm0 8.83h28.5v3.5h-28.5zm0 8.83h28.5v3.5h-28.5zm0 8.84h28.5v3.5h-28.5z"/></g></svg>