<svg id="Layer_1" data-name="Layer 1" xmlns="http://www.w3.org/2000/svg" viewBox="0 0 276 137"><defs><style>.cls-1{fill:none}.cls-2{clip-path:url(#clip-path)}.cls-3{clip-path:url(#clip-path-3)}.cls-4{clip-path:url(#clip-path-4)}.cls-5{clip-path:url(#clip-path-5)}.cls-6{clip-path:url(#clip-path-6)}.cls-7{clip-path:url(#clip-path-7)}.cls-8{clip-path:url(#clip-path-8)}.cls-9{clip-path:url(#clip-path-9)}.cls-10{clip-path:url(#clip-path-10)}.cls-11{clip-path:url(#clip-path-11)}.cls-12{clip-path:url(#clip-path-12)}.cls-13{clip-path:url(#clip-path-13)}.cls-14{clip-path:url(#clip-path-14)}.cls-15{clip-path:url(#clip-path-15)}.cls-16{clip-path:url(#clip-path-16)}.cls-17{clip-path:url(#clip-path-17)}.cls-18{clip-path:url(#clip-path-18)}.cls-19{clip-path:url(#clip-path-19)}.cls-20{fill:#0c1f2e}.cls-21,.cls-22{fill:#fff}.cls-22{stroke:#0e1f2d;stroke-linecap:round;stroke-miterlimit:10;stroke-width:3.77px}.cls-23{clip-path:url(#clip-path-21)}.cls-24{clip-path:url(#clip-path-22)}.cls-25{clip-path:url(#clip-path-23)}.cls-26{clip-path:url(#clip-path-24)}.cls-27{clip-path:url(#clip-path-25)}.cls-28{clip-path:url(#clip-path-26)}</style><clipPath id="clip-path"><path class="cls-1" d="M-497.74 17.12h53.51v88.33h-53.51z"/></clipPath><clipPath id="clip-path-3"><path class="cls-1" d="M-490.1 40.9h37.37v11.04h-37.37z"/></clipPath><clipPath id="clip-path-4"><path class="cls-1" d="M-490.1 49.39h37.37v11.04h-37.37z"/></clipPath><clipPath id="clip-path-5"><path class="cls-1" d="M-490.1 57.88h37.37v11.04h-37.37z"/></clipPath><clipPath id="clip-path-6"><path class="cls-1" d="M-490.1 66.38h37.37v11.89h-37.37z"/></clipPath><clipPath id="clip-path-7"><path class="cls-1" d="M-490.1 75.72h37.37v11.89h-37.37z"/></clipPath><clipPath id="clip-path-8"><path class="cls-1" d="M-490.1 85.06h37.37v11.89h-37.37z"/></clipPath><clipPath id="clip-path-9"><path class="cls-1" d="M-489.25 25.61h2.55v11.04h-2.55z"/></clipPath><clipPath id="clip-path-10"><path class="cls-1" d="M-485 25.61h2.55v11.04H-485z"/></clipPath><clipPath id="clip-path-11"><path class="cls-1" d="M-480.75 25.61h2.55v11.04h-2.55z"/></clipPath><clipPath id="clip-path-12"><path class="cls-1" d="M-476.51 25.61h2.55v11.04h-2.55z"/></clipPath><clipPath id="clip-path-13"><path class="cls-1" d="M-472.26 25.61h2.55v11.04h-2.55z"/></clipPath><clipPath id="clip-path-14"><path class="cls-1" d="M-472.26 68.92h2.55V96.1h-2.55z"/></clipPath><clipPath id="clip-path-15"><path class="cls-1" d="M-468.01 25.61h2.55v11.04h-2.55z"/></clipPath><clipPath id="clip-path-16"><path class="cls-1" d="M-463.77 25.61h2.55v11.04h-2.55z"/></clipPath><clipPath id="clip-path-17"><path class="cls-1" d="M-459.52 25.61h2.55v11.04h-2.55z"/></clipPath><clipPath id="clip-path-18"><path class="cls-1" d="M-455.27 25.61h2.55v11.04h-2.55z"/></clipPath><clipPath id="clip-path-19"><circle class="cls-1" cx="-436.59" cy="93.56" r="26.33"/></clipPath><clipPath id="clip-path-21"><circle class="cls-1" cx="-750" cy="68.5" r="50.5"/></clipPath><clipPath id="clip-path-22"><circle class="cls-1" cx="-750" cy="68.5" r="43.5"/></clipPath><clipPath id="clip-path-23"><circle class="cls-1" cx="-455.84" cy="225.5" r="50.5"/></clipPath><clipPath id="clip-path-24"><circle class="cls-1" cx="-455.84" cy="225.5" r="43.5"/></clipPath><clipPath id="clip-path-25"><circle class="cls-1" cx="138" cy="225.5" r="50.5"/></clipPath><clipPath id="clip-path-26"><circle class="cls-1" cx="138" cy="225.5" r="43.5"/></clipPath></defs><title>EXPERIENTIAL ICONS 2 (2)</title><path class="cls-20" d="M99 46v19h66V46zm17 16h-7v-8.59a3.47 3.47 0 0 1 3.07-3.41h2c1.5 0 2 1.63 2 3.41zm14 0h-8v-8.59a3.56 3.56 0 0 1 3.17-3.41h1.95c1.5 0 2.88 1.63 2.88 3.41zm12 0h-7v-8.59a3.64 3.64 0 0 1 3.27-3.41h1.94c1.51 0 1.79 1.63 1.79 3.41zm13 0h-7v-8.59a3.73 3.73 0 0 1 3.28-3.41h1.94c1.51 0 1.78 1.63 1.78 3.41z"/><path class="cls-21" d="M155 53.41V62h-7v-8.59a3.73 3.73 0 0 1 3.28-3.41h1.94c1.51 0 1.78 1.63 1.78 3.41zM142 53.41V62h-7v-8.59a3.64 3.64 0 0 1 3.27-3.41h1.94c1.51 0 1.79 1.63 1.79 3.41zM130 53.41V62h-8v-8.59a3.56 3.56 0 0 1 3.17-3.41h1.95c1.5 0 2.88 1.63 2.88 3.41zM116 53.41V62h-7v-8.59a3.47 3.47 0 0 1 3.07-3.41h2c1.45 0 1.93 1.63 1.93 3.41z"/><path class="cls-20" d="M99 68v19h66V68zm17 15h-7v-8.54a3.52 3.52 0 0 1 3.07-3.46h2c1.5 0 2 1.68 2 3.46zm14 0h-8v-8.54a3.61 3.61 0 0 1 3.17-3.46h1.95c1.5 0 2.88 1.68 2.88 3.46zm12 0h-7v-8.54a3.69 3.69 0 0 1 3.27-3.46h1.94c1.51 0 1.79 1.68 1.79 3.46zm13 0h-7v-8.54a3.78 3.78 0 0 1 3.28-3.46h1.94c1.51 0 1.78 1.78 1.78 3.46z"/><path class="cls-21" d="M116 74.46V83h-7v-8.54a3.52 3.52 0 0 1 3.07-3.46h2c1.45 0 1.93 1.68 1.93 3.46zM130 74.46V83h-8v-8.54a3.61 3.61 0 0 1 3.17-3.46h1.95c1.5 0 2.88 1.68 2.88 3.46zM142 74.46V83h-7v-8.54a3.69 3.69 0 0 1 3.27-3.46h1.94c1.51 0 1.79 1.68 1.79 3.46zM155 74.46V83h-7v-8.54a3.78 3.78 0 0 1 3.28-3.46h1.94c1.51 0 1.78 1.78 1.78 3.46z"/><path class="cls-20" d="M165.44 42l-24-12.78v-8.59a6.94 6.94 0 0 0-6.73-6.91h-4.34a6.81 6.81 0 0 0-6.64 6.91v8.27L98.89 42zM99 89v19h66V89zm17 16h-7v-9a3.11 3.11 0 0 1 3.07-3h2c1.5 0 2 1.36 2 3zm14 0h-8v-9a3.2 3.2 0 0 1 3.17-3h1.95a3 3 0 0 1 2.88 3zm12 0h-7v-9a3.28 3.28 0 0 1 3.27-3h1.94c1.51 0 1.79 1.36 1.79 3zm13 0h-7v-9a3.35 3.35 0 0 1 3.28-3h1.94c1.51 0 1.78 1.36 1.78 3z"/><path class="cls-21" d="M142 96v9h-7v-9a3.28 3.28 0 0 1 3.27-3h1.94c1.51 0 1.79 1.36 1.79 3zM130 96v9h-8v-9a3.2 3.2 0 0 1 3.17-3h1.95a3 3 0 0 1 2.88 3zM116 96v9h-7v-9a3.11 3.11 0 0 1 3.07-3h2c1.45 0 1.93 1.36 1.93 3z"/><circle class="cls-22" cx="157.62" cy="103.78" r="19.5"/><path class="cls-20" d="M160.12 107.53h-5v-2.46a4.58 4.58 0 0 1 .34-2 8.7 8.7 0 0 1 1.46-1.82l2.23-2.29a2.3 2.3 0 0 0 .49-1.52 2.33 2.33 0 0 0-.52-1.56 1.71 1.71 0 0 0-1.38-.62 1.74 1.74 0 0 0-1.43.74 3.77 3.77 0 0 0-.7 1.95h-5.21a7.87 7.87 0 0 1 2.39-5.14 8.06 8.06 0 0 1 10.07-.2 5.81 5.81 0 0 1 1.92 4.62 4.45 4.45 0 0 1-.33 1.95q-.33.64-.46.92a4.48 4.48 0 0 1-.61.84q-.48.56-.64.72l-1.49 1.47a5 5 0 0 0-.93 1.13 3 3 0 0 0-.23 1.33zM155.57 115.81a2.93 2.93 0 1 1 2 .84 2.78 2.78 0 0 1-2-.84z"/></svg>