<svg id="Layer_1" data-name="Layer 1" xmlns="http://www.w3.org/2000/svg" viewBox="0 0 276 137"><defs><style>.cls-1{fill:none}.cls-6{fill:#fff;stroke:#0e1f2d;stroke-linecap:round;stroke-miterlimit:10;stroke-width:3px}.cls-7{fill:#0c1f2e}</style><clipPath id="clip-path"><circle class="cls-1" cx="-751.84" cy="68.5" r="50.5"/></clipPath><clipPath id="clip-path-2"><circle class="cls-1" cx="-751.84" cy="68.5" r="43.5"/></clipPath><clipPath id="clip-path-3"><circle class="cls-1" cx="-158" cy="68.5" r="50.5"/></clipPath><clipPath id="clip-path-4"><circle class="cls-1" cx="-158" cy="68.5" r="43.5"/></clipPath></defs><path class="cls-6" d="M118.81 121.61a12.5 12.5 0 1 1 12.5-12.5 12.51 12.51 0 0 1-12.5 12.5zm0-16.83a4.33 4.33 0 1 0 4.33 4.33 4.33 4.33 0 0 0-4.33-4.32z"/><path class="cls-6" d="M177 26s-60.89-.19-64.41 0H99v4.7h13.81l5 61.34c10.14 0 18.37 6.14 18.37 16.28a18.31 18.31 0 0 1-1.41 7.06h25.52l8.63-8.09zm-8.5-10.61h-47l-6.58 6.32h60.16l-6.58-6.32z"/><path class="cls-7" d="M140.33 70.05l-.16 4.57h-10.75l-3-3a.37.37 0 0 1 .18-.63l4.7-1z"/><path class="cls-7" d="M136.53 64.81l-3.2-1.19-4.11 10.58a.12.12 0 0 1-.19 0l-3.38-3.2 3.35-9-3.2-1.19 8.81-7.29zm19.75-3.5l4.33-1.45 3.74 10.08-1.73 3.91a.37.37 0 0 1-.65 0l-2.57-4.06z"/><path class="cls-7" d="M152.7 66.72v3.42l11.35.13a.12.12 0 0 1 .11.16l-1.82 4.3h-9.62v3.41l-9.92-5.69zM139.7 53l-3.7-2.68 6-9 4.17-.9a.37.37 0 0 1 .42.5l-1.77 4.46z"/><path class="cls-7" d="M146.17 52.67l2.76-2-6.58-9.25a.12.12 0 0 1 .07-.18l4.58-1.07 5.69 7.76 2.75-2 1.24 11.37z"/></svg>