<svg xmlns="http://www.w3.org/2000/svg" viewBox="0 0 276 137"><g stroke="#0C1F2E" stroke-width="3" stroke-linecap="round" stroke-miterlimit="10"><path fill="#FFF" d="M81.8 30.3h91v85.5h-91z"/><path fill="none" d="M81.8 44.8h91m-84.5 7.1h14.3v14.3H88.3zm21.3 0h14.3v14.3h-14.3zm21.2 0h14.3v14.3h-14.3zm21.2 0h14.3v14.3H152z"/><path fill="#0C1F2E" d="M88.3 72.4h14.3v14.3H88.3zm21.3 0h14.3v14.3h-14.3z"/><path fill="none" d="M130.8 72.4h14.3v14.3h-14.3zm21.2 0h14.3v14.3H152zM88.3 92.9h14.3v14.3H88.3zm21.3 0h14.3v14.3h-14.3zm21.2 0h14.3v14.3h-14.3z"/></g><path fill="#FFF" stroke="#0C1F2E" stroke-width="3" stroke-linecap="round" stroke-miterlimit="10" d="M130.7 72.2h77.5v35h-77.5z"/><circle fill="#FFF" stroke="#0C1F2E" stroke-width="3" stroke-linecap="round" stroke-miterlimit="10" cx="170.7" cy="89.7" r="17.5"/><path fill="#0C1F2E" d="M169.8 97v-1.7c-1.2-.1-2.4-.4-3.1-.8l.5-2.1c.8.4 1.8.8 3 .8 1 0 1.7-.4 1.7-1.1 0-.7-.6-1.1-1.9-1.6-1.9-.7-3.3-1.6-3.3-3.3 0-1.6 1.1-2.8 3.1-3.2v-1.7h1.8v1.6c1.2.1 2 .3 2.6.6l-.5 2c-.5-.2-1.3-.6-2.6-.6-1.2 0-1.6.5-1.6 1 0 .6.6 1 2.2 1.6 2.2.8 3 1.8 3 3.4 0 1.6-1.1 3-3.2 3.3V97h-1.7z"/></svg>