<svg xmlns="http://www.w3.org/2000/svg" xmlns:xlink="http://www.w3.org/1999/xlink" viewBox="0 0 276 137"><defs><path id="a" d="M-158-349.5c-29.3 0-53-23.7-53-53s23.7-53 53-53 53 23.7 53 53-23.7 53-53 53zm0 3c30.9 0 56-25.1 56-56s-25.1-56-56-56-56 25.1-56 56 25.1 56 56 56z"/></defs><clipPath id="b"><use xlink:href="#a" overflow="visible"/></clipPath><g clip-path="url(#b)"><defs><circle id="c" cx="-158" cy="-402.5" r="54.5"/></defs></g><defs><circle id="d" cx="-158" cy="-402.5" r="54.5"/></defs><defs><path id="e" d="M-158-370.5c-17.7 0-32-14.3-32-32s14.3-32 32-32 32 14.3 32 32-14.3 32-32 32zm0 3c19.3 0 35-15.7 35-35s-15.7-35-35-35-35 15.7-35 35 15.7 35 35 35zm-55-90h110v110h-110v-110z"/></defs><clipPath id="f"><use xlink:href="#e" overflow="visible"/></clipPath><g clip-path="url(#f)"><defs><circle id="g" cx="-158" cy="-402.5" r="33.5"/></defs></g><defs><circle id="h" cx="-158" cy="-402.5" r="33.5"/></defs><defs><path id="i" d="M-159.5-456.5h-1.5v13h6v-13h-4.5zm0 3h3l-1.5-1.5v10l1.5-1.5h-3l1.5 1.5v-10l-1.5 1.5z"/></defs><clipPath id="j"><use xlink:href="#i" overflow="visible"/></clipPath><g clip-path="url(#j)"><defs><path id="k" d="M-159.5-455h3v10h-3z"/></defs></g><defs><path id="l" d="M-159.5-455h3v10h-3z"/></defs><defs><path id="m" d="M-213.5-400.5v1.5h13v-6h-13v4.5zm3 0v-3l-1.5 1.5h10l-1.5-1.5v3l1.5-1.5h-10l1.5 1.5z"/></defs><clipPath id="n"><use xlink:href="#m" overflow="visible"/></clipPath><g clip-path="url(#n)"><defs><path id="o" d="M-212-403.5h10v3h-10z"/></defs></g><defs><path id="p" d="M-212-403.5h10v3h-10z"/></defs><defs><path id="q" d="M-116.5-400.5v1.5h13v-6h-13v4.5zm3 0v-3l-1.5 1.5h10l-1.5-1.5v3l1.5-1.5h-10l1.5 1.5z"/></defs><clipPath id="r"><use xlink:href="#q" overflow="visible"/></clipPath><g clip-path="url(#r)"><defs><path id="s" d="M-115-403.5h10v3h-10z"/></defs></g><defs><path id="t" d="M-115-403.5h10v3h-10z"/></defs><defs><path id="u" d="M-127.5-430.3l1.1 1.1 1.1-1.1 7.1-7.1 1.1-1.1-1.1-1.1-2.1-2.1-1.1-1.1-1.1 1.1-7.1 7.1-1.1 1.1 1.1 1.1 2.1 2.1zm2.1-2.2l-2.1-2.1v2.1l7.1-7.1h-2.1l2.1 2.1v-2.1l-7.1 7.1h2.1z"/></defs><clipPath id="v"><use xlink:href="#u" overflow="visible"/></clipPath><g clip-path="url(#v)"><defs><path id="w" transform="rotate(45.001 -124.006 -436)" d="M-125.5-441h3v10h-3z"/></defs></g><defs><path id="x" transform="rotate(45.001 -124.006 -436)" d="M-125.5-441h3v10h-3z"/></defs><defs><path id="y" d="M-187.3-431.5l1.1-1.1-1.1-1.1-7.1-7.1-1.1-1.1-1.1 1.1-2.1 2.1-1.1 1.1 1.1 1.1 7.1 7.1 1.1 1.1 1.1-1.1 2.1-2.1zm-2.2-2.1l-2.1 2.1h2.1l-7.1-7.1v2.1l2.1-2.1h-2.1l7.1 7.1v-2.1z"/></defs><clipPath id="z"><use xlink:href="#y" overflow="visible"/></clipPath><g clip-path="url(#z)"><defs><path id="A" transform="rotate(-45.001 -192.996 -435.005)" d="M-194.5-440h3v10h-3z"/></defs></g><defs><path id="B" transform="rotate(-45.001 -192.996 -435.005)" d="M-194.5-440h3v10h-3z"/></defs><defs><path id="C" d="M-127.5-374.7l1.1-1.1 1.1 1.1 7.1 7.1 1.1 1.1-1.1 1.1-2.1 2.1-1.1 1.1-1.1-1.1-7.1-7.1-1.1-1.1 1.1-1.1 2.1-2.1zm2.1 2.2l-2.1 2.1v-2.1l7.1 7.1h-2.1l2.1-2.1v2.1l-7.1-7.1h2.1z"/></defs><clipPath id="D"><use xlink:href="#C" overflow="visible"/></clipPath><g clip-path="url(#D)"><defs><path id="E" transform="rotate(-45.001 -123.996 -369.003)" d="M-125.5-374h3v10h-3z"/></defs></g><defs><path id="F" transform="rotate(-45.001 -123.996 -369.003)" d="M-125.5-374h3v10h-3z"/></defs><defs><path id="G" d="M-187.3-371.5l1.1 1.1-1.1 1.1-7.1 7.1-1.1 1.1-1.1-1.1-2.1-2.1-1.1-1.1 1.1-1.1 7.1-7.1 1.1-1.1 1.1 1.1 2.1 2.1zm-2.2 2.1l-2.1-2.1h2.1l-7.1 7.1v-2.1l2.1 2.1h-2.1l7.1-7.1v2.1z"/></defs><clipPath id="H"><use xlink:href="#G" overflow="visible"/></clipPath><g clip-path="url(#H)"><defs><path id="I" transform="rotate(45.001 -193.005 -368)" d="M-194.5-373h3v10h-3z"/></defs></g><defs><path id="J" transform="rotate(45.001 -193.005 -368)" d="M-194.5-373h3v10h-3z"/></defs><defs><path id="K" d="M-148.4-423.1c.7.3 1.5.6 2.2 1 1.3.7 2.5 1.6 3.6 2.4.4.3.7.6 1 .9.2.2.3.3.4.3l1.6 1.6-.3-2.2-2.1-14.7-.2-1.2-1 .6-12.3 8-1.8 1.2 2.1.2c.1 0 .3 0 .5.1.4.1.9.2 1.5.3 1.4.3 3.1.8 4.8 1.5zm7.5 4c-.1-.1-.4-.3-.7-.6l.1.9.6-.3zm0-1l.1.9.6-.3-.4-.4c-.1 0-.2-.1-.3-.2zm-1.9-13.1v.3l.3-.2-.3-.1zm-.8 0l.3-.2-.3-.2v.4zm-11.4 7.4l.7-.5h-.3c-.3 0-.5-.1-.6-.1l.2.6zm.9.3c-.4-.1-.7-.1-.9-.1l.1.6.8-.5z"/></defs><defs><path id="L" d="M-148.2-423.8c-3.9-1.6-7.1-1.9-7.1-1.9l12.3-8 2.1 14.7c.2.1-3.1-3.1-7.3-4.8zm-25-11.1l37.2-15.8 15.8 37.2-37.2 15.8-15.8-37.2z"/></defs><defs><path id="M" d="M-158-378.5c-13.3 0-24-10.7-24-24s10.7-24 24-24 24 10.7 24 24-10.7 24-24 24zm0 3c14.9 0 27-12.1 27-27s-12.1-27-27-27-27 12.1-27 27 12.1 27 27 27zm-47-74h94v94h-94v-94z"/></defs><clipPath id="N"><use xlink:href="#M" overflow="visible"/></clipPath><g clip-path="url(#N)"><defs><circle id="O" cx="-158" cy="-402.5" r="25.5"/></defs></g><defs><circle id="P" cx="-158" cy="-402.5" r="25.5"/></defs><defs><path id="Q" d="M132.2-463.5h-1.5v18h19v-18h-17.5zm0 3h16l-1.5-1.5v15l1.5-1.5h-16l1.5 1.5v-15l-1.5 1.5z"/></defs><clipPath id="R"><use xlink:href="#Q" overflow="visible"/></clipPath><g clip-path="url(#R)"><defs><path id="S" d="M132.2-462h16v15h-16z"/></defs></g><defs><path id="T" d="M132.2-462h16v15h-16z"/></defs><defs><path id="U" d="M108.2-451.5h-1.5v43h67v-43h-65.5zm0 3h64l-1.5-1.5v40l1.5-1.5h-64l1.5 1.5v-40l-1.5 1.5z"/></defs><clipPath id="V"><use xlink:href="#U" overflow="visible"/></clipPath><g clip-path="url(#V)"><defs><path id="W" d="M108.2-450h64v40h-64z"/></defs></g><defs><path id="X" d="M108.2-450h64v40h-64z"/></defs><defs><path id="Y" d="M143.2-441.5h-1.5v33h22v-33h-20.5zm0 3h19l-1.5-1.5v30l1.5-1.5h-19l1.5 1.5v-30l-1.5 1.5z"/></defs><clipPath id="Z"><use xlink:href="#Y" overflow="visible"/></clipPath><g clip-path="url(#Z)"><defs><path id="aa" d="M143.2-440h19v30h-19z"/></defs></g><defs><path id="ab" d="M143.2-440h19v30h-19z"/></defs><defs><path id="ac" d="M118.2-441.5h-1.5v33h22v-33h-20.5zm0 3h19l-1.5-1.5v30l1.5-1.5h-19l1.5 1.5v-30l-1.5 1.5z"/></defs><clipPath id="ad"><use xlink:href="#ac" overflow="visible"/></clipPath><g clip-path="url(#ad)"><defs><path id="ae" d="M118.2-440h19v30h-19z"/></defs></g><defs><path id="af" d="M118.2-440h19v30h-19z"/></defs><defs><path id="ag" d="M87.7-383.3c0 2.9-.8 7-2.3 11.9-.6 2.1-1.3 4.3-2.1 6.5-1 2.7-2 5.4-3.1 8-.4.9-.7 1.7-1 2.4-.2.4-.3.7-.4.9l-.9 2.1h119.4l-.7-2c-.1-.2-.2-.4-.3-.9-.2-.7-.5-1.5-.8-2.4-.8-2.5-1.6-5.2-2.4-7.9-.7-2.4-1.3-4.8-1.8-7-1.1-4.8-1.7-8.8-1.7-11.8 0-2.8.7-7 1.9-12 .5-1.9 1-3.9 1.6-6 .8-2.7 1.6-5.4 2.4-7.9.3-.9.5-1.7.8-2.4.1-.4.2-.7.3-.9l.7-2H77.9l1 2.1c.1.1.2.4.4.9.3.7.6 1.5 1 2.4 1 2.5 2.1 5.1 3.1 7.8.8 2.2 1.5 4.4 2.1 6.4 1.4 5 2.2 9 2.2 11.8zm3 0c0-3.2-.9-7.5-2.4-12.5-.6-2.1-1.4-4.3-2.2-6.5-1-2.7-2.1-5.4-3.1-8-.4-.9-.7-1.7-1-2.4-.2-.4-.3-.7-.4-.9l-1.4 2.1h115l-1.4-2c-.1.2-.2.5-.3.9-.2.7-.5 1.5-.8 2.4-.8 2.6-1.7 5.3-2.4 8-.6 2.1-1.1 4.1-1.6 6.1-1.3 5.2-2 9.5-2 12.7 0 3.2.6 7.4 1.7 12.4.5 2.3 1.1 4.7 1.8 7.1.8 2.8 1.6 5.5 2.4 8.1.3.9.6 1.7.8 2.4.1.4.2.7.3.9l1.4-2h-115l1.4 2.1c.1-.2.2-.5.4-.9.3-.7.7-1.5 1-2.4 1.1-2.6 2.1-5.3 3.1-8.1.8-2.3 1.6-4.5 2.2-6.7 1.7-5.2 2.5-9.5 2.5-12.8z"/></defs><clipPath id="ah"><use xlink:href="#ag" overflow="visible"/></clipPath><g clip-path="url(#ah)"><defs><path id="ai" d="M89.2-383.3c0-9.9-9-29.7-9-29.7h115s-7 20-7 29.6c0 10.5 7 30.4 7 30.4h-115s9-20.2 9-30.3z"/></defs></g><defs><path id="aj" d="M89.2-383.3c0-9.9-9-29.7-9-29.7h115s-7 20-7 29.6c0 10.5 7 30.4 7 30.4h-115s9-20.2 9-30.3z"/></defs><defs><path id="ak" d="M103.2-382.5h-1.5v6h72v-6h-70.5zm0 3h69l-1.5-1.5v3l1.5-1.5h-69l1.5 1.5v-3l-1.5 1.5zm-21.5-23h112v46h-112v-46z"/></defs><clipPath id="al"><use xlink:href="#ak" overflow="visible"/></clipPath><g clip-path="url(#al)"><defs><path id="am" d="M103.2-381h69v3h-69z"/></defs></g><defs><path id="an" d="M103.2-381h69v3h-69z"/></defs><defs><path id="ao" d="M103.2-390.5h-1.5v6h72v-6h-70.5zm0 3h69l-1.5-1.5v3l1.5-1.5h-69l1.5 1.5v-3l-1.5 1.5zm-21.5-23h112v46h-112v-46z"/></defs><clipPath id="ap"><use xlink:href="#ao" overflow="visible"/></clipPath><g clip-path="url(#ap)"><defs><path id="aq" d="M103.2-389h69v3h-69z"/></defs></g><defs><path id="ar" d="M103.2-389h69v3h-69z"/></defs><defs><path id="as" d="M135.2-375.1l.5 1.6 1.5-.7c2-.9 4.2-1.3 6.4-1.3 6 0 11.3 3.3 14.1 8.4l.5 1 1.1-.2c.6-.1 1.2-.2 1.8-.2 3.5 0 6.6 2.1 7.9 5.3l.5 1.2 1.3-.3c.4-.1.9-.2 1.4-.2 3 0 5.5 2.5 5.5 5.5s-2.5 5.5-5.5 5.5c-1.5 0-2.9-.6-3.9-1.6l-.9-.9-1 .8c-1.5 1.1-3.3 1.7-5.1 1.7-1.1 0-2.2-.2-3.2-.6l-1-.4-.7.9c-3 3.8-7.6 6.1-12.6 6.1-4.9 0-9.5-2.3-12.5-6l-.7-.8-1 .3c-1.1.4-2.2.5-3.3.5-2 0-4-.6-5.7-1.7l-.8-.5-.8.5c-1.7 1.1-3.6 1.7-5.7 1.7-2.2 0-4.3-.7-6-1.9l-1.1-.7-.9.9c-1 1.1-2.5 1.7-4 1.7-3 0-5.5-2.5-5.5-5.5s2.5-5.5 5.5-5.5h1.4l.2-1.3c.8-5 5.2-8.7 10.4-8.7h1.5v-1.5c0-5.8 4.7-10.5 10.5-10.5 4.6 0 8.6 3 9.9 7.4zm2.9-.9c-1.7-5.6-6.9-9.5-12.9-9.5-7.5 0-13.5 6-13.5 13.5l1.5-1.5c-6.6 0-12.2 4.8-13.3 11.3l1.5.2v-1.5h-.2c-4.7 0-8.5 3.8-8.5 8.5s3.8 8.5 8.5 8.5c2.4 0 4.6-1 6.2-2.7l-2 .2c2.3 1.6 5 2.5 7.8 2.5 2.6 0 5.2-.8 7.3-2.2h-1.6c2.2 1.4 4.7 2.2 7.3 2.2 1.5 0 2.9-.2 4.3-.7l-.5-1.4-1.2.9c3.6 4.5 9 7.2 14.9 7.2s11.4-2.7 15-7.3l-1.2-.9-.6 1.4c1.3.5 2.8.8 4.3.8 2.6 0 5-.8 7-2.4l-2-.1c1.6 1.6 3.7 2.5 6 2.5 4.7 0 8.5-3.8 8.5-8.5s-3.8-8.5-8.5-8.5c-.7 0-1.4.1-2.1.3l.4 1.5 1.4-.6c-1.8-4.3-5.9-7.2-10.6-7.2-.8 0-1.6.1-2.4.2l.3 1.5 1.3-.7c-3.3-6.1-9.7-10-16.7-10-2.7 0-5.2.5-7.6 1.6l1.9.9zm-65.4-29.5h128v85h-128v-85z"/></defs><clipPath id="at"><use xlink:href="#as" overflow="visible"/></clipPath><g clip-path="url(#at)"><defs><path id="au" d="M136.7-375.5c-1.5-4.9-6.1-8.5-11.5-8.5-6.6 0-12 5.4-12 12-5.9 0-10.9 4.3-11.8 10h-.2c-3.9 0-7 3.1-7 7s3.1 7 7 7c2 0 3.8-.8 5.1-2.2 2 1.4 4.3 2.2 6.9 2.2 2.4 0 4.6-.7 6.5-1.9 1.9 1.2 4.1 1.9 6.5 1.9 1.3 0 2.6-.2 3.8-.6 3.2 4 8.2 6.6 13.7 6.6 5.6 0 10.6-2.6 13.8-6.7 1.1.5 2.4.7 3.7.7 2.3 0 4.4-.8 6.1-2 1.3 1.3 3 2 4.9 2 3.9 0 7-3.1 7-7s-3.1-7-7-7c-.6 0-1.2.1-1.7.2-1.5-3.6-5.1-6.2-9.3-6.2-.7 0-1.4.1-2.1.2-3-5.5-8.8-9.2-15.4-9.2-2.5 0-4.9.5-7 1.5z"/></defs></g><defs><path id="av" d="M136.7-375.5c-1.5-4.9-6.1-8.5-11.5-8.5-6.6 0-12 5.4-12 12-5.9 0-10.9 4.3-11.8 10h-.2c-3.9 0-7 3.1-7 7s3.1 7 7 7c2 0 3.8-.8 5.1-2.2 2 1.4 4.3 2.2 6.9 2.2 2.4 0 4.6-.7 6.5-1.9 1.9 1.2 4.1 1.9 6.5 1.9 1.3 0 2.6-.2 3.8-.6 3.2 4 8.2 6.6 13.7 6.6 5.6 0 10.6-2.6 13.8-6.7 1.1.5 2.4.7 3.7.7 2.3 0 4.4-.8 6.1-2 1.3 1.3 3 2 4.9 2 3.9 0 7-3.1 7-7s-3.1-7-7-7c-.6 0-1.2.1-1.7.2-1.5-3.6-5.1-6.2-9.3-6.2-.7 0-1.4.1-2.1.2-3-5.5-8.8-9.2-15.4-9.2-2.5 0-4.9.5-7 1.5z"/></defs><defs><path id="aw" d="M407.7-410.6l56 32.4s-1.5 14.3-8.3 24.7c-6.8 10.4-24.1 17.2-24.1 17.2l-53.4-38.5s13.7-4.3 21.6-13.8 8.2-22 8.2-22z"/></defs><defs><path id="ax" d="M433.2-396.8l21.8-50.6 6.2 2.7-22.4 51z"/></defs><defs><path id="ay" d="M398.3-370.4l1.2.9.9-1.2c-1.5-1-3.3-1.6-5.1-1.6-5 0-9 4-9 9 0 3.8 2.4 7.2 6 8.5l-1-1.4c0 4.9 4.1 8.9 9 8.9 1.4 0 2.8-.3 4.1-1l-.7-1.3-1.4.6c1.9 4 5.9 6.7 10.4 6.7 6.4 0 11.5-5.1 11.5-11.5 0-1.2-.2-2.5-.6-3.6l-1.4.5.8 1.3c2.6-1.6 4.2-4.5 4.2-7.6 0-5-4-9-9-9-1.2 0-2.3.2-3.4.7l.6 1.4 1.1-1c-2.2-2.6-5.4-4.1-8.8-4.1-3.8-.1-7.3 1.8-9.4 4.8zm2.4 1.7c1.6-2.3 4.2-3.7 7-3.7 2.5 0 4.9 1.1 6.5 3l.7.8 1-.4c.7-.3 1.5-.4 2.3-.4 3.3 0 6 2.7 6 6 0 2.1-1.1 4-2.8 5.1l-1 .6.4 1.1c.3.9.4 1.8.4 2.7 0 4.7-3.8 8.5-8.5 8.5-3.4 0-6.3-2-7.7-4.9l-.7-1.4-1.3.7c-.8.4-1.8.7-2.7.7-3.3 0-6-2.7-6-5.9v-1.1l-1-.3c-2.4-.8-4-3.1-4-5.7 0-3.3 2.7-6 6-6 1.2 0 2.4.4 3.4 1.1l1.2.9.8-1.4zm-34.5-26.6h81v73h-81v-73z"/></defs><clipPath id="az"><use xlink:href="#ay" overflow="visible"/></clipPath><g clip-path="url(#az)"><defs><path id="aA" d="M399.5-369.5c1.8-2.6 4.8-4.3 8.2-4.3 3.1 0 5.8 1.4 7.7 3.6.9-.4 1.8-.6 2.8-.6 4.1 0 7.5 3.4 7.5 7.5 0 2.7-1.4 5-3.5 6.3.3 1 .5 2 .5 3.2 0 5.5-4.5 10-10 10-4 0-7.5-2.4-9.1-5.8-1 .5-2.2.8-3.4.8-4.1 0-7.5-3.3-7.5-7.4-2.9-1-5-3.8-5-7.1 0-4.1 3.4-7.5 7.5-7.5 1.6 0 3.1.5 4.3 1.3z"/></defs></g><defs><path id="aB" d="M399.5-369.5c1.8-2.6 4.8-4.3 8.2-4.3 3.1 0 5.8 1.4 7.7 3.6.9-.4 1.8-.6 2.8-.6 4.1 0 7.5 3.4 7.5 7.5 0 2.7-1.4 5-3.5 6.3.3 1 .5 2 .5 3.2 0 5.5-4.5 10-10 10-4 0-7.5-2.4-9.1-5.8-1 .5-2.2.8-3.4.8-4.1 0-7.5-3.3-7.5-7.4-2.9-1-5-3.8-5-7.1 0-4.1 3.4-7.5 7.5-7.5 1.6 0 3.1.5 4.3 1.3z"/></defs><defs><path id="aC" d="M455.7-454.2l10.2 4.4 2-4.4-10.3-4-1.9 4zm-8.5 2.7l22.8 9.7 7.1-15.4-23.3-8.4-6.6 14.1z"/></defs><defs><path id="aD" d="M728.1-466.6c30.3 0 55 7.1 55 14.8v22l1.7-1.5c-.1 0-.2 0-.4-.1-.4-.1-.8-.1-1.3-.2-1.4-.2-2.9-.4-4.6-.6-4.9-.7-10-1.3-15.2-2-3.9-.5-7.7-.9-11.3-1.3-9.9-1-18.1-1.6-23.9-1.6-5.2 0-14.3.8-26.1 2.3-2.5.3-5.1.6-7.7 1-5.4.7-10.9 1.5-16.1 2.3-1.8.3-3.5.5-5 .8-.5.1-1 .2-1.4.2-.2 0-.4.1-.5.1l1.7 1.5v-23c.1-7.6 24.8-14.7 55.1-14.7zm0-3c-32.1 0-58 7.5-58 17.8v24.8l1.7-.3c.1 0 .2 0 .5-.1.4-.1.8-.1 1.4-.2 1.5-.2 3.1-.5 5-.8 5.2-.8 10.7-1.6 16.1-2.3 2.6-.4 5.2-.7 7.7-1 11.7-1.5 20.7-2.3 25.7-2.3 5.6 0 13.7.6 23.6 1.6 3.6.4 7.4.8 11.2 1.3 5.2.6 10.3 1.3 15.2 2 1.7.2 3.2.4 4.6.6.5.1.9.1 1.2.2.2 0 .4.1.4.1l1.7.3v-23.7c0-10.6-25.9-18-58-18zm-78-20h156v82.5h-156v-82.5z"/></defs><clipPath id="aE"><use xlink:href="#aD" overflow="visible"/></clipPath><g clip-path="url(#aE)"><defs><path id="aF" d="M728.1-468.1c-31.2 0-56.5 7.3-56.5 16.3v23s42.2-6.7 56.5-6.7c18 0 56.5 5.7 56.5 5.7v-22c0-9-25.3-16.3-56.5-16.3z"/></defs></g><defs><path id="aG" d="M728.1-468.1c-31.2 0-56.5 7.3-56.5 16.3v23s42.2-6.7 56.5-6.7c18 0 56.5 5.7 56.5 5.7v-22c0-9-25.3-16.3-56.5-16.3z"/></defs><defs><path id="aH" d="M728.1-444.4c30.3 0 55 7.1 55 14.8s-24.7 14.8-55 14.8-55-7.1-55-14.8 24.7-14.8 55-14.8zm0-3c-32.1 0-58 7.5-58 17.8s25.9 17.8 58 17.8 58-7.5 58-17.8-25.9-17.8-58-17.8zm-78-20h156v75.6h-156v-75.6z"/></defs><clipPath id="aI"><use xlink:href="#aH" overflow="visible"/></clipPath><g clip-path="url(#aI)"><defs><ellipse id="aJ" cx="728.1" cy="-429.5" rx="56.5" ry="16.3"/></defs></g><defs><ellipse id="aK" cx="728.1" cy="-429.5" rx="56.5" ry="16.3"/></defs><defs><path id="aL" d="M688.1-425.2c0-5.3 18-10.4 40-10.4s40 5.2 40 10.4v7.1l1.2-1.5c-.1 0-.1 0-.3.1-.3 0-.6.1-.9.2-1 .2-2.1.3-3.4.5-3.6.6-7.3 1.1-11.1 1.7-2.9.4-5.6.8-8.3 1.1-7.2.9-13.1 1.3-17.2 1.3-3.7 0-10.3-.5-18.9-1.4-1.8-.2-3.7-.4-5.6-.6-4-.5-8-.9-11.8-1.4-1.3-.2-2.6-.3-3.6-.5-.4 0-.7-.1-1-.1h-.3l1.3 1.5v-8zm-3 0v9.1l1.3.2h.4c.3 0 .6.1 1 .1 1.1.1 2.3.3 3.7.5a11776882415803102 11776882415803102 0 0 0 36.7 3.5c4.3 0 10.3-.5 17.6-1.4 2.7-.3 5.4-.7 8.3-1.1 3.8-.5 7.6-1.1 11.2-1.7 1.3-.2 2.4-.4 3.4-.5.4-.1.7-.1.9-.2.3 0 .3 0 .3-.1l1.2-.2v-8.4c0-7.9-19.2-13.4-43-13.4s-43 5.7-43 13.6zm-20-33.4h126v66.9h-126v-66.9z"/></defs><clipPath id="aM"><use xlink:href="#aL" overflow="visible"/></clipPath><g clip-path="url(#aM)"><defs><path id="aN" d="M686.6-425.2v7.8s31 4.1 41.5 4.1c13.2 0 41.5-4.8 41.5-4.8v-7.1c0-6.6-18.6-11.9-41.5-11.9s-41.5 5.3-41.5 11.9z"/></defs></g><defs><path id="aO" d="M686.6-425.2v7.8s31 4.1 41.5 4.1c13.2 0 41.5-4.8 41.5-4.8v-7.1c0-6.6-18.6-11.9-41.5-11.9s-41.5 5.3-41.5 11.9z"/></defs><defs><path id="aP" d="M728.1-427.3c22 0 40 5.2 40 10.4s-18 10.4-40 10.4-40-5.2-40-10.4 18-10.4 40-10.4zm0-3c-23.8 0-43 5.5-43 13.4s19.2 13.4 43 13.4 43-5.5 43-13.4-19.2-13.4-43-13.4zm-63-20h126v66.9h-126v-66.9z"/></defs><clipPath id="aQ"><use xlink:href="#aP" overflow="visible"/></clipPath><g clip-path="url(#aQ)"><defs><ellipse id="aR" cx="728.1" cy="-416.9" rx="41.5" ry="11.9"/></defs></g><defs><ellipse id="aS" cx="728.1" cy="-416.9" rx="41.5" ry="11.9"/></defs><defs><path id="aT" d="M715.5-415.3c0 .4-.2.7-.4.8.1 0 .2-.1.4-.2.6-.2 1.6-.4 2.8-.6 2.6-.4 6-.6 9.8-.6s7.2.2 9.8.6c1.2.2 2.2.4 2.8.6l.4.2c-.2-.1-.4-.4-.4-.8s.2-.7.4-.8c-.1 0-.2.1-.4.2-.6.2-1.6.4-2.8.6-2.6.4-6 .6-9.8.6s-7.2-.2-9.8-.6c-1.2-.2-2.2-.4-2.8-.6l-.4-.2c.2.1.4.3.4.8zm-3 0c0 2.6 6.2 3.5 15.6 3.5s15.6-.9 15.6-3.5-6.2-3.5-15.6-3.5-15.6.8-15.6 3.5zm-20-23.6h71.2v47.1h-71.2v-47.1z"/></defs><clipPath id="aU"><use xlink:href="#aT" overflow="visible"/></clipPath><g clip-path="url(#aU)"><defs><ellipse id="aV" cx="728.1" cy="-415.3" rx="14.1" ry="2"/></defs></g><defs><ellipse id="aW" cx="728.1" cy="-415.3" rx="14.1" ry="2"/></defs><defs><path id="aX" d="M720.9-398s-10.5 3.3-9.1 12.3c.9 5.5 5.6 8.1 5.6 13.5s-4.6 9.5-4.6 9.5 13.5-.3 14.6-9.5c1.1-9.2-6.7-11.3-8.3-15.6-1.4-4.3 1.8-10.2 1.8-10.2z"/></defs><defs><path id="aY" d="M736-394.7s-15.1 4.8-13 17.6c1.2 7.9 8 11.6 8 19.4s-6.5 13.6-6.5 13.6 19.3-.5 20.9-13.6c1.6-13.2-9.6-16.1-11.8-22.3-2.3-6.3 2.4-14.7 2.4-14.7z"/></defs><defs><path id="aZ" d="M84.5-284.5l-1.4.4.4 1.4 30.4 99.5.4 1.4 1.4-.4 60.2-18.4 1.4-.4-.4-1.4-30.4-99.5-.4-1.4-1.4.4-60.2 18.4zm.9 2.9l60.2-18.4-1.9-1 30.4 99.5 1-1.9-60.2 18.4 1.9 1-30.4-99.5-1 1.9zm-27.3-15.7l101.4-31 43 140.6-101.4 31-43-140.6z"/></defs><clipPath id="ba"><use xlink:href="#aZ" overflow="visible"/></clipPath><g clip-path="url(#ba)"><defs><path id="bb" transform="rotate(162.999 130.298 -242.496)" d="M98.8-294.5h63v104h-63z"/></defs></g><defs><path id="bc" transform="rotate(162.999 130.298 -242.496)" d="M98.8-294.5h63v104h-63z"/></defs><defs><path id="bd" d="M119.8-307.5h-1.5v107h66v-107h-64.5zm0 3h63l-1.5-1.5v104l1.5-1.5h-63l1.5 1.5v-104l-1.5 1.5zm-21.5-23h106v147h-106v-147z"/></defs><clipPath id="be"><use xlink:href="#bd" overflow="visible"/></clipPath><g clip-path="url(#be)"><defs><path id="bf" d="M119.8-306h63v104h-63z"/></defs></g><defs><path id="bg" d="M119.8-306h63v104h-63z"/></defs><defs><path id="bh" d="M128.8-278h44v13h-44z"/></defs><defs><path id="bi" d="M128.8-268h44v13h-44z"/></defs><defs><path id="bj" d="M128.8-258h44v13h-44z"/></defs><defs><path id="bk" d="M128.8-248h44v14h-44z"/></defs><defs><path id="bl" d="M128.8-237h44v14h-44z"/></defs><defs><path id="bm" d="M128.8-226h44v14h-44z"/></defs><defs><path id="bn" d="M129.8-296h3v13h-3z"/></defs><defs><path id="bo" d="M134.8-296h3v13h-3z"/></defs><defs><path id="bp" d="M139.8-296h3v13h-3z"/></defs><defs><path id="bq" d="M144.8-296h3v13h-3z"/></defs><defs><path id="br" d="M149.8-296h3v13h-3z"/></defs><defs><path id="bs" d="M149.8-245h3v32h-3z"/></defs><defs><path id="bt" d="M154.8-296h3v13h-3z"/></defs><defs><path id="bu" d="M159.8-296h3v13h-3z"/></defs><defs><path id="bv" d="M164.8-296h3v13h-3z"/></defs><defs><path id="bw" d="M169.8-296h3v13h-3z"/></defs><defs><path id="bx" d="M87.8-281.8l53.3 34.1-23.9 61.7"/></defs><defs><path id="by" d="M389.5-307.5H388v107h66v-107h-64.5zm0 3h63L451-306v104l1.5-1.5h-63l1.5 1.5v-104l-1.5 1.5zm-21.5-23h106v147H368v-147z"/></defs><clipPath id="bz"><use xlink:href="#by" overflow="visible"/></clipPath><g clip-path="url(#bz)"><defs><path id="bA" d="M389.5-306h63v104h-63z"/></defs></g><defs><path id="bB" d="M389.5-306h63v104h-63z"/></defs><defs><path id="bC" d="M398.5-278h44v13h-44z"/></defs><defs><path id="bD" d="M398.5-268h44v13h-44z"/></defs><defs><path id="bE" d="M398.5-258h44v13h-44z"/></defs><defs><path id="bF" d="M398.5-248h44v14h-44z"/></defs><defs><path id="bG" d="M398.5-237h44v14h-44z"/></defs><defs><path id="bH" d="M398.5-226h44v14h-44z"/></defs><defs><path id="bI" d="M399.5-296h3v13h-3z"/></defs><defs><path id="bJ" d="M404.5-296h3v13h-3z"/></defs><defs><path id="bK" d="M409.5-296h3v13h-3z"/></defs><defs><path id="bL" d="M414.5-296h3v13h-3z"/></defs><defs><path id="bM" d="M419.5-296h3v13h-3z"/></defs><defs><path id="bN" d="M419.5-245h3v32h-3z"/></defs><defs><path id="bO" d="M424.5-296h3v13h-3z"/></defs><defs><path id="bP" d="M429.5-296h3v13h-3z"/></defs><defs><path id="bQ" d="M434.5-296h3v13h-3z"/></defs><defs><path id="bR" d="M439.5-296h3v13h-3z"/></defs><defs><path id="bS" d="M461.5-186.5c-16.3 0-29.5-13.2-29.5-29.5s13.2-29.5 29.5-29.5S491-232.3 491-216s-13.2 29.5-29.5 29.5zm0 3c17.9 0 32.5-14.6 32.5-32.5s-14.6-32.5-32.5-32.5S429-233.9 429-216s14.5 32.5 32.5 32.5zm-52.5-85h105v105H409v-105z"/></defs><clipPath id="bT"><use xlink:href="#bS" overflow="visible"/></clipPath><g clip-path="url(#bT)"><defs><circle id="bU" cx="461.5" cy="-216" r="31"/></defs></g><defs><circle id="bV" cx="461.5" cy="-216" r="31"/></defs><defs><path id="bW" d="M367.8-131.3h-1.5v90h134v-90H367.8zm0 3h131l-1.5-1.5v87l1.5-1.5h-131l1.5 1.5v-87l-1.5 1.5zm-21.5-23h174v130h-174v-130z"/></defs><clipPath id="bX"><use xlink:href="#bW" overflow="visible"/></clipPath><g clip-path="url(#bX)"><defs><path id="bY" d="M367.8-129.8h131v87h-131z"/></defs></g><defs><path id="bZ" d="M367.8-129.8h131v87h-131z"/></defs><defs><path id="ca" d="M372.8-126.3h-1.5v80h124v-80H372.8zm0 3h121l-1.5-1.5v77l1.5-1.5h-121l1.5 1.5v-77l-1.5 1.5zm-21.5-23h164v120h-164v-120z"/></defs><clipPath id="cb"><use xlink:href="#ca" overflow="visible"/></clipPath><g clip-path="url(#cb)"><defs><path id="cc" d="M372.8-124.8h121v77h-121z"/></defs></g><defs><path id="cd" d="M372.8-124.8h121v77h-121z"/></defs><defs><path id="ce" d="M437.8-111.3h-1.5v6h47v-6h-45.5zm0 3h44l-1.5-1.5v3l1.5-1.5h-44l1.5 1.5v-3l-1.5 1.5zm-21.5-23h87v46h-87v-46z"/></defs><clipPath id="cf"><use xlink:href="#ce" overflow="visible"/></clipPath><g clip-path="url(#cf)"><defs><path id="cg" d="M437.8-109.8h44v3h-44z"/></defs></g><defs><path id="ch" d="M437.8-109.8h44v3h-44z"/></defs><defs><path id="ci" d="M437.8-105.3h-1.5v6h47v-6h-45.5zm0 3h44l-1.5-1.5v3l1.5-1.5h-44l1.5 1.5v-3l-1.5 1.5zm-21.5-23h87v46h-87v-46z"/></defs><clipPath id="cj"><use xlink:href="#ci" overflow="visible"/></clipPath><g clip-path="url(#cj)"><defs><path id="ck" d="M437.8-103.8h44v3h-44z"/></defs></g><defs><path id="cl" d="M437.8-103.8h44v3h-44z"/></defs><defs><path id="cm" d="M437.8-99.3h-1.5v6h47v-6h-45.5zm0 3h44l-1.5-1.5v3l1.5-1.5h-44l1.5 1.5v-3l-1.5 1.5zm-21.5-23h87v46h-87v-46z"/></defs><clipPath id="cn"><use xlink:href="#cm" overflow="visible"/></clipPath><g clip-path="url(#cn)"><defs><path id="co" d="M437.8-97.8h44v3h-44z"/></defs></g><defs><path id="cp" d="M437.8-97.8h44v3h-44z"/></defs><defs><path id="cq" d="M437.8-93.3h-1.5v6h47v-6h-45.5zm0 3h44l-1.5-1.5v3l1.5-1.5h-44l1.5 1.5v-3l-1.5 1.5zm-21.5-23h87v46h-87v-46z"/></defs><clipPath id="cr"><use xlink:href="#cq" overflow="visible"/></clipPath><g clip-path="url(#cr)"><defs><path id="cs" d="M437.8-91.8h44v3h-44z"/></defs></g><defs><path id="ct" d="M437.8-91.8h44v3h-44z"/></defs><defs><path id="cu" d="M80 31.2h-1.2v71.5h131.7V31.2H80zm0 2.4h129.3l-1.2-1.2v69.1l1.2-1.2H80l1.2 1.2V32.4L80 33.6zM62.7 15.1h163.9v103.6H62.7V15.1z"/></defs><clipPath id="cv"><use xlink:href="#cu" overflow="visible"/></clipPath><g clip-path="url(#cv)"><defs><path id="cw" d="M80 32.4h129.3v69.1H80z"/></defs><clipPath id="cx"><use xlink:href="#cw" overflow="visible"/></clipPath><g clip-path="url(#cx)"><defs><path id="cy" d="M.9-372.9h900.5v827.4H.9z"/></defs><clipPath id="cz"><use xlink:href="#cy" overflow="visible"/></clipPath><path clip-path="url(#cz)" fill-rule="evenodd" clip-rule="evenodd" fill="#FFF" d="M80 32.4h129.3v69.1H80z"/></g></g><defs><path id="cA" d="M80 32.4h129.3v69.1H80z"/></defs><clipPath id="cB"><use xlink:href="#cA" overflow="visible"/></clipPath><g clip-path="url(#cB)"><defs><path id="cC" d="M.9-372.9h900.5v827.4H.9z"/></defs><clipPath id="cD"><use xlink:href="#cC" overflow="visible"/></clipPath><path clip-path="url(#cD)" fill="none" stroke="#0C1F2E" stroke-width="6" stroke-linecap="round" stroke-miterlimit="10" d="M80 32.4h129.3v69.1H80z"/></g><defs><path id="cE" d="M86.4 37.6h-1.2v57.8h118.9V37.6h-19.5l-.3.2-6.5 4.8.7-.2h-66.7l.8.3-5.9-4.8-.3-.3h-20zm0 2.4h19.4l-.8-.3 5.9 4.8.3.3h67.5l.3-.2 6.5-4.8-.5.2h17.9l-1.2-1.2v55.4l1.2-1.2H86.4l1.2 1.2V38.8L86.4 40zM69.1 21.5h151v90h-151v-90z"/></defs><clipPath id="cF"><use xlink:href="#cE" overflow="visible"/></clipPath><g clip-path="url(#cF)"><defs><path id="cG" d="M86.4 38.8h19.5l5.9 4.8h66.7l6.5-4.8h17.9v55.4H86.4z"/></defs><clipPath id="cH"><use xlink:href="#cG" overflow="visible"/></clipPath><g clip-path="url(#cH)"><defs><path id="cI" d="M.9-372.9h900.5v827.4H.9z"/></defs><clipPath id="cJ"><use xlink:href="#cI" overflow="visible"/></clipPath><path clip-path="url(#cJ)" fill-rule="evenodd" clip-rule="evenodd" fill="#FFF" d="M86.4 38.8h19.5l5.9 4.8h66.7l6.5-4.8h17.9v55.4H86.4z"/></g></g><defs><path id="cK" d="M86.4 38.8h19.5l5.9 4.8h66.7l6.5-4.8h17.9v55.4H86.4z"/></defs><clipPath id="cL"><use xlink:href="#cK" overflow="visible"/></clipPath><g clip-path="url(#cL)"><defs><path id="cM" d="M.9-372.9h900.5v827.4H.9z"/></defs><clipPath id="cN"><use xlink:href="#cM" overflow="visible"/></clipPath><path clip-path="url(#cN)" fill="none" stroke="#0C1F2E" stroke-width="6" stroke-linecap="round" stroke-miterlimit="10" d="M86.4 38.8h19.5l5.9 4.8h66.7l6.5-4.8h17.9v55.4H86.4z"/></g><path d="M104 77.3V64.9h-2.9v-2.2h5.3v14.6H104zm17.3-11c0 1.5-1.1 3.1-2.7 4.8l-3.8 4h7.1v2.2h-10.4v-1.8l5.4-5.8c1.1-1.1 1.8-2.3 1.8-3.1 0-1.2-.9-1.9-2.4-1.9-1.3 0-2.8.7-4 1.8l-1-1.9c1.6-1.3 3.4-2.1 5.3-2.1 2.8.1 4.7 1.6 4.7 3.8zm9.5 2.6c2.4.2 4.1 1.6 4.1 3.9 0 2.7-2.1 4.6-5.3 4.6-1.8 0-3.7-.6-4.9-1.6l1-2c1 1 2.4 1.5 3.7 1.5 1.9 0 3.1-1 3.1-2.5 0-1.6-1.1-2.4-3.1-2.4h-2V69l3.8-4.1h-5.8v-2.2h8.9v1.5l-4.2 4.5.7.2zm10.7 5.1l-1.4 3.3h-2.6l6.5-14.6h2.5l6.4 14.6h-2.6l-1.4-3.3h-7.4zm3.7-8.6l-2.8 6.5h5.5l-2.7-6.5zm17.7-2.7c3 0 4.9 1.4 4.9 3.7 0 1.7-1 2.9-2.6 3.3 2 .3 3.1 1.7 3.1 3.7 0 2.5-2 4-5.3 4h-6.5V62.7h6.4zm-3.9 6.1h3.8c1.6 0 2.5-.7 2.5-2s-.9-1.9-2.5-1.9H159v3.9zm0 6.4h3.8c1.9 0 3.1-.8 3.1-2.1s-1.1-2.1-3.1-2.1H159v4.2zm26-10.3l-1.4 1.8c-1.1-1.1-2.6-1.9-4.1-1.9-2.9 0-5.2 2.3-5.2 5.1s2.3 5.2 5.2 5.2c1.5 0 3-.7 4.1-1.7L185 75c-1.5 1.5-3.6 2.4-5.7 2.4-4.3 0-7.6-3.2-7.6-7.4s3.4-7.4 7.7-7.4c2.1.1 4.1.9 5.6 2.3z" fill="#042A3E"/><defs><path id="cO" d="M114.5 38h5.6v2.4h-5.6z"/></defs><clipPath id="cP"><use xlink:href="#cO" overflow="visible"/></clipPath><g clip-path="url(#cP)"><defs><path id="cQ" d="M.9-372.9h900.5v827.4H.9z"/></defs><clipPath id="cR"><use xlink:href="#cQ" overflow="visible"/></clipPath><path clip-path="url(#cR)" fill="#0C1F2E" d="M110.5 34h13.7v10.4h-13.7z"/></g><defs><path id="cS" d="M170.8 38h5.6v2.4h-5.6z"/></defs><clipPath id="cT"><use xlink:href="#cS" overflow="visible"/></clipPath><g clip-path="url(#cT)"><defs><path id="cU" d="M.9-372.9h900.5v827.4H.9z"/></defs><clipPath id="cV"><use xlink:href="#cU" overflow="visible"/></clipPath><path clip-path="url(#cV)" fill="#0C1F2E" d="M166.7 34h13.7v10.4h-13.7z"/></g><defs><path id="cW" d="M-217.5 264.4c-21.5 0-38.9-17.4-38.9-38.9s17.4-38.9 38.9-38.9 38.9 17.4 38.9 38.9-17.4 38.9-38.9 38.9zm0 3c23.2 0 41.9-18.8 41.9-41.9s-18.8-41.9-41.9-41.9c-23.2 0-41.9 18.8-41.9 41.9s18.7 41.9 41.9 41.9zm-62-103.8h123.9v123.9h-123.9V163.6z"/></defs><clipPath id="cX"><use xlink:href="#cW" overflow="visible"/></clipPath><g clip-path="url(#cX)"><defs><circle id="cY" cx="-217.5" cy="225.5" r="40.4"/></defs></g><defs><circle id="cZ" cx="-217.5" cy="225.5" r="40.4"/></defs><defs><path id="da" d="M-104.5 264.4c-21.5 0-38.9-17.4-38.9-38.9s17.4-38.9 38.9-38.9 38.9 17.4 38.9 38.9-17.4 38.9-38.9 38.9zm0 3c23.2 0 41.9-18.8 41.9-41.9s-18.8-41.9-41.9-41.9c-23.2 0-41.9 18.8-41.9 41.9s18.7 41.9 41.9 41.9zm-62-103.8h123.9v123.9h-123.9V163.6z"/></defs><clipPath id="db"><use xlink:href="#da" overflow="visible"/></clipPath><g clip-path="url(#db)"><defs><circle id="dc" cx="-104.5" cy="225.5" r="40.4"/></defs></g><defs><circle id="dd" cx="-104.5" cy="225.5" r="40.4"/></defs><defs><path id="de" d="M-229.8 53.2h-1.5v38h142V66.1l-.4-.4-11.4-12-.4-.5h-128.3zm0 3h127.6l-1.1-.5 11.4 12-.4-1v23l1.5-1.5h-139l1.5 1.5v-35l-1.5 1.5zm-21.5-23h182v78h-182v-78z"/></defs><clipPath id="df"><use xlink:href="#de" overflow="visible"/></clipPath><g clip-path="url(#df)"><defs><path id="dg" d="M-229.8 54.7h127.6l11.4 12v23h-139z"/></defs></g><defs><path id="dh" d="M-229.8 54.7h127.6l11.4 12v23h-139z"/></defs><defs><path id="di" d="M-196.8 104.6c-8 0-14.5-6.5-14.5-14.5s6.5-14.5 14.5-14.5 14.5 6.5 14.5 14.5-6.4 14.5-14.5 14.5zm0 3c9.7 0 17.5-7.8 17.5-17.5s-7.8-17.5-17.5-17.5-17.5 7.8-17.5 17.5 7.9 17.5 17.5 17.5zm-37.5-55h75v75h-75v-75z"/></defs><clipPath id="dj"><use xlink:href="#di" overflow="visible"/></clipPath><g clip-path="url(#dj)"><defs><circle id="dk" cx="-196.8" cy="90.1" r="16"/></defs></g><defs><circle id="dl" cx="-196.8" cy="90.1" r="16"/></defs><defs><path id="dm" d="M-196.8 97.6c-4.1 0-7.5-3.4-7.5-7.5s3.4-7.5 7.5-7.5 7.5 3.4 7.5 7.5c0 4.2-3.3 7.5-7.5 7.5zm0 3c5.8 0 10.5-4.7 10.5-10.5s-4.7-10.5-10.5-10.5-10.5 4.7-10.5 10.5 4.7 10.5 10.5 10.5zm-30.5-41h61v61h-61v-61z"/></defs><clipPath id="dn"><use xlink:href="#dm" overflow="visible"/></clipPath><g clip-path="url(#dn)"><defs><circle id="do" cx="-196.8" cy="90.1" r="9"/></defs></g><defs><circle id="dp" cx="-196.8" cy="90.1" r="9"/></defs><defs><path id="dq" d="M-130.5 104.6c-8 0-14.5-6.5-14.5-14.5s6.5-14.5 14.5-14.5 14.5 6.5 14.5 14.5-6.5 14.5-14.5 14.5zm0 3c9.7 0 17.5-7.8 17.5-17.5s-7.8-17.5-17.5-17.5-17.5 7.9-17.5 17.5c0 9.7 7.8 17.5 17.5 17.5zm-37.5-55h75v75h-75v-75z"/></defs><clipPath id="dr"><use xlink:href="#dq" overflow="visible"/></clipPath><g clip-path="url(#dr)"><defs><circle id="ds" cx="-130.5" cy="90.1" r="16"/></defs></g><defs><circle id="dt" cx="-130.5" cy="90.1" r="16"/></defs><defs><path id="du" d="M-130.3 49.8l-7.7-15.6h-27.2v15.6h34.9zm-75.2 0l7.4-15.6h27.2v15.6h-34.6zm-10.3 5.3l14.1-26.9h66.8l15.3 27.9-96.2-1z"/></defs><defs><path id="dv" d="M-130.5 97.6c-4.1 0-7.5-3.4-7.5-7.5s3.4-7.5 7.5-7.5 7.5 3.4 7.5 7.5c0 4.2-3.4 7.5-7.5 7.5zm0 3c5.8 0 10.5-4.7 10.5-10.5s-4.7-10.5-10.5-10.5-10.5 4.7-10.5 10.5 4.7 10.5 10.5 10.5zm-30.5-41h61v61h-61v-61z"/></defs><clipPath id="dw"><use xlink:href="#dv" overflow="visible"/></clipPath><g clip-path="url(#dw)"><defs><circle id="dx" cx="-130.5" cy="90.1" r="9"/></defs></g><defs><circle id="dy" cx="-130.5" cy="90.1" r="9"/></defs><defs><path id="dz" d="M84.2-124.5h-1.5v84h108v-84H84.2zm0 3h105l-1.5-1.5v81l1.5-1.5h-105l1.5 1.5v-81l-1.5 1.5zm-21.5-23h148v124h-148v-124z"/></defs><clipPath id="dA"><use xlink:href="#dz" overflow="visible"/></clipPath><g clip-path="url(#dA)"><defs><path id="dB" d="M84.2-123h105v81h-105z"/></defs></g><defs><path id="dC" d="M84.2-123h105v81h-105z"/></defs><defs><path id="dD" d="M78.2-107.5H76l.9-2.1 9.1-22 .4-.9h100.9l.4.9 9.1 22 .9 2.1H78.2zm0-3h117l-1.4 2.1-9.1-22 1.4.9H87.3l1.4-.9-9.1 22-1.4-2.1zM56-87.5h161.5v-65H56v65z"/></defs><clipPath id="dE"><use xlink:href="#dD" overflow="visible"/></clipPath><g clip-path="url(#dE)"><defs><path id="dF" d="M78.2-109h117l-9.1-22H87.3z"/></defs></g><defs><path id="dG" d="M78.2-109h117l-9.1-22H87.3z"/></defs><defs><path id="dH" d="M163.2-140.5h-1.5v19h15v-19h-13.5zm0 3h12l-1.5-1.5v16l1.5-1.5h-12l1.5 1.5v-16l-1.5 1.5zm-21.5-23h55v59h-55v-59z"/></defs><clipPath id="dI"><use xlink:href="#dH" overflow="visible"/></clipPath><g clip-path="url(#dI)"><defs><path id="dJ" d="M163.2-139h12v16h-12z"/></defs></g><defs><path id="dK" d="M163.2-139h12v16h-12z"/></defs><defs><path id="dL" d="M97.2-74.5h-1.5v34h24v-34H97.2zm0 3h21l-1.5-1.5v31l1.5-1.5h-21l1.5 1.5v-31l-1.5 1.5zm-21.5-23h64v74h-64v-74z"/></defs><clipPath id="dM"><use xlink:href="#dL" overflow="visible"/></clipPath><g clip-path="url(#dM)"><defs><path id="dN" d="M97.2-73h21v31h-21z"/></defs></g><defs><path id="dO" d="M97.2-73h21v31h-21z"/></defs><defs><path id="dP" d="M98.2-102.5h-1.5v22h22v-22H98.2zm0 3h19l-1.5-1.5v19l1.5-1.5h-19l1.5 1.5v-19l-1.5 1.5zm-21.5-23h62v62h-62v-62z"/></defs><clipPath id="dQ"><use xlink:href="#dP" overflow="visible"/></clipPath><g clip-path="url(#dQ)"><defs><path id="dR" d="M98.2-101h19v19h-19z"/></defs></g><defs><path id="dS" d="M98.2-101h19v19h-19z"/></defs><defs><path id="dT" d="M103.2-97.5h-1.5v12h12v-12h-10.5zm0 3h9l-1.5-1.5v9l1.5-1.5h-9l1.5 1.5v-9l-1.5 1.5zm-21.5-23h52v52h-52v-52z"/></defs><clipPath id="dU"><use xlink:href="#dT" overflow="visible"/></clipPath><g clip-path="url(#dU)"><defs><path id="dV" d="M103.2-96h9v9h-9z"/></defs></g><defs><path id="dW" d="M103.2-96h9v9h-9z"/></defs><defs><path id="dX" d="M128.2-102.5h-1.5v22h22v-22h-20.5zm0 3h19l-1.5-1.5v19l1.5-1.5h-19l1.5 1.5v-19l-1.5 1.5zm-21.5-23h62v62h-62v-62z"/></defs><clipPath id="dY"><use xlink:href="#dX" overflow="visible"/></clipPath><g clip-path="url(#dY)"><defs><path id="dZ" d="M128.2-101h19v19h-19z"/></defs></g><defs><path id="ea" d="M128.2-101h19v19h-19z"/></defs><defs><path id="eb" d="M157.2-102.5h-1.5v22h22v-22h-20.5zm0 3h19l-1.5-1.5v19l1.5-1.5h-19l1.5 1.5v-19l-1.5 1.5zm-21.5-23h62v62h-62v-62z"/></defs><clipPath id="ec"><use xlink:href="#eb" overflow="visible"/></clipPath><g clip-path="url(#ec)"><defs><path id="ed" d="M157.2-101h19v19h-19z"/></defs></g><defs><path id="ee" d="M157.2-101h19v19h-19z"/></defs><defs><path id="ef" d="M128.2-74.5h-1.5v22h22v-22h-20.5zm0 3h19l-1.5-1.5v19l1.5-1.5h-19l1.5 1.5v-19l-1.5 1.5zm-21.5-23h62v62h-62v-62z"/></defs><clipPath id="eg"><use xlink:href="#ef" overflow="visible"/></clipPath><g clip-path="url(#eg)"><defs><path id="eh" d="M128.2-73h19v19h-19z"/></defs></g><defs><path id="ei" d="M128.2-73h19v19h-19z"/></defs><defs><path id="ej" d="M157.2-74.5h-1.5v22h22v-22h-20.5zm0 3h19l-1.5-1.5v19l1.5-1.5h-19l1.5 1.5v-19l-1.5 1.5zm-21.5-23h62v62h-62v-62z"/></defs><clipPath id="ek"><use xlink:href="#ej" overflow="visible"/></clipPath><g clip-path="url(#ek)"><defs><path id="el" d="M157.2-73h19v19h-19z"/></defs></g><defs><path id="em" d="M157.2-73h19v19h-19z"/></defs><defs><path id="en" d="M133.2-97.5h-1.5v12h12v-12h-10.5zm0 3h9l-1.5-1.5v9l1.5-1.5h-9l1.5 1.5v-9l-1.5 1.5zm-21.5-23h52v52h-52v-52z"/></defs><clipPath id="eo"><use xlink:href="#en" overflow="visible"/></clipPath><g clip-path="url(#eo)"><defs><path id="ep" d="M133.2-96h9v9h-9z"/></defs></g><defs><path id="eq" d="M133.2-96h9v9h-9z"/></defs><defs><path id="er" d="M162.2-97.5h-1.5v12h12v-12h-10.5zm0 3h9l-1.5-1.5v9l1.5-1.5h-9l1.5 1.5v-9l-1.5 1.5zm-21.5-23h52v52h-52v-52z"/></defs><clipPath id="es"><use xlink:href="#er" overflow="visible"/></clipPath><g clip-path="url(#es)"><defs><path id="et" d="M162.2-96h9v9h-9z"/></defs></g><defs><path id="eu" d="M162.2-96h9v9h-9z"/></defs><defs><path id="ev" d="M133.2-69.5h-1.5v12h12v-12h-10.5zm0 3h9l-1.5-1.5v9l1.5-1.5h-9l1.5 1.5v-9l-1.5 1.5zm-21.5-23h52v52h-52v-52z"/></defs><clipPath id="ew"><use xlink:href="#ev" overflow="visible"/></clipPath><g clip-path="url(#ew)"><defs><path id="ex" d="M133.2-68h9v9h-9z"/></defs></g><defs><path id="ey" d="M133.2-68h9v9h-9z"/></defs><defs><path id="ez" d="M162.2-69.5h-1.5v12h12v-12h-10.5zm0 3h9l-1.5-1.5v9l1.5-1.5h-9l1.5 1.5v-9l-1.5 1.5zm-21.5-23h52v52h-52v-52z"/></defs><clipPath id="eA"><use xlink:href="#ez" overflow="visible"/></clipPath><g clip-path="url(#eA)"><defs><path id="eB" d="M162.2-68h9v9h-9z"/></defs></g><defs><path id="eC" d="M162.2-68h9v9h-9z"/></defs><defs><path id="eD" d="M-158.6-196.5c-27.1 0-49-21.9-49-49s21.9-49 49-49 49 21.9 49 49-21.9 49-49 49zm0 3c28.7 0 52-23.3 52-52s-23.3-52-52-52-52 23.3-52 52 23.3 52 52 52zm-72-124h144v144h-144v-144z"/></defs><clipPath id="eE"><use xlink:href="#eD" overflow="visible"/></clipPath><g clip-path="url(#eE)"><defs><circle id="eF" cx="-158.6" cy="-245.5" r="50.5"/></defs></g><defs><circle id="eG" cx="-158.6" cy="-245.5" r="50.5"/></defs><defs><circle id="eH" cx="-158.6" cy="-245.5" r="43.5"/></defs><defs><path id="eI" d="M-165.1-269.5h-1.7l.2 1.6 3.1 32 .1 1.4h11.4l.1-1.4 2.3-32 .1-1.6h-15.6zm0 3h14l-1.5-1.6-2.3 32 1.5-1.4h-8.6l1.5 1.4-3.1-32-1.5 1.6zm-21.6-23h57.3v75h-57.3v-75z"/></defs><clipPath id="eJ"><use xlink:href="#eI" overflow="visible"/></clipPath><g clip-path="url(#eJ)"><defs><path id="eK" d="M-165.1-268h14l-2.3 32h-8.5z"/></defs></g><defs><path id="eL" d="M-165.1-267.7h14l-2.3 32h-8.5z"/></defs><defs><path id="eM" d="M-157.6-222.5c-2.2 0-4-1.8-4-4s1.8-4 4-4 4 1.8 4 4-1.8 4-4 4zm0 3c3.9 0 7-3.1 7-7s-3.1-7-7-7-7 3.1-7 7 3.2 7 7 7zm-27-34h54v54h-54v-54z"/></defs><clipPath id="eN"><use xlink:href="#eM" overflow="visible"/></clipPath><g clip-path="url(#eN)"><defs><circle id="eO" cx="-157.6" cy="-226.5" r="5.5"/></defs></g><defs><circle id="eP" cx="-157.6" cy="-226.2" r="5.5"/></defs><defs><path id="eQ" d="M661.1-289h-1.5v90h134v-90H661.1zm0 3h131l-1.5-1.5v87l1.5-1.5h-131l1.5 1.5v-87l-1.5 1.5zm-21.5-23h174v130h-174v-130z"/></defs><clipPath id="eR"><use xlink:href="#eQ" overflow="visible"/></clipPath><g clip-path="url(#eR)"><defs><path id="eS" d="M661.1-287.5h131v87h-131z"/></defs></g><g><defs><path id="eT" d="M661.1-287.5h131v87h-131z"/></defs></g><g><defs><path id="eU" d="M765.1-280h-1.5v23h21v-23h-19.5zm0 3h18l-1.5-1.5v20l1.5-1.5h-18l1.5 1.5v-20l-1.5 1.5zm-21.5-23h61v63h-61v-63z"/></defs><clipPath id="eV"><use xlink:href="#eU" overflow="visible"/></clipPath><g clip-path="url(#eV)"><defs><path id="eW" d="M765.1-278.5h18v20h-18z"/></defs></g></g><g><defs><path id="eX" d="M765.1-278.5h18v20h-18z"/></defs></g><g><defs><path id="eY" d="M770.1-275h-1.5v13h11v-13h-9.5zm0 3h8l-1.5-1.5v10l1.5-1.5h-8l1.5 1.5v-10l-1.5 1.5zm-21.5-23h51v53h-51v-53z"/></defs><clipPath id="eZ"><use xlink:href="#eY" overflow="visible"/></clipPath><g clip-path="url(#eZ)"><defs><path id="fa" d="M770.1-273.5h8v10h-8z"/></defs></g></g><g><defs><path id="fb" d="M770.1-273.5h8v10h-8z"/></defs></g><g><defs><path id="fc" d="M-137.9-102.8l.2 3c8.3-.7 15.9-2.1 21.4-3.8 2.5-.7 4.4-1.5 5.5-2.2 1.8-1.1 2.5-3 .4-4.1-8.1-4.3-23.9-7.1-41.3-7.1-17.2 0-32.8 2.7-41 6.9-1.8.9-1.5 2.7 0 3.9.9.7 2.4 1.4 4.4 2.1 4.3 1.5 10.5 2.8 17.5 3.7l.3-3c-21.2-2.3-35.5-8.1-35.5-13.8 0-7.7 24.7-14.8 55-14.8s55 7.1 55 14.8c-.1 6.4-17.6 12.7-41.9 14.4zm.2 3c26-1.8 44.7-8.5 44.7-17.4 0-10.3-25.9-17.8-58-17.8s-58 7.5-58 17.8c0 8.1 15.4 14.4 38.2 16.8l.3-3c-6.9-.9-12.9-2.2-16.9-3.6-1.7-.6-3-1.2-3.6-1.6-.1-.1-.1-.1-.2-.1 0 .1.1.2.1.3.1.5-.2.8-.4.9 7.7-4 22.9-6.6 39.7-6.6 17 0 32.3 2.6 39.9 6.7-.1 0-.2-.1-.3-.3-.1-.3-.2-.6-.1-.9 0-.1.1-.2.1-.2-.1.1-.2.2-.4.3-.9.5-2.5 1.2-4.8 1.9-5.2 1.6-12.6 2.9-20.8 3.6l.5 3.2zm-91.4-55.2h156v75.2h-156V-155z"/></defs><clipPath id="fd"><use xlink:href="#fc" overflow="visible"/></clipPath><g clip-path="url(#fd)"><defs><path id="fe" d="M-137.8-101.3c24.8-1.7 43.3-8.2 43.3-15.9 0-9-25.3-16.3-56.5-16.3s-56.5 7.3-56.5 16.3c0 7 15.3 13 36.9 15.3-14.9-1.9-24-5.5-21.4-6.9 7.8-4 22.9-6.8 40.4-6.8 17.6 0 32.9 2.8 40.6 6.9 2.6 1.5-9 5.8-26.8 7.4z"/></defs></g></g><g><defs><path id="ff" d="M-137.8-101.3c24.8-1.7 43.3-8.2 43.3-15.9 0-9-25.3-16.3-56.5-16.3s-56.5 7.3-56.5 16.3c0 7 15.3 13 36.9 15.3-14.9-1.9-24-5.5-21.4-6.9 7.8-4 22.9-6.8 40.4-6.8 17.6 0 32.9 2.8 40.6 6.9 2.6 1.5-9 5.8-26.8 7.4z"/></defs></g><g><defs><path id="fg" d="M-151.1-81c-30.3 0-55-7.1-55-14.8v-22l-2.8.8c.3.6 1.1 1.4 2.4 2.4 2 1.6 4.9 3.2 8.6 4.7 10.5 4.1 26.3 6.6 48.5 6.6 19.8 0 34.5-2.6 44.8-7.1 3.7-1.6 6.5-3.3 8.6-5 1.3-1.1 2.1-1.9 2.5-2.5l-2.7-.9v23c.1 7.7-24.6 14.8-54.9 14.8zm0 3c32.1 0 58-7.5 58-17.8v-27.7l-2.7 3.8c0 .1-.2.2-.4.4-.4.4-.9.9-1.6 1.4-1.9 1.5-4.5 3.1-8 4.6-9.9 4.3-24.2 6.8-43.6 6.8-21.8 0-37.3-2.4-47.4-6.4-3.5-1.4-6.1-2.8-7.9-4.2-1-.8-1.5-1.4-1.7-1.6l-2.8-4.5v27.3c.1 10.4 26 17.9 58.1 17.9zm-78-65.5h156V-58h-156v-85.5z"/></defs><clipPath id="fh"><use xlink:href="#fg" overflow="visible"/></clipPath><g clip-path="url(#fh)"><defs><path id="fi" d="M-151.1-79.5c31.2 0 56.5-7.3 56.5-16.3v-23s-9.9 13.9-54.8 13.9c-50.2 0-58.2-13-58.2-13v22c0 9.1 25.3 16.4 56.5 16.4z"/></defs></g></g><g><defs><path id="fj" d="M-151.1-79.5c31.2 0 56.5-7.3 56.5-16.3v-23s-9.9 13.9-54.8 13.9c-50.2 0-58.2-13-58.2-13v22c0 9.1 25.3 16.4 56.5 16.4z"/></defs></g><g><defs><path id="fk" d="M-146.5-45c-8.5 0-15.4-6.9-15.4-15.4s6.9-15.4 15.4-15.4 15.5 6.9 15.5 15.4-7 15.4-15.5 15.4zm0 3c10.2 0 18.5-8.2 18.5-18.4s-8.3-18.4-18.5-18.4-18.4 8.2-18.4 18.4 8.2 18.4 18.4 18.4zM-185-98.8h76.9V-22H-185v-76.8z"/></defs><clipPath id="fl"><use xlink:href="#fk" overflow="visible"/></clipPath><g clip-path="url(#fl)"><defs><ellipse id="fm" cx="-146.5" cy="-60.4" rx="17" ry="16.9"/></defs></g></g><g><defs><ellipse id="fn" cx="-146.5" cy="-60.4" rx="17" ry="16.9"/></defs></g><g><defs><path id="fo" d="M83.8 189.9h-1.5v84h108v-84H83.8zm0 3h105l-1.5-1.5v81l1.5-1.5h-105l1.5 1.5v-81l-1.5 1.5zm-21.5-23h148v124h-148v-124z"/></defs><clipPath id="fp"><use xlink:href="#fo" overflow="visible"/></clipPath><g clip-path="url(#fp)"><defs><path id="fq" d="M83.8 191.4h105v81h-105z"/></defs></g></g><g><defs><path id="fr" d="M83.8 191.4h105v81h-105z"/></defs></g><g><defs><path id="fs" d="M77.8 206.9h-2.2l.9-2.1 9.1-22 .4-.9h100.9l.4.9 9.1 22 .9 2.1H77.8zm0-3h117l-1.4 2.1-9.1-22 1.4.9H86.9l1.4-.9-9.1 22-1.4-2.1zm-22.2 23H217v-65H55.6v65z"/></defs><clipPath id="ft"><use xlink:href="#fs" overflow="visible"/></clipPath><g clip-path="url(#ft)"><defs><path id="fu" d="M77.8 205.4h117l-9.1-22H86.9z"/></defs></g></g><g><defs><path id="fv" d="M77.8 205.4h117l-9.1-22H86.9z"/></defs></g><g><defs><path id="fw" d="M162.8 173.9h-1.5v19h15v-19h-13.5zm0 3h12l-1.5-1.5v16l1.5-1.5h-12l1.5 1.5v-16l-1.5 1.5zm-21.5-23h55v59h-55v-59z"/></defs><clipPath id="fx"><use xlink:href="#fw" overflow="visible"/></clipPath><g clip-path="url(#fx)"><defs><path id="fy" d="M162.8 175.4h12v16h-12z"/></defs></g></g><g><defs><path id="fz" d="M162.8 175.4h12v16h-12z"/></defs></g><g><defs><path id="fA" d="M96.8 239.9h-1.5v34h24v-34H96.8zm0 3h21l-1.5-1.5v31l1.5-1.5h-21l1.5 1.5v-31l-1.5 1.5zm-21.5-23h64v74h-64v-74z"/></defs><clipPath id="fB"><use xlink:href="#fA" overflow="visible"/></clipPath><g clip-path="url(#fB)"><defs><path id="fC" d="M96.8 241.4h21v31h-21z"/></defs></g></g><g><defs><path id="fD" d="M96.8 241.4h21v31h-21z"/></defs></g><g><defs><path id="fE" d="M97.8 211.9h-1.5v22h22v-22H97.8zm0 3h19l-1.5-1.5v19l1.5-1.5h-19l1.5 1.5v-19l-1.5 1.5zm-21.5-23h62v62h-62v-62z"/></defs><clipPath id="fF"><use xlink:href="#fE" overflow="visible"/></clipPath><g clip-path="url(#fF)"><defs><path id="fG" d="M97.8 213.4h19v19h-19z"/></defs></g></g><g><defs><path id="fH" d="M97.8 213.4h19v19h-19z"/></defs></g><g><defs><path id="fI" d="M102.8 216.9h-1.5v12h12v-12h-10.5zm0 3h9l-1.5-1.5v9l1.5-1.5h-9l1.5 1.5v-9l-1.5 1.5zm-21.5-23h52v52h-52v-52z"/></defs><clipPath id="fJ"><use xlink:href="#fI" overflow="visible"/></clipPath><g clip-path="url(#fJ)"><defs><path id="fK" d="M102.8 218.4h9v9h-9z"/></defs></g></g><g><defs><path id="fL" d="M102.8 218.4h9v9h-9z"/></defs></g><g><defs><path id="fM" d="M127.8 211.9h-1.5v22h22v-22h-20.5zm0 3h19l-1.5-1.5v19l1.5-1.5h-19l1.5 1.5v-19l-1.5 1.5zm-21.5-23h62v62h-62v-62z"/></defs><clipPath id="fN"><use xlink:href="#fM" overflow="visible"/></clipPath><g clip-path="url(#fN)"><defs><path id="fO" d="M127.8 213.4h19v19h-19z"/></defs></g></g><g><defs><path id="fP" d="M127.8 213.4h19v19h-19z"/></defs></g><g><defs><path id="fQ" d="M156.8 211.9h-1.5v22h22v-22h-20.5zm0 3h19l-1.5-1.5v19l1.5-1.5h-19l1.5 1.5v-19l-1.5 1.5zm-21.5-23h62v62h-62v-62z"/></defs><clipPath id="fR"><use xlink:href="#fQ" overflow="visible"/></clipPath><g clip-path="url(#fR)"><defs><path id="fS" d="M156.8 213.4h19v19h-19z"/></defs></g></g><g><defs><path id="fT" d="M156.8 213.4h19v19h-19z"/></defs></g><g><defs><path id="fU" d="M127.8 239.9h-1.5v22h22v-22h-20.5zm0 3h19l-1.5-1.5v19l1.5-1.5h-19l1.5 1.5v-19l-1.5 1.5zm-21.5-23h62v62h-62v-62z"/></defs><clipPath id="fV"><use xlink:href="#fU" overflow="visible"/></clipPath><g clip-path="url(#fV)"><defs><path id="fW" d="M127.8 241.4h19v19h-19z"/></defs></g></g><g><defs><path id="fX" d="M127.8 241.4h19v19h-19z"/></defs></g><g><defs><path id="fY" d="M156.8 239.9h-1.5v22h22v-22h-20.5zm0 3h19l-1.5-1.5v19l1.5-1.5h-19l1.5 1.5v-19l-1.5 1.5zm-21.5-23h62v62h-62v-62z"/></defs><clipPath id="fZ"><use xlink:href="#fY" overflow="visible"/></clipPath><g clip-path="url(#fZ)"><defs><path id="ga" d="M156.8 241.4h19v19h-19z"/></defs></g></g><g><defs><path id="gb" d="M156.8 241.4h19v19h-19z"/></defs></g><g><defs><path id="gc" d="M132.8 216.9h-1.5v12h12v-12h-10.5zm0 3h9l-1.5-1.5v9l1.5-1.5h-9l1.5 1.5v-9l-1.5 1.5zm-21.5-23h52v52h-52v-52z"/></defs><clipPath id="gd"><use xlink:href="#gc" overflow="visible"/></clipPath><g clip-path="url(#gd)"><defs><path id="ge" d="M132.8 218.4h9v9h-9z"/></defs></g></g><g><defs><path id="gf" d="M132.8 218.4h9v9h-9z"/></defs></g><g><defs><path id="gg" d="M161.8 216.9h-1.5v12h12v-12h-10.5zm0 3h9l-1.5-1.5v9l1.5-1.5h-9l1.5 1.5v-9l-1.5 1.5zm-21.5-23h52v52h-52v-52z"/></defs><clipPath id="gh"><use xlink:href="#gg" overflow="visible"/></clipPath><g clip-path="url(#gh)"><defs><path id="gi" d="M161.8 218.4h9v9h-9z"/></defs></g></g><g><defs><path id="gj" d="M161.8 218.4h9v9h-9z"/></defs></g><g><defs><path id="gk" d="M132.8 244.9h-1.5v12h12v-12h-10.5zm0 3h9l-1.5-1.5v9l1.5-1.5h-9l1.5 1.5v-9l-1.5 1.5zm-21.5-23h52v52h-52v-52z"/></defs><clipPath id="gl"><use xlink:href="#gk" overflow="visible"/></clipPath><g clip-path="url(#gl)"><defs><path id="gm" d="M132.8 246.4h9v9h-9z"/></defs></g></g><g><defs><path id="gn" d="M132.8 246.4h9v9h-9z"/></defs></g><g><defs><path id="go" d="M161.8 244.9h-1.5v12h12v-12h-10.5zm0 3h9l-1.5-1.5v9l1.5-1.5h-9l1.5 1.5v-9l-1.5 1.5zm-21.5-23h52v52h-52v-52z"/></defs><clipPath id="gp"><use xlink:href="#go" overflow="visible"/></clipPath><g clip-path="url(#gp)"><defs><path id="gq" d="M161.8 246.4h9v9h-9z"/></defs></g></g><g><defs><path id="gr" d="M161.8 246.4h9v9h-9z"/></defs></g><g><defs><path id="gs" d="M138 428.3c-27.1 0-49-21.9-49-49s21.9-49 49-49 49 21.9 49 49c0 27-21.9 49-49 49zm0 3c28.7 0 52-23.3 52-52s-23.3-52-52-52-52 23.3-52 52 23.3 52 52 52zm-72-124h144v144H66v-144z"/></defs><clipPath id="gt"><use xlink:href="#gs" overflow="visible"/></clipPath><g clip-path="url(#gt)"><defs><circle id="gu" cx="138" cy="379.3" r="50.5"/></defs></g></g><g><defs><circle id="gv" cx="138" cy="379.3" r="50.5"/></defs></g><g><defs><circle id="gw" cx="138" cy="379.3" r="43.5"/></defs></g><g><defs><path id="gx" d="M138.7 595.5c-24.6 0-44.6-20-44.6-44.6s20-44.6 44.6-44.6 44.6 20 44.6 44.6-20 44.6-44.6 44.6zm0 2.7c26.1 0 47.3-21.2 47.3-47.3 0-26.1-21.2-47.3-47.3-47.3s-47.3 21.2-47.3 47.3c0 26.1 21.2 47.3 47.3 47.3zM73.2 485.4h131v131h-131v-131z"/></defs><clipPath id="gy"><use xlink:href="#gx" overflow="visible"/></clipPath><g clip-path="url(#gy)"><defs><circle id="gz" cx="138.7" cy="550.9" r="45.9"/></defs></g></g><g><defs><circle id="gA" cx="138.7" cy="550.9" r="45.9"/></defs></g><g><defs><circle id="gB" cx="138.7" cy="550.9" r="39.6"/></defs></g></svg>