<svg xmlns="http://www.w3.org/2000/svg" viewBox="0 0 276 137"><g data-name="Layer 1"><path fill="#fff" stroke="#0c1f2e" stroke-miterlimit="10" stroke-width="3" d="M73.05 57.08h130.69v15H73.05z"/><path fill="#0c1f2e" d="M73.05 55.92h43.7v17.33h-43.7zM72.25 81v-4.16h.94v3.36H75v.8zm6.82-.54a2.28 2.28 0 0 1-3.13 0 2.19 2.19 0 0 1 0-3.09 2.28 2.28 0 0 1 3.13 0 2.19 2.19 0 0 1 0 3.09zm-.32-1.54a1.37 1.37 0 0 0-.36-1 1.19 1.19 0 0 0-1.77 0 1.45 1.45 0 0 0 0 1.91 1.19 1.19 0 0 0 1.77 0 1.36 1.36 0 0 0 .37-.92zM83.36 81l-.36-.87h-1.78l-.39.91h-1l1.81-4.19h.91L84.36 81zm-1.26-2.91l-.53 1.22h1zm5.9-.7a2 2 0 0 1 .6 1.53 2.06 2.06 0 0 1-.58 1.55 2.46 2.46 0 0 1-1.78.57h-1.39v-4.2h1.48a2.46 2.46 0 0 1 1.67.55zm-.69 2.49a1.23 1.23 0 0 0 .34-.94 1.26 1.26 0 0 0-.34-1 1.48 1.48 0 0 0-1.06-.33h-.52v2.55h.59a1.39 1.39 0 0 0 1.04-.28zm2.15-3.04h.94V81h-.94zm4.9 0h.94V81h-.94l-2-2.63V81h-.94v-4.16h.88l2.06 2.7zm4.69 2.06h.95v1.49a2.2 2.2 0 0 1-1.73.7 2.13 2.13 0 0 1-1.55-.61 2.22 2.22 0 0 1 0-3.1 2.13 2.13 0 0 1 1.54-.62 2.28 2.28 0 0 1 1.57.59l-.49.7a1.86 1.86 0 0 0-.52-.34 1.4 1.4 0 0 0-.51-.09 1.23 1.23 0 0 0-.9.36 1.45 1.45 0 0 0 0 1.91 1.13 1.13 0 0 0 .84.36 1.61 1.61 0 0 0 .81-.19zm1.75 2.03a.54.54 0 1 1 .38.15.51.51 0 0 1-.38-.15zm1.73 0a.54.54 0 1 1 .38.15.51.51 0 0 1-.38-.15zm1.73 0a.54.54 0 1 1 .38.15.51.51 0 0 1-.38-.15z"/></g></svg>