<svg id="Layer_1" data-name="Layer 1" xmlns="http://www.w3.org/2000/svg" viewBox="0 0 276 137"><defs><style>.cls-1,.cls-2,.cls-3,.cls-5,.cls-7,.cls-9{fill:#fff}.cls-1,.cls-10,.cls-11,.cls-2,.cls-9{stroke:#0e1f2d;stroke-width:1.88px}.cls-1,.cls-10,.cls-11,.cls-2,.cls-3,.cls-9{stroke-miterlimit:10}.cls-1{clip-rule:evenodd}.cls-3{stroke:#101f2c;stroke-width:2.82px}.cls-4{fill:#0e1f2d}.cls-11,.cls-12,.cls-5,.cls-9{fill-rule:evenodd}.cls-6{clip-path:url(#clip-path)}.cls-8{clip-path:url(#clip-path-2)}.cls-10,.cls-11,.cls-12,.cls-13{fill:none}</style><clipPath id="clip-path"><path class="cls-1" d="M93.33 50.79h65.16l5.85 5.75v11.01H93.33V50.79z"/></clipPath><clipPath id="clip-path-2"><path class="cls-2" d="M-96.69-205.45h572.62v493.32H-96.69z"/></clipPath></defs><path class="cls-3" d="M72.52 20.23h110.74v70.12H72.52z"/><path class="cls-3" d="M79.34 27.47h97.08V84.7H79.34zm34.13 62.88h28.83v17.6h-28.83z"/><path class="cls-3" d="M104.77 107.94h46.24V113h-46.24z"/><path class="cls-2" d="M151.48 51.95l-51.78-.5 8.02-14.3h35.06l8.7 14.8z"/><path class="cls-4" d="M140.7 39.49h-15.11v8.9h19.78zm-13.58 1.44h12.64l3.16 6h-15.8zm-22.59 7.45h19.63v-8.89H109zm18.09-7.45v6H107l3-6z"/><path class="cls-5" d="M93.33 50.79h65.16l5.85 5.75v11.01H93.33V50.79z"/><g class="cls-6"><path class="cls-7" d="M-96.69-205.45h572.62v493.32H-96.69z"/><g class="cls-8"><path class="cls-9" d="M93.33 50.79h65.16l5.85 5.75v11.01H93.33V50.79z"/></g><path class="cls-10" d="M-96.69-205.45h572.62v493.32H-96.69z"/></g><path class="cls-11" d="M93.33 50.79h65.16l5.85 5.75v11.01H93.33V50.79z"/><path class="cls-12" d="M93.33 51.51h65.16l-.55-.23 5.84 5.75-.21-.49v11.01l.77-.72H93.33l.77.72V50.79l-.77.72z"/><ellipse class="cls-2" cx="144.02" cy="67.75" rx="7.41" ry="6.94"/><ellipse class="cls-13" cx="144.02" cy="67.75" rx="4.6" ry="4.31"/><ellipse class="cls-10" cx="144.02" cy="67.75" rx="3.83" ry="3.59"/><ellipse class="cls-13" cx="144.02" cy="67.75" rx="4.6" ry="4.31"/><path class="cls-4" d="M125.72 67.41a.74.74 0 0 1-.77-.72V51.9a.77.77 0 0 1 1.53 0v14.79a.74.74 0 0 1-.76.72zm-15.59-11.99h-4.69a.72.72 0 1 1 0-1.44h4.69a.72.72 0 1 1 0 1.44zm24.52 0H130a.72.72 0 1 1 0-1.42h4.69a.72.72 0 1 1 0 1.44z"/><ellipse class="cls-2" cx="110.19" cy="67.75" rx="7.41" ry="6.94"/><ellipse class="cls-10" cx="110.19" cy="67.75" rx="3.83" ry="3.59"/></svg>