<svg xmlns="http://www.w3.org/2000/svg" xmlns:xlink="http://www.w3.org/1999/xlink" viewBox="0 0 276 137"><defs><path id="a" d="M-159.9-780.6c30.3 0 55 7.1 55 14.8v22l1.7-1.5c-.1 0-.2 0-.4-.1-.4-.1-.8-.1-1.3-.2-1.4-.2-2.9-.4-4.6-.6-4.9-.7-10-1.3-15.2-2-3.9-.5-7.7-.9-11.3-1.3-9.9-1-18.1-1.6-23.9-1.6-5.2 0-14.3.8-26.1 2.3-2.5.3-5.1.6-7.7 1-5.4.7-10.9 1.5-16.1 2.3-1.8.3-3.5.5-5 .8-.5.1-1 .2-1.4.2-.2 0-.4.1-.5.1l1.7 1.5v-23c.1-7.6 24.8-14.7 55.1-14.7zm0-3c-32.1 0-58 7.5-58 17.8v24.8l1.7-.3c.1 0 .2 0 .5-.1.4-.1.8-.1 1.4-.2 1.5-.2 3.1-.5 5-.8 5.2-.8 10.7-1.6 16.1-2.3 2.6-.4 5.2-.7 7.7-1 11.7-1.5 20.7-2.3 25.7-2.3 5.6 0 13.7.6 23.6 1.6 3.6.4 7.4.8 11.2 1.3 5.2.6 10.3 1.3 15.2 2 1.7.2 3.2.4 4.6.6.5.1.9.1 1.2.2.2 0 .4.1.4.1l1.7.3v-23.7c0-10.6-25.9-18-58-18zm-78-20h156v82.5h-156v-82.5z"/></defs><clipPath id="b"><use xlink:href="#a" overflow="visible"/></clipPath><g clip-path="url(#b)"><defs><path id="c" d="M-159.9-782.1c-31.2 0-56.5 7.3-56.5 16.3v23s42.2-6.7 56.5-6.7c18 0 56.5 5.7 56.5 5.7v-22c0-9-25.3-16.3-56.5-16.3z"/></defs><clipPath id="d"><use xlink:href="#c" overflow="visible"/></clipPath><g clip-path="url(#d)"><defs><path id="e" d="M-1075.4-864.9h1121v1030h-1121z"/></defs></g></g><defs><path id="f" d="M-159.9-782.1c-31.2 0-56.5 7.3-56.5 16.3v23s42.2-6.7 56.5-6.7c18 0 56.5 5.7 56.5 5.7v-22c0-9-25.3-16.3-56.5-16.3z"/></defs><clipPath id="g"><use xlink:href="#f" overflow="visible"/></clipPath><g clip-path="url(#g)"><defs><path id="h" d="M-1075.4-864.9h1121v1030h-1121z"/></defs></g><defs><path id="i" d="M-159.9-758.4c30.3 0 55 7.1 55 14.8 0 7.7-24.7 14.8-55 14.8s-55-7.1-55-14.8c0-7.6 24.7-14.8 55-14.8zm0-3c-32.1 0-58 7.5-58 17.8s25.9 17.8 58 17.8 58-7.5 58-17.8-25.9-17.8-58-17.8zm-78-20h156v75.6h-156v-75.6z"/></defs><clipPath id="j"><use xlink:href="#i" overflow="visible"/></clipPath><g clip-path="url(#j)"><defs><ellipse id="k" cx="-159.9" cy="-743.5" rx="56.5" ry="16.3"/></defs><clipPath id="l"><use xlink:href="#k" overflow="visible"/></clipPath><g clip-path="url(#l)"><defs><path id="m" d="M-1075.4-864.9h1121v1030h-1121z"/></defs></g></g><defs><ellipse id="n" cx="-159.9" cy="-743.5" rx="56.5" ry="16.3"/></defs><clipPath id="o"><use xlink:href="#n" overflow="visible"/></clipPath><g clip-path="url(#o)"><defs><path id="p" d="M-1075.4-864.9h1121v1030h-1121z"/></defs></g><defs><path id="q" d="M-199.9-739.2c0-5.3 18-10.4 40-10.4s40 5.2 40 10.4v7.1l1.2-1.5c-.1 0-.1 0-.3.1-.3 0-.6.1-.9.2-1 .2-2.1.3-3.4.5-3.6.6-7.3 1.1-11.1 1.7-2.9.4-5.6.8-8.3 1.1-7.2.9-13.1 1.3-17.2 1.3-3.7 0-10.3-.5-18.9-1.4-1.8-.2-3.7-.4-5.6-.6-4-.5-8-.9-11.8-1.4-1.3-.2-2.6-.3-3.6-.5-.4 0-.7-.1-1-.1h-.3l1.3 1.5v-8zm-3 0v9.1l1.3.2h.4c.3 0 .6.1 1 .1 1.1.1 2.3.3 3.7.5a11776882415803102 11776882415803102 0 0 0 36.7 3.5c4.3 0 10.3-.5 17.6-1.4 2.7-.3 5.4-.7 8.3-1.1 3.8-.5 7.6-1.1 11.2-1.7 1.3-.2 2.4-.4 3.4-.5.4-.1.7-.1.9-.2.3 0 .3 0 .3-.1l1.2-.2v-8.4c0-7.9-19.2-13.4-43-13.4s-43 5.7-43 13.6zm-20-33.4h126v66.9h-126v-66.9z"/></defs><clipPath id="r"><use xlink:href="#q" overflow="visible"/></clipPath><g clip-path="url(#r)"><defs><path id="s" d="M-201.4-739.2v7.8s31 4.1 41.5 4.1c13.2 0 41.5-4.8 41.5-4.8v-7.1c0-6.6-18.6-11.9-41.5-11.9s-41.5 5.3-41.5 11.9z"/></defs><clipPath id="t"><use xlink:href="#s" overflow="visible"/></clipPath><g clip-path="url(#t)"><defs><path id="u" d="M-1075.4-864.9h1121v1030h-1121z"/></defs></g></g><defs><path id="v" d="M-201.4-739.2v7.8s31 4.1 41.5 4.1c13.2 0 41.5-4.8 41.5-4.8v-7.1c0-6.6-18.6-11.9-41.5-11.9s-41.5 5.3-41.5 11.9z"/></defs><clipPath id="w"><use xlink:href="#v" overflow="visible"/></clipPath><g clip-path="url(#w)"><defs><path id="x" d="M-1075.4-864.9h1121v1030h-1121z"/></defs></g><defs><path id="y" d="M-159.9-741.3c22 0 40 5.2 40 10.4 0 5.3-18 10.4-40 10.4s-40-5.2-40-10.4 18-10.4 40-10.4zm0-3c-23.8 0-43 5.5-43 13.4s19.2 13.4 43 13.4 43-5.5 43-13.4-19.2-13.4-43-13.4zm-63-20h126v66.9h-126v-66.9z"/></defs><clipPath id="z"><use xlink:href="#y" overflow="visible"/></clipPath><g clip-path="url(#z)"><defs><ellipse id="A" cx="-159.9" cy="-730.9" rx="41.5" ry="11.9"/></defs><clipPath id="B"><use xlink:href="#A" overflow="visible"/></clipPath><g clip-path="url(#B)"><defs><path id="C" d="M-1075.4-864.9h1121v1030h-1121z"/></defs></g></g><defs><ellipse id="D" cx="-159.9" cy="-730.9" rx="41.5" ry="11.9"/></defs><clipPath id="E"><use xlink:href="#D" overflow="visible"/></clipPath><g clip-path="url(#E)"><defs><path id="F" d="M-1075.4-864.9h1121v1030h-1121z"/></defs></g><defs><path id="G" d="M-172.5-729.3c0 .4-.2.7-.4.8.1 0 .2-.1.4-.2.6-.2 1.6-.4 2.8-.6 2.6-.4 6-.6 9.8-.6s7.2.2 9.8.6c1.2.2 2.2.4 2.8.6l.4.2c-.2-.1-.4-.4-.4-.8s.2-.7.4-.8c-.1 0-.2.1-.4.2-.6.2-1.6.4-2.8.6-2.6.4-6 .6-9.8.6s-7.2-.2-9.8-.6c-1.2-.2-2.2-.4-2.8-.6l-.4-.2c.2.1.4.3.4.8zm-3 0c0 2.6 6.2 3.5 15.6 3.5 9.4 0 15.6-.9 15.6-3.5s-6.2-3.5-15.6-3.5c-9.4-.1-15.6.8-15.6 3.5zm-20-23.6h71.2v47.1h-71.2v-47.1z"/></defs><clipPath id="H"><use xlink:href="#G" overflow="visible"/></clipPath><g clip-path="url(#H)"><defs><ellipse id="I" cx="-159.9" cy="-729.3" rx="14.1" ry="2"/></defs><clipPath id="J"><use xlink:href="#I" overflow="visible"/></clipPath><g clip-path="url(#J)"><defs><path id="K" d="M-1075.4-864.9h1121v1030h-1121z"/></defs></g></g><defs><ellipse id="L" cx="-159.9" cy="-729.3" rx="14.1" ry="2"/></defs><clipPath id="M"><use xlink:href="#L" overflow="visible"/></clipPath><g clip-path="url(#M)"><defs><path id="N" d="M-1075.4-864.9h1121v1030h-1121z"/></defs></g><defs><path id="O" d="M-167.1-712s-10.5 3.3-9.1 12.3c.9 5.5 5.6 8.1 5.6 13.5s-4.6 9.5-4.6 9.5 13.5-.3 14.6-9.5c1.1-9.2-6.7-11.3-8.3-15.6-1.4-4.3 1.8-10.2 1.8-10.2z"/></defs><clipPath id="P"><use xlink:href="#O" overflow="visible"/></clipPath><g clip-path="url(#P)"><defs><path id="Q" d="M-1075.4-864.9h1121v1030h-1121z"/></defs></g><defs><path id="R" d="M-152-708.7s-15.1 4.8-13 17.6c1.2 7.9 8 11.6 8 19.4s-6.5 13.6-6.5 13.6 19.3-.5 20.9-13.6-9.6-16.1-11.8-22.3c-2.3-6.3 2.4-14.7 2.4-14.7z"/></defs><clipPath id="S"><use xlink:href="#R" overflow="visible"/></clipPath><g clip-path="url(#S)"><defs><path id="T" d="M-1075.4-864.9h1121v1030h-1121z"/></defs></g><defs><path id="U" d="M-803.5-598.5l-1.4.4.4 1.4 30.4 99.5.4 1.4 1.4-.4 60.2-18.4 1.4-.4-.4-1.4-30.4-99.5-.4-1.4-1.4.4-60.2 18.4zm.9 2.9l60.2-18.4-1.9-1 30.4 99.5 1-1.9-60.2 18.4 1.9 1-30.4-99.5-1 1.9zm-27.3-15.7l101.4-31 43 140.6-101.4 31-43-140.6z"/></defs><clipPath id="V"><use xlink:href="#U" overflow="visible"/></clipPath><g clip-path="url(#V)"><defs><path id="W" transform="rotate(162.999 -757.698 -556.508)" d="M-789.2-608.5h63v104h-63z"/></defs><clipPath id="X"><use xlink:href="#W" overflow="visible"/></clipPath><g clip-path="url(#X)"><defs><path id="Y" d="M-933.2-906h1121V124h-1121z"/></defs></g></g><defs><path id="Z" transform="rotate(162.999 -757.698 -556.508)" d="M-789.2-608.5h63v104h-63z"/></defs><clipPath id="aa"><use xlink:href="#Z" overflow="visible"/></clipPath><g clip-path="url(#aa)"><defs><path id="ab" d="M-933.2-906h1121V124h-1121z"/></defs></g><defs><path id="ac" d="M-768.2-621.5h-1.5v107h66v-107h-64.5zm0 3h63l-1.5-1.5v104l1.5-1.5h-63l1.5 1.5v-104l-1.5 1.5zm-21.5-23h106v147h-106v-147z"/></defs><clipPath id="ad"><use xlink:href="#ac" overflow="visible"/></clipPath><g clip-path="url(#ad)"><defs><path id="ae" d="M-768.2-620h63v104h-63z"/></defs><clipPath id="af"><use xlink:href="#ae" overflow="visible"/></clipPath><g clip-path="url(#af)"><defs><path id="ag" d="M-933.2-906h1121V124h-1121z"/></defs></g></g><defs><path id="ah" d="M-768.2-620h63v104h-63z"/></defs><clipPath id="ai"><use xlink:href="#ah" overflow="visible"/></clipPath><g clip-path="url(#ai)"><defs><path id="aj" d="M-933.2-906h1121V124h-1121z"/></defs></g><defs><path id="ak" d="M-759.2-592h44v13h-44z"/></defs><clipPath id="al"><use xlink:href="#ak" overflow="visible"/></clipPath><g clip-path="url(#al)"><defs><path id="am" d="M-933.2-906h1121V124h-1121z"/></defs></g><defs><path id="an" d="M-759.2-582h44v13h-44z"/></defs><clipPath id="ao"><use xlink:href="#an" overflow="visible"/></clipPath><g clip-path="url(#ao)"><defs><path id="ap" d="M-933.2-906h1121V124h-1121z"/></defs></g><defs><path id="aq" d="M-759.2-572h44v13h-44z"/></defs><clipPath id="ar"><use xlink:href="#aq" overflow="visible"/></clipPath><g clip-path="url(#ar)"><defs><path id="as" d="M-933.2-906h1121V124h-1121z"/></defs></g><defs><path id="at" d="M-759.2-562h44v14h-44z"/></defs><clipPath id="au"><use xlink:href="#at" overflow="visible"/></clipPath><g clip-path="url(#au)"><defs><path id="av" d="M-933.2-906h1121V124h-1121z"/></defs></g><defs><path id="aw" d="M-759.2-551h44v14h-44z"/></defs><clipPath id="ax"><use xlink:href="#aw" overflow="visible"/></clipPath><g clip-path="url(#ax)"><defs><path id="ay" d="M-933.2-906h1121V124h-1121z"/></defs></g><defs><path id="az" d="M-759.2-540h44v14h-44z"/></defs><clipPath id="aA"><use xlink:href="#az" overflow="visible"/></clipPath><g clip-path="url(#aA)"><defs><path id="aB" d="M-933.2-906h1121V124h-1121z"/></defs></g><defs><path id="aC" d="M-758.2-610h3v13h-3z"/></defs><clipPath id="aD"><use xlink:href="#aC" overflow="visible"/></clipPath><g clip-path="url(#aD)"><defs><path id="aE" d="M-933.2-906h1121V124h-1121z"/></defs></g><defs><path id="aF" d="M-753.2-610h3v13h-3z"/></defs><clipPath id="aG"><use xlink:href="#aF" overflow="visible"/></clipPath><g clip-path="url(#aG)"><defs><path id="aH" d="M-933.2-906h1121V124h-1121z"/></defs></g><defs><path id="aI" d="M-748.2-610h3v13h-3z"/></defs><clipPath id="aJ"><use xlink:href="#aI" overflow="visible"/></clipPath><g clip-path="url(#aJ)"><defs><path id="aK" d="M-933.2-906h1121V124h-1121z"/></defs></g><defs><path id="aL" d="M-743.2-610h3v13h-3z"/></defs><clipPath id="aM"><use xlink:href="#aL" overflow="visible"/></clipPath><g clip-path="url(#aM)"><defs><path id="aN" d="M-933.2-906h1121V124h-1121z"/></defs></g><defs><path id="aO" d="M-738.2-610h3v13h-3z"/></defs><clipPath id="aP"><use xlink:href="#aO" overflow="visible"/></clipPath><g clip-path="url(#aP)"><defs><path id="aQ" d="M-933.2-906h1121V124h-1121z"/></defs></g><defs><path id="aR" d="M-738.2-559h3v32h-3z"/></defs><clipPath id="aS"><use xlink:href="#aR" overflow="visible"/></clipPath><g clip-path="url(#aS)"><defs><path id="aT" d="M-933.2-906h1121V124h-1121z"/></defs></g><defs><path id="aU" d="M-733.2-610h3v13h-3z"/></defs><clipPath id="aV"><use xlink:href="#aU" overflow="visible"/></clipPath><g clip-path="url(#aV)"><defs><path id="aW" d="M-933.2-906h1121V124h-1121z"/></defs></g><defs><path id="aX" d="M-728.2-610h3v13h-3z"/></defs><clipPath id="aY"><use xlink:href="#aX" overflow="visible"/></clipPath><g clip-path="url(#aY)"><defs><path id="aZ" d="M-933.2-906h1121V124h-1121z"/></defs></g><defs><path id="ba" d="M-723.2-610h3v13h-3z"/></defs><clipPath id="bb"><use xlink:href="#ba" overflow="visible"/></clipPath><g clip-path="url(#bb)"><defs><path id="bc" d="M-933.2-906h1121V124h-1121z"/></defs></g><defs><path id="bd" d="M-718.2-610h3v13h-3z"/></defs><clipPath id="be"><use xlink:href="#bd" overflow="visible"/></clipPath><g clip-path="url(#be)"><defs><path id="bf" d="M-933.2-906h1121V124h-1121z"/></defs></g><defs><path id="bg" d="M-800.2-595.8l53.3 34.1-23.9 61.7"/></defs><clipPath id="bh"><use xlink:href="#bg" overflow="visible"/></clipPath><g clip-path="url(#bh)"><defs><path id="bi" d="M-933.2-906h1121V124h-1121z"/></defs></g><defs><path id="bj" d="M-498.5-621.5h-1.5v107h66v-107h-64.5zm0 3h63l-1.5-1.5v104l1.5-1.5h-63l1.5 1.5v-104l-1.5 1.5zm-21.5-23h106v147h-106v-147z"/></defs><clipPath id="bk"><use xlink:href="#bj" overflow="visible"/></clipPath><g clip-path="url(#bk)"><defs><path id="bl" d="M-498.5-620h63v104h-63z"/></defs><clipPath id="bm"><use xlink:href="#bl" overflow="visible"/></clipPath><g clip-path="url(#bm)"><defs><path id="bn" d="M-888.5-900h1121V130h-1121z"/></defs></g></g><g><defs><path id="bo" d="M-498.5-620h63v104h-63z"/></defs><clipPath id="bp"><use xlink:href="#bo" overflow="visible"/></clipPath><g clip-path="url(#bp)"><defs><path id="bq" d="M-888.5-900h1121V130h-1121z"/></defs></g></g><g><defs><path id="br" d="M-489.5-592h44v13h-44z"/></defs><clipPath id="bs"><use xlink:href="#br" overflow="visible"/></clipPath><g clip-path="url(#bs)"><defs><path id="bt" d="M-888.5-900h1121V130h-1121z"/></defs></g></g><g><defs><path id="bu" d="M-489.5-582h44v13h-44z"/></defs><clipPath id="bv"><use xlink:href="#bu" overflow="visible"/></clipPath><g clip-path="url(#bv)"><defs><path id="bw" d="M-888.5-900h1121V130h-1121z"/></defs></g></g><g><defs><path id="bx" d="M-489.5-572h44v13h-44z"/></defs><clipPath id="by"><use xlink:href="#bx" overflow="visible"/></clipPath><g clip-path="url(#by)"><defs><path id="bz" d="M-888.5-900h1121V130h-1121z"/></defs></g></g><g><defs><path id="bA" d="M-489.5-562h44v14h-44z"/></defs><clipPath id="bB"><use xlink:href="#bA" overflow="visible"/></clipPath><g clip-path="url(#bB)"><defs><path id="bC" d="M-888.5-900h1121V130h-1121z"/></defs></g></g><g><defs><path id="bD" d="M-489.5-551h44v14h-44z"/></defs><clipPath id="bE"><use xlink:href="#bD" overflow="visible"/></clipPath><g clip-path="url(#bE)"><defs><path id="bF" d="M-888.5-900h1121V130h-1121z"/></defs></g></g><g><defs><path id="bG" d="M-489.5-540h44v14h-44z"/></defs><clipPath id="bH"><use xlink:href="#bG" overflow="visible"/></clipPath><g clip-path="url(#bH)"><defs><path id="bI" d="M-888.5-900h1121V130h-1121z"/></defs></g></g><g><defs><path id="bJ" d="M-488.5-610h3v13h-3z"/></defs><clipPath id="bK"><use xlink:href="#bJ" overflow="visible"/></clipPath><g clip-path="url(#bK)"><defs><path id="bL" d="M-888.5-900h1121V130h-1121z"/></defs></g></g><g><defs><path id="bM" d="M-483.5-610h3v13h-3z"/></defs><clipPath id="bN"><use xlink:href="#bM" overflow="visible"/></clipPath><g clip-path="url(#bN)"><defs><path id="bO" d="M-888.5-900h1121V130h-1121z"/></defs></g></g><g><defs><path id="bP" d="M-478.5-610h3v13h-3z"/></defs><clipPath id="bQ"><use xlink:href="#bP" overflow="visible"/></clipPath><g clip-path="url(#bQ)"><defs><path id="bR" d="M-888.5-900h1121V130h-1121z"/></defs></g></g><g><defs><path id="bS" d="M-473.5-610h3v13h-3z"/></defs><clipPath id="bT"><use xlink:href="#bS" overflow="visible"/></clipPath><g clip-path="url(#bT)"><defs><path id="bU" d="M-888.5-900h1121V130h-1121z"/></defs></g></g><g><defs><path id="bV" d="M-468.5-610h3v13h-3z"/></defs><clipPath id="bW"><use xlink:href="#bV" overflow="visible"/></clipPath><g clip-path="url(#bW)"><defs><path id="bX" d="M-888.5-900h1121V130h-1121z"/></defs></g></g><g><defs><path id="bY" d="M-468.5-559h3v32h-3z"/></defs><clipPath id="bZ"><use xlink:href="#bY" overflow="visible"/></clipPath><g clip-path="url(#bZ)"><defs><path id="ca" d="M-888.5-900h1121V130h-1121z"/></defs></g></g><g><defs><path id="cb" d="M-463.5-610h3v13h-3z"/></defs><clipPath id="cc"><use xlink:href="#cb" overflow="visible"/></clipPath><g clip-path="url(#cc)"><defs><path id="cd" d="M-888.5-900h1121V130h-1121z"/></defs></g></g><g><defs><path id="ce" d="M-458.5-610h3v13h-3z"/></defs><clipPath id="cf"><use xlink:href="#ce" overflow="visible"/></clipPath><g clip-path="url(#cf)"><defs><path id="cg" d="M-888.5-900h1121V130h-1121z"/></defs></g></g><g><defs><path id="ch" d="M-453.5-610h3v13h-3z"/></defs><clipPath id="ci"><use xlink:href="#ch" overflow="visible"/></clipPath><g clip-path="url(#ci)"><defs><path id="cj" d="M-888.5-900h1121V130h-1121z"/></defs></g></g><g><defs><path id="ck" d="M-448.5-610h3v13h-3z"/></defs><clipPath id="cl"><use xlink:href="#ck" overflow="visible"/></clipPath><g clip-path="url(#cl)"><defs><path id="cm" d="M-888.5-900h1121V130h-1121z"/></defs></g></g><g><defs><path id="cn" d="M-426.5-500.5c-16.3 0-29.5-13.2-29.5-29.5s13.2-29.5 29.5-29.5S-397-546.3-397-530s-13.2 29.5-29.5 29.5zm0 3c17.9 0 32.5-14.6 32.5-32.5s-14.6-32.5-32.5-32.5S-459-547.9-459-530s14.5 32.5 32.5 32.5zm-52.5-85h105v105h-105v-105z"/></defs><clipPath id="co"><use xlink:href="#cn" overflow="visible"/></clipPath><g clip-path="url(#co)"><defs><circle id="cp" cx="-426.5" cy="-530" r="31"/></defs><clipPath id="cq"><use xlink:href="#cp" overflow="visible"/></clipPath><g clip-path="url(#cq)"><defs><path id="cr" d="M-888.5-900h1121V130h-1121z"/></defs></g></g></g><g><defs><circle id="cs" cx="-426.5" cy="-530" r="31"/></defs><clipPath id="ct"><use xlink:href="#cs" overflow="visible"/></clipPath><g clip-path="url(#ct)"><defs><path id="cu" d="M-888.5-900h1121V130h-1121z"/></defs></g></g><g><defs><path id="cv" d="M-808-282.8h-1.2v71.5h131.7v-71.5H-808zm0 2.4h129.3l-1.2-1.2v69.1l1.2-1.2H-808l1.2 1.2v-69.1l-1.2 1.2zm-17.3-18.5h163.9v103.6h-163.9v-103.6z"/></defs><clipPath id="cw"><use xlink:href="#cv" overflow="visible"/></clipPath><g clip-path="url(#cw)"><defs><path id="cx" d="M-808-281.6h129.3v69.1H-808z"/></defs><clipPath id="cy"><use xlink:href="#cx" overflow="visible"/></clipPath><g clip-path="url(#cy)"><defs><path id="cz" d="M-887.1-686.9H13.4v827.4h-900.5z"/></defs></g></g></g><g><defs><path id="cA" d="M-808-281.6h129.3v69.1H-808z"/></defs><clipPath id="cB"><use xlink:href="#cA" overflow="visible"/></clipPath><g clip-path="url(#cB)"><defs><path id="cC" d="M-887.1-686.9H13.4v827.4h-900.5z"/></defs></g></g><g><defs><path id="cD" d="M-801.6-276.4h-1.2V-218.6h118.9V-276.4H-703.4l-.3.2-6.5 4.8.7-.2h-66.7l.8.3-5.9-4.8-.3-.3h-20zm0 2.4h19.4l-.8-.3 5.9 4.8.3.3H-709.3l.3-.2 6.5-4.8-.7.2h17.9l-1.2-1.2v55.4l1.2-1.2h-116.5l1.2 1.2v-55.4l-1 1.2zm-17.3-18.5h151v90h-151v-90z"/></defs><clipPath id="cE"><use xlink:href="#cD" overflow="visible"/></clipPath><g clip-path="url(#cE)"><defs><path id="cF" d="M-801.6-275.2h19.5l5.9 4.8h66.7l6.5-4.8h17.9v55.4h-116.5z"/></defs><clipPath id="cG"><use xlink:href="#cF" overflow="visible"/></clipPath><g clip-path="url(#cG)"><defs><path id="cH" d="M-887.1-686.9H13.4v827.4h-900.5z"/></defs></g></g></g><g><defs><path id="cI" d="M-801.6-275.2h19.5l5.9 4.8h66.7l6.5-4.8h17.9v55.4h-116.5z"/></defs><clipPath id="cJ"><use xlink:href="#cI" overflow="visible"/></clipPath><g clip-path="url(#cJ)"><defs><path id="cK" d="M-887.1-686.9H13.4v827.4h-900.5z"/></defs></g></g><g><defs><path id="cL" d="M-773.5-276h5.6v2.4h-5.6z"/></defs><clipPath id="cM"><use xlink:href="#cL" overflow="visible"/></clipPath><g clip-path="url(#cM)"><defs><path id="cN" d="M-887.1-686.9H13.4v827.4h-900.5z"/></defs></g></g><g><defs><path id="cO" d="M-717.2-276h5.6v2.4h-5.6z"/></defs><clipPath id="cP"><use xlink:href="#cO" overflow="visible"/></clipPath><g clip-path="url(#cP)"><defs><path id="cQ" d="M-887.1-686.9H13.4v827.4h-900.5z"/></defs></g></g><g><defs><path id="cR" d="M-152.9-38.1c-27.1 0-49-21.9-49-49s21.9-49 49-49 49 21.9 49 49-21.9 49-49 49zm0 3c28.7 0 52-23.3 52-52s-23.3-52-52-52-52 23.3-52 52 23.3 52 52 52zm-72-124h144v144h-144v-144z"/></defs><clipPath id="cS"><use xlink:href="#cR" overflow="visible"/></clipPath><g clip-path="url(#cS)"><defs><circle id="cT" cx="-152.9" cy="-87.1" r="50.5"/></defs><clipPath id="cU"><use xlink:href="#cT" overflow="visible"/></clipPath><g clip-path="url(#cU)"><defs><path id="cV" d="M-327.4-823.1h1121v1030h-1121z"/></defs></g></g></g><g><defs><circle id="cW" cx="-152.9" cy="-87.1" r="50.5"/></defs><clipPath id="cX"><use xlink:href="#cW" overflow="visible"/></clipPath><g clip-path="url(#cX)"><defs><path id="cY" d="M-327.4-823.1h1121v1030h-1121z"/></defs></g></g><g><defs><circle id="cZ" cx="-152.9" cy="-87.1" r="43.5"/></defs><clipPath id="da"><use xlink:href="#cZ" overflow="visible"/></clipPath><g clip-path="url(#da)"><defs><path id="db" d="M-327.4-823.1h1121v1030h-1121z"/></defs></g></g><g><defs><path id="dc" d="M-750 114.3c-27.1 0-49-21.9-49-49s21.9-49 49-49 49 21.9 49 49-21.9 49-49 49zm0 3c28.7 0 52-23.3 52-52s-23.3-52-52-52-52 23.3-52 52 23.3 52 52 52zm-72-124h144v144h-144v-144z"/></defs><clipPath id="dd"><use xlink:href="#dc" overflow="visible"/></clipPath><g clip-path="url(#dd)"><defs><circle id="de" cx="-750" cy="65.3" r="50.5"/></defs><clipPath id="df"><use xlink:href="#de" overflow="visible"/></clipPath><g clip-path="url(#df)"><defs><path id="dg" d="M-924.5-670.7h1121v1030h-1121z"/></defs></g></g></g><g><defs><circle id="dh" cx="-750" cy="65.3" r="50.5"/></defs><clipPath id="di"><use xlink:href="#dh" overflow="visible"/></clipPath><g clip-path="url(#di)"><defs><path id="dj" d="M-924.5-670.7h1121v1030h-1121z"/></defs></g></g><g><defs><circle id="dk" cx="-750" cy="65.3" r="43.5"/></defs><clipPath id="dl"><use xlink:href="#dk" overflow="visible"/></clipPath><g clip-path="url(#dl)"><defs><path id="dm" d="M-924.5-670.7h1121v1030h-1121z"/></defs></g></g><path fill="#FFF" stroke="#0C1F2E" stroke-width="3" stroke-linecap="round" stroke-miterlimit="10" d="M82 31.8h119.5v67.3H82z"/><path fill="none" stroke="#0C1F2E" stroke-width="3" stroke-linecap="round" stroke-miterlimit="10" d="M201.8 99.2S172 77.5 155.7 65.5M128.8 65.2c-16.1 11.8-46.5 34-46.5 34"/><circle fill="#FFF" stroke="#0F1F2D" stroke-width="3" stroke-linecap="round" stroke-miterlimit="10" cx="187" cy="97.1" r="18.5"/><g><path fill="#231F20" d="M197.7 97.3c0 3.8-2.1 6.2-4.9 6.2-1.5 0-2.6-.6-3-1.9l-.1-.2c-1 1.3-2.2 1.8-3.4 1.8-2.7 0-5.3-2.3-5.3-5.9 0-3.2 1.9-6 4.9-6 1.9 0 3 1.4 3 1.4v-1.1h3.5v8.4c0 .9.3 1.1.8 1.1.9 0 1.9-1.6 1.9-3.9 0-4.7-2.8-8.4-7.8-8.4-4.5 0-8.1 3.8-8.1 8.5 0 4.6 3.4 8.1 7.8 8.1 1.4 0 3.3-.5 4.7-1.6l1.3 2.2c-1.5 1.2-4 2-6 2-6 0-10.6-4.5-10.6-10.6 0-6.2 4.9-11.1 10.9-11.1 5.8.2 10.4 4.8 10.4 11zm-13 0c0 1.5.7 2.9 1.9 2.9 1.3 0 2-1.3 2-2.9 0-1.5-.7-2.7-2-2.7-1.1.1-1.9 1.3-1.9 2.7z"/></g><path fill="none" stroke="#0C1F2E" stroke-width="3" stroke-linecap="round" stroke-miterlimit="10" d="M82 31.8l59.8 42.7 59.7-42.7"/><g><defs><path id="dn" d="M-749.3 281.5c-24.6 0-44.6-20-44.6-44.6s20-44.6 44.6-44.6 44.6 20 44.6 44.6-20 44.6-44.6 44.6zm0 2.7c26.1 0 47.3-21.2 47.3-47.3s-21.2-47.3-47.3-47.3c-26.1 0-47.3 21.2-47.3 47.3s21.2 47.3 47.3 47.3zm-65.5-112.8h131v131h-131v-131z"/></defs><clipPath id="do"><use xlink:href="#dn" overflow="visible"/></clipPath><g clip-path="url(#do)"><defs><circle id="dp" cx="-749.3" cy="236.9" r="45.9"/></defs><clipPath id="dq"><use xlink:href="#dp" overflow="visible"/></clipPath><g clip-path="url(#dq)"><defs><path id="dr" d="M-908-432.7H111.8v937H-908z"/></defs></g></g></g><g><defs><circle id="ds" cx="-749.3" cy="236.9" r="45.9"/></defs><clipPath id="dt"><use xlink:href="#ds" overflow="visible"/></clipPath><g clip-path="url(#dt)"><defs><path id="du" d="M-908-432.7H111.8v937H-908z"/></defs></g></g><g><defs><circle id="dv" cx="-749.3" cy="236.9" r="39.6"/></defs><clipPath id="dw"><use xlink:href="#dv" overflow="visible"/></clipPath><g clip-path="url(#dw)"><defs><path id="dx" d="M-908-432.7H111.8v937H-908z"/></defs></g></g><g><defs><path id="dy" d="M-210.5 348.2h-1.5v84h108v-84h-106.5zm0 3h105l-1.5-1.5v81l1.5-1.5h-105l1.5 1.5v-81l-1.5 1.5zm-21.5-23h148v124h-148v-124z"/></defs><clipPath id="dz"><use xlink:href="#dy" overflow="visible"/></clipPath><g clip-path="url(#dz)"><defs><path id="dA" d="M-210.5 349.7h105v81h-105z"/></defs><clipPath id="dB"><use xlink:href="#dA" overflow="visible"/></clipPath><g clip-path="url(#dB)"><defs><path id="dC" d="M-1091.5-149.3h1121v1030h-1121z"/></defs></g></g></g><g><defs><path id="dD" d="M-210.5 349.7h105v81h-105z"/></defs><clipPath id="dE"><use xlink:href="#dD" overflow="visible"/></clipPath><g clip-path="url(#dE)"><defs><path id="dF" d="M-1091.5-149.3h1121v1030h-1121z"/></defs></g></g><g><defs><path id="dG" d="M-216.5 365.2h-2.2l.9-2.1 9.1-22 .4-.9h100.9l.4.9 9.1 22 .9 2.1h-119.5zm0-3h117l-1.4 2.1-9.1-22 1.4.9h-98.9l1.4-.9-9.1 22-1.3-2.1zm-22.2 23h161.5v-65h-161.5v65z"/></defs><clipPath id="dH"><use xlink:href="#dG" overflow="visible"/></clipPath><g clip-path="url(#dH)"><defs><path id="dI" d="M-216.5 363.7h117l-9.1-22h-98.8z"/></defs><clipPath id="dJ"><use xlink:href="#dI" overflow="visible"/></clipPath><g clip-path="url(#dJ)"><defs><path id="dK" d="M-1091.5-149.3h1121v1030h-1121z"/></defs></g></g></g><g><defs><path id="dL" d="M-216.5 363.7h117l-9.1-22h-98.8z"/></defs><clipPath id="dM"><use xlink:href="#dL" overflow="visible"/></clipPath><g clip-path="url(#dM)"><defs><path id="dN" d="M-1091.5-149.3h1121v1030h-1121z"/></defs></g></g><g><defs><path id="dO" d="M-131.5 332.2h-1.5v19h15v-19h-13.5zm0 3h12l-1.5-1.5v16l1.5-1.5h-12l1.5 1.5v-16l-1.5 1.5zm-21.5-23h55v59h-55v-59z"/></defs><clipPath id="dP"><use xlink:href="#dO" overflow="visible"/></clipPath><g clip-path="url(#dP)"><defs><path id="dQ" d="M-131.5 333.7h12v16h-12z"/></defs><clipPath id="dR"><use xlink:href="#dQ" overflow="visible"/></clipPath><g clip-path="url(#dR)"><defs><path id="dS" d="M-1091.5-149.3h1121v1030h-1121z"/></defs></g></g></g><g><defs><path id="dT" d="M-131.5 333.7h12v16h-12z"/></defs><clipPath id="dU"><use xlink:href="#dT" overflow="visible"/></clipPath><g clip-path="url(#dU)"><defs><path id="dV" d="M-1091.5-149.3h1121v1030h-1121z"/></defs></g></g><g><defs><path id="dW" d="M-197.5 398.2h-1.5v34h24v-34h-22.5zm0 3h21l-1.5-1.5v31l1.5-1.5h-21l1.5 1.5v-31l-1.5 1.5zm-21.5-23h64v74h-64v-74z"/></defs><clipPath id="dX"><use xlink:href="#dW" overflow="visible"/></clipPath><g clip-path="url(#dX)"><defs><path id="dY" d="M-197.5 399.7h21v31h-21z"/></defs><clipPath id="dZ"><use xlink:href="#dY" overflow="visible"/></clipPath><g clip-path="url(#dZ)"><defs><path id="ea" d="M-1091.5-149.3h1121v1030h-1121z"/></defs></g></g></g><g><defs><path id="eb" d="M-197.5 399.7h21v31h-21z"/></defs><clipPath id="ec"><use xlink:href="#eb" overflow="visible"/></clipPath><g clip-path="url(#ec)"><defs><path id="ed" d="M-1091.5-149.3h1121v1030h-1121z"/></defs></g></g><g><defs><path id="ee" d="M-196.5 370.2h-1.5v22h22v-22h-20.5zm0 3h19l-1.5-1.5v19l1.5-1.5h-19l1.5 1.5v-19l-1.5 1.5zm-21.5-23h62v62h-62v-62z"/></defs><clipPath id="ef"><use xlink:href="#ee" overflow="visible"/></clipPath><g clip-path="url(#ef)"><defs><path id="eg" d="M-196.5 371.7h19v19h-19z"/></defs><clipPath id="eh"><use xlink:href="#eg" overflow="visible"/></clipPath><g clip-path="url(#eh)"><defs><path id="ei" d="M-1091.5-149.3h1121v1030h-1121z"/></defs></g></g></g><g><defs><path id="ej" d="M-196.5 371.7h19v19h-19z"/></defs><clipPath id="ek"><use xlink:href="#ej" overflow="visible"/></clipPath><g clip-path="url(#ek)"><defs><path id="el" d="M-1091.5-149.3h1121v1030h-1121z"/></defs></g></g><g><defs><path id="em" d="M-191.5 375.2h-1.5v12h12v-12h-10.5zm0 3h9l-1.5-1.5v9l1.5-1.5h-9l1.5 1.5v-9l-1.5 1.5zm-21.5-23h52v52h-52v-52z"/></defs><clipPath id="en"><use xlink:href="#em" overflow="visible"/></clipPath><g clip-path="url(#en)"><defs><path id="eo" d="M-191.5 376.7h9v9h-9z"/></defs><clipPath id="ep"><use xlink:href="#eo" overflow="visible"/></clipPath><g clip-path="url(#ep)"><defs><path id="eq" d="M-1091.5-149.3h1121v1030h-1121z"/></defs></g></g></g><g><defs><path id="er" d="M-191.5 376.7h9v9h-9z"/></defs><clipPath id="es"><use xlink:href="#er" overflow="visible"/></clipPath><g clip-path="url(#es)"><defs><path id="et" d="M-1091.5-149.3h1121v1030h-1121z"/></defs></g></g><g><defs><path id="eu" d="M-166.5 370.2h-1.5v22h22v-22h-20.5zm0 3h19l-1.5-1.5v19l1.5-1.5h-19l1.5 1.5v-19l-1.5 1.5zm-21.5-23h62v62h-62v-62z"/></defs><clipPath id="ev"><use xlink:href="#eu" overflow="visible"/></clipPath><g clip-path="url(#ev)"><defs><path id="ew" d="M-166.5 371.7h19v19h-19z"/></defs><clipPath id="ex"><use xlink:href="#ew" overflow="visible"/></clipPath><g clip-path="url(#ex)"><defs><path id="ey" d="M-1091.5-149.3h1121v1030h-1121z"/></defs></g></g></g><g><defs><path id="ez" d="M-166.5 371.7h19v19h-19z"/></defs><clipPath id="eA"><use xlink:href="#ez" overflow="visible"/></clipPath><g clip-path="url(#eA)"><defs><path id="eB" d="M-1091.5-149.3h1121v1030h-1121z"/></defs></g></g><g><defs><path id="eC" d="M-137.5 370.2h-1.5v22h22v-22h-20.5zm0 3h19l-1.5-1.5v19l1.5-1.5h-19l1.5 1.5v-19l-1.5 1.5zm-21.5-23h62v62h-62v-62z"/></defs><clipPath id="eD"><use xlink:href="#eC" overflow="visible"/></clipPath><g clip-path="url(#eD)"><defs><path id="eE" d="M-137.5 371.7h19v19h-19z"/></defs><clipPath id="eF"><use xlink:href="#eE" overflow="visible"/></clipPath><g clip-path="url(#eF)"><defs><path id="eG" d="M-1091.5-149.3h1121v1030h-1121z"/></defs></g></g></g><g><defs><path id="eH" d="M-137.5 371.7h19v19h-19z"/></defs><clipPath id="eI"><use xlink:href="#eH" overflow="visible"/></clipPath><g clip-path="url(#eI)"><defs><path id="eJ" d="M-1091.5-149.3h1121v1030h-1121z"/></defs></g></g><g><defs><path id="eK" d="M-166.5 398.2h-1.5v22h22v-22h-20.5zm0 3h19l-1.5-1.5v19l1.5-1.5h-19l1.5 1.5v-19l-1.5 1.5zm-21.5-23h62v62h-62v-62z"/></defs><clipPath id="eL"><use xlink:href="#eK" overflow="visible"/></clipPath><g clip-path="url(#eL)"><defs><path id="eM" d="M-166.5 399.7h19v19h-19z"/></defs><clipPath id="eN"><use xlink:href="#eM" overflow="visible"/></clipPath><g clip-path="url(#eN)"><defs><path id="eO" d="M-1091.5-149.3h1121v1030h-1121z"/></defs></g></g></g><g><defs><path id="eP" d="M-166.5 399.7h19v19h-19z"/></defs><clipPath id="eQ"><use xlink:href="#eP" overflow="visible"/></clipPath><g clip-path="url(#eQ)"><defs><path id="eR" d="M-1091.5-149.3h1121v1030h-1121z"/></defs></g></g><g><defs><path id="eS" d="M-137.5 398.2h-1.5v22h22v-22h-20.5zm0 3h19l-1.5-1.5v19l1.5-1.5h-19l1.5 1.5v-19l-1.5 1.5zm-21.5-23h62v62h-62v-62z"/></defs><clipPath id="eT"><use xlink:href="#eS" overflow="visible"/></clipPath><g clip-path="url(#eT)"><defs><path id="eU" d="M-137.5 399.7h19v19h-19z"/></defs><clipPath id="eV"><use xlink:href="#eU" overflow="visible"/></clipPath><g clip-path="url(#eV)"><defs><path id="eW" d="M-1091.5-149.3h1121v1030h-1121z"/></defs></g></g></g><g><defs><path id="eX" d="M-137.5 399.7h19v19h-19z"/></defs><clipPath id="eY"><use xlink:href="#eX" overflow="visible"/></clipPath><g clip-path="url(#eY)"><defs><path id="eZ" d="M-1091.5-149.3h1121v1030h-1121z"/></defs></g></g><g><defs><path id="fa" d="M-161.5 375.2h-1.5v12h12v-12h-10.5zm0 3h9l-1.5-1.5v9l1.5-1.5h-9l1.5 1.5v-9l-1.5 1.5zm-21.5-23h52v52h-52v-52z"/></defs><clipPath id="fb"><use xlink:href="#fa" overflow="visible"/></clipPath><g clip-path="url(#fb)"><defs><path id="fc" d="M-161.5 376.7h9v9h-9z"/></defs><clipPath id="fd"><use xlink:href="#fc" overflow="visible"/></clipPath><g clip-path="url(#fd)"><defs><path id="fe" d="M-1091.5-149.3h1121v1030h-1121z"/></defs></g></g></g><g><defs><path id="ff" d="M-161.5 376.7h9v9h-9z"/></defs><clipPath id="fg"><use xlink:href="#ff" overflow="visible"/></clipPath><g clip-path="url(#fg)"><defs><path id="fh" d="M-1091.5-149.3h1121v1030h-1121z"/></defs></g></g><g><defs><path id="fi" d="M-132.5 375.2h-1.5v12h12v-12h-10.5zm0 3h9l-1.5-1.5v9l1.5-1.5h-9l1.5 1.5v-9l-1.5 1.5zm-21.5-23h52v52h-52v-52z"/></defs><clipPath id="fj"><use xlink:href="#fi" overflow="visible"/></clipPath><g clip-path="url(#fj)"><defs><path id="fk" d="M-132.5 376.7h9v9h-9z"/></defs><clipPath id="fl"><use xlink:href="#fk" overflow="visible"/></clipPath><g clip-path="url(#fl)"><defs><path id="fm" d="M-1091.5-149.3h1121v1030h-1121z"/></defs></g></g></g><g><defs><path id="fn" d="M-132.5 376.7h9v9h-9z"/></defs><clipPath id="fo"><use xlink:href="#fn" overflow="visible"/></clipPath><g clip-path="url(#fo)"><defs><path id="fp" d="M-1091.5-149.3h1121v1030h-1121z"/></defs></g></g><g><defs><path id="fq" d="M-161.5 403.2h-1.5v12h12v-12h-10.5zm0 3h9l-1.5-1.5v9l1.5-1.5h-9l1.5 1.5v-9l-1.5 1.5zm-21.5-23h52v52h-52v-52z"/></defs><clipPath id="fr"><use xlink:href="#fq" overflow="visible"/></clipPath><g clip-path="url(#fr)"><defs><path id="fs" d="M-161.5 404.7h9v9h-9z"/></defs><clipPath id="ft"><use xlink:href="#fs" overflow="visible"/></clipPath><g clip-path="url(#ft)"><defs><path id="fu" d="M-1091.5-149.3h1121v1030h-1121z"/></defs></g></g></g><g><defs><path id="fv" d="M-161.5 404.7h9v9h-9z"/></defs><clipPath id="fw"><use xlink:href="#fv" overflow="visible"/></clipPath><g clip-path="url(#fw)"><defs><path id="fx" d="M-1091.5-149.3h1121v1030h-1121z"/></defs></g></g><g><defs><path id="fy" d="M-132.5 403.2h-1.5v12h12v-12h-10.5zm0 3h9l-1.5-1.5v9l1.5-1.5h-9l1.5 1.5v-9l-1.5 1.5zm-21.5-23h52v52h-52v-52z"/></defs><clipPath id="fz"><use xlink:href="#fy" overflow="visible"/></clipPath><g clip-path="url(#fz)"><defs><path id="fA" d="M-132.5 404.7h9v9h-9z"/></defs><clipPath id="fB"><use xlink:href="#fA" overflow="visible"/></clipPath><g clip-path="url(#fB)"><defs><path id="fC" d="M-1091.5-149.3h1121v1030h-1121z"/></defs></g></g></g><g><defs><path id="fD" d="M-132.5 404.7h9v9h-9z"/></defs><clipPath id="fE"><use xlink:href="#fD" overflow="visible"/></clipPath><g clip-path="url(#fE)"><defs><path id="fF" d="M-1091.5-149.3h1121v1030h-1121z"/></defs></g></g></svg>