<svg xmlns="http://www.w3.org/2000/svg" xmlns:xlink="http://www.w3.org/1999/xlink" viewBox="0 0 276 137"><g stroke="#0E1F2D" stroke-width="3.078" stroke-linecap="round" stroke-miterlimit="10"><path fill="#FFF" d="M193.1 70.7c0 25.4-19.3 46.4-44 49-1.7.2-3.5.3-5.2.3-27.2 0-49.3-22.1-49.3-49.3s22.1-49.3 49.3-49.3 49.2 22.1 49.2 49.3z"/><path fill="none" d="M153.1 22.3l-4.1 97.4M121 27l16.1 92.5M149 119.7l38.9-27.1M97.6 87.8l92.9-1.4M191.7 59.1l-76.3 51.8M94.8 75.4l93.8-25.3M101.3 45.8l91.8 24.9M181.1 38.6L95.5 61.2"/></g><defs><circle id="a" cx="-170.8" cy="225.5" r="50.5"/></defs><clipPath id="b"><use xlink:href="#a" overflow="visible"/></clipPath><g clip-path="url(#b)"><defs><path id="c" d="M-345.3-510.5h1121v1030h-1121z"/></defs></g><g><defs><circle id="d" cx="-170.8" cy="225.5" r="43.5"/></defs><clipPath id="e"><use xlink:href="#d" overflow="visible"/></clipPath><g clip-path="url(#e)"><defs><path id="f" d="M-345.3-510.5h1121v1030h-1121z"/></defs></g></g></svg>