<svg xmlns="http://www.w3.org/2000/svg" xmlns:xlink="http://www.w3.org/1999/xlink" viewBox="0 0 276 137"><path fill="#FFF" stroke="#0C1F2E" stroke-width="3" stroke-linecap="round" stroke-miterlimit="10" d="M193 105.3l-23.5 7.1-28.5-7.1-25.8 7.9-26-7.9V27.2l26 7.9 25.9-7.9 28.4 7.1 23.5-7.1z"/><path fill="none" stroke="#0C1F2E" stroke-width="3" stroke-linecap="round" stroke-miterlimit="10" d="M115 35.1v67.2m0-5.3v16.5m54-20.8v19.1m0-77.5v56.5m-27.3-.1v14.8m0-77.3v14.7"/><defs><path id="a" d="M70.9-268.6h-1.5v38h142v-25.1l-.4-.4-11.4-12-.4-.5H70.9zm0 3h127.6l-1.1-.5 11.4 12-.4-1v23l1.5-1.5h-139l1.5 1.5v-35l-1.5 1.5zm-21.5-23h182v78h-182v-78z"/></defs><clipPath id="b"><use xlink:href="#a" overflow="visible"/></clipPath><g clip-path="url(#b)"><defs><path id="c" d="M70.9-267.1h127.6l11.4 12v23h-139z"/></defs></g><defs><path id="d" d="M70.9-267.1h127.6l11.4 12v23h-139z"/></defs><defs><path id="e" d="M103.9-217.2c-8 0-14.5-6.5-14.5-14.5s6.5-14.5 14.5-14.5 14.5 6.5 14.5 14.5-6.5 14.5-14.5 14.5zm0 3c9.7 0 17.5-7.8 17.5-17.5s-7.8-17.5-17.5-17.5-17.5 7.8-17.5 17.5 7.9 17.5 17.5 17.5zm-37.5-55h75v75h-75v-75z"/></defs><clipPath id="f"><use xlink:href="#e" overflow="visible"/></clipPath><g clip-path="url(#f)"><defs><circle id="g" cx="103.9" cy="-231.7" r="16"/></defs></g><defs><circle id="h" cx="103.9" cy="-231.7" r="16"/></defs><defs><path id="i" d="M103.9-224.2c-4.1 0-7.5-3.4-7.5-7.5s3.4-7.5 7.5-7.5 7.5 3.4 7.5 7.5c0 4.2-3.3 7.5-7.5 7.5zm0 3c5.8 0 10.5-4.7 10.5-10.5s-4.7-10.5-10.5-10.5-10.5 4.7-10.5 10.5 4.7 10.5 10.5 10.5zm-30.5-41h61v61h-61v-61z"/></defs><clipPath id="j"><use xlink:href="#i" overflow="visible"/></clipPath><g clip-path="url(#j)"><defs><circle id="k" cx="103.9" cy="-231.7" r="9"/></defs></g><defs><circle id="l" cx="103.9" cy="-231.7" r="9"/></defs><defs><path id="m" d="M170.2-217.2c-8 0-14.5-6.5-14.5-14.5s6.5-14.5 14.5-14.5 14.5 6.5 14.5 14.5-6.5 14.5-14.5 14.5zm0 3c9.7 0 17.5-7.8 17.5-17.5s-7.8-17.5-17.5-17.5-17.5 7.8-17.5 17.5 7.8 17.5 17.5 17.5zm-37.5-55h75v75h-75v-75z"/></defs><clipPath id="n"><use xlink:href="#m" overflow="visible"/></clipPath><g clip-path="url(#n)"><defs><circle id="o" cx="170.2" cy="-231.7" r="16"/></defs></g><defs><circle id="p" cx="170.2" cy="-231.7" r="16"/></defs><defs><path id="q" d="M170.4-272l-7.7-15.6h-27.2v15.6h34.9zm-75.2 0l7.4-15.6h27.2v15.6H95.2zm-10.3 5.3L99-293.6h66.8l15.3 27.9-96.2-1z"/></defs><defs><path id="r" d="M170.2-224.2c-4.1 0-7.5-3.4-7.5-7.5s3.4-7.5 7.5-7.5 7.5 3.4 7.5 7.5c0 4.2-3.4 7.5-7.5 7.5zm0 3c5.8 0 10.5-4.7 10.5-10.5s-4.7-10.5-10.5-10.5-10.5 4.7-10.5 10.5 4.7 10.5 10.5 10.5zm-30.5-41h61v61h-61v-61z"/></defs><clipPath id="s"><use xlink:href="#r" overflow="visible"/></clipPath><g clip-path="url(#s)"><defs><circle id="t" cx="170.2" cy="-231.7" r="9"/></defs></g><defs><circle id="u" cx="170.2" cy="-231.7" r="9"/></defs><g><circle fill-rule="evenodd" clip-rule="evenodd" fill="#FFF" cx="142" cy="66.7" r="17.7"/><path fill="#0C1F2E" d="M142 85.9c-10.6 0-19.2-8.6-19.2-19.2s8.6-19.2 19.2-19.2 19.2 8.6 19.2 19.2-8.6 19.2-19.2 19.2zm0-35.4c-9 0-16.2 7.3-16.2 16.2S133 82.9 142 82.9s16.2-7.3 16.2-16.2-7.3-16.2-16.2-16.2z"/></g><g><path fill="#FFF" d="M148.4 63.3c0 3.6-6.5 12.2-6.5 12.2s-6.5-8.7-6.5-12.2 2.9-6.5 6.5-6.5c3.7 0 6.5 2.9 6.5 6.5z"/><path fill="#0F1F2D" d="M142 78l-1.2-1.6c-1.1-1.5-6.8-9.3-6.8-13.1 0-4.4 3.6-8 8-8s8 3.6 8 8c0 3.9-5.6 11.6-6.8 13.1L142 78zm0-19.7c-2.7 0-5 2.2-5 5 0 1.8 2.6 6.3 5 9.7 2.3-3.3 5-7.8 5-9.7-.1-2.7-2.3-5-5-5z"/><circle fill="#0F1F2D" cx="142" cy="62.7" r="2.1"/></g></svg>