<svg xmlns="http://www.w3.org/2000/svg" viewBox="0 0 276 137"><path fill="#FFF" d="M127.3 108.4c-16.6 0-30.2-13.5-30.2-30.2 0-16.6 13.5-30.2 30.2-30.2 16.6 0 30.2 13.5 30.2 30.2 0 16.6-13.5 30.2-30.2 30.2zm0-52.4c-12.2 0-22.2 9.9-22.2 22.2 0 12.2 9.9 22.2 22.2 22.2 12.2 0 22.2-9.9 22.2-22.2 0-12.2-10-22.2-22.2-22.2z"/><path fill="#FFF" d="M157.9 108.4c-16.6 0-30.2-13.5-30.2-30.2 0-16.6 13.5-30.2 30.2-30.2 16.6 0 30.2 13.5 30.2 30.2-.1 16.6-13.6 30.2-30.2 30.2zm0-52.4c-12.2 0-22.2 9.9-22.2 22.2 0 12.2 9.9 22.2 22.2 22.2 12.2 0 22.2-9.9 22.2-22.2C180 66 170.1 56 157.9 56z"/><path fill="#0C1F2E" d="M128 109.1c-17.1 0-31-13.9-31-31s13.9-31 31-31 31 13.9 31 31c0 8.5-3.4 16.5-9.6 22.4-.6.6-1.5.6-2.1 0-.6-.6-.6-1.5 0-2.1 5.6-5.3 8.6-12.5 8.6-20.2 0-15.5-12.6-28-28-28s-28 12.6-28 28 12.6 28 28 28c4.9 0 9.7-1.3 14-3.7.7-.4 1.6-.2 2 .5.4.7.2 1.6-.5 2-4.6 2.7-9.9 4.1-15.4 4.1zm0-6.1c-13.7 0-24.9-11.2-24.9-24.9s11.2-24.9 24.9-24.9 24.9 11.2 24.9 24.9c0 7.3-3.2 14.3-8.8 19-.6.5-1.6.5-2.1-.2-.5-.6-.5-1.6.2-2.1 4.9-4.2 7.8-10.3 7.8-16.7 0-12.1-9.8-21.9-21.9-21.9s-21.9 9.8-21.9 21.9c0 12.1 9.8 21.9 21.9 21.9 3 0 5.9-.6 8.6-1.8.8-.3 1.6 0 2 .8.3.8 0 1.6-.8 2-3.1 1.3-6.4 2-9.9 2z"/><path fill="#FFF" d="M85.2 63.6c47.2 4.1 112.9 0 115 0 2.9 0 5.2 5.7 5.2 12.8 0 7.1-2.3 12.8-5.2 12.8-1.5 0-62.6-3.7-115 0"/><path fill="#0C1F2E" d="M85.2 90.7c-.8 0-1.4-.6-1.5-1.4-.1-.8.6-1.5 1.4-1.6 30.5-2.2 70.7-2.2 113.1-.1 1.2.1 1.9.1 2.1.1 1.5 0 3.7-4.5 3.7-11.3s-2.2-11.3-3.7-11.3c-.2 0-1.5.1-3 .1-58 2.9-93 1.5-112.1-.1-.8-.1-1.4-.8-1.4-1.6.1-.8.8-1.4 1.6-1.4 19 1.6 53.8 3 111.7.1 2.1-.1 2.9-.1 3.2-.1 4.4 0 6.7 7.2 6.7 14.3s-2.3 14.3-6.7 14.3c-.2 0-.9 0-2.2-.1-42.3-2.1-82.3-2.1-112.7.1h-.2z"/><circle fill="#FFF" cx="134.7" cy="65.4" r="3.2"/><circle fill="#FFF" cx="133.9" cy="87.2" r="3.2"/><path fill="#0C1F2E" d="M157.9 109.1c-17.1 0-31-13.9-31-31 0-8.3 3.2-16.1 9.1-21.9.6-.6 1.5-.6 2.1 0s.6 1.5 0 2.1c-5.3 5.3-8.2 12.3-8.2 19.8 0 15.5 12.6 28 28 28s28-12.6 28-28-12.6-28-28-28c-4.8 0-9.5 1.2-13.6 3.5-.7.4-1.6.1-2-.6-.4-.7-.1-1.6.6-2 4.6-2.6 9.8-3.9 15.1-3.9 17.1 0 31 13.9 31 31s-14 31-31.1 31zm0-6.1c-13.7 0-24.9-11.2-24.9-24.9 0-7.4 3.3-14.4 9-19.1.6-.5 1.6-.4 2.1.2.5.6.4 1.6-.2 2.1-5 4.2-7.9 10.3-7.9 16.8 0 12.1 9.8 21.9 21.9 21.9s21.9-9.8 21.9-21.9c0-12.1-9.8-21.9-21.9-21.9-3 0-6 .6-8.7 1.8-.8.3-1.6 0-2-.8-.3-.8 0-1.6.8-2 3.1-1.4 6.5-2.1 9.9-2.1 13.7 0 24.9 11.2 24.9 24.9 0 13.8-11.2 25-24.9 25z"/><path fill="#FFF" d="M139.9 36.7l-5.9-7.3h-11.9l-5.9 7.3 7.4 11.8h8.9z"/><path fill="#0C1F2E" d="M133.3 50h-10.5l-8.5-13.5 7.1-8.7h13.3l7.1 8.7-8.5 13.5zm-8.8-3h7.2l6.5-10.2-4.8-5.9h-10.5l-4.8 5.9 6.4 10.2z"/><ellipse fill="#FFF" cx="85.2" cy="76.4" rx="5.2" ry="12.8"/><path fill="#0C1F2E" d="M85.2 90.7c-4.4 0-6.7-7.2-6.7-14.3s2.3-14.3 6.7-14.3 6.7 7.2 6.7 14.3-2.3 14.3-6.7 14.3zm0-25.6c-1.5 0-3.7 4.5-3.7 11.3s2.2 11.3 3.7 11.3 3.7-4.5 3.7-11.3-2.2-11.3-3.7-11.3z"/><path fill="#FFF" d="M171.3 36.7l-6-7.3h-11.8l-6 7.3 7.5 11.8h8.8z"/><path fill="#0C1F2E" d="M164.6 50h-10.5l-8.5-13.5 7.1-8.7H166l7.1 8.7-8.5 13.5zm-8.8-3h7.2l6.5-10.2-4.8-5.9h-10.5l-4.8 5.9 6.4 10.2zm-15.9-8.8h-23.8c-.8 0-1.5-.7-1.5-1.5s.7-1.5 1.5-1.5h23.8c.8 0 1.5.7 1.5 1.5s-.6 1.5-1.5 1.5z"/><path fill="#0C1F2E" d="M171.3 38.2h-23.8c-.8 0-1.5-.7-1.5-1.5s.7-1.5 1.5-1.5h23.8c.8 0 1.5.7 1.5 1.5s-.7 1.5-1.5 1.5z"/><path fill="#FFF" d="M175 65.9l15.6-.7-1 22.3-13.6-.6zM87 88.2c2.7-2.9 4.1-19.5.1-18.4-4.1 1.1-1.2 10.6-1.2 10.6"/><path fill="#0C1F2E" d="M87 89.7c-.4 0-.7-.1-1-.4-.6-.6-.6-1.5-.1-2.1 1.2-1.3 2.5-7.8 2.1-12.7-.1-2-.5-3-.7-3.3-.2.1-.4.2-.5.5-.9 1.7-.2 5.9.5 8.2.2.8-.2 1.6-1 1.9-.8.2-1.6-.2-1.9-1-.2-.7-2.1-7.2-.2-10.5.6-1 1.4-1.7 2.5-2 1.3-.4 2.5.2 3.3 1.4 2.4 4 .8 16.7-1.8 19.5-.4.4-.8.5-1.2.5z"/></svg>