<svg xmlns="http://www.w3.org/2000/svg" xmlns:xlink="http://www.w3.org/1999/xlink" viewBox="0 0 276 137"><defs><path id="a" d="M434.7-189.5c-24.6 0-44.6-20-44.6-44.6s20-44.6 44.6-44.6 44.6 20 44.6 44.6-20 44.6-44.6 44.6zm0 2.7c26.1 0 47.3-21.2 47.3-47.3s-21.2-47.3-47.3-47.3-47.3 21.2-47.3 47.3 21.2 47.3 47.3 47.3zm-65.5-112.8h131v131h-131v-131z"/></defs><clipPath id="b"><use xlink:href="#a" overflow="visible"/></clipPath><g clip-path="url(#b)"><defs><circle id="c" cx="434.7" cy="-234.1" r="45.9"/></defs><clipPath id="d"><use xlink:href="#c" overflow="visible"/></clipPath><g clip-path="url(#d)"><defs><path id="e" d="M276-903.7h1019.8v937H276z"/></defs></g></g><defs><circle id="f" cx="434.7" cy="-234.1" r="45.9"/></defs><clipPath id="g"><use xlink:href="#f" overflow="visible"/></clipPath><g clip-path="url(#g)"><defs><path id="h" d="M276-903.7h1019.8v937H276z"/></defs></g><defs><circle id="i" cx="434.7" cy="-234.1" r="39.6"/></defs><clipPath id="j"><use xlink:href="#i" overflow="visible"/></clipPath><g clip-path="url(#j)"><defs><path id="k" d="M276-903.7h1019.8v937H276z"/></defs></g><path fill="#FFF" stroke="#0C1F2E" stroke-width="3" stroke-linecap="round" stroke-miterlimit="10" d="M79.5 38.3h123.4V113H79.5z"/><g fill="#231F20"><path d="M137.5 62.5v-7.3l-2.7 6.2h-1.9l-2.7-6.2v7.3h-2.6V51.2h3.1l3.1 6.7 3.1-6.7h3.1v11.3h-2.5zM144.8 60.4l-.8 2.1h-2.9l4.9-11.3h2.9l4.7 11.3h-3.1l-.8-2.1h-4.9zm2.5-6.4l-1.6 4.2h3.3l-1.7-4.2zM163.5 52.3l-1.1 2.2c-1.2-.7-2.7-1.2-3.6-1.2-.7 0-1.2.3-1.2.8 0 1.9 6 .8 6 4.9 0 2.3-2 3.4-4.5 3.4-1.9 0-3.8-.7-5.2-1.8l1.1-2.2c1.2 1 2.9 1.7 4.1 1.7.9 0 1.5-.3 1.5-1 0-2-6-.8-6-4.8 0-2.1 1.8-3.4 4.5-3.4 1.5.2 3.2.7 4.4 1.4zM173.8 52.3l-1.1 2.2c-1.2-.7-2.7-1.2-3.6-1.2-.7 0-1.2.3-1.2.8 0 1.9 6 .8 6 4.9 0 2.3-2 3.4-4.5 3.4-1.9 0-3.8-.7-5.2-1.8l1.1-2.2c1.2 1 2.9 1.7 4.1 1.7.9 0 1.5-.3 1.5-1 0-2-6-.8-6-4.8 0-2.1 1.8-3.4 4.5-3.4 1.6.2 3.3.7 4.4 1.4zM130.9 81.8l-4.4-11.3h3.1l2.9 8.3 2.9-8.3h2.9l-4.4 11.3h-3zM141.9 79.7l-.8 2.1h-2.9l4.9-11.3h2.9l4.7 11.3h-3.1l-.8-2.1h-4.9zm2.5-6.3l-1.6 4.2h3.3l-1.7-4.2zM159.4 79.4v2.4h-7.6V70.5h2.9v8.9h4.7zM170.9 77.1c0 3-2 4.9-5.1 4.9-3.2 0-5.2-1.9-5.2-4.9v-6.5h2.9v6.5c0 1.5 1 2.5 2.4 2.5s2.3-.9 2.3-2.5v-6.5h2.8v6.5zM175.9 72.8V75h5.4v2.3h-5.4v2.3h6.1v2.3h-9V70.5h8.8v2.3h-5.9zM132.5 89.9c2.9 0 4.5 1.4 4.5 3.9 0 2.6-1.7 4.2-4.5 4.2h-2v3.2h-2.9V89.9h4.9zm-2 5.8h1.9c1.3 0 2-.6 2-1.8 0-1.2-.7-1.8-2-1.8h-1.9v3.6zM141.1 99l-.8 2.1h-2.9l4.9-11.3h2.9l4.7 11.3h-3.1L146 99h-4.9zm2.5-6.3l-1.6 4.2h3.3l-1.7-4.2zM159.8 91l-1.1 2.2c-1.2-.7-2.7-1.2-3.6-1.2-.7 0-1.2.3-1.2.8 0 1.9 6 .8 6 4.9 0 2.3-2 3.4-4.5 3.4-1.9 0-3.8-.7-5.2-1.8l1.1-2.2c1.2 1 2.9 1.7 4.1 1.7.9 0 1.5-.3 1.5-1 0-2-6-.8-6-4.8 0-2.1 1.8-3.4 4.5-3.4 1.5.1 3.2.6 4.4 1.4zM170.1 91l-1.1 2.2c-1.2-.7-2.7-1.2-3.6-1.2-.7 0-1.2.3-1.2.8 0 1.9 6 .8 6 4.9 0 2.3-2 3.4-4.5 3.4-1.9 0-3.8-.7-5.2-1.8l1.1-2.2c1.2 1 2.9 1.7 4.1 1.7.9 0 1.5-.3 1.5-1 0-2-6-.8-6-4.8 0-2.1 1.8-3.4 4.5-3.4 1.6.1 3.3.6 4.4 1.4z"/></g><path fill="none" stroke="#0C1F2E" stroke-width="3" stroke-linecap="round" stroke-miterlimit="10" d="M92.4 38.3h14.9v14.9H92.4zM92.4 53.2h14.9v14.9H92.4zM92.4 68.2h14.9v14.9H92.4z"/><defs><path id="l" d="M973.5-122.8H972v84h108v-84H973.5zm0 3h105l-1.5-1.5v81l1.5-1.5h-105l1.5 1.5v-81l-1.5 1.5zm-21.5-23h148v124H952v-124z"/></defs><clipPath id="m"><use xlink:href="#l" overflow="visible"/></clipPath><g clip-path="url(#m)"><defs><path id="n" d="M973.5-121.3h105v81h-105z"/></defs><clipPath id="o"><use xlink:href="#n" overflow="visible"/></clipPath><g clip-path="url(#o)"><defs><path id="p" d="M92.5-620.3h1121v1030H92.5z"/></defs></g></g><defs><path id="q" d="M973.5-121.3h105v81h-105z"/></defs><clipPath id="r"><use xlink:href="#q" overflow="visible"/></clipPath><g clip-path="url(#r)"><defs><path id="s" d="M92.5-620.3h1121v1030H92.5z"/></defs></g><defs><path id="t" d="M967.5-105.8h-2.2l.9-2.1 9.1-22 .4-.9h100.9l.4.9 9.1 22 .9 2.1H967.5zm0-3h117l-1.4 2.1-9.1-22 1.4.9h-98.9l1.4-.9-9.1 22-1.3-2.1zm-22.2 23h161.5v-65H945.3v65z"/></defs><clipPath id="u"><use xlink:href="#t" overflow="visible"/></clipPath><g clip-path="url(#u)"><defs><path id="v" d="M967.5-107.3h117l-9.1-22h-98.8z"/></defs><clipPath id="w"><use xlink:href="#v" overflow="visible"/></clipPath><g clip-path="url(#w)"><defs><path id="x" d="M92.5-620.3h1121v1030H92.5z"/></defs></g></g><defs><path id="y" d="M967.5-107.3h117l-9.1-22h-98.8z"/></defs><clipPath id="z"><use xlink:href="#y" overflow="visible"/></clipPath><g clip-path="url(#z)"><defs><path id="A" d="M92.5-620.3h1121v1030H92.5z"/></defs></g><defs><path id="B" d="M1052.5-138.8h-1.5v19h15v-19h-13.5zm0 3h12l-1.5-1.5v16l1.5-1.5h-12l1.5 1.5v-16l-1.5 1.5zm-21.5-23h55v59h-55v-59z"/></defs><clipPath id="C"><use xlink:href="#B" overflow="visible"/></clipPath><g clip-path="url(#C)"><defs><path id="D" d="M1052.5-137.3h12v16h-12z"/></defs><clipPath id="E"><use xlink:href="#D" overflow="visible"/></clipPath><g clip-path="url(#E)"><defs><path id="F" d="M92.5-620.3h1121v1030H92.5z"/></defs></g></g><defs><path id="G" d="M1052.5-137.3h12v16h-12z"/></defs><clipPath id="H"><use xlink:href="#G" overflow="visible"/></clipPath><g clip-path="url(#H)"><defs><path id="I" d="M92.5-620.3h1121v1030H92.5z"/></defs></g><defs><path id="J" d="M986.5-72.8H985v34h24v-34h-22.5zm0 3h21l-1.5-1.5v31l1.5-1.5h-21l1.5 1.5v-31l-1.5 1.5zm-21.5-23h64v74h-64v-74z"/></defs><clipPath id="K"><use xlink:href="#J" overflow="visible"/></clipPath><g clip-path="url(#K)"><defs><path id="L" d="M986.5-71.3h21v31h-21z"/></defs><clipPath id="M"><use xlink:href="#L" overflow="visible"/></clipPath><g clip-path="url(#M)"><defs><path id="N" d="M92.5-620.3h1121v1030H92.5z"/></defs></g></g><defs><path id="O" d="M986.5-71.3h21v31h-21z"/></defs><clipPath id="P"><use xlink:href="#O" overflow="visible"/></clipPath><g clip-path="url(#P)"><defs><path id="Q" d="M92.5-620.3h1121v1030H92.5z"/></defs></g><g><defs><path id="R" d="M987.5-100.8H986v22h22v-22h-20.5zm0 3h19l-1.5-1.5v19l1.5-1.5h-19l1.5 1.5v-19l-1.5 1.5zm-21.5-23h62v62h-62v-62z"/></defs><clipPath id="S"><use xlink:href="#R" overflow="visible"/></clipPath><g clip-path="url(#S)"><defs><path id="T" d="M987.5-99.3h19v19h-19z"/></defs><clipPath id="U"><use xlink:href="#T" overflow="visible"/></clipPath><g clip-path="url(#U)"><defs><path id="V" d="M92.5-620.3h1121v1030H92.5z"/></defs></g></g></g><g><defs><path id="W" d="M987.5-99.3h19v19h-19z"/></defs><clipPath id="X"><use xlink:href="#W" overflow="visible"/></clipPath><g clip-path="url(#X)"><defs><path id="Y" d="M92.5-620.3h1121v1030H92.5z"/></defs></g></g><g><defs><path id="Z" d="M992.5-95.8H991v12h12v-12h-10.5zm0 3h9l-1.5-1.5v9l1.5-1.5h-9l1.5 1.5v-9l-1.5 1.5zm-21.5-23h52v52h-52v-52z"/></defs><clipPath id="aa"><use xlink:href="#Z" overflow="visible"/></clipPath><g clip-path="url(#aa)"><defs><path id="ab" d="M992.5-94.3h9v9h-9z"/></defs><clipPath id="ac"><use xlink:href="#ab" overflow="visible"/></clipPath><g clip-path="url(#ac)"><defs><path id="ad" d="M92.5-620.3h1121v1030H92.5z"/></defs></g></g></g><g><defs><path id="ae" d="M992.5-94.3h9v9h-9z"/></defs><clipPath id="af"><use xlink:href="#ae" overflow="visible"/></clipPath><g clip-path="url(#af)"><defs><path id="ag" d="M92.5-620.3h1121v1030H92.5z"/></defs></g></g><g><defs><path id="ah" d="M1017.5-100.8h-1.5v22h22v-22h-20.5zm0 3h19l-1.5-1.5v19l1.5-1.5h-19l1.5 1.5v-19l-1.5 1.5zm-21.5-23h62v62h-62v-62z"/></defs><clipPath id="ai"><use xlink:href="#ah" overflow="visible"/></clipPath><g clip-path="url(#ai)"><defs><path id="aj" d="M1017.5-99.3h19v19h-19z"/></defs><clipPath id="ak"><use xlink:href="#aj" overflow="visible"/></clipPath><g clip-path="url(#ak)"><defs><path id="al" d="M92.5-620.3h1121v1030H92.5z"/></defs></g></g></g><g><defs><path id="am" d="M1017.5-99.3h19v19h-19z"/></defs><clipPath id="an"><use xlink:href="#am" overflow="visible"/></clipPath><g clip-path="url(#an)"><defs><path id="ao" d="M92.5-620.3h1121v1030H92.5z"/></defs></g></g><g><defs><path id="ap" d="M1046.5-100.8h-1.5v22h22v-22h-20.5zm0 3h19l-1.5-1.5v19l1.5-1.5h-19l1.5 1.5v-19l-1.5 1.5zm-21.5-23h62v62h-62v-62z"/></defs><clipPath id="aq"><use xlink:href="#ap" overflow="visible"/></clipPath><g clip-path="url(#aq)"><defs><path id="ar" d="M1046.5-99.3h19v19h-19z"/></defs><clipPath id="as"><use xlink:href="#ar" overflow="visible"/></clipPath><g clip-path="url(#as)"><defs><path id="at" d="M92.5-620.3h1121v1030H92.5z"/></defs></g></g></g><g><defs><path id="au" d="M1046.5-99.3h19v19h-19z"/></defs><clipPath id="av"><use xlink:href="#au" overflow="visible"/></clipPath><g clip-path="url(#av)"><defs><path id="aw" d="M92.5-620.3h1121v1030H92.5z"/></defs></g></g><g><defs><path id="ax" d="M1017.5-72.8h-1.5v22h22v-22h-20.5zm0 3h19l-1.5-1.5v19l1.5-1.5h-19l1.5 1.5v-19l-1.5 1.5zm-21.5-23h62v62h-62v-62z"/></defs><clipPath id="ay"><use xlink:href="#ax" overflow="visible"/></clipPath><g clip-path="url(#ay)"><defs><path id="az" d="M1017.5-71.3h19v19h-19z"/></defs><clipPath id="aA"><use xlink:href="#az" overflow="visible"/></clipPath><g clip-path="url(#aA)"><defs><path id="aB" d="M92.5-620.3h1121v1030H92.5z"/></defs></g></g></g><g><defs><path id="aC" d="M1017.5-71.3h19v19h-19z"/></defs><clipPath id="aD"><use xlink:href="#aC" overflow="visible"/></clipPath><g clip-path="url(#aD)"><defs><path id="aE" d="M92.5-620.3h1121v1030H92.5z"/></defs></g></g><g><defs><path id="aF" d="M1046.5-72.8h-1.5v22h22v-22h-20.5zm0 3h19l-1.5-1.5v19l1.5-1.5h-19l1.5 1.5v-19l-1.5 1.5zm-21.5-23h62v62h-62v-62z"/></defs><clipPath id="aG"><use xlink:href="#aF" overflow="visible"/></clipPath><g clip-path="url(#aG)"><defs><path id="aH" d="M1046.5-71.3h19v19h-19z"/></defs><clipPath id="aI"><use xlink:href="#aH" overflow="visible"/></clipPath><g clip-path="url(#aI)"><defs><path id="aJ" d="M92.5-620.3h1121v1030H92.5z"/></defs></g></g></g><g><defs><path id="aK" d="M1046.5-71.3h19v19h-19z"/></defs><clipPath id="aL"><use xlink:href="#aK" overflow="visible"/></clipPath><g clip-path="url(#aL)"><defs><path id="aM" d="M92.5-620.3h1121v1030H92.5z"/></defs></g></g><g><defs><path id="aN" d="M1022.5-95.8h-1.5v12h12v-12h-10.5zm0 3h9l-1.5-1.5v9l1.5-1.5h-9l1.5 1.5v-9l-1.5 1.5zm-21.5-23h52v52h-52v-52z"/></defs><clipPath id="aO"><use xlink:href="#aN" overflow="visible"/></clipPath><g clip-path="url(#aO)"><defs><path id="aP" d="M1022.5-94.3h9v9h-9z"/></defs><clipPath id="aQ"><use xlink:href="#aP" overflow="visible"/></clipPath><g clip-path="url(#aQ)"><defs><path id="aR" d="M92.5-620.3h1121v1030H92.5z"/></defs></g></g></g><g><defs><path id="aS" d="M1022.5-94.3h9v9h-9z"/></defs><clipPath id="aT"><use xlink:href="#aS" overflow="visible"/></clipPath><g clip-path="url(#aT)"><defs><path id="aU" d="M92.5-620.3h1121v1030H92.5z"/></defs></g></g><g><defs><path id="aV" d="M1051.5-95.8h-1.5v12h12v-12h-10.5zm0 3h9l-1.5-1.5v9l1.5-1.5h-9l1.5 1.5v-9l-1.5 1.5zm-21.5-23h52v52h-52v-52z"/></defs><clipPath id="aW"><use xlink:href="#aV" overflow="visible"/></clipPath><g clip-path="url(#aW)"><defs><path id="aX" d="M1051.5-94.3h9v9h-9z"/></defs><clipPath id="aY"><use xlink:href="#aX" overflow="visible"/></clipPath><g clip-path="url(#aY)"><defs><path id="aZ" d="M92.5-620.3h1121v1030H92.5z"/></defs></g></g></g><g><defs><path id="ba" d="M1051.5-94.3h9v9h-9z"/></defs><clipPath id="bb"><use xlink:href="#ba" overflow="visible"/></clipPath><g clip-path="url(#bb)"><defs><path id="bc" d="M92.5-620.3h1121v1030H92.5z"/></defs></g></g><g><defs><path id="bd" d="M1022.5-67.8h-1.5v12h12v-12h-10.5zm0 3h9l-1.5-1.5v9l1.5-1.5h-9l1.5 1.5v-9l-1.5 1.5zm-21.5-23h52v52h-52v-52z"/></defs><clipPath id="be"><use xlink:href="#bd" overflow="visible"/></clipPath><g clip-path="url(#be)"><defs><path id="bf" d="M1022.5-66.3h9v9h-9z"/></defs><clipPath id="bg"><use xlink:href="#bf" overflow="visible"/></clipPath><g clip-path="url(#bg)"><defs><path id="bh" d="M92.5-620.3h1121v1030H92.5z"/></defs></g></g></g><g><defs><path id="bi" d="M1022.5-66.3h9v9h-9z"/></defs><clipPath id="bj"><use xlink:href="#bi" overflow="visible"/></clipPath><g clip-path="url(#bj)"><defs><path id="bk" d="M92.5-620.3h1121v1030H92.5z"/></defs></g></g><g><defs><path id="bl" d="M1051.5-67.8h-1.5v12h12v-12h-10.5zm0 3h9l-1.5-1.5v9l1.5-1.5h-9l1.5 1.5v-9l-1.5 1.5zm-21.5-23h52v52h-52v-52z"/></defs><clipPath id="bm"><use xlink:href="#bl" overflow="visible"/></clipPath><g clip-path="url(#bm)"><defs><path id="bn" d="M1051.5-66.3h9v9h-9z"/></defs><clipPath id="bo"><use xlink:href="#bn" overflow="visible"/></clipPath><g clip-path="url(#bo)"><defs><path id="bp" d="M92.5-620.3h1121v1030H92.5z"/></defs></g></g></g><g><defs><path id="bq" d="M1051.5-66.3h9v9h-9z"/></defs><clipPath id="br"><use xlink:href="#bq" overflow="visible"/></clipPath><g clip-path="url(#br)"><defs><path id="bs" d="M92.5-620.3h1121v1030H92.5z"/></defs></g></g><path fill="none" stroke="#0C1F2E" stroke-width="3" stroke-linecap="round" stroke-miterlimit="10" d="M92.4 83.1h14.9V98H92.4zM92.4 98h14.9v14.9H92.4z"/></svg>