<svg xmlns="http://www.w3.org/2000/svg" xmlns:xlink="http://www.w3.org/1999/xlink" viewBox="0 0 276 137"><defs><path id="a" d="M434.7-189.5c-24.6 0-44.6-20-44.6-44.6s20-44.6 44.6-44.6 44.6 20 44.6 44.6-20 44.6-44.6 44.6zm0 2.7c26.1 0 47.3-21.2 47.3-47.3s-21.2-47.3-47.3-47.3-47.3 21.2-47.3 47.3 21.2 47.3 47.3 47.3zm-65.5-112.8h131v131h-131v-131z"/></defs><clipPath id="b"><use xlink:href="#a" overflow="visible"/></clipPath><g clip-path="url(#b)"><defs><circle id="c" cx="434.7" cy="-234.1" r="45.9"/></defs></g><defs><circle id="d" cx="434.7" cy="-234.1" r="45.9"/></defs><defs><circle id="e" cx="434.7" cy="-234.1" r="39.6"/></defs><path fill="#FFF" stroke="#0C1F2E" stroke-width="3" stroke-linecap="round" stroke-miterlimit="10" d="M79.5 38.3h123.4V113H79.5z"/><path d="M137.5 62.5v-7.3l-2.7 6.2h-1.9l-2.7-6.2v7.3h-2.6V51.2h3.1l3.1 6.7 3.1-6.7h3.1v11.3h-2.5zm7.3-2.1l-.8 2.1h-2.9l4.9-11.3h2.9l4.7 11.3h-3.1l-.8-2.1h-4.9zm2.5-6.4l-1.6 4.2h3.3l-1.7-4.2zm16.2-1.7l-1.1 2.2c-1.2-.7-2.7-1.2-3.6-1.2-.7 0-1.2.3-1.2.8 0 1.9 6 .8 6 4.9 0 2.3-2 3.4-4.5 3.4-1.9 0-3.8-.7-5.2-1.8l1.1-2.2c1.2 1 2.9 1.7 4.1 1.7.9 0 1.5-.3 1.5-1 0-2-6-.8-6-4.8 0-2.1 1.8-3.4 4.5-3.4 1.5.2 3.2.7 4.4 1.4zm10.3 0l-1.1 2.2c-1.2-.7-2.7-1.2-3.6-1.2-.7 0-1.2.3-1.2.8 0 1.9 6 .8 6 4.9 0 2.3-2 3.4-4.5 3.4-1.9 0-3.8-.7-5.2-1.8l1.1-2.2c1.2 1 2.9 1.7 4.1 1.7.9 0 1.5-.3 1.5-1 0-2-6-.8-6-4.8 0-2.1 1.8-3.4 4.5-3.4 1.6.2 3.3.7 4.4 1.4zm-42.9 29.5l-4.4-11.3h3.1l2.9 8.3 2.9-8.3h2.9l-4.4 11.3h-3zm11-2.1l-.8 2.1h-2.9l4.9-11.3h2.9l4.7 11.3h-3.1l-.8-2.1h-4.9zm2.5-6.3l-1.6 4.2h3.3l-1.7-4.2zm15 6v2.4h-7.6V70.5h2.9v8.9h4.7zm11.5-2.3c0 3-2 4.9-5.1 4.9-3.2 0-5.2-1.9-5.2-4.9v-6.5h2.9v6.5c0 1.5 1 2.5 2.4 2.5s2.3-.9 2.3-2.5v-6.5h2.8v6.5zm5-4.3V75h5.4v2.3h-5.4v2.3h6.1v2.3h-9V70.5h8.8v2.3h-5.9zm-43.4 17.1c2.9 0 4.5 1.4 4.5 3.9 0 2.6-1.7 4.2-4.5 4.2h-2v3.2h-2.9V89.9h4.9zm-2 5.8h1.9c1.3 0 2-.6 2-1.8 0-1.2-.7-1.8-2-1.8h-1.9v3.6zm10.6 3.3l-.8 2.1h-2.9l4.9-11.3h2.9l4.7 11.3h-3.1L146 99h-4.9zm2.5-6.3l-1.6 4.2h3.3l-1.7-4.2zm16.2-1.7l-1.1 2.2c-1.2-.7-2.7-1.2-3.6-1.2-.7 0-1.2.3-1.2.8 0 1.9 6 .8 6 4.9 0 2.3-2 3.4-4.5 3.4-1.9 0-3.8-.7-5.2-1.8l1.1-2.2c1.2 1 2.9 1.7 4.1 1.7.9 0 1.5-.3 1.5-1 0-2-6-.8-6-4.8 0-2.1 1.8-3.4 4.5-3.4 1.5.1 3.2.6 4.4 1.4zm10.3 0l-1.1 2.2c-1.2-.7-2.7-1.2-3.6-1.2-.7 0-1.2.3-1.2.8 0 1.9 6 .8 6 4.9 0 2.3-2 3.4-4.5 3.4-1.9 0-3.8-.7-5.2-1.8l1.1-2.2c1.2 1 2.9 1.7 4.1 1.7.9 0 1.5-.3 1.5-1 0-2-6-.8-6-4.8 0-2.1 1.8-3.4 4.5-3.4 1.6.1 3.3.6 4.4 1.4z" fill="#231F20"/><path fill="none" stroke="#0C1F2E" stroke-width="3" stroke-linecap="round" stroke-miterlimit="10" d="M92.4 38.3h14.9v14.9H92.4zm0 14.9h14.9v14.9H92.4zm0 15h14.9v14.9H92.4z"/><defs><path id="f" d="M973.5-122.8H972v84h108v-84H973.5zm0 3h105l-1.5-1.5v81l1.5-1.5h-105l1.5 1.5v-81l-1.5 1.5zm-21.5-23h148v124H952v-124z"/></defs><clipPath id="g"><use xlink:href="#f" overflow="visible"/></clipPath><g clip-path="url(#g)"><defs><path id="h" d="M973.5-121.3h105v81h-105z"/></defs></g><defs><path id="i" d="M973.5-121.3h105v81h-105z"/></defs><defs><path id="j" d="M967.5-105.8h-2.2l.9-2.1 9.1-22 .4-.9h100.9l.4.9 9.1 22 .9 2.1H967.5zm0-3h117l-1.4 2.1-9.1-22 1.4.9h-98.9l1.4-.9-9.1 22-1.3-2.1zm-22.2 23h161.5v-65H945.3v65z"/></defs><clipPath id="k"><use xlink:href="#j" overflow="visible"/></clipPath><g clip-path="url(#k)"><defs><path id="l" d="M967.5-107.3h117l-9.1-22h-98.8z"/></defs></g><defs><path id="m" d="M967.5-107.3h117l-9.1-22h-98.8z"/></defs><defs><path id="n" d="M1052.5-138.8h-1.5v19h15v-19h-13.5zm0 3h12l-1.5-1.5v16l1.5-1.5h-12l1.5 1.5v-16l-1.5 1.5zm-21.5-23h55v59h-55v-59z"/></defs><clipPath id="o"><use xlink:href="#n" overflow="visible"/></clipPath><g clip-path="url(#o)"><defs><path id="p" d="M1052.5-137.3h12v16h-12z"/></defs></g><defs><path id="q" d="M1052.5-137.3h12v16h-12z"/></defs><defs><path id="r" d="M986.5-72.8H985v34h24v-34h-22.5zm0 3h21l-1.5-1.5v31l1.5-1.5h-21l1.5 1.5v-31l-1.5 1.5zm-21.5-23h64v74h-64v-74z"/></defs><clipPath id="s"><use xlink:href="#r" overflow="visible"/></clipPath><g clip-path="url(#s)"><defs><path id="t" d="M986.5-71.3h21v31h-21z"/></defs></g><defs><path id="u" d="M986.5-71.3h21v31h-21z"/></defs><defs><path id="v" d="M987.5-100.8H986v22h22v-22h-20.5zm0 3h19l-1.5-1.5v19l1.5-1.5h-19l1.5 1.5v-19l-1.5 1.5zm-21.5-23h62v62h-62v-62z"/></defs><clipPath id="w"><use xlink:href="#v" overflow="visible"/></clipPath><g clip-path="url(#w)"><defs><path id="x" d="M987.5-99.3h19v19h-19z"/></defs></g><defs><path id="y" d="M987.5-99.3h19v19h-19z"/></defs><defs><path id="z" d="M992.5-95.8H991v12h12v-12h-10.5zm0 3h9l-1.5-1.5v9l1.5-1.5h-9l1.5 1.5v-9l-1.5 1.5zm-21.5-23h52v52h-52v-52z"/></defs><clipPath id="A"><use xlink:href="#z" overflow="visible"/></clipPath><g clip-path="url(#A)"><defs><path id="B" d="M992.5-94.3h9v9h-9z"/></defs></g><defs><path id="C" d="M992.5-94.3h9v9h-9z"/></defs><defs><path id="D" d="M1017.5-100.8h-1.5v22h22v-22h-20.5zm0 3h19l-1.5-1.5v19l1.5-1.5h-19l1.5 1.5v-19l-1.5 1.5zm-21.5-23h62v62h-62v-62z"/></defs><clipPath id="E"><use xlink:href="#D" overflow="visible"/></clipPath><g clip-path="url(#E)"><defs><path id="F" d="M1017.5-99.3h19v19h-19z"/></defs></g><defs><path id="G" d="M1017.5-99.3h19v19h-19z"/></defs><defs><path id="H" d="M1046.5-100.8h-1.5v22h22v-22h-20.5zm0 3h19l-1.5-1.5v19l1.5-1.5h-19l1.5 1.5v-19l-1.5 1.5zm-21.5-23h62v62h-62v-62z"/></defs><clipPath id="I"><use xlink:href="#H" overflow="visible"/></clipPath><g clip-path="url(#I)"><defs><path id="J" d="M1046.5-99.3h19v19h-19z"/></defs></g><defs><path id="K" d="M1046.5-99.3h19v19h-19z"/></defs><defs><path id="L" d="M1017.5-72.8h-1.5v22h22v-22h-20.5zm0 3h19l-1.5-1.5v19l1.5-1.5h-19l1.5 1.5v-19l-1.5 1.5zm-21.5-23h62v62h-62v-62z"/></defs><clipPath id="M"><use xlink:href="#L" overflow="visible"/></clipPath><g clip-path="url(#M)"><defs><path id="N" d="M1017.5-71.3h19v19h-19z"/></defs></g><defs><path id="O" d="M1017.5-71.3h19v19h-19z"/></defs><defs><path id="P" d="M1046.5-72.8h-1.5v22h22v-22h-20.5zm0 3h19l-1.5-1.5v19l1.5-1.5h-19l1.5 1.5v-19l-1.5 1.5zm-21.5-23h62v62h-62v-62z"/></defs><clipPath id="Q"><use xlink:href="#P" overflow="visible"/></clipPath><g clip-path="url(#Q)"><defs><path id="R" d="M1046.5-71.3h19v19h-19z"/></defs></g><defs><path id="S" d="M1046.5-71.3h19v19h-19z"/></defs><defs><path id="T" d="M1022.5-95.8h-1.5v12h12v-12h-10.5zm0 3h9l-1.5-1.5v9l1.5-1.5h-9l1.5 1.5v-9l-1.5 1.5zm-21.5-23h52v52h-52v-52z"/></defs><clipPath id="U"><use xlink:href="#T" overflow="visible"/></clipPath><g clip-path="url(#U)"><defs><path id="V" d="M1022.5-94.3h9v9h-9z"/></defs></g><defs><path id="W" d="M1022.5-94.3h9v9h-9z"/></defs><defs><path id="X" d="M1051.5-95.8h-1.5v12h12v-12h-10.5zm0 3h9l-1.5-1.5v9l1.5-1.5h-9l1.5 1.5v-9l-1.5 1.5zm-21.5-23h52v52h-52v-52z"/></defs><clipPath id="Y"><use xlink:href="#X" overflow="visible"/></clipPath><g clip-path="url(#Y)"><defs><path id="Z" d="M1051.5-94.3h9v9h-9z"/></defs></g><g><defs><path id="aa" d="M1051.5-94.3h9v9h-9z"/></defs></g><g><defs><path id="ab" d="M1022.5-67.8h-1.5v12h12v-12h-10.5zm0 3h9l-1.5-1.5v9l1.5-1.5h-9l1.5 1.5v-9l-1.5 1.5zm-21.5-23h52v52h-52v-52z"/></defs><clipPath id="ac"><use xlink:href="#ab" overflow="visible"/></clipPath><g clip-path="url(#ac)"><defs><path id="ad" d="M1022.5-66.3h9v9h-9z"/></defs></g></g><g><defs><path id="ae" d="M1022.5-66.3h9v9h-9z"/></defs></g><g><defs><path id="af" d="M1051.5-67.8h-1.5v12h12v-12h-10.5zm0 3h9l-1.5-1.5v9l1.5-1.5h-9l1.5 1.5v-9l-1.5 1.5zm-21.5-23h52v52h-52v-52z"/></defs><clipPath id="ag"><use xlink:href="#af" overflow="visible"/></clipPath><g clip-path="url(#ag)"><defs><path id="ah" d="M1051.5-66.3h9v9h-9z"/></defs></g></g><g><defs><path id="ai" d="M1051.5-66.3h9v9h-9z"/></defs></g><path fill="none" stroke="#0C1F2E" stroke-width="3" stroke-linecap="round" stroke-miterlimit="10" d="M92.4 83.1h14.9V98H92.4zm0 14.9h14.9v14.9H92.4z"/></svg>