<svg xmlns="http://www.w3.org/2000/svg" xmlns:xlink="http://www.w3.org/1999/xlink" viewBox="0 0 276 137"><path fill="#FFF" d="M100.9 14.1h80.4v109.4h-80.4z"/><path fill="#091F2F" d="M182.8 125H99.4V12.6h83.4V125zm-80.4-3h77.4V15.6h-77.4V122z"/><path fill="#091F2F" d="M118 60h47v3h-47zM118 72h47v3h-47zM118 84h47v3h-47zM118 96h47v3h-47zM118 108h47v3h-47zM153 39.5c-1 1.2-.9 3-.9 3s1.7 0 2.7-1.2c1-1.2.9-3 .9-3s-1.7 0-2.7 1.2z"/><path fill="#091F2F" d="M150.8 39.7c0 1.6 1.3 2.8 1.3 2.8s1.2-1.3 1.2-2.9c0-1.6-1.3-2.8-1.3-2.8s-1.2 1.3-1.2 2.9zM149.9 44.8c-1.5.5-2.4 2.4-2.4 2.4s1.6.9 3.2.4c1.5-.5 2.4-2.4 2.4-2.4s-1.6-.9-3.2-.4z"/><path fill="#091F2F" d="M147.7 43.8c-.8 1.5-.2 3.4-.2 3.4s1.8-.6 2.6-2.1.2-3.4.2-3.4-1.8.5-2.6 2.1zM145.1 48.4c-1.7-.2-3.3 1.2-3.3 1.2s1.2 1.7 2.9 1.9c1.7.2 3.3-1.2 3.3-1.2s-1.2-1.7-2.9-1.9z"/><path fill="#091F2F" d="M143.4 46.3c-1.4 1.2-1.6 3.3-1.6 3.3s2 .3 3.4-.9 1.6-3.3 1.6-3.3-2-.3-3.4.9zM153.3 33.6c-.4 1.5.4 3 .4 3s1.5-.9 1.9-2.3-.4-3-.4-3-1.5.9-1.9 2.3z"/><path fill="#091F2F" d="M151.5 34.9c.7 1.3 2.3 1.7 2.3 1.7s.5-1.7-.2-3-2.3-1.7-2.3-1.7-.5 1.7.2 3zM151.9 29.2c.4 1.1 1.7 1.7 1.7 1.7s.6-1.3.2-2.5c-.4-1.1-1.7-1.7-1.7-1.7s-.7 1.4-.2 2.5z"/><path fill="#091F2F" d="M151.3 31c1.1.5 2.3-.1 2.3-.1s-.5-1.4-1.5-1.8c-1.1-.5-2.3.1-2.3.1s.5 1.3 1.5 1.8zM148.3 26c.7 1 2.1 1.1 2.1 1.1s.2-1.4-.6-2.4c-.7-1-2.1-1.1-2.1-1.1s-.1 1.5.6 2.4z"/><path fill="#091F2F" d="M148.3 27.9c1.1.2 2.2-.8 2.2-.8s-.8-1.2-2-1.3c-1.1-.2-2.2.8-2.2.8s.9 1.1 2 1.3zM145.3 24.7c.8.4 1.7 0 1.7 0s-.3-1-1.1-1.4c-.8-.4-1.7 0-1.7 0s.3 1 1.1 1.4zM129.2 39.9c1 1.2.9 3 .9 3s-1.7 0-2.7-1.2c-1-1.2-.9-3-.9-3s1.7.1 2.7 1.2z"/><path fill="#091F2F" d="M131.4 40.2c0 1.6-1.3 2.8-1.3 2.8s-1.2-1.3-1.2-2.9c0-1.6 1.3-2.8 1.3-2.8s1.2 1.3 1.2 2.9zM132.3 44.9c1.5.5 2.4 2.4 2.4 2.4s-1.6.9-3.2.4c-1.5-.5-2.4-2.4-2.4-2.4s1.7-.9 3.2-.4z"/><path fill="#091F2F" d="M134.5 43.9c.8 1.5.2 3.4.2 3.4s-1.8-.6-2.6-2.1-.2-3.4-.2-3.4 1.8.6 2.6 2.1zM137.1 48.5c1.7-.2 3.3 1.2 3.3 1.2s-1.2 1.7-2.9 1.9c-1.7.2-3.3-1.2-3.3-1.2s1.2-1.7 2.9-1.9z"/><path fill="#091F2F" d="M138.8 46.4c1.4 1.2 1.6 3.3 1.6 3.3s-2 .3-3.4-.9-1.6-3.3-1.6-3.3 2-.3 3.4.9zM128.9 34.1c.4 1.5-.4 3-.4 3s-1.5-.9-1.9-2.3.4-3 .4-3 1.5.8 1.9 2.3z"/><path fill="#091F2F" d="M130.7 35.4c-.7 1.3-2.3 1.7-2.3 1.7s-.5-1.7.2-3 2.3-1.7 2.3-1.7.5 1.7-.2 3zM130.4 29.7c-.4 1.1-1.7 1.7-1.7 1.7s-.6-1.3-.2-2.5c.4-1.1 1.7-1.7 1.7-1.7s.6 1.3.2 2.5z"/><path fill="#091F2F" d="M130.9 31.4c-1.1.5-2.3-.1-2.3-.1s.5-1.4 1.5-1.8c1.1-.5 2.3.1 2.3.1s-.4 1.4-1.5 1.8zM133.9 26.5c-.7 1-2.1 1.1-2.1 1.1s-.2-1.4.6-2.4c.7-1 2.1-1.1 2.1-1.1s.1 1.4-.6 2.4z"/><path fill="#091F2F" d="M133.9 28.3c-1.1.2-2.2-.8-2.2-.8s.8-1.2 2-1.3c1.1-.2 2.2.8 2.2.8s-.8 1.2-2 1.3zM137 25.1c-.8.4-1.7 0-1.7 0s.3-1 1.1-1.4 1.7 0 1.7 0-.4 1-1.1 1.4zM136.5 29.6h4.9c1.3 0 2.5.1 3.3.3 1.6.5 2.2 1.7 2.2 2.9 0 .7-.2 1.1-.2 1.2-.6 1.3-1.8 1.5-2.5 1.7.8.1 1.8.3 2.5 1.1.4.5.7 1.2.7 1.9 0 1-.5 2.4-2.1 3.1-1 .4-2 .5-3.4.5h-5.3V29.6zm3 2.3v2.6h2.4c.7 0 1.9-.1 1.9-1.4 0-1.2-1.1-1.3-1.7-1.3h-2.6zm0 5V40h2.2c1.1 0 2.4-.1 2.4-1.5 0-1.5-1.3-1.5-1.9-1.6h-2.7z"/><defs><path id="a" d="M83.4 193.6h-1.5v84h108v-84H83.4zm0 3h105l-1.5-1.5v81l1.5-1.5h-105l1.5 1.5v-81l-1.5 1.5zm-21.5-23h148v124h-148v-124z"/></defs><clipPath id="b"><use xlink:href="#a" overflow="visible"/></clipPath><g clip-path="url(#b)"><defs><path id="c" d="M83.4 195.1h105v81h-105z"/></defs><clipPath id="d"><use xlink:href="#c" overflow="visible"/></clipPath><g clip-path="url(#d)"><defs><path id="e" d="M-797.6-303.9h1121v1030h-1121z"/></defs></g></g><defs><path id="f" d="M83.4 195.1h105v81h-105z"/></defs><clipPath id="g"><use xlink:href="#f" overflow="visible"/></clipPath><g clip-path="url(#g)"><defs><path id="h" d="M-797.6-303.9h1121v1030h-1121z"/></defs></g><defs><path id="i" d="M77.4 210.6h-2.2l.9-2.1 9.1-22 .4-.9h100.9l.4.9 9.1 22 .9 2.1H77.4zm0-3h117l-1.4 2.1-9.1-22 1.4.9H86.5l1.4-.9-9.1 22-1.4-2.1zm-22.3 23h161.5v-65H55.1v65z"/></defs><clipPath id="j"><use xlink:href="#i" overflow="visible"/></clipPath><g clip-path="url(#j)"><defs><path id="k" d="M77.4 209.1h117l-9.1-22H86.5z"/></defs><clipPath id="l"><use xlink:href="#k" overflow="visible"/></clipPath><g clip-path="url(#l)"><defs><path id="m" d="M-797.6-303.9h1121v1030h-1121z"/></defs></g></g><defs><path id="n" d="M77.4 209.1h117l-9.1-22H86.5z"/></defs><clipPath id="o"><use xlink:href="#n" overflow="visible"/></clipPath><g clip-path="url(#o)"><defs><path id="p" d="M-797.6-303.9h1121v1030h-1121z"/></defs></g><defs><path id="q" d="M162.4 177.6h-1.5v19h15v-19h-13.5zm0 3h12l-1.5-1.5v16l1.5-1.5h-12l1.5 1.5v-16l-1.5 1.5zm-21.5-23h55v59h-55v-59z"/></defs><clipPath id="r"><use xlink:href="#q" overflow="visible"/></clipPath><g clip-path="url(#r)"><defs><path id="s" d="M162.4 179.1h12v16h-12z"/></defs><clipPath id="t"><use xlink:href="#s" overflow="visible"/></clipPath><g clip-path="url(#t)"><defs><path id="u" d="M-797.6-303.9h1121v1030h-1121z"/></defs></g></g><defs><path id="v" d="M162.4 179.1h12v16h-12z"/></defs><clipPath id="w"><use xlink:href="#v" overflow="visible"/></clipPath><g clip-path="url(#w)"><defs><path id="x" d="M-797.6-303.9h1121v1030h-1121z"/></defs></g><defs><path id="y" d="M96.4 243.6h-1.5v34h24v-34H96.4zm0 3h21l-1.5-1.5v31l1.5-1.5h-21l1.5 1.5v-31l-1.5 1.5zm-21.5-23h64v74h-64v-74z"/></defs><clipPath id="z"><use xlink:href="#y" overflow="visible"/></clipPath><g clip-path="url(#z)"><defs><path id="A" d="M96.4 245.1h21v31h-21z"/></defs><clipPath id="B"><use xlink:href="#A" overflow="visible"/></clipPath><g clip-path="url(#B)"><defs><path id="C" d="M-797.6-303.9h1121v1030h-1121z"/></defs></g></g><defs><path id="D" d="M96.4 245.1h21v31h-21z"/></defs><clipPath id="E"><use xlink:href="#D" overflow="visible"/></clipPath><g clip-path="url(#E)"><defs><path id="F" d="M-797.6-303.9h1121v1030h-1121z"/></defs></g><defs><path id="G" d="M97.4 215.6h-1.5v22h22v-22H97.4zm0 3h19l-1.5-1.5v19l1.5-1.5h-19l1.5 1.5v-19l-1.5 1.5zm-21.5-23h62v62h-62v-62z"/></defs><clipPath id="H"><use xlink:href="#G" overflow="visible"/></clipPath><g clip-path="url(#H)"><defs><path id="I" d="M97.4 217.1h19v19h-19z"/></defs><clipPath id="J"><use xlink:href="#I" overflow="visible"/></clipPath><g clip-path="url(#J)"><defs><path id="K" d="M-797.6-303.9h1121v1030h-1121z"/></defs></g></g><defs><path id="L" d="M97.4 217.1h19v19h-19z"/></defs><clipPath id="M"><use xlink:href="#L" overflow="visible"/></clipPath><g clip-path="url(#M)"><defs><path id="N" d="M-797.6-303.9h1121v1030h-1121z"/></defs></g><g><defs><path id="O" d="M102.4 220.6h-1.5v12h12v-12h-10.5zm0 3h9l-1.5-1.5v9l1.5-1.5h-9l1.5 1.5v-9l-1.5 1.5zm-21.5-23h52v52h-52v-52z"/></defs><clipPath id="P"><use xlink:href="#O" overflow="visible"/></clipPath><g clip-path="url(#P)"><defs><path id="Q" d="M102.4 222.1h9v9h-9z"/></defs><clipPath id="R"><use xlink:href="#Q" overflow="visible"/></clipPath><g clip-path="url(#R)"><defs><path id="S" d="M-797.6-303.9h1121v1030h-1121z"/></defs></g></g></g><g><defs><path id="T" d="M102.4 222.1h9v9h-9z"/></defs><clipPath id="U"><use xlink:href="#T" overflow="visible"/></clipPath><g clip-path="url(#U)"><defs><path id="V" d="M-797.6-303.9h1121v1030h-1121z"/></defs></g></g><g><defs><path id="W" d="M127.4 215.6h-1.5v22h22v-22h-20.5zm0 3h19l-1.5-1.5v19l1.5-1.5h-19l1.5 1.5v-19l-1.5 1.5zm-21.5-23h62v62h-62v-62z"/></defs><clipPath id="X"><use xlink:href="#W" overflow="visible"/></clipPath><g clip-path="url(#X)"><defs><path id="Y" d="M127.4 217.1h19v19h-19z"/></defs><clipPath id="Z"><use xlink:href="#Y" overflow="visible"/></clipPath><g clip-path="url(#Z)"><defs><path id="aa" d="M-797.6-303.9h1121v1030h-1121z"/></defs></g></g></g><g><defs><path id="ab" d="M127.4 217.1h19v19h-19z"/></defs><clipPath id="ac"><use xlink:href="#ab" overflow="visible"/></clipPath><g clip-path="url(#ac)"><defs><path id="ad" d="M-797.6-303.9h1121v1030h-1121z"/></defs></g></g><g><defs><path id="ae" d="M156.4 215.6h-1.5v22h22v-22h-20.5zm0 3h19l-1.5-1.5v19l1.5-1.5h-19l1.5 1.5v-19l-1.5 1.5zm-21.5-23h62v62h-62v-62z"/></defs><clipPath id="af"><use xlink:href="#ae" overflow="visible"/></clipPath><g clip-path="url(#af)"><defs><path id="ag" d="M156.4 217.1h19v19h-19z"/></defs><clipPath id="ah"><use xlink:href="#ag" overflow="visible"/></clipPath><g clip-path="url(#ah)"><defs><path id="ai" d="M-797.6-303.9h1121v1030h-1121z"/></defs></g></g></g><g><defs><path id="aj" d="M156.4 217.1h19v19h-19z"/></defs><clipPath id="ak"><use xlink:href="#aj" overflow="visible"/></clipPath><g clip-path="url(#ak)"><defs><path id="al" d="M-797.6-303.9h1121v1030h-1121z"/></defs></g></g><g><defs><path id="am" d="M127.4 243.6h-1.5v22h22v-22h-20.5zm0 3h19l-1.5-1.5v19l1.5-1.5h-19l1.5 1.5v-19l-1.5 1.5zm-21.5-23h62v62h-62v-62z"/></defs><clipPath id="an"><use xlink:href="#am" overflow="visible"/></clipPath><g clip-path="url(#an)"><defs><path id="ao" d="M127.4 245.1h19v19h-19z"/></defs><clipPath id="ap"><use xlink:href="#ao" overflow="visible"/></clipPath><g clip-path="url(#ap)"><defs><path id="aq" d="M-797.6-303.9h1121v1030h-1121z"/></defs></g></g></g><g><defs><path id="ar" d="M127.4 245.1h19v19h-19z"/></defs><clipPath id="as"><use xlink:href="#ar" overflow="visible"/></clipPath><g clip-path="url(#as)"><defs><path id="at" d="M-797.6-303.9h1121v1030h-1121z"/></defs></g></g><g><defs><path id="au" d="M156.4 243.6h-1.5v22h22v-22h-20.5zm0 3h19l-1.5-1.5v19l1.5-1.5h-19l1.5 1.5v-19l-1.5 1.5zm-21.5-23h62v62h-62v-62z"/></defs><clipPath id="av"><use xlink:href="#au" overflow="visible"/></clipPath><g clip-path="url(#av)"><defs><path id="aw" d="M156.4 245.1h19v19h-19z"/></defs><clipPath id="ax"><use xlink:href="#aw" overflow="visible"/></clipPath><g clip-path="url(#ax)"><defs><path id="ay" d="M-797.6-303.9h1121v1030h-1121z"/></defs></g></g></g><g><defs><path id="az" d="M156.4 245.1h19v19h-19z"/></defs><clipPath id="aA"><use xlink:href="#az" overflow="visible"/></clipPath><g clip-path="url(#aA)"><defs><path id="aB" d="M-797.6-303.9h1121v1030h-1121z"/></defs></g></g><g><defs><path id="aC" d="M132.4 220.6h-1.5v12h12v-12h-10.5zm0 3h9l-1.5-1.5v9l1.5-1.5h-9l1.5 1.5v-9l-1.5 1.5zm-21.5-23h52v52h-52v-52z"/></defs><clipPath id="aD"><use xlink:href="#aC" overflow="visible"/></clipPath><g clip-path="url(#aD)"><defs><path id="aE" d="M132.4 222.1h9v9h-9z"/></defs><clipPath id="aF"><use xlink:href="#aE" overflow="visible"/></clipPath><g clip-path="url(#aF)"><defs><path id="aG" d="M-797.6-303.9h1121v1030h-1121z"/></defs></g></g></g><g><defs><path id="aH" d="M132.4 222.1h9v9h-9z"/></defs><clipPath id="aI"><use xlink:href="#aH" overflow="visible"/></clipPath><g clip-path="url(#aI)"><defs><path id="aJ" d="M-797.6-303.9h1121v1030h-1121z"/></defs></g></g><g><defs><path id="aK" d="M161.4 220.6h-1.5v12h12v-12h-10.5zm0 3h9l-1.5-1.5v9l1.5-1.5h-9l1.5 1.5v-9l-1.5 1.5zm-21.5-23h52v52h-52v-52z"/></defs><clipPath id="aL"><use xlink:href="#aK" overflow="visible"/></clipPath><g clip-path="url(#aL)"><defs><path id="aM" d="M161.4 222.1h9v9h-9z"/></defs><clipPath id="aN"><use xlink:href="#aM" overflow="visible"/></clipPath><g clip-path="url(#aN)"><defs><path id="aO" d="M-797.6-303.9h1121v1030h-1121z"/></defs></g></g></g><g><defs><path id="aP" d="M161.4 222.1h9v9h-9z"/></defs><clipPath id="aQ"><use xlink:href="#aP" overflow="visible"/></clipPath><g clip-path="url(#aQ)"><defs><path id="aR" d="M-797.6-303.9h1121v1030h-1121z"/></defs></g></g><g><defs><path id="aS" d="M132.4 248.6h-1.5v12h12v-12h-10.5zm0 3h9l-1.5-1.5v9l1.5-1.5h-9l1.5 1.5v-9l-1.5 1.5zm-21.5-23h52v52h-52v-52z"/></defs><clipPath id="aT"><use xlink:href="#aS" overflow="visible"/></clipPath><g clip-path="url(#aT)"><defs><path id="aU" d="M132.4 250.1h9v9h-9z"/></defs><clipPath id="aV"><use xlink:href="#aU" overflow="visible"/></clipPath><g clip-path="url(#aV)"><defs><path id="aW" d="M-797.6-303.9h1121v1030h-1121z"/></defs></g></g></g><g><defs><path id="aX" d="M132.4 250.1h9v9h-9z"/></defs><clipPath id="aY"><use xlink:href="#aX" overflow="visible"/></clipPath><g clip-path="url(#aY)"><defs><path id="aZ" d="M-797.6-303.9h1121v1030h-1121z"/></defs></g></g><g><defs><path id="ba" d="M161.4 248.6h-1.5v12h12v-12h-10.5zm0 3h9l-1.5-1.5v9l1.5-1.5h-9l1.5 1.5v-9l-1.5 1.5zm-21.5-23h52v52h-52v-52z"/></defs><clipPath id="bb"><use xlink:href="#ba" overflow="visible"/></clipPath><g clip-path="url(#bb)"><defs><path id="bc" d="M161.4 250.1h9v9h-9z"/></defs><clipPath id="bd"><use xlink:href="#bc" overflow="visible"/></clipPath><g clip-path="url(#bd)"><defs><path id="be" d="M-797.6-303.9h1121v1030h-1121z"/></defs></g></g></g><g><defs><path id="bf" d="M161.4 250.1h9v9h-9z"/></defs><clipPath id="bg"><use xlink:href="#bf" overflow="visible"/></clipPath><g clip-path="url(#bg)"><defs><path id="bh" d="M-797.6-303.9h1121v1030h-1121z"/></defs></g></g><g><defs><circle id="bi" cx="-195.7" cy="218.5" r="15.7"/></defs><defs><path id="bj" d="M-195.7 235.8c-9.5 0-17.2-7.7-17.2-17.2s7.7-17.2 17.2-17.2 17.2 7.7 17.2 17.2c.1 9.4-7.7 17.2-17.2 17.2zm0-31.5c-7.9 0-14.2 6.4-14.2 14.2 0 7.9 6.4 14.2 14.2 14.2s14.2-6.4 14.2-14.2c.1-7.8-6.3-14.2-14.2-14.2z"/></defs><use xlink:href="#bi" overflow="visible" fill-rule="evenodd" clip-rule="evenodd" fill="#FFF"/><use xlink:href="#bj" overflow="visible" fill="#0F1F2D"/><clipPath id="bk"><use xlink:href="#bi" overflow="visible"/></clipPath><clipPath id="bl" clip-path="url(#bk)"><use xlink:href="#bj" overflow="visible"/></clipPath><g clip-path="url(#bl)"><defs><path id="bm" d="M-258.8-47.7h405.6V325h-405.6z"/></defs><defs><path id="bn" d="M148.3 326.4h-408.6V-49.2h408.6v375.6zm-405.6-3h402.6V-46.2h-402.6v369.6z"/></defs><use xlink:href="#bm" overflow="visible" fill="#FFF"/><use xlink:href="#bn" overflow="visible" fill="#0F1F2D"/><clipPath id="bo"><use xlink:href="#bm" overflow="visible"/></clipPath></g></g><g><defs><path id="bp" d="M683.4-123.4h-1.5v84h108v-84H683.4zm0 3h105l-1.5-1.5v81l1.5-1.5h-105l1.5 1.5v-81l-1.5 1.5zm-21.5-23h148v124h-148v-124z"/></defs><clipPath id="bq"><use xlink:href="#bp" overflow="visible"/></clipPath><g clip-path="url(#bq)"><defs><path id="br" d="M683.4-121.9h105v81h-105z"/></defs><clipPath id="bs"><use xlink:href="#br" overflow="visible"/></clipPath><g clip-path="url(#bs)"><defs><path id="bt" d="M-197.6-620.9h1121v1030h-1121z"/></defs></g></g></g><g><defs><path id="bu" d="M683.4-121.9h105v81h-105z"/></defs><clipPath id="bv"><use xlink:href="#bu" overflow="visible"/></clipPath><g clip-path="url(#bv)"><defs><path id="bw" d="M-197.6-620.9h1121v1030h-1121z"/></defs></g></g><g><defs><path id="bx" d="M677.4-106.4h-2.2l.9-2.1 9.1-22 .4-.9h100.9l.4.9 9.1 22 .9 2.1H677.4zm0-3h117l-1.4 2.1-9.1-22 1.4.9h-98.9l1.4-.9-9.1 22-1.3-2.1zm-22.3 23h161.5v-65H655.1v65z"/></defs><clipPath id="by"><use xlink:href="#bx" overflow="visible"/></clipPath><g clip-path="url(#by)"><defs><path id="bz" d="M677.4-107.9h117l-9.1-22h-98.8z"/></defs><clipPath id="bA"><use xlink:href="#bz" overflow="visible"/></clipPath><g clip-path="url(#bA)"><defs><path id="bB" d="M-197.6-620.9h1121v1030h-1121z"/></defs></g></g></g><g><defs><path id="bC" d="M677.4-107.9h117l-9.1-22h-98.8z"/></defs><clipPath id="bD"><use xlink:href="#bC" overflow="visible"/></clipPath><g clip-path="url(#bD)"><defs><path id="bE" d="M-197.6-620.9h1121v1030h-1121z"/></defs></g></g><g><defs><path id="bF" d="M762.4-139.4h-1.5v19h15v-19h-13.5zm0 3h12l-1.5-1.5v16l1.5-1.5h-12l1.5 1.5v-16l-1.5 1.5zm-21.5-23h55v59h-55v-59z"/></defs><clipPath id="bG"><use xlink:href="#bF" overflow="visible"/></clipPath><g clip-path="url(#bG)"><defs><path id="bH" d="M762.4-137.9h12v16h-12z"/></defs><clipPath id="bI"><use xlink:href="#bH" overflow="visible"/></clipPath><g clip-path="url(#bI)"><defs><path id="bJ" d="M-197.6-620.9h1121v1030h-1121z"/></defs></g></g></g><g><defs><path id="bK" d="M762.4-137.9h12v16h-12z"/></defs><clipPath id="bL"><use xlink:href="#bK" overflow="visible"/></clipPath><g clip-path="url(#bL)"><defs><path id="bM" d="M-197.6-620.9h1121v1030h-1121z"/></defs></g></g><g><defs><path id="bN" d="M696.4-73.4h-1.5v34h24v-34h-22.5zm0 3h21l-1.5-1.5v31l1.5-1.5h-21l1.5 1.5v-31l-1.5 1.5zm-21.5-23h64v74h-64v-74z"/></defs><clipPath id="bO"><use xlink:href="#bN" overflow="visible"/></clipPath><g clip-path="url(#bO)"><defs><path id="bP" d="M696.4-71.9h21v31h-21z"/></defs><clipPath id="bQ"><use xlink:href="#bP" overflow="visible"/></clipPath><g clip-path="url(#bQ)"><defs><path id="bR" d="M-197.6-620.9h1121v1030h-1121z"/></defs></g></g></g><g><defs><path id="bS" d="M696.4-71.9h21v31h-21z"/></defs><clipPath id="bT"><use xlink:href="#bS" overflow="visible"/></clipPath><g clip-path="url(#bT)"><defs><path id="bU" d="M-197.6-620.9h1121v1030h-1121z"/></defs></g></g><g><defs><path id="bV" d="M697.4-101.4h-1.5v22h22v-22h-20.5zm0 3h19l-1.5-1.5v19l1.5-1.5h-19l1.5 1.5v-19l-1.5 1.5zm-21.5-23h62v62h-62v-62z"/></defs><clipPath id="bW"><use xlink:href="#bV" overflow="visible"/></clipPath><g clip-path="url(#bW)"><defs><path id="bX" d="M697.4-99.9h19v19h-19z"/></defs><clipPath id="bY"><use xlink:href="#bX" overflow="visible"/></clipPath><g clip-path="url(#bY)"><defs><path id="bZ" d="M-197.6-620.9h1121v1030h-1121z"/></defs></g></g></g><g><defs><path id="ca" d="M697.4-99.9h19v19h-19z"/></defs><clipPath id="cb"><use xlink:href="#ca" overflow="visible"/></clipPath><g clip-path="url(#cb)"><defs><path id="cc" d="M-197.6-620.9h1121v1030h-1121z"/></defs></g></g><g><defs><path id="cd" d="M702.4-96.4h-1.5v12h12v-12h-10.5zm0 3h9l-1.5-1.5v9l1.5-1.5h-9l1.5 1.5v-9l-1.5 1.5zm-21.5-23h52v52h-52v-52z"/></defs><clipPath id="ce"><use xlink:href="#cd" overflow="visible"/></clipPath><g clip-path="url(#ce)"><defs><path id="cf" d="M702.4-94.9h9v9h-9z"/></defs><clipPath id="cg"><use xlink:href="#cf" overflow="visible"/></clipPath><g clip-path="url(#cg)"><defs><path id="ch" d="M-197.6-620.9h1121v1030h-1121z"/></defs></g></g></g><g><defs><path id="ci" d="M702.4-94.9h9v9h-9z"/></defs><clipPath id="cj"><use xlink:href="#ci" overflow="visible"/></clipPath><g clip-path="url(#cj)"><defs><path id="ck" d="M-197.6-620.9h1121v1030h-1121z"/></defs></g></g><g><defs><path id="cl" d="M727.4-101.4h-1.5v22h22v-22h-20.5zm0 3h19l-1.5-1.5v19l1.5-1.5h-19l1.5 1.5v-19l-1.5 1.5zm-21.5-23h62v62h-62v-62z"/></defs><clipPath id="cm"><use xlink:href="#cl" overflow="visible"/></clipPath><g clip-path="url(#cm)"><defs><path id="cn" d="M727.4-99.9h19v19h-19z"/></defs><clipPath id="co"><use xlink:href="#cn" overflow="visible"/></clipPath><g clip-path="url(#co)"><defs><path id="cp" d="M-197.6-620.9h1121v1030h-1121z"/></defs></g></g></g><g><defs><path id="cq" d="M727.4-99.9h19v19h-19z"/></defs><clipPath id="cr"><use xlink:href="#cq" overflow="visible"/></clipPath><g clip-path="url(#cr)"><defs><path id="cs" d="M-197.6-620.9h1121v1030h-1121z"/></defs></g></g><g><defs><path id="ct" d="M756.4-101.4h-1.5v22h22v-22h-20.5zm0 3h19l-1.5-1.5v19l1.5-1.5h-19l1.5 1.5v-19l-1.5 1.5zm-21.5-23h62v62h-62v-62z"/></defs><clipPath id="cu"><use xlink:href="#ct" overflow="visible"/></clipPath><g clip-path="url(#cu)"><defs><path id="cv" d="M756.4-99.9h19v19h-19z"/></defs><clipPath id="cw"><use xlink:href="#cv" overflow="visible"/></clipPath><g clip-path="url(#cw)"><defs><path id="cx" d="M-197.6-620.9h1121v1030h-1121z"/></defs></g></g></g><g><defs><path id="cy" d="M756.4-99.9h19v19h-19z"/></defs><clipPath id="cz"><use xlink:href="#cy" overflow="visible"/></clipPath><g clip-path="url(#cz)"><defs><path id="cA" d="M-197.6-620.9h1121v1030h-1121z"/></defs></g></g><g><defs><path id="cB" d="M727.4-73.4h-1.5v22h22v-22h-20.5zm0 3h19l-1.5-1.5v19l1.5-1.5h-19l1.5 1.5v-19l-1.5 1.5zm-21.5-23h62v62h-62v-62z"/></defs><clipPath id="cC"><use xlink:href="#cB" overflow="visible"/></clipPath><g clip-path="url(#cC)"><defs><path id="cD" d="M727.4-71.9h19v19h-19z"/></defs><clipPath id="cE"><use xlink:href="#cD" overflow="visible"/></clipPath><g clip-path="url(#cE)"><defs><path id="cF" d="M-197.6-620.9h1121v1030h-1121z"/></defs></g></g></g><g><defs><path id="cG" d="M727.4-71.9h19v19h-19z"/></defs><clipPath id="cH"><use xlink:href="#cG" overflow="visible"/></clipPath><g clip-path="url(#cH)"><defs><path id="cI" d="M-197.6-620.9h1121v1030h-1121z"/></defs></g></g><g><defs><path id="cJ" d="M756.4-73.4h-1.5v22h22v-22h-20.5zm0 3h19l-1.5-1.5v19l1.5-1.5h-19l1.5 1.5v-19l-1.5 1.5zm-21.5-23h62v62h-62v-62z"/></defs><clipPath id="cK"><use xlink:href="#cJ" overflow="visible"/></clipPath><g clip-path="url(#cK)"><defs><path id="cL" d="M756.4-71.9h19v19h-19z"/></defs><clipPath id="cM"><use xlink:href="#cL" overflow="visible"/></clipPath><g clip-path="url(#cM)"><defs><path id="cN" d="M-197.6-620.9h1121v1030h-1121z"/></defs></g></g></g><g><defs><path id="cO" d="M756.4-71.9h19v19h-19z"/></defs><clipPath id="cP"><use xlink:href="#cO" overflow="visible"/></clipPath><g clip-path="url(#cP)"><defs><path id="cQ" d="M-197.6-620.9h1121v1030h-1121z"/></defs></g></g><g><defs><path id="cR" d="M732.4-96.4h-1.5v12h12v-12h-10.5zm0 3h9l-1.5-1.5v9l1.5-1.5h-9l1.5 1.5v-9l-1.5 1.5zm-21.5-23h52v52h-52v-52z"/></defs><clipPath id="cS"><use xlink:href="#cR" overflow="visible"/></clipPath><g clip-path="url(#cS)"><defs><path id="cT" d="M732.4-94.9h9v9h-9z"/></defs><clipPath id="cU"><use xlink:href="#cT" overflow="visible"/></clipPath><g clip-path="url(#cU)"><defs><path id="cV" d="M-197.6-620.9h1121v1030h-1121z"/></defs></g></g></g><g><defs><path id="cW" d="M732.4-94.9h9v9h-9z"/></defs><clipPath id="cX"><use xlink:href="#cW" overflow="visible"/></clipPath><g clip-path="url(#cX)"><defs><path id="cY" d="M-197.6-620.9h1121v1030h-1121z"/></defs></g></g><g><defs><path id="cZ" d="M761.4-96.4h-1.5v12h12v-12h-10.5zm0 3h9l-1.5-1.5v9l1.5-1.5h-9l1.5 1.5v-9l-1.5 1.5zm-21.5-23h52v52h-52v-52z"/></defs><clipPath id="da"><use xlink:href="#cZ" overflow="visible"/></clipPath><g clip-path="url(#da)"><defs><path id="db" d="M761.4-94.9h9v9h-9z"/></defs><clipPath id="dc"><use xlink:href="#db" overflow="visible"/></clipPath><g clip-path="url(#dc)"><defs><path id="dd" d="M-197.6-620.9h1121v1030h-1121z"/></defs></g></g></g><g><defs><path id="de" d="M761.4-94.9h9v9h-9z"/></defs><clipPath id="df"><use xlink:href="#de" overflow="visible"/></clipPath><g clip-path="url(#df)"><defs><path id="dg" d="M-197.6-620.9h1121v1030h-1121z"/></defs></g></g><g><defs><path id="dh" d="M732.4-68.4h-1.5v12h12v-12h-10.5zm0 3h9l-1.5-1.5v9l1.5-1.5h-9l1.5 1.5v-9l-1.5 1.5zm-21.5-23h52v52h-52v-52z"/></defs><clipPath id="di"><use xlink:href="#dh" overflow="visible"/></clipPath><g clip-path="url(#di)"><defs><path id="dj" d="M732.4-66.9h9v9h-9z"/></defs><clipPath id="dk"><use xlink:href="#dj" overflow="visible"/></clipPath><g clip-path="url(#dk)"><defs><path id="dl" d="M-197.6-620.9h1121v1030h-1121z"/></defs></g></g></g><g><defs><path id="dm" d="M732.4-66.9h9v9h-9z"/></defs><clipPath id="dn"><use xlink:href="#dm" overflow="visible"/></clipPath><g clip-path="url(#dn)"><defs><path id="do" d="M-197.6-620.9h1121v1030h-1121z"/></defs></g></g><g><defs><path id="dp" d="M761.4-68.4h-1.5v12h12v-12h-10.5zm0 3h9l-1.5-1.5v9l1.5-1.5h-9l1.5 1.5v-9l-1.5 1.5zm-21.5-23h52v52h-52v-52z"/></defs><clipPath id="dq"><use xlink:href="#dp" overflow="visible"/></clipPath><g clip-path="url(#dq)"><defs><path id="dr" d="M761.4-66.9h9v9h-9z"/></defs><clipPath id="ds"><use xlink:href="#dr" overflow="visible"/></clipPath><g clip-path="url(#ds)"><defs><path id="dt" d="M-197.6-620.9h1121v1030h-1121z"/></defs></g></g></g><g><defs><path id="du" d="M761.4-66.9h9v9h-9z"/></defs><clipPath id="dv"><use xlink:href="#du" overflow="visible"/></clipPath><g clip-path="url(#dv)"><defs><path id="dw" d="M-197.6-620.9h1121v1030h-1121z"/></defs></g></g></svg>