<svg xmlns="http://www.w3.org/2000/svg" xmlns:xlink="http://www.w3.org/1999/xlink" viewBox="0 0 276 137"><defs><circle id="a" cx="142.1" cy="-257" r="50.5"/></defs><defs><circle id="b" cx="142.1" cy="-257" r="43.5"/></defs><defs><path id="c" d="M85.5-450.3H84v84h108v-84H85.5zm0 3h105l-1.5-1.5v81l1.5-1.5h-105l1.5 1.5v-81l-1.5 1.5zm-21.5-23h148v124H64v-124z"/></defs><clipPath id="d"><use xlink:href="#c" overflow="visible"/></clipPath><g clip-path="url(#d)"><defs><path id="e" d="M85.5-448.8h105v81h-105z"/></defs></g><defs><path id="f" d="M85.5-448.8h105v81h-105z"/></defs><defs><path id="g" d="M79.5-433.3h-2.2l.9-2.1 9.1-22 .4-.9h100.9l.4.9 9.1 22 .9 2.1H79.5zm0-3h117l-1.4 2.1-9.1-22 1.4.9H88.6l1.4-.9-9.1 22-1.4-2.1zm-22.2 23h161.5v-65H57.3v65z"/></defs><clipPath id="h"><use xlink:href="#g" overflow="visible"/></clipPath><g clip-path="url(#h)"><defs><path id="i" d="M79.5-434.8h117l-9.1-22H88.6z"/></defs></g><defs><path id="j" d="M79.5-434.8h117l-9.1-22H88.6z"/></defs><defs><path id="k" d="M164.5-466.3H163v19h15v-19h-13.5zm0 3h12l-1.5-1.5v16l1.5-1.5h-12l1.5 1.5v-16l-1.5 1.5zm-21.5-23h55v59h-55v-59z"/></defs><clipPath id="l"><use xlink:href="#k" overflow="visible"/></clipPath><g clip-path="url(#l)"><defs><path id="m" d="M164.5-464.8h12v16h-12z"/></defs></g><defs><path id="n" d="M164.5-464.8h12v16h-12z"/></defs><defs><path id="o" d="M98.5-400.3H97v34h24v-34H98.5zm0 3h21l-1.5-1.5v31l1.5-1.5h-21l1.5 1.5v-31l-1.5 1.5zm-21.5-23h64v74H77v-74z"/></defs><clipPath id="p"><use xlink:href="#o" overflow="visible"/></clipPath><g clip-path="url(#p)"><defs><path id="q" d="M98.5-398.8h21v31h-21z"/></defs></g><defs><path id="r" d="M98.5-398.8h21v31h-21z"/></defs><defs><path id="s" d="M99.5-428.3H98v22h22v-22H99.5zm0 3h19l-1.5-1.5v19l1.5-1.5h-19l1.5 1.5v-19l-1.5 1.5zm-21.5-23h62v62H78v-62z"/></defs><clipPath id="t"><use xlink:href="#s" overflow="visible"/></clipPath><g clip-path="url(#t)"><defs><path id="u" d="M99.5-426.8h19v19h-19z"/></defs></g><defs><path id="v" d="M99.5-426.8h19v19h-19z"/></defs><defs><path id="w" d="M104.5-423.3H103v12h12v-12h-10.5zm0 3h9l-1.5-1.5v9l1.5-1.5h-9l1.5 1.5v-9l-1.5 1.5zm-21.5-23h52v52H83v-52z"/></defs><clipPath id="x"><use xlink:href="#w" overflow="visible"/></clipPath><g clip-path="url(#x)"><defs><path id="y" d="M104.5-421.8h9v9h-9z"/></defs></g><defs><path id="z" d="M104.5-421.8h9v9h-9z"/></defs><defs><path id="A" d="M129.5-428.3H128v22h22v-22h-20.5zm0 3h19l-1.5-1.5v19l1.5-1.5h-19l1.5 1.5v-19l-1.5 1.5zm-21.5-23h62v62h-62v-62z"/></defs><clipPath id="B"><use xlink:href="#A" overflow="visible"/></clipPath><g clip-path="url(#B)"><defs><path id="C" d="M129.5-426.8h19v19h-19z"/></defs></g><defs><path id="D" d="M129.5-426.8h19v19h-19z"/></defs><defs><path id="E" d="M158.5-428.3H157v22h22v-22h-20.5zm0 3h19l-1.5-1.5v19l1.5-1.5h-19l1.5 1.5v-19l-1.5 1.5zm-21.5-23h62v62h-62v-62z"/></defs><clipPath id="F"><use xlink:href="#E" overflow="visible"/></clipPath><g clip-path="url(#F)"><defs><path id="G" d="M158.5-426.8h19v19h-19z"/></defs></g><defs><path id="H" d="M158.5-426.8h19v19h-19z"/></defs><defs><path id="I" d="M129.5-400.3H128v22h22v-22h-20.5zm0 3h19l-1.5-1.5v19l1.5-1.5h-19l1.5 1.5v-19l-1.5 1.5zm-21.5-23h62v62h-62v-62z"/></defs><clipPath id="J"><use xlink:href="#I" overflow="visible"/></clipPath><g clip-path="url(#J)"><defs><path id="K" d="M129.5-398.8h19v19h-19z"/></defs></g><defs><path id="L" d="M129.5-398.8h19v19h-19z"/></defs><defs><path id="M" d="M158.5-400.3H157v22h22v-22h-20.5zm0 3h19l-1.5-1.5v19l1.5-1.5h-19l1.5 1.5v-19l-1.5 1.5zm-21.5-23h62v62h-62v-62z"/></defs><clipPath id="N"><use xlink:href="#M" overflow="visible"/></clipPath><g clip-path="url(#N)"><defs><path id="O" d="M158.5-398.8h19v19h-19z"/></defs></g><defs><path id="P" d="M158.5-398.8h19v19h-19z"/></defs><defs><path id="Q" d="M134.5-423.3H133v12h12v-12h-10.5zm0 3h9l-1.5-1.5v9l1.5-1.5h-9l1.5 1.5v-9l-1.5 1.5zm-21.5-23h52v52h-52v-52z"/></defs><clipPath id="R"><use xlink:href="#Q" overflow="visible"/></clipPath><g clip-path="url(#R)"><defs><path id="S" d="M134.5-421.8h9v9h-9z"/></defs></g><defs><path id="T" d="M134.5-421.8h9v9h-9z"/></defs><defs><path id="U" d="M163.5-423.3H162v12h12v-12h-10.5zm0 3h9l-1.5-1.5v9l1.5-1.5h-9l1.5 1.5v-9l-1.5 1.5zm-21.5-23h52v52h-52v-52z"/></defs><clipPath id="V"><use xlink:href="#U" overflow="visible"/></clipPath><g clip-path="url(#V)"><defs><path id="W" d="M163.5-421.8h9v9h-9z"/></defs></g><defs><path id="X" d="M163.5-421.8h9v9h-9z"/></defs><defs><path id="Y" d="M134.5-395.3H133v12h12v-12h-10.5zm0 3h9l-1.5-1.5v9l1.5-1.5h-9l1.5 1.5v-9l-1.5 1.5zm-21.5-23h52v52h-52v-52z"/></defs><clipPath id="Z"><use xlink:href="#Y" overflow="visible"/></clipPath><g clip-path="url(#Z)"><defs><path id="aa" d="M134.5-393.8h9v9h-9z"/></defs></g><defs><path id="ab" d="M134.5-393.8h9v9h-9z"/></defs><defs><path id="ac" d="M163.5-395.3H162v12h12v-12h-10.5zm0 3h9l-1.5-1.5v9l1.5-1.5h-9l1.5 1.5v-9l-1.5 1.5zm-21.5-23h52v52h-52v-52z"/></defs><clipPath id="ad"><use xlink:href="#ac" overflow="visible"/></clipPath><g clip-path="url(#ad)"><defs><path id="ae" d="M163.5-393.8h9v9h-9z"/></defs></g><defs><path id="af" d="M163.5-393.8h9v9h-9z"/></defs><defs><circle id="ag" cx="132.1" cy="560.5" r="43.5"/></defs><defs><path id="ah" d="M132.1 605.5c-24.8 0-45-20.2-45-45s20.2-45 45-45 45 20.2 45 45-20.1 45-45 45zm0-87c-23.2 0-42 18.8-42 42s18.8 42 42 42 42-18.8 42-42-18.8-42-42-42z"/></defs><use xlink:href="#ag" overflow="visible" fill-rule="evenodd" clip-rule="evenodd" fill="#FFF"/><use xlink:href="#ah" overflow="visible" fill="#0F1F2D"/><clipPath id="ai"><use xlink:href="#ag" overflow="visible"/></clipPath><clipPath id="aj" clip-path="url(#ai)"><use xlink:href="#ah" overflow="visible"/></clipPath><g clip-path="url(#aj)"><defs><path id="ak" d="M-42.4-175.5h1121v1030h-1121z"/></defs><defs><path id="al" d="M1080.1 856h-1124V-177h1124V856zm-1121-3h1118V-174h-1118V853z"/></defs><use xlink:href="#ak" overflow="visible" fill="#FFF"/><use xlink:href="#al" overflow="visible" fill="#0F1F2D"/></g><path fill="#091F2F" d="M87.5 114.3c-7.2-.2-13-6.1-13-13.3v-1.5H86v-76h111.2l-.2 77.9c0 7.1-5.9 12.9-13.2 12.9H87.5zm-9.9-11.7c.7 4.9 4.9 8.7 9.9 8.8h87.6c-2.5-2.1-4.2-5.1-4.6-8.7l-92.9-.1zm11.4-3h84.5v1.5c0 5.9 4.3 10.2 10.2 10.2 5.6 0 10.2-4.4 10.2-9.9l.2-74.9H89v73.1z"/><path fill="#091F2F" d="M136 37.4h47v3h-47zm0 12h47v3h-47zm0 12h47v3h-47zm0 12h47v3h-47zm0 12h47v3h-47z"/><g fill="#091F2F"><path d="M124.4 54c-1 1.2-.9 3-.9 3s1.7 0 2.7-1.2c1-1.2.9-3 .9-3s-1.7.1-2.7 1.2z"/><path d="M122.2 54.3c0 1.6 1.3 2.8 1.3 2.8s1.2-1.3 1.2-2.9c0-1.6-1.3-2.8-1.3-2.8s-1.2 1.3-1.2 2.9zm-.9 5.1c-1.5.5-2.4 2.4-2.4 2.4s1.6.9 3.2.4c1.5-.5 2.4-2.4 2.4-2.4s-1.7-1-3.2-.4z"/><path d="M119.1 58.4c-.8 1.5-.2 3.4-.2 3.4s1.8-.6 2.6-2.1.2-3.4.2-3.4-1.8.5-2.6 2.1zm-2.6 4.5c-1.7-.2-3.3 1.2-3.3 1.2s1.2 1.7 2.9 1.9 3.3-1.2 3.3-1.2-1.2-1.7-2.9-1.9z"/><path d="M114.8 60.8c-1.4 1.2-1.6 3.3-1.6 3.3s2 .3 3.4-.9 1.6-3.3 1.6-3.3-2-.2-3.4.9zm9.9-12.6c-.4 1.5.4 3 .4 3s1.5-.9 1.9-2.3c.4-1.5-.4-3-.4-3s-1.5.8-1.9 2.3z"/><path d="M122.9 49.5c.7 1.3 2.3 1.7 2.3 1.7s.5-1.7-.2-3-2.3-1.7-2.3-1.7-.5 1.7.2 3zm.3-5.7c.4 1.1 1.7 1.7 1.7 1.7s.6-1.3.2-2.5c-.4-1.1-1.7-1.7-1.7-1.7s-.6 1.4-.2 2.5z"/><path d="M122.7 45.6c1.1.5 2.3-.1 2.3-.1s-.5-1.4-1.5-1.8c-1.1-.5-2.3.1-2.3.1s.4 1.3 1.5 1.8zm-3-5c.7 1 2.1 1.1 2.1 1.1s.2-1.4-.6-2.4c-.7-1-2.1-1.1-2.1-1.1s-.1 1.4.6 2.4z"/><path d="M119.7 42.5c1.1.2 2.2-.8 2.2-.8s-.8-1.2-2-1.3-2.2.8-2.2.8.8 1.1 2 1.3zm-3.1-3.2c.8.4 1.7 0 1.7 0s-.3-1-1.1-1.4-1.7 0-1.7 0 .4 1 1.1 1.4zm-16 15.2c1 1.2.9 3 .9 3s-1.7 0-2.7-1.2c-1-1.2-.9-3-.9-3s1.7 0 2.7 1.2z"/><path d="M102.8 54.7c0 1.6-1.3 2.8-1.3 2.8s-1.2-1.3-1.2-2.9c0-1.6 1.3-2.8 1.3-2.8s1.2 1.4 1.2 2.9zm.9 4.8c1.5.5 2.4 2.4 2.4 2.4s-1.6.9-3.2.4-2.4-2.4-2.4-2.4 1.6-1 3.2-.4z"/><path d="M105.9 58.5c.8 1.5.2 3.4.2 3.4s-1.8-.6-2.6-2.1-.2-3.4-.2-3.4 1.8.5 2.6 2.1zm2.6 4.5c1.7-.2 3.3 1.2 3.3 1.2s-1.2 1.7-2.9 1.9c-1.7.2-3.3-1.2-3.3-1.2s1.2-1.6 2.9-1.9z"/><path d="M110.2 61c1.4 1.2 1.6 3.3 1.6 3.3s-2 .3-3.4-.9-1.6-3.3-1.6-3.3 2-.3 3.4.9zm-9.9-12.3c.4 1.5-.4 3-.4 3s-1.5-.9-1.9-2.3.4-3 .4-3 1.5.8 1.9 2.3z"/><path d="M102.1 50c-.7 1.3-2.3 1.7-2.3 1.7s-.5-1.7.2-3 2.3-1.7 2.3-1.7.5 1.6-.2 3zm-.4-5.7c-.4 1.1-1.7 1.7-1.7 1.7s-.6-1.3-.2-2.5c.4-1.1 1.7-1.7 1.7-1.7s.7 1.3.2 2.5z"/><path d="M102.3 46c-1.1.5-2.3-.1-2.3-.1s.5-1.4 1.5-1.8c1.1-.5 2.3.1 2.3.1s-.5 1.4-1.5 1.8zm3-4.9c-.7 1-2.1 1.1-2.1 1.1s-.2-1.4.6-2.4c.7-1 2.1-1.1 2.1-1.1s.1 1.4-.6 2.4z"/><path d="M105.3 42.9c-1.1.2-2.2-.8-2.2-.8s.8-1.2 2-1.3c1.1-.2 2.2.8 2.2.8s-.9 1.1-2 1.3zm3-3.2c-.8.4-1.7 0-1.7 0s.3-1 1.1-1.4c.8-.4 1.7 0 1.7 0s-.3 1-1.1 1.4zm-.5 4.4h4.9c1.3 0 2.5.1 3.3.3 1.6.5 2.2 1.7 2.2 2.9 0 .7-.2 1.1-.2 1.2-.6 1.3-1.8 1.5-2.5 1.7.8.1 1.8.3 2.5 1.1.4.5.7 1.2.7 1.9 0 1-.5 2.4-2.1 3.1-1 .4-2 .5-3.4.5h-5.3V44.1zm3 2.4v2.6h2.4c.7 0 1.9-.1 1.9-1.4 0-1.2-1.1-1.3-1.7-1.3h-2.6zm0 5v3.1h2.2c1.1 0 2.4-.1 2.4-1.5 0-1.5-1.3-1.5-1.9-1.6h-2.7z"/></g><defs><path id="am" d="M367.2 397.4h-1.5v38h142v-25.1l-.4-.4-11.4-12-.4-.5H367.2zm0 3h127.6l-1.1-.5 11.4 12-.4-1v23l1.5-1.5h-139l1.5 1.5v-35l-1.5 1.5zm-21.5-23h182v78h-182v-78z"/></defs><clipPath id="an"><use xlink:href="#am" overflow="visible"/></clipPath><g clip-path="url(#an)"><defs><path id="ao" d="M367.2 398.9h127.6l11.4 12v23h-139z"/></defs></g><defs><path id="ap" d="M367.2 398.9h127.6l11.4 12v23h-139z"/></defs><defs><path id="aq" d="M400.2 448.9c-8 0-14.5-6.5-14.5-14.5s6.5-14.5 14.5-14.5 14.5 6.5 14.5 14.5-6.4 14.5-14.5 14.5zm0 3c9.7 0 17.5-7.8 17.5-17.5s-7.8-17.5-17.5-17.5-17.5 7.8-17.5 17.5c0 9.6 7.9 17.5 17.5 17.5zm-37.5-55h75v75h-75v-75z"/></defs><clipPath id="ar"><use xlink:href="#aq" overflow="visible"/></clipPath><g clip-path="url(#ar)"><defs><circle id="as" cx="400.2" cy="434.4" r="16"/></defs></g><defs><circle id="at" cx="400.2" cy="434.4" r="16"/></defs><defs><path id="au" d="M400.2 441.9c-4.1 0-7.5-3.4-7.5-7.5s3.4-7.5 7.5-7.5 7.5 3.4 7.5 7.5-3.3 7.5-7.5 7.5zm0 3c5.8 0 10.5-4.7 10.5-10.5s-4.7-10.5-10.5-10.5-10.5 4.7-10.5 10.5 4.7 10.5 10.5 10.5zm-30.5-41h61v61h-61v-61z"/></defs><clipPath id="av"><use xlink:href="#au" overflow="visible"/></clipPath><g clip-path="url(#av)"><defs><circle id="aw" cx="400.2" cy="434.4" r="9"/></defs></g><defs><circle id="ax" cx="400.2" cy="434.4" r="9"/></defs><defs><path id="ay" d="M466.5 448.9c-8 0-14.5-6.5-14.5-14.5s6.5-14.5 14.5-14.5 14.5 6.5 14.5 14.5-6.5 14.5-14.5 14.5zm0 3c9.7 0 17.5-7.8 17.5-17.5s-7.8-17.5-17.5-17.5-17.5 7.8-17.5 17.5c0 9.6 7.8 17.5 17.5 17.5zm-37.5-55h75v75h-75v-75z"/></defs><clipPath id="az"><use xlink:href="#ay" overflow="visible"/></clipPath><g clip-path="url(#az)"><defs><circle id="aA" cx="466.5" cy="434.4" r="16"/></defs></g><defs><circle id="aB" cx="466.5" cy="434.4" r="16"/></defs><defs><path id="aC" d="M466.7 394l-7.7-15.6h-27.2V394h34.9zm-75.2 0l7.4-15.6h27.2V394h-34.6zm-10.3 5.4l14.1-26.9h66.8l15.3 27.9-96.2-1z"/></defs><defs><path id="aD" d="M466.5 441.9c-4.1 0-7.5-3.4-7.5-7.5s3.4-7.5 7.5-7.5 7.5 3.4 7.5 7.5-3.4 7.5-7.5 7.5zm0 3c5.8 0 10.5-4.7 10.5-10.5s-4.7-10.5-10.5-10.5-10.5 4.7-10.5 10.5 4.7 10.5 10.5 10.5zm-30.5-41h61v61h-61v-61z"/></defs><clipPath id="aE"><use xlink:href="#aD" overflow="visible"/></clipPath><g clip-path="url(#aE)"><defs><circle id="aF" cx="466.5" cy="434.4" r="9"/></defs></g><defs><circle id="aG" cx="466.5" cy="434.4" r="9"/></defs><defs><path id="aH" d="M91.4 367.1h-1.5v84h108v-84H91.4zm0 3h105l-1.5-1.5v81l1.5-1.5h-105l1.5 1.5v-81l-1.5 1.5zm-21.5-23h148v124h-148v-124z"/></defs><clipPath id="aI"><use xlink:href="#aH" overflow="visible"/></clipPath><g clip-path="url(#aI)"><defs><path id="aJ" d="M91.4 368.6h105v81h-105z"/></defs></g><defs><path id="aK" d="M91.4 368.6h105v81h-105z"/></defs><defs><path id="aL" d="M85.4 384.1h-2.2l.8-2.1 9.1-22 .4-.9h100.9l.4.9 9.1 22 .9 2.1H85.4zm0-3h117l-1.4 2.1-9.1-22 1.4.9H94.5l1.4-.9-9.1 22-1.4-2.1zm-22.3 23h161.5v-65H63.1v65z"/></defs><clipPath id="aM"><use xlink:href="#aL" overflow="visible"/></clipPath><g clip-path="url(#aM)"><defs><path id="aN" d="M85.4 382.6h117l-9.1-22H94.5z"/></defs></g><defs><path id="aO" d="M85.4 382.6h117l-9.1-22H94.5z"/></defs><defs><path id="aP" d="M170.4 351.1h-1.5v19h15v-19h-13.5zm0 3h12l-1.5-1.5v16l1.5-1.5h-12l1.5 1.5v-16l-1.5 1.5zm-21.5-23h55v59h-55v-59z"/></defs><clipPath id="aQ"><use xlink:href="#aP" overflow="visible"/></clipPath><g clip-path="url(#aQ)"><defs><path id="aR" d="M170.4 352.6h12v16h-12z"/></defs></g><defs><path id="aS" d="M170.4 352.6h12v16h-12z"/></defs><defs><path id="aT" d="M104.4 417.1h-1.5v34h24v-34h-22.5zm0 3h21l-1.5-1.5v31l1.5-1.5h-21l1.5 1.5v-31l-1.5 1.5zm-21.5-23h64v74h-64v-74z"/></defs><clipPath id="aU"><use xlink:href="#aT" overflow="visible"/></clipPath><g clip-path="url(#aU)"><defs><path id="aV" d="M104.4 418.6h21v31h-21z"/></defs></g><defs><path id="aW" d="M104.4 418.6h21v31h-21z"/></defs><defs><path id="aX" d="M105.4 389.1h-1.5v22h22v-22h-20.5zm0 3h19l-1.5-1.5v19l1.5-1.5h-19l1.5 1.5v-19l-1.5 1.5zm-21.5-23h62v62h-62v-62z"/></defs><clipPath id="aY"><use xlink:href="#aX" overflow="visible"/></clipPath><g clip-path="url(#aY)"><defs><path id="aZ" d="M105.4 390.6h19v19h-19z"/></defs></g><defs><path id="ba" d="M105.4 390.6h19v19h-19z"/></defs><defs><path id="bb" d="M110.4 394.1h-1.5v12h12v-12h-10.5zm0 3h9l-1.5-1.5v9l1.5-1.5h-9l1.5 1.5v-9l-1.5 1.5zm-21.5-23h52v52h-52v-52z"/></defs><clipPath id="bc"><use xlink:href="#bb" overflow="visible"/></clipPath><g clip-path="url(#bc)"><defs><path id="bd" d="M110.4 395.6h9v9h-9z"/></defs></g><defs><path id="be" d="M110.4 395.6h9v9h-9z"/></defs><defs><path id="bf" d="M135.4 389.1h-1.5v22h22v-22h-20.5zm0 3h19l-1.5-1.5v19l1.5-1.5h-19l1.5 1.5v-19l-1.5 1.5zm-21.5-23h62v62h-62v-62z"/></defs><clipPath id="bg"><use xlink:href="#bf" overflow="visible"/></clipPath><g clip-path="url(#bg)"><defs><path id="bh" d="M135.4 390.6h19v19h-19z"/></defs></g><g><defs><path id="bi" d="M135.4 390.6h19v19h-19z"/></defs></g><g><defs><path id="bj" d="M164.4 389.1h-1.5v22h22v-22h-20.5zm0 3h19l-1.5-1.5v19l1.5-1.5h-19l1.5 1.5v-19l-1.5 1.5zm-21.5-23h62v62h-62v-62z"/></defs><clipPath id="bk"><use xlink:href="#bj" overflow="visible"/></clipPath><g clip-path="url(#bk)"><defs><path id="bl" d="M164.4 390.6h19v19h-19z"/></defs></g></g><g><defs><path id="bm" d="M164.4 390.6h19v19h-19z"/></defs></g><g><defs><path id="bn" d="M135.4 417.1h-1.5v22h22v-22h-20.5zm0 3h19l-1.5-1.5v19l1.5-1.5h-19l1.5 1.5v-19l-1.5 1.5zm-21.5-23h62v62h-62v-62z"/></defs><clipPath id="bo"><use xlink:href="#bn" overflow="visible"/></clipPath><g clip-path="url(#bo)"><defs><path id="bp" d="M135.4 418.6h19v19h-19z"/></defs></g></g><g><defs><path id="bq" d="M135.4 418.6h19v19h-19z"/></defs></g><g><defs><path id="br" d="M164.4 417.1h-1.5v22h22v-22h-20.5zm0 3h19l-1.5-1.5v19l1.5-1.5h-19l1.5 1.5v-19l-1.5 1.5zm-21.5-23h62v62h-62v-62z"/></defs><clipPath id="bs"><use xlink:href="#br" overflow="visible"/></clipPath><g clip-path="url(#bs)"><defs><path id="bt" d="M164.4 418.6h19v19h-19z"/></defs></g></g><g><defs><path id="bu" d="M164.4 418.6h19v19h-19z"/></defs></g><g><defs><path id="bv" d="M140.4 394.1h-1.5v12h12v-12h-10.5zm0 3h9l-1.5-1.5v9l1.5-1.5h-9l1.5 1.5v-9l-1.5 1.5zm-21.5-23h52v52h-52v-52z"/></defs><clipPath id="bw"><use xlink:href="#bv" overflow="visible"/></clipPath><g clip-path="url(#bw)"><defs><path id="bx" d="M140.4 395.6h9v9h-9z"/></defs></g></g><g><defs><path id="by" d="M140.4 395.6h9v9h-9z"/></defs></g><g><defs><path id="bz" d="M169.4 394.1h-1.5v12h12v-12h-10.5zm0 3h9l-1.5-1.5v9l1.5-1.5h-9l1.5 1.5v-9l-1.5 1.5zm-21.5-23h52v52h-52v-52z"/></defs><clipPath id="bA"><use xlink:href="#bz" overflow="visible"/></clipPath><g clip-path="url(#bA)"><defs><path id="bB" d="M169.4 395.6h9v9h-9z"/></defs></g></g><g><defs><path id="bC" d="M169.4 395.6h9v9h-9z"/></defs></g><g><defs><path id="bD" d="M140.4 422.1h-1.5v12h12v-12h-10.5zm0 3h9l-1.5-1.5v9l1.5-1.5h-9l1.5 1.5v-9l-1.5 1.5zm-21.5-23h52v52h-52v-52z"/></defs><clipPath id="bE"><use xlink:href="#bD" overflow="visible"/></clipPath><g clip-path="url(#bE)"><defs><path id="bF" d="M140.4 423.6h9v9h-9z"/></defs></g></g><g><defs><path id="bG" d="M140.4 423.6h9v9h-9z"/></defs></g><g><defs><path id="bH" d="M169.4 422.1h-1.5v12h12v-12h-10.5zm0 3h9l-1.5-1.5v9l1.5-1.5h-9l1.5 1.5v-9l-1.5 1.5zm-21.5-23h52v52h-52v-52z"/></defs><clipPath id="bI"><use xlink:href="#bH" overflow="visible"/></clipPath><g clip-path="url(#bI)"><defs><path id="bJ" d="M169.4 423.6h9v9h-9z"/></defs></g></g><g><defs><path id="bK" d="M169.4 423.6h9v9h-9z"/></defs></g></svg>