<svg xmlns="http://www.w3.org/2000/svg" xmlns:xlink="http://www.w3.org/1999/xlink" viewBox="0 0 276 137"><path fill="#FFF" d="M100.9 14.1h80.4v109.4h-80.4z"/><path fill="#091F2F" d="M182.8 125H99.4V12.6h83.4V125zm-80.4-3h77.4V15.6h-77.4V122z"/><path fill="#091F2F" d="M118 60h47v3h-47zm0 12h47v3h-47zm0 12h47v3h-47zm0 12h47v3h-47zm0 12h47v3h-47zm35-68.5c-1 1.2-.9 3-.9 3s1.7 0 2.7-1.2c1-1.2.9-3 .9-3s-1.7 0-2.7 1.2z"/><path fill="#091F2F" d="M150.8 39.7c0 1.6 1.3 2.8 1.3 2.8s1.2-1.3 1.2-2.9c0-1.6-1.3-2.8-1.3-2.8s-1.2 1.3-1.2 2.9zm-.9 5.1c-1.5.5-2.4 2.4-2.4 2.4s1.6.9 3.2.4c1.5-.5 2.4-2.4 2.4-2.4s-1.6-.9-3.2-.4z"/><path fill="#091F2F" d="M147.7 43.8c-.8 1.5-.2 3.4-.2 3.4s1.8-.6 2.6-2.1.2-3.4.2-3.4-1.8.5-2.6 2.1zm-2.6 4.6c-1.7-.2-3.3 1.2-3.3 1.2s1.2 1.7 2.9 1.9c1.7.2 3.3-1.2 3.3-1.2s-1.2-1.7-2.9-1.9z"/><path fill="#091F2F" d="M143.4 46.3c-1.4 1.2-1.6 3.3-1.6 3.3s2 .3 3.4-.9 1.6-3.3 1.6-3.3-2-.3-3.4.9zm9.9-12.7c-.4 1.5.4 3 .4 3s1.5-.9 1.9-2.3-.4-3-.4-3-1.5.9-1.9 2.3z"/><path fill="#091F2F" d="M151.5 34.9c.7 1.3 2.3 1.7 2.3 1.7s.5-1.7-.2-3-2.3-1.7-2.3-1.7-.5 1.7.2 3zm.4-5.7c.4 1.1 1.7 1.7 1.7 1.7s.6-1.3.2-2.5c-.4-1.1-1.7-1.7-1.7-1.7s-.7 1.4-.2 2.5z"/><path fill="#091F2F" d="M151.3 31c1.1.5 2.3-.1 2.3-.1s-.5-1.4-1.5-1.8c-1.1-.5-2.3.1-2.3.1s.5 1.3 1.5 1.8zm-3-5c.7 1 2.1 1.1 2.1 1.1s.2-1.4-.6-2.4c-.7-1-2.1-1.1-2.1-1.1s-.1 1.5.6 2.4z"/><path fill="#091F2F" d="M148.3 27.9c1.1.2 2.2-.8 2.2-.8s-.8-1.2-2-1.3c-1.1-.2-2.2.8-2.2.8s.9 1.1 2 1.3zm-3-3.2c.8.4 1.7 0 1.7 0s-.3-1-1.1-1.4c-.8-.4-1.7 0-1.7 0s.3 1 1.1 1.4zm-16.1 15.2c1 1.2.9 3 .9 3s-1.7 0-2.7-1.2c-1-1.2-.9-3-.9-3s1.7.1 2.7 1.2z"/><path fill="#091F2F" d="M131.4 40.2c0 1.6-1.3 2.8-1.3 2.8s-1.2-1.3-1.2-2.9c0-1.6 1.3-2.8 1.3-2.8s1.2 1.3 1.2 2.9zm.9 4.7c1.5.5 2.4 2.4 2.4 2.4s-1.6.9-3.2.4c-1.5-.5-2.4-2.4-2.4-2.4s1.7-.9 3.2-.4z"/><path fill="#091F2F" d="M134.5 43.9c.8 1.5.2 3.4.2 3.4s-1.8-.6-2.6-2.1-.2-3.4-.2-3.4 1.8.6 2.6 2.1zm2.6 4.6c1.7-.2 3.3 1.2 3.3 1.2s-1.2 1.7-2.9 1.9c-1.7.2-3.3-1.2-3.3-1.2s1.2-1.7 2.9-1.9z"/><path fill="#091F2F" d="M138.8 46.4c1.4 1.2 1.6 3.3 1.6 3.3s-2 .3-3.4-.9-1.6-3.3-1.6-3.3 2-.3 3.4.9zm-9.9-12.3c.4 1.5-.4 3-.4 3s-1.5-.9-1.9-2.3.4-3 .4-3 1.5.8 1.9 2.3z"/><path fill="#091F2F" d="M130.7 35.4c-.7 1.3-2.3 1.7-2.3 1.7s-.5-1.7.2-3 2.3-1.7 2.3-1.7.5 1.7-.2 3zm-.3-5.7c-.4 1.1-1.7 1.7-1.7 1.7s-.6-1.3-.2-2.5c.4-1.1 1.7-1.7 1.7-1.7s.6 1.3.2 2.5z"/><path fill="#091F2F" d="M130.9 31.4c-1.1.5-2.3-.1-2.3-.1s.5-1.4 1.5-1.8c1.1-.5 2.3.1 2.3.1s-.4 1.4-1.5 1.8zm3-4.9c-.7 1-2.1 1.1-2.1 1.1s-.2-1.4.6-2.4c.7-1 2.1-1.1 2.1-1.1s.1 1.4-.6 2.4z"/><path fill="#091F2F" d="M133.9 28.3c-1.1.2-2.2-.8-2.2-.8s.8-1.2 2-1.3c1.1-.2 2.2.8 2.2.8s-.8 1.2-2 1.3zm3.1-3.2c-.8.4-1.7 0-1.7 0s.3-1 1.1-1.4 1.7 0 1.7 0-.4 1-1.1 1.4zm-.5 4.5h4.9c1.3 0 2.5.1 3.3.3 1.6.5 2.2 1.7 2.2 2.9 0 .7-.2 1.1-.2 1.2-.6 1.3-1.8 1.5-2.5 1.7.8.1 1.8.3 2.5 1.1.4.5.7 1.2.7 1.9 0 1-.5 2.4-2.1 3.1-1 .4-2 .5-3.4.5h-5.3V29.6zm3 2.3v2.6h2.4c.7 0 1.9-.1 1.9-1.4 0-1.2-1.1-1.3-1.7-1.3h-2.6zm0 5V40h2.2c1.1 0 2.4-.1 2.4-1.5 0-1.5-1.3-1.5-1.9-1.6h-2.7z"/><defs><path id="a" d="M83.4 193.6h-1.5v84h108v-84H83.4zm0 3h105l-1.5-1.5v81l1.5-1.5h-105l1.5 1.5v-81l-1.5 1.5zm-21.5-23h148v124h-148v-124z"/></defs><clipPath id="b"><use xlink:href="#a" overflow="visible"/></clipPath><g clip-path="url(#b)"><defs><path id="c" d="M83.4 195.1h105v81h-105z"/></defs></g><defs><path id="d" d="M83.4 195.1h105v81h-105z"/></defs><defs><path id="e" d="M77.4 210.6h-2.2l.9-2.1 9.1-22 .4-.9h100.9l.4.9 9.1 22 .9 2.1H77.4zm0-3h117l-1.4 2.1-9.1-22 1.4.9H86.5l1.4-.9-9.1 22-1.4-2.1zm-22.3 23h161.5v-65H55.1v65z"/></defs><clipPath id="f"><use xlink:href="#e" overflow="visible"/></clipPath><g clip-path="url(#f)"><defs><path id="g" d="M77.4 209.1h117l-9.1-22H86.5z"/></defs></g><defs><path id="h" d="M77.4 209.1h117l-9.1-22H86.5z"/></defs><defs><path id="i" d="M162.4 177.6h-1.5v19h15v-19h-13.5zm0 3h12l-1.5-1.5v16l1.5-1.5h-12l1.5 1.5v-16l-1.5 1.5zm-21.5-23h55v59h-55v-59z"/></defs><clipPath id="j"><use xlink:href="#i" overflow="visible"/></clipPath><g clip-path="url(#j)"><defs><path id="k" d="M162.4 179.1h12v16h-12z"/></defs></g><defs><path id="l" d="M162.4 179.1h12v16h-12z"/></defs><defs><path id="m" d="M96.4 243.6h-1.5v34h24v-34H96.4zm0 3h21l-1.5-1.5v31l1.5-1.5h-21l1.5 1.5v-31l-1.5 1.5zm-21.5-23h64v74h-64v-74z"/></defs><clipPath id="n"><use xlink:href="#m" overflow="visible"/></clipPath><g clip-path="url(#n)"><defs><path id="o" d="M96.4 245.1h21v31h-21z"/></defs></g><defs><path id="p" d="M96.4 245.1h21v31h-21z"/></defs><defs><path id="q" d="M97.4 215.6h-1.5v22h22v-22H97.4zm0 3h19l-1.5-1.5v19l1.5-1.5h-19l1.5 1.5v-19l-1.5 1.5zm-21.5-23h62v62h-62v-62z"/></defs><clipPath id="r"><use xlink:href="#q" overflow="visible"/></clipPath><g clip-path="url(#r)"><defs><path id="s" d="M97.4 217.1h19v19h-19z"/></defs></g><defs><path id="t" d="M97.4 217.1h19v19h-19z"/></defs><defs><path id="u" d="M102.4 220.6h-1.5v12h12v-12h-10.5zm0 3h9l-1.5-1.5v9l1.5-1.5h-9l1.5 1.5v-9l-1.5 1.5zm-21.5-23h52v52h-52v-52z"/></defs><clipPath id="v"><use xlink:href="#u" overflow="visible"/></clipPath><g clip-path="url(#v)"><defs><path id="w" d="M102.4 222.1h9v9h-9z"/></defs></g><defs><path id="x" d="M102.4 222.1h9v9h-9z"/></defs><defs><path id="y" d="M127.4 215.6h-1.5v22h22v-22h-20.5zm0 3h19l-1.5-1.5v19l1.5-1.5h-19l1.5 1.5v-19l-1.5 1.5zm-21.5-23h62v62h-62v-62z"/></defs><clipPath id="z"><use xlink:href="#y" overflow="visible"/></clipPath><g clip-path="url(#z)"><defs><path id="A" d="M127.4 217.1h19v19h-19z"/></defs></g><defs><path id="B" d="M127.4 217.1h19v19h-19z"/></defs><defs><path id="C" d="M156.4 215.6h-1.5v22h22v-22h-20.5zm0 3h19l-1.5-1.5v19l1.5-1.5h-19l1.5 1.5v-19l-1.5 1.5zm-21.5-23h62v62h-62v-62z"/></defs><clipPath id="D"><use xlink:href="#C" overflow="visible"/></clipPath><g clip-path="url(#D)"><defs><path id="E" d="M156.4 217.1h19v19h-19z"/></defs></g><defs><path id="F" d="M156.4 217.1h19v19h-19z"/></defs><defs><path id="G" d="M127.4 243.6h-1.5v22h22v-22h-20.5zm0 3h19l-1.5-1.5v19l1.5-1.5h-19l1.5 1.5v-19l-1.5 1.5zm-21.5-23h62v62h-62v-62z"/></defs><clipPath id="H"><use xlink:href="#G" overflow="visible"/></clipPath><g clip-path="url(#H)"><defs><path id="I" d="M127.4 245.1h19v19h-19z"/></defs></g><defs><path id="J" d="M127.4 245.1h19v19h-19z"/></defs><defs><path id="K" d="M156.4 243.6h-1.5v22h22v-22h-20.5zm0 3h19l-1.5-1.5v19l1.5-1.5h-19l1.5 1.5v-19l-1.5 1.5zm-21.5-23h62v62h-62v-62z"/></defs><clipPath id="L"><use xlink:href="#K" overflow="visible"/></clipPath><g clip-path="url(#L)"><defs><path id="M" d="M156.4 245.1h19v19h-19z"/></defs></g><defs><path id="N" d="M156.4 245.1h19v19h-19z"/></defs><defs><path id="O" d="M132.4 220.6h-1.5v12h12v-12h-10.5zm0 3h9l-1.5-1.5v9l1.5-1.5h-9l1.5 1.5v-9l-1.5 1.5zm-21.5-23h52v52h-52v-52z"/></defs><clipPath id="P"><use xlink:href="#O" overflow="visible"/></clipPath><g clip-path="url(#P)"><defs><path id="Q" d="M132.4 222.1h9v9h-9z"/></defs></g><defs><path id="R" d="M132.4 222.1h9v9h-9z"/></defs><defs><path id="S" d="M161.4 220.6h-1.5v12h12v-12h-10.5zm0 3h9l-1.5-1.5v9l1.5-1.5h-9l1.5 1.5v-9l-1.5 1.5zm-21.5-23h52v52h-52v-52z"/></defs><clipPath id="T"><use xlink:href="#S" overflow="visible"/></clipPath><g clip-path="url(#T)"><defs><path id="U" d="M161.4 222.1h9v9h-9z"/></defs></g><defs><path id="V" d="M161.4 222.1h9v9h-9z"/></defs><defs><path id="W" d="M132.4 248.6h-1.5v12h12v-12h-10.5zm0 3h9l-1.5-1.5v9l1.5-1.5h-9l1.5 1.5v-9l-1.5 1.5zm-21.5-23h52v52h-52v-52z"/></defs><clipPath id="X"><use xlink:href="#W" overflow="visible"/></clipPath><g clip-path="url(#X)"><defs><path id="Y" d="M132.4 250.1h9v9h-9z"/></defs></g><defs><path id="Z" d="M132.4 250.1h9v9h-9z"/></defs><defs><path id="aa" d="M161.4 248.6h-1.5v12h12v-12h-10.5zm0 3h9l-1.5-1.5v9l1.5-1.5h-9l1.5 1.5v-9l-1.5 1.5zm-21.5-23h52v52h-52v-52z"/></defs><clipPath id="ab"><use xlink:href="#aa" overflow="visible"/></clipPath><g clip-path="url(#ab)"><defs><path id="ac" d="M161.4 250.1h9v9h-9z"/></defs></g><defs><path id="ad" d="M161.4 250.1h9v9h-9z"/></defs><defs><circle id="ae" cx="-195.7" cy="218.5" r="15.7"/></defs><defs><path id="af" d="M-195.7 235.8c-9.5 0-17.2-7.7-17.2-17.2s7.7-17.2 17.2-17.2 17.2 7.7 17.2 17.2c.1 9.4-7.7 17.2-17.2 17.2zm0-31.5c-7.9 0-14.2 6.4-14.2 14.2 0 7.9 6.4 14.2 14.2 14.2s14.2-6.4 14.2-14.2c.1-7.8-6.3-14.2-14.2-14.2z"/></defs><use xlink:href="#ae" overflow="visible" fill-rule="evenodd" clip-rule="evenodd" fill="#FFF"/><use xlink:href="#af" overflow="visible" fill="#0F1F2D"/><clipPath id="ag"><use xlink:href="#ae" overflow="visible"/></clipPath><clipPath id="ah" clip-path="url(#ag)"><use xlink:href="#af" overflow="visible"/></clipPath><g clip-path="url(#ah)"><defs><path id="ai" d="M-258.8-47.7h405.6V325h-405.6z"/></defs><defs><path id="aj" d="M148.3 326.4h-408.6V-49.2h408.6v375.6zm-405.6-3h402.6V-46.2h-402.6v369.6z"/></defs><use xlink:href="#ai" overflow="visible" fill="#FFF"/><use xlink:href="#aj" overflow="visible" fill="#0F1F2D"/></g><defs><path id="ak" d="M683.4-123.4h-1.5v84h108v-84H683.4zm0 3h105l-1.5-1.5v81l1.5-1.5h-105l1.5 1.5v-81l-1.5 1.5zm-21.5-23h148v124h-148v-124z"/></defs><clipPath id="al"><use xlink:href="#ak" overflow="visible"/></clipPath><g clip-path="url(#al)"><defs><path id="am" d="M683.4-121.9h105v81h-105z"/></defs></g><defs><path id="an" d="M683.4-121.9h105v81h-105z"/></defs><defs><path id="ao" d="M677.4-106.4h-2.2l.9-2.1 9.1-22 .4-.9h100.9l.4.9 9.1 22 .9 2.1H677.4zm0-3h117l-1.4 2.1-9.1-22 1.4.9h-98.9l1.4-.9-9.1 22-1.3-2.1zm-22.3 23h161.5v-65H655.1v65z"/></defs><clipPath id="ap"><use xlink:href="#ao" overflow="visible"/></clipPath><g clip-path="url(#ap)"><defs><path id="aq" d="M677.4-107.9h117l-9.1-22h-98.8z"/></defs></g><defs><path id="ar" d="M677.4-107.9h117l-9.1-22h-98.8z"/></defs><defs><path id="as" d="M762.4-139.4h-1.5v19h15v-19h-13.5zm0 3h12l-1.5-1.5v16l1.5-1.5h-12l1.5 1.5v-16l-1.5 1.5zm-21.5-23h55v59h-55v-59z"/></defs><clipPath id="at"><use xlink:href="#as" overflow="visible"/></clipPath><g clip-path="url(#at)"><defs><path id="au" d="M762.4-137.9h12v16h-12z"/></defs></g><defs><path id="av" d="M762.4-137.9h12v16h-12z"/></defs><defs><path id="aw" d="M696.4-73.4h-1.5v34h24v-34h-22.5zm0 3h21l-1.5-1.5v31l1.5-1.5h-21l1.5 1.5v-31l-1.5 1.5zm-21.5-23h64v74h-64v-74z"/></defs><clipPath id="ax"><use xlink:href="#aw" overflow="visible"/></clipPath><g clip-path="url(#ax)"><defs><path id="ay" d="M696.4-71.9h21v31h-21z"/></defs></g><defs><path id="az" d="M696.4-71.9h21v31h-21z"/></defs><defs><path id="aA" d="M697.4-101.4h-1.5v22h22v-22h-20.5zm0 3h19l-1.5-1.5v19l1.5-1.5h-19l1.5 1.5v-19l-1.5 1.5zm-21.5-23h62v62h-62v-62z"/></defs><clipPath id="aB"><use xlink:href="#aA" overflow="visible"/></clipPath><g clip-path="url(#aB)"><defs><path id="aC" d="M697.4-99.9h19v19h-19z"/></defs></g><defs><path id="aD" d="M697.4-99.9h19v19h-19z"/></defs><g><defs><path id="aE" d="M702.4-96.4h-1.5v12h12v-12h-10.5zm0 3h9l-1.5-1.5v9l1.5-1.5h-9l1.5 1.5v-9l-1.5 1.5zm-21.5-23h52v52h-52v-52z"/></defs><clipPath id="aF"><use xlink:href="#aE" overflow="visible"/></clipPath><g clip-path="url(#aF)"><defs><path id="aG" d="M702.4-94.9h9v9h-9z"/></defs></g></g><g><defs><path id="aH" d="M702.4-94.9h9v9h-9z"/></defs></g><g><defs><path id="aI" d="M727.4-101.4h-1.5v22h22v-22h-20.5zm0 3h19l-1.5-1.5v19l1.5-1.5h-19l1.5 1.5v-19l-1.5 1.5zm-21.5-23h62v62h-62v-62z"/></defs><clipPath id="aJ"><use xlink:href="#aI" overflow="visible"/></clipPath><g clip-path="url(#aJ)"><defs><path id="aK" d="M727.4-99.9h19v19h-19z"/></defs></g></g><g><defs><path id="aL" d="M727.4-99.9h19v19h-19z"/></defs></g><g><defs><path id="aM" d="M756.4-101.4h-1.5v22h22v-22h-20.5zm0 3h19l-1.5-1.5v19l1.5-1.5h-19l1.5 1.5v-19l-1.5 1.5zm-21.5-23h62v62h-62v-62z"/></defs><clipPath id="aN"><use xlink:href="#aM" overflow="visible"/></clipPath><g clip-path="url(#aN)"><defs><path id="aO" d="M756.4-99.9h19v19h-19z"/></defs></g></g><g><defs><path id="aP" d="M756.4-99.9h19v19h-19z"/></defs></g><g><defs><path id="aQ" d="M727.4-73.4h-1.5v22h22v-22h-20.5zm0 3h19l-1.5-1.5v19l1.5-1.5h-19l1.5 1.5v-19l-1.5 1.5zm-21.5-23h62v62h-62v-62z"/></defs><clipPath id="aR"><use xlink:href="#aQ" overflow="visible"/></clipPath><g clip-path="url(#aR)"><defs><path id="aS" d="M727.4-71.9h19v19h-19z"/></defs></g></g><g><defs><path id="aT" d="M727.4-71.9h19v19h-19z"/></defs></g><g><defs><path id="aU" d="M756.4-73.4h-1.5v22h22v-22h-20.5zm0 3h19l-1.5-1.5v19l1.5-1.5h-19l1.5 1.5v-19l-1.5 1.5zm-21.5-23h62v62h-62v-62z"/></defs><clipPath id="aV"><use xlink:href="#aU" overflow="visible"/></clipPath><g clip-path="url(#aV)"><defs><path id="aW" d="M756.4-71.9h19v19h-19z"/></defs></g></g><g><defs><path id="aX" d="M756.4-71.9h19v19h-19z"/></defs></g><g><defs><path id="aY" d="M732.4-96.4h-1.5v12h12v-12h-10.5zm0 3h9l-1.5-1.5v9l1.5-1.5h-9l1.5 1.5v-9l-1.5 1.5zm-21.5-23h52v52h-52v-52z"/></defs><clipPath id="aZ"><use xlink:href="#aY" overflow="visible"/></clipPath><g clip-path="url(#aZ)"><defs><path id="ba" d="M732.4-94.9h9v9h-9z"/></defs></g></g><g><defs><path id="bb" d="M732.4-94.9h9v9h-9z"/></defs></g><g><defs><path id="bc" d="M761.4-96.4h-1.5v12h12v-12h-10.5zm0 3h9l-1.5-1.5v9l1.5-1.5h-9l1.5 1.5v-9l-1.5 1.5zm-21.5-23h52v52h-52v-52z"/></defs><clipPath id="bd"><use xlink:href="#bc" overflow="visible"/></clipPath><g clip-path="url(#bd)"><defs><path id="be" d="M761.4-94.9h9v9h-9z"/></defs></g></g><g><defs><path id="bf" d="M761.4-94.9h9v9h-9z"/></defs></g><g><defs><path id="bg" d="M732.4-68.4h-1.5v12h12v-12h-10.5zm0 3h9l-1.5-1.5v9l1.5-1.5h-9l1.5 1.5v-9l-1.5 1.5zm-21.5-23h52v52h-52v-52z"/></defs><clipPath id="bh"><use xlink:href="#bg" overflow="visible"/></clipPath><g clip-path="url(#bh)"><defs><path id="bi" d="M732.4-66.9h9v9h-9z"/></defs></g></g><g><defs><path id="bj" d="M732.4-66.9h9v9h-9z"/></defs></g><g><defs><path id="bk" d="M761.4-68.4h-1.5v12h12v-12h-10.5zm0 3h9l-1.5-1.5v9l1.5-1.5h-9l1.5 1.5v-9l-1.5 1.5zm-21.5-23h52v52h-52v-52z"/></defs><clipPath id="bl"><use xlink:href="#bk" overflow="visible"/></clipPath><g clip-path="url(#bl)"><defs><path id="bm" d="M761.4-66.9h9v9h-9z"/></defs></g></g><g><defs><path id="bn" d="M761.4-66.9h9v9h-9z"/></defs></g></svg>