<svg xmlns="http://www.w3.org/2000/svg" xmlns:xlink="http://www.w3.org/1999/xlink" viewBox="0 0 276 137"><circle fill="#FFF" cx="146.4" cy="60.6" r="42.9"/><path fill="#0F1F2D" d="M146.4 105c-24.5 0-44.4-19.9-44.4-44.4s19.9-44.4 44.4-44.4 44.4 19.9 44.4 44.4-19.9 44.4-44.4 44.4zm0-85.7c-22.8 0-41.4 18.6-41.4 41.4 0 22.8 18.6 41.4 41.4 41.4 22.8 0 41.4-18.6 41.4-41.4 0-22.9-18.6-41.4-41.4-41.4z"/><defs><circle id="a" cx="428.1" cy="70" r="43.5"/></defs><defs><path id="b" d="M428.1 115c-24.8 0-45-20.2-45-45s20.2-45 45-45 45 20.2 45 45-20.1 45-45 45zm0-87c-23.2 0-42 18.8-42 42s18.8 42 42 42 42-18.8 42-42-18.8-42-42-42z"/></defs><use xlink:href="#a" overflow="visible" fill-rule="evenodd" clip-rule="evenodd" fill="#FFF"/><use xlink:href="#b" overflow="visible" fill="#0F1F2D"/><clipPath id="c"><use xlink:href="#a" overflow="visible"/></clipPath><clipPath id="d" clip-path="url(#c)"><use xlink:href="#b" overflow="visible"/></clipPath><g clip-path="url(#d)"><defs><path id="e" d="M253.6-666h1121V364h-1121z"/></defs><defs><path id="f" d="M1376.1 365.5h-1124v-1033h1124v1033zm-1121-3h1118v-1027h-1118v1027z"/></defs><use xlink:href="#e" overflow="visible" fill="#FFF"/><use xlink:href="#f" overflow="visible" fill="#0F1F2D"/></g><path fill="#091F2F" d="M169.3 64.7c-2 2.2-1.8 5.8-1.8 5.8s3.3 0 5.3-2.3 1.8-5.8 1.8-5.8-3.3 0-5.3 2.3z"/><path fill="#091F2F" d="M165.1 65.1c0 3 2.5 5.4 2.5 5.4s2.4-2.6 2.3-5.6c0-3-2.5-5.4-2.5-5.4s-2.4 2.6-2.3 5.6zm-1.8 9.8c-3 1-4.7 4.5-4.7 4.5s3.1 1.8 6.1.8c3-1 4.7-4.5 4.7-4.5s-3.1-1.8-6.1-.8z"/><path fill="#091F2F" d="M159.1 72.9c-1.5 2.9-.5 6.6-.5 6.6s3.5-1.1 5-4.1.5-6.6.5-6.6-3.5 1.2-5 4.1zm-5 8.8c-3.3-.4-6.3 2.3-6.3 2.3s2.3 3.3 5.5 3.7 6.3-2.3 6.3-2.3-2.2-3.3-5.5-3.7z"/><path fill="#091F2F" d="M150.9 77.7c-2.6 2.2-3.1 6.4-3.1 6.4s3.8.6 6.5-1.6c2.6-2.2 3.1-6.4 3.1-6.4s-3.9-.6-6.5 1.6zm18.9-24.2c-.8 2.8.9 5.8.9 5.8s2.8-1.7 3.6-4.5c.8-2.8-.9-5.8-.9-5.8s-2.8 1.6-3.6 4.5z"/><path fill="#091F2F" d="M166.4 55.9c1.3 2.5 4.4 3.3 4.4 3.3s1-3.3-.3-5.8-4.4-3.3-4.4-3.3-1 3.3.3 5.8zm.7-10.9c.8 2.2 3.2 3.2 3.2 3.2s1.1-2.6.3-4.8c-.8-2.2-3.2-3.2-3.2-3.2s-1.1 2.6-.3 4.8z"/><path fill="#091F2F" d="M166 48.4c2 .9 4.4-.2 4.4-.2s-.9-2.6-2.9-3.5-4.4.2-4.4.2.9 2.6 2.9 3.5zm-5.7-9.5c1.4 1.9 4 2.2 4 2.2s.3-2.8-1.1-4.7c-1.4-1.9-4-2.2-4-2.2s-.3 2.8 1.1 4.7z"/><path fill="#091F2F" d="M160.3 42.4c2.2.3 4.1-1.4 4.1-1.4s-1.6-2.3-3.8-2.6c-2.2-.3-4.1 1.4-4.1 1.4s1.6 2.3 3.8 2.6zm-5.9-6.2c1.5.7 3.2 0 3.2 0s-.6-1.9-2.1-2.7c-1.5-.7-3.2 0-3.2 0s.6 2 2.1 2.7zm-30.9 29.3c2 2.2 1.8 5.8 1.8 5.8s-3.3 0-5.3-2.3c-2-2.2-1.8-5.8-1.8-5.8s3.4.1 5.3 2.3z"/><path fill="#091F2F" d="M127.8 66c0 3-2.5 5.4-2.5 5.4s-2.4-2.6-2.3-5.6 2.5-5.4 2.5-5.4 2.3 2.6 2.3 5.6zm1.7 9.1c3 1 4.7 4.5 4.7 4.5s-3.1 1.8-6.1.8-4.7-4.5-4.7-4.5 3.2-1.8 6.1-.8z"/><path fill="#091F2F" d="M133.7 73.2c1.5 2.9.5 6.6.5 6.6s-3.5-1.1-5-4.1c-1.5-2.9-.5-6.6-.5-6.6s3.5 1.1 5 4.1zm5 8.8c3.3-.4 6.3 2.3 6.3 2.3s-2.3 3.3-5.5 3.7-6.3-2.3-6.3-2.3 2.2-3.3 5.5-3.7z"/><path fill="#091F2F" d="M142 78c2.6 2.2 3.1 6.4 3.1 6.4s-3.8.6-6.5-1.6c-2.6-2.2-3.1-6.4-3.1-6.4s3.8-.7 6.5 1.6zm-19-23.7c.8 2.8-.9 5.8-.9 5.8s-2.8-1.7-3.6-4.5c-.8-2.8.9-5.8.9-5.8s2.8 1.7 3.6 4.5z"/><path fill="#091F2F" d="M126.5 56.8c-1.3 2.5-4.4 3.3-4.4 3.3s-1-3.3.3-5.8 4.4-3.3 4.4-3.3 1 3.3-.3 5.8zm-.7-10.9c-.8 2.2-3.2 3.2-3.2 3.2s-1.1-2.6-.3-4.8c.8-2.2 3.2-3.2 3.2-3.2s1.1 2.6.3 4.8z"/><path fill="#091F2F" d="M126.8 49.3c-2 .9-4.4-.2-4.4-.2s.9-2.6 2.9-3.5c2-.9 4.4.2 4.4.2s-.9 2.6-2.9 3.5zm5.8-9.5c-1.4 1.9-4 2.2-4 2.2s-.3-2.8 1.1-4.7c1.4-1.9 4-2.2 4-2.2s.3 2.8-1.1 4.7z"/><path fill="#091F2F" d="M132.6 43.3c-2.2.3-4.1-1.4-4.1-1.4s1.6-2.3 3.8-2.6c2.2-.3 4.1 1.4 4.1 1.4s-1.6 2.3-3.8 2.6zm5.8-6.2c-1.5.7-3.2 0-3.2 0s.6-1.9 2.1-2.7c1.5-.7 3.2 0 3.2 0s-.6 2-2.1 2.7zm-.9 8.6h9.4c2.6 0 4.9.1 6.3.6 3 1 4.2 3.3 4.2 5.7 0 1.3-.3 2.1-.4 2.3-1.1 2.5-3.4 3-4.8 3.2 1.5.2 3.4.6 4.8 2.1.9.9 1.3 2.3 1.3 3.7 0 1.9-1 4.5-4 5.9-1.8.8-3.8.9-6.6.9h-10.3V45.7zm5.8 4.5v5.1h4.6c1.4 0 3.6-.1 3.6-2.6 0-2.3-2-2.4-3.2-2.4h-5zm0 9.5v5.9h4.2c2 0 4.7-.1 4.7-2.9 0-2.9-2.4-3-3.7-3h-5.2z"/><path fill="#FFF" d="M93.6 76.5h50.9v5.9H93.6z"/><path fill="#091F2F" d="M146 83.9H92.1V75H146v8.9zm-50.9-3H143V78H95.1v2.9z"/><path fill="#FFF" d="M93.6 82.9h50.9V115H93.6z"/><path fill="#091F2F" d="M146 116.6H92.1V81.4H146v35.2zm-50.9-3H143V84.4H95.1v29.2z"/><path fill="#231F20" d="M100 88.1h5.1v5.1H100zm8.1 0h5.1v5.1h-5.1zm8 0h5.1v5.1h-5.1zm8.1 0h5.1v5.1h-5.1zm8.1 0h5.1v5.1h-5.1zM100 95.6h5.1v5.1H100zm8.1 0h5.1v5.1h-5.1zm8 0h5.1v5.1h-5.1zm8.1 0h5.1v5.1h-5.1zm8.1 0h5.1v5.1h-5.1zm-32.3 7.6h5.1v5.1H100zm8.1 0h5.1v5.1h-5.1zm8 0h5.1v5.1h-5.1zm8.1 0h5.1v5.1h-5.1zm8.1 0h5.1v5.1h-5.1z"/><defs><path id="g" d="M-212.6 193.6h-1.5v84h108v-84h-106.5zm0 3h105l-1.5-1.5v81l1.5-1.5h-105l1.5 1.5v-81l-1.5 1.5zm-21.5-23h148v124h-148v-124z"/></defs><clipPath id="h"><use xlink:href="#g" overflow="visible"/></clipPath><g clip-path="url(#h)"><defs><path id="i" d="M-212.6 195.1h105v81h-105z"/></defs></g><defs><path id="j" d="M-212.6 195.1h105v81h-105z"/></defs><defs><path id="k" d="M-218.6 210.6h-2.2l.9-2.1 9.1-22 .4-.9h100.9l.4.9 9.1 22 .9 2.1h-119.5zm0-3h117l-1.4 2.1-9.1-22 1.4.9h-98.9l1.4-.9-9.1 22-1.3-2.1zm-22.3 23h161.5v-65h-161.5v65z"/></defs><clipPath id="l"><use xlink:href="#k" overflow="visible"/></clipPath><g clip-path="url(#l)"><defs><path id="m" d="M-218.6 209.1h117l-9.1-22h-98.8z"/></defs></g><defs><path id="n" d="M-218.6 209.1h117l-9.1-22h-98.8z"/></defs><defs><path id="o" d="M-133.6 177.6h-1.5v19h15v-19h-13.5zm0 3h12l-1.5-1.5v16l1.5-1.5h-12l1.5 1.5v-16l-1.5 1.5zm-21.5-23h55v59h-55v-59z"/></defs><clipPath id="p"><use xlink:href="#o" overflow="visible"/></clipPath><g clip-path="url(#p)"><defs><path id="q" d="M-133.6 179.1h12v16h-12z"/></defs></g><defs><path id="r" d="M-133.6 179.1h12v16h-12z"/></defs><defs><path id="s" d="M-199.6 243.6h-1.5v34h24v-34h-22.5zm0 3h21l-1.5-1.5v31l1.5-1.5h-21l1.5 1.5v-31l-1.5 1.5zm-21.5-23h64v74h-64v-74z"/></defs><clipPath id="t"><use xlink:href="#s" overflow="visible"/></clipPath><g clip-path="url(#t)"><defs><path id="u" d="M-199.6 245.1h21v31h-21z"/></defs></g><defs><path id="v" d="M-199.6 245.1h21v31h-21z"/></defs><defs><path id="w" d="M-198.6 215.6h-1.5v22h22v-22h-20.5zm0 3h19l-1.5-1.5v19l1.5-1.5h-19l1.5 1.5v-19l-1.5 1.5zm-21.5-23h62v62h-62v-62z"/></defs><clipPath id="x"><use xlink:href="#w" overflow="visible"/></clipPath><g clip-path="url(#x)"><defs><path id="y" d="M-198.6 217.1h19v19h-19z"/></defs></g><defs><path id="z" d="M-198.6 217.1h19v19h-19z"/></defs><defs><path id="A" d="M-193.6 220.6h-1.5v12h12v-12h-10.5zm0 3h9l-1.5-1.5v9l1.5-1.5h-9l1.5 1.5v-9l-1.5 1.5zm-21.5-23h52v52h-52v-52z"/></defs><clipPath id="B"><use xlink:href="#A" overflow="visible"/></clipPath><g clip-path="url(#B)"><defs><path id="C" d="M-193.6 222.1h9v9h-9z"/></defs></g><defs><path id="D" d="M-193.6 222.1h9v9h-9z"/></defs><defs><path id="E" d="M-168.6 215.6h-1.5v22h22v-22h-20.5zm0 3h19l-1.5-1.5v19l1.5-1.5h-19l1.5 1.5v-19l-1.5 1.5zm-21.5-23h62v62h-62v-62z"/></defs><clipPath id="F"><use xlink:href="#E" overflow="visible"/></clipPath><g clip-path="url(#F)"><defs><path id="G" d="M-168.6 217.1h19v19h-19z"/></defs></g><defs><path id="H" d="M-168.6 217.1h19v19h-19z"/></defs><defs><path id="I" d="M-139.6 215.6h-1.5v22h22v-22h-20.5zm0 3h19l-1.5-1.5v19l1.5-1.5h-19l1.5 1.5v-19l-1.5 1.5zm-21.5-23h62v62h-62v-62z"/></defs><clipPath id="J"><use xlink:href="#I" overflow="visible"/></clipPath><g clip-path="url(#J)"><defs><path id="K" d="M-139.6 217.1h19v19h-19z"/></defs></g><defs><path id="L" d="M-139.6 217.1h19v19h-19z"/></defs><defs><path id="M" d="M-168.6 243.6h-1.5v22h22v-22h-20.5zm0 3h19l-1.5-1.5v19l1.5-1.5h-19l1.5 1.5v-19l-1.5 1.5zm-21.5-23h62v62h-62v-62z"/></defs><clipPath id="N"><use xlink:href="#M" overflow="visible"/></clipPath><g clip-path="url(#N)"><defs><path id="O" d="M-168.6 245.1h19v19h-19z"/></defs></g><defs><path id="P" d="M-168.6 245.1h19v19h-19z"/></defs><defs><path id="Q" d="M-139.6 243.6h-1.5v22h22v-22h-20.5zm0 3h19l-1.5-1.5v19l1.5-1.5h-19l1.5 1.5v-19l-1.5 1.5zm-21.5-23h62v62h-62v-62z"/></defs><clipPath id="R"><use xlink:href="#Q" overflow="visible"/></clipPath><g clip-path="url(#R)"><defs><path id="S" d="M-139.6 245.1h19v19h-19z"/></defs></g><defs><path id="T" d="M-139.6 245.1h19v19h-19z"/></defs><defs><path id="U" d="M-163.6 220.6h-1.5v12h12v-12h-10.5zm0 3h9l-1.5-1.5v9l1.5-1.5h-9l1.5 1.5v-9l-1.5 1.5zm-21.5-23h52v52h-52v-52z"/></defs><clipPath id="V"><use xlink:href="#U" overflow="visible"/></clipPath><g clip-path="url(#V)"><defs><path id="W" d="M-163.6 222.1h9v9h-9z"/></defs></g><defs><path id="X" d="M-163.6 222.1h9v9h-9z"/></defs><defs><path id="Y" d="M-134.6 220.6h-1.5v12h12v-12h-10.5zm0 3h9l-1.5-1.5v9l1.5-1.5h-9l1.5 1.5v-9l-1.5 1.5zm-21.5-23h52v52h-52v-52z"/></defs><clipPath id="Z"><use xlink:href="#Y" overflow="visible"/></clipPath><g clip-path="url(#Z)"><defs><path id="aa" d="M-134.6 222.1h9v9h-9z"/></defs></g><defs><path id="ab" d="M-134.6 222.1h9v9h-9z"/></defs><defs><path id="ac" d="M-163.6 248.6h-1.5v12h12v-12h-10.5zm0 3h9l-1.5-1.5v9l1.5-1.5h-9l1.5 1.5v-9l-1.5 1.5zm-21.5-23h52v52h-52v-52z"/></defs><clipPath id="ad"><use xlink:href="#ac" overflow="visible"/></clipPath><g clip-path="url(#ad)"><defs><path id="ae" d="M-163.6 250.1h9v9h-9z"/></defs></g><defs><path id="af" d="M-163.6 250.1h9v9h-9z"/></defs><defs><path id="ag" d="M-134.6 248.6h-1.5v12h12v-12h-10.5zm0 3h9l-1.5-1.5v9l1.5-1.5h-9l1.5 1.5v-9l-1.5 1.5zm-21.5-23h52v52h-52v-52z"/></defs><clipPath id="ah"><use xlink:href="#ag" overflow="visible"/></clipPath><g clip-path="url(#ah)"><defs><path id="ai" d="M-134.6 250.1h9v9h-9z"/></defs></g><defs><path id="aj" d="M-134.6 250.1h9v9h-9z"/></defs><defs><path id="ak" d="M387.4-123.4h-1.5v84h108v-84H387.4zm0 3h105l-1.5-1.5v81l1.5-1.5h-105l1.5 1.5v-81l-1.5 1.5zm-21.5-23h148v124h-148v-124z"/></defs><clipPath id="al"><use xlink:href="#ak" overflow="visible"/></clipPath><g clip-path="url(#al)"><defs><path id="am" d="M387.4-121.9h105v81h-105z"/></defs></g><defs><path id="an" d="M387.4-121.9h105v81h-105z"/></defs><defs><path id="ao" d="M381.4-106.4h-2.2l.9-2.1 9.1-22 .4-.9h100.9l.4.9 9.1 22 .9 2.1H381.4zm0-3h117l-1.4 2.1-9.1-22 1.4.9h-98.9l1.4-.9-9.1 22-1.3-2.1zm-22.3 23h161.5v-65H359.1v65z"/></defs><clipPath id="ap"><use xlink:href="#ao" overflow="visible"/></clipPath><g clip-path="url(#ap)"><defs><path id="aq" d="M381.4-107.9h117l-9.1-22h-98.8z"/></defs></g><defs><path id="ar" d="M381.4-107.9h117l-9.1-22h-98.8z"/></defs><defs><path id="as" d="M466.4-139.4h-1.5v19h15v-19h-13.5zm0 3h12l-1.5-1.5v16l1.5-1.5h-12l1.5 1.5v-16l-1.5 1.5zm-21.5-23h55v59h-55v-59z"/></defs><clipPath id="at"><use xlink:href="#as" overflow="visible"/></clipPath><g clip-path="url(#at)"><defs><path id="au" d="M466.4-137.9h12v16h-12z"/></defs></g><defs><path id="av" d="M466.4-137.9h12v16h-12z"/></defs><defs><path id="aw" d="M400.4-73.4h-1.5v34h24v-34h-22.5zm0 3h21l-1.5-1.5v31l1.5-1.5h-21l1.5 1.5v-31l-1.5 1.5zm-21.5-23h64v74h-64v-74z"/></defs><clipPath id="ax"><use xlink:href="#aw" overflow="visible"/></clipPath><g clip-path="url(#ax)"><defs><path id="ay" d="M400.4-71.9h21v31h-21z"/></defs></g><defs><path id="az" d="M400.4-71.9h21v31h-21z"/></defs><defs><path id="aA" d="M401.4-101.4h-1.5v22h22v-22h-20.5zm0 3h19l-1.5-1.5v19l1.5-1.5h-19l1.5 1.5v-19l-1.5 1.5zm-21.5-23h62v62h-62v-62z"/></defs><clipPath id="aB"><use xlink:href="#aA" overflow="visible"/></clipPath><g clip-path="url(#aB)"><defs><path id="aC" d="M401.4-99.9h19v19h-19z"/></defs></g><defs><path id="aD" d="M401.4-99.9h19v19h-19z"/></defs><g><defs><path id="aE" d="M406.4-96.4h-1.5v12h12v-12h-10.5zm0 3h9l-1.5-1.5v9l1.5-1.5h-9l1.5 1.5v-9l-1.5 1.5zm-21.5-23h52v52h-52v-52z"/></defs><clipPath id="aF"><use xlink:href="#aE" overflow="visible"/></clipPath><g clip-path="url(#aF)"><defs><path id="aG" d="M406.4-94.9h9v9h-9z"/></defs></g></g><g><defs><path id="aH" d="M406.4-94.9h9v9h-9z"/></defs></g><g><defs><path id="aI" d="M431.4-101.4h-1.5v22h22v-22h-20.5zm0 3h19l-1.5-1.5v19l1.5-1.5h-19l1.5 1.5v-19l-1.5 1.5zm-21.5-23h62v62h-62v-62z"/></defs><clipPath id="aJ"><use xlink:href="#aI" overflow="visible"/></clipPath><g clip-path="url(#aJ)"><defs><path id="aK" d="M431.4-99.9h19v19h-19z"/></defs></g></g><g><defs><path id="aL" d="M431.4-99.9h19v19h-19z"/></defs></g><g><defs><path id="aM" d="M460.4-101.4h-1.5v22h22v-22h-20.5zm0 3h19l-1.5-1.5v19l1.5-1.5h-19l1.5 1.5v-19l-1.5 1.5zm-21.5-23h62v62h-62v-62z"/></defs><clipPath id="aN"><use xlink:href="#aM" overflow="visible"/></clipPath><g clip-path="url(#aN)"><defs><path id="aO" d="M460.4-99.9h19v19h-19z"/></defs></g></g><g><defs><path id="aP" d="M460.4-99.9h19v19h-19z"/></defs></g><g><defs><path id="aQ" d="M431.4-73.4h-1.5v22h22v-22h-20.5zm0 3h19l-1.5-1.5v19l1.5-1.5h-19l1.5 1.5v-19l-1.5 1.5zm-21.5-23h62v62h-62v-62z"/></defs><clipPath id="aR"><use xlink:href="#aQ" overflow="visible"/></clipPath><g clip-path="url(#aR)"><defs><path id="aS" d="M431.4-71.9h19v19h-19z"/></defs></g></g><g><defs><path id="aT" d="M431.4-71.9h19v19h-19z"/></defs></g><g><defs><path id="aU" d="M460.4-73.4h-1.5v22h22v-22h-20.5zm0 3h19l-1.5-1.5v19l1.5-1.5h-19l1.5 1.5v-19l-1.5 1.5zm-21.5-23h62v62h-62v-62z"/></defs><clipPath id="aV"><use xlink:href="#aU" overflow="visible"/></clipPath><g clip-path="url(#aV)"><defs><path id="aW" d="M460.4-71.9h19v19h-19z"/></defs></g></g><g><defs><path id="aX" d="M460.4-71.9h19v19h-19z"/></defs></g><g><defs><path id="aY" d="M436.4-96.4h-1.5v12h12v-12h-10.5zm0 3h9l-1.5-1.5v9l1.5-1.5h-9l1.5 1.5v-9l-1.5 1.5zm-21.5-23h52v52h-52v-52z"/></defs><clipPath id="aZ"><use xlink:href="#aY" overflow="visible"/></clipPath><g clip-path="url(#aZ)"><defs><path id="ba" d="M436.4-94.9h9v9h-9z"/></defs></g></g><g><defs><path id="bb" d="M436.4-94.9h9v9h-9z"/></defs></g><g><defs><path id="bc" d="M465.4-96.4h-1.5v12h12v-12h-10.5zm0 3h9l-1.5-1.5v9l1.5-1.5h-9l1.5 1.5v-9l-1.5 1.5zm-21.5-23h52v52h-52v-52z"/></defs><clipPath id="bd"><use xlink:href="#bc" overflow="visible"/></clipPath><g clip-path="url(#bd)"><defs><path id="be" d="M465.4-94.9h9v9h-9z"/></defs></g></g><g><defs><path id="bf" d="M465.4-94.9h9v9h-9z"/></defs></g><g><defs><path id="bg" d="M436.4-68.4h-1.5v12h12v-12h-10.5zm0 3h9l-1.5-1.5v9l1.5-1.5h-9l1.5 1.5v-9l-1.5 1.5zm-21.5-23h52v52h-52v-52z"/></defs><clipPath id="bh"><use xlink:href="#bg" overflow="visible"/></clipPath><g clip-path="url(#bh)"><defs><path id="bi" d="M436.4-66.9h9v9h-9z"/></defs></g></g><g><defs><path id="bj" d="M436.4-66.9h9v9h-9z"/></defs></g><g><defs><path id="bk" d="M465.4-68.4h-1.5v12h12v-12h-10.5zm0 3h9l-1.5-1.5v9l1.5-1.5h-9l1.5 1.5v-9l-1.5 1.5zm-21.5-23h52v52h-52v-52z"/></defs><clipPath id="bl"><use xlink:href="#bk" overflow="visible"/></clipPath><g clip-path="url(#bl)"><defs><path id="bm" d="M465.4-66.9h9v9h-9z"/></defs></g></g><g><defs><path id="bn" d="M465.4-66.9h9v9h-9z"/></defs></g></svg>