<svg xmlns="http://www.w3.org/2000/svg" xmlns:xlink="http://www.w3.org/1999/xlink" viewBox="0 0 276 137"><defs><path id="a" d="M85.5-450.3H84v84h108v-84H85.5zm0 3h105l-1.5-1.5v81l1.5-1.5h-105l1.5 1.5v-81l-1.5 1.5zm-21.5-23h148v124H64v-124z"/></defs><defs><path id="b" d="M79.5-433.3h-2.2l.9-2.1 9.1-22 .4-.9h100.9l.4.9 9.1 22 .9 2.1H79.5zm0-3h117l-1.4 2.1-9.1-22 1.4.9H88.6l1.4-.9-9.1 22-1.4-2.1zm-22.2 23h161.5v-65H57.3v65z"/></defs><defs><path id="c" d="M164.5-466.3H163v19h15v-19h-13.5zm0 3h12l-1.5-1.5v16l1.5-1.5h-12l1.5 1.5v-16l-1.5 1.5zm-21.5-23h55v59h-55v-59z"/></defs><defs><path id="d" d="M98.5-400.3H97v34h24v-34H98.5zm0 3h21l-1.5-1.5v31l1.5-1.5h-21l1.5 1.5v-31l-1.5 1.5zm-21.5-23h64v74H77v-74z"/></defs><defs><path id="e" d="M99.5-428.3H98v22h22v-22H99.5zm0 3h19l-1.5-1.5v19l1.5-1.5h-19l1.5 1.5v-19l-1.5 1.5zm-21.5-23h62v62H78v-62z"/></defs><defs><path id="f" d="M104.5-423.3H103v12h12v-12h-10.5zm0 3h9l-1.5-1.5v9l1.5-1.5h-9l1.5 1.5v-9l-1.5 1.5zm-21.5-23h52v52H83v-52z"/></defs><defs><path id="g" d="M129.5-428.3H128v22h22v-22h-20.5zm0 3h19l-1.5-1.5v19l1.5-1.5h-19l1.5 1.5v-19l-1.5 1.5zm-21.5-23h62v62h-62v-62z"/></defs><defs><path id="h" d="M158.5-428.3H157v22h22v-22h-20.5zm0 3h19l-1.5-1.5v19l1.5-1.5h-19l1.5 1.5v-19l-1.5 1.5zm-21.5-23h62v62h-62v-62z"/></defs><defs><path id="i" d="M129.5-400.3H128v22h22v-22h-20.5zm0 3h19l-1.5-1.5v19l1.5-1.5h-19l1.5 1.5v-19l-1.5 1.5zm-21.5-23h62v62h-62v-62z"/></defs><defs><path id="j" d="M158.5-400.3H157v22h22v-22h-20.5zm0 3h19l-1.5-1.5v19l1.5-1.5h-19l1.5 1.5v-19l-1.5 1.5zm-21.5-23h62v62h-62v-62z"/></defs><defs><path id="k" d="M134.5-423.3H133v12h12v-12h-10.5zm0 3h9l-1.5-1.5v9l1.5-1.5h-9l1.5 1.5v-9l-1.5 1.5zm-21.5-23h52v52h-52v-52z"/></defs><defs><path id="l" d="M163.5-423.3H162v12h12v-12h-10.5zm0 3h9l-1.5-1.5v9l1.5-1.5h-9l1.5 1.5v-9l-1.5 1.5zm-21.5-23h52v52h-52v-52z"/></defs><defs><path id="m" d="M134.5-395.3H133v12h12v-12h-10.5zm0 3h9l-1.5-1.5v9l1.5-1.5h-9l1.5 1.5v-9l-1.5 1.5zm-21.5-23h52v52h-52v-52z"/></defs><defs><path id="n" d="M163.5-395.3H162v12h12v-12h-10.5zm0 3h9l-1.5-1.5v9l1.5-1.5h-9l1.5 1.5v-9l-1.5 1.5zm-21.5-23h52v52h-52v-52z"/></defs><defs><circle id="o" cx="132.1" cy="560.5" r="43.5"/></defs><defs><path id="p" d="M132.1 605.5c-24.8 0-45-20.2-45-45s20.2-45 45-45 45 20.2 45 45-20.1 45-45 45zm0-87c-23.2 0-42 18.8-42 42s18.8 42 42 42 42-18.8 42-42-18.8-42-42-42z"/></defs><use xlink:href="#o" overflow="visible" fill-rule="evenodd" clip-rule="evenodd" fill="#FFF"/><use xlink:href="#p" overflow="visible" fill="#0F1F2D"/><clipPath id="q"><use xlink:href="#o" overflow="visible"/></clipPath><clipPath id="r" clip-path="url(#q)"><use xlink:href="#p" overflow="visible"/></clipPath><g clip-path="url(#r)"><defs><path id="s" d="M-42.4-175.5h1121v1030h-1121z"/></defs><defs><path id="t" d="M1080.1 856h-1124V-177h1124V856zm-1121-3h1118V-174h-1118V853z"/></defs><use xlink:href="#s" overflow="visible" fill="#FFF"/><use xlink:href="#t" overflow="visible" fill="#0F1F2D"/></g><path fill="#091F2F" d="M87.5 114.3c-7.2-.2-13-6.1-13-13.3v-1.5H86v-76h111.2l-.2 77.9c0 7.1-5.9 12.9-13.2 12.9H87.5zm-9.9-11.7c.7 4.9 4.9 8.7 9.9 8.8h87.6c-2.5-2.1-4.2-5.1-4.6-8.7l-92.9-.1zm11.4-3h84.5v1.5c0 5.9 4.3 10.2 10.2 10.2 5.6 0 10.2-4.4 10.2-9.9l.2-74.9H89v73.1z"/><path fill="#091F2F" d="M136 37.4h47v3h-47zm0 12h47v3h-47zm0 12h47v3h-47zm0 12h47v3h-47zm0 12h47v3h-47z"/><g fill="#091F2F"><path d="M124.4 54c-1 1.2-.9 3-.9 3s1.7 0 2.7-1.2c1-1.2.9-3 .9-3s-1.7.1-2.7 1.2z"/><path d="M122.2 54.3c0 1.6 1.3 2.8 1.3 2.8s1.2-1.3 1.2-2.9c0-1.6-1.3-2.8-1.3-2.8s-1.2 1.3-1.2 2.9zm-.9 5.1c-1.5.5-2.4 2.4-2.4 2.4s1.6.9 3.2.4c1.5-.5 2.4-2.4 2.4-2.4s-1.7-1-3.2-.4z"/><path d="M119.1 58.4c-.8 1.5-.2 3.4-.2 3.4s1.8-.6 2.6-2.1.2-3.4.2-3.4-1.8.5-2.6 2.1zm-2.6 4.5c-1.7-.2-3.3 1.2-3.3 1.2s1.2 1.7 2.9 1.9 3.3-1.2 3.3-1.2-1.2-1.7-2.9-1.9z"/><path d="M114.8 60.8c-1.4 1.2-1.6 3.3-1.6 3.3s2 .3 3.4-.9 1.6-3.3 1.6-3.3-2-.2-3.4.9zm9.9-12.6c-.4 1.5.4 3 .4 3s1.5-.9 1.9-2.3c.4-1.5-.4-3-.4-3s-1.5.8-1.9 2.3z"/><path d="M122.9 49.5c.7 1.3 2.3 1.7 2.3 1.7s.5-1.7-.2-3-2.3-1.7-2.3-1.7-.5 1.7.2 3zm.3-5.7c.4 1.1 1.7 1.7 1.7 1.7s.6-1.3.2-2.5c-.4-1.1-1.7-1.7-1.7-1.7s-.6 1.4-.2 2.5z"/><path d="M122.7 45.6c1.1.5 2.3-.1 2.3-.1s-.5-1.4-1.5-1.8c-1.1-.5-2.3.1-2.3.1s.4 1.3 1.5 1.8zm-3-5c.7 1 2.1 1.1 2.1 1.1s.2-1.4-.6-2.4c-.7-1-2.1-1.1-2.1-1.1s-.1 1.4.6 2.4z"/><path d="M119.7 42.5c1.1.2 2.2-.8 2.2-.8s-.8-1.2-2-1.3-2.2.8-2.2.8.8 1.1 2 1.3zm-3.1-3.2c.8.4 1.7 0 1.7 0s-.3-1-1.1-1.4-1.7 0-1.7 0 .4 1 1.1 1.4zm-16 15.2c1 1.2.9 3 .9 3s-1.7 0-2.7-1.2c-1-1.2-.9-3-.9-3s1.7 0 2.7 1.2z"/><path d="M102.8 54.7c0 1.6-1.3 2.8-1.3 2.8s-1.2-1.3-1.2-2.9c0-1.6 1.3-2.8 1.3-2.8s1.2 1.4 1.2 2.9zm.9 4.8c1.5.5 2.4 2.4 2.4 2.4s-1.6.9-3.2.4-2.4-2.4-2.4-2.4 1.6-1 3.2-.4z"/><path d="M105.9 58.5c.8 1.5.2 3.4.2 3.4s-1.8-.6-2.6-2.1-.2-3.4-.2-3.4 1.8.5 2.6 2.1zm2.6 4.5c1.7-.2 3.3 1.2 3.3 1.2s-1.2 1.7-2.9 1.9c-1.7.2-3.3-1.2-3.3-1.2s1.2-1.6 2.9-1.9z"/><path d="M110.2 61c1.4 1.2 1.6 3.3 1.6 3.3s-2 .3-3.4-.9-1.6-3.3-1.6-3.3 2-.3 3.4.9zm-9.9-12.3c.4 1.5-.4 3-.4 3s-1.5-.9-1.9-2.3.4-3 .4-3 1.5.8 1.9 2.3z"/><path d="M102.1 50c-.7 1.3-2.3 1.7-2.3 1.7s-.5-1.7.2-3 2.3-1.7 2.3-1.7.5 1.6-.2 3zm-.4-5.7c-.4 1.1-1.7 1.7-1.7 1.7s-.6-1.3-.2-2.5c.4-1.1 1.7-1.7 1.7-1.7s.7 1.3.2 2.5z"/><path d="M102.3 46c-1.1.5-2.3-.1-2.3-.1s.5-1.4 1.5-1.8c1.1-.5 2.3.1 2.3.1s-.5 1.4-1.5 1.8zm3-4.9c-.7 1-2.1 1.1-2.1 1.1s-.2-1.4.6-2.4c.7-1 2.1-1.1 2.1-1.1s.1 1.4-.6 2.4z"/><path d="M105.3 42.9c-1.1.2-2.2-.8-2.2-.8s.8-1.2 2-1.3c1.1-.2 2.2.8 2.2.8s-.9 1.1-2 1.3zm3-3.2c-.8.4-1.7 0-1.7 0s.3-1 1.1-1.4c.8-.4 1.7 0 1.7 0s-.3 1-1.1 1.4zm-.5 4.4h4.9c1.3 0 2.5.1 3.3.3 1.6.5 2.2 1.7 2.2 2.9 0 .7-.2 1.1-.2 1.2-.6 1.3-1.8 1.5-2.5 1.7.8.1 1.8.3 2.5 1.1.4.5.7 1.2.7 1.9 0 1-.5 2.4-2.1 3.1-1 .4-2 .5-3.4.5h-5.3V44.1zm3 2.4v2.6h2.4c.7 0 1.9-.1 1.9-1.4 0-1.2-1.1-1.3-1.7-1.3h-2.6zm0 5v3.1h2.2c1.1 0 2.4-.1 2.4-1.5 0-1.5-1.3-1.5-1.9-1.6h-2.7z"/></g><defs><path id="u" d="M367.2 397.4h-1.5v38h142v-25.1l-.4-.4-11.4-12-.4-.5H367.2zm0 3h127.6l-1.1-.5 11.4 12-.4-1v23l1.5-1.5h-139l1.5 1.5v-35l-1.5 1.5zm-21.5-23h182v78h-182v-78z"/></defs><defs><path id="v" d="M400.2 448.9c-8 0-14.5-6.5-14.5-14.5s6.5-14.5 14.5-14.5 14.5 6.5 14.5 14.5-6.4 14.5-14.5 14.5zm0 3c9.7 0 17.5-7.8 17.5-17.5s-7.8-17.5-17.5-17.5-17.5 7.8-17.5 17.5c0 9.6 7.9 17.5 17.5 17.5zm-37.5-55h75v75h-75v-75z"/></defs><defs><path id="w" d="M400.2 441.9c-4.1 0-7.5-3.4-7.5-7.5s3.4-7.5 7.5-7.5 7.5 3.4 7.5 7.5-3.3 7.5-7.5 7.5zm0 3c5.8 0 10.5-4.7 10.5-10.5s-4.7-10.5-10.5-10.5-10.5 4.7-10.5 10.5 4.7 10.5 10.5 10.5zm-30.5-41h61v61h-61v-61z"/></defs><defs><path id="x" d="M466.5 448.9c-8 0-14.5-6.5-14.5-14.5s6.5-14.5 14.5-14.5 14.5 6.5 14.5 14.5-6.5 14.5-14.5 14.5zm0 3c9.7 0 17.5-7.8 17.5-17.5s-7.8-17.5-17.5-17.5-17.5 7.8-17.5 17.5c0 9.6 7.8 17.5 17.5 17.5zm-37.5-55h75v75h-75v-75z"/></defs><defs><path id="y" d="M466.5 441.9c-4.1 0-7.5-3.4-7.5-7.5s3.4-7.5 7.5-7.5 7.5 3.4 7.5 7.5-3.4 7.5-7.5 7.5zm0 3c5.8 0 10.5-4.7 10.5-10.5s-4.7-10.5-10.5-10.5-10.5 4.7-10.5 10.5 4.7 10.5 10.5 10.5zm-30.5-41h61v61h-61v-61z"/></defs><defs><path id="z" d="M91.4 367.1h-1.5v84h108v-84H91.4zm0 3h105l-1.5-1.5v81l1.5-1.5h-105l1.5 1.5v-81l-1.5 1.5zm-21.5-23h148v124h-148v-124z"/></defs><defs><path id="A" d="M85.4 384.1h-2.2l.8-2.1 9.1-22 .4-.9h100.9l.4.9 9.1 22 .9 2.1H85.4zm0-3h117l-1.4 2.1-9.1-22 1.4.9H94.5l1.4-.9-9.1 22-1.4-2.1zm-22.3 23h161.5v-65H63.1v65z"/></defs><defs><path id="B" d="M170.4 351.1h-1.5v19h15v-19h-13.5zm0 3h12l-1.5-1.5v16l1.5-1.5h-12l1.5 1.5v-16l-1.5 1.5zm-21.5-23h55v59h-55v-59z"/></defs><defs><path id="C" d="M104.4 417.1h-1.5v34h24v-34h-22.5zm0 3h21l-1.5-1.5v31l1.5-1.5h-21l1.5 1.5v-31l-1.5 1.5zm-21.5-23h64v74h-64v-74z"/></defs><defs><path id="D" d="M105.4 389.1h-1.5v22h22v-22h-20.5zm0 3h19l-1.5-1.5v19l1.5-1.5h-19l1.5 1.5v-19l-1.5 1.5zm-21.5-23h62v62h-62v-62z"/></defs><defs><path id="E" d="M110.4 394.1h-1.5v12h12v-12h-10.5zm0 3h9l-1.5-1.5v9l1.5-1.5h-9l1.5 1.5v-9l-1.5 1.5zm-21.5-23h52v52h-52v-52z"/></defs><defs><path id="F" d="M135.4 389.1h-1.5v22h22v-22h-20.5zm0 3h19l-1.5-1.5v19l1.5-1.5h-19l1.5 1.5v-19l-1.5 1.5zm-21.5-23h62v62h-62v-62z"/></defs><defs><path id="G" d="M164.4 389.1h-1.5v22h22v-22h-20.5zm0 3h19l-1.5-1.5v19l1.5-1.5h-19l1.5 1.5v-19l-1.5 1.5zm-21.5-23h62v62h-62v-62z"/></defs><defs><path id="H" d="M135.4 417.1h-1.5v22h22v-22h-20.5zm0 3h19l-1.5-1.5v19l1.5-1.5h-19l1.5 1.5v-19l-1.5 1.5zm-21.5-23h62v62h-62v-62z"/></defs><defs><path id="I" d="M164.4 417.1h-1.5v22h22v-22h-20.5zm0 3h19l-1.5-1.5v19l1.5-1.5h-19l1.5 1.5v-19l-1.5 1.5zm-21.5-23h62v62h-62v-62z"/></defs><defs><path id="J" d="M140.4 394.1h-1.5v12h12v-12h-10.5zm0 3h9l-1.5-1.5v9l1.5-1.5h-9l1.5 1.5v-9l-1.5 1.5zm-21.5-23h52v52h-52v-52z"/></defs><defs><path id="K" d="M169.4 394.1h-1.5v12h12v-12h-10.5zm0 3h9l-1.5-1.5v9l1.5-1.5h-9l1.5 1.5v-9l-1.5 1.5zm-21.5-23h52v52h-52v-52z"/></defs><defs><path id="L" d="M140.4 422.1h-1.5v12h12v-12h-10.5zm0 3h9l-1.5-1.5v9l1.5-1.5h-9l1.5 1.5v-9l-1.5 1.5zm-21.5-23h52v52h-52v-52z"/></defs><defs><path id="M" d="M169.4 422.1h-1.5v12h12v-12h-10.5zm0 3h9l-1.5-1.5v9l1.5-1.5h-9l1.5 1.5v-9l-1.5 1.5zm-21.5-23h52v52h-52v-52z"/></defs></svg>