<svg xmlns="http://www.w3.org/2000/svg" xmlns:xlink="http://www.w3.org/1999/xlink" viewBox="0 0 276 137"><circle fill="#FFF" cx="146.4" cy="60.6" r="42.9"/><path fill="#0F1F2D" d="M146.4 105c-24.5 0-44.4-19.9-44.4-44.4s19.9-44.4 44.4-44.4 44.4 19.9 44.4 44.4-19.9 44.4-44.4 44.4zm0-85.7c-22.8 0-41.4 18.6-41.4 41.4 0 22.8 18.6 41.4 41.4 41.4 22.8 0 41.4-18.6 41.4-41.4 0-22.9-18.6-41.4-41.4-41.4z"/><defs><circle id="a" cx="428.1" cy="70" r="43.5"/></defs><defs><path id="b" d="M428.1 115c-24.8 0-45-20.2-45-45s20.2-45 45-45 45 20.2 45 45-20.1 45-45 45zm0-87c-23.2 0-42 18.8-42 42s18.8 42 42 42 42-18.8 42-42-18.8-42-42-42z"/></defs><use xlink:href="#a" overflow="visible" fill-rule="evenodd" clip-rule="evenodd" fill="#FFF"/><use xlink:href="#b" overflow="visible" fill="#0F1F2D"/><clipPath id="c"><use xlink:href="#a" overflow="visible"/></clipPath><clipPath id="d" clip-path="url(#c)"><use xlink:href="#b" overflow="visible"/></clipPath><g clip-path="url(#d)"><defs><path id="e" d="M253.6-666h1121V364h-1121z"/></defs><defs><path id="f" d="M1376.1 365.5h-1124v-1033h1124v1033zm-1121-3h1118v-1027h-1118v1027z"/></defs><use xlink:href="#e" overflow="visible" fill="#FFF"/><use xlink:href="#f" overflow="visible" fill="#0F1F2D"/><clipPath id="g"><use xlink:href="#e" overflow="visible"/></clipPath></g><path fill="#091F2F" d="M169.3 64.7c-2 2.2-1.8 5.8-1.8 5.8s3.3 0 5.3-2.3 1.8-5.8 1.8-5.8-3.3 0-5.3 2.3z"/><path fill="#091F2F" d="M165.1 65.1c0 3 2.5 5.4 2.5 5.4s2.4-2.6 2.3-5.6c0-3-2.5-5.4-2.5-5.4s-2.4 2.6-2.3 5.6zM163.3 74.9c-3 1-4.7 4.5-4.7 4.5s3.1 1.8 6.1.8c3-1 4.7-4.5 4.7-4.5s-3.1-1.8-6.1-.8z"/><path fill="#091F2F" d="M159.1 72.9c-1.5 2.9-.5 6.6-.5 6.6s3.5-1.1 5-4.1.5-6.6.5-6.6-3.5 1.2-5 4.1zM154.1 81.7c-3.3-.4-6.3 2.3-6.3 2.3s2.3 3.3 5.5 3.7 6.3-2.3 6.3-2.3-2.2-3.3-5.5-3.7z"/><path fill="#091F2F" d="M150.9 77.7c-2.6 2.2-3.1 6.4-3.1 6.4s3.8.6 6.5-1.6c2.6-2.2 3.1-6.4 3.1-6.4s-3.9-.6-6.5 1.6zM169.8 53.5c-.8 2.8.9 5.8.9 5.8s2.8-1.7 3.6-4.5c.8-2.8-.9-5.8-.9-5.8s-2.8 1.6-3.6 4.5z"/><path fill="#091F2F" d="M166.4 55.9c1.3 2.5 4.4 3.3 4.4 3.3s1-3.3-.3-5.8-4.4-3.3-4.4-3.3-1 3.3.3 5.8zM167.1 45c.8 2.2 3.2 3.2 3.2 3.2s1.1-2.6.3-4.8c-.8-2.2-3.2-3.2-3.2-3.2s-1.1 2.6-.3 4.8z"/><path fill="#091F2F" d="M166 48.4c2 .9 4.4-.2 4.4-.2s-.9-2.6-2.9-3.5-4.4.2-4.4.2.9 2.6 2.9 3.5zM160.3 38.9c1.4 1.9 4 2.2 4 2.2s.3-2.8-1.1-4.7c-1.4-1.9-4-2.2-4-2.2s-.3 2.8 1.1 4.7z"/><path fill="#091F2F" d="M160.3 42.4c2.2.3 4.1-1.4 4.1-1.4s-1.6-2.3-3.8-2.6c-2.2-.3-4.1 1.4-4.1 1.4s1.6 2.3 3.8 2.6zM154.4 36.2c1.5.7 3.2 0 3.2 0s-.6-1.9-2.1-2.7c-1.5-.7-3.2 0-3.2 0s.6 2 2.1 2.7zM123.5 65.5c2 2.2 1.8 5.8 1.8 5.8s-3.3 0-5.3-2.3c-2-2.2-1.8-5.8-1.8-5.8s3.4.1 5.3 2.3z"/><path fill="#091F2F" d="M127.8 66c0 3-2.5 5.4-2.5 5.4s-2.4-2.6-2.3-5.6 2.5-5.4 2.5-5.4 2.3 2.6 2.3 5.6zM129.5 75.1c3 1 4.7 4.5 4.7 4.5s-3.1 1.8-6.1.8-4.7-4.5-4.7-4.5 3.2-1.8 6.1-.8z"/><path fill="#091F2F" d="M133.7 73.2c1.5 2.9.5 6.6.5 6.6s-3.5-1.1-5-4.1c-1.5-2.9-.5-6.6-.5-6.6s3.5 1.1 5 4.1zM138.7 82c3.3-.4 6.3 2.3 6.3 2.3s-2.3 3.3-5.5 3.7-6.3-2.3-6.3-2.3 2.2-3.3 5.5-3.7z"/><path fill="#091F2F" d="M142 78c2.6 2.2 3.1 6.4 3.1 6.4s-3.8.6-6.5-1.6c-2.6-2.2-3.1-6.4-3.1-6.4s3.8-.7 6.5 1.6zM123 54.3c.8 2.8-.9 5.8-.9 5.8s-2.8-1.7-3.6-4.5c-.8-2.8.9-5.8.9-5.8s2.8 1.7 3.6 4.5z"/><path fill="#091F2F" d="M126.5 56.8c-1.3 2.5-4.4 3.3-4.4 3.3s-1-3.3.3-5.8 4.4-3.3 4.4-3.3 1 3.3-.3 5.8zM125.8 45.9c-.8 2.2-3.2 3.2-3.2 3.2s-1.1-2.6-.3-4.8c.8-2.2 3.2-3.2 3.2-3.2s1.1 2.6.3 4.8z"/><path fill="#091F2F" d="M126.8 49.3c-2 .9-4.4-.2-4.4-.2s.9-2.6 2.9-3.5c2-.9 4.4.2 4.4.2s-.9 2.6-2.9 3.5zM132.6 39.8c-1.4 1.9-4 2.2-4 2.2s-.3-2.8 1.1-4.7c1.4-1.9 4-2.2 4-2.2s.3 2.8-1.1 4.7z"/><path fill="#091F2F" d="M132.6 43.3c-2.2.3-4.1-1.4-4.1-1.4s1.6-2.3 3.8-2.6c2.2-.3 4.1 1.4 4.1 1.4s-1.6 2.3-3.8 2.6zM138.4 37.1c-1.5.7-3.2 0-3.2 0s.6-1.9 2.1-2.7c1.5-.7 3.2 0 3.2 0s-.6 2-2.1 2.7zM137.5 45.7h9.4c2.6 0 4.9.1 6.3.6 3 1 4.2 3.3 4.2 5.7 0 1.3-.3 2.1-.4 2.3-1.1 2.5-3.4 3-4.8 3.2 1.5.2 3.4.6 4.8 2.1.9.9 1.3 2.3 1.3 3.7 0 1.9-1 4.5-4 5.9-1.8.8-3.8.9-6.6.9h-10.3V45.7zm5.8 4.5v5.1h4.6c1.4 0 3.6-.1 3.6-2.6 0-2.3-2-2.4-3.2-2.4h-5zm0 9.5v5.9h4.2c2 0 4.7-.1 4.7-2.9 0-2.9-2.4-3-3.7-3h-5.2z"/><path fill="#FFF" d="M93.6 76.5h50.9v5.9H93.6z"/><path fill="#091F2F" d="M146 83.9H92.1V75H146v8.9zm-50.9-3H143V78H95.1v2.9z"/><path fill="#FFF" d="M93.6 82.9h50.9V115H93.6z"/><path fill="#091F2F" d="M146 116.6H92.1V81.4H146v35.2zm-50.9-3H143V84.4H95.1v29.2z"/><path fill="#231F20" d="M100 88.1h5.1v5.1H100zM108.1 88.1h5.1v5.1h-5.1zM116.1 88.1h5.1v5.1h-5.1zM124.2 88.1h5.1v5.1h-5.1zM132.3 88.1h5.1v5.1h-5.1zM100 95.6h5.1v5.1H100zM108.1 95.6h5.1v5.1h-5.1zM116.1 95.6h5.1v5.1h-5.1zM124.2 95.6h5.1v5.1h-5.1zM132.3 95.6h5.1v5.1h-5.1zM100 103.2h5.1v5.1H100zM108.1 103.2h5.1v5.1h-5.1zM116.1 103.2h5.1v5.1h-5.1zM124.2 103.2h5.1v5.1h-5.1zM132.3 103.2h5.1v5.1h-5.1z"/><defs><path id="h" d="M-212.6 193.6h-1.5v84h108v-84h-106.5zm0 3h105l-1.5-1.5v81l1.5-1.5h-105l1.5 1.5v-81l-1.5 1.5zm-21.5-23h148v124h-148v-124z"/></defs><clipPath id="i"><use xlink:href="#h" overflow="visible"/></clipPath><g clip-path="url(#i)"><defs><path id="j" d="M-212.6 195.1h105v81h-105z"/></defs><clipPath id="k"><use xlink:href="#j" overflow="visible"/></clipPath><g clip-path="url(#k)"><defs><path id="l" d="M-1093.6-303.9h1121v1030h-1121z"/></defs></g></g><defs><path id="m" d="M-212.6 195.1h105v81h-105z"/></defs><clipPath id="n"><use xlink:href="#m" overflow="visible"/></clipPath><g clip-path="url(#n)"><defs><path id="o" d="M-1093.6-303.9h1121v1030h-1121z"/></defs></g><g><defs><path id="p" d="M-218.6 210.6h-2.2l.9-2.1 9.1-22 .4-.9h100.9l.4.9 9.1 22 .9 2.1h-119.5zm0-3h117l-1.4 2.1-9.1-22 1.4.9h-98.9l1.4-.9-9.1 22-1.3-2.1zm-22.3 23h161.5v-65h-161.5v65z"/></defs><clipPath id="q"><use xlink:href="#p" overflow="visible"/></clipPath><g clip-path="url(#q)"><defs><path id="r" d="M-218.6 209.1h117l-9.1-22h-98.8z"/></defs><clipPath id="s"><use xlink:href="#r" overflow="visible"/></clipPath><g clip-path="url(#s)"><defs><path id="t" d="M-1093.6-303.9h1121v1030h-1121z"/></defs></g></g></g><g><defs><path id="u" d="M-218.6 209.1h117l-9.1-22h-98.8z"/></defs><clipPath id="v"><use xlink:href="#u" overflow="visible"/></clipPath><g clip-path="url(#v)"><defs><path id="w" d="M-1093.6-303.9h1121v1030h-1121z"/></defs></g></g><g><defs><path id="x" d="M-133.6 177.6h-1.5v19h15v-19h-13.5zm0 3h12l-1.5-1.5v16l1.5-1.5h-12l1.5 1.5v-16l-1.5 1.5zm-21.5-23h55v59h-55v-59z"/></defs><clipPath id="y"><use xlink:href="#x" overflow="visible"/></clipPath><g clip-path="url(#y)"><defs><path id="z" d="M-133.6 179.1h12v16h-12z"/></defs><clipPath id="A"><use xlink:href="#z" overflow="visible"/></clipPath><g clip-path="url(#A)"><defs><path id="B" d="M-1093.6-303.9h1121v1030h-1121z"/></defs></g></g></g><g><defs><path id="C" d="M-133.6 179.1h12v16h-12z"/></defs><clipPath id="D"><use xlink:href="#C" overflow="visible"/></clipPath><g clip-path="url(#D)"><defs><path id="E" d="M-1093.6-303.9h1121v1030h-1121z"/></defs></g></g><g><defs><path id="F" d="M-199.6 243.6h-1.5v34h24v-34h-22.5zm0 3h21l-1.5-1.5v31l1.5-1.5h-21l1.5 1.5v-31l-1.5 1.5zm-21.5-23h64v74h-64v-74z"/></defs><clipPath id="G"><use xlink:href="#F" overflow="visible"/></clipPath><g clip-path="url(#G)"><defs><path id="H" d="M-199.6 245.1h21v31h-21z"/></defs><clipPath id="I"><use xlink:href="#H" overflow="visible"/></clipPath><g clip-path="url(#I)"><defs><path id="J" d="M-1093.6-303.9h1121v1030h-1121z"/></defs></g></g></g><g><defs><path id="K" d="M-199.6 245.1h21v31h-21z"/></defs><clipPath id="L"><use xlink:href="#K" overflow="visible"/></clipPath><g clip-path="url(#L)"><defs><path id="M" d="M-1093.6-303.9h1121v1030h-1121z"/></defs></g></g><g><defs><path id="N" d="M-198.6 215.6h-1.5v22h22v-22h-20.5zm0 3h19l-1.5-1.5v19l1.5-1.5h-19l1.5 1.5v-19l-1.5 1.5zm-21.5-23h62v62h-62v-62z"/></defs><clipPath id="O"><use xlink:href="#N" overflow="visible"/></clipPath><g clip-path="url(#O)"><defs><path id="P" d="M-198.6 217.1h19v19h-19z"/></defs><clipPath id="Q"><use xlink:href="#P" overflow="visible"/></clipPath><g clip-path="url(#Q)"><defs><path id="R" d="M-1093.6-303.9h1121v1030h-1121z"/></defs></g></g></g><g><defs><path id="S" d="M-198.6 217.1h19v19h-19z"/></defs><clipPath id="T"><use xlink:href="#S" overflow="visible"/></clipPath><g clip-path="url(#T)"><defs><path id="U" d="M-1093.6-303.9h1121v1030h-1121z"/></defs></g></g><g><defs><path id="V" d="M-193.6 220.6h-1.5v12h12v-12h-10.5zm0 3h9l-1.5-1.5v9l1.5-1.5h-9l1.5 1.5v-9l-1.5 1.5zm-21.5-23h52v52h-52v-52z"/></defs><clipPath id="W"><use xlink:href="#V" overflow="visible"/></clipPath><g clip-path="url(#W)"><defs><path id="X" d="M-193.6 222.1h9v9h-9z"/></defs><clipPath id="Y"><use xlink:href="#X" overflow="visible"/></clipPath><g clip-path="url(#Y)"><defs><path id="Z" d="M-1093.6-303.9h1121v1030h-1121z"/></defs></g></g></g><g><defs><path id="aa" d="M-193.6 222.1h9v9h-9z"/></defs><clipPath id="ab"><use xlink:href="#aa" overflow="visible"/></clipPath><g clip-path="url(#ab)"><defs><path id="ac" d="M-1093.6-303.9h1121v1030h-1121z"/></defs></g></g><g><defs><path id="ad" d="M-168.6 215.6h-1.5v22h22v-22h-20.5zm0 3h19l-1.5-1.5v19l1.5-1.5h-19l1.5 1.5v-19l-1.5 1.5zm-21.5-23h62v62h-62v-62z"/></defs><clipPath id="ae"><use xlink:href="#ad" overflow="visible"/></clipPath><g clip-path="url(#ae)"><defs><path id="af" d="M-168.6 217.1h19v19h-19z"/></defs><clipPath id="ag"><use xlink:href="#af" overflow="visible"/></clipPath><g clip-path="url(#ag)"><defs><path id="ah" d="M-1093.6-303.9h1121v1030h-1121z"/></defs></g></g></g><g><defs><path id="ai" d="M-168.6 217.1h19v19h-19z"/></defs><clipPath id="aj"><use xlink:href="#ai" overflow="visible"/></clipPath><g clip-path="url(#aj)"><defs><path id="ak" d="M-1093.6-303.9h1121v1030h-1121z"/></defs></g></g><g><defs><path id="al" d="M-139.6 215.6h-1.5v22h22v-22h-20.5zm0 3h19l-1.5-1.5v19l1.5-1.5h-19l1.5 1.5v-19l-1.5 1.5zm-21.5-23h62v62h-62v-62z"/></defs><clipPath id="am"><use xlink:href="#al" overflow="visible"/></clipPath><g clip-path="url(#am)"><defs><path id="an" d="M-139.6 217.1h19v19h-19z"/></defs><clipPath id="ao"><use xlink:href="#an" overflow="visible"/></clipPath><g clip-path="url(#ao)"><defs><path id="ap" d="M-1093.6-303.9h1121v1030h-1121z"/></defs></g></g></g><g><defs><path id="aq" d="M-139.6 217.1h19v19h-19z"/></defs><clipPath id="ar"><use xlink:href="#aq" overflow="visible"/></clipPath><g clip-path="url(#ar)"><defs><path id="as" d="M-1093.6-303.9h1121v1030h-1121z"/></defs></g></g><g><defs><path id="at" d="M-168.6 243.6h-1.5v22h22v-22h-20.5zm0 3h19l-1.5-1.5v19l1.5-1.5h-19l1.5 1.5v-19l-1.5 1.5zm-21.5-23h62v62h-62v-62z"/></defs><clipPath id="au"><use xlink:href="#at" overflow="visible"/></clipPath><g clip-path="url(#au)"><defs><path id="av" d="M-168.6 245.1h19v19h-19z"/></defs><clipPath id="aw"><use xlink:href="#av" overflow="visible"/></clipPath><g clip-path="url(#aw)"><defs><path id="ax" d="M-1093.6-303.9h1121v1030h-1121z"/></defs></g></g></g><g><defs><path id="ay" d="M-168.6 245.1h19v19h-19z"/></defs><clipPath id="az"><use xlink:href="#ay" overflow="visible"/></clipPath><g clip-path="url(#az)"><defs><path id="aA" d="M-1093.6-303.9h1121v1030h-1121z"/></defs></g></g><g><defs><path id="aB" d="M-139.6 243.6h-1.5v22h22v-22h-20.5zm0 3h19l-1.5-1.5v19l1.5-1.5h-19l1.5 1.5v-19l-1.5 1.5zm-21.5-23h62v62h-62v-62z"/></defs><clipPath id="aC"><use xlink:href="#aB" overflow="visible"/></clipPath><g clip-path="url(#aC)"><defs><path id="aD" d="M-139.6 245.1h19v19h-19z"/></defs><clipPath id="aE"><use xlink:href="#aD" overflow="visible"/></clipPath><g clip-path="url(#aE)"><defs><path id="aF" d="M-1093.6-303.9h1121v1030h-1121z"/></defs></g></g></g><g><defs><path id="aG" d="M-139.6 245.1h19v19h-19z"/></defs><clipPath id="aH"><use xlink:href="#aG" overflow="visible"/></clipPath><g clip-path="url(#aH)"><defs><path id="aI" d="M-1093.6-303.9h1121v1030h-1121z"/></defs></g></g><g><defs><path id="aJ" d="M-163.6 220.6h-1.5v12h12v-12h-10.5zm0 3h9l-1.5-1.5v9l1.5-1.5h-9l1.5 1.5v-9l-1.5 1.5zm-21.5-23h52v52h-52v-52z"/></defs><clipPath id="aK"><use xlink:href="#aJ" overflow="visible"/></clipPath><g clip-path="url(#aK)"><defs><path id="aL" d="M-163.6 222.1h9v9h-9z"/></defs><clipPath id="aM"><use xlink:href="#aL" overflow="visible"/></clipPath><g clip-path="url(#aM)"><defs><path id="aN" d="M-1093.6-303.9h1121v1030h-1121z"/></defs></g></g></g><g><defs><path id="aO" d="M-163.6 222.1h9v9h-9z"/></defs><clipPath id="aP"><use xlink:href="#aO" overflow="visible"/></clipPath><g clip-path="url(#aP)"><defs><path id="aQ" d="M-1093.6-303.9h1121v1030h-1121z"/></defs></g></g><g><defs><path id="aR" d="M-134.6 220.6h-1.5v12h12v-12h-10.5zm0 3h9l-1.5-1.5v9l1.5-1.5h-9l1.5 1.5v-9l-1.5 1.5zm-21.5-23h52v52h-52v-52z"/></defs><clipPath id="aS"><use xlink:href="#aR" overflow="visible"/></clipPath><g clip-path="url(#aS)"><defs><path id="aT" d="M-134.6 222.1h9v9h-9z"/></defs><clipPath id="aU"><use xlink:href="#aT" overflow="visible"/></clipPath><g clip-path="url(#aU)"><defs><path id="aV" d="M-1093.6-303.9h1121v1030h-1121z"/></defs></g></g></g><g><defs><path id="aW" d="M-134.6 222.1h9v9h-9z"/></defs><clipPath id="aX"><use xlink:href="#aW" overflow="visible"/></clipPath><g clip-path="url(#aX)"><defs><path id="aY" d="M-1093.6-303.9h1121v1030h-1121z"/></defs></g></g><g><defs><path id="aZ" d="M-163.6 248.6h-1.5v12h12v-12h-10.5zm0 3h9l-1.5-1.5v9l1.5-1.5h-9l1.5 1.5v-9l-1.5 1.5zm-21.5-23h52v52h-52v-52z"/></defs><clipPath id="ba"><use xlink:href="#aZ" overflow="visible"/></clipPath><g clip-path="url(#ba)"><defs><path id="bb" d="M-163.6 250.1h9v9h-9z"/></defs><clipPath id="bc"><use xlink:href="#bb" overflow="visible"/></clipPath><g clip-path="url(#bc)"><defs><path id="bd" d="M-1093.6-303.9h1121v1030h-1121z"/></defs></g></g></g><g><defs><path id="be" d="M-163.6 250.1h9v9h-9z"/></defs><clipPath id="bf"><use xlink:href="#be" overflow="visible"/></clipPath><g clip-path="url(#bf)"><defs><path id="bg" d="M-1093.6-303.9h1121v1030h-1121z"/></defs></g></g><g><defs><path id="bh" d="M-134.6 248.6h-1.5v12h12v-12h-10.5zm0 3h9l-1.5-1.5v9l1.5-1.5h-9l1.5 1.5v-9l-1.5 1.5zm-21.5-23h52v52h-52v-52z"/></defs><clipPath id="bi"><use xlink:href="#bh" overflow="visible"/></clipPath><g clip-path="url(#bi)"><defs><path id="bj" d="M-134.6 250.1h9v9h-9z"/></defs><clipPath id="bk"><use xlink:href="#bj" overflow="visible"/></clipPath><g clip-path="url(#bk)"><defs><path id="bl" d="M-1093.6-303.9h1121v1030h-1121z"/></defs></g></g></g><g><defs><path id="bm" d="M-134.6 250.1h9v9h-9z"/></defs><clipPath id="bn"><use xlink:href="#bm" overflow="visible"/></clipPath><g clip-path="url(#bn)"><defs><path id="bo" d="M-1093.6-303.9h1121v1030h-1121z"/></defs></g></g><g><defs><path id="bp" d="M387.4-123.4h-1.5v84h108v-84H387.4zm0 3h105l-1.5-1.5v81l1.5-1.5h-105l1.5 1.5v-81l-1.5 1.5zm-21.5-23h148v124h-148v-124z"/></defs><clipPath id="bq"><use xlink:href="#bp" overflow="visible"/></clipPath><g clip-path="url(#bq)"><defs><path id="br" d="M387.4-121.9h105v81h-105z"/></defs><clipPath id="bs"><use xlink:href="#br" overflow="visible"/></clipPath><g clip-path="url(#bs)"><defs><path id="bt" d="M-493.6-620.9h1121v1030h-1121z"/></defs></g></g></g><g><defs><path id="bu" d="M387.4-121.9h105v81h-105z"/></defs><clipPath id="bv"><use xlink:href="#bu" overflow="visible"/></clipPath><g clip-path="url(#bv)"><defs><path id="bw" d="M-493.6-620.9h1121v1030h-1121z"/></defs></g></g><g><defs><path id="bx" d="M381.4-106.4h-2.2l.9-2.1 9.1-22 .4-.9h100.9l.4.9 9.1 22 .9 2.1H381.4zm0-3h117l-1.4 2.1-9.1-22 1.4.9h-98.9l1.4-.9-9.1 22-1.3-2.1zm-22.3 23h161.5v-65H359.1v65z"/></defs><clipPath id="by"><use xlink:href="#bx" overflow="visible"/></clipPath><g clip-path="url(#by)"><defs><path id="bz" d="M381.4-107.9h117l-9.1-22h-98.8z"/></defs><clipPath id="bA"><use xlink:href="#bz" overflow="visible"/></clipPath><g clip-path="url(#bA)"><defs><path id="bB" d="M-493.6-620.9h1121v1030h-1121z"/></defs></g></g></g><g><defs><path id="bC" d="M381.4-107.9h117l-9.1-22h-98.8z"/></defs><clipPath id="bD"><use xlink:href="#bC" overflow="visible"/></clipPath><g clip-path="url(#bD)"><defs><path id="bE" d="M-493.6-620.9h1121v1030h-1121z"/></defs></g></g><g><defs><path id="bF" d="M466.4-139.4h-1.5v19h15v-19h-13.5zm0 3h12l-1.5-1.5v16l1.5-1.5h-12l1.5 1.5v-16l-1.5 1.5zm-21.5-23h55v59h-55v-59z"/></defs><clipPath id="bG"><use xlink:href="#bF" overflow="visible"/></clipPath><g clip-path="url(#bG)"><defs><path id="bH" d="M466.4-137.9h12v16h-12z"/></defs><clipPath id="bI"><use xlink:href="#bH" overflow="visible"/></clipPath><g clip-path="url(#bI)"><defs><path id="bJ" d="M-493.6-620.9h1121v1030h-1121z"/></defs></g></g></g><g><defs><path id="bK" d="M466.4-137.9h12v16h-12z"/></defs><clipPath id="bL"><use xlink:href="#bK" overflow="visible"/></clipPath><g clip-path="url(#bL)"><defs><path id="bM" d="M-493.6-620.9h1121v1030h-1121z"/></defs></g></g><g><defs><path id="bN" d="M400.4-73.4h-1.5v34h24v-34h-22.5zm0 3h21l-1.5-1.5v31l1.5-1.5h-21l1.5 1.5v-31l-1.5 1.5zm-21.5-23h64v74h-64v-74z"/></defs><clipPath id="bO"><use xlink:href="#bN" overflow="visible"/></clipPath><g clip-path="url(#bO)"><defs><path id="bP" d="M400.4-71.9h21v31h-21z"/></defs><clipPath id="bQ"><use xlink:href="#bP" overflow="visible"/></clipPath><g clip-path="url(#bQ)"><defs><path id="bR" d="M-493.6-620.9h1121v1030h-1121z"/></defs></g></g></g><g><defs><path id="bS" d="M400.4-71.9h21v31h-21z"/></defs><clipPath id="bT"><use xlink:href="#bS" overflow="visible"/></clipPath><g clip-path="url(#bT)"><defs><path id="bU" d="M-493.6-620.9h1121v1030h-1121z"/></defs></g></g><g><defs><path id="bV" d="M401.4-101.4h-1.5v22h22v-22h-20.5zm0 3h19l-1.5-1.5v19l1.5-1.5h-19l1.5 1.5v-19l-1.5 1.5zm-21.5-23h62v62h-62v-62z"/></defs><clipPath id="bW"><use xlink:href="#bV" overflow="visible"/></clipPath><g clip-path="url(#bW)"><defs><path id="bX" d="M401.4-99.9h19v19h-19z"/></defs><clipPath id="bY"><use xlink:href="#bX" overflow="visible"/></clipPath><g clip-path="url(#bY)"><defs><path id="bZ" d="M-493.6-620.9h1121v1030h-1121z"/></defs></g></g></g><g><defs><path id="ca" d="M401.4-99.9h19v19h-19z"/></defs><clipPath id="cb"><use xlink:href="#ca" overflow="visible"/></clipPath><g clip-path="url(#cb)"><defs><path id="cc" d="M-493.6-620.9h1121v1030h-1121z"/></defs></g></g><g><defs><path id="cd" d="M406.4-96.4h-1.5v12h12v-12h-10.5zm0 3h9l-1.5-1.5v9l1.5-1.5h-9l1.5 1.5v-9l-1.5 1.5zm-21.5-23h52v52h-52v-52z"/></defs><clipPath id="ce"><use xlink:href="#cd" overflow="visible"/></clipPath><g clip-path="url(#ce)"><defs><path id="cf" d="M406.4-94.9h9v9h-9z"/></defs><clipPath id="cg"><use xlink:href="#cf" overflow="visible"/></clipPath><g clip-path="url(#cg)"><defs><path id="ch" d="M-493.6-620.9h1121v1030h-1121z"/></defs></g></g></g><g><defs><path id="ci" d="M406.4-94.9h9v9h-9z"/></defs><clipPath id="cj"><use xlink:href="#ci" overflow="visible"/></clipPath><g clip-path="url(#cj)"><defs><path id="ck" d="M-493.6-620.9h1121v1030h-1121z"/></defs></g></g><g><defs><path id="cl" d="M431.4-101.4h-1.5v22h22v-22h-20.5zm0 3h19l-1.5-1.5v19l1.5-1.5h-19l1.5 1.5v-19l-1.5 1.5zm-21.5-23h62v62h-62v-62z"/></defs><clipPath id="cm"><use xlink:href="#cl" overflow="visible"/></clipPath><g clip-path="url(#cm)"><defs><path id="cn" d="M431.4-99.9h19v19h-19z"/></defs><clipPath id="co"><use xlink:href="#cn" overflow="visible"/></clipPath><g clip-path="url(#co)"><defs><path id="cp" d="M-493.6-620.9h1121v1030h-1121z"/></defs></g></g></g><g><defs><path id="cq" d="M431.4-99.9h19v19h-19z"/></defs><clipPath id="cr"><use xlink:href="#cq" overflow="visible"/></clipPath><g clip-path="url(#cr)"><defs><path id="cs" d="M-493.6-620.9h1121v1030h-1121z"/></defs></g></g><g><defs><path id="ct" d="M460.4-101.4h-1.5v22h22v-22h-20.5zm0 3h19l-1.5-1.5v19l1.5-1.5h-19l1.5 1.5v-19l-1.5 1.5zm-21.5-23h62v62h-62v-62z"/></defs><clipPath id="cu"><use xlink:href="#ct" overflow="visible"/></clipPath><g clip-path="url(#cu)"><defs><path id="cv" d="M460.4-99.9h19v19h-19z"/></defs><clipPath id="cw"><use xlink:href="#cv" overflow="visible"/></clipPath><g clip-path="url(#cw)"><defs><path id="cx" d="M-493.6-620.9h1121v1030h-1121z"/></defs></g></g></g><g><defs><path id="cy" d="M460.4-99.9h19v19h-19z"/></defs><clipPath id="cz"><use xlink:href="#cy" overflow="visible"/></clipPath><g clip-path="url(#cz)"><defs><path id="cA" d="M-493.6-620.9h1121v1030h-1121z"/></defs></g></g><g><defs><path id="cB" d="M431.4-73.4h-1.5v22h22v-22h-20.5zm0 3h19l-1.5-1.5v19l1.5-1.5h-19l1.5 1.5v-19l-1.5 1.5zm-21.5-23h62v62h-62v-62z"/></defs><clipPath id="cC"><use xlink:href="#cB" overflow="visible"/></clipPath><g clip-path="url(#cC)"><defs><path id="cD" d="M431.4-71.9h19v19h-19z"/></defs><clipPath id="cE"><use xlink:href="#cD" overflow="visible"/></clipPath><g clip-path="url(#cE)"><defs><path id="cF" d="M-493.6-620.9h1121v1030h-1121z"/></defs></g></g></g><g><defs><path id="cG" d="M431.4-71.9h19v19h-19z"/></defs><clipPath id="cH"><use xlink:href="#cG" overflow="visible"/></clipPath><g clip-path="url(#cH)"><defs><path id="cI" d="M-493.6-620.9h1121v1030h-1121z"/></defs></g></g><g><defs><path id="cJ" d="M460.4-73.4h-1.5v22h22v-22h-20.5zm0 3h19l-1.5-1.5v19l1.5-1.5h-19l1.5 1.5v-19l-1.5 1.5zm-21.5-23h62v62h-62v-62z"/></defs><clipPath id="cK"><use xlink:href="#cJ" overflow="visible"/></clipPath><g clip-path="url(#cK)"><defs><path id="cL" d="M460.4-71.9h19v19h-19z"/></defs><clipPath id="cM"><use xlink:href="#cL" overflow="visible"/></clipPath><g clip-path="url(#cM)"><defs><path id="cN" d="M-493.6-620.9h1121v1030h-1121z"/></defs></g></g></g><g><defs><path id="cO" d="M460.4-71.9h19v19h-19z"/></defs><clipPath id="cP"><use xlink:href="#cO" overflow="visible"/></clipPath><g clip-path="url(#cP)"><defs><path id="cQ" d="M-493.6-620.9h1121v1030h-1121z"/></defs></g></g><g><defs><path id="cR" d="M436.4-96.4h-1.5v12h12v-12h-10.5zm0 3h9l-1.5-1.5v9l1.5-1.5h-9l1.5 1.5v-9l-1.5 1.5zm-21.5-23h52v52h-52v-52z"/></defs><clipPath id="cS"><use xlink:href="#cR" overflow="visible"/></clipPath><g clip-path="url(#cS)"><defs><path id="cT" d="M436.4-94.9h9v9h-9z"/></defs><clipPath id="cU"><use xlink:href="#cT" overflow="visible"/></clipPath><g clip-path="url(#cU)"><defs><path id="cV" d="M-493.6-620.9h1121v1030h-1121z"/></defs></g></g></g><g><defs><path id="cW" d="M436.4-94.9h9v9h-9z"/></defs><clipPath id="cX"><use xlink:href="#cW" overflow="visible"/></clipPath><g clip-path="url(#cX)"><defs><path id="cY" d="M-493.6-620.9h1121v1030h-1121z"/></defs></g></g><g><defs><path id="cZ" d="M465.4-96.4h-1.5v12h12v-12h-10.5zm0 3h9l-1.5-1.5v9l1.5-1.5h-9l1.5 1.5v-9l-1.5 1.5zm-21.5-23h52v52h-52v-52z"/></defs><clipPath id="da"><use xlink:href="#cZ" overflow="visible"/></clipPath><g clip-path="url(#da)"><defs><path id="db" d="M465.4-94.9h9v9h-9z"/></defs><clipPath id="dc"><use xlink:href="#db" overflow="visible"/></clipPath><g clip-path="url(#dc)"><defs><path id="dd" d="M-493.6-620.9h1121v1030h-1121z"/></defs></g></g></g><g><defs><path id="de" d="M465.4-94.9h9v9h-9z"/></defs><clipPath id="df"><use xlink:href="#de" overflow="visible"/></clipPath><g clip-path="url(#df)"><defs><path id="dg" d="M-493.6-620.9h1121v1030h-1121z"/></defs></g></g><g><defs><path id="dh" d="M436.4-68.4h-1.5v12h12v-12h-10.5zm0 3h9l-1.5-1.5v9l1.5-1.5h-9l1.5 1.5v-9l-1.5 1.5zm-21.5-23h52v52h-52v-52z"/></defs><clipPath id="di"><use xlink:href="#dh" overflow="visible"/></clipPath><g clip-path="url(#di)"><defs><path id="dj" d="M436.4-66.9h9v9h-9z"/></defs><clipPath id="dk"><use xlink:href="#dj" overflow="visible"/></clipPath><g clip-path="url(#dk)"><defs><path id="dl" d="M-493.6-620.9h1121v1030h-1121z"/></defs></g></g></g><g><defs><path id="dm" d="M436.4-66.9h9v9h-9z"/></defs><clipPath id="dn"><use xlink:href="#dm" overflow="visible"/></clipPath><g clip-path="url(#dn)"><defs><path id="do" d="M-493.6-620.9h1121v1030h-1121z"/></defs></g></g><g><defs><path id="dp" d="M465.4-68.4h-1.5v12h12v-12h-10.5zm0 3h9l-1.5-1.5v9l1.5-1.5h-9l1.5 1.5v-9l-1.5 1.5zm-21.5-23h52v52h-52v-52z"/></defs><clipPath id="dq"><use xlink:href="#dp" overflow="visible"/></clipPath><g clip-path="url(#dq)"><defs><path id="dr" d="M465.4-66.9h9v9h-9z"/></defs><clipPath id="ds"><use xlink:href="#dr" overflow="visible"/></clipPath><g clip-path="url(#ds)"><defs><path id="dt" d="M-493.6-620.9h1121v1030h-1121z"/></defs></g></g></g><g><defs><path id="du" d="M465.4-66.9h9v9h-9z"/></defs><clipPath id="dv"><use xlink:href="#du" overflow="visible"/></clipPath><g clip-path="url(#dv)"><defs><path id="dw" d="M-493.6-620.9h1121v1030h-1121z"/></defs></g></g></svg>