<svg xmlns="http://www.w3.org/2000/svg" xmlns:xlink="http://www.w3.org/1999/xlink" viewBox="0 0 276 137"><defs><circle id="a" cx="142.1" cy="-257" r="50.5"/></defs><clipPath id="b"><use xlink:href="#a" overflow="visible"/></clipPath><g clip-path="url(#b)"><defs><path id="c" d="M-32.4-993h1121V37h-1121z"/></defs></g><defs><circle id="d" cx="142.1" cy="-257" r="43.5"/></defs><clipPath id="e"><use xlink:href="#d" overflow="visible"/></clipPath><g clip-path="url(#e)"><defs><path id="f" d="M-32.4-993h1121V37h-1121z"/></defs></g><defs><path id="g" d="M85.5-450.3H84v84h108v-84H85.5zm0 3h105l-1.5-1.5v81l1.5-1.5h-105l1.5 1.5v-81l-1.5 1.5zm-21.5-23h148v124H64v-124z"/></defs><clipPath id="h"><use xlink:href="#g" overflow="visible"/></clipPath><g clip-path="url(#h)"><defs><path id="i" d="M85.5-448.8h105v81h-105z"/></defs><clipPath id="j"><use xlink:href="#i" overflow="visible"/></clipPath><g clip-path="url(#j)"><defs><path id="k" d="M-795.5-947.8h1121v1030h-1121z"/></defs></g></g><defs><path id="l" d="M85.5-448.8h105v81h-105z"/></defs><clipPath id="m"><use xlink:href="#l" overflow="visible"/></clipPath><g clip-path="url(#m)"><defs><path id="n" d="M-795.5-947.8h1121v1030h-1121z"/></defs></g><defs><path id="o" d="M79.5-433.3h-2.2l.9-2.1 9.1-22 .4-.9h100.9l.4.9 9.1 22 .9 2.1H79.5zm0-3h117l-1.4 2.1-9.1-22 1.4.9H88.6l1.4-.9-9.1 22-1.4-2.1zm-22.2 23h161.5v-65H57.3v65z"/></defs><clipPath id="p"><use xlink:href="#o" overflow="visible"/></clipPath><g clip-path="url(#p)"><defs><path id="q" d="M79.5-434.8h117l-9.1-22H88.6z"/></defs><clipPath id="r"><use xlink:href="#q" overflow="visible"/></clipPath><g clip-path="url(#r)"><defs><path id="s" d="M-795.5-947.8h1121v1030h-1121z"/></defs></g></g><defs><path id="t" d="M79.5-434.8h117l-9.1-22H88.6z"/></defs><clipPath id="u"><use xlink:href="#t" overflow="visible"/></clipPath><g clip-path="url(#u)"><defs><path id="v" d="M-795.5-947.8h1121v1030h-1121z"/></defs></g><defs><path id="w" d="M164.5-466.3H163v19h15v-19h-13.5zm0 3h12l-1.5-1.5v16l1.5-1.5h-12l1.5 1.5v-16l-1.5 1.5zm-21.5-23h55v59h-55v-59z"/></defs><clipPath id="x"><use xlink:href="#w" overflow="visible"/></clipPath><g clip-path="url(#x)"><defs><path id="y" d="M164.5-464.8h12v16h-12z"/></defs><clipPath id="z"><use xlink:href="#y" overflow="visible"/></clipPath><g clip-path="url(#z)"><defs><path id="A" d="M-795.5-947.8h1121v1030h-1121z"/></defs></g></g><defs><path id="B" d="M164.5-464.8h12v16h-12z"/></defs><clipPath id="C"><use xlink:href="#B" overflow="visible"/></clipPath><g clip-path="url(#C)"><defs><path id="D" d="M-795.5-947.8h1121v1030h-1121z"/></defs></g><defs><path id="E" d="M98.5-400.3H97v34h24v-34H98.5zm0 3h21l-1.5-1.5v31l1.5-1.5h-21l1.5 1.5v-31l-1.5 1.5zm-21.5-23h64v74H77v-74z"/></defs><clipPath id="F"><use xlink:href="#E" overflow="visible"/></clipPath><g clip-path="url(#F)"><defs><path id="G" d="M98.5-398.8h21v31h-21z"/></defs><clipPath id="H"><use xlink:href="#G" overflow="visible"/></clipPath><g clip-path="url(#H)"><defs><path id="I" d="M-795.5-947.8h1121v1030h-1121z"/></defs></g></g><defs><path id="J" d="M98.5-398.8h21v31h-21z"/></defs><clipPath id="K"><use xlink:href="#J" overflow="visible"/></clipPath><g clip-path="url(#K)"><defs><path id="L" d="M-795.5-947.8h1121v1030h-1121z"/></defs></g><defs><path id="M" d="M99.5-428.3H98v22h22v-22H99.5zm0 3h19l-1.5-1.5v19l1.5-1.5h-19l1.5 1.5v-19l-1.5 1.5zm-21.5-23h62v62H78v-62z"/></defs><clipPath id="N"><use xlink:href="#M" overflow="visible"/></clipPath><g clip-path="url(#N)"><defs><path id="O" d="M99.5-426.8h19v19h-19z"/></defs><clipPath id="P"><use xlink:href="#O" overflow="visible"/></clipPath><g clip-path="url(#P)"><defs><path id="Q" d="M-795.5-947.8h1121v1030h-1121z"/></defs></g></g><defs><path id="R" d="M99.5-426.8h19v19h-19z"/></defs><clipPath id="S"><use xlink:href="#R" overflow="visible"/></clipPath><g clip-path="url(#S)"><defs><path id="T" d="M-795.5-947.8h1121v1030h-1121z"/></defs></g><defs><path id="U" d="M104.5-423.3H103v12h12v-12h-10.5zm0 3h9l-1.5-1.5v9l1.5-1.5h-9l1.5 1.5v-9l-1.5 1.5zm-21.5-23h52v52H83v-52z"/></defs><clipPath id="V"><use xlink:href="#U" overflow="visible"/></clipPath><g clip-path="url(#V)"><defs><path id="W" d="M104.5-421.8h9v9h-9z"/></defs><clipPath id="X"><use xlink:href="#W" overflow="visible"/></clipPath><g clip-path="url(#X)"><defs><path id="Y" d="M-795.5-947.8h1121v1030h-1121z"/></defs></g></g><defs><path id="Z" d="M104.5-421.8h9v9h-9z"/></defs><clipPath id="aa"><use xlink:href="#Z" overflow="visible"/></clipPath><g clip-path="url(#aa)"><defs><path id="ab" d="M-795.5-947.8h1121v1030h-1121z"/></defs></g><defs><path id="ac" d="M129.5-428.3H128v22h22v-22h-20.5zm0 3h19l-1.5-1.5v19l1.5-1.5h-19l1.5 1.5v-19l-1.5 1.5zm-21.5-23h62v62h-62v-62z"/></defs><clipPath id="ad"><use xlink:href="#ac" overflow="visible"/></clipPath><g clip-path="url(#ad)"><defs><path id="ae" d="M129.5-426.8h19v19h-19z"/></defs><clipPath id="af"><use xlink:href="#ae" overflow="visible"/></clipPath><g clip-path="url(#af)"><defs><path id="ag" d="M-795.5-947.8h1121v1030h-1121z"/></defs></g></g><defs><path id="ah" d="M129.5-426.8h19v19h-19z"/></defs><clipPath id="ai"><use xlink:href="#ah" overflow="visible"/></clipPath><g clip-path="url(#ai)"><defs><path id="aj" d="M-795.5-947.8h1121v1030h-1121z"/></defs></g><defs><path id="ak" d="M158.5-428.3H157v22h22v-22h-20.5zm0 3h19l-1.5-1.5v19l1.5-1.5h-19l1.5 1.5v-19l-1.5 1.5zm-21.5-23h62v62h-62v-62z"/></defs><clipPath id="al"><use xlink:href="#ak" overflow="visible"/></clipPath><g clip-path="url(#al)"><defs><path id="am" d="M158.5-426.8h19v19h-19z"/></defs><clipPath id="an"><use xlink:href="#am" overflow="visible"/></clipPath><g clip-path="url(#an)"><defs><path id="ao" d="M-795.5-947.8h1121v1030h-1121z"/></defs></g></g><defs><path id="ap" d="M158.5-426.8h19v19h-19z"/></defs><clipPath id="aq"><use xlink:href="#ap" overflow="visible"/></clipPath><g clip-path="url(#aq)"><defs><path id="ar" d="M-795.5-947.8h1121v1030h-1121z"/></defs></g><defs><path id="as" d="M129.5-400.3H128v22h22v-22h-20.5zm0 3h19l-1.5-1.5v19l1.5-1.5h-19l1.5 1.5v-19l-1.5 1.5zm-21.5-23h62v62h-62v-62z"/></defs><clipPath id="at"><use xlink:href="#as" overflow="visible"/></clipPath><g clip-path="url(#at)"><defs><path id="au" d="M129.5-398.8h19v19h-19z"/></defs><clipPath id="av"><use xlink:href="#au" overflow="visible"/></clipPath><g clip-path="url(#av)"><defs><path id="aw" d="M-795.5-947.8h1121v1030h-1121z"/></defs></g></g><defs><path id="ax" d="M129.5-398.8h19v19h-19z"/></defs><clipPath id="ay"><use xlink:href="#ax" overflow="visible"/></clipPath><g clip-path="url(#ay)"><defs><path id="az" d="M-795.5-947.8h1121v1030h-1121z"/></defs></g><defs><path id="aA" d="M158.5-400.3H157v22h22v-22h-20.5zm0 3h19l-1.5-1.5v19l1.5-1.5h-19l1.5 1.5v-19l-1.5 1.5zm-21.5-23h62v62h-62v-62z"/></defs><clipPath id="aB"><use xlink:href="#aA" overflow="visible"/></clipPath><g clip-path="url(#aB)"><defs><path id="aC" d="M158.5-398.8h19v19h-19z"/></defs><clipPath id="aD"><use xlink:href="#aC" overflow="visible"/></clipPath><g clip-path="url(#aD)"><defs><path id="aE" d="M-795.5-947.8h1121v1030h-1121z"/></defs></g></g><defs><path id="aF" d="M158.5-398.8h19v19h-19z"/></defs><clipPath id="aG"><use xlink:href="#aF" overflow="visible"/></clipPath><g clip-path="url(#aG)"><defs><path id="aH" d="M-795.5-947.8h1121v1030h-1121z"/></defs></g><defs><path id="aI" d="M134.5-423.3H133v12h12v-12h-10.5zm0 3h9l-1.5-1.5v9l1.5-1.5h-9l1.5 1.5v-9l-1.5 1.5zm-21.5-23h52v52h-52v-52z"/></defs><clipPath id="aJ"><use xlink:href="#aI" overflow="visible"/></clipPath><g clip-path="url(#aJ)"><defs><path id="aK" d="M134.5-421.8h9v9h-9z"/></defs><clipPath id="aL"><use xlink:href="#aK" overflow="visible"/></clipPath><g clip-path="url(#aL)"><defs><path id="aM" d="M-795.5-947.8h1121v1030h-1121z"/></defs></g></g><defs><path id="aN" d="M134.5-421.8h9v9h-9z"/></defs><clipPath id="aO"><use xlink:href="#aN" overflow="visible"/></clipPath><g clip-path="url(#aO)"><defs><path id="aP" d="M-795.5-947.8h1121v1030h-1121z"/></defs></g><defs><path id="aQ" d="M163.5-423.3H162v12h12v-12h-10.5zm0 3h9l-1.5-1.5v9l1.5-1.5h-9l1.5 1.5v-9l-1.5 1.5zm-21.5-23h52v52h-52v-52z"/></defs><clipPath id="aR"><use xlink:href="#aQ" overflow="visible"/></clipPath><g clip-path="url(#aR)"><defs><path id="aS" d="M163.5-421.8h9v9h-9z"/></defs><clipPath id="aT"><use xlink:href="#aS" overflow="visible"/></clipPath><g clip-path="url(#aT)"><defs><path id="aU" d="M-795.5-947.8h1121v1030h-1121z"/></defs></g></g><defs><path id="aV" d="M163.5-421.8h9v9h-9z"/></defs><clipPath id="aW"><use xlink:href="#aV" overflow="visible"/></clipPath><g clip-path="url(#aW)"><defs><path id="aX" d="M-795.5-947.8h1121v1030h-1121z"/></defs></g><g><defs><path id="aY" d="M134.5-395.3H133v12h12v-12h-10.5zm0 3h9l-1.5-1.5v9l1.5-1.5h-9l1.5 1.5v-9l-1.5 1.5zm-21.5-23h52v52h-52v-52z"/></defs><clipPath id="aZ"><use xlink:href="#aY" overflow="visible"/></clipPath><g clip-path="url(#aZ)"><defs><path id="ba" d="M134.5-393.8h9v9h-9z"/></defs><clipPath id="bb"><use xlink:href="#ba" overflow="visible"/></clipPath><g clip-path="url(#bb)"><defs><path id="bc" d="M-795.5-947.8h1121v1030h-1121z"/></defs></g></g></g><g><defs><path id="bd" d="M134.5-393.8h9v9h-9z"/></defs><clipPath id="be"><use xlink:href="#bd" overflow="visible"/></clipPath><g clip-path="url(#be)"><defs><path id="bf" d="M-795.5-947.8h1121v1030h-1121z"/></defs></g></g><g><defs><path id="bg" d="M163.5-395.3H162v12h12v-12h-10.5zm0 3h9l-1.5-1.5v9l1.5-1.5h-9l1.5 1.5v-9l-1.5 1.5zm-21.5-23h52v52h-52v-52z"/></defs><clipPath id="bh"><use xlink:href="#bg" overflow="visible"/></clipPath><g clip-path="url(#bh)"><defs><path id="bi" d="M163.5-393.8h9v9h-9z"/></defs><clipPath id="bj"><use xlink:href="#bi" overflow="visible"/></clipPath><g clip-path="url(#bj)"><defs><path id="bk" d="M-795.5-947.8h1121v1030h-1121z"/></defs></g></g></g><g><defs><path id="bl" d="M163.5-393.8h9v9h-9z"/></defs><clipPath id="bm"><use xlink:href="#bl" overflow="visible"/></clipPath><g clip-path="url(#bm)"><defs><path id="bn" d="M-795.5-947.8h1121v1030h-1121z"/></defs></g></g><g><defs><circle id="bo" cx="132.1" cy="560.5" r="43.5"/></defs><defs><path id="bp" d="M132.1 605.5c-24.8 0-45-20.2-45-45s20.2-45 45-45 45 20.2 45 45-20.1 45-45 45zm0-87c-23.2 0-42 18.8-42 42s18.8 42 42 42 42-18.8 42-42-18.8-42-42-42z"/></defs><use xlink:href="#bo" overflow="visible" fill-rule="evenodd" clip-rule="evenodd" fill="#FFF"/><use xlink:href="#bp" overflow="visible" fill="#0F1F2D"/><clipPath id="bq"><use xlink:href="#bo" overflow="visible"/></clipPath><clipPath id="br" clip-path="url(#bq)"><use xlink:href="#bp" overflow="visible"/></clipPath><g clip-path="url(#br)"><defs><path id="bs" d="M-42.4-175.5h1121v1030h-1121z"/></defs><defs><path id="bt" d="M1080.1 856h-1124V-177h1124V856zm-1121-3h1118V-174h-1118V853z"/></defs><use xlink:href="#bs" overflow="visible" fill="#FFF"/><use xlink:href="#bt" overflow="visible" fill="#0F1F2D"/><clipPath id="bu"><use xlink:href="#bs" overflow="visible"/></clipPath></g></g><g><path fill="#091F2F" d="M87.5 114.3c-7.2-.2-13-6.1-13-13.3v-1.5H86v-76h111.2l-.2 77.9c0 7.1-5.9 12.9-13.2 12.9H87.5zm-9.9-11.7c.7 4.9 4.9 8.7 9.9 8.8h87.6c-2.5-2.1-4.2-5.1-4.6-8.7l-92.9-.1zm11.4-3h84.5v1.5c0 5.9 4.3 10.2 10.2 10.2 5.6 0 10.2-4.4 10.2-9.9l.2-74.9H89v73.1z"/></g><g><path fill="#091F2F" d="M136 37.4h47v3h-47z"/></g><g><path fill="#091F2F" d="M136 49.4h47v3h-47z"/></g><g><path fill="#091F2F" d="M136 61.4h47v3h-47z"/></g><g><path fill="#091F2F" d="M136 73.4h47v3h-47z"/></g><g><path fill="#091F2F" d="M136 85.4h47v3h-47z"/></g><g><path fill="#091F2F" d="M124.4 54c-1 1.2-.9 3-.9 3s1.7 0 2.7-1.2c1-1.2.9-3 .9-3s-1.7.1-2.7 1.2z"/><path fill="#091F2F" d="M122.2 54.3c0 1.6 1.3 2.8 1.3 2.8s1.2-1.3 1.2-2.9c0-1.6-1.3-2.8-1.3-2.8s-1.2 1.3-1.2 2.9zM121.3 59.4c-1.5.5-2.4 2.4-2.4 2.4s1.6.9 3.2.4c1.5-.5 2.4-2.4 2.4-2.4s-1.7-1-3.2-.4z"/><path fill="#091F2F" d="M119.1 58.4c-.8 1.5-.2 3.4-.2 3.4s1.8-.6 2.6-2.1.2-3.4.2-3.4-1.8.5-2.6 2.1zM116.5 62.9c-1.7-.2-3.3 1.2-3.3 1.2s1.2 1.7 2.9 1.9 3.3-1.2 3.3-1.2-1.2-1.7-2.9-1.9z"/><path fill="#091F2F" d="M114.8 60.8c-1.4 1.2-1.6 3.3-1.6 3.3s2 .3 3.4-.9 1.6-3.3 1.6-3.3-2-.2-3.4.9zM124.7 48.2c-.4 1.5.4 3 .4 3s1.5-.9 1.9-2.3c.4-1.5-.4-3-.4-3s-1.5.8-1.9 2.3z"/><path fill="#091F2F" d="M122.9 49.5c.7 1.3 2.3 1.7 2.3 1.7s.5-1.7-.2-3-2.3-1.7-2.3-1.7-.5 1.7.2 3zM123.2 43.8c.4 1.1 1.7 1.7 1.7 1.7s.6-1.3.2-2.5c-.4-1.1-1.7-1.7-1.7-1.7s-.6 1.4-.2 2.5z"/><path fill="#091F2F" d="M122.7 45.6c1.1.5 2.3-.1 2.3-.1s-.5-1.4-1.5-1.8c-1.1-.5-2.3.1-2.3.1s.4 1.3 1.5 1.8zM119.7 40.6c.7 1 2.1 1.1 2.1 1.1s.2-1.4-.6-2.4c-.7-1-2.1-1.1-2.1-1.1s-.1 1.4.6 2.4z"/><path fill="#091F2F" d="M119.7 42.5c1.1.2 2.2-.8 2.2-.8s-.8-1.2-2-1.3-2.2.8-2.2.8.8 1.1 2 1.3zM116.6 39.3c.8.4 1.7 0 1.7 0s-.3-1-1.1-1.4-1.7 0-1.7 0 .4 1 1.1 1.4zM100.6 54.5c1 1.2.9 3 .9 3s-1.7 0-2.7-1.2c-1-1.2-.9-3-.9-3s1.7 0 2.7 1.2z"/><path fill="#091F2F" d="M102.8 54.7c0 1.6-1.3 2.8-1.3 2.8s-1.2-1.3-1.2-2.9c0-1.6 1.3-2.8 1.3-2.8s1.2 1.4 1.2 2.9zM103.7 59.5c1.5.5 2.4 2.4 2.4 2.4s-1.6.9-3.2.4-2.4-2.4-2.4-2.4 1.6-1 3.2-.4z"/><path fill="#091F2F" d="M105.9 58.5c.8 1.5.2 3.4.2 3.4s-1.8-.6-2.6-2.1-.2-3.4-.2-3.4 1.8.5 2.6 2.1zM108.5 63c1.7-.2 3.3 1.2 3.3 1.2s-1.2 1.7-2.9 1.9c-1.7.2-3.3-1.2-3.3-1.2s1.2-1.6 2.9-1.9z"/><path fill="#091F2F" d="M110.2 61c1.4 1.2 1.6 3.3 1.6 3.3s-2 .3-3.4-.9-1.6-3.3-1.6-3.3 2-.3 3.4.9zM100.3 48.7c.4 1.5-.4 3-.4 3s-1.5-.9-1.9-2.3.4-3 .4-3 1.5.8 1.9 2.3z"/><path fill="#091F2F" d="M102.1 50c-.7 1.3-2.3 1.7-2.3 1.7s-.5-1.7.2-3 2.3-1.7 2.3-1.7.5 1.6-.2 3zM101.7 44.3c-.4 1.1-1.7 1.7-1.7 1.7s-.6-1.3-.2-2.5c.4-1.1 1.7-1.7 1.7-1.7s.7 1.3.2 2.5z"/><path fill="#091F2F" d="M102.3 46c-1.1.5-2.3-.1-2.3-.1s.5-1.4 1.5-1.8c1.1-.5 2.3.1 2.3.1s-.5 1.4-1.5 1.8zM105.3 41.1c-.7 1-2.1 1.1-2.1 1.1s-.2-1.4.6-2.4c.7-1 2.1-1.1 2.1-1.1s.1 1.4-.6 2.4z"/><path fill="#091F2F" d="M105.3 42.9c-1.1.2-2.2-.8-2.2-.8s.8-1.2 2-1.3c1.1-.2 2.2.8 2.2.8s-.9 1.1-2 1.3zM108.3 39.7c-.8.4-1.7 0-1.7 0s.3-1 1.1-1.4c.8-.4 1.7 0 1.7 0s-.3 1-1.1 1.4zM107.8 44.1h4.9c1.3 0 2.5.1 3.3.3 1.6.5 2.2 1.7 2.2 2.9 0 .7-.2 1.1-.2 1.2-.6 1.3-1.8 1.5-2.5 1.7.8.1 1.8.3 2.5 1.1.4.5.7 1.2.7 1.9 0 1-.5 2.4-2.1 3.1-1 .4-2 .5-3.4.5h-5.3V44.1zm3 2.4v2.6h2.4c.7 0 1.9-.1 1.9-1.4 0-1.2-1.1-1.3-1.7-1.3h-2.6zm0 5v3.1h2.2c1.1 0 2.4-.1 2.4-1.5 0-1.5-1.3-1.5-1.9-1.6h-2.7z"/></g><g><defs><path id="bv" d="M367.2 397.4h-1.5v38h142v-25.1l-.4-.4-11.4-12-.4-.5H367.2zm0 3h127.6l-1.1-.5 11.4 12-.4-1v23l1.5-1.5h-139l1.5 1.5v-35l-1.5 1.5zm-21.5-23h182v78h-182v-78z"/></defs><clipPath id="bw"><use xlink:href="#bv" overflow="visible"/></clipPath><g clip-path="url(#bw)"><defs><path id="bx" d="M367.2 398.9h127.6l11.4 12v23h-139z"/></defs><clipPath id="by"><use xlink:href="#bx" overflow="visible"/></clipPath><g clip-path="url(#by)"><defs><path id="bz" d="M-4.8-136.1h1121v1030H-4.8z"/></defs></g></g></g><g><defs><path id="bA" d="M367.2 398.9h127.6l11.4 12v23h-139z"/></defs><clipPath id="bB"><use xlink:href="#bA" overflow="visible"/></clipPath><g clip-path="url(#bB)"><defs><path id="bC" d="M-4.8-136.1h1121v1030H-4.8z"/></defs></g></g><g><defs><path id="bD" d="M400.2 448.9c-8 0-14.5-6.5-14.5-14.5s6.5-14.5 14.5-14.5 14.5 6.5 14.5 14.5-6.4 14.5-14.5 14.5zm0 3c9.7 0 17.5-7.8 17.5-17.5s-7.8-17.5-17.5-17.5-17.5 7.8-17.5 17.5c0 9.6 7.9 17.5 17.5 17.5zm-37.5-55h75v75h-75v-75z"/></defs><clipPath id="bE"><use xlink:href="#bD" overflow="visible"/></clipPath><g clip-path="url(#bE)"><defs><circle id="bF" cx="400.2" cy="434.4" r="16"/></defs><clipPath id="bG"><use xlink:href="#bF" overflow="visible"/></clipPath><g clip-path="url(#bG)"><defs><path id="bH" d="M-4.8-136.1h1121v1030H-4.8z"/></defs></g></g></g><g><defs><circle id="bI" cx="400.2" cy="434.4" r="16"/></defs><clipPath id="bJ"><use xlink:href="#bI" overflow="visible"/></clipPath><g clip-path="url(#bJ)"><defs><path id="bK" d="M-4.8-136.1h1121v1030H-4.8z"/></defs></g></g><g><defs><path id="bL" d="M400.2 441.9c-4.1 0-7.5-3.4-7.5-7.5s3.4-7.5 7.5-7.5 7.5 3.4 7.5 7.5-3.3 7.5-7.5 7.5zm0 3c5.8 0 10.5-4.7 10.5-10.5s-4.7-10.5-10.5-10.5-10.5 4.7-10.5 10.5 4.7 10.5 10.5 10.5zm-30.5-41h61v61h-61v-61z"/></defs><clipPath id="bM"><use xlink:href="#bL" overflow="visible"/></clipPath><g clip-path="url(#bM)"><defs><circle id="bN" cx="400.2" cy="434.4" r="9"/></defs><clipPath id="bO"><use xlink:href="#bN" overflow="visible"/></clipPath><g clip-path="url(#bO)"><defs><path id="bP" d="M-4.8-136.1h1121v1030H-4.8z"/></defs></g></g></g><g><defs><circle id="bQ" cx="400.2" cy="434.4" r="9"/></defs><clipPath id="bR"><use xlink:href="#bQ" overflow="visible"/></clipPath><g clip-path="url(#bR)"><defs><path id="bS" d="M-4.8-136.1h1121v1030H-4.8z"/></defs></g></g><g><defs><path id="bT" d="M466.5 448.9c-8 0-14.5-6.5-14.5-14.5s6.5-14.5 14.5-14.5 14.5 6.5 14.5 14.5-6.5 14.5-14.5 14.5zm0 3c9.7 0 17.5-7.8 17.5-17.5s-7.8-17.5-17.5-17.5-17.5 7.8-17.5 17.5c0 9.6 7.8 17.5 17.5 17.5zm-37.5-55h75v75h-75v-75z"/></defs><clipPath id="bU"><use xlink:href="#bT" overflow="visible"/></clipPath><g clip-path="url(#bU)"><defs><circle id="bV" cx="466.5" cy="434.4" r="16"/></defs><clipPath id="bW"><use xlink:href="#bV" overflow="visible"/></clipPath><g clip-path="url(#bW)"><defs><path id="bX" d="M-4.8-136.1h1121v1030H-4.8z"/></defs></g></g></g><g><defs><circle id="bY" cx="466.5" cy="434.4" r="16"/></defs><clipPath id="bZ"><use xlink:href="#bY" overflow="visible"/></clipPath><g clip-path="url(#bZ)"><defs><path id="ca" d="M-4.8-136.1h1121v1030H-4.8z"/></defs></g></g><g><defs><path id="cb" d="M466.7 394l-7.7-15.6h-27.2V394h34.9zm-75.2 0l7.4-15.6h27.2V394h-34.6zm-10.3 5.4l14.1-26.9h66.8l15.3 27.9-96.2-1z"/></defs><clipPath id="cc"><use xlink:href="#cb" overflow="visible"/></clipPath><g clip-path="url(#cc)"><defs><path id="cd" d="M-4.8-136.1h1121v1030H-4.8z"/></defs></g></g><g><defs><path id="ce" d="M466.5 441.9c-4.1 0-7.5-3.4-7.5-7.5s3.4-7.5 7.5-7.5 7.5 3.4 7.5 7.5-3.4 7.5-7.5 7.5zm0 3c5.8 0 10.5-4.7 10.5-10.5s-4.7-10.5-10.5-10.5-10.5 4.7-10.5 10.5 4.7 10.5 10.5 10.5zm-30.5-41h61v61h-61v-61z"/></defs><clipPath id="cf"><use xlink:href="#ce" overflow="visible"/></clipPath><g clip-path="url(#cf)"><defs><circle id="cg" cx="466.5" cy="434.4" r="9"/></defs><clipPath id="ch"><use xlink:href="#cg" overflow="visible"/></clipPath><g clip-path="url(#ch)"><defs><path id="ci" d="M-4.8-136.1h1121v1030H-4.8z"/></defs></g></g></g><g><defs><circle id="cj" cx="466.5" cy="434.4" r="9"/></defs><clipPath id="ck"><use xlink:href="#cj" overflow="visible"/></clipPath><g clip-path="url(#ck)"><defs><path id="cl" d="M-4.8-136.1h1121v1030H-4.8z"/></defs></g></g><g><defs><path id="cm" d="M91.4 367.1h-1.5v84h108v-84H91.4zm0 3h105l-1.5-1.5v81l1.5-1.5h-105l1.5 1.5v-81l-1.5 1.5zm-21.5-23h148v124h-148v-124z"/></defs><clipPath id="cn"><use xlink:href="#cm" overflow="visible"/></clipPath><g clip-path="url(#cn)"><defs><path id="co" d="M91.4 368.6h105v81h-105z"/></defs><clipPath id="cp"><use xlink:href="#co" overflow="visible"/></clipPath><g clip-path="url(#cp)"><defs><path id="cq" d="M-789.6-130.4h1121v1030h-1121z"/></defs></g></g></g><g><defs><path id="cr" d="M91.4 368.6h105v81h-105z"/></defs><clipPath id="cs"><use xlink:href="#cr" overflow="visible"/></clipPath><g clip-path="url(#cs)"><defs><path id="ct" d="M-789.6-130.4h1121v1030h-1121z"/></defs></g></g><g><defs><path id="cu" d="M85.4 384.1h-2.2l.8-2.1 9.1-22 .4-.9h100.9l.4.9 9.1 22 .9 2.1H85.4zm0-3h117l-1.4 2.1-9.1-22 1.4.9H94.5l1.4-.9-9.1 22-1.4-2.1zm-22.3 23h161.5v-65H63.1v65z"/></defs><clipPath id="cv"><use xlink:href="#cu" overflow="visible"/></clipPath><g clip-path="url(#cv)"><defs><path id="cw" d="M85.4 382.6h117l-9.1-22H94.5z"/></defs><clipPath id="cx"><use xlink:href="#cw" overflow="visible"/></clipPath><g clip-path="url(#cx)"><defs><path id="cy" d="M-789.6-130.4h1121v1030h-1121z"/></defs></g></g></g><g><defs><path id="cz" d="M85.4 382.6h117l-9.1-22H94.5z"/></defs><clipPath id="cA"><use xlink:href="#cz" overflow="visible"/></clipPath><g clip-path="url(#cA)"><defs><path id="cB" d="M-789.6-130.4h1121v1030h-1121z"/></defs></g></g><g><defs><path id="cC" d="M170.4 351.1h-1.5v19h15v-19h-13.5zm0 3h12l-1.5-1.5v16l1.5-1.5h-12l1.5 1.5v-16l-1.5 1.5zm-21.5-23h55v59h-55v-59z"/></defs><clipPath id="cD"><use xlink:href="#cC" overflow="visible"/></clipPath><g clip-path="url(#cD)"><defs><path id="cE" d="M170.4 352.6h12v16h-12z"/></defs><clipPath id="cF"><use xlink:href="#cE" overflow="visible"/></clipPath><g clip-path="url(#cF)"><defs><path id="cG" d="M-789.6-130.4h1121v1030h-1121z"/></defs></g></g></g><g><defs><path id="cH" d="M170.4 352.6h12v16h-12z"/></defs><clipPath id="cI"><use xlink:href="#cH" overflow="visible"/></clipPath><g clip-path="url(#cI)"><defs><path id="cJ" d="M-789.6-130.4h1121v1030h-1121z"/></defs></g></g><g><defs><path id="cK" d="M104.4 417.1h-1.5v34h24v-34h-22.5zm0 3h21l-1.5-1.5v31l1.5-1.5h-21l1.5 1.5v-31l-1.5 1.5zm-21.5-23h64v74h-64v-74z"/></defs><clipPath id="cL"><use xlink:href="#cK" overflow="visible"/></clipPath><g clip-path="url(#cL)"><defs><path id="cM" d="M104.4 418.6h21v31h-21z"/></defs><clipPath id="cN"><use xlink:href="#cM" overflow="visible"/></clipPath><g clip-path="url(#cN)"><defs><path id="cO" d="M-789.6-130.4h1121v1030h-1121z"/></defs></g></g></g><g><defs><path id="cP" d="M104.4 418.6h21v31h-21z"/></defs><clipPath id="cQ"><use xlink:href="#cP" overflow="visible"/></clipPath><g clip-path="url(#cQ)"><defs><path id="cR" d="M-789.6-130.4h1121v1030h-1121z"/></defs></g></g><g><defs><path id="cS" d="M105.4 389.1h-1.5v22h22v-22h-20.5zm0 3h19l-1.5-1.5v19l1.5-1.5h-19l1.5 1.5v-19l-1.5 1.5zm-21.5-23h62v62h-62v-62z"/></defs><clipPath id="cT"><use xlink:href="#cS" overflow="visible"/></clipPath><g clip-path="url(#cT)"><defs><path id="cU" d="M105.4 390.6h19v19h-19z"/></defs><clipPath id="cV"><use xlink:href="#cU" overflow="visible"/></clipPath><g clip-path="url(#cV)"><defs><path id="cW" d="M-789.6-130.4h1121v1030h-1121z"/></defs></g></g></g><g><defs><path id="cX" d="M105.4 390.6h19v19h-19z"/></defs><clipPath id="cY"><use xlink:href="#cX" overflow="visible"/></clipPath><g clip-path="url(#cY)"><defs><path id="cZ" d="M-789.6-130.4h1121v1030h-1121z"/></defs></g></g><g><defs><path id="da" d="M110.4 394.1h-1.5v12h12v-12h-10.5zm0 3h9l-1.5-1.5v9l1.5-1.5h-9l1.5 1.5v-9l-1.5 1.5zm-21.5-23h52v52h-52v-52z"/></defs><clipPath id="db"><use xlink:href="#da" overflow="visible"/></clipPath><g clip-path="url(#db)"><defs><path id="dc" d="M110.4 395.6h9v9h-9z"/></defs><clipPath id="dd"><use xlink:href="#dc" overflow="visible"/></clipPath><g clip-path="url(#dd)"><defs><path id="de" d="M-789.6-130.4h1121v1030h-1121z"/></defs></g></g></g><g><defs><path id="df" d="M110.4 395.6h9v9h-9z"/></defs><clipPath id="dg"><use xlink:href="#df" overflow="visible"/></clipPath><g clip-path="url(#dg)"><defs><path id="dh" d="M-789.6-130.4h1121v1030h-1121z"/></defs></g></g><g><defs><path id="di" d="M135.4 389.1h-1.5v22h22v-22h-20.5zm0 3h19l-1.5-1.5v19l1.5-1.5h-19l1.5 1.5v-19l-1.5 1.5zm-21.5-23h62v62h-62v-62z"/></defs><clipPath id="dj"><use xlink:href="#di" overflow="visible"/></clipPath><g clip-path="url(#dj)"><defs><path id="dk" d="M135.4 390.6h19v19h-19z"/></defs><clipPath id="dl"><use xlink:href="#dk" overflow="visible"/></clipPath><g clip-path="url(#dl)"><defs><path id="dm" d="M-789.6-130.4h1121v1030h-1121z"/></defs></g></g></g><g><defs><path id="dn" d="M135.4 390.6h19v19h-19z"/></defs><clipPath id="do"><use xlink:href="#dn" overflow="visible"/></clipPath><g clip-path="url(#do)"><defs><path id="dp" d="M-789.6-130.4h1121v1030h-1121z"/></defs></g></g><g><defs><path id="dq" d="M164.4 389.1h-1.5v22h22v-22h-20.5zm0 3h19l-1.5-1.5v19l1.5-1.5h-19l1.5 1.5v-19l-1.5 1.5zm-21.5-23h62v62h-62v-62z"/></defs><clipPath id="dr"><use xlink:href="#dq" overflow="visible"/></clipPath><g clip-path="url(#dr)"><defs><path id="ds" d="M164.4 390.6h19v19h-19z"/></defs><clipPath id="dt"><use xlink:href="#ds" overflow="visible"/></clipPath><g clip-path="url(#dt)"><defs><path id="du" d="M-789.6-130.4h1121v1030h-1121z"/></defs></g></g></g><g><defs><path id="dv" d="M164.4 390.6h19v19h-19z"/></defs><clipPath id="dw"><use xlink:href="#dv" overflow="visible"/></clipPath><g clip-path="url(#dw)"><defs><path id="dx" d="M-789.6-130.4h1121v1030h-1121z"/></defs></g></g><g><defs><path id="dy" d="M135.4 417.1h-1.5v22h22v-22h-20.5zm0 3h19l-1.5-1.5v19l1.5-1.5h-19l1.5 1.5v-19l-1.5 1.5zm-21.5-23h62v62h-62v-62z"/></defs><clipPath id="dz"><use xlink:href="#dy" overflow="visible"/></clipPath><g clip-path="url(#dz)"><defs><path id="dA" d="M135.4 418.6h19v19h-19z"/></defs><clipPath id="dB"><use xlink:href="#dA" overflow="visible"/></clipPath><g clip-path="url(#dB)"><defs><path id="dC" d="M-789.6-130.4h1121v1030h-1121z"/></defs></g></g></g><g><defs><path id="dD" d="M135.4 418.6h19v19h-19z"/></defs><clipPath id="dE"><use xlink:href="#dD" overflow="visible"/></clipPath><g clip-path="url(#dE)"><defs><path id="dF" d="M-789.6-130.4h1121v1030h-1121z"/></defs></g></g><g><defs><path id="dG" d="M164.4 417.1h-1.5v22h22v-22h-20.5zm0 3h19l-1.5-1.5v19l1.5-1.5h-19l1.5 1.5v-19l-1.5 1.5zm-21.5-23h62v62h-62v-62z"/></defs><clipPath id="dH"><use xlink:href="#dG" overflow="visible"/></clipPath><g clip-path="url(#dH)"><defs><path id="dI" d="M164.4 418.6h19v19h-19z"/></defs><clipPath id="dJ"><use xlink:href="#dI" overflow="visible"/></clipPath><g clip-path="url(#dJ)"><defs><path id="dK" d="M-789.6-130.4h1121v1030h-1121z"/></defs></g></g></g><g><defs><path id="dL" d="M164.4 418.6h19v19h-19z"/></defs><clipPath id="dM"><use xlink:href="#dL" overflow="visible"/></clipPath><g clip-path="url(#dM)"><defs><path id="dN" d="M-789.6-130.4h1121v1030h-1121z"/></defs></g></g><g><defs><path id="dO" d="M140.4 394.1h-1.5v12h12v-12h-10.5zm0 3h9l-1.5-1.5v9l1.5-1.5h-9l1.5 1.5v-9l-1.5 1.5zm-21.5-23h52v52h-52v-52z"/></defs><clipPath id="dP"><use xlink:href="#dO" overflow="visible"/></clipPath><g clip-path="url(#dP)"><defs><path id="dQ" d="M140.4 395.6h9v9h-9z"/></defs><clipPath id="dR"><use xlink:href="#dQ" overflow="visible"/></clipPath><g clip-path="url(#dR)"><defs><path id="dS" d="M-789.6-130.4h1121v1030h-1121z"/></defs></g></g></g><g><defs><path id="dT" d="M140.4 395.6h9v9h-9z"/></defs><clipPath id="dU"><use xlink:href="#dT" overflow="visible"/></clipPath><g clip-path="url(#dU)"><defs><path id="dV" d="M-789.6-130.4h1121v1030h-1121z"/></defs></g></g><g><defs><path id="dW" d="M169.4 394.1h-1.5v12h12v-12h-10.5zm0 3h9l-1.5-1.5v9l1.5-1.5h-9l1.5 1.5v-9l-1.5 1.5zm-21.5-23h52v52h-52v-52z"/></defs><clipPath id="dX"><use xlink:href="#dW" overflow="visible"/></clipPath><g clip-path="url(#dX)"><defs><path id="dY" d="M169.4 395.6h9v9h-9z"/></defs><clipPath id="dZ"><use xlink:href="#dY" overflow="visible"/></clipPath><g clip-path="url(#dZ)"><defs><path id="ea" d="M-789.6-130.4h1121v1030h-1121z"/></defs></g></g></g><g><defs><path id="eb" d="M169.4 395.6h9v9h-9z"/></defs><clipPath id="ec"><use xlink:href="#eb" overflow="visible"/></clipPath><g clip-path="url(#ec)"><defs><path id="ed" d="M-789.6-130.4h1121v1030h-1121z"/></defs></g></g><g><defs><path id="ee" d="M140.4 422.1h-1.5v12h12v-12h-10.5zm0 3h9l-1.5-1.5v9l1.5-1.5h-9l1.5 1.5v-9l-1.5 1.5zm-21.5-23h52v52h-52v-52z"/></defs><clipPath id="ef"><use xlink:href="#ee" overflow="visible"/></clipPath><g clip-path="url(#ef)"><defs><path id="eg" d="M140.4 423.6h9v9h-9z"/></defs><clipPath id="eh"><use xlink:href="#eg" overflow="visible"/></clipPath><g clip-path="url(#eh)"><defs><path id="ei" d="M-789.6-130.4h1121v1030h-1121z"/></defs></g></g></g><g><defs><path id="ej" d="M140.4 423.6h9v9h-9z"/></defs><clipPath id="ek"><use xlink:href="#ej" overflow="visible"/></clipPath><g clip-path="url(#ek)"><defs><path id="el" d="M-789.6-130.4h1121v1030h-1121z"/></defs></g></g><g><defs><path id="em" d="M169.4 422.1h-1.5v12h12v-12h-10.5zm0 3h9l-1.5-1.5v9l1.5-1.5h-9l1.5 1.5v-9l-1.5 1.5zm-21.5-23h52v52h-52v-52z"/></defs><clipPath id="en"><use xlink:href="#em" overflow="visible"/></clipPath><g clip-path="url(#en)"><defs><path id="eo" d="M169.4 423.6h9v9h-9z"/></defs><clipPath id="ep"><use xlink:href="#eo" overflow="visible"/></clipPath><g clip-path="url(#ep)"><defs><path id="eq" d="M-789.6-130.4h1121v1030h-1121z"/></defs></g></g></g><g><defs><path id="er" d="M169.4 423.6h9v9h-9z"/></defs><clipPath id="es"><use xlink:href="#er" overflow="visible"/></clipPath><g clip-path="url(#es)"><defs><path id="et" d="M-789.6-130.4h1121v1030h-1121z"/></defs></g></g></svg>