<svg xmlns="http://www.w3.org/2000/svg" xmlns:xlink="http://www.w3.org/1999/xlink" viewBox="0 0 276 137"><defs><circle id="a" cx="438.1" cy="-257" r="50.5"/></defs><defs><circle id="b" cx="438.1" cy="-257" r="43.5"/></defs><defs><path id="c" d="M381.5-450.3H380v84h108v-84H381.5zm0 3h105l-1.5-1.5v81l1.5-1.5h-105l1.5 1.5v-81l-1.5 1.5zm-21.5-23h148v124H360v-124z"/></defs><clipPath id="d"><use xlink:href="#c" overflow="visible"/></clipPath><g clip-path="url(#d)"><defs><path id="e" d="M381.5-448.8h105v81h-105z"/></defs></g><defs><path id="f" d="M381.5-448.8h105v81h-105z"/></defs><defs><path id="g" d="M375.5-433.3h-2.2l.9-2.1 9.1-22 .4-.9h100.9l.4.9 9.1 22 .9 2.1H375.5zm0-3h117l-1.4 2.1-9.1-22 1.4.9h-98.9l1.4-.9-9.1 22-1.3-2.1zm-22.2 23h161.5v-65H353.3v65z"/></defs><clipPath id="h"><use xlink:href="#g" overflow="visible"/></clipPath><g clip-path="url(#h)"><defs><path id="i" d="M375.5-434.8h117l-9.1-22h-98.8z"/></defs></g><defs><path id="j" d="M375.5-434.8h117l-9.1-22h-98.8z"/></defs><defs><path id="k" d="M460.5-466.3H459v19h15v-19h-13.5zm0 3h12l-1.5-1.5v16l1.5-1.5h-12l1.5 1.5v-16l-1.5 1.5zm-21.5-23h55v59h-55v-59z"/></defs><clipPath id="l"><use xlink:href="#k" overflow="visible"/></clipPath><g clip-path="url(#l)"><defs><path id="m" d="M460.5-464.8h12v16h-12z"/></defs></g><defs><path id="n" d="M460.5-464.8h12v16h-12z"/></defs><defs><path id="o" d="M394.5-400.3H393v34h24v-34h-22.5zm0 3h21l-1.5-1.5v31l1.5-1.5h-21l1.5 1.5v-31l-1.5 1.5zm-21.5-23h64v74h-64v-74z"/></defs><clipPath id="p"><use xlink:href="#o" overflow="visible"/></clipPath><g clip-path="url(#p)"><defs><path id="q" d="M394.5-398.8h21v31h-21z"/></defs></g><defs><path id="r" d="M394.5-398.8h21v31h-21z"/></defs><defs><path id="s" d="M395.5-428.3H394v22h22v-22h-20.5zm0 3h19l-1.5-1.5v19l1.5-1.5h-19l1.5 1.5v-19l-1.5 1.5zm-21.5-23h62v62h-62v-62z"/></defs><clipPath id="t"><use xlink:href="#s" overflow="visible"/></clipPath><g clip-path="url(#t)"><defs><path id="u" d="M395.5-426.8h19v19h-19z"/></defs></g><defs><path id="v" d="M395.5-426.8h19v19h-19z"/></defs><defs><path id="w" d="M400.5-423.3H399v12h12v-12h-10.5zm0 3h9l-1.5-1.5v9l1.5-1.5h-9l1.5 1.5v-9l-1.5 1.5zm-21.5-23h52v52h-52v-52z"/></defs><clipPath id="x"><use xlink:href="#w" overflow="visible"/></clipPath><g clip-path="url(#x)"><defs><path id="y" d="M400.5-421.8h9v9h-9z"/></defs></g><defs><path id="z" d="M400.5-421.8h9v9h-9z"/></defs><defs><path id="A" d="M425.5-428.3H424v22h22v-22h-20.5zm0 3h19l-1.5-1.5v19l1.5-1.5h-19l1.5 1.5v-19l-1.5 1.5zm-21.5-23h62v62h-62v-62z"/></defs><clipPath id="B"><use xlink:href="#A" overflow="visible"/></clipPath><g clip-path="url(#B)"><defs><path id="C" d="M425.5-426.8h19v19h-19z"/></defs></g><defs><path id="D" d="M425.5-426.8h19v19h-19z"/></defs><defs><path id="E" d="M454.5-428.3H453v22h22v-22h-20.5zm0 3h19l-1.5-1.5v19l1.5-1.5h-19l1.5 1.5v-19l-1.5 1.5zm-21.5-23h62v62h-62v-62z"/></defs><clipPath id="F"><use xlink:href="#E" overflow="visible"/></clipPath><g clip-path="url(#F)"><defs><path id="G" d="M454.5-426.8h19v19h-19z"/></defs></g><defs><path id="H" d="M454.5-426.8h19v19h-19z"/></defs><defs><path id="I" d="M425.5-400.3H424v22h22v-22h-20.5zm0 3h19l-1.5-1.5v19l1.5-1.5h-19l1.5 1.5v-19l-1.5 1.5zm-21.5-23h62v62h-62v-62z"/></defs><clipPath id="J"><use xlink:href="#I" overflow="visible"/></clipPath><g clip-path="url(#J)"><defs><path id="K" d="M425.5-398.8h19v19h-19z"/></defs></g><defs><path id="L" d="M425.5-398.8h19v19h-19z"/></defs><defs><path id="M" d="M454.5-400.3H453v22h22v-22h-20.5zm0 3h19l-1.5-1.5v19l1.5-1.5h-19l1.5 1.5v-19l-1.5 1.5zm-21.5-23h62v62h-62v-62z"/></defs><clipPath id="N"><use xlink:href="#M" overflow="visible"/></clipPath><g clip-path="url(#N)"><defs><path id="O" d="M454.5-398.8h19v19h-19z"/></defs></g><defs><path id="P" d="M454.5-398.8h19v19h-19z"/></defs><defs><path id="Q" d="M430.5-423.3H429v12h12v-12h-10.5zm0 3h9l-1.5-1.5v9l1.5-1.5h-9l1.5 1.5v-9l-1.5 1.5zm-21.5-23h52v52h-52v-52z"/></defs><clipPath id="R"><use xlink:href="#Q" overflow="visible"/></clipPath><g clip-path="url(#R)"><defs><path id="S" d="M430.5-421.8h9v9h-9z"/></defs></g><defs><path id="T" d="M430.5-421.8h9v9h-9z"/></defs><defs><path id="U" d="M459.5-423.3H458v12h12v-12h-10.5zm0 3h9l-1.5-1.5v9l1.5-1.5h-9l1.5 1.5v-9l-1.5 1.5zm-21.5-23h52v52h-52v-52z"/></defs><clipPath id="V"><use xlink:href="#U" overflow="visible"/></clipPath><g clip-path="url(#V)"><defs><path id="W" d="M459.5-421.8h9v9h-9z"/></defs></g><defs><path id="X" d="M459.5-421.8h9v9h-9z"/></defs><defs><path id="Y" d="M430.5-395.3H429v12h12v-12h-10.5zm0 3h9l-1.5-1.5v9l1.5-1.5h-9l1.5 1.5v-9l-1.5 1.5zm-21.5-23h52v52h-52v-52z"/></defs><clipPath id="Z"><use xlink:href="#Y" overflow="visible"/></clipPath><g clip-path="url(#Z)"><defs><path id="aa" d="M430.5-393.8h9v9h-9z"/></defs></g><defs><path id="ab" d="M430.5-393.8h9v9h-9z"/></defs><defs><path id="ac" d="M459.5-395.3H458v12h12v-12h-10.5zm0 3h9l-1.5-1.5v9l1.5-1.5h-9l1.5 1.5v-9l-1.5 1.5zm-21.5-23h52v52h-52v-52z"/></defs><clipPath id="ad"><use xlink:href="#ac" overflow="visible"/></clipPath><g clip-path="url(#ad)"><defs><path id="ae" d="M459.5-393.8h9v9h-9z"/></defs></g><defs><path id="af" d="M459.5-393.8h9v9h-9z"/></defs><defs><circle id="ag" cx="428.1" cy="560.5" r="43.5"/></defs><defs><path id="ah" d="M428.1 605.5c-24.8 0-45-20.2-45-45s20.2-45 45-45 45 20.2 45 45-20.1 45-45 45zm0-87c-23.2 0-42 18.8-42 42s18.8 42 42 42 42-18.8 42-42-18.8-42-42-42z"/></defs><use xlink:href="#ag" overflow="visible" fill-rule="evenodd" clip-rule="evenodd" fill="#FFF"/><use xlink:href="#ah" overflow="visible" fill="#0F1F2D"/><clipPath id="ai"><use xlink:href="#ag" overflow="visible"/></clipPath><clipPath id="aj" clip-path="url(#ai)"><use xlink:href="#ah" overflow="visible"/></clipPath><g clip-path="url(#aj)"><defs><path id="ak" d="M253.6-175.5h1121v1030h-1121z"/></defs><defs><path id="al" d="M1376.1 856h-1124V-177h1124V856zm-1121-3h1118V-174h-1118V853z"/></defs><use xlink:href="#ak" overflow="visible" fill="#FFF"/><use xlink:href="#al" overflow="visible" fill="#0F1F2D"/></g><path fill="#FFF" d="M84.7 30.4h119.7v87.9H84.7z"/><path fill="#091F2F" d="M205.9 119.8H83.2V28.9h122.7v90.9zm-119.7-3h116.7V31.9H86.2v84.9z"/><path fill="#FFF" d="M118.3 98.5l-6.7-4.6-7.7 4.6V56.3h14.4z"/><path fill="#091F2F" d="M119.8 101.3l-8.3-5.6-9.1 5.4V54.8h17.4v46.5zm-14.4-43.5v38l6.2-3.7 5.2 3.5V57.8h-11.4z"/><circle fill="#FFF" cx="110.8" cy="59.3" r="12.1"/><path fill="#091F2F" d="M110.8 72.8c-7.5 0-13.6-6.1-13.6-13.6s6.1-13.6 13.6-13.6 13.6 6.1 13.6 13.6-6.1 13.6-13.6 13.6zm0-24.1c-5.8 0-10.6 4.7-10.6 10.6s4.7 10.6 10.6 10.6 10.6-4.7 10.6-10.6-4.8-10.6-10.6-10.6zm28.2.7h47v3h-47zm0 12h47v3h-47zm0 12h47v3h-47zm0 12h47v3h-47zm0 12h47v3h-47z"/><path fill="#0F1F2D" d="M110.8 66.9c-.8 0-1.5-.7-1.5-1.5V53.1c0-.8.7-1.5 1.5-1.5s1.5.7 1.5 1.5v12.2c0 .9-.7 1.6-1.5 1.6z"/><path fill="#0F1F2D" d="M116.9 60.8h-12.2c-.8 0-1.5-.7-1.5-1.5s.7-1.5 1.5-1.5h12.2c.8 0 1.5.7 1.5 1.5s-.6 1.5-1.5 1.5z"/><defs><path id="am" d="M387.4 367.1h-1.5v84h108v-84H387.4zm0 3h105l-1.5-1.5v81l1.5-1.5h-105l1.5 1.5v-81l-1.5 1.5zm-21.5-23h148v124h-148v-124z"/></defs><clipPath id="an"><use xlink:href="#am" overflow="visible"/></clipPath><g clip-path="url(#an)"><defs><path id="ao" d="M387.4 368.6h105v81h-105z"/></defs></g><defs><path id="ap" d="M387.4 368.6h105v81h-105z"/></defs><defs><path id="aq" d="M381.4 384.1h-2.2l.9-2.1 9.1-22 .4-.9h100.9l.4.9 9.1 22 .9 2.1H381.4zm0-3h117l-1.4 2.1-9.1-22 1.4.9h-98.9l1.4-.9-9.1 22-1.3-2.1zm-22.3 23h161.5v-65H359.1v65z"/></defs><clipPath id="ar"><use xlink:href="#aq" overflow="visible"/></clipPath><g clip-path="url(#ar)"><defs><path id="as" d="M381.4 382.6h117l-9.1-22h-98.8z"/></defs></g><defs><path id="at" d="M381.4 382.6h117l-9.1-22h-98.8z"/></defs><defs><path id="au" d="M466.4 351.1h-1.5v19h15v-19h-13.5zm0 3h12l-1.5-1.5v16l1.5-1.5h-12l1.5 1.5v-16l-1.5 1.5zm-21.5-23h55v59h-55v-59z"/></defs><clipPath id="av"><use xlink:href="#au" overflow="visible"/></clipPath><g clip-path="url(#av)"><defs><path id="aw" d="M466.4 352.6h12v16h-12z"/></defs></g><defs><path id="ax" d="M466.4 352.6h12v16h-12z"/></defs><defs><path id="ay" d="M400.4 417.1h-1.5v34h24v-34h-22.5zm0 3h21l-1.5-1.5v31l1.5-1.5h-21l1.5 1.5v-31l-1.5 1.5zm-21.5-23h64v74h-64v-74z"/></defs><clipPath id="az"><use xlink:href="#ay" overflow="visible"/></clipPath><g clip-path="url(#az)"><defs><path id="aA" d="M400.4 418.6h21v31h-21z"/></defs></g><defs><path id="aB" d="M400.4 418.6h21v31h-21z"/></defs><defs><path id="aC" d="M401.4 389.1h-1.5v22h22v-22h-20.5zm0 3h19l-1.5-1.5v19l1.5-1.5h-19l1.5 1.5v-19l-1.5 1.5zm-21.5-23h62v62h-62v-62z"/></defs><clipPath id="aD"><use xlink:href="#aC" overflow="visible"/></clipPath><g clip-path="url(#aD)"><defs><path id="aE" d="M401.4 390.6h19v19h-19z"/></defs></g><defs><path id="aF" d="M401.4 390.6h19v19h-19z"/></defs><defs><path id="aG" d="M406.4 394.1h-1.5v12h12v-12h-10.5zm0 3h9l-1.5-1.5v9l1.5-1.5h-9l1.5 1.5v-9l-1.5 1.5zm-21.5-23h52v52h-52v-52z"/></defs><clipPath id="aH"><use xlink:href="#aG" overflow="visible"/></clipPath><g clip-path="url(#aH)"><defs><path id="aI" d="M406.4 395.6h9v9h-9z"/></defs></g><defs><path id="aJ" d="M406.4 395.6h9v9h-9z"/></defs><defs><path id="aK" d="M431.4 389.1h-1.5v22h22v-22h-20.5zm0 3h19l-1.5-1.5v19l1.5-1.5h-19l1.5 1.5v-19l-1.5 1.5zm-21.5-23h62v62h-62v-62z"/></defs><clipPath id="aL"><use xlink:href="#aK" overflow="visible"/></clipPath><g clip-path="url(#aL)"><defs><path id="aM" d="M431.4 390.6h19v19h-19z"/></defs></g><defs><path id="aN" d="M431.4 390.6h19v19h-19z"/></defs><defs><path id="aO" d="M460.4 389.1h-1.5v22h22v-22h-20.5zm0 3h19l-1.5-1.5v19l1.5-1.5h-19l1.5 1.5v-19l-1.5 1.5zm-21.5-23h62v62h-62v-62z"/></defs><clipPath id="aP"><use xlink:href="#aO" overflow="visible"/></clipPath><g clip-path="url(#aP)"><defs><path id="aQ" d="M460.4 390.6h19v19h-19z"/></defs></g><g><defs><path id="aR" d="M460.4 390.6h19v19h-19z"/></defs></g><g><defs><path id="aS" d="M431.4 417.1h-1.5v22h22v-22h-20.5zm0 3h19l-1.5-1.5v19l1.5-1.5h-19l1.5 1.5v-19l-1.5 1.5zm-21.5-23h62v62h-62v-62z"/></defs><clipPath id="aT"><use xlink:href="#aS" overflow="visible"/></clipPath><g clip-path="url(#aT)"><defs><path id="aU" d="M431.4 418.6h19v19h-19z"/></defs></g></g><g><defs><path id="aV" d="M431.4 418.6h19v19h-19z"/></defs></g><g><defs><path id="aW" d="M460.4 417.1h-1.5v22h22v-22h-20.5zm0 3h19l-1.5-1.5v19l1.5-1.5h-19l1.5 1.5v-19l-1.5 1.5zm-21.5-23h62v62h-62v-62z"/></defs><clipPath id="aX"><use xlink:href="#aW" overflow="visible"/></clipPath><g clip-path="url(#aX)"><defs><path id="aY" d="M460.4 418.6h19v19h-19z"/></defs></g></g><g><defs><path id="aZ" d="M460.4 418.6h19v19h-19z"/></defs></g><g><defs><path id="ba" d="M436.4 394.1h-1.5v12h12v-12h-10.5zm0 3h9l-1.5-1.5v9l1.5-1.5h-9l1.5 1.5v-9l-1.5 1.5zm-21.5-23h52v52h-52v-52z"/></defs><clipPath id="bb"><use xlink:href="#ba" overflow="visible"/></clipPath><g clip-path="url(#bb)"><defs><path id="bc" d="M436.4 395.6h9v9h-9z"/></defs></g></g><g><defs><path id="bd" d="M436.4 395.6h9v9h-9z"/></defs></g><g><defs><path id="be" d="M465.4 394.1h-1.5v12h12v-12h-10.5zm0 3h9l-1.5-1.5v9l1.5-1.5h-9l1.5 1.5v-9l-1.5 1.5zm-21.5-23h52v52h-52v-52z"/></defs><clipPath id="bf"><use xlink:href="#be" overflow="visible"/></clipPath><g clip-path="url(#bf)"><defs><path id="bg" d="M465.4 395.6h9v9h-9z"/></defs></g></g><g><defs><path id="bh" d="M465.4 395.6h9v9h-9z"/></defs></g><g><defs><path id="bi" d="M436.4 422.1h-1.5v12h12v-12h-10.5zm0 3h9l-1.5-1.5v9l1.5-1.5h-9l1.5 1.5v-9l-1.5 1.5zm-21.5-23h52v52h-52v-52z"/></defs><clipPath id="bj"><use xlink:href="#bi" overflow="visible"/></clipPath><g clip-path="url(#bj)"><defs><path id="bk" d="M436.4 423.6h9v9h-9z"/></defs></g></g><g><defs><path id="bl" d="M436.4 423.6h9v9h-9z"/></defs></g><g><defs><path id="bm" d="M465.4 422.1h-1.5v12h12v-12h-10.5zm0 3h9l-1.5-1.5v9l1.5-1.5h-9l1.5 1.5v-9l-1.5 1.5zm-21.5-23h52v52h-52v-52z"/></defs><clipPath id="bn"><use xlink:href="#bm" overflow="visible"/></clipPath><g clip-path="url(#bn)"><defs><path id="bo" d="M465.4 423.6h9v9h-9z"/></defs></g></g><g><defs><path id="bp" d="M465.4 423.6h9v9h-9z"/></defs></g></svg>