<svg xmlns="http://www.w3.org/2000/svg" xmlns:xlink="http://www.w3.org/1999/xlink" viewBox="0 0 276 137"><defs><circle id="a" cx="438.1" cy="-257" r="50.5"/></defs><clipPath id="b"><use xlink:href="#a" overflow="visible"/></clipPath><g clip-path="url(#b)"><defs><path id="c" d="M263.6-993h1121V37h-1121z"/></defs></g><defs><circle id="d" cx="438.1" cy="-257" r="43.5"/></defs><clipPath id="e"><use xlink:href="#d" overflow="visible"/></clipPath><g clip-path="url(#e)"><defs><path id="f" d="M263.6-993h1121V37h-1121z"/></defs></g><defs><path id="g" d="M381.5-450.3H380v84h108v-84H381.5zm0 3h105l-1.5-1.5v81l1.5-1.5h-105l1.5 1.5v-81l-1.5 1.5zm-21.5-23h148v124H360v-124z"/></defs><clipPath id="h"><use xlink:href="#g" overflow="visible"/></clipPath><g clip-path="url(#h)"><defs><path id="i" d="M381.5-448.8h105v81h-105z"/></defs><clipPath id="j"><use xlink:href="#i" overflow="visible"/></clipPath><g clip-path="url(#j)"><defs><path id="k" d="M-499.5-947.8h1121v1030h-1121z"/></defs></g></g><defs><path id="l" d="M381.5-448.8h105v81h-105z"/></defs><clipPath id="m"><use xlink:href="#l" overflow="visible"/></clipPath><g clip-path="url(#m)"><defs><path id="n" d="M-499.5-947.8h1121v1030h-1121z"/></defs></g><defs><path id="o" d="M375.5-433.3h-2.2l.9-2.1 9.1-22 .4-.9h100.9l.4.9 9.1 22 .9 2.1H375.5zm0-3h117l-1.4 2.1-9.1-22 1.4.9h-98.9l1.4-.9-9.1 22-1.3-2.1zm-22.2 23h161.5v-65H353.3v65z"/></defs><clipPath id="p"><use xlink:href="#o" overflow="visible"/></clipPath><g clip-path="url(#p)"><defs><path id="q" d="M375.5-434.8h117l-9.1-22h-98.8z"/></defs><clipPath id="r"><use xlink:href="#q" overflow="visible"/></clipPath><g clip-path="url(#r)"><defs><path id="s" d="M-499.5-947.8h1121v1030h-1121z"/></defs></g></g><defs><path id="t" d="M375.5-434.8h117l-9.1-22h-98.8z"/></defs><clipPath id="u"><use xlink:href="#t" overflow="visible"/></clipPath><g clip-path="url(#u)"><defs><path id="v" d="M-499.5-947.8h1121v1030h-1121z"/></defs></g><defs><path id="w" d="M460.5-466.3H459v19h15v-19h-13.5zm0 3h12l-1.5-1.5v16l1.5-1.5h-12l1.5 1.5v-16l-1.5 1.5zm-21.5-23h55v59h-55v-59z"/></defs><clipPath id="x"><use xlink:href="#w" overflow="visible"/></clipPath><g clip-path="url(#x)"><defs><path id="y" d="M460.5-464.8h12v16h-12z"/></defs><clipPath id="z"><use xlink:href="#y" overflow="visible"/></clipPath><g clip-path="url(#z)"><defs><path id="A" d="M-499.5-947.8h1121v1030h-1121z"/></defs></g></g><defs><path id="B" d="M460.5-464.8h12v16h-12z"/></defs><clipPath id="C"><use xlink:href="#B" overflow="visible"/></clipPath><g clip-path="url(#C)"><defs><path id="D" d="M-499.5-947.8h1121v1030h-1121z"/></defs></g><defs><path id="E" d="M394.5-400.3H393v34h24v-34h-22.5zm0 3h21l-1.5-1.5v31l1.5-1.5h-21l1.5 1.5v-31l-1.5 1.5zm-21.5-23h64v74h-64v-74z"/></defs><clipPath id="F"><use xlink:href="#E" overflow="visible"/></clipPath><g clip-path="url(#F)"><defs><path id="G" d="M394.5-398.8h21v31h-21z"/></defs><clipPath id="H"><use xlink:href="#G" overflow="visible"/></clipPath><g clip-path="url(#H)"><defs><path id="I" d="M-499.5-947.8h1121v1030h-1121z"/></defs></g></g><defs><path id="J" d="M394.5-398.8h21v31h-21z"/></defs><clipPath id="K"><use xlink:href="#J" overflow="visible"/></clipPath><g clip-path="url(#K)"><defs><path id="L" d="M-499.5-947.8h1121v1030h-1121z"/></defs></g><defs><path id="M" d="M395.5-428.3H394v22h22v-22h-20.5zm0 3h19l-1.5-1.5v19l1.5-1.5h-19l1.5 1.5v-19l-1.5 1.5zm-21.5-23h62v62h-62v-62z"/></defs><clipPath id="N"><use xlink:href="#M" overflow="visible"/></clipPath><g clip-path="url(#N)"><defs><path id="O" d="M395.5-426.8h19v19h-19z"/></defs><clipPath id="P"><use xlink:href="#O" overflow="visible"/></clipPath><g clip-path="url(#P)"><defs><path id="Q" d="M-499.5-947.8h1121v1030h-1121z"/></defs></g></g><defs><path id="R" d="M395.5-426.8h19v19h-19z"/></defs><clipPath id="S"><use xlink:href="#R" overflow="visible"/></clipPath><g clip-path="url(#S)"><defs><path id="T" d="M-499.5-947.8h1121v1030h-1121z"/></defs></g><defs><path id="U" d="M400.5-423.3H399v12h12v-12h-10.5zm0 3h9l-1.5-1.5v9l1.5-1.5h-9l1.5 1.5v-9l-1.5 1.5zm-21.5-23h52v52h-52v-52z"/></defs><clipPath id="V"><use xlink:href="#U" overflow="visible"/></clipPath><g clip-path="url(#V)"><defs><path id="W" d="M400.5-421.8h9v9h-9z"/></defs><clipPath id="X"><use xlink:href="#W" overflow="visible"/></clipPath><g clip-path="url(#X)"><defs><path id="Y" d="M-499.5-947.8h1121v1030h-1121z"/></defs></g></g><defs><path id="Z" d="M400.5-421.8h9v9h-9z"/></defs><clipPath id="aa"><use xlink:href="#Z" overflow="visible"/></clipPath><g clip-path="url(#aa)"><defs><path id="ab" d="M-499.5-947.8h1121v1030h-1121z"/></defs></g><defs><path id="ac" d="M425.5-428.3H424v22h22v-22h-20.5zm0 3h19l-1.5-1.5v19l1.5-1.5h-19l1.5 1.5v-19l-1.5 1.5zm-21.5-23h62v62h-62v-62z"/></defs><clipPath id="ad"><use xlink:href="#ac" overflow="visible"/></clipPath><g clip-path="url(#ad)"><defs><path id="ae" d="M425.5-426.8h19v19h-19z"/></defs><clipPath id="af"><use xlink:href="#ae" overflow="visible"/></clipPath><g clip-path="url(#af)"><defs><path id="ag" d="M-499.5-947.8h1121v1030h-1121z"/></defs></g></g><defs><path id="ah" d="M425.5-426.8h19v19h-19z"/></defs><clipPath id="ai"><use xlink:href="#ah" overflow="visible"/></clipPath><g clip-path="url(#ai)"><defs><path id="aj" d="M-499.5-947.8h1121v1030h-1121z"/></defs></g><defs><path id="ak" d="M454.5-428.3H453v22h22v-22h-20.5zm0 3h19l-1.5-1.5v19l1.5-1.5h-19l1.5 1.5v-19l-1.5 1.5zm-21.5-23h62v62h-62v-62z"/></defs><clipPath id="al"><use xlink:href="#ak" overflow="visible"/></clipPath><g clip-path="url(#al)"><defs><path id="am" d="M454.5-426.8h19v19h-19z"/></defs><clipPath id="an"><use xlink:href="#am" overflow="visible"/></clipPath><g clip-path="url(#an)"><defs><path id="ao" d="M-499.5-947.8h1121v1030h-1121z"/></defs></g></g><defs><path id="ap" d="M454.5-426.8h19v19h-19z"/></defs><clipPath id="aq"><use xlink:href="#ap" overflow="visible"/></clipPath><g clip-path="url(#aq)"><defs><path id="ar" d="M-499.5-947.8h1121v1030h-1121z"/></defs></g><defs><path id="as" d="M425.5-400.3H424v22h22v-22h-20.5zm0 3h19l-1.5-1.5v19l1.5-1.5h-19l1.5 1.5v-19l-1.5 1.5zm-21.5-23h62v62h-62v-62z"/></defs><clipPath id="at"><use xlink:href="#as" overflow="visible"/></clipPath><g clip-path="url(#at)"><defs><path id="au" d="M425.5-398.8h19v19h-19z"/></defs><clipPath id="av"><use xlink:href="#au" overflow="visible"/></clipPath><g clip-path="url(#av)"><defs><path id="aw" d="M-499.5-947.8h1121v1030h-1121z"/></defs></g></g><defs><path id="ax" d="M425.5-398.8h19v19h-19z"/></defs><clipPath id="ay"><use xlink:href="#ax" overflow="visible"/></clipPath><g clip-path="url(#ay)"><defs><path id="az" d="M-499.5-947.8h1121v1030h-1121z"/></defs></g><defs><path id="aA" d="M454.5-400.3H453v22h22v-22h-20.5zm0 3h19l-1.5-1.5v19l1.5-1.5h-19l1.5 1.5v-19l-1.5 1.5zm-21.5-23h62v62h-62v-62z"/></defs><clipPath id="aB"><use xlink:href="#aA" overflow="visible"/></clipPath><g clip-path="url(#aB)"><defs><path id="aC" d="M454.5-398.8h19v19h-19z"/></defs><clipPath id="aD"><use xlink:href="#aC" overflow="visible"/></clipPath><g clip-path="url(#aD)"><defs><path id="aE" d="M-499.5-947.8h1121v1030h-1121z"/></defs></g></g><defs><path id="aF" d="M454.5-398.8h19v19h-19z"/></defs><clipPath id="aG"><use xlink:href="#aF" overflow="visible"/></clipPath><g clip-path="url(#aG)"><defs><path id="aH" d="M-499.5-947.8h1121v1030h-1121z"/></defs></g><defs><path id="aI" d="M430.5-423.3H429v12h12v-12h-10.5zm0 3h9l-1.5-1.5v9l1.5-1.5h-9l1.5 1.5v-9l-1.5 1.5zm-21.5-23h52v52h-52v-52z"/></defs><clipPath id="aJ"><use xlink:href="#aI" overflow="visible"/></clipPath><g clip-path="url(#aJ)"><defs><path id="aK" d="M430.5-421.8h9v9h-9z"/></defs><clipPath id="aL"><use xlink:href="#aK" overflow="visible"/></clipPath><g clip-path="url(#aL)"><defs><path id="aM" d="M-499.5-947.8h1121v1030h-1121z"/></defs></g></g><g><defs><path id="aN" d="M430.5-421.8h9v9h-9z"/></defs><clipPath id="aO"><use xlink:href="#aN" overflow="visible"/></clipPath><g clip-path="url(#aO)"><defs><path id="aP" d="M-499.5-947.8h1121v1030h-1121z"/></defs></g></g><g><defs><path id="aQ" d="M459.5-423.3H458v12h12v-12h-10.5zm0 3h9l-1.5-1.5v9l1.5-1.5h-9l1.5 1.5v-9l-1.5 1.5zm-21.5-23h52v52h-52v-52z"/></defs><clipPath id="aR"><use xlink:href="#aQ" overflow="visible"/></clipPath><g clip-path="url(#aR)"><defs><path id="aS" d="M459.5-421.8h9v9h-9z"/></defs><clipPath id="aT"><use xlink:href="#aS" overflow="visible"/></clipPath><g clip-path="url(#aT)"><defs><path id="aU" d="M-499.5-947.8h1121v1030h-1121z"/></defs></g></g></g><g><defs><path id="aV" d="M459.5-421.8h9v9h-9z"/></defs><clipPath id="aW"><use xlink:href="#aV" overflow="visible"/></clipPath><g clip-path="url(#aW)"><defs><path id="aX" d="M-499.5-947.8h1121v1030h-1121z"/></defs></g></g><g><defs><path id="aY" d="M430.5-395.3H429v12h12v-12h-10.5zm0 3h9l-1.5-1.5v9l1.5-1.5h-9l1.5 1.5v-9l-1.5 1.5zm-21.5-23h52v52h-52v-52z"/></defs><clipPath id="aZ"><use xlink:href="#aY" overflow="visible"/></clipPath><g clip-path="url(#aZ)"><defs><path id="ba" d="M430.5-393.8h9v9h-9z"/></defs><clipPath id="bb"><use xlink:href="#ba" overflow="visible"/></clipPath><g clip-path="url(#bb)"><defs><path id="bc" d="M-499.5-947.8h1121v1030h-1121z"/></defs></g></g></g><g><defs><path id="bd" d="M430.5-393.8h9v9h-9z"/></defs><clipPath id="be"><use xlink:href="#bd" overflow="visible"/></clipPath><g clip-path="url(#be)"><defs><path id="bf" d="M-499.5-947.8h1121v1030h-1121z"/></defs></g></g><g><defs><path id="bg" d="M459.5-395.3H458v12h12v-12h-10.5zm0 3h9l-1.5-1.5v9l1.5-1.5h-9l1.5 1.5v-9l-1.5 1.5zm-21.5-23h52v52h-52v-52z"/></defs><clipPath id="bh"><use xlink:href="#bg" overflow="visible"/></clipPath><g clip-path="url(#bh)"><defs><path id="bi" d="M459.5-393.8h9v9h-9z"/></defs><clipPath id="bj"><use xlink:href="#bi" overflow="visible"/></clipPath><g clip-path="url(#bj)"><defs><path id="bk" d="M-499.5-947.8h1121v1030h-1121z"/></defs></g></g></g><g><defs><path id="bl" d="M459.5-393.8h9v9h-9z"/></defs><clipPath id="bm"><use xlink:href="#bl" overflow="visible"/></clipPath><g clip-path="url(#bm)"><defs><path id="bn" d="M-499.5-947.8h1121v1030h-1121z"/></defs></g></g><g><defs><circle id="bo" cx="428.1" cy="560.5" r="43.5"/></defs><defs><path id="bp" d="M428.1 605.5c-24.8 0-45-20.2-45-45s20.2-45 45-45 45 20.2 45 45-20.1 45-45 45zm0-87c-23.2 0-42 18.8-42 42s18.8 42 42 42 42-18.8 42-42-18.8-42-42-42z"/></defs><use xlink:href="#bo" overflow="visible" fill-rule="evenodd" clip-rule="evenodd" fill="#FFF"/><use xlink:href="#bp" overflow="visible" fill="#0F1F2D"/><clipPath id="bq"><use xlink:href="#bo" overflow="visible"/></clipPath><clipPath id="br" clip-path="url(#bq)"><use xlink:href="#bp" overflow="visible"/></clipPath><g clip-path="url(#br)"><defs><path id="bs" d="M253.6-175.5h1121v1030h-1121z"/></defs><defs><path id="bt" d="M1376.1 856h-1124V-177h1124V856zm-1121-3h1118V-174h-1118V853z"/></defs><use xlink:href="#bs" overflow="visible" fill="#FFF"/><use xlink:href="#bt" overflow="visible" fill="#0F1F2D"/><clipPath id="bu"><use xlink:href="#bs" overflow="visible"/></clipPath></g></g><g><path fill="#FFF" d="M84.7 30.4h119.7v87.9H84.7z"/><path fill="#091F2F" d="M205.9 119.8H83.2V28.9h122.7v90.9zm-119.7-3h116.7V31.9H86.2v84.9z"/></g><g><path fill="#FFF" d="M118.3 98.5l-6.7-4.6-7.7 4.6V56.3h14.4z"/><path fill="#091F2F" d="M119.8 101.3l-8.3-5.6-9.1 5.4V54.8h17.4v46.5zm-14.4-43.5v38l6.2-3.7 5.2 3.5V57.8h-11.4z"/></g><g><circle fill="#FFF" cx="110.8" cy="59.3" r="12.1"/><path fill="#091F2F" d="M110.8 72.8c-7.5 0-13.6-6.1-13.6-13.6s6.1-13.6 13.6-13.6 13.6 6.1 13.6 13.6-6.1 13.6-13.6 13.6zm0-24.1c-5.8 0-10.6 4.7-10.6 10.6s4.7 10.6 10.6 10.6 10.6-4.7 10.6-10.6-4.8-10.6-10.6-10.6z"/></g><g><path fill="#091F2F" d="M139 49.4h47v3h-47z"/></g><g><path fill="#091F2F" d="M139 61.4h47v3h-47z"/></g><g><path fill="#091F2F" d="M139 73.4h47v3h-47z"/></g><g><path fill="#091F2F" d="M139 85.4h47v3h-47z"/></g><g><path fill="#091F2F" d="M139 97.4h47v3h-47z"/></g><g><path fill="#0F1F2D" d="M110.8 66.9c-.8 0-1.5-.7-1.5-1.5V53.1c0-.8.7-1.5 1.5-1.5s1.5.7 1.5 1.5v12.2c0 .9-.7 1.6-1.5 1.6z"/></g><g><path fill="#0F1F2D" d="M116.9 60.8h-12.2c-.8 0-1.5-.7-1.5-1.5s.7-1.5 1.5-1.5h12.2c.8 0 1.5.7 1.5 1.5s-.6 1.5-1.5 1.5z"/></g><g><defs><path id="bv" d="M387.4 367.1h-1.5v84h108v-84H387.4zm0 3h105l-1.5-1.5v81l1.5-1.5h-105l1.5 1.5v-81l-1.5 1.5zm-21.5-23h148v124h-148v-124z"/></defs><clipPath id="bw"><use xlink:href="#bv" overflow="visible"/></clipPath><g clip-path="url(#bw)"><defs><path id="bx" d="M387.4 368.6h105v81h-105z"/></defs><clipPath id="by"><use xlink:href="#bx" overflow="visible"/></clipPath><g clip-path="url(#by)"><defs><path id="bz" d="M-493.6-130.4h1121v1030h-1121z"/></defs></g></g></g><g><defs><path id="bA" d="M387.4 368.6h105v81h-105z"/></defs><clipPath id="bB"><use xlink:href="#bA" overflow="visible"/></clipPath><g clip-path="url(#bB)"><defs><path id="bC" d="M-493.6-130.4h1121v1030h-1121z"/></defs></g></g><g><defs><path id="bD" d="M381.4 384.1h-2.2l.9-2.1 9.1-22 .4-.9h100.9l.4.9 9.1 22 .9 2.1H381.4zm0-3h117l-1.4 2.1-9.1-22 1.4.9h-98.9l1.4-.9-9.1 22-1.3-2.1zm-22.3 23h161.5v-65H359.1v65z"/></defs><clipPath id="bE"><use xlink:href="#bD" overflow="visible"/></clipPath><g clip-path="url(#bE)"><defs><path id="bF" d="M381.4 382.6h117l-9.1-22h-98.8z"/></defs><clipPath id="bG"><use xlink:href="#bF" overflow="visible"/></clipPath><g clip-path="url(#bG)"><defs><path id="bH" d="M-493.6-130.4h1121v1030h-1121z"/></defs></g></g></g><g><defs><path id="bI" d="M381.4 382.6h117l-9.1-22h-98.8z"/></defs><clipPath id="bJ"><use xlink:href="#bI" overflow="visible"/></clipPath><g clip-path="url(#bJ)"><defs><path id="bK" d="M-493.6-130.4h1121v1030h-1121z"/></defs></g></g><g><defs><path id="bL" d="M466.4 351.1h-1.5v19h15v-19h-13.5zm0 3h12l-1.5-1.5v16l1.5-1.5h-12l1.5 1.5v-16l-1.5 1.5zm-21.5-23h55v59h-55v-59z"/></defs><clipPath id="bM"><use xlink:href="#bL" overflow="visible"/></clipPath><g clip-path="url(#bM)"><defs><path id="bN" d="M466.4 352.6h12v16h-12z"/></defs><clipPath id="bO"><use xlink:href="#bN" overflow="visible"/></clipPath><g clip-path="url(#bO)"><defs><path id="bP" d="M-493.6-130.4h1121v1030h-1121z"/></defs></g></g></g><g><defs><path id="bQ" d="M466.4 352.6h12v16h-12z"/></defs><clipPath id="bR"><use xlink:href="#bQ" overflow="visible"/></clipPath><g clip-path="url(#bR)"><defs><path id="bS" d="M-493.6-130.4h1121v1030h-1121z"/></defs></g></g><g><defs><path id="bT" d="M400.4 417.1h-1.5v34h24v-34h-22.5zm0 3h21l-1.5-1.5v31l1.5-1.5h-21l1.5 1.5v-31l-1.5 1.5zm-21.5-23h64v74h-64v-74z"/></defs><clipPath id="bU"><use xlink:href="#bT" overflow="visible"/></clipPath><g clip-path="url(#bU)"><defs><path id="bV" d="M400.4 418.6h21v31h-21z"/></defs><clipPath id="bW"><use xlink:href="#bV" overflow="visible"/></clipPath><g clip-path="url(#bW)"><defs><path id="bX" d="M-493.6-130.4h1121v1030h-1121z"/></defs></g></g></g><g><defs><path id="bY" d="M400.4 418.6h21v31h-21z"/></defs><clipPath id="bZ"><use xlink:href="#bY" overflow="visible"/></clipPath><g clip-path="url(#bZ)"><defs><path id="ca" d="M-493.6-130.4h1121v1030h-1121z"/></defs></g></g><g><defs><path id="cb" d="M401.4 389.1h-1.5v22h22v-22h-20.5zm0 3h19l-1.5-1.5v19l1.5-1.5h-19l1.5 1.5v-19l-1.5 1.5zm-21.5-23h62v62h-62v-62z"/></defs><clipPath id="cc"><use xlink:href="#cb" overflow="visible"/></clipPath><g clip-path="url(#cc)"><defs><path id="cd" d="M401.4 390.6h19v19h-19z"/></defs><clipPath id="ce"><use xlink:href="#cd" overflow="visible"/></clipPath><g clip-path="url(#ce)"><defs><path id="cf" d="M-493.6-130.4h1121v1030h-1121z"/></defs></g></g></g><g><defs><path id="cg" d="M401.4 390.6h19v19h-19z"/></defs><clipPath id="ch"><use xlink:href="#cg" overflow="visible"/></clipPath><g clip-path="url(#ch)"><defs><path id="ci" d="M-493.6-130.4h1121v1030h-1121z"/></defs></g></g><g><defs><path id="cj" d="M406.4 394.1h-1.5v12h12v-12h-10.5zm0 3h9l-1.5-1.5v9l1.5-1.5h-9l1.5 1.5v-9l-1.5 1.5zm-21.5-23h52v52h-52v-52z"/></defs><clipPath id="ck"><use xlink:href="#cj" overflow="visible"/></clipPath><g clip-path="url(#ck)"><defs><path id="cl" d="M406.4 395.6h9v9h-9z"/></defs><clipPath id="cm"><use xlink:href="#cl" overflow="visible"/></clipPath><g clip-path="url(#cm)"><defs><path id="cn" d="M-493.6-130.4h1121v1030h-1121z"/></defs></g></g></g><g><defs><path id="co" d="M406.4 395.6h9v9h-9z"/></defs><clipPath id="cp"><use xlink:href="#co" overflow="visible"/></clipPath><g clip-path="url(#cp)"><defs><path id="cq" d="M-493.6-130.4h1121v1030h-1121z"/></defs></g></g><g><defs><path id="cr" d="M431.4 389.1h-1.5v22h22v-22h-20.5zm0 3h19l-1.5-1.5v19l1.5-1.5h-19l1.5 1.5v-19l-1.5 1.5zm-21.5-23h62v62h-62v-62z"/></defs><clipPath id="cs"><use xlink:href="#cr" overflow="visible"/></clipPath><g clip-path="url(#cs)"><defs><path id="ct" d="M431.4 390.6h19v19h-19z"/></defs><clipPath id="cu"><use xlink:href="#ct" overflow="visible"/></clipPath><g clip-path="url(#cu)"><defs><path id="cv" d="M-493.6-130.4h1121v1030h-1121z"/></defs></g></g></g><g><defs><path id="cw" d="M431.4 390.6h19v19h-19z"/></defs><clipPath id="cx"><use xlink:href="#cw" overflow="visible"/></clipPath><g clip-path="url(#cx)"><defs><path id="cy" d="M-493.6-130.4h1121v1030h-1121z"/></defs></g></g><g><defs><path id="cz" d="M460.4 389.1h-1.5v22h22v-22h-20.5zm0 3h19l-1.5-1.5v19l1.5-1.5h-19l1.5 1.5v-19l-1.5 1.5zm-21.5-23h62v62h-62v-62z"/></defs><clipPath id="cA"><use xlink:href="#cz" overflow="visible"/></clipPath><g clip-path="url(#cA)"><defs><path id="cB" d="M460.4 390.6h19v19h-19z"/></defs><clipPath id="cC"><use xlink:href="#cB" overflow="visible"/></clipPath><g clip-path="url(#cC)"><defs><path id="cD" d="M-493.6-130.4h1121v1030h-1121z"/></defs></g></g></g><g><defs><path id="cE" d="M460.4 390.6h19v19h-19z"/></defs><clipPath id="cF"><use xlink:href="#cE" overflow="visible"/></clipPath><g clip-path="url(#cF)"><defs><path id="cG" d="M-493.6-130.4h1121v1030h-1121z"/></defs></g></g><g><defs><path id="cH" d="M431.4 417.1h-1.5v22h22v-22h-20.5zm0 3h19l-1.5-1.5v19l1.5-1.5h-19l1.5 1.5v-19l-1.5 1.5zm-21.5-23h62v62h-62v-62z"/></defs><clipPath id="cI"><use xlink:href="#cH" overflow="visible"/></clipPath><g clip-path="url(#cI)"><defs><path id="cJ" d="M431.4 418.6h19v19h-19z"/></defs><clipPath id="cK"><use xlink:href="#cJ" overflow="visible"/></clipPath><g clip-path="url(#cK)"><defs><path id="cL" d="M-493.6-130.4h1121v1030h-1121z"/></defs></g></g></g><g><defs><path id="cM" d="M431.4 418.6h19v19h-19z"/></defs><clipPath id="cN"><use xlink:href="#cM" overflow="visible"/></clipPath><g clip-path="url(#cN)"><defs><path id="cO" d="M-493.6-130.4h1121v1030h-1121z"/></defs></g></g><g><defs><path id="cP" d="M460.4 417.1h-1.5v22h22v-22h-20.5zm0 3h19l-1.5-1.5v19l1.5-1.5h-19l1.5 1.5v-19l-1.5 1.5zm-21.5-23h62v62h-62v-62z"/></defs><clipPath id="cQ"><use xlink:href="#cP" overflow="visible"/></clipPath><g clip-path="url(#cQ)"><defs><path id="cR" d="M460.4 418.6h19v19h-19z"/></defs><clipPath id="cS"><use xlink:href="#cR" overflow="visible"/></clipPath><g clip-path="url(#cS)"><defs><path id="cT" d="M-493.6-130.4h1121v1030h-1121z"/></defs></g></g></g><g><defs><path id="cU" d="M460.4 418.6h19v19h-19z"/></defs><clipPath id="cV"><use xlink:href="#cU" overflow="visible"/></clipPath><g clip-path="url(#cV)"><defs><path id="cW" d="M-493.6-130.4h1121v1030h-1121z"/></defs></g></g><g><defs><path id="cX" d="M436.4 394.1h-1.5v12h12v-12h-10.5zm0 3h9l-1.5-1.5v9l1.5-1.5h-9l1.5 1.5v-9l-1.5 1.5zm-21.5-23h52v52h-52v-52z"/></defs><clipPath id="cY"><use xlink:href="#cX" overflow="visible"/></clipPath><g clip-path="url(#cY)"><defs><path id="cZ" d="M436.4 395.6h9v9h-9z"/></defs><clipPath id="da"><use xlink:href="#cZ" overflow="visible"/></clipPath><g clip-path="url(#da)"><defs><path id="db" d="M-493.6-130.4h1121v1030h-1121z"/></defs></g></g></g><g><defs><path id="dc" d="M436.4 395.6h9v9h-9z"/></defs><clipPath id="dd"><use xlink:href="#dc" overflow="visible"/></clipPath><g clip-path="url(#dd)"><defs><path id="de" d="M-493.6-130.4h1121v1030h-1121z"/></defs></g></g><g><defs><path id="df" d="M465.4 394.1h-1.5v12h12v-12h-10.5zm0 3h9l-1.5-1.5v9l1.5-1.5h-9l1.5 1.5v-9l-1.5 1.5zm-21.5-23h52v52h-52v-52z"/></defs><clipPath id="dg"><use xlink:href="#df" overflow="visible"/></clipPath><g clip-path="url(#dg)"><defs><path id="dh" d="M465.4 395.6h9v9h-9z"/></defs><clipPath id="di"><use xlink:href="#dh" overflow="visible"/></clipPath><g clip-path="url(#di)"><defs><path id="dj" d="M-493.6-130.4h1121v1030h-1121z"/></defs></g></g></g><g><defs><path id="dk" d="M465.4 395.6h9v9h-9z"/></defs><clipPath id="dl"><use xlink:href="#dk" overflow="visible"/></clipPath><g clip-path="url(#dl)"><defs><path id="dm" d="M-493.6-130.4h1121v1030h-1121z"/></defs></g></g><g><defs><path id="dn" d="M436.4 422.1h-1.5v12h12v-12h-10.5zm0 3h9l-1.5-1.5v9l1.5-1.5h-9l1.5 1.5v-9l-1.5 1.5zm-21.5-23h52v52h-52v-52z"/></defs><clipPath id="do"><use xlink:href="#dn" overflow="visible"/></clipPath><g clip-path="url(#do)"><defs><path id="dp" d="M436.4 423.6h9v9h-9z"/></defs><clipPath id="dq"><use xlink:href="#dp" overflow="visible"/></clipPath><g clip-path="url(#dq)"><defs><path id="dr" d="M-493.6-130.4h1121v1030h-1121z"/></defs></g></g></g><g><defs><path id="ds" d="M436.4 423.6h9v9h-9z"/></defs><clipPath id="dt"><use xlink:href="#ds" overflow="visible"/></clipPath><g clip-path="url(#dt)"><defs><path id="du" d="M-493.6-130.4h1121v1030h-1121z"/></defs></g></g><g><defs><path id="dv" d="M465.4 422.1h-1.5v12h12v-12h-10.5zm0 3h9l-1.5-1.5v9l1.5-1.5h-9l1.5 1.5v-9l-1.5 1.5zm-21.5-23h52v52h-52v-52z"/></defs><clipPath id="dw"><use xlink:href="#dv" overflow="visible"/></clipPath><g clip-path="url(#dw)"><defs><path id="dx" d="M465.4 423.6h9v9h-9z"/></defs><clipPath id="dy"><use xlink:href="#dx" overflow="visible"/></clipPath><g clip-path="url(#dy)"><defs><path id="dz" d="M-493.6-130.4h1121v1030h-1121z"/></defs></g></g></g><g><defs><path id="dA" d="M465.4 423.6h9v9h-9z"/></defs><clipPath id="dB"><use xlink:href="#dA" overflow="visible"/></clipPath><g clip-path="url(#dB)"><defs><path id="dC" d="M-493.6-130.4h1121v1030h-1121z"/></defs></g></g></svg>