<svg xmlns="http://www.w3.org/2000/svg" xmlns:xlink="http://www.w3.org/1999/xlink" viewBox="0 0 276 137"><defs><path id="a" d="M138.7-189.5c-24.6 0-44.6-20-44.6-44.6s20-44.6 44.6-44.6 44.6 20 44.6 44.6-20 44.6-44.6 44.6zm0 2.7c26.1 0 47.3-21.2 47.3-47.3s-21.2-47.3-47.3-47.3-47.3 21.2-47.3 47.3 21.2 47.3 47.3 47.3zM73.2-299.6h131v131h-131v-131z"/></defs><clipPath id="b"><use xlink:href="#a" overflow="visible"/></clipPath><g clip-path="url(#b)"><defs><circle id="c" cx="138.7" cy="-234.1" r="45.9"/></defs></g><defs><circle id="d" cx="138.7" cy="-234.1" r="45.9"/></defs><defs><circle id="e" cx="138.7" cy="-234.1" r="39.6"/></defs><defs><path id="f" d="M677.5-122.8H676v84h108v-84H677.5zm0 3h105l-1.5-1.5v81l1.5-1.5h-105l1.5 1.5v-81l-1.5 1.5zm-21.5-23h148v124H656v-124z"/></defs><clipPath id="g"><use xlink:href="#f" overflow="visible"/></clipPath><g clip-path="url(#g)"><defs><path id="h" d="M677.5-121.3h105v81h-105z"/></defs></g><defs><path id="i" d="M677.5-121.3h105v81h-105z"/></defs><defs><path id="j" d="M671.5-105.8h-2.2l.9-2.1 9.1-22 .4-.9h100.9l.4.9 9.1 22 .9 2.1H671.5zm0-3h117l-1.4 2.1-9.1-22 1.4.9h-98.9l1.4-.9-9.1 22-1.3-2.1zm-22.2 23h161.5v-65H649.3v65z"/></defs><clipPath id="k"><use xlink:href="#j" overflow="visible"/></clipPath><g clip-path="url(#k)"><defs><path id="l" d="M671.5-107.3h117l-9.1-22h-98.8z"/></defs></g><defs><path id="m" d="M671.5-107.3h117l-9.1-22h-98.8z"/></defs><defs><path id="n" d="M756.5-138.8H755v19h15v-19h-13.5zm0 3h12l-1.5-1.5v16l1.5-1.5h-12l1.5 1.5v-16l-1.5 1.5zm-21.5-23h55v59h-55v-59z"/></defs><clipPath id="o"><use xlink:href="#n" overflow="visible"/></clipPath><g clip-path="url(#o)"><defs><path id="p" d="M756.5-137.3h12v16h-12z"/></defs></g><defs><path id="q" d="M756.5-137.3h12v16h-12z"/></defs><defs><path id="r" d="M690.5-72.8H689v34h24v-34h-22.5zm0 3h21l-1.5-1.5v31l1.5-1.5h-21l1.5 1.5v-31l-1.5 1.5zm-21.5-23h64v74h-64v-74z"/></defs><clipPath id="s"><use xlink:href="#r" overflow="visible"/></clipPath><g clip-path="url(#s)"><defs><path id="t" d="M690.5-71.3h21v31h-21z"/></defs></g><defs><path id="u" d="M690.5-71.3h21v31h-21z"/></defs><defs><path id="v" d="M691.5-100.8H690v22h22v-22h-20.5zm0 3h19l-1.5-1.5v19l1.5-1.5h-19l1.5 1.5v-19l-1.5 1.5zm-21.5-23h62v62h-62v-62z"/></defs><clipPath id="w"><use xlink:href="#v" overflow="visible"/></clipPath><g clip-path="url(#w)"><defs><path id="x" d="M691.5-99.3h19v19h-19z"/></defs></g><defs><path id="y" d="M691.5-99.3h19v19h-19z"/></defs><defs><path id="z" d="M696.5-95.8H695v12h12v-12h-10.5zm0 3h9l-1.5-1.5v9l1.5-1.5h-9l1.5 1.5v-9l-1.5 1.5zm-21.5-23h52v52h-52v-52z"/></defs><clipPath id="A"><use xlink:href="#z" overflow="visible"/></clipPath><g clip-path="url(#A)"><defs><path id="B" d="M696.5-94.3h9v9h-9z"/></defs></g><defs><path id="C" d="M696.5-94.3h9v9h-9z"/></defs><defs><path id="D" d="M721.5-100.8H720v22h22v-22h-20.5zm0 3h19l-1.5-1.5v19l1.5-1.5h-19l1.5 1.5v-19l-1.5 1.5zm-21.5-23h62v62h-62v-62z"/></defs><clipPath id="E"><use xlink:href="#D" overflow="visible"/></clipPath><g clip-path="url(#E)"><defs><path id="F" d="M721.5-99.3h19v19h-19z"/></defs></g><defs><path id="G" d="M721.5-99.3h19v19h-19z"/></defs><defs><path id="H" d="M750.5-100.8H749v22h22v-22h-20.5zm0 3h19l-1.5-1.5v19l1.5-1.5h-19l1.5 1.5v-19l-1.5 1.5zm-21.5-23h62v62h-62v-62z"/></defs><clipPath id="I"><use xlink:href="#H" overflow="visible"/></clipPath><g clip-path="url(#I)"><defs><path id="J" d="M750.5-99.3h19v19h-19z"/></defs></g><defs><path id="K" d="M750.5-99.3h19v19h-19z"/></defs><defs><path id="L" d="M721.5-72.8H720v22h22v-22h-20.5zm0 3h19l-1.5-1.5v19l1.5-1.5h-19l1.5 1.5v-19l-1.5 1.5zm-21.5-23h62v62h-62v-62z"/></defs><clipPath id="M"><use xlink:href="#L" overflow="visible"/></clipPath><g clip-path="url(#M)"><defs><path id="N" d="M721.5-71.3h19v19h-19z"/></defs></g><defs><path id="O" d="M721.5-71.3h19v19h-19z"/></defs><defs><path id="P" d="M750.5-72.8H749v22h22v-22h-20.5zm0 3h19l-1.5-1.5v19l1.5-1.5h-19l1.5 1.5v-19l-1.5 1.5zm-21.5-23h62v62h-62v-62z"/></defs><clipPath id="Q"><use xlink:href="#P" overflow="visible"/></clipPath><g clip-path="url(#Q)"><defs><path id="R" d="M750.5-71.3h19v19h-19z"/></defs></g><defs><path id="S" d="M750.5-71.3h19v19h-19z"/></defs><defs><path id="T" d="M726.5-95.8H725v12h12v-12h-10.5zm0 3h9l-1.5-1.5v9l1.5-1.5h-9l1.5 1.5v-9l-1.5 1.5zm-21.5-23h52v52h-52v-52z"/></defs><clipPath id="U"><use xlink:href="#T" overflow="visible"/></clipPath><g clip-path="url(#U)"><defs><path id="V" d="M726.5-94.3h9v9h-9z"/></defs></g><defs><path id="W" d="M726.5-94.3h9v9h-9z"/></defs><defs><path id="X" d="M755.5-95.8H754v12h12v-12h-10.5zm0 3h9l-1.5-1.5v9l1.5-1.5h-9l1.5 1.5v-9l-1.5 1.5zm-21.5-23h52v52h-52v-52z"/></defs><clipPath id="Y"><use xlink:href="#X" overflow="visible"/></clipPath><g clip-path="url(#Y)"><defs><path id="Z" d="M755.5-94.3h9v9h-9z"/></defs></g><defs><path id="aa" d="M755.5-94.3h9v9h-9z"/></defs><defs><path id="ab" d="M726.5-67.8H725v12h12v-12h-10.5zm0 3h9l-1.5-1.5v9l1.5-1.5h-9l1.5 1.5v-9l-1.5 1.5zm-21.5-23h52v52h-52v-52z"/></defs><clipPath id="ac"><use xlink:href="#ab" overflow="visible"/></clipPath><g clip-path="url(#ac)"><defs><path id="ad" d="M726.5-66.3h9v9h-9z"/></defs></g><defs><path id="ae" d="M726.5-66.3h9v9h-9z"/></defs><defs><path id="af" d="M755.5-67.8H754v12h12v-12h-10.5zm0 3h9l-1.5-1.5v9l1.5-1.5h-9l1.5 1.5v-9l-1.5 1.5zm-21.5-23h52v52h-52v-52z"/></defs><clipPath id="ag"><use xlink:href="#af" overflow="visible"/></clipPath><g clip-path="url(#ag)"><defs><path id="ah" d="M755.5-66.3h9v9h-9z"/></defs></g><g><defs><path id="ai" d="M755.5-66.3h9v9h-9z"/></defs></g><path fill="#FFF" stroke="#091F2F" stroke-width="3" stroke-miterlimit="10" d="M147 33h30.7v80.1H147zm0-10.2h30.7v4.7H147z"/><path fill="#FFF" stroke="#091F2F" stroke-width="3" stroke-miterlimit="10" d="M144.8 90.7h44.4v22.5h-44.4zm-46-44.1h34.1v66.5H98.8z"/><path fill="#FFF" stroke="#091F2F" stroke-width="3" stroke-miterlimit="10" d="M126.8 77.3h30.5v35.8h-30.5zm6-30v-.5c0-9.4-7.6-17-17-17s-17 7.6-17 17v.5h34z"/><path fill="#FFF" stroke="#091F2F" stroke-width="3" stroke-miterlimit="10" d="M121.8 47.3v-.5c0-9.4-2.8-17-6.2-17-3.4 0-6.2 7.6-6.2 17v.5h12.4zM96.4 93.9h4.7v19.3h-4.7z"/><path fill="none" stroke="#091F2F" stroke-width="3" stroke-miterlimit="10" d="M150.5 27v5m23-5v5"/><path fill="#FFF" stroke="#091F2F" stroke-width="3" stroke-miterlimit="10" d="M85.8 69.1h25.9V95H85.8z"/><path fill="#FFF" stroke="#091F2F" stroke-width="3" stroke-miterlimit="10" d="M92.5 87.5l5.9-10.2 5.9 10.2z"/></svg>