<svg xmlns="http://www.w3.org/2000/svg" xmlns:xlink="http://www.w3.org/1999/xlink" viewBox="0 0 276 137"><defs><path id="a" d="M-159.9-152.6c30.3 0 55 7.1 55 14.8v22l1.7-1.5c-.1 0-.2 0-.4-.1-.4-.1-.8-.1-1.3-.2-1.4-.2-2.9-.4-4.6-.6-4.9-.7-10-1.3-15.2-2-3.9-.5-7.7-.9-11.3-1.3-9.9-1-18.1-1.6-23.9-1.6-5.2 0-14.3.8-26.1 2.3-2.5.3-5.1.6-7.7 1-5.4.7-10.9 1.5-16.1 2.3-1.8.3-3.5.5-5 .8-.5.1-1 .2-1.4.2-.2 0-.4.1-.5.1l1.7 1.5v-23c.1-7.6 24.8-14.7 55.1-14.7zm0-3c-32.1 0-58 7.5-58 17.8v24.8l1.7-.3c.1 0 .2 0 .5-.1.4-.1.8-.1 1.4-.2 1.5-.2 3.1-.5 5-.8 5.2-.8 10.7-1.6 16.1-2.3 2.6-.4 5.2-.7 7.7-1 11.7-1.5 20.7-2.3 25.7-2.3 5.6 0 13.7.6 23.6 1.6 3.6.4 7.4.8 11.2 1.3 5.2.6 10.3 1.3 15.2 2 1.7.2 3.2.4 4.6.6.5.1.9.1 1.2.2.2 0 .4.1.4.1l1.7.3v-23.7c0-10.6-25.9-18-58-18zm-78-20h156v82.5h-156v-82.5z"/></defs><clipPath id="b"><use xlink:href="#a" overflow="visible"/></clipPath><g clip-path="url(#b)"><defs><path id="c" d="M-159.9-154.1c-31.2 0-56.5 7.3-56.5 16.3v23s42.2-6.7 56.5-6.7c18 0 56.5 5.7 56.5 5.7v-22c0-9-25.3-16.3-56.5-16.3z"/></defs><clipPath id="d"><use xlink:href="#c" overflow="visible"/></clipPath><g clip-path="url(#d)"><defs><path id="e" d="M-1075.4-236.9h1121v1030h-1121z"/></defs></g></g><defs><path id="f" d="M-159.9-154.1c-31.2 0-56.5 7.3-56.5 16.3v23s42.2-6.7 56.5-6.7c18 0 56.5 5.7 56.5 5.7v-22c0-9-25.3-16.3-56.5-16.3z"/></defs><clipPath id="g"><use xlink:href="#f" overflow="visible"/></clipPath><g clip-path="url(#g)"><defs><path id="h" d="M-1075.4-236.9h1121v1030h-1121z"/></defs></g><defs><path id="i" d="M-159.9-130.4c30.3 0 55 7.1 55 14.8s-24.7 14.8-55 14.8-55-7.1-55-14.8 24.7-14.8 55-14.8zm0-3c-32.1 0-58 7.5-58 17.8s25.9 17.8 58 17.8 58-7.5 58-17.8-25.9-17.8-58-17.8zm-78-20h156v75.6h-156v-75.6z"/></defs><clipPath id="j"><use xlink:href="#i" overflow="visible"/></clipPath><g clip-path="url(#j)"><defs><ellipse id="k" cx="-159.9" cy="-115.5" rx="56.5" ry="16.3"/></defs><clipPath id="l"><use xlink:href="#k" overflow="visible"/></clipPath><g clip-path="url(#l)"><defs><path id="m" d="M-1075.4-236.9h1121v1030h-1121z"/></defs></g></g><defs><ellipse id="n" cx="-159.9" cy="-115.5" rx="56.5" ry="16.3"/></defs><clipPath id="o"><use xlink:href="#n" overflow="visible"/></clipPath><g clip-path="url(#o)"><defs><path id="p" d="M-1075.4-236.9h1121v1030h-1121z"/></defs></g><defs><path id="q" d="M-199.9-111.2c0-5.3 18-10.4 40-10.4s40 5.2 40 10.4v7.1l1.2-1.5c-.1 0-.1 0-.3.1-.3 0-.6.1-.9.2-1 .2-2.1.3-3.4.5-3.6.6-7.3 1.1-11.1 1.7-2.9.4-5.6.8-8.3 1.1-7.2.9-13.1 1.3-17.2 1.3-3.7 0-10.3-.5-18.9-1.4-1.8-.2-3.7-.4-5.6-.6-4-.5-8-.9-11.8-1.4-1.3-.2-2.6-.3-3.6-.5-.4 0-.7-.1-1-.1h-.3l1.3 1.5v-8zm-3 0v9.1l1.3.2h.4c.3 0 .6.1 1 .1 1.1.1 2.3.3 3.7.5a11776882415803102 11776882415803102 0 0 0 36.7 3.5c4.3 0 10.3-.5 17.6-1.4 2.7-.3 5.4-.7 8.3-1.1 3.8-.5 7.6-1.1 11.2-1.7 1.3-.2 2.4-.4 3.4-.5.4-.1.7-.1.9-.2.3 0 .3 0 .3-.1l1.2-.2v-8.4c0-7.9-19.2-13.4-43-13.4s-43 5.7-43 13.6zm-20-33.4h126v66.9h-126v-66.9z"/></defs><clipPath id="r"><use xlink:href="#q" overflow="visible"/></clipPath><g clip-path="url(#r)"><defs><path id="s" d="M-201.4-111.2v7.8s31 4.1 41.5 4.1c13.2 0 41.5-4.8 41.5-4.8v-7.1c0-6.6-18.6-11.9-41.5-11.9s-41.5 5.3-41.5 11.9z"/></defs><clipPath id="t"><use xlink:href="#s" overflow="visible"/></clipPath><g clip-path="url(#t)"><defs><path id="u" d="M-1075.4-236.9h1121v1030h-1121z"/></defs></g></g><defs><path id="v" d="M-201.4-111.2v7.8s31 4.1 41.5 4.1c13.2 0 41.5-4.8 41.5-4.8v-7.1c0-6.6-18.6-11.9-41.5-11.9s-41.5 5.3-41.5 11.9z"/></defs><clipPath id="w"><use xlink:href="#v" overflow="visible"/></clipPath><g clip-path="url(#w)"><defs><path id="x" d="M-1075.4-236.9h1121v1030h-1121z"/></defs></g><defs><path id="y" d="M-159.9-113.3c22 0 40 5.2 40 10.4 0 5.3-18 10.4-40 10.4s-40-5.2-40-10.4 18-10.4 40-10.4zm0-3c-23.8 0-43 5.5-43 13.4s19.2 13.4 43 13.4 43-5.5 43-13.4-19.2-13.4-43-13.4zm-63-20h126v66.9h-126v-66.9z"/></defs><clipPath id="z"><use xlink:href="#y" overflow="visible"/></clipPath><g clip-path="url(#z)"><defs><ellipse id="A" cx="-159.9" cy="-102.9" rx="41.5" ry="11.9"/></defs><clipPath id="B"><use xlink:href="#A" overflow="visible"/></clipPath><g clip-path="url(#B)"><defs><path id="C" d="M-1075.4-236.9h1121v1030h-1121z"/></defs></g></g><defs><ellipse id="D" cx="-159.9" cy="-102.9" rx="41.5" ry="11.9"/></defs><clipPath id="E"><use xlink:href="#D" overflow="visible"/></clipPath><g clip-path="url(#E)"><defs><path id="F" d="M-1075.4-236.9h1121v1030h-1121z"/></defs></g><defs><path id="G" d="M-172.5-101.3c0 .4-.2.7-.4.8.1 0 .2-.1.4-.2.6-.2 1.6-.4 2.8-.6 2.6-.4 6-.6 9.8-.6s7.2.2 9.8.6c1.2.2 2.2.4 2.8.6l.4.2c-.2-.1-.4-.4-.4-.8s.2-.7.4-.8c-.1 0-.2.1-.4.2-.6.2-1.6.4-2.8.6-2.6.4-6 .6-9.8.6s-7.2-.2-9.8-.6c-1.2-.2-2.2-.4-2.8-.6l-.4-.2c.2.1.4.3.4.8zm-3 0c0 2.6 6.2 3.5 15.6 3.5 9.4 0 15.6-.9 15.6-3.5s-6.2-3.5-15.6-3.5c-9.4-.1-15.6.8-15.6 3.5zm-20-23.6h71.2v47.1h-71.2v-47.1z"/></defs><clipPath id="H"><use xlink:href="#G" overflow="visible"/></clipPath><g clip-path="url(#H)"><defs><ellipse id="I" cx="-159.9" cy="-101.3" rx="14.1" ry="2"/></defs><clipPath id="J"><use xlink:href="#I" overflow="visible"/></clipPath><g clip-path="url(#J)"><defs><path id="K" d="M-1075.4-236.9h1121v1030h-1121z"/></defs></g></g><defs><ellipse id="L" cx="-159.9" cy="-101.3" rx="14.1" ry="2"/></defs><clipPath id="M"><use xlink:href="#L" overflow="visible"/></clipPath><g clip-path="url(#M)"><defs><path id="N" d="M-1075.4-236.9h1121v1030h-1121z"/></defs></g><defs><path id="O" d="M-167.1-84s-10.5 3.3-9.1 12.3c.9 5.5 5.6 8.1 5.6 13.5s-4.6 9.5-4.6 9.5 13.5-.3 14.6-9.5c1.1-9.2-6.7-11.3-8.3-15.6-1.4-4.3 1.8-10.2 1.8-10.2z"/></defs><clipPath id="P"><use xlink:href="#O" overflow="visible"/></clipPath><g clip-path="url(#P)"><defs><path id="Q" d="M-1075.4-236.9h1121v1030h-1121z"/></defs></g><defs><path id="R" d="M-152-80.7s-15.1 4.8-13 17.6c1.2 7.9 8 11.6 8 19.4s-6.5 13.6-6.5 13.6 19.3-.5 20.9-13.6-9.6-16.1-11.8-22.3c-2.3-6.3 2.4-14.7 2.4-14.7z"/></defs><clipPath id="S"><use xlink:href="#R" overflow="visible"/></clipPath><g clip-path="url(#S)"><defs><path id="T" d="M-1075.4-236.9h1121v1030h-1121z"/></defs></g><defs><path id="U" d="M-803.5 29.5l-1.4.4.4 1.4 30.4 99.5.4 1.4 1.4-.4 60.2-18.4 1.4-.4-.4-1.4-30.4-99.5-.4-1.4-1.4.4-60.2 18.4zm.9 2.9l60.2-18.4-1.9-1 30.4 99.5 1-1.9-60.2 18.4 1.9 1-30.4-99.5-1 1.9zm-27.3-15.7l101.4-31 43 140.6-101.4 31-43-140.6z"/></defs><clipPath id="V"><use xlink:href="#U" overflow="visible"/></clipPath><g clip-path="url(#V)"><defs><path id="W" transform="rotate(162.999 -757.707 71.492)" d="M-789.2 19.5h63v104h-63z"/></defs><clipPath id="X"><use xlink:href="#W" overflow="visible"/></clipPath><g clip-path="url(#X)"><defs><path id="Y" d="M-933.2-278h1121V752h-1121z"/></defs></g></g><defs><path id="Z" transform="rotate(162.999 -757.707 71.492)" d="M-789.2 19.5h63v104h-63z"/></defs><clipPath id="aa"><use xlink:href="#Z" overflow="visible"/></clipPath><g clip-path="url(#aa)"><defs><path id="ab" d="M-933.2-278h1121V752h-1121z"/></defs></g><defs><path id="ac" d="M-768.2 6.5h-1.5v107h66V6.5h-64.5zm0 3h63l-1.5-1.5v104l1.5-1.5h-63l1.5 1.5V8l-1.5 1.5zm-21.5-23h106v147h-106v-147z"/></defs><clipPath id="ad"><use xlink:href="#ac" overflow="visible"/></clipPath><g clip-path="url(#ad)"><defs><path id="ae" d="M-768.2 8h63v104h-63z"/></defs><clipPath id="af"><use xlink:href="#ae" overflow="visible"/></clipPath><g clip-path="url(#af)"><defs><path id="ag" d="M-933.2-278h1121V752h-1121z"/></defs></g></g><defs><path id="ah" d="M-768.2 8h63v104h-63z"/></defs><clipPath id="ai"><use xlink:href="#ah" overflow="visible"/></clipPath><g clip-path="url(#ai)"><defs><path id="aj" d="M-933.2-278h1121V752h-1121z"/></defs></g><defs><path id="ak" d="M-759.2 36h44v13h-44z"/></defs><clipPath id="al"><use xlink:href="#ak" overflow="visible"/></clipPath><g clip-path="url(#al)"><defs><path id="am" d="M-933.2-278h1121V752h-1121z"/></defs></g><defs><path id="an" d="M-759.2 46h44v13h-44z"/></defs><clipPath id="ao"><use xlink:href="#an" overflow="visible"/></clipPath><g clip-path="url(#ao)"><defs><path id="ap" d="M-933.2-278h1121V752h-1121z"/></defs></g><defs><path id="aq" d="M-759.2 56h44v13h-44z"/></defs><clipPath id="ar"><use xlink:href="#aq" overflow="visible"/></clipPath><g clip-path="url(#ar)"><defs><path id="as" d="M-933.2-278h1121V752h-1121z"/></defs></g><defs><path id="at" d="M-759.2 66h44v14h-44z"/></defs><clipPath id="au"><use xlink:href="#at" overflow="visible"/></clipPath><g clip-path="url(#au)"><defs><path id="av" d="M-933.2-278h1121V752h-1121z"/></defs></g><defs><path id="aw" d="M-759.2 77h44v14h-44z"/></defs><clipPath id="ax"><use xlink:href="#aw" overflow="visible"/></clipPath><g clip-path="url(#ax)"><defs><path id="ay" d="M-933.2-278h1121V752h-1121z"/></defs></g><defs><path id="az" d="M-759.2 88h44v14h-44z"/></defs><clipPath id="aA"><use xlink:href="#az" overflow="visible"/></clipPath><g clip-path="url(#aA)"><defs><path id="aB" d="M-933.2-278h1121V752h-1121z"/></defs></g><defs><path id="aC" d="M-758.2 18h3v13h-3z"/></defs><clipPath id="aD"><use xlink:href="#aC" overflow="visible"/></clipPath><g clip-path="url(#aD)"><defs><path id="aE" d="M-933.2-278h1121V752h-1121z"/></defs></g><defs><path id="aF" d="M-753.2 18h3v13h-3z"/></defs><clipPath id="aG"><use xlink:href="#aF" overflow="visible"/></clipPath><g clip-path="url(#aG)"><defs><path id="aH" d="M-933.2-278h1121V752h-1121z"/></defs></g><defs><path id="aI" d="M-748.2 18h3v13h-3z"/></defs><clipPath id="aJ"><use xlink:href="#aI" overflow="visible"/></clipPath><g clip-path="url(#aJ)"><defs><path id="aK" d="M-933.2-278h1121V752h-1121z"/></defs></g><defs><path id="aL" d="M-743.2 18h3v13h-3z"/></defs><clipPath id="aM"><use xlink:href="#aL" overflow="visible"/></clipPath><g clip-path="url(#aM)"><defs><path id="aN" d="M-933.2-278h1121V752h-1121z"/></defs></g><defs><path id="aO" d="M-738.2 18h3v13h-3z"/></defs><clipPath id="aP"><use xlink:href="#aO" overflow="visible"/></clipPath><g clip-path="url(#aP)"><defs><path id="aQ" d="M-933.2-278h1121V752h-1121z"/></defs></g><defs><path id="aR" d="M-738.2 69h3v32h-3z"/></defs><clipPath id="aS"><use xlink:href="#aR" overflow="visible"/></clipPath><g clip-path="url(#aS)"><defs><path id="aT" d="M-933.2-278h1121V752h-1121z"/></defs></g><defs><path id="aU" d="M-733.2 18h3v13h-3z"/></defs><clipPath id="aV"><use xlink:href="#aU" overflow="visible"/></clipPath><g clip-path="url(#aV)"><defs><path id="aW" d="M-933.2-278h1121V752h-1121z"/></defs></g><g><defs><path id="aX" d="M-728.2 18h3v13h-3z"/></defs><clipPath id="aY"><use xlink:href="#aX" overflow="visible"/></clipPath><g clip-path="url(#aY)"><defs><path id="aZ" d="M-933.2-278h1121V752h-1121z"/></defs></g></g><g><defs><path id="ba" d="M-723.2 18h3v13h-3z"/></defs><clipPath id="bb"><use xlink:href="#ba" overflow="visible"/></clipPath><g clip-path="url(#bb)"><defs><path id="bc" d="M-933.2-278h1121V752h-1121z"/></defs></g></g><g><defs><path id="bd" d="M-718.2 18h3v13h-3z"/></defs><clipPath id="be"><use xlink:href="#bd" overflow="visible"/></clipPath><g clip-path="url(#be)"><defs><path id="bf" d="M-933.2-278h1121V752h-1121z"/></defs></g></g><g><defs><path id="bg" d="M-800.2 32.2l53.3 34.1-23.9 61.7"/></defs><clipPath id="bh"><use xlink:href="#bg" overflow="visible"/></clipPath><g clip-path="url(#bh)"><defs><path id="bi" d="M-933.2-278h1121V752h-1121z"/></defs></g></g><g><defs><path id="bj" d="M-498.5 6.5h-1.5v107h66V6.5h-64.5zm0 3h63L-437 8v104l1.5-1.5h-63l1.5 1.5V8l-1.5 1.5zm-21.5-23h106v147h-106v-147z"/></defs><clipPath id="bk"><use xlink:href="#bj" overflow="visible"/></clipPath><g clip-path="url(#bk)"><defs><path id="bl" d="M-498.5 8h63v104h-63z"/></defs><clipPath id="bm"><use xlink:href="#bl" overflow="visible"/></clipPath><g clip-path="url(#bm)"><defs><path id="bn" d="M-888.5-272h1121V758h-1121z"/></defs></g></g></g><g><defs><path id="bo" d="M-498.5 8h63v104h-63z"/></defs><clipPath id="bp"><use xlink:href="#bo" overflow="visible"/></clipPath><g clip-path="url(#bp)"><defs><path id="bq" d="M-888.5-272h1121V758h-1121z"/></defs></g></g><g><defs><path id="br" d="M-489.5 36h44v13h-44z"/></defs><clipPath id="bs"><use xlink:href="#br" overflow="visible"/></clipPath><g clip-path="url(#bs)"><defs><path id="bt" d="M-888.5-272h1121V758h-1121z"/></defs></g></g><g><defs><path id="bu" d="M-489.5 46h44v13h-44z"/></defs><clipPath id="bv"><use xlink:href="#bu" overflow="visible"/></clipPath><g clip-path="url(#bv)"><defs><path id="bw" d="M-888.5-272h1121V758h-1121z"/></defs></g></g><g><defs><path id="bx" d="M-489.5 56h44v13h-44z"/></defs><clipPath id="by"><use xlink:href="#bx" overflow="visible"/></clipPath><g clip-path="url(#by)"><defs><path id="bz" d="M-888.5-272h1121V758h-1121z"/></defs></g></g><g><defs><path id="bA" d="M-489.5 66h44v14h-44z"/></defs><clipPath id="bB"><use xlink:href="#bA" overflow="visible"/></clipPath><g clip-path="url(#bB)"><defs><path id="bC" d="M-888.5-272h1121V758h-1121z"/></defs></g></g><g><defs><path id="bD" d="M-489.5 77h44v14h-44z"/></defs><clipPath id="bE"><use xlink:href="#bD" overflow="visible"/></clipPath><g clip-path="url(#bE)"><defs><path id="bF" d="M-888.5-272h1121V758h-1121z"/></defs></g></g><g><defs><path id="bG" d="M-489.5 88h44v14h-44z"/></defs><clipPath id="bH"><use xlink:href="#bG" overflow="visible"/></clipPath><g clip-path="url(#bH)"><defs><path id="bI" d="M-888.5-272h1121V758h-1121z"/></defs></g></g><g><defs><path id="bJ" d="M-488.5 18h3v13h-3z"/></defs><clipPath id="bK"><use xlink:href="#bJ" overflow="visible"/></clipPath><g clip-path="url(#bK)"><defs><path id="bL" d="M-888.5-272h1121V758h-1121z"/></defs></g></g><g><defs><path id="bM" d="M-483.5 18h3v13h-3z"/></defs><clipPath id="bN"><use xlink:href="#bM" overflow="visible"/></clipPath><g clip-path="url(#bN)"><defs><path id="bO" d="M-888.5-272h1121V758h-1121z"/></defs></g></g><g><defs><path id="bP" d="M-478.5 18h3v13h-3z"/></defs><clipPath id="bQ"><use xlink:href="#bP" overflow="visible"/></clipPath><g clip-path="url(#bQ)"><defs><path id="bR" d="M-888.5-272h1121V758h-1121z"/></defs></g></g><g><defs><path id="bS" d="M-473.5 18h3v13h-3z"/></defs><clipPath id="bT"><use xlink:href="#bS" overflow="visible"/></clipPath><g clip-path="url(#bT)"><defs><path id="bU" d="M-888.5-272h1121V758h-1121z"/></defs></g></g><g><defs><path id="bV" d="M-468.5 18h3v13h-3z"/></defs><clipPath id="bW"><use xlink:href="#bV" overflow="visible"/></clipPath><g clip-path="url(#bW)"><defs><path id="bX" d="M-888.5-272h1121V758h-1121z"/></defs></g></g><g><defs><path id="bY" d="M-468.5 69h3v32h-3z"/></defs><clipPath id="bZ"><use xlink:href="#bY" overflow="visible"/></clipPath><g clip-path="url(#bZ)"><defs><path id="ca" d="M-888.5-272h1121V758h-1121z"/></defs></g></g><g><defs><path id="cb" d="M-463.5 18h3v13h-3z"/></defs><clipPath id="cc"><use xlink:href="#cb" overflow="visible"/></clipPath><g clip-path="url(#cc)"><defs><path id="cd" d="M-888.5-272h1121V758h-1121z"/></defs></g></g><g><defs><path id="ce" d="M-458.5 18h3v13h-3z"/></defs><clipPath id="cf"><use xlink:href="#ce" overflow="visible"/></clipPath><g clip-path="url(#cf)"><defs><path id="cg" d="M-888.5-272h1121V758h-1121z"/></defs></g></g><g><defs><path id="ch" d="M-453.5 18h3v13h-3z"/></defs><clipPath id="ci"><use xlink:href="#ch" overflow="visible"/></clipPath><g clip-path="url(#ci)"><defs><path id="cj" d="M-888.5-272h1121V758h-1121z"/></defs></g></g><g><defs><path id="ck" d="M-448.5 18h3v13h-3z"/></defs><clipPath id="cl"><use xlink:href="#ck" overflow="visible"/></clipPath><g clip-path="url(#cl)"><defs><path id="cm" d="M-888.5-272h1121V758h-1121z"/></defs></g></g><g><defs><path id="cn" d="M-426.5 127.5c-16.3 0-29.5-13.2-29.5-29.5s13.2-29.5 29.5-29.5S-397 81.7-397 98s-13.2 29.5-29.5 29.5zm0 3c17.9 0 32.5-14.6 32.5-32.5s-14.6-32.5-32.5-32.5S-459 80.1-459 98s14.5 32.5 32.5 32.5zm-52.5-85h105v105h-105v-105z"/></defs><clipPath id="co"><use xlink:href="#cn" overflow="visible"/></clipPath><g clip-path="url(#co)"><defs><circle id="cp" cx="-426.5" cy="98" r="31"/></defs><clipPath id="cq"><use xlink:href="#cp" overflow="visible"/></clipPath><g clip-path="url(#cq)"><defs><path id="cr" d="M-888.5-272h1121V758h-1121z"/></defs></g></g></g><g><defs><circle id="cs" cx="-426.5" cy="98" r="31"/></defs><clipPath id="ct"><use xlink:href="#cs" overflow="visible"/></clipPath><g clip-path="url(#ct)"><defs><path id="cu" d="M-888.5-272h1121V758h-1121z"/></defs></g></g><g><defs><path id="cv" d="M-808 345.2h-1.2v71.5h131.7v-71.5H-808zm0 2.4h129.3l-1.2-1.2v69.1l1.2-1.2H-808l1.2 1.2v-69.1l-1.2 1.2zm-17.3-18.5h163.9v103.6h-163.9V329.1z"/></defs><clipPath id="cw"><use xlink:href="#cv" overflow="visible"/></clipPath><g clip-path="url(#cw)"><defs><path id="cx" d="M-808 346.4h129.3v69.1H-808z"/></defs><clipPath id="cy"><use xlink:href="#cx" overflow="visible"/></clipPath><g clip-path="url(#cy)"><defs><path id="cz" d="M-887.1-58.9H13.4v827.4h-900.5z"/></defs></g></g></g><g><defs><path id="cA" d="M-808 346.4h129.3v69.1H-808z"/></defs><clipPath id="cB"><use xlink:href="#cA" overflow="visible"/></clipPath><g clip-path="url(#cB)"><defs><path id="cC" d="M-887.1-58.9H13.4v827.4h-900.5z"/></defs></g></g><g><defs><path id="cD" d="M-801.6 351.6h-1.2V409.4h118.9V351.6H-703.4l-.3.2-6.5 4.8.7-.2h-66.7l.8.3-5.9-4.8-.3-.3h-20zm0 2.4h19.4l-.8-.3 5.9 4.8.3.3H-709.3l.3-.2 6.5-4.8-.7.2h17.9l-1.2-1.2v55.4l1.2-1.2h-116.5l1.2 1.2v-55.4l-1 1.2zm-17.3-18.5h151v90h-151v-90z"/></defs><clipPath id="cE"><use xlink:href="#cD" overflow="visible"/></clipPath><g clip-path="url(#cE)"><defs><path id="cF" d="M-801.6 352.8h19.5l5.9 4.8h66.7l6.5-4.8h17.9v55.4h-116.5z"/></defs><clipPath id="cG"><use xlink:href="#cF" overflow="visible"/></clipPath><g clip-path="url(#cG)"><defs><path id="cH" d="M-887.1-58.9H13.4v827.4h-900.5z"/></defs></g></g></g><g><defs><path id="cI" d="M-801.6 352.8h19.5l5.9 4.8h66.7l6.5-4.8h17.9v55.4h-116.5z"/></defs><clipPath id="cJ"><use xlink:href="#cI" overflow="visible"/></clipPath><g clip-path="url(#cJ)"><defs><path id="cK" d="M-887.1-58.9H13.4v827.4h-900.5z"/></defs></g></g><g><defs><path id="cL" d="M-773.5 352h5.6v2.4h-5.6z"/></defs><clipPath id="cM"><use xlink:href="#cL" overflow="visible"/></clipPath><g clip-path="url(#cM)"><defs><path id="cN" d="M-887.1-58.9H13.4v827.4h-900.5z"/></defs></g></g><g><defs><path id="cO" d="M-717.2 352h5.6v2.4h-5.6z"/></defs><clipPath id="cP"><use xlink:href="#cO" overflow="visible"/></clipPath><g clip-path="url(#cP)"><defs><path id="cQ" d="M-887.1-58.9H13.4v827.4h-900.5z"/></defs></g></g><g><defs><path id="cR" d="M-226.9 25h-1.5v90h134V25h-132.5zm0 3h131l-1.5-1.5v87l1.5-1.5h-131l1.5 1.5v-87l-1.5 1.5zm-21.5-23h174v130h-174V5z"/></defs><clipPath id="cS"><use xlink:href="#cR" overflow="visible"/></clipPath><g clip-path="url(#cS)"><defs><path id="cT" d="M-226.9 26.5h131v87h-131z"/></defs><clipPath id="cU"><use xlink:href="#cT" overflow="visible"/></clipPath><g clip-path="url(#cU)"><defs><path id="cV" d="M-1102.9-674.5h1121v1030h-1121z"/></defs></g></g></g><g><defs><path id="cW" d="M-226.9 26.5h131v87h-131z"/></defs><clipPath id="cX"><use xlink:href="#cW" overflow="visible"/></clipPath><g clip-path="url(#cX)"><defs><path id="cY" d="M-1102.9-674.5h1121v1030h-1121z"/></defs></g></g><g><defs><path id="cZ" d="M-122.9 34h-1.5v23h21V34h-19.5zm0 3h18l-1.5-1.5v20l1.5-1.5h-18l1.5 1.5v-20l-1.5 1.5zm-21.5-23h61v63h-61V14z"/></defs><clipPath id="da"><use xlink:href="#cZ" overflow="visible"/></clipPath><g clip-path="url(#da)"><defs><path id="db" d="M-122.9 35.5h18v20h-18z"/></defs><clipPath id="dc"><use xlink:href="#db" overflow="visible"/></clipPath><g clip-path="url(#dc)"><defs><path id="dd" d="M-1102.9-674.5h1121v1030h-1121z"/></defs></g></g></g><g><defs><path id="de" d="M-122.9 35.5h18v20h-18z"/></defs><clipPath id="df"><use xlink:href="#de" overflow="visible"/></clipPath><g clip-path="url(#df)"><defs><path id="dg" d="M-1102.9-674.5h1121v1030h-1121z"/></defs></g></g><g><defs><path id="dh" d="M-117.9 39h-1.5v13h11V39h-9.5zm0 3h8l-1.5-1.5v10l1.5-1.5h-8l1.5 1.5v-10l-1.5 1.5zm-21.5-23h51v53h-51V19z"/></defs><clipPath id="di"><use xlink:href="#dh" overflow="visible"/></clipPath><g clip-path="url(#di)"><defs><path id="dj" d="M-117.9 40.5h8v10h-8z"/></defs><clipPath id="dk"><use xlink:href="#dj" overflow="visible"/></clipPath><g clip-path="url(#dk)"><defs><path id="dl" d="M-1102.9-674.5h1121v1030h-1121z"/></defs></g></g></g><g><defs><path id="dm" d="M-117.9 40.5h8v10h-8z"/></defs><clipPath id="dn"><use xlink:href="#dm" overflow="visible"/></clipPath><g clip-path="url(#dn)"><defs><path id="do" d="M-1102.9-674.5h1121v1030h-1121z"/></defs></g></g><g><defs><path id="dp" d="M95.5-146.6h93v117h-93z"/></defs><clipPath id="dq"><use xlink:href="#dp" overflow="visible"/></clipPath><g clip-path="url(#dq)"><defs><path id="dr" d="M-295.5-816.1h1121v1030h-1121z"/></defs></g></g><g><defs><path id="ds" d="M95.5-146.6h93v117h-93z"/></defs><clipPath id="dt"><use xlink:href="#ds" overflow="visible"/></clipPath><g clip-path="url(#dt)"><defs><path id="du" d="M-295.5-816.1h1121v1030h-1121z"/></defs></g></g><g><defs><path id="dv" d="M102.5-141.1H101v23h82v-23h-80.5zm0 3h79l-1.5-1.5v20l1.5-1.5h-79l1.5 1.5v-20l-1.5 1.5z"/></defs><clipPath id="dw"><use xlink:href="#dv" overflow="visible"/></clipPath><g clip-path="url(#dw)"><defs><path id="dx" d="M102.5-139.6h79v20h-79z"/></defs><clipPath id="dy"><use xlink:href="#dx" overflow="visible"/></clipPath><g clip-path="url(#dy)"><defs><path id="dz" d="M-295.5-816.1h1121v1030h-1121z"/></defs></g></g></g><g><defs><path id="dA" d="M102.5-139.6h79v20h-79z"/></defs><clipPath id="dB"><use xlink:href="#dA" overflow="visible"/></clipPath><g clip-path="url(#dB)"><defs><path id="dC" d="M-295.5-816.1h1121v1030h-1121z"/></defs></g></g><g><defs><path id="dD" d="M102.5-117.1H101v81h82v-81h-80.5zm0 3h79l-1.5-1.5v78l1.5-1.5h-79l1.5 1.5v-78l-1.5 1.5zm-21.5-23h122v121H81v-121z"/></defs><clipPath id="dE"><use xlink:href="#dD" overflow="visible"/></clipPath><g clip-path="url(#dE)"><defs><path id="dF" d="M102.5-115.6h79v78h-79z"/></defs><clipPath id="dG"><use xlink:href="#dF" overflow="visible"/></clipPath><g clip-path="url(#dG)"><defs><path id="dH" d="M-295.5-816.1h1121v1030h-1121z"/></defs></g></g></g><g><defs><path id="dI" d="M102.5-115.6h79v78h-79z"/></defs><clipPath id="dJ"><use xlink:href="#dI" overflow="visible"/></clipPath><g clip-path="url(#dJ)"><defs><path id="dK" d="M-295.5-816.1h1121v1030h-1121z"/></defs></g></g><g><defs><path id="dL" d="M95.5 9H94v120h96V9H95.5zm0 3h93l-1.5-1.5v117l1.5-1.5h-93l1.5 1.5v-117L95.5 12zM74-11h136v160H74V-11z"/></defs><clipPath id="dM"><use xlink:href="#dL" overflow="visible"/></clipPath><g clip-path="url(#dM)"><defs><path id="dN" d="M95.5 10.5h93v117h-93z"/></defs><clipPath id="dO"><use xlink:href="#dN" overflow="visible"/></clipPath><g clip-path="url(#dO)"><defs><path id="dP" d="M-551.5-675h1121V355h-1121z"/></defs><clipPath id="dQ"><use xlink:href="#dP" overflow="visible"/></clipPath><path clip-path="url(#dQ)" fill-rule="evenodd" clip-rule="evenodd" fill="#FFF" d="M95.5 10.5h93v117h-93z"/></g></g></g><g><defs><path id="dR" d="M95.5 10.5h93v117h-93z"/></defs><clipPath id="dS"><use xlink:href="#dR" overflow="visible"/></clipPath><g clip-path="url(#dS)"><defs><path id="dT" d="M-551.5-675h1121V355h-1121z"/></defs><clipPath id="dU"><use xlink:href="#dT" overflow="visible"/></clipPath><path clip-path="url(#dU)" fill="none" stroke="#0C1F2E" stroke-width="6" stroke-linecap="round" stroke-miterlimit="10" d="M95.5 10.5h93v117h-93z"/></g></g><g><defs><path id="dV" d="M102.5 16H101v23h82V16h-80.5zm0 3h79l-1.5-1.5v20l1.5-1.5h-79l1.5 1.5v-20l-1.5 1.5zM81-4h122v63H81V-4z"/></defs><clipPath id="dW"><use xlink:href="#dV" overflow="visible"/></clipPath><g clip-path="url(#dW)"><defs><path id="dX" d="M102.5 17.5h79v20h-79z"/></defs><clipPath id="dY"><use xlink:href="#dX" overflow="visible"/></clipPath><g clip-path="url(#dY)"><defs><path id="dZ" d="M-551.5-675h1121V355h-1121z"/></defs><clipPath id="ea"><use xlink:href="#dZ" overflow="visible"/></clipPath><path clip-path="url(#ea)" fill-rule="evenodd" clip-rule="evenodd" fill="#FFF" d="M102.5 17.5h79v20h-79z"/></g></g></g><g><defs><path id="eb" d="M102.5 17.5h79v20h-79z"/></defs><clipPath id="ec"><use xlink:href="#eb" overflow="visible"/></clipPath><g clip-path="url(#ec)"><defs><path id="ed" d="M-551.5-675h1121V355h-1121z"/></defs><clipPath id="ee"><use xlink:href="#ed" overflow="visible"/></clipPath><path clip-path="url(#ee)" fill="none" stroke="#0C1F2E" stroke-width="6" stroke-linecap="round" stroke-miterlimit="10" d="M102.5 17.5h79v20h-79z"/></g></g><g><defs><path id="ef" d="M102.5 40H101v81h82V40h-80.5zm0 3h79l-1.5-1.5v78l1.5-1.5h-79l1.5 1.5v-78l-1.5 1.5zM81 20h122v121H81V20z"/></defs><clipPath id="eg"><use xlink:href="#ef" overflow="visible"/></clipPath><g clip-path="url(#eg)"><defs><path id="eh" d="M102.5 41.5h79v78h-79z"/></defs><clipPath id="ei"><use xlink:href="#eh" overflow="visible"/></clipPath><g clip-path="url(#ei)"><defs><path id="ej" d="M-551.5-675h1121V355h-1121z"/></defs><clipPath id="ek"><use xlink:href="#ej" overflow="visible"/></clipPath><path clip-path="url(#ek)" fill-rule="evenodd" clip-rule="evenodd" fill="#FFF" d="M102.5 41.5h79v78h-79z"/></g></g></g><g><defs><path id="el" d="M102.5 41.5h79v78h-79z"/></defs><clipPath id="em"><use xlink:href="#el" overflow="visible"/></clipPath><g clip-path="url(#em)"><defs><path id="en" d="M-551.5-675h1121V355h-1121z"/></defs><clipPath id="eo"><use xlink:href="#en" overflow="visible"/></clipPath><path clip-path="url(#eo)" fill="none" stroke="#0C1F2E" stroke-width="6" stroke-linecap="round" stroke-miterlimit="10" d="M102.5 41.5h79v78h-79z"/></g></g><g><g fill="#042A3E"><path d="M113.9 31.5l-3.5-4.7v4.7h-1.8v-7.7h1.7l3.6 4.8v-4.8h1.8v7.7h-1.8zM124.5 27.6c0 2.2-1.8 3.9-4.2 3.9-2.4 0-4.2-1.7-4.2-3.9s1.8-3.9 4.2-3.9c2.5 0 4.2 1.7 4.2 3.9zm-6.3 0c0 1.3 1 2.3 2.2 2.3 1.2 0 2.1-1 2.1-2.3s-.9-2.3-2.1-2.3-2.2 1.1-2.2 2.3zM130.6 23.8c2 0 3.1 1 3.1 2.7 0 1.8-1.1 2.8-3.1 2.8h-1.4v2.2h-2v-7.7h3.4zm-1.4 4h1.3c.9 0 1.4-.4 1.4-1.2 0-.8-.5-1.2-1.4-1.2h-1.3v2.4zM135.5 30.1l-.6 1.4h-2l3.3-7.7h2l3.2 7.7h-2.1l-.5-1.4h-3.3zm1.7-4.4l-1.1 2.8h2.2l-1.1-2.8zM145.3 29.3h-1.5v2.2h-2v-7.7h3.4c2 0 3.2 1 3.2 2.7 0 1.2-.5 2-1.4 2.5l1.6 2.5h-2.2l-1.1-2.2zm-.1-1.5c.8 0 1.3-.4 1.3-1.2 0-.8-.5-1.2-1.3-1.2h-1.5v2.5h1.5zM152.3 28.5l-1 1.1v1.9h-2v-7.7h2v3.3l2.9-3.3h2.3l-2.9 3.2 3 4.5h-2.3l-2-3zM157.1 31.5v-7.7h2v7.7h-2zM165.5 31.5l-3.5-4.7v4.7h-1.8v-7.7h1.7l3.6 4.8v-4.8h1.8v7.7h-1.8zM175.2 27.6v3c-.8.6-2.1 1-3.2 1-2.3 0-4.1-1.7-4.1-3.9s1.8-3.9 4.2-3.9c1.1 0 2.4.4 3.1 1.1l-1.1 1.3c-.6-.5-1.3-.8-2.1-.8-1.3 0-2.2 1-2.2 2.3 0 1.3 1 2.3 2.3 2.3.4 0 .9-.1 1.4-.4v-2h1.7z"/></g></g><g fill="#042A3E"><path d="M120.9 62.2h-1.2v1.6h-1.5V58h2.6c1.5 0 2.4.7 2.4 2 0 .9-.4 1.5-1.1 1.9l1.2 1.9h-1.7l-.7-1.6zm-.1-1.2c.6 0 1-.3 1-.9 0-.6-.4-.9-1-.9h-1.1V61h1.1zM125.7 59.2v1.2h2.8v1.2h-2.8v1.2h3.2V64h-4.7v-6h4.6v1.2h-3.1zM134.4 58.6l-.6 1.2c-.6-.4-1.4-.6-1.9-.6-.4 0-.6.1-.6.4 0 1 3.1.4 3.1 2.5 0 1.2-1 1.8-2.3 1.8-1 0-2-.4-2.7-.9l.6-1.1c.6.5 1.5.9 2.1.9.5 0 .8-.2.8-.5 0-1-3.1-.4-3.1-2.5 0-1.1.9-1.8 2.3-1.8.9-.1 1.7.2 2.3.6zM136.7 59.2v1.2h2.8v1.2h-2.8v1.2h3.2V64h-4.7v-6h4.6v1.2h-3.1zM143.5 62.2h-1.2v1.6h-1.5V58h2.6c1.5 0 2.4.7 2.4 2 0 .9-.4 1.5-1.1 1.9l1.2 1.9h-1.7l-.7-1.6zm0-1.2c.6 0 1-.3 1-.9 0-.6-.4-.9-1-.9h-1.1V61h1.1zM148.5 63.8l-2.3-5.8h1.6l1.5 4.3 1.5-4.3h1.5l-2.3 5.8h-1.5zM154.4 59.2v1.2h2.8v1.2h-2.8v1.2h3.2V64h-4.7v-6h4.6v1.2h-3.1zM161.1 58c1.8 0 3.1 1.2 3.1 2.9s-1.3 2.9-3.2 2.9h-2.4V58h2.5zm-1.1 4.6h1.1c.9 0 1.6-.7 1.6-1.7s-.7-1.7-1.6-1.7h-1v3.4zM135 82.1c.1.1.2.1.3.1.2 0 .3-.1.4-.2s.2-.3.3-.5.1-.5.2-.7c0-.3.1-.6.1-1s.1-.7.1-1.1.1-.8.1-1.3c0-.4.1-.7.1-1.1 0-.4.1-.7.1-1.1h-.9v-.4h.9c.1-.4.1-.7.2-1 .1-.3.2-.6.4-.8s.4-.4.6-.5c.2-.1.5-.2.9-.2.2 0 .4 0 .5.1.1.1.2.2.2.4v.1s0 .1-.1.1-.1.1-.1.1h-.2c-.1 0-.2 0-.3-.1-.1-.1-.1-.2-.1-.3h-.1-.1c-.2 0-.3.1-.4.2-.1.1-.2.3-.3.5-.1.2-.1.4-.2.7 0 .3-.1.6-.1.9h1.4v.4h-1.4c0 .3 0 .7-.1 1.1 0 .4 0 .8-.1 1.1 0 .4-.1.8-.1 1.2 0 .4-.1.8-.1 1.2-.1.4-.1.7-.2 1.1-.1.3-.2.6-.4.9s-.3.4-.6.6-.5.2-.8.2c-.5 0-.8-.2-.8-.5v-.1s0-.1.1-.1l.1-.1h.2c.1 0 .2 0 .3.1 0-.3 0-.2 0 0zM141 79.9c-.3 0-.6-.1-.9-.2s-.4-.3-.6-.5c-.2-.2-.3-.4-.4-.7-.1-.3-.1-.6-.1-.9 0-.4.1-.8.2-1.1s.3-.7.5-.9.5-.5.8-.6.7-.2 1-.2c.3 0 .5 0 .8.1s.4.2.6.4c.2.2.3.4.4.7.1.3.1.6.1.9 0 .4-.1.8-.2 1.2-.1.4-.3.7-.5 1-.2.3-.5.5-.8.7-.2.1-.5.1-.9.1zm1.6-2.8v-.5c0-.2 0-.3-.1-.5s-.1-.3-.1-.4-.1-.2-.2-.3-.2-.2-.3-.2-.3-.1-.4-.1c-.2 0-.4.1-.6.2-.2.1-.3.3-.4.5s-.2.5-.3.8c-.1.3-.1.6-.1.9v.5c0 .2 0 .3.1.5s.1.3.1.4c.1.1.1.3.2.4.1.1.2.2.3.2.1.1.2.1.4.1s.3 0 .5-.1c.1-.1.3-.2.4-.3s.2-.3.3-.4.1-.3.2-.5.1-.4.1-.5c-.1-.3-.1-.5-.1-.7zM147.6 75.4c0-.1-.1-.1 0 0h-.1c-.1 0-.3.1-.4.2-.1.1-.3.3-.4.5-.1.2-.2.5-.4.7s-.2.6-.3.9c-.1.3-.1.6-.2.9 0 .3-.1.6-.1.8v.4h-.8v-.1-.3-.4-.6c0-.2.1-.5.1-.9 0-.3.1-.5.1-.7 0-.2 0-.3.1-.4v-.3-.2-.1-.1-.2-.1s0-.1-.1-.1h-.1c-.1 0-.1 0-.2.1-.1 0-.1.1-.2.2s-.1.2-.2.3-.1.3-.2.4l-.3-.1c0-.1.1-.3.1-.4.1-.2.1-.3.3-.5s.2-.3.4-.4c.2-.1.3-.2.5-.2.1 0 .3 0 .3.1s.2.1.2.2c.1.1.1.2.1.3v1c0 .2-.1.4-.1.6.1-.4.3-.8.4-1.1s.3-.5.5-.7c.2-.2.3-.3.5-.3s.3-.1.5-.1h.3c.1 0 .2.1.2.1.1.1.1.1.1.2s.1.2.1.2v.2c0 .1-.1.1-.1.2s-.1.1-.1.1h-.2c-.1 0-.2 0-.3-.1s0-.1 0-.2zM119.9 91.2v1.3h2.6v1.2h-2.6v2.1h-1.5V90h4.3v1.2h-2.8zM123.5 95.8V90h1.5v5.8h-1.5zM130.1 94.6v1.2h-4V90h1.5v4.6h2.5zM135.9 95.8V92l-1.4 3.2h-1l-1.4-3.2v3.8h-1.3V90h1.6l1.6 3.5 1.6-3.5h1.6v5.8h-1.3zM145.4 90.9l-.9 1c-.4-.5-1-.8-1.5-.8-.9 0-1.6.7-1.6 1.7s.7 1.7 1.6 1.7c.5 0 1.1-.3 1.5-.7l.9.9c-.6.6-1.5 1.1-2.4 1.1-1.8 0-3.1-1.3-3.1-3s1.3-2.9 3.1-2.9c.9 0 1.8.4 2.4 1zM148.7 94.2h-1.2v1.6H146V90h2.6c1.5 0 2.4.7 2.4 2 0 .9-.4 1.5-1.1 1.9l1.2 1.9h-1.7l-.7-1.6zm-.1-1.2c.6 0 1-.3 1-.9 0-.6-.4-.9-1-.9h-1.1V93h1.1zM153.5 91.2v1.2h2.8v1.2h-2.8v1.2h3.2V96H152v-6h4.6v1.2h-3.1zM162.7 95.8l-1.1-4-1.1 4H159l-1.9-5.8h1.6l1.1 4.3 1.1-4.3h1.5l1.1 4.3 1.1-4.3h1.5l-1.9 5.8h-1.5z"/></g><g><defs><path id="ep" d="M-152.9 589.9c-27.1 0-49-21.9-49-49s21.9-49 49-49 49 21.9 49 49-21.9 49-49 49zm0 3c28.7 0 52-23.3 52-52s-23.3-52-52-52-52 23.3-52 52 23.3 52 52 52zm-72-124h144v144h-144v-144z"/></defs><clipPath id="eq"><use xlink:href="#ep" overflow="visible"/></clipPath><g clip-path="url(#eq)"><defs><circle id="er" cx="-152.9" cy="540.9" r="50.5"/></defs><clipPath id="es"><use xlink:href="#er" overflow="visible"/></clipPath><g clip-path="url(#es)"><defs><path id="et" d="M-327.4-195.1h1121v1030h-1121z"/></defs></g></g></g><g><defs><circle id="eu" cx="-152.9" cy="540.9" r="50.5"/></defs><clipPath id="ev"><use xlink:href="#eu" overflow="visible"/></clipPath><g clip-path="url(#ev)"><defs><path id="ew" d="M-327.4-195.1h1121v1030h-1121z"/></defs></g></g><g><defs><circle id="ex" cx="-152.9" cy="540.9" r="43.5"/></defs><clipPath id="ey"><use xlink:href="#ex" overflow="visible"/></clipPath><g clip-path="url(#ey)"><defs><path id="ez" d="M-327.4-195.1h1121v1030h-1121z"/></defs></g></g><g><defs><path id="eA" d="M-750 742.3c-27.1 0-49-21.9-49-49s21.9-49 49-49 49 21.9 49 49c0 27-21.9 49-49 49zm0 3c28.7 0 52-23.3 52-52s-23.3-52-52-52-52 23.3-52 52 23.3 52 52 52zm-72-124h144v144h-144v-144z"/></defs><clipPath id="eB"><use xlink:href="#eA" overflow="visible"/></clipPath><g clip-path="url(#eB)"><defs><circle id="eC" cx="-750" cy="693.3" r="50.5"/></defs><clipPath id="eD"><use xlink:href="#eC" overflow="visible"/></clipPath><g clip-path="url(#eD)"><defs><path id="eE" d="M-924.5-42.7h1121v1030h-1121z"/></defs></g></g></g><g><defs><circle id="eF" cx="-750" cy="693.3" r="50.5"/></defs><clipPath id="eG"><use xlink:href="#eF" overflow="visible"/></clipPath><g clip-path="url(#eG)"><defs><path id="eH" d="M-924.5-42.7h1121v1030h-1121z"/></defs></g></g><g><defs><circle id="eI" cx="-750" cy="693.3" r="43.5"/></defs><clipPath id="eJ"><use xlink:href="#eI" overflow="visible"/></clipPath><g clip-path="url(#eJ)"><defs><path id="eK" d="M-924.5-42.7h1121v1030h-1121z"/></defs></g></g></svg>