<svg xmlns="http://www.w3.org/2000/svg" xmlns:xlink="http://www.w3.org/1999/xlink" viewBox="0 0 276 137"><defs><path id="a" d="M-159.9-152.6c30.3 0 55 7.1 55 14.8v22l1.7-1.5c-.1 0-.2 0-.4-.1-.4-.1-.8-.1-1.3-.2-1.4-.2-2.9-.4-4.6-.6-4.9-.7-10-1.3-15.2-2-3.9-.5-7.7-.9-11.3-1.3-9.9-1-18.1-1.6-23.9-1.6-5.2 0-14.3.8-26.1 2.3-2.5.3-5.1.6-7.7 1-5.4.7-10.9 1.5-16.1 2.3-1.8.3-3.5.5-5 .8-.5.1-1 .2-1.4.2-.2 0-.4.1-.5.1l1.7 1.5v-23c.1-7.6 24.8-14.7 55.1-14.7zm0-3c-32.1 0-58 7.5-58 17.8v24.8l1.7-.3c.1 0 .2 0 .5-.1.4-.1.8-.1 1.4-.2 1.5-.2 3.1-.5 5-.8 5.2-.8 10.7-1.6 16.1-2.3 2.6-.4 5.2-.7 7.7-1 11.7-1.5 20.7-2.3 25.7-2.3 5.6 0 13.7.6 23.6 1.6 3.6.4 7.4.8 11.2 1.3 5.2.6 10.3 1.3 15.2 2 1.7.2 3.2.4 4.6.6.5.1.9.1 1.2.2.2 0 .4.1.4.1l1.7.3v-23.7c0-10.6-25.9-18-58-18zm-78-20h156v82.5h-156v-82.5z"/></defs><defs><path id="b" d="M-159.9-130.4c30.3 0 55 7.1 55 14.8s-24.7 14.8-55 14.8-55-7.1-55-14.8 24.7-14.8 55-14.8zm0-3c-32.1 0-58 7.5-58 17.8s25.9 17.8 58 17.8 58-7.5 58-17.8-25.9-17.8-58-17.8zm-78-20h156v75.6h-156v-75.6z"/></defs><defs><path id="c" d="M-199.9-111.2c0-5.3 18-10.4 40-10.4s40 5.2 40 10.4v7.1l1.2-1.5c-.1 0-.1 0-.3.1-.3 0-.6.1-.9.2-1 .2-2.1.3-3.4.5-3.6.6-7.3 1.1-11.1 1.7-2.9.4-5.6.8-8.3 1.1-7.2.9-13.1 1.3-17.2 1.3-3.7 0-10.3-.5-18.9-1.4-1.8-.2-3.7-.4-5.6-.6-4-.5-8-.9-11.8-1.4-1.3-.2-2.6-.3-3.6-.5-.4 0-.7-.1-1-.1h-.3l1.3 1.5v-8zm-3 0v9.1l1.3.2h.4c.3 0 .6.1 1 .1 1.1.1 2.3.3 3.7.5a11776882415803102 11776882415803102 0 0 0 36.7 3.5c4.3 0 10.3-.5 17.6-1.4 2.7-.3 5.4-.7 8.3-1.1 3.8-.5 7.6-1.1 11.2-1.7 1.3-.2 2.4-.4 3.4-.5.4-.1.7-.1.9-.2.3 0 .3 0 .3-.1l1.2-.2v-8.4c0-7.9-19.2-13.4-43-13.4s-43 5.7-43 13.6zm-20-33.4h126v66.9h-126v-66.9z"/></defs><defs><path id="d" d="M-159.9-113.3c22 0 40 5.2 40 10.4 0 5.3-18 10.4-40 10.4s-40-5.2-40-10.4 18-10.4 40-10.4zm0-3c-23.8 0-43 5.5-43 13.4s19.2 13.4 43 13.4 43-5.5 43-13.4-19.2-13.4-43-13.4zm-63-20h126v66.9h-126v-66.9z"/></defs><defs><path id="e" d="M-172.5-101.3c0 .4-.2.7-.4.8.1 0 .2-.1.4-.2.6-.2 1.6-.4 2.8-.6 2.6-.4 6-.6 9.8-.6s7.2.2 9.8.6c1.2.2 2.2.4 2.8.6l.4.2c-.2-.1-.4-.4-.4-.8s.2-.7.4-.8c-.1 0-.2.1-.4.2-.6.2-1.6.4-2.8.6-2.6.4-6 .6-9.8.6s-7.2-.2-9.8-.6c-1.2-.2-2.2-.4-2.8-.6l-.4-.2c.2.1.4.3.4.8zm-3 0c0 2.6 6.2 3.5 15.6 3.5 9.4 0 15.6-.9 15.6-3.5s-6.2-3.5-15.6-3.5c-9.4-.1-15.6.8-15.6 3.5zm-20-23.6h71.2v47.1h-71.2v-47.1z"/></defs><defs><path id="f" d="M-803.5 29.5l-1.4.4.4 1.4 30.4 99.5.4 1.4 1.4-.4 60.2-18.4 1.4-.4-.4-1.4-30.4-99.5-.4-1.4-1.4.4-60.2 18.4zm.9 2.9l60.2-18.4-1.9-1 30.4 99.5 1-1.9-60.2 18.4 1.9 1-30.4-99.5-1 1.9zm-27.3-15.7l101.4-31 43 140.6-101.4 31-43-140.6z"/></defs><defs><path id="g" d="M-768.2 6.5h-1.5v107h66V6.5h-64.5zm0 3h63l-1.5-1.5v104l1.5-1.5h-63l1.5 1.5V8l-1.5 1.5zm-21.5-23h106v147h-106v-147z"/></defs><defs><path id="h" d="M-498.5 6.5h-1.5v107h66V6.5h-64.5zm0 3h63L-437 8v104l1.5-1.5h-63l1.5 1.5V8l-1.5 1.5zm-21.5-23h106v147h-106v-147z"/></defs><defs><path id="i" d="M-426.5 127.5c-16.3 0-29.5-13.2-29.5-29.5s13.2-29.5 29.5-29.5S-397 81.7-397 98s-13.2 29.5-29.5 29.5zm0 3c17.9 0 32.5-14.6 32.5-32.5s-14.6-32.5-32.5-32.5S-459 80.1-459 98s14.5 32.5 32.5 32.5zm-52.5-85h105v105h-105v-105z"/></defs><defs><path id="j" d="M-808 345.2h-1.2v71.5h131.7v-71.5H-808zm0 2.4h129.3l-1.2-1.2v69.1l1.2-1.2H-808l1.2 1.2v-69.1l-1.2 1.2zm-17.3-18.5h163.9v103.6h-163.9V329.1z"/></defs><defs><path id="k" d="M-801.6 351.6h-1.2v57.8h118.9v-57.8h-19.5l-.3.2-6.5 4.8.7-.2h-66.7l.8.3-5.9-4.8-.3-.3h-20zm0 2.4h19.4l-.8-.3 5.9 4.8.3.3h67.5l.3-.2 6.5-4.8-.7.2h17.9l-1.2-1.2v55.4l1.2-1.2h-116.5l1.2 1.2v-55.4l-1 1.2zm-17.3-18.5h151v90h-151v-90z"/></defs><defs><path id="l" d="M-226.9 25h-1.5v90h134V25h-132.5zm0 3h131l-1.5-1.5v87l1.5-1.5h-131l1.5 1.5v-87l-1.5 1.5zm-21.5-23h174v130h-174V5z"/></defs><defs><path id="m" d="M-122.9 34h-1.5v23h21V34h-19.5zm0 3h18l-1.5-1.5v20l1.5-1.5h-18l1.5 1.5v-20l-1.5 1.5zm-21.5-23h61v63h-61V14z"/></defs><defs><path id="n" d="M-117.9 39h-1.5v13h11V39h-9.5zm0 3h8l-1.5-1.5v10l1.5-1.5h-8l1.5 1.5v-10l-1.5 1.5zm-21.5-23h51v53h-51V19z"/></defs><defs><path id="o" d="M102.5-141.1H101v23h82v-23h-80.5zm0 3h79l-1.5-1.5v20l1.5-1.5h-79l1.5 1.5v-20l-1.5 1.5z"/></defs><defs><path id="p" d="M102.5-117.1H101v81h82v-81h-80.5zm0 3h79l-1.5-1.5v78l1.5-1.5h-79l1.5 1.5v-78l-1.5 1.5zm-21.5-23h122v121H81v-121z"/></defs><defs><path id="q" d="M95.5 9H94v120h96V9H95.5zm0 3h93l-1.5-1.5v117l1.5-1.5h-93l1.5 1.5v-117L95.5 12zM74-11h136v160H74V-11z"/></defs><clipPath id="r"><use xlink:href="#q" overflow="visible"/></clipPath><g clip-path="url(#r)"><defs><path id="s" d="M95.5 10.5h93v117h-93z"/></defs><clipPath id="t"><use xlink:href="#s" overflow="visible"/></clipPath><g clip-path="url(#t)"><defs><path id="u" d="M-551.5-675h1121V355h-1121z"/></defs><clipPath id="v"><use xlink:href="#u" overflow="visible"/></clipPath><path clip-path="url(#v)" fill-rule="evenodd" clip-rule="evenodd" fill="#FFF" d="M95.5 10.5h93v117h-93z"/></g></g><defs><path id="w" d="M95.5 10.5h93v117h-93z"/></defs><clipPath id="x"><use xlink:href="#w" overflow="visible"/></clipPath><g clip-path="url(#x)"><defs><path id="y" d="M-551.5-675h1121V355h-1121z"/></defs><clipPath id="z"><use xlink:href="#y" overflow="visible"/></clipPath><path clip-path="url(#z)" fill="none" stroke="#0C1F2E" stroke-width="6" stroke-linecap="round" stroke-miterlimit="10" d="M95.5 10.5h93v117h-93z"/></g><defs><path id="A" d="M102.5 16H101v23h82V16h-80.5zm0 3h79l-1.5-1.5v20l1.5-1.5h-79l1.5 1.5v-20l-1.5 1.5zM81-4h122v63H81V-4z"/></defs><clipPath id="B"><use xlink:href="#A" overflow="visible"/></clipPath><g clip-path="url(#B)"><defs><path id="C" d="M102.5 17.5h79v20h-79z"/></defs><clipPath id="D"><use xlink:href="#C" overflow="visible"/></clipPath><g clip-path="url(#D)"><defs><path id="E" d="M-551.5-675h1121V355h-1121z"/></defs><clipPath id="F"><use xlink:href="#E" overflow="visible"/></clipPath><path clip-path="url(#F)" fill-rule="evenodd" clip-rule="evenodd" fill="#FFF" d="M102.5 17.5h79v20h-79z"/></g></g><defs><path id="G" d="M102.5 17.5h79v20h-79z"/></defs><clipPath id="H"><use xlink:href="#G" overflow="visible"/></clipPath><g clip-path="url(#H)"><defs><path id="I" d="M-551.5-675h1121V355h-1121z"/></defs><clipPath id="J"><use xlink:href="#I" overflow="visible"/></clipPath><path clip-path="url(#J)" fill="none" stroke="#0C1F2E" stroke-width="6" stroke-linecap="round" stroke-miterlimit="10" d="M102.5 17.5h79v20h-79z"/></g><defs><path id="K" d="M102.5 40H101v81h82V40h-80.5zm0 3h79l-1.5-1.5v78l1.5-1.5h-79l1.5 1.5v-78l-1.5 1.5zM81 20h122v121H81V20z"/></defs><clipPath id="L"><use xlink:href="#K" overflow="visible"/></clipPath><g clip-path="url(#L)"><defs><path id="M" d="M102.5 41.5h79v78h-79z"/></defs><clipPath id="N"><use xlink:href="#M" overflow="visible"/></clipPath><g clip-path="url(#N)"><defs><path id="O" d="M-551.5-675h1121V355h-1121z"/></defs><clipPath id="P"><use xlink:href="#O" overflow="visible"/></clipPath><path clip-path="url(#P)" fill-rule="evenodd" clip-rule="evenodd" fill="#FFF" d="M102.5 41.5h79v78h-79z"/></g></g><defs><path id="Q" d="M102.5 41.5h79v78h-79z"/></defs><clipPath id="R"><use xlink:href="#Q" overflow="visible"/></clipPath><g clip-path="url(#R)"><defs><path id="S" d="M-551.5-675h1121V355h-1121z"/></defs><clipPath id="T"><use xlink:href="#S" overflow="visible"/></clipPath><path clip-path="url(#T)" fill="none" stroke="#0C1F2E" stroke-width="6" stroke-linecap="round" stroke-miterlimit="10" d="M102.5 41.5h79v78h-79z"/></g><path d="M113.9 31.5l-3.5-4.7v4.7h-1.8v-7.7h1.7l3.6 4.8v-4.8h1.8v7.7h-1.8zm10.6-3.9c0 2.2-1.8 3.9-4.2 3.9-2.4 0-4.2-1.7-4.2-3.9s1.8-3.9 4.2-3.9c2.5 0 4.2 1.7 4.2 3.9zm-6.3 0c0 1.3 1 2.3 2.2 2.3 1.2 0 2.1-1 2.1-2.3s-.9-2.3-2.1-2.3-2.2 1.1-2.2 2.3zm12.4-3.8c2 0 3.1 1 3.1 2.7 0 1.8-1.1 2.8-3.1 2.8h-1.4v2.2h-2v-7.7h3.4zm-1.4 4h1.3c.9 0 1.4-.4 1.4-1.2 0-.8-.5-1.2-1.4-1.2h-1.3v2.4zm6.3 2.3l-.6 1.4h-2l3.3-7.7h2l3.2 7.7h-2.1l-.5-1.4h-3.3zm1.7-4.4l-1.1 2.8h2.2l-1.1-2.8zm8.1 3.6h-1.5v2.2h-2v-7.7h3.4c2 0 3.2 1 3.2 2.7 0 1.2-.5 2-1.4 2.5l1.6 2.5h-2.2l-1.1-2.2zm-.1-1.5c.8 0 1.3-.4 1.3-1.2 0-.8-.5-1.2-1.3-1.2h-1.5v2.5h1.5zm7.1.7l-1 1.1v1.9h-2v-7.7h2v3.3l2.9-3.3h2.3l-2.9 3.2 3 4.5h-2.3l-2-3zm4.8 3v-7.7h2v7.7h-2zm8.4 0l-3.5-4.7v4.7h-1.8v-7.7h1.7l3.6 4.8v-4.8h1.8v7.7h-1.8zm9.7-3.9v3c-.8.6-2.1 1-3.2 1-2.3 0-4.1-1.7-4.1-3.9s1.8-3.9 4.2-3.9c1.1 0 2.4.4 3.1 1.1l-1.1 1.3c-.6-.5-1.3-.8-2.1-.8-1.3 0-2.2 1-2.2 2.3 0 1.3 1 2.3 2.3 2.3.4 0 .9-.1 1.4-.4v-2h1.7zM120.9 62.2h-1.2v1.6h-1.5V58h2.6c1.5 0 2.4.7 2.4 2 0 .9-.4 1.5-1.1 1.9l1.2 1.9h-1.7l-.7-1.6zm-.1-1.2c.6 0 1-.3 1-.9 0-.6-.4-.9-1-.9h-1.1V61h1.1zm4.9-1.8v1.2h2.8v1.2h-2.8v1.2h3.2V64h-4.7v-6h4.6v1.2h-3.1zm8.7-.6l-.6 1.2c-.6-.4-1.4-.6-1.9-.6-.4 0-.6.1-.6.4 0 1 3.1.4 3.1 2.5 0 1.2-1 1.8-2.3 1.8-1 0-2-.4-2.7-.9l.6-1.1c.6.5 1.5.9 2.1.9.5 0 .8-.2.8-.5 0-1-3.1-.4-3.1-2.5 0-1.1.9-1.8 2.3-1.8.9-.1 1.7.2 2.3.6zm2.3.6v1.2h2.8v1.2h-2.8v1.2h3.2V64h-4.7v-6h4.6v1.2h-3.1zm6.8 3h-1.2v1.6h-1.5V58h2.6c1.5 0 2.4.7 2.4 2 0 .9-.4 1.5-1.1 1.9l1.2 1.9h-1.7l-.7-1.6zm0-1.2c.6 0 1-.3 1-.9 0-.6-.4-.9-1-.9h-1.1V61h1.1zm5 2.8l-2.3-5.8h1.6l1.5 4.3 1.5-4.3h1.5l-2.3 5.8h-1.5zm5.9-4.6v1.2h2.8v1.2h-2.8v1.2h3.2V64h-4.7v-6h4.6v1.2h-3.1zm6.7-1.2c1.8 0 3.1 1.2 3.1 2.9s-1.3 2.9-3.2 2.9h-2.4V58h2.5zm-1.1 4.6h1.1c.9 0 1.6-.7 1.6-1.7s-.7-1.7-1.6-1.7h-1v3.4zm-25 19.5c.1.1.2.1.3.1.2 0 .3-.1.4-.2s.2-.3.3-.5.1-.5.2-.7c0-.3.1-.6.1-1s.1-.7.1-1.1.1-.8.1-1.3c0-.4.1-.7.1-1.1 0-.4.1-.7.1-1.1h-.9v-.4h.9c.1-.4.1-.7.2-1 .1-.3.2-.6.4-.8s.4-.4.6-.5c.2-.1.5-.2.9-.2.2 0 .4 0 .5.1.1.1.2.2.2.4v.1s0 .1-.1.1-.1.1-.1.1h-.2c-.1 0-.2 0-.3-.1-.1-.1-.1-.2-.1-.3h-.2c-.2 0-.3.1-.4.2-.1.1-.2.3-.3.5-.1.2-.1.4-.2.7 0 .3-.1.6-.1.9h1.4v.4h-1.4c0 .3 0 .7-.1 1.1 0 .4 0 .8-.1 1.1 0 .4-.1.8-.1 1.2 0 .4-.1.8-.1 1.2-.1.4-.1.7-.2 1.1-.1.3-.2.6-.4.9s-.3.4-.6.6-.5.2-.8.2c-.5 0-.8-.2-.8-.5v-.1s0-.1.1-.1l.1-.1h.2c.1 0 .2 0 .3.1 0-.3 0-.2 0 0zm6-2.2c-.3 0-.6-.1-.9-.2s-.4-.3-.6-.5c-.2-.2-.3-.4-.4-.7-.1-.3-.1-.6-.1-.9 0-.4.1-.8.2-1.1s.3-.7.5-.9.5-.5.8-.6.7-.2 1-.2c.3 0 .5 0 .8.1s.4.2.6.4c.2.2.3.4.4.7.1.3.1.6.1.9 0 .4-.1.8-.2 1.2-.1.4-.3.7-.5 1-.2.3-.5.5-.8.7-.2.1-.5.1-.9.1zm1.6-2.8v-.5c0-.2 0-.3-.1-.5s-.1-.3-.1-.4-.1-.2-.2-.3-.2-.2-.3-.2-.3-.1-.4-.1c-.2 0-.4.1-.6.2-.2.1-.3.3-.4.5s-.2.5-.3.8c-.1.3-.1.6-.1.9v.5c0 .2 0 .3.1.5s.1.3.1.4c.1.1.1.3.2.4.1.1.2.2.3.2.1.1.2.1.4.1s.3 0 .5-.1c.1-.1.3-.2.4-.3s.2-.3.3-.4.1-.3.2-.5.1-.4.1-.5c-.1-.3-.1-.5-.1-.7zm5-1.7c0-.1-.1-.1 0 0h-.1c-.1 0-.3.1-.4.2-.1.1-.3.3-.4.5-.1.2-.2.5-.4.7s-.2.6-.3.9c-.1.3-.1.6-.2.9 0 .3-.1.6-.1.8v.4h-.8v-1.4c0-.2.1-.5.1-.9 0-.3.1-.5.1-.7 0-.2 0-.3.1-.4v-1s0-.1-.1-.1h-.1c-.1 0-.1 0-.2.1-.1 0-.1.1-.2.2s-.1.2-.2.3-.1.3-.2.4l-.3-.1c0-.1.1-.3.1-.4.1-.2.1-.3.3-.5s.2-.3.4-.4c.2-.1.3-.2.5-.2.1 0 .3 0 .3.1s.2.1.2.2c.1.1.1.2.1.3v1c0 .2-.1.4-.1.6.1-.4.3-.8.4-1.1s.3-.5.5-.7c.2-.2.3-.3.5-.3s.3-.1.5-.1h.3c.1 0 .2.1.2.1.1.1.1.1.1.2s.1.2.1.2v.2c0 .1-.1.1-.1.2s-.1.1-.1.1h-.2c-.1 0-.2 0-.3-.1s0-.1 0-.2zm-27.7 15.8v1.3h2.6v1.2h-2.6v2.1h-1.5V90h4.3v1.2h-2.8zm3.6 4.6V90h1.5v5.8h-1.5zm6.6-1.2v1.2h-4V90h1.5v4.6h2.5zm5.8 1.2V92l-1.4 3.2h-1l-1.4-3.2v3.8h-1.3V90h1.6l1.6 3.5 1.6-3.5h1.6v5.8h-1.3zm9.5-4.9l-.9 1c-.4-.5-1-.8-1.5-.8-.9 0-1.6.7-1.6 1.7s.7 1.7 1.6 1.7c.5 0 1.1-.3 1.5-.7l.9.9c-.6.6-1.5 1.1-2.4 1.1-1.8 0-3.1-1.3-3.1-3s1.3-2.9 3.1-2.9c.9 0 1.8.4 2.4 1zm3.3 3.3h-1.2v1.6H146V90h2.6c1.5 0 2.4.7 2.4 2 0 .9-.4 1.5-1.1 1.9l1.2 1.9h-1.7l-.7-1.6zm-.1-1.2c.6 0 1-.3 1-.9 0-.6-.4-.9-1-.9h-1.1V93h1.1zm4.9-1.8v1.2h2.8v1.2h-2.8v1.2h3.2V96H152v-6h4.6v1.2h-3.1zm9.2 4.6l-1.1-4-1.1 4H159l-1.9-5.8h1.6l1.1 4.3 1.1-4.3h1.5l1.1 4.3 1.1-4.3h1.5l-1.9 5.8h-1.5z" fill="#042A3E"/><g><defs><path id="U" d="M-152.9 589.9c-27.1 0-49-21.9-49-49s21.9-49 49-49 49 21.9 49 49-21.9 49-49 49zm0 3c28.7 0 52-23.3 52-52s-23.3-52-52-52-52 23.3-52 52 23.3 52 52 52zm-72-124h144v144h-144v-144z"/></defs></g><g><defs><path id="V" d="M-750 742.3c-27.1 0-49-21.9-49-49s21.9-49 49-49 49 21.9 49 49c0 27-21.9 49-49 49zm0 3c28.7 0 52-23.3 52-52s-23.3-52-52-52-52 23.3-52 52 23.3 52 52 52zm-72-124h144v144h-144v-144z"/></defs></g></svg>