<svg xmlns="http://www.w3.org/2000/svg" xmlns:xlink="http://www.w3.org/1999/xlink" viewBox="0 0 276 137"><defs><path id="a" d="M-159.9 4.4c30.3 0 55 7.1 55 14.8v22l1.7-1.5c-.1 0-.2 0-.4-.1-.4-.1-.8-.1-1.3-.2-1.4-.2-2.9-.4-4.6-.6-4.9-.7-10-1.3-15.2-2-3.9-.5-7.7-.9-11.3-1.3-9.9-1-18.1-1.6-23.9-1.6-5.2 0-14.3.8-26.1 2.3-2.5.3-5.1.6-7.7 1-5.4.7-10.9 1.5-16.1 2.3-1.8.3-3.5.5-5 .8-.5.1-1 .2-1.4.2-.2 0-.4.1-.5.1l1.7 1.5v-23c.1-7.6 24.8-14.7 55.1-14.7zm0-3c-32.1 0-58 7.5-58 17.8V44l1.7-.3c.1 0 .2 0 .5-.1.4-.1.8-.1 1.4-.2 1.5-.2 3.1-.5 5-.8 5.2-.8 10.7-1.6 16.1-2.3 2.6-.4 5.2-.7 7.7-1 11.7-1.5 20.7-2.3 25.7-2.3 5.6 0 13.7.6 23.6 1.6 3.6.4 7.4.8 11.2 1.3 5.2.6 10.3 1.3 15.2 2 1.7.2 3.2.4 4.6.6.5.1.9.1 1.2.2.2 0 .4.1.4.1l1.7.3V19.4c0-10.6-25.9-18-58-18zm-78-20h156v82.5h-156v-82.5z"/></defs><clipPath id="b"><use xlink:href="#a" overflow="visible"/></clipPath><g clip-path="url(#b)"><defs><path id="c" d="M-159.9 2.9c-31.2 0-56.5 7.3-56.5 16.3v23s42.2-6.7 56.5-6.7c18 0 56.5 5.7 56.5 5.7v-22c0-9-25.3-16.3-56.5-16.3z"/></defs></g><defs><path id="d" d="M-159.9 2.9c-31.2 0-56.5 7.3-56.5 16.3v23s42.2-6.7 56.5-6.7c18 0 56.5 5.7 56.5 5.7v-22c0-9-25.3-16.3-56.5-16.3z"/></defs><defs><path id="e" d="M-159.9 26.6c30.3 0 55 7.1 55 14.8s-24.7 14.8-55 14.8-55-7.1-55-14.8 24.7-14.8 55-14.8zm0-3c-32.1 0-58 7.5-58 17.8s25.9 17.8 58 17.8 58-7.5 58-17.8-25.9-17.8-58-17.8zm-78-20h156v75.6h-156V3.6z"/></defs><clipPath id="f"><use xlink:href="#e" overflow="visible"/></clipPath><g clip-path="url(#f)"><defs><ellipse id="g" cx="-159.9" cy="41.5" rx="56.5" ry="16.3"/></defs></g><defs><ellipse id="h" cx="-159.9" cy="41.5" rx="56.5" ry="16.3"/></defs><defs><path id="i" d="M-199.9 45.8c0-5.3 18-10.4 40-10.4s40 5.2 40 10.4v7.1l1.2-1.5c-.1 0-.1 0-.3.1-.3 0-.6.1-.9.2-1 .2-2.1.3-3.4.5-3.6.6-7.3 1.1-11.1 1.7-2.9.4-5.6.8-8.3 1.1-7.2.9-13.1 1.3-17.2 1.3-3.7 0-10.3-.5-18.9-1.4-1.8-.2-3.7-.4-5.6-.6-4-.5-8-.9-11.8-1.4-1.3-.2-2.6-.3-3.6-.5-.4 0-.7-.1-1-.1h-.3l1.3 1.5v-8zm-3 0v9.1l1.3.2h.4c.3 0 .6.1 1 .1 1.1.1 2.3.3 3.7.5a11776882415803102 11776882415803102 0 0 0 36.7 3.5c4.3 0 10.3-.5 17.6-1.4 2.7-.3 5.4-.7 8.3-1.1 3.8-.5 7.6-1.1 11.2-1.7 1.3-.2 2.4-.4 3.4-.5.4-.1.7-.1.9-.2.3 0 .3 0 .3-.1l1.2-.2v-8.4c0-7.9-19.2-13.4-43-13.4s-43 5.7-43 13.6zm-20-33.4h126v66.9h-126V12.4z"/></defs><clipPath id="j"><use xlink:href="#i" overflow="visible"/></clipPath><g clip-path="url(#j)"><defs><path id="k" d="M-201.4 45.8v7.8s31 4.1 41.5 4.1c13.2 0 41.5-4.8 41.5-4.8v-7.1c0-6.6-18.6-11.9-41.5-11.9s-41.5 5.3-41.5 11.9z"/></defs></g><defs><path id="l" d="M-201.4 45.8v7.8s31 4.1 41.5 4.1c13.2 0 41.5-4.8 41.5-4.8v-7.1c0-6.6-18.6-11.9-41.5-11.9s-41.5 5.3-41.5 11.9z"/></defs><defs><path id="m" d="M-159.9 43.7c22 0 40 5.2 40 10.4 0 5.3-18 10.4-40 10.4s-40-5.2-40-10.4 18-10.4 40-10.4zm0-3c-23.8 0-43 5.5-43 13.4s19.2 13.4 43 13.4 43-5.5 43-13.4-19.2-13.4-43-13.4zm-63-20h126v66.9h-126V20.7z"/></defs><clipPath id="n"><use xlink:href="#m" overflow="visible"/></clipPath><g clip-path="url(#n)"><defs><ellipse id="o" cx="-159.9" cy="54.1" rx="41.5" ry="11.9"/></defs></g><defs><ellipse id="p" cx="-159.9" cy="54.1" rx="41.5" ry="11.9"/></defs><defs><path id="q" d="M-172.5 55.7c0 .4-.2.7-.4.8.1 0 .2-.1.4-.2.6-.2 1.6-.4 2.8-.6 2.6-.4 6-.6 9.8-.6s7.2.2 9.8.6c1.2.2 2.2.4 2.8.6l.4.2c-.2-.1-.4-.4-.4-.8s.2-.7.4-.8c-.1 0-.2.1-.4.2-.6.2-1.6.4-2.8.6-2.6.4-6 .6-9.8.6s-7.2-.2-9.8-.6c-1.2-.2-2.2-.4-2.8-.6l-.4-.2c.2.1.4.3.4.8zm-3 0c0 2.6 6.2 3.5 15.6 3.5 9.4 0 15.6-.9 15.6-3.5s-6.2-3.5-15.6-3.5c-9.4-.1-15.6.8-15.6 3.5zm-20-23.6h71.2v47.1h-71.2V32.1z"/></defs><clipPath id="r"><use xlink:href="#q" overflow="visible"/></clipPath><g clip-path="url(#r)"><defs><ellipse id="s" cx="-159.9" cy="55.7" rx="14.1" ry="2"/></defs></g><defs><ellipse id="t" cx="-159.9" cy="55.7" rx="14.1" ry="2"/></defs><defs><path id="u" d="M-167.1 73s-10.5 3.3-9.1 12.3c.9 5.5 5.6 8.1 5.6 13.5s-4.6 9.5-4.6 9.5 13.5-.3 14.6-9.5c1.1-9.2-6.7-11.3-8.3-15.6-1.4-4.3 1.8-10.2 1.8-10.2z"/></defs><defs><path id="v" d="M-152 76.3s-15.1 4.8-13 17.6c1.2 7.9 8 11.6 8 19.4s-6.5 13.6-6.5 13.6 19.3-.5 20.9-13.6-9.6-16.1-11.8-22.3c-2.3-6.3 2.4-14.7 2.4-14.7z"/></defs><defs><path id="w" d="M-803.5 186.5l-1.4.4.4 1.4 30.4 99.5.4 1.4 1.4-.4 60.2-18.4 1.4-.4-.4-1.4-30.4-99.5-.4-1.4-1.4.4-60.2 18.4zm.9 2.9l60.2-18.4-1.9-1 30.4 99.5 1-1.9-60.2 18.4 1.9 1-30.4-99.5-1 1.9zm-27.3-15.7l101.4-31 43 140.6-101.4 31-43-140.6z"/></defs><clipPath id="x"><use xlink:href="#w" overflow="visible"/></clipPath><g clip-path="url(#x)"><defs><path id="y" transform="rotate(162.999 -757.709 228.492)" d="M-789.2 176.5h63v104h-63z"/></defs></g><defs><path id="z" transform="rotate(162.999 -757.709 228.492)" d="M-789.2 176.5h63v104h-63z"/></defs><defs><path id="A" d="M-768.2 163.5h-1.5v107h66v-107h-64.5zm0 3h63l-1.5-1.5v104l1.5-1.5h-63l1.5 1.5V165l-1.5 1.5zm-21.5-23h106v147h-106v-147z"/></defs><clipPath id="B"><use xlink:href="#A" overflow="visible"/></clipPath><g clip-path="url(#B)"><defs><path id="C" d="M-768.2 165h63v104h-63z"/></defs></g><defs><path id="D" d="M-768.2 165h63v104h-63z"/></defs><defs><path id="E" d="M-759.2 193h44v13h-44z"/></defs><defs><path id="F" d="M-759.2 203h44v13h-44z"/></defs><defs><path id="G" d="M-759.2 213h44v13h-44z"/></defs><defs><path id="H" d="M-759.2 223h44v14h-44z"/></defs><defs><path id="I" d="M-759.2 234h44v14h-44z"/></defs><defs><path id="J" d="M-759.2 245h44v14h-44z"/></defs><defs><path id="K" d="M-758.2 175h3v13h-3z"/></defs><defs><path id="L" d="M-753.2 175h3v13h-3z"/></defs><defs><path id="M" d="M-748.2 175h3v13h-3z"/></defs><defs><path id="N" d="M-743.2 175h3v13h-3z"/></defs><defs><path id="O" d="M-738.2 175h3v13h-3z"/></defs><defs><path id="P" d="M-738.2 226h3v32h-3z"/></defs><defs><path id="Q" d="M-733.2 175h3v13h-3z"/></defs><defs><path id="R" d="M-728.2 175h3v13h-3z"/></defs><defs><path id="S" d="M-723.2 175h3v13h-3z"/></defs><defs><path id="T" d="M-718.2 175h3v13h-3z"/></defs><defs><path id="U" d="M-800.2 189.2l53.3 34.1-23.9 61.7"/></defs><defs><path id="V" d="M-498.5 163.5h-1.5v107h66v-107h-64.5zm0 3h63l-1.5-1.5v104l1.5-1.5h-63l1.5 1.5V165l-1.5 1.5zm-21.5-23h106v147h-106v-147z"/></defs><clipPath id="W"><use xlink:href="#V" overflow="visible"/></clipPath><g clip-path="url(#W)"><defs><path id="X" d="M-498.5 165h63v104h-63z"/></defs></g><defs><path id="Y" d="M-498.5 165h63v104h-63z"/></defs><defs><path id="Z" d="M-489.5 193h44v13h-44z"/></defs><defs><path id="aa" d="M-489.5 203h44v13h-44z"/></defs><defs><path id="ab" d="M-489.5 213h44v13h-44z"/></defs><defs><path id="ac" d="M-489.5 223h44v14h-44z"/></defs><defs><path id="ad" d="M-489.5 234h44v14h-44z"/></defs><defs><path id="ae" d="M-489.5 245h44v14h-44z"/></defs><defs><path id="af" d="M-488.5 175h3v13h-3z"/></defs><defs><path id="ag" d="M-483.5 175h3v13h-3z"/></defs><defs><path id="ah" d="M-478.5 175h3v13h-3z"/></defs><defs><path id="ai" d="M-473.5 175h3v13h-3z"/></defs><defs><path id="aj" d="M-468.5 175h3v13h-3z"/></defs><defs><path id="ak" d="M-468.5 226h3v32h-3z"/></defs><defs><path id="al" d="M-463.5 175h3v13h-3z"/></defs><defs><path id="am" d="M-458.5 175h3v13h-3z"/></defs><defs><path id="an" d="M-453.5 175h3v13h-3z"/></defs><defs><path id="ao" d="M-448.5 175h3v13h-3z"/></defs><defs><path id="ap" d="M-426.5 284.5c-16.3 0-29.5-13.2-29.5-29.5s13.2-29.5 29.5-29.5S-397 238.7-397 255s-13.2 29.5-29.5 29.5zm0 3c17.9 0 32.5-14.6 32.5-32.5s-14.6-32.5-32.5-32.5S-459 237.1-459 255s14.5 32.5 32.5 32.5zm-52.5-85h105v105h-105v-105z"/></defs><clipPath id="aq"><use xlink:href="#ap" overflow="visible"/></clipPath><g clip-path="url(#aq)"><defs><circle id="ar" cx="-426.5" cy="255" r="31"/></defs></g><defs><circle id="as" cx="-426.5" cy="255" r="31"/></defs><defs><path id="at" d="M-808 502.2h-1.2v71.5h131.7v-71.5H-808zm0 2.4h129.3l-1.2-1.2v69.1l1.2-1.2H-808l1.2 1.2v-69.1l-1.2 1.2zm-17.3-18.5h163.9v103.6h-163.9V486.1z"/></defs><clipPath id="au"><use xlink:href="#at" overflow="visible"/></clipPath><g clip-path="url(#au)"><defs><path id="av" d="M-808 503.4h129.3v69.1H-808z"/></defs></g><defs><path id="aw" d="M-808 503.4h129.3v69.1H-808z"/></defs><defs><path id="ax" d="M-801.6 508.6h-1.2v57.8h118.9v-57.8h-19.5l-.3.2-6.5 4.8.7-.2h-66.7l.8.3-5.9-4.8-.3-.3h-20zm0 2.4h19.4l-.8-.3 5.9 4.8.3.3h67.5l.3-.2 6.5-4.8-.7.2h17.9l-1.2-1.2v55.4l1.2-1.2h-116.5l1.2 1.2v-55.4l-1 1.2zm-17.3-18.5h151v90h-151v-90z"/></defs><clipPath id="ay"><use xlink:href="#ax" overflow="visible"/></clipPath><g clip-path="url(#ay)"><defs><path id="az" d="M-801.6 509.8h19.5l5.9 4.8h66.7l6.5-4.8h17.9v55.4h-116.5z"/></defs></g><defs><path id="aA" d="M-801.6 509.8h19.5l5.9 4.8h66.7l6.5-4.8h17.9v55.4h-116.5z"/></defs><defs><path id="aB" d="M-773.5 509h5.6v2.4h-5.6z"/></defs><defs><path id="aC" d="M-717.2 509h5.6v2.4h-5.6z"/></defs><defs><path id="aD" d="M-226.9 182h-1.5v90h134v-90h-132.5zm0 3h131l-1.5-1.5v87l1.5-1.5h-131l1.5 1.5v-87l-1.5 1.5zm-21.5-23h174v130h-174V162z"/></defs><clipPath id="aE"><use xlink:href="#aD" overflow="visible"/></clipPath><g clip-path="url(#aE)"><defs><path id="aF" d="M-226.9 183.5h131v87h-131z"/></defs></g><defs><path id="aG" d="M-226.9 183.5h131v87h-131z"/></defs><defs><path id="aH" d="M-122.9 191h-1.5v23h21v-23h-19.5zm0 3h18l-1.5-1.5v20l1.5-1.5h-18l1.5 1.5v-20l-1.5 1.5zm-21.5-23h61v63h-61v-63z"/></defs><clipPath id="aI"><use xlink:href="#aH" overflow="visible"/></clipPath><g clip-path="url(#aI)"><defs><path id="aJ" d="M-122.9 192.5h18v20h-18z"/></defs></g><defs><path id="aK" d="M-122.9 192.5h18v20h-18z"/></defs><defs><path id="aL" d="M-117.9 196h-1.5v13h11v-13h-9.5zm0 3h8l-1.5-1.5v10l1.5-1.5h-8l1.5 1.5v-10l-1.5 1.5zm-21.5-23h51v53h-51v-53z"/></defs><clipPath id="aM"><use xlink:href="#aL" overflow="visible"/></clipPath><g clip-path="url(#aM)"><defs><path id="aN" d="M-117.9 197.5h8v10h-8z"/></defs></g><defs><path id="aO" d="M-117.9 197.5h8v10h-8z"/></defs><defs><path id="aP" d="M95.5 10.4h93v117h-93z"/></defs><clipPath id="aQ"><use xlink:href="#aP" overflow="visible"/></clipPath><g clip-path="url(#aQ)"><defs><path id="aR" d="M-295.5-659.1h1121v1030h-1121z"/></defs><clipPath id="aS"><use xlink:href="#aR" overflow="visible"/></clipPath><path clip-path="url(#aS)" fill-rule="evenodd" clip-rule="evenodd" fill="#FFF" d="M95.5 10.4h93v117h-93z"/></g><defs><path id="aT" d="M95.5 10.4h93v117h-93z"/></defs><clipPath id="aU"><use xlink:href="#aT" overflow="visible"/></clipPath><g clip-path="url(#aU)"><defs><path id="aV" d="M-295.5-659.1h1121v1030h-1121z"/></defs><clipPath id="aW"><use xlink:href="#aV" overflow="visible"/></clipPath><path clip-path="url(#aW)" fill="none" stroke="#0C1F2E" stroke-width="6" stroke-linecap="round" stroke-miterlimit="10" d="M95.5 10.4h93v117h-93z"/></g><defs><path id="aX" d="M102.5 15.9H101v23h82v-23h-80.5zm0 3h79l-1.5-1.5v20l1.5-1.5h-79l1.5 1.5v-20l-1.5 1.5z"/></defs><clipPath id="aY"><use xlink:href="#aX" overflow="visible"/></clipPath><g clip-path="url(#aY)"><defs><path id="aZ" d="M102.5 17.4h79v20h-79z"/></defs><clipPath id="ba"><use xlink:href="#aZ" overflow="visible"/></clipPath><g clip-path="url(#ba)"><defs><path id="bb" d="M-295.5-659.1h1121v1030h-1121z"/></defs><clipPath id="bc"><use xlink:href="#bb" overflow="visible"/></clipPath><path clip-path="url(#bc)" fill-rule="evenodd" clip-rule="evenodd" fill="#FFF" d="M102.5 17.4h79v20h-79z"/></g></g><g><defs><path id="bd" d="M102.5 17.4h79v20h-79z"/></defs><clipPath id="be"><use xlink:href="#bd" overflow="visible"/></clipPath><g clip-path="url(#be)"><defs><path id="bf" d="M-295.5-659.1h1121v1030h-1121z"/></defs><clipPath id="bg"><use xlink:href="#bf" overflow="visible"/></clipPath><path clip-path="url(#bg)" fill="none" stroke="#0C1F2E" stroke-width="6" stroke-linecap="round" stroke-miterlimit="10" d="M102.5 17.4h79v20h-79z"/></g></g><g><defs><path id="bh" d="M102.5 39.9H101v81h82v-81h-80.5zm0 3h79l-1.5-1.5v78l1.5-1.5h-79l1.5 1.5v-78l-1.5 1.5zM81 19.9h122v121H81v-121z"/></defs><clipPath id="bi"><use xlink:href="#bh" overflow="visible"/></clipPath><g clip-path="url(#bi)"><defs><path id="bj" d="M102.5 41.4h79v78h-79z"/></defs><clipPath id="bk"><use xlink:href="#bj" overflow="visible"/></clipPath><g clip-path="url(#bk)"><defs><path id="bl" d="M-295.5-659.1h1121v1030h-1121z"/></defs><clipPath id="bm"><use xlink:href="#bl" overflow="visible"/></clipPath><path clip-path="url(#bm)" fill-rule="evenodd" clip-rule="evenodd" fill="#FFF" d="M102.5 41.4h79v78h-79z"/></g></g></g><g><defs><path id="bn" d="M102.5 41.4h79v78h-79z"/></defs><clipPath id="bo"><use xlink:href="#bn" overflow="visible"/></clipPath><g clip-path="url(#bo)"><defs><path id="bp" d="M-295.5-659.1h1121v1030h-1121z"/></defs><clipPath id="bq"><use xlink:href="#bp" overflow="visible"/></clipPath><path clip-path="url(#bq)" fill="none" stroke="#0C1F2E" stroke-width="6" stroke-linecap="round" stroke-miterlimit="10" d="M102.5 41.4h79v78h-79z"/></g></g><g><path d="M113.9 31.4l-3.5-4.7v4.7h-1.8v-7.7h1.7l3.6 4.8v-4.8h1.8v7.7h-1.8zm10.6-3.8c0 2.2-1.8 3.9-4.2 3.9-2.4 0-4.2-1.7-4.2-3.9s1.8-3.9 4.2-3.9c2.5 0 4.2 1.6 4.2 3.9zm-6.3 0c0 1.3 1 2.3 2.2 2.3 1.2 0 2.1-1 2.1-2.3s-.9-2.3-2.1-2.3-2.2 1-2.2 2.3zm12.4-3.9c2 0 3.1 1 3.1 2.7 0 1.8-1.1 2.8-3.1 2.8h-1.4v2.2h-2v-7.7h3.4zm-1.4 4h1.3c.9 0 1.4-.4 1.4-1.2 0-.8-.5-1.2-1.4-1.2h-1.3v2.4zm6.3 2.3l-.6 1.4h-2l3.3-7.7h2l3.2 7.7h-2.1l-.5-1.4h-3.3zm1.7-4.3l-1.1 2.8h2.2l-1.1-2.8zm8.1 3.6h-1.5v2.2h-2v-7.7h3.4c2 0 3.2 1 3.2 2.7 0 1.2-.5 2-1.4 2.5l1.6 2.5h-2.2l-1.1-2.2zm-.1-1.6c.8 0 1.3-.4 1.3-1.2 0-.8-.5-1.2-1.3-1.2h-1.5v2.5h1.5zm7.1.7l-1 1.1v1.9h-2v-7.7h2V27l2.9-3.3h2.3l-2.9 3.2 3 4.5h-2.3l-2-3zm4.8 3v-7.7h2v7.7h-2zm8.4 0l-3.5-4.7v4.7h-1.8v-7.7h1.7l3.6 4.8v-4.8h1.8v7.7h-1.8zm9.7-3.9v3c-.8.6-2.1 1-3.2 1-2.3 0-4.1-1.7-4.1-3.9s1.8-3.9 4.2-3.9c1.1 0 2.4.4 3.1 1.1l-1.1 1.3c-.6-.5-1.3-.8-2.1-.8-1.3 0-2.2 1-2.2 2.3 0 1.3 1 2.3 2.3 2.3.4 0 .9-.1 1.4-.4v-2h1.7z" fill="#042A3E"/></g><g><defs><path id="br" d="M95.5 166H94v120h96V166H95.5zm0 3h93l-1.5-1.5v117l1.5-1.5h-93l1.5 1.5v-117l-1.5 1.5zM74 146h136v160H74V146z"/></defs><clipPath id="bs"><use xlink:href="#br" overflow="visible"/></clipPath><g clip-path="url(#bs)"><defs><path id="bt" d="M95.5 167.5h93v117h-93z"/></defs></g></g><g><defs><path id="bu" d="M95.5 167.5h93v117h-93z"/></defs></g><g><defs><path id="bv" d="M102.5 173H101v23h82v-23h-80.5zm0 3h79l-1.5-1.5v20l1.5-1.5h-79l1.5 1.5v-20l-1.5 1.5zM81 153h122v63H81v-63z"/></defs><clipPath id="bw"><use xlink:href="#bv" overflow="visible"/></clipPath><g clip-path="url(#bw)"><defs><path id="bx" d="M102.5 174.5h79v20h-79z"/></defs></g></g><g><defs><path id="by" d="M102.5 174.5h79v20h-79z"/></defs></g><g><defs><path id="bz" d="M102.5 197H101v81h82v-81h-80.5zm0 3h79l-1.5-1.5v78l1.5-1.5h-79l1.5 1.5v-78l-1.5 1.5zM81 177h122v121H81V177z"/></defs><clipPath id="bA"><use xlink:href="#bz" overflow="visible"/></clipPath><g clip-path="url(#bA)"><defs><path id="bB" d="M102.5 198.5h79v78h-79z"/></defs></g></g><g><defs><path id="bC" d="M102.5 198.5h79v78h-79z"/></defs></g><g fill="#042A3E"><path d="M120.5 65.3h-1.2v1.6h-1.5v-5.8h2.6c1.5 0 2.4.7 2.4 2 0 .9-.4 1.5-1.1 1.9l1.2 1.9h-1.7l-.7-1.6zm0-1.2c.6 0 1-.3 1-.9 0-.6-.4-.9-1-.9h-1.1v1.9h1.1zm4.9-1.9v1.2h2.8v1.2h-2.8v1.2h3.2V67h-4.7v-5.8h4.6v1.2h-3.1zm8.6-.5l-.6 1.2c-.6-.4-1.4-.6-1.9-.6-.4 0-.6.1-.6.4 0 1 3.1.4 3.1 2.5 0 1.2-1 1.8-2.3 1.8-1 0-2-.4-2.7-.9l.6-1.1c.6.5 1.5.9 2.1.9.5 0 .8-.2.8-.5 0-1-3.1-.4-3.1-2.5 0-1.1.9-1.8 2.3-1.8.9-.1 1.7.2 2.3.6zm2.3.5v1.2h2.8v1.2h-2.8v1.2h3.2V67h-4.7v-5.8h4.6v1.2h-3.1zm6.8 3.1H142v1.6h-1.5v-5.8h2.6c1.5 0 2.4.7 2.4 2 0 .9-.4 1.5-1.1 1.9l1.2 1.9H144l-.9-1.6zm0-1.2c.6 0 1-.3 1-.9 0-.6-.4-.9-1-.9H142v1.9h1.1zm5.1 2.8l-2.3-5.8h1.6l1.5 4.3 1.5-4.3h1.5l-2.3 5.8h-1.5zm5.8-4.7v1.2h2.8v1.2H154v1.2h3.2V67h-4.7v-5.8h4.6v1.2H154zm6.7-1.1c1.8 0 3.1 1.2 3.1 2.9s-1.3 2.9-3.2 2.9h-2.4v-5.8h2.5zm-1 4.6h1.1c.9 0 1.6-.7 1.6-1.7s-.7-1.7-1.6-1.7h-1v3.4zm-25.1 19.4c.1.1.2.1.3.1.2 0 .3-.1.4-.2s.2-.3.3-.5.1-.5.2-.7c0-.3.1-.6.1-1s.1-.7.1-1.1.1-.8.1-1.3c0-.4.1-.7.1-1.1 0-.4.1-.7.1-1.1h-.9v-.4h.9c.1-.4.1-.7.2-1 .1-.3.2-.6.4-.8s.4-.4.6-.5c.2-.1.5-.2.9-.2.2 0 .4 0 .5.1.1.1.2.2.2.4v.1s0 .1-.1.1-.1.1-.1.1h-.2c-.1 0-.2 0-.3-.1-.1-.1-.1-.2-.1-.3h-.2c-.2 0-.3.1-.4.2-.1.1-.2.3-.3.5-.1.2-.1.4-.2.7 0 .3-.1.6-.1.9h1.4v.4h-1.4c0 .3 0 .7-.1 1.1 0 .4 0 .8-.1 1.1 0 .4-.1.8-.1 1.2 0 .4-.1.8-.1 1.2-.1.4-.1.7-.2 1.1-.1.3-.2.6-.4.9s-.3.4-.6.6-.5.2-.8.2c-.5 0-.8-.2-.8-.5v-.1s0-.1.1-.1l.1-.1h.2c.1 0 .2 0 .3.1 0-.2 0-.1 0 0zm6-2.1c-.3 0-.6-.1-.9-.2s-.4-.3-.6-.5c-.2-.2-.3-.4-.4-.7-.1-.3-.1-.6-.1-.9 0-.4.1-.8.2-1.1s.3-.7.5-.9.5-.5.8-.6.7-.2 1-.2c.3 0 .5 0 .8.1s.4.2.6.4c.2.2.3.4.4.7.1.3.1.6.1.9 0 .4-.1.8-.2 1.2-.1.4-.3.7-.5 1-.2.3-.5.5-.8.7-.1 0-.5.1-.9.1zm1.6-2.8v-.5c0-.2 0-.3-.1-.5s-.1-.2-.1-.4-.1-.2-.2-.3-.2-.2-.3-.2-.3-.1-.4-.1c-.2 0-.4.1-.6.2-.2.1-.3.3-.4.5s-.2.5-.3.8c-.1.3-.1.6-.1.9v.5c0 .2 0 .3.1.5s.1.3.1.4c.1.1.1.3.2.4.1.1.2.2.3.2.1.1.2.1.4.1s.3 0 .5-.1c.1-.1.3-.2.4-.3s.2-.3.3-.4.1-.3.2-.5.1-.4.1-.5c-.1-.3-.1-.5-.1-.7zm5-1.8h-.1c-.1 0-.3.1-.4.2-.1.1-.3.3-.4.5-.1.2-.2.5-.4.7s-.2.6-.3.9c-.1.3-.1.6-.2.9 0 .3-.1.6-.1.8v.4h-.8v-1.4c0-.2.1-.5.1-.9 0-.3.1-.5.1-.7 0-.2 0-.3.1-.4v-1s0-.1-.1-.1h-.1c-.1 0-.1 0-.2.1-.1 0-.1.1-.2.2s-.1.2-.2.3-.1.3-.2.4l-.3-.1c0-.1.1-.3.1-.4.1-.2.1-.3.3-.5s.2-.3.4-.4c.2-.1.3-.2.5-.2.1 0 .3 0 .3.1s.2.1.2.2c.1.1.1.2.1.3v1c0 .2-.1.4-.1.6.1-.4.3-.8.4-1.1s.3-.5.5-.7c.2-.2.3-.3.5-.3s.3-.1.5-.1h.3c.1 0 .2.1.2.1.1.1.1.1.1.2s.1.2.1.2v.2c0 .1-.1.1-.1.2s-.1.1-.1.1h-.2c-.1 0-.2 0-.3-.1s0 0 0-.2zm-30.9 20.5v-3.8l-1.4 3.2h-1l-1.4-3.2v3.8h-1.3v-5.8h1.6l1.6 3.5 1.6-3.5h1.6v5.8h-1.3zm8.4-2.9c0 1.7-1.3 3-3.2 3-1.8 0-3.1-1.3-3.1-3s1.3-3 3.1-3 3.2 1.3 3.2 3zm-4.8 0c0 1 .8 1.7 1.7 1.7.9 0 1.6-.8 1.6-1.7 0-1-.7-1.7-1.6-1.7-1 0-1.7.7-1.7 1.7zm7.2 2.9l-2.3-5.8h1.6l1.5 4.3 1.5-4.3h1.5l-2.3 5.8h-1.5zm4.4 0v-5.8h1.5v5.8h-1.5zm6.7 0l-2.7-3.6v3.6h-1.4v-5.8h1.3l2.7 3.6v-3.6h1.4v5.8h-1.3zm7.6-3v2.3c-.6.4-1.6.8-2.4.8-1.8 0-3.1-1.3-3.1-3s1.4-3 3.2-3c.9 0 1.8.3 2.4.9l-.8 1c-.4-.4-1-.6-1.6-.6-1 0-1.7.8-1.7 1.7 0 1 .7 1.7 1.7 1.7.3 0 .7-.1 1-.3v-1.5h1.3zm4.7 3l-2.3-5.8h1.6l1.5 4.3 1.5-4.3h1.5l-2.3 5.8h-1.5zm5.7-1.1l-.4 1.1h-1.5l2.5-5.8h1.5l2.5 5.8h-1.6l-.4-1.1h-2.6zm1.3-3.2l-.8 2.2h1.7l-.9-2.2zm7.9 4.3l-2.7-3.6v3.6h-1.4v-5.8h1.3l2.7 3.6v-3.6h1.4v5.8h-1.3zm7-5.2l-.6 1.2c-.6-.4-1.4-.6-1.9-.6-.4 0-.6.1-.6.4 0 1 3.1.4 3.1 2.5 0 1.2-1 1.8-2.3 1.8-1 0-2-.4-2.7-.9l.6-1.1c.6.5 1.5.9 2.1.9.5 0 .8-.2.8-.5 0-1-3.1-.4-3.1-2.5 0-1.1.9-1.8 2.3-1.8.8-.1 1.7.2 2.3.6z"/></g><g><defs><path id="bD" d="M-152.9 746.9c-27.1 0-49-21.9-49-49s21.9-49 49-49 49 21.9 49 49-21.9 49-49 49zm0 3c28.7 0 52-23.3 52-52s-23.3-52-52-52-52 23.3-52 52 23.3 52 52 52zm-72-124h144v144h-144v-144z"/></defs><clipPath id="bE"><use xlink:href="#bD" overflow="visible"/></clipPath><g clip-path="url(#bE)"><defs><circle id="bF" cx="-152.9" cy="697.9" r="50.5"/></defs></g></g><g><defs><circle id="bG" cx="-152.9" cy="697.9" r="50.5"/></defs></g><g><defs><circle id="bH" cx="-152.9" cy="697.9" r="43.5"/></defs></g><g><defs><path id="bI" d="M-750 899.3c-27.1 0-49-21.9-49-49s21.9-49 49-49 49 21.9 49 49c0 27-21.9 49-49 49zm0 3c28.7 0 52-23.3 52-52s-23.3-52-52-52-52 23.3-52 52 23.3 52 52 52zm-72-124h144v144h-144v-144z"/></defs><clipPath id="bJ"><use xlink:href="#bI" overflow="visible"/></clipPath><g clip-path="url(#bJ)"><defs><circle id="bK" cx="-750" cy="850.3" r="50.5"/></defs></g></g><g><defs><circle id="bL" cx="-750" cy="850.3" r="50.5"/></defs></g><g><defs><circle id="bM" cx="-750" cy="850.3" r="43.5"/></defs></g></svg>