<svg xmlns="http://www.w3.org/2000/svg" xmlns:xlink="http://www.w3.org/1999/xlink" viewBox="0 0 276 137"><defs><circle id="a" cx="142.1" cy="-86.5" r="50.5"/></defs><clipPath id="b"><use xlink:href="#a" overflow="visible"/></clipPath><g clip-path="url(#b)"><defs><path id="c" d="M-32.4-822.5h1121v1030h-1121z"/></defs></g><defs><circle id="d" cx="142.1" cy="-86.5" r="43.5"/></defs><clipPath id="e"><use xlink:href="#d" overflow="visible"/></clipPath><g clip-path="url(#e)"><defs><path id="f" d="M-32.4-822.5h1121v1030h-1121z"/></defs></g><defs><path id="g" d="M85.5-279.8H84v84h108v-84H85.5zm0 3h105l-1.5-1.5v81l1.5-1.5h-105l1.5 1.5v-81l-1.5 1.5zm-21.5-23h148v124H64v-124z"/></defs><clipPath id="h"><use xlink:href="#g" overflow="visible"/></clipPath><g clip-path="url(#h)"><defs><path id="i" d="M85.5-278.3h105v81h-105z"/></defs><clipPath id="j"><use xlink:href="#i" overflow="visible"/></clipPath><g clip-path="url(#j)"><defs><path id="k" d="M-795.5-777.3h1121v1030h-1121z"/></defs></g></g><defs><path id="l" d="M85.5-278.3h105v81h-105z"/></defs><clipPath id="m"><use xlink:href="#l" overflow="visible"/></clipPath><g clip-path="url(#m)"><defs><path id="n" d="M-795.5-777.3h1121v1030h-1121z"/></defs></g><defs><path id="o" d="M79.5-262.8h-2.2l.9-2.1 9.1-22 .4-.9h100.9l.4.9 9.1 22 .9 2.1H79.5zm0-3h117l-1.4 2.1-9.1-22 1.4.9H88.6l1.4-.9-9.1 22-1.4-2.1zm-22.2 23h161.5v-65H57.3v65z"/></defs><clipPath id="p"><use xlink:href="#o" overflow="visible"/></clipPath><g clip-path="url(#p)"><defs><path id="q" d="M79.5-264.3h117l-9.1-22H88.6z"/></defs><clipPath id="r"><use xlink:href="#q" overflow="visible"/></clipPath><g clip-path="url(#r)"><defs><path id="s" d="M-795.5-777.3h1121v1030h-1121z"/></defs></g></g><defs><path id="t" d="M79.5-264.3h117l-9.1-22H88.6z"/></defs><clipPath id="u"><use xlink:href="#t" overflow="visible"/></clipPath><g clip-path="url(#u)"><defs><path id="v" d="M-795.5-777.3h1121v1030h-1121z"/></defs></g><defs><path id="w" d="M164.5-295.8H163v19h15v-19h-13.5zm0 3h12l-1.5-1.5v16l1.5-1.5h-12l1.5 1.5v-16l-1.5 1.5zm-21.5-23h55v59h-55v-59z"/></defs><clipPath id="x"><use xlink:href="#w" overflow="visible"/></clipPath><g clip-path="url(#x)"><defs><path id="y" d="M164.5-294.3h12v16h-12z"/></defs><clipPath id="z"><use xlink:href="#y" overflow="visible"/></clipPath><g clip-path="url(#z)"><defs><path id="A" d="M-795.5-777.3h1121v1030h-1121z"/></defs></g></g><defs><path id="B" d="M164.5-294.3h12v16h-12z"/></defs><clipPath id="C"><use xlink:href="#B" overflow="visible"/></clipPath><g clip-path="url(#C)"><defs><path id="D" d="M-795.5-777.3h1121v1030h-1121z"/></defs></g><defs><path id="E" d="M98.5-229.8H97v34h24v-34H98.5zm0 3h21l-1.5-1.5v31l1.5-1.5h-21l1.5 1.5v-31l-1.5 1.5zm-21.5-23h64v74H77v-74z"/></defs><clipPath id="F"><use xlink:href="#E" overflow="visible"/></clipPath><g clip-path="url(#F)"><defs><path id="G" d="M98.5-228.3h21v31h-21z"/></defs><clipPath id="H"><use xlink:href="#G" overflow="visible"/></clipPath><g clip-path="url(#H)"><defs><path id="I" d="M-795.5-777.3h1121v1030h-1121z"/></defs></g></g><defs><path id="J" d="M98.5-228.3h21v31h-21z"/></defs><clipPath id="K"><use xlink:href="#J" overflow="visible"/></clipPath><g clip-path="url(#K)"><defs><path id="L" d="M-795.5-777.3h1121v1030h-1121z"/></defs></g><defs><path id="M" d="M99.5-257.8H98v22h22v-22H99.5zm0 3h19l-1.5-1.5v19l1.5-1.5h-19l1.5 1.5v-19l-1.5 1.5zm-21.5-23h62v62H78v-62z"/></defs><clipPath id="N"><use xlink:href="#M" overflow="visible"/></clipPath><g clip-path="url(#N)"><defs><path id="O" d="M99.5-256.3h19v19h-19z"/></defs><clipPath id="P"><use xlink:href="#O" overflow="visible"/></clipPath><g clip-path="url(#P)"><defs><path id="Q" d="M-795.5-777.3h1121v1030h-1121z"/></defs></g></g><defs><path id="R" d="M99.5-256.3h19v19h-19z"/></defs><clipPath id="S"><use xlink:href="#R" overflow="visible"/></clipPath><g clip-path="url(#S)"><defs><path id="T" d="M-795.5-777.3h1121v1030h-1121z"/></defs></g><defs><path id="U" d="M104.5-252.8H103v12h12v-12h-10.5zm0 3h9l-1.5-1.5v9l1.5-1.5h-9l1.5 1.5v-9l-1.5 1.5zm-21.5-23h52v52H83v-52z"/></defs><clipPath id="V"><use xlink:href="#U" overflow="visible"/></clipPath><g clip-path="url(#V)"><defs><path id="W" d="M104.5-251.3h9v9h-9z"/></defs><clipPath id="X"><use xlink:href="#W" overflow="visible"/></clipPath><g clip-path="url(#X)"><defs><path id="Y" d="M-795.5-777.3h1121v1030h-1121z"/></defs></g></g><g><defs><path id="Z" d="M104.5-251.3h9v9h-9z"/></defs><clipPath id="aa"><use xlink:href="#Z" overflow="visible"/></clipPath><g clip-path="url(#aa)"><defs><path id="ab" d="M-795.5-777.3h1121v1030h-1121z"/></defs></g></g><g><defs><path id="ac" d="M129.5-257.8H128v22h22v-22h-20.5zm0 3h19l-1.5-1.5v19l1.5-1.5h-19l1.5 1.5v-19l-1.5 1.5zm-21.5-23h62v62h-62v-62z"/></defs><clipPath id="ad"><use xlink:href="#ac" overflow="visible"/></clipPath><g clip-path="url(#ad)"><defs><path id="ae" d="M129.5-256.3h19v19h-19z"/></defs><clipPath id="af"><use xlink:href="#ae" overflow="visible"/></clipPath><g clip-path="url(#af)"><defs><path id="ag" d="M-795.5-777.3h1121v1030h-1121z"/></defs></g></g></g><g><defs><path id="ah" d="M129.5-256.3h19v19h-19z"/></defs><clipPath id="ai"><use xlink:href="#ah" overflow="visible"/></clipPath><g clip-path="url(#ai)"><defs><path id="aj" d="M-795.5-777.3h1121v1030h-1121z"/></defs></g></g><g><defs><path id="ak" d="M158.5-257.8H157v22h22v-22h-20.5zm0 3h19l-1.5-1.5v19l1.5-1.5h-19l1.5 1.5v-19l-1.5 1.5zm-21.5-23h62v62h-62v-62z"/></defs><clipPath id="al"><use xlink:href="#ak" overflow="visible"/></clipPath><g clip-path="url(#al)"><defs><path id="am" d="M158.5-256.3h19v19h-19z"/></defs><clipPath id="an"><use xlink:href="#am" overflow="visible"/></clipPath><g clip-path="url(#an)"><defs><path id="ao" d="M-795.5-777.3h1121v1030h-1121z"/></defs></g></g></g><g><defs><path id="ap" d="M158.5-256.3h19v19h-19z"/></defs><clipPath id="aq"><use xlink:href="#ap" overflow="visible"/></clipPath><g clip-path="url(#aq)"><defs><path id="ar" d="M-795.5-777.3h1121v1030h-1121z"/></defs></g></g><g><defs><path id="as" d="M129.5-229.8H128v22h22v-22h-20.5zm0 3h19l-1.5-1.5v19l1.5-1.5h-19l1.5 1.5v-19l-1.5 1.5zm-21.5-23h62v62h-62v-62z"/></defs><clipPath id="at"><use xlink:href="#as" overflow="visible"/></clipPath><g clip-path="url(#at)"><defs><path id="au" d="M129.5-228.3h19v19h-19z"/></defs><clipPath id="av"><use xlink:href="#au" overflow="visible"/></clipPath><g clip-path="url(#av)"><defs><path id="aw" d="M-795.5-777.3h1121v1030h-1121z"/></defs></g></g></g><g><defs><path id="ax" d="M129.5-228.3h19v19h-19z"/></defs><clipPath id="ay"><use xlink:href="#ax" overflow="visible"/></clipPath><g clip-path="url(#ay)"><defs><path id="az" d="M-795.5-777.3h1121v1030h-1121z"/></defs></g></g><g><defs><path id="aA" d="M158.5-229.8H157v22h22v-22h-20.5zm0 3h19l-1.5-1.5v19l1.5-1.5h-19l1.5 1.5v-19l-1.5 1.5zm-21.5-23h62v62h-62v-62z"/></defs><clipPath id="aB"><use xlink:href="#aA" overflow="visible"/></clipPath><g clip-path="url(#aB)"><defs><path id="aC" d="M158.5-228.3h19v19h-19z"/></defs><clipPath id="aD"><use xlink:href="#aC" overflow="visible"/></clipPath><g clip-path="url(#aD)"><defs><path id="aE" d="M-795.5-777.3h1121v1030h-1121z"/></defs></g></g></g><g><defs><path id="aF" d="M158.5-228.3h19v19h-19z"/></defs><clipPath id="aG"><use xlink:href="#aF" overflow="visible"/></clipPath><g clip-path="url(#aG)"><defs><path id="aH" d="M-795.5-777.3h1121v1030h-1121z"/></defs></g></g><g><defs><path id="aI" d="M134.5-252.8H133v12h12v-12h-10.5zm0 3h9l-1.5-1.5v9l1.5-1.5h-9l1.5 1.5v-9l-1.5 1.5zm-21.5-23h52v52h-52v-52z"/></defs><clipPath id="aJ"><use xlink:href="#aI" overflow="visible"/></clipPath><g clip-path="url(#aJ)"><defs><path id="aK" d="M134.5-251.3h9v9h-9z"/></defs><clipPath id="aL"><use xlink:href="#aK" overflow="visible"/></clipPath><g clip-path="url(#aL)"><defs><path id="aM" d="M-795.5-777.3h1121v1030h-1121z"/></defs></g></g></g><g><defs><path id="aN" d="M134.5-251.3h9v9h-9z"/></defs><clipPath id="aO"><use xlink:href="#aN" overflow="visible"/></clipPath><g clip-path="url(#aO)"><defs><path id="aP" d="M-795.5-777.3h1121v1030h-1121z"/></defs></g></g><g><defs><path id="aQ" d="M163.5-252.8H162v12h12v-12h-10.5zm0 3h9l-1.5-1.5v9l1.5-1.5h-9l1.5 1.5v-9l-1.5 1.5zm-21.5-23h52v52h-52v-52z"/></defs><clipPath id="aR"><use xlink:href="#aQ" overflow="visible"/></clipPath><g clip-path="url(#aR)"><defs><path id="aS" d="M163.5-251.3h9v9h-9z"/></defs><clipPath id="aT"><use xlink:href="#aS" overflow="visible"/></clipPath><g clip-path="url(#aT)"><defs><path id="aU" d="M-795.5-777.3h1121v1030h-1121z"/></defs></g></g></g><g><defs><path id="aV" d="M163.5-251.3h9v9h-9z"/></defs><clipPath id="aW"><use xlink:href="#aV" overflow="visible"/></clipPath><g clip-path="url(#aW)"><defs><path id="aX" d="M-795.5-777.3h1121v1030h-1121z"/></defs></g></g><g><defs><path id="aY" d="M134.5-224.8H133v12h12v-12h-10.5zm0 3h9l-1.5-1.5v9l1.5-1.5h-9l1.5 1.5v-9l-1.5 1.5zm-21.5-23h52v52h-52v-52z"/></defs><clipPath id="aZ"><use xlink:href="#aY" overflow="visible"/></clipPath><g clip-path="url(#aZ)"><defs><path id="ba" d="M134.5-223.3h9v9h-9z"/></defs><clipPath id="bb"><use xlink:href="#ba" overflow="visible"/></clipPath><g clip-path="url(#bb)"><defs><path id="bc" d="M-795.5-777.3h1121v1030h-1121z"/></defs></g></g></g><g><defs><path id="bd" d="M134.5-223.3h9v9h-9z"/></defs><clipPath id="be"><use xlink:href="#bd" overflow="visible"/></clipPath><g clip-path="url(#be)"><defs><path id="bf" d="M-795.5-777.3h1121v1030h-1121z"/></defs></g></g><g><defs><path id="bg" d="M163.5-224.8H162v12h12v-12h-10.5zm0 3h9l-1.5-1.5v9l1.5-1.5h-9l1.5 1.5v-9l-1.5 1.5zm-21.5-23h52v52h-52v-52z"/></defs><clipPath id="bh"><use xlink:href="#bg" overflow="visible"/></clipPath><g clip-path="url(#bh)"><defs><path id="bi" d="M163.5-223.3h9v9h-9z"/></defs><clipPath id="bj"><use xlink:href="#bi" overflow="visible"/></clipPath><g clip-path="url(#bj)"><defs><path id="bk" d="M-795.5-777.3h1121v1030h-1121z"/></defs></g></g></g><g><defs><path id="bl" d="M163.5-223.3h9v9h-9z"/></defs><clipPath id="bm"><use xlink:href="#bl" overflow="visible"/></clipPath><g clip-path="url(#bm)"><defs><path id="bn" d="M-795.5-777.3h1121v1030h-1121z"/></defs></g></g><path fill="#FFF" stroke="#0F1F2D" stroke-width="3" stroke-miterlimit="10" d="M91.2 25.2h99v65.9h-99z"/><path fill="#FFF" stroke="#0F1F2D" stroke-width="3" stroke-miterlimit="10" d="M97.3 30.3h86.8v55.8H97.3zM127.8 91.2h25.8v15.7h-25.8zM120 106.9h41.3v4.5H120z"/><text transform="translate(109.999 66.792)" font-family="'Montserrat-Bold'" font-size="28.805">$</text><path fill="#FFF" stroke="#0F1F2D" stroke-width="3" stroke-miterlimit="10" d="M138 42.5h34M138 52.5h34M138 62.5h34M138 72.5h34"/></svg>