<svg xmlns="http://www.w3.org/2000/svg" xmlns:xlink="http://www.w3.org/1999/xlink" viewBox="0 0 276 137"><defs><circle id="a" cx="142.1" cy="-86.5" r="50.5"/></defs><defs><circle id="b" cx="142.1" cy="-86.5" r="43.5"/></defs><defs><path id="c" d="M85.5-279.8H84v84h108v-84H85.5zm0 3h105l-1.5-1.5v81l1.5-1.5h-105l1.5 1.5v-81l-1.5 1.5zm-21.5-23h148v124H64v-124z"/></defs><clipPath id="d"><use xlink:href="#c" overflow="visible"/></clipPath><g clip-path="url(#d)"><defs><path id="e" d="M85.5-278.3h105v81h-105z"/></defs></g><defs><path id="f" d="M85.5-278.3h105v81h-105z"/></defs><defs><path id="g" d="M79.5-262.8h-2.2l.9-2.1 9.1-22 .4-.9h100.9l.4.9 9.1 22 .9 2.1H79.5zm0-3h117l-1.4 2.1-9.1-22 1.4.9H88.6l1.4-.9-9.1 22-1.4-2.1zm-22.2 23h161.5v-65H57.3v65z"/></defs><clipPath id="h"><use xlink:href="#g" overflow="visible"/></clipPath><g clip-path="url(#h)"><defs><path id="i" d="M79.5-264.3h117l-9.1-22H88.6z"/></defs></g><defs><path id="j" d="M79.5-264.3h117l-9.1-22H88.6z"/></defs><defs><path id="k" d="M164.5-295.8H163v19h15v-19h-13.5zm0 3h12l-1.5-1.5v16l1.5-1.5h-12l1.5 1.5v-16l-1.5 1.5zm-21.5-23h55v59h-55v-59z"/></defs><clipPath id="l"><use xlink:href="#k" overflow="visible"/></clipPath><g clip-path="url(#l)"><defs><path id="m" d="M164.5-294.3h12v16h-12z"/></defs></g><defs><path id="n" d="M164.5-294.3h12v16h-12z"/></defs><defs><path id="o" d="M98.5-229.8H97v34h24v-34H98.5zm0 3h21l-1.5-1.5v31l1.5-1.5h-21l1.5 1.5v-31l-1.5 1.5zm-21.5-23h64v74H77v-74z"/></defs><clipPath id="p"><use xlink:href="#o" overflow="visible"/></clipPath><g clip-path="url(#p)"><defs><path id="q" d="M98.5-228.3h21v31h-21z"/></defs></g><defs><path id="r" d="M98.5-228.3h21v31h-21z"/></defs><defs><path id="s" d="M99.5-257.8H98v22h22v-22H99.5zm0 3h19l-1.5-1.5v19l1.5-1.5h-19l1.5 1.5v-19l-1.5 1.5zm-21.5-23h62v62H78v-62z"/></defs><clipPath id="t"><use xlink:href="#s" overflow="visible"/></clipPath><g clip-path="url(#t)"><defs><path id="u" d="M99.5-256.3h19v19h-19z"/></defs></g><defs><path id="v" d="M99.5-256.3h19v19h-19z"/></defs><defs><path id="w" d="M104.5-252.8H103v12h12v-12h-10.5zm0 3h9l-1.5-1.5v9l1.5-1.5h-9l1.5 1.5v-9l-1.5 1.5zm-21.5-23h52v52H83v-52z"/></defs><clipPath id="x"><use xlink:href="#w" overflow="visible"/></clipPath><g clip-path="url(#x)"><defs><path id="y" d="M104.5-251.3h9v9h-9z"/></defs></g><defs><path id="z" d="M104.5-251.3h9v9h-9z"/></defs><defs><path id="A" d="M129.5-257.8H128v22h22v-22h-20.5zm0 3h19l-1.5-1.5v19l1.5-1.5h-19l1.5 1.5v-19l-1.5 1.5zm-21.5-23h62v62h-62v-62z"/></defs><clipPath id="B"><use xlink:href="#A" overflow="visible"/></clipPath><g clip-path="url(#B)"><defs><path id="C" d="M129.5-256.3h19v19h-19z"/></defs></g><defs><path id="D" d="M129.5-256.3h19v19h-19z"/></defs><defs><path id="E" d="M158.5-257.8H157v22h22v-22h-20.5zm0 3h19l-1.5-1.5v19l1.5-1.5h-19l1.5 1.5v-19l-1.5 1.5zm-21.5-23h62v62h-62v-62z"/></defs><clipPath id="F"><use xlink:href="#E" overflow="visible"/></clipPath><g clip-path="url(#F)"><defs><path id="G" d="M158.5-256.3h19v19h-19z"/></defs></g><defs><path id="H" d="M158.5-256.3h19v19h-19z"/></defs><defs><path id="I" d="M129.5-229.8H128v22h22v-22h-20.5zm0 3h19l-1.5-1.5v19l1.5-1.5h-19l1.5 1.5v-19l-1.5 1.5zm-21.5-23h62v62h-62v-62z"/></defs><clipPath id="J"><use xlink:href="#I" overflow="visible"/></clipPath><g clip-path="url(#J)"><defs><path id="K" d="M129.5-228.3h19v19h-19z"/></defs></g><defs><path id="L" d="M129.5-228.3h19v19h-19z"/></defs><defs><path id="M" d="M158.5-229.8H157v22h22v-22h-20.5zm0 3h19l-1.5-1.5v19l1.5-1.5h-19l1.5 1.5v-19l-1.5 1.5zm-21.5-23h62v62h-62v-62z"/></defs><clipPath id="N"><use xlink:href="#M" overflow="visible"/></clipPath><g clip-path="url(#N)"><defs><path id="O" d="M158.5-228.3h19v19h-19z"/></defs></g><defs><path id="P" d="M158.5-228.3h19v19h-19z"/></defs><defs><path id="Q" d="M134.5-252.8H133v12h12v-12h-10.5zm0 3h9l-1.5-1.5v9l1.5-1.5h-9l1.5 1.5v-9l-1.5 1.5zm-21.5-23h52v52h-52v-52z"/></defs><clipPath id="R"><use xlink:href="#Q" overflow="visible"/></clipPath><g clip-path="url(#R)"><defs><path id="S" d="M134.5-251.3h9v9h-9z"/></defs></g><defs><path id="T" d="M134.5-251.3h9v9h-9z"/></defs><defs><path id="U" d="M163.5-252.8H162v12h12v-12h-10.5zm0 3h9l-1.5-1.5v9l1.5-1.5h-9l1.5 1.5v-9l-1.5 1.5zm-21.5-23h52v52h-52v-52z"/></defs><clipPath id="V"><use xlink:href="#U" overflow="visible"/></clipPath><g clip-path="url(#V)"><defs><path id="W" d="M163.5-251.3h9v9h-9z"/></defs></g><defs><path id="X" d="M163.5-251.3h9v9h-9z"/></defs><defs><path id="Y" d="M134.5-224.8H133v12h12v-12h-10.5zm0 3h9l-1.5-1.5v9l1.5-1.5h-9l1.5 1.5v-9l-1.5 1.5zm-21.5-23h52v52h-52v-52z"/></defs><clipPath id="Z"><use xlink:href="#Y" overflow="visible"/></clipPath><g clip-path="url(#Z)"><defs><path id="aa" d="M134.5-223.3h9v9h-9z"/></defs></g><g><defs><path id="ab" d="M134.5-223.3h9v9h-9z"/></defs></g><g><defs><path id="ac" d="M163.5-224.8H162v12h12v-12h-10.5zm0 3h9l-1.5-1.5v9l1.5-1.5h-9l1.5 1.5v-9l-1.5 1.5zm-21.5-23h52v52h-52v-52z"/></defs><clipPath id="ad"><use xlink:href="#ac" overflow="visible"/></clipPath><g clip-path="url(#ad)"><defs><path id="ae" d="M163.5-223.3h9v9h-9z"/></defs></g></g><g><defs><path id="af" d="M163.5-223.3h9v9h-9z"/></defs></g><path fill="#FFF" stroke="#0F1F2D" stroke-width="3" stroke-miterlimit="10" d="M91.2 25.2h99v65.9h-99z"/><path fill="#FFF" stroke="#0F1F2D" stroke-width="3" stroke-miterlimit="10" d="M97.3 30.3h86.8v55.8H97.3zm30.5 60.9h25.8v15.7h-25.8zm-7.8 15.7h41.3v4.5H120z"/><text transform="translate(109.999 66.792)" font-family="'Montserrat-Bold'" font-size="28.805">$</text><path fill="#FFF" stroke="#0F1F2D" stroke-width="3" stroke-miterlimit="10" d="M138 42.5h34m-34 10h34m-34 10h34m-34 10h34"/></svg>