<svg xmlns="http://www.w3.org/2000/svg" xmlns:xlink="http://www.w3.org/1999/xlink" viewBox="0 0 276 137"><defs><path id="a" d="M-225.5-470h-1.5v90h134v-90h-132.5zm0 3h131l-1.5-1.5v87l1.5-1.5h-131l1.5 1.5v-87l-1.5 1.5zm-21.5-23h174v130h-174v-130z"/></defs><clipPath id="b"><use xlink:href="#a" overflow="visible"/></clipPath><g clip-path="url(#b)"><defs><path id="c" d="M-225.5-468.5h131v87h-131z"/></defs><clipPath id="d"><use xlink:href="#c" overflow="visible"/></clipPath><g clip-path="url(#d)"><defs><path id="e" d="M-834.5-772.5h1121v1030h-1121z"/></defs></g></g><defs><path id="f" d="M-225.5-468.5h131v87h-131z"/></defs><clipPath id="g"><use xlink:href="#f" overflow="visible"/></clipPath><g clip-path="url(#g)"><defs><path id="h" d="M-834.5-772.5h1121v1030h-1121z"/></defs></g><defs><path id="i" d="M-220.5-465h-1.5v80h124v-80h-122.5zm0 3h121l-1.5-1.5v77l1.5-1.5h-121l1.5 1.5v-77l-1.5 1.5zm-21.5-23h164v120h-164v-120z"/></defs><clipPath id="j"><use xlink:href="#i" overflow="visible"/></clipPath><g clip-path="url(#j)"><defs><path id="k" d="M-220.5-463.5h121v77h-121z"/></defs><clipPath id="l"><use xlink:href="#k" overflow="visible"/></clipPath><g clip-path="url(#l)"><defs><path id="m" d="M-834.5-772.5h1121v1030h-1121z"/></defs></g></g><defs><path id="n" d="M-220.5-463.5h121v77h-121z"/></defs><clipPath id="o"><use xlink:href="#n" overflow="visible"/></clipPath><g clip-path="url(#o)"><defs><path id="p" d="M-834.5-772.5h1121v1030h-1121z"/></defs></g><defs><path id="q" d="M-155.5-450h-1.5v6h47v-6h-45.5zm0 3h44l-1.5-1.5v3l1.5-1.5h-44l1.5 1.5v-3l-1.5 1.5zm-21.5-23h87v46h-87v-46z"/></defs><clipPath id="r"><use xlink:href="#q" overflow="visible"/></clipPath><g clip-path="url(#r)"><defs><path id="s" d="M-155.5-448.5h44v3h-44z"/></defs><clipPath id="t"><use xlink:href="#s" overflow="visible"/></clipPath><g clip-path="url(#t)"><defs><path id="u" d="M-834.5-772.5h1121v1030h-1121z"/></defs></g></g><defs><path id="v" d="M-155.5-448.5h44v3h-44z"/></defs><clipPath id="w"><use xlink:href="#v" overflow="visible"/></clipPath><g clip-path="url(#w)"><defs><path id="x" d="M-834.5-772.5h1121v1030h-1121z"/></defs></g><defs><path id="y" d="M-155.5-444h-1.5v6h47v-6h-45.5zm0 3h44l-1.5-1.5v3l1.5-1.5h-44l1.5 1.5v-3l-1.5 1.5zm-21.5-23h87v46h-87v-46z"/></defs><clipPath id="z"><use xlink:href="#y" overflow="visible"/></clipPath><g clip-path="url(#z)"><defs><path id="A" d="M-155.5-442.5h44v3h-44z"/></defs><clipPath id="B"><use xlink:href="#A" overflow="visible"/></clipPath><g clip-path="url(#B)"><defs><path id="C" d="M-834.5-772.5h1121v1030h-1121z"/></defs></g></g><defs><path id="D" d="M-155.5-442.5h44v3h-44z"/></defs><clipPath id="E"><use xlink:href="#D" overflow="visible"/></clipPath><g clip-path="url(#E)"><defs><path id="F" d="M-834.5-772.5h1121v1030h-1121z"/></defs></g><defs><path id="G" d="M-155.5-438h-1.5v6h47v-6h-45.5zm0 3h44l-1.5-1.5v3l1.5-1.5h-44l1.5 1.5v-3l-1.5 1.5zm-21.5-23h87v46h-87v-46z"/></defs><clipPath id="H"><use xlink:href="#G" overflow="visible"/></clipPath><g clip-path="url(#H)"><defs><path id="I" d="M-155.5-436.5h44v3h-44z"/></defs><clipPath id="J"><use xlink:href="#I" overflow="visible"/></clipPath><g clip-path="url(#J)"><defs><path id="K" d="M-834.5-772.5h1121v1030h-1121z"/></defs></g></g><defs><path id="L" d="M-155.5-436.5h44v3h-44z"/></defs><clipPath id="M"><use xlink:href="#L" overflow="visible"/></clipPath><g clip-path="url(#M)"><defs><path id="N" d="M-834.5-772.5h1121v1030h-1121z"/></defs></g><defs><path id="O" d="M-155.5-432h-1.5v6h47v-6h-45.5zm0 3h44l-1.5-1.5v3l1.5-1.5h-44l1.5 1.5v-3l-1.5 1.5zm-21.5-23h87v46h-87v-46z"/></defs><clipPath id="P"><use xlink:href="#O" overflow="visible"/></clipPath><g clip-path="url(#P)"><defs><path id="Q" d="M-155.5-430.5h44v3h-44z"/></defs><clipPath id="R"><use xlink:href="#Q" overflow="visible"/></clipPath><g clip-path="url(#R)"><defs><path id="S" d="M-834.5-772.5h1121v1030h-1121z"/></defs></g></g><defs><path id="T" d="M-155.5-430.5h44v3h-44z"/></defs><clipPath id="U"><use xlink:href="#T" overflow="visible"/></clipPath><g clip-path="url(#U)"><defs><path id="V" d="M-834.5-772.5h1121v1030h-1121z"/></defs></g><g><defs><path id="W" d="M68.1-470h-1.5v90h134v-90H68.1zm0 3h131l-1.5-1.5v87l1.5-1.5h-131l1.5 1.5v-87l-1.5 1.5zm-21.5-23h174v130h-174v-130z"/></defs><clipPath id="X"><use xlink:href="#W" overflow="visible"/></clipPath><g clip-path="url(#X)"><defs><path id="Y" d="M68.1-468.5h131v87h-131z"/></defs><clipPath id="Z"><use xlink:href="#Y" overflow="visible"/></clipPath><g clip-path="url(#Z)"><defs><path id="aa" d="M-540.9-772.5h1121v1030h-1121z"/></defs></g></g></g><g><defs><path id="ab" d="M68.1-468.5h131v87h-131z"/></defs><clipPath id="ac"><use xlink:href="#ab" overflow="visible"/></clipPath><g clip-path="url(#ac)"><defs><path id="ad" d="M-540.9-772.5h1121v1030h-1121z"/></defs></g></g><g><defs><path id="ae" d="M73.1-465h-1.5v80h124v-80H73.1zm0 3h121l-1.5-1.5v77l1.5-1.5h-121l1.5 1.5v-77l-1.5 1.5zm-21.5-23h164v120h-164v-120z"/></defs><clipPath id="af"><use xlink:href="#ae" overflow="visible"/></clipPath><g clip-path="url(#af)"><defs><path id="ag" d="M73.1-463.5h121v77h-121z"/></defs><clipPath id="ah"><use xlink:href="#ag" overflow="visible"/></clipPath><g clip-path="url(#ah)"><defs><path id="ai" d="M-540.9-772.5h1121v1030h-1121z"/></defs></g></g></g><g><defs><path id="aj" d="M73.1-463.5h121v77h-121z"/></defs><clipPath id="ak"><use xlink:href="#aj" overflow="visible"/></clipPath><g clip-path="url(#ak)"><defs><path id="al" d="M-540.9-772.5h1121v1030h-1121z"/></defs></g></g><g><defs><path id="am" d="M138.1-450h-1.5v6h47v-6h-45.5zm0 3h44l-1.5-1.5v3l1.5-1.5h-44l1.5 1.5v-3l-1.5 1.5zm-21.5-23h87v46h-87v-46z"/></defs><clipPath id="an"><use xlink:href="#am" overflow="visible"/></clipPath><g clip-path="url(#an)"><defs><path id="ao" d="M138.1-448.5h44v3h-44z"/></defs><clipPath id="ap"><use xlink:href="#ao" overflow="visible"/></clipPath><g clip-path="url(#ap)"><defs><path id="aq" d="M-540.9-772.5h1121v1030h-1121z"/></defs></g></g></g><g><defs><path id="ar" d="M138.1-448.5h44v3h-44z"/></defs><clipPath id="as"><use xlink:href="#ar" overflow="visible"/></clipPath><g clip-path="url(#as)"><defs><path id="at" d="M-540.9-772.5h1121v1030h-1121z"/></defs></g></g><g><defs><path id="au" d="M138.1-444h-1.5v6h47v-6h-45.5zm0 3h44l-1.5-1.5v3l1.5-1.5h-44l1.5 1.5v-3l-1.5 1.5zm-21.5-23h87v46h-87v-46z"/></defs><clipPath id="av"><use xlink:href="#au" overflow="visible"/></clipPath><g clip-path="url(#av)"><defs><path id="aw" d="M138.1-442.5h44v3h-44z"/></defs><clipPath id="ax"><use xlink:href="#aw" overflow="visible"/></clipPath><g clip-path="url(#ax)"><defs><path id="ay" d="M-540.9-772.5h1121v1030h-1121z"/></defs></g></g></g><g><defs><path id="az" d="M138.1-442.5h44v3h-44z"/></defs><clipPath id="aA"><use xlink:href="#az" overflow="visible"/></clipPath><g clip-path="url(#aA)"><defs><path id="aB" d="M-540.9-772.5h1121v1030h-1121z"/></defs></g></g><g><defs><path id="aC" d="M138.1-438h-1.5v6h47v-6h-45.5zm0 3h44l-1.5-1.5v3l1.5-1.5h-44l1.5 1.5v-3l-1.5 1.5zm-21.5-23h87v46h-87v-46z"/></defs><clipPath id="aD"><use xlink:href="#aC" overflow="visible"/></clipPath><g clip-path="url(#aD)"><defs><path id="aE" d="M138.1-436.5h44v3h-44z"/></defs><clipPath id="aF"><use xlink:href="#aE" overflow="visible"/></clipPath><g clip-path="url(#aF)"><defs><path id="aG" d="M-540.9-772.5h1121v1030h-1121z"/></defs></g></g></g><g><defs><path id="aH" d="M138.1-436.5h44v3h-44z"/></defs><clipPath id="aI"><use xlink:href="#aH" overflow="visible"/></clipPath><g clip-path="url(#aI)"><defs><path id="aJ" d="M-540.9-772.5h1121v1030h-1121z"/></defs></g></g><g><defs><path id="aK" d="M138.1-432h-1.5v6h47v-6h-45.5zm0 3h44l-1.5-1.5v3l1.5-1.5h-44l1.5 1.5v-3l-1.5 1.5zm-21.5-23h87v46h-87v-46z"/></defs><clipPath id="aL"><use xlink:href="#aK" overflow="visible"/></clipPath><g clip-path="url(#aL)"><defs><path id="aM" d="M138.1-430.5h44v3h-44z"/></defs><clipPath id="aN"><use xlink:href="#aM" overflow="visible"/></clipPath><g clip-path="url(#aN)"><defs><path id="aO" d="M-540.9-772.5h1121v1030h-1121z"/></defs></g></g></g><g><defs><path id="aP" d="M138.1-430.5h44v3h-44z"/></defs><clipPath id="aQ"><use xlink:href="#aP" overflow="visible"/></clipPath><g clip-path="url(#aQ)"><defs><path id="aR" d="M-540.9-772.5h1121v1030h-1121z"/></defs></g></g><path fill="#FFF" stroke="#0F1F2D" stroke-width="3" stroke-miterlimit="10" d="M86.6 26.5h99v65.9h-99z"/><path fill="#FFF" stroke="#0F1F2D" stroke-width="3" stroke-miterlimit="10" d="M92.7 31.6h86.8v55.8H92.7zM123.2 92.4H149v15.7h-25.8z"/><path fill="#FFF" stroke="#0F1F2D" stroke-width="3" stroke-miterlimit="10" d="M115.5 108.1h41.3v4.5h-41.3zM140.2 46.7h28.2M140.2 58.7h28.2M140.2 71.7h28.2"/><path fill="none" stroke="#0C1F2E" stroke-width="3" stroke-linecap="round" stroke-miterlimit="10" d="M120 61.4h-6.3l-4.5 3.3v7.8h15.2v-7.6z"/><circle fill="none" stroke="#0C1F2E" stroke-width="3" stroke-linecap="round" stroke-miterlimit="10" cx="116.7" cy="54.4" r="4"/><path fill="none" stroke="#0C1F2E" stroke-width="3" stroke-linecap="round" stroke-miterlimit="10" d="M103.3 46.2h26.4v26.4h-26.4z"/></svg>