<svg id="Layer_1" data-name="Layer 1" xmlns="http://www.w3.org/2000/svg" viewBox="0 0 276 137"><defs><style>.cls-1,.cls-5{fill:none}.cls-4{font-size:12px;fill:#0c1f2e;font-family:Montserrat-Bold,Montserrat;font-weight:700}.cls-5,.cls-6{stroke:#0e1f2d;stroke-miterlimit:10;stroke-width:3px}.cls-6{fill:#fff}.cls-7{fill:#0e1f2d}</style><clipPath id="clip-path"><circle class="cls-1" cx="-454" cy="68.5" r="50.5"/></clipPath><clipPath id="clip-path-2"><circle class="cls-1" cx="-454" cy="68.5" r="43.5"/></clipPath><clipPath id="clip-path-3"><circle class="cls-1" cx="434" cy="68.5" r="50.5"/></clipPath><clipPath id="clip-path-4"><circle class="cls-1" cx="434" cy="68.5" r="43.5"/></clipPath></defs><text class="cls-4" transform="translate(124.52 44.79)">1</text><text class="cls-4" transform="translate(134.14 40.79)">1</text><text class="cls-4" transform="translate(117.28 36.79)">1</text><text class="cls-4" transform="translate(149.42 31.29)">1</text><text class="cls-4" transform="translate(109.47 56.85)">1</text><text class="cls-4" transform="translate(124.62 61.55)">1</text><text class="cls-4" transform="translate(143.74 64.79)">1</text><text class="cls-4" transform="translate(153.44 44.79)">1</text><text class="cls-4" transform="translate(154.36 58.87)">1</text><text class="cls-4" transform="translate(130.64 52.98)">0</text><text class="cls-4" transform="translate(115.35 52.98)">0</text><text class="cls-4" transform="translate(144.44 50.98)">0</text><text class="cls-4" transform="translate(132.6 64.79)">0</text><text class="cls-4" transform="translate(140.29 38.79)">0</text><text class="cls-4" transform="translate(161.29 47.52)">0</text><text class="cls-4" transform="translate(105.7 42.71)">0</text><text class="cls-4" transform="translate(159.29 62.71)">0</text><text class="cls-4" transform="translate(113.51 64.79)">0</text><path class="cls-5" d="M170.73 62.83l19.7-19.7m-85.16 19.7l-19.7-19.7"/><path class="cls-6" d="M104.56 63.87h65.75v52.03h-65.75z"/><path class="cls-7" d="M135.62 81.4h3.62v11.42h-3.62z"/><path class="cls-7" d="M135.62 90.01h3.62v11.42h-3.62z"/><path class="cls-7" d="M132.44 97.11l4.99 8.64 4.99-8.64h-9.98zm9.98-14.45l-4.99-8.63-4.99 8.63h9.98z"/></svg>