<svg xmlns="http://www.w3.org/2000/svg" viewBox="0 0 276 137"><path fill="#FFF" d="M133.6 39.9h51v69.6h-76.1V57.9h15.8l1.6-6.3 5.4-.5v-6h2.3v-5.2z"/><path fill="#0C1F2E" d="M186.2 111.2h-79.4V58c0-.9.7-1.6 1.6-1.6.9 0 1.6.7 1.6 1.6v50h73V41.5h-49.4c-.9 0-1.6-.7-1.6-1.6s.7-1.6 1.6-1.6h52.6v72.9z"/><path fill="#FFF" d="M178.9 104.6h-65.2V57h11.8v-5.8h5.8v-6h47.6z"/><path fill="#0C1F2E" d="M180.6 106.2h-68.5V55.4h11.8v-5.8h5.8v-6h50.9v62.6zm-65.3-3.2h62V46.8h-44.4v6h-5.8v5.8h-11.8V103z"/><path fill="#FFF" d="M107.2 34.5h5.3v5.3h-5.3z"/><path fill="#0C1F2E" d="M114.1 41.4h-8.6v-8.6h8.6v8.6zm-5.3-3.2h2.1v-2.1h-2.1v2.1z"/><path fill="#FFF" d="M117.7 43.5h6.5V50h-6.5z"/><path fill="#0C1F2E" d="M125.8 51.7H116v-9.8h9.8v9.8zm-6.5-3.2h3.3v-3.3h-3.3v3.3z"/><g><path fill="#FFF" d="M101.3 26.7h2.7v2.7h-2.7z"/><path fill="#0C1F2E" d="M99.6 25.1h5.9V31h-5.9z"/></g><g><path fill="#FFF" d="M119.9 31.8h2.7v2.7h-2.7z"/><path fill="#0C1F2E" d="M118.2 30.1h5.9V36h-5.9z"/></g><g><path fill="#FFF" d="M108.5 48h2.7v2.7h-2.7z"/><path fill="#0C1F2E" d="M106.9 46.4h5.9v5.9h-5.9z"/></g><path fill="#FFF" stroke="#1B1B1B" stroke-width="3" stroke-linecap="round" stroke-miterlimit="10" d="M147 61.5h-14.3v19.2c1.8 11.6 14.3 14.8 14.3 14.8s12.7-4.2 14.3-14.8V61.5H147z"/></svg>