<svg xmlns="http://www.w3.org/2000/svg" xmlns:xlink="http://www.w3.org/1999/xlink" viewBox="0 0 276 137"><defs><path id="a" d="M70.5-470H69v90h134v-90H70.5zm0 3h131l-1.5-1.5v87l1.5-1.5h-131l1.5 1.5v-87l-1.5 1.5zM49-490h174v130H49v-130z"/></defs><clipPath id="b"><use xlink:href="#a" overflow="visible"/></clipPath><g clip-path="url(#b)"><defs><path id="c" d="M70.5-468.5h131v87h-131z"/></defs><clipPath id="d"><use xlink:href="#c" overflow="visible"/></clipPath><g clip-path="url(#d)"><defs><path id="e" d="M-538.5-772.5h1121v1030h-1121z"/></defs></g></g><defs><path id="f" d="M70.5-468.5h131v87h-131z"/></defs><clipPath id="g"><use xlink:href="#f" overflow="visible"/></clipPath><g clip-path="url(#g)"><defs><path id="h" d="M-538.5-772.5h1121v1030h-1121z"/></defs></g><defs><path id="i" d="M75.5-465H74v80h124v-80H75.5zm0 3h121l-1.5-1.5v77l1.5-1.5h-121l1.5 1.5v-77l-1.5 1.5zM54-485h164v120H54v-120z"/></defs><clipPath id="j"><use xlink:href="#i" overflow="visible"/></clipPath><g clip-path="url(#j)"><defs><path id="k" d="M75.5-463.5h121v77h-121z"/></defs><clipPath id="l"><use xlink:href="#k" overflow="visible"/></clipPath><g clip-path="url(#l)"><defs><path id="m" d="M-538.5-772.5h1121v1030h-1121z"/></defs></g></g><defs><path id="n" d="M75.5-463.5h121v77h-121z"/></defs><clipPath id="o"><use xlink:href="#n" overflow="visible"/></clipPath><g clip-path="url(#o)"><defs><path id="p" d="M-538.5-772.5h1121v1030h-1121z"/></defs></g><defs><path id="q" d="M140.5-450H139v6h47v-6h-45.5zm0 3h44l-1.5-1.5v3l1.5-1.5h-44l1.5 1.5v-3l-1.5 1.5zM119-470h87v46h-87v-46z"/></defs><clipPath id="r"><use xlink:href="#q" overflow="visible"/></clipPath><g clip-path="url(#r)"><defs><path id="s" d="M140.5-448.5h44v3h-44z"/></defs><clipPath id="t"><use xlink:href="#s" overflow="visible"/></clipPath><g clip-path="url(#t)"><defs><path id="u" d="M-538.5-772.5h1121v1030h-1121z"/></defs></g></g><defs><path id="v" d="M140.5-448.5h44v3h-44z"/></defs><clipPath id="w"><use xlink:href="#v" overflow="visible"/></clipPath><g clip-path="url(#w)"><defs><path id="x" d="M-538.5-772.5h1121v1030h-1121z"/></defs></g><defs><path id="y" d="M140.5-444H139v6h47v-6h-45.5zm0 3h44l-1.5-1.5v3l1.5-1.5h-44l1.5 1.5v-3l-1.5 1.5zM119-464h87v46h-87v-46z"/></defs><clipPath id="z"><use xlink:href="#y" overflow="visible"/></clipPath><g clip-path="url(#z)"><defs><path id="A" d="M140.5-442.5h44v3h-44z"/></defs><clipPath id="B"><use xlink:href="#A" overflow="visible"/></clipPath><g clip-path="url(#B)"><defs><path id="C" d="M-538.5-772.5h1121v1030h-1121z"/></defs></g></g><defs><path id="D" d="M140.5-442.5h44v3h-44z"/></defs><clipPath id="E"><use xlink:href="#D" overflow="visible"/></clipPath><g clip-path="url(#E)"><defs><path id="F" d="M-538.5-772.5h1121v1030h-1121z"/></defs></g><defs><path id="G" d="M140.5-438H139v6h47v-6h-45.5zm0 3h44l-1.5-1.5v3l1.5-1.5h-44l1.5 1.5v-3l-1.5 1.5zM119-458h87v46h-87v-46z"/></defs><clipPath id="H"><use xlink:href="#G" overflow="visible"/></clipPath><g clip-path="url(#H)"><defs><path id="I" d="M140.5-436.5h44v3h-44z"/></defs><clipPath id="J"><use xlink:href="#I" overflow="visible"/></clipPath><g clip-path="url(#J)"><defs><path id="K" d="M-538.5-772.5h1121v1030h-1121z"/></defs></g></g><defs><path id="L" d="M140.5-436.5h44v3h-44z"/></defs><clipPath id="M"><use xlink:href="#L" overflow="visible"/></clipPath><g clip-path="url(#M)"><defs><path id="N" d="M-538.5-772.5h1121v1030h-1121z"/></defs></g><defs><path id="O" d="M140.5-432H139v6h47v-6h-45.5zm0 3h44l-1.5-1.5v3l1.5-1.5h-44l1.5 1.5v-3l-1.5 1.5zM119-452h87v46h-87v-46z"/></defs><clipPath id="P"><use xlink:href="#O" overflow="visible"/></clipPath><g clip-path="url(#P)"><defs><path id="Q" d="M140.5-430.5h44v3h-44z"/></defs><clipPath id="R"><use xlink:href="#Q" overflow="visible"/></clipPath><g clip-path="url(#R)"><defs><path id="S" d="M-538.5-772.5h1121v1030h-1121z"/></defs></g></g><defs><path id="T" d="M140.5-430.5h44v3h-44z"/></defs><clipPath id="U"><use xlink:href="#T" overflow="visible"/></clipPath><g clip-path="url(#U)"><defs><path id="V" d="M-538.5-772.5h1121v1030h-1121z"/></defs></g><g><defs><path id="W" d="M364.1-470h-1.5v90h134v-90H364.1zm0 3h131l-1.5-1.5v87l1.5-1.5h-131l1.5 1.5v-87l-1.5 1.5zm-21.5-23h174v130h-174v-130z"/></defs><clipPath id="X"><use xlink:href="#W" overflow="visible"/></clipPath><g clip-path="url(#X)"><defs><path id="Y" d="M364.1-468.5h131v87h-131z"/></defs><clipPath id="Z"><use xlink:href="#Y" overflow="visible"/></clipPath><g clip-path="url(#Z)"><defs><path id="aa" d="M-244.9-772.5h1121v1030h-1121z"/></defs></g></g></g><g><defs><path id="ab" d="M364.1-468.5h131v87h-131z"/></defs><clipPath id="ac"><use xlink:href="#ab" overflow="visible"/></clipPath><g clip-path="url(#ac)"><defs><path id="ad" d="M-244.9-772.5h1121v1030h-1121z"/></defs></g></g><g><defs><path id="ae" d="M369.1-465h-1.5v80h124v-80H369.1zm0 3h121l-1.5-1.5v77l1.5-1.5h-121l1.5 1.5v-77l-1.5 1.5zm-21.5-23h164v120h-164v-120z"/></defs><clipPath id="af"><use xlink:href="#ae" overflow="visible"/></clipPath><g clip-path="url(#af)"><defs><path id="ag" d="M369.1-463.5h121v77h-121z"/></defs><clipPath id="ah"><use xlink:href="#ag" overflow="visible"/></clipPath><g clip-path="url(#ah)"><defs><path id="ai" d="M-244.9-772.5h1121v1030h-1121z"/></defs></g></g></g><g><defs><path id="aj" d="M369.1-463.5h121v77h-121z"/></defs><clipPath id="ak"><use xlink:href="#aj" overflow="visible"/></clipPath><g clip-path="url(#ak)"><defs><path id="al" d="M-244.9-772.5h1121v1030h-1121z"/></defs></g></g><g><defs><path id="am" d="M434.1-450h-1.5v6h47v-6h-45.5zm0 3h44l-1.5-1.5v3l1.5-1.5h-44l1.5 1.5v-3l-1.5 1.5zm-21.5-23h87v46h-87v-46z"/></defs><clipPath id="an"><use xlink:href="#am" overflow="visible"/></clipPath><g clip-path="url(#an)"><defs><path id="ao" d="M434.1-448.5h44v3h-44z"/></defs><clipPath id="ap"><use xlink:href="#ao" overflow="visible"/></clipPath><g clip-path="url(#ap)"><defs><path id="aq" d="M-244.9-772.5h1121v1030h-1121z"/></defs></g></g></g><g><defs><path id="ar" d="M434.1-448.5h44v3h-44z"/></defs><clipPath id="as"><use xlink:href="#ar" overflow="visible"/></clipPath><g clip-path="url(#as)"><defs><path id="at" d="M-244.9-772.5h1121v1030h-1121z"/></defs></g></g><g><defs><path id="au" d="M434.1-444h-1.5v6h47v-6h-45.5zm0 3h44l-1.5-1.5v3l1.5-1.5h-44l1.5 1.5v-3l-1.5 1.5zm-21.5-23h87v46h-87v-46z"/></defs><clipPath id="av"><use xlink:href="#au" overflow="visible"/></clipPath><g clip-path="url(#av)"><defs><path id="aw" d="M434.1-442.5h44v3h-44z"/></defs><clipPath id="ax"><use xlink:href="#aw" overflow="visible"/></clipPath><g clip-path="url(#ax)"><defs><path id="ay" d="M-244.9-772.5h1121v1030h-1121z"/></defs></g></g></g><g><defs><path id="az" d="M434.1-442.5h44v3h-44z"/></defs><clipPath id="aA"><use xlink:href="#az" overflow="visible"/></clipPath><g clip-path="url(#aA)"><defs><path id="aB" d="M-244.9-772.5h1121v1030h-1121z"/></defs></g></g><g><defs><path id="aC" d="M434.1-438h-1.5v6h47v-6h-45.5zm0 3h44l-1.5-1.5v3l1.5-1.5h-44l1.5 1.5v-3l-1.5 1.5zm-21.5-23h87v46h-87v-46z"/></defs><clipPath id="aD"><use xlink:href="#aC" overflow="visible"/></clipPath><g clip-path="url(#aD)"><defs><path id="aE" d="M434.1-436.5h44v3h-44z"/></defs><clipPath id="aF"><use xlink:href="#aE" overflow="visible"/></clipPath><g clip-path="url(#aF)"><defs><path id="aG" d="M-244.9-772.5h1121v1030h-1121z"/></defs></g></g></g><g><defs><path id="aH" d="M434.1-436.5h44v3h-44z"/></defs><clipPath id="aI"><use xlink:href="#aH" overflow="visible"/></clipPath><g clip-path="url(#aI)"><defs><path id="aJ" d="M-244.9-772.5h1121v1030h-1121z"/></defs></g></g><g><defs><path id="aK" d="M434.1-432h-1.5v6h47v-6h-45.5zm0 3h44l-1.5-1.5v3l1.5-1.5h-44l1.5 1.5v-3l-1.5 1.5zm-21.5-23h87v46h-87v-46z"/></defs><clipPath id="aL"><use xlink:href="#aK" overflow="visible"/></clipPath><g clip-path="url(#aL)"><defs><path id="aM" d="M434.1-430.5h44v3h-44z"/></defs><clipPath id="aN"><use xlink:href="#aM" overflow="visible"/></clipPath><g clip-path="url(#aN)"><defs><path id="aO" d="M-244.9-772.5h1121v1030h-1121z"/></defs></g></g></g><g><defs><path id="aP" d="M434.1-430.5h44v3h-44z"/></defs><clipPath id="aQ"><use xlink:href="#aP" overflow="visible"/></clipPath><g clip-path="url(#aQ)"><defs><path id="aR" d="M-244.9-772.5h1121v1030h-1121z"/></defs></g></g><circle fill="#FFF" stroke="#091F2F" stroke-width="3" stroke-linecap="round" stroke-miterlimit="10" cx="140.2" cy="69.6" r="50.9"/><circle fill="#FFF" stroke="#091F2F" stroke-width="3" stroke-linecap="round" stroke-miterlimit="10" cx="140.2" cy="69.6" r="20.5"/><circle fill="#FFF" stroke="#091F2F" stroke-width="3" stroke-linecap="round" stroke-miterlimit="10" cx="140.2" cy="69.6" r="11.8"/><path fill="none" stroke="#091F2F" stroke-width="3" stroke-linecap="round" stroke-miterlimit="10" d="M163.8 31.5l-11.8 16M166.6 39.5l-11.8 16M177.3 36.1l-11.8 16M118.8 85.2l-11.8 16M120.8 94.4c-2.7 3.7-10.9 14.8-10.9 14.8M127.3 85.9c-1.8 2.4-3.1 4.2-3.1 4.2M132.4 89.8l-11.8 16"/><g><circle fill-rule="evenodd" clip-rule="evenodd" fill="#FFF" cx="182.6" cy="97.8" r="20.4"/><path fill="#0C1F2E" d="M182.6 119.6c-12.1 0-21.9-9.8-21.9-21.9s9.8-21.9 21.9-21.9 21.9 9.8 21.9 21.9-9.9 21.9-21.9 21.9zm0-40.7c-10.4 0-18.9 8.5-18.9 18.9s8.5 18.9 18.9 18.9 18.9-8.5 18.9-18.9-8.5-18.9-18.9-18.9z"/></g><g><path d="M184.9 105.2c0 1.5-1 2.4-2.4 2.4s-2.4-1-2.4-2.4 1-2.4 2.4-2.4 2.4 1 2.4 2.4zm-.8-4.7h-3l-.9-8.1v-5.2h4.8v5.2l-.9 8.1z"/></g></svg>