<svg xmlns="http://www.w3.org/2000/svg" xmlns:xlink="http://www.w3.org/1999/xlink" viewBox="0 0 276 137"><defs><path id="a" d="M70.5-470H69v90h134v-90H70.5zm0 3h131l-1.5-1.5v87l1.5-1.5h-131l1.5 1.5v-87l-1.5 1.5zM49-490h174v130H49v-130z"/></defs><clipPath id="b"><use xlink:href="#a" overflow="visible"/></clipPath><g clip-path="url(#b)"><defs><path id="c" d="M70.5-468.5h131v87h-131z"/></defs></g><defs><path id="d" d="M70.5-468.5h131v87h-131z"/></defs><defs><path id="e" d="M75.5-465H74v80h124v-80H75.5zm0 3h121l-1.5-1.5v77l1.5-1.5h-121l1.5 1.5v-77l-1.5 1.5zM54-485h164v120H54v-120z"/></defs><clipPath id="f"><use xlink:href="#e" overflow="visible"/></clipPath><g clip-path="url(#f)"><defs><path id="g" d="M75.5-463.5h121v77h-121z"/></defs></g><defs><path id="h" d="M75.5-463.5h121v77h-121z"/></defs><defs><path id="i" d="M140.5-450H139v6h47v-6h-45.5zm0 3h44l-1.5-1.5v3l1.5-1.5h-44l1.5 1.5v-3l-1.5 1.5zM119-470h87v46h-87v-46z"/></defs><clipPath id="j"><use xlink:href="#i" overflow="visible"/></clipPath><g clip-path="url(#j)"><defs><path id="k" d="M140.5-448.5h44v3h-44z"/></defs></g><defs><path id="l" d="M140.5-448.5h44v3h-44z"/></defs><defs><path id="m" d="M140.5-444H139v6h47v-6h-45.5zm0 3h44l-1.5-1.5v3l1.5-1.5h-44l1.5 1.5v-3l-1.5 1.5zM119-464h87v46h-87v-46z"/></defs><clipPath id="n"><use xlink:href="#m" overflow="visible"/></clipPath><g clip-path="url(#n)"><defs><path id="o" d="M140.5-442.5h44v3h-44z"/></defs></g><defs><path id="p" d="M140.5-442.5h44v3h-44z"/></defs><defs><path id="q" d="M140.5-438H139v6h47v-6h-45.5zm0 3h44l-1.5-1.5v3l1.5-1.5h-44l1.5 1.5v-3l-1.5 1.5zM119-458h87v46h-87v-46z"/></defs><clipPath id="r"><use xlink:href="#q" overflow="visible"/></clipPath><g clip-path="url(#r)"><defs><path id="s" d="M140.5-436.5h44v3h-44z"/></defs></g><defs><path id="t" d="M140.5-436.5h44v3h-44z"/></defs><defs><path id="u" d="M140.5-432H139v6h47v-6h-45.5zm0 3h44l-1.5-1.5v3l1.5-1.5h-44l1.5 1.5v-3l-1.5 1.5zM119-452h87v46h-87v-46z"/></defs><clipPath id="v"><use xlink:href="#u" overflow="visible"/></clipPath><g clip-path="url(#v)"><defs><path id="w" d="M140.5-430.5h44v3h-44z"/></defs></g><defs><path id="x" d="M140.5-430.5h44v3h-44z"/></defs><defs><path id="y" d="M364.1-470h-1.5v90h134v-90H364.1zm0 3h131l-1.5-1.5v87l1.5-1.5h-131l1.5 1.5v-87l-1.5 1.5zm-21.5-23h174v130h-174v-130z"/></defs><clipPath id="z"><use xlink:href="#y" overflow="visible"/></clipPath><g clip-path="url(#z)"><defs><path id="A" d="M364.1-468.5h131v87h-131z"/></defs></g><defs><path id="B" d="M364.1-468.5h131v87h-131z"/></defs><defs><path id="C" d="M369.1-465h-1.5v80h124v-80H369.1zm0 3h121l-1.5-1.5v77l1.5-1.5h-121l1.5 1.5v-77l-1.5 1.5zm-21.5-23h164v120h-164v-120z"/></defs><clipPath id="D"><use xlink:href="#C" overflow="visible"/></clipPath><g clip-path="url(#D)"><defs><path id="E" d="M369.1-463.5h121v77h-121z"/></defs></g><defs><path id="F" d="M369.1-463.5h121v77h-121z"/></defs><defs><path id="G" d="M434.1-450h-1.5v6h47v-6h-45.5zm0 3h44l-1.5-1.5v3l1.5-1.5h-44l1.5 1.5v-3l-1.5 1.5zm-21.5-23h87v46h-87v-46z"/></defs><clipPath id="H"><use xlink:href="#G" overflow="visible"/></clipPath><g clip-path="url(#H)"><defs><path id="I" d="M434.1-448.5h44v3h-44z"/></defs></g><defs><path id="J" d="M434.1-448.5h44v3h-44z"/></defs><defs><path id="K" d="M434.1-444h-1.5v6h47v-6h-45.5zm0 3h44l-1.5-1.5v3l1.5-1.5h-44l1.5 1.5v-3l-1.5 1.5zm-21.5-23h87v46h-87v-46z"/></defs><clipPath id="L"><use xlink:href="#K" overflow="visible"/></clipPath><g clip-path="url(#L)"><defs><path id="M" d="M434.1-442.5h44v3h-44z"/></defs></g><defs><path id="N" d="M434.1-442.5h44v3h-44z"/></defs><defs><path id="O" d="M434.1-438h-1.5v6h47v-6h-45.5zm0 3h44l-1.5-1.5v3l1.5-1.5h-44l1.5 1.5v-3l-1.5 1.5zm-21.5-23h87v46h-87v-46z"/></defs><clipPath id="P"><use xlink:href="#O" overflow="visible"/></clipPath><g clip-path="url(#P)"><defs><path id="Q" d="M434.1-436.5h44v3h-44z"/></defs></g><defs><path id="R" d="M434.1-436.5h44v3h-44z"/></defs><defs><path id="S" d="M434.1-432h-1.5v6h47v-6h-45.5zm0 3h44l-1.5-1.5v3l1.5-1.5h-44l1.5 1.5v-3l-1.5 1.5zm-21.5-23h87v46h-87v-46z"/></defs><clipPath id="T"><use xlink:href="#S" overflow="visible"/></clipPath><g clip-path="url(#T)"><defs><path id="U" d="M434.1-430.5h44v3h-44z"/></defs></g><defs><path id="V" d="M434.1-430.5h44v3h-44z"/></defs><circle fill="#FFF" stroke="#091F2F" stroke-width="3" stroke-linecap="round" stroke-miterlimit="10" cx="140.2" cy="69.6" r="50.9"/><circle fill="#FFF" stroke="#091F2F" stroke-width="3" stroke-linecap="round" stroke-miterlimit="10" cx="140.2" cy="69.6" r="20.5"/><circle fill="#FFF" stroke="#091F2F" stroke-width="3" stroke-linecap="round" stroke-miterlimit="10" cx="140.2" cy="69.6" r="11.8"/><path fill="none" stroke="#091F2F" stroke-width="3" stroke-linecap="round" stroke-miterlimit="10" d="M163.8 31.5l-11.8 16m14.6-8l-11.8 16m22.5-19.4l-11.8 16m-46.7 33.1l-11.8 16m13.8-6.8c-2.7 3.7-10.9 14.8-10.9 14.8m17.4-23.3c-1.8 2.4-3.1 4.2-3.1 4.2m8.2-.3l-11.8 16"/><g><circle fill-rule="evenodd" clip-rule="evenodd" fill="#FFF" cx="182.6" cy="97.8" r="20.4"/><path fill="#0C1F2E" d="M182.6 119.6c-12.1 0-21.9-9.8-21.9-21.9s9.8-21.9 21.9-21.9 21.9 9.8 21.9 21.9-9.9 21.9-21.9 21.9zm0-40.7c-10.4 0-18.9 8.5-18.9 18.9s8.5 18.9 18.9 18.9 18.9-8.5 18.9-18.9-8.5-18.9-18.9-18.9z"/></g><g><path d="M184.9 105.2c0 1.5-1 2.4-2.4 2.4s-2.4-1-2.4-2.4 1-2.4 2.4-2.4 2.4 1 2.4 2.4zm-.8-4.7h-3l-.9-8.1v-5.2h4.8v5.2l-.9 8.1z"/></g></svg>