<svg id="Layer_1" data-name="Layer 1" xmlns="http://www.w3.org/2000/svg" viewBox="0 0 276 137"><defs><style>.cls-1,.cls-5{fill:none}.cls-2{fill:#fff}.cls-3{fill:#0e1f2d}.cls-4{fill:#0c1f2e}.cls-5{stroke:#0e1f2d;stroke-miterlimit:10;stroke-width:3px}.cls-6{clip-path:url(#clip-path)}.cls-7{clip-path:url(#clip-path-2)}.cls-8{clip-path:url(#clip-path-3)}.cls-9{clip-path:url(#clip-path-4)}</style><clipPath id="clip-path"><circle class="cls-1" cx="-737.7" cy="388.62" r="50.5"/></clipPath><clipPath id="clip-path-2"><circle class="cls-1" cx="-737.7" cy="388.62" r="43.5"/></clipPath><clipPath id="clip-path-3"><circle class="cls-1" cx="150.3" cy="388.62" r="50.5"/></clipPath><clipPath id="clip-path-4"><circle class="cls-1" cx="150.3" cy="388.62" r="43.5"/></clipPath></defs><title>EXPERIENTIAL ICONS</title><circle class="cls-2" cx="103.3" cy="91.74" r="17.63"/><path class="cls-3" d="M103.3 110.68a18.94 18.94 0 1 1 18.94-18.94 19 19 0 0 1-18.94 18.94zm0-35.26a16.32 16.32 0 1 0 16.32 16.32 16.34 16.34 0 0 0-16.32-16.32z"/><path class="cls-3" d="M103.3 102.68a10.94 10.94 0 1 1 10.94-10.94 11 11 0 0 1-10.94 10.94zm0-19.26a8.32 8.32 0 1 0 8.32 8.32 8.33 8.33 0 0 0-8.32-8.32z"/><path class="cls-2" d="M182.09 74.11a17.63 17.63 0 1 0 17.63 17.63 17.64 17.64 0 0 0-17.63-17.63zm0 27.26a9.63 9.63 0 1 1 9.63-9.63 9.63 9.63 0 0 1-9.63 9.63z"/><path class="cls-3" d="M182.09 80.81A10.93 10.93 0 1 0 193 91.74a10.94 10.94 0 0 0-10.91-10.93zm0 19.25a8.32 8.32 0 1 1 8.32-8.32 8.33 8.33 0 0 1-8.32 8.32zm0-19.25A10.93 10.93 0 1 0 193 91.74a10.94 10.94 0 0 0-10.91-10.93zm0 19.25a8.32 8.32 0 1 1 8.32-8.32 8.33 8.33 0 0 1-8.32 8.32zm0-27.26A18.94 18.94 0 1 0 201 91.74a19 19 0 0 0-18.91-18.94zm0 35.26a16.32 16.32 0 1 1 16.33-16.32 16.34 16.34 0 0 1-16.33 16.32zm0-27.25A10.93 10.93 0 1 0 193 91.74a10.94 10.94 0 0 0-10.91-10.93zm0 19.25a8.32 8.32 0 1 1 8.32-8.32 8.33 8.33 0 0 1-8.32 8.32z"/><path class="cls-2" d="M190.41 91.74a8.32 8.32 0 1 1-8.32-8.32 8.33 8.33 0 0 1 8.32 8.32z"/><path class="cls-3" d="M182.1 93.05a1.31 1.31 0 0 1-1.17-.72l-22.54-45H148a1.31 1.31 0 0 1 0-2.62h12l23.26 46.4a1.31 1.31 0 0 1-1.17 1.9z"/><path class="cls-3" d="M136.58 93.05h-35.8l19.48-27.6h47.59a1.3 1.3 0 0 1 .29 0l.37-.29a1.31 1.31 0 1 1 1.6 2.08zm-30.75-2.62h29.86l29.08-22.36h-43.16z"/><path class="cls-3" d="M136.14 93.05a1.31 1.31 0 0 1-1.13-.64L114 56.78a1.31 1.31 0 0 1 2.25-1.33l21 35.63a1.31 1.31 0 0 1-1.13 2z"/><path class="cls-3" d="M127.25 57.42H110a1.31 1.31 0 0 1 0-2.62h17.22a1.31 1.31 0 0 1 0 2.62z"/><path class="cls-4" d="M205.4 72.14v38.27a1.59 1.59 0 0 1-3.16 0V70.83c-3.47-8.54-14.87-9.47-18.41-.23v39.81a1.59 1.59 0 0 1-3.16 0V72.14a10.2 10.2 0 0 1 .27-2.34c1.18-5.07 6.15-8.89 12.09-8.89s10.92 3.82 12.1 8.89z"/><path class="cls-5" d="M165.77 110.1l52.94 1.75"/></svg>