<svg id="Layer_1" data-name="Layer 1" xmlns="http://www.w3.org/2000/svg" viewBox="0 0 276 137"><defs><style>.cls-1,.cls-2{fill:none}.cls-1{clip-rule:evenodd}.cls-43{fill:#fff}.cls-44{fill:#0c1f2e}</style><clipPath id="clip-path"><path class="cls-1" d="M679.67-284.51h-1.5v84h108v-84h-106.5zm0 3h105l-1.5-1.5v81l1.5-1.5h-105l1.5 1.5v-81zm-21.5-23h148v124h-148z"/></clipPath><clipPath id="clip-path-2"><path class="cls-2" d="M679.67-283.01h105v81h-105z"/></clipPath><clipPath id="clip-path-4"><path class="cls-1" d="M673.67-267.51h-2.24l.85-2.07 9.07-22 .38-.93H782.6l.38.93 9.07 22 .85 2.07H673.67zm0-3h117l-1.39 2.07-9.07-22 1.39.93h-98.86l1.39-.93-9.07 22zm-22.24 23h161.48v-65H651.43z"/></clipPath><clipPath id="clip-path-5"><path class="cls-1" d="M673.67-269.01h117l-9.07-22h-98.86l-9.07 22z"/></clipPath><clipPath id="clip-path-7"><path class="cls-1" d="M758.67-300.51h-1.5v19h15v-19h-13.5zm0 3h12l-1.5-1.5v16l1.5-1.5h-12l1.5 1.5v-16zm-21.5-23h55v59h-55z"/></clipPath><clipPath id="clip-path-8"><path class="cls-2" d="M758.67-299.01h12v16h-12z"/></clipPath><clipPath id="clip-path-10"><path class="cls-1" d="M692.67-234.51h-1.5v34h24v-34h-22.5zm0 3h21l-1.5-1.5v31l1.5-1.5h-21l1.5 1.5v-31zm-21.5-23h64v74h-64z"/></clipPath><clipPath id="clip-path-11"><path class="cls-2" d="M692.67-233.01h21v31h-21z"/></clipPath><clipPath id="clip-path-13"><path class="cls-1" d="M693.67-262.51h-1.5v22h22v-22h-20.5zm0 3h19l-1.5-1.5v19l1.5-1.5h-19l1.5 1.5v-19zm-21.5-23h62v62h-62z"/></clipPath><clipPath id="clip-path-14"><path class="cls-2" d="M693.67-261.01h19v19h-19z"/></clipPath><clipPath id="clip-path-16"><path class="cls-1" d="M698.67-257.51h-1.5v12h12v-12h-10.5zm0 3h9l-1.5-1.5v9l1.5-1.5h-9l1.5 1.5v-9zm-21.5-23h52v52h-52z"/></clipPath><clipPath id="clip-path-17"><path class="cls-2" d="M698.67-256.01h9v9h-9z"/></clipPath><clipPath id="clip-path-19"><path class="cls-1" d="M723.67-262.51h-1.5v22h22v-22h-20.5zm0 3h19l-1.5-1.5v19l1.5-1.5h-19l1.5 1.5v-19zm-21.5-23h62v62h-62z"/></clipPath><clipPath id="clip-path-20"><path class="cls-2" d="M723.67-261.01h19v19h-19z"/></clipPath><clipPath id="clip-path-22"><path class="cls-1" d="M752.67-262.51h-1.5v22h22v-22h-20.5zm0 3h19l-1.5-1.5v19l1.5-1.5h-19l1.5 1.5v-19zm-21.5-23h62v62h-62z"/></clipPath><clipPath id="clip-path-23"><path class="cls-2" d="M752.67-261.01h19v19h-19z"/></clipPath><clipPath id="clip-path-25"><path class="cls-1" d="M723.67-234.51h-1.5v22h22v-22h-20.5zm0 3h19l-1.5-1.5v19l1.5-1.5h-19l1.5 1.5v-19zm-21.5-23h62v62h-62z"/></clipPath><clipPath id="clip-path-26"><path class="cls-2" d="M723.67-233.01h19v19h-19z"/></clipPath><clipPath id="clip-path-28"><path class="cls-1" d="M752.67-234.51h-1.5v22h22v-22h-20.5zm0 3h19l-1.5-1.5v19l1.5-1.5h-19l1.5 1.5v-19zm-21.5-23h62v62h-62z"/></clipPath><clipPath id="clip-path-29"><path class="cls-2" d="M752.67-233.01h19v19h-19z"/></clipPath><clipPath id="clip-path-31"><path class="cls-1" d="M728.67-257.51h-1.5v12h12v-12h-10.5zm0 3h9l-1.5-1.5v9l1.5-1.5h-9l1.5 1.5v-9zm-21.5-23h52v52h-52z"/></clipPath><clipPath id="clip-path-32"><path class="cls-2" d="M728.67-256.01h9v9h-9z"/></clipPath><clipPath id="clip-path-34"><path class="cls-1" d="M757.67-257.51h-1.5v12h12v-12h-10.5zm0 3h9l-1.5-1.5v9l1.5-1.5h-9l1.5 1.5v-9zm-21.5-23h52v52h-52z"/></clipPath><clipPath id="clip-path-35"><path class="cls-2" d="M757.67-256.01h9v9h-9z"/></clipPath><clipPath id="clip-path-37"><path class="cls-1" d="M728.67-229.51h-1.5v12h12v-12h-10.5zm0 3h9l-1.5-1.5v9l1.5-1.5h-9l1.5 1.5v-9zm-21.5-23h52v52h-52z"/></clipPath><clipPath id="clip-path-38"><path class="cls-2" d="M728.67-228.01h9v9h-9z"/></clipPath><clipPath id="clip-path-40"><path class="cls-1" d="M757.67-229.51h-1.5v12h12v-12h-10.5zm0 3h9l-1.5-1.5v9l1.5-1.5h-9l1.5 1.5v-9zm-21.5-23h52v52h-52z"/></clipPath><clipPath id="clip-path-41"><path class="cls-2" d="M757.67-228.01h9v9h-9z"/></clipPath><clipPath id="clip-path-43"><path class="cls-1" d="M-347.77 509.13h-1.5v38h142V522l-.41-.43-11.44-12-.44-.46h-128.2zm0 3h127.56l-1.09-.46 11.44 12-.41-1v23l1.5-1.5h-139l1.5 1.5v-35zm-21.5-23h182v78h-182z"/></clipPath><clipPath id="clip-path-44"><path class="cls-1" d="M-347.77 510.63h127.56l11.44 12v23h-139v-35z"/></clipPath><clipPath id="clip-path-46"><path class="cls-1" d="M-314.77 560.55a14.5 14.5 0 0 1-14.5-14.5 14.5 14.5 0 0 1 14.5-14.5 14.5 14.5 0 0 1 14.5 14.5 14.5 14.5 0 0 1-14.5 14.5zm0 3a17.5 17.5 0 0 0 17.5-17.5 17.5 17.5 0 0 0-17.5-17.5 17.5 17.5 0 0 0-17.5 17.5 17.5 17.5 0 0 0 17.5 17.5zm-37.5-55h75v75h-75z"/></clipPath><clipPath id="clip-path-47"><circle class="cls-2" cx="-314.77" cy="546.05" r="16"/></clipPath><clipPath id="clip-path-49"><path class="cls-1" d="M-314.77 553.55a7.5 7.5 0 0 1-7.5-7.5 7.5 7.5 0 0 1 7.5-7.5 7.5 7.5 0 0 1 7.5 7.5 7.5 7.5 0 0 1-7.5 7.5zm0 3a10.5 10.5 0 0 0 10.5-10.5 10.5 10.5 0 0 0-10.5-10.5 10.5 10.5 0 0 0-10.5 10.5 10.5 10.5 0 0 0 10.5 10.5zm-30.5-41h61v61h-61z"/></clipPath><clipPath id="clip-path-50"><circle class="cls-2" cx="-314.77" cy="546.05" r="9"/></clipPath><clipPath id="clip-path-52"><path class="cls-1" d="M-248.54 560.55a14.5 14.5 0 0 1-14.5-14.5 14.5 14.5 0 0 1 14.5-14.5 14.5 14.5 0 0 1 14.5 14.5 14.5 14.5 0 0 1-14.5 14.5zm0 3a17.5 17.5 0 0 0 17.5-17.5 17.5 17.5 0 0 0-17.5-17.5 17.5 17.5 0 0 0-17.5 17.5 17.5 17.5 0 0 0 17.5 17.5zm-37.5-55h75v75h-75z"/></clipPath><clipPath id="clip-path-53"><circle class="cls-2" cx="-248.54" cy="546.05" r="16"/></clipPath><clipPath id="clip-path-55"><path class="cls-1" d="M-248.31 505.72l-7.69-15.57h-27.17v15.57zm-75.16 0l7.38-15.55h27.17v15.53zm-10.3 5.35l14.14-26.89h66.84l15.35 27.82z"/></clipPath><clipPath id="clip-path-56"><path class="cls-1" d="M-248.54 553.55a7.5 7.5 0 0 1-7.5-7.5 7.5 7.5 0 0 1 7.5-7.5 7.5 7.5 0 0 1 7.5 7.5 7.5 7.5 0 0 1-7.5 7.5zm0 3a10.5 10.5 0 0 0 10.5-10.5 10.5 10.5 0 0 0-10.5-10.5 10.5 10.5 0 0 0-10.5 10.5 10.5 10.5 0 0 0 10.5 10.5zm-30.5-41h61v61h-61z"/></clipPath><clipPath id="clip-path-57"><circle class="cls-2" cx="-248.54" cy="546.05" r="9"/></clipPath></defs><path class="cls-43" d="M201.29 25l-.17 77.07a10.35 10.35 0 0 1-10.55 10.13A10.23 10.23 0 0 1 180 101.65v-1.54H93V25z"/><path class="cls-44" d="M90 22v78.08H78v1.55a13.75 13.75 0 0 0 13.39 13.67l99.18-.06a13.35 13.35 0 0 0 13.64-13.11l.18-80.13zm1.41 90.2a10.62 10.62 0 0 1-10.21-9H177a13.28 13.28 0 0 0 4.71 9zm109.71-10.13a10.34 10.34 0 0 1-10.55 10.13A10.24 10.24 0 0 1 180 101.65v-1.54H93V25h108.29z"/><path class="cls-43" d="M181.71 112.16h-90.3a10.62 10.62 0 0 1-10.21-9H177a13.28 13.28 0 0 0 4.71 9z"/><path class="cls-44" d="M141.35 36.07h48.43v3.09h-48.43zm0 12.36h48.43v3.09h-48.43zm0 12.37h48.43v3.09h-48.43zm0 12.37h48.43v3.09h-48.43zm0 12.36h48.43v3.09h-48.43z"/><circle class="cls-44" cx="112" cy="41.79" r="3.16" transform="rotate(-4.03 111.935 41.787)"/><path class="cls-44" d="M126 69.41a8.82 8.82 0 1 1-14.13-9.65c0-.65-.47-3.83-.58-4.77a13.06 13.06 0 1 0 17 19z"/><path class="cls-44" d="M135.49 74.46l-6.34 2.5-5.06-11.14h-12.16l-1.9-18.04 4.73-.5.53 5h6.72v4.23h-6.28l.48 4.56h10.94l4.46 9.81 2.15-.84 1.73 4.42z"/></svg>