<svg id="Layer_1" data-name="Layer 1" xmlns="http://www.w3.org/2000/svg" viewBox="0 0 276 137"><defs><style>.cls-1,.cls-2,.cls-32,.cls-33{fill:none}.cls-1{clip-rule:evenodd}.cls-32,.cls-33{stroke:#0e1f2d;stroke-miterlimit:10;stroke-width:3px}.cls-32{stroke-linecap:round}</style><clipPath id="clip-path"><path class="cls-1" d="M-208.33-127.51h-1.5v84h108v-84h-106.5zm0 3h105l-1.5-1.5v81l1.5-1.5h-105l1.5 1.5v-81zm-21.5-23h148v124h-148z"/></clipPath><clipPath id="clip-path-2"><path class="cls-2" d="M-208.33-126.01h105v81h-105z"/></clipPath><clipPath id="clip-path-4"><path class="cls-1" d="M-214.33-110.51h-2.24l.85-2.07 9.07-22 .38-.93h100.87l.38.93 9.07 22 .85 2.07h-119.23zm0-3h117l-1.39 2.07-9.07-22 1.39.93h-98.86l1.39-.93-9.07 22zm-22.24 23h161.48v-65h-161.48z"/></clipPath><clipPath id="clip-path-5"><path class="cls-1" d="M-214.33-112.01h117l-9.07-22h-98.86l-9.07 22z"/></clipPath><clipPath id="clip-path-7"><path class="cls-1" d="M-129.33-143.51h-1.5v19h15v-19h-13.5zm0 3h12l-1.5-1.5v16l1.5-1.5h-12l1.5 1.5v-16zm-21.5-23h55v59h-55z"/></clipPath><clipPath id="clip-path-8"><path class="cls-2" d="M-129.33-142.01h12v16h-12z"/></clipPath><clipPath id="clip-path-10"><path class="cls-1" d="M-195.33-77.51h-1.5v34h24v-34h-22.5zm0 3h21l-1.5-1.5v31l1.5-1.5h-21l1.5 1.5V-76zm-21.5-23h64v74h-64z"/></clipPath><clipPath id="clip-path-11"><path class="cls-2" d="M-195.33-76.01h21v31h-21z"/></clipPath><clipPath id="clip-path-13"><path class="cls-1" d="M-194.33-105.51h-1.5v22h22v-22h-20.5zm0 3h19l-1.5-1.5v19l1.5-1.5h-19l1.5 1.5v-19zm-21.5-23h62v62h-62z"/></clipPath><clipPath id="clip-path-14"><path class="cls-2" d="M-194.33-104.01h19v19h-19z"/></clipPath><clipPath id="clip-path-16"><path class="cls-1" d="M-189.33-100.51h-1.5v12h12v-12h-10.5zm0 3h9l-1.5-1.5v9l1.5-1.5h-9l1.5 1.5v-9zm-21.5-23h52v52h-52z"/></clipPath><clipPath id="clip-path-17"><path class="cls-2" d="M-189.33-99.01h9v9h-9z"/></clipPath><clipPath id="clip-path-19"><path class="cls-1" d="M-164.33-105.51h-1.5v22h22v-22h-20.5zm0 3h19l-1.5-1.5v19l1.5-1.5h-19l1.5 1.5v-19zm-21.5-23h62v62h-62z"/></clipPath><clipPath id="clip-path-20"><path class="cls-2" d="M-164.33-104.01h19v19h-19z"/></clipPath><clipPath id="clip-path-22"><path class="cls-1" d="M-135.33-105.51h-1.5v22h22v-22h-20.5zm0 3h19l-1.5-1.5v19l1.5-1.5h-19l1.5 1.5v-19zm-21.5-23h62v62h-62z"/></clipPath><clipPath id="clip-path-23"><path class="cls-2" d="M-135.33-104.01h19v19h-19z"/></clipPath><clipPath id="clip-path-25"><path class="cls-1" d="M-164.33-77.51h-1.5v22h22v-22h-20.5zm0 3h19l-1.5-1.5v19l1.5-1.5h-19l1.5 1.5V-76zm-21.5-23h62v62h-62z"/></clipPath><clipPath id="clip-path-26"><path class="cls-2" d="M-164.33-76.01h19v19h-19z"/></clipPath><clipPath id="clip-path-28"><path class="cls-1" d="M-135.33-77.51h-1.5v22h22v-22h-20.5zm0 3h19l-1.5-1.5v19l1.5-1.5h-19l1.5 1.5V-76zm-21.5-23h62v62h-62z"/></clipPath><clipPath id="clip-path-29"><path class="cls-2" d="M-135.33-76.01h19v19h-19z"/></clipPath><clipPath id="clip-path-31"><path class="cls-1" d="M-159.33-100.51h-1.5v12h12v-12h-10.5zm0 3h9l-1.5-1.5v9l1.5-1.5h-9l1.5 1.5v-9zm-21.5-23h52v52h-52z"/></clipPath><clipPath id="clip-path-32"><path class="cls-2" d="M-159.33-99.01h9v9h-9z"/></clipPath><clipPath id="clip-path-34"><path class="cls-1" d="M-130.33-100.51h-1.5v12h12v-12h-10.5zm0 3h9l-1.5-1.5v9l1.5-1.5h-9l1.5 1.5v-9zm-21.5-23h52v52h-52z"/></clipPath><clipPath id="clip-path-35"><path class="cls-2" d="M-130.33-99.01h9v9h-9z"/></clipPath><clipPath id="clip-path-37"><path class="cls-1" d="M-159.33-72.51h-1.5v12h12v-12h-10.5zm0 3h9l-1.5-1.5v9l1.5-1.5h-9l1.5 1.5v-9zm-21.5-23h52v52h-52z"/></clipPath><clipPath id="clip-path-38"><path class="cls-2" d="M-159.33-71.01h9v9h-9z"/></clipPath><clipPath id="clip-path-40"><path class="cls-1" d="M-130.33-72.51h-1.5v12h12v-12h-10.5zm0 3h9l-1.5-1.5v9l1.5-1.5h-9l1.5 1.5v-9zm-21.5-23h52v52h-52z"/></clipPath><clipPath id="clip-path-41"><path class="cls-2" d="M-130.33-71.01h9v9h-9z"/></clipPath></defs><path class="cls-32" d="M155.92 98.48h-34.16l-6.93-45.38h48.02l-6.93 45.38zM138.84 28a23.77 23.77 0 0 0-23.77 23.77h47.54A23.77 23.77 0 0 0 138.84 28z"/><path class="cls-32" d="M138.84 38a13.51 13.51 0 0 0-13.51 13.51h27A13.51 13.51 0 0 0 138.84 38zm-6.52 28.91h13.04v18.48h-13.04z"/><path class="cls-33" d="M138.96 72.11v8.09"/><path class="cls-32" d="M135.13 100.94h7.42v19.4h-7.42z"/><path class="cls-33" d="M128.5 35.67l9.5 15.86"/></svg>