<svg id="Layer_1" xmlns="http://www.w3.org/2000/svg" viewBox="0 0 276 137"><style>.st0{fill:#fff}.st1{fill:#101f2c}.st2,.st3{fill:#fff}.st2,.st3,.st4{stroke-width:3.19;stroke-miterlimit:10}.st2{stroke-linecap:round;stroke:#101f2c}.st3,.st4{stroke:#0c1f2e}.st4{fill:none}</style><path class="st0" d="M161.6 93.5s10.7 14.5 34.5 14.5v-6.2c-13.8.6-26.9-6.3-34.2-18.1"/><path class="st1" d="M114.7 111.7l-16.6.1 1.7-24.3-10-22 9.9-.1 6.2 13.4 4-13.5 12.3-.1L112 87.8z"/><path class="st0" d="M101 109.1l10.7-.1-2.5-21.7L118 68h-6l-5.6 18.6L98 68.1l-4 .1 8.5 18.8z"/><path class="st2" d="M98 70.2a14 14 0 0 0 13.6.2c3 2.7 7.7 2.4 10.3-.6.8-.9 1.4-2 1.7-3.1.1-.3.1-.5.2-.8 6.9.5 12.8-4.6 13.3-11.5.5-6.1-3.5-11.6-9.4-13h-.1c1.4-3.1 0-6.8-3.1-8.2-1.7-.8-3.7-.7-5.4.2-3.5-7.2-12.2-10.1-19.4-6.6-2.7 1.3-4.9 3.5-6.4 6.1-3.4-.6-6.7 1.7-7.3 5.1-.3 1.4 0 2.9.7 4.2-5.7 2.5-8.3 9.2-5.8 14.9 1 2.3 2.7 4.2 4.9 5.4-2.1 3.4-1.1 7.9 2.3 10 3.3 2.1 7.8 1.1 9.9-2.3z"/><path class="st3" d="M142.6 67.7l9.5-13 9.5 13zm0 9.1H162v8h-19.4z"/><path class="st4" d="M142.6 92.8V111m0-34.2v-6.9l5.1-2.1h9.6l4.8 2.9v6.1"/><path class="st3" d="M142.6 84.8H162v8h-19.4z"/><path class="st4" d="M162 92.8v19m-19.4-19h-.5m.5-8h-.5m.5-8h-.5m19.9 6.9c7.3 11.8 20.4 18.7 34.2 18.1m-34.6-8.3s10.7 14.5 34.5 14.5m-19.5-2.7v6.4"/></svg>