<svg id="Layer_1" data-name="Layer 1" xmlns="http://www.w3.org/2000/svg" viewBox="0 0 276 137"><defs><style>.cls-1,.cls-7{fill:none}.cls-4{fill:#fff}.cls-5{fill:#0e1f2d}.cls-6{fill:#0c1f2e}.cls-7{stroke:#0e1f2d;stroke-miterlimit:10;stroke-width:3px}</style><clipPath id="clip-path"><circle class="cls-1" cx="-158" cy="-246.73" r="50.5"/></clipPath><clipPath id="clip-path-2"><circle class="cls-1" cx="-158" cy="-246.73" r="43.5"/></clipPath></defs><circle class="cls-4" cx="94.71" cy="82.31" r="17.63"/><path class="cls-5" d="M94.71 101.25a18.94 18.94 0 1 1 18.94-18.94 19 19 0 0 1-18.94 18.94zm0-35.26A16.32 16.32 0 1 0 111 82.31 16.34 16.34 0 0 0 94.71 66z"/><path class="cls-5" d="M94.71 93.25a10.94 10.94 0 1 1 10.94-10.94 11 11 0 0 1-10.94 10.94zm0-19.26a8.32 8.32 0 1 0 8.29 8.32A8.33 8.33 0 0 0 94.71 74z"/><path class="cls-4" d="M173.5 64.68a17.63 17.63 0 1 0 17.63 17.63 17.63 17.63 0 0 0-17.63-17.63zm0 27.26a9.63 9.63 0 1 1 9.63-9.63 9.63 9.63 0 0 1-9.63 9.63z"/><path class="cls-5" d="M173.5 101.25a18.94 18.94 0 1 1 18.94-18.94 19 19 0 0 1-18.94 18.94zm0-35.26a16.32 16.32 0 1 0 16.32 16.32A16.34 16.34 0 0 0 173.5 66zm0 27.26a10.94 10.94 0 1 1 10.94-10.94 11 11 0 0 1-10.94 10.94zm0-19.26a8.32 8.32 0 1 0 8.32 8.32A8.33 8.33 0 0 0 173.5 74z"/><path class="cls-5" d="M173.5 83.62a1.31 1.31 0 0 1-1.17-.72l-22.54-45h-10.4a1.31 1.31 0 0 1 0-2.62h12l23.26 46.4a1.31 1.31 0 0 1-1.17 1.9z"/><path class="cls-5" d="M128 83.62H92.18L111.66 56h47.59a1.3 1.3 0 0 1 .29 0l.37-.29a1.31 1.31 0 1 1 1.6 2.08zM97.23 81h29.86l29.08-22.36H113z"/><path class="cls-5" d="M127.54 83.62a1.31 1.31 0 0 1-1.13-.64l-21-35.63a1.31 1.31 0 0 1 2.21-1.35l21 35.63a1.31 1.31 0 0 1-1.13 2z"/><path class="cls-5" d="M118.66 48h-17.23a1.31 1.31 0 0 1 0-2.62h17.22a1.31 1.31 0 1 1 0 2.62z"/><path class="cls-6" d="M196.8 62.7V101a1.59 1.59 0 0 1-3.16 0V61.4c-3.47-8.54-14.87-9.47-18.41-.23V101a1.59 1.59 0 0 1-3.16 0V62.7a10.2 10.2 0 0 1 .27-2.34c1.18-5.07 6.15-8.89 12.09-8.89s10.92 3.82 12.1 8.89z"/><path class="cls-7" d="M157.18 100.66l52.93 1.75"/></svg>