<svg xmlns="http://www.w3.org/2000/svg" xmlns:xlink="http://www.w3.org/1999/xlink" viewBox="0 0 276 137"><defs><path id="a" d="M-454-192.5c-29.3 0-53-23.7-53-53s23.7-53 53-53 53 23.7 53 53-23.7 53-53 53zm0 3c30.9 0 56-25.1 56-56s-25.1-56-56-56-56 25.1-56 56 25.1 56 56 56z"/></defs><clipPath id="b"><use xlink:href="#a" overflow="visible"/></clipPath><g clip-path="url(#b)"><defs><circle id="c" cx="-454" cy="-245.5" r="54.5"/></defs></g><defs><circle id="d" cx="-454" cy="-245.5" r="54.5"/></defs><defs><path id="e" d="M-454-213.5c-17.7 0-32-14.3-32-32s14.3-32 32-32 32 14.3 32 32-14.3 32-32 32zm0 3c19.3 0 35-15.7 35-35s-15.7-35-35-35-35 15.7-35 35 15.7 35 35 35zm-55-90h110v110h-110v-110z"/></defs><clipPath id="f"><use xlink:href="#e" overflow="visible"/></clipPath><g clip-path="url(#f)"><defs><circle id="g" cx="-454" cy="-245.5" r="33.5"/></defs></g><defs><circle id="h" cx="-454" cy="-245.5" r="33.5"/></defs><defs><path id="i" d="M-455.5-299.5h-1.5v13h6v-13h-4.5zm0 3h3l-1.5-1.5v10l1.5-1.5h-3l1.5 1.5v-10l-1.5 1.5z"/></defs><clipPath id="j"><use xlink:href="#i" overflow="visible"/></clipPath><g clip-path="url(#j)"><defs><path id="k" d="M-455.5-298h3v10h-3z"/></defs></g><defs><path id="l" d="M-455.5-298h3v10h-3z"/></defs><defs><path id="m" d="M-509.5-243.5v1.5h13v-6h-13v4.5zm3 0v-3l-1.5 1.5h10l-1.5-1.5v3l1.5-1.5h-10l1.5 1.5z"/></defs><clipPath id="n"><use xlink:href="#m" overflow="visible"/></clipPath><g clip-path="url(#n)"><defs><path id="o" d="M-508-246.5h10v3h-10z"/></defs></g><defs><path id="p" d="M-508-246.5h10v3h-10z"/></defs><defs><path id="q" d="M-412.5-243.5v1.5h13v-6h-13v4.5zm3 0v-3l-1.5 1.5h10l-1.5-1.5v3l1.5-1.5h-10l1.5 1.5z"/></defs><clipPath id="r"><use xlink:href="#q" overflow="visible"/></clipPath><g clip-path="url(#r)"><defs><path id="s" d="M-411-246.5h10v3h-10z"/></defs></g><defs><path id="t" d="M-411-246.5h10v3h-10z"/></defs><defs><path id="u" d="M-423.5-273.3l1.1 1.1 1.1-1.1 7.1-7.1 1.1-1.1-1.1-1.1-2.1-2.1-1.1-1.1-1.1 1.1-7.1 7.1-1.1 1.1 1.1 1.1 2.1 2.1zm2.1-2.2l-2.1-2.1v2.1l7.1-7.1h-2.1l2.1 2.1v-2.1l-7.1 7.1h2.1z"/></defs><clipPath id="v"><use xlink:href="#u" overflow="visible"/></clipPath><g clip-path="url(#v)"><defs><path id="w" transform="rotate(45.001 -420.005 -278.996)" d="M-421.5-284h3v10h-3z"/></defs></g><defs><path id="x" transform="rotate(45.001 -420.005 -278.996)" d="M-421.5-284h3v10h-3z"/></defs><defs><path id="y" d="M-483.3-274.5l1.1-1.1-1.1-1.1-7.1-7.1-1.1-1.1-1.1 1.1-2.1 2.1-1.1 1.1 1.1 1.1 7.1 7.1 1.1 1.1 1.1-1.1 2.1-2.1zm-2.2-2.1l-2.1 2.1h2.1l-7.1-7.1v2.1l2.1-2.1h-2.1l7.1 7.1v-2.1z"/></defs><clipPath id="z"><use xlink:href="#y" overflow="visible"/></clipPath><g clip-path="url(#z)"><defs><path id="A" transform="rotate(-45.001 -489 -278.007)" d="M-490.5-283h3v10h-3z"/></defs></g><defs><path id="B" transform="rotate(-45.001 -489 -278.007)" d="M-490.5-283h3v10h-3z"/></defs><defs><path id="C" d="M-423.5-217.7l1.1-1.1 1.1 1.1 7.1 7.1 1.1 1.1-1.1 1.1-2.1 2.1-1.1 1.1-1.1-1.1-7.1-7.1-1.1-1.1 1.1-1.1 2.1-2.1zm2.1 2.2l-2.1 2.1v-2.1l7.1 7.1h-2.1l2.1-2.1v2.1l-7.1-7.1h2.1z"/></defs><clipPath id="D"><use xlink:href="#C" overflow="visible"/></clipPath><g clip-path="url(#D)"><defs><path id="E" transform="rotate(-45.001 -419.999 -212.006)" d="M-421.5-217h3v10h-3z"/></defs></g><defs><path id="F" transform="rotate(-45.001 -419.999 -212.006)" d="M-421.5-217h3v10h-3z"/></defs><defs><path id="G" d="M-483.3-214.5l1.1 1.1-1.1 1.1-7.1 7.1-1.1 1.1-1.1-1.1-2.1-2.1-1.1-1.1 1.1-1.1 7.1-7.1 1.1-1.1 1.1 1.1 2.1 2.1zm-2.2 2.1l-2.1-2.1h2.1l-7.1 7.1v-2.1l2.1 2.1h-2.1l7.1-7.1v2.1z"/></defs><clipPath id="H"><use xlink:href="#G" overflow="visible"/></clipPath><g clip-path="url(#H)"><defs><path id="I" transform="rotate(45.001 -489.005 -210.995)" d="M-490.5-216h3v10h-3z"/></defs></g><defs><path id="J" transform="rotate(45.001 -489.005 -210.995)" d="M-490.5-216h3v10h-3z"/></defs><defs><path id="K" d="M-444.4-266.1c.7.3 1.5.6 2.2 1 1.3.7 2.5 1.6 3.6 2.4.4.3.7.6 1 .9.2.2.3.3.4.3l1.6 1.6-.3-2.2-2.1-14.7-.2-1.2-1 .6-12.3 8-1.8 1.2 2.1.2c.1 0 .3 0 .5.1.4.1.9.2 1.5.3 1.4.3 3.1.8 4.8 1.5zm7.5 4c-.1-.1-.4-.3-.7-.6l.1.9.6-.3zm0-1l.1.9.6-.3-.4-.4c-.1 0-.2-.1-.3-.2zm-1.9-13.1v.3l.3-.2-.3-.1zm-.8 0l.3-.2-.3-.2v.4zm-11.4 7.4l.7-.5h-.3c-.3 0-.5-.1-.6-.1l.2.6zm.9.3c-.4-.1-.7-.1-.9-.1l.1.6.8-.5z"/></defs><defs><path id="L" d="M-444.2-266.8c-3.9-1.6-7.1-1.9-7.1-1.9l12.3-8 2.1 14.7c.2.1-3.1-3.1-7.3-4.8zm-25-11.1l37.2-15.8 15.8 37.2-37.2 15.8-15.8-37.2z"/></defs><defs><path id="M" d="M-454-221.5c-13.3 0-24-10.7-24-24s10.7-24 24-24 24 10.7 24 24-10.7 24-24 24zm0 3c14.9 0 27-12.1 27-27s-12.1-27-27-27-27 12.1-27 27 12.1 27 27 27zm-47-74h94v94h-94v-94z"/></defs><clipPath id="N"><use xlink:href="#M" overflow="visible"/></clipPath><g clip-path="url(#N)"><defs><circle id="O" cx="-454" cy="-245.5" r="25.5"/></defs></g><defs><circle id="P" cx="-454" cy="-245.5" r="25.5"/></defs><defs><path id="Q" d="M-163.8-306.5h-1.5v18h19v-18h-17.5zm0 3h16l-1.5-1.5v15l1.5-1.5h-16l1.5 1.5v-15l-1.5 1.5z"/></defs><clipPath id="R"><use xlink:href="#Q" overflow="visible"/></clipPath><g clip-path="url(#R)"><defs><path id="S" d="M-163.8-305h16v15h-16z"/></defs></g><defs><path id="T" d="M-163.8-305h16v15h-16z"/></defs><defs><path id="U" d="M-187.8-294.5h-1.5v43h67v-43h-65.5zm0 3h64l-1.5-1.5v40l1.5-1.5h-64l1.5 1.5v-40l-1.5 1.5z"/></defs><clipPath id="V"><use xlink:href="#U" overflow="visible"/></clipPath><g clip-path="url(#V)"><defs><path id="W" d="M-187.8-293h64v40h-64z"/></defs></g><defs><path id="X" d="M-187.8-293h64v40h-64z"/></defs><defs><path id="Y" d="M-152.8-284.5h-1.5v33h22v-33h-20.5zm0 3h19l-1.5-1.5v30l1.5-1.5h-19l1.5 1.5v-30l-1.5 1.5z"/></defs><clipPath id="Z"><use xlink:href="#Y" overflow="visible"/></clipPath><g clip-path="url(#Z)"><defs><path id="aa" d="M-152.8-283h19v30h-19z"/></defs></g><defs><path id="ab" d="M-152.8-283h19v30h-19z"/></defs><defs><path id="ac" d="M-177.8-284.5h-1.5v33h22v-33h-20.5zm0 3h19l-1.5-1.5v30l1.5-1.5h-19l1.5 1.5v-30l-1.5 1.5z"/></defs><clipPath id="ad"><use xlink:href="#ac" overflow="visible"/></clipPath><g clip-path="url(#ad)"><defs><path id="ae" d="M-177.8-283h19v30h-19z"/></defs></g><defs><path id="af" d="M-177.8-283h19v30h-19z"/></defs><defs><path id="ag" d="M-208.3-226.3c0 2.9-.8 7-2.3 11.9-.6 2.1-1.3 4.3-2.1 6.5-1 2.7-2 5.4-3.1 8-.4.9-.7 1.7-1 2.4-.2.4-.3.7-.4.9l-.9 2.1h119.4l-.7-2c-.1-.2-.2-.4-.3-.9-.2-.7-.5-1.5-.8-2.4-.8-2.5-1.6-5.2-2.4-7.9-.7-2.4-1.3-4.8-1.8-7-1.1-4.8-1.7-8.8-1.7-11.8 0-2.8.7-7 1.9-12 .5-1.9 1-3.9 1.6-6 .8-2.7 1.6-5.4 2.4-7.9.3-.9.5-1.7.8-2.4.1-.4.2-.7.3-.9l.7-2h-119.4l1 2.1c.1.1.2.4.4.9.3.7.6 1.5 1 2.4 1 2.5 2.1 5.1 3.1 7.8.8 2.2 1.5 4.4 2.1 6.4 1.4 5 2.2 9 2.2 11.8zm3 0c0-3.2-.9-7.5-2.4-12.5-.6-2.1-1.4-4.3-2.2-6.5-1-2.7-2.1-5.4-3.1-8-.4-.9-.7-1.7-1-2.4-.2-.4-.3-.7-.4-.9l-1.4 2.1h115l-1.4-2c-.1.2-.2.5-.3.9-.2.7-.5 1.5-.8 2.4-.8 2.6-1.7 5.3-2.4 8-.6 2.1-1.1 4.1-1.6 6.1-1.3 5.2-2 9.5-2 12.7 0 3.2.6 7.4 1.7 12.4.5 2.3 1.1 4.7 1.8 7.1.8 2.8 1.6 5.5 2.4 8.1.3.9.6 1.7.8 2.4.1.4.2.7.3.9l1.4-2h-115l1.4 2.1c.1-.2.2-.5.4-.9.3-.7.7-1.5 1-2.4 1.1-2.6 2.1-5.3 3.1-8.1.8-2.3 1.6-4.5 2.2-6.7 1.7-5.2 2.5-9.5 2.5-12.8z"/></defs><clipPath id="ah"><use xlink:href="#ag" overflow="visible"/></clipPath><g clip-path="url(#ah)"><defs><path id="ai" d="M-206.8-226.3c0-9.9-9-29.7-9-29.7h115s-7 20-7 29.6c0 10.5 7 30.4 7 30.4h-115s9-20.2 9-30.3z"/></defs></g><defs><path id="aj" d="M-206.8-226.3c0-9.9-9-29.7-9-29.7h115s-7 20-7 29.6c0 10.5 7 30.4 7 30.4h-115s9-20.2 9-30.3z"/></defs><defs><path id="ak" d="M-192.8-225.5h-1.5v6h72v-6h-70.5zm0 3h69l-1.5-1.5v3l1.5-1.5h-69l1.5 1.5v-3l-1.5 1.5zm-21.5-23h112v46h-112v-46z"/></defs><clipPath id="al"><use xlink:href="#ak" overflow="visible"/></clipPath><g clip-path="url(#al)"><defs><path id="am" d="M-192.8-224h69v3h-69z"/></defs></g><defs><path id="an" d="M-192.8-224h69v3h-69z"/></defs><defs><path id="ao" d="M-192.8-233.5h-1.5v6h72v-6h-70.5zm0 3h69l-1.5-1.5v3l1.5-1.5h-69l1.5 1.5v-3l-1.5 1.5zm-21.5-23h112v46h-112v-46z"/></defs><clipPath id="ap"><use xlink:href="#ao" overflow="visible"/></clipPath><g clip-path="url(#ap)"><defs><path id="aq" d="M-192.8-232h69v3h-69z"/></defs></g><defs><path id="ar" d="M-192.8-232h69v3h-69z"/></defs><defs><path id="as" d="M-160.8-218.1l.5 1.6 1.5-.7c2-.9 4.2-1.3 6.4-1.3 6 0 11.3 3.3 14.1 8.4l.5 1 1.1-.2c.6-.1 1.2-.2 1.8-.2 3.5 0 6.6 2.1 7.9 5.3l.5 1.2 1.3-.3c.4-.1.9-.2 1.4-.2 3 0 5.5 2.5 5.5 5.5s-2.5 5.5-5.5 5.5c-1.5 0-2.9-.6-3.9-1.6l-.9-.9-1 .8c-1.5 1.1-3.3 1.7-5.1 1.7-1.1 0-2.2-.2-3.2-.6l-1-.4-.7.9c-3 3.8-7.6 6.1-12.6 6.1-4.9 0-9.5-2.3-12.5-6l-.7-.8-1 .3c-1.1.4-2.2.5-3.3.5-2 0-4-.6-5.7-1.7l-.8-.5-.8.5c-1.7 1.1-3.6 1.7-5.7 1.7-2.2 0-4.3-.7-6-1.9l-1.1-.7-.9.9c-1 1.1-2.5 1.7-4 1.7-3 0-5.5-2.5-5.5-5.5s2.5-5.5 5.5-5.5h1.4l.2-1.3c.8-5 5.2-8.7 10.4-8.7h1.5v-1.5c0-5.8 4.7-10.5 10.5-10.5 4.6 0 8.6 3 9.9 7.4zm2.9-.9c-1.7-5.6-6.9-9.5-12.9-9.5-7.5 0-13.5 6-13.5 13.5l1.5-1.5c-6.6 0-12.2 4.8-13.3 11.3l1.5.2v-1.5h-.2c-4.7 0-8.5 3.8-8.5 8.5s3.8 8.5 8.5 8.5c2.4 0 4.6-1 6.2-2.7l-2 .2c2.3 1.6 5 2.5 7.8 2.5 2.6 0 5.2-.8 7.3-2.2h-1.6c2.2 1.4 4.7 2.2 7.3 2.2 1.5 0 2.9-.2 4.3-.7l-.5-1.4-1.2.9c3.6 4.5 9 7.2 14.9 7.2s11.4-2.7 15-7.3l-1.2-.9-.6 1.4c1.3.5 2.8.8 4.3.8 2.6 0 5-.8 7-2.4l-2-.1c1.6 1.6 3.7 2.5 6 2.5 4.7 0 8.5-3.8 8.5-8.5s-3.8-8.5-8.5-8.5c-.7 0-1.4.1-2.1.3l.4 1.5 1.4-.6c-1.8-4.3-5.9-7.2-10.6-7.2-.8 0-1.6.1-2.4.2l.3 1.5 1.3-.7c-3.3-6.1-9.7-10-16.7-10-2.7 0-5.2.5-7.6 1.6l1.9.9zm-65.4-29.5h128v85h-128v-85z"/></defs><clipPath id="at"><use xlink:href="#as" overflow="visible"/></clipPath><g clip-path="url(#at)"><defs><path id="au" d="M-159.3-218.5c-1.5-4.9-6.1-8.5-11.5-8.5-6.6 0-12 5.4-12 12-5.9 0-10.9 4.3-11.8 10h-.2c-3.9 0-7 3.1-7 7s3.1 7 7 7c2 0 3.8-.8 5.1-2.2 2 1.4 4.3 2.2 6.9 2.2 2.4 0 4.6-.7 6.5-1.9 1.9 1.2 4.1 1.9 6.5 1.9 1.3 0 2.6-.2 3.8-.6 3.2 4 8.2 6.6 13.7 6.6 5.6 0 10.6-2.6 13.8-6.7 1.1.5 2.4.7 3.7.7 2.3 0 4.4-.8 6.1-2 1.3 1.3 3 2 4.9 2 3.9 0 7-3.1 7-7s-3.1-7-7-7c-.6 0-1.2.1-1.7.2-1.5-3.6-5.1-6.2-9.3-6.2-.7 0-1.4.1-2.1.2-3-5.5-8.8-9.2-15.4-9.2-2.5 0-4.9.5-7 1.5z"/></defs></g><defs><path id="av" d="M-159.3-218.5c-1.5-4.9-6.1-8.5-11.5-8.5-6.6 0-12 5.4-12 12-5.9 0-10.9 4.3-11.8 10h-.2c-3.9 0-7 3.1-7 7s3.1 7 7 7c2 0 3.8-.8 5.1-2.2 2 1.4 4.3 2.2 6.9 2.2 2.4 0 4.6-.7 6.5-1.9 1.9 1.2 4.1 1.9 6.5 1.9 1.3 0 2.6-.2 3.8-.6 3.2 4 8.2 6.6 13.7 6.6 5.6 0 10.6-2.6 13.8-6.7 1.1.5 2.4.7 3.7.7 2.3 0 4.4-.8 6.1-2 1.3 1.3 3 2 4.9 2 3.9 0 7-3.1 7-7s-3.1-7-7-7c-.6 0-1.2.1-1.7.2-1.5-3.6-5.1-6.2-9.3-6.2-.7 0-1.4.1-2.1.2-3-5.5-8.8-9.2-15.4-9.2-2.5 0-4.9.5-7 1.5z"/></defs><defs><path id="aw" d="M111.7-253.6l56 32.4s-1.5 14.3-8.3 24.7c-6.8 10.4-24.1 17.2-24.1 17.2l-53.4-38.5s13.7-4.3 21.6-13.8 8.2-22 8.2-22z"/></defs><defs><path id="ax" d="M137.2-239.8l21.8-50.6 6.2 2.7-22.4 51z"/></defs><defs><path id="ay" d="M102.3-213.4l1.2.9.9-1.2c-1.5-1-3.3-1.6-5.1-1.6-5 0-9 4-9 9 0 3.8 2.4 7.2 6 8.5l-1-1.4c0 4.9 4.1 8.9 9 8.9 1.4 0 2.8-.3 4.1-1l-.7-1.3-1.4.6c1.9 4 5.9 6.7 10.4 6.7 6.4 0 11.5-5.1 11.5-11.5 0-1.2-.2-2.5-.6-3.6l-1.4.5.8 1.3c2.6-1.6 4.2-4.5 4.2-7.6 0-5-4-9-9-9-1.2 0-2.3.2-3.4.7l.6 1.4 1.1-1c-2.2-2.6-5.4-4.1-8.8-4.1-3.8-.1-7.3 1.8-9.4 4.8zm2.4 1.7c1.6-2.3 4.2-3.7 7-3.7 2.5 0 4.9 1.1 6.5 3l.7.8 1-.4c.7-.3 1.5-.4 2.3-.4 3.3 0 6 2.7 6 6 0 2.1-1.1 4-2.8 5.1l-1 .6.4 1.1c.3.9.4 1.8.4 2.7 0 4.7-3.8 8.5-8.5 8.5-3.4 0-6.3-2-7.7-4.9l-.7-1.4-1.3.7c-.8.4-1.8.7-2.7.7-3.3 0-6-2.7-6-5.9v-1.1l-1-.3c-2.4-.8-4-3.1-4-5.7 0-3.3 2.7-6 6-6 1.2 0 2.4.4 3.4 1.1l1.2.9.8-1.4zm-34.5-26.6h81v73h-81v-73z"/></defs><clipPath id="az"><use xlink:href="#ay" overflow="visible"/></clipPath><g clip-path="url(#az)"><defs><path id="aA" d="M103.5-212.5c1.8-2.6 4.8-4.3 8.2-4.3 3.1 0 5.8 1.4 7.7 3.6.9-.4 1.8-.6 2.8-.6 4.1 0 7.5 3.4 7.5 7.5 0 2.7-1.4 5-3.5 6.3.3 1 .5 2 .5 3.2 0 5.5-4.5 10-10 10-4 0-7.5-2.4-9.1-5.8-1 .5-2.2.8-3.4.8-4.1 0-7.5-3.3-7.5-7.4-2.9-1-5-3.8-5-7.1 0-4.1 3.4-7.5 7.5-7.5 1.6 0 3.1.5 4.3 1.3z"/></defs></g><defs><path id="aB" d="M103.5-212.5c1.8-2.6 4.8-4.3 8.2-4.3 3.1 0 5.8 1.4 7.7 3.6.9-.4 1.8-.6 2.8-.6 4.1 0 7.5 3.4 7.5 7.5 0 2.7-1.4 5-3.5 6.3.3 1 .5 2 .5 3.2 0 5.5-4.5 10-10 10-4 0-7.5-2.4-9.1-5.8-1 .5-2.2.8-3.4.8-4.1 0-7.5-3.3-7.5-7.4-2.9-1-5-3.8-5-7.1 0-4.1 3.4-7.5 7.5-7.5 1.6 0 3.1.5 4.3 1.3z"/></defs><defs><path id="aC" d="M159.7-297.2l10.2 4.4 2-4.4-10.3-4-1.9 4zm-8.5 2.7l22.8 9.7 7.1-15.4-23.3-8.4-6.6 14.1z"/></defs><defs><path id="aD" d="M432.1-309.6c30.3 0 55 7.1 55 14.8v22l1.7-1.5c-.1 0-.2 0-.4-.1-.4-.1-.8-.1-1.3-.2-1.4-.2-2.9-.4-4.6-.6-4.9-.7-10-1.3-15.2-2-3.9-.5-7.7-.9-11.3-1.3-9.9-1-18.1-1.6-23.9-1.6-5.2 0-14.3.8-26.1 2.3-2.5.3-5.1.6-7.7 1-5.4.7-10.9 1.5-16.1 2.3-1.8.3-3.5.5-5 .8-.5.1-1 .2-1.4.2-.2 0-.4.1-.5.1l1.7 1.5v-23c.1-7.6 24.8-14.7 55.1-14.7zm0-3c-32.1 0-58 7.5-58 17.8v24.8l1.7-.3c.1 0 .2 0 .5-.1.4-.1.8-.1 1.4-.2 1.5-.2 3.1-.5 5-.8 5.2-.8 10.7-1.6 16.1-2.3 2.6-.4 5.2-.7 7.7-1 11.7-1.5 20.7-2.3 25.7-2.3 5.6 0 13.7.6 23.6 1.6 3.6.4 7.4.8 11.2 1.3 5.2.6 10.3 1.3 15.2 2 1.7.2 3.2.4 4.6.6.5.1.9.1 1.2.2.2 0 .4.1.4.1l1.7.3v-23.7c0-10.6-25.9-18-58-18zm-78-20h156v82.5h-156v-82.5z"/></defs><clipPath id="aE"><use xlink:href="#aD" overflow="visible"/></clipPath><g clip-path="url(#aE)"><defs><path id="aF" d="M432.1-311.1c-31.2 0-56.5 7.3-56.5 16.3v23s42.2-6.7 56.5-6.7c18 0 56.5 5.7 56.5 5.7v-22c0-9-25.3-16.3-56.5-16.3z"/></defs></g><defs><path id="aG" d="M432.1-311.1c-31.2 0-56.5 7.3-56.5 16.3v23s42.2-6.7 56.5-6.7c18 0 56.5 5.7 56.5 5.7v-22c0-9-25.3-16.3-56.5-16.3z"/></defs><defs><path id="aH" d="M432.1-287.4c30.3 0 55 7.1 55 14.8s-24.7 14.8-55 14.8-55-7.1-55-14.8 24.7-14.8 55-14.8zm0-3c-32.1 0-58 7.5-58 17.8s25.9 17.8 58 17.8 58-7.5 58-17.8-25.9-17.8-58-17.8zm-78-20h156v75.6h-156v-75.6z"/></defs><clipPath id="aI"><use xlink:href="#aH" overflow="visible"/></clipPath><g clip-path="url(#aI)"><defs><ellipse id="aJ" cx="432.1" cy="-272.5" rx="56.5" ry="16.3"/></defs></g><defs><ellipse id="aK" cx="432.1" cy="-272.5" rx="56.5" ry="16.3"/></defs><defs><path id="aL" d="M392.1-268.2c0-5.3 18-10.4 40-10.4s40 5.2 40 10.4v7.1l1.2-1.5c-.1 0-.1 0-.3.1-.3 0-.6.1-.9.2-1 .2-2.1.3-3.4.5-3.6.6-7.3 1.1-11.1 1.7-2.9.4-5.6.8-8.3 1.1-7.2.9-13.1 1.3-17.2 1.3-3.7 0-10.3-.5-18.9-1.4-1.8-.2-3.7-.4-5.6-.6-4-.5-8-.9-11.8-1.4-1.3-.2-2.6-.3-3.6-.5-.4 0-.7-.1-1-.1h-.3l1.3 1.5v-8zm-3 0v9.1l1.3.2h.4c.3 0 .6.1 1 .1 1.1.1 2.3.3 3.7.5a11776882415803102 11776882415803102 0 0 0 36.7 3.5c4.3 0 10.3-.5 17.6-1.4 2.7-.3 5.4-.7 8.3-1.1 3.8-.5 7.6-1.1 11.2-1.7 1.3-.2 2.4-.4 3.4-.5.4-.1.7-.1.9-.2.3 0 .3 0 .3-.1l1.2-.2v-8.4c0-7.9-19.2-13.4-43-13.4s-43 5.7-43 13.6zm-20-33.4h126v66.9h-126v-66.9z"/></defs><clipPath id="aM"><use xlink:href="#aL" overflow="visible"/></clipPath><g clip-path="url(#aM)"><defs><path id="aN" d="M390.6-268.2v7.8s31 4.1 41.5 4.1c13.2 0 41.5-4.8 41.5-4.8v-7.1c0-6.6-18.6-11.9-41.5-11.9s-41.5 5.3-41.5 11.9z"/></defs></g><defs><path id="aO" d="M390.6-268.2v7.8s31 4.1 41.5 4.1c13.2 0 41.5-4.8 41.5-4.8v-7.1c0-6.6-18.6-11.9-41.5-11.9s-41.5 5.3-41.5 11.9z"/></defs><defs><path id="aP" d="M432.1-270.3c22 0 40 5.2 40 10.4s-18 10.4-40 10.4-40-5.2-40-10.4 18-10.4 40-10.4zm0-3c-23.8 0-43 5.5-43 13.4s19.2 13.4 43 13.4 43-5.5 43-13.4-19.2-13.4-43-13.4zm-63-20h126v66.9h-126v-66.9z"/></defs><clipPath id="aQ"><use xlink:href="#aP" overflow="visible"/></clipPath><g clip-path="url(#aQ)"><defs><ellipse id="aR" cx="432.1" cy="-259.9" rx="41.5" ry="11.9"/></defs></g><defs><ellipse id="aS" cx="432.1" cy="-259.9" rx="41.5" ry="11.9"/></defs><defs><path id="aT" d="M419.5-258.3c0 .4-.2.7-.4.8.1 0 .2-.1.4-.2.6-.2 1.6-.4 2.8-.6 2.6-.4 6-.6 9.8-.6s7.2.2 9.8.6c1.2.2 2.2.4 2.8.6l.4.2c-.2-.1-.4-.4-.4-.8s.2-.7.4-.8c-.1 0-.2.1-.4.2-.6.2-1.6.4-2.8.6-2.6.4-6 .6-9.8.6s-7.2-.2-9.8-.6c-1.2-.2-2.2-.4-2.8-.6l-.4-.2c.2.1.4.3.4.8zm-3 0c0 2.6 6.2 3.5 15.6 3.5s15.6-.9 15.6-3.5-6.2-3.5-15.6-3.5-15.6.8-15.6 3.5zm-20-23.6h71.2v47.1h-71.2v-47.1z"/></defs><clipPath id="aU"><use xlink:href="#aT" overflow="visible"/></clipPath><g clip-path="url(#aU)"><defs><ellipse id="aV" cx="432.1" cy="-258.3" rx="14.1" ry="2"/></defs></g><defs><ellipse id="aW" cx="432.1" cy="-258.3" rx="14.1" ry="2"/></defs><defs><path id="aX" d="M424.9-241s-10.5 3.3-9.1 12.3c.9 5.5 5.6 8.1 5.6 13.5s-4.6 9.5-4.6 9.5 13.5-.3 14.6-9.5c1.1-9.2-6.7-11.3-8.3-15.6-1.4-4.3 1.8-10.2 1.8-10.2z"/></defs><defs><path id="aY" d="M440-237.7s-15.1 4.8-13 17.6c1.2 7.9 8 11.6 8 19.4s-6.5 13.6-6.5 13.6 19.3-.5 20.9-13.6c1.6-13.2-9.6-16.1-11.8-22.3-2.3-6.3 2.4-14.7 2.4-14.7z"/></defs><defs><path id="aZ" d="M-211.5-127.5l-1.4.4.4 1.4 30.4 99.5.4 1.4 1.4-.4 60.2-18.4 1.4-.4-.4-1.4-30.4-99.5-.4-1.4-1.4.4-60.2 18.4zm.9 2.9l60.2-18.4-1.9-1 30.4 99.5 1-1.9-60.2 18.4 1.9 1-30.4-99.5-1 1.9zm-27.3-15.7l101.4-31 43 140.6-101.4 31-43-140.6z"/></defs><clipPath id="ba"><use xlink:href="#aZ" overflow="visible"/></clipPath><g clip-path="url(#ba)"><defs><path id="bb" transform="rotate(162.999 -165.704 -85.5)" d="M-197.2-137.5h63v104h-63z"/></defs></g><defs><path id="bc" transform="rotate(162.999 -165.704 -85.5)" d="M-197.2-137.5h63v104h-63z"/></defs><defs><path id="bd" d="M-176.2-150.5h-1.5v107h66v-107h-64.5zm0 3h63l-1.5-1.5v104l1.5-1.5h-63l1.5 1.5v-104l-1.5 1.5zm-21.5-23h106v147h-106v-147z"/></defs><clipPath id="be"><use xlink:href="#bd" overflow="visible"/></clipPath><g clip-path="url(#be)"><defs><path id="bf" d="M-176.2-149h63v104h-63z"/></defs></g><defs><path id="bg" d="M-176.2-149h63v104h-63z"/></defs><defs><path id="bh" d="M-167.2-121h44v13h-44z"/></defs><defs><path id="bi" d="M-167.2-111h44v13h-44z"/></defs><defs><path id="bj" d="M-167.2-101h44v13h-44z"/></defs><defs><path id="bk" d="M-167.2-91h44v14h-44z"/></defs><defs><path id="bl" d="M-167.2-80h44v14h-44z"/></defs><defs><path id="bm" d="M-167.2-69h44v14h-44z"/></defs><defs><path id="bn" d="M-166.2-139h3v13h-3z"/></defs><defs><path id="bo" d="M-161.2-139h3v13h-3z"/></defs><defs><path id="bp" d="M-156.2-139h3v13h-3z"/></defs><defs><path id="bq" d="M-151.2-139h3v13h-3z"/></defs><defs><path id="br" d="M-146.2-139h3v13h-3z"/></defs><defs><path id="bs" d="M-146.2-88h3v32h-3z"/></defs><defs><path id="bt" d="M-141.2-139h3v13h-3z"/></defs><defs><path id="bu" d="M-136.2-139h3v13h-3z"/></defs><defs><path id="bv" d="M-131.2-139h3v13h-3z"/></defs><defs><path id="bw" d="M-126.2-139h3v13h-3z"/></defs><defs><path id="bx" d="M-208.2-124.8l53.3 34.1-23.9 61.7"/></defs><defs><path id="by" d="M93.5-150.5H92v107h66v-107H93.5zm0 3h63L155-149v104l1.5-1.5h-63L95-45v-104l-1.5 1.5zm-21.5-23h106v147H72v-147z"/></defs><clipPath id="bz"><use xlink:href="#by" overflow="visible"/></clipPath><g clip-path="url(#bz)"><defs><path id="bA" d="M93.5-149h63v104h-63z"/></defs></g><defs><path id="bB" d="M93.5-149h63v104h-63z"/></defs><defs><path id="bC" d="M102.5-121h44v13h-44z"/></defs><defs><path id="bD" d="M102.5-111h44v13h-44z"/></defs><defs><path id="bE" d="M102.5-101h44v13h-44z"/></defs><defs><path id="bF" d="M102.5-91h44v14h-44z"/></defs><defs><path id="bG" d="M102.5-80h44v14h-44z"/></defs><defs><path id="bH" d="M102.5-69h44v14h-44z"/></defs><defs><path id="bI" d="M103.5-139h3v13h-3z"/></defs><defs><path id="bJ" d="M108.5-139h3v13h-3z"/></defs><defs><path id="bK" d="M113.5-139h3v13h-3z"/></defs><defs><path id="bL" d="M118.5-139h3v13h-3z"/></defs><defs><path id="bM" d="M123.5-139h3v13h-3z"/></defs><defs><path id="bN" d="M123.5-88h3v32h-3z"/></defs><defs><path id="bO" d="M128.5-139h3v13h-3z"/></defs><defs><path id="bP" d="M133.5-139h3v13h-3z"/></defs><defs><path id="bQ" d="M138.5-139h3v13h-3z"/></defs><defs><path id="bR" d="M143.5-139h3v13h-3z"/></defs><defs><path id="bS" d="M165.5-29.5C149.2-29.5 136-42.7 136-59s13.2-29.5 29.5-29.5S195-75.3 195-59s-13.2 29.5-29.5 29.5zm0 3c17.9 0 32.5-14.6 32.5-32.5s-14.6-32.5-32.5-32.5S133-76.9 133-59s14.5 32.5 32.5 32.5zm-52.5-85h105v105H113v-105z"/></defs><clipPath id="bT"><use xlink:href="#bS" overflow="visible"/></clipPath><g clip-path="url(#bT)"><defs><circle id="bU" cx="165.5" cy="-59" r="31"/></defs></g><defs><circle id="bV" cx="165.5" cy="-59" r="31"/></defs><defs><path id="bW" d="M71.8 25.7h-1.5v90h134v-90H71.8zm0 3h131l-1.5-1.5v87l1.5-1.5h-131l1.5 1.5v-87l-1.5 1.5zm-21.5-23h174v130h-174V5.7z"/></defs><clipPath id="bX"><use xlink:href="#bW" overflow="visible"/></clipPath><g clip-path="url(#bX)"><defs><path id="bY" d="M71.8 27.2h131v87h-131z"/></defs><clipPath id="bZ"><use xlink:href="#bY" overflow="visible"/></clipPath><g clip-path="url(#bZ)"><defs><path id="ca" d="M-537.2-276.8h1121v1030h-1121z"/></defs><clipPath id="cb"><use xlink:href="#ca" overflow="visible"/></clipPath><path clip-path="url(#cb)" fill-rule="evenodd" clip-rule="evenodd" fill="#FFF" d="M71.8 27.2h131v87h-131z"/></g></g><defs><path id="cc" d="M71.8 27.2h131v87h-131z"/></defs><clipPath id="cd"><use xlink:href="#cc" overflow="visible"/></clipPath><g clip-path="url(#cd)"><defs><path id="ce" d="M-537.2-276.8h1121v1030h-1121z"/></defs><clipPath id="cf"><use xlink:href="#ce" overflow="visible"/></clipPath><path clip-path="url(#cf)" fill="none" stroke="#0C1F2E" stroke-width="6" stroke-linecap="round" stroke-miterlimit="10" d="M71.8 27.2h131v87h-131z"/></g><defs><path id="cg" d="M76.8 30.7h-1.5v80h124v-80H76.8zm0 3h121l-1.5-1.5v77l1.5-1.5h-121l1.5 1.5v-77l-1.5 1.5zm-21.5-23h164v120h-164v-120z"/></defs><clipPath id="ch"><use xlink:href="#cg" overflow="visible"/></clipPath><g clip-path="url(#ch)"><defs><path id="ci" d="M76.8 32.2h121v77h-121z"/></defs><clipPath id="cj"><use xlink:href="#ci" overflow="visible"/></clipPath><g clip-path="url(#cj)"><defs><path id="ck" d="M-537.2-276.8h1121v1030h-1121z"/></defs><clipPath id="cl"><use xlink:href="#ck" overflow="visible"/></clipPath><path clip-path="url(#cl)" fill-rule="evenodd" clip-rule="evenodd" fill="#FFF" d="M76.8 32.2h121v77h-121z"/></g></g><defs><path id="cm" d="M76.8 32.2h121v77h-121z"/></defs><clipPath id="cn"><use xlink:href="#cm" overflow="visible"/></clipPath><g clip-path="url(#cn)"><defs><path id="co" d="M-537.2-276.8h1121v1030h-1121z"/></defs><clipPath id="cp"><use xlink:href="#co" overflow="visible"/></clipPath><path clip-path="url(#cp)" fill="none" stroke="#0C1F2E" stroke-width="6" stroke-linecap="round" stroke-miterlimit="10" d="M76.8 32.2h121v77h-121z"/></g><path d="M97.5 52.2c0 1.1-.8 2.2-1.9 3.5l-2.7 2.9H98v1.6h-7.5v-1.3l3.9-4.2c.8-.8 1.3-1.6 1.3-2.2 0-.8-.7-1.3-1.8-1.3-.9 0-2 .5-2.9 1.3l-.7-1.4c1.1-.9 2.5-1.5 3.8-1.5 2 0 3.4 1 3.4 2.6zm10.8 2.7c0 3.4-1.6 5.3-4.5 5.3s-4.5-1.9-4.5-5.3 1.6-5.3 4.5-5.3 4.5 1.9 4.5 5.3zm-7.1 0c0 2.7.9 3.9 2.7 3.9 1.8 0 2.6-1.2 2.6-3.9s-.9-3.9-2.6-3.9c-1.9 0-2.7 1.2-2.7 3.9zm10 5.3v-8.9h-2.1v-1.6h3.8v10.5h-1.7zm12-9.8l-.7 1.3c-.6-.4-1.5-.7-2.3-.7-2 0-3 1.5-2.9 3.8.6-1 1.5-1.5 2.9-1.5 2.1 0 3.4 1.3 3.4 3.3 0 2.2-1.5 3.5-3.7 3.5-2.7 0-4.3-1.9-4.3-5.1 0-3.3 1.8-5.5 4.5-5.5 1 .1 2.2.4 3.1.9zm-5.7 6.4c0 .9.7 2 2.2 2 1.3 0 2.1-.7 2.1-2 0-1.2-.8-1.9-2.1-1.9-1.3-.1-2.2.8-2.2 1.9zM94.2 92.7V74.8H90v-4.6h9.8v22.4h-5.6zm29.9-11.3c0 7.3-3.6 11.4-9.9 11.4-6.4 0-10-4.1-10-11.4 0-7.3 3.6-11.4 10-11.4 6.4.1 9.9 4.1 9.9 11.4zm-13.9 0c0 5.1 1.2 7.2 4.1 7.2 2.8 0 4.1-2.1 4.1-7.2s-1.2-7.2-4.1-7.2c-2.9 0-4.1 2.1-4.1 7.2z" fill="#042A3E"/><defs><path id="cq" d="M141.8 45.7h-1.5v6h47v-6h-45.5zm0 3h44l-1.5-1.5v3l1.5-1.5h-44l1.5 1.5v-3l-1.5 1.5zm-21.5-23h87v46h-87v-46z"/></defs><clipPath id="cr"><use xlink:href="#cq" overflow="visible"/></clipPath><g clip-path="url(#cr)"><defs><path id="cs" d="M141.8 47.2h44v3h-44z"/></defs><clipPath id="ct"><use xlink:href="#cs" overflow="visible"/></clipPath><g clip-path="url(#ct)"><defs><path id="cu" d="M-537.2-276.8h1121v1030h-1121z"/></defs><clipPath id="cv"><use xlink:href="#cu" overflow="visible"/></clipPath><path clip-path="url(#cv)" fill-rule="evenodd" clip-rule="evenodd" fill="#FFF" d="M141.8 47.2h44v3h-44z"/></g></g><defs><path id="cw" d="M141.8 47.2h44v3h-44z"/></defs><clipPath id="cx"><use xlink:href="#cw" overflow="visible"/></clipPath><g clip-path="url(#cx)"><defs><path id="cy" d="M-537.2-276.8h1121v1030h-1121z"/></defs><clipPath id="cz"><use xlink:href="#cy" overflow="visible"/></clipPath><path clip-path="url(#cz)" fill="none" stroke="#0C1F2E" stroke-width="6" stroke-linecap="round" stroke-miterlimit="10" d="M141.8 47.2h44v3h-44z"/></g><defs><path id="cA" d="M141.8 51.7h-1.5v6h47v-6h-45.5zm0 3h44l-1.5-1.5v3l1.5-1.5h-44l1.5 1.5v-3l-1.5 1.5zm-21.5-23h87v46h-87v-46z"/></defs><clipPath id="cB"><use xlink:href="#cA" overflow="visible"/></clipPath><g clip-path="url(#cB)"><defs><path id="cC" d="M141.8 53.2h44v3h-44z"/></defs><clipPath id="cD"><use xlink:href="#cC" overflow="visible"/></clipPath><g clip-path="url(#cD)"><defs><path id="cE" d="M-537.2-276.8h1121v1030h-1121z"/></defs><clipPath id="cF"><use xlink:href="#cE" overflow="visible"/></clipPath><path clip-path="url(#cF)" fill-rule="evenodd" clip-rule="evenodd" fill="#FFF" d="M141.8 53.2h44v3h-44z"/></g></g><defs><path id="cG" d="M141.8 53.2h44v3h-44z"/></defs><clipPath id="cH"><use xlink:href="#cG" overflow="visible"/></clipPath><g clip-path="url(#cH)"><defs><path id="cI" d="M-537.2-276.8h1121v1030h-1121z"/></defs><clipPath id="cJ"><use xlink:href="#cI" overflow="visible"/></clipPath><path clip-path="url(#cJ)" fill="none" stroke="#0C1F2E" stroke-width="6" stroke-linecap="round" stroke-miterlimit="10" d="M141.8 53.2h44v3h-44z"/></g><defs><path id="cK" d="M141.8 57.7h-1.5v6h47v-6h-45.5zm0 3h44l-1.5-1.5v3l1.5-1.5h-44l1.5 1.5v-3l-1.5 1.5zm-21.5-23h87v46h-87v-46z"/></defs><clipPath id="cL"><use xlink:href="#cK" overflow="visible"/></clipPath><g clip-path="url(#cL)"><defs><path id="cM" d="M141.8 59.2h44v3h-44z"/></defs><clipPath id="cN"><use xlink:href="#cM" overflow="visible"/></clipPath><g clip-path="url(#cN)"><defs><path id="cO" d="M-537.2-276.8h1121v1030h-1121z"/></defs><clipPath id="cP"><use xlink:href="#cO" overflow="visible"/></clipPath><path clip-path="url(#cP)" fill-rule="evenodd" clip-rule="evenodd" fill="#FFF" d="M141.8 59.2h44v3h-44z"/></g></g><defs><path id="cQ" d="M141.8 59.2h44v3h-44z"/></defs><clipPath id="cR"><use xlink:href="#cQ" overflow="visible"/></clipPath><g clip-path="url(#cR)"><defs><path id="cS" d="M-537.2-276.8h1121v1030h-1121z"/></defs><clipPath id="cT"><use xlink:href="#cS" overflow="visible"/></clipPath><path clip-path="url(#cT)" fill="none" stroke="#0C1F2E" stroke-width="6" stroke-linecap="round" stroke-miterlimit="10" d="M141.8 59.2h44v3h-44z"/></g><defs><path id="cU" d="M141.8 63.7h-1.5v6h47v-6h-45.5zm0 3h44l-1.5-1.5v3l1.5-1.5h-44l1.5 1.5v-3l-1.5 1.5zm-21.5-23h87v46h-87v-46z"/></defs><clipPath id="cV"><use xlink:href="#cU" overflow="visible"/></clipPath><g clip-path="url(#cV)"><defs><path id="cW" d="M141.8 65.2h44v3h-44z"/></defs><clipPath id="cX"><use xlink:href="#cW" overflow="visible"/></clipPath><g clip-path="url(#cX)"><defs><path id="cY" d="M-537.2-276.8h1121v1030h-1121z"/></defs><clipPath id="cZ"><use xlink:href="#cY" overflow="visible"/></clipPath><path clip-path="url(#cZ)" fill-rule="evenodd" clip-rule="evenodd" fill="#FFF" d="M141.8 65.2h44v3h-44z"/></g></g><defs><path id="da" d="M141.8 65.2h44v3h-44z"/></defs><clipPath id="db"><use xlink:href="#da" overflow="visible"/></clipPath><g clip-path="url(#db)"><defs><path id="dc" d="M-537.2-276.8h1121v1030h-1121z"/></defs><clipPath id="dd"><use xlink:href="#dc" overflow="visible"/></clipPath><path clip-path="url(#dd)" fill="none" stroke="#0C1F2E" stroke-width="6" stroke-linecap="round" stroke-miterlimit="10" d="M141.8 65.2h44v3h-44z"/></g><path d="M144.7 88.8v.5c0 .2 0 .3-.1.4l1.1-.1v.6h-3.2v-.4c.2 0 .4 0 .6-.1s.3-.2.4-.3.2-.3.2-.5.1-.4.1-.6l.3-6.1-1.6 1-.2-.4 2.5-1.9h.4l-.5 7.9zm2.4-5.9c0-.2.1-.4.2-.7.1-.2.3-.4.5-.6s.5-.4.9-.5c.3-.1.8-.2 1.2-.2.3 0 .6 0 1 .1.3.1.6.2.8.4.2.2.4.4.6.7.1.3.2.6.2 1 0 .2 0 .5-.1.7-.1.3-.2.5-.4.8s-.5.6-.8 1c-.3.3-.8.7-1.3 1.1-.6.5-1.1.9-1.5 1.3-.4.4-.6.8-.7 1.2l3 .1h.6c.2 0 .3-.1.5-.1s.2-.2.3-.3c.1-.1.1-.3.1-.5h.4l-.2 1.8h-5.6c0-.5.1-.9.3-1.2.2-.4.4-.7.6-1s.5-.6.9-.9c.3-.3.7-.6 1-.9.3-.2.5-.5.8-.8.2-.3.4-.5.6-.8s.3-.5.4-.8c.1-.2.1-.5.1-.7 0-.2 0-.5-.1-.7-.1-.2-.1-.4-.3-.6-.1-.2-.3-.3-.5-.4-.2-.1-.4-.1-.7-.1-.2 0-.3 0-.5.1-.2 0-.3.1-.5.2-.1.1-.3.2-.4.3-.1.1-.2.2-.2.4.1.1.1.2.2.3v.5c0 .1-.1.1-.1.2-.1.1-.1.1-.2.1s-.2.1-.2.1c-.2 0-.3-.1-.4-.2-.4-.1-.5-.2-.5-.4zm7.5 6.1c0 .1.1.3.2.4s.2.2.4.3c.1.1.3.1.5.2.2 0 .3.1.5.1.3 0 .6-.1.9-.2s.5-.3.7-.4c.2-.2.3-.4.4-.7.1-.3.1-.6.1-.9v-.4c0-.1 0-.3-.1-.4 0-.1-.1-.3-.2-.4-.1-.1-.2-.3-.3-.4-.1-.1-.3-.2-.5-.2-.2-.1-.4-.1-.7-.1h-.9v-.6h.5c.3 0 .5 0 .7-.1.2-.1.4-.2.5-.3.1-.1.3-.2.4-.4.1-.1.2-.3.2-.4.1-.2.1-.3.1-.4v-.4c0-.2 0-.5-.1-.7 0-.2-.1-.4-.2-.5-.1-.2-.3-.3-.5-.4-.2-.1-.4-.1-.7-.1-.2 0-.4 0-.6.1-.2.1-.3.1-.5.2-.1.1-.3.2-.4.3-.1.1-.2.2-.2.3.1.1.1.2.1.3v.4c0 .1-.1.1-.1.2s-.1.1-.2.1h-.2c-.2 0-.3-.1-.4-.2-.1-.1-.2-.3-.2-.4 0-.2.1-.4.2-.6.1-.2.3-.4.5-.6.2-.2.5-.4.9-.5s.7-.2 1.2-.2c.3 0 .7 0 1 .1s.6.2.8.4c.2.2.4.4.6.7.1.3.2.6.2 1 0 .2 0 .4-.1.7-.1.2-.2.5-.4.7-.2.2-.4.4-.7.6-.3.2-.6.3-1 .4.4 0 .7.1 1.1.2s.6.3.8.5c.2.2.4.4.5.7.1.3.2.5.2.8 0 .3 0 .6-.1.9-.1.3-.2.5-.4.7-.2.2-.3.4-.6.6-.2.2-.4.3-.7.4-.2.1-.5.2-.8.3-.3.1-.5.1-.8.1-.4 0-.8-.1-1.2-.2-.3-.1-.6-.3-.8-.4-.2-.2-.4-.4-.5-.6-.1-.2-.2-.4-.2-.6 0-.2.1-.4.2-.5.1-.1.3-.2.5-.2.1 0 .2 0 .2.1.1 0 .1.1.2.1s.1.1.1.2v.5c0 .1 0-.3-.1-.2zm7.3-.2c0 .1-.1.2-.1.3 0 .1-.1.2-.1.2 0 .1-.1.1-.1.2s-.1.1-.1.2l1-.1v.6h-2.4v-.4c.2 0 .3 0 .4-.1.1-.1.2-.2.4-.3.1-.1.2-.3.3-.5.1-.2.2-.4.3-.7l2.9-7.3h.3l2.5 7.4c0 .1.1.2.1.3 0 .1.1.2.1.3 0 .1.1.2.1.4v.4l.8-.1v.6h-2.9v-.4c.2 0 .3 0 .4-.1s.2-.1.2-.1c.1-.1.1-.1.1-.2v-.5c0-.1 0-.2-.1-.3l-.4-1.2-3.3.1-.4 1.3zm1.8-4.7c-.2.6-.4 1.1-.6 1.5s-.3.8-.5 1.2h3l-1.4-4.2-.5 1.5zm6.6-1.4v-.6c0-.2 0-.3.1-.4l-1 .1v-.6h2.9c.5 0 .9 0 1.3.1s.7.2 1 .4c.3.2.5.4.6.6.1.3.2.6.2.9 0 .2 0 .5-.1.7-.1.2-.2.4-.4.7s-.4.4-.7.5-.6.3-1 .3c.5 0 .9.1 1.2.2.3.1.6.3.8.5.2.2.4.4.5.7.1.3.2.6.2.9 0 .4-.1.8-.2 1.1-.2.3-.4.6-.7.8-.3.2-.6.4-1 .5-.4.1-.8.2-1.3.2H169v-.4c.2 0 .4 0 .6-.1l.3-.3c.1-.1.1-.3.1-.5v-.7l.3-5.6zm.7 7h1.4c.4 0 .7 0 1-.1.3-.1.5-.2.7-.4.2-.2.4-.4.5-.7s.2-.6.2-.9c0-.4-.1-.6-.2-.9-.1-.2-.3-.4-.5-.6-.2-.1-.4-.2-.7-.3-.3-.1-.5-.1-.8-.1h-1.3l-.2 2.9v.6c0 .2-.1.4-.1.5zm1.4-8.1c-.2 0-.4 0-.5.1-.1 0-.2.1-.3.2-.1.1-.1.2-.2.4 0 .2-.1.4-.1.6l-.1 2.4h1c.4 0 .7-.1 1-.2.3-.1.5-.3.6-.5s.3-.4.4-.6c.1-.2.1-.5.1-.7 0-.3-.1-.6-.2-.8s-.3-.4-.4-.5-.4-.2-.6-.2c-.2-.2-.5-.2-.7-.2zm12.7 7c-.3.4-.6.7-.9.9s-.7.4-1 .6-.7.2-1 .3c-.3.1-.6.1-.9.1-.6 0-1.2-.1-1.7-.3-.5-.2-.9-.5-1.3-.9s-.6-.8-.8-1.4c-.2-.5-.3-1.1-.3-1.7 0-.4 0-.8.1-1.3s.2-.8.4-1.2.4-.7.7-1.1l.9-.9c.3-.2.7-.4 1.2-.6.4-.1.9-.2 1.4-.2.5 0 1 .1 1.4.2.4.1.8.3 1.2.6V81h.7l-.2 3h-.5c0-.4-.1-.8-.2-1.1-.1-.3-.3-.6-.5-.8-.2-.2-.5-.4-.8-.5s-.6-.2-1-.2c-.5 0-.9.1-1.4.3-.4.2-.8.5-1.1.9-.3.4-.6.9-.8 1.4-.2.6-.3 1.2-.3 1.8 0 .6.1 1.1.3 1.6s.4.9.7 1.2c.3.3.6.6 1 .8.4.2.8.3 1.3.3.3 0 .6 0 .8-.1.3-.1.6-.2.8-.3s.5-.3.8-.5c.2-.2.5-.4.6-.6l.4.4z" fill="#042A3E"/><defs><path id="de" d="M-216 188.2h-1.2v71.5h131.7v-71.5H-216zm0 2.4h129.3l-1.2-1.2v69.1l1.2-1.2H-216l1.2 1.2v-69.1l-1.2 1.2zm-17.3-18.5h163.9v103.6h-163.9V172.1z"/></defs><clipPath id="df"><use xlink:href="#de" overflow="visible"/></clipPath><g clip-path="url(#df)"><defs><path id="dg" d="M-216 189.4h129.3v69.1H-216z"/></defs></g><defs><path id="dh" d="M-216 189.4h129.3v69.1H-216z"/></defs><defs><path id="di" d="M-209.6 194.6h-1.2v57.8h118.9v-57.8h-19.5l-.3.2-6.5 4.8.7-.2h-66.7l.8.3-5.9-4.8-.3-.3h-20zm0 2.4h19.4l-.8-.3 5.9 4.8.3.3h67.5l.3-.2 6.5-4.8-.7.2h17.9l-1.2-1.2v55.4l1.2-1.2h-116.5l1.2 1.2v-55.4l-1 1.2zm-17.3-18.5h151v90h-151v-90z"/></defs><clipPath id="dj"><use xlink:href="#di" overflow="visible"/></clipPath><g clip-path="url(#dj)"><defs><path id="dk" d="M-209.6 195.8h19.5l5.9 4.8h66.7l6.5-4.8h17.9v55.4h-116.5z"/></defs></g><defs><path id="dl" d="M-209.6 195.8h19.5l5.9 4.8h66.7l6.5-4.8h17.9v55.4h-116.5z"/></defs><defs><path id="dm" d="M-181.5 195h5.6v2.4h-5.6z"/></defs><defs><path id="dn" d="M-125.2 195h5.6v2.4h-5.6z"/></defs><defs><path id="do" d="M-525.8 210.2h-1.5v38h142v-25.1l-.4-.4-11.4-12-.4-.5h-128.3zm0 3h127.6l-1.1-.5 11.4 12-.4-1v23l1.5-1.5h-139l1.5 1.5v-35l-1.5 1.5zm-21.5-23h182v78h-182v-78z"/></defs><clipPath id="dp"><use xlink:href="#do" overflow="visible"/></clipPath><g clip-path="url(#dp)"><defs><path id="dq" d="M-525.8 211.7h127.6l11.4 12v23h-139z"/></defs></g><defs><path id="dr" d="M-525.8 211.7h127.6l11.4 12v23h-139z"/></defs><defs><path id="ds" d="M-492.8 261.6c-8 0-14.5-6.5-14.5-14.5s6.5-14.5 14.5-14.5 14.5 6.5 14.5 14.5-6.4 14.5-14.5 14.5zm0 3c9.7 0 17.5-7.8 17.5-17.5s-7.8-17.5-17.5-17.5-17.5 7.8-17.5 17.5 7.9 17.5 17.5 17.5zm-37.5-55h75v75h-75v-75z"/></defs><clipPath id="dt"><use xlink:href="#ds" overflow="visible"/></clipPath><g clip-path="url(#dt)"><defs><circle id="du" cx="-492.8" cy="247.1" r="16"/></defs></g><defs><circle id="dv" cx="-492.8" cy="247.1" r="16"/></defs><defs><path id="dw" d="M-492.8 254.6c-4.1 0-7.5-3.4-7.5-7.5s3.4-7.5 7.5-7.5 7.5 3.4 7.5 7.5c0 4.2-3.3 7.5-7.5 7.5zm0 3c5.8 0 10.5-4.7 10.5-10.5s-4.7-10.5-10.5-10.5-10.5 4.7-10.5 10.5 4.7 10.5 10.5 10.5zm-30.5-41h61v61h-61v-61z"/></defs><clipPath id="dx"><use xlink:href="#dw" overflow="visible"/></clipPath><g clip-path="url(#dx)"><defs><circle id="dy" cx="-492.8" cy="247.1" r="9"/></defs></g><defs><circle id="dz" cx="-492.8" cy="247.1" r="9"/></defs><defs><path id="dA" d="M-426.5 261.6c-8 0-14.5-6.5-14.5-14.5s6.5-14.5 14.5-14.5 14.5 6.5 14.5 14.5-6.5 14.5-14.5 14.5zm0 3c9.7 0 17.5-7.8 17.5-17.5s-7.8-17.5-17.5-17.5-17.5 7.8-17.5 17.5 7.8 17.5 17.5 17.5zm-37.5-55h75v75h-75v-75z"/></defs><clipPath id="dB"><use xlink:href="#dA" overflow="visible"/></clipPath><g clip-path="url(#dB)"><defs><circle id="dC" cx="-426.5" cy="247.1" r="16"/></defs></g><defs><circle id="dD" cx="-426.5" cy="247.1" r="16"/></defs><defs><path id="dE" d="M-426.3 206.8l-7.7-15.6h-27.2v15.6h34.9zm-75.2 0l7.4-15.6h27.2v15.6h-34.6zm-10.3 5.3l14.1-26.9h66.8l15.3 27.9-96.2-1z"/></defs><defs><path id="dF" d="M-426.5 254.6c-4.1 0-7.5-3.4-7.5-7.5s3.4-7.5 7.5-7.5 7.5 3.4 7.5 7.5c0 4.2-3.4 7.5-7.5 7.5zm0 3c5.8 0 10.5-4.7 10.5-10.5s-4.7-10.5-10.5-10.5-10.5 4.7-10.5 10.5 4.7 10.5 10.5 10.5zm-30.5-41h61v61h-61v-61z"/></defs><clipPath id="dG"><use xlink:href="#dF" overflow="visible"/></clipPath><g clip-path="url(#dG)"><defs><circle id="dH" cx="-426.5" cy="247.1" r="9"/></defs></g><defs><circle id="dI" cx="-426.5" cy="247.1" r="9"/></defs><defs><path id="dJ" d="M-211.8 32.5h-1.5v84h108v-84h-106.5zm0 3h105l-1.5-1.5v81l1.5-1.5h-105l1.5 1.5V34l-1.5 1.5zm-21.5-23h148v124h-148v-124z"/></defs><clipPath id="dK"><use xlink:href="#dJ" overflow="visible"/></clipPath><g clip-path="url(#dK)"><defs><path id="dL" d="M-211.8 34h105v81h-105z"/></defs></g><defs><path id="dM" d="M-211.8 34h105v81h-105z"/></defs><defs><path id="dN" d="M-217.8 49.5h-2.2l.9-2.1 9.1-22 .4-.9h100.9l.4.9 9.1 22 .9 2.1h-119.5zm0-3h117l-1.4 2.1-9.1-22 1.4.9h-98.9l1.4-.9-9.1 22-1.3-2.1zm-22.2 23h161.5v-65H-240v65z"/></defs><clipPath id="dO"><use xlink:href="#dN" overflow="visible"/></clipPath><g clip-path="url(#dO)"><defs><path id="dP" d="M-217.8 48h117l-9.1-22h-98.8z"/></defs></g><defs><path id="dQ" d="M-217.8 48h117l-9.1-22h-98.8z"/></defs><defs><path id="dR" d="M-132.8 16.5h-1.5v19h15v-19h-13.5zm0 3h12l-1.5-1.5v16l1.5-1.5h-12l1.5 1.5V18l-1.5 1.5zm-21.5-23h55v59h-55v-59z"/></defs><clipPath id="dS"><use xlink:href="#dR" overflow="visible"/></clipPath><g clip-path="url(#dS)"><defs><path id="dT" d="M-132.8 18h12v16h-12z"/></defs></g><defs><path id="dU" d="M-132.8 18h12v16h-12z"/></defs><defs><path id="dV" d="M-198.8 82.5h-1.5v34h24v-34h-22.5zm0 3h21l-1.5-1.5v31l1.5-1.5h-21l1.5 1.5V84l-1.5 1.5zm-21.5-23h64v74h-64v-74z"/></defs><clipPath id="dW"><use xlink:href="#dV" overflow="visible"/></clipPath><g clip-path="url(#dW)"><defs><path id="dX" d="M-198.8 84h21v31h-21z"/></defs></g><defs><path id="dY" d="M-198.8 84h21v31h-21z"/></defs><defs><path id="dZ" d="M-197.8 54.5h-1.5v22h22v-22h-20.5zm0 3h19l-1.5-1.5v19l1.5-1.5h-19l1.5 1.5V56l-1.5 1.5zm-21.5-23h62v62h-62v-62z"/></defs><clipPath id="ea"><use xlink:href="#dZ" overflow="visible"/></clipPath><g clip-path="url(#ea)"><defs><path id="eb" d="M-197.8 56h19v19h-19z"/></defs></g><defs><path id="ec" d="M-197.8 56h19v19h-19z"/></defs><defs><path id="ed" d="M-192.8 59.5h-1.5v12h12v-12h-10.5zm0 3h9l-1.5-1.5v9l1.5-1.5h-9l1.5 1.5v-9l-1.5 1.5zm-21.5-23h52v52h-52v-52z"/></defs><clipPath id="ee"><use xlink:href="#ed" overflow="visible"/></clipPath><g clip-path="url(#ee)"><defs><path id="ef" d="M-192.8 61h9v9h-9z"/></defs></g><defs><path id="eg" d="M-192.8 61h9v9h-9z"/></defs><defs><path id="eh" d="M-167.8 54.5h-1.5v22h22v-22h-20.5zm0 3h19l-1.5-1.5v19l1.5-1.5h-19l1.5 1.5V56l-1.5 1.5zm-21.5-23h62v62h-62v-62z"/></defs><clipPath id="ei"><use xlink:href="#eh" overflow="visible"/></clipPath><g clip-path="url(#ei)"><defs><path id="ej" d="M-167.8 56h19v19h-19z"/></defs></g><defs><path id="ek" d="M-167.8 56h19v19h-19z"/></defs><defs><path id="el" d="M-138.8 54.5h-1.5v22h22v-22h-20.5zm0 3h19l-1.5-1.5v19l1.5-1.5h-19l1.5 1.5V56l-1.5 1.5zm-21.5-23h62v62h-62v-62z"/></defs><clipPath id="em"><use xlink:href="#el" overflow="visible"/></clipPath><g clip-path="url(#em)"><defs><path id="en" d="M-138.8 56h19v19h-19z"/></defs></g><defs><path id="eo" d="M-138.8 56h19v19h-19z"/></defs><defs><path id="ep" d="M-167.8 82.5h-1.5v22h22v-22h-20.5zm0 3h19l-1.5-1.5v19l1.5-1.5h-19l1.5 1.5V84l-1.5 1.5zm-21.5-23h62v62h-62v-62z"/></defs><clipPath id="eq"><use xlink:href="#ep" overflow="visible"/></clipPath><g clip-path="url(#eq)"><defs><path id="er" d="M-167.8 84h19v19h-19z"/></defs></g><defs><path id="es" d="M-167.8 84h19v19h-19z"/></defs><defs><path id="et" d="M-138.8 82.5h-1.5v22h22v-22h-20.5zm0 3h19l-1.5-1.5v19l1.5-1.5h-19l1.5 1.5V84l-1.5 1.5zm-21.5-23h62v62h-62v-62z"/></defs><clipPath id="eu"><use xlink:href="#et" overflow="visible"/></clipPath><g clip-path="url(#eu)"><defs><path id="ev" d="M-138.8 84h19v19h-19z"/></defs></g><defs><path id="ew" d="M-138.8 84h19v19h-19z"/></defs><defs><path id="ex" d="M-162.8 59.5h-1.5v12h12v-12h-10.5zm0 3h9l-1.5-1.5v9l1.5-1.5h-9l1.5 1.5v-9l-1.5 1.5zm-21.5-23h52v52h-52v-52z"/></defs><clipPath id="ey"><use xlink:href="#ex" overflow="visible"/></clipPath><g clip-path="url(#ey)"><defs><path id="ez" d="M-162.8 61h9v9h-9z"/></defs></g><defs><path id="eA" d="M-162.8 61h9v9h-9z"/></defs><defs><path id="eB" d="M-133.8 59.5h-1.5v12h12v-12h-10.5zm0 3h9l-1.5-1.5v9l1.5-1.5h-9l1.5 1.5v-9l-1.5 1.5zm-21.5-23h52v52h-52v-52z"/></defs><clipPath id="eC"><use xlink:href="#eB" overflow="visible"/></clipPath><g clip-path="url(#eC)"><defs><path id="eD" d="M-133.8 61h9v9h-9z"/></defs></g><defs><path id="eE" d="M-133.8 61h9v9h-9z"/></defs><defs><path id="eF" d="M-162.8 87.5h-1.5v12h12v-12h-10.5zm0 3h9l-1.5-1.5v9l1.5-1.5h-9l1.5 1.5v-9l-1.5 1.5zm-21.5-23h52v52h-52v-52z"/></defs><clipPath id="eG"><use xlink:href="#eF" overflow="visible"/></clipPath><g clip-path="url(#eG)"><defs><path id="eH" d="M-162.8 89h9v9h-9z"/></defs></g><defs><path id="eI" d="M-162.8 89h9v9h-9z"/></defs><defs><path id="eJ" d="M-133.8 87.5h-1.5v12h12v-12h-10.5zm0 3h9l-1.5-1.5v9l1.5-1.5h-9l1.5 1.5v-9l-1.5 1.5zm-21.5-23h52v52h-52v-52z"/></defs><clipPath id="eK"><use xlink:href="#eJ" overflow="visible"/></clipPath><g clip-path="url(#eK)"><defs><path id="eL" d="M-133.8 89h9v9h-9z"/></defs></g><defs><path id="eM" d="M-133.8 89h9v9h-9z"/></defs><defs><path id="eN" d="M-454.6-39.5c-27.1 0-49-21.9-49-49s21.9-49 49-49 49 21.9 49 49-21.9 49-49 49zm0 3c28.7 0 52-23.3 52-52s-23.3-52-52-52-52 23.3-52 52 23.3 52 52 52zm-72-124h144v144h-144v-144z"/></defs><clipPath id="eO"><use xlink:href="#eN" overflow="visible"/></clipPath><g clip-path="url(#eO)"><defs><circle id="eP" cx="-454.6" cy="-88.5" r="50.5"/></defs></g><defs><circle id="eQ" cx="-454.6" cy="-88.5" r="50.5"/></defs><defs><circle id="eR" cx="-454.6" cy="-88.5" r="43.5"/></defs><defs><path id="eS" d="M-461.1-112.5h-1.7l.2 1.6 3.1 32 .1 1.4h11.4l.1-1.4 2.3-32 .1-1.6h-15.6zm0 3h14l-1.5-1.6-2.3 32 1.5-1.4h-8.6l1.5 1.4-3.1-32-1.5 1.6zm-21.6-23h57.3v75h-57.3v-75z"/></defs><clipPath id="eT"><use xlink:href="#eS" overflow="visible"/></clipPath><g clip-path="url(#eT)"><defs><path id="eU" d="M-461.1-111h14l-2.3 32h-8.5z"/></defs></g><defs><path id="eV" d="M-461.1-110.7h14l-2.3 32h-8.5z"/></defs><defs><path id="eW" d="M-453.6-65.5c-2.2 0-4-1.8-4-4s1.8-4 4-4 4 1.8 4 4-1.8 4-4 4zm0 3c3.9 0 7-3.1 7-7s-3.1-7-7-7-7 3.1-7 7 3.2 7 7 7zm-27-34h54v54h-54v-54z"/></defs><clipPath id="eX"><use xlink:href="#eW" overflow="visible"/></clipPath><g clip-path="url(#eX)"><defs><circle id="eY" cx="-453.6" cy="-69.5" r="5.5"/></defs></g><defs><circle id="eZ" cx="-453.6" cy="-69.2" r="5.5"/></defs><defs><path id="fa" d="M365.1-132h-1.5v90h134v-90H365.1zm0 3h131l-1.5-1.5v87l1.5-1.5h-131l1.5 1.5v-87l-1.5 1.5zm-21.5-23h174v130h-174v-130z"/></defs><clipPath id="fb"><use xlink:href="#fa" overflow="visible"/></clipPath><g clip-path="url(#fb)"><defs><path id="fc" d="M365.1-130.5h131v87h-131z"/></defs></g><defs><path id="fd" d="M365.1-130.5h131v87h-131z"/></defs><defs><path id="fe" d="M469.1-123h-1.5v23h21v-23h-19.5zm0 3h18l-1.5-1.5v20l1.5-1.5h-18l1.5 1.5v-20l-1.5 1.5zm-21.5-23h61v63h-61v-63z"/></defs><clipPath id="ff"><use xlink:href="#fe" overflow="visible"/></clipPath><g clip-path="url(#ff)"><defs><path id="fg" d="M469.1-121.5h18v20h-18z"/></defs></g><defs><path id="fh" d="M469.1-121.5h18v20h-18z"/></defs><defs><path id="fi" d="M474.1-118h-1.5v13h11v-13h-9.5zm0 3h8l-1.5-1.5v10l1.5-1.5h-8l1.5 1.5v-10l-1.5 1.5zm-21.5-23h51v53h-51v-53z"/></defs><clipPath id="fj"><use xlink:href="#fi" overflow="visible"/></clipPath><g clip-path="url(#fj)"><defs><path id="fk" d="M474.1-116.5h8v10h-8z"/></defs></g><defs><path id="fl" d="M474.1-116.5h8v10h-8z"/></defs><defs><path id="fm" d="M-433.9 54.2l.2 3c8.3-.7 15.9-2.1 21.4-3.8 2.5-.7 4.4-1.5 5.5-2.2 1.8-1.1 2.5-3 .4-4.1-8.1-4.3-23.9-7.1-41.3-7.1-17.2 0-32.8 2.7-41 6.9-1.8.9-1.5 2.7 0 3.9.9.7 2.4 1.4 4.4 2.1 4.3 1.5 10.5 2.8 17.5 3.7l.3-3c-21.2-2.3-35.5-8.1-35.5-13.8 0-7.7 24.7-14.8 55-14.8s55 7.1 55 14.8c-.1 6.4-17.6 12.7-41.9 14.4zm.2 3c26-1.8 44.7-8.5 44.7-17.4 0-10.3-25.9-17.8-58-17.8s-58 7.5-58 17.8c0 8.1 15.4 14.4 38.2 16.8l.3-3c-6.9-.9-12.9-2.2-16.9-3.6-1.7-.6-3-1.2-3.6-1.6-.1-.1-.1-.1-.2-.1 0 .1.1.2.1.3.1.5-.2.8-.4.9 7.7-4 22.9-6.6 39.7-6.6 17 0 32.3 2.6 39.9 6.7-.1 0-.2-.1-.3-.3-.1-.3-.2-.6-.1-.9 0-.1.1-.2.1-.2-.1.1-.2.2-.4.3-.9.5-2.5 1.2-4.8 1.9-5.2 1.6-12.6 2.9-20.8 3.6l.5 3.2zM-525.1 2h156v75.2h-156V2z"/></defs><clipPath id="fn"><use xlink:href="#fm" overflow="visible"/></clipPath><g clip-path="url(#fn)"><defs><path id="fo" d="M-433.8 55.7c24.8-1.7 43.3-8.2 43.3-15.9 0-9-25.3-16.3-56.5-16.3s-56.5 7.3-56.5 16.3c0 7 15.3 13 36.9 15.3-14.9-1.9-24-5.5-21.4-6.9 7.8-4 22.9-6.8 40.4-6.8 17.6 0 32.9 2.8 40.6 6.9 2.6 1.5-9 5.8-26.8 7.4z"/></defs></g><defs><path id="fp" d="M-433.8 55.7c24.8-1.7 43.3-8.2 43.3-15.9 0-9-25.3-16.3-56.5-16.3s-56.5 7.3-56.5 16.3c0 7 15.3 13 36.9 15.3-14.9-1.9-24-5.5-21.4-6.9 7.8-4 22.9-6.8 40.4-6.8 17.6 0 32.9 2.8 40.6 6.9 2.6 1.5-9 5.8-26.8 7.4z"/></defs><defs><path id="fq" d="M-447.1 76c-30.3 0-55-7.1-55-14.8v-22l-2.8.8c.3.6 1.1 1.4 2.4 2.4 2 1.6 4.9 3.2 8.6 4.7 10.5 4.1 26.3 6.6 48.5 6.6 19.8 0 34.5-2.6 44.8-7.1 3.7-1.6 6.5-3.3 8.6-5 1.3-1.1 2.1-1.9 2.5-2.5l-2.7-.9v23c.1 7.7-24.6 14.8-54.9 14.8zm0 3c32.1 0 58-7.5 58-17.8V33.5l-2.7 3.8c0 .1-.2.2-.4.4-.4.4-.9.9-1.6 1.4-1.9 1.5-4.5 3.1-8 4.6-9.9 4.3-24.2 6.8-43.6 6.8-21.8 0-37.3-2.4-47.4-6.4-3.5-1.4-6.1-2.8-7.9-4.2-1-.8-1.5-1.4-1.7-1.6l-2.8-4.5v27.3c.1 10.4 26 17.9 58.1 17.9zm-78-65.5h156V99h-156V13.5z"/></defs><clipPath id="fr"><use xlink:href="#fq" overflow="visible"/></clipPath><g clip-path="url(#fr)"><defs><path id="fs" d="M-447.1 77.5c31.2 0 56.5-7.3 56.5-16.3v-23s-9.9 13.9-54.8 13.9c-50.2 0-58.2-13-58.2-13v22c0 9.1 25.3 16.4 56.5 16.4z"/></defs></g><g><defs><path id="ft" d="M-447.1 77.5c31.2 0 56.5-7.3 56.5-16.3v-23s-9.9 13.9-54.8 13.9c-50.2 0-58.2-13-58.2-13v22c0 9.1 25.3 16.4 56.5 16.4z"/></defs></g><g><defs><path id="fu" d="M-442.5 112c-8.5 0-15.4-6.9-15.4-15.4s6.9-15.4 15.4-15.4 15.5 6.9 15.5 15.4-7 15.4-15.5 15.4zm0 3c10.2 0 18.5-8.2 18.5-18.4s-8.3-18.4-18.5-18.4-18.4 8.2-18.4 18.4 8.2 18.4 18.4 18.4zM-481 58.2h76.9V135H-481V58.2z"/></defs><clipPath id="fv"><use xlink:href="#fu" overflow="visible"/></clipPath><g clip-path="url(#fv)"><defs><ellipse id="fw" cx="-442.5" cy="96.6" rx="17" ry="16.9"/></defs></g></g><g><defs><ellipse id="fx" cx="-442.5" cy="96.6" rx="17" ry="16.9"/></defs></g><g><defs><path id="fy" d="M687.5-148H686v120h96v-120h-94.5zm0 3h93l-1.5-1.5v117l1.5-1.5h-93l1.5 1.5v-117l-1.5 1.5zM666-168h136V-8H666v-160z"/></defs><clipPath id="fz"><use xlink:href="#fy" overflow="visible"/></clipPath><g clip-path="url(#fz)"><defs><path id="fA" d="M687.5-146.5h93v117h-93z"/></defs></g></g><g><defs><path id="fB" d="M687.5-146.5h93v117h-93z"/></defs></g><g><defs><path id="fC" d="M694.5-141H693v23h82v-23h-80.5zm0 3h79l-1.5-1.5v20l1.5-1.5h-79l1.5 1.5v-20l-1.5 1.5zM673-161h122v63H673v-63z"/></defs><clipPath id="fD"><use xlink:href="#fC" overflow="visible"/></clipPath><g clip-path="url(#fD)"><defs><path id="fE" d="M694.5-139.5h79v20h-79z"/></defs></g></g><g><defs><path id="fF" d="M694.5-139.5h79v20h-79z"/></defs></g><g><defs><path id="fG" d="M694.5-117H693v81h82v-81h-80.5zm0 3h79l-1.5-1.5v78l1.5-1.5h-79l1.5 1.5v-78l-1.5 1.5zM673-137h122v121H673v-121z"/></defs><clipPath id="fH"><use xlink:href="#fG" overflow="visible"/></clipPath><g clip-path="url(#fH)"><defs><path id="fI" d="M694.5-115.5h79v78h-79z"/></defs></g></g><g><defs><path id="fJ" d="M694.5-115.5h79v78h-79z"/></defs></g><g><defs><path id="fK" d="M-212.2 346.9h-1.5v84h108v-84h-106.5zm0 3h105l-1.5-1.5v81l1.5-1.5h-105l1.5 1.5v-81l-1.5 1.5zm-21.5-23h148v124h-148v-124z"/></defs><clipPath id="fL"><use xlink:href="#fK" overflow="visible"/></clipPath><g clip-path="url(#fL)"><defs><path id="fM" d="M-212.2 348.4h105v81h-105z"/></defs></g></g><g><defs><path id="fN" d="M-212.2 348.4h105v81h-105z"/></defs></g><g><defs><path id="fO" d="M-218.2 363.9h-2.2l.9-2.1 9.1-22 .4-.9h100.9l.4.9 9.1 22 .9 2.1h-119.5zm0-3h117l-1.4 2.1-9.1-22 1.4.9h-98.9l1.4-.9-9.1 22-1.3-2.1zm-22.2 23H-79v-65h-161.5v65z"/></defs><clipPath id="fP"><use xlink:href="#fO" overflow="visible"/></clipPath><g clip-path="url(#fP)"><defs><path id="fQ" d="M-218.2 362.4h117l-9.1-22h-98.8z"/></defs></g></g><g><defs><path id="fR" d="M-218.2 362.4h117l-9.1-22h-98.8z"/></defs></g><g><defs><path id="fS" d="M-133.2 330.9h-1.5v19h15v-19h-13.5zm0 3h12l-1.5-1.5v16l1.5-1.5h-12l1.5 1.5v-16l-1.5 1.5zm-21.5-23h55v59h-55v-59z"/></defs><clipPath id="fT"><use xlink:href="#fS" overflow="visible"/></clipPath><g clip-path="url(#fT)"><defs><path id="fU" d="M-133.2 332.4h12v16h-12z"/></defs></g></g><g><defs><path id="fV" d="M-133.2 332.4h12v16h-12z"/></defs></g><g><defs><path id="fW" d="M-199.2 396.9h-1.5v34h24v-34h-22.5zm0 3h21l-1.5-1.5v31l1.5-1.5h-21l1.5 1.5v-31l-1.5 1.5zm-21.5-23h64v74h-64v-74z"/></defs><clipPath id="fX"><use xlink:href="#fW" overflow="visible"/></clipPath><g clip-path="url(#fX)"><defs><path id="fY" d="M-199.2 398.4h21v31h-21z"/></defs></g></g><g><defs><path id="fZ" d="M-199.2 398.4h21v31h-21z"/></defs></g><g><defs><path id="ga" d="M-198.2 368.9h-1.5v22h22v-22h-20.5zm0 3h19l-1.5-1.5v19l1.5-1.5h-19l1.5 1.5v-19l-1.5 1.5zm-21.5-23h62v62h-62v-62z"/></defs><clipPath id="gb"><use xlink:href="#ga" overflow="visible"/></clipPath><g clip-path="url(#gb)"><defs><path id="gc" d="M-198.2 370.4h19v19h-19z"/></defs></g></g><g><defs><path id="gd" d="M-198.2 370.4h19v19h-19z"/></defs></g><g><defs><path id="ge" d="M-193.2 373.9h-1.5v12h12v-12h-10.5zm0 3h9l-1.5-1.5v9l1.5-1.5h-9l1.5 1.5v-9l-1.5 1.5zm-21.5-23h52v52h-52v-52z"/></defs><clipPath id="gf"><use xlink:href="#ge" overflow="visible"/></clipPath><g clip-path="url(#gf)"><defs><path id="gg" d="M-193.2 375.4h9v9h-9z"/></defs></g></g><g><defs><path id="gh" d="M-193.2 375.4h9v9h-9z"/></defs></g><g><defs><path id="gi" d="M-168.2 368.9h-1.5v22h22v-22h-20.5zm0 3h19l-1.5-1.5v19l1.5-1.5h-19l1.5 1.5v-19l-1.5 1.5zm-21.5-23h62v62h-62v-62z"/></defs><clipPath id="gj"><use xlink:href="#gi" overflow="visible"/></clipPath><g clip-path="url(#gj)"><defs><path id="gk" d="M-168.2 370.4h19v19h-19z"/></defs></g></g><g><defs><path id="gl" d="M-168.2 370.4h19v19h-19z"/></defs></g><g><defs><path id="gm" d="M-139.2 368.9h-1.5v22h22v-22h-20.5zm0 3h19l-1.5-1.5v19l1.5-1.5h-19l1.5 1.5v-19l-1.5 1.5zm-21.5-23h62v62h-62v-62z"/></defs><clipPath id="gn"><use xlink:href="#gm" overflow="visible"/></clipPath><g clip-path="url(#gn)"><defs><path id="go" d="M-139.2 370.4h19v19h-19z"/></defs></g></g><g><defs><path id="gp" d="M-139.2 370.4h19v19h-19z"/></defs></g><g><defs><path id="gq" d="M-168.2 396.9h-1.5v22h22v-22h-20.5zm0 3h19l-1.5-1.5v19l1.5-1.5h-19l1.5 1.5v-19l-1.5 1.5zm-21.5-23h62v62h-62v-62z"/></defs><clipPath id="gr"><use xlink:href="#gq" overflow="visible"/></clipPath><g clip-path="url(#gr)"><defs><path id="gs" d="M-168.2 398.4h19v19h-19z"/></defs></g></g><g><defs><path id="gt" d="M-168.2 398.4h19v19h-19z"/></defs></g><g><defs><path id="gu" d="M-139.2 396.9h-1.5v22h22v-22h-20.5zm0 3h19l-1.5-1.5v19l1.5-1.5h-19l1.5 1.5v-19l-1.5 1.5zm-21.5-23h62v62h-62v-62z"/></defs><clipPath id="gv"><use xlink:href="#gu" overflow="visible"/></clipPath><g clip-path="url(#gv)"><defs><path id="gw" d="M-139.2 398.4h19v19h-19z"/></defs></g></g><g><defs><path id="gx" d="M-139.2 398.4h19v19h-19z"/></defs></g><g><defs><path id="gy" d="M-163.2 373.9h-1.5v12h12v-12h-10.5zm0 3h9l-1.5-1.5v9l1.5-1.5h-9l1.5 1.5v-9l-1.5 1.5zm-21.5-23h52v52h-52v-52z"/></defs><clipPath id="gz"><use xlink:href="#gy" overflow="visible"/></clipPath><g clip-path="url(#gz)"><defs><path id="gA" d="M-163.2 375.4h9v9h-9z"/></defs></g></g><g><defs><path id="gB" d="M-163.2 375.4h9v9h-9z"/></defs></g><g><defs><path id="gC" d="M-134.2 373.9h-1.5v12h12v-12h-10.5zm0 3h9l-1.5-1.5v9l1.5-1.5h-9l1.5 1.5v-9l-1.5 1.5zm-21.5-23h52v52h-52v-52z"/></defs><clipPath id="gD"><use xlink:href="#gC" overflow="visible"/></clipPath><g clip-path="url(#gD)"><defs><path id="gE" d="M-134.2 375.4h9v9h-9z"/></defs></g></g><g><defs><path id="gF" d="M-134.2 375.4h9v9h-9z"/></defs></g><g><defs><path id="gG" d="M-163.2 401.9h-1.5v12h12v-12h-10.5zm0 3h9l-1.5-1.5v9l1.5-1.5h-9l1.5 1.5v-9l-1.5 1.5zm-21.5-23h52v52h-52v-52z"/></defs><clipPath id="gH"><use xlink:href="#gG" overflow="visible"/></clipPath><g clip-path="url(#gH)"><defs><path id="gI" d="M-163.2 403.4h9v9h-9z"/></defs></g></g><g><defs><path id="gJ" d="M-163.2 403.4h9v9h-9z"/></defs></g><g><defs><path id="gK" d="M-134.2 401.9h-1.5v12h12v-12h-10.5zm0 3h9l-1.5-1.5v9l1.5-1.5h-9l1.5 1.5v-9l-1.5 1.5zm-21.5-23h52v52h-52v-52z"/></defs><clipPath id="gL"><use xlink:href="#gK" overflow="visible"/></clipPath><g clip-path="url(#gL)"><defs><path id="gM" d="M-134.2 403.4h9v9h-9z"/></defs></g></g><g><defs><path id="gN" d="M-134.2 403.4h9v9h-9z"/></defs></g><g><defs><path id="gO" d="M439.1 432.9c-27.1 0-49-21.9-49-49s21.9-49 49-49 49 21.9 49 49-21.9 49-49 49zm0 3c28.7 0 52-23.3 52-52s-23.3-52-52-52-52 23.3-52 52 23.3 52 52 52zm-72-124h144v144h-144v-144z"/></defs><clipPath id="gP"><use xlink:href="#gO" overflow="visible"/></clipPath><g clip-path="url(#gP)"><defs><circle id="gQ" cx="439.1" cy="383.9" r="50.5"/></defs></g></g><g><defs><circle id="gR" cx="439.1" cy="383.9" r="50.5"/></defs></g><g><defs><circle id="gS" cx="439.1" cy="383.9" r="43.5"/></defs></g><g><defs><path id="gT" d="M-158 585.3c-27.1 0-49-21.9-49-49s21.9-49 49-49 49 21.9 49 49c0 27-21.9 49-49 49zm0 3c28.7 0 52-23.3 52-52s-23.3-52-52-52-52 23.3-52 52 23.3 52 52 52zm-72-124h144v144h-144v-144z"/></defs><clipPath id="gU"><use xlink:href="#gT" overflow="visible"/></clipPath><g clip-path="url(#gU)"><defs><circle id="gV" cx="-158" cy="536.3" r="50.5"/></defs></g></g><g><defs><circle id="gW" cx="-158" cy="536.3" r="50.5"/></defs></g><g><defs><circle id="gX" cx="-158" cy="536.3" r="43.5"/></defs></g><g><defs><path id="gY" d="M-157.3 752.5c-24.6 0-44.6-20-44.6-44.6s20-44.6 44.6-44.6 44.6 20 44.6 44.6-20 44.6-44.6 44.6zm0 2.7c26.1 0 47.3-21.2 47.3-47.3 0-26.1-21.2-47.3-47.3-47.3s-47.3 21.2-47.3 47.3c0 26.1 21.2 47.3 47.3 47.3zm-65.5-112.8h131v131h-131v-131z"/></defs><clipPath id="gZ"><use xlink:href="#gY" overflow="visible"/></clipPath><g clip-path="url(#gZ)"><defs><circle id="ha" cx="-157.3" cy="707.9" r="45.9"/></defs></g></g><g><defs><circle id="hb" cx="-157.3" cy="707.9" r="45.9"/></defs></g><g><defs><circle id="hc" cx="-157.3" cy="707.9" r="39.6"/></defs></g></svg>