<svg xmlns="http://www.w3.org/2000/svg" xmlns:xlink="http://www.w3.org/1999/xlink" viewBox="0 0 276 137"><defs><path id="a" d="M-454-192.5c-29.3 0-53-23.7-53-53s23.7-53 53-53 53 23.7 53 53-23.7 53-53 53zm0 3c30.9 0 56-25.1 56-56s-25.1-56-56-56-56 25.1-56 56 25.1 56 56 56z"/></defs><clipPath id="b"><use xlink:href="#a" overflow="visible"/></clipPath><g clip-path="url(#b)"><defs><circle id="c" cx="-454" cy="-245.5" r="54.5"/></defs><clipPath id="d"><use xlink:href="#c" overflow="visible"/></clipPath><g clip-path="url(#d)"><defs><path id="e" d="M-632.5-382h1121V648h-1121z"/></defs></g></g><defs><circle id="f" cx="-454" cy="-245.5" r="54.5"/></defs><clipPath id="g"><use xlink:href="#f" overflow="visible"/></clipPath><g clip-path="url(#g)"><defs><path id="h" d="M-632.5-382h1121V648h-1121z"/></defs></g><defs><path id="i" d="M-454-213.5c-17.7 0-32-14.3-32-32s14.3-32 32-32 32 14.3 32 32-14.3 32-32 32zm0 3c19.3 0 35-15.7 35-35s-15.7-35-35-35-35 15.7-35 35 15.7 35 35 35zm-55-90h110v110h-110v-110z"/></defs><clipPath id="j"><use xlink:href="#i" overflow="visible"/></clipPath><g clip-path="url(#j)"><defs><circle id="k" cx="-454" cy="-245.5" r="33.5"/></defs><clipPath id="l"><use xlink:href="#k" overflow="visible"/></clipPath><g clip-path="url(#l)"><defs><path id="m" d="M-632.5-382h1121V648h-1121z"/></defs></g></g><defs><circle id="n" cx="-454" cy="-245.5" r="33.5"/></defs><clipPath id="o"><use xlink:href="#n" overflow="visible"/></clipPath><g clip-path="url(#o)"><defs><path id="p" d="M-632.5-382h1121V648h-1121z"/></defs></g><defs><path id="q" d="M-455.5-299.5h-1.5v13h6v-13h-4.5zm0 3h3l-1.5-1.5v10l1.5-1.5h-3l1.5 1.5v-10l-1.5 1.5z"/></defs><clipPath id="r"><use xlink:href="#q" overflow="visible"/></clipPath><g clip-path="url(#r)"><defs><path id="s" d="M-455.5-298h3v10h-3z"/></defs><clipPath id="t"><use xlink:href="#s" overflow="visible"/></clipPath><g clip-path="url(#t)"><defs><path id="u" d="M-632.5-382h1121V648h-1121z"/></defs></g></g><defs><path id="v" d="M-455.5-298h3v10h-3z"/></defs><clipPath id="w"><use xlink:href="#v" overflow="visible"/></clipPath><g clip-path="url(#w)"><defs><path id="x" d="M-632.5-382h1121V648h-1121z"/></defs></g><defs><path id="y" d="M-509.5-243.5v1.5h13v-6h-13v4.5zm3 0v-3l-1.5 1.5h10l-1.5-1.5v3l1.5-1.5h-10l1.5 1.5z"/></defs><clipPath id="z"><use xlink:href="#y" overflow="visible"/></clipPath><g clip-path="url(#z)"><defs><path id="A" d="M-508-246.5h10v3h-10z"/></defs><clipPath id="B"><use xlink:href="#A" overflow="visible"/></clipPath><g clip-path="url(#B)"><defs><path id="C" d="M-632.5-382h1121V648h-1121z"/></defs></g></g><defs><path id="D" d="M-508-246.5h10v3h-10z"/></defs><clipPath id="E"><use xlink:href="#D" overflow="visible"/></clipPath><g clip-path="url(#E)"><defs><path id="F" d="M-632.5-382h1121V648h-1121z"/></defs></g><defs><path id="G" d="M-412.5-243.5v1.5h13v-6h-13v4.5zm3 0v-3l-1.5 1.5h10l-1.5-1.5v3l1.5-1.5h-10l1.5 1.5z"/></defs><clipPath id="H"><use xlink:href="#G" overflow="visible"/></clipPath><g clip-path="url(#H)"><defs><path id="I" d="M-411-246.5h10v3h-10z"/></defs><clipPath id="J"><use xlink:href="#I" overflow="visible"/></clipPath><g clip-path="url(#J)"><defs><path id="K" d="M-632.5-382h1121V648h-1121z"/></defs></g></g><defs><path id="L" d="M-411-246.5h10v3h-10z"/></defs><clipPath id="M"><use xlink:href="#L" overflow="visible"/></clipPath><g clip-path="url(#M)"><defs><path id="N" d="M-632.5-382h1121V648h-1121z"/></defs></g><defs><path id="O" d="M-423.5-273.3l1.1 1.1 1.1-1.1 7.1-7.1 1.1-1.1-1.1-1.1-2.1-2.1-1.1-1.1-1.1 1.1-7.1 7.1-1.1 1.1 1.1 1.1 2.1 2.1zm2.1-2.2l-2.1-2.1v2.1l7.1-7.1h-2.1l2.1 2.1v-2.1l-7.1 7.1h2.1z"/></defs><clipPath id="P"><use xlink:href="#O" overflow="visible"/></clipPath><g clip-path="url(#P)"><defs><path id="Q" transform="rotate(45.001 -420.005 -278.996)" d="M-421.5-284h3v10h-3z"/></defs><clipPath id="R"><use xlink:href="#Q" overflow="visible"/></clipPath><g clip-path="url(#R)"><defs><path id="S" d="M-632.5-382h1121V648h-1121z"/></defs></g></g><defs><path id="T" transform="rotate(45.001 -420.005 -278.996)" d="M-421.5-284h3v10h-3z"/></defs><clipPath id="U"><use xlink:href="#T" overflow="visible"/></clipPath><g clip-path="url(#U)"><defs><path id="V" d="M-632.5-382h1121V648h-1121z"/></defs></g><defs><path id="W" d="M-483.3-274.5l1.1-1.1-1.1-1.1-7.1-7.1-1.1-1.1-1.1 1.1-2.1 2.1-1.1 1.1 1.1 1.1 7.1 7.1 1.1 1.1 1.1-1.1 2.1-2.1zm-2.2-2.1l-2.1 2.1h2.1l-7.1-7.1v2.1l2.1-2.1h-2.1l7.1 7.1v-2.1z"/></defs><clipPath id="X"><use xlink:href="#W" overflow="visible"/></clipPath><g clip-path="url(#X)"><defs><path id="Y" transform="rotate(-45.001 -489 -278.007)" d="M-490.5-283h3v10h-3z"/></defs><clipPath id="Z"><use xlink:href="#Y" overflow="visible"/></clipPath><g clip-path="url(#Z)"><defs><path id="aa" d="M-632.5-382h1121V648h-1121z"/></defs></g></g><defs><path id="ab" transform="rotate(-45.001 -489 -278.007)" d="M-490.5-283h3v10h-3z"/></defs><clipPath id="ac"><use xlink:href="#ab" overflow="visible"/></clipPath><g clip-path="url(#ac)"><defs><path id="ad" d="M-632.5-382h1121V648h-1121z"/></defs></g><defs><path id="ae" d="M-423.5-217.7l1.1-1.1 1.1 1.1 7.1 7.1 1.1 1.1-1.1 1.1-2.1 2.1-1.1 1.1-1.1-1.1-7.1-7.1-1.1-1.1 1.1-1.1 2.1-2.1zm2.1 2.2l-2.1 2.1v-2.1l7.1 7.1h-2.1l2.1-2.1v2.1l-7.1-7.1h2.1z"/></defs><clipPath id="af"><use xlink:href="#ae" overflow="visible"/></clipPath><g clip-path="url(#af)"><defs><path id="ag" transform="rotate(-45.001 -419.999 -212.006)" d="M-421.5-217h3v10h-3z"/></defs><clipPath id="ah"><use xlink:href="#ag" overflow="visible"/></clipPath><g clip-path="url(#ah)"><defs><path id="ai" d="M-632.5-382h1121V648h-1121z"/></defs></g></g><defs><path id="aj" transform="rotate(-45.001 -419.999 -212.006)" d="M-421.5-217h3v10h-3z"/></defs><clipPath id="ak"><use xlink:href="#aj" overflow="visible"/></clipPath><g clip-path="url(#ak)"><defs><path id="al" d="M-632.5-382h1121V648h-1121z"/></defs></g><defs><path id="am" d="M-483.3-214.5l1.1 1.1-1.1 1.1-7.1 7.1-1.1 1.1-1.1-1.1-2.1-2.1-1.1-1.1 1.1-1.1 7.1-7.1 1.1-1.1 1.1 1.1 2.1 2.1zm-2.2 2.1l-2.1-2.1h2.1l-7.1 7.1v-2.1l2.1 2.1h-2.1l7.1-7.1v2.1z"/></defs><clipPath id="an"><use xlink:href="#am" overflow="visible"/></clipPath><g clip-path="url(#an)"><defs><path id="ao" transform="rotate(45.001 -489.005 -210.995)" d="M-490.5-216h3v10h-3z"/></defs><clipPath id="ap"><use xlink:href="#ao" overflow="visible"/></clipPath><g clip-path="url(#ap)"><defs><path id="aq" d="M-632.5-382h1121V648h-1121z"/></defs></g></g><defs><path id="ar" transform="rotate(45.001 -489.005 -210.995)" d="M-490.5-216h3v10h-3z"/></defs><clipPath id="as"><use xlink:href="#ar" overflow="visible"/></clipPath><g clip-path="url(#as)"><defs><path id="at" d="M-632.5-382h1121V648h-1121z"/></defs></g><defs><path id="au" d="M-444.4-266.1c.7.3 1.5.6 2.2 1 1.3.7 2.5 1.6 3.6 2.4.4.3.7.6 1 .9.2.2.3.3.4.3l1.6 1.6-.3-2.2-2.1-14.7-.2-1.2-1 .6-12.3 8-1.8 1.2 2.1.2c.1 0 .3 0 .5.1.4.1.9.2 1.5.3 1.4.3 3.1.8 4.8 1.5zm7.5 4c-.1-.1-.4-.3-.7-.6l.1.9.6-.3zm0-1l.1.9.6-.3-.4-.4c-.1 0-.2-.1-.3-.2zm-1.9-13.1v.3l.3-.2-.3-.1zm-.8 0l.3-.2-.3-.2v.4zm-11.4 7.4l.7-.5h-.3c-.3 0-.5-.1-.6-.1l.2.6zm.9.3c-.4-.1-.7-.1-.9-.1l.1.6.8-.5z"/></defs><clipPath id="av"><use xlink:href="#au" overflow="visible"/></clipPath><g clip-path="url(#av)"><defs><path id="aw" d="M-632.5-382h1121V648h-1121z"/></defs></g><defs><path id="ax" d="M-444.2-266.8c-3.9-1.6-7.1-1.9-7.1-1.9l12.3-8 2.1 14.7c.2.1-3.1-3.1-7.3-4.8zm-25-11.1l37.2-15.8 15.8 37.2-37.2 15.8-15.8-37.2z"/></defs><clipPath id="ay"><use xlink:href="#ax" overflow="visible"/></clipPath><g clip-path="url(#ay)"><defs><path id="az" d="M-632.5-382h1121V648h-1121z"/></defs></g><defs><path id="aA" d="M-454-221.5c-13.3 0-24-10.7-24-24s10.7-24 24-24 24 10.7 24 24-10.7 24-24 24zm0 3c14.9 0 27-12.1 27-27s-12.1-27-27-27-27 12.1-27 27 12.1 27 27 27zm-47-74h94v94h-94v-94z"/></defs><clipPath id="aB"><use xlink:href="#aA" overflow="visible"/></clipPath><g clip-path="url(#aB)"><defs><circle id="aC" cx="-454" cy="-245.5" r="25.5"/></defs><clipPath id="aD"><use xlink:href="#aC" overflow="visible"/></clipPath><g clip-path="url(#aD)"><defs><path id="aE" d="M-632.5-382h1121V648h-1121z"/></defs></g></g><defs><circle id="aF" cx="-454" cy="-245.5" r="25.5"/></defs><clipPath id="aG"><use xlink:href="#aF" overflow="visible"/></clipPath><g clip-path="url(#aG)"><defs><path id="aH" d="M-632.5-382h1121V648h-1121z"/></defs></g><defs><path id="aI" d="M-163.8-306.5h-1.5v18h19v-18h-17.5zm0 3h16l-1.5-1.5v15l1.5-1.5h-16l1.5 1.5v-15l-1.5 1.5z"/></defs><clipPath id="aJ"><use xlink:href="#aI" overflow="visible"/></clipPath><g clip-path="url(#aJ)"><defs><path id="aK" d="M-163.8-305h16v15h-16z"/></defs><clipPath id="aL"><use xlink:href="#aK" overflow="visible"/></clipPath><g clip-path="url(#aL)"><defs><path id="aM" d="M-584.8-381.5h1121v1030h-1121z"/></defs></g></g><defs><path id="aN" d="M-163.8-305h16v15h-16z"/></defs><clipPath id="aO"><use xlink:href="#aN" overflow="visible"/></clipPath><g clip-path="url(#aO)"><defs><path id="aP" d="M-584.8-381.5h1121v1030h-1121z"/></defs></g><defs><path id="aQ" d="M-187.8-294.5h-1.5v43h67v-43h-65.5zm0 3h64l-1.5-1.5v40l1.5-1.5h-64l1.5 1.5v-40l-1.5 1.5z"/></defs><clipPath id="aR"><use xlink:href="#aQ" overflow="visible"/></clipPath><g clip-path="url(#aR)"><defs><path id="aS" d="M-187.8-293h64v40h-64z"/></defs><clipPath id="aT"><use xlink:href="#aS" overflow="visible"/></clipPath><g clip-path="url(#aT)"><defs><path id="aU" d="M-584.8-381.5h1121v1030h-1121z"/></defs></g></g><defs><path id="aV" d="M-187.8-293h64v40h-64z"/></defs><clipPath id="aW"><use xlink:href="#aV" overflow="visible"/></clipPath><g clip-path="url(#aW)"><defs><path id="aX" d="M-584.8-381.5h1121v1030h-1121z"/></defs></g><defs><path id="aY" d="M-152.8-284.5h-1.5v33h22v-33h-20.5zm0 3h19l-1.5-1.5v30l1.5-1.5h-19l1.5 1.5v-30l-1.5 1.5z"/></defs><clipPath id="aZ"><use xlink:href="#aY" overflow="visible"/></clipPath><g clip-path="url(#aZ)"><defs><path id="ba" d="M-152.8-283h19v30h-19z"/></defs><clipPath id="bb"><use xlink:href="#ba" overflow="visible"/></clipPath><g clip-path="url(#bb)"><defs><path id="bc" d="M-584.8-381.5h1121v1030h-1121z"/></defs></g></g><defs><path id="bd" d="M-152.8-283h19v30h-19z"/></defs><clipPath id="be"><use xlink:href="#bd" overflow="visible"/></clipPath><g clip-path="url(#be)"><defs><path id="bf" d="M-584.8-381.5h1121v1030h-1121z"/></defs></g><defs><path id="bg" d="M-177.8-284.5h-1.5v33h22v-33h-20.5zm0 3h19l-1.5-1.5v30l1.5-1.5h-19l1.5 1.5v-30l-1.5 1.5z"/></defs><clipPath id="bh"><use xlink:href="#bg" overflow="visible"/></clipPath><g clip-path="url(#bh)"><defs><path id="bi" d="M-177.8-283h19v30h-19z"/></defs><clipPath id="bj"><use xlink:href="#bi" overflow="visible"/></clipPath><g clip-path="url(#bj)"><defs><path id="bk" d="M-584.8-381.5h1121v1030h-1121z"/></defs></g></g><defs><path id="bl" d="M-177.8-283h19v30h-19z"/></defs><clipPath id="bm"><use xlink:href="#bl" overflow="visible"/></clipPath><g clip-path="url(#bm)"><defs><path id="bn" d="M-584.8-381.5h1121v1030h-1121z"/></defs></g><defs><path id="bo" d="M-208.3-226.3c0 2.9-.8 7-2.3 11.9-.6 2.1-1.3 4.3-2.1 6.5-1 2.7-2 5.4-3.1 8-.4.9-.7 1.7-1 2.4-.2.4-.3.7-.4.9l-.9 2.1H-98.7l-.7-2c-.1-.2-.2-.4-.3-.9-.2-.7-.5-1.5-.8-2.4-.8-2.5-1.6-5.2-2.4-7.9-.7-2.4-1.3-4.8-1.8-7-1.1-4.8-1.7-8.8-1.7-11.8 0-2.8.7-7 1.9-12 .5-1.9 1-3.9 1.6-6 .8-2.7 1.6-5.4 2.4-7.9.3-.9.5-1.7.8-2.4.1-.4.2-.7.3-.9l.7-2H-218.1l1 2.1c.1.1.2.4.4.9.3.7.6 1.5 1 2.4 1 2.5 2.1 5.1 3.1 7.8.8 2.2 1.5 4.4 2.1 6.4 1.4 5 2.2 9 2.2 11.8zm3 0c0-3.2-.9-7.5-2.4-12.5-.6-2.1-1.4-4.3-2.2-6.5-1-2.7-2.1-5.4-3.1-8-.4-.9-.7-1.7-1-2.4-.2-.4-.3-.7-.4-.9l-1.4 2.1h115l-1.4-2c-.1.2-.2.5-.3.9-.2.7-.5 1.5-.8 2.4-.8 2.6-1.7 5.3-2.4 8-.6 2.1-1.1 4.1-1.6 6.1-1.3 5.2-2 9.5-2 12.7 0 3.2.6 7.4 1.7 12.4.5 2.3 1.1 4.7 1.8 7.1.8 2.8 1.6 5.5 2.4 8.1.3.9.6 1.7.8 2.4.1.4.2.7.3.9l1.4-2h-115l1.4 2.1c.1-.2.2-.5.4-.9.3-.7.7-1.5 1-2.4 1.1-2.6 2.1-5.3 3.1-8.1.8-2.3 1.6-4.5 2.2-6.7 1.7-5.2 2.5-9.5 2.5-12.8z"/></defs><clipPath id="bp"><use xlink:href="#bo" overflow="visible"/></clipPath><g clip-path="url(#bp)"><defs><path id="bq" d="M-206.8-226.3c0-9.9-9-29.7-9-29.7h115s-7 20-7 29.6c0 10.5 7 30.4 7 30.4h-115s9-20.2 9-30.3z"/></defs><clipPath id="br"><use xlink:href="#bq" overflow="visible"/></clipPath><g clip-path="url(#br)"><defs><path id="bs" d="M-584.8-381.5h1121v1030h-1121z"/></defs></g></g><defs><path id="bt" d="M-206.8-226.3c0-9.9-9-29.7-9-29.7h115s-7 20-7 29.6c0 10.5 7 30.4 7 30.4h-115s9-20.2 9-30.3z"/></defs><clipPath id="bu"><use xlink:href="#bt" overflow="visible"/></clipPath><g clip-path="url(#bu)"><defs><path id="bv" d="M-584.8-381.5h1121v1030h-1121z"/></defs></g><defs><path id="bw" d="M-192.8-225.5h-1.5v6h72v-6h-70.5zm0 3h69l-1.5-1.5v3l1.5-1.5h-69l1.5 1.5v-3l-1.5 1.5zm-21.5-23h112v46h-112v-46z"/></defs><clipPath id="bx"><use xlink:href="#bw" overflow="visible"/></clipPath><g clip-path="url(#bx)"><defs><path id="by" d="M-192.8-224h69v3h-69z"/></defs><clipPath id="bz"><use xlink:href="#by" overflow="visible"/></clipPath><g clip-path="url(#bz)"><defs><path id="bA" d="M-584.8-381.5h1121v1030h-1121z"/></defs></g></g><defs><path id="bB" d="M-192.8-224h69v3h-69z"/></defs><clipPath id="bC"><use xlink:href="#bB" overflow="visible"/></clipPath><g clip-path="url(#bC)"><defs><path id="bD" d="M-584.8-381.5h1121v1030h-1121z"/></defs></g><defs><path id="bE" d="M-192.8-233.5h-1.5v6h72v-6h-70.5zm0 3h69l-1.5-1.5v3l1.5-1.5h-69l1.5 1.5v-3l-1.5 1.5zm-21.5-23h112v46h-112v-46z"/></defs><clipPath id="bF"><use xlink:href="#bE" overflow="visible"/></clipPath><g clip-path="url(#bF)"><defs><path id="bG" d="M-192.8-232h69v3h-69z"/></defs><clipPath id="bH"><use xlink:href="#bG" overflow="visible"/></clipPath><g clip-path="url(#bH)"><defs><path id="bI" d="M-584.8-381.5h1121v1030h-1121z"/></defs></g></g><defs><path id="bJ" d="M-192.8-232h69v3h-69z"/></defs><clipPath id="bK"><use xlink:href="#bJ" overflow="visible"/></clipPath><g clip-path="url(#bK)"><defs><path id="bL" d="M-584.8-381.5h1121v1030h-1121z"/></defs></g><defs><path id="bM" d="M-160.8-218.1l.5 1.6 1.5-.7c2-.9 4.2-1.3 6.4-1.3 6 0 11.3 3.3 14.1 8.4l.5 1 1.1-.2c.6-.1 1.2-.2 1.8-.2 3.5 0 6.6 2.1 7.9 5.3l.5 1.2 1.3-.3c.4-.1.9-.2 1.4-.2 3 0 5.5 2.5 5.5 5.5s-2.5 5.5-5.5 5.5c-1.5 0-2.9-.6-3.9-1.6l-.9-.9-1 .8c-1.5 1.1-3.3 1.7-5.1 1.7-1.1 0-2.2-.2-3.2-.6l-1-.4-.7.9c-3 3.8-7.6 6.1-12.6 6.1-4.9 0-9.5-2.3-12.5-6l-.7-.8-1 .3c-1.1.4-2.2.5-3.3.5-2 0-4-.6-5.7-1.7l-.8-.5-.8.5c-1.7 1.1-3.6 1.7-5.7 1.7-2.2 0-4.3-.7-6-1.9l-1.1-.7-.9.9c-1 1.1-2.5 1.7-4 1.7-3 0-5.5-2.5-5.5-5.5s2.5-5.5 5.5-5.5H-193.3l.2-1.3c.8-5 5.2-8.7 10.4-8.7h1.5v-1.5c0-5.8 4.7-10.5 10.5-10.5 4.6 0 8.6 3 9.9 7.4zm2.9-.9c-1.7-5.6-6.9-9.5-12.9-9.5-7.5 0-13.5 6-13.5 13.5l1.5-1.5c-6.6 0-12.2 4.8-13.3 11.3l1.5.2v-1.5h-.2c-4.7 0-8.5 3.8-8.5 8.5s3.8 8.5 8.5 8.5c2.4 0 4.6-1 6.2-2.7l-2 .2c2.3 1.6 5 2.5 7.8 2.5 2.6 0 5.2-.8 7.3-2.2h-1.6c2.2 1.4 4.7 2.2 7.3 2.2 1.5 0 2.9-.2 4.3-.7l-.5-1.4-1.2.9c3.6 4.5 9 7.2 14.9 7.2s11.4-2.7 15-7.3l-1.2-.9-.6 1.4c1.3.5 2.8.8 4.3.8 2.6 0 5-.8 7-2.4l-2-.1c1.6 1.6 3.7 2.5 6 2.5 4.7 0 8.5-3.8 8.5-8.5s-3.8-8.5-8.5-8.5c-.7 0-1.4.1-2.1.3l.4 1.5 1.4-.6c-1.8-4.3-5.9-7.2-10.6-7.2-.8 0-1.6.1-2.4.2l.3 1.5 1.3-.7c-3.3-6.1-9.7-10-16.7-10-2.7 0-5.2.5-7.6 1.6l1.9.9zm-65.4-29.5h128v85h-128v-85z"/></defs><clipPath id="bN"><use xlink:href="#bM" overflow="visible"/></clipPath><g clip-path="url(#bN)"><defs><path id="bO" d="M-159.3-218.5c-1.5-4.9-6.1-8.5-11.5-8.5-6.6 0-12 5.4-12 12-5.9 0-10.9 4.3-11.8 10h-.2c-3.9 0-7 3.1-7 7s3.1 7 7 7c2 0 3.8-.8 5.1-2.2 2 1.4 4.3 2.2 6.9 2.2 2.4 0 4.6-.7 6.5-1.9 1.9 1.2 4.1 1.9 6.5 1.9 1.3 0 2.6-.2 3.8-.6 3.2 4 8.2 6.6 13.7 6.6 5.6 0 10.6-2.6 13.8-6.7 1.1.5 2.4.7 3.7.7 2.3 0 4.4-.8 6.1-2 1.3 1.3 3 2 4.9 2 3.9 0 7-3.1 7-7s-3.1-7-7-7c-.6 0-1.2.1-1.7.2-1.5-3.6-5.1-6.2-9.3-6.2-.7 0-1.4.1-2.1.2-3-5.5-8.8-9.2-15.4-9.2-2.5 0-4.9.5-7 1.5z"/></defs><clipPath id="bP"><use xlink:href="#bO" overflow="visible"/></clipPath><g clip-path="url(#bP)"><defs><path id="bQ" d="M-584.8-381.5h1121v1030h-1121z"/></defs></g></g><defs><path id="bR" d="M-159.3-218.5c-1.5-4.9-6.1-8.5-11.5-8.5-6.6 0-12 5.4-12 12-5.9 0-10.9 4.3-11.8 10h-.2c-3.9 0-7 3.1-7 7s3.1 7 7 7c2 0 3.8-.8 5.1-2.2 2 1.4 4.3 2.2 6.9 2.2 2.4 0 4.6-.7 6.5-1.9 1.9 1.2 4.1 1.9 6.5 1.9 1.3 0 2.6-.2 3.8-.6 3.2 4 8.2 6.6 13.7 6.6 5.6 0 10.6-2.6 13.8-6.7 1.1.5 2.4.7 3.7.7 2.3 0 4.4-.8 6.1-2 1.3 1.3 3 2 4.9 2 3.9 0 7-3.1 7-7s-3.1-7-7-7c-.6 0-1.2.1-1.7.2-1.5-3.6-5.1-6.2-9.3-6.2-.7 0-1.4.1-2.1.2-3-5.5-8.8-9.2-15.4-9.2-2.5 0-4.9.5-7 1.5z"/></defs><clipPath id="bS"><use xlink:href="#bR" overflow="visible"/></clipPath><g clip-path="url(#bS)"><defs><path id="bT" d="M-584.8-381.5h1121v1030h-1121z"/></defs></g><defs><path id="bU" d="M111.7-253.6l56 32.4s-1.5 14.3-8.3 24.7c-6.8 10.4-24.1 17.2-24.1 17.2l-53.4-38.5s13.7-4.3 21.6-13.8 8.2-22 8.2-22z"/></defs><clipPath id="bV"><use xlink:href="#bU" overflow="visible"/></clipPath><g clip-path="url(#bV)"><defs><path id="bW" d="M-543.3-380.8h1121v1030h-1121z"/></defs></g><defs><path id="bX" d="M137.2-239.8l21.8-50.6 6.2 2.7-22.4 51z"/></defs><clipPath id="bY"><use xlink:href="#bX" overflow="visible"/></clipPath><g clip-path="url(#bY)"><defs><path id="bZ" d="M-543.3-380.8h1121v1030h-1121z"/></defs></g><defs><path id="ca" d="M102.3-213.4l1.2.9.9-1.2c-1.5-1-3.3-1.6-5.1-1.6-5 0-9 4-9 9 0 3.8 2.4 7.2 6 8.5l-1-1.4c0 4.9 4.1 8.9 9 8.9 1.4 0 2.8-.3 4.1-1l-.7-1.3-1.4.6c1.9 4 5.9 6.7 10.4 6.7 6.4 0 11.5-5.1 11.5-11.5 0-1.2-.2-2.5-.6-3.6l-1.4.5.8 1.3c2.6-1.6 4.2-4.5 4.2-7.6 0-5-4-9-9-9-1.2 0-2.3.2-3.4.7l.6 1.4 1.1-1c-2.2-2.6-5.4-4.1-8.8-4.1-3.8-.1-7.3 1.8-9.4 4.8zm2.4 1.7c1.6-2.3 4.2-3.7 7-3.7 2.5 0 4.9 1.1 6.5 3l.7.8 1-.4c.7-.3 1.5-.4 2.3-.4 3.3 0 6 2.7 6 6 0 2.1-1.1 4-2.8 5.1l-1 .6.4 1.1c.3.9.4 1.8.4 2.7 0 4.7-3.8 8.5-8.5 8.5-3.4 0-6.3-2-7.7-4.9l-.7-1.4-1.3.7c-.8.4-1.8.7-2.7.7-3.3 0-6-2.7-6-5.9v-1.1l-1-.3c-2.4-.8-4-3.1-4-5.7 0-3.3 2.7-6 6-6 1.2 0 2.4.4 3.4 1.1l1.2.9.8-1.4zm-34.5-26.6h81v73h-81v-73z"/></defs><clipPath id="cb"><use xlink:href="#ca" overflow="visible"/></clipPath><g clip-path="url(#cb)"><defs><path id="cc" d="M103.5-212.5c1.8-2.6 4.8-4.3 8.2-4.3 3.1 0 5.8 1.4 7.7 3.6.9-.4 1.8-.6 2.8-.6 4.1 0 7.5 3.4 7.5 7.5 0 2.7-1.4 5-3.5 6.3.3 1 .5 2 .5 3.2 0 5.5-4.5 10-10 10-4 0-7.5-2.4-9.1-5.8-1 .5-2.2.8-3.4.8-4.1 0-7.5-3.3-7.5-7.4-2.9-1-5-3.8-5-7.1 0-4.1 3.4-7.5 7.5-7.5 1.6 0 3.1.5 4.3 1.3z"/></defs><clipPath id="cd"><use xlink:href="#cc" overflow="visible"/></clipPath><g clip-path="url(#cd)"><defs><path id="ce" d="M-543.3-380.8h1121v1030h-1121z"/></defs></g></g><defs><path id="cf" d="M103.5-212.5c1.8-2.6 4.8-4.3 8.2-4.3 3.1 0 5.8 1.4 7.7 3.6.9-.4 1.8-.6 2.8-.6 4.1 0 7.5 3.4 7.5 7.5 0 2.7-1.4 5-3.5 6.3.3 1 .5 2 .5 3.2 0 5.5-4.5 10-10 10-4 0-7.5-2.4-9.1-5.8-1 .5-2.2.8-3.4.8-4.1 0-7.5-3.3-7.5-7.4-2.9-1-5-3.8-5-7.1 0-4.1 3.4-7.5 7.5-7.5 1.6 0 3.1.5 4.3 1.3z"/></defs><clipPath id="cg"><use xlink:href="#cf" overflow="visible"/></clipPath><g clip-path="url(#cg)"><defs><path id="ch" d="M-543.3-380.8h1121v1030h-1121z"/></defs></g><defs><path id="ci" d="M159.7-297.2l10.2 4.4 2-4.4-10.3-4-1.9 4zm-8.5 2.7l22.8 9.7 7.1-15.4-23.3-8.4-6.6 14.1z"/></defs><clipPath id="cj"><use xlink:href="#ci" overflow="visible"/></clipPath><g clip-path="url(#cj)"><defs><path id="ck" d="M-543.3-380.8h1121v1030h-1121z"/></defs></g><defs><path id="cl" d="M432.1-309.6c30.3 0 55 7.1 55 14.8v22l1.7-1.5c-.1 0-.2 0-.4-.1-.4-.1-.8-.1-1.3-.2-1.4-.2-2.9-.4-4.6-.6-4.9-.7-10-1.3-15.2-2-3.9-.5-7.7-.9-11.3-1.3-9.9-1-18.1-1.6-23.9-1.6-5.2 0-14.3.8-26.1 2.3-2.5.3-5.1.6-7.7 1-5.4.7-10.9 1.5-16.1 2.3-1.8.3-3.5.5-5 .8-.5.1-1 .2-1.4.2-.2 0-.4.1-.5.1l1.7 1.5v-23c.1-7.6 24.8-14.7 55.1-14.7zm0-3c-32.1 0-58 7.5-58 17.8v24.8l1.7-.3c.1 0 .2 0 .5-.1.4-.1.8-.1 1.4-.2 1.5-.2 3.1-.5 5-.8 5.2-.8 10.7-1.6 16.1-2.3 2.6-.4 5.2-.7 7.7-1 11.7-1.5 20.7-2.3 25.7-2.3 5.6 0 13.7.6 23.6 1.6 3.6.4 7.4.8 11.2 1.3 5.2.6 10.3 1.3 15.2 2 1.7.2 3.2.4 4.6.6.5.1.9.1 1.2.2.2 0 .4.1.4.1l1.7.3v-23.7c0-10.6-25.9-18-58-18zm-78-20h156v82.5h-156v-82.5z"/></defs><clipPath id="cm"><use xlink:href="#cl" overflow="visible"/></clipPath><g clip-path="url(#cm)"><defs><path id="cn" d="M432.1-311.1c-31.2 0-56.5 7.3-56.5 16.3v23s42.2-6.7 56.5-6.7c18 0 56.5 5.7 56.5 5.7v-22c0-9-25.3-16.3-56.5-16.3z"/></defs><clipPath id="co"><use xlink:href="#cn" overflow="visible"/></clipPath><g clip-path="url(#co)"><defs><path id="cp" d="M-483.4-393.9h1121v1030h-1121z"/></defs></g></g><defs><path id="cq" d="M432.1-311.1c-31.2 0-56.5 7.3-56.5 16.3v23s42.2-6.7 56.5-6.7c18 0 56.5 5.7 56.5 5.7v-22c0-9-25.3-16.3-56.5-16.3z"/></defs><clipPath id="cr"><use xlink:href="#cq" overflow="visible"/></clipPath><g clip-path="url(#cr)"><defs><path id="cs" d="M-483.4-393.9h1121v1030h-1121z"/></defs></g><defs><path id="ct" d="M432.1-287.4c30.3 0 55 7.1 55 14.8s-24.7 14.8-55 14.8-55-7.1-55-14.8 24.7-14.8 55-14.8zm0-3c-32.1 0-58 7.5-58 17.8s25.9 17.8 58 17.8 58-7.5 58-17.8-25.9-17.8-58-17.8zm-78-20h156v75.6h-156v-75.6z"/></defs><clipPath id="cu"><use xlink:href="#ct" overflow="visible"/></clipPath><g clip-path="url(#cu)"><defs><ellipse id="cv" cx="432.1" cy="-272.5" rx="56.5" ry="16.3"/></defs><clipPath id="cw"><use xlink:href="#cv" overflow="visible"/></clipPath><g clip-path="url(#cw)"><defs><path id="cx" d="M-483.4-393.9h1121v1030h-1121z"/></defs></g></g><defs><ellipse id="cy" cx="432.1" cy="-272.5" rx="56.5" ry="16.3"/></defs><clipPath id="cz"><use xlink:href="#cy" overflow="visible"/></clipPath><g clip-path="url(#cz)"><defs><path id="cA" d="M-483.4-393.9h1121v1030h-1121z"/></defs></g><defs><path id="cB" d="M392.1-268.2c0-5.3 18-10.4 40-10.4s40 5.2 40 10.4v7.1l1.2-1.5c-.1 0-.1 0-.3.1-.3 0-.6.1-.9.2-1 .2-2.1.3-3.4.5-3.6.6-7.3 1.1-11.1 1.7-2.9.4-5.6.8-8.3 1.1-7.2.9-13.1 1.3-17.2 1.3-3.7 0-10.3-.5-18.9-1.4-1.8-.2-3.7-.4-5.6-.6-4-.5-8-.9-11.8-1.4-1.3-.2-2.6-.3-3.6-.5-.4 0-.7-.1-1-.1h-.3l1.3 1.5v-8zm-3 0v9.1l1.3.2h.4c.3 0 .6.1 1 .1 1.1.1 2.3.3 3.7.5a11776882415803102 11776882415803102 0 0 0 36.7 3.5c4.3 0 10.3-.5 17.6-1.4 2.7-.3 5.4-.7 8.3-1.1 3.8-.5 7.6-1.1 11.2-1.7 1.3-.2 2.4-.4 3.4-.5.4-.1.7-.1.9-.2.3 0 .3 0 .3-.1l1.2-.2v-8.4c0-7.9-19.2-13.4-43-13.4s-43 5.7-43 13.6zm-20-33.4h126v66.9h-126v-66.9z"/></defs><clipPath id="cC"><use xlink:href="#cB" overflow="visible"/></clipPath><g clip-path="url(#cC)"><defs><path id="cD" d="M390.6-268.2v7.8s31 4.1 41.5 4.1c13.2 0 41.5-4.8 41.5-4.8v-7.1c0-6.6-18.6-11.9-41.5-11.9s-41.5 5.3-41.5 11.9z"/></defs><clipPath id="cE"><use xlink:href="#cD" overflow="visible"/></clipPath><g clip-path="url(#cE)"><defs><path id="cF" d="M-483.4-393.9h1121v1030h-1121z"/></defs></g></g><defs><path id="cG" d="M390.6-268.2v7.8s31 4.1 41.5 4.1c13.2 0 41.5-4.8 41.5-4.8v-7.1c0-6.6-18.6-11.9-41.5-11.9s-41.5 5.3-41.5 11.9z"/></defs><clipPath id="cH"><use xlink:href="#cG" overflow="visible"/></clipPath><g clip-path="url(#cH)"><defs><path id="cI" d="M-483.4-393.9h1121v1030h-1121z"/></defs></g><defs><path id="cJ" d="M432.1-270.3c22 0 40 5.2 40 10.4s-18 10.4-40 10.4-40-5.2-40-10.4 18-10.4 40-10.4zm0-3c-23.8 0-43 5.5-43 13.4s19.2 13.4 43 13.4 43-5.5 43-13.4-19.2-13.4-43-13.4zm-63-20h126v66.9h-126v-66.9z"/></defs><clipPath id="cK"><use xlink:href="#cJ" overflow="visible"/></clipPath><g clip-path="url(#cK)"><defs><ellipse id="cL" cx="432.1" cy="-259.9" rx="41.5" ry="11.9"/></defs><clipPath id="cM"><use xlink:href="#cL" overflow="visible"/></clipPath><g clip-path="url(#cM)"><defs><path id="cN" d="M-483.4-393.9h1121v1030h-1121z"/></defs></g></g><defs><ellipse id="cO" cx="432.1" cy="-259.9" rx="41.5" ry="11.9"/></defs><clipPath id="cP"><use xlink:href="#cO" overflow="visible"/></clipPath><g clip-path="url(#cP)"><defs><path id="cQ" d="M-483.4-393.9h1121v1030h-1121z"/></defs></g><defs><path id="cR" d="M419.5-258.3c0 .4-.2.7-.4.8.1 0 .2-.1.4-.2.6-.2 1.6-.4 2.8-.6 2.6-.4 6-.6 9.8-.6s7.2.2 9.8.6c1.2.2 2.2.4 2.8.6l.4.2c-.2-.1-.4-.4-.4-.8s.2-.7.4-.8c-.1 0-.2.1-.4.2-.6.2-1.6.4-2.8.6-2.6.4-6 .6-9.8.6s-7.2-.2-9.8-.6c-1.2-.2-2.2-.4-2.8-.6l-.4-.2c.2.1.4.3.4.8zm-3 0c0 2.6 6.2 3.5 15.6 3.5s15.6-.9 15.6-3.5-6.2-3.5-15.6-3.5-15.6.8-15.6 3.5zm-20-23.6h71.2v47.1h-71.2v-47.1z"/></defs><clipPath id="cS"><use xlink:href="#cR" overflow="visible"/></clipPath><g clip-path="url(#cS)"><defs><ellipse id="cT" cx="432.1" cy="-258.3" rx="14.1" ry="2"/></defs><clipPath id="cU"><use xlink:href="#cT" overflow="visible"/></clipPath><g clip-path="url(#cU)"><defs><path id="cV" d="M-483.4-393.9h1121v1030h-1121z"/></defs></g></g><defs><ellipse id="cW" cx="432.1" cy="-258.3" rx="14.1" ry="2"/></defs><clipPath id="cX"><use xlink:href="#cW" overflow="visible"/></clipPath><g clip-path="url(#cX)"><defs><path id="cY" d="M-483.4-393.9h1121v1030h-1121z"/></defs></g><defs><path id="cZ" d="M424.9-241s-10.5 3.3-9.1 12.3c.9 5.5 5.6 8.1 5.6 13.5s-4.6 9.5-4.6 9.5 13.5-.3 14.6-9.5c1.1-9.2-6.7-11.3-8.3-15.6-1.4-4.3 1.8-10.2 1.8-10.2z"/></defs><clipPath id="da"><use xlink:href="#cZ" overflow="visible"/></clipPath><g clip-path="url(#da)"><defs><path id="db" d="M-483.4-393.9h1121v1030h-1121z"/></defs></g><defs><path id="dc" d="M440-237.7s-15.1 4.8-13 17.6c1.2 7.9 8 11.6 8 19.4s-6.5 13.6-6.5 13.6 19.3-.5 20.9-13.6c1.6-13.2-9.6-16.1-11.8-22.3-2.3-6.3 2.4-14.7 2.4-14.7z"/></defs><clipPath id="dd"><use xlink:href="#dc" overflow="visible"/></clipPath><g clip-path="url(#dd)"><defs><path id="de" d="M-483.4-393.9h1121v1030h-1121z"/></defs></g><defs><path id="df" d="M-211.5-127.5l-1.4.4.4 1.4 30.4 99.5.4 1.4 1.4-.4 60.2-18.4 1.4-.4-.4-1.4-30.4-99.5-.4-1.4-1.4.4-60.2 18.4zm.9 2.9l60.2-18.4-1.9-1 30.4 99.5 1-1.9-60.2 18.4 1.9 1-30.4-99.5-1 1.9zm-27.3-15.7l101.4-31 43 140.6-101.4 31-43-140.6z"/></defs><clipPath id="dg"><use xlink:href="#df" overflow="visible"/></clipPath><g clip-path="url(#dg)"><defs><path id="dh" transform="rotate(162.999 -165.704 -85.5)" d="M-197.2-137.5h63v104h-63z"/></defs><clipPath id="di"><use xlink:href="#dh" overflow="visible"/></clipPath><g clip-path="url(#di)"><defs><path id="dj" d="M-341.2-435h1121V595h-1121z"/></defs></g></g><defs><path id="dk" transform="rotate(162.999 -165.704 -85.5)" d="M-197.2-137.5h63v104h-63z"/></defs><clipPath id="dl"><use xlink:href="#dk" overflow="visible"/></clipPath><g clip-path="url(#dl)"><defs><path id="dm" d="M-341.2-435h1121V595h-1121z"/></defs></g><defs><path id="dn" d="M-176.2-150.5h-1.5v107h66v-107h-64.5zm0 3h63l-1.5-1.5v104l1.5-1.5h-63l1.5 1.5v-104l-1.5 1.5zm-21.5-23h106v147h-106v-147z"/></defs><clipPath id="do"><use xlink:href="#dn" overflow="visible"/></clipPath><g clip-path="url(#do)"><defs><path id="dp" d="M-176.2-149h63v104h-63z"/></defs><clipPath id="dq"><use xlink:href="#dp" overflow="visible"/></clipPath><g clip-path="url(#dq)"><defs><path id="dr" d="M-341.2-435h1121V595h-1121z"/></defs></g></g><defs><path id="ds" d="M-176.2-149h63v104h-63z"/></defs><clipPath id="dt"><use xlink:href="#ds" overflow="visible"/></clipPath><g clip-path="url(#dt)"><defs><path id="du" d="M-341.2-435h1121V595h-1121z"/></defs></g><defs><path id="dv" d="M-167.2-121h44v13h-44z"/></defs><clipPath id="dw"><use xlink:href="#dv" overflow="visible"/></clipPath><g clip-path="url(#dw)"><defs><path id="dx" d="M-341.2-435h1121V595h-1121z"/></defs></g><defs><path id="dy" d="M-167.2-111h44v13h-44z"/></defs><clipPath id="dz"><use xlink:href="#dy" overflow="visible"/></clipPath><g clip-path="url(#dz)"><defs><path id="dA" d="M-341.2-435h1121V595h-1121z"/></defs></g><defs><path id="dB" d="M-167.2-101h44v13h-44z"/></defs><clipPath id="dC"><use xlink:href="#dB" overflow="visible"/></clipPath><g clip-path="url(#dC)"><defs><path id="dD" d="M-341.2-435h1121V595h-1121z"/></defs></g><defs><path id="dE" d="M-167.2-91h44v14h-44z"/></defs><clipPath id="dF"><use xlink:href="#dE" overflow="visible"/></clipPath><g clip-path="url(#dF)"><defs><path id="dG" d="M-341.2-435h1121V595h-1121z"/></defs></g><defs><path id="dH" d="M-167.2-80h44v14h-44z"/></defs><clipPath id="dI"><use xlink:href="#dH" overflow="visible"/></clipPath><g clip-path="url(#dI)"><defs><path id="dJ" d="M-341.2-435h1121V595h-1121z"/></defs></g><defs><path id="dK" d="M-167.2-69h44v14h-44z"/></defs><clipPath id="dL"><use xlink:href="#dK" overflow="visible"/></clipPath><g clip-path="url(#dL)"><defs><path id="dM" d="M-341.2-435h1121V595h-1121z"/></defs></g><defs><path id="dN" d="M-166.2-139h3v13h-3z"/></defs><clipPath id="dO"><use xlink:href="#dN" overflow="visible"/></clipPath><g clip-path="url(#dO)"><defs><path id="dP" d="M-341.2-435h1121V595h-1121z"/></defs></g><defs><path id="dQ" d="M-161.2-139h3v13h-3z"/></defs><clipPath id="dR"><use xlink:href="#dQ" overflow="visible"/></clipPath><g clip-path="url(#dR)"><defs><path id="dS" d="M-341.2-435h1121V595h-1121z"/></defs></g><defs><path id="dT" d="M-156.2-139h3v13h-3z"/></defs><clipPath id="dU"><use xlink:href="#dT" overflow="visible"/></clipPath><g clip-path="url(#dU)"><defs><path id="dV" d="M-341.2-435h1121V595h-1121z"/></defs></g><defs><path id="dW" d="M-151.2-139h3v13h-3z"/></defs><clipPath id="dX"><use xlink:href="#dW" overflow="visible"/></clipPath><g clip-path="url(#dX)"><defs><path id="dY" d="M-341.2-435h1121V595h-1121z"/></defs></g><defs><path id="dZ" d="M-146.2-139h3v13h-3z"/></defs><clipPath id="ea"><use xlink:href="#dZ" overflow="visible"/></clipPath><g clip-path="url(#ea)"><defs><path id="eb" d="M-341.2-435h1121V595h-1121z"/></defs></g><defs><path id="ec" d="M-146.2-88h3v32h-3z"/></defs><clipPath id="ed"><use xlink:href="#ec" overflow="visible"/></clipPath><g clip-path="url(#ed)"><defs><path id="ee" d="M-341.2-435h1121V595h-1121z"/></defs></g><defs><path id="ef" d="M-141.2-139h3v13h-3z"/></defs><clipPath id="eg"><use xlink:href="#ef" overflow="visible"/></clipPath><g clip-path="url(#eg)"><defs><path id="eh" d="M-341.2-435h1121V595h-1121z"/></defs></g><defs><path id="ei" d="M-136.2-139h3v13h-3z"/></defs><clipPath id="ej"><use xlink:href="#ei" overflow="visible"/></clipPath><g clip-path="url(#ej)"><defs><path id="ek" d="M-341.2-435h1121V595h-1121z"/></defs></g><g><defs><path id="el" d="M-131.2-139h3v13h-3z"/></defs><clipPath id="em"><use xlink:href="#el" overflow="visible"/></clipPath><g clip-path="url(#em)"><defs><path id="en" d="M-341.2-435h1121V595h-1121z"/></defs></g></g><g><defs><path id="eo" d="M-126.2-139h3v13h-3z"/></defs><clipPath id="ep"><use xlink:href="#eo" overflow="visible"/></clipPath><g clip-path="url(#ep)"><defs><path id="eq" d="M-341.2-435h1121V595h-1121z"/></defs></g></g><g><defs><path id="er" d="M-208.2-124.8l53.3 34.1-23.9 61.7"/></defs><clipPath id="es"><use xlink:href="#er" overflow="visible"/></clipPath><g clip-path="url(#es)"><defs><path id="et" d="M-341.2-435h1121V595h-1121z"/></defs></g></g><g><defs><path id="eu" d="M93.5-150.5H92v107h66v-107H93.5zm0 3h63L155-149v104l1.5-1.5h-63L95-45v-104l-1.5 1.5zm-21.5-23h106v147H72v-147z"/></defs><clipPath id="ev"><use xlink:href="#eu" overflow="visible"/></clipPath><g clip-path="url(#ev)"><defs><path id="ew" d="M93.5-149h63v104h-63z"/></defs><clipPath id="ex"><use xlink:href="#ew" overflow="visible"/></clipPath><g clip-path="url(#ex)"><defs><path id="ey" d="M-296.5-429h1121V601h-1121z"/></defs></g></g></g><g><defs><path id="ez" d="M93.5-149h63v104h-63z"/></defs><clipPath id="eA"><use xlink:href="#ez" overflow="visible"/></clipPath><g clip-path="url(#eA)"><defs><path id="eB" d="M-296.5-429h1121V601h-1121z"/></defs></g></g><g><defs><path id="eC" d="M102.5-121h44v13h-44z"/></defs><clipPath id="eD"><use xlink:href="#eC" overflow="visible"/></clipPath><g clip-path="url(#eD)"><defs><path id="eE" d="M-296.5-429h1121V601h-1121z"/></defs></g></g><g><defs><path id="eF" d="M102.5-111h44v13h-44z"/></defs><clipPath id="eG"><use xlink:href="#eF" overflow="visible"/></clipPath><g clip-path="url(#eG)"><defs><path id="eH" d="M-296.5-429h1121V601h-1121z"/></defs></g></g><g><defs><path id="eI" d="M102.5-101h44v13h-44z"/></defs><clipPath id="eJ"><use xlink:href="#eI" overflow="visible"/></clipPath><g clip-path="url(#eJ)"><defs><path id="eK" d="M-296.5-429h1121V601h-1121z"/></defs></g></g><g><defs><path id="eL" d="M102.5-91h44v14h-44z"/></defs><clipPath id="eM"><use xlink:href="#eL" overflow="visible"/></clipPath><g clip-path="url(#eM)"><defs><path id="eN" d="M-296.5-429h1121V601h-1121z"/></defs></g></g><g><defs><path id="eO" d="M102.5-80h44v14h-44z"/></defs><clipPath id="eP"><use xlink:href="#eO" overflow="visible"/></clipPath><g clip-path="url(#eP)"><defs><path id="eQ" d="M-296.5-429h1121V601h-1121z"/></defs></g></g><g><defs><path id="eR" d="M102.5-69h44v14h-44z"/></defs><clipPath id="eS"><use xlink:href="#eR" overflow="visible"/></clipPath><g clip-path="url(#eS)"><defs><path id="eT" d="M-296.5-429h1121V601h-1121z"/></defs></g></g><g><defs><path id="eU" d="M103.5-139h3v13h-3z"/></defs><clipPath id="eV"><use xlink:href="#eU" overflow="visible"/></clipPath><g clip-path="url(#eV)"><defs><path id="eW" d="M-296.5-429h1121V601h-1121z"/></defs></g></g><g><defs><path id="eX" d="M108.5-139h3v13h-3z"/></defs><clipPath id="eY"><use xlink:href="#eX" overflow="visible"/></clipPath><g clip-path="url(#eY)"><defs><path id="eZ" d="M-296.5-429h1121V601h-1121z"/></defs></g></g><g><defs><path id="fa" d="M113.5-139h3v13h-3z"/></defs><clipPath id="fb"><use xlink:href="#fa" overflow="visible"/></clipPath><g clip-path="url(#fb)"><defs><path id="fc" d="M-296.5-429h1121V601h-1121z"/></defs></g></g><g><defs><path id="fd" d="M118.5-139h3v13h-3z"/></defs><clipPath id="fe"><use xlink:href="#fd" overflow="visible"/></clipPath><g clip-path="url(#fe)"><defs><path id="ff" d="M-296.5-429h1121V601h-1121z"/></defs></g></g><g><defs><path id="fg" d="M123.5-139h3v13h-3z"/></defs><clipPath id="fh"><use xlink:href="#fg" overflow="visible"/></clipPath><g clip-path="url(#fh)"><defs><path id="fi" d="M-296.5-429h1121V601h-1121z"/></defs></g></g><g><defs><path id="fj" d="M123.5-88h3v32h-3z"/></defs><clipPath id="fk"><use xlink:href="#fj" overflow="visible"/></clipPath><g clip-path="url(#fk)"><defs><path id="fl" d="M-296.5-429h1121V601h-1121z"/></defs></g></g><g><defs><path id="fm" d="M128.5-139h3v13h-3z"/></defs><clipPath id="fn"><use xlink:href="#fm" overflow="visible"/></clipPath><g clip-path="url(#fn)"><defs><path id="fo" d="M-296.5-429h1121V601h-1121z"/></defs></g></g><g><defs><path id="fp" d="M133.5-139h3v13h-3z"/></defs><clipPath id="fq"><use xlink:href="#fp" overflow="visible"/></clipPath><g clip-path="url(#fq)"><defs><path id="fr" d="M-296.5-429h1121V601h-1121z"/></defs></g></g><g><defs><path id="fs" d="M138.5-139h3v13h-3z"/></defs><clipPath id="ft"><use xlink:href="#fs" overflow="visible"/></clipPath><g clip-path="url(#ft)"><defs><path id="fu" d="M-296.5-429h1121V601h-1121z"/></defs></g></g><g><defs><path id="fv" d="M143.5-139h3v13h-3z"/></defs><clipPath id="fw"><use xlink:href="#fv" overflow="visible"/></clipPath><g clip-path="url(#fw)"><defs><path id="fx" d="M-296.5-429h1121V601h-1121z"/></defs></g></g><g><defs><path id="fy" d="M165.5-29.5C149.2-29.5 136-42.7 136-59s13.2-29.5 29.5-29.5S195-75.3 195-59s-13.2 29.5-29.5 29.5zm0 3c17.9 0 32.5-14.6 32.5-32.5s-14.6-32.5-32.5-32.5S133-76.9 133-59s14.5 32.5 32.5 32.5zm-52.5-85h105v105H113v-105z"/></defs><clipPath id="fz"><use xlink:href="#fy" overflow="visible"/></clipPath><g clip-path="url(#fz)"><defs><circle id="fA" cx="165.5" cy="-59" r="31"/></defs><clipPath id="fB"><use xlink:href="#fA" overflow="visible"/></clipPath><g clip-path="url(#fB)"><defs><path id="fC" d="M-296.5-429h1121V601h-1121z"/></defs></g></g></g><g><defs><circle id="fD" cx="165.5" cy="-59" r="31"/></defs><clipPath id="fE"><use xlink:href="#fD" overflow="visible"/></clipPath><g clip-path="url(#fE)"><defs><path id="fF" d="M-296.5-429h1121V601h-1121z"/></defs></g></g><g><defs><path id="fG" d="M71.8 25.7h-1.5v90h134v-90H71.8zm0 3h131l-1.5-1.5v87l1.5-1.5h-131l1.5 1.5v-87l-1.5 1.5zm-21.5-23h174v130h-174V5.7z"/></defs><clipPath id="fH"><use xlink:href="#fG" overflow="visible"/></clipPath><g clip-path="url(#fH)"><defs><path id="fI" d="M71.8 27.2h131v87h-131z"/></defs><clipPath id="fJ"><use xlink:href="#fI" overflow="visible"/></clipPath><g clip-path="url(#fJ)"><defs><path id="fK" d="M-537.2-276.8h1121v1030h-1121z"/></defs><clipPath id="fL"><use xlink:href="#fK" overflow="visible"/></clipPath><path clip-path="url(#fL)" fill-rule="evenodd" clip-rule="evenodd" fill="#FFF" d="M71.8 27.2h131v87h-131z"/></g></g></g><g><defs><path id="fM" d="M71.8 27.2h131v87h-131z"/></defs><clipPath id="fN"><use xlink:href="#fM" overflow="visible"/></clipPath><g clip-path="url(#fN)"><defs><path id="fO" d="M-537.2-276.8h1121v1030h-1121z"/></defs><clipPath id="fP"><use xlink:href="#fO" overflow="visible"/></clipPath><path clip-path="url(#fP)" fill="none" stroke="#0C1F2E" stroke-width="6" stroke-linecap="round" stroke-miterlimit="10" d="M71.8 27.2h131v87h-131z"/></g></g><g><defs><path id="fQ" d="M76.8 30.7h-1.5v80h124v-80H76.8zm0 3h121l-1.5-1.5v77l1.5-1.5h-121l1.5 1.5v-77l-1.5 1.5zm-21.5-23h164v120h-164v-120z"/></defs><clipPath id="fR"><use xlink:href="#fQ" overflow="visible"/></clipPath><g clip-path="url(#fR)"><defs><path id="fS" d="M76.8 32.2h121v77h-121z"/></defs><clipPath id="fT"><use xlink:href="#fS" overflow="visible"/></clipPath><g clip-path="url(#fT)"><defs><path id="fU" d="M-537.2-276.8h1121v1030h-1121z"/></defs><clipPath id="fV"><use xlink:href="#fU" overflow="visible"/></clipPath><path clip-path="url(#fV)" fill-rule="evenodd" clip-rule="evenodd" fill="#FFF" d="M76.8 32.2h121v77h-121z"/></g></g></g><g><defs><path id="fW" d="M76.8 32.2h121v77h-121z"/></defs><clipPath id="fX"><use xlink:href="#fW" overflow="visible"/></clipPath><g clip-path="url(#fX)"><defs><path id="fY" d="M-537.2-276.8h1121v1030h-1121z"/></defs><clipPath id="fZ"><use xlink:href="#fY" overflow="visible"/></clipPath><path clip-path="url(#fZ)" fill="none" stroke="#0C1F2E" stroke-width="6" stroke-linecap="round" stroke-miterlimit="10" d="M76.8 32.2h121v77h-121z"/></g></g><g fill="#042A3E"><path d="M97.5 52.2c0 1.1-.8 2.2-1.9 3.5l-2.7 2.9H98v1.6h-7.5v-1.3l3.9-4.2c.8-.8 1.3-1.6 1.3-2.2 0-.8-.7-1.3-1.8-1.3-.9 0-2 .5-2.9 1.3l-.7-1.4c1.1-.9 2.5-1.5 3.8-1.5 2 0 3.4 1 3.4 2.6zM108.3 54.9c0 3.4-1.6 5.3-4.5 5.3s-4.5-1.9-4.5-5.3 1.6-5.3 4.5-5.3 4.5 1.9 4.5 5.3zm-7.1 0c0 2.7.9 3.9 2.7 3.9 1.8 0 2.6-1.2 2.6-3.9s-.9-3.9-2.6-3.9c-1.9 0-2.7 1.2-2.7 3.9zM111.2 60.2v-8.9h-2.1v-1.6h3.8v10.5h-1.7zM123.2 50.4l-.7 1.3c-.6-.4-1.5-.7-2.3-.7-2 0-3 1.5-2.9 3.8.6-1 1.5-1.5 2.9-1.5 2.1 0 3.4 1.3 3.4 3.3 0 2.2-1.5 3.5-3.7 3.5-2.7 0-4.3-1.9-4.3-5.1 0-3.3 1.8-5.5 4.5-5.5 1 .1 2.2.4 3.1.9zm-5.7 6.4c0 .9.7 2 2.2 2 1.3 0 2.1-.7 2.1-2 0-1.2-.8-1.9-2.1-1.9-1.3-.1-2.2.8-2.2 1.9z"/><g><path d="M94.2 92.7V74.8H90v-4.6h9.8v22.4h-5.6zM124.1 81.4c0 7.3-3.6 11.4-9.9 11.4-6.4 0-10-4.1-10-11.4 0-7.3 3.6-11.4 10-11.4 6.4.1 9.9 4.1 9.9 11.4zm-13.9 0c0 5.1 1.2 7.2 4.1 7.2 2.8 0 4.1-2.1 4.1-7.2s-1.2-7.2-4.1-7.2c-2.9 0-4.1 2.1-4.1 7.2z"/></g></g><g><defs><path id="ga" d="M141.8 45.7h-1.5v6h47v-6h-45.5zm0 3h44l-1.5-1.5v3l1.5-1.5h-44l1.5 1.5v-3l-1.5 1.5zm-21.5-23h87v46h-87v-46z"/></defs><clipPath id="gb"><use xlink:href="#ga" overflow="visible"/></clipPath><g clip-path="url(#gb)"><defs><path id="gc" d="M141.8 47.2h44v3h-44z"/></defs><clipPath id="gd"><use xlink:href="#gc" overflow="visible"/></clipPath><g clip-path="url(#gd)"><defs><path id="ge" d="M-537.2-276.8h1121v1030h-1121z"/></defs><clipPath id="gf"><use xlink:href="#ge" overflow="visible"/></clipPath><path clip-path="url(#gf)" fill-rule="evenodd" clip-rule="evenodd" fill="#FFF" d="M141.8 47.2h44v3h-44z"/></g></g></g><g><defs><path id="gg" d="M141.8 47.2h44v3h-44z"/></defs><clipPath id="gh"><use xlink:href="#gg" overflow="visible"/></clipPath><g clip-path="url(#gh)"><defs><path id="gi" d="M-537.2-276.8h1121v1030h-1121z"/></defs><clipPath id="gj"><use xlink:href="#gi" overflow="visible"/></clipPath><path clip-path="url(#gj)" fill="none" stroke="#0C1F2E" stroke-width="6" stroke-linecap="round" stroke-miterlimit="10" d="M141.8 47.2h44v3h-44z"/></g></g><g><defs><path id="gk" d="M141.8 51.7h-1.5v6h47v-6h-45.5zm0 3h44l-1.5-1.5v3l1.5-1.5h-44l1.5 1.5v-3l-1.5 1.5zm-21.5-23h87v46h-87v-46z"/></defs><clipPath id="gl"><use xlink:href="#gk" overflow="visible"/></clipPath><g clip-path="url(#gl)"><defs><path id="gm" d="M141.8 53.2h44v3h-44z"/></defs><clipPath id="gn"><use xlink:href="#gm" overflow="visible"/></clipPath><g clip-path="url(#gn)"><defs><path id="go" d="M-537.2-276.8h1121v1030h-1121z"/></defs><clipPath id="gp"><use xlink:href="#go" overflow="visible"/></clipPath><path clip-path="url(#gp)" fill-rule="evenodd" clip-rule="evenodd" fill="#FFF" d="M141.8 53.2h44v3h-44z"/></g></g></g><g><defs><path id="gq" d="M141.8 53.2h44v3h-44z"/></defs><clipPath id="gr"><use xlink:href="#gq" overflow="visible"/></clipPath><g clip-path="url(#gr)"><defs><path id="gs" d="M-537.2-276.8h1121v1030h-1121z"/></defs><clipPath id="gt"><use xlink:href="#gs" overflow="visible"/></clipPath><path clip-path="url(#gt)" fill="none" stroke="#0C1F2E" stroke-width="6" stroke-linecap="round" stroke-miterlimit="10" d="M141.8 53.2h44v3h-44z"/></g></g><g><defs><path id="gu" d="M141.8 57.7h-1.5v6h47v-6h-45.5zm0 3h44l-1.5-1.5v3l1.5-1.5h-44l1.5 1.5v-3l-1.5 1.5zm-21.5-23h87v46h-87v-46z"/></defs><clipPath id="gv"><use xlink:href="#gu" overflow="visible"/></clipPath><g clip-path="url(#gv)"><defs><path id="gw" d="M141.8 59.2h44v3h-44z"/></defs><clipPath id="gx"><use xlink:href="#gw" overflow="visible"/></clipPath><g clip-path="url(#gx)"><defs><path id="gy" d="M-537.2-276.8h1121v1030h-1121z"/></defs><clipPath id="gz"><use xlink:href="#gy" overflow="visible"/></clipPath><path clip-path="url(#gz)" fill-rule="evenodd" clip-rule="evenodd" fill="#FFF" d="M141.8 59.2h44v3h-44z"/></g></g></g><g><defs><path id="gA" d="M141.8 59.2h44v3h-44z"/></defs><clipPath id="gB"><use xlink:href="#gA" overflow="visible"/></clipPath><g clip-path="url(#gB)"><defs><path id="gC" d="M-537.2-276.8h1121v1030h-1121z"/></defs><clipPath id="gD"><use xlink:href="#gC" overflow="visible"/></clipPath><path clip-path="url(#gD)" fill="none" stroke="#0C1F2E" stroke-width="6" stroke-linecap="round" stroke-miterlimit="10" d="M141.8 59.2h44v3h-44z"/></g></g><g><defs><path id="gE" d="M141.8 63.7h-1.5v6h47v-6h-45.5zm0 3h44l-1.5-1.5v3l1.5-1.5h-44l1.5 1.5v-3l-1.5 1.5zm-21.5-23h87v46h-87v-46z"/></defs><clipPath id="gF"><use xlink:href="#gE" overflow="visible"/></clipPath><g clip-path="url(#gF)"><defs><path id="gG" d="M141.8 65.2h44v3h-44z"/></defs><clipPath id="gH"><use xlink:href="#gG" overflow="visible"/></clipPath><g clip-path="url(#gH)"><defs><path id="gI" d="M-537.2-276.8h1121v1030h-1121z"/></defs><clipPath id="gJ"><use xlink:href="#gI" overflow="visible"/></clipPath><path clip-path="url(#gJ)" fill-rule="evenodd" clip-rule="evenodd" fill="#FFF" d="M141.8 65.2h44v3h-44z"/></g></g></g><g><defs><path id="gK" d="M141.8 65.2h44v3h-44z"/></defs><clipPath id="gL"><use xlink:href="#gK" overflow="visible"/></clipPath><g clip-path="url(#gL)"><defs><path id="gM" d="M-537.2-276.8h1121v1030h-1121z"/></defs><clipPath id="gN"><use xlink:href="#gM" overflow="visible"/></clipPath><path clip-path="url(#gN)" fill="none" stroke="#0C1F2E" stroke-width="6" stroke-linecap="round" stroke-miterlimit="10" d="M141.8 65.2h44v3h-44z"/></g></g><g><g fill="#042A3E"><path d="M144.7 88.8v.5c0 .2 0 .3-.1.4l1.1-.1v.6h-3.2v-.4c.2 0 .4 0 .6-.1s.3-.2.4-.3.2-.3.2-.5.1-.4.1-.6l.3-6.1-1.6 1-.2-.4 2.5-1.9h.4l-.5 7.9zM147.1 82.9c0-.2.1-.4.2-.7.1-.2.3-.4.5-.6s.5-.4.9-.5c.3-.1.8-.2 1.2-.2.3 0 .6 0 1 .1.3.1.6.2.8.4.2.2.4.4.6.7.1.3.2.6.2 1 0 .2 0 .5-.1.7-.1.3-.2.5-.4.8s-.5.6-.8 1c-.3.3-.8.7-1.3 1.1-.6.5-1.1.9-1.5 1.3-.4.4-.6.8-.7 1.2l3 .1h.6c.2 0 .3-.1.5-.1s.2-.2.3-.3c.1-.1.1-.3.1-.5h.4l-.2 1.8h-5.6c0-.5.1-.9.3-1.2.2-.4.4-.7.6-1s.5-.6.9-.9c.3-.3.7-.6 1-.9.3-.2.5-.5.8-.8.2-.3.4-.5.6-.8s.3-.5.4-.8c.1-.2.1-.5.1-.7 0-.2 0-.5-.1-.7-.1-.2-.1-.4-.3-.6-.1-.2-.3-.3-.5-.4-.2-.1-.4-.1-.7-.1-.2 0-.3 0-.5.1-.2 0-.3.1-.5.2-.1.1-.3.2-.4.3-.1.1-.2.2-.2.4.1.1.1.2.2.3v.5c0 .1-.1.1-.1.2-.1.1-.1.1-.2.1s-.2.1-.2.1c-.2 0-.3-.1-.4-.2-.4-.1-.5-.2-.5-.4zM154.6 89c0 .1.1.3.2.4s.2.2.4.3c.1.1.3.1.5.2.2 0 .3.1.5.1.3 0 .6-.1.9-.2s.5-.3.7-.4c.2-.2.3-.4.4-.7.1-.3.1-.6.1-.9v-.4c0-.1 0-.3-.1-.4 0-.1-.1-.3-.2-.4-.1-.1-.2-.3-.3-.4-.1-.1-.3-.2-.5-.2-.2-.1-.4-.1-.7-.1h-.9v-.6h.5c.3 0 .5 0 .7-.1.2-.1.4-.2.5-.3.1-.1.3-.2.4-.4.1-.1.2-.3.2-.4.1-.2.1-.3.1-.4v-.4c0-.2 0-.5-.1-.7 0-.2-.1-.4-.2-.5-.1-.2-.3-.3-.5-.4-.2-.1-.4-.1-.7-.1-.2 0-.4 0-.6.1-.2.1-.3.1-.5.2-.1.1-.3.2-.4.3-.1.1-.2.2-.2.3.1.1.1.2.1.3v.4c0 .1-.1.1-.1.2s-.1.1-.2.1h-.2c-.2 0-.3-.1-.4-.2-.1-.1-.2-.3-.2-.4 0-.2.1-.4.2-.6.1-.2.3-.4.5-.6.2-.2.5-.4.9-.5s.7-.2 1.2-.2c.3 0 .7 0 1 .1s.6.2.8.4c.2.2.4.4.6.7.1.3.2.6.2 1 0 .2 0 .4-.1.7-.1.2-.2.5-.4.7-.2.2-.4.4-.7.6-.3.2-.6.3-1 .4.4 0 .7.1 1.1.2s.6.3.8.5c.2.2.4.4.5.7.1.3.2.5.2.8 0 .3 0 .6-.1.9-.1.3-.2.5-.4.7-.2.2-.3.4-.6.6-.2.2-.4.3-.7.4-.2.1-.5.2-.8.3-.3.1-.5.1-.8.1-.4 0-.8-.1-1.2-.2-.3-.1-.6-.3-.8-.4-.2-.2-.4-.4-.5-.6-.1-.2-.2-.4-.2-.6 0-.2.1-.4.2-.5.1-.1.3-.2.5-.2.1 0 .2 0 .2.1.1 0 .1.1.2.1s.1.1.1.2v.5c0 .1 0-.3-.1-.2zM161.9 88.8c0 .1-.1.2-.1.3 0 .1-.1.2-.1.2 0 .1-.1.1-.1.2s-.1.1-.1.2l1-.1v.6h-2.4v-.4c.2 0 .3 0 .4-.1.1-.1.2-.2.4-.3.1-.1.2-.3.3-.5.1-.2.2-.4.3-.7l2.9-7.3h.3l2.5 7.4c0 .1.1.2.1.3 0 .1.1.2.1.3 0 .1.1.2.1.4v.4l.8-.1v.6h-2.9v-.4c.2 0 .3 0 .4-.1s.2-.1.2-.1c.1-.1.1-.1.1-.2v-.2-.3c0-.1 0-.2-.1-.3l-.4-1.2-3.3.1-.4 1.3zm1.8-4.7c-.2.6-.4 1.1-.6 1.5s-.3.8-.5 1.2h3l-1.4-4.2-.5 1.5zM170.3 82.7v-.6c0-.2 0-.3.1-.4l-1 .1v-.6h2.9c.5 0 .9 0 1.3.1s.7.2 1 .4c.3.2.5.4.6.6.1.3.2.6.2.9 0 .2 0 .5-.1.7-.1.2-.2.4-.4.7s-.4.4-.7.5-.6.3-1 .3c.5 0 .9.1 1.2.2.3.1.6.3.8.5.2.2.4.4.5.7.1.3.2.6.2.9 0 .4-.1.8-.2 1.1-.2.3-.4.6-.7.8-.3.2-.6.4-1 .5-.4.1-.8.2-1.3.2H169v-.4c.2 0 .4 0 .6-.1l.3-.3c.1-.1.1-.3.1-.5v-.7l.3-5.6zm.7 7H172.4c.4 0 .7 0 1-.1.3-.1.5-.2.7-.4.2-.2.4-.4.5-.7s.2-.6.2-.9c0-.4-.1-.6-.2-.9-.1-.2-.3-.4-.5-.6-.2-.1-.4-.2-.7-.3-.3-.1-.5-.1-.8-.1H171.3l-.2 2.9v.6c0 .2-.1.4-.1.5zm1.4-8.1c-.2 0-.4 0-.5.1-.1 0-.2.1-.3.2-.1.1-.1.2-.2.4 0 .2-.1.4-.1.6l-.1 2.4h1c.4 0 .7-.1 1-.2.3-.1.5-.3.6-.5s.3-.4.4-.6c.1-.2.1-.5.1-.7 0-.3-.1-.6-.2-.8s-.3-.4-.4-.5-.4-.2-.6-.2c-.2-.2-.5-.2-.7-.2zM185.1 88.6c-.3.4-.6.7-.9.9s-.7.4-1 .6-.7.2-1 .3c-.3.1-.6.1-.9.1-.6 0-1.2-.1-1.7-.3-.5-.2-.9-.5-1.3-.9s-.6-.8-.8-1.4c-.2-.5-.3-1.1-.3-1.7 0-.4 0-.8.1-1.3s.2-.8.4-1.2.4-.7.7-1.1l.9-.9c.3-.2.7-.4 1.2-.6.4-.1.9-.2 1.4-.2.5 0 1 .1 1.4.2.4.1.8.3 1.2.6V81h.7l-.2 3h-.5c0-.4-.1-.8-.2-1.1-.1-.3-.3-.6-.5-.8-.2-.2-.5-.4-.8-.5s-.6-.2-1-.2c-.5 0-.9.1-1.4.3-.4.2-.8.5-1.1.9-.3.4-.6.9-.8 1.4-.2.6-.3 1.2-.3 1.8 0 .6.1 1.1.3 1.6s.4.9.7 1.2c.3.3.6.6 1 .8.4.2.8.3 1.3.3.3 0 .6 0 .8-.1.3-.1.6-.2.8-.3s.5-.3.8-.5c.2-.2.5-.4.6-.6l.4.4z"/></g></g><g><defs><path id="gO" d="M-216 188.2h-1.2v71.5h131.7v-71.5H-216zm0 2.4h129.3l-1.2-1.2v69.1l1.2-1.2H-216l1.2 1.2v-69.1l-1.2 1.2zm-17.3-18.5h163.9v103.6h-163.9V172.1z"/></defs><clipPath id="gP"><use xlink:href="#gO" overflow="visible"/></clipPath><g clip-path="url(#gP)"><defs><path id="gQ" d="M-216 189.4h129.3v69.1H-216z"/></defs><clipPath id="gR"><use xlink:href="#gQ" overflow="visible"/></clipPath><g clip-path="url(#gR)"><defs><path id="gS" d="M-295.1-215.9h900.5v827.4h-900.5z"/></defs></g></g></g><g><defs><path id="gT" d="M-216 189.4h129.3v69.1H-216z"/></defs><clipPath id="gU"><use xlink:href="#gT" overflow="visible"/></clipPath><g clip-path="url(#gU)"><defs><path id="gV" d="M-295.1-215.9h900.5v827.4h-900.5z"/></defs></g></g><g><defs><path id="gW" d="M-209.6 194.6h-1.2V252.4h118.9V194.6H-111.4l-.3.2-6.5 4.8.7-.2h-66.7l.8.3-5.9-4.8-.3-.3h-20zm0 2.4h19.4l-.8-.3 5.9 4.8.3.3H-117.3l.3-.2 6.5-4.8-.7.2h17.9l-1.2-1.2v55.4l1.2-1.2h-116.5l1.2 1.2v-55.4l-1 1.2zm-17.3-18.5h151v90h-151v-90z"/></defs><clipPath id="gX"><use xlink:href="#gW" overflow="visible"/></clipPath><g clip-path="url(#gX)"><defs><path id="gY" d="M-209.6 195.8h19.5l5.9 4.8h66.7l6.5-4.8h17.9v55.4h-116.5z"/></defs><clipPath id="gZ"><use xlink:href="#gY" overflow="visible"/></clipPath><g clip-path="url(#gZ)"><defs><path id="ha" d="M-295.1-215.9h900.5v827.4h-900.5z"/></defs></g></g></g><g><defs><path id="hb" d="M-209.6 195.8h19.5l5.9 4.8h66.7l6.5-4.8h17.9v55.4h-116.5z"/></defs><clipPath id="hc"><use xlink:href="#hb" overflow="visible"/></clipPath><g clip-path="url(#hc)"><defs><path id="hd" d="M-295.1-215.9h900.5v827.4h-900.5z"/></defs></g></g><g><defs><path id="he" d="M-181.5 195h5.6v2.4h-5.6z"/></defs><clipPath id="hf"><use xlink:href="#he" overflow="visible"/></clipPath><g clip-path="url(#hf)"><defs><path id="hg" d="M-295.1-215.9h900.5v827.4h-900.5z"/></defs></g></g><g><defs><path id="hh" d="M-125.2 195h5.6v2.4h-5.6z"/></defs><clipPath id="hi"><use xlink:href="#hh" overflow="visible"/></clipPath><g clip-path="url(#hi)"><defs><path id="hj" d="M-295.1-215.9h900.5v827.4h-900.5z"/></defs></g></g><g><defs><path id="hk" d="M-525.8 210.2h-1.5v38h142v-25.1l-.4-.4-11.4-12-.4-.5h-128.3zm0 3h127.6l-1.1-.5 11.4 12-.4-1v23l1.5-1.5h-139l1.5 1.5v-35l-1.5 1.5zm-21.5-23h182v78h-182v-78z"/></defs><clipPath id="hl"><use xlink:href="#hk" overflow="visible"/></clipPath><g clip-path="url(#hl)"><defs><path id="hm" d="M-525.8 211.7h127.6l11.4 12v23h-139z"/></defs><clipPath id="hn"><use xlink:href="#hm" overflow="visible"/></clipPath><g clip-path="url(#hn)"><defs><path id="ho" d="M-897.8-323.3h1121v1030h-1121z"/></defs></g></g></g><g><defs><path id="hp" d="M-525.8 211.7h127.6l11.4 12v23h-139z"/></defs><clipPath id="hq"><use xlink:href="#hp" overflow="visible"/></clipPath><g clip-path="url(#hq)"><defs><path id="hr" d="M-897.8-323.3h1121v1030h-1121z"/></defs></g></g><g><defs><path id="hs" d="M-492.8 261.6c-8 0-14.5-6.5-14.5-14.5s6.5-14.5 14.5-14.5 14.5 6.5 14.5 14.5-6.4 14.5-14.5 14.5zm0 3c9.7 0 17.5-7.8 17.5-17.5s-7.8-17.5-17.5-17.5-17.5 7.8-17.5 17.5 7.9 17.5 17.5 17.5zm-37.5-55h75v75h-75v-75z"/></defs><clipPath id="ht"><use xlink:href="#hs" overflow="visible"/></clipPath><g clip-path="url(#ht)"><defs><circle id="hu" cx="-492.8" cy="247.1" r="16"/></defs><clipPath id="hv"><use xlink:href="#hu" overflow="visible"/></clipPath><g clip-path="url(#hv)"><defs><path id="hw" d="M-897.8-323.3h1121v1030h-1121z"/></defs></g></g></g><g><defs><circle id="hx" cx="-492.8" cy="247.1" r="16"/></defs><clipPath id="hy"><use xlink:href="#hx" overflow="visible"/></clipPath><g clip-path="url(#hy)"><defs><path id="hz" d="M-897.8-323.3h1121v1030h-1121z"/></defs></g></g><g><defs><path id="hA" d="M-492.8 254.6c-4.1 0-7.5-3.4-7.5-7.5s3.4-7.5 7.5-7.5 7.5 3.4 7.5 7.5c0 4.2-3.3 7.5-7.5 7.5zm0 3c5.8 0 10.5-4.7 10.5-10.5s-4.7-10.5-10.5-10.5-10.5 4.7-10.5 10.5 4.7 10.5 10.5 10.5zm-30.5-41h61v61h-61v-61z"/></defs><clipPath id="hB"><use xlink:href="#hA" overflow="visible"/></clipPath><g clip-path="url(#hB)"><defs><circle id="hC" cx="-492.8" cy="247.1" r="9"/></defs><clipPath id="hD"><use xlink:href="#hC" overflow="visible"/></clipPath><g clip-path="url(#hD)"><defs><path id="hE" d="M-897.8-323.3h1121v1030h-1121z"/></defs></g></g></g><g><defs><circle id="hF" cx="-492.8" cy="247.1" r="9"/></defs><clipPath id="hG"><use xlink:href="#hF" overflow="visible"/></clipPath><g clip-path="url(#hG)"><defs><path id="hH" d="M-897.8-323.3h1121v1030h-1121z"/></defs></g></g><g><defs><path id="hI" d="M-426.5 261.6c-8 0-14.5-6.5-14.5-14.5s6.5-14.5 14.5-14.5 14.5 6.5 14.5 14.5-6.5 14.5-14.5 14.5zm0 3c9.7 0 17.5-7.8 17.5-17.5s-7.8-17.5-17.5-17.5-17.5 7.8-17.5 17.5 7.8 17.5 17.5 17.5zm-37.5-55h75v75h-75v-75z"/></defs><clipPath id="hJ"><use xlink:href="#hI" overflow="visible"/></clipPath><g clip-path="url(#hJ)"><defs><circle id="hK" cx="-426.5" cy="247.1" r="16"/></defs><clipPath id="hL"><use xlink:href="#hK" overflow="visible"/></clipPath><g clip-path="url(#hL)"><defs><path id="hM" d="M-897.8-323.3h1121v1030h-1121z"/></defs></g></g></g><g><defs><circle id="hN" cx="-426.5" cy="247.1" r="16"/></defs><clipPath id="hO"><use xlink:href="#hN" overflow="visible"/></clipPath><g clip-path="url(#hO)"><defs><path id="hP" d="M-897.8-323.3h1121v1030h-1121z"/></defs></g></g><g><defs><path id="hQ" d="M-426.3 206.8l-7.7-15.6h-27.2v15.6h34.9zm-75.2 0l7.4-15.6h27.2v15.6h-34.6zm-10.3 5.3l14.1-26.9h66.8l15.3 27.9-96.2-1z"/></defs><clipPath id="hR"><use xlink:href="#hQ" overflow="visible"/></clipPath><g clip-path="url(#hR)"><defs><path id="hS" d="M-897.8-323.3h1121v1030h-1121z"/></defs></g></g><g><defs><path id="hT" d="M-426.5 254.6c-4.1 0-7.5-3.4-7.5-7.5s3.4-7.5 7.5-7.5 7.5 3.4 7.5 7.5c0 4.2-3.4 7.5-7.5 7.5zm0 3c5.8 0 10.5-4.7 10.5-10.5s-4.7-10.5-10.5-10.5-10.5 4.7-10.5 10.5 4.7 10.5 10.5 10.5zm-30.5-41h61v61h-61v-61z"/></defs><clipPath id="hU"><use xlink:href="#hT" overflow="visible"/></clipPath><g clip-path="url(#hU)"><defs><circle id="hV" cx="-426.5" cy="247.1" r="9"/></defs><clipPath id="hW"><use xlink:href="#hV" overflow="visible"/></clipPath><g clip-path="url(#hW)"><defs><path id="hX" d="M-897.8-323.3h1121v1030h-1121z"/></defs></g></g></g><g><defs><circle id="hY" cx="-426.5" cy="247.1" r="9"/></defs><clipPath id="hZ"><use xlink:href="#hY" overflow="visible"/></clipPath><g clip-path="url(#hZ)"><defs><path id="ia" d="M-897.8-323.3h1121v1030h-1121z"/></defs></g></g><g><defs><path id="ib" d="M-211.8 32.5h-1.5v84h108v-84h-106.5zm0 3h105l-1.5-1.5v81l1.5-1.5h-105l1.5 1.5V34l-1.5 1.5zm-21.5-23h148v124h-148v-124z"/></defs><clipPath id="ic"><use xlink:href="#ib" overflow="visible"/></clipPath><g clip-path="url(#ic)"><defs><path id="id" d="M-211.8 34h105v81h-105z"/></defs><clipPath id="ie"><use xlink:href="#id" overflow="visible"/></clipPath><g clip-path="url(#ie)"><defs><path id="if" d="M-1092.8-465h1121V565h-1121z"/></defs></g></g></g><g><defs><path id="ig" d="M-211.8 34h105v81h-105z"/></defs><clipPath id="ih"><use xlink:href="#ig" overflow="visible"/></clipPath><g clip-path="url(#ih)"><defs><path id="ii" d="M-1092.8-465h1121V565h-1121z"/></defs></g></g><g><defs><path id="ij" d="M-217.8 49.5h-2.2l.9-2.1 9.1-22 .4-.9h100.9l.4.9 9.1 22 .9 2.1h-119.5zm0-3h117l-1.4 2.1-9.1-22 1.4.9h-98.9l1.4-.9-9.1 22-1.3-2.1zm-22.2 23h161.5v-65H-240v65z"/></defs><clipPath id="ik"><use xlink:href="#ij" overflow="visible"/></clipPath><g clip-path="url(#ik)"><defs><path id="il" d="M-217.8 48h117l-9.1-22h-98.8z"/></defs><clipPath id="im"><use xlink:href="#il" overflow="visible"/></clipPath><g clip-path="url(#im)"><defs><path id="in" d="M-1092.8-465h1121V565h-1121z"/></defs></g></g></g><g><defs><path id="io" d="M-217.8 48h117l-9.1-22h-98.8z"/></defs><clipPath id="ip"><use xlink:href="#io" overflow="visible"/></clipPath><g clip-path="url(#ip)"><defs><path id="iq" d="M-1092.8-465h1121V565h-1121z"/></defs></g></g><g><defs><path id="ir" d="M-132.8 16.5h-1.5v19h15v-19h-13.5zm0 3h12l-1.5-1.5v16l1.5-1.5h-12l1.5 1.5V18l-1.5 1.5zm-21.5-23h55v59h-55v-59z"/></defs><clipPath id="is"><use xlink:href="#ir" overflow="visible"/></clipPath><g clip-path="url(#is)"><defs><path id="it" d="M-132.8 18h12v16h-12z"/></defs><clipPath id="iu"><use xlink:href="#it" overflow="visible"/></clipPath><g clip-path="url(#iu)"><defs><path id="iv" d="M-1092.8-465h1121V565h-1121z"/></defs></g></g></g><g><defs><path id="iw" d="M-132.8 18h12v16h-12z"/></defs><clipPath id="ix"><use xlink:href="#iw" overflow="visible"/></clipPath><g clip-path="url(#ix)"><defs><path id="iy" d="M-1092.8-465h1121V565h-1121z"/></defs></g></g><g><defs><path id="iz" d="M-198.8 82.5h-1.5v34h24v-34h-22.5zm0 3h21l-1.5-1.5v31l1.5-1.5h-21l1.5 1.5V84l-1.5 1.5zm-21.5-23h64v74h-64v-74z"/></defs><clipPath id="iA"><use xlink:href="#iz" overflow="visible"/></clipPath><g clip-path="url(#iA)"><defs><path id="iB" d="M-198.8 84h21v31h-21z"/></defs><clipPath id="iC"><use xlink:href="#iB" overflow="visible"/></clipPath><g clip-path="url(#iC)"><defs><path id="iD" d="M-1092.8-465h1121V565h-1121z"/></defs></g></g></g><g><defs><path id="iE" d="M-198.8 84h21v31h-21z"/></defs><clipPath id="iF"><use xlink:href="#iE" overflow="visible"/></clipPath><g clip-path="url(#iF)"><defs><path id="iG" d="M-1092.8-465h1121V565h-1121z"/></defs></g></g><g><defs><path id="iH" d="M-197.8 54.5h-1.5v22h22v-22h-20.5zm0 3h19l-1.5-1.5v19l1.5-1.5h-19l1.5 1.5V56l-1.5 1.5zm-21.5-23h62v62h-62v-62z"/></defs><clipPath id="iI"><use xlink:href="#iH" overflow="visible"/></clipPath><g clip-path="url(#iI)"><defs><path id="iJ" d="M-197.8 56h19v19h-19z"/></defs><clipPath id="iK"><use xlink:href="#iJ" overflow="visible"/></clipPath><g clip-path="url(#iK)"><defs><path id="iL" d="M-1092.8-465h1121V565h-1121z"/></defs></g></g></g><g><defs><path id="iM" d="M-197.8 56h19v19h-19z"/></defs><clipPath id="iN"><use xlink:href="#iM" overflow="visible"/></clipPath><g clip-path="url(#iN)"><defs><path id="iO" d="M-1092.8-465h1121V565h-1121z"/></defs></g></g><g><defs><path id="iP" d="M-192.8 59.5h-1.5v12h12v-12h-10.5zm0 3h9l-1.5-1.5v9l1.5-1.5h-9l1.5 1.5v-9l-1.5 1.5zm-21.5-23h52v52h-52v-52z"/></defs><clipPath id="iQ"><use xlink:href="#iP" overflow="visible"/></clipPath><g clip-path="url(#iQ)"><defs><path id="iR" d="M-192.8 61h9v9h-9z"/></defs><clipPath id="iS"><use xlink:href="#iR" overflow="visible"/></clipPath><g clip-path="url(#iS)"><defs><path id="iT" d="M-1092.8-465h1121V565h-1121z"/></defs></g></g></g><g><defs><path id="iU" d="M-192.8 61h9v9h-9z"/></defs><clipPath id="iV"><use xlink:href="#iU" overflow="visible"/></clipPath><g clip-path="url(#iV)"><defs><path id="iW" d="M-1092.8-465h1121V565h-1121z"/></defs></g></g><g><defs><path id="iX" d="M-167.8 54.5h-1.5v22h22v-22h-20.5zm0 3h19l-1.5-1.5v19l1.5-1.5h-19l1.5 1.5V56l-1.5 1.5zm-21.5-23h62v62h-62v-62z"/></defs><clipPath id="iY"><use xlink:href="#iX" overflow="visible"/></clipPath><g clip-path="url(#iY)"><defs><path id="iZ" d="M-167.8 56h19v19h-19z"/></defs><clipPath id="ja"><use xlink:href="#iZ" overflow="visible"/></clipPath><g clip-path="url(#ja)"><defs><path id="jb" d="M-1092.8-465h1121V565h-1121z"/></defs></g></g></g><g><defs><path id="jc" d="M-167.8 56h19v19h-19z"/></defs><clipPath id="jd"><use xlink:href="#jc" overflow="visible"/></clipPath><g clip-path="url(#jd)"><defs><path id="je" d="M-1092.8-465h1121V565h-1121z"/></defs></g></g><g><defs><path id="jf" d="M-138.8 54.5h-1.5v22h22v-22h-20.5zm0 3h19l-1.5-1.5v19l1.5-1.5h-19l1.5 1.5V56l-1.5 1.5zm-21.5-23h62v62h-62v-62z"/></defs><clipPath id="jg"><use xlink:href="#jf" overflow="visible"/></clipPath><g clip-path="url(#jg)"><defs><path id="jh" d="M-138.8 56h19v19h-19z"/></defs><clipPath id="ji"><use xlink:href="#jh" overflow="visible"/></clipPath><g clip-path="url(#ji)"><defs><path id="jj" d="M-1092.8-465h1121V565h-1121z"/></defs></g></g></g><g><defs><path id="jk" d="M-138.8 56h19v19h-19z"/></defs><clipPath id="jl"><use xlink:href="#jk" overflow="visible"/></clipPath><g clip-path="url(#jl)"><defs><path id="jm" d="M-1092.8-465h1121V565h-1121z"/></defs></g></g><g><defs><path id="jn" d="M-167.8 82.5h-1.5v22h22v-22h-20.5zm0 3h19l-1.5-1.5v19l1.5-1.5h-19l1.5 1.5V84l-1.5 1.5zm-21.5-23h62v62h-62v-62z"/></defs><clipPath id="jo"><use xlink:href="#jn" overflow="visible"/></clipPath><g clip-path="url(#jo)"><defs><path id="jp" d="M-167.8 84h19v19h-19z"/></defs><clipPath id="jq"><use xlink:href="#jp" overflow="visible"/></clipPath><g clip-path="url(#jq)"><defs><path id="jr" d="M-1092.8-465h1121V565h-1121z"/></defs></g></g></g><g><defs><path id="js" d="M-167.8 84h19v19h-19z"/></defs><clipPath id="jt"><use xlink:href="#js" overflow="visible"/></clipPath><g clip-path="url(#jt)"><defs><path id="ju" d="M-1092.8-465h1121V565h-1121z"/></defs></g></g><g><defs><path id="jv" d="M-138.8 82.5h-1.5v22h22v-22h-20.5zm0 3h19l-1.5-1.5v19l1.5-1.5h-19l1.5 1.5V84l-1.5 1.5zm-21.5-23h62v62h-62v-62z"/></defs><clipPath id="jw"><use xlink:href="#jv" overflow="visible"/></clipPath><g clip-path="url(#jw)"><defs><path id="jx" d="M-138.8 84h19v19h-19z"/></defs><clipPath id="jy"><use xlink:href="#jx" overflow="visible"/></clipPath><g clip-path="url(#jy)"><defs><path id="jz" d="M-1092.8-465h1121V565h-1121z"/></defs></g></g></g><g><defs><path id="jA" d="M-138.8 84h19v19h-19z"/></defs><clipPath id="jB"><use xlink:href="#jA" overflow="visible"/></clipPath><g clip-path="url(#jB)"><defs><path id="jC" d="M-1092.8-465h1121V565h-1121z"/></defs></g></g><g><defs><path id="jD" d="M-162.8 59.5h-1.5v12h12v-12h-10.5zm0 3h9l-1.5-1.5v9l1.5-1.5h-9l1.5 1.5v-9l-1.5 1.5zm-21.5-23h52v52h-52v-52z"/></defs><clipPath id="jE"><use xlink:href="#jD" overflow="visible"/></clipPath><g clip-path="url(#jE)"><defs><path id="jF" d="M-162.8 61h9v9h-9z"/></defs><clipPath id="jG"><use xlink:href="#jF" overflow="visible"/></clipPath><g clip-path="url(#jG)"><defs><path id="jH" d="M-1092.8-465h1121V565h-1121z"/></defs></g></g></g><g><defs><path id="jI" d="M-162.8 61h9v9h-9z"/></defs><clipPath id="jJ"><use xlink:href="#jI" overflow="visible"/></clipPath><g clip-path="url(#jJ)"><defs><path id="jK" d="M-1092.8-465h1121V565h-1121z"/></defs></g></g><g><defs><path id="jL" d="M-133.8 59.5h-1.5v12h12v-12h-10.5zm0 3h9l-1.5-1.5v9l1.5-1.5h-9l1.5 1.5v-9l-1.5 1.5zm-21.5-23h52v52h-52v-52z"/></defs><clipPath id="jM"><use xlink:href="#jL" overflow="visible"/></clipPath><g clip-path="url(#jM)"><defs><path id="jN" d="M-133.8 61h9v9h-9z"/></defs><clipPath id="jO"><use xlink:href="#jN" overflow="visible"/></clipPath><g clip-path="url(#jO)"><defs><path id="jP" d="M-1092.8-465h1121V565h-1121z"/></defs></g></g></g><g><defs><path id="jQ" d="M-133.8 61h9v9h-9z"/></defs><clipPath id="jR"><use xlink:href="#jQ" overflow="visible"/></clipPath><g clip-path="url(#jR)"><defs><path id="jS" d="M-1092.8-465h1121V565h-1121z"/></defs></g></g><g><defs><path id="jT" d="M-162.8 87.5h-1.5v12h12v-12h-10.5zm0 3h9l-1.5-1.5v9l1.5-1.5h-9l1.5 1.5v-9l-1.5 1.5zm-21.5-23h52v52h-52v-52z"/></defs><clipPath id="jU"><use xlink:href="#jT" overflow="visible"/></clipPath><g clip-path="url(#jU)"><defs><path id="jV" d="M-162.8 89h9v9h-9z"/></defs><clipPath id="jW"><use xlink:href="#jV" overflow="visible"/></clipPath><g clip-path="url(#jW)"><defs><path id="jX" d="M-1092.8-465h1121V565h-1121z"/></defs></g></g></g><g><defs><path id="jY" d="M-162.8 89h9v9h-9z"/></defs><clipPath id="jZ"><use xlink:href="#jY" overflow="visible"/></clipPath><g clip-path="url(#jZ)"><defs><path id="ka" d="M-1092.8-465h1121V565h-1121z"/></defs></g></g><g><defs><path id="kb" d="M-133.8 87.5h-1.5v12h12v-12h-10.5zm0 3h9l-1.5-1.5v9l1.5-1.5h-9l1.5 1.5v-9l-1.5 1.5zm-21.5-23h52v52h-52v-52z"/></defs><clipPath id="kc"><use xlink:href="#kb" overflow="visible"/></clipPath><g clip-path="url(#kc)"><defs><path id="kd" d="M-133.8 89h9v9h-9z"/></defs><clipPath id="ke"><use xlink:href="#kd" overflow="visible"/></clipPath><g clip-path="url(#ke)"><defs><path id="kf" d="M-1092.8-465h1121V565h-1121z"/></defs></g></g></g><g><defs><path id="kg" d="M-133.8 89h9v9h-9z"/></defs><clipPath id="kh"><use xlink:href="#kg" overflow="visible"/></clipPath><g clip-path="url(#kh)"><defs><path id="ki" d="M-1092.8-465h1121V565h-1121z"/></defs></g></g><g><defs><path id="kj" d="M-454.6-39.5c-27.1 0-49-21.9-49-49s21.9-49 49-49 49 21.9 49 49-21.9 49-49 49zm0 3c28.7 0 52-23.3 52-52s-23.3-52-52-52-52 23.3-52 52 23.3 52 52 52zm-72-124h144v144h-144v-144z"/></defs><clipPath id="kk"><use xlink:href="#kj" overflow="visible"/></clipPath><g clip-path="url(#kk)"><defs><circle id="kl" cx="-454.6" cy="-88.5" r="50.5"/></defs><clipPath id="km"><use xlink:href="#kl" overflow="visible"/></clipPath><g clip-path="url(#km)"><defs><path id="kn" d="M-629.1-824.5h1121v1030h-1121z"/></defs></g></g></g><g><defs><circle id="ko" cx="-454.6" cy="-88.5" r="50.5"/></defs><clipPath id="kp"><use xlink:href="#ko" overflow="visible"/></clipPath><g clip-path="url(#kp)"><defs><path id="kq" d="M-629.1-824.5h1121v1030h-1121z"/></defs></g></g><g><defs><circle id="kr" cx="-454.6" cy="-88.5" r="43.5"/></defs><clipPath id="ks"><use xlink:href="#kr" overflow="visible"/></clipPath><g clip-path="url(#ks)"><defs><path id="kt" d="M-629.1-824.5h1121v1030h-1121z"/></defs></g></g><g><defs><path id="ku" d="M-461.1-112.5h-1.7l.2 1.6 3.1 32 .1 1.4h11.4l.1-1.4 2.3-32 .1-1.6h-15.6zm0 3h14l-1.5-1.6-2.3 32 1.5-1.4h-8.6l1.5 1.4-3.1-32-1.5 1.6zm-21.6-23h57.3v75h-57.3v-75z"/></defs><clipPath id="kv"><use xlink:href="#ku" overflow="visible"/></clipPath><g clip-path="url(#kv)"><defs><path id="kw" d="M-461.1-111h14l-2.3 32h-8.5z"/></defs><clipPath id="kx"><use xlink:href="#kw" overflow="visible"/></clipPath><g clip-path="url(#kx)"><defs><path id="ky" d="M-629.1-824.5h1121v1030h-1121z"/></defs></g></g></g><g><defs><path id="kz" d="M-461.1-110.7h14l-2.3 32h-8.5z"/></defs><clipPath id="kA"><use xlink:href="#kz" overflow="visible"/></clipPath><g clip-path="url(#kA)"><defs><path id="kB" d="M-629.1-824.2h1121v1030h-1121z"/></defs></g></g><g><defs><path id="kC" d="M-453.6-65.5c-2.2 0-4-1.8-4-4s1.8-4 4-4 4 1.8 4 4-1.8 4-4 4zm0 3c3.9 0 7-3.1 7-7s-3.1-7-7-7-7 3.1-7 7 3.2 7 7 7zm-27-34h54v54h-54v-54z"/></defs><clipPath id="kD"><use xlink:href="#kC" overflow="visible"/></clipPath><g clip-path="url(#kD)"><defs><circle id="kE" cx="-453.6" cy="-69.5" r="5.5"/></defs><clipPath id="kF"><use xlink:href="#kE" overflow="visible"/></clipPath><g clip-path="url(#kF)"><defs><path id="kG" d="M-629.1-824.5h1121v1030h-1121z"/></defs></g></g></g><g><defs><circle id="kH" cx="-453.6" cy="-69.2" r="5.5"/></defs><clipPath id="kI"><use xlink:href="#kH" overflow="visible"/></clipPath><g clip-path="url(#kI)"><defs><path id="kJ" d="M-629.1-824.2h1121v1030h-1121z"/></defs></g></g><g><defs><path id="kK" d="M365.1-132h-1.5v90h134v-90H365.1zm0 3h131l-1.5-1.5v87l1.5-1.5h-131l1.5 1.5v-87l-1.5 1.5zm-21.5-23h174v130h-174v-130z"/></defs><clipPath id="kL"><use xlink:href="#kK" overflow="visible"/></clipPath><g clip-path="url(#kL)"><defs><path id="kM" d="M365.1-130.5h131v87h-131z"/></defs><clipPath id="kN"><use xlink:href="#kM" overflow="visible"/></clipPath><g clip-path="url(#kN)"><defs><path id="kO" d="M-510.9-831.5h1121v1030h-1121z"/></defs></g></g></g><g><defs><path id="kP" d="M365.1-130.5h131v87h-131z"/></defs><clipPath id="kQ"><use xlink:href="#kP" overflow="visible"/></clipPath><g clip-path="url(#kQ)"><defs><path id="kR" d="M-510.9-831.5h1121v1030h-1121z"/></defs></g></g><g><defs><path id="kS" d="M469.1-123h-1.5v23h21v-23h-19.5zm0 3h18l-1.5-1.5v20l1.5-1.5h-18l1.5 1.5v-20l-1.5 1.5zm-21.5-23h61v63h-61v-63z"/></defs><clipPath id="kT"><use xlink:href="#kS" overflow="visible"/></clipPath><g clip-path="url(#kT)"><defs><path id="kU" d="M469.1-121.5h18v20h-18z"/></defs><clipPath id="kV"><use xlink:href="#kU" overflow="visible"/></clipPath><g clip-path="url(#kV)"><defs><path id="kW" d="M-510.9-831.5h1121v1030h-1121z"/></defs></g></g></g><g><defs><path id="kX" d="M469.1-121.5h18v20h-18z"/></defs><clipPath id="kY"><use xlink:href="#kX" overflow="visible"/></clipPath><g clip-path="url(#kY)"><defs><path id="kZ" d="M-510.9-831.5h1121v1030h-1121z"/></defs></g></g><g><defs><path id="la" d="M474.1-118h-1.5v13h11v-13h-9.5zm0 3h8l-1.5-1.5v10l1.5-1.5h-8l1.5 1.5v-10l-1.5 1.5zm-21.5-23h51v53h-51v-53z"/></defs><clipPath id="lb"><use xlink:href="#la" overflow="visible"/></clipPath><g clip-path="url(#lb)"><defs><path id="lc" d="M474.1-116.5h8v10h-8z"/></defs><clipPath id="ld"><use xlink:href="#lc" overflow="visible"/></clipPath><g clip-path="url(#ld)"><defs><path id="le" d="M-510.9-831.5h1121v1030h-1121z"/></defs></g></g></g><g><defs><path id="lf" d="M474.1-116.5h8v10h-8z"/></defs><clipPath id="lg"><use xlink:href="#lf" overflow="visible"/></clipPath><g clip-path="url(#lg)"><defs><path id="lh" d="M-510.9-831.5h1121v1030h-1121z"/></defs></g></g><g><defs><path id="li" d="M-433.9 54.2l.2 3c8.3-.7 15.9-2.1 21.4-3.8 2.5-.7 4.4-1.5 5.5-2.2 1.8-1.1 2.5-3 .4-4.1-8.1-4.3-23.9-7.1-41.3-7.1-17.2 0-32.8 2.7-41 6.9-1.8.9-1.5 2.7 0 3.9.9.7 2.4 1.4 4.4 2.1 4.3 1.5 10.5 2.8 17.5 3.7l.3-3c-21.2-2.3-35.5-8.1-35.5-13.8 0-7.7 24.7-14.8 55-14.8s55 7.1 55 14.8c-.1 6.4-17.6 12.7-41.9 14.4zm.2 3c26-1.8 44.7-8.5 44.7-17.4 0-10.3-25.9-17.8-58-17.8s-58 7.5-58 17.8c0 8.1 15.4 14.4 38.2 16.8l.3-3c-6.9-.9-12.9-2.2-16.9-3.6-1.7-.6-3-1.2-3.6-1.6-.1-.1-.1-.1-.2-.1 0 .1.1.2.1.3.1.5-.2.8-.4.9 7.7-4 22.9-6.6 39.7-6.6 17 0 32.3 2.6 39.9 6.7-.1 0-.2-.1-.3-.3-.1-.3-.2-.6-.1-.9 0-.1.1-.2.1-.2-.1.1-.2.2-.4.3-.9.5-2.5 1.2-4.8 1.9-5.2 1.6-12.6 2.9-20.8 3.6l.5 3.2zM-525.1 2h156v75.2h-156V2z"/></defs><clipPath id="lj"><use xlink:href="#li" overflow="visible"/></clipPath><g clip-path="url(#lj)"><defs><path id="lk" d="M-433.8 55.7c24.8-1.7 43.3-8.2 43.3-15.9 0-9-25.3-16.3-56.5-16.3s-56.5 7.3-56.5 16.3c0 7 15.3 13 36.9 15.3-14.9-1.9-24-5.5-21.4-6.9 7.8-4 22.9-6.8 40.4-6.8 17.6 0 32.9 2.8 40.6 6.9 2.6 1.5-9 5.8-26.8 7.4z"/></defs><clipPath id="ll"><use xlink:href="#lk" overflow="visible"/></clipPath><g clip-path="url(#ll)"><defs><path id="lm" d="M-621.6-843h1121V187h-1121z"/></defs></g></g></g><g><defs><path id="ln" d="M-433.8 55.7c24.8-1.7 43.3-8.2 43.3-15.9 0-9-25.3-16.3-56.5-16.3s-56.5 7.3-56.5 16.3c0 7 15.3 13 36.9 15.3-14.9-1.9-24-5.5-21.4-6.9 7.8-4 22.9-6.8 40.4-6.8 17.6 0 32.9 2.8 40.6 6.9 2.6 1.5-9 5.8-26.8 7.4z"/></defs><clipPath id="lo"><use xlink:href="#ln" overflow="visible"/></clipPath><g clip-path="url(#lo)"><defs><path id="lp" d="M-621.6-843h1121V187h-1121z"/></defs></g></g><g><defs><path id="lq" d="M-447.1 76c-30.3 0-55-7.1-55-14.8v-22l-2.8.8c.3.6 1.1 1.4 2.4 2.4 2 1.6 4.9 3.2 8.6 4.7 10.5 4.1 26.3 6.6 48.5 6.6 19.8 0 34.5-2.6 44.8-7.1 3.7-1.6 6.5-3.3 8.6-5 1.3-1.1 2.1-1.9 2.5-2.5l-2.7-.9v23c.1 7.7-24.6 14.8-54.9 14.8zm0 3c32.1 0 58-7.5 58-17.8V33.5l-2.7 3.8c0 .1-.2.2-.4.4-.4.4-.9.9-1.6 1.4-1.9 1.5-4.5 3.1-8 4.6-9.9 4.3-24.2 6.8-43.6 6.8-21.8 0-37.3-2.4-47.4-6.4-3.5-1.4-6.1-2.8-7.9-4.2-1-.8-1.5-1.4-1.7-1.6l-2.8-4.5v27.3c.1 10.4 26 17.9 58.1 17.9zm-78-65.5h156V99h-156V13.5z"/></defs><clipPath id="lr"><use xlink:href="#lq" overflow="visible"/></clipPath><g clip-path="url(#lr)"><defs><path id="ls" d="M-447.1 77.5c31.2 0 56.5-7.3 56.5-16.3v-23s-9.9 13.9-54.8 13.9c-50.2 0-58.2-13-58.2-13v22c0 9.1 25.3 16.4 56.5 16.4z"/></defs><clipPath id="lt"><use xlink:href="#ls" overflow="visible"/></clipPath><g clip-path="url(#lt)"><defs><path id="lu" d="M-621.6-843h1121V187h-1121z"/></defs></g></g></g><g><defs><path id="lv" d="M-447.1 77.5c31.2 0 56.5-7.3 56.5-16.3v-23s-9.9 13.9-54.8 13.9c-50.2 0-58.2-13-58.2-13v22c0 9.1 25.3 16.4 56.5 16.4z"/></defs><clipPath id="lw"><use xlink:href="#lv" overflow="visible"/></clipPath><g clip-path="url(#lw)"><defs><path id="lx" d="M-621.6-843h1121V187h-1121z"/></defs></g></g><g><defs><path id="ly" d="M-442.5 112c-8.5 0-15.4-6.9-15.4-15.4s6.9-15.4 15.4-15.4 15.5 6.9 15.5 15.4-7 15.4-15.5 15.4zm0 3c10.2 0 18.5-8.2 18.5-18.4s-8.3-18.4-18.5-18.4-18.4 8.2-18.4 18.4 8.2 18.4 18.4 18.4zM-481 58.2h76.9V135H-481V58.2z"/></defs><clipPath id="lz"><use xlink:href="#ly" overflow="visible"/></clipPath><g clip-path="url(#lz)"><defs><ellipse id="lA" cx="-442.5" cy="96.6" rx="17" ry="16.9"/></defs><clipPath id="lB"><use xlink:href="#lA" overflow="visible"/></clipPath><g clip-path="url(#lB)"><defs><path id="lC" d="M-621.6-843h1121V187h-1121z"/></defs></g></g></g><g><defs><ellipse id="lD" cx="-442.5" cy="96.6" rx="17" ry="16.9"/></defs><clipPath id="lE"><use xlink:href="#lD" overflow="visible"/></clipPath><g clip-path="url(#lE)"><defs><path id="lF" d="M-621.6-843h1121V187h-1121z"/></defs></g></g><g><defs><path id="lG" d="M687.5-148H686v120h96v-120h-94.5zm0 3h93l-1.5-1.5v117l1.5-1.5h-93l1.5 1.5v-117l-1.5 1.5zM666-168h136V-8H666v-160z"/></defs><clipPath id="lH"><use xlink:href="#lG" overflow="visible"/></clipPath><g clip-path="url(#lH)"><defs><path id="lI" d="M687.5-146.5h93v117h-93z"/></defs><clipPath id="lJ"><use xlink:href="#lI" overflow="visible"/></clipPath><g clip-path="url(#lJ)"><defs><path id="lK" d="M40.5-832h1121V198H40.5z"/></defs></g></g></g><g><defs><path id="lL" d="M687.5-146.5h93v117h-93z"/></defs><clipPath id="lM"><use xlink:href="#lL" overflow="visible"/></clipPath><g clip-path="url(#lM)"><defs><path id="lN" d="M40.5-832h1121V198H40.5z"/></defs></g></g><g><defs><path id="lO" d="M694.5-141H693v23h82v-23h-80.5zm0 3h79l-1.5-1.5v20l1.5-1.5h-79l1.5 1.5v-20l-1.5 1.5zM673-161h122v63H673v-63z"/></defs><clipPath id="lP"><use xlink:href="#lO" overflow="visible"/></clipPath><g clip-path="url(#lP)"><defs><path id="lQ" d="M694.5-139.5h79v20h-79z"/></defs><clipPath id="lR"><use xlink:href="#lQ" overflow="visible"/></clipPath><g clip-path="url(#lR)"><defs><path id="lS" d="M40.5-832h1121V198H40.5z"/></defs></g></g></g><g><defs><path id="lT" d="M694.5-139.5h79v20h-79z"/></defs><clipPath id="lU"><use xlink:href="#lT" overflow="visible"/></clipPath><g clip-path="url(#lU)"><defs><path id="lV" d="M40.5-832h1121V198H40.5z"/></defs></g></g><g><defs><path id="lW" d="M694.5-117H693v81h82v-81h-80.5zm0 3h79l-1.5-1.5v78l1.5-1.5h-79l1.5 1.5v-78l-1.5 1.5zM673-137h122v121H673v-121z"/></defs><clipPath id="lX"><use xlink:href="#lW" overflow="visible"/></clipPath><g clip-path="url(#lX)"><defs><path id="lY" d="M694.5-115.5h79v78h-79z"/></defs><clipPath id="lZ"><use xlink:href="#lY" overflow="visible"/></clipPath><g clip-path="url(#lZ)"><defs><path id="ma" d="M40.5-832h1121V198H40.5z"/></defs></g></g></g><g><defs><path id="mb" d="M694.5-115.5h79v78h-79z"/></defs><clipPath id="mc"><use xlink:href="#mb" overflow="visible"/></clipPath><g clip-path="url(#mc)"><defs><path id="md" d="M40.5-832h1121V198H40.5z"/></defs></g></g><g><defs><path id="me" d="M-212.2 346.9h-1.5v84h108v-84h-106.5zm0 3h105l-1.5-1.5v81l1.5-1.5h-105l1.5 1.5v-81l-1.5 1.5zm-21.5-23h148v124h-148v-124z"/></defs><clipPath id="mf"><use xlink:href="#me" overflow="visible"/></clipPath><g clip-path="url(#mf)"><defs><path id="mg" d="M-212.2 348.4h105v81h-105z"/></defs><clipPath id="mh"><use xlink:href="#mg" overflow="visible"/></clipPath><g clip-path="url(#mh)"><defs><path id="mi" d="M-1093.2-150.6h1121v1030h-1121z"/></defs></g></g></g><g><defs><path id="mj" d="M-212.2 348.4h105v81h-105z"/></defs><clipPath id="mk"><use xlink:href="#mj" overflow="visible"/></clipPath><g clip-path="url(#mk)"><defs><path id="ml" d="M-1093.2-150.6h1121v1030h-1121z"/></defs></g></g><g><defs><path id="mm" d="M-218.2 363.9h-2.2l.9-2.1 9.1-22 .4-.9h100.9l.4.9 9.1 22 .9 2.1h-119.5zm0-3h117l-1.4 2.1-9.1-22 1.4.9h-98.9l1.4-.9-9.1 22-1.3-2.1zm-22.2 23H-79v-65h-161.5v65z"/></defs><clipPath id="mn"><use xlink:href="#mm" overflow="visible"/></clipPath><g clip-path="url(#mn)"><defs><path id="mo" d="M-218.2 362.4h117l-9.1-22h-98.8z"/></defs><clipPath id="mp"><use xlink:href="#mo" overflow="visible"/></clipPath><g clip-path="url(#mp)"><defs><path id="mq" d="M-1093.2-150.6h1121v1030h-1121z"/></defs></g></g></g><g><defs><path id="mr" d="M-218.2 362.4h117l-9.1-22h-98.8z"/></defs><clipPath id="ms"><use xlink:href="#mr" overflow="visible"/></clipPath><g clip-path="url(#ms)"><defs><path id="mt" d="M-1093.2-150.6h1121v1030h-1121z"/></defs></g></g><g><defs><path id="mu" d="M-133.2 330.9h-1.5v19h15v-19h-13.5zm0 3h12l-1.5-1.5v16l1.5-1.5h-12l1.5 1.5v-16l-1.5 1.5zm-21.5-23h55v59h-55v-59z"/></defs><clipPath id="mv"><use xlink:href="#mu" overflow="visible"/></clipPath><g clip-path="url(#mv)"><defs><path id="mw" d="M-133.2 332.4h12v16h-12z"/></defs><clipPath id="mx"><use xlink:href="#mw" overflow="visible"/></clipPath><g clip-path="url(#mx)"><defs><path id="my" d="M-1093.2-150.6h1121v1030h-1121z"/></defs></g></g></g><g><defs><path id="mz" d="M-133.2 332.4h12v16h-12z"/></defs><clipPath id="mA"><use xlink:href="#mz" overflow="visible"/></clipPath><g clip-path="url(#mA)"><defs><path id="mB" d="M-1093.2-150.6h1121v1030h-1121z"/></defs></g></g><g><defs><path id="mC" d="M-199.2 396.9h-1.5v34h24v-34h-22.5zm0 3h21l-1.5-1.5v31l1.5-1.5h-21l1.5 1.5v-31l-1.5 1.5zm-21.5-23h64v74h-64v-74z"/></defs><clipPath id="mD"><use xlink:href="#mC" overflow="visible"/></clipPath><g clip-path="url(#mD)"><defs><path id="mE" d="M-199.2 398.4h21v31h-21z"/></defs><clipPath id="mF"><use xlink:href="#mE" overflow="visible"/></clipPath><g clip-path="url(#mF)"><defs><path id="mG" d="M-1093.2-150.6h1121v1030h-1121z"/></defs></g></g></g><g><defs><path id="mH" d="M-199.2 398.4h21v31h-21z"/></defs><clipPath id="mI"><use xlink:href="#mH" overflow="visible"/></clipPath><g clip-path="url(#mI)"><defs><path id="mJ" d="M-1093.2-150.6h1121v1030h-1121z"/></defs></g></g><g><defs><path id="mK" d="M-198.2 368.9h-1.5v22h22v-22h-20.5zm0 3h19l-1.5-1.5v19l1.5-1.5h-19l1.5 1.5v-19l-1.5 1.5zm-21.5-23h62v62h-62v-62z"/></defs><clipPath id="mL"><use xlink:href="#mK" overflow="visible"/></clipPath><g clip-path="url(#mL)"><defs><path id="mM" d="M-198.2 370.4h19v19h-19z"/></defs><clipPath id="mN"><use xlink:href="#mM" overflow="visible"/></clipPath><g clip-path="url(#mN)"><defs><path id="mO" d="M-1093.2-150.6h1121v1030h-1121z"/></defs></g></g></g><g><defs><path id="mP" d="M-198.2 370.4h19v19h-19z"/></defs><clipPath id="mQ"><use xlink:href="#mP" overflow="visible"/></clipPath><g clip-path="url(#mQ)"><defs><path id="mR" d="M-1093.2-150.6h1121v1030h-1121z"/></defs></g></g><g><defs><path id="mS" d="M-193.2 373.9h-1.5v12h12v-12h-10.5zm0 3h9l-1.5-1.5v9l1.5-1.5h-9l1.5 1.5v-9l-1.5 1.5zm-21.5-23h52v52h-52v-52z"/></defs><clipPath id="mT"><use xlink:href="#mS" overflow="visible"/></clipPath><g clip-path="url(#mT)"><defs><path id="mU" d="M-193.2 375.4h9v9h-9z"/></defs><clipPath id="mV"><use xlink:href="#mU" overflow="visible"/></clipPath><g clip-path="url(#mV)"><defs><path id="mW" d="M-1093.2-150.6h1121v1030h-1121z"/></defs></g></g></g><g><defs><path id="mX" d="M-193.2 375.4h9v9h-9z"/></defs><clipPath id="mY"><use xlink:href="#mX" overflow="visible"/></clipPath><g clip-path="url(#mY)"><defs><path id="mZ" d="M-1093.2-150.6h1121v1030h-1121z"/></defs></g></g><g><defs><path id="na" d="M-168.2 368.9h-1.5v22h22v-22h-20.5zm0 3h19l-1.5-1.5v19l1.5-1.5h-19l1.5 1.5v-19l-1.5 1.5zm-21.5-23h62v62h-62v-62z"/></defs><clipPath id="nb"><use xlink:href="#na" overflow="visible"/></clipPath><g clip-path="url(#nb)"><defs><path id="nc" d="M-168.2 370.4h19v19h-19z"/></defs><clipPath id="nd"><use xlink:href="#nc" overflow="visible"/></clipPath><g clip-path="url(#nd)"><defs><path id="ne" d="M-1093.2-150.6h1121v1030h-1121z"/></defs></g></g></g><g><defs><path id="nf" d="M-168.2 370.4h19v19h-19z"/></defs><clipPath id="ng"><use xlink:href="#nf" overflow="visible"/></clipPath><g clip-path="url(#ng)"><defs><path id="nh" d="M-1093.2-150.6h1121v1030h-1121z"/></defs></g></g><g><defs><path id="ni" d="M-139.2 368.9h-1.5v22h22v-22h-20.5zm0 3h19l-1.5-1.5v19l1.5-1.5h-19l1.5 1.5v-19l-1.5 1.5zm-21.5-23h62v62h-62v-62z"/></defs><clipPath id="nj"><use xlink:href="#ni" overflow="visible"/></clipPath><g clip-path="url(#nj)"><defs><path id="nk" d="M-139.2 370.4h19v19h-19z"/></defs><clipPath id="nl"><use xlink:href="#nk" overflow="visible"/></clipPath><g clip-path="url(#nl)"><defs><path id="nm" d="M-1093.2-150.6h1121v1030h-1121z"/></defs></g></g></g><g><defs><path id="nn" d="M-139.2 370.4h19v19h-19z"/></defs><clipPath id="no"><use xlink:href="#nn" overflow="visible"/></clipPath><g clip-path="url(#no)"><defs><path id="np" d="M-1093.2-150.6h1121v1030h-1121z"/></defs></g></g><g><defs><path id="nq" d="M-168.2 396.9h-1.5v22h22v-22h-20.5zm0 3h19l-1.5-1.5v19l1.5-1.5h-19l1.5 1.5v-19l-1.5 1.5zm-21.5-23h62v62h-62v-62z"/></defs><clipPath id="nr"><use xlink:href="#nq" overflow="visible"/></clipPath><g clip-path="url(#nr)"><defs><path id="ns" d="M-168.2 398.4h19v19h-19z"/></defs><clipPath id="nt"><use xlink:href="#ns" overflow="visible"/></clipPath><g clip-path="url(#nt)"><defs><path id="nu" d="M-1093.2-150.6h1121v1030h-1121z"/></defs></g></g></g><g><defs><path id="nv" d="M-168.2 398.4h19v19h-19z"/></defs><clipPath id="nw"><use xlink:href="#nv" overflow="visible"/></clipPath><g clip-path="url(#nw)"><defs><path id="nx" d="M-1093.2-150.6h1121v1030h-1121z"/></defs></g></g><g><defs><path id="ny" d="M-139.2 396.9h-1.5v22h22v-22h-20.5zm0 3h19l-1.5-1.5v19l1.5-1.5h-19l1.5 1.5v-19l-1.5 1.5zm-21.5-23h62v62h-62v-62z"/></defs><clipPath id="nz"><use xlink:href="#ny" overflow="visible"/></clipPath><g clip-path="url(#nz)"><defs><path id="nA" d="M-139.2 398.4h19v19h-19z"/></defs><clipPath id="nB"><use xlink:href="#nA" overflow="visible"/></clipPath><g clip-path="url(#nB)"><defs><path id="nC" d="M-1093.2-150.6h1121v1030h-1121z"/></defs></g></g></g><g><defs><path id="nD" d="M-139.2 398.4h19v19h-19z"/></defs><clipPath id="nE"><use xlink:href="#nD" overflow="visible"/></clipPath><g clip-path="url(#nE)"><defs><path id="nF" d="M-1093.2-150.6h1121v1030h-1121z"/></defs></g></g><g><defs><path id="nG" d="M-163.2 373.9h-1.5v12h12v-12h-10.5zm0 3h9l-1.5-1.5v9l1.5-1.5h-9l1.5 1.5v-9l-1.5 1.5zm-21.5-23h52v52h-52v-52z"/></defs><clipPath id="nH"><use xlink:href="#nG" overflow="visible"/></clipPath><g clip-path="url(#nH)"><defs><path id="nI" d="M-163.2 375.4h9v9h-9z"/></defs><clipPath id="nJ"><use xlink:href="#nI" overflow="visible"/></clipPath><g clip-path="url(#nJ)"><defs><path id="nK" d="M-1093.2-150.6h1121v1030h-1121z"/></defs></g></g></g><g><defs><path id="nL" d="M-163.2 375.4h9v9h-9z"/></defs><clipPath id="nM"><use xlink:href="#nL" overflow="visible"/></clipPath><g clip-path="url(#nM)"><defs><path id="nN" d="M-1093.2-150.6h1121v1030h-1121z"/></defs></g></g><g><defs><path id="nO" d="M-134.2 373.9h-1.5v12h12v-12h-10.5zm0 3h9l-1.5-1.5v9l1.5-1.5h-9l1.5 1.5v-9l-1.5 1.5zm-21.5-23h52v52h-52v-52z"/></defs><clipPath id="nP"><use xlink:href="#nO" overflow="visible"/></clipPath><g clip-path="url(#nP)"><defs><path id="nQ" d="M-134.2 375.4h9v9h-9z"/></defs><clipPath id="nR"><use xlink:href="#nQ" overflow="visible"/></clipPath><g clip-path="url(#nR)"><defs><path id="nS" d="M-1093.2-150.6h1121v1030h-1121z"/></defs></g></g></g><g><defs><path id="nT" d="M-134.2 375.4h9v9h-9z"/></defs><clipPath id="nU"><use xlink:href="#nT" overflow="visible"/></clipPath><g clip-path="url(#nU)"><defs><path id="nV" d="M-1093.2-150.6h1121v1030h-1121z"/></defs></g></g><g><defs><path id="nW" d="M-163.2 401.9h-1.5v12h12v-12h-10.5zm0 3h9l-1.5-1.5v9l1.5-1.5h-9l1.5 1.5v-9l-1.5 1.5zm-21.5-23h52v52h-52v-52z"/></defs><clipPath id="nX"><use xlink:href="#nW" overflow="visible"/></clipPath><g clip-path="url(#nX)"><defs><path id="nY" d="M-163.2 403.4h9v9h-9z"/></defs><clipPath id="nZ"><use xlink:href="#nY" overflow="visible"/></clipPath><g clip-path="url(#nZ)"><defs><path id="oa" d="M-1093.2-150.6h1121v1030h-1121z"/></defs></g></g></g><g><defs><path id="ob" d="M-163.2 403.4h9v9h-9z"/></defs><clipPath id="oc"><use xlink:href="#ob" overflow="visible"/></clipPath><g clip-path="url(#oc)"><defs><path id="od" d="M-1093.2-150.6h1121v1030h-1121z"/></defs></g></g><g><defs><path id="oe" d="M-134.2 401.9h-1.5v12h12v-12h-10.5zm0 3h9l-1.5-1.5v9l1.5-1.5h-9l1.5 1.5v-9l-1.5 1.5zm-21.5-23h52v52h-52v-52z"/></defs><clipPath id="of"><use xlink:href="#oe" overflow="visible"/></clipPath><g clip-path="url(#of)"><defs><path id="og" d="M-134.2 403.4h9v9h-9z"/></defs><clipPath id="oh"><use xlink:href="#og" overflow="visible"/></clipPath><g clip-path="url(#oh)"><defs><path id="oi" d="M-1093.2-150.6h1121v1030h-1121z"/></defs></g></g></g><g><defs><path id="oj" d="M-134.2 403.4h9v9h-9z"/></defs><clipPath id="ok"><use xlink:href="#oj" overflow="visible"/></clipPath><g clip-path="url(#ok)"><defs><path id="ol" d="M-1093.2-150.6h1121v1030h-1121z"/></defs></g></g><g><defs><path id="om" d="M439.1 432.9c-27.1 0-49-21.9-49-49s21.9-49 49-49 49 21.9 49 49-21.9 49-49 49zm0 3c28.7 0 52-23.3 52-52s-23.3-52-52-52-52 23.3-52 52 23.3 52 52 52zm-72-124h144v144h-144v-144z"/></defs><clipPath id="on"><use xlink:href="#om" overflow="visible"/></clipPath><g clip-path="url(#on)"><defs><circle id="oo" cx="439.1" cy="383.9" r="50.5"/></defs><clipPath id="op"><use xlink:href="#oo" overflow="visible"/></clipPath><g clip-path="url(#op)"><defs><path id="oq" d="M264.6-352.1h1121v1030h-1121z"/></defs></g></g></g><g><defs><circle id="or" cx="439.1" cy="383.9" r="50.5"/></defs><clipPath id="os"><use xlink:href="#or" overflow="visible"/></clipPath><g clip-path="url(#os)"><defs><path id="ot" d="M264.6-352.1h1121v1030h-1121z"/></defs></g></g><g><defs><circle id="ou" cx="439.1" cy="383.9" r="43.5"/></defs><clipPath id="ov"><use xlink:href="#ou" overflow="visible"/></clipPath><g clip-path="url(#ov)"><defs><path id="ow" d="M264.6-352.1h1121v1030h-1121z"/></defs></g></g><g><defs><path id="ox" d="M-158 585.3c-27.1 0-49-21.9-49-49s21.9-49 49-49 49 21.9 49 49c0 27-21.9 49-49 49zm0 3c28.7 0 52-23.3 52-52s-23.3-52-52-52-52 23.3-52 52 23.3 52 52 52zm-72-124h144v144h-144v-144z"/></defs><clipPath id="oy"><use xlink:href="#ox" overflow="visible"/></clipPath><g clip-path="url(#oy)"><defs><circle id="oz" cx="-158" cy="536.3" r="50.5"/></defs><clipPath id="oA"><use xlink:href="#oz" overflow="visible"/></clipPath><g clip-path="url(#oA)"><defs><path id="oB" d="M-332.5-199.7h1121v1030h-1121z"/></defs></g></g></g><g><defs><circle id="oC" cx="-158" cy="536.3" r="50.5"/></defs><clipPath id="oD"><use xlink:href="#oC" overflow="visible"/></clipPath><g clip-path="url(#oD)"><defs><path id="oE" d="M-332.5-199.7h1121v1030h-1121z"/></defs></g></g><g><defs><circle id="oF" cx="-158" cy="536.3" r="43.5"/></defs><clipPath id="oG"><use xlink:href="#oF" overflow="visible"/></clipPath><g clip-path="url(#oG)"><defs><path id="oH" d="M-332.5-199.7h1121v1030h-1121z"/></defs></g></g><g><defs><path id="oI" d="M-157.3 752.5c-24.6 0-44.6-20-44.6-44.6s20-44.6 44.6-44.6 44.6 20 44.6 44.6-20 44.6-44.6 44.6zm0 2.7c26.1 0 47.3-21.2 47.3-47.3 0-26.1-21.2-47.3-47.3-47.3s-47.3 21.2-47.3 47.3c0 26.1 21.2 47.3 47.3 47.3zm-65.5-112.8h131v131h-131v-131z"/></defs><clipPath id="oJ"><use xlink:href="#oI" overflow="visible"/></clipPath><g clip-path="url(#oJ)"><defs><circle id="oK" cx="-157.3" cy="707.9" r="45.9"/></defs><clipPath id="oL"><use xlink:href="#oK" overflow="visible"/></clipPath><g clip-path="url(#oL)"><defs><path id="oM" d="M-316 38.3H703.8v937H-316z"/></defs></g></g></g><g><defs><circle id="oN" cx="-157.3" cy="707.9" r="45.9"/></defs><clipPath id="oO"><use xlink:href="#oN" overflow="visible"/></clipPath><g clip-path="url(#oO)"><defs><path id="oP" d="M-316 38.3H703.8v937H-316z"/></defs></g></g><g><defs><circle id="oQ" cx="-157.3" cy="707.9" r="39.6"/></defs><clipPath id="oR"><use xlink:href="#oQ" overflow="visible"/></clipPath><g clip-path="url(#oR)"><defs><path id="oS" d="M-316 38.3H703.8v937H-316z"/></defs></g></g></svg>