<svg xmlns="http://www.w3.org/2000/svg" xmlns:xlink="http://www.w3.org/1999/xlink" viewBox="0 0 276 137"><defs><path id="a" d="M-454-192.5c-29.3 0-53-23.7-53-53s23.7-53 53-53 53 23.7 53 53-23.7 53-53 53zm0 3c30.9 0 56-25.1 56-56s-25.1-56-56-56-56 25.1-56 56 25.1 56 56 56z"/></defs><defs><path id="b" d="M-454-213.5c-17.7 0-32-14.3-32-32s14.3-32 32-32 32 14.3 32 32-14.3 32-32 32zm0 3c19.3 0 35-15.7 35-35s-15.7-35-35-35-35 15.7-35 35 15.7 35 35 35zm-55-90h110v110h-110v-110z"/></defs><defs><path id="c" d="M-455.5-299.5h-1.5v13h6v-13h-4.5zm0 3h3l-1.5-1.5v10l1.5-1.5h-3l1.5 1.5v-10l-1.5 1.5z"/></defs><defs><path id="d" d="M-509.5-243.5v1.5h13v-6h-13v4.5zm3 0v-3l-1.5 1.5h10l-1.5-1.5v3l1.5-1.5h-10l1.5 1.5z"/></defs><defs><path id="e" d="M-412.5-243.5v1.5h13v-6h-13v4.5zm3 0v-3l-1.5 1.5h10l-1.5-1.5v3l1.5-1.5h-10l1.5 1.5z"/></defs><defs><path id="f" d="M-423.5-273.3l1.1 1.1 1.1-1.1 7.1-7.1 1.1-1.1-1.1-1.1-2.1-2.1-1.1-1.1-1.1 1.1-7.1 7.1-1.1 1.1 1.1 1.1 2.1 2.1zm2.1-2.2l-2.1-2.1v2.1l7.1-7.1h-2.1l2.1 2.1v-2.1l-7.1 7.1h2.1z"/></defs><defs><path id="g" d="M-483.3-274.5l1.1-1.1-1.1-1.1-7.1-7.1-1.1-1.1-1.1 1.1-2.1 2.1-1.1 1.1 1.1 1.1 7.1 7.1 1.1 1.1 1.1-1.1 2.1-2.1zm-2.2-2.1l-2.1 2.1h2.1l-7.1-7.1v2.1l2.1-2.1h-2.1l7.1 7.1v-2.1z"/></defs><defs><path id="h" d="M-423.5-217.7l1.1-1.1 1.1 1.1 7.1 7.1 1.1 1.1-1.1 1.1-2.1 2.1-1.1 1.1-1.1-1.1-7.1-7.1-1.1-1.1 1.1-1.1 2.1-2.1zm2.1 2.2l-2.1 2.1v-2.1l7.1 7.1h-2.1l2.1-2.1v2.1l-7.1-7.1h2.1z"/></defs><defs><path id="i" d="M-483.3-214.5l1.1 1.1-1.1 1.1-7.1 7.1-1.1 1.1-1.1-1.1-2.1-2.1-1.1-1.1 1.1-1.1 7.1-7.1 1.1-1.1 1.1 1.1 2.1 2.1zm-2.2 2.1l-2.1-2.1h2.1l-7.1 7.1v-2.1l2.1 2.1h-2.1l7.1-7.1v2.1z"/></defs><defs><path id="j" d="M-454-221.5c-13.3 0-24-10.7-24-24s10.7-24 24-24 24 10.7 24 24-10.7 24-24 24zm0 3c14.9 0 27-12.1 27-27s-12.1-27-27-27-27 12.1-27 27 12.1 27 27 27zm-47-74h94v94h-94v-94z"/></defs><defs><path id="k" d="M-163.8-306.5h-1.5v18h19v-18h-17.5zm0 3h16l-1.5-1.5v15l1.5-1.5h-16l1.5 1.5v-15l-1.5 1.5z"/></defs><defs><path id="l" d="M-187.8-294.5h-1.5v43h67v-43h-65.5zm0 3h64l-1.5-1.5v40l1.5-1.5h-64l1.5 1.5v-40l-1.5 1.5z"/></defs><defs><path id="m" d="M-152.8-284.5h-1.5v33h22v-33h-20.5zm0 3h19l-1.5-1.5v30l1.5-1.5h-19l1.5 1.5v-30l-1.5 1.5z"/></defs><defs><path id="n" d="M-177.8-284.5h-1.5v33h22v-33h-20.5zm0 3h19l-1.5-1.5v30l1.5-1.5h-19l1.5 1.5v-30l-1.5 1.5z"/></defs><defs><path id="o" d="M-208.3-226.3c0 2.9-.8 7-2.3 11.9-.6 2.1-1.3 4.3-2.1 6.5-1 2.7-2 5.4-3.1 8-.4.9-.7 1.7-1 2.4-.2.4-.3.7-.4.9l-.9 2.1h119.4l-.7-2c-.1-.2-.2-.4-.3-.9-.2-.7-.5-1.5-.8-2.4-.8-2.5-1.6-5.2-2.4-7.9-.7-2.4-1.3-4.8-1.8-7-1.1-4.8-1.7-8.8-1.7-11.8 0-2.8.7-7 1.9-12 .5-1.9 1-3.9 1.6-6 .8-2.7 1.6-5.4 2.4-7.9.3-.9.5-1.7.8-2.4.1-.4.2-.7.3-.9l.7-2h-119.4l1 2.1c.1.1.2.4.4.9.3.7.6 1.5 1 2.4 1 2.5 2.1 5.1 3.1 7.8.8 2.2 1.5 4.4 2.1 6.4 1.4 5 2.2 9 2.2 11.8zm3 0c0-3.2-.9-7.5-2.4-12.5-.6-2.1-1.4-4.3-2.2-6.5-1-2.7-2.1-5.4-3.1-8-.4-.9-.7-1.7-1-2.4-.2-.4-.3-.7-.4-.9l-1.4 2.1h115l-1.4-2c-.1.2-.2.5-.3.9-.2.7-.5 1.5-.8 2.4-.8 2.6-1.7 5.3-2.4 8-.6 2.1-1.1 4.1-1.6 6.1-1.3 5.2-2 9.5-2 12.7 0 3.2.6 7.4 1.7 12.4.5 2.3 1.1 4.7 1.8 7.1.8 2.8 1.6 5.5 2.4 8.1.3.9.6 1.7.8 2.4.1.4.2.7.3.9l1.4-2h-115l1.4 2.1c.1-.2.2-.5.4-.9.3-.7.7-1.5 1-2.4 1.1-2.6 2.1-5.3 3.1-8.1.8-2.3 1.6-4.5 2.2-6.7 1.7-5.2 2.5-9.5 2.5-12.8z"/></defs><defs><path id="p" d="M-192.8-225.5h-1.5v6h72v-6h-70.5zm0 3h69l-1.5-1.5v3l1.5-1.5h-69l1.5 1.5v-3l-1.5 1.5zm-21.5-23h112v46h-112v-46z"/></defs><defs><path id="q" d="M-192.8-233.5h-1.5v6h72v-6h-70.5zm0 3h69l-1.5-1.5v3l1.5-1.5h-69l1.5 1.5v-3l-1.5 1.5zm-21.5-23h112v46h-112v-46z"/></defs><defs><path id="r" d="M-160.8-218.1l.5 1.6 1.5-.7c2-.9 4.2-1.3 6.4-1.3 6 0 11.3 3.3 14.1 8.4l.5 1 1.1-.2c.6-.1 1.2-.2 1.8-.2 3.5 0 6.6 2.1 7.9 5.3l.5 1.2 1.3-.3c.4-.1.9-.2 1.4-.2 3 0 5.5 2.5 5.5 5.5s-2.5 5.5-5.5 5.5c-1.5 0-2.9-.6-3.9-1.6l-.9-.9-1 .8c-1.5 1.1-3.3 1.7-5.1 1.7-1.1 0-2.2-.2-3.2-.6l-1-.4-.7.9c-3 3.8-7.6 6.1-12.6 6.1-4.9 0-9.5-2.3-12.5-6l-.7-.8-1 .3c-1.1.4-2.2.5-3.3.5-2 0-4-.6-5.7-1.7l-.8-.5-.8.5c-1.7 1.1-3.6 1.7-5.7 1.7-2.2 0-4.3-.7-6-1.9l-1.1-.7-.9.9c-1 1.1-2.5 1.7-4 1.7-3 0-5.5-2.5-5.5-5.5s2.5-5.5 5.5-5.5h1.4l.2-1.3c.8-5 5.2-8.7 10.4-8.7h1.5v-1.5c0-5.8 4.7-10.5 10.5-10.5 4.6 0 8.6 3 9.9 7.4zm2.9-.9c-1.7-5.6-6.9-9.5-12.9-9.5-7.5 0-13.5 6-13.5 13.5l1.5-1.5c-6.6 0-12.2 4.8-13.3 11.3l1.5.2v-1.5h-.2c-4.7 0-8.5 3.8-8.5 8.5s3.8 8.5 8.5 8.5c2.4 0 4.6-1 6.2-2.7l-2 .2c2.3 1.6 5 2.5 7.8 2.5 2.6 0 5.2-.8 7.3-2.2h-1.6c2.2 1.4 4.7 2.2 7.3 2.2 1.5 0 2.9-.2 4.3-.7l-.5-1.4-1.2.9c3.6 4.5 9 7.2 14.9 7.2s11.4-2.7 15-7.3l-1.2-.9-.6 1.4c1.3.5 2.8.8 4.3.8 2.6 0 5-.8 7-2.4l-2-.1c1.6 1.6 3.7 2.5 6 2.5 4.7 0 8.5-3.8 8.5-8.5s-3.8-8.5-8.5-8.5c-.7 0-1.4.1-2.1.3l.4 1.5 1.4-.6c-1.8-4.3-5.9-7.2-10.6-7.2-.8 0-1.6.1-2.4.2l.3 1.5 1.3-.7c-3.3-6.1-9.7-10-16.7-10-2.7 0-5.2.5-7.6 1.6l1.9.9zm-65.4-29.5h128v85h-128v-85z"/></defs><defs><path id="s" d="M102.3-213.4l1.2.9.9-1.2c-1.5-1-3.3-1.6-5.1-1.6-5 0-9 4-9 9 0 3.8 2.4 7.2 6 8.5l-1-1.4c0 4.9 4.1 8.9 9 8.9 1.4 0 2.8-.3 4.1-1l-.7-1.3-1.4.6c1.9 4 5.9 6.7 10.4 6.7 6.4 0 11.5-5.1 11.5-11.5 0-1.2-.2-2.5-.6-3.6l-1.4.5.8 1.3c2.6-1.6 4.2-4.5 4.2-7.6 0-5-4-9-9-9-1.2 0-2.3.2-3.4.7l.6 1.4 1.1-1c-2.2-2.6-5.4-4.1-8.8-4.1-3.8-.1-7.3 1.8-9.4 4.8zm2.4 1.7c1.6-2.3 4.2-3.7 7-3.7 2.5 0 4.9 1.1 6.5 3l.7.8 1-.4c.7-.3 1.5-.4 2.3-.4 3.3 0 6 2.7 6 6 0 2.1-1.1 4-2.8 5.1l-1 .6.4 1.1c.3.9.4 1.8.4 2.7 0 4.7-3.8 8.5-8.5 8.5-3.4 0-6.3-2-7.7-4.9l-.7-1.4-1.3.7c-.8.4-1.8.7-2.7.7-3.3 0-6-2.7-6-5.9v-1.1l-1-.3c-2.4-.8-4-3.1-4-5.7 0-3.3 2.7-6 6-6 1.2 0 2.4.4 3.4 1.1l1.2.9.8-1.4zm-34.5-26.6h81v73h-81v-73z"/></defs><defs><path id="t" d="M432.1-309.6c30.3 0 55 7.1 55 14.8v22l1.7-1.5c-.1 0-.2 0-.4-.1-.4-.1-.8-.1-1.3-.2-1.4-.2-2.9-.4-4.6-.6-4.9-.7-10-1.3-15.2-2-3.9-.5-7.7-.9-11.3-1.3-9.9-1-18.1-1.6-23.9-1.6-5.2 0-14.3.8-26.1 2.3-2.5.3-5.1.6-7.7 1-5.4.7-10.9 1.5-16.1 2.3-1.8.3-3.5.5-5 .8-.5.1-1 .2-1.4.2-.2 0-.4.1-.5.1l1.7 1.5v-23c.1-7.6 24.8-14.7 55.1-14.7zm0-3c-32.1 0-58 7.5-58 17.8v24.8l1.7-.3c.1 0 .2 0 .5-.1.4-.1.8-.1 1.4-.2 1.5-.2 3.1-.5 5-.8 5.2-.8 10.7-1.6 16.1-2.3 2.6-.4 5.2-.7 7.7-1 11.7-1.5 20.7-2.3 25.7-2.3 5.6 0 13.7.6 23.6 1.6 3.6.4 7.4.8 11.2 1.3 5.2.6 10.3 1.3 15.2 2 1.7.2 3.2.4 4.6.6.5.1.9.1 1.2.2.2 0 .4.1.4.1l1.7.3v-23.7c0-10.6-25.9-18-58-18zm-78-20h156v82.5h-156v-82.5z"/></defs><defs><path id="u" d="M432.1-287.4c30.3 0 55 7.1 55 14.8s-24.7 14.8-55 14.8-55-7.1-55-14.8 24.7-14.8 55-14.8zm0-3c-32.1 0-58 7.5-58 17.8s25.9 17.8 58 17.8 58-7.5 58-17.8-25.9-17.8-58-17.8zm-78-20h156v75.6h-156v-75.6z"/></defs><defs><path id="v" d="M392.1-268.2c0-5.3 18-10.4 40-10.4s40 5.2 40 10.4v7.1l1.2-1.5c-.1 0-.1 0-.3.1-.3 0-.6.1-.9.2-1 .2-2.1.3-3.4.5-3.6.6-7.3 1.1-11.1 1.7-2.9.4-5.6.8-8.3 1.1-7.2.9-13.1 1.3-17.2 1.3-3.7 0-10.3-.5-18.9-1.4-1.8-.2-3.7-.4-5.6-.6-4-.5-8-.9-11.8-1.4-1.3-.2-2.6-.3-3.6-.5-.4 0-.7-.1-1-.1h-.3l1.3 1.5v-8zm-3 0v9.1l1.3.2h.4c.3 0 .6.1 1 .1 1.1.1 2.3.3 3.7.5a11776882415803102 11776882415803102 0 0 0 36.7 3.5c4.3 0 10.3-.5 17.6-1.4 2.7-.3 5.4-.7 8.3-1.1 3.8-.5 7.6-1.1 11.2-1.7 1.3-.2 2.4-.4 3.4-.5.4-.1.7-.1.9-.2.3 0 .3 0 .3-.1l1.2-.2v-8.4c0-7.9-19.2-13.4-43-13.4s-43 5.7-43 13.6zm-20-33.4h126v66.9h-126v-66.9z"/></defs><defs><path id="w" d="M432.1-270.3c22 0 40 5.2 40 10.4s-18 10.4-40 10.4-40-5.2-40-10.4 18-10.4 40-10.4zm0-3c-23.8 0-43 5.5-43 13.4s19.2 13.4 43 13.4 43-5.5 43-13.4-19.2-13.4-43-13.4zm-63-20h126v66.9h-126v-66.9z"/></defs><defs><path id="x" d="M419.5-258.3c0 .4-.2.7-.4.8.1 0 .2-.1.4-.2.6-.2 1.6-.4 2.8-.6 2.6-.4 6-.6 9.8-.6s7.2.2 9.8.6c1.2.2 2.2.4 2.8.6l.4.2c-.2-.1-.4-.4-.4-.8s.2-.7.4-.8c-.1 0-.2.1-.4.2-.6.2-1.6.4-2.8.6-2.6.4-6 .6-9.8.6s-7.2-.2-9.8-.6c-1.2-.2-2.2-.4-2.8-.6l-.4-.2c.2.1.4.3.4.8zm-3 0c0 2.6 6.2 3.5 15.6 3.5s15.6-.9 15.6-3.5-6.2-3.5-15.6-3.5-15.6.8-15.6 3.5zm-20-23.6h71.2v47.1h-71.2v-47.1z"/></defs><defs><path id="y" d="M-211.5-127.5l-1.4.4.4 1.4 30.4 99.5.4 1.4 1.4-.4 60.2-18.4 1.4-.4-.4-1.4-30.4-99.5-.4-1.4-1.4.4-60.2 18.4zm.9 2.9l60.2-18.4-1.9-1 30.4 99.5 1-1.9-60.2 18.4 1.9 1-30.4-99.5-1 1.9zm-27.3-15.7l101.4-31 43 140.6-101.4 31-43-140.6z"/></defs><defs><path id="z" d="M-176.2-150.5h-1.5v107h66v-107h-64.5zm0 3h63l-1.5-1.5v104l1.5-1.5h-63l1.5 1.5v-104l-1.5 1.5zm-21.5-23h106v147h-106v-147z"/></defs><defs><path id="A" d="M93.5-150.5H92v107h66v-107H93.5zm0 3h63L155-149v104l1.5-1.5h-63L95-45v-104l-1.5 1.5zm-21.5-23h106v147H72v-147z"/></defs><defs><path id="B" d="M165.5-29.5C149.2-29.5 136-42.7 136-59s13.2-29.5 29.5-29.5S195-75.3 195-59s-13.2 29.5-29.5 29.5zm0 3c17.9 0 32.5-14.6 32.5-32.5s-14.6-32.5-32.5-32.5S133-76.9 133-59s14.5 32.5 32.5 32.5zm-52.5-85h105v105H113v-105z"/></defs><defs><path id="C" d="M71.8 25.7h-1.5v90h134v-90H71.8zm0 3h131l-1.5-1.5v87l1.5-1.5h-131l1.5 1.5v-87l-1.5 1.5zm-21.5-23h174v130h-174V5.7z"/></defs><clipPath id="D"><use xlink:href="#C" overflow="visible"/></clipPath><g clip-path="url(#D)"><defs><path id="E" d="M71.8 27.2h131v87h-131z"/></defs><clipPath id="F"><use xlink:href="#E" overflow="visible"/></clipPath><g clip-path="url(#F)"><defs><path id="G" d="M-537.2-276.8h1121v1030h-1121z"/></defs><clipPath id="H"><use xlink:href="#G" overflow="visible"/></clipPath><path clip-path="url(#H)" fill-rule="evenodd" clip-rule="evenodd" fill="#FFF" d="M71.8 27.2h131v87h-131z"/></g></g><defs><path id="I" d="M71.8 27.2h131v87h-131z"/></defs><clipPath id="J"><use xlink:href="#I" overflow="visible"/></clipPath><g clip-path="url(#J)"><defs><path id="K" d="M-537.2-276.8h1121v1030h-1121z"/></defs><clipPath id="L"><use xlink:href="#K" overflow="visible"/></clipPath><path clip-path="url(#L)" fill="none" stroke="#0C1F2E" stroke-width="6" stroke-linecap="round" stroke-miterlimit="10" d="M71.8 27.2h131v87h-131z"/></g><defs><path id="M" d="M76.8 30.7h-1.5v80h124v-80H76.8zm0 3h121l-1.5-1.5v77l1.5-1.5h-121l1.5 1.5v-77l-1.5 1.5zm-21.5-23h164v120h-164v-120z"/></defs><clipPath id="N"><use xlink:href="#M" overflow="visible"/></clipPath><g clip-path="url(#N)"><defs><path id="O" d="M76.8 32.2h121v77h-121z"/></defs><clipPath id="P"><use xlink:href="#O" overflow="visible"/></clipPath><g clip-path="url(#P)"><defs><path id="Q" d="M-537.2-276.8h1121v1030h-1121z"/></defs><clipPath id="R"><use xlink:href="#Q" overflow="visible"/></clipPath><path clip-path="url(#R)" fill-rule="evenodd" clip-rule="evenodd" fill="#FFF" d="M76.8 32.2h121v77h-121z"/></g></g><defs><path id="S" d="M76.8 32.2h121v77h-121z"/></defs><clipPath id="T"><use xlink:href="#S" overflow="visible"/></clipPath><g clip-path="url(#T)"><defs><path id="U" d="M-537.2-276.8h1121v1030h-1121z"/></defs><clipPath id="V"><use xlink:href="#U" overflow="visible"/></clipPath><path clip-path="url(#V)" fill="none" stroke="#0C1F2E" stroke-width="6" stroke-linecap="round" stroke-miterlimit="10" d="M76.8 32.2h121v77h-121z"/></g><path d="M97.5 52.2c0 1.1-.8 2.2-1.9 3.5l-2.7 2.9H98v1.6h-7.5v-1.3l3.9-4.2c.8-.8 1.3-1.6 1.3-2.2 0-.8-.7-1.3-1.8-1.3-.9 0-2 .5-2.9 1.3l-.7-1.4c1.1-.9 2.5-1.5 3.8-1.5 2 0 3.4 1 3.4 2.6zm10.8 2.7c0 3.4-1.6 5.3-4.5 5.3s-4.5-1.9-4.5-5.3 1.6-5.3 4.5-5.3 4.5 1.9 4.5 5.3zm-7.1 0c0 2.7.9 3.9 2.7 3.9 1.8 0 2.6-1.2 2.6-3.9s-.9-3.9-2.6-3.9c-1.9 0-2.7 1.2-2.7 3.9zm10 5.3v-8.9h-2.1v-1.6h3.8v10.5h-1.7zm12-9.8l-.7 1.3c-.6-.4-1.5-.7-2.3-.7-2 0-3 1.5-2.9 3.8.6-1 1.5-1.5 2.9-1.5 2.1 0 3.4 1.3 3.4 3.3 0 2.2-1.5 3.5-3.7 3.5-2.7 0-4.3-1.9-4.3-5.1 0-3.3 1.8-5.5 4.5-5.5 1 .1 2.2.4 3.1.9zm-5.7 6.4c0 .9.7 2 2.2 2 1.3 0 2.1-.7 2.1-2 0-1.2-.8-1.9-2.1-1.9-1.3-.1-2.2.8-2.2 1.9zM94.2 92.7V74.8H90v-4.6h9.8v22.4h-5.6zm29.9-11.3c0 7.3-3.6 11.4-9.9 11.4-6.4 0-10-4.1-10-11.4 0-7.3 3.6-11.4 10-11.4 6.4.1 9.9 4.1 9.9 11.4zm-13.9 0c0 5.1 1.2 7.2 4.1 7.2 2.8 0 4.1-2.1 4.1-7.2s-1.2-7.2-4.1-7.2c-2.9 0-4.1 2.1-4.1 7.2z" fill="#042A3E"/><defs><path id="W" d="M141.8 45.7h-1.5v6h47v-6h-45.5zm0 3h44l-1.5-1.5v3l1.5-1.5h-44l1.5 1.5v-3l-1.5 1.5zm-21.5-23h87v46h-87v-46z"/></defs><clipPath id="X"><use xlink:href="#W" overflow="visible"/></clipPath><g clip-path="url(#X)"><defs><path id="Y" d="M141.8 47.2h44v3h-44z"/></defs><clipPath id="Z"><use xlink:href="#Y" overflow="visible"/></clipPath><g clip-path="url(#Z)"><defs><path id="aa" d="M-537.2-276.8h1121v1030h-1121z"/></defs><clipPath id="ab"><use xlink:href="#aa" overflow="visible"/></clipPath><path clip-path="url(#ab)" fill-rule="evenodd" clip-rule="evenodd" fill="#FFF" d="M141.8 47.2h44v3h-44z"/></g></g><defs><path id="ac" d="M141.8 47.2h44v3h-44z"/></defs><clipPath id="ad"><use xlink:href="#ac" overflow="visible"/></clipPath><g clip-path="url(#ad)"><defs><path id="ae" d="M-537.2-276.8h1121v1030h-1121z"/></defs><clipPath id="af"><use xlink:href="#ae" overflow="visible"/></clipPath><path clip-path="url(#af)" fill="none" stroke="#0C1F2E" stroke-width="6" stroke-linecap="round" stroke-miterlimit="10" d="M141.8 47.2h44v3h-44z"/></g><defs><path id="ag" d="M141.8 51.7h-1.5v6h47v-6h-45.5zm0 3h44l-1.5-1.5v3l1.5-1.5h-44l1.5 1.5v-3l-1.5 1.5zm-21.5-23h87v46h-87v-46z"/></defs><clipPath id="ah"><use xlink:href="#ag" overflow="visible"/></clipPath><g clip-path="url(#ah)"><defs><path id="ai" d="M141.8 53.2h44v3h-44z"/></defs><clipPath id="aj"><use xlink:href="#ai" overflow="visible"/></clipPath><g clip-path="url(#aj)"><defs><path id="ak" d="M-537.2-276.8h1121v1030h-1121z"/></defs><clipPath id="al"><use xlink:href="#ak" overflow="visible"/></clipPath><path clip-path="url(#al)" fill-rule="evenodd" clip-rule="evenodd" fill="#FFF" d="M141.8 53.2h44v3h-44z"/></g></g><defs><path id="am" d="M141.8 53.2h44v3h-44z"/></defs><clipPath id="an"><use xlink:href="#am" overflow="visible"/></clipPath><g clip-path="url(#an)"><defs><path id="ao" d="M-537.2-276.8h1121v1030h-1121z"/></defs><clipPath id="ap"><use xlink:href="#ao" overflow="visible"/></clipPath><path clip-path="url(#ap)" fill="none" stroke="#0C1F2E" stroke-width="6" stroke-linecap="round" stroke-miterlimit="10" d="M141.8 53.2h44v3h-44z"/></g><defs><path id="aq" d="M141.8 57.7h-1.5v6h47v-6h-45.5zm0 3h44l-1.5-1.5v3l1.5-1.5h-44l1.5 1.5v-3l-1.5 1.5zm-21.5-23h87v46h-87v-46z"/></defs><clipPath id="ar"><use xlink:href="#aq" overflow="visible"/></clipPath><g clip-path="url(#ar)"><defs><path id="as" d="M141.8 59.2h44v3h-44z"/></defs><clipPath id="at"><use xlink:href="#as" overflow="visible"/></clipPath><g clip-path="url(#at)"><defs><path id="au" d="M-537.2-276.8h1121v1030h-1121z"/></defs><clipPath id="av"><use xlink:href="#au" overflow="visible"/></clipPath><path clip-path="url(#av)" fill-rule="evenodd" clip-rule="evenodd" fill="#FFF" d="M141.8 59.2h44v3h-44z"/></g></g><defs><path id="aw" d="M141.8 59.2h44v3h-44z"/></defs><clipPath id="ax"><use xlink:href="#aw" overflow="visible"/></clipPath><g clip-path="url(#ax)"><defs><path id="ay" d="M-537.2-276.8h1121v1030h-1121z"/></defs><clipPath id="az"><use xlink:href="#ay" overflow="visible"/></clipPath><path clip-path="url(#az)" fill="none" stroke="#0C1F2E" stroke-width="6" stroke-linecap="round" stroke-miterlimit="10" d="M141.8 59.2h44v3h-44z"/></g><defs><path id="aA" d="M141.8 63.7h-1.5v6h47v-6h-45.5zm0 3h44l-1.5-1.5v3l1.5-1.5h-44l1.5 1.5v-3l-1.5 1.5zm-21.5-23h87v46h-87v-46z"/></defs><clipPath id="aB"><use xlink:href="#aA" overflow="visible"/></clipPath><g clip-path="url(#aB)"><defs><path id="aC" d="M141.8 65.2h44v3h-44z"/></defs><clipPath id="aD"><use xlink:href="#aC" overflow="visible"/></clipPath><g clip-path="url(#aD)"><defs><path id="aE" d="M-537.2-276.8h1121v1030h-1121z"/></defs><clipPath id="aF"><use xlink:href="#aE" overflow="visible"/></clipPath><path clip-path="url(#aF)" fill-rule="evenodd" clip-rule="evenodd" fill="#FFF" d="M141.8 65.2h44v3h-44z"/></g></g><defs><path id="aG" d="M141.8 65.2h44v3h-44z"/></defs><clipPath id="aH"><use xlink:href="#aG" overflow="visible"/></clipPath><g clip-path="url(#aH)"><defs><path id="aI" d="M-537.2-276.8h1121v1030h-1121z"/></defs><clipPath id="aJ"><use xlink:href="#aI" overflow="visible"/></clipPath><path clip-path="url(#aJ)" fill="none" stroke="#0C1F2E" stroke-width="6" stroke-linecap="round" stroke-miterlimit="10" d="M141.8 65.2h44v3h-44z"/></g><path d="M144.7 88.8v.5c0 .2 0 .3-.1.4l1.1-.1v.6h-3.2v-.4c.2 0 .4 0 .6-.1s.3-.2.4-.3.2-.3.2-.5.1-.4.1-.6l.3-6.1-1.6 1-.2-.4 2.5-1.9h.4l-.5 7.9zm2.4-5.9c0-.2.1-.4.2-.7.1-.2.3-.4.5-.6s.5-.4.9-.5c.3-.1.8-.2 1.2-.2.3 0 .6 0 1 .1.3.1.6.2.8.4.2.2.4.4.6.7.1.3.2.6.2 1 0 .2 0 .5-.1.7-.1.3-.2.5-.4.8s-.5.6-.8 1c-.3.3-.8.7-1.3 1.1-.6.5-1.1.9-1.5 1.3-.4.4-.6.8-.7 1.2l3 .1h.6c.2 0 .3-.1.5-.1s.2-.2.3-.3c.1-.1.1-.3.1-.5h.4l-.2 1.8h-5.6c0-.5.1-.9.3-1.2.2-.4.4-.7.6-1s.5-.6.9-.9c.3-.3.7-.6 1-.9.3-.2.5-.5.8-.8.2-.3.4-.5.6-.8s.3-.5.4-.8c.1-.2.1-.5.1-.7 0-.2 0-.5-.1-.7-.1-.2-.1-.4-.3-.6-.1-.2-.3-.3-.5-.4-.2-.1-.4-.1-.7-.1-.2 0-.3 0-.5.1-.2 0-.3.1-.5.2-.1.1-.3.2-.4.3-.1.1-.2.2-.2.4.1.1.1.2.2.3v.5c0 .1-.1.1-.1.2-.1.1-.1.1-.2.1s-.2.1-.2.1c-.2 0-.3-.1-.4-.2-.4-.1-.5-.2-.5-.4zm7.5 6.1c0 .1.1.3.2.4s.2.2.4.3c.1.1.3.1.5.2.2 0 .3.1.5.1.3 0 .6-.1.9-.2s.5-.3.7-.4c.2-.2.3-.4.4-.7.1-.3.1-.6.1-.9v-.4c0-.1 0-.3-.1-.4 0-.1-.1-.3-.2-.4-.1-.1-.2-.3-.3-.4-.1-.1-.3-.2-.5-.2-.2-.1-.4-.1-.7-.1h-.9v-.6h.5c.3 0 .5 0 .7-.1.2-.1.4-.2.5-.3.1-.1.3-.2.4-.4.1-.1.2-.3.2-.4.1-.2.1-.3.1-.4v-.4c0-.2 0-.5-.1-.7 0-.2-.1-.4-.2-.5-.1-.2-.3-.3-.5-.4-.2-.1-.4-.1-.7-.1-.2 0-.4 0-.6.1-.2.1-.3.1-.5.2-.1.1-.3.2-.4.3-.1.1-.2.2-.2.3.1.1.1.2.1.3v.4c0 .1-.1.1-.1.2s-.1.1-.2.1h-.2c-.2 0-.3-.1-.4-.2-.1-.1-.2-.3-.2-.4 0-.2.1-.4.2-.6.1-.2.3-.4.5-.6.2-.2.5-.4.9-.5s.7-.2 1.2-.2c.3 0 .7 0 1 .1s.6.2.8.4c.2.2.4.4.6.7.1.3.2.6.2 1 0 .2 0 .4-.1.7-.1.2-.2.5-.4.7-.2.2-.4.4-.7.6-.3.2-.6.3-1 .4.4 0 .7.1 1.1.2s.6.3.8.5c.2.2.4.4.5.7.1.3.2.5.2.8 0 .3 0 .6-.1.9-.1.3-.2.5-.4.7-.2.2-.3.4-.6.6-.2.2-.4.3-.7.4-.2.1-.5.2-.8.3-.3.1-.5.1-.8.1-.4 0-.8-.1-1.2-.2-.3-.1-.6-.3-.8-.4-.2-.2-.4-.4-.5-.6-.1-.2-.2-.4-.2-.6 0-.2.1-.4.2-.5.1-.1.3-.2.5-.2.1 0 .2 0 .2.1.1 0 .1.1.2.1s.1.1.1.2v.5c0 .1 0-.3-.1-.2zm7.3-.2c0 .1-.1.2-.1.3 0 .1-.1.2-.1.2 0 .1-.1.1-.1.2s-.1.1-.1.2l1-.1v.6h-2.4v-.4c.2 0 .3 0 .4-.1.1-.1.2-.2.4-.3.1-.1.2-.3.3-.5.1-.2.2-.4.3-.7l2.9-7.3h.3l2.5 7.4c0 .1.1.2.1.3 0 .1.1.2.1.3 0 .1.1.2.1.4v.4l.8-.1v.6h-2.9v-.4c.2 0 .3 0 .4-.1s.2-.1.2-.1c.1-.1.1-.1.1-.2v-.5c0-.1 0-.2-.1-.3l-.4-1.2-3.3.1-.4 1.3zm1.8-4.7c-.2.6-.4 1.1-.6 1.5s-.3.8-.5 1.2h3l-1.4-4.2-.5 1.5zm6.6-1.4v-.6c0-.2 0-.3.1-.4l-1 .1v-.6h2.9c.5 0 .9 0 1.3.1s.7.2 1 .4c.3.2.5.4.6.6.1.3.2.6.2.9 0 .2 0 .5-.1.7-.1.2-.2.4-.4.7s-.4.4-.7.5-.6.3-1 .3c.5 0 .9.1 1.2.2.3.1.6.3.8.5.2.2.4.4.5.7.1.3.2.6.2.9 0 .4-.1.8-.2 1.1-.2.3-.4.6-.7.8-.3.2-.6.4-1 .5-.4.1-.8.2-1.3.2H169v-.4c.2 0 .4 0 .6-.1l.3-.3c.1-.1.1-.3.1-.5v-.7l.3-5.6zm.7 7h1.4c.4 0 .7 0 1-.1.3-.1.5-.2.7-.4.2-.2.4-.4.5-.7s.2-.6.2-.9c0-.4-.1-.6-.2-.9-.1-.2-.3-.4-.5-.6-.2-.1-.4-.2-.7-.3-.3-.1-.5-.1-.8-.1h-1.3l-.2 2.9v.6c0 .2-.1.4-.1.5zm1.4-8.1c-.2 0-.4 0-.5.1-.1 0-.2.1-.3.2-.1.1-.1.2-.2.4 0 .2-.1.4-.1.6l-.1 2.4h1c.4 0 .7-.1 1-.2.3-.1.5-.3.6-.5s.3-.4.4-.6c.1-.2.1-.5.1-.7 0-.3-.1-.6-.2-.8s-.3-.4-.4-.5-.4-.2-.6-.2c-.2-.2-.5-.2-.7-.2zm12.7 7c-.3.4-.6.7-.9.9s-.7.4-1 .6-.7.2-1 .3c-.3.1-.6.1-.9.1-.6 0-1.2-.1-1.7-.3-.5-.2-.9-.5-1.3-.9s-.6-.8-.8-1.4c-.2-.5-.3-1.1-.3-1.7 0-.4 0-.8.1-1.3s.2-.8.4-1.2.4-.7.7-1.1l.9-.9c.3-.2.7-.4 1.2-.6.4-.1.9-.2 1.4-.2.5 0 1 .1 1.4.2.4.1.8.3 1.2.6V81h.7l-.2 3h-.5c0-.4-.1-.8-.2-1.1-.1-.3-.3-.6-.5-.8-.2-.2-.5-.4-.8-.5s-.6-.2-1-.2c-.5 0-.9.1-1.4.3-.4.2-.8.5-1.1.9-.3.4-.6.9-.8 1.4-.2.6-.3 1.2-.3 1.8 0 .6.1 1.1.3 1.6s.4.9.7 1.2c.3.3.6.6 1 .8.4.2.8.3 1.3.3.3 0 .6 0 .8-.1.3-.1.6-.2.8-.3s.5-.3.8-.5c.2-.2.5-.4.6-.6l.4.4z" fill="#042A3E"/><defs><path id="aK" d="M-216 188.2h-1.2v71.5h131.7v-71.5H-216zm0 2.4h129.3l-1.2-1.2v69.1l1.2-1.2H-216l1.2 1.2v-69.1l-1.2 1.2zm-17.3-18.5h163.9v103.6h-163.9V172.1z"/></defs><defs><path id="aL" d="M-209.6 194.6h-1.2v57.8h118.9v-57.8h-19.5l-.3.2-6.5 4.8.7-.2h-66.7l.8.3-5.9-4.8-.3-.3h-20zm0 2.4h19.4l-.8-.3 5.9 4.8.3.3h67.5l.3-.2 6.5-4.8-.7.2h17.9l-1.2-1.2v55.4l1.2-1.2h-116.5l1.2 1.2v-55.4l-1 1.2zm-17.3-18.5h151v90h-151v-90z"/></defs><defs><path id="aM" d="M-525.8 210.2h-1.5v38h142v-25.1l-.4-.4-11.4-12-.4-.5h-128.3zm0 3h127.6l-1.1-.5 11.4 12-.4-1v23l1.5-1.5h-139l1.5 1.5v-35l-1.5 1.5zm-21.5-23h182v78h-182v-78z"/></defs><defs><path id="aN" d="M-492.8 261.6c-8 0-14.5-6.5-14.5-14.5s6.5-14.5 14.5-14.5 14.5 6.5 14.5 14.5-6.4 14.5-14.5 14.5zm0 3c9.7 0 17.5-7.8 17.5-17.5s-7.8-17.5-17.5-17.5-17.5 7.8-17.5 17.5 7.9 17.5 17.5 17.5zm-37.5-55h75v75h-75v-75z"/></defs><defs><path id="aO" d="M-492.8 254.6c-4.1 0-7.5-3.4-7.5-7.5s3.4-7.5 7.5-7.5 7.5 3.4 7.5 7.5c0 4.2-3.3 7.5-7.5 7.5zm0 3c5.8 0 10.5-4.7 10.5-10.5s-4.7-10.5-10.5-10.5-10.5 4.7-10.5 10.5 4.7 10.5 10.5 10.5zm-30.5-41h61v61h-61v-61z"/></defs><defs><path id="aP" d="M-426.5 261.6c-8 0-14.5-6.5-14.5-14.5s6.5-14.5 14.5-14.5 14.5 6.5 14.5 14.5-6.5 14.5-14.5 14.5zm0 3c9.7 0 17.5-7.8 17.5-17.5s-7.8-17.5-17.5-17.5-17.5 7.8-17.5 17.5 7.8 17.5 17.5 17.5zm-37.5-55h75v75h-75v-75z"/></defs><defs><path id="aQ" d="M-426.5 254.6c-4.1 0-7.5-3.4-7.5-7.5s3.4-7.5 7.5-7.5 7.5 3.4 7.5 7.5c0 4.2-3.4 7.5-7.5 7.5zm0 3c5.8 0 10.5-4.7 10.5-10.5s-4.7-10.5-10.5-10.5-10.5 4.7-10.5 10.5 4.7 10.5 10.5 10.5zm-30.5-41h61v61h-61v-61z"/></defs><defs><path id="aR" d="M-211.8 32.5h-1.5v84h108v-84h-106.5zm0 3h105l-1.5-1.5v81l1.5-1.5h-105l1.5 1.5V34l-1.5 1.5zm-21.5-23h148v124h-148v-124z"/></defs><defs><path id="aS" d="M-217.8 49.5h-2.2l.9-2.1 9.1-22 .4-.9h100.9l.4.9 9.1 22 .9 2.1h-119.5zm0-3h117l-1.4 2.1-9.1-22 1.4.9h-98.9l1.4-.9-9.1 22-1.3-2.1zm-22.2 23h161.5v-65H-240v65z"/></defs><defs><path id="aT" d="M-132.8 16.5h-1.5v19h15v-19h-13.5zm0 3h12l-1.5-1.5v16l1.5-1.5h-12l1.5 1.5V18l-1.5 1.5zm-21.5-23h55v59h-55v-59z"/></defs><defs><path id="aU" d="M-198.8 82.5h-1.5v34h24v-34h-22.5zm0 3h21l-1.5-1.5v31l1.5-1.5h-21l1.5 1.5V84l-1.5 1.5zm-21.5-23h64v74h-64v-74z"/></defs><defs><path id="aV" d="M-197.8 54.5h-1.5v22h22v-22h-20.5zm0 3h19l-1.5-1.5v19l1.5-1.5h-19l1.5 1.5V56l-1.5 1.5zm-21.5-23h62v62h-62v-62z"/></defs><defs><path id="aW" d="M-192.8 59.5h-1.5v12h12v-12h-10.5zm0 3h9l-1.5-1.5v9l1.5-1.5h-9l1.5 1.5v-9l-1.5 1.5zm-21.5-23h52v52h-52v-52z"/></defs><defs><path id="aX" d="M-167.8 54.5h-1.5v22h22v-22h-20.5zm0 3h19l-1.5-1.5v19l1.5-1.5h-19l1.5 1.5V56l-1.5 1.5zm-21.5-23h62v62h-62v-62z"/></defs><defs><path id="aY" d="M-138.8 54.5h-1.5v22h22v-22h-20.5zm0 3h19l-1.5-1.5v19l1.5-1.5h-19l1.5 1.5V56l-1.5 1.5zm-21.5-23h62v62h-62v-62z"/></defs><defs><path id="aZ" d="M-167.8 82.5h-1.5v22h22v-22h-20.5zm0 3h19l-1.5-1.5v19l1.5-1.5h-19l1.5 1.5V84l-1.5 1.5zm-21.5-23h62v62h-62v-62z"/></defs><defs><path id="ba" d="M-138.8 82.5h-1.5v22h22v-22h-20.5zm0 3h19l-1.5-1.5v19l1.5-1.5h-19l1.5 1.5V84l-1.5 1.5zm-21.5-23h62v62h-62v-62z"/></defs><defs><path id="bb" d="M-162.8 59.5h-1.5v12h12v-12h-10.5zm0 3h9l-1.5-1.5v9l1.5-1.5h-9l1.5 1.5v-9l-1.5 1.5zm-21.5-23h52v52h-52v-52z"/></defs><defs><path id="bc" d="M-133.8 59.5h-1.5v12h12v-12h-10.5zm0 3h9l-1.5-1.5v9l1.5-1.5h-9l1.5 1.5v-9l-1.5 1.5zm-21.5-23h52v52h-52v-52z"/></defs><defs><path id="bd" d="M-162.8 87.5h-1.5v12h12v-12h-10.5zm0 3h9l-1.5-1.5v9l1.5-1.5h-9l1.5 1.5v-9l-1.5 1.5zm-21.5-23h52v52h-52v-52z"/></defs><defs><path id="be" d="M-133.8 87.5h-1.5v12h12v-12h-10.5zm0 3h9l-1.5-1.5v9l1.5-1.5h-9l1.5 1.5v-9l-1.5 1.5zm-21.5-23h52v52h-52v-52z"/></defs><defs><path id="bf" d="M-454.6-39.5c-27.1 0-49-21.9-49-49s21.9-49 49-49 49 21.9 49 49-21.9 49-49 49zm0 3c28.7 0 52-23.3 52-52s-23.3-52-52-52-52 23.3-52 52 23.3 52 52 52zm-72-124h144v144h-144v-144z"/></defs><defs><path id="bg" d="M-461.1-112.5h-1.7l.2 1.6 3.1 32 .1 1.4h11.4l.1-1.4 2.3-32 .1-1.6h-15.6zm0 3h14l-1.5-1.6-2.3 32 1.5-1.4h-8.6l1.5 1.4-3.1-32-1.5 1.6zm-21.6-23h57.3v75h-57.3v-75z"/></defs><defs><path id="bh" d="M-453.6-65.5c-2.2 0-4-1.8-4-4s1.8-4 4-4 4 1.8 4 4-1.8 4-4 4zm0 3c3.9 0 7-3.1 7-7s-3.1-7-7-7-7 3.1-7 7 3.2 7 7 7zm-27-34h54v54h-54v-54z"/></defs><defs><path id="bi" d="M365.1-132h-1.5v90h134v-90H365.1zm0 3h131l-1.5-1.5v87l1.5-1.5h-131l1.5 1.5v-87l-1.5 1.5zm-21.5-23h174v130h-174v-130z"/></defs><defs><path id="bj" d="M469.1-123h-1.5v23h21v-23h-19.5zm0 3h18l-1.5-1.5v20l1.5-1.5h-18l1.5 1.5v-20l-1.5 1.5zm-21.5-23h61v63h-61v-63z"/></defs><defs><path id="bk" d="M474.1-118h-1.5v13h11v-13h-9.5zm0 3h8l-1.5-1.5v10l1.5-1.5h-8l1.5 1.5v-10l-1.5 1.5zm-21.5-23h51v53h-51v-53z"/></defs><defs><path id="bl" d="M-433.9 54.2l.2 3c8.3-.7 15.9-2.1 21.4-3.8 2.5-.7 4.4-1.5 5.5-2.2 1.8-1.1 2.5-3 .4-4.1-8.1-4.3-23.9-7.1-41.3-7.1-17.2 0-32.8 2.7-41 6.9-1.8.9-1.5 2.7 0 3.9.9.7 2.4 1.4 4.4 2.1 4.3 1.5 10.5 2.8 17.5 3.7l.3-3c-21.2-2.3-35.5-8.1-35.5-13.8 0-7.7 24.7-14.8 55-14.8s55 7.1 55 14.8c-.1 6.4-17.6 12.7-41.9 14.4zm.2 3c26-1.8 44.7-8.5 44.7-17.4 0-10.3-25.9-17.8-58-17.8s-58 7.5-58 17.8c0 8.1 15.4 14.4 38.2 16.8l.3-3c-6.9-.9-12.9-2.2-16.9-3.6-1.7-.6-3-1.2-3.6-1.6-.1-.1-.1-.1-.2-.1 0 .1.1.2.1.3.1.5-.2.8-.4.9 7.7-4 22.9-6.6 39.7-6.6 17 0 32.3 2.6 39.9 6.7-.1 0-.2-.1-.3-.3-.1-.3-.2-.6-.1-.9 0-.1.1-.2.1-.2-.1.1-.2.2-.4.3-.9.5-2.5 1.2-4.8 1.9-5.2 1.6-12.6 2.9-20.8 3.6l.5 3.2zM-525.1 2h156v75.2h-156V2z"/></defs><defs><path id="bm" d="M-447.1 76c-30.3 0-55-7.1-55-14.8v-22l-2.8.8c.3.6 1.1 1.4 2.4 2.4 2 1.6 4.9 3.2 8.6 4.7 10.5 4.1 26.3 6.6 48.5 6.6 19.8 0 34.5-2.6 44.8-7.1 3.7-1.6 6.5-3.3 8.6-5 1.3-1.1 2.1-1.9 2.5-2.5l-2.7-.9v23c.1 7.7-24.6 14.8-54.9 14.8zm0 3c32.1 0 58-7.5 58-17.8V33.5l-2.7 3.8c0 .1-.2.2-.4.4-.4.4-.9.9-1.6 1.4-1.9 1.5-4.5 3.1-8 4.6-9.9 4.3-24.2 6.8-43.6 6.8-21.8 0-37.3-2.4-47.4-6.4-3.5-1.4-6.1-2.8-7.9-4.2-1-.8-1.5-1.4-1.7-1.6l-2.8-4.5v27.3c.1 10.4 26 17.9 58.1 17.9zm-78-65.5h156V99h-156V13.5z"/></defs><defs><path id="bn" d="M-442.5 112c-8.5 0-15.4-6.9-15.4-15.4s6.9-15.4 15.4-15.4 15.5 6.9 15.5 15.4-7 15.4-15.5 15.4zm0 3c10.2 0 18.5-8.2 18.5-18.4s-8.3-18.4-18.5-18.4-18.4 8.2-18.4 18.4 8.2 18.4 18.4 18.4zM-481 58.2h76.9V135H-481V58.2z"/></defs><defs><path id="bo" d="M687.5-148H686v120h96v-120h-94.5zm0 3h93l-1.5-1.5v117l1.5-1.5h-93l1.5 1.5v-117l-1.5 1.5zM666-168h136V-8H666v-160z"/></defs><defs><path id="bp" d="M694.5-141H693v23h82v-23h-80.5zm0 3h79l-1.5-1.5v20l1.5-1.5h-79l1.5 1.5v-20l-1.5 1.5zM673-161h122v63H673v-63z"/></defs><defs><path id="bq" d="M694.5-117H693v81h82v-81h-80.5zm0 3h79l-1.5-1.5v78l1.5-1.5h-79l1.5 1.5v-78l-1.5 1.5zM673-137h122v121H673v-121z"/></defs><defs><path id="br" d="M-212.2 346.9h-1.5v84h108v-84h-106.5zm0 3h105l-1.5-1.5v81l1.5-1.5h-105l1.5 1.5v-81l-1.5 1.5zm-21.5-23h148v124h-148v-124z"/></defs><defs><path id="bs" d="M-218.2 363.9h-2.2l.9-2.1 9.1-22 .4-.9h100.9l.4.9 9.1 22 .9 2.1h-119.5zm0-3h117l-1.4 2.1-9.1-22 1.4.9h-98.9l1.4-.9-9.1 22-1.3-2.1zm-22.2 23H-79v-65h-161.5v65z"/></defs><defs><path id="bt" d="M-133.2 330.9h-1.5v19h15v-19h-13.5zm0 3h12l-1.5-1.5v16l1.5-1.5h-12l1.5 1.5v-16l-1.5 1.5zm-21.5-23h55v59h-55v-59z"/></defs><defs><path id="bu" d="M-199.2 396.9h-1.5v34h24v-34h-22.5zm0 3h21l-1.5-1.5v31l1.5-1.5h-21l1.5 1.5v-31l-1.5 1.5zm-21.5-23h64v74h-64v-74z"/></defs><defs><path id="bv" d="M-198.2 368.9h-1.5v22h22v-22h-20.5zm0 3h19l-1.5-1.5v19l1.5-1.5h-19l1.5 1.5v-19l-1.5 1.5zm-21.5-23h62v62h-62v-62z"/></defs><defs><path id="bw" d="M-193.2 373.9h-1.5v12h12v-12h-10.5zm0 3h9l-1.5-1.5v9l1.5-1.5h-9l1.5 1.5v-9l-1.5 1.5zm-21.5-23h52v52h-52v-52z"/></defs><defs><path id="bx" d="M-168.2 368.9h-1.5v22h22v-22h-20.5zm0 3h19l-1.5-1.5v19l1.5-1.5h-19l1.5 1.5v-19l-1.5 1.5zm-21.5-23h62v62h-62v-62z"/></defs><defs><path id="by" d="M-139.2 368.9h-1.5v22h22v-22h-20.5zm0 3h19l-1.5-1.5v19l1.5-1.5h-19l1.5 1.5v-19l-1.5 1.5zm-21.5-23h62v62h-62v-62z"/></defs><defs><path id="bz" d="M-168.2 396.9h-1.5v22h22v-22h-20.5zm0 3h19l-1.5-1.5v19l1.5-1.5h-19l1.5 1.5v-19l-1.5 1.5zm-21.5-23h62v62h-62v-62z"/></defs><defs><path id="bA" d="M-139.2 396.9h-1.5v22h22v-22h-20.5zm0 3h19l-1.5-1.5v19l1.5-1.5h-19l1.5 1.5v-19l-1.5 1.5zm-21.5-23h62v62h-62v-62z"/></defs><defs><path id="bB" d="M-163.2 373.9h-1.5v12h12v-12h-10.5zm0 3h9l-1.5-1.5v9l1.5-1.5h-9l1.5 1.5v-9l-1.5 1.5zm-21.5-23h52v52h-52v-52z"/></defs><defs><path id="bC" d="M-134.2 373.9h-1.5v12h12v-12h-10.5zm0 3h9l-1.5-1.5v9l1.5-1.5h-9l1.5 1.5v-9l-1.5 1.5zm-21.5-23h52v52h-52v-52z"/></defs><defs><path id="bD" d="M-163.2 401.9h-1.5v12h12v-12h-10.5zm0 3h9l-1.5-1.5v9l1.5-1.5h-9l1.5 1.5v-9l-1.5 1.5zm-21.5-23h52v52h-52v-52z"/></defs><defs><path id="bE" d="M-134.2 401.9h-1.5v12h12v-12h-10.5zm0 3h9l-1.5-1.5v9l1.5-1.5h-9l1.5 1.5v-9l-1.5 1.5zm-21.5-23h52v52h-52v-52z"/></defs><defs><path id="bF" d="M439.1 432.9c-27.1 0-49-21.9-49-49s21.9-49 49-49 49 21.9 49 49-21.9 49-49 49zm0 3c28.7 0 52-23.3 52-52s-23.3-52-52-52-52 23.3-52 52 23.3 52 52 52zm-72-124h144v144h-144v-144z"/></defs><defs><path id="bG" d="M-158 585.3c-27.1 0-49-21.9-49-49s21.9-49 49-49 49 21.9 49 49c0 27-21.9 49-49 49zm0 3c28.7 0 52-23.3 52-52s-23.3-52-52-52-52 23.3-52 52 23.3 52 52 52zm-72-124h144v144h-144v-144z"/></defs><defs><path id="bH" d="M-157.3 752.5c-24.6 0-44.6-20-44.6-44.6s20-44.6 44.6-44.6 44.6 20 44.6 44.6-20 44.6-44.6 44.6zm0 2.7c26.1 0 47.3-21.2 47.3-47.3 0-26.1-21.2-47.3-47.3-47.3s-47.3 21.2-47.3 47.3c0 26.1 21.2 47.3 47.3 47.3zm-65.5-112.8h131v131h-131v-131z"/></defs></svg>