<svg id="Layer_1" data-name="Layer 1" xmlns="http://www.w3.org/2000/svg" viewBox="0 0 276 137"><defs><style>.cls-1,.cls-3,.cls-5{fill:#fff}.cls-1,.cls-7,.cls-8{stroke:#0e1f2d;stroke-miterlimit:10;stroke-width:3px}.cls-1{clip-rule:evenodd}.cls-2,.cls-7,.cls-8{fill:none}.cls-4{fill:#0c1f2e}.cls-5,.cls-8{fill-rule:evenodd}.cls-6{clip-path:url(#clip-path)}</style><clipPath id="clip-path"><path class="cls-1" d="M67.23 231.73H176.7l9.82 9.65v18.51H67.23v-28.16z"/></clipPath><clipPath id="clip-path-2"><circle class="cls-2" cx="-441.7" cy="388.62" r="50.5"/></clipPath><clipPath id="clip-path-3"><circle class="cls-2" cx="-441.7" cy="388.62" r="43.5"/></clipPath></defs><path class="cls-3" d="M200.11 28.92l-.17 77.08a10.35 10.35 0 0 1-10.55 10.13 10.23 10.23 0 0 1-10.57-10.55V104h-87V28.92z"/><path class="cls-4" d="M88.82 25.92V104h-12v1.55a13.75 13.75 0 0 0 13.39 13.68l99.18-.06A13.35 13.35 0 0 0 203 106l.18-80.13zm1.41 90.2a10.62 10.62 0 0 1-10.21-9h95.8a13.28 13.28 0 0 0 4.71 9zM199.94 106a10.34 10.34 0 0 1-10.55 10.13 10.24 10.24 0 0 1-10.57-10.55V104h-87V28.92h108.29z"/><path class="cls-3" d="M180.53 116.08h-90.3a10.62 10.62 0 0 1-10.21-9h95.8a13.28 13.28 0 0 0 4.71 9z"/><path class="cls-4" d="M140.17 39.99h48.43v3.09h-48.43zm0 12.36h48.43v3.09h-48.43zm0 12.37h48.43v3.09h-48.43zm0 12.37h48.43v3.09h-48.43zm0 12.36h48.43v3.09h-48.43z"/><circle class="cls-4" cx="110.82" cy="45.71" r="3.16" transform="rotate(-4.03 110.8 45.732)"/><path class="cls-4" d="M124.81 73.32a8.82 8.82 0 1 1-14.13-9.65c0-.65-.47-3.83-.58-4.77a13.06 13.06 0 1 0 17 19z"/><path class="cls-4" d="M134.31 78.38l-6.34 2.5-5.06-11.14h-12.16l-1.9-18.04 4.73-.5.53 5h6.72v4.22h-6.28l.48 4.57h10.94l4.46 9.81 2.14-.84 1.74 4.42z"/><path class="cls-5" d="M67.23 231.73H176.7l9.82 9.65v18.51H67.23v-28.16z"/><g class="cls-6"><path class="cls-3" d="M-252.03-198.78h962.06v828.83h-962.06z"/><path class="cls-7" d="M-252.03-198.78h962.06v828.83h-962.06z"/></g><path class="cls-8" d="M67.23 231.73H176.7l9.82 9.65v18.51H67.23v-28.16z"/></svg>