<svg xmlns="http://www.w3.org/2000/svg" xmlns:xlink="http://www.w3.org/1999/xlink" viewBox="0 0 276 137"><defs><path id="a" d="M78.5-363.6c-21.5 0-38.9-17.4-38.9-38.9s17.4-38.9 38.9-38.9 38.9 17.4 38.9 38.9-17.4 38.9-38.9 38.9zm0 3c23.2 0 41.9-18.8 41.9-41.9s-18.8-41.9-41.9-41.9c-23.2 0-41.9 18.8-41.9 41.9s18.7 41.9 41.9 41.9zm-62-103.8h123.9v123.9H16.5v-123.9z"/></defs><clipPath id="b"><use xlink:href="#a" overflow="visible"/></clipPath><g clip-path="url(#b)"><defs><circle id="c" cx="78.5" cy="-402.5" r="40.4"/></defs><clipPath id="d"><use xlink:href="#c" overflow="visible"/></clipPath><g clip-path="url(#d)"><defs><path id="e" d="M-554.8-947.8h1121v1030h-1121z"/></defs></g></g><defs><circle id="f" cx="78.5" cy="-402.5" r="40.4"/></defs><clipPath id="g"><use xlink:href="#f" overflow="visible"/></clipPath><g clip-path="url(#g)"><defs><path id="h" d="M-554.8-947.8h1121v1030h-1121z"/></defs></g><defs><path id="i" d="M191.5-363.6c-21.5 0-38.9-17.4-38.9-38.9s17.4-38.9 38.9-38.9 38.9 17.4 38.9 38.9-17.4 38.9-38.9 38.9zm0 3c23.2 0 41.9-18.8 41.9-41.9s-18.8-41.9-41.9-41.9c-23.2 0-41.9 18.8-41.9 41.9s18.7 41.9 41.9 41.9zm-62-103.8h123.9v123.9H129.5v-123.9z"/></defs><clipPath id="j"><use xlink:href="#i" overflow="visible"/></clipPath><g clip-path="url(#j)"><defs><circle id="k" cx="191.5" cy="-402.5" r="40.4"/></defs><clipPath id="l"><use xlink:href="#k" overflow="visible"/></clipPath><g clip-path="url(#l)"><defs><path id="m" d="M-554.8-947.8h1121v1030h-1121z"/></defs></g></g><defs><circle id="n" cx="191.5" cy="-402.5" r="40.4"/></defs><clipPath id="o"><use xlink:href="#n" overflow="visible"/></clipPath><g clip-path="url(#o)"><defs><path id="p" d="M-554.8-947.8h1121v1030h-1121z"/></defs></g><defs><path id="q" d="M379.8-438.1h-1.5v84h108v-84H379.8zm0 3h105l-1.5-1.5v81l1.5-1.5h-105l1.5 1.5v-81l-1.5 1.5zm-21.5-23h148v124h-148v-124z"/></defs><clipPath id="r"><use xlink:href="#q" overflow="visible"/></clipPath><g clip-path="url(#r)"><defs><path id="s" d="M379.8-436.6h105v81h-105z"/></defs><clipPath id="t"><use xlink:href="#s" overflow="visible"/></clipPath><g clip-path="url(#t)"><defs><path id="u" d="M-501.2-935.6h1121v1030h-1121z"/></defs></g></g><defs><path id="v" d="M379.8-436.6h105v81h-105z"/></defs><clipPath id="w"><use xlink:href="#v" overflow="visible"/></clipPath><g clip-path="url(#w)"><defs><path id="x" d="M-501.2-935.6h1121v1030h-1121z"/></defs></g><defs><path id="y" d="M373.8-421.1h-2.2l.9-2.1 9.1-22 .4-.9h100.9l.4.9 9.1 22 .9 2.1H373.8zm0-3h117l-1.4 2.1-9.1-22 1.4.9h-98.9l1.4-.9-9.1 22-1.3-2.1zm-22.2 23H513v-65H351.6v65z"/></defs><clipPath id="z"><use xlink:href="#y" overflow="visible"/></clipPath><g clip-path="url(#z)"><defs><path id="A" d="M373.8-422.6h117l-9.1-22h-98.8z"/></defs><clipPath id="B"><use xlink:href="#A" overflow="visible"/></clipPath><g clip-path="url(#B)"><defs><path id="C" d="M-501.2-935.6h1121v1030h-1121z"/></defs></g></g><defs><path id="D" d="M373.8-422.6h117l-9.1-22h-98.8z"/></defs><clipPath id="E"><use xlink:href="#D" overflow="visible"/></clipPath><g clip-path="url(#E)"><defs><path id="F" d="M-501.2-935.6h1121v1030h-1121z"/></defs></g><defs><path id="G" d="M458.8-454.1h-1.5v19h15v-19h-13.5zm0 3h12l-1.5-1.5v16l1.5-1.5h-12l1.5 1.5v-16l-1.5 1.5zm-21.5-23h55v59h-55v-59z"/></defs><clipPath id="H"><use xlink:href="#G" overflow="visible"/></clipPath><g clip-path="url(#H)"><defs><path id="I" d="M458.8-452.6h12v16h-12z"/></defs><clipPath id="J"><use xlink:href="#I" overflow="visible"/></clipPath><g clip-path="url(#J)"><defs><path id="K" d="M-501.2-935.6h1121v1030h-1121z"/></defs></g></g><defs><path id="L" d="M458.8-452.6h12v16h-12z"/></defs><clipPath id="M"><use xlink:href="#L" overflow="visible"/></clipPath><g clip-path="url(#M)"><defs><path id="N" d="M-501.2-935.6h1121v1030h-1121z"/></defs></g><defs><path id="O" d="M392.8-388.1h-1.5v34h24v-34h-22.5zm0 3h21l-1.5-1.5v31l1.5-1.5h-21l1.5 1.5v-31l-1.5 1.5zm-21.5-23h64v74h-64v-74z"/></defs><clipPath id="P"><use xlink:href="#O" overflow="visible"/></clipPath><g clip-path="url(#P)"><defs><path id="Q" d="M392.8-386.6h21v31h-21z"/></defs><clipPath id="R"><use xlink:href="#Q" overflow="visible"/></clipPath><g clip-path="url(#R)"><defs><path id="S" d="M-501.2-935.6h1121v1030h-1121z"/></defs></g></g><defs><path id="T" d="M392.8-386.6h21v31h-21z"/></defs><clipPath id="U"><use xlink:href="#T" overflow="visible"/></clipPath><g clip-path="url(#U)"><defs><path id="V" d="M-501.2-935.6h1121v1030h-1121z"/></defs></g><defs><path id="W" d="M393.8-416.1h-1.5v22h22v-22h-20.5zm0 3h19l-1.5-1.5v19l1.5-1.5h-19l1.5 1.5v-19l-1.5 1.5zm-21.5-23h62v62h-62v-62z"/></defs><clipPath id="X"><use xlink:href="#W" overflow="visible"/></clipPath><g clip-path="url(#X)"><defs><path id="Y" d="M393.8-414.6h19v19h-19z"/></defs><clipPath id="Z"><use xlink:href="#Y" overflow="visible"/></clipPath><g clip-path="url(#Z)"><defs><path id="aa" d="M-501.2-935.6h1121v1030h-1121z"/></defs></g></g><defs><path id="ab" d="M393.8-414.6h19v19h-19z"/></defs><clipPath id="ac"><use xlink:href="#ab" overflow="visible"/></clipPath><g clip-path="url(#ac)"><defs><path id="ad" d="M-501.2-935.6h1121v1030h-1121z"/></defs></g><defs><path id="ae" d="M398.8-411.1h-1.5v12h12v-12h-10.5zm0 3h9l-1.5-1.5v9l1.5-1.5h-9l1.5 1.5v-9l-1.5 1.5zm-21.5-23h52v52h-52v-52z"/></defs><clipPath id="af"><use xlink:href="#ae" overflow="visible"/></clipPath><g clip-path="url(#af)"><defs><path id="ag" d="M398.8-409.6h9v9h-9z"/></defs><clipPath id="ah"><use xlink:href="#ag" overflow="visible"/></clipPath><g clip-path="url(#ah)"><defs><path id="ai" d="M-501.2-935.6h1121v1030h-1121z"/></defs></g></g><defs><path id="aj" d="M398.8-409.6h9v9h-9z"/></defs><clipPath id="ak"><use xlink:href="#aj" overflow="visible"/></clipPath><g clip-path="url(#ak)"><defs><path id="al" d="M-501.2-935.6h1121v1030h-1121z"/></defs></g><defs><path id="am" d="M423.8-416.1h-1.5v22h22v-22h-20.5zm0 3h19l-1.5-1.5v19l1.5-1.5h-19l1.5 1.5v-19l-1.5 1.5zm-21.5-23h62v62h-62v-62z"/></defs><clipPath id="an"><use xlink:href="#am" overflow="visible"/></clipPath><g clip-path="url(#an)"><defs><path id="ao" d="M423.8-414.6h19v19h-19z"/></defs><clipPath id="ap"><use xlink:href="#ao" overflow="visible"/></clipPath><g clip-path="url(#ap)"><defs><path id="aq" d="M-501.2-935.6h1121v1030h-1121z"/></defs></g></g><defs><path id="ar" d="M423.8-414.6h19v19h-19z"/></defs><clipPath id="as"><use xlink:href="#ar" overflow="visible"/></clipPath><g clip-path="url(#as)"><defs><path id="at" d="M-501.2-935.6h1121v1030h-1121z"/></defs></g><defs><path id="au" d="M452.8-416.1h-1.5v22h22v-22h-20.5zm0 3h19l-1.5-1.5v19l1.5-1.5h-19l1.5 1.5v-19l-1.5 1.5zm-21.5-23h62v62h-62v-62z"/></defs><clipPath id="av"><use xlink:href="#au" overflow="visible"/></clipPath><g clip-path="url(#av)"><defs><path id="aw" d="M452.8-414.6h19v19h-19z"/></defs><clipPath id="ax"><use xlink:href="#aw" overflow="visible"/></clipPath><g clip-path="url(#ax)"><defs><path id="ay" d="M-501.2-935.6h1121v1030h-1121z"/></defs></g></g><defs><path id="az" d="M452.8-414.6h19v19h-19z"/></defs><clipPath id="aA"><use xlink:href="#az" overflow="visible"/></clipPath><g clip-path="url(#aA)"><defs><path id="aB" d="M-501.2-935.6h1121v1030h-1121z"/></defs></g><defs><path id="aC" d="M423.8-388.1h-1.5v22h22v-22h-20.5zm0 3h19l-1.5-1.5v19l1.5-1.5h-19l1.5 1.5v-19l-1.5 1.5zm-21.5-23h62v62h-62v-62z"/></defs><clipPath id="aD"><use xlink:href="#aC" overflow="visible"/></clipPath><g clip-path="url(#aD)"><defs><path id="aE" d="M423.8-386.6h19v19h-19z"/></defs><clipPath id="aF"><use xlink:href="#aE" overflow="visible"/></clipPath><g clip-path="url(#aF)"><defs><path id="aG" d="M-501.2-935.6h1121v1030h-1121z"/></defs></g></g><defs><path id="aH" d="M423.8-386.6h19v19h-19z"/></defs><clipPath id="aI"><use xlink:href="#aH" overflow="visible"/></clipPath><g clip-path="url(#aI)"><defs><path id="aJ" d="M-501.2-935.6h1121v1030h-1121z"/></defs></g><defs><path id="aK" d="M452.8-388.1h-1.5v22h22v-22h-20.5zm0 3h19l-1.5-1.5v19l1.5-1.5h-19l1.5 1.5v-19l-1.5 1.5zm-21.5-23h62v62h-62v-62z"/></defs><clipPath id="aL"><use xlink:href="#aK" overflow="visible"/></clipPath><g clip-path="url(#aL)"><defs><path id="aM" d="M452.8-386.6h19v19h-19z"/></defs><clipPath id="aN"><use xlink:href="#aM" overflow="visible"/></clipPath><g clip-path="url(#aN)"><defs><path id="aO" d="M-501.2-935.6h1121v1030h-1121z"/></defs></g></g><defs><path id="aP" d="M452.8-386.6h19v19h-19z"/></defs><clipPath id="aQ"><use xlink:href="#aP" overflow="visible"/></clipPath><g clip-path="url(#aQ)"><defs><path id="aR" d="M-501.2-935.6h1121v1030h-1121z"/></defs></g><defs><path id="aS" d="M428.8-411.1h-1.5v12h12v-12h-10.5zm0 3h9l-1.5-1.5v9l1.5-1.5h-9l1.5 1.5v-9l-1.5 1.5zm-21.5-23h52v52h-52v-52z"/></defs><clipPath id="aT"><use xlink:href="#aS" overflow="visible"/></clipPath><g clip-path="url(#aT)"><defs><path id="aU" d="M428.8-409.6h9v9h-9z"/></defs><clipPath id="aV"><use xlink:href="#aU" overflow="visible"/></clipPath><g clip-path="url(#aV)"><defs><path id="aW" d="M-501.2-935.6h1121v1030h-1121z"/></defs></g></g><g><defs><path id="aX" d="M428.8-409.6h9v9h-9z"/></defs><clipPath id="aY"><use xlink:href="#aX" overflow="visible"/></clipPath><g clip-path="url(#aY)"><defs><path id="aZ" d="M-501.2-935.6h1121v1030h-1121z"/></defs></g></g><g><defs><path id="ba" d="M457.8-411.1h-1.5v12h12v-12h-10.5zm0 3h9l-1.5-1.5v9l1.5-1.5h-9l1.5 1.5v-9l-1.5 1.5zm-21.5-23h52v52h-52v-52z"/></defs><clipPath id="bb"><use xlink:href="#ba" overflow="visible"/></clipPath><g clip-path="url(#bb)"><defs><path id="bc" d="M457.8-409.6h9v9h-9z"/></defs><clipPath id="bd"><use xlink:href="#bc" overflow="visible"/></clipPath><g clip-path="url(#bd)"><defs><path id="be" d="M-501.2-935.6h1121v1030h-1121z"/></defs></g></g></g><g><defs><path id="bf" d="M457.8-409.6h9v9h-9z"/></defs><clipPath id="bg"><use xlink:href="#bf" overflow="visible"/></clipPath><g clip-path="url(#bg)"><defs><path id="bh" d="M-501.2-935.6h1121v1030h-1121z"/></defs></g></g><g><defs><path id="bi" d="M428.8-383.1h-1.5v12h12v-12h-10.5zm0 3h9l-1.5-1.5v9l1.5-1.5h-9l1.5 1.5v-9l-1.5 1.5zm-21.5-23h52v52h-52v-52z"/></defs><clipPath id="bj"><use xlink:href="#bi" overflow="visible"/></clipPath><g clip-path="url(#bj)"><defs><path id="bk" d="M428.8-381.6h9v9h-9z"/></defs><clipPath id="bl"><use xlink:href="#bk" overflow="visible"/></clipPath><g clip-path="url(#bl)"><defs><path id="bm" d="M-501.2-935.6h1121v1030h-1121z"/></defs></g></g></g><g><defs><path id="bn" d="M428.8-381.6h9v9h-9z"/></defs><clipPath id="bo"><use xlink:href="#bn" overflow="visible"/></clipPath><g clip-path="url(#bo)"><defs><path id="bp" d="M-501.2-935.6h1121v1030h-1121z"/></defs></g></g><g><defs><path id="bq" d="M457.8-383.1h-1.5v12h12v-12h-10.5zm0 3h9l-1.5-1.5v9l1.5-1.5h-9l1.5 1.5v-9l-1.5 1.5zm-21.5-23h52v52h-52v-52z"/></defs><clipPath id="br"><use xlink:href="#bq" overflow="visible"/></clipPath><g clip-path="url(#br)"><defs><path id="bs" d="M457.8-381.6h9v9h-9z"/></defs><clipPath id="bt"><use xlink:href="#bs" overflow="visible"/></clipPath><g clip-path="url(#bt)"><defs><path id="bu" d="M-501.2-935.6h1121v1030h-1121z"/></defs></g></g></g><g><defs><path id="bv" d="M457.8-381.6h9v9h-9z"/></defs><clipPath id="bw"><use xlink:href="#bv" overflow="visible"/></clipPath><g clip-path="url(#bw)"><defs><path id="bx" d="M-501.2-935.6h1121v1030h-1121z"/></defs></g></g><g><defs><path id="by" d="M434-199.7c-27.1 0-49-21.9-49-49s21.9-49 49-49 49 21.9 49 49c0 27-21.9 49-49 49zm0 3c28.7 0 52-23.3 52-52s-23.3-52-52-52-52 23.3-52 52 23.3 52 52 52zm-72-124h144v144H362v-144z"/></defs><clipPath id="bz"><use xlink:href="#by" overflow="visible"/></clipPath><g clip-path="url(#bz)"><defs><circle id="bA" cx="434" cy="-248.7" r="50.5"/></defs><clipPath id="bB"><use xlink:href="#bA" overflow="visible"/></clipPath><g clip-path="url(#bB)"><defs><path id="bC" d="M259.5-984.7h1121v1030h-1121z"/></defs></g></g></g><g><defs><circle id="bD" cx="434" cy="-248.7" r="50.5"/></defs><clipPath id="bE"><use xlink:href="#bD" overflow="visible"/></clipPath><g clip-path="url(#bE)"><defs><path id="bF" d="M259.5-984.7h1121v1030h-1121z"/></defs></g></g><g><defs><circle id="bG" cx="434" cy="-248.7" r="43.5"/></defs><clipPath id="bH"><use xlink:href="#bG" overflow="visible"/></clipPath><g clip-path="url(#bH)"><defs><path id="bI" d="M259.5-984.7h1121v1030h-1121z"/></defs></g></g><g><defs><path id="bJ" d="M434.7-32.5c-24.6 0-44.6-20-44.6-44.6s20-44.6 44.6-44.6 44.6 20 44.6 44.6-20 44.6-44.6 44.6zm0 2.7c26.1 0 47.3-21.2 47.3-47.3s-21.2-47.3-47.3-47.3-47.3 21.2-47.3 47.3 21.2 47.3 47.3 47.3zm-65.5-112.8h131v131h-131v-131z"/></defs><clipPath id="bK"><use xlink:href="#bJ" overflow="visible"/></clipPath><g clip-path="url(#bK)"><defs><circle id="bL" cx="434.7" cy="-77.1" r="45.9"/></defs><clipPath id="bM"><use xlink:href="#bL" overflow="visible"/></clipPath><g clip-path="url(#bM)"><defs><path id="bN" d="M276-746.7h1019.8v937H276z"/></defs></g></g></g><g><defs><circle id="bO" cx="434.7" cy="-77.1" r="45.9"/></defs><clipPath id="bP"><use xlink:href="#bO" overflow="visible"/></clipPath><g clip-path="url(#bP)"><defs><path id="bQ" d="M276-746.7h1019.8v937H276z"/></defs></g></g><g><defs><circle id="bR" cx="434.7" cy="-77.1" r="39.6"/></defs><clipPath id="bS"><use xlink:href="#bR" overflow="visible"/></clipPath><g clip-path="url(#bS)"><defs><path id="bT" d="M276-746.7h1019.8v937H276z"/></defs></g></g><g><defs><path id="bU" d="M973.5 34.2H972v84h108v-84H973.5zm0 3h105l-1.5-1.5v81l1.5-1.5h-105l1.5 1.5v-81l-1.5 1.5zm-21.5-23h148v124H952v-124z"/></defs><clipPath id="bV"><use xlink:href="#bU" overflow="visible"/></clipPath><g clip-path="url(#bV)"><defs><path id="bW" d="M973.5 35.7h105v81h-105z"/></defs><clipPath id="bX"><use xlink:href="#bW" overflow="visible"/></clipPath><g clip-path="url(#bX)"><defs><path id="bY" d="M92.5-463.3h1121v1030H92.5z"/></defs></g></g></g><g><defs><path id="bZ" d="M973.5 35.7h105v81h-105z"/></defs><clipPath id="ca"><use xlink:href="#bZ" overflow="visible"/></clipPath><g clip-path="url(#ca)"><defs><path id="cb" d="M92.5-463.3h1121v1030H92.5z"/></defs></g></g><g><defs><path id="cc" d="M967.5 51.2h-2.2l.9-2.1 9.1-22 .4-.9h100.9l.4.9 9.1 22 .9 2.1H967.5zm0-3h117l-1.4 2.1-9.1-22 1.4.9h-98.9l1.4-.9-9.1 22-1.3-2.1zm-22.2 23h161.5v-65H945.3v65z"/></defs><clipPath id="cd"><use xlink:href="#cc" overflow="visible"/></clipPath><g clip-path="url(#cd)"><defs><path id="ce" d="M967.5 49.7h117l-9.1-22h-98.8z"/></defs><clipPath id="cf"><use xlink:href="#ce" overflow="visible"/></clipPath><g clip-path="url(#cf)"><defs><path id="cg" d="M92.5-463.3h1121v1030H92.5z"/></defs></g></g></g><g><defs><path id="ch" d="M967.5 49.7h117l-9.1-22h-98.8z"/></defs><clipPath id="ci"><use xlink:href="#ch" overflow="visible"/></clipPath><g clip-path="url(#ci)"><defs><path id="cj" d="M92.5-463.3h1121v1030H92.5z"/></defs></g></g><g><defs><path id="ck" d="M1052.5 18.2h-1.5v19h15v-19h-13.5zm0 3h12l-1.5-1.5v16l1.5-1.5h-12l1.5 1.5v-16l-1.5 1.5zm-21.5-23h55v59h-55v-59z"/></defs><clipPath id="cl"><use xlink:href="#ck" overflow="visible"/></clipPath><g clip-path="url(#cl)"><defs><path id="cm" d="M1052.5 19.7h12v16h-12z"/></defs><clipPath id="cn"><use xlink:href="#cm" overflow="visible"/></clipPath><g clip-path="url(#cn)"><defs><path id="co" d="M92.5-463.3h1121v1030H92.5z"/></defs></g></g></g><g><defs><path id="cp" d="M1052.5 19.7h12v16h-12z"/></defs><clipPath id="cq"><use xlink:href="#cp" overflow="visible"/></clipPath><g clip-path="url(#cq)"><defs><path id="cr" d="M92.5-463.3h1121v1030H92.5z"/></defs></g></g><g><defs><path id="cs" d="M986.5 84.2H985v34h24v-34h-22.5zm0 3h21l-1.5-1.5v31l1.5-1.5h-21l1.5 1.5v-31l-1.5 1.5zm-21.5-23h64v74h-64v-74z"/></defs><clipPath id="ct"><use xlink:href="#cs" overflow="visible"/></clipPath><g clip-path="url(#ct)"><defs><path id="cu" d="M986.5 85.7h21v31h-21z"/></defs><clipPath id="cv"><use xlink:href="#cu" overflow="visible"/></clipPath><g clip-path="url(#cv)"><defs><path id="cw" d="M92.5-463.3h1121v1030H92.5z"/></defs></g></g></g><g><defs><path id="cx" d="M986.5 85.7h21v31h-21z"/></defs><clipPath id="cy"><use xlink:href="#cx" overflow="visible"/></clipPath><g clip-path="url(#cy)"><defs><path id="cz" d="M92.5-463.3h1121v1030H92.5z"/></defs></g></g><g><defs><path id="cA" d="M987.5 56.2H986v22h22v-22h-20.5zm0 3h19l-1.5-1.5v19l1.5-1.5h-19l1.5 1.5v-19l-1.5 1.5zm-21.5-23h62v62h-62v-62z"/></defs><clipPath id="cB"><use xlink:href="#cA" overflow="visible"/></clipPath><g clip-path="url(#cB)"><defs><path id="cC" d="M987.5 57.7h19v19h-19z"/></defs><clipPath id="cD"><use xlink:href="#cC" overflow="visible"/></clipPath><g clip-path="url(#cD)"><defs><path id="cE" d="M92.5-463.3h1121v1030H92.5z"/></defs></g></g></g><g><defs><path id="cF" d="M987.5 57.7h19v19h-19z"/></defs><clipPath id="cG"><use xlink:href="#cF" overflow="visible"/></clipPath><g clip-path="url(#cG)"><defs><path id="cH" d="M92.5-463.3h1121v1030H92.5z"/></defs></g></g><g><defs><path id="cI" d="M992.5 61.2H991v12h12v-12h-10.5zm0 3h9l-1.5-1.5v9l1.5-1.5h-9l1.5 1.5v-9l-1.5 1.5zm-21.5-23h52v52h-52v-52z"/></defs><clipPath id="cJ"><use xlink:href="#cI" overflow="visible"/></clipPath><g clip-path="url(#cJ)"><defs><path id="cK" d="M992.5 62.7h9v9h-9z"/></defs><clipPath id="cL"><use xlink:href="#cK" overflow="visible"/></clipPath><g clip-path="url(#cL)"><defs><path id="cM" d="M92.5-463.3h1121v1030H92.5z"/></defs></g></g></g><g><defs><path id="cN" d="M992.5 62.7h9v9h-9z"/></defs><clipPath id="cO"><use xlink:href="#cN" overflow="visible"/></clipPath><g clip-path="url(#cO)"><defs><path id="cP" d="M92.5-463.3h1121v1030H92.5z"/></defs></g></g><g><defs><path id="cQ" d="M1017.5 56.2h-1.5v22h22v-22h-20.5zm0 3h19l-1.5-1.5v19l1.5-1.5h-19l1.5 1.5v-19l-1.5 1.5zm-21.5-23h62v62h-62v-62z"/></defs><clipPath id="cR"><use xlink:href="#cQ" overflow="visible"/></clipPath><g clip-path="url(#cR)"><defs><path id="cS" d="M1017.5 57.7h19v19h-19z"/></defs><clipPath id="cT"><use xlink:href="#cS" overflow="visible"/></clipPath><g clip-path="url(#cT)"><defs><path id="cU" d="M92.5-463.3h1121v1030H92.5z"/></defs></g></g></g><g><defs><path id="cV" d="M1017.5 57.7h19v19h-19z"/></defs><clipPath id="cW"><use xlink:href="#cV" overflow="visible"/></clipPath><g clip-path="url(#cW)"><defs><path id="cX" d="M92.5-463.3h1121v1030H92.5z"/></defs></g></g><g><defs><path id="cY" d="M1046.5 56.2h-1.5v22h22v-22h-20.5zm0 3h19l-1.5-1.5v19l1.5-1.5h-19l1.5 1.5v-19l-1.5 1.5zm-21.5-23h62v62h-62v-62z"/></defs><clipPath id="cZ"><use xlink:href="#cY" overflow="visible"/></clipPath><g clip-path="url(#cZ)"><defs><path id="da" d="M1046.5 57.7h19v19h-19z"/></defs><clipPath id="db"><use xlink:href="#da" overflow="visible"/></clipPath><g clip-path="url(#db)"><defs><path id="dc" d="M92.5-463.3h1121v1030H92.5z"/></defs></g></g></g><g><defs><path id="dd" d="M1046.5 57.7h19v19h-19z"/></defs><clipPath id="de"><use xlink:href="#dd" overflow="visible"/></clipPath><g clip-path="url(#de)"><defs><path id="df" d="M92.5-463.3h1121v1030H92.5z"/></defs></g></g><g><defs><path id="dg" d="M1017.5 84.2h-1.5v22h22v-22h-20.5zm0 3h19l-1.5-1.5v19l1.5-1.5h-19l1.5 1.5v-19l-1.5 1.5zm-21.5-23h62v62h-62v-62z"/></defs><clipPath id="dh"><use xlink:href="#dg" overflow="visible"/></clipPath><g clip-path="url(#dh)"><defs><path id="di" d="M1017.5 85.7h19v19h-19z"/></defs><clipPath id="dj"><use xlink:href="#di" overflow="visible"/></clipPath><g clip-path="url(#dj)"><defs><path id="dk" d="M92.5-463.3h1121v1030H92.5z"/></defs></g></g></g><g><defs><path id="dl" d="M1017.5 85.7h19v19h-19z"/></defs><clipPath id="dm"><use xlink:href="#dl" overflow="visible"/></clipPath><g clip-path="url(#dm)"><defs><path id="dn" d="M92.5-463.3h1121v1030H92.5z"/></defs></g></g><g><defs><path id="do" d="M1046.5 84.2h-1.5v22h22v-22h-20.5zm0 3h19l-1.5-1.5v19l1.5-1.5h-19l1.5 1.5v-19l-1.5 1.5zm-21.5-23h62v62h-62v-62z"/></defs><clipPath id="dp"><use xlink:href="#do" overflow="visible"/></clipPath><g clip-path="url(#dp)"><defs><path id="dq" d="M1046.5 85.7h19v19h-19z"/></defs><clipPath id="dr"><use xlink:href="#dq" overflow="visible"/></clipPath><g clip-path="url(#dr)"><defs><path id="ds" d="M92.5-463.3h1121v1030H92.5z"/></defs></g></g></g><g><defs><path id="dt" d="M1046.5 85.7h19v19h-19z"/></defs><clipPath id="du"><use xlink:href="#dt" overflow="visible"/></clipPath><g clip-path="url(#du)"><defs><path id="dv" d="M92.5-463.3h1121v1030H92.5z"/></defs></g></g><g><defs><path id="dw" d="M1022.5 61.2h-1.5v12h12v-12h-10.5zm0 3h9l-1.5-1.5v9l1.5-1.5h-9l1.5 1.5v-9l-1.5 1.5zm-21.5-23h52v52h-52v-52z"/></defs><clipPath id="dx"><use xlink:href="#dw" overflow="visible"/></clipPath><g clip-path="url(#dx)"><defs><path id="dy" d="M1022.5 62.7h9v9h-9z"/></defs><clipPath id="dz"><use xlink:href="#dy" overflow="visible"/></clipPath><g clip-path="url(#dz)"><defs><path id="dA" d="M92.5-463.3h1121v1030H92.5z"/></defs></g></g></g><g><defs><path id="dB" d="M1022.5 62.7h9v9h-9z"/></defs><clipPath id="dC"><use xlink:href="#dB" overflow="visible"/></clipPath><g clip-path="url(#dC)"><defs><path id="dD" d="M92.5-463.3h1121v1030H92.5z"/></defs></g></g><g><defs><path id="dE" d="M1051.5 61.2h-1.5v12h12v-12h-10.5zm0 3h9l-1.5-1.5v9l1.5-1.5h-9l1.5 1.5v-9l-1.5 1.5zm-21.5-23h52v52h-52v-52z"/></defs><clipPath id="dF"><use xlink:href="#dE" overflow="visible"/></clipPath><g clip-path="url(#dF)"><defs><path id="dG" d="M1051.5 62.7h9v9h-9z"/></defs><clipPath id="dH"><use xlink:href="#dG" overflow="visible"/></clipPath><g clip-path="url(#dH)"><defs><path id="dI" d="M92.5-463.3h1121v1030H92.5z"/></defs></g></g></g><g><defs><path id="dJ" d="M1051.5 62.7h9v9h-9z"/></defs><clipPath id="dK"><use xlink:href="#dJ" overflow="visible"/></clipPath><g clip-path="url(#dK)"><defs><path id="dL" d="M92.5-463.3h1121v1030H92.5z"/></defs></g></g><g><defs><path id="dM" d="M1022.5 89.2h-1.5v12h12v-12h-10.5zm0 3h9l-1.5-1.5v9l1.5-1.5h-9l1.5 1.5v-9l-1.5 1.5zm-21.5-23h52v52h-52v-52z"/></defs><clipPath id="dN"><use xlink:href="#dM" overflow="visible"/></clipPath><g clip-path="url(#dN)"><defs><path id="dO" d="M1022.5 90.7h9v9h-9z"/></defs><clipPath id="dP"><use xlink:href="#dO" overflow="visible"/></clipPath><g clip-path="url(#dP)"><defs><path id="dQ" d="M92.5-463.3h1121v1030H92.5z"/></defs></g></g></g><g><defs><path id="dR" d="M1022.5 90.7h9v9h-9z"/></defs><clipPath id="dS"><use xlink:href="#dR" overflow="visible"/></clipPath><g clip-path="url(#dS)"><defs><path id="dT" d="M92.5-463.3h1121v1030H92.5z"/></defs></g></g><g><defs><path id="dU" d="M1051.5 89.2h-1.5v12h12v-12h-10.5zm0 3h9l-1.5-1.5v9l1.5-1.5h-9l1.5 1.5v-9l-1.5 1.5zm-21.5-23h52v52h-52v-52z"/></defs><clipPath id="dV"><use xlink:href="#dU" overflow="visible"/></clipPath><g clip-path="url(#dV)"><defs><path id="dW" d="M1051.5 90.7h9v9h-9z"/></defs><clipPath id="dX"><use xlink:href="#dW" overflow="visible"/></clipPath><g clip-path="url(#dX)"><defs><path id="dY" d="M92.5-463.3h1121v1030H92.5z"/></defs></g></g></g><g><defs><path id="dZ" d="M1051.5 90.7h9v9h-9z"/></defs><clipPath id="ea"><use xlink:href="#dZ" overflow="visible"/></clipPath><g clip-path="url(#ea)"><defs><path id="eb" d="M92.5-463.3h1121v1030H92.5z"/></defs></g></g><g><path fill="#FFF" stroke="#0C1F2E" stroke-width="3.0000599999999995" stroke-linecap="round" stroke-miterlimit="10" d="M74.274 79.52L138.758 9.89l31.403 29.083-64.485 69.628z"/></g><circle fill="#FFF" stroke="#0C1F2E" stroke-width="3" stroke-linecap="round" stroke-miterlimit="10" cx="122.5" cy="59.3" r="14.5"/><g><path fill="#FFF" stroke="#0C1F2E" stroke-width="2.9999700000000002" stroke-linecap="round" stroke-miterlimit="10" d="M85.53 74.158l83.293-45.476 20.51 37.565-83.294 45.476z"/></g><circle fill="#FFF" stroke="#0C1F2E" stroke-width="3" stroke-linecap="round" stroke-miterlimit="10" cx="137.5" cy="71.3" r="14.5"/><path fill="#FFF" stroke="#0C1F2E" stroke-width="3.00003" stroke-linecap="round" stroke-miterlimit="10" d="M98.233 73.75l93.363-17.015 7.674 42.107-93.363 17.016z"/><circle fill="#FFF" stroke="#0C1F2E" stroke-width="3" stroke-linecap="round" stroke-miterlimit="10" cx="147.5" cy="86.3" r="14.5"/><g><path fill="#231F20" d="M147.9 95.5l-.4-2.1c-1.5.2-2.9.1-3.8-.3l.2-2.7c1 .3 2.4.6 3.8.3 1.2-.2 2-.9 1.8-1.7-.1-.8-.9-1.2-2.6-1.5-2.5-.4-4.2-1.2-4.6-3.2-.3-1.9.7-3.6 3-4.5l-.4-2.1 2.1-.4.3 1.9c1.5-.2 2.5-.1 3.3.1l-.2 2.6c-.6-.1-1.7-.5-3.3-.2-1.4.3-1.8.9-1.6 1.6.1.7 1 1 2.9 1.4 2.7.4 4 1.4 4.4 3.4.4 1.9-.7 3.8-3.1 4.7l.4 2.2-2.2.5z"/></g></svg>