<svg xmlns="http://www.w3.org/2000/svg" xmlns:xlink="http://www.w3.org/1999/xlink" viewBox="0 0 276 137"><defs><path id="a" d="M78.5-363.6c-21.5 0-38.9-17.4-38.9-38.9s17.4-38.9 38.9-38.9 38.9 17.4 38.9 38.9-17.4 38.9-38.9 38.9zm0 3c23.2 0 41.9-18.8 41.9-41.9s-18.8-41.9-41.9-41.9c-23.2 0-41.9 18.8-41.9 41.9s18.7 41.9 41.9 41.9zm-62-103.8h123.9v123.9H16.5v-123.9z"/></defs><clipPath id="b"><use xlink:href="#a" overflow="visible"/></clipPath><g clip-path="url(#b)"><defs><circle id="c" cx="78.5" cy="-402.5" r="40.4"/></defs></g><defs><circle id="d" cx="78.5" cy="-402.5" r="40.4"/></defs><defs><path id="e" d="M191.5-363.6c-21.5 0-38.9-17.4-38.9-38.9s17.4-38.9 38.9-38.9 38.9 17.4 38.9 38.9-17.4 38.9-38.9 38.9zm0 3c23.2 0 41.9-18.8 41.9-41.9s-18.8-41.9-41.9-41.9c-23.2 0-41.9 18.8-41.9 41.9s18.7 41.9 41.9 41.9zm-62-103.8h123.9v123.9H129.5v-123.9z"/></defs><clipPath id="f"><use xlink:href="#e" overflow="visible"/></clipPath><g clip-path="url(#f)"><defs><circle id="g" cx="191.5" cy="-402.5" r="40.4"/></defs></g><defs><circle id="h" cx="191.5" cy="-402.5" r="40.4"/></defs><defs><path id="i" d="M379.8-438.1h-1.5v84h108v-84H379.8zm0 3h105l-1.5-1.5v81l1.5-1.5h-105l1.5 1.5v-81l-1.5 1.5zm-21.5-23h148v124h-148v-124z"/></defs><clipPath id="j"><use xlink:href="#i" overflow="visible"/></clipPath><g clip-path="url(#j)"><defs><path id="k" d="M379.8-436.6h105v81h-105z"/></defs></g><defs><path id="l" d="M379.8-436.6h105v81h-105z"/></defs><defs><path id="m" d="M373.8-421.1h-2.2l.9-2.1 9.1-22 .4-.9h100.9l.4.9 9.1 22 .9 2.1H373.8zm0-3h117l-1.4 2.1-9.1-22 1.4.9h-98.9l1.4-.9-9.1 22-1.3-2.1zm-22.2 23H513v-65H351.6v65z"/></defs><clipPath id="n"><use xlink:href="#m" overflow="visible"/></clipPath><g clip-path="url(#n)"><defs><path id="o" d="M373.8-422.6h117l-9.1-22h-98.8z"/></defs></g><defs><path id="p" d="M373.8-422.6h117l-9.1-22h-98.8z"/></defs><defs><path id="q" d="M458.8-454.1h-1.5v19h15v-19h-13.5zm0 3h12l-1.5-1.5v16l1.5-1.5h-12l1.5 1.5v-16l-1.5 1.5zm-21.5-23h55v59h-55v-59z"/></defs><clipPath id="r"><use xlink:href="#q" overflow="visible"/></clipPath><g clip-path="url(#r)"><defs><path id="s" d="M458.8-452.6h12v16h-12z"/></defs></g><defs><path id="t" d="M458.8-452.6h12v16h-12z"/></defs><defs><path id="u" d="M392.8-388.1h-1.5v34h24v-34h-22.5zm0 3h21l-1.5-1.5v31l1.5-1.5h-21l1.5 1.5v-31l-1.5 1.5zm-21.5-23h64v74h-64v-74z"/></defs><clipPath id="v"><use xlink:href="#u" overflow="visible"/></clipPath><g clip-path="url(#v)"><defs><path id="w" d="M392.8-386.6h21v31h-21z"/></defs></g><defs><path id="x" d="M392.8-386.6h21v31h-21z"/></defs><defs><path id="y" d="M393.8-416.1h-1.5v22h22v-22h-20.5zm0 3h19l-1.5-1.5v19l1.5-1.5h-19l1.5 1.5v-19l-1.5 1.5zm-21.5-23h62v62h-62v-62z"/></defs><clipPath id="z"><use xlink:href="#y" overflow="visible"/></clipPath><g clip-path="url(#z)"><defs><path id="A" d="M393.8-414.6h19v19h-19z"/></defs></g><defs><path id="B" d="M393.8-414.6h19v19h-19z"/></defs><defs><path id="C" d="M398.8-411.1h-1.5v12h12v-12h-10.5zm0 3h9l-1.5-1.5v9l1.5-1.5h-9l1.5 1.5v-9l-1.5 1.5zm-21.5-23h52v52h-52v-52z"/></defs><clipPath id="D"><use xlink:href="#C" overflow="visible"/></clipPath><g clip-path="url(#D)"><defs><path id="E" d="M398.8-409.6h9v9h-9z"/></defs></g><defs><path id="F" d="M398.8-409.6h9v9h-9z"/></defs><defs><path id="G" d="M423.8-416.1h-1.5v22h22v-22h-20.5zm0 3h19l-1.5-1.5v19l1.5-1.5h-19l1.5 1.5v-19l-1.5 1.5zm-21.5-23h62v62h-62v-62z"/></defs><clipPath id="H"><use xlink:href="#G" overflow="visible"/></clipPath><g clip-path="url(#H)"><defs><path id="I" d="M423.8-414.6h19v19h-19z"/></defs></g><defs><path id="J" d="M423.8-414.6h19v19h-19z"/></defs><defs><path id="K" d="M452.8-416.1h-1.5v22h22v-22h-20.5zm0 3h19l-1.5-1.5v19l1.5-1.5h-19l1.5 1.5v-19l-1.5 1.5zm-21.5-23h62v62h-62v-62z"/></defs><clipPath id="L"><use xlink:href="#K" overflow="visible"/></clipPath><g clip-path="url(#L)"><defs><path id="M" d="M452.8-414.6h19v19h-19z"/></defs></g><defs><path id="N" d="M452.8-414.6h19v19h-19z"/></defs><defs><path id="O" d="M423.8-388.1h-1.5v22h22v-22h-20.5zm0 3h19l-1.5-1.5v19l1.5-1.5h-19l1.5 1.5v-19l-1.5 1.5zm-21.5-23h62v62h-62v-62z"/></defs><clipPath id="P"><use xlink:href="#O" overflow="visible"/></clipPath><g clip-path="url(#P)"><defs><path id="Q" d="M423.8-386.6h19v19h-19z"/></defs></g><defs><path id="R" d="M423.8-386.6h19v19h-19z"/></defs><defs><path id="S" d="M452.8-388.1h-1.5v22h22v-22h-20.5zm0 3h19l-1.5-1.5v19l1.5-1.5h-19l1.5 1.5v-19l-1.5 1.5zm-21.5-23h62v62h-62v-62z"/></defs><clipPath id="T"><use xlink:href="#S" overflow="visible"/></clipPath><g clip-path="url(#T)"><defs><path id="U" d="M452.8-386.6h19v19h-19z"/></defs></g><defs><path id="V" d="M452.8-386.6h19v19h-19z"/></defs><defs><path id="W" d="M428.8-411.1h-1.5v12h12v-12h-10.5zm0 3h9l-1.5-1.5v9l1.5-1.5h-9l1.5 1.5v-9l-1.5 1.5zm-21.5-23h52v52h-52v-52z"/></defs><clipPath id="X"><use xlink:href="#W" overflow="visible"/></clipPath><g clip-path="url(#X)"><defs><path id="Y" d="M428.8-409.6h9v9h-9z"/></defs></g><defs><path id="Z" d="M428.8-409.6h9v9h-9z"/></defs><defs><path id="aa" d="M457.8-411.1h-1.5v12h12v-12h-10.5zm0 3h9l-1.5-1.5v9l1.5-1.5h-9l1.5 1.5v-9l-1.5 1.5zm-21.5-23h52v52h-52v-52z"/></defs><clipPath id="ab"><use xlink:href="#aa" overflow="visible"/></clipPath><g clip-path="url(#ab)"><defs><path id="ac" d="M457.8-409.6h9v9h-9z"/></defs></g><defs><path id="ad" d="M457.8-409.6h9v9h-9z"/></defs><defs><path id="ae" d="M428.8-383.1h-1.5v12h12v-12h-10.5zm0 3h9l-1.5-1.5v9l1.5-1.5h-9l1.5 1.5v-9l-1.5 1.5zm-21.5-23h52v52h-52v-52z"/></defs><clipPath id="af"><use xlink:href="#ae" overflow="visible"/></clipPath><g clip-path="url(#af)"><defs><path id="ag" d="M428.8-381.6h9v9h-9z"/></defs></g><defs><path id="ah" d="M428.8-381.6h9v9h-9z"/></defs><defs><path id="ai" d="M457.8-383.1h-1.5v12h12v-12h-10.5zm0 3h9l-1.5-1.5v9l1.5-1.5h-9l1.5 1.5v-9l-1.5 1.5zm-21.5-23h52v52h-52v-52z"/></defs><clipPath id="aj"><use xlink:href="#ai" overflow="visible"/></clipPath><g clip-path="url(#aj)"><defs><path id="ak" d="M457.8-381.6h9v9h-9z"/></defs></g><defs><path id="al" d="M457.8-381.6h9v9h-9z"/></defs><defs><path id="am" d="M434-199.7c-27.1 0-49-21.9-49-49s21.9-49 49-49 49 21.9 49 49c0 27-21.9 49-49 49zm0 3c28.7 0 52-23.3 52-52s-23.3-52-52-52-52 23.3-52 52 23.3 52 52 52zm-72-124h144v144H362v-144z"/></defs><clipPath id="an"><use xlink:href="#am" overflow="visible"/></clipPath><g clip-path="url(#an)"><defs><circle id="ao" cx="434" cy="-248.7" r="50.5"/></defs></g><defs><circle id="ap" cx="434" cy="-248.7" r="50.5"/></defs><defs><circle id="aq" cx="434" cy="-248.7" r="43.5"/></defs><defs><path id="ar" d="M434.7-32.5c-24.6 0-44.6-20-44.6-44.6s20-44.6 44.6-44.6 44.6 20 44.6 44.6-20 44.6-44.6 44.6zm0 2.7c26.1 0 47.3-21.2 47.3-47.3s-21.2-47.3-47.3-47.3-47.3 21.2-47.3 47.3 21.2 47.3 47.3 47.3zm-65.5-112.8h131v131h-131v-131z"/></defs><clipPath id="as"><use xlink:href="#ar" overflow="visible"/></clipPath><g clip-path="url(#as)"><defs><circle id="at" cx="434.7" cy="-77.1" r="45.9"/></defs></g><defs><circle id="au" cx="434.7" cy="-77.1" r="45.9"/></defs><defs><circle id="av" cx="434.7" cy="-77.1" r="39.6"/></defs><defs><path id="aw" d="M973.5 34.2H972v84h108v-84H973.5zm0 3h105l-1.5-1.5v81l1.5-1.5h-105l1.5 1.5v-81l-1.5 1.5zm-21.5-23h148v124H952v-124z"/></defs><clipPath id="ax"><use xlink:href="#aw" overflow="visible"/></clipPath><g clip-path="url(#ax)"><defs><path id="ay" d="M973.5 35.7h105v81h-105z"/></defs></g><defs><path id="az" d="M973.5 35.7h105v81h-105z"/></defs><defs><path id="aA" d="M967.5 51.2h-2.2l.9-2.1 9.1-22 .4-.9h100.9l.4.9 9.1 22 .9 2.1H967.5zm0-3h117l-1.4 2.1-9.1-22 1.4.9h-98.9l1.4-.9-9.1 22-1.3-2.1zm-22.2 23h161.5v-65H945.3v65z"/></defs><clipPath id="aB"><use xlink:href="#aA" overflow="visible"/></clipPath><g clip-path="url(#aB)"><defs><path id="aC" d="M967.5 49.7h117l-9.1-22h-98.8z"/></defs></g><defs><path id="aD" d="M967.5 49.7h117l-9.1-22h-98.8z"/></defs><defs><path id="aE" d="M1052.5 18.2h-1.5v19h15v-19h-13.5zm0 3h12l-1.5-1.5v16l1.5-1.5h-12l1.5 1.5v-16l-1.5 1.5zm-21.5-23h55v59h-55v-59z"/></defs><clipPath id="aF"><use xlink:href="#aE" overflow="visible"/></clipPath><g clip-path="url(#aF)"><defs><path id="aG" d="M1052.5 19.7h12v16h-12z"/></defs></g><defs><path id="aH" d="M1052.5 19.7h12v16h-12z"/></defs><defs><path id="aI" d="M986.5 84.2H985v34h24v-34h-22.5zm0 3h21l-1.5-1.5v31l1.5-1.5h-21l1.5 1.5v-31l-1.5 1.5zm-21.5-23h64v74h-64v-74z"/></defs><clipPath id="aJ"><use xlink:href="#aI" overflow="visible"/></clipPath><g clip-path="url(#aJ)"><defs><path id="aK" d="M986.5 85.7h21v31h-21z"/></defs></g><defs><path id="aL" d="M986.5 85.7h21v31h-21z"/></defs><defs><path id="aM" d="M987.5 56.2H986v22h22v-22h-20.5zm0 3h19l-1.5-1.5v19l1.5-1.5h-19l1.5 1.5v-19l-1.5 1.5zm-21.5-23h62v62h-62v-62z"/></defs><clipPath id="aN"><use xlink:href="#aM" overflow="visible"/></clipPath><g clip-path="url(#aN)"><defs><path id="aO" d="M987.5 57.7h19v19h-19z"/></defs></g><defs><path id="aP" d="M987.5 57.7h19v19h-19z"/></defs><defs><path id="aQ" d="M992.5 61.2H991v12h12v-12h-10.5zm0 3h9l-1.5-1.5v9l1.5-1.5h-9l1.5 1.5v-9l-1.5 1.5zm-21.5-23h52v52h-52v-52z"/></defs><clipPath id="aR"><use xlink:href="#aQ" overflow="visible"/></clipPath><g clip-path="url(#aR)"><defs><path id="aS" d="M992.5 62.7h9v9h-9z"/></defs></g><defs><path id="aT" d="M992.5 62.7h9v9h-9z"/></defs><defs><path id="aU" d="M1017.5 56.2h-1.5v22h22v-22h-20.5zm0 3h19l-1.5-1.5v19l1.5-1.5h-19l1.5 1.5v-19l-1.5 1.5zm-21.5-23h62v62h-62v-62z"/></defs><clipPath id="aV"><use xlink:href="#aU" overflow="visible"/></clipPath><g clip-path="url(#aV)"><defs><path id="aW" d="M1017.5 57.7h19v19h-19z"/></defs></g><defs><path id="aX" d="M1017.5 57.7h19v19h-19z"/></defs><defs><path id="aY" d="M1046.5 56.2h-1.5v22h22v-22h-20.5zm0 3h19l-1.5-1.5v19l1.5-1.5h-19l1.5 1.5v-19l-1.5 1.5zm-21.5-23h62v62h-62v-62z"/></defs><clipPath id="aZ"><use xlink:href="#aY" overflow="visible"/></clipPath><g clip-path="url(#aZ)"><defs><path id="ba" d="M1046.5 57.7h19v19h-19z"/></defs></g><defs><path id="bb" d="M1046.5 57.7h19v19h-19z"/></defs><defs><path id="bc" d="M1017.5 84.2h-1.5v22h22v-22h-20.5zm0 3h19l-1.5-1.5v19l1.5-1.5h-19l1.5 1.5v-19l-1.5 1.5zm-21.5-23h62v62h-62v-62z"/></defs><clipPath id="bd"><use xlink:href="#bc" overflow="visible"/></clipPath><g clip-path="url(#bd)"><defs><path id="be" d="M1017.5 85.7h19v19h-19z"/></defs></g><defs><path id="bf" d="M1017.5 85.7h19v19h-19z"/></defs><defs><path id="bg" d="M1046.5 84.2h-1.5v22h22v-22h-20.5zm0 3h19l-1.5-1.5v19l1.5-1.5h-19l1.5 1.5v-19l-1.5 1.5zm-21.5-23h62v62h-62v-62z"/></defs><clipPath id="bh"><use xlink:href="#bg" overflow="visible"/></clipPath><g clip-path="url(#bh)"><defs><path id="bi" d="M1046.5 85.7h19v19h-19z"/></defs></g><g><defs><path id="bj" d="M1046.5 85.7h19v19h-19z"/></defs></g><g><defs><path id="bk" d="M1022.5 61.2h-1.5v12h12v-12h-10.5zm0 3h9l-1.5-1.5v9l1.5-1.5h-9l1.5 1.5v-9l-1.5 1.5zm-21.5-23h52v52h-52v-52z"/></defs><clipPath id="bl"><use xlink:href="#bk" overflow="visible"/></clipPath><g clip-path="url(#bl)"><defs><path id="bm" d="M1022.5 62.7h9v9h-9z"/></defs></g></g><g><defs><path id="bn" d="M1022.5 62.7h9v9h-9z"/></defs></g><g><defs><path id="bo" d="M1051.5 61.2h-1.5v12h12v-12h-10.5zm0 3h9l-1.5-1.5v9l1.5-1.5h-9l1.5 1.5v-9l-1.5 1.5zm-21.5-23h52v52h-52v-52z"/></defs><clipPath id="bp"><use xlink:href="#bo" overflow="visible"/></clipPath><g clip-path="url(#bp)"><defs><path id="bq" d="M1051.5 62.7h9v9h-9z"/></defs></g></g><g><defs><path id="br" d="M1051.5 62.7h9v9h-9z"/></defs></g><g><defs><path id="bs" d="M1022.5 89.2h-1.5v12h12v-12h-10.5zm0 3h9l-1.5-1.5v9l1.5-1.5h-9l1.5 1.5v-9l-1.5 1.5zm-21.5-23h52v52h-52v-52z"/></defs><clipPath id="bt"><use xlink:href="#bs" overflow="visible"/></clipPath><g clip-path="url(#bt)"><defs><path id="bu" d="M1022.5 90.7h9v9h-9z"/></defs></g></g><g><defs><path id="bv" d="M1022.5 90.7h9v9h-9z"/></defs></g><g><defs><path id="bw" d="M1051.5 89.2h-1.5v12h12v-12h-10.5zm0 3h9l-1.5-1.5v9l1.5-1.5h-9l1.5 1.5v-9l-1.5 1.5zm-21.5-23h52v52h-52v-52z"/></defs><clipPath id="bx"><use xlink:href="#bw" overflow="visible"/></clipPath><g clip-path="url(#bx)"><defs><path id="by" d="M1051.5 90.7h9v9h-9z"/></defs></g></g><g><defs><path id="bz" d="M1051.5 90.7h9v9h-9z"/></defs></g><g><path fill="#FFF" stroke="#0C1F2E" stroke-width="3" stroke-linecap="round" stroke-miterlimit="10" d="M74.274 79.52l64.484-69.63 31.403 29.083-64.485 69.628z"/></g><circle fill="#FFF" stroke="#0C1F2E" stroke-width="3" stroke-linecap="round" stroke-miterlimit="10" cx="122.5" cy="59.3" r="14.5"/><g><path fill="#FFF" stroke="#0C1F2E" stroke-width="3" stroke-linecap="round" stroke-miterlimit="10" d="M85.53 74.158l83.293-45.476 20.51 37.565-83.294 45.476z"/></g><circle fill="#FFF" stroke="#0C1F2E" stroke-width="3" stroke-linecap="round" stroke-miterlimit="10" cx="137.5" cy="71.3" r="14.5"/><path fill="#FFF" stroke="#0C1F2E" stroke-width="3" stroke-linecap="round" stroke-miterlimit="10" d="M98.233 73.75l93.363-17.015 7.674 42.107-93.363 17.016z"/><circle fill="#FFF" stroke="#0C1F2E" stroke-width="3" stroke-linecap="round" stroke-miterlimit="10" cx="147.5" cy="86.3" r="14.5"/><g><path fill="#231F20" d="M147.9 95.5l-.4-2.1c-1.5.2-2.9.1-3.8-.3l.2-2.7c1 .3 2.4.6 3.8.3 1.2-.2 2-.9 1.8-1.7-.1-.8-.9-1.2-2.6-1.5-2.5-.4-4.2-1.2-4.6-3.2-.3-1.9.7-3.6 3-4.5l-.4-2.1 2.1-.4.3 1.9c1.5-.2 2.5-.1 3.3.1l-.2 2.6c-.6-.1-1.7-.5-3.3-.2-1.4.3-1.8.9-1.6 1.6.1.7 1 1 2.9 1.4 2.7.4 4 1.4 4.4 3.4.4 1.9-.7 3.8-3.1 4.7l.4 2.2-2.2.5z"/></g></svg>