<svg xmlns="http://www.w3.org/2000/svg" viewBox="0 0 276 137"><defs><style>.cls-1,.cls-2{fill:none}.cls-2{clip-rule:evenodd}.cls-34{fill:#fff;stroke:#0f1f2d;stroke-miterlimit:10;stroke-width:3px}.cls-35{fill:#0c1f2e}</style><clipPath id="clip-path"><circle class="cls-1" cx="142.15" cy="-86.47" r="50.5"/></clipPath><clipPath id="clip-path-2"><circle class="cls-1" cx="142.15" cy="-86.47" r="43.5"/></clipPath><clipPath id="clip-path-3"><path class="cls-2" d="M85.5-279.79H84v84h108v-84H85.5zm0 3h105l-1.5-1.5v81l1.5-1.5h-105l1.5 1.5v-81zm-21.5-23h148v124H64z"/></clipPath><clipPath id="clip-path-4"><path class="cls-1" d="M85.5-278.29h105v81h-105z"/></clipPath><clipPath id="clip-path-6"><path class="cls-2" d="M79.5-262.79h-2.24l.85-2.07 9.07-22 .38-.93h100.87l.38.93 9.07 22 .85 2.07H79.5zm0-3h117l-1.39 2.07-9.07-22 1.39.93H88.57l1.39-.93-9.07 22zm-22.24 23h161.48v-65H57.26z"/></clipPath><clipPath id="clip-path-7"><path class="cls-2" d="M79.5-264.29h117l-9.07-22H88.57l-9.07 22z"/></clipPath><clipPath id="clip-path-9"><path class="cls-2" d="M164.5-295.79H163v19h15v-19h-13.5zm0 3h12l-1.5-1.5v16l1.5-1.5h-12l1.5 1.5v-16zm-21.5-23h55v59h-55z"/></clipPath><clipPath id="clip-path-10"><path class="cls-1" d="M164.5-294.29h12v16h-12z"/></clipPath><clipPath id="clip-path-12"><path class="cls-2" d="M98.5-229.79H97v34h24v-34H98.5zm0 3h21l-1.5-1.5v31l1.5-1.5h-21l1.5 1.5v-31zm-21.5-23h64v74H77z"/></clipPath><clipPath id="clip-path-13"><path class="cls-1" d="M98.5-228.29h21v31h-21z"/></clipPath><clipPath id="clip-path-15"><path class="cls-2" d="M99.5-257.79H98v22h22v-22H99.5zm0 3h19l-1.5-1.5v19l1.5-1.5h-19l1.5 1.5v-19zm-21.5-23h62v62H78z"/></clipPath><clipPath id="clip-path-16"><path class="cls-1" d="M99.5-256.29h19v19h-19z"/></clipPath><clipPath id="clip-path-18"><path class="cls-2" d="M104.5-252.79H103v12h12v-12h-10.5zm0 3h9l-1.5-1.5v9l1.5-1.5h-9l1.5 1.5v-9zm-21.5-23h52v52H83z"/></clipPath><clipPath id="clip-path-19"><path class="cls-1" d="M104.5-251.29h9v9h-9z"/></clipPath><clipPath id="clip-path-21"><path class="cls-2" d="M129.5-257.79H128v22h22v-22h-20.5zm0 3h19l-1.5-1.5v19l1.5-1.5h-19l1.5 1.5v-19zm-21.5-23h62v62h-62z"/></clipPath><clipPath id="clip-path-22"><path class="cls-1" d="M129.5-256.29h19v19h-19z"/></clipPath><clipPath id="clip-path-24"><path class="cls-2" d="M158.5-257.79H157v22h22v-22h-20.5zm0 3h19l-1.5-1.5v19l1.5-1.5h-19l1.5 1.5v-19zm-21.5-23h62v62h-62z"/></clipPath><clipPath id="clip-path-25"><path class="cls-1" d="M158.5-256.29h19v19h-19z"/></clipPath><clipPath id="clip-path-27"><path class="cls-2" d="M129.5-229.79H128v22h22v-22h-20.5zm0 3h19l-1.5-1.5v19l1.5-1.5h-19l1.5 1.5v-19zm-21.5-23h62v62h-62z"/></clipPath><clipPath id="clip-path-28"><path class="cls-1" d="M129.5-228.29h19v19h-19z"/></clipPath><clipPath id="clip-path-30"><path class="cls-2" d="M158.5-229.79H157v22h22v-22h-20.5zm0 3h19l-1.5-1.5v19l1.5-1.5h-19l1.5 1.5v-19zm-21.5-23h62v62h-62z"/></clipPath><clipPath id="clip-path-31"><path class="cls-1" d="M158.5-228.29h19v19h-19z"/></clipPath><clipPath id="clip-path-33"><path class="cls-2" d="M134.5-252.79H133v12h12v-12h-10.5zm0 3h9l-1.5-1.5v9l1.5-1.5h-9l1.5 1.5v-9zm-21.5-23h52v52h-52z"/></clipPath><clipPath id="clip-path-34"><path class="cls-1" d="M134.5-251.29h9v9h-9z"/></clipPath><clipPath id="clip-path-36"><path class="cls-2" d="M163.5-252.79H162v12h12v-12h-10.5zm0 3h9l-1.5-1.5v9l1.5-1.5h-9l1.5 1.5v-9zm-21.5-23h52v52h-52z"/></clipPath><clipPath id="clip-path-37"><path class="cls-1" d="M163.5-251.29h9v9h-9z"/></clipPath><clipPath id="clip-path-39"><path class="cls-2" d="M134.5-224.79H133v12h12v-12h-10.5zm0 3h9l-1.5-1.5v9l1.5-1.5h-9l1.5 1.5v-9zm-21.5-23h52v52h-52z"/></clipPath><clipPath id="clip-path-40"><path class="cls-1" d="M134.5-223.29h9v9h-9z"/></clipPath><clipPath id="clip-path-42"><path class="cls-2" d="M163.5-224.79H162v12h12v-12h-10.5zm0 3h9l-1.5-1.5v9l1.5-1.5h-9l1.5 1.5v-9zm-21.5-23h52v52h-52z"/></clipPath><clipPath id="clip-path-43"><path class="cls-1" d="M163.5-223.29h9v9h-9z"/></clipPath><clipPath id="clip-path-45"><path class="cls-2" d="M367.25 568h-1.5v38h142v-25.1l-.41-.43-11.44-12-.44-.46H367.25zm0 3h127.56l-1.09-.46 11.44 12-.41-1v23l1.5-1.5h-139l1.5 1.5v-35zm-21.5-23h182v78h-182z"/></clipPath><clipPath id="clip-path-46"><path class="cls-2" d="M367.25 569.49h127.56l11.44 12v23h-139v-35z"/></clipPath><clipPath id="clip-path-48"><path class="cls-2" d="M400.25 619.41a14.5 14.5 0 1 1 14.5-14.5 14.5 14.5 0 0 1-14.5 14.5zm0 3a17.5 17.5 0 1 0-17.5-17.5 17.5 17.5 0 0 0 17.5 17.5zm-37.5-55h75v75h-75z"/></clipPath><clipPath id="clip-path-49"><circle class="cls-1" cx="400.25" cy="604.91" r="16"/></clipPath><clipPath id="clip-path-51"><path class="cls-2" d="M400.25 612.41a7.5 7.5 0 1 1 7.5-7.5 7.5 7.5 0 0 1-7.5 7.5zm0 3a10.5 10.5 0 1 0-10.5-10.5 10.5 10.5 0 0 0 10.5 10.5zm-30.5-41h61v61h-61z"/></clipPath><clipPath id="clip-path-52"><circle class="cls-1" cx="400.25" cy="604.91" r="9"/></clipPath><clipPath id="clip-path-54"><path class="cls-2" d="M466.48 619.41a14.5 14.5 0 1 1 14.5-14.5 14.5 14.5 0 0 1-14.5 14.5zm0 3a17.5 17.5 0 1 0-17.5-17.5 17.5 17.5 0 0 0 17.5 17.5zm-37.5-55h75v75H429z"/></clipPath><clipPath id="clip-path-55"><circle class="cls-1" cx="466.48" cy="604.91" r="16"/></clipPath><clipPath id="clip-path-57"><path class="cls-2" d="M466.71 564.58L459.05 549h-27.16v15.57zm-75.16 0l7.37-15.58h27.17v15.55zm-10.3 5.35L395.39 543h66.84l15.34 27.88z"/></clipPath><clipPath id="clip-path-58"><path class="cls-2" d="M466.48 612.41a7.5 7.5 0 1 1 7.5-7.5 7.5 7.5 0 0 1-7.5 7.5zm0 3a10.5 10.5 0 1 0-10.5-10.5 10.5 10.5 0 0 0 10.5 10.5zm-30.5-41h61v61H436z"/></clipPath><clipPath id="clip-path-59"><circle class="cls-1" cx="466.48" cy="604.91" r="9"/></clipPath><clipPath id="clip-path-61"><path class="cls-2" d="M91.39 537.67h-1.5v84h108v-84H91.39zm0 3h105l-1.5-1.5v81l1.5-1.5h-105l1.5 1.5v-81zm-21.5-23h148v124h-148z"/></clipPath><clipPath id="clip-path-62"><path class="cls-1" d="M91.39 539.17h105v81h-105z"/></clipPath><clipPath id="clip-path-64"><path class="cls-2" d="M85.39 554.67h-2.25l.85-2.07 9.07-22 .38-.93h100.88l.38.93 9.07 22 .85 2.07H85.39zm0-3h117l-1.39 2.07-9.07-22 1.39.93H94.46l1.39-.93-9.07 22zm-22.24 23h161.48v-65H63.14z"/></clipPath><clipPath id="clip-path-65"><path class="cls-2" d="M85.39 553.16h117l-9.07-22H94.46l-9.07 22z"/></clipPath><clipPath id="clip-path-67"><path class="cls-2" d="M170.39 521.67h-1.5v19h15v-19h-13.5zm0 3h12l-1.5-1.5v16l1.5-1.5h-12l1.5 1.5v-16zm-21.5-23h55v59h-55z"/></clipPath><clipPath id="clip-path-68"><path class="cls-1" d="M170.39 523.17h12v16h-12z"/></clipPath><clipPath id="clip-path-70"><path class="cls-2" d="M104.39 587.67h-1.5v34h24v-34h-22.5zm0 3h21l-1.5-1.5v31l1.5-1.5h-21l1.5 1.5v-31zm-21.5-23h64v74h-64z"/></clipPath><clipPath id="clip-path-71"><path class="cls-1" d="M104.39 589.17h21v31h-21z"/></clipPath><clipPath id="clip-path-73"><path class="cls-2" d="M105.39 559.67h-1.5v22h22v-22h-20.5zm0 3h19l-1.5-1.5v19l1.5-1.5h-19l1.5 1.5v-19zm-21.5-23h62v62h-62z"/></clipPath><clipPath id="clip-path-74"><path class="cls-1" d="M105.39 561.17h19v19h-19z"/></clipPath><clipPath id="clip-path-76"><path class="cls-2" d="M110.39 564.67h-1.5v12h12v-12h-10.5zm0 3h9l-1.5-1.5v9l1.5-1.5h-9l1.5 1.5v-9zm-21.5-23h52v52h-52z"/></clipPath><clipPath id="clip-path-77"><path class="cls-1" d="M110.39 566.17h9v9h-9z"/></clipPath><clipPath id="clip-path-79"><path class="cls-2" d="M135.39 559.67h-1.5v22h22v-22h-20.5zm0 3h19l-1.5-1.5v19l1.5-1.5h-19l1.5 1.5v-19zm-21.5-23h62v62h-62z"/></clipPath><clipPath id="clip-path-80"><path class="cls-1" d="M135.39 561.17h19v19h-19z"/></clipPath><clipPath id="clip-path-82"><path class="cls-2" d="M164.39 559.67h-1.5v22h22v-22h-20.5zm0 3h19l-1.5-1.5v19l1.5-1.5h-19l1.5 1.5v-19zm-21.5-23h62v62h-62z"/></clipPath><clipPath id="clip-path-83"><path class="cls-1" d="M164.39 561.17h19v19h-19z"/></clipPath><clipPath id="clip-path-85"><path class="cls-2" d="M135.39 587.67h-1.5v22h22v-22h-20.5zm0 3h19l-1.5-1.5v19l1.5-1.5h-19l1.5 1.5v-19zm-21.5-23h62v62h-62z"/></clipPath><clipPath id="clip-path-86"><path class="cls-1" d="M135.39 589.17h19v19h-19z"/></clipPath><clipPath id="clip-path-88"><path class="cls-2" d="M164.39 587.67h-1.5v22h22v-22h-20.5zm0 3h19l-1.5-1.5v19l1.5-1.5h-19l1.5 1.5v-19zm-21.5-23h62v62h-62z"/></clipPath><clipPath id="clip-path-89"><path class="cls-1" d="M164.39 589.17h19v19h-19z"/></clipPath><clipPath id="clip-path-91"><path class="cls-2" d="M140.39 564.67h-1.5v12h12v-12h-10.5zm0 3h9l-1.5-1.5v9l1.5-1.5h-9l1.5 1.5v-9zm-21.5-23h52v52h-52z"/></clipPath><clipPath id="clip-path-92"><path class="cls-1" d="M140.39 566.17h9v9h-9z"/></clipPath><clipPath id="clip-path-94"><path class="cls-2" d="M169.39 564.67h-1.5v12h12v-12h-10.5zm0 3h9l-1.5-1.5v9l1.5-1.5h-9l1.5 1.5v-9zm-21.5-23h52v52h-52z"/></clipPath><clipPath id="clip-path-95"><path class="cls-1" d="M169.39 566.17h9v9h-9z"/></clipPath><clipPath id="clip-path-97"><path class="cls-2" d="M140.39 592.67h-1.5v12h12v-12h-10.5zm0 3h9l-1.5-1.5v9l1.5-1.5h-9l1.5 1.5v-9zm-21.5-23h52v52h-52z"/></clipPath><clipPath id="clip-path-98"><path class="cls-1" d="M140.39 594.17h9v9h-9z"/></clipPath><clipPath id="clip-path-100"><path class="cls-2" d="M169.39 592.67h-1.5v12h12v-12h-10.5zm0 3h9l-1.5-1.5v9l1.5-1.5h-9l1.5 1.5v-9zm-21.5-23h52v52h-52z"/></clipPath><clipPath id="clip-path-101"><path class="cls-1" d="M169.39 594.17h9v9h-9z"/></clipPath></defs><g id="Layer_1" data-name="Layer 1"><path class="cls-34" d="M91.21 25.23h98.96v65.93H91.21z"/><path class="cls-34" d="M97.31 30.32h86.76v55.8H97.31zm30.5 60.84h25.76v15.73h-25.76zm-7.78 15.73h41.32v4.52h-41.32z"/><path class="cls-35" d="M117.78 68.78v-2.1a13.12 13.12 0 0 1-6.78-3.32l2.68-3.25a11.65 11.65 0 0 0 4.06 2.51v-4.3a10.26 10.26 0 0 1-4.44-2.09 4.9 4.9 0 0 1-1.41-3.77 5.48 5.48 0 0 1 1.61-4.06 7 7 0 0 1 4.23-1.92v-1.41h3.05v1.47a13.26 13.26 0 0 1 5.73 2.39l-2.36 3.4a11 11 0 0 0-3.37-1.73v4.15a10.84 10.84 0 0 1 4.59 2.16 4.92 4.92 0 0 1 1.48 3.83 5.46 5.46 0 0 1-1.66 4.09 7.32 7.32 0 0 1-4.42 1.93v2zm0-18.29a1.6 1.6 0 0 0-1.24 1.58 1.9 1.9 0 0 0 1.24 1.76zM122.3 61a1.58 1.58 0 0 0-.32-1 2.82 2.82 0 0 0-1.15-.75v3.54A1.8 1.8 0 0 0 122.3 61z"/><path class="cls-34" d="M138 42.5h34m-34 10h34m-34 10h34m-34 10h34"/></g></svg>