<svg xmlns="http://www.w3.org/2000/svg" xmlns:xlink="http://www.w3.org/1999/xlink" viewBox="0 0 276 137"><defs><path id="a" d="M-750-820.5c-29.3 0-53-23.7-53-53s23.7-53 53-53 53 23.7 53 53-23.7 53-53 53zm0 3c30.9 0 56-25.1 56-56s-25.1-56-56-56-56 25.1-56 56 25.1 56 56 56z"/></defs><clipPath id="b"><use xlink:href="#a" overflow="visible"/></clipPath><g clip-path="url(#b)"><defs><circle id="c" cx="-750" cy="-873.5" r="54.5"/></defs><clipPath id="d"><use xlink:href="#c" overflow="visible"/></clipPath><g clip-path="url(#d)"><defs><path id="e" d="M-928.5-1010h1121V20h-1121z"/></defs></g></g><defs><circle id="f" cx="-750" cy="-873.5" r="54.5"/></defs><clipPath id="g"><use xlink:href="#f" overflow="visible"/></clipPath><g clip-path="url(#g)"><defs><path id="h" d="M-928.5-1010h1121V20h-1121z"/></defs></g><defs><path id="i" d="M-750-841.5c-17.7 0-32-14.3-32-32s14.3-32 32-32 32 14.3 32 32-14.3 32-32 32zm0 3c19.3 0 35-15.7 35-35s-15.7-35-35-35-35 15.7-35 35 15.7 35 35 35zm-55-90h110v110h-110v-110z"/></defs><clipPath id="j"><use xlink:href="#i" overflow="visible"/></clipPath><g clip-path="url(#j)"><defs><circle id="k" cx="-750" cy="-873.5" r="33.5"/></defs><clipPath id="l"><use xlink:href="#k" overflow="visible"/></clipPath><g clip-path="url(#l)"><defs><path id="m" d="M-928.5-1010h1121V20h-1121z"/></defs></g></g><defs><circle id="n" cx="-750" cy="-873.5" r="33.5"/></defs><clipPath id="o"><use xlink:href="#n" overflow="visible"/></clipPath><g clip-path="url(#o)"><defs><path id="p" d="M-928.5-1010h1121V20h-1121z"/></defs></g><defs><path id="q" d="M-751.5-927.5h-1.5v13h6v-13h-4.5zm0 3h3l-1.5-1.5v10l1.5-1.5h-3l1.5 1.5v-10l-1.5 1.5z"/></defs><clipPath id="r"><use xlink:href="#q" overflow="visible"/></clipPath><g clip-path="url(#r)"><defs><path id="s" d="M-751.5-926h3v10h-3z"/></defs><clipPath id="t"><use xlink:href="#s" overflow="visible"/></clipPath><g clip-path="url(#t)"><defs><path id="u" d="M-928.5-1010h1121V20h-1121z"/></defs></g></g><defs><path id="v" d="M-751.5-926h3v10h-3z"/></defs><clipPath id="w"><use xlink:href="#v" overflow="visible"/></clipPath><g clip-path="url(#w)"><defs><path id="x" d="M-928.5-1010h1121V20h-1121z"/></defs></g><defs><path id="y" d="M-805.5-871.5v1.5h13v-6h-13v4.5zm3 0v-3l-1.5 1.5h10l-1.5-1.5v3l1.5-1.5h-10l1.5 1.5z"/></defs><clipPath id="z"><use xlink:href="#y" overflow="visible"/></clipPath><g clip-path="url(#z)"><defs><path id="A" d="M-804-874.5h10v3h-10z"/></defs><clipPath id="B"><use xlink:href="#A" overflow="visible"/></clipPath><g clip-path="url(#B)"><defs><path id="C" d="M-928.5-1010h1121V20h-1121z"/></defs></g></g><defs><path id="D" d="M-804-874.5h10v3h-10z"/></defs><clipPath id="E"><use xlink:href="#D" overflow="visible"/></clipPath><g clip-path="url(#E)"><defs><path id="F" d="M-928.5-1010h1121V20h-1121z"/></defs></g><defs><path id="G" d="M-708.5-871.5v1.5h13v-6h-13v4.5zm3 0v-3l-1.5 1.5h10l-1.5-1.5v3l1.5-1.5h-10l1.5 1.5z"/></defs><clipPath id="H"><use xlink:href="#G" overflow="visible"/></clipPath><g clip-path="url(#H)"><defs><path id="I" d="M-707-874.5h10v3h-10z"/></defs><clipPath id="J"><use xlink:href="#I" overflow="visible"/></clipPath><g clip-path="url(#J)"><defs><path id="K" d="M-928.5-1010h1121V20h-1121z"/></defs></g></g><defs><path id="L" d="M-707-874.5h10v3h-10z"/></defs><clipPath id="M"><use xlink:href="#L" overflow="visible"/></clipPath><g clip-path="url(#M)"><defs><path id="N" d="M-928.5-1010h1121V20h-1121z"/></defs></g><defs><path id="O" d="M-719.5-901.3l1.1 1.1 1.1-1.1 7.1-7.1 1.1-1.1-1.1-1.1-2.1-2.1-1.1-1.1-1.1 1.1-7.1 7.1-1.1 1.1 1.1 1.1 2.1 2.1zm2.1-2.2l-2.1-2.1v2.1l7.1-7.1h-2.1l2.1 2.1v-2.1l-7.1 7.1h2.1z"/></defs><clipPath id="P"><use xlink:href="#O" overflow="visible"/></clipPath><g clip-path="url(#P)"><defs><path id="Q" transform="rotate(45.001 -716.014 -906.996)" d="M-717.5-912h3v10h-3z"/></defs><clipPath id="R"><use xlink:href="#Q" overflow="visible"/></clipPath><g clip-path="url(#R)"><defs><path id="S" d="M-928.5-1010h1121V20h-1121z"/></defs></g></g><defs><path id="T" transform="rotate(45.001 -716.014 -906.996)" d="M-717.5-912h3v10h-3z"/></defs><clipPath id="U"><use xlink:href="#T" overflow="visible"/></clipPath><g clip-path="url(#U)"><defs><path id="V" d="M-928.5-1010h1121V20h-1121z"/></defs></g><defs><path id="W" d="M-779.3-902.5l1.1-1.1-1.1-1.1-7.1-7.1-1.1-1.1-1.1 1.1-2.1 2.1-1.1 1.1 1.1 1.1 7.1 7.1 1.1 1.1 1.1-1.1 2.1-2.1zm-2.2-2.1l-2.1 2.1h2.1l-7.1-7.1v2.1l2.1-2.1h-2.1l7.1 7.1v-2.1z"/></defs><clipPath id="X"><use xlink:href="#W" overflow="visible"/></clipPath><g clip-path="url(#X)"><defs><path id="Y" transform="rotate(-45.001 -784.995 -906.014)" d="M-786.5-911h3v10h-3z"/></defs><clipPath id="Z"><use xlink:href="#Y" overflow="visible"/></clipPath><g clip-path="url(#Z)"><defs><path id="aa" d="M-928.5-1010h1121V20h-1121z"/></defs></g></g><defs><path id="ab" transform="rotate(-45.001 -784.995 -906.014)" d="M-786.5-911h3v10h-3z"/></defs><clipPath id="ac"><use xlink:href="#ab" overflow="visible"/></clipPath><g clip-path="url(#ac)"><defs><path id="ad" d="M-928.5-1010h1121V20h-1121z"/></defs></g><defs><path id="ae" d="M-719.5-845.7l1.1-1.1 1.1 1.1 7.1 7.1 1.1 1.1-1.1 1.1-2.1 2.1-1.1 1.1-1.1-1.1-7.1-7.1-1.1-1.1 1.1-1.1 2.1-2.1zm2.1 2.2l-2.1 2.1v-2.1l7.1 7.1h-2.1l2.1-2.1v2.1l-7.1-7.1h2.1z"/></defs><clipPath id="af"><use xlink:href="#ae" overflow="visible"/></clipPath><g clip-path="url(#af)"><defs><path id="ag" transform="rotate(-45.001 -715.993 -840.012)" d="M-717.5-845h3v10h-3z"/></defs><clipPath id="ah"><use xlink:href="#ag" overflow="visible"/></clipPath><g clip-path="url(#ah)"><defs><path id="ai" d="M-928.5-1010h1121V20h-1121z"/></defs></g></g><defs><path id="aj" transform="rotate(-45.001 -715.993 -840.012)" d="M-717.5-845h3v10h-3z"/></defs><clipPath id="ak"><use xlink:href="#aj" overflow="visible"/></clipPath><g clip-path="url(#ak)"><defs><path id="al" d="M-928.5-1010h1121V20h-1121z"/></defs></g><defs><path id="am" d="M-779.3-842.5l1.1 1.1-1.1 1.1-7.1 7.1-1.1 1.1-1.1-1.1-2.1-2.1-1.1-1.1 1.1-1.1 7.1-7.1 1.1-1.1 1.1 1.1 2.1 2.1zm-2.2 2.1l-2.1-2.1h2.1l-7.1 7.1v-2.1l2.1 2.1h-2.1l7.1-7.1v2.1z"/></defs><clipPath id="an"><use xlink:href="#am" overflow="visible"/></clipPath><g clip-path="url(#an)"><defs><path id="ao" transform="rotate(45.001 -785.013 -838.995)" d="M-786.5-844h3v10h-3z"/></defs><clipPath id="ap"><use xlink:href="#ao" overflow="visible"/></clipPath><g clip-path="url(#ap)"><defs><path id="aq" d="M-928.5-1010h1121V20h-1121z"/></defs></g></g><defs><path id="ar" transform="rotate(45.001 -785.013 -838.995)" d="M-786.5-844h3v10h-3z"/></defs><clipPath id="as"><use xlink:href="#ar" overflow="visible"/></clipPath><g clip-path="url(#as)"><defs><path id="at" d="M-928.5-1010h1121V20h-1121z"/></defs></g><defs><path id="au" d="M-740.4-894.1c.7.3 1.5.6 2.2 1 1.3.7 2.5 1.6 3.6 2.4.4.3.7.6 1 .9.2.2.3.3.4.3l1.6 1.6-.3-2.2-2.1-14.7-.2-1.2-1 .6-12.3 8-1.8 1.2 2.1.2c.1 0 .3 0 .5.1.4.1.9.2 1.5.3 1.4.3 3.1.8 4.8 1.5zm7.5 4c-.1-.1-.4-.3-.7-.6l.1.9.6-.3zm0-1l.1.9.6-.3-.4-.4c-.1 0-.2-.1-.3-.2zm-1.9-13.1v.3l.3-.2-.3-.1zm-.8 0l.3-.2-.3-.2v.4zm-11.4 7.4l.7-.5h-.3c-.3 0-.5-.1-.6-.1l.2.6zm.9.3c-.4-.1-.7-.1-.9-.1l.1.6.8-.5z"/></defs><clipPath id="av"><use xlink:href="#au" overflow="visible"/></clipPath><g clip-path="url(#av)"><defs><path id="aw" d="M-928.5-1010h1121V20h-1121z"/></defs></g><defs><path id="ax" d="M-740.2-894.8c-3.9-1.6-7.1-1.9-7.1-1.9l12.3-8 2.1 14.7c.2.1-3.1-3.1-7.3-4.8zm-25-11.1l37.2-15.8 15.8 37.2-37.2 15.8-15.8-37.2z"/></defs><clipPath id="ay"><use xlink:href="#ax" overflow="visible"/></clipPath><g clip-path="url(#ay)"><defs><path id="az" d="M-928.5-1010h1121V20h-1121z"/></defs></g><defs><path id="aA" d="M-750-849.5c-13.3 0-24-10.7-24-24s10.7-24 24-24 24 10.7 24 24-10.7 24-24 24zm0 3c14.9 0 27-12.1 27-27s-12.1-27-27-27-27 12.1-27 27 12.1 27 27 27zm-47-74h94v94h-94v-94z"/></defs><clipPath id="aB"><use xlink:href="#aA" overflow="visible"/></clipPath><g clip-path="url(#aB)"><defs><circle id="aC" cx="-750" cy="-873.5" r="25.5"/></defs><clipPath id="aD"><use xlink:href="#aC" overflow="visible"/></clipPath><g clip-path="url(#aD)"><defs><path id="aE" d="M-928.5-1010h1121V20h-1121z"/></defs></g></g><defs><circle id="aF" cx="-750" cy="-873.5" r="25.5"/></defs><clipPath id="aG"><use xlink:href="#aF" overflow="visible"/></clipPath><g clip-path="url(#aG)"><defs><path id="aH" d="M-928.5-1010h1121V20h-1121z"/></defs></g><defs><path id="aI" d="M-459.8-934.5h-1.5v18h19v-18h-17.5zm0 3h16l-1.5-1.5v15l1.5-1.5h-16l1.5 1.5v-15l-1.5 1.5z"/></defs><clipPath id="aJ"><use xlink:href="#aI" overflow="visible"/></clipPath><g clip-path="url(#aJ)"><defs><path id="aK" d="M-459.8-933h16v15h-16z"/></defs><clipPath id="aL"><use xlink:href="#aK" overflow="visible"/></clipPath><g clip-path="url(#aL)"><defs><path id="aM" d="M-880.8-1009.5h1121v1030h-1121z"/></defs></g></g><defs><path id="aN" d="M-459.8-933h16v15h-16z"/></defs><clipPath id="aO"><use xlink:href="#aN" overflow="visible"/></clipPath><g clip-path="url(#aO)"><defs><path id="aP" d="M-880.8-1009.5h1121v1030h-1121z"/></defs></g><defs><path id="aQ" d="M-483.8-922.5h-1.5v43h67v-43h-65.5zm0 3h64l-1.5-1.5v40l1.5-1.5h-64l1.5 1.5v-40l-1.5 1.5z"/></defs><clipPath id="aR"><use xlink:href="#aQ" overflow="visible"/></clipPath><g clip-path="url(#aR)"><defs><path id="aS" d="M-483.8-921h64v40h-64z"/></defs><clipPath id="aT"><use xlink:href="#aS" overflow="visible"/></clipPath><g clip-path="url(#aT)"><defs><path id="aU" d="M-880.8-1009.5h1121v1030h-1121z"/></defs></g></g><defs><path id="aV" d="M-483.8-921h64v40h-64z"/></defs><clipPath id="aW"><use xlink:href="#aV" overflow="visible"/></clipPath><g clip-path="url(#aW)"><defs><path id="aX" d="M-880.8-1009.5h1121v1030h-1121z"/></defs></g><defs><path id="aY" d="M-448.8-912.5h-1.5v33h22v-33h-20.5zm0 3h19l-1.5-1.5v30l1.5-1.5h-19l1.5 1.5v-30l-1.5 1.5z"/></defs><clipPath id="aZ"><use xlink:href="#aY" overflow="visible"/></clipPath><g clip-path="url(#aZ)"><defs><path id="ba" d="M-448.8-911h19v30h-19z"/></defs><clipPath id="bb"><use xlink:href="#ba" overflow="visible"/></clipPath><g clip-path="url(#bb)"><defs><path id="bc" d="M-880.8-1009.5h1121v1030h-1121z"/></defs></g></g><defs><path id="bd" d="M-448.8-911h19v30h-19z"/></defs><clipPath id="be"><use xlink:href="#bd" overflow="visible"/></clipPath><g clip-path="url(#be)"><defs><path id="bf" d="M-880.8-1009.5h1121v1030h-1121z"/></defs></g><defs><path id="bg" d="M-473.8-912.5h-1.5v33h22v-33h-20.5zm0 3h19l-1.5-1.5v30l1.5-1.5h-19l1.5 1.5v-30l-1.5 1.5z"/></defs><clipPath id="bh"><use xlink:href="#bg" overflow="visible"/></clipPath><g clip-path="url(#bh)"><defs><path id="bi" d="M-473.8-911h19v30h-19z"/></defs><clipPath id="bj"><use xlink:href="#bi" overflow="visible"/></clipPath><g clip-path="url(#bj)"><defs><path id="bk" d="M-880.8-1009.5h1121v1030h-1121z"/></defs></g></g><defs><path id="bl" d="M-473.8-911h19v30h-19z"/></defs><clipPath id="bm"><use xlink:href="#bl" overflow="visible"/></clipPath><g clip-path="url(#bm)"><defs><path id="bn" d="M-880.8-1009.5h1121v1030h-1121z"/></defs></g><defs><path id="bo" d="M-504.3-854.3c0 2.9-.8 7-2.3 11.9-.6 2.1-1.3 4.3-2.1 6.5-1 2.7-2 5.4-3.1 8-.4.9-.7 1.7-1 2.4-.2.4-.3.7-.4.9l-.9 2.1H-394.7l-.7-2c-.1-.2-.2-.4-.3-.9-.2-.7-.5-1.5-.8-2.4-.8-2.5-1.6-5.2-2.4-7.9-.7-2.4-1.3-4.8-1.8-7-1.1-4.8-1.7-8.8-1.7-11.8 0-2.8.7-7 1.9-12 .5-1.9 1-3.9 1.6-6 .8-2.7 1.6-5.4 2.4-7.9.3-.9.5-1.7.8-2.4.1-.4.2-.7.3-.9l.7-2H-514.1l1 2.1c.1.1.2.4.4.9.3.7.6 1.5 1 2.4 1 2.5 2.1 5.1 3.1 7.8.8 2.2 1.5 4.4 2.1 6.4 1.4 5 2.2 9 2.2 11.8zm3 0c0-3.2-.9-7.5-2.4-12.5-.6-2.1-1.4-4.3-2.2-6.5-1-2.7-2.1-5.4-3.1-8-.4-.9-.7-1.7-1-2.4-.2-.4-.3-.7-.4-.9l-1.4 2.1h115l-1.4-2c-.1.2-.2.5-.3.9-.2.7-.5 1.5-.8 2.4-.8 2.6-1.7 5.3-2.4 8-.6 2.1-1.1 4.1-1.6 6.1-1.3 5.2-2 9.5-2 12.7 0 3.2.6 7.4 1.7 12.4.5 2.3 1.1 4.7 1.8 7.1.8 2.8 1.6 5.5 2.4 8.1.3.9.6 1.7.8 2.4.1.4.2.7.3.9l1.4-2h-115l1.4 2.1c.1-.2.2-.5.4-.9.3-.7.7-1.5 1-2.4 1.1-2.6 2.1-5.3 3.1-8.1.8-2.3 1.6-4.5 2.2-6.7 1.7-5.2 2.5-9.5 2.5-12.8z"/></defs><clipPath id="bp"><use xlink:href="#bo" overflow="visible"/></clipPath><g clip-path="url(#bp)"><defs><path id="bq" d="M-502.8-854.3c0-9.9-9-29.7-9-29.7h115s-7 20-7 29.6c0 10.5 7 30.4 7 30.4h-115s9-20.2 9-30.3z"/></defs><clipPath id="br"><use xlink:href="#bq" overflow="visible"/></clipPath><g clip-path="url(#br)"><defs><path id="bs" d="M-880.8-1009.5h1121v1030h-1121z"/></defs></g></g><defs><path id="bt" d="M-502.8-854.3c0-9.9-9-29.7-9-29.7h115s-7 20-7 29.6c0 10.5 7 30.4 7 30.4h-115s9-20.2 9-30.3z"/></defs><clipPath id="bu"><use xlink:href="#bt" overflow="visible"/></clipPath><g clip-path="url(#bu)"><defs><path id="bv" d="M-880.8-1009.5h1121v1030h-1121z"/></defs></g><defs><path id="bw" d="M-488.8-853.5h-1.5v6h72v-6h-70.5zm0 3h69l-1.5-1.5v3l1.5-1.5h-69l1.5 1.5v-3l-1.5 1.5zm-21.5-23h112v46h-112v-46z"/></defs><clipPath id="bx"><use xlink:href="#bw" overflow="visible"/></clipPath><g clip-path="url(#bx)"><defs><path id="by" d="M-488.8-852h69v3h-69z"/></defs><clipPath id="bz"><use xlink:href="#by" overflow="visible"/></clipPath><g clip-path="url(#bz)"><defs><path id="bA" d="M-880.8-1009.5h1121v1030h-1121z"/></defs></g></g><defs><path id="bB" d="M-488.8-852h69v3h-69z"/></defs><clipPath id="bC"><use xlink:href="#bB" overflow="visible"/></clipPath><g clip-path="url(#bC)"><defs><path id="bD" d="M-880.8-1009.5h1121v1030h-1121z"/></defs></g><defs><path id="bE" d="M-488.8-861.5h-1.5v6h72v-6h-70.5zm0 3h69l-1.5-1.5v3l1.5-1.5h-69l1.5 1.5v-3l-1.5 1.5zm-21.5-23h112v46h-112v-46z"/></defs><clipPath id="bF"><use xlink:href="#bE" overflow="visible"/></clipPath><g clip-path="url(#bF)"><defs><path id="bG" d="M-488.8-860h69v3h-69z"/></defs><clipPath id="bH"><use xlink:href="#bG" overflow="visible"/></clipPath><g clip-path="url(#bH)"><defs><path id="bI" d="M-880.8-1009.5h1121v1030h-1121z"/></defs></g></g><defs><path id="bJ" d="M-488.8-860h69v3h-69z"/></defs><clipPath id="bK"><use xlink:href="#bJ" overflow="visible"/></clipPath><g clip-path="url(#bK)"><defs><path id="bL" d="M-880.8-1009.5h1121v1030h-1121z"/></defs></g><defs><path id="bM" d="M-456.8-846.1l.5 1.6 1.5-.7c2-.9 4.2-1.3 6.4-1.3 6 0 11.3 3.3 14.1 8.4l.5 1 1.1-.2c.6-.1 1.2-.2 1.8-.2 3.5 0 6.6 2.1 7.9 5.3l.5 1.2 1.3-.3c.4-.1.9-.2 1.4-.2 3 0 5.5 2.5 5.5 5.5s-2.5 5.5-5.5 5.5c-1.5 0-2.9-.6-3.9-1.6l-.9-.9-1 .8c-1.5 1.1-3.3 1.7-5.1 1.7-1.1 0-2.2-.2-3.2-.6l-1-.4-.7.9c-3 3.8-7.6 6.1-12.6 6.1-4.9 0-9.5-2.3-12.5-6l-.7-.8-1 .3c-1.1.4-2.2.5-3.3.5-2 0-4-.6-5.7-1.7l-.8-.5-.8.5c-1.7 1.1-3.6 1.7-5.7 1.7-2.2 0-4.3-.7-6-1.9l-1.1-.7-.9.9c-1 1.1-2.5 1.7-4 1.7-3 0-5.5-2.5-5.5-5.5s2.5-5.5 5.5-5.5H-489.3l.2-1.3c.8-5 5.2-8.7 10.4-8.7h1.5v-1.5c0-5.8 4.7-10.5 10.5-10.5 4.6 0 8.6 3 9.9 7.4zm2.9-.9c-1.7-5.6-6.9-9.5-12.9-9.5-7.5 0-13.5 6-13.5 13.5l1.5-1.5c-6.6 0-12.2 4.8-13.3 11.3l1.5.2v-1.5h-.2c-4.7 0-8.5 3.8-8.5 8.5s3.8 8.5 8.5 8.5c2.4 0 4.6-1 6.2-2.7l-2 .2c2.3 1.6 5 2.5 7.8 2.5 2.6 0 5.2-.8 7.3-2.2h-1.6c2.2 1.4 4.7 2.2 7.3 2.2 1.5 0 2.9-.2 4.3-.7l-.5-1.4-1.2.9c3.6 4.5 9 7.2 14.9 7.2s11.4-2.7 15-7.3l-1.2-.9-.6 1.4c1.3.5 2.8.8 4.3.8 2.6 0 5-.8 7-2.4l-2-.1c1.6 1.6 3.7 2.5 6 2.5 4.7 0 8.5-3.8 8.5-8.5s-3.8-8.5-8.5-8.5c-.7 0-1.4.1-2.1.3l.4 1.5 1.4-.6c-1.8-4.3-5.9-7.2-10.6-7.2-.8 0-1.6.1-2.4.2l.3 1.5 1.3-.7c-3.3-6.1-9.7-10-16.7-10-2.7 0-5.2.5-7.6 1.6l1.9.9zm-65.4-29.5h128v85h-128v-85z"/></defs><clipPath id="bN"><use xlink:href="#bM" overflow="visible"/></clipPath><g clip-path="url(#bN)"><defs><path id="bO" d="M-455.3-846.5c-1.5-4.9-6.1-8.5-11.5-8.5-6.6 0-12 5.4-12 12-5.9 0-10.9 4.3-11.8 10h-.2c-3.9 0-7 3.1-7 7s3.1 7 7 7c2 0 3.8-.8 5.1-2.2 2 1.4 4.3 2.2 6.9 2.2 2.4 0 4.6-.7 6.5-1.9 1.9 1.2 4.1 1.9 6.5 1.9 1.3 0 2.6-.2 3.8-.6 3.2 4 8.2 6.6 13.7 6.6 5.6 0 10.6-2.6 13.8-6.7 1.1.5 2.4.7 3.7.7 2.3 0 4.4-.8 6.1-2 1.3 1.3 3 2 4.9 2 3.9 0 7-3.1 7-7s-3.1-7-7-7c-.6 0-1.2.1-1.7.2-1.5-3.6-5.1-6.2-9.3-6.2-.7 0-1.4.1-2.1.2-3-5.5-8.8-9.2-15.4-9.2-2.5 0-4.9.5-7 1.5z"/></defs><clipPath id="bP"><use xlink:href="#bO" overflow="visible"/></clipPath><g clip-path="url(#bP)"><defs><path id="bQ" d="M-880.8-1009.5h1121v1030h-1121z"/></defs></g></g><g><defs><path id="bR" d="M-455.3-846.5c-1.5-4.9-6.1-8.5-11.5-8.5-6.6 0-12 5.4-12 12-5.9 0-10.9 4.3-11.8 10h-.2c-3.9 0-7 3.1-7 7s3.1 7 7 7c2 0 3.8-.8 5.1-2.2 2 1.4 4.3 2.2 6.9 2.2 2.4 0 4.6-.7 6.5-1.9 1.9 1.2 4.1 1.9 6.5 1.9 1.3 0 2.6-.2 3.8-.6 3.2 4 8.2 6.6 13.7 6.6 5.6 0 10.6-2.6 13.8-6.7 1.1.5 2.4.7 3.7.7 2.3 0 4.4-.8 6.1-2 1.3 1.3 3 2 4.9 2 3.9 0 7-3.1 7-7s-3.1-7-7-7c-.6 0-1.2.1-1.7.2-1.5-3.6-5.1-6.2-9.3-6.2-.7 0-1.4.1-2.1.2-3-5.5-8.8-9.2-15.4-9.2-2.5 0-4.9.5-7 1.5z"/></defs><clipPath id="bS"><use xlink:href="#bR" overflow="visible"/></clipPath><g clip-path="url(#bS)"><defs><path id="bT" d="M-880.8-1009.5h1121v1030h-1121z"/></defs></g></g><g><defs><path id="bU" d="M-184.3-881.6l56 32.4s-1.5 14.3-8.3 24.7c-6.8 10.4-24.1 17.2-24.1 17.2l-53.4-38.5s13.7-4.3 21.6-13.8 8.2-22 8.2-22z"/></defs><clipPath id="bV"><use xlink:href="#bU" overflow="visible"/></clipPath><g clip-path="url(#bV)"><defs><path id="bW" d="M-839.3-1008.8h1121v1030h-1121z"/></defs></g></g><g><defs><path id="bX" d="M-158.8-867.8l21.8-50.6 6.2 2.7-22.4 51z"/></defs><clipPath id="bY"><use xlink:href="#bX" overflow="visible"/></clipPath><g clip-path="url(#bY)"><defs><path id="bZ" d="M-839.3-1008.8h1121v1030h-1121z"/></defs></g></g><g><defs><path id="ca" d="M-193.7-841.4l1.2.9.9-1.2c-1.5-1-3.3-1.6-5.1-1.6-5 0-9 4-9 9 0 3.8 2.4 7.2 6 8.5l-1-1.4c0 4.9 4.1 8.9 9 8.9 1.4 0 2.8-.3 4.1-1l-.7-1.3-1.4.6c1.9 4 5.9 6.7 10.4 6.7 6.4 0 11.5-5.1 11.5-11.5 0-1.2-.2-2.5-.6-3.6l-1.4.5.8 1.3c2.6-1.6 4.2-4.5 4.2-7.6 0-5-4-9-9-9-1.2 0-2.3.2-3.4.7l.6 1.4 1.1-1c-2.2-2.6-5.4-4.1-8.8-4.1-3.8-.1-7.3 1.8-9.4 4.8zm2.4 1.7c1.6-2.3 4.2-3.7 7-3.7 2.5 0 4.9 1.1 6.5 3l.7.8 1-.4c.7-.3 1.5-.4 2.3-.4 3.3 0 6 2.7 6 6 0 2.1-1.1 4-2.8 5.1l-1 .6.4 1.1c.3.9.4 1.8.4 2.7 0 4.7-3.8 8.5-8.5 8.5-3.4 0-6.3-2-7.7-4.9l-.7-1.4-1.4.7c-.8.4-1.8.7-2.7.7-3.3 0-6-2.7-6-5.9v-1.1l-1-.3c-2.4-.8-4-3.1-4-5.7 0-3.3 2.7-6 6-6 1.2 0 2.4.4 3.4 1.1l1.2.9.9-1.4zm-34.5-26.6h81v73h-81v-73z"/></defs><clipPath id="cb"><use xlink:href="#ca" overflow="visible"/></clipPath><g clip-path="url(#cb)"><defs><path id="cc" d="M-192.5-840.5c1.8-2.6 4.8-4.3 8.2-4.3 3.1 0 5.8 1.4 7.7 3.6.9-.4 1.8-.6 2.8-.6 4.1 0 7.5 3.4 7.5 7.5 0 2.7-1.4 5-3.5 6.3.3 1 .5 2 .5 3.2 0 5.5-4.5 10-10 10-4 0-7.5-2.4-9.1-5.8-1 .5-2.2.8-3.4.8-4.1 0-7.5-3.3-7.5-7.4-2.9-1-5-3.8-5-7.1 0-4.1 3.4-7.5 7.5-7.5 1.6 0 3.1.5 4.3 1.3z"/></defs><clipPath id="cd"><use xlink:href="#cc" overflow="visible"/></clipPath><g clip-path="url(#cd)"><defs><path id="ce" d="M-839.3-1008.8h1121v1030h-1121z"/></defs></g></g></g><g><defs><path id="cf" d="M-192.5-840.5c1.8-2.6 4.8-4.3 8.2-4.3 3.1 0 5.8 1.4 7.7 3.6.9-.4 1.8-.6 2.8-.6 4.1 0 7.5 3.4 7.5 7.5 0 2.7-1.4 5-3.5 6.3.3 1 .5 2 .5 3.2 0 5.5-4.5 10-10 10-4 0-7.5-2.4-9.1-5.8-1 .5-2.2.8-3.4.8-4.1 0-7.5-3.3-7.5-7.4-2.9-1-5-3.8-5-7.1 0-4.1 3.4-7.5 7.5-7.5 1.6 0 3.1.5 4.3 1.3z"/></defs><clipPath id="cg"><use xlink:href="#cf" overflow="visible"/></clipPath><g clip-path="url(#cg)"><defs><path id="ch" d="M-839.3-1008.8h1121v1030h-1121z"/></defs></g></g><g><defs><path id="ci" d="M-136.3-925.2l10.2 4.4 2-4.4-10.3-4-1.9 4zm-8.5 2.7l22.8 9.7 7.1-15.4-23.3-8.4-6.6 14.1z"/></defs><clipPath id="cj"><use xlink:href="#ci" overflow="visible"/></clipPath><g clip-path="url(#cj)"><defs><path id="ck" d="M-839.3-1008.8h1121v1030h-1121z"/></defs></g></g><g><defs><path id="cl" d="M136.1-937.6c30.3 0 55 7.1 55 14.8v22l1.7-1.5c-.1 0-.2 0-.4-.1-.4-.1-.8-.1-1.3-.2-1.4-.2-2.9-.4-4.6-.6-4.9-.7-10-1.3-15.2-2-3.9-.5-7.7-.9-11.3-1.3-9.9-1-18.1-1.6-23.9-1.6-5.2 0-14.3.8-26.1 2.3-2.5.3-5.1.6-7.7 1-5.4.7-10.9 1.5-16.1 2.3-1.8.3-3.5.5-5 .8-.5.1-1 .2-1.4.2-.2 0-.4.1-.5.1l1.7 1.5v-23c.1-7.6 24.8-14.7 55.1-14.7zm0-3c-32.1 0-58 7.5-58 17.8v24.8l1.7-.3c.1 0 .2 0 .5-.1.4-.1.8-.1 1.4-.2 1.5-.2 3.1-.5 5-.8 5.2-.8 10.7-1.6 16.1-2.3 2.6-.4 5.2-.7 7.7-1 11.7-1.5 20.7-2.3 25.7-2.3 5.6 0 13.7.6 23.6 1.6 3.6.4 7.4.8 11.2 1.3 5.2.6 10.3 1.3 15.2 2 1.7.2 3.2.4 4.6.6.5.1.9.1 1.2.2.2 0 .4.1.4.1l1.7.3v-23.7c0-10.6-25.9-18-58-18zm-78-20h156v82.5h-156v-82.5z"/></defs><clipPath id="cm"><use xlink:href="#cl" overflow="visible"/></clipPath><g clip-path="url(#cm)"><defs><path id="cn" d="M136.1-939.1c-31.2 0-56.5 7.3-56.5 16.3v23s42.2-6.7 56.5-6.7c18 0 56.5 5.7 56.5 5.7v-22c0-9-25.3-16.3-56.5-16.3z"/></defs><clipPath id="co"><use xlink:href="#cn" overflow="visible"/></clipPath><g clip-path="url(#co)"><defs><path id="cp" d="M-779.4-1021.9h1121V8.1h-1121z"/></defs></g></g></g><g><defs><path id="cq" d="M136.1-939.1c-31.2 0-56.5 7.3-56.5 16.3v23s42.2-6.7 56.5-6.7c18 0 56.5 5.7 56.5 5.7v-22c0-9-25.3-16.3-56.5-16.3z"/></defs><clipPath id="cr"><use xlink:href="#cq" overflow="visible"/></clipPath><g clip-path="url(#cr)"><defs><path id="cs" d="M-779.4-1021.9h1121V8.1h-1121z"/></defs></g></g><g><defs><path id="ct" d="M136.1-915.4c30.3 0 55 7.1 55 14.8 0 7.7-24.7 14.8-55 14.8s-55-7.1-55-14.8c0-7.6 24.7-14.8 55-14.8zm0-3c-32.1 0-58 7.5-58 17.8s25.9 17.8 58 17.8 58-7.5 58-17.8-25.9-17.8-58-17.8zm-78-20h156v75.6h-156v-75.6z"/></defs><clipPath id="cu"><use xlink:href="#ct" overflow="visible"/></clipPath><g clip-path="url(#cu)"><defs><ellipse id="cv" cx="136.1" cy="-900.5" rx="56.5" ry="16.3"/></defs><clipPath id="cw"><use xlink:href="#cv" overflow="visible"/></clipPath><g clip-path="url(#cw)"><defs><path id="cx" d="M-779.4-1021.9h1121V8.1h-1121z"/></defs></g></g></g><g><defs><ellipse id="cy" cx="136.1" cy="-900.5" rx="56.5" ry="16.3"/></defs><clipPath id="cz"><use xlink:href="#cy" overflow="visible"/></clipPath><g clip-path="url(#cz)"><defs><path id="cA" d="M-779.4-1021.9h1121V8.1h-1121z"/></defs></g></g><g><defs><path id="cB" d="M96.1-896.2c0-5.3 18-10.4 40-10.4s40 5.2 40 10.4v7.1l1.2-1.5c-.1 0-.1 0-.3.1-.3 0-.6.1-.9.2-1 .2-2.1.3-3.4.5-3.6.6-7.3 1.1-11.1 1.7-2.9.4-5.6.8-8.3 1.1-7.2.9-13.1 1.3-17.2 1.3-3.7 0-10.3-.5-18.9-1.4-1.8-.2-3.7-.4-5.6-.6-4-.5-8-.9-11.8-1.4-1.3-.2-2.6-.3-3.6-.5-.4 0-.7-.1-1-.1h-.3l1.3 1.5v-8zm-3 0v9.1l1.3.2h.4c.3 0 .6.1 1 .1 1.1.1 2.3.3 3.7.5a11776882415803102 11776882415803102 0 0 0 36.7 3.5c4.3 0 10.3-.5 17.6-1.4 2.7-.3 5.4-.7 8.3-1.1 3.8-.5 7.6-1.1 11.2-1.7 1.3-.2 2.4-.4 3.4-.5.4-.1.7-.1.9-.2.3 0 .3 0 .3-.1l1.2-.2v-8.4c0-7.9-19.2-13.4-43-13.4s-43 5.7-43 13.6zm-20-33.4h126v66.9h-126v-66.9z"/></defs><clipPath id="cC"><use xlink:href="#cB" overflow="visible"/></clipPath><g clip-path="url(#cC)"><defs><path id="cD" d="M94.6-896.2v7.8s31 4.1 41.5 4.1c13.2 0 41.5-4.8 41.5-4.8v-7.1c0-6.6-18.6-11.9-41.5-11.9s-41.5 5.3-41.5 11.9z"/></defs><clipPath id="cE"><use xlink:href="#cD" overflow="visible"/></clipPath><g clip-path="url(#cE)"><defs><path id="cF" d="M-779.4-1021.9h1121V8.1h-1121z"/></defs></g></g></g><g><defs><path id="cG" d="M94.6-896.2v7.8s31 4.1 41.5 4.1c13.2 0 41.5-4.8 41.5-4.8v-7.1c0-6.6-18.6-11.9-41.5-11.9s-41.5 5.3-41.5 11.9z"/></defs><clipPath id="cH"><use xlink:href="#cG" overflow="visible"/></clipPath><g clip-path="url(#cH)"><defs><path id="cI" d="M-779.4-1021.9h1121V8.1h-1121z"/></defs></g></g><g><defs><path id="cJ" d="M136.1-898.3c22 0 40 5.2 40 10.4 0 5.3-18 10.4-40 10.4s-40-5.2-40-10.4 18-10.4 40-10.4zm0-3c-23.8 0-43 5.5-43 13.4s19.2 13.4 43 13.4 43-5.5 43-13.4-19.2-13.4-43-13.4zm-63-20h126v66.9h-126v-66.9z"/></defs><clipPath id="cK"><use xlink:href="#cJ" overflow="visible"/></clipPath><g clip-path="url(#cK)"><defs><ellipse id="cL" cx="136.1" cy="-887.9" rx="41.5" ry="11.9"/></defs><clipPath id="cM"><use xlink:href="#cL" overflow="visible"/></clipPath><g clip-path="url(#cM)"><defs><path id="cN" d="M-779.4-1021.9h1121V8.1h-1121z"/></defs></g></g></g><g><defs><ellipse id="cO" cx="136.1" cy="-887.9" rx="41.5" ry="11.9"/></defs><clipPath id="cP"><use xlink:href="#cO" overflow="visible"/></clipPath><g clip-path="url(#cP)"><defs><path id="cQ" d="M-779.4-1021.9h1121V8.1h-1121z"/></defs></g></g><g><defs><path id="cR" d="M123.5-886.3c0 .4-.2.7-.4.8.1 0 .2-.1.4-.2.6-.2 1.6-.4 2.8-.6 2.6-.4 6-.6 9.8-.6s7.2.2 9.8.6c1.2.2 2.2.4 2.8.6l.4.2c-.2-.1-.4-.4-.4-.8s.2-.7.4-.8c-.1 0-.2.1-.4.2-.6.2-1.6.4-2.8.6-2.6.4-6 .6-9.8.6s-7.2-.2-9.8-.6c-1.2-.2-2.2-.4-2.8-.6l-.4-.2c.2.1.4.3.4.8zm-3 0c0 2.6 6.2 3.5 15.6 3.5s15.6-.9 15.6-3.5-6.2-3.5-15.6-3.5-15.6.8-15.6 3.5zm-20-23.6h71.2v47.1h-71.2v-47.1z"/></defs><clipPath id="cS"><use xlink:href="#cR" overflow="visible"/></clipPath><g clip-path="url(#cS)"><defs><ellipse id="cT" cx="136.1" cy="-886.3" rx="14.1" ry="2"/></defs><clipPath id="cU"><use xlink:href="#cT" overflow="visible"/></clipPath><g clip-path="url(#cU)"><defs><path id="cV" d="M-779.4-1021.9h1121V8.1h-1121z"/></defs></g></g></g><g><defs><ellipse id="cW" cx="136.1" cy="-886.3" rx="14.1" ry="2"/></defs><clipPath id="cX"><use xlink:href="#cW" overflow="visible"/></clipPath><g clip-path="url(#cX)"><defs><path id="cY" d="M-779.4-1021.9h1121V8.1h-1121z"/></defs></g></g><g><defs><path id="cZ" d="M128.9-869s-10.5 3.3-9.1 12.3c.9 5.5 5.6 8.1 5.6 13.5s-4.6 9.5-4.6 9.5 13.5-.3 14.6-9.5c1.1-9.2-6.7-11.3-8.3-15.6-1.4-4.3 1.8-10.2 1.8-10.2z"/></defs><clipPath id="da"><use xlink:href="#cZ" overflow="visible"/></clipPath><g clip-path="url(#da)"><defs><path id="db" d="M-779.4-1021.9h1121V8.1h-1121z"/></defs></g></g><g><defs><path id="dc" d="M144-865.7s-15.1 4.8-13 17.6c1.2 7.9 8 11.6 8 19.4s-6.5 13.6-6.5 13.6 19.3-.5 20.9-13.6-9.6-16.1-11.8-22.3c-2.3-6.3 2.4-14.7 2.4-14.7z"/></defs><clipPath id="dd"><use xlink:href="#dc" overflow="visible"/></clipPath><g clip-path="url(#dd)"><defs><path id="de" d="M-779.4-1021.9h1121V8.1h-1121z"/></defs></g></g><g><defs><path id="df" d="M-224.2-602.3h-1.5v90h134v-90h-132.5zm0 3h131l-1.5-1.5v87l1.5-1.5h-131l1.5 1.5v-87l-1.5 1.5zm-21.5-23h174v130h-174v-130z"/></defs><clipPath id="dg"><use xlink:href="#df" overflow="visible"/></clipPath><g clip-path="url(#dg)"><defs><path id="dh" d="M-224.2-600.8h131v87h-131z"/></defs><clipPath id="di"><use xlink:href="#dh" overflow="visible"/></clipPath><g clip-path="url(#di)"><defs><path id="dj" d="M-833.2-904.8h1121v1030h-1121z"/></defs></g></g></g><g><defs><path id="dk" d="M-224.2-600.8h131v87h-131z"/></defs><clipPath id="dl"><use xlink:href="#dk" overflow="visible"/></clipPath><g clip-path="url(#dl)"><defs><path id="dm" d="M-833.2-904.8h1121v1030h-1121z"/></defs></g></g><g><defs><path id="dn" d="M-219.2-597.3h-1.5v80h124v-80h-122.5zm0 3h121l-1.5-1.5v77l1.5-1.5h-121l1.5 1.5v-77l-1.5 1.5zm-21.5-23h164v120h-164v-120z"/></defs><clipPath id="do"><use xlink:href="#dn" overflow="visible"/></clipPath><g clip-path="url(#do)"><defs><path id="dp" d="M-219.2-595.8h121v77h-121z"/></defs><clipPath id="dq"><use xlink:href="#dp" overflow="visible"/></clipPath><g clip-path="url(#dq)"><defs><path id="dr" d="M-833.2-904.8h1121v1030h-1121z"/></defs></g></g></g><g><defs><path id="ds" d="M-219.2-595.8h121v77h-121z"/></defs><clipPath id="dt"><use xlink:href="#ds" overflow="visible"/></clipPath><g clip-path="url(#dt)"><defs><path id="du" d="M-833.2-904.8h1121v1030h-1121z"/></defs></g></g><g><defs><path id="dv" d="M-154.2-582.3h-1.5v6h47v-6h-45.5zm0 3h44l-1.5-1.5v3l1.5-1.5h-44l1.5 1.5v-3l-1.5 1.5zm-21.5-23h87v46h-87v-46z"/></defs><clipPath id="dw"><use xlink:href="#dv" overflow="visible"/></clipPath><g clip-path="url(#dw)"><defs><path id="dx" d="M-154.2-580.8h44v3h-44z"/></defs><clipPath id="dy"><use xlink:href="#dx" overflow="visible"/></clipPath><g clip-path="url(#dy)"><defs><path id="dz" d="M-833.2-904.8h1121v1030h-1121z"/></defs></g></g></g><g><defs><path id="dA" d="M-154.2-580.8h44v3h-44z"/></defs><clipPath id="dB"><use xlink:href="#dA" overflow="visible"/></clipPath><g clip-path="url(#dB)"><defs><path id="dC" d="M-833.2-904.8h1121v1030h-1121z"/></defs></g></g><g><defs><path id="dD" d="M-154.2-576.3h-1.5v6h47v-6h-45.5zm0 3h44l-1.5-1.5v3l1.5-1.5h-44l1.5 1.5v-3l-1.5 1.5zm-21.5-23h87v46h-87v-46z"/></defs><clipPath id="dE"><use xlink:href="#dD" overflow="visible"/></clipPath><g clip-path="url(#dE)"><defs><path id="dF" d="M-154.2-574.8h44v3h-44z"/></defs><clipPath id="dG"><use xlink:href="#dF" overflow="visible"/></clipPath><g clip-path="url(#dG)"><defs><path id="dH" d="M-833.2-904.8h1121v1030h-1121z"/></defs></g></g></g><g><defs><path id="dI" d="M-154.2-574.8h44v3h-44z"/></defs><clipPath id="dJ"><use xlink:href="#dI" overflow="visible"/></clipPath><g clip-path="url(#dJ)"><defs><path id="dK" d="M-833.2-904.8h1121v1030h-1121z"/></defs></g></g><g><defs><path id="dL" d="M-154.2-570.3h-1.5v6h47v-6h-45.5zm0 3h44l-1.5-1.5v3l1.5-1.5h-44l1.5 1.5v-3l-1.5 1.5zm-21.5-23h87v46h-87v-46z"/></defs><clipPath id="dM"><use xlink:href="#dL" overflow="visible"/></clipPath><g clip-path="url(#dM)"><defs><path id="dN" d="M-154.2-568.8h44v3h-44z"/></defs><clipPath id="dO"><use xlink:href="#dN" overflow="visible"/></clipPath><g clip-path="url(#dO)"><defs><path id="dP" d="M-833.2-904.8h1121v1030h-1121z"/></defs></g></g></g><g><defs><path id="dQ" d="M-154.2-568.8h44v3h-44z"/></defs><clipPath id="dR"><use xlink:href="#dQ" overflow="visible"/></clipPath><g clip-path="url(#dR)"><defs><path id="dS" d="M-833.2-904.8h1121v1030h-1121z"/></defs></g></g><g><defs><path id="dT" d="M-154.2-564.3h-1.5v6h47v-6h-45.5zm0 3h44l-1.5-1.5v3l1.5-1.5h-44l1.5 1.5v-3l-1.5 1.5zm-21.5-23h87v46h-87v-46z"/></defs><clipPath id="dU"><use xlink:href="#dT" overflow="visible"/></clipPath><g clip-path="url(#dU)"><defs><path id="dV" d="M-154.2-562.8h44v3h-44z"/></defs><clipPath id="dW"><use xlink:href="#dV" overflow="visible"/></clipPath><g clip-path="url(#dW)"><defs><path id="dX" d="M-833.2-904.8h1121v1030h-1121z"/></defs></g></g></g><g><defs><path id="dY" d="M-154.2-562.8h44v3h-44z"/></defs><clipPath id="dZ"><use xlink:href="#dY" overflow="visible"/></clipPath><g clip-path="url(#dZ)"><defs><path id="ea" d="M-833.2-904.8h1121v1030h-1121z"/></defs></g></g><g><defs><path id="eb" d="M143.1-195.1c-27.1 0-49-21.9-49-49s21.9-49 49-49 49 21.9 49 49-21.9 49-49 49zm0 3c28.7 0 52-23.3 52-52s-23.3-52-52-52-52 23.3-52 52 23.3 52 52 52zm-72-124h144v144h-144v-144z"/></defs><clipPath id="ec"><use xlink:href="#eb" overflow="visible"/></clipPath><g clip-path="url(#ec)"><defs><circle id="ed" cx="143.1" cy="-244.1" r="50.5"/></defs><clipPath id="ee"><use xlink:href="#ed" overflow="visible"/></clipPath><g clip-path="url(#ee)"><defs><path id="ef" d="M-31.4-980.1h1121v1030h-1121z"/></defs></g></g></g><g><defs><circle id="eg" cx="143.1" cy="-244.1" r="50.5"/></defs><clipPath id="eh"><use xlink:href="#eg" overflow="visible"/></clipPath><g clip-path="url(#eh)"><defs><path id="ei" d="M-31.4-980.1h1121v1030h-1121z"/></defs></g></g><g><defs><circle id="ej" cx="143.1" cy="-244.1" r="43.5"/></defs><clipPath id="ek"><use xlink:href="#ej" overflow="visible"/></clipPath><g clip-path="url(#ek)"><defs><path id="el" d="M-31.4-980.1h1121v1030h-1121z"/></defs></g></g><g><defs><path id="em" d="M-454-42.7c-27.1 0-49-21.9-49-49s21.9-49 49-49 49 21.9 49 49-21.9 49-49 49zm0 3c28.7 0 52-23.3 52-52s-23.3-52-52-52-52 23.3-52 52 23.3 52 52 52zm-72-124h144v144h-144v-144z"/></defs><clipPath id="en"><use xlink:href="#em" overflow="visible"/></clipPath><g clip-path="url(#en)"><defs><circle id="eo" cx="-454" cy="-91.7" r="50.5"/></defs><clipPath id="ep"><use xlink:href="#eo" overflow="visible"/></clipPath><g clip-path="url(#ep)"><defs><path id="eq" d="M-628.5-827.7h1121v1030h-1121z"/></defs></g></g></g><g><defs><circle id="er" cx="-454" cy="-91.7" r="50.5"/></defs><clipPath id="es"><use xlink:href="#er" overflow="visible"/></clipPath><g clip-path="url(#es)"><defs><path id="et" d="M-628.5-827.7h1121v1030h-1121z"/></defs></g></g><g><defs><circle id="eu" cx="-454" cy="-91.7" r="43.5"/></defs><clipPath id="ev"><use xlink:href="#eu" overflow="visible"/></clipPath><g clip-path="url(#ev)"><defs><path id="ew" d="M-628.5-827.7h1121v1030h-1121z"/></defs></g></g><g><defs><path id="ex" d="M-453.3 124.5c-24.6 0-44.6-20-44.6-44.6s20-44.6 44.6-44.6 44.6 20 44.6 44.6-20 44.6-44.6 44.6zm0 2.7c26.1 0 47.3-21.2 47.3-47.3s-21.2-47.3-47.3-47.3-47.3 21.2-47.3 47.3 21.2 47.3 47.3 47.3zm-65.5-112.8h131v131h-131v-131z"/></defs><clipPath id="ey"><use xlink:href="#ex" overflow="visible"/></clipPath><g clip-path="url(#ey)"><defs><circle id="ez" cx="-453.3" cy="79.9" r="45.9"/></defs><clipPath id="eA"><use xlink:href="#ez" overflow="visible"/></clipPath><g clip-path="url(#eA)"><defs><path id="eB" d="M-612-589.7H407.8v937H-612z"/></defs></g></g></g><g><defs><circle id="eC" cx="-453.3" cy="79.9" r="45.9"/></defs><clipPath id="eD"><use xlink:href="#eC" overflow="visible"/></clipPath><g clip-path="url(#eD)"><defs><path id="eE" d="M-612-589.7H407.8v937H-612z"/></defs></g></g><g><defs><circle id="eF" cx="-453.3" cy="79.9" r="39.6"/></defs><clipPath id="eG"><use xlink:href="#eF" overflow="visible"/></clipPath><g clip-path="url(#eG)"><defs><path id="eH" d="M-612-589.7H407.8v937H-612z"/></defs></g></g><path fill="#FFF" stroke="#0C1F2E" stroke-width="3" stroke-linecap="round" stroke-miterlimit="10" d="M183.3 116.5h-73.4v-96h49.2l24.2 21.9z"/><g fill="none" stroke="#0C1F2E" stroke-width="3" stroke-linecap="round" stroke-miterlimit="10"><path d="M122.1 57.4h49M122.1 68.5h49"/></g><g fill="none" stroke="#0C1F2E" stroke-width="3" stroke-linecap="round" stroke-miterlimit="10"><path d="M122.1 81.5h49M122.1 92.6h49"/></g><g fill="#231F20"><path d="M124.7 42.4l-2.4-10h2.4l.8 4.1c.2 1.2.4 2.5.6 3.5.2-1.1.4-2.3.7-3.5l.9-4.1h2.4l.8 4.2c.2 1.2.4 2.3.5 3.4.1-1.1.4-2.3.6-3.5l.8-4.1h2.3l-2.6 10H130l-.8-4.3c-.2-1-.4-2-.5-3.1-.2 1.1-.3 2.1-.6 3.1l-1 4.3h-2.4zM136 42.4V41l1.3-1.1c2.1-1.9 3.1-3 3.2-4.1 0-.8-.5-1.4-1.6-1.4-.8 0-1.6.4-2.1.8l-.6-1.6c.7-.6 1.9-1 3.2-1 2.2 0 3.4 1.3 3.4 3 0 1.6-1.2 2.9-2.6 4.2l-.9.7h3.7v1.9h-7z"/></g><path fill="none" stroke="#0C1F2E" stroke-width="3" stroke-linecap="round" stroke-miterlimit="10" d="M159.1 20.5v21.9h24.2"/><g><defs><path id="eI" d="M85.5 191.2H84v84h108v-84H85.5zm0 3h105l-1.5-1.5v81l1.5-1.5h-105l1.5 1.5v-81l-1.5 1.5zm-21.5-23h148v124H64v-124z"/></defs><clipPath id="eJ"><use xlink:href="#eI" overflow="visible"/></clipPath><g clip-path="url(#eJ)"><defs><path id="eK" d="M85.5 192.7h105v81h-105z"/></defs><clipPath id="eL"><use xlink:href="#eK" overflow="visible"/></clipPath><g clip-path="url(#eL)"><defs><path id="eM" d="M-795.5-306.3h1121v1030h-1121z"/></defs></g></g></g><g><defs><path id="eN" d="M85.5 192.7h105v81h-105z"/></defs><clipPath id="eO"><use xlink:href="#eN" overflow="visible"/></clipPath><g clip-path="url(#eO)"><defs><path id="eP" d="M-795.5-306.3h1121v1030h-1121z"/></defs></g></g><g><defs><path id="eQ" d="M79.5 208.2h-2.2l.9-2.1 9.1-22 .4-.9h100.9l.4.9 9.1 22 .9 2.1H79.5zm0-3h117l-1.4 2.1-9.1-22 1.4.9H88.6l1.4-.9-9.1 22-1.4-2.1zm-22.2 23h161.5v-65H57.3v65z"/></defs><clipPath id="eR"><use xlink:href="#eQ" overflow="visible"/></clipPath><g clip-path="url(#eR)"><defs><path id="eS" d="M79.5 206.7h117l-9.1-22H88.6z"/></defs><clipPath id="eT"><use xlink:href="#eS" overflow="visible"/></clipPath><g clip-path="url(#eT)"><defs><path id="eU" d="M-795.5-306.3h1121v1030h-1121z"/></defs></g></g></g><g><defs><path id="eV" d="M79.5 206.7h117l-9.1-22H88.6z"/></defs><clipPath id="eW"><use xlink:href="#eV" overflow="visible"/></clipPath><g clip-path="url(#eW)"><defs><path id="eX" d="M-795.5-306.3h1121v1030h-1121z"/></defs></g></g><g><defs><path id="eY" d="M164.5 175.2H163v19h15v-19h-13.5zm0 3h12l-1.5-1.5v16l1.5-1.5h-12l1.5 1.5v-16l-1.5 1.5zm-21.5-23h55v59h-55v-59z"/></defs><clipPath id="eZ"><use xlink:href="#eY" overflow="visible"/></clipPath><g clip-path="url(#eZ)"><defs><path id="fa" d="M164.5 176.7h12v16h-12z"/></defs><clipPath id="fb"><use xlink:href="#fa" overflow="visible"/></clipPath><g clip-path="url(#fb)"><defs><path id="fc" d="M-795.5-306.3h1121v1030h-1121z"/></defs></g></g></g><g><defs><path id="fd" d="M164.5 176.7h12v16h-12z"/></defs><clipPath id="fe"><use xlink:href="#fd" overflow="visible"/></clipPath><g clip-path="url(#fe)"><defs><path id="ff" d="M-795.5-306.3h1121v1030h-1121z"/></defs></g></g><g><defs><path id="fg" d="M98.5 241.2H97v34h24v-34H98.5zm0 3h21l-1.5-1.5v31l1.5-1.5h-21l1.5 1.5v-31l-1.5 1.5zm-21.5-23h64v74H77v-74z"/></defs><clipPath id="fh"><use xlink:href="#fg" overflow="visible"/></clipPath><g clip-path="url(#fh)"><defs><path id="fi" d="M98.5 242.7h21v31h-21z"/></defs><clipPath id="fj"><use xlink:href="#fi" overflow="visible"/></clipPath><g clip-path="url(#fj)"><defs><path id="fk" d="M-795.5-306.3h1121v1030h-1121z"/></defs></g></g></g><g><defs><path id="fl" d="M98.5 242.7h21v31h-21z"/></defs><clipPath id="fm"><use xlink:href="#fl" overflow="visible"/></clipPath><g clip-path="url(#fm)"><defs><path id="fn" d="M-795.5-306.3h1121v1030h-1121z"/></defs></g></g><g><defs><path id="fo" d="M99.5 213.2H98v22h22v-22H99.5zm0 3h19l-1.5-1.5v19l1.5-1.5h-19l1.5 1.5v-19l-1.5 1.5zm-21.5-23h62v62H78v-62z"/></defs><clipPath id="fp"><use xlink:href="#fo" overflow="visible"/></clipPath><g clip-path="url(#fp)"><defs><path id="fq" d="M99.5 214.7h19v19h-19z"/></defs><clipPath id="fr"><use xlink:href="#fq" overflow="visible"/></clipPath><g clip-path="url(#fr)"><defs><path id="fs" d="M-795.5-306.3h1121v1030h-1121z"/></defs></g></g></g><g><defs><path id="ft" d="M99.5 214.7h19v19h-19z"/></defs><clipPath id="fu"><use xlink:href="#ft" overflow="visible"/></clipPath><g clip-path="url(#fu)"><defs><path id="fv" d="M-795.5-306.3h1121v1030h-1121z"/></defs></g></g><g><defs><path id="fw" d="M104.5 218.2H103v12h12v-12h-10.5zm0 3h9l-1.5-1.5v9l1.5-1.5h-9l1.5 1.5v-9l-1.5 1.5zm-21.5-23h52v52H83v-52z"/></defs><clipPath id="fx"><use xlink:href="#fw" overflow="visible"/></clipPath><g clip-path="url(#fx)"><defs><path id="fy" d="M104.5 219.7h9v9h-9z"/></defs><clipPath id="fz"><use xlink:href="#fy" overflow="visible"/></clipPath><g clip-path="url(#fz)"><defs><path id="fA" d="M-795.5-306.3h1121v1030h-1121z"/></defs></g></g></g><g><defs><path id="fB" d="M104.5 219.7h9v9h-9z"/></defs><clipPath id="fC"><use xlink:href="#fB" overflow="visible"/></clipPath><g clip-path="url(#fC)"><defs><path id="fD" d="M-795.5-306.3h1121v1030h-1121z"/></defs></g></g><g><defs><path id="fE" d="M129.5 213.2H128v22h22v-22h-20.5zm0 3h19l-1.5-1.5v19l1.5-1.5h-19l1.5 1.5v-19l-1.5 1.5zm-21.5-23h62v62h-62v-62z"/></defs><clipPath id="fF"><use xlink:href="#fE" overflow="visible"/></clipPath><g clip-path="url(#fF)"><defs><path id="fG" d="M129.5 214.7h19v19h-19z"/></defs><clipPath id="fH"><use xlink:href="#fG" overflow="visible"/></clipPath><g clip-path="url(#fH)"><defs><path id="fI" d="M-795.5-306.3h1121v1030h-1121z"/></defs></g></g></g><g><defs><path id="fJ" d="M129.5 214.7h19v19h-19z"/></defs><clipPath id="fK"><use xlink:href="#fJ" overflow="visible"/></clipPath><g clip-path="url(#fK)"><defs><path id="fL" d="M-795.5-306.3h1121v1030h-1121z"/></defs></g></g><g><defs><path id="fM" d="M158.5 213.2H157v22h22v-22h-20.5zm0 3h19l-1.5-1.5v19l1.5-1.5h-19l1.5 1.5v-19l-1.5 1.5zm-21.5-23h62v62h-62v-62z"/></defs><clipPath id="fN"><use xlink:href="#fM" overflow="visible"/></clipPath><g clip-path="url(#fN)"><defs><path id="fO" d="M158.5 214.7h19v19h-19z"/></defs><clipPath id="fP"><use xlink:href="#fO" overflow="visible"/></clipPath><g clip-path="url(#fP)"><defs><path id="fQ" d="M-795.5-306.3h1121v1030h-1121z"/></defs></g></g></g><g><defs><path id="fR" d="M158.5 214.7h19v19h-19z"/></defs><clipPath id="fS"><use xlink:href="#fR" overflow="visible"/></clipPath><g clip-path="url(#fS)"><defs><path id="fT" d="M-795.5-306.3h1121v1030h-1121z"/></defs></g></g><g><defs><path id="fU" d="M129.5 241.2H128v22h22v-22h-20.5zm0 3h19l-1.5-1.5v19l1.5-1.5h-19l1.5 1.5v-19l-1.5 1.5zm-21.5-23h62v62h-62v-62z"/></defs><clipPath id="fV"><use xlink:href="#fU" overflow="visible"/></clipPath><g clip-path="url(#fV)"><defs><path id="fW" d="M129.5 242.7h19v19h-19z"/></defs><clipPath id="fX"><use xlink:href="#fW" overflow="visible"/></clipPath><g clip-path="url(#fX)"><defs><path id="fY" d="M-795.5-306.3h1121v1030h-1121z"/></defs></g></g></g><g><defs><path id="fZ" d="M129.5 242.7h19v19h-19z"/></defs><clipPath id="ga"><use xlink:href="#fZ" overflow="visible"/></clipPath><g clip-path="url(#ga)"><defs><path id="gb" d="M-795.5-306.3h1121v1030h-1121z"/></defs></g></g><g><defs><path id="gc" d="M158.5 241.2H157v22h22v-22h-20.5zm0 3h19l-1.5-1.5v19l1.5-1.5h-19l1.5 1.5v-19l-1.5 1.5zm-21.5-23h62v62h-62v-62z"/></defs><clipPath id="gd"><use xlink:href="#gc" overflow="visible"/></clipPath><g clip-path="url(#gd)"><defs><path id="ge" d="M158.5 242.7h19v19h-19z"/></defs><clipPath id="gf"><use xlink:href="#ge" overflow="visible"/></clipPath><g clip-path="url(#gf)"><defs><path id="gg" d="M-795.5-306.3h1121v1030h-1121z"/></defs></g></g></g><g><defs><path id="gh" d="M158.5 242.7h19v19h-19z"/></defs><clipPath id="gi"><use xlink:href="#gh" overflow="visible"/></clipPath><g clip-path="url(#gi)"><defs><path id="gj" d="M-795.5-306.3h1121v1030h-1121z"/></defs></g></g><g><defs><path id="gk" d="M134.5 218.2H133v12h12v-12h-10.5zm0 3h9l-1.5-1.5v9l1.5-1.5h-9l1.5 1.5v-9l-1.5 1.5zm-21.5-23h52v52h-52v-52z"/></defs><clipPath id="gl"><use xlink:href="#gk" overflow="visible"/></clipPath><g clip-path="url(#gl)"><defs><path id="gm" d="M134.5 219.7h9v9h-9z"/></defs><clipPath id="gn"><use xlink:href="#gm" overflow="visible"/></clipPath><g clip-path="url(#gn)"><defs><path id="go" d="M-795.5-306.3h1121v1030h-1121z"/></defs></g></g></g><g><defs><path id="gp" d="M134.5 219.7h9v9h-9z"/></defs><clipPath id="gq"><use xlink:href="#gp" overflow="visible"/></clipPath><g clip-path="url(#gq)"><defs><path id="gr" d="M-795.5-306.3h1121v1030h-1121z"/></defs></g></g><g><defs><path id="gs" d="M163.5 218.2H162v12h12v-12h-10.5zm0 3h9l-1.5-1.5v9l1.5-1.5h-9l1.5 1.5v-9l-1.5 1.5zm-21.5-23h52v52h-52v-52z"/></defs><clipPath id="gt"><use xlink:href="#gs" overflow="visible"/></clipPath><g clip-path="url(#gt)"><defs><path id="gu" d="M163.5 219.7h9v9h-9z"/></defs><clipPath id="gv"><use xlink:href="#gu" overflow="visible"/></clipPath><g clip-path="url(#gv)"><defs><path id="gw" d="M-795.5-306.3h1121v1030h-1121z"/></defs></g></g></g><g><defs><path id="gx" d="M163.5 219.7h9v9h-9z"/></defs><clipPath id="gy"><use xlink:href="#gx" overflow="visible"/></clipPath><g clip-path="url(#gy)"><defs><path id="gz" d="M-795.5-306.3h1121v1030h-1121z"/></defs></g></g><g><defs><path id="gA" d="M134.5 246.2H133v12h12v-12h-10.5zm0 3h9l-1.5-1.5v9l1.5-1.5h-9l1.5 1.5v-9l-1.5 1.5zm-21.5-23h52v52h-52v-52z"/></defs><clipPath id="gB"><use xlink:href="#gA" overflow="visible"/></clipPath><g clip-path="url(#gB)"><defs><path id="gC" d="M134.5 247.7h9v9h-9z"/></defs><clipPath id="gD"><use xlink:href="#gC" overflow="visible"/></clipPath><g clip-path="url(#gD)"><defs><path id="gE" d="M-795.5-306.3h1121v1030h-1121z"/></defs></g></g></g><g><defs><path id="gF" d="M134.5 247.7h9v9h-9z"/></defs><clipPath id="gG"><use xlink:href="#gF" overflow="visible"/></clipPath><g clip-path="url(#gG)"><defs><path id="gH" d="M-795.5-306.3h1121v1030h-1121z"/></defs></g></g><g><defs><path id="gI" d="M163.5 246.2H162v12h12v-12h-10.5zm0 3h9l-1.5-1.5v9l1.5-1.5h-9l1.5 1.5v-9l-1.5 1.5zm-21.5-23h52v52h-52v-52z"/></defs><clipPath id="gJ"><use xlink:href="#gI" overflow="visible"/></clipPath><g clip-path="url(#gJ)"><defs><path id="gK" d="M163.5 247.7h9v9h-9z"/></defs><clipPath id="gL"><use xlink:href="#gK" overflow="visible"/></clipPath><g clip-path="url(#gL)"><defs><path id="gM" d="M-795.5-306.3h1121v1030h-1121z"/></defs></g></g></g><g><defs><path id="gN" d="M163.5 247.7h9v9h-9z"/></defs><clipPath id="gO"><use xlink:href="#gN" overflow="visible"/></clipPath><g clip-path="url(#gO)"><defs><path id="gP" d="M-795.5-306.3h1121v1030h-1121z"/></defs></g></g></svg>