<svg xmlns="http://www.w3.org/2000/svg" xmlns:xlink="http://www.w3.org/1999/xlink" viewBox="0 0 276 137"><defs><circle id="a" cx="-750" cy="-88.5" r="50.5"/></defs><clipPath id="b"><use xlink:href="#a" overflow="visible"/></clipPath><g clip-path="url(#b)"><defs><path id="c" d="M-924.5-824.5h1121v1030h-1121z"/></defs></g><defs><circle id="d" cx="-750" cy="-88.5" r="43.5"/></defs><clipPath id="e"><use xlink:href="#d" overflow="visible"/></clipPath><g clip-path="url(#e)"><defs><path id="f" d="M-924.5-824.5h1121v1030h-1121z"/></defs></g><path fill="#FFF" stroke="#091F2F" stroke-width="3" stroke-linecap="round" stroke-miterlimit="10" d="M108.9 83c-3.1 0-5.7-2.6-5.7-5.7V58.1c0-3.1 2.5-5.7 5.7-5.7 3.1 0 5.7 2.5 5.7 5.7v19.2c0 3.1-2.5 5.7-5.7 5.7z"/><path fill="#091F2F" d="M103.3 67.7v9.1c0 3.4 2.5 6.1 5.7 6.1 3.1 0 5.7-2.8 5.7-6.1v-9.1h-11.4z"/><path fill="#FFF" stroke="#091F2F" stroke-width="3" stroke-linecap="round" stroke-miterlimit="10" d="M181 33.3c3.1 0 5.7 2.5 5.7 5.7v19.2c0 3.1-2.5 5.7-5.7 5.7-3.1 0-5.7-2.5-5.7-5.7V39c0-3.1 2.6-5.7 5.7-5.7z"/><path fill="#091F2F" d="M186.7 48.6v-9.1c0-3.4-2.5-6.1-5.7-6.1-3.1 0-5.7 2.8-5.7 6.1v9.1h11.4z"/><path fill="#FFF" stroke="#091F2F" stroke-width="3" stroke-linecap="round" stroke-miterlimit="10" d="M127.8 67.7c0-3.1 2.5-5.7 5.7-5.7h19.2c3.1 0 5.7 2.5 5.7 5.7 0 3.1-2.5 5.7-5.7 5.7h-19.2c-3.2 0-5.7-2.6-5.7-5.7zM133.4 105.9c-3.1 0-5.7-2.5-5.7-5.7V88.6c0-3.1 2.5-5.7 5.7-5.7 3.1 0 5.7 2.5 5.7 5.7v11.6c0 3.1-2.5 5.7-5.7 5.7zM159.9 53.9c-3.1 0-5.7-2.5-5.7-5.7V36.6c0-3.1 2.6-5.7 5.7-5.7s5.7 2.5 5.7 5.7v11.6c-.1 3.1-2.6 5.7-5.7 5.7z"/><path fill="#FFF" stroke="#091F2F" stroke-width="3" stroke-linecap="round" stroke-miterlimit="10" d="M143 62.1h-9.1c-3.4 0-6.1 2.5-6.1 5.7 0 3.1 2.8 5.7 6.1 5.7h9.1V62.1z"/><ellipse transform="rotate(-45.001 158.316 97.096)" fill="#FFF" stroke="#091F2F" stroke-width="3" stroke-linecap="round" stroke-miterlimit="10" cx="158.3" cy="97.1" rx="6.8" ry="6.8"/><circle fill="#FFF" stroke="#091F2F" stroke-width="3" stroke-linecap="round" stroke-miterlimit="10" cx="181" cy="77.5" r="6.8"/><path fill="none" stroke="#091F2F" stroke-width="3" stroke-linecap="round" stroke-miterlimit="10" d="M157.3 91l2.9 11.8"/><circle fill="#FFF" stroke="#091F2F" stroke-width="3" stroke-linecap="round" stroke-miterlimit="10" cx="133.4" cy="40.1" r="6.8"/><circle fill="#091F2F" cx="108.9" cy="37.4" r="5"/><ellipse transform="rotate(-67.151 182.766 99.475)" fill="#091F2F" cx="182.8" cy="99.5" rx="5" ry="5"/><circle fill="#091F2F" cx="107.3" cy="98.1" r="5"/><path fill="none" stroke="#091F2F" stroke-width="3" stroke-linecap="round" stroke-miterlimit="10" d="M130.6 45.8l6.3-10.3"/></svg>