<svg id="Layer_1" data-name="Layer 1" xmlns="http://www.w3.org/2000/svg" viewBox="0 0 276 137"><defs><style>.cls-1,.cls-10,.cls-11,.cls-12,.cls-9{fill:none}.cls-2{clip-path:url(#clip-path)}.cls-3{clip-path:url(#clip-path-2)}.cls-4{clip-path:url(#clip-path-3)}.cls-5{clip-path:url(#clip-path-4)}.cls-6{clip-path:url(#clip-path-5)}.cls-7{clip-path:url(#clip-path-6)}.cls-13,.cls-8{fill:#fff}.cls-10,.cls-11,.cls-12,.cls-8,.cls-9{stroke:#0e1f2d;stroke-width:3px}.cls-8{stroke-linecap:round}.cls-11,.cls-12,.cls-8{stroke-miterlimit:10}.cls-10,.cls-9{stroke-linejoin:round}.cls-10,.cls-12{stroke-dasharray:2.99 3.98}.cls-14{fill:#0f1f2d}.cls-15{clip-path:url(#clip-path-7)}.cls-16{clip-path:url(#clip-path-8)}</style><clipPath id="clip-path"><circle class="cls-1" cx="-454" cy="-89.73" r="50.5"/></clipPath><clipPath id="clip-path-2"><circle class="cls-1" cx="-454" cy="-89.73" r="43.5"/></clipPath><clipPath id="clip-path-3"><circle class="cls-1" cx="-158.52" cy="227.59" r="50.5"/></clipPath><clipPath id="clip-path-4"><circle class="cls-1" cx="-158.52" cy="227.59" r="43.5"/></clipPath><clipPath id="clip-path-5"><circle class="cls-1" cx="138" cy="-244.5" r="50.5"/></clipPath><clipPath id="clip-path-6"><circle class="cls-1" cx="138" cy="-244.5" r="43.5"/></clipPath><clipPath id="clip-path-7"><circle class="cls-1" cx="-159.18" cy="857.42" r="50.5"/></clipPath><clipPath id="clip-path-8"><circle class="cls-1" cx="-159.18" cy="857.42" r="43.5"/></clipPath></defs><title>EXPERIENTIAL ICONS</title><path class="cls-8" d="M96.17 23.85h83.67v83.67H96.17z"/><path class="cls-9" d="M137.49 23.85v1.5"/><path class="cls-10" d="M137.49 29.33v74.69"/><path class="cls-9" d="M137.49 106.01v1.5"/><path class="cls-11" d="M179.33 65.68h-1.5"/><path class="cls-12" d="M173.84 65.68H99.15"/><path class="cls-11" d="M97.16 65.68h-1.5"/><circle class="cls-13" cx="181.5" cy="97.77" r="17.74"/><path class="cls-14" d="M181.5 117a19.24 19.24 0 1 1 19.24-19.24A19.26 19.26 0 0 1 181.5 117zm0-35.47a16.24 16.24 0 1 0 16.24 16.24 16.26 16.26 0 0 0-16.24-16.24z"/><path class="cls-13" d="M188 94.39c0 3.58-6.47 12.23-6.47 12.23S175 98 175 94.39a6.47 6.47 0 0 1 12.95 0z"/><path class="cls-14" d="M181.5 109.13l-1.2-1.61c-1.13-1.51-6.77-9.25-6.77-13.13a8 8 0 1 1 15.95 0c0 3.88-5.64 11.62-6.77 13.13zm0-19.71a5 5 0 0 0-5 5c0 1.81 2.61 6.26 5 9.66 2.28-3.28 5-7.78 5-9.66a5 5 0 0 0-5-5.01z"/><circle class="cls-14" cx="181.5" cy="93.76" r="2.14"/></svg>