<svg xmlns="http://www.w3.org/2000/svg" viewBox="0 0 276 137"><g data-name="Layer 1" stroke="#101f2c" stroke-miterlimit="10"><path fill="#fff" stroke-width=".98" d="M156.5 65.7V50.93l-10.81-8.54h-15.3l-10.89 8.23V65.7h37z"/><path d="M120.52 65.7V51.12l10.2-7.72h14.61l10.14 8v14.3zm37 0V50.43L146 41.37h-16l-11.56 8.74V65.7z" fill="#0e1f2d" stroke-width=".98"/><circle cx="138" cy="25.65" r="9.82" fill="#fff" stroke-width=".98"/><path d="M138 36.48a10.84 10.84 0 1 1 10.84-10.84A10.85 10.85 0 0 1 138 36.48zm0-19.64a8.8 8.8 0 1 0 8.8 8.8 8.81 8.81 0 0 0-8.8-8.8z" fill="#0e1f2d" stroke-width=".98"/><path fill="#fff" stroke-width="3.33" d="M106.24 59.92h63.52v5.78h-63.52z"/><path fill="#fff" stroke-width="3" d="M113.13 65.7h49.74v11.77h-49.74zm5.11 11.77h39.51v44.72h-39.51z"/></g></svg>