<svg id="Layer_1" data-name="Layer 1" xmlns="http://www.w3.org/2000/svg" viewBox="0 0 276 137"><defs><style>.cls-1,.cls-5{fill:none}.cls-2{clip-path:url(#clip-path)}.cls-3{clip-path:url(#clip-path-2)}.cls-4,.cls-6{fill:#fff}.cls-4,.cls-5{stroke:#0e1f2d;stroke-linecap:round;stroke-miterlimit:10;stroke-width:3px}.cls-7{fill:#0c1f2e}.cls-8{fill:#0e1f2d}</style><clipPath id="clip-path"><circle class="cls-1" cx="434" cy="-246.73" r="50.5"/></clipPath><clipPath id="clip-path-2"><circle class="cls-1" cx="434" cy="-246.73" r="43.5"/></clipPath></defs><title>EXPERIENTIAL ICONS</title><path class="cls-4" d="M186.91 106.59l-22.31 6.77-27.06-6.77-24.45 7.53-24.67-7.53V32.52l24.67 7.53 24.57-7.53 26.94 6.78 22.31-6.78v74.07z"/><path class="cls-5" d="M112.83 40.05v63.69M112.83 98.79v15.61M164.09 94.71v18.05M164.09 39.25v53.58M138.16 92.81v13.98M138.16 33.48v13.98"/><circle class="cls-6" cx="138.46" cy="69.99" r="16.83"/><path class="cls-7" d="M138.46 88.25A18.25 18.25 0 1 1 156.72 70a18.27 18.27 0 0 1-18.26 18.25zm0-33.66A15.41 15.41 0 1 0 153.87 70a15.42 15.42 0 0 0-15.41-15.41z"/><path class="cls-8" d="M138.46 62.77h-6.83V72c.88 5.55 6.83 7 6.83 7s6.09-2 6.83-7v-9.22z"/></svg>