<svg id="Layer_1" data-name="Layer 1" xmlns="http://www.w3.org/2000/svg" viewBox="0 0 276 137"><defs><style>.cls-1,.cls-11,.cls-2,.cls-8{fill:none}.cls-2{clip-rule:evenodd}.cls-3{clip-path:url(#clip-path)}.cls-4{clip-path:url(#clip-path-2)}.cls-5{fill:#fff}.cls-6{clip-path:url(#clip-path-3)}.cls-7{clip-path:url(#clip-path-4)}.cls-8{stroke:#0f1f2d;stroke-width:6px}.cls-11,.cls-8{stroke-linecap:round;stroke-miterlimit:10}.cls-9{clip-path:url(#clip-path-5)}.cls-10{clip-path:url(#clip-path-6)}.cls-11{stroke:#0e1f2d;stroke-width:3px}.cls-12{clip-path:url(#clip-path-7)}.cls-13{clip-path:url(#clip-path-8)}.cls-14{clip-path:url(#clip-path-10)}.cls-15{clip-path:url(#clip-path-11)}.cls-16{clip-path:url(#clip-path-13)}.cls-17{clip-path:url(#clip-path-14)}.cls-18{clip-path:url(#clip-path-15)}.cls-19{clip-path:url(#clip-path-16)}</style><clipPath id="clip-path"><circle class="cls-1" cx="-158" cy="-246.73" r="50.5"/></clipPath><clipPath id="clip-path-2"><circle class="cls-1" cx="-158" cy="-246.73" r="43.5"/></clipPath><clipPath id="clip-path-3"><circle class="cls-1" cx="137.48" cy="70.59" r="50.5"/></clipPath><clipPath id="clip-path-4"><rect class="cls-1" x="-37.02" y="-665.41" width="1121" height="1030" rx="515" ry="515"/></clipPath><clipPath id="clip-path-5"><circle class="cls-1" cx="137.48" cy="70.59" r="43.5"/></clipPath><clipPath id="clip-path-6"><path class="cls-1" d="M-37-150.41c0 284.43 230.57 515 515 515h91c284.43 0 515-230.57 515-515s-230.57-515-515-515"/></clipPath><clipPath id="clip-path-7"><path class="cls-2" d="M396.69 416.58a29.08 29.08 0 1 1 29.08-29.08 29.08 29.08 0 0 1-29.08 29.08zm0 2.24a31.32 31.32 0 1 0-31.32-31.32 31.32 31.32 0 0 0 31.32 31.32zm-46.25-77.57h92.5v92.5h-92.5z"/></clipPath><clipPath id="clip-path-8"><circle class="cls-1" cx="396.69" cy="387.5" r="30.2"/></clipPath><clipPath id="clip-path-10"><path class="cls-2" d="M479.23 416.58a29.08 29.08 0 1 1 29.07-29.08 29.08 29.08 0 0 1-29.07 29.08zm0 2.24a31.32 31.32 0 1 0-31.32-31.32 31.32 31.32 0 0 0 31.32 31.32zM433 341.25h92.5v92.5H433z"/></clipPath><clipPath id="clip-path-11"><circle class="cls-1" cx="479.23" cy="387.5" r="30.2"/></clipPath><clipPath id="clip-path-13"><circle class="cls-1" cx="136.82" cy="700.42" r="50.5"/></clipPath><clipPath id="clip-path-14"><circle class="cls-1" cx="136.82" cy="700.42" r="43.5"/></clipPath><clipPath id="clip-path-15"><circle class="cls-1" cx="132.14" cy="857.9" r="50.5"/></clipPath><clipPath id="clip-path-16"><circle class="cls-1" cx="132.14" cy="857.9" r="43.5"/></clipPath></defs><title>EXPERIENTIAL ICONS</title><circle class="cls-5" cx="137.85" cy="70.74" r="48.55" transform="rotate(-45 137.848 70.732)"/><g class="cls-6"><g class="cls-7"><circle class="cls-8" cx="137.48" cy="70.59" r="50.5"/></g></g><g class="cls-9"><g class="cls-10"><circle class="cls-8" cx="137.48" cy="70.59" r="43.5"/></g></g><path class="cls-11" d="M137.71 50.58h-19.16v25.78c2.46 15.57 19.16 19.76 19.16 19.76s17.07-5.68 19.16-19.76V50.62z"/></svg>