<svg xmlns="http://www.w3.org/2000/svg" xmlns:xlink="http://www.w3.org/1999/xlink" viewBox="0 0 276 137"><path fill="#FFF" stroke="#0C1F2E" stroke-width="3" stroke-linecap="round" stroke-miterlimit="10" d="M150.9 64.5h-22.6l-16.1 12.1v41.7h54.6V77.1z"/><circle fill="#FFF" stroke="#0C1F2E" stroke-width="3" stroke-linecap="round" stroke-miterlimit="10" cx="139" cy="39.7" r="14.5"/><defs><path id="a" d="M973.5-450.3H972v84h108v-84H973.5zm0 3h105l-1.5-1.5v81l1.5-1.5h-105l1.5 1.5v-81l-1.5 1.5zm-21.5-23h148v124H952v-124z"/></defs><clipPath id="b"><use xlink:href="#a" overflow="visible"/></clipPath><g clip-path="url(#b)"><defs><path id="c" d="M973.5-448.8h105v81h-105z"/></defs></g><defs><path id="d" d="M973.5-448.8h105v81h-105z"/></defs><defs><path id="e" d="M967.5-433.3h-2.2l.9-2.1 9.1-22 .4-.9h100.9l.4.9 9.1 22 .9 2.1H967.5zm0-3h117l-1.4 2.1-9.1-22 1.4.9h-98.9l1.4-.9-9.1 22-1.3-2.1zm-22.2 23h161.5v-65H945.3v65z"/></defs><clipPath id="f"><use xlink:href="#e" overflow="visible"/></clipPath><g clip-path="url(#f)"><defs><path id="g" d="M967.5-434.8h117l-9.1-22h-98.8z"/></defs></g><defs><path id="h" d="M967.5-434.8h117l-9.1-22h-98.8z"/></defs><defs><path id="i" d="M1052.5-466.3h-1.5v19h15v-19h-13.5zm0 3h12l-1.5-1.5v16l1.5-1.5h-12l1.5 1.5v-16l-1.5 1.5zm-21.5-23h55v59h-55v-59z"/></defs><clipPath id="j"><use xlink:href="#i" overflow="visible"/></clipPath><g clip-path="url(#j)"><defs><path id="k" d="M1052.5-464.8h12v16h-12z"/></defs></g><defs><path id="l" d="M1052.5-464.8h12v16h-12z"/></defs><defs><path id="m" d="M986.5-400.3H985v34h24v-34h-22.5zm0 3h21l-1.5-1.5v31l1.5-1.5h-21l1.5 1.5v-31l-1.5 1.5zm-21.5-23h64v74h-64v-74z"/></defs><clipPath id="n"><use xlink:href="#m" overflow="visible"/></clipPath><g clip-path="url(#n)"><defs><path id="o" d="M986.5-398.8h21v31h-21z"/></defs></g><defs><path id="p" d="M986.5-398.8h21v31h-21z"/></defs><defs><path id="q" d="M987.5-428.3H986v22h22v-22h-20.5zm0 3h19l-1.5-1.5v19l1.5-1.5h-19l1.5 1.5v-19l-1.5 1.5zm-21.5-23h62v62h-62v-62z"/></defs><clipPath id="r"><use xlink:href="#q" overflow="visible"/></clipPath><g clip-path="url(#r)"><defs><path id="s" d="M987.5-426.8h19v19h-19z"/></defs></g><defs><path id="t" d="M987.5-426.8h19v19h-19z"/></defs><defs><path id="u" d="M992.5-423.3H991v12h12v-12h-10.5zm0 3h9l-1.5-1.5v9l1.5-1.5h-9l1.5 1.5v-9l-1.5 1.5zm-21.5-23h52v52h-52v-52z"/></defs><clipPath id="v"><use xlink:href="#u" overflow="visible"/></clipPath><g clip-path="url(#v)"><defs><path id="w" d="M992.5-421.8h9v9h-9z"/></defs></g><defs><path id="x" d="M992.5-421.8h9v9h-9z"/></defs><defs><path id="y" d="M1017.5-428.3h-1.5v22h22v-22h-20.5zm0 3h19l-1.5-1.5v19l1.5-1.5h-19l1.5 1.5v-19l-1.5 1.5zm-21.5-23h62v62h-62v-62z"/></defs><clipPath id="z"><use xlink:href="#y" overflow="visible"/></clipPath><g clip-path="url(#z)"><defs><path id="A" d="M1017.5-426.8h19v19h-19z"/></defs></g><defs><path id="B" d="M1017.5-426.8h19v19h-19z"/></defs><defs><path id="C" d="M1046.5-428.3h-1.5v22h22v-22h-20.5zm0 3h19l-1.5-1.5v19l1.5-1.5h-19l1.5 1.5v-19l-1.5 1.5zm-21.5-23h62v62h-62v-62z"/></defs><clipPath id="D"><use xlink:href="#C" overflow="visible"/></clipPath><g clip-path="url(#D)"><defs><path id="E" d="M1046.5-426.8h19v19h-19z"/></defs></g><defs><path id="F" d="M1046.5-426.8h19v19h-19z"/></defs><defs><path id="G" d="M1017.5-400.3h-1.5v22h22v-22h-20.5zm0 3h19l-1.5-1.5v19l1.5-1.5h-19l1.5 1.5v-19l-1.5 1.5zm-21.5-23h62v62h-62v-62z"/></defs><clipPath id="H"><use xlink:href="#G" overflow="visible"/></clipPath><g clip-path="url(#H)"><defs><path id="I" d="M1017.5-398.8h19v19h-19z"/></defs></g><defs><path id="J" d="M1017.5-398.8h19v19h-19z"/></defs><defs><path id="K" d="M1046.5-400.3h-1.5v22h22v-22h-20.5zm0 3h19l-1.5-1.5v19l1.5-1.5h-19l1.5 1.5v-19l-1.5 1.5zm-21.5-23h62v62h-62v-62z"/></defs><clipPath id="L"><use xlink:href="#K" overflow="visible"/></clipPath><g clip-path="url(#L)"><defs><path id="M" d="M1046.5-398.8h19v19h-19z"/></defs></g><defs><path id="N" d="M1046.5-398.8h19v19h-19z"/></defs><defs><path id="O" d="M1022.5-423.3h-1.5v12h12v-12h-10.5zm0 3h9l-1.5-1.5v9l1.5-1.5h-9l1.5 1.5v-9l-1.5 1.5zm-21.5-23h52v52h-52v-52z"/></defs><clipPath id="P"><use xlink:href="#O" overflow="visible"/></clipPath><g clip-path="url(#P)"><defs><path id="Q" d="M1022.5-421.8h9v9h-9z"/></defs></g><defs><path id="R" d="M1022.5-421.8h9v9h-9z"/></defs><defs><path id="S" d="M1051.5-423.3h-1.5v12h12v-12h-10.5zm0 3h9l-1.5-1.5v9l1.5-1.5h-9l1.5 1.5v-9l-1.5 1.5zm-21.5-23h52v52h-52v-52z"/></defs><clipPath id="T"><use xlink:href="#S" overflow="visible"/></clipPath><g clip-path="url(#T)"><defs><path id="U" d="M1051.5-421.8h9v9h-9z"/></defs></g><defs><path id="V" d="M1051.5-421.8h9v9h-9z"/></defs><g><defs><path id="W" d="M1022.5-395.3h-1.5v12h12v-12h-10.5zm0 3h9l-1.5-1.5v9l1.5-1.5h-9l1.5 1.5v-9l-1.5 1.5zm-21.5-23h52v52h-52v-52z"/></defs><clipPath id="X"><use xlink:href="#W" overflow="visible"/></clipPath><g clip-path="url(#X)"><defs><path id="Y" d="M1022.5-393.8h9v9h-9z"/></defs></g></g><g><defs><path id="Z" d="M1022.5-393.8h9v9h-9z"/></defs></g><g><defs><path id="aa" d="M1051.5-395.3h-1.5v12h12v-12h-10.5zm0 3h9l-1.5-1.5v9l1.5-1.5h-9l1.5 1.5v-9l-1.5 1.5zm-21.5-23h52v52h-52v-52z"/></defs><clipPath id="ab"><use xlink:href="#aa" overflow="visible"/></clipPath><g clip-path="url(#ab)"><defs><path id="ac" d="M1051.5-393.8h9v9h-9z"/></defs></g></g><g><defs><path id="ad" d="M1051.5-393.8h9v9h-9z"/></defs></g><path fill="#FFF" stroke="#091F2F" stroke-width="3" stroke-miterlimit="10" d="M94.2 79.8h50.9v5.9H94.2zm0 6.4h50.9v32.1H94.2z"/><g fill="#231F20"><path d="M106.7 106.4l-3.2-8.2h2.2l2.1 6 2.1-6h2.1l-3.2 8.2h-2.1zm14.5-4.1c0 2.4-1.9 4.2-4.4 4.2-2.5 0-4.4-1.8-4.4-4.2 0-2.4 1.9-4.1 4.4-4.1 2.5 0 4.4 1.8 4.4 4.1zm-6.7 0c0 1.4 1.1 2.4 2.3 2.4 1.3 0 2.3-1.1 2.3-2.4 0-1.4-1-2.4-2.3-2.4-1.3 0-2.3 1.1-2.3 2.4zm11.3-2.4v6.5h-2.1v-6.5h-2.4v-1.7h7v1.7h-2.5zm5.4 0v1.6h3.9v1.6h-3.9v1.6h4.4v1.6h-6.5v-8.2h6.4v1.6h-4.3z"/></g></svg>