<svg id="Layer_1" data-name="Layer 1" xmlns="http://www.w3.org/2000/svg" viewBox="0 0 276 137"><defs><style>.cls-1{fill:none}.cls-2,.cls-3{fill:#fff}.cls-2{stroke:#091f2f;stroke-miterlimit:10;stroke-width:3px}.cls-4{fill:#0f1f2d}.cls-5{fill:#0e1f2d}.cls-6{clip-path:url(#clip-path)}.cls-7{clip-path:url(#clip-path-2)}</style><clipPath id="clip-path"><circle class="cls-1" cx="-737.7" cy="859.62" r="50.5"/></clipPath><clipPath id="clip-path-2"><circle class="cls-1" cx="-737.7" cy="859.62" r="43.5"/></clipPath></defs><title>EXPERIENTIAL ICONS</title><path class="cls-2" transform="rotate(-36.51 135.296 35.433)" d="M116.73 24.99h37.11v20.87h-37.11z"/><path class="cls-2" d="M134.66 31.13l8.49-6.29M139.06 37.07l8.5-6.29M90.74 52.36h76.14v48.09H90.74z"/><circle class="cls-3" cx="172.32" cy="93.76" r="17.74"/><path class="cls-4" d="M172.32 113a19.24 19.24 0 1 1 19.24-19.24A19.26 19.26 0 0 1 172.32 113zm0-35.47a16.24 16.24 0 1 0 16.24 16.24 16.26 16.26 0 0 0-16.24-16.24z"/><path class="cls-3" d="M178.79 90.38c0 3.58-6.47 12.23-6.47 12.23s-6.47-8.66-6.47-12.23a6.47 6.47 0 0 1 12.95 0z"/><path class="cls-4" d="M172.32 105.12l-1.2-1.61c-1.13-1.51-6.77-9.25-6.77-13.13a8 8 0 1 1 15.95 0c0 3.88-5.64 11.62-6.77 13.13zm0-19.71a5 5 0 0 0-5 5c0 1.81 2.61 6.26 5 9.66 2.28-3.28 5-7.78 5-9.66a5 5 0 0 0-5-5z"/><circle class="cls-4" cx="172.32" cy="89.76" r="2.14"/><path class="cls-2" d="M90.74 45.45h76.14v6.91H90.74z"/><path class="cls-5" d="M109.53 82.57l-4.75-12.23h3.32l3.13 9 3.13-9h3.2l-4.81 12.23zM131.15 76.43a6.62 6.62 0 0 1-13.23 0c0-3.56 2.83-6.2 6.61-6.2s6.62 2.65 6.62 6.2zm-10 0a3.56 3.56 0 0 0 3.46 3.65 3.64 3.64 0 1 0-3.46-3.65zM138.06 72.83v9.73H135v-9.73h-3.7v-2.51h10.45v2.52zM146.2 72.78v2.43h5.8v2.45h-5.8v2.46h6.66v2.45h-9.77V70.33h9.58v2.45z"/></svg>