<svg xmlns="http://www.w3.org/2000/svg" xmlns:xlink="http://www.w3.org/1999/xlink" viewBox="0 0 276 137"><path fill="#FFF" stroke="#0C1F2E" stroke-width="3" stroke-linecap="round" stroke-miterlimit="10" d="M150.9 64.5h-22.6l-16.1 12.1v41.7h54.6V77.1z"/><circle fill="#FFF" stroke="#0C1F2E" stroke-width="3" stroke-linecap="round" stroke-miterlimit="10" cx="139" cy="39.7" r="14.5"/><defs><path id="a" d="M973.5-450.3H972v84h108v-84H973.5zm0 3h105l-1.5-1.5v81l1.5-1.5h-105l1.5 1.5v-81l-1.5 1.5zm-21.5-23h148v124H952v-124z"/></defs><clipPath id="b"><use xlink:href="#a" overflow="visible"/></clipPath><g clip-path="url(#b)"><defs><path id="c" d="M973.5-448.8h105v81h-105z"/></defs><clipPath id="d"><use xlink:href="#c" overflow="visible"/></clipPath><g clip-path="url(#d)"><defs><path id="e" d="M92.5-947.8h1121v1030H92.5z"/></defs></g></g><defs><path id="f" d="M973.5-448.8h105v81h-105z"/></defs><clipPath id="g"><use xlink:href="#f" overflow="visible"/></clipPath><g clip-path="url(#g)"><defs><path id="h" d="M92.5-947.8h1121v1030H92.5z"/></defs></g><defs><path id="i" d="M967.5-433.3h-2.2l.9-2.1 9.1-22 .4-.9h100.9l.4.9 9.1 22 .9 2.1H967.5zm0-3h117l-1.4 2.1-9.1-22 1.4.9h-98.9l1.4-.9-9.1 22-1.3-2.1zm-22.2 23h161.5v-65H945.3v65z"/></defs><clipPath id="j"><use xlink:href="#i" overflow="visible"/></clipPath><g clip-path="url(#j)"><defs><path id="k" d="M967.5-434.8h117l-9.1-22h-98.8z"/></defs><clipPath id="l"><use xlink:href="#k" overflow="visible"/></clipPath><g clip-path="url(#l)"><defs><path id="m" d="M92.5-947.8h1121v1030H92.5z"/></defs></g></g><defs><path id="n" d="M967.5-434.8h117l-9.1-22h-98.8z"/></defs><clipPath id="o"><use xlink:href="#n" overflow="visible"/></clipPath><g clip-path="url(#o)"><defs><path id="p" d="M92.5-947.8h1121v1030H92.5z"/></defs></g><defs><path id="q" d="M1052.5-466.3h-1.5v19h15v-19h-13.5zm0 3h12l-1.5-1.5v16l1.5-1.5h-12l1.5 1.5v-16l-1.5 1.5zm-21.5-23h55v59h-55v-59z"/></defs><clipPath id="r"><use xlink:href="#q" overflow="visible"/></clipPath><g clip-path="url(#r)"><defs><path id="s" d="M1052.5-464.8h12v16h-12z"/></defs><clipPath id="t"><use xlink:href="#s" overflow="visible"/></clipPath><g clip-path="url(#t)"><defs><path id="u" d="M92.5-947.8h1121v1030H92.5z"/></defs></g></g><defs><path id="v" d="M1052.5-464.8h12v16h-12z"/></defs><clipPath id="w"><use xlink:href="#v" overflow="visible"/></clipPath><g clip-path="url(#w)"><defs><path id="x" d="M92.5-947.8h1121v1030H92.5z"/></defs></g><defs><path id="y" d="M986.5-400.3H985v34h24v-34h-22.5zm0 3h21l-1.5-1.5v31l1.5-1.5h-21l1.5 1.5v-31l-1.5 1.5zm-21.5-23h64v74h-64v-74z"/></defs><clipPath id="z"><use xlink:href="#y" overflow="visible"/></clipPath><g clip-path="url(#z)"><defs><path id="A" d="M986.5-398.8h21v31h-21z"/></defs><clipPath id="B"><use xlink:href="#A" overflow="visible"/></clipPath><g clip-path="url(#B)"><defs><path id="C" d="M92.5-947.8h1121v1030H92.5z"/></defs></g></g><defs><path id="D" d="M986.5-398.8h21v31h-21z"/></defs><clipPath id="E"><use xlink:href="#D" overflow="visible"/></clipPath><g clip-path="url(#E)"><defs><path id="F" d="M92.5-947.8h1121v1030H92.5z"/></defs></g><defs><path id="G" d="M987.5-428.3H986v22h22v-22h-20.5zm0 3h19l-1.5-1.5v19l1.5-1.5h-19l1.5 1.5v-19l-1.5 1.5zm-21.5-23h62v62h-62v-62z"/></defs><clipPath id="H"><use xlink:href="#G" overflow="visible"/></clipPath><g clip-path="url(#H)"><defs><path id="I" d="M987.5-426.8h19v19h-19z"/></defs><clipPath id="J"><use xlink:href="#I" overflow="visible"/></clipPath><g clip-path="url(#J)"><defs><path id="K" d="M92.5-947.8h1121v1030H92.5z"/></defs></g></g><defs><path id="L" d="M987.5-426.8h19v19h-19z"/></defs><clipPath id="M"><use xlink:href="#L" overflow="visible"/></clipPath><g clip-path="url(#M)"><defs><path id="N" d="M92.5-947.8h1121v1030H92.5z"/></defs></g><defs><path id="O" d="M992.5-423.3H991v12h12v-12h-10.5zm0 3h9l-1.5-1.5v9l1.5-1.5h-9l1.5 1.5v-9l-1.5 1.5zm-21.5-23h52v52h-52v-52z"/></defs><clipPath id="P"><use xlink:href="#O" overflow="visible"/></clipPath><g clip-path="url(#P)"><defs><path id="Q" d="M992.5-421.8h9v9h-9z"/></defs><clipPath id="R"><use xlink:href="#Q" overflow="visible"/></clipPath><g clip-path="url(#R)"><defs><path id="S" d="M92.5-947.8h1121v1030H92.5z"/></defs></g></g><g><defs><path id="T" d="M992.5-421.8h9v9h-9z"/></defs><clipPath id="U"><use xlink:href="#T" overflow="visible"/></clipPath><g clip-path="url(#U)"><defs><path id="V" d="M92.5-947.8h1121v1030H92.5z"/></defs></g></g><g><defs><path id="W" d="M1017.5-428.3h-1.5v22h22v-22h-20.5zm0 3h19l-1.5-1.5v19l1.5-1.5h-19l1.5 1.5v-19l-1.5 1.5zm-21.5-23h62v62h-62v-62z"/></defs><clipPath id="X"><use xlink:href="#W" overflow="visible"/></clipPath><g clip-path="url(#X)"><defs><path id="Y" d="M1017.5-426.8h19v19h-19z"/></defs><clipPath id="Z"><use xlink:href="#Y" overflow="visible"/></clipPath><g clip-path="url(#Z)"><defs><path id="aa" d="M92.5-947.8h1121v1030H92.5z"/></defs></g></g></g><g><defs><path id="ab" d="M1017.5-426.8h19v19h-19z"/></defs><clipPath id="ac"><use xlink:href="#ab" overflow="visible"/></clipPath><g clip-path="url(#ac)"><defs><path id="ad" d="M92.5-947.8h1121v1030H92.5z"/></defs></g></g><g><defs><path id="ae" d="M1046.5-428.3h-1.5v22h22v-22h-20.5zm0 3h19l-1.5-1.5v19l1.5-1.5h-19l1.5 1.5v-19l-1.5 1.5zm-21.5-23h62v62h-62v-62z"/></defs><clipPath id="af"><use xlink:href="#ae" overflow="visible"/></clipPath><g clip-path="url(#af)"><defs><path id="ag" d="M1046.5-426.8h19v19h-19z"/></defs><clipPath id="ah"><use xlink:href="#ag" overflow="visible"/></clipPath><g clip-path="url(#ah)"><defs><path id="ai" d="M92.5-947.8h1121v1030H92.5z"/></defs></g></g></g><g><defs><path id="aj" d="M1046.5-426.8h19v19h-19z"/></defs><clipPath id="ak"><use xlink:href="#aj" overflow="visible"/></clipPath><g clip-path="url(#ak)"><defs><path id="al" d="M92.5-947.8h1121v1030H92.5z"/></defs></g></g><g><defs><path id="am" d="M1017.5-400.3h-1.5v22h22v-22h-20.5zm0 3h19l-1.5-1.5v19l1.5-1.5h-19l1.5 1.5v-19l-1.5 1.5zm-21.5-23h62v62h-62v-62z"/></defs><clipPath id="an"><use xlink:href="#am" overflow="visible"/></clipPath><g clip-path="url(#an)"><defs><path id="ao" d="M1017.5-398.8h19v19h-19z"/></defs><clipPath id="ap"><use xlink:href="#ao" overflow="visible"/></clipPath><g clip-path="url(#ap)"><defs><path id="aq" d="M92.5-947.8h1121v1030H92.5z"/></defs></g></g></g><g><defs><path id="ar" d="M1017.5-398.8h19v19h-19z"/></defs><clipPath id="as"><use xlink:href="#ar" overflow="visible"/></clipPath><g clip-path="url(#as)"><defs><path id="at" d="M92.5-947.8h1121v1030H92.5z"/></defs></g></g><g><defs><path id="au" d="M1046.5-400.3h-1.5v22h22v-22h-20.5zm0 3h19l-1.5-1.5v19l1.5-1.5h-19l1.5 1.5v-19l-1.5 1.5zm-21.5-23h62v62h-62v-62z"/></defs><clipPath id="av"><use xlink:href="#au" overflow="visible"/></clipPath><g clip-path="url(#av)"><defs><path id="aw" d="M1046.5-398.8h19v19h-19z"/></defs><clipPath id="ax"><use xlink:href="#aw" overflow="visible"/></clipPath><g clip-path="url(#ax)"><defs><path id="ay" d="M92.5-947.8h1121v1030H92.5z"/></defs></g></g></g><g><defs><path id="az" d="M1046.5-398.8h19v19h-19z"/></defs><clipPath id="aA"><use xlink:href="#az" overflow="visible"/></clipPath><g clip-path="url(#aA)"><defs><path id="aB" d="M92.5-947.8h1121v1030H92.5z"/></defs></g></g><g><defs><path id="aC" d="M1022.5-423.3h-1.5v12h12v-12h-10.5zm0 3h9l-1.5-1.5v9l1.5-1.5h-9l1.5 1.5v-9l-1.5 1.5zm-21.5-23h52v52h-52v-52z"/></defs><clipPath id="aD"><use xlink:href="#aC" overflow="visible"/></clipPath><g clip-path="url(#aD)"><defs><path id="aE" d="M1022.5-421.8h9v9h-9z"/></defs><clipPath id="aF"><use xlink:href="#aE" overflow="visible"/></clipPath><g clip-path="url(#aF)"><defs><path id="aG" d="M92.5-947.8h1121v1030H92.5z"/></defs></g></g></g><g><defs><path id="aH" d="M1022.5-421.8h9v9h-9z"/></defs><clipPath id="aI"><use xlink:href="#aH" overflow="visible"/></clipPath><g clip-path="url(#aI)"><defs><path id="aJ" d="M92.5-947.8h1121v1030H92.5z"/></defs></g></g><g><defs><path id="aK" d="M1051.5-423.3h-1.5v12h12v-12h-10.5zm0 3h9l-1.5-1.5v9l1.5-1.5h-9l1.5 1.5v-9l-1.5 1.5zm-21.5-23h52v52h-52v-52z"/></defs><clipPath id="aL"><use xlink:href="#aK" overflow="visible"/></clipPath><g clip-path="url(#aL)"><defs><path id="aM" d="M1051.5-421.8h9v9h-9z"/></defs><clipPath id="aN"><use xlink:href="#aM" overflow="visible"/></clipPath><g clip-path="url(#aN)"><defs><path id="aO" d="M92.5-947.8h1121v1030H92.5z"/></defs></g></g></g><g><defs><path id="aP" d="M1051.5-421.8h9v9h-9z"/></defs><clipPath id="aQ"><use xlink:href="#aP" overflow="visible"/></clipPath><g clip-path="url(#aQ)"><defs><path id="aR" d="M92.5-947.8h1121v1030H92.5z"/></defs></g></g><g><defs><path id="aS" d="M1022.5-395.3h-1.5v12h12v-12h-10.5zm0 3h9l-1.5-1.5v9l1.5-1.5h-9l1.5 1.5v-9l-1.5 1.5zm-21.5-23h52v52h-52v-52z"/></defs><clipPath id="aT"><use xlink:href="#aS" overflow="visible"/></clipPath><g clip-path="url(#aT)"><defs><path id="aU" d="M1022.5-393.8h9v9h-9z"/></defs><clipPath id="aV"><use xlink:href="#aU" overflow="visible"/></clipPath><g clip-path="url(#aV)"><defs><path id="aW" d="M92.5-947.8h1121v1030H92.5z"/></defs></g></g></g><g><defs><path id="aX" d="M1022.5-393.8h9v9h-9z"/></defs><clipPath id="aY"><use xlink:href="#aX" overflow="visible"/></clipPath><g clip-path="url(#aY)"><defs><path id="aZ" d="M92.5-947.8h1121v1030H92.5z"/></defs></g></g><g><defs><path id="ba" d="M1051.5-395.3h-1.5v12h12v-12h-10.5zm0 3h9l-1.5-1.5v9l1.5-1.5h-9l1.5 1.5v-9l-1.5 1.5zm-21.5-23h52v52h-52v-52z"/></defs><clipPath id="bb"><use xlink:href="#ba" overflow="visible"/></clipPath><g clip-path="url(#bb)"><defs><path id="bc" d="M1051.5-393.8h9v9h-9z"/></defs><clipPath id="bd"><use xlink:href="#bc" overflow="visible"/></clipPath><g clip-path="url(#bd)"><defs><path id="be" d="M92.5-947.8h1121v1030H92.5z"/></defs></g></g></g><g><defs><path id="bf" d="M1051.5-393.8h9v9h-9z"/></defs><clipPath id="bg"><use xlink:href="#bf" overflow="visible"/></clipPath><g clip-path="url(#bg)"><defs><path id="bh" d="M92.5-947.8h1121v1030H92.5z"/></defs></g></g><path fill="#FFF" stroke="#091F2F" stroke-width="3" stroke-miterlimit="10" d="M94.2 79.8h50.9v5.9H94.2zM94.2 86.2h50.9v32.1H94.2z"/><g fill="#231F20"><path d="M106.7 106.4l-3.2-8.2h2.2l2.1 6 2.1-6h2.1l-3.2 8.2h-2.1zM121.2 102.3c0 2.4-1.9 4.2-4.4 4.2-2.5 0-4.4-1.8-4.4-4.2 0-2.4 1.9-4.1 4.4-4.1 2.5 0 4.4 1.8 4.4 4.1zm-6.7 0c0 1.4 1.1 2.4 2.3 2.4 1.3 0 2.3-1.1 2.3-2.4 0-1.4-1-2.4-2.3-2.4-1.3 0-2.3 1.1-2.3 2.4zM125.8 99.9v6.5h-2.1v-6.5h-2.4v-1.7h7v1.7h-2.5zM131.2 99.9v1.6h3.9v1.6h-3.9v1.6h4.4v1.6h-6.5v-8.2h6.4v1.6h-4.3z"/></g></svg>