<svg id="Layer_1" data-name="Layer 1" xmlns="http://www.w3.org/2000/svg" viewBox="0 0 276 137"><defs><style>.cls-1,.cls-2,.cls-3{fill:none}.cls-1{clip-rule:evenodd}.cls-3{fill-rule:evenodd}.cls-4{clip-path:url(#clip-path)}.cls-5{clip-path:url(#clip-path-2)}.cls-6{clip-path:url(#clip-path-4)}.cls-7{clip-path:url(#clip-path-5)}.cls-8{clip-path:url(#clip-path-7)}.cls-9{clip-path:url(#clip-path-8)}.cls-10{clip-path:url(#clip-path-10)}.cls-11{clip-path:url(#clip-path-11)}.cls-12{clip-path:url(#clip-path-13)}.cls-13{clip-path:url(#clip-path-14)}.cls-14{clip-path:url(#clip-path-15)}.cls-15{fill:#fff;stroke:#0c1f2e;stroke-miterlimit:10;stroke-width:3px}.cls-16{clip-path:url(#clip-path-17)}.cls-17{clip-path:url(#clip-path-18)}</style><clipPath id="clip-path"><path class="cls-1" d="M-347.77 195.13h-1.5v38h142V208l-.41-.43-11.44-12-.44-.46h-128.2zm0 3h127.56l-1.09-.46 11.44 12-.41-1v23l1.5-1.5h-139l1.5 1.5v-35zm-21.5-23h182v78h-182z"/></clipPath><clipPath id="clip-path-2"><path class="cls-1" d="M-347.77 196.63h127.56l11.44 12v23h-139v-35z"/></clipPath><clipPath id="clip-path-4"><path class="cls-1" d="M-314.77 246.55a14.5 14.5 0 0 1-14.5-14.5 14.5 14.5 0 0 1 14.5-14.5 14.5 14.5 0 0 1 14.5 14.5 14.5 14.5 0 0 1-14.5 14.5zm0 3a17.5 17.5 0 0 0 17.5-17.5 17.5 17.5 0 0 0-17.5-17.5 17.5 17.5 0 0 0-17.5 17.5 17.5 17.5 0 0 0 17.5 17.5zm-37.5-55h75v75h-75z"/></clipPath><clipPath id="clip-path-5"><circle class="cls-2" cx="-314.77" cy="232.05" r="16"/></clipPath><clipPath id="clip-path-7"><path class="cls-1" d="M-314.77 239.55a7.5 7.5 0 0 1-7.5-7.5 7.5 7.5 0 0 1 7.5-7.5 7.5 7.5 0 0 1 7.5 7.5 7.5 7.5 0 0 1-7.5 7.5zm0 3a10.5 10.5 0 0 0 10.5-10.5 10.5 10.5 0 0 0-10.5-10.5 10.5 10.5 0 0 0-10.5 10.5 10.5 10.5 0 0 0 10.5 10.5zm-30.5-41h61v61h-61z"/></clipPath><clipPath id="clip-path-8"><circle class="cls-2" cx="-314.77" cy="232.05" r="9"/></clipPath><clipPath id="clip-path-10"><path class="cls-1" d="M-248.54 246.55a14.5 14.5 0 0 1-14.5-14.5 14.5 14.5 0 0 1 14.5-14.5 14.5 14.5 0 0 1 14.5 14.5 14.5 14.5 0 0 1-14.5 14.5zm0 3a17.5 17.5 0 0 0 17.5-17.5 17.5 17.5 0 0 0-17.5-17.5 17.5 17.5 0 0 0-17.5 17.5 17.5 17.5 0 0 0 17.5 17.5zm-37.5-55h75v75h-75z"/></clipPath><clipPath id="clip-path-11"><circle class="cls-2" cx="-248.54" cy="232.05" r="16"/></clipPath><clipPath id="clip-path-13"><path class="cls-1" d="M-248.31 191.72l-7.69-15.57h-27.17v15.57zm-75.16 0l7.38-15.55h27.17v15.53zm-10.3 5.35l14.14-26.89h66.84l15.35 27.82z"/></clipPath><clipPath id="clip-path-14"><path class="cls-1" d="M-248.54 239.55a7.5 7.5 0 0 1-7.5-7.5 7.5 7.5 0 0 1 7.5-7.5 7.5 7.5 0 0 1 7.5 7.5 7.5 7.5 0 0 1-7.5 7.5zm0 3a10.5 10.5 0 0 0 10.5-10.5 10.5 10.5 0 0 0-10.5-10.5 10.5 10.5 0 0 0-10.5 10.5 10.5 10.5 0 0 0 10.5 10.5zm-30.5-41h61v61h-61z"/></clipPath><clipPath id="clip-path-15"><circle class="cls-2" cx="-248.54" cy="232.05" r="9"/></clipPath><clipPath id="clip-path-17"><circle class="cls-2" cx="150.3" cy="545.62" r="50.5"/></clipPath><clipPath id="clip-path-18"><circle class="cls-2" cx="150.3" cy="545.62" r="43.5"/></clipPath></defs><title>EXPERIENTIAL ICONS</title><circle class="cls-15" cx="163.85" cy="69.65" r="6.65"/><path class="cls-15" d="M176.77 86.92v20.38h-25.84V86.92l7.22-5.47h11.41l7.21 5.47z"/><circle class="cls-15" cx="138" cy="76.2" r="6.65"/><path class="cls-15" d="M150.92 93.47v20.37h-25.84V93.47l7.21-5.47h11.42l7.21 5.47z"/><circle class="cls-15" cx="112.15" cy="69.65" r="6.65"/><path class="cls-15" d="M125.07 86.92v20.38H99.23V86.92l7.21-5.47h11.42l7.21 5.47zM171.5 23.16v20.56h-8.85l-4.22 8.2-3.73-8.2h-12.37l-4.23 8.2-3.72-8.2H122l-4.22 8.2-3.73-8.2h-8.87V23.16h66.32z"/></svg>