<svg id="Layer_1" data-name="Layer 1" xmlns="http://www.w3.org/2000/svg" viewBox="0 0 276 137"><defs><style>.cls-1,.cls-10,.cls-9{fill:none}.cls-2,.cls-5,.cls-6,.cls-8{fill:#fff}.cls-10,.cls-2,.cls-9{stroke:#0e1f2d;stroke-width:1.88px}.cls-10,.cls-2,.cls-5,.cls-9{stroke-miterlimit:10}.cls-2{clip-rule:evenodd}.cls-5{stroke:#0c1f2e;stroke-width:3px}.cls-10,.cls-6{fill-rule:evenodd}.cls-7{clip-path:url(#clip-path-3)}</style><clipPath id="clip-path"><circle class="cls-1" cx="-755.22" cy="-246.5" r="50.5"/></clipPath><clipPath id="clip-path-2"><circle class="cls-1" cx="-755.22" cy="-246.5" r="43.5"/></clipPath><clipPath id="clip-path-3"><path class="cls-2" d="M-202.67 207.79h65.16l5.85 5.75v11.01h-71.01v-16.76z"/></clipPath></defs><circle class="cls-5" cx="163.85" cy="69.65" r="6.65"/><path class="cls-5" d="M176.77 86.92v20.38h-25.84V86.92l7.22-5.47h11.41l7.21 5.47z"/><circle class="cls-5" cx="138" cy="76.2" r="6.65"/><path class="cls-5" d="M150.92 93.47v20.37h-25.84V93.47l7.21-5.47h11.42l7.21 5.47z"/><circle class="cls-5" cx="112.15" cy="69.65" r="6.65"/><path class="cls-5" d="M125.07 86.92v20.38H99.23V86.92l7.21-5.47h11.42l7.21 5.47zm46.43-63.76v20.56h-8.85l-4.22 8.2-3.73-8.2h-12.37l-4.23 8.2-3.72-8.2H122l-4.22 8.2-3.73-8.2h-8.87V23.16h66.32z"/><path class="cls-6" d="M-202.67 207.79h65.16l5.85 5.75v11.01h-71.01v-16.76z"/><g class="cls-7"><path class="cls-8" d="M-392.69-48.45h572.62v493.32h-572.62z"/><path class="cls-9" d="M-392.69-48.45h572.62v493.32h-572.62z"/></g><path class="cls-10" d="M-202.67 207.79h65.16l5.85 5.75v11.01h-71.01v-16.76z"/></svg>