<svg id="Layer_1" data-name="Layer 1" xmlns="http://www.w3.org/2000/svg" viewBox="0 0 276 137"><defs><style>.cls-1,.cls-3,.cls-4,.cls-6,.cls-8{fill:#fff}.cls-1,.cls-10,.cls-9{stroke:#0e1f2d}.cls-1,.cls-10,.cls-3,.cls-4,.cls-9{stroke-miterlimit:10;stroke-width:3px}.cls-1{clip-rule:evenodd}.cls-10,.cls-2,.cls-9{fill:none}.cls-3{stroke:#091f2f}.cls-4{stroke:#0c1f2e;stroke-linecap:round}.cls-5{font-size:29.05px;fill:#0e1f2d;font-family:Montserrat-Bold,Montserrat;font-weight:700}.cls-10,.cls-6{fill-rule:evenodd}.cls-7{clip-path:url(#clip-path)}</style><clipPath id="clip-path"><path class="cls-1" d="M-228.77 545.73h109.47l9.82 9.65v18.51h-119.29v-28.16z"/></clipPath><clipPath id="clip-path-2"><circle class="cls-2" cx="-737.7" cy="702.62" r="50.5"/></clipPath><clipPath id="clip-path-3"><circle class="cls-2" cx="-737.7" cy="702.62" r="43.5"/></clipPath></defs><path class="cls-3" d="M154.67 64.93V32.76h-33.03v-5.52h-11.03v5.52h-9.03v79.99h76.19V64.93h-23.1z"/><path class="cls-3" d="M110.61 92.75h11.03v11.03h-11.03zm24.48 0h11.03v11.03h-11.03zm24.48 0h11.03v11.03h-11.03zm-48.96-16.67h11.03v11.03h-11.03zm24.48 0h11.03v11.03h-11.03zm24.48 0h11.03v11.03h-11.03zm-48.96-16.66h11.03v11.03h-11.03zm24.48 0h11.03v11.03h-11.03zm-24.48-16.67h11.03v11.03h-11.03zm24.48 0h11.03v11.03h-11.03z"/><circle class="cls-4" cx="177.77" cy="93.36" r="20.36"/><text class="cls-5" transform="translate(173.86 103.02)">!</text><path class="cls-6" d="M-228.77 545.73h109.47l9.82 9.65v18.51h-119.29v-28.16z"/><g class="cls-7"><path class="cls-8" d="M-548.03 115.22h962.06v828.83h-962.06z"/><path class="cls-9" d="M-548.03 115.22h962.06v828.83h-962.06z"/></g><path class="cls-10" d="M-228.77 545.73h109.47l9.82 9.65v18.51h-119.29v-28.16z"/></svg>