<svg id="Layer_1" data-name="Layer 1" xmlns="http://www.w3.org/2000/svg" viewBox="0 0 276 137"><defs><style>.cls-1,.cls-2,.cls-8{fill:none}.cls-2{clip-rule:evenodd}.cls-7,.cls-9{fill:#fff}.cls-7,.cls-8{stroke:#0e1f2d;stroke-linecap:round;stroke-miterlimit:10;stroke-width:3px}.cls-10{fill:#0c1f2e}.cls-11{fill:#091f2f}</style><clipPath id="clip-path"><circle class="cls-1" cx="138" cy="-246.73" r="50.5"/></clipPath><clipPath id="clip-path-2"><circle class="cls-1" cx="138" cy="-246.73" r="43.5"/></clipPath><clipPath id="clip-path-3"><circle class="cls-1" cx="433.48" cy="70.59" r="50.5"/></clipPath><clipPath id="clip-path-4"><circle class="cls-1" cx="433.48" cy="70.59" r="43.5"/></clipPath><clipPath id="clip-path-5"><path class="cls-2" d="M692.69 416.58a29.08 29.08 0 1 1 29.08-29.08 29.08 29.08 0 0 1-29.08 29.08zm0 2.24a31.32 31.32 0 1 0-31.32-31.32 31.32 31.32 0 0 0 31.32 31.32zm-46.25-77.57h92.5v92.5h-92.5z"/></clipPath><clipPath id="clip-path-6"><circle class="cls-1" cx="692.69" cy="387.5" r="30.2"/></clipPath><clipPath id="clip-path-8"><path class="cls-2" d="M775.23 416.58a29.08 29.08 0 1 1 29.07-29.08 29.08 29.08 0 0 1-29.07 29.08zm0 2.24a31.32 31.32 0 1 0-31.32-31.32 31.32 31.32 0 0 0 31.32 31.32zM729 341.25h92.5v92.5H729z"/></clipPath><clipPath id="clip-path-9"><circle class="cls-1" cx="775.23" cy="387.5" r="30.2"/></clipPath><clipPath id="clip-path-11"><circle class="cls-1" cx="432.82" cy="700.42" r="50.5"/></clipPath><clipPath id="clip-path-12"><circle class="cls-1" cx="432.82" cy="700.42" r="43.5"/></clipPath><clipPath id="clip-path-13"><circle class="cls-1" cx="428.14" cy="857.9" r="50.5"/></clipPath><clipPath id="clip-path-14"><circle class="cls-1" cx="428.14" cy="857.9" r="43.5"/></clipPath></defs><path class="cls-7" d="M186 106.59l-22.3 6.77-27.07-6.77-24.45 7.53-24.66-7.53V32.52l24.66 7.53 24.58-7.53 26.94 6.78 22.3-6.78v74.07z"/><path class="cls-8" d="M111.92 40.05v63.69m0-4.95v15.61m51.27-19.69v18.05m0-73.51v53.58m-25.93-.02v13.98m0-73.31v13.98"/><circle class="cls-9" cx="137.56" cy="69.99" r="16.83"/><path class="cls-10" d="M137.56 88.25A18.25 18.25 0 1 1 155.81 70a18.27 18.27 0 0 1-18.25 18.25zm0-33.66A15.41 15.41 0 1 0 153 70a15.42 15.42 0 0 0-15.44-15.41z"/><path class="cls-11" d="M136.28 57.11h2.1V71.3h-2.1z"/><path class="cls-11" d="M133.13 76.15l4.33 2.56 4.34-2.56v-5.9h-8.67v5.9zm-8.42 6.17l12.75 1.07-3.02-4.73h-9.73v3.66zm12.75 1.07l12.75-1.25.83-3.48h-10.82l-2.76 4.73z"/><path class="cls-11" d="M124.71 80.87l12.75 2.52 11-1.9-.75 1.9s-2.52 2-2.69 2-6.51 1.48-7 1.48h-5.52l-3.85-2.19L125.6 82z"/></svg>