<svg id="Layer_1" data-name="Layer 1" xmlns="http://www.w3.org/2000/svg" viewBox="0 0 276 137"><defs><style>.cls-1,.cls-2,.cls-3,.cls-9{fill:none}.cls-2{clip-rule:evenodd}.cls-3{fill-rule:evenodd}.cls-4{clip-path:url(#clip-path)}.cls-5{clip-path:url(#clip-path-2)}.cls-40,.cls-6{fill:#fff}.cls-7{clip-path:url(#clip-path-3)}.cls-8{clip-path:url(#clip-path-4)}.cls-9{stroke:#0f1f2d;stroke-width:6px}.cls-40,.cls-9{stroke-linecap:round;stroke-miterlimit:10}.cls-10{clip-path:url(#clip-path-5)}.cls-11{clip-path:url(#clip-path-7)}.cls-12{clip-path:url(#clip-path-8)}.cls-13{clip-path:url(#clip-path-10)}.cls-14{clip-path:url(#clip-path-11)}.cls-15{clip-path:url(#clip-path-13)}.cls-16{clip-path:url(#clip-path-14)}.cls-17{clip-path:url(#clip-path-16)}.cls-18{clip-path:url(#clip-path-17)}.cls-19{clip-path:url(#clip-path-19)}.cls-20{clip-path:url(#clip-path-20)}.cls-21{clip-path:url(#clip-path-22)}.cls-22{clip-path:url(#clip-path-23)}.cls-23{clip-path:url(#clip-path-25)}.cls-24{clip-path:url(#clip-path-26)}.cls-25{clip-path:url(#clip-path-28)}.cls-26{clip-path:url(#clip-path-29)}.cls-27{clip-path:url(#clip-path-31)}.cls-28{clip-path:url(#clip-path-32)}.cls-29{clip-path:url(#clip-path-34)}.cls-30{clip-path:url(#clip-path-35)}.cls-31{clip-path:url(#clip-path-37)}.cls-32{clip-path:url(#clip-path-38)}.cls-33{clip-path:url(#clip-path-40)}.cls-34{clip-path:url(#clip-path-41)}.cls-35{clip-path:url(#clip-path-43)}.cls-36{clip-path:url(#clip-path-44)}.cls-37{clip-path:url(#clip-path-46)}.cls-38{clip-path:url(#clip-path-47)}.cls-39{fill:#091f2f}.cls-40{stroke:#0c1f2e;stroke-width:3px}</style><clipPath id="clip-path"><circle class="cls-1" cx="-158" cy="67.5" r="50.5"/></clipPath><clipPath id="clip-path-2"><circle class="cls-1" cx="-158" cy="67.5" r="43.5"/></clipPath><clipPath id="clip-path-3"><circle class="cls-1" cx="132.78" cy="67.5" r="50.5"/></clipPath><clipPath id="clip-path-4"><path class="cls-1" d="M-41.72-668.5h1121v1030h-1121z"/></clipPath><clipPath id="clip-path-5"><circle class="cls-1" cx="132.78" cy="67.5" r="43.5"/></clipPath><clipPath id="clip-path-7"><path class="cls-2" d="M87.67 343.49h-1.5v84h108v-84H87.67zm0 3h105l-1.5-1.5v81l1.5-1.5h-105l1.5 1.5V345zm-21.5-23h148v124h-148z"/></clipPath><clipPath id="clip-path-8"><path class="cls-1" d="M87.67 344.99h105v81h-105z"/></clipPath><clipPath id="clip-path-10"><path class="cls-2" d="M81.67 360.49h-2.24l.85-2.07 9.07-22 .38-.93H190.6l.38.93 9.07 22 .85 2.07H81.67zm0-3h117l-1.39 2.07-9.07-22 1.39.93H90.74l1.39-.93-9.07 22zm-22.24 23h161.48v-65H59.43z"/></clipPath><clipPath id="clip-path-11"><path class="cls-2" d="M81.67 358.99h117l-9.07-22H90.74l-9.07 22z"/></clipPath><clipPath id="clip-path-13"><path class="cls-2" d="M166.67 327.49h-1.5v19h15v-19h-13.5zm0 3h12l-1.5-1.5v16l1.5-1.5h-12l1.5 1.5V329zm-21.5-23h55v59h-55z"/></clipPath><clipPath id="clip-path-14"><path class="cls-1" d="M166.67 328.99h12v16h-12z"/></clipPath><clipPath id="clip-path-16"><path class="cls-2" d="M100.67 393.49h-1.5v34h24v-34h-22.5zm0 3h21l-1.5-1.5v31l1.5-1.5h-21l1.5 1.5V395zm-21.5-23h64v74h-64z"/></clipPath><clipPath id="clip-path-17"><path class="cls-1" d="M100.67 394.99h21v31h-21z"/></clipPath><clipPath id="clip-path-19"><path class="cls-2" d="M101.67 365.49h-1.5v22h22v-22h-20.5zm0 3h19l-1.5-1.5v19l1.5-1.5h-19l1.5 1.5V367zm-21.5-23h62v62h-62z"/></clipPath><clipPath id="clip-path-20"><path class="cls-1" d="M101.67 366.99h19v19h-19z"/></clipPath><clipPath id="clip-path-22"><path class="cls-2" d="M106.67 370.49h-1.5v12h12v-12h-10.5zm0 3h9l-1.5-1.5v9l1.5-1.5h-9l1.5 1.5v-9zm-21.5-23h52v52h-52z"/></clipPath><clipPath id="clip-path-23"><path class="cls-1" d="M106.67 371.99h9v9h-9z"/></clipPath><clipPath id="clip-path-25"><path class="cls-2" d="M131.67 365.49h-1.5v22h22v-22h-20.5zm0 3h19l-1.5-1.5v19l1.5-1.5h-19l1.5 1.5V367zm-21.5-23h62v62h-62z"/></clipPath><clipPath id="clip-path-26"><path class="cls-1" d="M131.67 366.99h19v19h-19z"/></clipPath><clipPath id="clip-path-28"><path class="cls-2" d="M160.67 365.49h-1.5v22h22v-22h-20.5zm0 3h19l-1.5-1.5v19l1.5-1.5h-19l1.5 1.5V367zm-21.5-23h62v62h-62z"/></clipPath><clipPath id="clip-path-29"><path class="cls-1" d="M160.67 366.99h19v19h-19z"/></clipPath><clipPath id="clip-path-31"><path class="cls-2" d="M131.67 393.49h-1.5v22h22v-22h-20.5zm0 3h19l-1.5-1.5v19l1.5-1.5h-19l1.5 1.5V395zm-21.5-23h62v62h-62z"/></clipPath><clipPath id="clip-path-32"><path class="cls-1" d="M131.67 394.99h19v19h-19z"/></clipPath><clipPath id="clip-path-34"><path class="cls-2" d="M160.67 393.49h-1.5v22h22v-22h-20.5zm0 3h19l-1.5-1.5v19l1.5-1.5h-19l1.5 1.5V395zm-21.5-23h62v62h-62z"/></clipPath><clipPath id="clip-path-35"><path class="cls-1" d="M160.67 394.99h19v19h-19z"/></clipPath><clipPath id="clip-path-37"><path class="cls-2" d="M136.67 370.49h-1.5v12h12v-12h-10.5zm0 3h9l-1.5-1.5v9l1.5-1.5h-9l1.5 1.5v-9zm-21.5-23h52v52h-52z"/></clipPath><clipPath id="clip-path-38"><path class="cls-1" d="M136.67 371.99h9v9h-9z"/></clipPath><clipPath id="clip-path-40"><path class="cls-2" d="M165.67 370.49h-1.5v12h12v-12h-10.5zm0 3h9l-1.5-1.5v9l1.5-1.5h-9l1.5 1.5v-9zm-21.5-23h52v52h-52z"/></clipPath><clipPath id="clip-path-41"><path class="cls-1" d="M165.67 371.99h9v9h-9z"/></clipPath><clipPath id="clip-path-43"><path class="cls-2" d="M136.67 398.49h-1.5v12h12v-12h-10.5zm0 3h9l-1.5-1.5v9l1.5-1.5h-9l1.5 1.5v-9zm-21.5-23h52v52h-52z"/></clipPath><clipPath id="clip-path-44"><path class="cls-1" d="M136.67 399.99h9v9h-9z"/></clipPath><clipPath id="clip-path-46"><path class="cls-2" d="M165.67 398.49h-1.5v12h12v-12h-10.5zm0 3h9l-1.5-1.5v9l1.5-1.5h-9l1.5 1.5v-9zm-21.5-23h52v52h-52z"/></clipPath><clipPath id="clip-path-47"><path class="cls-1" d="M165.67 399.99h9v9h-9z"/></clipPath></defs><title>EXPERIENTIAL ICONS</title><circle class="cls-6" cx="133.15" cy="67.64" r="48.55" transform="rotate(-45 133.147 67.639)"/><g class="cls-7"><g class="cls-8"><circle class="cls-9" cx="132.78" cy="67.5" r="50.5"/></g></g><g class="cls-10"><g class="cls-8"><circle class="cls-9" cx="132.78" cy="67.5" r="43.5"/></g></g><path class="cls-39" d="M141.93 46.28A11.68 11.68 0 0 0 157 63.64c-10.38-3.8-14-13.64-15.07-17.36zM160.26 60.76a11.68 11.68 0 0 0-14.75-17.44c.72 2.92 4 13.52 14.75 17.44z"/><path class="cls-39" d="M112 88.56h-.41a7.85 7.85 0 0 1-5.43-2.37 7.64 7.64 0 0 1-1.58-6.25l.08-.61 32.22-25.7.41 2.54a13.43 13.43 0 0 0 8.29 9.54l2.79 1.13zm-4.5-7.66a4.44 4.44 0 0 0 .9 3.3 4.57 4.57 0 0 0 2.82 1.33l30.67-18.32A16.49 16.49 0 0 1 135 59z"/><path class="cls-39" d="M132.78 107.61h-3v-29.7l-3.03 1.82v26.38h-3V78.02l9.03-5.4v34.99z"/><circle class="cls-40" cx="168.22" cy="96.86" r="18.32" transform="rotate(-80.49 168.218 96.856)"/><path class="cls-39" d="M173.58 90L170 86.92V90h3.58z"/><path class="cls-39" d="M169 91v.1V87h-6v14h11V91h-5zM173.39 102.16h.35v2.12h-.35zM174.33 102.16h.35v2.12h-.35zM175.14 102.16h.86a1.06 1.06 0 0 1 1.06 1.06 1.06 1.06 0 0 1-1.06 1.06h-.82v-2.12h-.04zM160.6 102.23l-1.69.92 1.69 1.05v-1.97zM161 102h12v2h-12z"/></svg>