<svg id="Layer_1" data-name="Layer 1" xmlns="http://www.w3.org/2000/svg" viewBox="0 0 276 137"><defs><style>.cls-1{fill:none}.cls-2{clip-path:url(#clip-path)}.cls-3{clip-path:url(#clip-path-2)}.cls-4{fill:#fb4d42}</style><clipPath id="clip-path"><circle class="cls-1" cx="-755.22" cy="-246.5" r="50.5"/></clipPath><clipPath id="clip-path-2"><circle class="cls-1" cx="-755.22" cy="-246.5" r="43.5"/></clipPath></defs><title>EXPERIENTIAL ICONS</title><path class="cls-4" d="M90.49 114a13.34 13.34 0 0 1-13-13.27v-1.5H89V23.21h111.15L200 101.1a13.08 13.08 0 0 1-13.26 12.9zm-9.88-11.77a10.32 10.32 0 0 0 9.91 8.77h87.63a12.89 12.89 0 0 1-4.57-8.69zm11.38-3h84.51v1.5A9.88 9.88 0 0 0 186.74 111a10.07 10.07 0 0 0 10.26-9.9l.16-74.89H92z"/><path class="cls-4" d="M138.98 37.15h47v3h-47zM138.98 49.15h47v3h-47zM138.98 61.15h47v3h-47zM138.98 73.15h47v3h-47zM138.98 85.15h47v3h-47z"/><path class="cls-4" transform="rotate(45 113.252 56.1)" d="M112.14 48.21h2.2v15.77h-2.2z"/><path class="cls-4" transform="rotate(-45 119.927 48.785)" d="M117.32 44.42h5.21v8.73h-5.21z"/><path class="cls-4" transform="rotate(-45 116.164 44.963)" d="M113.56 44.34h5.21v1.24h-5.21z"/><path class="cls-4" transform="rotate(-45 123.693 52.565)" d="M121.09 51.95h5.21v1.24h-5.21z"/><path class="cls-4" d="M115 70.83a17.17 17.17 0 1 1 17.17-17.17A17.19 17.19 0 0 1 115 70.83zm0-31.33a14.17 14.17 0 1 0 14.17 14.17A14.18 14.18 0 0 0 115 39.5z"/></svg>