<svg xmlns="http://www.w3.org/2000/svg" xmlns:xlink="http://www.w3.org/1999/xlink" viewBox="0 0 276 137"><defs><circle id="a" cx="132.1" cy="227.5" r="43.5"/></defs><defs><path id="b" d="M132.1 272.5c-24.8 0-45-20.2-45-45s20.2-45 45-45 45 20.2 45 45-20.1 45-45 45zm0-87c-23.2 0-42 18.8-42 42s18.8 42 42 42 42-18.8 42-42-18.8-42-42-42z"/></defs><use xlink:href="#a" overflow="visible" fill-rule="evenodd" clip-rule="evenodd" fill="#FFF"/><use xlink:href="#b" overflow="visible" fill="#0F1F2D"/><clipPath id="c"><use xlink:href="#a" overflow="visible"/></clipPath><clipPath id="d" clip-path="url(#c)"><use xlink:href="#b" overflow="visible"/></clipPath><g clip-path="url(#d)"><defs><path id="e" d="M-42.4-508.5h1121v1030h-1121z"/></defs><defs><path id="f" d="M1080.1 523h-1124V-510h1124V523zm-1121-3h1118V-507h-1118V520z"/></defs><use xlink:href="#e" overflow="visible" fill="#FFF"/><use xlink:href="#f" overflow="visible" fill="#0F1F2D"/><clipPath id="g"><use xlink:href="#e" overflow="visible"/></clipPath></g><defs><path id="h" d="M367.2 64.5h-1.5v38h142V77.4l-.4-.4-11.4-12-.4-.5H367.2zm0 3h127.6l-1.1-.5 11.4 12-.4-1v23l1.5-1.5h-139l1.5 1.5V66l-1.5 1.5zm-21.5-23h182v78h-182v-78z"/></defs><clipPath id="i"><use xlink:href="#h" overflow="visible"/></clipPath><g clip-path="url(#i)"><defs><path id="j" d="M367.2 66h127.6l11.4 12v23h-139z"/></defs><clipPath id="k"><use xlink:href="#j" overflow="visible"/></clipPath><g clip-path="url(#k)"><defs><path id="l" d="M-4.8-469h1121V561H-4.8z"/></defs></g></g><defs><path id="m" d="M367.2 66h127.6l11.4 12v23h-139z"/></defs><clipPath id="n"><use xlink:href="#m" overflow="visible"/></clipPath><g clip-path="url(#n)"><defs><path id="o" d="M-4.8-469h1121V561H-4.8z"/></defs></g><defs><path id="p" d="M400.2 115.9c-8 0-14.5-6.5-14.5-14.5s6.5-14.5 14.5-14.5 14.5 6.5 14.5 14.5-6.4 14.5-14.5 14.5zm0 3c9.7 0 17.5-7.8 17.5-17.5s-7.8-17.5-17.5-17.5-17.5 7.8-17.5 17.5c0 9.6 7.9 17.5 17.5 17.5zm-37.5-55h75v75h-75v-75z"/></defs><clipPath id="q"><use xlink:href="#p" overflow="visible"/></clipPath><g clip-path="url(#q)"><defs><circle id="r" cx="400.2" cy="101.4" r="16"/></defs><clipPath id="s"><use xlink:href="#r" overflow="visible"/></clipPath><g clip-path="url(#s)"><defs><path id="t" d="M-4.8-469h1121V561H-4.8z"/></defs></g></g><defs><circle id="u" cx="400.2" cy="101.4" r="16"/></defs><clipPath id="v"><use xlink:href="#u" overflow="visible"/></clipPath><g clip-path="url(#v)"><defs><path id="w" d="M-4.8-469h1121V561H-4.8z"/></defs></g><defs><path id="x" d="M400.2 108.9c-4.1 0-7.5-3.4-7.5-7.5s3.4-7.5 7.5-7.5 7.5 3.4 7.5 7.5-3.3 7.5-7.5 7.5zm0 3c5.8 0 10.5-4.7 10.5-10.5s-4.7-10.5-10.5-10.5-10.5 4.7-10.5 10.5 4.7 10.5 10.5 10.5zm-30.5-41h61v61h-61v-61z"/></defs><clipPath id="y"><use xlink:href="#x" overflow="visible"/></clipPath><g clip-path="url(#y)"><defs><circle id="z" cx="400.2" cy="101.4" r="9"/></defs><clipPath id="A"><use xlink:href="#z" overflow="visible"/></clipPath><g clip-path="url(#A)"><defs><path id="B" d="M-4.8-469h1121V561H-4.8z"/></defs></g></g><defs><circle id="C" cx="400.2" cy="101.4" r="9"/></defs><clipPath id="D"><use xlink:href="#C" overflow="visible"/></clipPath><g clip-path="url(#D)"><defs><path id="E" d="M-4.8-469h1121V561H-4.8z"/></defs></g><defs><path id="F" d="M466.5 115.9c-8 0-14.5-6.5-14.5-14.5s6.5-14.5 14.5-14.5 14.5 6.5 14.5 14.5-6.5 14.5-14.5 14.5zm0 3c9.7 0 17.5-7.8 17.5-17.5s-7.8-17.5-17.5-17.5-17.5 7.8-17.5 17.5c0 9.6 7.8 17.5 17.5 17.5zm-37.5-55h75v75h-75v-75z"/></defs><clipPath id="G"><use xlink:href="#F" overflow="visible"/></clipPath><g clip-path="url(#G)"><defs><circle id="H" cx="466.5" cy="101.4" r="16"/></defs><clipPath id="I"><use xlink:href="#H" overflow="visible"/></clipPath><g clip-path="url(#I)"><defs><path id="J" d="M-4.8-469h1121V561H-4.8z"/></defs></g></g><defs><circle id="K" cx="466.5" cy="101.4" r="16"/></defs><clipPath id="L"><use xlink:href="#K" overflow="visible"/></clipPath><g clip-path="url(#L)"><defs><path id="M" d="M-4.8-469h1121V561H-4.8z"/></defs></g><defs><path id="N" d="M466.7 61L459 45.4h-27.2V61h34.9zm-75.2 0l7.4-15.6h27.2V61h-34.6zm-10.3 5.4l14.1-26.9h66.8l15.3 27.9-96.2-1z"/></defs><clipPath id="O"><use xlink:href="#N" overflow="visible"/></clipPath><g clip-path="url(#O)"><defs><path id="P" d="M-4.8-469h1121V561H-4.8z"/></defs></g><defs><path id="Q" d="M466.5 108.9c-4.1 0-7.5-3.4-7.5-7.5s3.4-7.5 7.5-7.5 7.5 3.4 7.5 7.5-3.4 7.5-7.5 7.5zm0 3c5.8 0 10.5-4.7 10.5-10.5s-4.7-10.5-10.5-10.5-10.5 4.7-10.5 10.5 4.7 10.5 10.5 10.5zm-30.5-41h61v61h-61v-61z"/></defs><clipPath id="R"><use xlink:href="#Q" overflow="visible"/></clipPath><g clip-path="url(#R)"><defs><circle id="S" cx="466.5" cy="101.4" r="9"/></defs><clipPath id="T"><use xlink:href="#S" overflow="visible"/></clipPath><g clip-path="url(#T)"><defs><path id="U" d="M-4.8-469h1121V561H-4.8z"/></defs></g></g><defs><circle id="V" cx="466.5" cy="101.4" r="9"/></defs><clipPath id="W"><use xlink:href="#V" overflow="visible"/></clipPath><g clip-path="url(#W)"><defs><path id="X" d="M-4.8-469h1121V561H-4.8z"/></defs></g><defs><path id="Y" d="M91.4 34.1h-1.5v84h108v-84H91.4zm0 3h105l-1.5-1.5v81l1.5-1.5h-105l1.5 1.5v-81l-1.5 1.5zm-21.5-23h148v124h-148v-124z"/></defs><clipPath id="Z"><use xlink:href="#Y" overflow="visible"/></clipPath><g clip-path="url(#Z)"><defs><path id="aa" d="M91.4 35.6h105v81h-105z"/></defs><clipPath id="ab"><use xlink:href="#aa" overflow="visible"/></clipPath><g clip-path="url(#ab)"><defs><path id="ac" d="M-789.6-463.4h1121v1030h-1121z"/></defs><clipPath id="ad"><use xlink:href="#ac" overflow="visible"/></clipPath><g clip-path="url(#ad)"><path fill-rule="evenodd" clip-rule="evenodd" fill="#FFF" d="M91.4 35.6h105v81h-105z"/></g></g></g><g><defs><path id="ae" d="M91.4 35.6h105v81h-105z"/></defs><clipPath id="af"><use xlink:href="#ae" overflow="visible"/></clipPath><g clip-path="url(#af)"><defs><path id="ag" d="M-789.6-463.4h1121v1030h-1121z"/></defs><clipPath id="ah"><use xlink:href="#ag" overflow="visible"/></clipPath><g clip-path="url(#ah)"><path fill="#0F1F2D" d="M199.4 119.6h-111v-87h111v87zm-105-6h99v-75h-99v75z"/></g></g></g><g><defs><path id="ai" d="M85.4 51.1h-2.2l.9-2.1 9.1-22 .4-.9h100.9l.4.9 9.1 22 .9 2.1H85.4zm0-3h117l-1.4 2.1-9.1-22 1.4.9H94.5l1.4-.9-9.1 22-1.4-2.1zm-22.3 23h161.5v-65H63.1v65z"/></defs><clipPath id="aj"><use xlink:href="#ai" overflow="visible"/></clipPath><g clip-path="url(#aj)"><defs><path id="ak" d="M85.4 49.6h117l-9.1-22H94.5z"/></defs><clipPath id="al"><use xlink:href="#ak" overflow="visible"/></clipPath><g clip-path="url(#al)"><defs><path id="am" d="M-789.6-463.4h1121v1030h-1121z"/></defs><clipPath id="an"><use xlink:href="#am" overflow="visible"/></clipPath><g clip-path="url(#an)"><path fill-rule="evenodd" clip-rule="evenodd" fill="#FFF" d="M85.4 49.6h117l-9.1-22H94.5z"/></g></g></g></g><g><defs><path id="ao" d="M85.4 49.6h117l-9.1-22H94.5z"/></defs><clipPath id="ap"><use xlink:href="#ao" overflow="visible"/></clipPath><g clip-path="url(#ap)"><defs><path id="aq" d="M-789.6-463.4h1121v1030h-1121z"/></defs><clipPath id="ar"><use xlink:href="#aq" overflow="visible"/></clipPath><g clip-path="url(#ar)"><path fill="#0F1F2D" d="M206.9 52.6h-126l11.5-28h102.9l11.6 28zm-117-6h108l-6.6-16H96.5l-6.6 16z"/></g></g></g><g><defs><path id="as" d="M170.4 18.1h-1.5v19h15v-19h-13.5zm0 3h12l-1.5-1.5v16l1.5-1.5h-12l1.5 1.5v-16l-1.5 1.5zm-21.5-23h55v59h-55v-59z"/></defs><clipPath id="at"><use xlink:href="#as" overflow="visible"/></clipPath><g clip-path="url(#at)"><defs><path id="au" d="M170.4 19.6h12v16h-12z"/></defs><clipPath id="av"><use xlink:href="#au" overflow="visible"/></clipPath><g clip-path="url(#av)"><defs><path id="aw" d="M-789.6-463.4h1121v1030h-1121z"/></defs><clipPath id="ax"><use xlink:href="#aw" overflow="visible"/></clipPath><g clip-path="url(#ax)"><path fill-rule="evenodd" clip-rule="evenodd" fill="#FFF" d="M170.4 19.6h12v16h-12z"/></g></g></g></g><g><defs><path id="ay" d="M170.4 19.6h12v16h-12z"/></defs><clipPath id="az"><use xlink:href="#ay" overflow="visible"/></clipPath><g clip-path="url(#az)"><defs><path id="aA" d="M-789.6-463.4h1121v1030h-1121z"/></defs><clipPath id="aB"><use xlink:href="#aA" overflow="visible"/></clipPath><g clip-path="url(#aB)"><path fill="#0F1F2D" d="M185.4 38.6h-18v-22h18v22zm-12-6h6v-10h-6v10z"/></g></g></g><g><defs><path id="aC" d="M104.4 84.1h-1.5v34h24v-34h-22.5zm0 3h21l-1.5-1.5v31l1.5-1.5h-21l1.5 1.5v-31l-1.5 1.5zm-21.5-23h64v74h-64v-74z"/></defs><clipPath id="aD"><use xlink:href="#aC" overflow="visible"/></clipPath><g clip-path="url(#aD)"><defs><path id="aE" d="M104.4 85.6h21v31h-21z"/></defs><clipPath id="aF"><use xlink:href="#aE" overflow="visible"/></clipPath><g clip-path="url(#aF)"><defs><path id="aG" d="M-789.6-463.4h1121v1030h-1121z"/></defs><clipPath id="aH"><use xlink:href="#aG" overflow="visible"/></clipPath><g clip-path="url(#aH)"><path fill-rule="evenodd" clip-rule="evenodd" fill="#FFF" d="M104.4 85.6h21v31h-21z"/></g></g></g></g><g><defs><path id="aI" d="M104.4 85.6h21v31h-21z"/></defs><clipPath id="aJ"><use xlink:href="#aI" overflow="visible"/></clipPath><g clip-path="url(#aJ)"><defs><path id="aK" d="M-789.6-463.4h1121v1030h-1121z"/></defs><clipPath id="aL"><use xlink:href="#aK" overflow="visible"/></clipPath><g clip-path="url(#aL)"><path fill="#0F1F2D" d="M128.4 119.6h-27v-37h27v37zm-21-6h15v-25h-15v25z"/></g></g></g><g><defs><path id="aM" d="M105.4 56.1h-1.5v22h22v-22h-20.5zm0 3h19l-1.5-1.5v19l1.5-1.5h-19l1.5 1.5v-19l-1.5 1.5zm-21.5-23h62v62h-62v-62z"/></defs><clipPath id="aN"><use xlink:href="#aM" overflow="visible"/></clipPath><g clip-path="url(#aN)"><defs><path id="aO" d="M105.4 57.6h19v19h-19z"/></defs><clipPath id="aP"><use xlink:href="#aO" overflow="visible"/></clipPath><g clip-path="url(#aP)"><defs><path id="aQ" d="M-789.6-463.4h1121v1030h-1121z"/></defs><clipPath id="aR"><use xlink:href="#aQ" overflow="visible"/></clipPath><g clip-path="url(#aR)"><path fill-rule="evenodd" clip-rule="evenodd" fill="#FFF" d="M105.4 57.6h19v19h-19z"/></g></g></g></g><g><defs><path id="aS" d="M105.4 57.6h19v19h-19z"/></defs><clipPath id="aT"><use xlink:href="#aS" overflow="visible"/></clipPath><g clip-path="url(#aT)"><defs><path id="aU" d="M-789.6-463.4h1121v1030h-1121z"/></defs><clipPath id="aV"><use xlink:href="#aU" overflow="visible"/></clipPath><g clip-path="url(#aV)"><path fill="#0F1F2D" d="M127.4 79.6h-25v-25h25v25zm-19-6h13v-13h-13v13z"/></g></g></g><g><defs><path id="aW" d="M110.4 61.1h-1.5v12h12v-12h-10.5zm0 3h9l-1.5-1.5v9l1.5-1.5h-9l1.5 1.5v-9l-1.5 1.5zm-21.5-23h52v52h-52v-52z"/></defs><clipPath id="aX"><use xlink:href="#aW" overflow="visible"/></clipPath><g clip-path="url(#aX)"><defs><path id="aY" d="M110.4 62.6h9v9h-9z"/></defs><clipPath id="aZ"><use xlink:href="#aY" overflow="visible"/></clipPath><g clip-path="url(#aZ)"><defs><path id="ba" d="M-789.6-463.4h1121v1030h-1121z"/></defs><clipPath id="bb"><use xlink:href="#ba" overflow="visible"/></clipPath><g clip-path="url(#bb)"><path fill-rule="evenodd" clip-rule="evenodd" fill="#FFF" d="M110.4 62.6h9v9h-9z"/></g></g></g></g><g><defs><path id="bc" d="M110.4 62.6h9v9h-9z"/></defs><clipPath id="bd"><use xlink:href="#bc" overflow="visible"/></clipPath><g clip-path="url(#bd)"><defs><path id="be" d="M-789.6-463.4h1121v1030h-1121z"/></defs><clipPath id="bf"><use xlink:href="#be" overflow="visible"/></clipPath><g clip-path="url(#bf)"><path fill="#0F1F2D" d="M122.4 74.6h-15v-15h15v15zm-9-6h3v-3h-3v3z"/></g></g></g><g><defs><path id="bg" d="M135.4 56.1h-1.5v22h22v-22h-20.5zm0 3h19l-1.5-1.5v19l1.5-1.5h-19l1.5 1.5v-19l-1.5 1.5zm-21.5-23h62v62h-62v-62z"/></defs><clipPath id="bh"><use xlink:href="#bg" overflow="visible"/></clipPath><g clip-path="url(#bh)"><defs><path id="bi" d="M135.4 57.6h19v19h-19z"/></defs><clipPath id="bj"><use xlink:href="#bi" overflow="visible"/></clipPath><g clip-path="url(#bj)"><defs><path id="bk" d="M-789.6-463.4h1121v1030h-1121z"/></defs><clipPath id="bl"><use xlink:href="#bk" overflow="visible"/></clipPath><g clip-path="url(#bl)"><path fill-rule="evenodd" clip-rule="evenodd" fill="#FFF" d="M135.4 57.6h19v19h-19z"/></g></g></g></g><g><defs><path id="bm" d="M135.4 57.6h19v19h-19z"/></defs><clipPath id="bn"><use xlink:href="#bm" overflow="visible"/></clipPath><g clip-path="url(#bn)"><defs><path id="bo" d="M-789.6-463.4h1121v1030h-1121z"/></defs><clipPath id="bp"><use xlink:href="#bo" overflow="visible"/></clipPath><g clip-path="url(#bp)"><path fill="#0F1F2D" d="M157.4 79.6h-25v-25h25v25zm-19-6h13v-13h-13v13z"/></g></g></g><g><defs><path id="bq" d="M164.4 56.1h-1.5v22h22v-22h-20.5zm0 3h19l-1.5-1.5v19l1.5-1.5h-19l1.5 1.5v-19l-1.5 1.5zm-21.5-23h62v62h-62v-62z"/></defs><clipPath id="br"><use xlink:href="#bq" overflow="visible"/></clipPath><g clip-path="url(#br)"><defs><path id="bs" d="M164.4 57.6h19v19h-19z"/></defs><clipPath id="bt"><use xlink:href="#bs" overflow="visible"/></clipPath><g clip-path="url(#bt)"><defs><path id="bu" d="M-789.6-463.4h1121v1030h-1121z"/></defs><clipPath id="bv"><use xlink:href="#bu" overflow="visible"/></clipPath><g clip-path="url(#bv)"><path fill-rule="evenodd" clip-rule="evenodd" fill="#FFF" d="M164.4 57.6h19v19h-19z"/></g></g></g></g><g><defs><path id="bw" d="M164.4 57.6h19v19h-19z"/></defs><clipPath id="bx"><use xlink:href="#bw" overflow="visible"/></clipPath><g clip-path="url(#bx)"><defs><path id="by" d="M-789.6-463.4h1121v1030h-1121z"/></defs><clipPath id="bz"><use xlink:href="#by" overflow="visible"/></clipPath><g clip-path="url(#bz)"><path fill="#0F1F2D" d="M186.4 79.6h-25v-25h25v25zm-19-6h13v-13h-13v13z"/></g></g></g><g><defs><path id="bA" d="M135.4 84.1h-1.5v22h22v-22h-20.5zm0 3h19l-1.5-1.5v19l1.5-1.5h-19l1.5 1.5v-19l-1.5 1.5zm-21.5-23h62v62h-62v-62z"/></defs><clipPath id="bB"><use xlink:href="#bA" overflow="visible"/></clipPath><g clip-path="url(#bB)"><defs><path id="bC" d="M135.4 85.6h19v19h-19z"/></defs><clipPath id="bD"><use xlink:href="#bC" overflow="visible"/></clipPath><g clip-path="url(#bD)"><defs><path id="bE" d="M-789.6-463.4h1121v1030h-1121z"/></defs><clipPath id="bF"><use xlink:href="#bE" overflow="visible"/></clipPath><g clip-path="url(#bF)"><path fill-rule="evenodd" clip-rule="evenodd" fill="#FFF" d="M135.4 85.6h19v19h-19z"/></g></g></g></g><g><defs><path id="bG" d="M135.4 85.6h19v19h-19z"/></defs><clipPath id="bH"><use xlink:href="#bG" overflow="visible"/></clipPath><g clip-path="url(#bH)"><defs><path id="bI" d="M-789.6-463.4h1121v1030h-1121z"/></defs><clipPath id="bJ"><use xlink:href="#bI" overflow="visible"/></clipPath><g clip-path="url(#bJ)"><path fill="#0F1F2D" d="M157.4 107.6h-25v-25h25v25zm-19-6h13v-13h-13v13z"/></g></g></g><g><defs><path id="bK" d="M164.4 84.1h-1.5v22h22v-22h-20.5zm0 3h19l-1.5-1.5v19l1.5-1.5h-19l1.5 1.5v-19l-1.5 1.5zm-21.5-23h62v62h-62v-62z"/></defs><clipPath id="bL"><use xlink:href="#bK" overflow="visible"/></clipPath><g clip-path="url(#bL)"><defs><path id="bM" d="M164.4 85.6h19v19h-19z"/></defs><clipPath id="bN"><use xlink:href="#bM" overflow="visible"/></clipPath><g clip-path="url(#bN)"><defs><path id="bO" d="M-789.6-463.4h1121v1030h-1121z"/></defs><clipPath id="bP"><use xlink:href="#bO" overflow="visible"/></clipPath><g clip-path="url(#bP)"><path fill-rule="evenodd" clip-rule="evenodd" fill="#FFF" d="M164.4 85.6h19v19h-19z"/></g></g></g></g><g><defs><path id="bQ" d="M164.4 85.6h19v19h-19z"/></defs><clipPath id="bR"><use xlink:href="#bQ" overflow="visible"/></clipPath><g clip-path="url(#bR)"><defs><path id="bS" d="M-789.6-463.4h1121v1030h-1121z"/></defs><clipPath id="bT"><use xlink:href="#bS" overflow="visible"/></clipPath><g clip-path="url(#bT)"><path fill="#0F1F2D" d="M186.4 107.6h-25v-25h25v25zm-19-6h13v-13h-13v13z"/></g></g></g><g><defs><path id="bU" d="M140.4 61.1h-1.5v12h12v-12h-10.5zm0 3h9l-1.5-1.5v9l1.5-1.5h-9l1.5 1.5v-9l-1.5 1.5zm-21.5-23h52v52h-52v-52z"/></defs><clipPath id="bV"><use xlink:href="#bU" overflow="visible"/></clipPath><g clip-path="url(#bV)"><defs><path id="bW" d="M140.4 62.6h9v9h-9z"/></defs><clipPath id="bX"><use xlink:href="#bW" overflow="visible"/></clipPath><g clip-path="url(#bX)"><defs><path id="bY" d="M-789.6-463.4h1121v1030h-1121z"/></defs><clipPath id="bZ"><use xlink:href="#bY" overflow="visible"/></clipPath><g clip-path="url(#bZ)"><path fill-rule="evenodd" clip-rule="evenodd" fill="#FFF" d="M140.4 62.6h9v9h-9z"/></g></g></g></g><g><defs><path id="ca" d="M140.4 62.6h9v9h-9z"/></defs><clipPath id="cb"><use xlink:href="#ca" overflow="visible"/></clipPath><g clip-path="url(#cb)"><defs><path id="cc" d="M-789.6-463.4h1121v1030h-1121z"/></defs><clipPath id="cd"><use xlink:href="#cc" overflow="visible"/></clipPath><g clip-path="url(#cd)"><path fill="#0F1F2D" d="M152.4 74.6h-15v-15h15v15zm-9-6h3v-3h-3v3z"/></g></g></g><g><defs><path id="ce" d="M169.4 61.1h-1.5v12h12v-12h-10.5zm0 3h9l-1.5-1.5v9l1.5-1.5h-9l1.5 1.5v-9l-1.5 1.5zm-21.5-23h52v52h-52v-52z"/></defs><clipPath id="cf"><use xlink:href="#ce" overflow="visible"/></clipPath><g clip-path="url(#cf)"><defs><path id="cg" d="M169.4 62.6h9v9h-9z"/></defs><clipPath id="ch"><use xlink:href="#cg" overflow="visible"/></clipPath><g clip-path="url(#ch)"><defs><path id="ci" d="M-789.6-463.4h1121v1030h-1121z"/></defs><clipPath id="cj"><use xlink:href="#ci" overflow="visible"/></clipPath><g clip-path="url(#cj)"><path fill-rule="evenodd" clip-rule="evenodd" fill="#FFF" d="M169.4 62.6h9v9h-9z"/></g></g></g></g><g><defs><path id="ck" d="M169.4 62.6h9v9h-9z"/></defs><clipPath id="cl"><use xlink:href="#ck" overflow="visible"/></clipPath><g clip-path="url(#cl)"><defs><path id="cm" d="M-789.6-463.4h1121v1030h-1121z"/></defs><clipPath id="cn"><use xlink:href="#cm" overflow="visible"/></clipPath><g clip-path="url(#cn)"><path fill="#0F1F2D" d="M181.4 74.6h-15v-15h15v15zm-9-6h3v-3h-3v3z"/></g></g></g><g><defs><path id="co" d="M140.4 89.1h-1.5v12h12v-12h-10.5zm0 3h9l-1.5-1.5v9l1.5-1.5h-9l1.5 1.5v-9l-1.5 1.5zm-21.5-23h52v52h-52v-52z"/></defs><clipPath id="cp"><use xlink:href="#co" overflow="visible"/></clipPath><g clip-path="url(#cp)"><defs><path id="cq" d="M140.4 90.6h9v9h-9z"/></defs><clipPath id="cr"><use xlink:href="#cq" overflow="visible"/></clipPath><g clip-path="url(#cr)"><defs><path id="cs" d="M-789.6-463.4h1121v1030h-1121z"/></defs><clipPath id="ct"><use xlink:href="#cs" overflow="visible"/></clipPath><g clip-path="url(#ct)"><path fill-rule="evenodd" clip-rule="evenodd" fill="#FFF" d="M140.4 90.6h9v9h-9z"/></g></g></g></g><g><defs><path id="cu" d="M140.4 90.6h9v9h-9z"/></defs><clipPath id="cv"><use xlink:href="#cu" overflow="visible"/></clipPath><g clip-path="url(#cv)"><defs><path id="cw" d="M-789.6-463.4h1121v1030h-1121z"/></defs><clipPath id="cx"><use xlink:href="#cw" overflow="visible"/></clipPath><g clip-path="url(#cx)"><path fill="#0F1F2D" d="M152.4 102.6h-15v-15h15v15zm-9-6h3v-3h-3v3z"/></g></g></g><g><defs><path id="cy" d="M169.4 89.1h-1.5v12h12v-12h-10.5zm0 3h9l-1.5-1.5v9l1.5-1.5h-9l1.5 1.5v-9l-1.5 1.5zm-21.5-23h52v52h-52v-52z"/></defs><clipPath id="cz"><use xlink:href="#cy" overflow="visible"/></clipPath><g clip-path="url(#cz)"><defs><path id="cA" d="M169.4 90.6h9v9h-9z"/></defs><clipPath id="cB"><use xlink:href="#cA" overflow="visible"/></clipPath><g clip-path="url(#cB)"><defs><path id="cC" d="M-789.6-463.4h1121v1030h-1121z"/></defs><clipPath id="cD"><use xlink:href="#cC" overflow="visible"/></clipPath><g clip-path="url(#cD)"><path fill-rule="evenodd" clip-rule="evenodd" fill="#FFF" d="M169.4 90.6h9v9h-9z"/></g></g></g></g><g><defs><path id="cE" d="M169.4 90.6h9v9h-9z"/></defs><clipPath id="cF"><use xlink:href="#cE" overflow="visible"/></clipPath><g clip-path="url(#cF)"><defs><path id="cG" d="M-789.6-463.4h1121v1030h-1121z"/></defs><clipPath id="cH"><use xlink:href="#cG" overflow="visible"/></clipPath><g clip-path="url(#cH)"><path fill="#0F1F2D" d="M181.4 102.6h-15v-15h15v15zm-9-6h3v-3h-3v3z"/></g></g></g><g><circle fill="#FFF" cx="188" cy="106.7" r="18.5"/><path fill="#0F1F2D" d="M188 126.7c-5.3 0-10.4-2.1-14.1-5.9-3.8-3.8-5.9-8.8-5.9-14.1 0-5.3 2.1-10.4 5.9-14.1 3.8-3.8 8.8-5.9 14.1-5.9 5.3 0 10.4 2.1 14.1 5.9 3.8 3.8 5.9 8.8 5.9 14.1 0 5.3-2.1 10.4-5.9 14.1-3.8 3.8-8.8 5.9-14.1 5.9zm0-37c-4.5 0-8.8 1.8-12 5-3.2 3.2-5 7.5-5 12s1.8 8.8 5 12c3.2 3.2 7.5 5 12 5s8.8-1.8 12-5 5-7.5 5-12-1.8-8.8-5-12-7.5-5-12-5z"/></g><g><path d="M189.4 114v3.2h-2.8v-3.3c-1.9-.3-3.7-1.1-5.1-2.2l1.5-2.9c1.5 1.3 3.8 2.2 5.4 2.2 1.2 0 1.9-.4 1.9-1.3 0-2.6-7.8-1.1-7.8-6.3 0-2.3 1.6-3.8 4.2-4.3V96h2.8v3c1.8.2 3.5.8 4.8 1.6l-1.4 2.9c-1.6-.9-3.5-1.5-4.7-1.5-1 0-1.6.4-1.6 1.1 0 2.6 7.8 1.1 7.8 6.5-.1 2.6-2.2 4.1-5 4.4z"/></g></svg>