<svg xmlns="http://www.w3.org/2000/svg" viewBox="0 0 276 137"><title>EXPERIENTIAL ICONS 3</title><g data-name="Layer 1"><path d="M88.58 23.83v75h-11v1.28a13.19 13.19 0 0 0 12.84 13.07l94.77-.06a12.86 12.86 0 0 0 13.05-12.65l.18-76.64zm1.94 86.39a10.14 10.14 0 0 1-9.75-8.63h91.5a12.7 12.7 0 0 0 4.49 8.56zm104.78-9.72a9.7 9.7 0 0 1-9.86 9.69c-5.84 0-9.86-4.24-9.86-10v-1.53h-84V26.83h103.88z" fill="#0c1f2e"/><path d="M176.76 110.17H90.52a10.14 10.14 0 0 1-9.75-8.63h91.5a12.7 12.7 0 0 0 4.49 8.63z" fill="#fff"/><path d="M195.46 26.83l-.16 73.67a9.7 9.7 0 0 1-9.86 9.7c-5.84 0-9.86-4.24-9.86-10.05v-1.49h-84V26.83z" fill="#fff"/><path fill="#0c1f2e" d="M138.22 37.51h46.26v2.95h-46.26zM138.22 49.32h46.26v2.95h-46.26zM138.22 61.13h46.26v2.95h-46.26zM138.22 72.94h46.26v2.95h-46.26zM138.22 84.75h46.26v2.95h-46.26z"/><path fill="none" stroke="#0e1f2d" stroke-linecap="round" stroke-miterlimit="10" stroke-width="3" d="M99.78 48.61h30.25v34.87H99.78z"/><path fill="#fff" stroke="#0e1f2d" stroke-linecap="round" stroke-miterlimit="10" stroke-width="3" d="M97.28 54.64h35.33l-2.74-9.47h-29.85l-2.74 9.47z"/><path fill="#fff" stroke="#0e1f2d" stroke-linecap="round" stroke-miterlimit="10" stroke-width="3" d="M118.84 41.73h5.17v6.89h-5.17z"/><path fill="none" stroke="#0e1f2d" stroke-linecap="round" stroke-miterlimit="10" stroke-width="2" d="M104.15 70.13h9.04v13.34h-9.04zM104.58 58.08h8.18v8.18h-8.18zM117.49 58.08h8.18v8.18h-8.18zM117.49 70.13h8.18v8.18h-8.18z"/></g></svg>