<svg xmlns="http://www.w3.org/2000/svg" viewBox="0 0 276 137"><title>_17</title><g data-name="Layer 1"><path fill="#fff" stroke="#0f1f2d" stroke-miterlimit="10" stroke-width="3" d="M88.52 25.41h98.96v65.93H88.52z"/><path fill="#fff" stroke="#0f1f2d" stroke-miterlimit="10" stroke-width="3" d="M94.62 30.5h86.76v55.8H94.62zM125.12 91.34h25.76v15.73h-25.76z"/><path fill="#fff" stroke="#0f1f2d" stroke-miterlimit="10" stroke-width="3" d="M117.34 107.07h41.32v4.52h-41.32z"/><path d="M133.33 69.29l-.16 4.57h-10.75l-3-3a.37.37 0 0 1 .18-.63l4.7-1z" fill="#0c1f2e"/><path d="M129.53 64l-3.2-1.19-4.11 10.58a.12.12 0 0 1-.19 0l-3.38-3.21 3.36-9-3.2-1.19 8.81-7.29zM149.28 60.55l4.33-1.45 3.74 10.08-1.73 3.91a.37.37 0 0 1-.65 0l-2.57-4.06z" fill="#0c1f2e"/><path d="M145.7 66v3.42l11.35.13a.12.12 0 0 1 .11.16L155.35 74h-9.62v3.41l-9.92-5.69zM132.7 52.2l-3.7-2.64 6-9 4.17-.9a.37.37 0 0 1 .42.5l-1.77 4.46z" fill="#0c1f2e"/><path d="M139.17 51.91l2.76-2-6.58-9.25a.12.12 0 0 1 .07-.18l4.58-1.07 5.69 7.76 2.75-2 1.24 11.37z" fill="#0c1f2e"/></g></svg>