<svg xmlns="http://www.w3.org/2000/svg" xmlns:xlink="http://www.w3.org/1999/xlink" viewBox="0 0 276 137"><defs><path id="a" d="M-212.2-438.1h-1.5v84h108v-84h-106.5zm0 3h105l-1.5-1.5v81l1.5-1.5h-105l1.5 1.5v-81l-1.5 1.5zm-21.5-23h148v124h-148v-124z"/></defs><clipPath id="b"><use xlink:href="#a" overflow="visible"/></clipPath><g clip-path="url(#b)"><defs><path id="c" d="M-212.2-436.6h105v81h-105z"/></defs></g><defs><path id="d" d="M-212.2-436.6h105v81h-105z"/></defs><defs><path id="e" d="M-218.2-421.1h-2.2l.9-2.1 9.1-22 .4-.9h100.9l.4.9 9.1 22 .9 2.1h-119.5zm0-3h117l-1.4 2.1-9.1-22 1.4.9h-98.9l1.4-.9-9.1 22-1.3-2.1zm-22.2 23H-79v-65h-161.5v65z"/></defs><clipPath id="f"><use xlink:href="#e" overflow="visible"/></clipPath><g clip-path="url(#f)"><defs><path id="g" d="M-218.2-422.6h117l-9.1-22h-98.8z"/></defs></g><defs><path id="h" d="M-218.2-422.6h117l-9.1-22h-98.8z"/></defs><defs><path id="i" d="M-133.2-454.1h-1.5v19h15v-19h-13.5zm0 3h12l-1.5-1.5v16l1.5-1.5h-12l1.5 1.5v-16l-1.5 1.5zm-21.5-23h55v59h-55v-59z"/></defs><clipPath id="j"><use xlink:href="#i" overflow="visible"/></clipPath><g clip-path="url(#j)"><defs><path id="k" d="M-133.2-452.6h12v16h-12z"/></defs></g><defs><path id="l" d="M-133.2-452.6h12v16h-12z"/></defs><defs><path id="m" d="M-199.2-388.1h-1.5v34h24v-34h-22.5zm0 3h21l-1.5-1.5v31l1.5-1.5h-21l1.5 1.5v-31l-1.5 1.5zm-21.5-23h64v74h-64v-74z"/></defs><clipPath id="n"><use xlink:href="#m" overflow="visible"/></clipPath><g clip-path="url(#n)"><defs><path id="o" d="M-199.2-386.6h21v31h-21z"/></defs></g><defs><path id="p" d="M-199.2-386.6h21v31h-21z"/></defs><defs><path id="q" d="M-198.2-416.1h-1.5v22h22v-22h-20.5zm0 3h19l-1.5-1.5v19l1.5-1.5h-19l1.5 1.5v-19l-1.5 1.5zm-21.5-23h62v62h-62v-62z"/></defs><clipPath id="r"><use xlink:href="#q" overflow="visible"/></clipPath><g clip-path="url(#r)"><defs><path id="s" d="M-198.2-414.6h19v19h-19z"/></defs></g><defs><path id="t" d="M-198.2-414.6h19v19h-19z"/></defs><defs><path id="u" d="M-193.2-411.1h-1.5v12h12v-12h-10.5zm0 3h9l-1.5-1.5v9l1.5-1.5h-9l1.5 1.5v-9l-1.5 1.5zm-21.5-23h52v52h-52v-52z"/></defs><clipPath id="v"><use xlink:href="#u" overflow="visible"/></clipPath><g clip-path="url(#v)"><defs><path id="w" d="M-193.2-409.6h9v9h-9z"/></defs></g><defs><path id="x" d="M-193.2-409.6h9v9h-9z"/></defs><defs><path id="y" d="M-168.2-416.1h-1.5v22h22v-22h-20.5zm0 3h19l-1.5-1.5v19l1.5-1.5h-19l1.5 1.5v-19l-1.5 1.5zm-21.5-23h62v62h-62v-62z"/></defs><clipPath id="z"><use xlink:href="#y" overflow="visible"/></clipPath><g clip-path="url(#z)"><defs><path id="A" d="M-168.2-414.6h19v19h-19z"/></defs></g><defs><path id="B" d="M-168.2-414.6h19v19h-19z"/></defs><defs><path id="C" d="M-139.2-416.1h-1.5v22h22v-22h-20.5zm0 3h19l-1.5-1.5v19l1.5-1.5h-19l1.5 1.5v-19l-1.5 1.5zm-21.5-23h62v62h-62v-62z"/></defs><clipPath id="D"><use xlink:href="#C" overflow="visible"/></clipPath><g clip-path="url(#D)"><defs><path id="E" d="M-139.2-414.6h19v19h-19z"/></defs></g><defs><path id="F" d="M-139.2-414.6h19v19h-19z"/></defs><defs><path id="G" d="M-168.2-388.1h-1.5v22h22v-22h-20.5zm0 3h19l-1.5-1.5v19l1.5-1.5h-19l1.5 1.5v-19l-1.5 1.5zm-21.5-23h62v62h-62v-62z"/></defs><clipPath id="H"><use xlink:href="#G" overflow="visible"/></clipPath><g clip-path="url(#H)"><defs><path id="I" d="M-168.2-386.6h19v19h-19z"/></defs></g><defs><path id="J" d="M-168.2-386.6h19v19h-19z"/></defs><defs><path id="K" d="M-139.2-388.1h-1.5v22h22v-22h-20.5zm0 3h19l-1.5-1.5v19l1.5-1.5h-19l1.5 1.5v-19l-1.5 1.5zm-21.5-23h62v62h-62v-62z"/></defs><clipPath id="L"><use xlink:href="#K" overflow="visible"/></clipPath><g clip-path="url(#L)"><defs><path id="M" d="M-139.2-386.6h19v19h-19z"/></defs></g><defs><path id="N" d="M-139.2-386.6h19v19h-19z"/></defs><defs><path id="O" d="M-163.2-411.1h-1.5v12h12v-12h-10.5zm0 3h9l-1.5-1.5v9l1.5-1.5h-9l1.5 1.5v-9l-1.5 1.5zm-21.5-23h52v52h-52v-52z"/></defs><clipPath id="P"><use xlink:href="#O" overflow="visible"/></clipPath><g clip-path="url(#P)"><defs><path id="Q" d="M-163.2-409.6h9v9h-9z"/></defs></g><defs><path id="R" d="M-163.2-409.6h9v9h-9z"/></defs><defs><path id="S" d="M-134.2-411.1h-1.5v12h12v-12h-10.5zm0 3h9l-1.5-1.5v9l1.5-1.5h-9l1.5 1.5v-9l-1.5 1.5zm-21.5-23h52v52h-52v-52z"/></defs><clipPath id="T"><use xlink:href="#S" overflow="visible"/></clipPath><g clip-path="url(#T)"><defs><path id="U" d="M-134.2-409.6h9v9h-9z"/></defs></g><defs><path id="V" d="M-134.2-409.6h9v9h-9z"/></defs><defs><path id="W" d="M-163.2-383.1h-1.5v12h12v-12h-10.5zm0 3h9l-1.5-1.5v9l1.5-1.5h-9l1.5 1.5v-9l-1.5 1.5zm-21.5-23h52v52h-52v-52z"/></defs><clipPath id="X"><use xlink:href="#W" overflow="visible"/></clipPath><g clip-path="url(#X)"><defs><path id="Y" d="M-163.2-381.6h9v9h-9z"/></defs></g><defs><path id="Z" d="M-163.2-381.6h9v9h-9z"/></defs><defs><path id="aa" d="M-134.2-383.1h-1.5v12h12v-12h-10.5zm0 3h9l-1.5-1.5v9l1.5-1.5h-9l1.5 1.5v-9l-1.5 1.5zm-21.5-23h52v52h-52v-52z"/></defs><clipPath id="ab"><use xlink:href="#aa" overflow="visible"/></clipPath><g clip-path="url(#ab)"><defs><path id="ac" d="M-134.2-381.6h9v9h-9z"/></defs></g><defs><path id="ad" d="M-134.2-381.6h9v9h-9z"/></defs><defs><path id="ae" d="M-158-199.7c-27.1 0-49-21.9-49-49s21.9-49 49-49 49 21.9 49 49c0 27-21.9 49-49 49zm0 3c28.7 0 52-23.3 52-52s-23.3-52-52-52-52 23.3-52 52 23.3 52 52 52zm-72-124h144v144h-144v-144z"/></defs><clipPath id="af"><use xlink:href="#ae" overflow="visible"/></clipPath><g clip-path="url(#af)"><defs><circle id="ag" cx="-158" cy="-248.7" r="50.5"/></defs></g><defs><circle id="ah" cx="-158" cy="-248.7" r="50.5"/></defs><defs><circle id="ai" cx="-158" cy="-248.7" r="43.5"/></defs><defs><path id="aj" d="M-157.3-32.5c-24.6 0-44.6-20-44.6-44.6s20-44.6 44.6-44.6 44.6 20 44.6 44.6-20 44.6-44.6 44.6zm0 2.7c26.1 0 47.3-21.2 47.3-47.3s-21.2-47.3-47.3-47.3-47.3 21.2-47.3 47.3 21.2 47.3 47.3 47.3zm-65.5-112.8h131v131h-131v-131z"/></defs><clipPath id="ak"><use xlink:href="#aj" overflow="visible"/></clipPath><g clip-path="url(#ak)"><defs><circle id="al" cx="-157.3" cy="-77.1" r="45.9"/></defs></g><defs><circle id="am" cx="-157.3" cy="-77.1" r="45.9"/></defs><defs><circle id="an" cx="-157.3" cy="-77.1" r="39.6"/></defs><path fill="#FFF" stroke="#0C1F2E" stroke-width="3" stroke-linecap="round" stroke-miterlimit="10" d="M90.5 48.6h96.2v59.3H90.5z"/><path fill="#FFF" stroke="#0C1F2E" stroke-width="3" stroke-linecap="round" stroke-miterlimit="10" d="M90.5 48.6h96.2v59.3H90.5z"/><path d="M106.6 80.4h-2.7v3.9h-3.5V70.5h6.1c3.6 0 5.7 1.7 5.7 4.8 0 2.1-.9 3.6-2.5 4.4l2.9 4.5h-4l-2-3.8zm-.1-2.7c1.5 0 2.4-.8 2.4-2.2 0-1.4-.9-2.2-2.4-2.2h-2.6v4.4h2.6zm11.5-4.4V76h6.5v2.7H118v2.8h7.5v2.7h-11V70.5h10.7v2.7H118zm19.3 11l-6.3-8.4v8.4h-3.3V70.5h3.1l6.3 8.5v-8.5h3.3v13.7h-3.1zm12.1-11v10.9H146V73.3h-4.1v-2.8h11.7v2.8h-4.2zm7.3 8.4l-1 2.5h-3.6l5.9-13.7h3.6l5.8 13.7h-3.7l-1-2.5h-6zm3-7.7l-2 5.1h4l-2-5.1zm18.3 7.3v2.9h-9.3V70.5h3.5v10.8h5.8z" fill="#231F20"/><path fill="none" stroke="#0C1F2E" stroke-width="3" stroke-linecap="round" stroke-miterlimit="10" d="M113.5 48.6l25-34.4 23.9 34.3"/><circle fill="#FFF" stroke="#0F1F2D" stroke-width="3" stroke-linecap="round" stroke-miterlimit="10" cx="191.9" cy="102.5" r="19.1"/><path fill="none" stroke="#0F1F2D" stroke-width="3" stroke-linecap="round" stroke-miterlimit="10" d="M201.1 94.6l-14.4 14.3-6.3-5.7"/><defs><path id="ao" d="M381.5 34.2H380v84h108v-84H381.5zm0 3h105l-1.5-1.5v81l1.5-1.5h-105l1.5 1.5v-81l-1.5 1.5zm-21.5-23h148v124H360v-124z"/></defs><clipPath id="ap"><use xlink:href="#ao" overflow="visible"/></clipPath><g clip-path="url(#ap)"><defs><path id="aq" d="M381.5 35.7h105v81h-105z"/></defs></g><defs><path id="ar" d="M381.5 35.7h105v81h-105z"/></defs><defs><path id="as" d="M375.5 51.2h-2.2l.9-2.1 9.1-22 .4-.9h100.9l.4.9 9.1 22 .9 2.1H375.5zm0-3h117l-1.4 2.1-9.1-22 1.4.9h-98.9l1.4-.9-9.1 22-1.3-2.1zm-22.2 23h161.5v-65H353.3v65z"/></defs><clipPath id="at"><use xlink:href="#as" overflow="visible"/></clipPath><g clip-path="url(#at)"><defs><path id="au" d="M375.5 49.7h117l-9.1-22h-98.8z"/></defs></g><defs><path id="av" d="M375.5 49.7h117l-9.1-22h-98.8z"/></defs><defs><path id="aw" d="M460.5 18.2H459v19h15v-19h-13.5zm0 3h12l-1.5-1.5v16l1.5-1.5h-12l1.5 1.5v-16l-1.5 1.5zM439-1.8h55v59h-55v-59z"/></defs><clipPath id="ax"><use xlink:href="#aw" overflow="visible"/></clipPath><g clip-path="url(#ax)"><defs><path id="ay" d="M460.5 19.7h12v16h-12z"/></defs></g><defs><path id="az" d="M460.5 19.7h12v16h-12z"/></defs><defs><path id="aA" d="M394.5 84.2H393v34h24v-34h-22.5zm0 3h21l-1.5-1.5v31l1.5-1.5h-21l1.5 1.5v-31l-1.5 1.5zm-21.5-23h64v74h-64v-74z"/></defs><clipPath id="aB"><use xlink:href="#aA" overflow="visible"/></clipPath><g clip-path="url(#aB)"><defs><path id="aC" d="M394.5 85.7h21v31h-21z"/></defs></g><defs><path id="aD" d="M394.5 85.7h21v31h-21z"/></defs><defs><path id="aE" d="M395.5 56.2H394v22h22v-22h-20.5zm0 3h19l-1.5-1.5v19l1.5-1.5h-19l1.5 1.5v-19l-1.5 1.5zm-21.5-23h62v62h-62v-62z"/></defs><clipPath id="aF"><use xlink:href="#aE" overflow="visible"/></clipPath><g clip-path="url(#aF)"><defs><path id="aG" d="M395.5 57.7h19v19h-19z"/></defs></g><defs><path id="aH" d="M395.5 57.7h19v19h-19z"/></defs><defs><path id="aI" d="M400.5 61.2H399v12h12v-12h-10.5zm0 3h9l-1.5-1.5v9l1.5-1.5h-9l1.5 1.5v-9l-1.5 1.5zm-21.5-23h52v52h-52v-52z"/></defs><clipPath id="aJ"><use xlink:href="#aI" overflow="visible"/></clipPath><g clip-path="url(#aJ)"><defs><path id="aK" d="M400.5 62.7h9v9h-9z"/></defs></g><defs><path id="aL" d="M400.5 62.7h9v9h-9z"/></defs><defs><path id="aM" d="M425.5 56.2H424v22h22v-22h-20.5zm0 3h19l-1.5-1.5v19l1.5-1.5h-19l1.5 1.5v-19l-1.5 1.5zm-21.5-23h62v62h-62v-62z"/></defs><clipPath id="aN"><use xlink:href="#aM" overflow="visible"/></clipPath><g clip-path="url(#aN)"><defs><path id="aO" d="M425.5 57.7h19v19h-19z"/></defs></g><defs><path id="aP" d="M425.5 57.7h19v19h-19z"/></defs><defs><path id="aQ" d="M454.5 56.2H453v22h22v-22h-20.5zm0 3h19l-1.5-1.5v19l1.5-1.5h-19l1.5 1.5v-19l-1.5 1.5zm-21.5-23h62v62h-62v-62z"/></defs><clipPath id="aR"><use xlink:href="#aQ" overflow="visible"/></clipPath><g clip-path="url(#aR)"><defs><path id="aS" d="M454.5 57.7h19v19h-19z"/></defs></g><g><defs><path id="aT" d="M454.5 57.7h19v19h-19z"/></defs></g><g><defs><path id="aU" d="M425.5 84.2H424v22h22v-22h-20.5zm0 3h19l-1.5-1.5v19l1.5-1.5h-19l1.5 1.5v-19l-1.5 1.5zm-21.5-23h62v62h-62v-62z"/></defs><clipPath id="aV"><use xlink:href="#aU" overflow="visible"/></clipPath><g clip-path="url(#aV)"><defs><path id="aW" d="M425.5 85.7h19v19h-19z"/></defs></g></g><g><defs><path id="aX" d="M425.5 85.7h19v19h-19z"/></defs></g><g><defs><path id="aY" d="M454.5 84.2H453v22h22v-22h-20.5zm0 3h19l-1.5-1.5v19l1.5-1.5h-19l1.5 1.5v-19l-1.5 1.5zm-21.5-23h62v62h-62v-62z"/></defs><clipPath id="aZ"><use xlink:href="#aY" overflow="visible"/></clipPath><g clip-path="url(#aZ)"><defs><path id="ba" d="M454.5 85.7h19v19h-19z"/></defs></g></g><g><defs><path id="bb" d="M454.5 85.7h19v19h-19z"/></defs></g><g><defs><path id="bc" d="M430.5 61.2H429v12h12v-12h-10.5zm0 3h9l-1.5-1.5v9l1.5-1.5h-9l1.5 1.5v-9l-1.5 1.5zm-21.5-23h52v52h-52v-52z"/></defs><clipPath id="bd"><use xlink:href="#bc" overflow="visible"/></clipPath><g clip-path="url(#bd)"><defs><path id="be" d="M430.5 62.7h9v9h-9z"/></defs></g></g><g><defs><path id="bf" d="M430.5 62.7h9v9h-9z"/></defs></g><g><defs><path id="bg" d="M459.5 61.2H458v12h12v-12h-10.5zm0 3h9l-1.5-1.5v9l1.5-1.5h-9l1.5 1.5v-9l-1.5 1.5zm-21.5-23h52v52h-52v-52z"/></defs><clipPath id="bh"><use xlink:href="#bg" overflow="visible"/></clipPath><g clip-path="url(#bh)"><defs><path id="bi" d="M459.5 62.7h9v9h-9z"/></defs></g></g><g><defs><path id="bj" d="M459.5 62.7h9v9h-9z"/></defs></g><g><defs><path id="bk" d="M430.5 89.2H429v12h12v-12h-10.5zm0 3h9l-1.5-1.5v9l1.5-1.5h-9l1.5 1.5v-9l-1.5 1.5zm-21.5-23h52v52h-52v-52z"/></defs><clipPath id="bl"><use xlink:href="#bk" overflow="visible"/></clipPath><g clip-path="url(#bl)"><defs><path id="bm" d="M430.5 90.7h9v9h-9z"/></defs></g></g><g><defs><path id="bn" d="M430.5 90.7h9v9h-9z"/></defs></g><g><defs><path id="bo" d="M459.5 89.2H458v12h12v-12h-10.5zm0 3h9l-1.5-1.5v9l1.5-1.5h-9l1.5 1.5v-9l-1.5 1.5zm-21.5-23h52v52h-52v-52z"/></defs><clipPath id="bp"><use xlink:href="#bo" overflow="visible"/></clipPath><g clip-path="url(#bp)"><defs><path id="bq" d="M459.5 90.7h9v9h-9z"/></defs></g></g><g><defs><path id="br" d="M459.5 90.7h9v9h-9z"/></defs></g></svg>