<svg id="Layer_1" data-name="Layer 1" xmlns="http://www.w3.org/2000/svg" viewBox="0 0 276 137"><defs><style>.cls-1,.cls-11,.cls-15,.cls-16,.cls-3{fill:none}.cls-10,.cls-13,.cls-2,.cls-8{fill:#fff}.cls-15,.cls-16,.cls-2{stroke:#0e1f2d;stroke-width:1.88px}.cls-10,.cls-11,.cls-15,.cls-16,.cls-2{stroke-miterlimit:10}.cls-2,.cls-3{clip-rule:evenodd}.cls-9{fill:#0e1f2d}.cls-10,.cls-11{stroke:#101f2c;stroke-linecap:round;stroke-width:2.78px}.cls-12{fill:#0c1f2e}.cls-13,.cls-16{fill-rule:evenodd}.cls-14{clip-path:url(#clip-path-7)}</style><clipPath id="clip-path"><path class="cls-3" d="M396.69-54.42a29.08 29.08 0 0 1-29.07-29.08 29.08 29.08 0 0 1 29.08-29.08 29.08 29.08 0 0 1 29.07 29.08 29.08 29.08 0 0 1-29.08 29.08zm0 2.24A31.32 31.32 0 0 0 428-83.5a31.32 31.32 0 0 0-31.32-31.32 31.32 31.32 0 0 0-31.3 31.32 31.32 31.32 0 0 0 31.31 31.32zm-46.25-77.57h92.5v92.5h-92.5z"/></clipPath><clipPath id="clip-path-2"><circle class="cls-1" cx="396.69" cy="-83.5" r="30.2"/></clipPath><clipPath id="clip-path-4"><path class="cls-3" d="M479.23-54.42a29.08 29.08 0 0 1-29.08-29.08 29.08 29.08 0 0 1 29.08-29.08A29.08 29.08 0 0 1 508.3-83.5a29.08 29.08 0 0 1-29.07 29.08zm0 2.24a31.32 31.32 0 0 0 31.31-31.32 31.32 31.32 0 0 0-31.32-31.32 31.32 31.32 0 0 0-31.31 31.32 31.32 31.32 0 0 0 31.32 31.32zM433-129.75h92.5v92.5H433z"/></clipPath><clipPath id="clip-path-5"><circle class="cls-1" cx="479.23" cy="-83.5" r="30.2"/></clipPath><clipPath id="clip-path-7"><path class="cls-2" d="M392.34 56.06h65.16l5.84 5.75v11.01h-71V56.06z"/></clipPath><clipPath id="clip-path-8"><circle class="cls-1" cx="136.82" cy="229.42" r="50.5"/></clipPath><clipPath id="clip-path-9"><circle class="cls-1" cx="136.82" cy="229.42" r="43.5"/></clipPath><clipPath id="clip-path-10"><circle class="cls-1" cx="132.14" cy="386.9" r="50.5"/></clipPath><clipPath id="clip-path-11"><circle class="cls-1" cx="132.14" cy="386.9" r="43.5"/></clipPath></defs><path class="cls-8" d="M186.2 104.59V94h-68.73V70.52H99.56l-5.85 12.14a137.61 137.61 0 0 0-16.57 4.4v17.52z"/><path class="cls-9" d="M187.6 106H75.75V86.06l1-.32a143.69 143.69 0 0 1 16.05-4.31l5.89-12.33h20.14v23.48h68.77zm-109.06-2.8h106.27v-7.83h-68.73V71.89h-15.6l-5.78 12-.7.11a137.18 137.18 0 0 0-15.43 4z"/><path class="cls-8" d="M112.67 87.54H99.5V83.9l3.73-7.99h9.44v11.63z"/><path class="cls-9" d="M114.06 88.93h-16v-5.34l4.23-9.07h11.72zm-13.17-2.78h10.39V77.3h-7.17l-3.22 6.91zm-7.11 19.75a1.39 1.39 0 0 1-1.39-1.39V82.84a1.39 1.39 0 1 1 2.78 0v21.68a1.39 1.39 0 0 1-1.39 1.38zm23.71 0a1.39 1.39 0 0 1-1.39-1.39V92.77a1.39 1.39 0 1 1 2.78 0v11.74a1.39 1.39 0 0 1-1.39 1.39z"/><circle class="cls-8" cx="96.96" cy="108.64" r="10.18"/><path class="cls-9" d="M97 120.2a11.57 11.57 0 1 1 11.57-11.57A11.58 11.58 0 0 1 97 120.2zm0-20.35a8.78 8.78 0 1 0 8.78 8.78A8.79 8.79 0 0 0 97 99.85z"/><circle class="cls-8" cx="170.79" cy="108.64" r="10.18"/><path class="cls-9" d="M170.79 120.2a11.57 11.57 0 1 1 11.57-11.57 11.58 11.58 0 0 1-11.57 11.57zm0-20.35a8.78 8.78 0 1 0 8.78 8.78 8.79 8.79 0 0 0-8.78-8.78z"/><circle class="cls-8" cx="96.82" cy="108.5" r="4.62"/><path class="cls-9" d="M96.82 114.51a6 6 0 1 1 6-6 6 6 0 0 1-6 6zm0-9.24a3.23 3.23 0 1 0 3.18 3.23 3.23 3.23 0 0 0-3.18-3.23z"/><path class="cls-10" d="M117.45 83.87v4.66l63.49-25.29 1.27-5.16-64.76 25.79z"/><circle class="cls-8" cx="170.65" cy="108.5" r="4.62"/><path class="cls-9" d="M170.65 114.51a6 6 0 1 1 6-6 6 6 0 0 1-6 6zm0-9.24a3.23 3.23 0 1 0 3.23 3.23 3.23 3.23 0 0 0-3.23-3.23zm-57.57-33.39h-10.5L105 62.1h5.76zm-6.94-2.78h3.42l-1-4.21h-1.38z"/><path class="cls-10" d="M117.49 83.84h14.19v10.13h-14.19z"/><circle class="cls-10" cx="182.02" cy="74.88" r="3.5"/><path class="cls-10" d="M182.43 80.13v1.8a3.88 3.88 0 0 1 2.13 3 3 3 0 0 1-3 3.29 3 3 0 0 1-2.79-3.19"/><path class="cls-11" d="M182.02 71.38V58.4"/><circle class="cls-8" cx="133.98" cy="45.96" r="18.9"/><path class="cls-9" d="M134 66.25A20.29 20.29 0 1 1 154.27 46 20.31 20.31 0 0 1 134 66.25zm0-37.8A17.51 17.51 0 1 0 151.49 46 17.53 17.53 0 0 0 134 28.45z"/><path class="cls-12" d="M136.14 52.88a2.25 2.25 0 1 1-2.26-2.24 2.17 2.17 0 0 1 2.26 2.24zm-.78-4.42h-2.8l-.81-7.5v-4.8h4.42V41z"/><path class="cls-13" d="M392.34 56.06h65.16l5.84 5.75v11.01h-71V56.06z"/><g class="cls-14"><path class="cls-8" d="M202.31-200.18h572.62v493.32H202.31z"/><path class="cls-15" d="M202.31-200.18h572.62v493.32H202.31z"/></g><path class="cls-16" d="M392.34 56.06h65.16l5.84 5.75v11.01h-71V56.06z"/></svg>