<svg id="Layer_1" data-name="Layer 1" xmlns="http://www.w3.org/2000/svg" viewBox="0 0 276 137"><defs><style>.cls-1,.cls-2,.cls-36,.cls-4,.cls-40,.cls-41{fill:none}.cls-1,.cls-3{clip-rule:evenodd}.cls-3,.cls-33,.cls-35,.cls-38{fill:#fff}.cls-3,.cls-40,.cls-41{stroke:#0e1f2d;stroke-width:1.88px}.cls-3,.cls-35,.cls-36,.cls-40,.cls-41{stroke-miterlimit:10}.cls-38,.cls-4,.cls-41{fill-rule:evenodd}.cls-5{clip-path:url(#clip-path)}.cls-6{clip-path:url(#clip-path-2)}.cls-7{clip-path:url(#clip-path-4)}.cls-8{clip-path:url(#clip-path-5)}.cls-9{clip-path:url(#clip-path-7)}.cls-10{clip-path:url(#clip-path-8)}.cls-11{clip-path:url(#clip-path-10)}.cls-12{clip-path:url(#clip-path-11)}.cls-13{clip-path:url(#clip-path-13)}.cls-14{clip-path:url(#clip-path-14)}.cls-15{clip-path:url(#clip-path-16)}.cls-16{clip-path:url(#clip-path-17)}.cls-17{clip-path:url(#clip-path-19)}.cls-18{clip-path:url(#clip-path-20)}.cls-19{clip-path:url(#clip-path-22)}.cls-20{clip-path:url(#clip-path-23)}.cls-21{clip-path:url(#clip-path-25)}.cls-22{clip-path:url(#clip-path-26)}.cls-23{clip-path:url(#clip-path-28)}.cls-24{clip-path:url(#clip-path-29)}.cls-25{clip-path:url(#clip-path-31)}.cls-26{clip-path:url(#clip-path-32)}.cls-27{clip-path:url(#clip-path-34)}.cls-28{clip-path:url(#clip-path-35)}.cls-29{clip-path:url(#clip-path-37)}.cls-30{clip-path:url(#clip-path-38)}.cls-31{clip-path:url(#clip-path-40)}.cls-32{clip-path:url(#clip-path-41)}.cls-34{fill:#0e1f2d}.cls-35,.cls-36{stroke:#101f2c;stroke-linecap:round;stroke-width:2.78px}.cls-37{fill:#0c1f2e}.cls-39{clip-path:url(#clip-path-43)}</style><clipPath id="clip-path"><path class="cls-1" d="M-208.33-127.51h-1.5v84h108v-84h-106.5zm0 3h105l-1.5-1.5v81l1.5-1.5h-105l1.5 1.5v-81zm-21.5-23h148v124h-148z"/></clipPath><clipPath id="clip-path-2"><path class="cls-2" d="M-208.33-126.01h105v81h-105z"/></clipPath><clipPath id="clip-path-4"><path class="cls-1" d="M-214.33-110.51h-2.24l.85-2.07 9.07-22 .38-.93h100.87l.38.93 9.07 22 .85 2.07h-119.23zm0-3h117l-1.39 2.07-9.07-22 1.39.93h-98.86l1.39-.93-9.07 22zm-22.24 23h161.48v-65h-161.48z"/></clipPath><clipPath id="clip-path-5"><path class="cls-1" d="M-214.33-112.01h117l-9.07-22h-98.86l-9.07 22z"/></clipPath><clipPath id="clip-path-7"><path class="cls-1" d="M-129.33-143.51h-1.5v19h15v-19h-13.5zm0 3h12l-1.5-1.5v16l1.5-1.5h-12l1.5 1.5v-16zm-21.5-23h55v59h-55z"/></clipPath><clipPath id="clip-path-8"><path class="cls-2" d="M-129.33-142.01h12v16h-12z"/></clipPath><clipPath id="clip-path-10"><path class="cls-1" d="M-195.33-77.51h-1.5v34h24v-34h-22.5zm0 3h21l-1.5-1.5v31l1.5-1.5h-21l1.5 1.5V-76zm-21.5-23h64v74h-64z"/></clipPath><clipPath id="clip-path-11"><path class="cls-2" d="M-195.33-76.01h21v31h-21z"/></clipPath><clipPath id="clip-path-13"><path class="cls-1" d="M-194.33-105.51h-1.5v22h22v-22h-20.5zm0 3h19l-1.5-1.5v19l1.5-1.5h-19l1.5 1.5v-19zm-21.5-23h62v62h-62z"/></clipPath><clipPath id="clip-path-14"><path class="cls-2" d="M-194.33-104.01h19v19h-19z"/></clipPath><clipPath id="clip-path-16"><path class="cls-1" d="M-189.33-100.51h-1.5v12h12v-12h-10.5zm0 3h9l-1.5-1.5v9l1.5-1.5h-9l1.5 1.5v-9zm-21.5-23h52v52h-52z"/></clipPath><clipPath id="clip-path-17"><path class="cls-2" d="M-189.33-99.01h9v9h-9z"/></clipPath><clipPath id="clip-path-19"><path class="cls-1" d="M-164.33-105.51h-1.5v22h22v-22h-20.5zm0 3h19l-1.5-1.5v19l1.5-1.5h-19l1.5 1.5v-19zm-21.5-23h62v62h-62z"/></clipPath><clipPath id="clip-path-20"><path class="cls-2" d="M-164.33-104.01h19v19h-19z"/></clipPath><clipPath id="clip-path-22"><path class="cls-1" d="M-135.33-105.51h-1.5v22h22v-22h-20.5zm0 3h19l-1.5-1.5v19l1.5-1.5h-19l1.5 1.5v-19zm-21.5-23h62v62h-62z"/></clipPath><clipPath id="clip-path-23"><path class="cls-2" d="M-135.33-104.01h19v19h-19z"/></clipPath><clipPath id="clip-path-25"><path class="cls-1" d="M-164.33-77.51h-1.5v22h22v-22h-20.5zm0 3h19l-1.5-1.5v19l1.5-1.5h-19l1.5 1.5V-76zm-21.5-23h62v62h-62z"/></clipPath><clipPath id="clip-path-26"><path class="cls-2" d="M-164.33-76.01h19v19h-19z"/></clipPath><clipPath id="clip-path-28"><path class="cls-1" d="M-135.33-77.51h-1.5v22h22v-22h-20.5zm0 3h19l-1.5-1.5v19l1.5-1.5h-19l1.5 1.5V-76zm-21.5-23h62v62h-62z"/></clipPath><clipPath id="clip-path-29"><path class="cls-2" d="M-135.33-76.01h19v19h-19z"/></clipPath><clipPath id="clip-path-31"><path class="cls-1" d="M-159.33-100.51h-1.5v12h12v-12h-10.5zm0 3h9l-1.5-1.5v9l1.5-1.5h-9l1.5 1.5v-9zm-21.5-23h52v52h-52z"/></clipPath><clipPath id="clip-path-32"><path class="cls-2" d="M-159.33-99.01h9v9h-9z"/></clipPath><clipPath id="clip-path-34"><path class="cls-1" d="M-130.33-100.51h-1.5v12h12v-12h-10.5zm0 3h9l-1.5-1.5v9l1.5-1.5h-9l1.5 1.5v-9zm-21.5-23h52v52h-52z"/></clipPath><clipPath id="clip-path-35"><path class="cls-2" d="M-130.33-99.01h9v9h-9z"/></clipPath><clipPath id="clip-path-37"><path class="cls-1" d="M-159.33-72.51h-1.5v12h12v-12h-10.5zm0 3h9l-1.5-1.5v9l1.5-1.5h-9l1.5 1.5v-9zm-21.5-23h52v52h-52z"/></clipPath><clipPath id="clip-path-38"><path class="cls-2" d="M-159.33-71.01h9v9h-9z"/></clipPath><clipPath id="clip-path-40"><path class="cls-1" d="M-130.33-72.51h-1.5v12h12v-12h-10.5zm0 3h9l-1.5-1.5v9l1.5-1.5h-9l1.5 1.5v-9zm-21.5-23h52v52h-52z"/></clipPath><clipPath id="clip-path-41"><path class="cls-2" d="M-130.33-71.01h9v9h-9z"/></clipPath><clipPath id="clip-path-43"><path class="cls-3" d="M389.33 50.79h65.16l5.85 5.75v11.01h-71.01V50.79z"/></clipPath></defs><title>EXPERIENTIAL ICONS 2 (2)</title><path class="cls-33" d="M192.53 100.15V89.54h-68.74V66.06h-17.9L100 78.23a137.61 137.61 0 0 0-16.57 4.4v17.52z"/><path class="cls-34" d="M193.92 101.54H82.08V81.63l1-.32A143.69 143.69 0 0 1 99.09 77L105 64.66h20.14v23.48h68.74zM84.86 98.76h106.28v-7.83H122.4V67.45h-15.6l-5.78 12-.7.13a137.18 137.18 0 0 0-15.43 4z"/><path class="cls-33" d="M119 83.1h-13.17v-3.63l3.72-7.99H119V83.1z"/><path class="cls-34" d="M120.39 84.5h-16v-5.34l4.23-9.07h11.72zm-13.17-2.78h10.38v-8.85h-7.17l-3.22 6.91zM100.11 101.47a1.39 1.39 0 0 1-1.39-1.39V78.4a1.39 1.39 0 1 1 2.78 0v21.68a1.39 1.39 0 0 1-1.39 1.39zM123.81 101.47a1.39 1.39 0 0 1-1.39-1.39V88.34a1.39 1.39 0 1 1 2.78 0v11.74a1.39 1.39 0 0 1-1.39 1.39z"/><circle class="cls-33" cx="103.28" cy="104.2" r="10.18"/><path class="cls-34" d="M103.28 115.77a11.57 11.57 0 1 1 11.57-11.57 11.58 11.58 0 0 1-11.57 11.57zm0-20.35a8.78 8.78 0 1 0 8.78 8.78 8.79 8.79 0 0 0-8.78-8.78z"/><circle class="cls-33" cx="177.12" cy="104.2" r="10.18"/><path class="cls-34" d="M177.12 115.77a11.57 11.57 0 1 1 11.57-11.57 11.58 11.58 0 0 1-11.57 11.57zm0-20.35a8.78 8.78 0 1 0 8.78 8.78 8.79 8.79 0 0 0-8.78-8.78z"/><circle class="cls-33" cx="103.14" cy="104.06" r="4.62"/><path class="cls-34" d="M103.14 110.07a6 6 0 1 1 6-6 6 6 0 0 1-6 6zm0-9.24a3.23 3.23 0 1 0 3.23 3.23 3.23 3.23 0 0 0-3.23-3.23z"/><path class="cls-35" d="M123.78 79.43v4.67l63.48-25.29 1.27-5.17-64.75 25.79z"/><circle class="cls-33" cx="176.98" cy="104.06" r="4.62"/><path class="cls-34" d="M177 110.07a6 6 0 1 1 6-6 6 6 0 0 1-6 6zm0-9.24a3.23 3.23 0 1 0 3.23 3.23 3.23 3.23 0 0 0-3.23-3.23zM119.4 67.45h-10.5l2.42-9.78h5.76zm-6.94-2.78h3.42l-1-4.21h-1.38z"/><path class="cls-35" d="M123.81 79.41H138v10.13h-14.19z"/><circle class="cls-35" cx="188.34" cy="70.45" r="3.5"/><path class="cls-35" d="M188.76 75.69v1.8a3.88 3.88 0 0 1 2.13 3 3 3 0 0 1-3 3.29 3 3 0 0 1-2.79-3.19"/><path class="cls-36" d="M188.34 66.95V53.96"/><circle class="cls-33" cx="140.3" cy="41.52" r="18.9"/><path class="cls-34" d="M140.3 61.81a20.29 20.29 0 1 1 20.29-20.29 20.31 20.31 0 0 1-20.29 20.29zm0-37.8a17.51 17.51 0 1 0 17.51 17.51A17.53 17.53 0 0 0 140.3 24z"/><path class="cls-37" d="M142.47 48.44a2.25 2.25 0 1 1-2.26-2.24 2.17 2.17 0 0 1 2.26 2.24zm-.78-4.44h-2.8l-.81-7.5v-4.8h4.42v4.8z"/><path class="cls-38" d="M389.33 50.79h65.16l5.85 5.75v11.01h-71.01V50.79z"/><g class="cls-39"><path class="cls-33" d="M199.31-205.45h572.62v493.32H199.31z"/><path class="cls-40" d="M199.31-205.45h572.62v493.32H199.31z"/></g><path class="cls-41" d="M389.33 50.79h65.16l5.85 5.75v11.01h-71.01V50.79z"/></svg>