<svg xmlns="http://www.w3.org/2000/svg" xmlns:xlink="http://www.w3.org/1999/xlink" viewBox="0 0 276 137"><defs><path id="a" d="M-225.5-470h-1.5v90h134v-90h-132.5zm0 3h131l-1.5-1.5v87l1.5-1.5h-131l1.5 1.5v-87l-1.5 1.5zm-21.5-23h174v130h-174v-130z"/></defs><clipPath id="b"><use xlink:href="#a" overflow="visible"/></clipPath><g clip-path="url(#b)"><defs><path id="c" d="M-225.5-468.5h131v87h-131z"/></defs></g><defs><path id="d" d="M-225.5-468.5h131v87h-131z"/></defs><defs><path id="e" d="M-220.5-465h-1.5v80h124v-80h-122.5zm0 3h121l-1.5-1.5v77l1.5-1.5h-121l1.5 1.5v-77l-1.5 1.5zm-21.5-23h164v120h-164v-120z"/></defs><clipPath id="f"><use xlink:href="#e" overflow="visible"/></clipPath><g clip-path="url(#f)"><defs><path id="g" d="M-220.5-463.5h121v77h-121z"/></defs></g><defs><path id="h" d="M-220.5-463.5h121v77h-121z"/></defs><defs><path id="i" d="M-155.5-450h-1.5v6h47v-6h-45.5zm0 3h44l-1.5-1.5v3l1.5-1.5h-44l1.5 1.5v-3l-1.5 1.5zm-21.5-23h87v46h-87v-46z"/></defs><clipPath id="j"><use xlink:href="#i" overflow="visible"/></clipPath><g clip-path="url(#j)"><defs><path id="k" d="M-155.5-448.5h44v3h-44z"/></defs></g><defs><path id="l" d="M-155.5-448.5h44v3h-44z"/></defs><defs><path id="m" d="M-155.5-444h-1.5v6h47v-6h-45.5zm0 3h44l-1.5-1.5v3l1.5-1.5h-44l1.5 1.5v-3l-1.5 1.5zm-21.5-23h87v46h-87v-46z"/></defs><clipPath id="n"><use xlink:href="#m" overflow="visible"/></clipPath><g clip-path="url(#n)"><defs><path id="o" d="M-155.5-442.5h44v3h-44z"/></defs></g><defs><path id="p" d="M-155.5-442.5h44v3h-44z"/></defs><defs><path id="q" d="M-155.5-438h-1.5v6h47v-6h-45.5zm0 3h44l-1.5-1.5v3l1.5-1.5h-44l1.5 1.5v-3l-1.5 1.5zm-21.5-23h87v46h-87v-46z"/></defs><clipPath id="r"><use xlink:href="#q" overflow="visible"/></clipPath><g clip-path="url(#r)"><defs><path id="s" d="M-155.5-436.5h44v3h-44z"/></defs></g><defs><path id="t" d="M-155.5-436.5h44v3h-44z"/></defs><defs><path id="u" d="M-155.5-432h-1.5v6h47v-6h-45.5zm0 3h44l-1.5-1.5v3l1.5-1.5h-44l1.5 1.5v-3l-1.5 1.5zm-21.5-23h87v46h-87v-46z"/></defs><clipPath id="v"><use xlink:href="#u" overflow="visible"/></clipPath><g clip-path="url(#v)"><defs><path id="w" d="M-155.5-430.5h44v3h-44z"/></defs></g><defs><path id="x" d="M-155.5-430.5h44v3h-44z"/></defs><defs><path id="y" d="M68.1-470h-1.5v90h134v-90H68.1zm0 3h131l-1.5-1.5v87l1.5-1.5h-131l1.5 1.5v-87l-1.5 1.5zm-21.5-23h174v130h-174v-130z"/></defs><clipPath id="z"><use xlink:href="#y" overflow="visible"/></clipPath><g clip-path="url(#z)"><defs><path id="A" d="M68.1-468.5h131v87h-131z"/></defs></g><defs><path id="B" d="M68.1-468.5h131v87h-131z"/></defs><defs><path id="C" d="M73.1-465h-1.5v80h124v-80H73.1zm0 3h121l-1.5-1.5v77l1.5-1.5h-121l1.5 1.5v-77l-1.5 1.5zm-21.5-23h164v120h-164v-120z"/></defs><clipPath id="D"><use xlink:href="#C" overflow="visible"/></clipPath><g clip-path="url(#D)"><defs><path id="E" d="M73.1-463.5h121v77h-121z"/></defs></g><defs><path id="F" d="M73.1-463.5h121v77h-121z"/></defs><defs><path id="G" d="M138.1-450h-1.5v6h47v-6h-45.5zm0 3h44l-1.5-1.5v3l1.5-1.5h-44l1.5 1.5v-3l-1.5 1.5zm-21.5-23h87v46h-87v-46z"/></defs><clipPath id="H"><use xlink:href="#G" overflow="visible"/></clipPath><g clip-path="url(#H)"><defs><path id="I" d="M138.1-448.5h44v3h-44z"/></defs></g><defs><path id="J" d="M138.1-448.5h44v3h-44z"/></defs><defs><path id="K" d="M138.1-444h-1.5v6h47v-6h-45.5zm0 3h44l-1.5-1.5v3l1.5-1.5h-44l1.5 1.5v-3l-1.5 1.5zm-21.5-23h87v46h-87v-46z"/></defs><clipPath id="L"><use xlink:href="#K" overflow="visible"/></clipPath><g clip-path="url(#L)"><defs><path id="M" d="M138.1-442.5h44v3h-44z"/></defs></g><defs><path id="N" d="M138.1-442.5h44v3h-44z"/></defs><defs><path id="O" d="M138.1-438h-1.5v6h47v-6h-45.5zm0 3h44l-1.5-1.5v3l1.5-1.5h-44l1.5 1.5v-3l-1.5 1.5zm-21.5-23h87v46h-87v-46z"/></defs><clipPath id="P"><use xlink:href="#O" overflow="visible"/></clipPath><g clip-path="url(#P)"><defs><path id="Q" d="M138.1-436.5h44v3h-44z"/></defs></g><defs><path id="R" d="M138.1-436.5h44v3h-44z"/></defs><defs><path id="S" d="M138.1-432h-1.5v6h47v-6h-45.5zm0 3h44l-1.5-1.5v3l1.5-1.5h-44l1.5 1.5v-3l-1.5 1.5zm-21.5-23h87v46h-87v-46z"/></defs><clipPath id="T"><use xlink:href="#S" overflow="visible"/></clipPath><g clip-path="url(#T)"><defs><path id="U" d="M138.1-430.5h44v3h-44z"/></defs></g><defs><path id="V" d="M138.1-430.5h44v3h-44z"/></defs><path fill="#FFF" stroke="#0F1F2D" stroke-width="3" stroke-miterlimit="10" d="M86.6 26.5h99v65.9h-99z"/><path fill="#FFF" stroke="#0F1F2D" stroke-width="3" stroke-miterlimit="10" d="M92.7 31.6h86.8v55.8H92.7zm30.5 60.8H149v15.7h-25.8z"/><path fill="#FFF" stroke="#0F1F2D" stroke-width="3" stroke-miterlimit="10" d="M115.5 108.1h41.3v4.5h-41.3zm24.7-61.4h28.2m-28.2 12h28.2m-28.2 13h28.2"/><path fill="none" stroke="#0C1F2E" stroke-width="3" stroke-linecap="round" stroke-miterlimit="10" d="M120 61.4h-6.3l-4.5 3.3v7.8h15.2v-7.6z"/><circle fill="none" stroke="#0C1F2E" stroke-width="3" stroke-linecap="round" stroke-miterlimit="10" cx="116.7" cy="54.4" r="4"/><path fill="none" stroke="#0C1F2E" stroke-width="3" stroke-linecap="round" stroke-miterlimit="10" d="M103.3 46.2h26.4v26.4h-26.4z"/></svg>