<svg xmlns="http://www.w3.org/2000/svg" xmlns:xlink="http://www.w3.org/1999/xlink" viewBox="0 0 276 137"><defs><path id="a" d="M83.4-295.3h-1.5v84h108v-84H83.4zm0 3h105l-1.5-1.5v81l1.5-1.5h-105l1.5 1.5v-81l-1.5 1.5zm-21.5-23h148v124h-148v-124z"/></defs><clipPath id="b"><use xlink:href="#a" overflow="visible"/></clipPath><g clip-path="url(#b)"><defs><path id="c" d="M83.4-293.8h105v81h-105z"/></defs><clipPath id="d"><use xlink:href="#c" overflow="visible"/></clipPath><g clip-path="url(#d)"><defs><path id="e" d="M-797.6-792.8h1121v1030h-1121z"/></defs></g></g><defs><path id="f" d="M83.4-293.8h105v81h-105z"/></defs><clipPath id="g"><use xlink:href="#f" overflow="visible"/></clipPath><g clip-path="url(#g)"><defs><path id="h" d="M-797.6-792.8h1121v1030h-1121z"/></defs></g><defs><path id="i" d="M77.4-278.3h-2.2l.9-2.1 9.1-22 .4-.9h100.9l.4.9 9.1 22 .9 2.1H77.4zm0-3h117l-1.4 2.1-9.1-22 1.4.9H86.5l1.4-.9-9.1 22-1.4-2.1zm-22.3 23h161.5v-65H55.1v65z"/></defs><clipPath id="j"><use xlink:href="#i" overflow="visible"/></clipPath><g clip-path="url(#j)"><defs><path id="k" d="M77.4-279.8h117l-9.1-22H86.5z"/></defs><clipPath id="l"><use xlink:href="#k" overflow="visible"/></clipPath><g clip-path="url(#l)"><defs><path id="m" d="M-797.6-792.8h1121v1030h-1121z"/></defs></g></g><defs><path id="n" d="M77.4-279.8h117l-9.1-22H86.5z"/></defs><clipPath id="o"><use xlink:href="#n" overflow="visible"/></clipPath><g clip-path="url(#o)"><defs><path id="p" d="M-797.6-792.8h1121v1030h-1121z"/></defs></g><defs><path id="q" d="M162.4-311.3h-1.5v19h15v-19h-13.5zm0 3h12l-1.5-1.5v16l1.5-1.5h-12l1.5 1.5v-16l-1.5 1.5zm-21.5-23h55v59h-55v-59z"/></defs><clipPath id="r"><use xlink:href="#q" overflow="visible"/></clipPath><g clip-path="url(#r)"><defs><path id="s" d="M162.4-309.8h12v16h-12z"/></defs><clipPath id="t"><use xlink:href="#s" overflow="visible"/></clipPath><g clip-path="url(#t)"><defs><path id="u" d="M-797.6-792.8h1121v1030h-1121z"/></defs></g></g><defs><path id="v" d="M162.4-309.8h12v16h-12z"/></defs><clipPath id="w"><use xlink:href="#v" overflow="visible"/></clipPath><g clip-path="url(#w)"><defs><path id="x" d="M-797.6-792.8h1121v1030h-1121z"/></defs></g><defs><path id="y" d="M96.4-245.3h-1.5v34h24v-34H96.4zm0 3h21l-1.5-1.5v31l1.5-1.5h-21l1.5 1.5v-31l-1.5 1.5zm-21.5-23h64v74h-64v-74z"/></defs><clipPath id="z"><use xlink:href="#y" overflow="visible"/></clipPath><g clip-path="url(#z)"><defs><path id="A" d="M96.4-243.8h21v31h-21z"/></defs><clipPath id="B"><use xlink:href="#A" overflow="visible"/></clipPath><g clip-path="url(#B)"><defs><path id="C" d="M-797.6-792.8h1121v1030h-1121z"/></defs></g></g><defs><path id="D" d="M96.4-243.8h21v31h-21z"/></defs><clipPath id="E"><use xlink:href="#D" overflow="visible"/></clipPath><g clip-path="url(#E)"><defs><path id="F" d="M-797.6-792.8h1121v1030h-1121z"/></defs></g><defs><path id="G" d="M97.4-273.3h-1.5v22h22v-22H97.4zm0 3h19l-1.5-1.5v19l1.5-1.5h-19l1.5 1.5v-19l-1.5 1.5zm-21.5-23h62v62h-62v-62z"/></defs><clipPath id="H"><use xlink:href="#G" overflow="visible"/></clipPath><g clip-path="url(#H)"><defs><path id="I" d="M97.4-271.8h19v19h-19z"/></defs><clipPath id="J"><use xlink:href="#I" overflow="visible"/></clipPath><g clip-path="url(#J)"><defs><path id="K" d="M-797.6-792.8h1121v1030h-1121z"/></defs></g></g><defs><path id="L" d="M97.4-271.8h19v19h-19z"/></defs><clipPath id="M"><use xlink:href="#L" overflow="visible"/></clipPath><g clip-path="url(#M)"><defs><path id="N" d="M-797.6-792.8h1121v1030h-1121z"/></defs></g><defs><path id="O" d="M102.4-268.3h-1.5v12h12v-12h-10.5zm0 3h9l-1.5-1.5v9l1.5-1.5h-9l1.5 1.5v-9l-1.5 1.5zm-21.5-23h52v52h-52v-52z"/></defs><clipPath id="P"><use xlink:href="#O" overflow="visible"/></clipPath><g clip-path="url(#P)"><defs><path id="Q" d="M102.4-266.8h9v9h-9z"/></defs><clipPath id="R"><use xlink:href="#Q" overflow="visible"/></clipPath><g clip-path="url(#R)"><defs><path id="S" d="M-797.6-792.8h1121v1030h-1121z"/></defs></g></g><defs><path id="T" d="M102.4-266.8h9v9h-9z"/></defs><clipPath id="U"><use xlink:href="#T" overflow="visible"/></clipPath><g clip-path="url(#U)"><defs><path id="V" d="M-797.6-792.8h1121v1030h-1121z"/></defs></g><defs><path id="W" d="M127.4-273.3h-1.5v22h22v-22h-20.5zm0 3h19l-1.5-1.5v19l1.5-1.5h-19l1.5 1.5v-19l-1.5 1.5zm-21.5-23h62v62h-62v-62z"/></defs><clipPath id="X"><use xlink:href="#W" overflow="visible"/></clipPath><g clip-path="url(#X)"><defs><path id="Y" d="M127.4-271.8h19v19h-19z"/></defs><clipPath id="Z"><use xlink:href="#Y" overflow="visible"/></clipPath><g clip-path="url(#Z)"><defs><path id="aa" d="M-797.6-792.8h1121v1030h-1121z"/></defs></g></g><defs><path id="ab" d="M127.4-271.8h19v19h-19z"/></defs><clipPath id="ac"><use xlink:href="#ab" overflow="visible"/></clipPath><g clip-path="url(#ac)"><defs><path id="ad" d="M-797.6-792.8h1121v1030h-1121z"/></defs></g><defs><path id="ae" d="M156.4-273.3h-1.5v22h22v-22h-20.5zm0 3h19l-1.5-1.5v19l1.5-1.5h-19l1.5 1.5v-19l-1.5 1.5zm-21.5-23h62v62h-62v-62z"/></defs><clipPath id="af"><use xlink:href="#ae" overflow="visible"/></clipPath><g clip-path="url(#af)"><defs><path id="ag" d="M156.4-271.8h19v19h-19z"/></defs><clipPath id="ah"><use xlink:href="#ag" overflow="visible"/></clipPath><g clip-path="url(#ah)"><defs><path id="ai" d="M-797.6-792.8h1121v1030h-1121z"/></defs></g></g><defs><path id="aj" d="M156.4-271.8h19v19h-19z"/></defs><clipPath id="ak"><use xlink:href="#aj" overflow="visible"/></clipPath><g clip-path="url(#ak)"><defs><path id="al" d="M-797.6-792.8h1121v1030h-1121z"/></defs></g><defs><path id="am" d="M127.4-245.3h-1.5v22h22v-22h-20.5zm0 3h19l-1.5-1.5v19l1.5-1.5h-19l1.5 1.5v-19l-1.5 1.5zm-21.5-23h62v62h-62v-62z"/></defs><clipPath id="an"><use xlink:href="#am" overflow="visible"/></clipPath><g clip-path="url(#an)"><defs><path id="ao" d="M127.4-243.8h19v19h-19z"/></defs><clipPath id="ap"><use xlink:href="#ao" overflow="visible"/></clipPath><g clip-path="url(#ap)"><defs><path id="aq" d="M-797.6-792.8h1121v1030h-1121z"/></defs></g></g><defs><path id="ar" d="M127.4-243.8h19v19h-19z"/></defs><clipPath id="as"><use xlink:href="#ar" overflow="visible"/></clipPath><g clip-path="url(#as)"><defs><path id="at" d="M-797.6-792.8h1121v1030h-1121z"/></defs></g><defs><path id="au" d="M156.4-245.3h-1.5v22h22v-22h-20.5zm0 3h19l-1.5-1.5v19l1.5-1.5h-19l1.5 1.5v-19l-1.5 1.5zm-21.5-23h62v62h-62v-62z"/></defs><clipPath id="av"><use xlink:href="#au" overflow="visible"/></clipPath><g clip-path="url(#av)"><defs><path id="aw" d="M156.4-243.8h19v19h-19z"/></defs><clipPath id="ax"><use xlink:href="#aw" overflow="visible"/></clipPath><g clip-path="url(#ax)"><defs><path id="ay" d="M-797.6-792.8h1121v1030h-1121z"/></defs></g></g><defs><path id="az" d="M156.4-243.8h19v19h-19z"/></defs><clipPath id="aA"><use xlink:href="#az" overflow="visible"/></clipPath><g clip-path="url(#aA)"><defs><path id="aB" d="M-797.6-792.8h1121v1030h-1121z"/></defs></g><g><defs><path id="aC" d="M132.4-268.3h-1.5v12h12v-12h-10.5zm0 3h9l-1.5-1.5v9l1.5-1.5h-9l1.5 1.5v-9l-1.5 1.5zm-21.5-23h52v52h-52v-52z"/></defs><clipPath id="aD"><use xlink:href="#aC" overflow="visible"/></clipPath><g clip-path="url(#aD)"><defs><path id="aE" d="M132.4-266.8h9v9h-9z"/></defs><clipPath id="aF"><use xlink:href="#aE" overflow="visible"/></clipPath><g clip-path="url(#aF)"><defs><path id="aG" d="M-797.6-792.8h1121v1030h-1121z"/></defs></g></g></g><g><defs><path id="aH" d="M132.4-266.8h9v9h-9z"/></defs><clipPath id="aI"><use xlink:href="#aH" overflow="visible"/></clipPath><g clip-path="url(#aI)"><defs><path id="aJ" d="M-797.6-792.8h1121v1030h-1121z"/></defs></g></g><g><defs><path id="aK" d="M161.4-268.3h-1.5v12h12v-12h-10.5zm0 3h9l-1.5-1.5v9l1.5-1.5h-9l1.5 1.5v-9l-1.5 1.5zm-21.5-23h52v52h-52v-52z"/></defs><clipPath id="aL"><use xlink:href="#aK" overflow="visible"/></clipPath><g clip-path="url(#aL)"><defs><path id="aM" d="M161.4-266.8h9v9h-9z"/></defs><clipPath id="aN"><use xlink:href="#aM" overflow="visible"/></clipPath><g clip-path="url(#aN)"><defs><path id="aO" d="M-797.6-792.8h1121v1030h-1121z"/></defs></g></g></g><g><defs><path id="aP" d="M161.4-266.8h9v9h-9z"/></defs><clipPath id="aQ"><use xlink:href="#aP" overflow="visible"/></clipPath><g clip-path="url(#aQ)"><defs><path id="aR" d="M-797.6-792.8h1121v1030h-1121z"/></defs></g></g><g><defs><path id="aS" d="M132.4-240.3h-1.5v12h12v-12h-10.5zm0 3h9l-1.5-1.5v9l1.5-1.5h-9l1.5 1.5v-9l-1.5 1.5zm-21.5-23h52v52h-52v-52z"/></defs><clipPath id="aT"><use xlink:href="#aS" overflow="visible"/></clipPath><g clip-path="url(#aT)"><defs><path id="aU" d="M132.4-238.8h9v9h-9z"/></defs><clipPath id="aV"><use xlink:href="#aU" overflow="visible"/></clipPath><g clip-path="url(#aV)"><defs><path id="aW" d="M-797.6-792.8h1121v1030h-1121z"/></defs></g></g></g><g><defs><path id="aX" d="M132.4-238.8h9v9h-9z"/></defs><clipPath id="aY"><use xlink:href="#aX" overflow="visible"/></clipPath><g clip-path="url(#aY)"><defs><path id="aZ" d="M-797.6-792.8h1121v1030h-1121z"/></defs></g></g><g><defs><path id="ba" d="M161.4-240.3h-1.5v12h12v-12h-10.5zm0 3h9l-1.5-1.5v9l1.5-1.5h-9l1.5 1.5v-9l-1.5 1.5zm-21.5-23h52v52h-52v-52z"/></defs><clipPath id="bb"><use xlink:href="#ba" overflow="visible"/></clipPath><g clip-path="url(#bb)"><defs><path id="bc" d="M161.4-238.8h9v9h-9z"/></defs><clipPath id="bd"><use xlink:href="#bc" overflow="visible"/></clipPath><g clip-path="url(#bd)"><defs><path id="be" d="M-797.6-792.8h1121v1030h-1121z"/></defs></g></g></g><g><defs><path id="bf" d="M161.4-238.8h9v9h-9z"/></defs><clipPath id="bg"><use xlink:href="#bf" overflow="visible"/></clipPath><g clip-path="url(#bg)"><defs><path id="bh" d="M-797.6-792.8h1121v1030h-1121z"/></defs></g></g><g><defs><path id="bi" d="M-225.5 23.5h-1.5v90h134v-90h-132.5zm0 3h131L-96 25v87l1.5-1.5h-131l1.5 1.5V25l-1.5 1.5zm-21.5-23h174v130h-174V3.5z"/></defs><clipPath id="bj"><use xlink:href="#bi" overflow="visible"/></clipPath><g clip-path="url(#bj)"><defs><path id="bk" d="M-225.5 25h131v87h-131z"/></defs><clipPath id="bl"><use xlink:href="#bk" overflow="visible"/></clipPath><g clip-path="url(#bl)"><defs><path id="bm" d="M-834.5-279h1121V751h-1121z"/></defs></g></g></g><g><defs><path id="bn" d="M-225.5 25h131v87h-131z"/></defs><clipPath id="bo"><use xlink:href="#bn" overflow="visible"/></clipPath><g clip-path="url(#bo)"><defs><path id="bp" d="M-834.5-279h1121V751h-1121z"/></defs></g></g><g><defs><path id="bq" d="M-220.5 28.5h-1.5v80h124v-80h-122.5zm0 3h121L-101 30v77l1.5-1.5h-121l1.5 1.5V30l-1.5 1.5zm-21.5-23h164v120h-164V8.5z"/></defs><clipPath id="br"><use xlink:href="#bq" overflow="visible"/></clipPath><g clip-path="url(#br)"><defs><path id="bs" d="M-220.5 30h121v77h-121z"/></defs><clipPath id="bt"><use xlink:href="#bs" overflow="visible"/></clipPath><g clip-path="url(#bt)"><defs><path id="bu" d="M-834.5-279h1121V751h-1121z"/></defs></g></g></g><g><defs><path id="bv" d="M-220.5 30h121v77h-121z"/></defs><clipPath id="bw"><use xlink:href="#bv" overflow="visible"/></clipPath><g clip-path="url(#bw)"><defs><path id="bx" d="M-834.5-279h1121V751h-1121z"/></defs></g></g><g><defs><path id="by" d="M-155.5 43.5h-1.5v6h47v-6h-45.5zm0 3h44L-113 45v3l1.5-1.5h-44l1.5 1.5v-3l-1.5 1.5zm-21.5-23h87v46h-87v-46z"/></defs><clipPath id="bz"><use xlink:href="#by" overflow="visible"/></clipPath><g clip-path="url(#bz)"><defs><path id="bA" d="M-155.5 45h44v3h-44z"/></defs><clipPath id="bB"><use xlink:href="#bA" overflow="visible"/></clipPath><g clip-path="url(#bB)"><defs><path id="bC" d="M-834.5-279h1121V751h-1121z"/></defs></g></g></g><g><defs><path id="bD" d="M-155.5 45h44v3h-44z"/></defs><clipPath id="bE"><use xlink:href="#bD" overflow="visible"/></clipPath><g clip-path="url(#bE)"><defs><path id="bF" d="M-834.5-279h1121V751h-1121z"/></defs></g></g><g><defs><path id="bG" d="M-155.5 49.5h-1.5v6h47v-6h-45.5zm0 3h44L-113 51v3l1.5-1.5h-44l1.5 1.5v-3l-1.5 1.5zm-21.5-23h87v46h-87v-46z"/></defs><clipPath id="bH"><use xlink:href="#bG" overflow="visible"/></clipPath><g clip-path="url(#bH)"><defs><path id="bI" d="M-155.5 51h44v3h-44z"/></defs><clipPath id="bJ"><use xlink:href="#bI" overflow="visible"/></clipPath><g clip-path="url(#bJ)"><defs><path id="bK" d="M-834.5-279h1121V751h-1121z"/></defs></g></g></g><g><defs><path id="bL" d="M-155.5 51h44v3h-44z"/></defs><clipPath id="bM"><use xlink:href="#bL" overflow="visible"/></clipPath><g clip-path="url(#bM)"><defs><path id="bN" d="M-834.5-279h1121V751h-1121z"/></defs></g></g><g><defs><path id="bO" d="M-155.5 55.5h-1.5v6h47v-6h-45.5zm0 3h44L-113 57v3l1.5-1.5h-44l1.5 1.5v-3l-1.5 1.5zm-21.5-23h87v46h-87v-46z"/></defs><clipPath id="bP"><use xlink:href="#bO" overflow="visible"/></clipPath><g clip-path="url(#bP)"><defs><path id="bQ" d="M-155.5 57h44v3h-44z"/></defs><clipPath id="bR"><use xlink:href="#bQ" overflow="visible"/></clipPath><g clip-path="url(#bR)"><defs><path id="bS" d="M-834.5-279h1121V751h-1121z"/></defs></g></g></g><g><defs><path id="bT" d="M-155.5 57h44v3h-44z"/></defs><clipPath id="bU"><use xlink:href="#bT" overflow="visible"/></clipPath><g clip-path="url(#bU)"><defs><path id="bV" d="M-834.5-279h1121V751h-1121z"/></defs></g></g><g><defs><path id="bW" d="M-155.5 61.5h-1.5v6h47v-6h-45.5zm0 3h44L-113 63v3l1.5-1.5h-44l1.5 1.5v-3l-1.5 1.5zm-21.5-23h87v46h-87v-46z"/></defs><clipPath id="bX"><use xlink:href="#bW" overflow="visible"/></clipPath><g clip-path="url(#bX)"><defs><path id="bY" d="M-155.5 63h44v3h-44z"/></defs><clipPath id="bZ"><use xlink:href="#bY" overflow="visible"/></clipPath><g clip-path="url(#bZ)"><defs><path id="ca" d="M-834.5-279h1121V751h-1121z"/></defs></g></g></g><g><defs><path id="cb" d="M-155.5 63h44v3h-44z"/></defs><clipPath id="cc"><use xlink:href="#cb" overflow="visible"/></clipPath><g clip-path="url(#cc)"><defs><path id="cd" d="M-834.5-279h1121V751h-1121z"/></defs></g></g><g><defs><path id="ce" d="M68.1 23.5h-1.5v90h134v-90H68.1zm0 3h131l-1.5-1.5v87l1.5-1.5h-131l1.5 1.5V25l-1.5 1.5zm-21.5-23h174v130h-174V3.5z"/></defs><clipPath id="cf"><use xlink:href="#ce" overflow="visible"/></clipPath><g clip-path="url(#cf)"><defs><path id="cg" d="M68.1 25h131v87h-131z"/></defs><clipPath id="ch"><use xlink:href="#cg" overflow="visible"/></clipPath><g clip-path="url(#ch)"><defs><path id="ci" d="M-540.9-279h1121V751h-1121z"/></defs><clipPath id="cj"><use xlink:href="#ci" overflow="visible"/></clipPath><g clip-path="url(#cj)"><path fill-rule="evenodd" clip-rule="evenodd" fill="#FFF" d="M68.1 25h131v87h-131z"/></g></g></g></g><g><defs><path id="ck" d="M68.1 25h131v87h-131z"/></defs><clipPath id="cl"><use xlink:href="#ck" overflow="visible"/></clipPath><g clip-path="url(#cl)"><defs><path id="cm" d="M-540.9-279h1121V751h-1121z"/></defs><clipPath id="cn"><use xlink:href="#cm" overflow="visible"/></clipPath><g clip-path="url(#cn)"><path fill="#0C1F2E" d="M202.1 115h-137V22h137v93zm-131-6h125V28h-125v81z"/></g></g></g><g><defs><path id="co" d="M73.1 28.5h-1.5v80h124v-80H73.1zm0 3h121l-1.5-1.5v77l1.5-1.5h-121l1.5 1.5V30l-1.5 1.5zm-21.5-23h164v120h-164V8.5z"/></defs><clipPath id="cp"><use xlink:href="#co" overflow="visible"/></clipPath><g clip-path="url(#cp)"><defs><path id="cq" d="M73.1 30h121v77h-121z"/></defs><clipPath id="cr"><use xlink:href="#cq" overflow="visible"/></clipPath><g clip-path="url(#cr)"><defs><path id="cs" d="M-540.9-279h1121V751h-1121z"/></defs><clipPath id="ct"><use xlink:href="#cs" overflow="visible"/></clipPath><g clip-path="url(#ct)"><path fill-rule="evenodd" clip-rule="evenodd" fill="#FFF" d="M73.1 30h121v77h-121z"/></g></g></g></g><g><defs><path id="cu" d="M73.1 30h121v77h-121z"/></defs><clipPath id="cv"><use xlink:href="#cu" overflow="visible"/></clipPath><g clip-path="url(#cv)"><defs><path id="cw" d="M-540.9-279h1121V751h-1121z"/></defs><clipPath id="cx"><use xlink:href="#cw" overflow="visible"/></clipPath><g clip-path="url(#cx)"><path fill="#0C1F2E" d="M197.1 110h-127V27h127v83zm-121-6h115V33h-115v71z"/></g></g></g><g><defs><path id="cy" d="M138.1 43.5h-1.5v6h47v-6h-45.5zm0 3h44l-1.5-1.5v3l1.5-1.5h-44l1.5 1.5v-3l-1.5 1.5zm-21.5-23h87v46h-87v-46z"/></defs><clipPath id="cz"><use xlink:href="#cy" overflow="visible"/></clipPath><g clip-path="url(#cz)"><defs><path id="cA" d="M138.1 45h44v3h-44z"/></defs><clipPath id="cB"><use xlink:href="#cA" overflow="visible"/></clipPath><g clip-path="url(#cB)"><defs><path id="cC" d="M-540.9-279h1121V751h-1121z"/></defs><clipPath id="cD"><use xlink:href="#cC" overflow="visible"/></clipPath><g clip-path="url(#cD)"><path fill-rule="evenodd" clip-rule="evenodd" fill="#FFF" d="M138.1 45h44v3h-44z"/></g></g></g></g><g><defs><path id="cE" d="M138.1 45h44v3h-44z"/></defs><clipPath id="cF"><use xlink:href="#cE" overflow="visible"/></clipPath><g clip-path="url(#cF)"><defs><path id="cG" d="M-540.9-279h1121V751h-1121z"/></defs><clipPath id="cH"><use xlink:href="#cG" overflow="visible"/></clipPath><g clip-path="url(#cH)"><path fill="#0C1F2E" d="M135.1 42h50v9h-50z"/></g></g></g><g><defs><path id="cI" d="M138.1 49.5h-1.5v6h47v-6h-45.5zm0 3h44l-1.5-1.5v3l1.5-1.5h-44l1.5 1.5v-3l-1.5 1.5zm-21.5-23h87v46h-87v-46z"/></defs><clipPath id="cJ"><use xlink:href="#cI" overflow="visible"/></clipPath><g clip-path="url(#cJ)"><defs><path id="cK" d="M138.1 51h44v3h-44z"/></defs><clipPath id="cL"><use xlink:href="#cK" overflow="visible"/></clipPath><g clip-path="url(#cL)"><defs><path id="cM" d="M-540.9-279h1121V751h-1121z"/></defs><clipPath id="cN"><use xlink:href="#cM" overflow="visible"/></clipPath><g clip-path="url(#cN)"><path fill-rule="evenodd" clip-rule="evenodd" fill="#FFF" d="M138.1 51h44v3h-44z"/></g></g></g></g><g><defs><path id="cO" d="M138.1 51h44v3h-44z"/></defs><clipPath id="cP"><use xlink:href="#cO" overflow="visible"/></clipPath><g clip-path="url(#cP)"><defs><path id="cQ" d="M-540.9-279h1121V751h-1121z"/></defs><clipPath id="cR"><use xlink:href="#cQ" overflow="visible"/></clipPath><g clip-path="url(#cR)"><path fill="#0C1F2E" d="M135.1 48h50v9h-50z"/></g></g></g><g><defs><path id="cS" d="M138.1 55.5h-1.5v6h47v-6h-45.5zm0 3h44l-1.5-1.5v3l1.5-1.5h-44l1.5 1.5v-3l-1.5 1.5zm-21.5-23h87v46h-87v-46z"/></defs><clipPath id="cT"><use xlink:href="#cS" overflow="visible"/></clipPath><g clip-path="url(#cT)"><defs><path id="cU" d="M138.1 57h44v3h-44z"/></defs><clipPath id="cV"><use xlink:href="#cU" overflow="visible"/></clipPath><g clip-path="url(#cV)"><defs><path id="cW" d="M-540.9-279h1121V751h-1121z"/></defs><clipPath id="cX"><use xlink:href="#cW" overflow="visible"/></clipPath><g clip-path="url(#cX)"><path fill-rule="evenodd" clip-rule="evenodd" fill="#FFF" d="M138.1 57h44v3h-44z"/></g></g></g></g><g><defs><path id="cY" d="M138.1 57h44v3h-44z"/></defs><clipPath id="cZ"><use xlink:href="#cY" overflow="visible"/></clipPath><g clip-path="url(#cZ)"><defs><path id="da" d="M-540.9-279h1121V751h-1121z"/></defs><clipPath id="db"><use xlink:href="#da" overflow="visible"/></clipPath><g clip-path="url(#db)"><path fill="#0C1F2E" d="M135.1 54h50v9h-50z"/></g></g></g><g><defs><path id="dc" d="M138.1 61.5h-1.5v6h47v-6h-45.5zm0 3h44l-1.5-1.5v3l1.5-1.5h-44l1.5 1.5v-3l-1.5 1.5zm-21.5-23h87v46h-87v-46z"/></defs><clipPath id="dd"><use xlink:href="#dc" overflow="visible"/></clipPath><g clip-path="url(#dd)"><defs><path id="de" d="M138.1 63h44v3h-44z"/></defs><clipPath id="df"><use xlink:href="#de" overflow="visible"/></clipPath><g clip-path="url(#df)"><defs><path id="dg" d="M-540.9-279h1121V751h-1121z"/></defs><clipPath id="dh"><use xlink:href="#dg" overflow="visible"/></clipPath><g clip-path="url(#dh)"><path fill-rule="evenodd" clip-rule="evenodd" fill="#FFF" d="M138.1 63h44v3h-44z"/></g></g></g></g><g><defs><path id="di" d="M138.1 63h44v3h-44z"/></defs><clipPath id="dj"><use xlink:href="#di" overflow="visible"/></clipPath><g clip-path="url(#dj)"><defs><path id="dk" d="M-540.9-279h1121V751h-1121z"/></defs><clipPath id="dl"><use xlink:href="#dk" overflow="visible"/></clipPath><g clip-path="url(#dl)"><path fill="#0C1F2E" d="M135.1 60h50v9h-50z"/></g></g></g><g><path fill="#042A3E" d="M141.1 86.7v.5c0 .2 0 .3-.1.4l1.1-.1v.6h-3.2v-.4c.2 0 .4 0 .6-.1s.3-.2.4-.3.2-.3.2-.5.1-.4.1-.6l.3-6.1-1.6 1-.2-.4 2.5-1.9h.4l-.5 7.9zM143.5 80.7c0-.2.1-.4.2-.7.1-.2.3-.4.5-.6s.5-.4.9-.5c.3-.1.8-.2 1.2-.2.3 0 .6 0 1 .1.3.1.6.2.8.4.2.2.4.4.6.7.1.3.2.6.2 1 0 .2 0 .5-.1.7-.1.3-.2.5-.4.8s-.5.6-.8 1c-.3.3-.8.7-1.3 1.1-.6.5-1.1.9-1.5 1.3-.4.4-.6.8-.7 1.2l3 .1h.6c.2 0 .3-.1.5-.1s.2-.2.3-.3c.1-.1.1-.3.1-.5h.4l-.2 1.8h-5.6c0-.5.1-.9.3-1.2.2-.4.4-.7.6-1s.5-.6.9-.9c.3-.3.7-.6 1-.9.3-.2.5-.5.8-.8.2-.3.4-.5.6-.8s.3-.5.4-.8c.1-.2.1-.5.1-.7 0-.2 0-.5-.1-.7-.1-.2-.1-.4-.3-.6-.1-.2-.3-.3-.5-.4-.2-.1-.4-.1-.7-.1-.2 0-.3 0-.5.1-.2 0-.3.1-.5.2-.1.1-.3.2-.4.3-.1.1-.2.2-.2.4.1.1.1.2.2.3v.5c0 .1-.1.1-.1.2-.1.1-.1.1-.2.1s-.2.1-.2.1c-.2 0-.3-.1-.4-.2-.5 0-.5-.2-.5-.4zM151 86.9c0 .1.1.3.2.4s.2.2.4.3c.1.1.3.1.5.2.2 0 .3.1.5.1.3 0 .6-.1.9-.2s.5-.3.7-.4c.2-.2.3-.4.4-.7.1-.3.1-.6.1-.9v-.4c0-.1 0-.3-.1-.4 0-.1-.1-.3-.2-.4-.1-.1-.2-.3-.3-.4-.1-.1-.3-.2-.5-.2-.2-.1-.4-.1-.7-.1h-.9v-.6h.5c.3 0 .5 0 .7-.1.2-.1.4-.2.5-.3.1-.1.3-.2.4-.4.1-.1.2-.3.2-.4.1-.2.1-.3.1-.4v-.4c0-.2 0-.5-.1-.7 0-.2-.1-.4-.2-.5-.1-.2-.3-.3-.5-.4-.2-.1-.4-.1-.7-.1-.2 0-.4 0-.6.1-.2.1-.3.1-.5.2-.1.1-.3.2-.4.3-.1.1-.2.2-.2.3.1.1.1.2.1.3v.4c0 .1-.1.1-.1.2s-.1.1-.2.1h-.2c-.2 0-.3-.1-.4-.2-.1-.1-.2-.3-.2-.4 0-.2.1-.4.2-.6.1-.2.3-.4.5-.6.2-.2.5-.4.9-.5s.7-.2 1.2-.2c.3 0 .7 0 1 .1s.6.2.8.4c.2.2.4.4.6.7.1.3.2.6.2 1 0 .2 0 .4-.1.7-.1.2-.2.5-.4.7-.2.2-.4.4-.7.6-.3.2-.6.3-1 .4.4 0 .7.1 1.1.2s.6.3.8.5c.2.2.4.4.5.7.1.3.2.5.2.8 0 .3 0 .6-.1.9-.1.3-.2.5-.4.7-.2.2-.3.4-.6.6-.2.2-.4.3-.7.4-.2.1-.5.2-.8.3-.3.1-.5.1-.8.1-.4 0-.8-.1-1.2-.2-.3-.1-.6-.3-.8-.4-.2-.2-.4-.4-.5-.6-.1-.2-.2-.4-.2-.6 0-.2.1-.4.2-.5.1-.1.3-.2.5-.2.1 0 .2 0 .2.1.1 0 .1.1.2.1s.1.1.1.2v.5c0 .1-.1-.3-.1-.2zM158.3 86.7c0 .1-.1.2-.1.3 0 .1-.1.2-.1.2 0 .1-.1.1-.1.2s-.1.1-.1.2l1-.1v.6h-2.4v-.4c.2 0 .3 0 .4-.1.1-.1.2-.2.4-.3.1-.1.2-.3.3-.5.1-.2.2-.4.3-.7l2.9-7.3h.3l2.5 7.4c0 .1.1.2.1.3 0 .1.1.2.1.3 0 .1.1.2.1.4v.4l.8-.1v.6h-2.9v-.4c.2 0 .3 0 .4-.1s.2-.1.2-.1c.1-.1.1-.1.1-.2v-.2-.3c0-.1 0-.2-.1-.3l-.4-1.2-3.3.1-.4 1.3zM160 82c-.2.6-.4 1.1-.6 1.5s-.3.8-.5 1.2h3l-1.4-4.2-.5 1.5zM166.7 80.5v-.6c0-.2 0-.3.1-.4l-1 .1V79h2.9c.5 0 .9 0 1.3.1s.7.2 1 .4c.3.2.5.4.6.6.1.3.2.6.2.9 0 .2 0 .5-.1.7-.1.2-.2.4-.4.7s-.4.4-.7.5-.6.3-1 .3c.5 0 .9.1 1.2.2.3.1.6.3.8.5.2.2.4.4.5.7.1.3.2.6.2.9 0 .4-.1.8-.2 1.1-.2.3-.4.6-.7.8-.3.2-.6.4-1 .5-.4.1-.8.2-1.3.2h-3.8v-.4c.2 0 .4 0 .6-.1l.3-.3c.1-.1.1-.3.1-.5v-.7l.4-5.6zm.6 7H168.7c.4 0 .7 0 1-.1.3-.1.5-.2.7-.4.2-.2.4-.4.5-.7s.2-.6.2-.9c0-.4-.1-.6-.2-.9-.1-.2-.3-.4-.5-.6-.2-.1-.4-.2-.7-.3-.3-.1-.5-.1-.8-.1H167.6l-.2 2.9v.6c0 .2 0 .4-.1.5zm1.5-8.1c-.2 0-.4 0-.5.1-.1 0-.2.1-.3.2-.1.1-.1.2-.2.4 0 .2-.1.4-.1.6l-.1 2.4h1c.4 0 .7-.1 1-.2.3-.1.5-.3.6-.5s.3-.4.4-.6c.1-.2.1-.5.1-.7 0-.3-.1-.6-.2-.8s-.3-.4-.4-.5-.4-.2-.6-.2c-.3-.2-.5-.2-.7-.2zM181.4 86.4c-.3.4-.6.7-.9.9s-.7.4-1 .6-.7.2-1 .3c-.3.1-.6.1-.9.1-.6 0-1.2-.1-1.7-.3-.5-.2-.9-.5-1.3-.9s-.6-.8-.8-1.4c-.2-.5-.3-1.1-.3-1.7 0-.4 0-.8.1-1.3s.2-.8.4-1.2.4-.7.7-1.1l.9-.9c.3-.2.7-.4 1.2-.6.4-.1.9-.2 1.4-.2.5 0 1 .1 1.4.2.4.1.8.3 1.2.6v-.7h.7l-.2 3h-.5c0-.4-.1-.8-.2-1.1-.1-.3-.3-.6-.5-.8-.2-.2-.5-.4-.8-.5s-.6-.2-1-.2c-.5 0-.9.1-1.4.3-.4.2-.8.5-1.1.9-.3.4-.6.9-.8 1.4-.2.6-.3 1.2-.3 1.8 0 .6.1 1.1.3 1.6s.4.9.7 1.2c.3.3.6.6 1 .8.4.2.8.3 1.3.3.3 0 .6 0 .8-.1.3-.1.6-.2.8-.3s.5-.3.8-.5c.2-.2.5-.4.6-.6l.4.4z"/></g><g><circle fill-rule="evenodd" clip-rule="evenodd" fill="#FFF" cx="197.4" cy="106.8" r="17.7"/><path fill="#0C1F2E" d="M197.4 126c-10.6 0-19.2-8.6-19.2-19.2s8.6-19.2 19.2-19.2 19.2 8.6 19.2 19.2S208 126 197.4 126zm0-35.5c-9 0-16.2 7.3-16.2 16.2s7.3 16.2 16.2 16.2 16.2-7.3 16.2-16.2-7.2-16.2-16.2-16.2z"/></g><g><path fill-rule="evenodd" clip-rule="evenodd" fill="#FFF" d="M205.9 103.9c.4.9.6 1.9.6 3 0 4.6-3.7 8.3-8.3 8.4"/><path fill="#0C1F2E" d="M198.1 117c-.8 0-1.5-.8-1.5-1.6s.7-1.6 1.5-1.6c3.8 0 6.8-3.1 6.8-6.9 0-.8-.2-1.7-.5-2.5s.1-1.7.9-1.9c.8-.3 1.6.1 1.9.9.4 1.1.7 2.5.7 3.7 0 5.3-4.4 9.9-9.8 9.9z"/></g><g><path fill-rule="evenodd" clip-rule="evenodd" fill="#FFF" d="M190.5 110.5c-.5-1.1-.8-2.3-.8-3.6 0-4.5 3.6-8.2 8-8.4"/><path fill="#0C1F2E" d="M190.5 112c-.6 0-1.1-.3-1.4-.8-.6-1.3-1-2.8-1-4.3 0-5.3 4.2-9.6 9.5-9.9.8 0 1.5.6 1.6 1.4s-.6 1.5-1.4 1.6c-3.7.2-6.6 3.2-6.6 6.9 0 1 .2 2 .7 3 .4.7 0 1.6-.7 2-.2 0-.5.1-.7.1z"/></g><g><path fill-rule="evenodd" clip-rule="evenodd" fill="#0C1F2E" d="M192.8 114l5.9 3.8.6-5.1"/></g><g><path fill-rule="evenodd" clip-rule="evenodd" fill="#0C1F2E" d="M203 99.5l-6.1-3.6-.3 5.2"/></g><g><path fill="none" stroke="#000" stroke-width="5" stroke-miterlimit="10" d="M99.6 53.6l1.8 17.4H114l5.2 11.5 4.7-1.8"/><circle cx="99.1" cy="49.5" r="3.5"/><path d="M112.1 77.6c-1.4 3.8-5 6.3-9.1 6.3-5.3 0-9.7-4.3-9.7-9.7 0-2.8 1.2-5.4 3.2-7.2 0-.7-.5-4.2-.6-5.2-4.4 2.5-7.2 7.2-7.2 12.4 0 7.9 6.4 14.3 14.3 14.3 4.6 0 8.9-2.3 11.6-5.9l-2.5-5z"/><path fill="none" stroke="#000" stroke-width="5" stroke-miterlimit="10" d="M100.3 61.1h9.8"/></g></svg>