<svg id="Layer_1" data-name="Layer 1" xmlns="http://www.w3.org/2000/svg" viewBox="0 0 276 137"><defs><style>.cls-1{fill:none}.cls-4{fill:#fff;stroke:#0c1f2e;stroke-miterlimit:10;stroke-width:2.3px}.cls-5{fill:#0c1f2e}</style><clipPath id="clip-path"><circle class="cls-1" cx="-454" cy="-246.73" r="50.5"/></clipPath><clipPath id="clip-path-2"><circle class="cls-1" cx="-454" cy="-246.73" r="43.5"/></clipPath></defs><path class="cls-4" d="M157.32 19v27.71l-19.32.16.08-5.51c.07-5.33-3.82-9.84-8.55-9.53l-.72.08c-4.46.65-8 4.82-8.44 9.86-.48 5.78 3 10.75 7.77 11.84a8.88 8.88 0 0 0 2 .22h27.16v58.65h-55.15V19z"/><circle class="cls-5" cx="122.54" cy="62.82" r="3.54" transform="rotate(-4.03 122.437 62.79)"/><path class="cls-5" d="M138.19 93.72a9.86 9.86 0 1 1-15.81-10.8c0-.73-.52-4.28-.65-5.34a14.61 14.61 0 1 0 19 21.29z"/><path class="cls-5" d="M148.82 99.37l-7.1 2.8-5.66-12.47h-13.61l-2.12-20.18 5.29-.55.59 5.59h7.52v4.72h-7.03l.54 5.11h12.24l4.99 10.98 2.4-.94 1.95 4.94z"/></svg>