<svg id="Layer_1" data-name="Layer 1" xmlns="http://www.w3.org/2000/svg" viewBox="0 0 276 137"><defs><style>.cls-1,.cls-2,.cls-40{fill:none}.cls-2{clip-rule:evenodd}.cls-38,.cls-4,.cls-41{fill:#fff}.cls-37{fill:#0f1f2d}.cls-38{stroke:#0c1f2e}.cls-38,.cls-40,.cls-41{stroke-miterlimit:10;stroke-width:3px}.cls-39{fill:#091f2f}.cls-40,.cls-41{stroke:#091f2f}</style><clipPath id="clip-path"><circle class="cls-1" cx="138" cy="-246.5" r="50.5"/></clipPath><clipPath id="clip-path-2"><circle class="cls-1" cx="138" cy="-246.5" r="43.5"/></clipPath><clipPath id="clip-path-3"><circle class="cls-1" cx="428.78" cy="-246.5" r="50.5"/></clipPath><clipPath id="clip-path-4"><circle class="cls-1" cx="428.78" cy="-246.5" r="43.5"/></clipPath><clipPath id="clip-path-5"><path class="cls-2" d="M383.67 29.49h-1.5v84h108v-84h-106.5zm0 3h105l-1.5-1.5v81l1.5-1.5h-105l1.5 1.5V31zm-21.5-23h148v124h-148z"/></clipPath><clipPath id="clip-path-6"><path class="cls-1" d="M383.67 30.99h105v81h-105z"/></clipPath><clipPath id="clip-path-8"><path class="cls-2" d="M377.67 46.49h-2.24l.85-2.07 9.07-22 .38-.93H486.6l.38.93 9.07 22 .85 2.07H377.67zm0-3h117l-1.39 2.07-9.07-22 1.39.93h-98.86l1.39-.93-9.07 22zm-22.24 23h161.48v-65H355.43z"/></clipPath><clipPath id="clip-path-9"><path class="cls-2" d="M377.67 44.99h117l-9.07-22h-98.86l-9.07 22z"/></clipPath><clipPath id="clip-path-11"><path class="cls-2" d="M462.67 13.49h-1.5v19h15v-19h-13.5zm0 3h12l-1.5-1.5V31l1.5-1.5h-12l1.5 1.5V15zm-21.5-23h55v59h-55z"/></clipPath><clipPath id="clip-path-12"><path class="cls-1" d="M462.67 14.99h12v16h-12z"/></clipPath><clipPath id="clip-path-14"><path class="cls-2" d="M396.67 79.49h-1.5v34h24v-34h-22.5zm0 3h21l-1.5-1.5v31l1.5-1.5h-21l1.5 1.5V81zm-21.5-23h64v74h-64z"/></clipPath><clipPath id="clip-path-15"><path class="cls-1" d="M396.67 80.99h21v31h-21z"/></clipPath><clipPath id="clip-path-17"><path class="cls-2" d="M397.67 51.49h-1.5v22h22v-22h-20.5zm0 3h19l-1.5-1.5V72l1.5-1.5h-19l1.5 1.5V53zm-21.5-23h62v62h-62z"/></clipPath><clipPath id="clip-path-18"><path class="cls-1" d="M397.67 52.99h19v19h-19z"/></clipPath><clipPath id="clip-path-20"><path class="cls-2" d="M402.67 56.49h-1.5v12h12v-12h-10.5zm0 3h9l-1.5-1.5v9l1.5-1.5h-9l1.5 1.5V58zm-21.5-23h52v52h-52z"/></clipPath><clipPath id="clip-path-21"><path class="cls-1" d="M402.67 57.99h9v9h-9z"/></clipPath><clipPath id="clip-path-23"><path class="cls-2" d="M427.67 51.49h-1.5v22h22v-22h-20.5zm0 3h19l-1.5-1.5V72l1.5-1.5h-19l1.5 1.5V53zm-21.5-23h62v62h-62z"/></clipPath><clipPath id="clip-path-24"><path class="cls-1" d="M427.67 52.99h19v19h-19z"/></clipPath><clipPath id="clip-path-26"><path class="cls-2" d="M456.67 51.49h-1.5v22h22v-22h-20.5zm0 3h19l-1.5-1.5V72l1.5-1.5h-19l1.5 1.5V53zm-21.5-23h62v62h-62z"/></clipPath><clipPath id="clip-path-27"><path class="cls-1" d="M456.67 52.99h19v19h-19z"/></clipPath><clipPath id="clip-path-29"><path class="cls-2" d="M427.67 79.49h-1.5v22h22v-22h-20.5zm0 3h19l-1.5-1.5v19l1.5-1.5h-19l1.5 1.5V81zm-21.5-23h62v62h-62z"/></clipPath><clipPath id="clip-path-30"><path class="cls-1" d="M427.67 80.99h19v19h-19z"/></clipPath><clipPath id="clip-path-32"><path class="cls-2" d="M456.67 79.49h-1.5v22h22v-22h-20.5zm0 3h19l-1.5-1.5v19l1.5-1.5h-19l1.5 1.5V81zm-21.5-23h62v62h-62z"/></clipPath><clipPath id="clip-path-33"><path class="cls-1" d="M456.67 80.99h19v19h-19z"/></clipPath><clipPath id="clip-path-35"><path class="cls-2" d="M432.67 56.49h-1.5v12h12v-12h-10.5zm0 3h9l-1.5-1.5v9l1.5-1.5h-9l1.5 1.5V58zm-21.5-23h52v52h-52z"/></clipPath><clipPath id="clip-path-36"><path class="cls-1" d="M432.67 57.99h9v9h-9z"/></clipPath><clipPath id="clip-path-38"><path class="cls-2" d="M461.67 56.49h-1.5v12h12v-12h-10.5zm0 3h9l-1.5-1.5v9l1.5-1.5h-9l1.5 1.5V58zm-21.5-23h52v52h-52z"/></clipPath><clipPath id="clip-path-39"><path class="cls-1" d="M461.67 57.99h9v9h-9z"/></clipPath><clipPath id="clip-path-41"><path class="cls-2" d="M432.67 84.49h-1.5v12h12v-12h-10.5zm0 3h9l-1.5-1.5v9l1.5-1.5h-9l1.5 1.5V86zm-21.5-23h52v52h-52z"/></clipPath><clipPath id="clip-path-42"><path class="cls-1" d="M432.67 85.99h9v9h-9z"/></clipPath><clipPath id="clip-path-44"><path class="cls-2" d="M461.67 84.49h-1.5v12h12v-12h-10.5zm0 3h9l-1.5-1.5v9l1.5-1.5h-9l1.5 1.5V86zm-21.5-23h52v52h-52z"/></clipPath><clipPath id="clip-path-45"><path class="cls-1" d="M461.67 85.99h9v9h-9z"/></clipPath></defs><circle class="cls-4" cx="137.59" cy="67.59" r="46.92"/><circle class="cls-4" cx="137.78" cy="67.44" r="46.57"/><path class="cls-37" d="M137.78 115.5a48.07 48.07 0 1 1 48.07-48.07 48.12 48.12 0 0 1-48.07 48.07zm0-93.13a45.07 45.07 0 1 0 45.07 45.07 45.12 45.12 0 0 0-45.07-45.07z"/><circle class="cls-38" cx="137.85" cy="67.33" r="40.8"/><circle class="cls-4" cx="176.86" cy="98.38" r="18.48" transform="rotate(-45 176.853 98.385)"/><path class="cls-37" d="M176.86 118.36a20 20 0 1 1 14.14-5.85 19.85 19.85 0 0 1-14.14 5.85zm0-37a17 17 0 1 0 12 5 16.87 16.87 0 0 0-12-4.96z"/><path class="cls-39" transform="rotate(45 174.751 100.814)" d="M173.53 92.1h2.44v17.45h-2.44z"/><path class="cls-39" transform="rotate(-45 182.138 92.726)" d="M179.25 87.9h5.77v9.65h-5.77z"/><path class="cls-39" transform="rotate(-45 177.978 88.5)" d="M175.1 87.82h5.77v1.37h-5.77z"/><path class="cls-39" transform="rotate(-45 186.314 96.916)" d="M183.43 96.23h5.77v1.37h-5.77z"/><path class="cls-40" d="M163.09 54.17v31.5M161.33 90h-45V54.61"/><path class="cls-40" d="M143.54 65.62h13.62V78.5h-13.62z"/><path class="cls-41" d="M109.26 57.49l30.22-20.83 28.91 20.83h-59.13z"/><path class="cls-40" d="M123.19 65.58h13.62v23.81h-13.62z"/></svg>