<svg xmlns="http://www.w3.org/2000/svg" xmlns:xlink="http://www.w3.org/1999/xlink" viewBox="0 0 276 137"><circle fill="#FFF" stroke="#0C1F2E" stroke-width="3" stroke-miterlimit="10" cx="141.6" cy="70.8" r="48.3"/><defs><path id="a" d="M71.2-258h-1.5v38h142v-25.1l-.4-.4-11.4-12-.4-.5H71.2zm0 3h127.6l-1.1-.5 11.4 12-.4-1v23l1.5-1.5h-139l1.5 1.5v-35l-1.5 1.5zm-21.5-23h182v78h-182v-78z"/></defs><clipPath id="b"><use xlink:href="#a" overflow="visible"/></clipPath><g clip-path="url(#b)"><defs><path id="c" d="M71.2-256.5h127.6l11.4 12v23h-139z"/></defs></g><defs><path id="d" d="M71.2-256.5h127.6l11.4 12v23h-139z"/></defs><defs><path id="e" d="M104.2-206.6c-8 0-14.5-6.5-14.5-14.5s6.5-14.5 14.5-14.5 14.5 6.5 14.5 14.5-6.4 14.5-14.5 14.5zm0 3c9.7 0 17.5-7.8 17.5-17.5s-7.8-17.5-17.5-17.5-17.5 7.8-17.5 17.5 7.9 17.5 17.5 17.5zm-37.5-55h75v75h-75v-75z"/></defs><clipPath id="f"><use xlink:href="#e" overflow="visible"/></clipPath><g clip-path="url(#f)"><defs><circle id="g" cx="104.2" cy="-221.1" r="16"/></defs></g><defs><circle id="h" cx="104.2" cy="-221.1" r="16"/></defs><defs><path id="i" d="M104.2-213.6c-4.1 0-7.5-3.4-7.5-7.5s3.4-7.5 7.5-7.5 7.5 3.4 7.5 7.5-3.3 7.5-7.5 7.5zm0 3c5.8 0 10.5-4.7 10.5-10.5s-4.7-10.5-10.5-10.5-10.5 4.7-10.5 10.5 4.7 10.5 10.5 10.5zm-30.5-41h61v61h-61v-61z"/></defs><clipPath id="j"><use xlink:href="#i" overflow="visible"/></clipPath><g clip-path="url(#j)"><defs><circle id="k" cx="104.2" cy="-221.1" r="9"/></defs></g><defs><circle id="l" cx="104.2" cy="-221.1" r="9"/></defs><defs><path id="m" d="M170.5-206.6c-8 0-14.5-6.5-14.5-14.5s6.5-14.5 14.5-14.5 14.5 6.5 14.5 14.5-6.5 14.5-14.5 14.5zm0 3c9.7 0 17.5-7.8 17.5-17.5s-7.8-17.5-17.5-17.5-17.5 7.8-17.5 17.5 7.8 17.5 17.5 17.5zm-37.5-55h75v75h-75v-75z"/></defs><clipPath id="n"><use xlink:href="#m" overflow="visible"/></clipPath><g clip-path="url(#n)"><defs><circle id="o" cx="170.5" cy="-221.1" r="16"/></defs></g><defs><circle id="p" cx="170.5" cy="-221.1" r="16"/></defs><defs><path id="q" d="M170.7-261.4L163-277h-27.2v15.6h34.9zm-75.2-.1l7.4-15.6h27.2v15.6H95.5zm-10.3 5.4L99.4-283h66.8l15.3 27.9-96.3-1z"/></defs><defs><path id="r" d="M170.5-213.6c-4.1 0-7.5-3.4-7.5-7.5s3.4-7.5 7.5-7.5 7.5 3.4 7.5 7.5-3.4 7.5-7.5 7.5zm0 3c5.8 0 10.5-4.7 10.5-10.5s-4.7-10.5-10.5-10.5-10.5 4.7-10.5 10.5 4.7 10.5 10.5 10.5zm-30.5-41h61v61h-61v-61z"/></defs><clipPath id="s"><use xlink:href="#r" overflow="visible"/></clipPath><g clip-path="url(#s)"><defs><circle id="t" cx="170.5" cy="-221.1" r="9"/></defs></g><defs><circle id="u" cx="170.5" cy="-221.1" r="9"/></defs><defs><circle id="v" cx="132.3" cy="-99.8" r="28"/></defs><defs><path id="w" d="M132.3-70.4c-16.3 0-29.5-13.2-29.5-29.5s13.2-29.5 29.5-29.5 29.5 13.2 29.5 29.5-13.2 29.5-29.5 29.5zm0-55.9c-14.6 0-26.5 11.9-26.5 26.5s11.9 26.5 26.5 26.5 26.5-11.9 26.5-26.5-11.9-26.5-26.5-26.5z"/></defs><use xlink:href="#v" overflow="visible" fill-rule="evenodd" clip-rule="evenodd" fill="#FFF"/><use xlink:href="#w" overflow="visible" fill="#0F1F2D"/><clipPath id="x"><use xlink:href="#v" overflow="visible"/></clipPath><clipPath id="y" clip-path="url(#x)"><use xlink:href="#w" overflow="visible"/></clipPath><g clip-path="url(#y)"><defs><path id="z" d="M20.1-573.3h721.1V89.3H20.1z"/></defs><defs><path id="A" d="M742.7 90.8H18.6v-665.6h724.1V90.8zm-721.1-3h718.1v-659.6H21.6V87.8z"/></defs><use xlink:href="#z" overflow="visible" fill="#FFF"/><use xlink:href="#A" overflow="visible" fill="#0F1F2D"/></g><defs><path id="B" d="M-204.6-288.4h-1.5v84h108v-84h-106.5zm0 3h105l-1.5-1.5v81l1.5-1.5h-105l1.5 1.5v-81l-1.5 1.5zm-21.5-23h148v124h-148v-124z"/></defs><clipPath id="C"><use xlink:href="#B" overflow="visible"/></clipPath><g clip-path="url(#C)"><defs><path id="D" d="M-204.6-286.9h105v81h-105z"/></defs></g><defs><path id="E" d="M-204.6-286.9h105v81h-105z"/></defs><defs><path id="F" d="M-210.6-271.4h-2.2l.9-2.1 9.1-22 .4-.9h100.9l.4.9 9.1 22 .9 2.1h-119.5zm0-3h117l-1.4 2.1-9.1-22 1.4.9h-98.9l1.4-.9-9.1 22-1.3-2.1zm-22.3 23h161.5v-65h-161.5v65z"/></defs><clipPath id="G"><use xlink:href="#F" overflow="visible"/></clipPath><g clip-path="url(#G)"><defs><path id="H" d="M-210.6-272.9h117l-9.1-22h-98.8z"/></defs></g><defs><path id="I" d="M-210.6-272.9h117l-9.1-22h-98.8z"/></defs><defs><path id="J" d="M-125.6-304.4h-1.5v19h15v-19h-13.5zm0 3h12l-1.5-1.5v16l1.5-1.5h-12l1.5 1.5v-16l-1.5 1.5zm-21.5-23h55v59h-55v-59z"/></defs><clipPath id="K"><use xlink:href="#J" overflow="visible"/></clipPath><g clip-path="url(#K)"><defs><path id="L" d="M-125.6-302.9h12v16h-12z"/></defs></g><defs><path id="M" d="M-125.6-302.9h12v16h-12z"/></defs><defs><path id="N" d="M-191.6-238.4h-1.5v34h24v-34h-22.5zm0 3h21l-1.5-1.5v31l1.5-1.5h-21l1.5 1.5v-31l-1.5 1.5zm-21.5-23h64v74h-64v-74z"/></defs><clipPath id="O"><use xlink:href="#N" overflow="visible"/></clipPath><g clip-path="url(#O)"><defs><path id="P" d="M-191.6-236.9h21v31h-21z"/></defs></g><defs><path id="Q" d="M-191.6-236.9h21v31h-21z"/></defs><defs><path id="R" d="M-190.6-266.4h-1.5v22h22v-22h-20.5zm0 3h19l-1.5-1.5v19l1.5-1.5h-19l1.5 1.5v-19l-1.5 1.5zm-21.5-23h62v62h-62v-62z"/></defs><clipPath id="S"><use xlink:href="#R" overflow="visible"/></clipPath><g clip-path="url(#S)"><defs><path id="T" d="M-190.6-264.9h19v19h-19z"/></defs></g><defs><path id="U" d="M-190.6-264.9h19v19h-19z"/></defs><defs><path id="V" d="M-185.6-261.4h-1.5v12h12v-12h-10.5zm0 3h9l-1.5-1.5v9l1.5-1.5h-9l1.5 1.5v-9l-1.5 1.5zm-21.5-23h52v52h-52v-52z"/></defs><clipPath id="W"><use xlink:href="#V" overflow="visible"/></clipPath><g clip-path="url(#W)"><defs><path id="X" d="M-185.6-259.9h9v9h-9z"/></defs></g><defs><path id="Y" d="M-185.6-259.9h9v9h-9z"/></defs><defs><path id="Z" d="M-160.6-266.4h-1.5v22h22v-22h-20.5zm0 3h19l-1.5-1.5v19l1.5-1.5h-19l1.5 1.5v-19l-1.5 1.5zm-21.5-23h62v62h-62v-62z"/></defs><clipPath id="aa"><use xlink:href="#Z" overflow="visible"/></clipPath><g clip-path="url(#aa)"><defs><path id="ab" d="M-160.6-264.9h19v19h-19z"/></defs></g><defs><path id="ac" d="M-160.6-264.9h19v19h-19z"/></defs><defs><path id="ad" d="M-131.6-266.4h-1.5v22h22v-22h-20.5zm0 3h19l-1.5-1.5v19l1.5-1.5h-19l1.5 1.5v-19l-1.5 1.5zm-21.5-23h62v62h-62v-62z"/></defs><clipPath id="ae"><use xlink:href="#ad" overflow="visible"/></clipPath><g clip-path="url(#ae)"><defs><path id="af" d="M-131.6-264.9h19v19h-19z"/></defs></g><defs><path id="ag" d="M-131.6-264.9h19v19h-19z"/></defs><defs><path id="ah" d="M-160.6-238.4h-1.5v22h22v-22h-20.5zm0 3h19l-1.5-1.5v19l1.5-1.5h-19l1.5 1.5v-19l-1.5 1.5zm-21.5-23h62v62h-62v-62z"/></defs><clipPath id="ai"><use xlink:href="#ah" overflow="visible"/></clipPath><g clip-path="url(#ai)"><defs><path id="aj" d="M-160.6-236.9h19v19h-19z"/></defs></g><defs><path id="ak" d="M-160.6-236.9h19v19h-19z"/></defs><defs><path id="al" d="M-131.6-238.4h-1.5v22h22v-22h-20.5zm0 3h19l-1.5-1.5v19l1.5-1.5h-19l1.5 1.5v-19l-1.5 1.5zm-21.5-23h62v62h-62v-62z"/></defs><clipPath id="am"><use xlink:href="#al" overflow="visible"/></clipPath><g clip-path="url(#am)"><defs><path id="an" d="M-131.6-236.9h19v19h-19z"/></defs></g><defs><path id="ao" d="M-131.6-236.9h19v19h-19z"/></defs><defs><path id="ap" d="M-155.6-261.4h-1.5v12h12v-12h-10.5zm0 3h9l-1.5-1.5v9l1.5-1.5h-9l1.5 1.5v-9l-1.5 1.5zm-21.5-23h52v52h-52v-52z"/></defs><clipPath id="aq"><use xlink:href="#ap" overflow="visible"/></clipPath><g clip-path="url(#aq)"><defs><path id="ar" d="M-155.6-259.9h9v9h-9z"/></defs></g><g><defs><path id="as" d="M-155.6-259.9h9v9h-9z"/></defs></g><g><defs><path id="at" d="M-126.6-261.4h-1.5v12h12v-12h-10.5zm0 3h9l-1.5-1.5v9l1.5-1.5h-9l1.5 1.5v-9l-1.5 1.5zm-21.5-23h52v52h-52v-52z"/></defs><clipPath id="au"><use xlink:href="#at" overflow="visible"/></clipPath><g clip-path="url(#au)"><defs><path id="av" d="M-126.6-259.9h9v9h-9z"/></defs></g></g><g><defs><path id="aw" d="M-126.6-259.9h9v9h-9z"/></defs></g><g><defs><path id="ax" d="M-155.6-233.4h-1.5v12h12v-12h-10.5zm0 3h9l-1.5-1.5v9l1.5-1.5h-9l1.5 1.5v-9l-1.5 1.5zm-21.5-23h52v52h-52v-52z"/></defs><clipPath id="ay"><use xlink:href="#ax" overflow="visible"/></clipPath><g clip-path="url(#ay)"><defs><path id="az" d="M-155.6-231.9h9v9h-9z"/></defs></g></g><g><defs><path id="aA" d="M-155.6-231.9h9v9h-9z"/></defs></g><g><defs><path id="aB" d="M-126.6-233.4h-1.5v12h12v-12h-10.5zm0 3h9l-1.5-1.5v9l1.5-1.5h-9l1.5 1.5v-9l-1.5 1.5zm-21.5-23h52v52h-52v-52z"/></defs><clipPath id="aC"><use xlink:href="#aB" overflow="visible"/></clipPath><g clip-path="url(#aC)"><defs><path id="aD" d="M-126.6-231.9h9v9h-9z"/></defs></g></g><g><defs><path id="aE" d="M-126.6-231.9h9v9h-9z"/></defs></g><g><path fill="#FFF" stroke="#0C1F2E" stroke-width="3" stroke-miterlimit="10" d="M171.2 41.1c-16.3-16.3-42.8-16.3-59.1 0-14.4 14.3-16.1 36.5-5.3 52.7l14.9-14.9c-3.9-8.7-2.3-19.2 4.9-26.3 6.6-6.6 16.1-8.4 24.3-5.6L134 64l3.3 11.8 11.9 3.1 16.7-16.8c2.6 8.1.9 17.7-5.6 24.2-6.7 6.7-16.6 8.3-24.7 5.5l-14.9 14.9c16 9.4 36.9 7.2 50.7-6.5 16.1-16.3 16.1-42.8-.2-59.1z"/></g></svg>