<svg xmlns="http://www.w3.org/2000/svg" xmlns:xlink="http://www.w3.org/1999/xlink" viewBox="0 0 276 137"><circle fill="#FFF" stroke="#0C1F2E" stroke-width="3" stroke-miterlimit="10" cx="141.6" cy="70.8" r="48.3"/><defs><path id="a" d="M71.2-258h-1.5v38h142v-25.1l-.4-.4-11.4-12-.4-.5H71.2zm0 3h127.6l-1.1-.5 11.4 12-.4-1v23l1.5-1.5h-139l1.5 1.5v-35l-1.5 1.5zm-21.5-23h182v78h-182v-78z"/></defs><clipPath id="b"><use xlink:href="#a" overflow="visible"/></clipPath><g clip-path="url(#b)"><defs><path id="c" d="M71.2-256.5h127.6l11.4 12v23h-139z"/></defs><clipPath id="d"><use xlink:href="#c" overflow="visible"/></clipPath><g clip-path="url(#d)"><defs><path id="e" d="M-300.8-791.5h1121v1030h-1121z"/></defs></g></g><defs><path id="f" d="M71.2-256.5h127.6l11.4 12v23h-139z"/></defs><clipPath id="g"><use xlink:href="#f" overflow="visible"/></clipPath><g clip-path="url(#g)"><defs><path id="h" d="M-300.8-791.5h1121v1030h-1121z"/></defs></g><defs><path id="i" d="M104.2-206.6c-8 0-14.5-6.5-14.5-14.5s6.5-14.5 14.5-14.5 14.5 6.5 14.5 14.5-6.4 14.5-14.5 14.5zm0 3c9.7 0 17.5-7.8 17.5-17.5s-7.8-17.5-17.5-17.5-17.5 7.8-17.5 17.5 7.9 17.5 17.5 17.5zm-37.5-55h75v75h-75v-75z"/></defs><clipPath id="j"><use xlink:href="#i" overflow="visible"/></clipPath><g clip-path="url(#j)"><defs><circle id="k" cx="104.2" cy="-221.1" r="16"/></defs><clipPath id="l"><use xlink:href="#k" overflow="visible"/></clipPath><g clip-path="url(#l)"><defs><path id="m" d="M-300.8-791.5h1121v1030h-1121z"/></defs></g></g><defs><circle id="n" cx="104.2" cy="-221.1" r="16"/></defs><clipPath id="o"><use xlink:href="#n" overflow="visible"/></clipPath><g clip-path="url(#o)"><defs><path id="p" d="M-300.8-791.5h1121v1030h-1121z"/></defs></g><defs><path id="q" d="M104.2-213.6c-4.1 0-7.5-3.4-7.5-7.5s3.4-7.5 7.5-7.5 7.5 3.4 7.5 7.5-3.3 7.5-7.5 7.5zm0 3c5.8 0 10.5-4.7 10.5-10.5s-4.7-10.5-10.5-10.5-10.5 4.7-10.5 10.5 4.7 10.5 10.5 10.5zm-30.5-41h61v61h-61v-61z"/></defs><clipPath id="r"><use xlink:href="#q" overflow="visible"/></clipPath><g clip-path="url(#r)"><defs><circle id="s" cx="104.2" cy="-221.1" r="9"/></defs><clipPath id="t"><use xlink:href="#s" overflow="visible"/></clipPath><g clip-path="url(#t)"><defs><path id="u" d="M-300.8-791.5h1121v1030h-1121z"/></defs></g></g><defs><circle id="v" cx="104.2" cy="-221.1" r="9"/></defs><clipPath id="w"><use xlink:href="#v" overflow="visible"/></clipPath><g clip-path="url(#w)"><defs><path id="x" d="M-300.8-791.5h1121v1030h-1121z"/></defs></g><defs><path id="y" d="M170.5-206.6c-8 0-14.5-6.5-14.5-14.5s6.5-14.5 14.5-14.5 14.5 6.5 14.5 14.5-6.5 14.5-14.5 14.5zm0 3c9.7 0 17.5-7.8 17.5-17.5s-7.8-17.5-17.5-17.5-17.5 7.8-17.5 17.5 7.8 17.5 17.5 17.5zm-37.5-55h75v75h-75v-75z"/></defs><clipPath id="z"><use xlink:href="#y" overflow="visible"/></clipPath><g clip-path="url(#z)"><defs><circle id="A" cx="170.5" cy="-221.1" r="16"/></defs><clipPath id="B"><use xlink:href="#A" overflow="visible"/></clipPath><g clip-path="url(#B)"><defs><path id="C" d="M-300.8-791.5h1121v1030h-1121z"/></defs></g></g><defs><circle id="D" cx="170.5" cy="-221.1" r="16"/></defs><clipPath id="E"><use xlink:href="#D" overflow="visible"/></clipPath><g clip-path="url(#E)"><defs><path id="F" d="M-300.8-791.5h1121v1030h-1121z"/></defs></g><defs><path id="G" d="M170.7-261.4L163-277h-27.2v15.6h34.9zm-75.2-.1l7.4-15.6h27.2v15.6H95.5zm-10.3 5.4L99.4-283h66.8l15.3 27.9-96.3-1z"/></defs><clipPath id="H"><use xlink:href="#G" overflow="visible"/></clipPath><g clip-path="url(#H)"><defs><path id="I" d="M-300.8-791.5h1121v1030h-1121z"/></defs></g><defs><path id="J" d="M170.5-213.6c-4.1 0-7.5-3.4-7.5-7.5s3.4-7.5 7.5-7.5 7.5 3.4 7.5 7.5-3.4 7.5-7.5 7.5zm0 3c5.8 0 10.5-4.7 10.5-10.5s-4.7-10.5-10.5-10.5-10.5 4.7-10.5 10.5 4.7 10.5 10.5 10.5zm-30.5-41h61v61h-61v-61z"/></defs><clipPath id="K"><use xlink:href="#J" overflow="visible"/></clipPath><g clip-path="url(#K)"><defs><circle id="L" cx="170.5" cy="-221.1" r="9"/></defs><clipPath id="M"><use xlink:href="#L" overflow="visible"/></clipPath><g clip-path="url(#M)"><defs><path id="N" d="M-300.8-791.5h1121v1030h-1121z"/></defs></g></g><defs><circle id="O" cx="170.5" cy="-221.1" r="9"/></defs><clipPath id="P"><use xlink:href="#O" overflow="visible"/></clipPath><g clip-path="url(#P)"><defs><path id="Q" d="M-300.8-791.5h1121v1030h-1121z"/></defs></g><defs><circle id="R" cx="132.3" cy="-99.8" r="28"/></defs><defs><path id="S" d="M132.3-70.4c-16.3 0-29.5-13.2-29.5-29.5s13.2-29.5 29.5-29.5 29.5 13.2 29.5 29.5-13.2 29.5-29.5 29.5zm0-55.9c-14.6 0-26.5 11.9-26.5 26.5s11.9 26.5 26.5 26.5 26.5-11.9 26.5-26.5-11.9-26.5-26.5-26.5z"/></defs><use xlink:href="#R" overflow="visible" fill-rule="evenodd" clip-rule="evenodd" fill="#FFF"/><use xlink:href="#S" overflow="visible" fill="#0F1F2D"/><clipPath id="T"><use xlink:href="#R" overflow="visible"/></clipPath><clipPath id="U" clip-path="url(#T)"><use xlink:href="#S" overflow="visible"/></clipPath><g clip-path="url(#U)"><defs><path id="V" d="M20.1-573.3h721.1V89.3H20.1z"/></defs><defs><path id="W" d="M742.7 90.8H18.6v-665.6h724.1V90.8zm-721.1-3h718.1v-659.6H21.6V87.8z"/></defs><use xlink:href="#V" overflow="visible" fill="#FFF"/><use xlink:href="#W" overflow="visible" fill="#0F1F2D"/><clipPath id="X"><use xlink:href="#V" overflow="visible"/></clipPath></g><defs><path id="Y" d="M-204.6-288.4h-1.5v84h108v-84h-106.5zm0 3h105l-1.5-1.5v81l1.5-1.5h-105l1.5 1.5v-81l-1.5 1.5zm-21.5-23h148v124h-148v-124z"/></defs><clipPath id="Z"><use xlink:href="#Y" overflow="visible"/></clipPath><g clip-path="url(#Z)"><defs><path id="aa" d="M-204.6-286.9h105v81h-105z"/></defs><clipPath id="ab"><use xlink:href="#aa" overflow="visible"/></clipPath><g clip-path="url(#ab)"><defs><path id="ac" d="M-1085.6-785.9h1121v1030h-1121z"/></defs></g></g><g><defs><path id="ad" d="M-204.6-286.9h105v81h-105z"/></defs><clipPath id="ae"><use xlink:href="#ad" overflow="visible"/></clipPath><g clip-path="url(#ae)"><defs><path id="af" d="M-1085.6-785.9h1121v1030h-1121z"/></defs></g></g><g><defs><path id="ag" d="M-210.6-271.4h-2.2l.9-2.1 9.1-22 .4-.9h100.9l.4.9 9.1 22 .9 2.1h-119.5zm0-3h117l-1.4 2.1-9.1-22 1.4.9h-98.9l1.4-.9-9.1 22-1.3-2.1zm-22.3 23h161.5v-65h-161.5v65z"/></defs><clipPath id="ah"><use xlink:href="#ag" overflow="visible"/></clipPath><g clip-path="url(#ah)"><defs><path id="ai" d="M-210.6-272.9h117l-9.1-22h-98.8z"/></defs><clipPath id="aj"><use xlink:href="#ai" overflow="visible"/></clipPath><g clip-path="url(#aj)"><defs><path id="ak" d="M-1085.6-785.9h1121v1030h-1121z"/></defs></g></g></g><g><defs><path id="al" d="M-210.6-272.9h117l-9.1-22h-98.8z"/></defs><clipPath id="am"><use xlink:href="#al" overflow="visible"/></clipPath><g clip-path="url(#am)"><defs><path id="an" d="M-1085.6-785.9h1121v1030h-1121z"/></defs></g></g><g><defs><path id="ao" d="M-125.6-304.4h-1.5v19h15v-19h-13.5zm0 3h12l-1.5-1.5v16l1.5-1.5h-12l1.5 1.5v-16l-1.5 1.5zm-21.5-23h55v59h-55v-59z"/></defs><clipPath id="ap"><use xlink:href="#ao" overflow="visible"/></clipPath><g clip-path="url(#ap)"><defs><path id="aq" d="M-125.6-302.9h12v16h-12z"/></defs><clipPath id="ar"><use xlink:href="#aq" overflow="visible"/></clipPath><g clip-path="url(#ar)"><defs><path id="as" d="M-1085.6-785.9h1121v1030h-1121z"/></defs></g></g></g><g><defs><path id="at" d="M-125.6-302.9h12v16h-12z"/></defs><clipPath id="au"><use xlink:href="#at" overflow="visible"/></clipPath><g clip-path="url(#au)"><defs><path id="av" d="M-1085.6-785.9h1121v1030h-1121z"/></defs></g></g><g><defs><path id="aw" d="M-191.6-238.4h-1.5v34h24v-34h-22.5zm0 3h21l-1.5-1.5v31l1.5-1.5h-21l1.5 1.5v-31l-1.5 1.5zm-21.5-23h64v74h-64v-74z"/></defs><clipPath id="ax"><use xlink:href="#aw" overflow="visible"/></clipPath><g clip-path="url(#ax)"><defs><path id="ay" d="M-191.6-236.9h21v31h-21z"/></defs><clipPath id="az"><use xlink:href="#ay" overflow="visible"/></clipPath><g clip-path="url(#az)"><defs><path id="aA" d="M-1085.6-785.9h1121v1030h-1121z"/></defs></g></g></g><g><defs><path id="aB" d="M-191.6-236.9h21v31h-21z"/></defs><clipPath id="aC"><use xlink:href="#aB" overflow="visible"/></clipPath><g clip-path="url(#aC)"><defs><path id="aD" d="M-1085.6-785.9h1121v1030h-1121z"/></defs></g></g><g><defs><path id="aE" d="M-190.6-266.4h-1.5v22h22v-22h-20.5zm0 3h19l-1.5-1.5v19l1.5-1.5h-19l1.5 1.5v-19l-1.5 1.5zm-21.5-23h62v62h-62v-62z"/></defs><clipPath id="aF"><use xlink:href="#aE" overflow="visible"/></clipPath><g clip-path="url(#aF)"><defs><path id="aG" d="M-190.6-264.9h19v19h-19z"/></defs><clipPath id="aH"><use xlink:href="#aG" overflow="visible"/></clipPath><g clip-path="url(#aH)"><defs><path id="aI" d="M-1085.6-785.9h1121v1030h-1121z"/></defs></g></g></g><g><defs><path id="aJ" d="M-190.6-264.9h19v19h-19z"/></defs><clipPath id="aK"><use xlink:href="#aJ" overflow="visible"/></clipPath><g clip-path="url(#aK)"><defs><path id="aL" d="M-1085.6-785.9h1121v1030h-1121z"/></defs></g></g><g><defs><path id="aM" d="M-185.6-261.4h-1.5v12h12v-12h-10.5zm0 3h9l-1.5-1.5v9l1.5-1.5h-9l1.5 1.5v-9l-1.5 1.5zm-21.5-23h52v52h-52v-52z"/></defs><clipPath id="aN"><use xlink:href="#aM" overflow="visible"/></clipPath><g clip-path="url(#aN)"><defs><path id="aO" d="M-185.6-259.9h9v9h-9z"/></defs><clipPath id="aP"><use xlink:href="#aO" overflow="visible"/></clipPath><g clip-path="url(#aP)"><defs><path id="aQ" d="M-1085.6-785.9h1121v1030h-1121z"/></defs></g></g></g><g><defs><path id="aR" d="M-185.6-259.9h9v9h-9z"/></defs><clipPath id="aS"><use xlink:href="#aR" overflow="visible"/></clipPath><g clip-path="url(#aS)"><defs><path id="aT" d="M-1085.6-785.9h1121v1030h-1121z"/></defs></g></g><g><defs><path id="aU" d="M-160.6-266.4h-1.5v22h22v-22h-20.5zm0 3h19l-1.5-1.5v19l1.5-1.5h-19l1.5 1.5v-19l-1.5 1.5zm-21.5-23h62v62h-62v-62z"/></defs><clipPath id="aV"><use xlink:href="#aU" overflow="visible"/></clipPath><g clip-path="url(#aV)"><defs><path id="aW" d="M-160.6-264.9h19v19h-19z"/></defs><clipPath id="aX"><use xlink:href="#aW" overflow="visible"/></clipPath><g clip-path="url(#aX)"><defs><path id="aY" d="M-1085.6-785.9h1121v1030h-1121z"/></defs></g></g></g><g><defs><path id="aZ" d="M-160.6-264.9h19v19h-19z"/></defs><clipPath id="ba"><use xlink:href="#aZ" overflow="visible"/></clipPath><g clip-path="url(#ba)"><defs><path id="bb" d="M-1085.6-785.9h1121v1030h-1121z"/></defs></g></g><g><defs><path id="bc" d="M-131.6-266.4h-1.5v22h22v-22h-20.5zm0 3h19l-1.5-1.5v19l1.5-1.5h-19l1.5 1.5v-19l-1.5 1.5zm-21.5-23h62v62h-62v-62z"/></defs><clipPath id="bd"><use xlink:href="#bc" overflow="visible"/></clipPath><g clip-path="url(#bd)"><defs><path id="be" d="M-131.6-264.9h19v19h-19z"/></defs><clipPath id="bf"><use xlink:href="#be" overflow="visible"/></clipPath><g clip-path="url(#bf)"><defs><path id="bg" d="M-1085.6-785.9h1121v1030h-1121z"/></defs></g></g></g><g><defs><path id="bh" d="M-131.6-264.9h19v19h-19z"/></defs><clipPath id="bi"><use xlink:href="#bh" overflow="visible"/></clipPath><g clip-path="url(#bi)"><defs><path id="bj" d="M-1085.6-785.9h1121v1030h-1121z"/></defs></g></g><g><defs><path id="bk" d="M-160.6-238.4h-1.5v22h22v-22h-20.5zm0 3h19l-1.5-1.5v19l1.5-1.5h-19l1.5 1.5v-19l-1.5 1.5zm-21.5-23h62v62h-62v-62z"/></defs><clipPath id="bl"><use xlink:href="#bk" overflow="visible"/></clipPath><g clip-path="url(#bl)"><defs><path id="bm" d="M-160.6-236.9h19v19h-19z"/></defs><clipPath id="bn"><use xlink:href="#bm" overflow="visible"/></clipPath><g clip-path="url(#bn)"><defs><path id="bo" d="M-1085.6-785.9h1121v1030h-1121z"/></defs></g></g></g><g><defs><path id="bp" d="M-160.6-236.9h19v19h-19z"/></defs><clipPath id="bq"><use xlink:href="#bp" overflow="visible"/></clipPath><g clip-path="url(#bq)"><defs><path id="br" d="M-1085.6-785.9h1121v1030h-1121z"/></defs></g></g><g><defs><path id="bs" d="M-131.6-238.4h-1.5v22h22v-22h-20.5zm0 3h19l-1.5-1.5v19l1.5-1.5h-19l1.5 1.5v-19l-1.5 1.5zm-21.5-23h62v62h-62v-62z"/></defs><clipPath id="bt"><use xlink:href="#bs" overflow="visible"/></clipPath><g clip-path="url(#bt)"><defs><path id="bu" d="M-131.6-236.9h19v19h-19z"/></defs><clipPath id="bv"><use xlink:href="#bu" overflow="visible"/></clipPath><g clip-path="url(#bv)"><defs><path id="bw" d="M-1085.6-785.9h1121v1030h-1121z"/></defs></g></g></g><g><defs><path id="bx" d="M-131.6-236.9h19v19h-19z"/></defs><clipPath id="by"><use xlink:href="#bx" overflow="visible"/></clipPath><g clip-path="url(#by)"><defs><path id="bz" d="M-1085.6-785.9h1121v1030h-1121z"/></defs></g></g><g><defs><path id="bA" d="M-155.6-261.4h-1.5v12h12v-12h-10.5zm0 3h9l-1.5-1.5v9l1.5-1.5h-9l1.5 1.5v-9l-1.5 1.5zm-21.5-23h52v52h-52v-52z"/></defs><clipPath id="bB"><use xlink:href="#bA" overflow="visible"/></clipPath><g clip-path="url(#bB)"><defs><path id="bC" d="M-155.6-259.9h9v9h-9z"/></defs><clipPath id="bD"><use xlink:href="#bC" overflow="visible"/></clipPath><g clip-path="url(#bD)"><defs><path id="bE" d="M-1085.6-785.9h1121v1030h-1121z"/></defs></g></g></g><g><defs><path id="bF" d="M-155.6-259.9h9v9h-9z"/></defs><clipPath id="bG"><use xlink:href="#bF" overflow="visible"/></clipPath><g clip-path="url(#bG)"><defs><path id="bH" d="M-1085.6-785.9h1121v1030h-1121z"/></defs></g></g><g><defs><path id="bI" d="M-126.6-261.4h-1.5v12h12v-12h-10.5zm0 3h9l-1.5-1.5v9l1.5-1.5h-9l1.5 1.5v-9l-1.5 1.5zm-21.5-23h52v52h-52v-52z"/></defs><clipPath id="bJ"><use xlink:href="#bI" overflow="visible"/></clipPath><g clip-path="url(#bJ)"><defs><path id="bK" d="M-126.6-259.9h9v9h-9z"/></defs><clipPath id="bL"><use xlink:href="#bK" overflow="visible"/></clipPath><g clip-path="url(#bL)"><defs><path id="bM" d="M-1085.6-785.9h1121v1030h-1121z"/></defs></g></g></g><g><defs><path id="bN" d="M-126.6-259.9h9v9h-9z"/></defs><clipPath id="bO"><use xlink:href="#bN" overflow="visible"/></clipPath><g clip-path="url(#bO)"><defs><path id="bP" d="M-1085.6-785.9h1121v1030h-1121z"/></defs></g></g><g><defs><path id="bQ" d="M-155.6-233.4h-1.5v12h12v-12h-10.5zm0 3h9l-1.5-1.5v9l1.5-1.5h-9l1.5 1.5v-9l-1.5 1.5zm-21.5-23h52v52h-52v-52z"/></defs><clipPath id="bR"><use xlink:href="#bQ" overflow="visible"/></clipPath><g clip-path="url(#bR)"><defs><path id="bS" d="M-155.6-231.9h9v9h-9z"/></defs><clipPath id="bT"><use xlink:href="#bS" overflow="visible"/></clipPath><g clip-path="url(#bT)"><defs><path id="bU" d="M-1085.6-785.9h1121v1030h-1121z"/></defs></g></g></g><g><defs><path id="bV" d="M-155.6-231.9h9v9h-9z"/></defs><clipPath id="bW"><use xlink:href="#bV" overflow="visible"/></clipPath><g clip-path="url(#bW)"><defs><path id="bX" d="M-1085.6-785.9h1121v1030h-1121z"/></defs></g></g><g><defs><path id="bY" d="M-126.6-233.4h-1.5v12h12v-12h-10.5zm0 3h9l-1.5-1.5v9l1.5-1.5h-9l1.5 1.5v-9l-1.5 1.5zm-21.5-23h52v52h-52v-52z"/></defs><clipPath id="bZ"><use xlink:href="#bY" overflow="visible"/></clipPath><g clip-path="url(#bZ)"><defs><path id="ca" d="M-126.6-231.9h9v9h-9z"/></defs><clipPath id="cb"><use xlink:href="#ca" overflow="visible"/></clipPath><g clip-path="url(#cb)"><defs><path id="cc" d="M-1085.6-785.9h1121v1030h-1121z"/></defs></g></g></g><g><defs><path id="cd" d="M-126.6-231.9h9v9h-9z"/></defs><clipPath id="ce"><use xlink:href="#cd" overflow="visible"/></clipPath><g clip-path="url(#ce)"><defs><path id="cf" d="M-1085.6-785.9h1121v1030h-1121z"/></defs></g></g><g><path fill="#FFF" stroke="#0C1F2E" stroke-width="3" stroke-miterlimit="10" d="M171.2 41.1c-16.3-16.3-42.8-16.3-59.1 0-14.4 14.3-16.1 36.5-5.3 52.7l14.9-14.9c-3.9-8.7-2.3-19.2 4.9-26.3 6.6-6.6 16.1-8.4 24.3-5.6L134 64l3.3 11.8 11.9 3.1 16.7-16.8c2.6 8.1.9 17.7-5.6 24.2-6.7 6.7-16.6 8.3-24.7 5.5l-14.9 14.9c16 9.4 36.9 7.2 50.7-6.5 16.1-16.3 16.1-42.8-.2-59.1z"/></g></svg>