<svg xmlns="http://www.w3.org/2000/svg" xmlns:xlink="http://www.w3.org/1999/xlink" viewBox="0 0 276 137"><defs><path id="a" d="M83.4 28.6h-1.5v84h108v-84H83.4zm0 3h105l-1.5-1.5v81l1.5-1.5h-105l1.5 1.5v-81l-1.5 1.5zm-21.5-23h148v124h-148V8.6z"/></defs><clipPath id="b"><use xlink:href="#a" overflow="visible"/></clipPath><g clip-path="url(#b)"><defs><path id="c" d="M83.4 30.1h105v81h-105z"/></defs><clipPath id="d"><use xlink:href="#c" overflow="visible"/></clipPath><g clip-path="url(#d)"><defs><path id="e" d="M-797.6-468.9h1121v1030h-1121z"/></defs><clipPath id="f"><use xlink:href="#e" overflow="visible"/></clipPath><g clip-path="url(#f)"><path fill-rule="evenodd" clip-rule="evenodd" fill="#FFF" d="M83.4 30.1h105v81h-105z"/></g></g></g><defs><path id="g" d="M83.4 30.1h105v81h-105z"/></defs><clipPath id="h"><use xlink:href="#g" overflow="visible"/></clipPath><g clip-path="url(#h)"><defs><path id="i" d="M-797.6-468.9h1121v1030h-1121z"/></defs><clipPath id="j"><use xlink:href="#i" overflow="visible"/></clipPath><g clip-path="url(#j)"><path fill="#0F1F2D" d="M191.4 114.1h-111v-87h111v87zm-105-6h99v-75h-99v75z"/></g></g><defs><path id="k" d="M77.4 45.6h-2.2l.9-2.1 9.1-22 .4-.9h100.9l.4.9 9.1 22 .9 2.1H77.4zm0-3h117l-1.4 2.1-9.1-22 1.4.9H86.5l1.4-.9-9.1 22-1.4-2.1zm-22.3 23h161.5V.6H55.1v65z"/></defs><clipPath id="l"><use xlink:href="#k" overflow="visible"/></clipPath><g clip-path="url(#l)"><defs><path id="m" d="M77.4 44.1h117l-9.1-22H86.5z"/></defs><clipPath id="n"><use xlink:href="#m" overflow="visible"/></clipPath><g clip-path="url(#n)"><defs><path id="o" d="M-797.6-468.9h1121v1030h-1121z"/></defs><clipPath id="p"><use xlink:href="#o" overflow="visible"/></clipPath><g clip-path="url(#p)"><path fill-rule="evenodd" clip-rule="evenodd" fill="#FFF" d="M77.4 44.1h117l-9.1-22H86.5z"/></g></g></g><defs><path id="q" d="M77.4 44.1h117l-9.1-22H86.5z"/></defs><clipPath id="r"><use xlink:href="#q" overflow="visible"/></clipPath><g clip-path="url(#r)"><defs><path id="s" d="M-797.6-468.9h1121v1030h-1121z"/></defs><clipPath id="t"><use xlink:href="#s" overflow="visible"/></clipPath><g clip-path="url(#t)"><path fill="#0F1F2D" d="M198.9 47.1h-126l11.5-28h102.9l11.6 28zm-117-6h108l-6.6-16H88.5l-6.6 16z"/></g></g><defs><path id="u" d="M162.4 12.6h-1.5v19h15v-19h-13.5zm0 3h12l-1.5-1.5v16l1.5-1.5h-12l1.5 1.5v-16l-1.5 1.5zm-21.5-23h55v59h-55v-59z"/></defs><clipPath id="v"><use xlink:href="#u" overflow="visible"/></clipPath><g clip-path="url(#v)"><defs><path id="w" d="M162.4 14.1h12v16h-12z"/></defs><clipPath id="x"><use xlink:href="#w" overflow="visible"/></clipPath><g clip-path="url(#x)"><defs><path id="y" d="M-797.6-468.9h1121v1030h-1121z"/></defs><clipPath id="z"><use xlink:href="#y" overflow="visible"/></clipPath><g clip-path="url(#z)"><path fill-rule="evenodd" clip-rule="evenodd" fill="#FFF" d="M162.4 14.1h12v16h-12z"/></g></g></g><defs><path id="A" d="M162.4 14.1h12v16h-12z"/></defs><clipPath id="B"><use xlink:href="#A" overflow="visible"/></clipPath><g clip-path="url(#B)"><defs><path id="C" d="M-797.6-468.9h1121v1030h-1121z"/></defs><clipPath id="D"><use xlink:href="#C" overflow="visible"/></clipPath><g clip-path="url(#D)"><path fill="#0F1F2D" d="M177.4 33.1h-18v-22h18v22zm-12-6h6v-10h-6v10z"/></g></g><defs><path id="E" d="M96.4 78.6h-1.5v34h24v-34H96.4zm0 3h21l-1.5-1.5v31l1.5-1.5h-21l1.5 1.5v-31l-1.5 1.5zm-21.5-23h64v74h-64v-74z"/></defs><clipPath id="F"><use xlink:href="#E" overflow="visible"/></clipPath><g clip-path="url(#F)"><defs><path id="G" d="M96.4 80.1h21v31h-21z"/></defs><clipPath id="H"><use xlink:href="#G" overflow="visible"/></clipPath><g clip-path="url(#H)"><defs><path id="I" d="M-797.6-468.9h1121v1030h-1121z"/></defs><clipPath id="J"><use xlink:href="#I" overflow="visible"/></clipPath><g clip-path="url(#J)"><path fill-rule="evenodd" clip-rule="evenodd" fill="#FFF" d="M96.4 80.1h21v31h-21z"/></g></g></g><defs><path id="K" d="M96.4 80.1h21v31h-21z"/></defs><clipPath id="L"><use xlink:href="#K" overflow="visible"/></clipPath><g clip-path="url(#L)"><defs><path id="M" d="M-797.6-468.9h1121v1030h-1121z"/></defs><clipPath id="N"><use xlink:href="#M" overflow="visible"/></clipPath><g clip-path="url(#N)"><path fill="#0F1F2D" d="M120.4 114.1h-27v-37h27v37zm-21-6h15v-25h-15v25z"/></g></g><defs><path id="O" d="M97.4 50.6h-1.5v22h22v-22H97.4zm0 3h19l-1.5-1.5v19l1.5-1.5h-19l1.5 1.5v-19l-1.5 1.5zm-21.5-23h62v62h-62v-62z"/></defs><clipPath id="P"><use xlink:href="#O" overflow="visible"/></clipPath><g clip-path="url(#P)"><defs><path id="Q" d="M97.4 52.1h19v19h-19z"/></defs><clipPath id="R"><use xlink:href="#Q" overflow="visible"/></clipPath><g clip-path="url(#R)"><defs><path id="S" d="M-797.6-468.9h1121v1030h-1121z"/></defs><clipPath id="T"><use xlink:href="#S" overflow="visible"/></clipPath><g clip-path="url(#T)"><path fill-rule="evenodd" clip-rule="evenodd" fill="#FFF" d="M97.4 52.1h19v19h-19z"/></g></g></g><defs><path id="U" d="M97.4 52.1h19v19h-19z"/></defs><clipPath id="V"><use xlink:href="#U" overflow="visible"/></clipPath><g clip-path="url(#V)"><defs><path id="W" d="M-797.6-468.9h1121v1030h-1121z"/></defs><clipPath id="X"><use xlink:href="#W" overflow="visible"/></clipPath><g clip-path="url(#X)"><path fill="#0F1F2D" d="M119.4 74.1h-25v-25h25v25zm-19-6h13v-13h-13v13z"/></g></g><defs><path id="Y" d="M102.4 55.6h-1.5v12h12v-12h-10.5zm0 3h9l-1.5-1.5v9l1.5-1.5h-9l1.5 1.5v-9l-1.5 1.5zm-21.5-23h52v52h-52v-52z"/></defs><clipPath id="Z"><use xlink:href="#Y" overflow="visible"/></clipPath><g clip-path="url(#Z)"><defs><path id="aa" d="M102.4 57.1h9v9h-9z"/></defs><clipPath id="ab"><use xlink:href="#aa" overflow="visible"/></clipPath><g clip-path="url(#ab)"><defs><path id="ac" d="M-797.6-468.9h1121v1030h-1121z"/></defs><clipPath id="ad"><use xlink:href="#ac" overflow="visible"/></clipPath><g clip-path="url(#ad)"><path fill-rule="evenodd" clip-rule="evenodd" fill="#FFF" d="M102.4 57.1h9v9h-9z"/></g></g></g><defs><path id="ae" d="M102.4 57.1h9v9h-9z"/></defs><clipPath id="af"><use xlink:href="#ae" overflow="visible"/></clipPath><g clip-path="url(#af)"><defs><path id="ag" d="M-797.6-468.9h1121v1030h-1121z"/></defs><clipPath id="ah"><use xlink:href="#ag" overflow="visible"/></clipPath><g clip-path="url(#ah)"><path fill="#0F1F2D" d="M114.4 69.1h-15v-15h15v15zm-9-6h3v-3h-3v3z"/></g></g><defs><path id="ai" d="M127.4 50.6h-1.5v22h22v-22h-20.5zm0 3h19l-1.5-1.5v19l1.5-1.5h-19l1.5 1.5v-19l-1.5 1.5zm-21.5-23h62v62h-62v-62z"/></defs><clipPath id="aj"><use xlink:href="#ai" overflow="visible"/></clipPath><g clip-path="url(#aj)"><defs><path id="ak" d="M127.4 52.1h19v19h-19z"/></defs><clipPath id="al"><use xlink:href="#ak" overflow="visible"/></clipPath><g clip-path="url(#al)"><defs><path id="am" d="M-797.6-468.9h1121v1030h-1121z"/></defs><clipPath id="an"><use xlink:href="#am" overflow="visible"/></clipPath><g clip-path="url(#an)"><path fill-rule="evenodd" clip-rule="evenodd" fill="#FFF" d="M127.4 52.1h19v19h-19z"/></g></g></g><defs><path id="ao" d="M127.4 52.1h19v19h-19z"/></defs><clipPath id="ap"><use xlink:href="#ao" overflow="visible"/></clipPath><g clip-path="url(#ap)"><defs><path id="aq" d="M-797.6-468.9h1121v1030h-1121z"/></defs><clipPath id="ar"><use xlink:href="#aq" overflow="visible"/></clipPath><g clip-path="url(#ar)"><path fill="#0F1F2D" d="M149.4 74.1h-25v-25h25v25zm-19-6h13v-13h-13v13z"/></g></g><defs><path id="as" d="M156.4 50.6h-1.5v22h22v-22h-20.5zm0 3h19l-1.5-1.5v19l1.5-1.5h-19l1.5 1.5v-19l-1.5 1.5zm-21.5-23h62v62h-62v-62z"/></defs><clipPath id="at"><use xlink:href="#as" overflow="visible"/></clipPath><g clip-path="url(#at)"><defs><path id="au" d="M156.4 52.1h19v19h-19z"/></defs><clipPath id="av"><use xlink:href="#au" overflow="visible"/></clipPath><g clip-path="url(#av)"><defs><path id="aw" d="M-797.6-468.9h1121v1030h-1121z"/></defs><clipPath id="ax"><use xlink:href="#aw" overflow="visible"/></clipPath><g clip-path="url(#ax)"><path fill-rule="evenodd" clip-rule="evenodd" fill="#FFF" d="M156.4 52.1h19v19h-19z"/></g></g></g><defs><path id="ay" d="M156.4 52.1h19v19h-19z"/></defs><clipPath id="az"><use xlink:href="#ay" overflow="visible"/></clipPath><g clip-path="url(#az)"><defs><path id="aA" d="M-797.6-468.9h1121v1030h-1121z"/></defs><clipPath id="aB"><use xlink:href="#aA" overflow="visible"/></clipPath><g clip-path="url(#aB)"><path fill="#0F1F2D" d="M178.4 74.1h-25v-25h25v25zm-19-6h13v-13h-13v13z"/></g></g><defs><path id="aC" d="M127.4 78.6h-1.5v22h22v-22h-20.5zm0 3h19l-1.5-1.5v19l1.5-1.5h-19l1.5 1.5v-19l-1.5 1.5zm-21.5-23h62v62h-62v-62z"/></defs><clipPath id="aD"><use xlink:href="#aC" overflow="visible"/></clipPath><g clip-path="url(#aD)"><defs><path id="aE" d="M127.4 80.1h19v19h-19z"/></defs><clipPath id="aF"><use xlink:href="#aE" overflow="visible"/></clipPath><g clip-path="url(#aF)"><defs><path id="aG" d="M-797.6-468.9h1121v1030h-1121z"/></defs><clipPath id="aH"><use xlink:href="#aG" overflow="visible"/></clipPath><g clip-path="url(#aH)"><path fill-rule="evenodd" clip-rule="evenodd" fill="#FFF" d="M127.4 80.1h19v19h-19z"/></g></g></g><defs><path id="aI" d="M127.4 80.1h19v19h-19z"/></defs><clipPath id="aJ"><use xlink:href="#aI" overflow="visible"/></clipPath><g clip-path="url(#aJ)"><defs><path id="aK" d="M-797.6-468.9h1121v1030h-1121z"/></defs><clipPath id="aL"><use xlink:href="#aK" overflow="visible"/></clipPath><g clip-path="url(#aL)"><path fill="#0F1F2D" d="M149.4 102.1h-25v-25h25v25zm-19-6h13v-13h-13v13z"/></g></g><defs><path id="aM" d="M156.4 78.6h-1.5v22h22v-22h-20.5zm0 3h19l-1.5-1.5v19l1.5-1.5h-19l1.5 1.5v-19l-1.5 1.5zm-21.5-23h62v62h-62v-62z"/></defs><clipPath id="aN"><use xlink:href="#aM" overflow="visible"/></clipPath><g clip-path="url(#aN)"><defs><path id="aO" d="M156.4 80.1h19v19h-19z"/></defs><clipPath id="aP"><use xlink:href="#aO" overflow="visible"/></clipPath><g clip-path="url(#aP)"><defs><path id="aQ" d="M-797.6-468.9h1121v1030h-1121z"/></defs><clipPath id="aR"><use xlink:href="#aQ" overflow="visible"/></clipPath><g clip-path="url(#aR)"><path fill-rule="evenodd" clip-rule="evenodd" fill="#FFF" d="M156.4 80.1h19v19h-19z"/></g></g></g><defs><path id="aS" d="M156.4 80.1h19v19h-19z"/></defs><clipPath id="aT"><use xlink:href="#aS" overflow="visible"/></clipPath><g clip-path="url(#aT)"><defs><path id="aU" d="M-797.6-468.9h1121v1030h-1121z"/></defs><clipPath id="aV"><use xlink:href="#aU" overflow="visible"/></clipPath><g clip-path="url(#aV)"><path fill="#0F1F2D" d="M178.4 102.1h-25v-25h25v25zm-19-6h13v-13h-13v13z"/></g></g><defs><path id="aW" d="M132.4 55.6h-1.5v12h12v-12h-10.5zm0 3h9l-1.5-1.5v9l1.5-1.5h-9l1.5 1.5v-9l-1.5 1.5zm-21.5-23h52v52h-52v-52z"/></defs><clipPath id="aX"><use xlink:href="#aW" overflow="visible"/></clipPath><g clip-path="url(#aX)"><defs><path id="aY" d="M132.4 57.1h9v9h-9z"/></defs><clipPath id="aZ"><use xlink:href="#aY" overflow="visible"/></clipPath><g clip-path="url(#aZ)"><defs><path id="ba" d="M-797.6-468.9h1121v1030h-1121z"/></defs><clipPath id="bb"><use xlink:href="#ba" overflow="visible"/></clipPath><g clip-path="url(#bb)"><path fill-rule="evenodd" clip-rule="evenodd" fill="#FFF" d="M132.4 57.1h9v9h-9z"/></g></g></g><defs><path id="bc" d="M132.4 57.1h9v9h-9z"/></defs><clipPath id="bd"><use xlink:href="#bc" overflow="visible"/></clipPath><g clip-path="url(#bd)"><defs><path id="be" d="M-797.6-468.9h1121v1030h-1121z"/></defs><clipPath id="bf"><use xlink:href="#be" overflow="visible"/></clipPath><g clip-path="url(#bf)"><path fill="#0F1F2D" d="M144.4 69.1h-15v-15h15v15zm-9-6h3v-3h-3v3z"/></g></g><defs><path id="bg" d="M161.4 55.6h-1.5v12h12v-12h-10.5zm0 3h9l-1.5-1.5v9l1.5-1.5h-9l1.5 1.5v-9l-1.5 1.5zm-21.5-23h52v52h-52v-52z"/></defs><clipPath id="bh"><use xlink:href="#bg" overflow="visible"/></clipPath><g clip-path="url(#bh)"><defs><path id="bi" d="M161.4 57.1h9v9h-9z"/></defs><clipPath id="bj"><use xlink:href="#bi" overflow="visible"/></clipPath><g clip-path="url(#bj)"><defs><path id="bk" d="M-797.6-468.9h1121v1030h-1121z"/></defs><clipPath id="bl"><use xlink:href="#bk" overflow="visible"/></clipPath><g clip-path="url(#bl)"><path fill-rule="evenodd" clip-rule="evenodd" fill="#FFF" d="M161.4 57.1h9v9h-9z"/></g></g></g><defs><path id="bm" d="M161.4 57.1h9v9h-9z"/></defs><clipPath id="bn"><use xlink:href="#bm" overflow="visible"/></clipPath><g clip-path="url(#bn)"><defs><path id="bo" d="M-797.6-468.9h1121v1030h-1121z"/></defs><clipPath id="bp"><use xlink:href="#bo" overflow="visible"/></clipPath><g clip-path="url(#bp)"><path fill="#0F1F2D" d="M173.4 69.1h-15v-15h15v15zm-9-6h3v-3h-3v3z"/></g></g><defs><path id="bq" d="M132.4 83.6h-1.5v12h12v-12h-10.5zm0 3h9l-1.5-1.5v9l1.5-1.5h-9l1.5 1.5v-9l-1.5 1.5zm-21.5-23h52v52h-52v-52z"/></defs><clipPath id="br"><use xlink:href="#bq" overflow="visible"/></clipPath><g clip-path="url(#br)"><defs><path id="bs" d="M132.4 85.1h9v9h-9z"/></defs><clipPath id="bt"><use xlink:href="#bs" overflow="visible"/></clipPath><g clip-path="url(#bt)"><defs><path id="bu" d="M-797.6-468.9h1121v1030h-1121z"/></defs><clipPath id="bv"><use xlink:href="#bu" overflow="visible"/></clipPath><g clip-path="url(#bv)"><path fill-rule="evenodd" clip-rule="evenodd" fill="#FFF" d="M132.4 85.1h9v9h-9z"/></g></g></g><defs><path id="bw" d="M132.4 85.1h9v9h-9z"/></defs><clipPath id="bx"><use xlink:href="#bw" overflow="visible"/></clipPath><g clip-path="url(#bx)"><defs><path id="by" d="M-797.6-468.9h1121v1030h-1121z"/></defs><clipPath id="bz"><use xlink:href="#by" overflow="visible"/></clipPath><g clip-path="url(#bz)"><path fill="#0F1F2D" d="M144.4 97.1h-15v-15h15v15zm-9-6h3v-3h-3v3z"/></g></g><defs><path id="bA" d="M161.4 83.6h-1.5v12h12v-12h-10.5zm0 3h9l-1.5-1.5v9l1.5-1.5h-9l1.5 1.5v-9l-1.5 1.5zm-21.5-23h52v52h-52v-52z"/></defs><clipPath id="bB"><use xlink:href="#bA" overflow="visible"/></clipPath><g clip-path="url(#bB)"><defs><path id="bC" d="M161.4 85.1h9v9h-9z"/></defs><clipPath id="bD"><use xlink:href="#bC" overflow="visible"/></clipPath><g clip-path="url(#bD)"><defs><path id="bE" d="M-797.6-468.9h1121v1030h-1121z"/></defs><clipPath id="bF"><use xlink:href="#bE" overflow="visible"/></clipPath><g clip-path="url(#bF)"><path fill-rule="evenodd" clip-rule="evenodd" fill="#FFF" d="M161.4 85.1h9v9h-9z"/></g></g></g><defs><path id="bG" d="M161.4 85.1h9v9h-9z"/></defs><clipPath id="bH"><use xlink:href="#bG" overflow="visible"/></clipPath><g clip-path="url(#bH)"><defs><path id="bI" d="M-797.6-468.9h1121v1030h-1121z"/></defs><clipPath id="bJ"><use xlink:href="#bI" overflow="visible"/></clipPath><g clip-path="url(#bJ)"><path fill="#0F1F2D" d="M173.4 97.1h-15v-15h15v15zm-9-6h3v-3h-3v3z"/></g></g><circle fill="#FFF" cx="180" cy="101.2" r="18.5"/><path fill="#0F1F2D" d="M180 121.2c-5.3 0-10.4-2.1-14.1-5.9-3.8-3.8-5.9-8.8-5.9-14.1 0-5.3 2.1-10.4 5.9-14.1 3.8-3.8 8.8-5.9 14.1-5.9 5.3 0 10.4 2.1 14.1 5.9 3.8 3.8 5.9 8.8 5.9 14.1 0 5.3-2.1 10.4-5.9 14.1-3.8 3.8-8.8 5.9-14.1 5.9zm0-37c-4.5 0-8.8 1.8-12 5-3.2 3.2-5 7.5-5 12s1.8 8.8 5 12c3.2 3.2 7.5 5 12 5s8.8-1.8 12-5 5-7.5 5-12-1.8-8.8-5-12-7.5-5-12-5z"/><path d="M181.4 106.5v3.2h-2.8v-3.3c-1.9-.3-3.7-1.1-5.1-2.2l1.5-2.9c1.5 1.3 3.8 2.2 5.4 2.2 1.2 0 1.9-.4 1.9-1.3 0-2.6-7.8-1.1-7.8-6.3 0-2.3 1.6-3.8 4.2-4.3v-3.1h2.8v3c1.8.2 3.5.8 4.8 1.6l-1.4 2.9c-1.6-.9-3.5-1.5-4.7-1.5-1 0-1.6.4-1.6 1.1 0 2.6 7.8 1.1 7.8 6.5-.1 2.6-2.2 4.1-5 4.4z"/><defs><circle id="bK" cx="-195.7" cy="53.5" r="15.7"/></defs><defs><path id="bL" d="M-195.7 70.8c-9.5 0-17.2-7.7-17.2-17.2s7.7-17.2 17.2-17.2 17.2 7.7 17.2 17.2c.1 9.5-7.7 17.2-17.2 17.2zm0-31.5c-7.9 0-14.2 6.4-14.2 14.2 0 7.9 6.4 14.2 14.2 14.2s14.2-6.4 14.2-14.2c.1-7.8-6.3-14.2-14.2-14.2z"/></defs><use xlink:href="#bK" overflow="visible" fill-rule="evenodd" clip-rule="evenodd" fill="#FFF"/><use xlink:href="#bL" overflow="visible" fill="#0F1F2D"/><clipPath id="bM"><use xlink:href="#bK" overflow="visible"/></clipPath><clipPath id="bN" clip-path="url(#bM)"><use xlink:href="#bL" overflow="visible"/></clipPath><g clip-path="url(#bN)"><defs><path id="bO" d="M-258.8-212.7h405.6V160h-405.6z"/></defs><defs><path id="bP" d="M148.3 161.4h-408.6v-375.7h408.6v375.7zm-405.6-3h402.6v-369.7h-402.6v369.7z"/></defs><use xlink:href="#bO" overflow="visible" fill="#FFF"/><use xlink:href="#bP" overflow="visible" fill="#0F1F2D"/></g><path d="M179.6 116.1l-2.2-4.1-2.3-4h8.9l-2.2 4z"/><defs><path id="bQ" d="M683.4-288.4h-1.5v84h108v-84H683.4zm0 3h105l-1.5-1.5v81l1.5-1.5h-105l1.5 1.5v-81l-1.5 1.5zm-21.5-23h148v124h-148v-124z"/></defs><defs><path id="bR" d="M677.4-271.4h-2.2l.9-2.1 9.1-22 .4-.9h100.9l.4.9 9.1 22 .9 2.1H677.4zm0-3h117l-1.4 2.1-9.1-22 1.4.9h-98.9l1.4-.9-9.1 22-1.3-2.1zm-22.3 23h161.5v-65H655.1v65z"/></defs><defs><path id="bS" d="M762.4-304.4h-1.5v19h15v-19h-13.5zm0 3h12l-1.5-1.5v16l1.5-1.5h-12l1.5 1.5v-16l-1.5 1.5zm-21.5-23h55v59h-55v-59z"/></defs><defs><path id="bT" d="M696.4-238.4h-1.5v34h24v-34h-22.5zm0 3h21l-1.5-1.5v31l1.5-1.5h-21l1.5 1.5v-31l-1.5 1.5zm-21.5-23h64v74h-64v-74z"/></defs><defs><path id="bU" d="M697.4-266.4h-1.5v22h22v-22h-20.5zm0 3h19l-1.5-1.5v19l1.5-1.5h-19l1.5 1.5v-19l-1.5 1.5zm-21.5-23h62v62h-62v-62z"/></defs><defs><path id="bV" d="M702.4-261.4h-1.5v12h12v-12h-10.5zm0 3h9l-1.5-1.5v9l1.5-1.5h-9l1.5 1.5v-9l-1.5 1.5zm-21.5-23h52v52h-52v-52z"/></defs><defs><path id="bW" d="M727.4-266.4h-1.5v22h22v-22h-20.5zm0 3h19l-1.5-1.5v19l1.5-1.5h-19l1.5 1.5v-19l-1.5 1.5zm-21.5-23h62v62h-62v-62z"/></defs><defs><path id="bX" d="M756.4-266.4h-1.5v22h22v-22h-20.5zm0 3h19l-1.5-1.5v19l1.5-1.5h-19l1.5 1.5v-19l-1.5 1.5zm-21.5-23h62v62h-62v-62z"/></defs><defs><path id="bY" d="M727.4-238.4h-1.5v22h22v-22h-20.5zm0 3h19l-1.5-1.5v19l1.5-1.5h-19l1.5 1.5v-19l-1.5 1.5zm-21.5-23h62v62h-62v-62z"/></defs><defs><path id="bZ" d="M756.4-238.4h-1.5v22h22v-22h-20.5zm0 3h19l-1.5-1.5v19l1.5-1.5h-19l1.5 1.5v-19l-1.5 1.5zm-21.5-23h62v62h-62v-62z"/></defs><defs><path id="ca" d="M732.4-261.4h-1.5v12h12v-12h-10.5zm0 3h9l-1.5-1.5v9l1.5-1.5h-9l1.5 1.5v-9l-1.5 1.5zm-21.5-23h52v52h-52v-52z"/></defs><defs><path id="cb" d="M761.4-261.4h-1.5v12h12v-12h-10.5zm0 3h9l-1.5-1.5v9l1.5-1.5h-9l1.5 1.5v-9l-1.5 1.5zm-21.5-23h52v52h-52v-52z"/></defs><defs><path id="cc" d="M732.4-233.4h-1.5v12h12v-12h-10.5zm0 3h9l-1.5-1.5v9l1.5-1.5h-9l1.5 1.5v-9l-1.5 1.5zm-21.5-23h52v52h-52v-52z"/></defs><defs><path id="cd" d="M761.4-233.4h-1.5v12h12v-12h-10.5zm0 3h9l-1.5-1.5v9l1.5-1.5h-9l1.5 1.5v-9l-1.5 1.5zm-21.5-23h52v52h-52v-52z"/></defs></svg>