<svg xmlns="http://www.w3.org/2000/svg" xmlns:xlink="http://www.w3.org/1999/xlink" viewBox="0 0 276 137"><defs><path id="a" d="M-159.9-309.6c30.3 0 55 7.1 55 14.8v22l1.7-1.5c-.1 0-.2 0-.4-.1-.4-.1-.8-.1-1.3-.2-1.4-.2-2.9-.4-4.6-.6-4.9-.7-10-1.3-15.2-2-3.9-.5-7.7-.9-11.3-1.3-9.9-1-18.1-1.6-23.9-1.6-5.2 0-14.3.8-26.1 2.3-2.5.3-5.1.6-7.7 1-5.4.7-10.9 1.5-16.1 2.3-1.8.3-3.5.5-5 .8-.5.1-1 .2-1.4.2-.2 0-.4.1-.5.1l1.7 1.5v-23c.1-7.6 24.8-14.7 55.1-14.7zm0-3c-32.1 0-58 7.5-58 17.8v24.8l1.7-.3c.1 0 .2 0 .5-.1.4-.1.8-.1 1.4-.2 1.5-.2 3.1-.5 5-.8 5.2-.8 10.7-1.6 16.1-2.3 2.6-.4 5.2-.7 7.7-1 11.7-1.5 20.7-2.3 25.7-2.3 5.6 0 13.7.6 23.6 1.6 3.6.4 7.4.8 11.2 1.3 5.2.6 10.3 1.3 15.2 2 1.7.2 3.2.4 4.6.6.5.1.9.1 1.2.2.2 0 .4.1.4.1l1.7.3v-23.7c0-10.6-25.9-18-58-18zm-78-20h156v82.5h-156v-82.5z"/></defs><clipPath id="b"><use xlink:href="#a" overflow="visible"/></clipPath><g clip-path="url(#b)"><defs><path id="c" d="M-159.9-311.1c-31.2 0-56.5 7.3-56.5 16.3v23s42.2-6.7 56.5-6.7c18 0 56.5 5.7 56.5 5.7v-22c0-9-25.3-16.3-56.5-16.3z"/></defs></g><defs><path id="d" d="M-159.9-311.1c-31.2 0-56.5 7.3-56.5 16.3v23s42.2-6.7 56.5-6.7c18 0 56.5 5.7 56.5 5.7v-22c0-9-25.3-16.3-56.5-16.3z"/></defs><defs><path id="e" d="M-159.9-287.4c30.3 0 55 7.1 55 14.8s-24.7 14.8-55 14.8-55-7.1-55-14.8 24.7-14.8 55-14.8zm0-3c-32.1 0-58 7.5-58 17.8s25.9 17.8 58 17.8 58-7.5 58-17.8-25.9-17.8-58-17.8zm-78-20h156v75.6h-156v-75.6z"/></defs><clipPath id="f"><use xlink:href="#e" overflow="visible"/></clipPath><g clip-path="url(#f)"><defs><ellipse id="g" cx="-159.9" cy="-272.5" rx="56.5" ry="16.3"/></defs></g><defs><ellipse id="h" cx="-159.9" cy="-272.5" rx="56.5" ry="16.3"/></defs><defs><path id="i" d="M-199.9-268.2c0-5.3 18-10.4 40-10.4s40 5.2 40 10.4v7.1l1.2-1.5c-.1 0-.1 0-.3.1-.3 0-.6.1-.9.2-1 .2-2.1.3-3.4.5-3.6.6-7.3 1.1-11.1 1.7-2.9.4-5.6.8-8.3 1.1-7.2.9-13.1 1.3-17.2 1.3-3.7 0-10.3-.5-18.9-1.4-1.8-.2-3.7-.4-5.6-.6-4-.5-8-.9-11.8-1.4-1.3-.2-2.6-.3-3.6-.5-.4 0-.7-.1-1-.1h-.3l1.3 1.5v-8zm-3 0v9.1l1.3.2h.4c.3 0 .6.1 1 .1 1.1.1 2.3.3 3.7.5a11776882415803102 11776882415803102 0 0 0 36.7 3.5c4.3 0 10.3-.5 17.6-1.4 2.7-.3 5.4-.7 8.3-1.1 3.8-.5 7.6-1.1 11.2-1.7 1.3-.2 2.4-.4 3.4-.5.4-.1.7-.1.9-.2.3 0 .3 0 .3-.1l1.2-.2v-8.4c0-7.9-19.2-13.4-43-13.4s-43 5.7-43 13.6zm-20-33.4h126v66.9h-126v-66.9z"/></defs><clipPath id="j"><use xlink:href="#i" overflow="visible"/></clipPath><g clip-path="url(#j)"><defs><path id="k" d="M-201.4-268.2v7.8s31 4.1 41.5 4.1c13.2 0 41.5-4.8 41.5-4.8v-7.1c0-6.6-18.6-11.9-41.5-11.9s-41.5 5.3-41.5 11.9z"/></defs></g><defs><path id="l" d="M-201.4-268.2v7.8s31 4.1 41.5 4.1c13.2 0 41.5-4.8 41.5-4.8v-7.1c0-6.6-18.6-11.9-41.5-11.9s-41.5 5.3-41.5 11.9z"/></defs><defs><path id="m" d="M-159.9-270.3c22 0 40 5.2 40 10.4s-18 10.4-40 10.4-40-5.2-40-10.4 18-10.4 40-10.4zm0-3c-23.8 0-43 5.5-43 13.4s19.2 13.4 43 13.4 43-5.5 43-13.4-19.2-13.4-43-13.4zm-63-20h126v66.9h-126v-66.9z"/></defs><clipPath id="n"><use xlink:href="#m" overflow="visible"/></clipPath><g clip-path="url(#n)"><defs><ellipse id="o" cx="-159.9" cy="-259.9" rx="41.5" ry="11.9"/></defs></g><defs><ellipse id="p" cx="-159.9" cy="-259.9" rx="41.5" ry="11.9"/></defs><defs><path id="q" d="M-172.5-258.3c0 .4-.2.7-.4.8.1 0 .2-.1.4-.2.6-.2 1.6-.4 2.8-.6 2.6-.4 6-.6 9.8-.6s7.2.2 9.8.6c1.2.2 2.2.4 2.8.6l.4.2c-.2-.1-.4-.4-.4-.8s.2-.7.4-.8c-.1 0-.2.1-.4.2-.6.2-1.6.4-2.8.6-2.6.4-6 .6-9.8.6s-7.2-.2-9.8-.6c-1.2-.2-2.2-.4-2.8-.6l-.4-.2c.2.1.4.3.4.8zm-3 0c0 2.6 6.2 3.5 15.6 3.5 9.4 0 15.6-.9 15.6-3.5s-6.2-3.5-15.6-3.5c-9.4-.1-15.6.8-15.6 3.5zm-20-23.6h71.2v47.1h-71.2v-47.1z"/></defs><clipPath id="r"><use xlink:href="#q" overflow="visible"/></clipPath><g clip-path="url(#r)"><defs><ellipse id="s" cx="-159.9" cy="-258.3" rx="14.1" ry="2"/></defs></g><defs><ellipse id="t" cx="-159.9" cy="-258.3" rx="14.1" ry="2"/></defs><defs><path id="u" d="M-167.1-241s-10.5 3.3-9.1 12.3c.9 5.5 5.6 8.1 5.6 13.5s-4.6 9.5-4.6 9.5 13.5-.3 14.6-9.5c1.1-9.2-6.7-11.3-8.3-15.6-1.4-4.3 1.8-10.2 1.8-10.2z"/></defs><defs><path id="v" d="M-152-237.7s-15.1 4.8-13 17.6c1.2 7.9 8 11.6 8 19.4s-6.5 13.6-6.5 13.6 19.3-.5 20.9-13.6-9.6-16.1-11.8-22.3c-2.3-6.3 2.4-14.7 2.4-14.7z"/></defs><defs><path id="w" d="M-803.5-127.5l-1.4.4.4 1.4 30.4 99.5.4 1.4 1.4-.4 60.2-18.4 1.4-.4-.4-1.4-30.4-99.5-.4-1.4-1.4.4-60.2 18.4zm.9 2.9l60.2-18.4-1.9-1 30.4 99.5 1-1.9-60.2 18.4 1.9 1-30.4-99.5-1 1.9zm-27.3-15.7l101.4-31 43 140.6-101.4 31-43-140.6z"/></defs><clipPath id="x"><use xlink:href="#w" overflow="visible"/></clipPath><g clip-path="url(#x)"><defs><path id="y" transform="rotate(162.999 -757.704 -85.508)" d="M-789.2-137.5h63v104h-63z"/></defs></g><defs><path id="z" transform="rotate(162.999 -757.704 -85.508)" d="M-789.2-137.5h63v104h-63z"/></defs><defs><path id="A" d="M-768.2-150.5h-1.5v107h66v-107h-64.5zm0 3h63l-1.5-1.5v104l1.5-1.5h-63l1.5 1.5v-104l-1.5 1.5zm-21.5-23h106v147h-106v-147z"/></defs><clipPath id="B"><use xlink:href="#A" overflow="visible"/></clipPath><g clip-path="url(#B)"><defs><path id="C" d="M-768.2-149h63v104h-63z"/></defs></g><defs><path id="D" d="M-768.2-149h63v104h-63z"/></defs><defs><path id="E" d="M-759.2-121h44v13h-44z"/></defs><defs><path id="F" d="M-759.2-111h44v13h-44z"/></defs><defs><path id="G" d="M-759.2-101h44v13h-44z"/></defs><defs><path id="H" d="M-759.2-91h44v14h-44z"/></defs><defs><path id="I" d="M-759.2-80h44v14h-44z"/></defs><defs><path id="J" d="M-759.2-69h44v14h-44z"/></defs><defs><path id="K" d="M-758.2-139h3v13h-3z"/></defs><defs><path id="L" d="M-753.2-139h3v13h-3z"/></defs><defs><path id="M" d="M-748.2-139h3v13h-3z"/></defs><defs><path id="N" d="M-743.2-139h3v13h-3z"/></defs><defs><path id="O" d="M-738.2-139h3v13h-3z"/></defs><defs><path id="P" d="M-738.2-88h3v32h-3z"/></defs><defs><path id="Q" d="M-733.2-139h3v13h-3z"/></defs><defs><path id="R" d="M-728.2-139h3v13h-3z"/></defs><defs><path id="S" d="M-723.2-139h3v13h-3z"/></defs><defs><path id="T" d="M-718.2-139h3v13h-3z"/></defs><defs><path id="U" d="M-800.2-124.8l53.3 34.1-23.9 61.7"/></defs><defs><path id="V" d="M-498.5-150.5h-1.5v107h66v-107h-64.5zm0 3h63l-1.5-1.5v104l1.5-1.5h-63l1.5 1.5v-104l-1.5 1.5zm-21.5-23h106v147h-106v-147z"/></defs><clipPath id="W"><use xlink:href="#V" overflow="visible"/></clipPath><g clip-path="url(#W)"><defs><path id="X" d="M-498.5-149h63v104h-63z"/></defs></g><defs><path id="Y" d="M-498.5-149h63v104h-63z"/></defs><defs><path id="Z" d="M-489.5-121h44v13h-44z"/></defs><defs><path id="aa" d="M-489.5-111h44v13h-44z"/></defs><defs><path id="ab" d="M-489.5-101h44v13h-44z"/></defs><defs><path id="ac" d="M-489.5-91h44v14h-44z"/></defs><defs><path id="ad" d="M-489.5-80h44v14h-44z"/></defs><defs><path id="ae" d="M-489.5-69h44v14h-44z"/></defs><defs><path id="af" d="M-488.5-139h3v13h-3z"/></defs><defs><path id="ag" d="M-483.5-139h3v13h-3z"/></defs><defs><path id="ah" d="M-478.5-139h3v13h-3z"/></defs><defs><path id="ai" d="M-473.5-139h3v13h-3z"/></defs><defs><path id="aj" d="M-468.5-139h3v13h-3z"/></defs><defs><path id="ak" d="M-468.5-88h3v32h-3z"/></defs><defs><path id="al" d="M-463.5-139h3v13h-3z"/></defs><defs><path id="am" d="M-458.5-139h3v13h-3z"/></defs><defs><path id="an" d="M-453.5-139h3v13h-3z"/></defs><defs><path id="ao" d="M-448.5-139h3v13h-3z"/></defs><defs><path id="ap" d="M-426.5-29.5c-16.3 0-29.5-13.2-29.5-29.5s13.2-29.5 29.5-29.5S-397-75.3-397-59s-13.2 29.5-29.5 29.5zm0 3c17.9 0 32.5-14.6 32.5-32.5s-14.6-32.5-32.5-32.5S-459-76.9-459-59s14.5 32.5 32.5 32.5zm-52.5-85h105v105h-105v-105z"/></defs><clipPath id="aq"><use xlink:href="#ap" overflow="visible"/></clipPath><g clip-path="url(#aq)"><defs><circle id="ar" cx="-426.5" cy="-59" r="31"/></defs></g><defs><circle id="as" cx="-426.5" cy="-59" r="31"/></defs><defs><path id="at" d="M-808 188.2h-1.2v71.5h131.7v-71.5H-808zm0 2.4h129.3l-1.2-1.2v69.1l1.2-1.2H-808l1.2 1.2v-69.1l-1.2 1.2zm-17.3-18.5h163.9v103.6h-163.9V172.1z"/></defs><clipPath id="au"><use xlink:href="#at" overflow="visible"/></clipPath><g clip-path="url(#au)"><defs><path id="av" d="M-808 189.4h129.3v69.1H-808z"/></defs></g><defs><path id="aw" d="M-808 189.4h129.3v69.1H-808z"/></defs><defs><path id="ax" d="M-801.6 194.6h-1.2v57.8h118.9v-57.8h-19.5l-.3.2-6.5 4.8.7-.2h-66.7l.8.3-5.9-4.8-.3-.3h-20zm0 2.4h19.4l-.8-.3 5.9 4.8.3.3h67.5l.3-.2 6.5-4.8-.7.2h17.9l-1.2-1.2v55.4l1.2-1.2h-116.5l1.2 1.2v-55.4l-1 1.2zm-17.3-18.5h151v90h-151v-90z"/></defs><clipPath id="ay"><use xlink:href="#ax" overflow="visible"/></clipPath><g clip-path="url(#ay)"><defs><path id="az" d="M-801.6 195.8h19.5l5.9 4.8h66.7l6.5-4.8h17.9v55.4h-116.5z"/></defs></g><defs><path id="aA" d="M-801.6 195.8h19.5l5.9 4.8h66.7l6.5-4.8h17.9v55.4h-116.5z"/></defs><defs><path id="aB" d="M-773.5 195h5.6v2.4h-5.6z"/></defs><defs><path id="aC" d="M-717.2 195h5.6v2.4h-5.6z"/></defs><defs><path id="aD" d="M-226.9-132h-1.5v90h134v-90h-132.5zm0 3h131l-1.5-1.5v87l1.5-1.5h-131l1.5 1.5v-87l-1.5 1.5zm-21.5-23h174v130h-174v-130z"/></defs><clipPath id="aE"><use xlink:href="#aD" overflow="visible"/></clipPath><g clip-path="url(#aE)"><defs><path id="aF" d="M-226.9-130.5h131v87h-131z"/></defs></g><defs><path id="aG" d="M-226.9-130.5h131v87h-131z"/></defs><defs><path id="aH" d="M-122.9-123h-1.5v23h21v-23h-19.5zm0 3h18l-1.5-1.5v20l1.5-1.5h-18l1.5 1.5v-20l-1.5 1.5zm-21.5-23h61v63h-61v-63z"/></defs><clipPath id="aI"><use xlink:href="#aH" overflow="visible"/></clipPath><g clip-path="url(#aI)"><defs><path id="aJ" d="M-122.9-121.5h18v20h-18z"/></defs></g><defs><path id="aK" d="M-122.9-121.5h18v20h-18z"/></defs><defs><path id="aL" d="M-117.9-118h-1.5v13h11v-13h-9.5zm0 3h8l-1.5-1.5v10l1.5-1.5h-8l1.5 1.5v-10l-1.5 1.5zm-21.5-23h51v53h-51v-53z"/></defs><clipPath id="aM"><use xlink:href="#aL" overflow="visible"/></clipPath><g clip-path="url(#aM)"><defs><path id="aN" d="M-117.9-116.5h8v10h-8z"/></defs></g><defs><path id="aO" d="M-117.9-116.5h8v10h-8z"/></defs><defs><path id="aP" d="M95.5-303.6h93v117h-93z"/></defs><defs><path id="aQ" d="M95.5-303.6h93v117h-93z"/></defs><defs><path id="aR" d="M102.5-298.1H101v23h82v-23h-80.5zm0 3h79l-1.5-1.5v20l1.5-1.5h-79l1.5 1.5v-20l-1.5 1.5z"/></defs><clipPath id="aS"><use xlink:href="#aR" overflow="visible"/></clipPath><g clip-path="url(#aS)"><defs><path id="aT" d="M102.5-296.6h79v20h-79z"/></defs></g><defs><path id="aU" d="M102.5-296.6h79v20h-79z"/></defs><defs><path id="aV" d="M102.5-274.1H101v81h82v-81h-80.5zm0 3h79l-1.5-1.5v78l1.5-1.5h-79l1.5 1.5v-78l-1.5 1.5zm-21.5-23h122v121H81v-121z"/></defs><clipPath id="aW"><use xlink:href="#aV" overflow="visible"/></clipPath><g clip-path="url(#aW)"><defs><path id="aX" d="M102.5-272.6h79v78h-79z"/></defs></g><defs><path id="aY" d="M102.5-272.6h79v78h-79z"/></defs><defs><path id="aZ" d="M95.5-148H94v120h96v-120H95.5zm0 3h93l-1.5-1.5v117l1.5-1.5h-93l1.5 1.5v-117l-1.5 1.5zM74-168h136V-8H74v-160z"/></defs><clipPath id="ba"><use xlink:href="#aZ" overflow="visible"/></clipPath><g clip-path="url(#ba)"><defs><path id="bb" d="M95.5-146.5h93v117h-93z"/></defs></g><defs><path id="bc" d="M95.5-146.5h93v117h-93z"/></defs><defs><path id="bd" d="M102.5-141H101v23h82v-23h-80.5zm0 3h79l-1.5-1.5v20l1.5-1.5h-79l1.5 1.5v-20l-1.5 1.5zM81-161h122v63H81v-63z"/></defs><clipPath id="be"><use xlink:href="#bd" overflow="visible"/></clipPath><g clip-path="url(#be)"><defs><path id="bf" d="M102.5-139.5h79v20h-79z"/></defs></g><defs><path id="bg" d="M102.5-139.5h79v20h-79z"/></defs><defs><path id="bh" d="M102.5-117H101v81h82v-81h-80.5zm0 3h79l-1.5-1.5v78l1.5-1.5h-79l1.5 1.5v-78l-1.5 1.5zM81-137h122v121H81v-121z"/></defs><clipPath id="bi"><use xlink:href="#bh" overflow="visible"/></clipPath><g clip-path="url(#bi)"><defs><path id="bj" d="M102.5-115.5h79v78h-79z"/></defs></g><defs><path id="bk" d="M102.5-115.5h79v78h-79z"/></defs><circle fill="#0C1F2E" cx="200.4" cy="81.3" r="1.9"/><circle fill="#0C1F2E" cx="202.9" cy="91.2" r="1.9"/><circle fill="#0C1F2E" cx="198.4" cy="74.5" r="1.9"/><circle fill="#0C1F2E" cx="206.8" cy="84.2" r="1.9"/><circle fill="#0C1F2E" cx="206.2" cy="76.4" r="1.9"/><circle fill="#0C1F2E" cx="212.6" cy="80.3" r="1.9"/><circle fill="#0C1F2E" cx="215.4" cy="87.1" r="1.9"/><circle fill="#0C1F2E" cx="210.7" cy="91.6" r="1.9"/><path fill="#FFF" stroke="#0C1F2E" stroke-width="3" stroke-linecap="round" stroke-miterlimit="10" d="M190.7 88.5V76.8h-57.4v-26h-19.8L107 64.2s-8.3 1.5-18.3 4.9v19.4h102z"/><path fill="#FFF" stroke="#0C1F2E" stroke-width="3" stroke-linecap="round" stroke-miterlimit="10" d="M192.9 71.6l10-26h-64v26h54z"/><path fill-rule="evenodd" clip-rule="evenodd" fill="#FFF" stroke="#0C1F2E" stroke-width="3" stroke-linecap="round" stroke-miterlimit="10" d="M195.8 45.6c.7-1.8-.3-4.1-2.7-5.2-1.1-.5-2.3-.7-3.5-.7-.1-2-1.5-3.9-3.8-5-2.1-1-4.6-1.2-6.8-.6-.5-.5-1-.9-1.7-1.2-2.7-1.3-6.2-.8-8.1 1.2-1.9-1.7-5.3-2.2-7.9-1-.7.3-1.3.8-1.7 1.2-2.2-.6-4.7-.4-6.8.6-2.4 1.1-3.7 3-3.8 5-1.2 0-2.4.1-3.5.7-2.3 1.1-3.3 3.2-2.7 5h53z"/><path fill="#FFF" stroke="#0C1F2E" stroke-width="3" stroke-linecap="round" stroke-miterlimit="10" d="M128 69.7h-14.6v-4.1l4.1-8.8H128z"/><path fill="none" stroke="#0C1F2E" stroke-width="3" stroke-linecap="round" stroke-miterlimit="10" d="M107.1 64.4v24m26.2-13v13"/><circle fill="#FFF" stroke="#0C1F2E" stroke-width="3" stroke-linecap="round" stroke-miterlimit="10" cx="110.6" cy="93" r="11.3"/><circle fill="#FFF" stroke="#0C1F2E" stroke-width="3" stroke-linecap="round" stroke-miterlimit="10" cx="173.6" cy="93" r="11.3"/><circle fill="#FFF" stroke="#0C1F2E" stroke-width="3" stroke-linecap="round" stroke-miterlimit="10" cx="110.4" cy="92.9" r="5.1"/><circle fill="#FFF" stroke="#0C1F2E" stroke-width="3" stroke-linecap="round" stroke-miterlimit="10" cx="173.4" cy="92.9" r="5.1"/><g><defs><path id="bl" d="M-152.9 432.9c-27.1 0-49-21.9-49-49s21.9-49 49-49 49 21.9 49 49-21.9 49-49 49zm0 3c28.7 0 52-23.3 52-52s-23.3-52-52-52-52 23.3-52 52 23.3 52 52 52zm-72-124h144v144h-144v-144z"/></defs><clipPath id="bm"><use xlink:href="#bl" overflow="visible"/></clipPath><g clip-path="url(#bm)"><defs><circle id="bn" cx="-152.9" cy="383.9" r="50.5"/></defs></g></g><g><defs><circle id="bo" cx="-152.9" cy="383.9" r="50.5"/></defs></g><g><defs><circle id="bp" cx="-152.9" cy="383.9" r="43.5"/></defs></g><g><defs><path id="bq" d="M-750 585.3c-27.1 0-49-21.9-49-49s21.9-49 49-49 49 21.9 49 49c0 27-21.9 49-49 49zm0 3c28.7 0 52-23.3 52-52s-23.3-52-52-52-52 23.3-52 52 23.3 52 52 52zm-72-124h144v144h-144v-144z"/></defs><clipPath id="br"><use xlink:href="#bq" overflow="visible"/></clipPath><g clip-path="url(#br)"><defs><circle id="bs" cx="-750" cy="536.3" r="50.5"/></defs></g></g><g><defs><circle id="bt" cx="-750" cy="536.3" r="50.5"/></defs></g><g><defs><circle id="bu" cx="-750" cy="536.3" r="43.5"/></defs></g><g><defs><path id="bv" d="M-749.3 752.5c-24.6 0-44.6-20-44.6-44.6s20-44.6 44.6-44.6 44.6 20 44.6 44.6-20 44.6-44.6 44.6zm0 2.7c26.1 0 47.3-21.2 47.3-47.3 0-26.1-21.2-47.3-47.3-47.3-26.1 0-47.3 21.2-47.3 47.3 0 26.1 21.2 47.3 47.3 47.3zm-65.5-112.8h131v131h-131v-131z"/></defs><clipPath id="bw"><use xlink:href="#bv" overflow="visible"/></clipPath><g clip-path="url(#bw)"><defs><circle id="bx" cx="-749.3" cy="707.9" r="45.9"/></defs></g></g><g><defs><circle id="by" cx="-749.3" cy="707.9" r="45.9"/></defs></g><g><defs><circle id="bz" cx="-749.3" cy="707.9" r="39.6"/></defs></g></svg>