<svg xmlns="http://www.w3.org/2000/svg" viewBox="0 0 276 137"><g data-name="Layer 1"><path fill="#0c1f2e" d="M91.11 71.04l-2.72-1.3 16.09-33.69 14.62 33.1-2.75 1.22-11.98-27.11-13.26 27.78z"/><path d="M103.75 84.69a16.12 16.12 0 0 0 16.43-16.43H87.31a16.12 16.12 0 0 0 16.44 16.43z" fill="#fff" stroke="#0c1f2e" stroke-miterlimit="10" stroke-width="3"/><path fill="#0c1f2e" d="M159.62 71.04l-2.72-1.3 16.09-33.69 14.62 33.1-2.76 1.22-11.97-27.11-13.26 27.78z"/><path d="M172.25 84.69a16.12 16.12 0 0 0 16.43-16.43h-32.86a16.12 16.12 0 0 0 16.43 16.43z" fill="#fff" stroke="#0c1f2e" stroke-miterlimit="10" stroke-width="3"/><path d="M184.15 33.33v7h-38.7a8.29 8.29 0 0 1-4.06 4.06v64.31h-7V44.36a8.31 8.31 0 0 1-4.08-4.06H91.64v-7h38.7a8.29 8.29 0 0 1 4.08-4.08V16.19h7v13.07a8.26 8.26 0 0 1 4.06 4.08z" fill="#fff" stroke="#0c1f2e" stroke-miterlimit="10" stroke-width="3"/><path d="M137.89 104.37a16.12 16.12 0 0 0-16.43 16.43h32.87a16.12 16.12 0 0 0-16.44-16.43z" fill="#fff" stroke="#0c1f2e" stroke-miterlimit="10" stroke-width="3"/></g></svg>