<svg xmlns="http://www.w3.org/2000/svg" xmlns:xlink="http://www.w3.org/1999/xlink" viewBox="0 0 276 137"><defs><path id="a" d="M87.7-127.5h-1.5v84h108v-84H87.7zm0 3h105l-1.5-1.5v81l1.5-1.5h-105l1.5 1.5v-81l-1.5 1.5zm-21.5-23h148v124h-148v-124z"/></defs><clipPath id="b"><use xlink:href="#a" overflow="visible"/></clipPath><g clip-path="url(#b)"><defs><path id="c" d="M87.7-126h105v81h-105z"/></defs><clipPath id="d"><use xlink:href="#c" overflow="visible"/></clipPath><g clip-path="url(#d)"><defs><path id="e" d="M-793.3-625h1121V405h-1121z"/></defs></g></g><defs><path id="f" d="M87.7-126h105v81h-105z"/></defs><clipPath id="g"><use xlink:href="#f" overflow="visible"/></clipPath><g clip-path="url(#g)"><defs><path id="h" d="M-793.3-625h1121V405h-1121z"/></defs></g><defs><path id="i" d="M81.7-110.5h-2.2l.9-2.1 9.1-22 .4-.9h100.9l.4.9 9.1 22 .9 2.1H81.7zm0-3h117l-1.4 2.1-9.1-22 1.4.9H90.7l1.4-.9-9.1 22-1.3-2.1zm-22.3 23h161.5v-65H59.4v65z"/></defs><clipPath id="j"><use xlink:href="#i" overflow="visible"/></clipPath><g clip-path="url(#j)"><defs><path id="k" d="M81.7-112h117l-9.1-22H90.7z"/></defs><clipPath id="l"><use xlink:href="#k" overflow="visible"/></clipPath><g clip-path="url(#l)"><defs><path id="m" d="M-793.3-625h1121V405h-1121z"/></defs></g></g><defs><path id="n" d="M81.7-112h117l-9.1-22H90.7z"/></defs><clipPath id="o"><use xlink:href="#n" overflow="visible"/></clipPath><g clip-path="url(#o)"><defs><path id="p" d="M-793.3-625h1121V405h-1121z"/></defs></g><defs><path id="q" d="M166.7-143.5h-1.5v19h15v-19h-13.5zm0 3h12l-1.5-1.5v16l1.5-1.5h-12l1.5 1.5v-16l-1.5 1.5zm-21.5-23h55v59h-55v-59z"/></defs><clipPath id="r"><use xlink:href="#q" overflow="visible"/></clipPath><g clip-path="url(#r)"><defs><path id="s" d="M166.7-142h12v16h-12z"/></defs><clipPath id="t"><use xlink:href="#s" overflow="visible"/></clipPath><g clip-path="url(#t)"><defs><path id="u" d="M-793.3-625h1121V405h-1121z"/></defs></g></g><defs><path id="v" d="M166.7-142h12v16h-12z"/></defs><clipPath id="w"><use xlink:href="#v" overflow="visible"/></clipPath><g clip-path="url(#w)"><defs><path id="x" d="M-793.3-625h1121V405h-1121z"/></defs></g><defs><path id="y" d="M100.7-77.5h-1.5v34h24v-34h-22.5zm0 3h21l-1.5-1.5v31l1.5-1.5h-21l1.5 1.5v-31l-1.5 1.5zm-21.5-23h64v74h-64v-74z"/></defs><clipPath id="z"><use xlink:href="#y" overflow="visible"/></clipPath><g clip-path="url(#z)"><defs><path id="A" d="M100.7-76h21v31h-21z"/></defs><clipPath id="B"><use xlink:href="#A" overflow="visible"/></clipPath><g clip-path="url(#B)"><defs><path id="C" d="M-793.3-625h1121V405h-1121z"/></defs></g></g><defs><path id="D" d="M100.7-76h21v31h-21z"/></defs><clipPath id="E"><use xlink:href="#D" overflow="visible"/></clipPath><g clip-path="url(#E)"><defs><path id="F" d="M-793.3-625h1121V405h-1121z"/></defs></g><defs><path id="G" d="M101.7-105.5h-1.5v22h22v-22h-20.5zm0 3h19l-1.5-1.5v19l1.5-1.5h-19l1.5 1.5v-19l-1.5 1.5zm-21.5-23h62v62h-62v-62z"/></defs><clipPath id="H"><use xlink:href="#G" overflow="visible"/></clipPath><g clip-path="url(#H)"><defs><path id="I" d="M101.7-104h19v19h-19z"/></defs><clipPath id="J"><use xlink:href="#I" overflow="visible"/></clipPath><g clip-path="url(#J)"><defs><path id="K" d="M-793.3-625h1121V405h-1121z"/></defs></g></g><defs><path id="L" d="M101.7-104h19v19h-19z"/></defs><clipPath id="M"><use xlink:href="#L" overflow="visible"/></clipPath><g clip-path="url(#M)"><defs><path id="N" d="M-793.3-625h1121V405h-1121z"/></defs></g><defs><path id="O" d="M106.7-100.5h-1.5v12h12v-12h-10.5zm0 3h9l-1.5-1.5v9l1.5-1.5h-9l1.5 1.5v-9l-1.5 1.5zm-21.5-23h52v52h-52v-52z"/></defs><clipPath id="P"><use xlink:href="#O" overflow="visible"/></clipPath><g clip-path="url(#P)"><defs><path id="Q" d="M106.7-99h9v9h-9z"/></defs><clipPath id="R"><use xlink:href="#Q" overflow="visible"/></clipPath><g clip-path="url(#R)"><defs><path id="S" d="M-793.3-625h1121V405h-1121z"/></defs></g></g><defs><path id="T" d="M106.7-99h9v9h-9z"/></defs><clipPath id="U"><use xlink:href="#T" overflow="visible"/></clipPath><g clip-path="url(#U)"><defs><path id="V" d="M-793.3-625h1121V405h-1121z"/></defs></g><defs><path id="W" d="M131.7-105.5h-1.5v22h22v-22h-20.5zm0 3h19l-1.5-1.5v19l1.5-1.5h-19l1.5 1.5v-19l-1.5 1.5zm-21.5-23h62v62h-62v-62z"/></defs><clipPath id="X"><use xlink:href="#W" overflow="visible"/></clipPath><g clip-path="url(#X)"><defs><path id="Y" d="M131.7-104h19v19h-19z"/></defs><clipPath id="Z"><use xlink:href="#Y" overflow="visible"/></clipPath><g clip-path="url(#Z)"><defs><path id="aa" d="M-793.3-625h1121V405h-1121z"/></defs></g></g><g><defs><path id="ab" d="M131.7-104h19v19h-19z"/></defs><clipPath id="ac"><use xlink:href="#ab" overflow="visible"/></clipPath><g clip-path="url(#ac)"><defs><path id="ad" d="M-793.3-625h1121V405h-1121z"/></defs></g></g><g><defs><path id="ae" d="M160.7-105.5h-1.5v22h22v-22h-20.5zm0 3h19l-1.5-1.5v19l1.5-1.5h-19l1.5 1.5v-19l-1.5 1.5zm-21.5-23h62v62h-62v-62z"/></defs><clipPath id="af"><use xlink:href="#ae" overflow="visible"/></clipPath><g clip-path="url(#af)"><defs><path id="ag" d="M160.7-104h19v19h-19z"/></defs><clipPath id="ah"><use xlink:href="#ag" overflow="visible"/></clipPath><g clip-path="url(#ah)"><defs><path id="ai" d="M-793.3-625h1121V405h-1121z"/></defs></g></g></g><g><defs><path id="aj" d="M160.7-104h19v19h-19z"/></defs><clipPath id="ak"><use xlink:href="#aj" overflow="visible"/></clipPath><g clip-path="url(#ak)"><defs><path id="al" d="M-793.3-625h1121V405h-1121z"/></defs></g></g><g><defs><path id="am" d="M131.7-77.5h-1.5v22h22v-22h-20.5zm0 3h19l-1.5-1.5v19l1.5-1.5h-19l1.5 1.5v-19l-1.5 1.5zm-21.5-23h62v62h-62v-62z"/></defs><clipPath id="an"><use xlink:href="#am" overflow="visible"/></clipPath><g clip-path="url(#an)"><defs><path id="ao" d="M131.7-76h19v19h-19z"/></defs><clipPath id="ap"><use xlink:href="#ao" overflow="visible"/></clipPath><g clip-path="url(#ap)"><defs><path id="aq" d="M-793.3-625h1121V405h-1121z"/></defs></g></g></g><g><defs><path id="ar" d="M131.7-76h19v19h-19z"/></defs><clipPath id="as"><use xlink:href="#ar" overflow="visible"/></clipPath><g clip-path="url(#as)"><defs><path id="at" d="M-793.3-625h1121V405h-1121z"/></defs></g></g><g><defs><path id="au" d="M160.7-77.5h-1.5v22h22v-22h-20.5zm0 3h19l-1.5-1.5v19l1.5-1.5h-19l1.5 1.5v-19l-1.5 1.5zm-21.5-23h62v62h-62v-62z"/></defs><clipPath id="av"><use xlink:href="#au" overflow="visible"/></clipPath><g clip-path="url(#av)"><defs><path id="aw" d="M160.7-76h19v19h-19z"/></defs><clipPath id="ax"><use xlink:href="#aw" overflow="visible"/></clipPath><g clip-path="url(#ax)"><defs><path id="ay" d="M-793.3-625h1121V405h-1121z"/></defs></g></g></g><g><defs><path id="az" d="M160.7-76h19v19h-19z"/></defs><clipPath id="aA"><use xlink:href="#az" overflow="visible"/></clipPath><g clip-path="url(#aA)"><defs><path id="aB" d="M-793.3-625h1121V405h-1121z"/></defs></g></g><g><defs><path id="aC" d="M136.7-100.5h-1.5v12h12v-12h-10.5zm0 3h9l-1.5-1.5v9l1.5-1.5h-9l1.5 1.5v-9l-1.5 1.5zm-21.5-23h52v52h-52v-52z"/></defs><clipPath id="aD"><use xlink:href="#aC" overflow="visible"/></clipPath><g clip-path="url(#aD)"><defs><path id="aE" d="M136.7-99h9v9h-9z"/></defs><clipPath id="aF"><use xlink:href="#aE" overflow="visible"/></clipPath><g clip-path="url(#aF)"><defs><path id="aG" d="M-793.3-625h1121V405h-1121z"/></defs></g></g></g><g><defs><path id="aH" d="M136.7-99h9v9h-9z"/></defs><clipPath id="aI"><use xlink:href="#aH" overflow="visible"/></clipPath><g clip-path="url(#aI)"><defs><path id="aJ" d="M-793.3-625h1121V405h-1121z"/></defs></g></g><g><defs><path id="aK" d="M165.7-100.5h-1.5v12h12v-12h-10.5zm0 3h9l-1.5-1.5v9l1.5-1.5h-9l1.5 1.5v-9l-1.5 1.5zm-21.5-23h52v52h-52v-52z"/></defs><clipPath id="aL"><use xlink:href="#aK" overflow="visible"/></clipPath><g clip-path="url(#aL)"><defs><path id="aM" d="M165.7-99h9v9h-9z"/></defs><clipPath id="aN"><use xlink:href="#aM" overflow="visible"/></clipPath><g clip-path="url(#aN)"><defs><path id="aO" d="M-793.3-625h1121V405h-1121z"/></defs></g></g></g><g><defs><path id="aP" d="M165.7-99h9v9h-9z"/></defs><clipPath id="aQ"><use xlink:href="#aP" overflow="visible"/></clipPath><g clip-path="url(#aQ)"><defs><path id="aR" d="M-793.3-625h1121V405h-1121z"/></defs></g></g><g><defs><path id="aS" d="M136.7-72.5h-1.5v12h12v-12h-10.5zm0 3h9l-1.5-1.5v9l1.5-1.5h-9l1.5 1.5v-9l-1.5 1.5zm-21.5-23h52v52h-52v-52z"/></defs><clipPath id="aT"><use xlink:href="#aS" overflow="visible"/></clipPath><g clip-path="url(#aT)"><defs><path id="aU" d="M136.7-71h9v9h-9z"/></defs><clipPath id="aV"><use xlink:href="#aU" overflow="visible"/></clipPath><g clip-path="url(#aV)"><defs><path id="aW" d="M-793.3-625h1121V405h-1121z"/></defs></g></g></g><g><defs><path id="aX" d="M136.7-71h9v9h-9z"/></defs><clipPath id="aY"><use xlink:href="#aX" overflow="visible"/></clipPath><g clip-path="url(#aY)"><defs><path id="aZ" d="M-793.3-625h1121V405h-1121z"/></defs></g></g><g><defs><path id="ba" d="M165.7-72.5h-1.5v12h12v-12h-10.5zm0 3h9l-1.5-1.5v9l1.5-1.5h-9l1.5 1.5v-9l-1.5 1.5zm-21.5-23h52v52h-52v-52z"/></defs><clipPath id="bb"><use xlink:href="#ba" overflow="visible"/></clipPath><g clip-path="url(#bb)"><defs><path id="bc" d="M165.7-71h9v9h-9z"/></defs><clipPath id="bd"><use xlink:href="#bc" overflow="visible"/></clipPath><g clip-path="url(#bd)"><defs><path id="be" d="M-793.3-625h1121V405h-1121z"/></defs></g></g></g><g><defs><path id="bf" d="M165.7-71h9v9h-9z"/></defs><clipPath id="bg"><use xlink:href="#bf" overflow="visible"/></clipPath><g clip-path="url(#bg)"><defs><path id="bh" d="M-793.3-625h1121V405h-1121z"/></defs></g></g><g><path fill="#0E1F2D" d="M181.9 95.5c-1.8 0-2.7-.8-3.4-1.3-.6-.4-.8-.7-1.6-.7-.7 0-1 .2-1.6.7-.7.6-1.7 1.3-3.4 1.3-1.8 0-2.7-.8-3.4-1.3-.6-.4-.8-.7-1.6-.7-.7 0-1 .2-1.6.7-.7.6-1.7 1.3-3.4 1.3-1.8 0-2.7-.8-3.4-1.3-.6-.4-.8-.7-1.6-.7s-1 .2-1.6.7c-.7.6-1.7 1.3-3.4 1.3-1.8 0-2.7-.8-3.4-1.3-.6-.4-.8-.7-1.6-.7-.7 0-1 .2-1.6.7-.7.6-1.7 1.3-3.4 1.3-1.8 0-2.7-.8-3.4-1.3-.6-.4-.8-.7-1.6-.7-.7 0-1 .2-1.6.7-.7.6-1.7 1.3-3.4 1.3-1.8 0-2.7-.8-3.4-1.3-.6-.4-.8-.7-1.6-.7-.7 0-1 .2-1.6.7-.7.6-1.7 1.3-3.4 1.3s-2.7-.8-3.4-1.3c-.6-.4-.8-.7-1.6-.7-.7 0-1 .2-1.6.7-.7.6-1.7 1.3-3.4 1.3-1.8 0-2.7-.8-3.4-1.3-.6-.4-.8-.7-1.6-.7-.7 0-1 .2-1.6.7-.7.6-1.7 1.3-3.4 1.3-1.8 0-2.7-.8-3.4-1.3-.6-.4-.8-.7-1.6-.7s-1 .2-1.6.7c-.7.6-1.7 1.3-3.4 1.3s-2.7-.8-3.4-1.3c-.6-.4-.8-.7-1.6-.7s-1.5-.7-1.5-1.5.7-1.5 1.5-1.5c1.8 0 2.7.8 3.4 1.3.6.4.8.7 1.6.7s1-.2 1.6-.7c.7-.6 1.7-1.3 3.4-1.3 1.8 0 2.7.8 3.4 1.3.6.4.8.7 1.6.7s1-.2 1.6-.7c.7-.6 1.7-1.3 3.4-1.3s2.7.8 3.4 1.3c.6.4.8.7 1.6.7.7 0 1-.2 1.6-.7.7-.6 1.7-1.3 3.4-1.3 1.8 0 2.7.8 3.4 1.3.6.4.8.7 1.6.7s1-.2 1.6-.7c.7-.6 1.7-1.3 3.4-1.3 1.8 0 2.7.8 3.4 1.3.6.4.8.7 1.6.7.7 0 1-.2 1.6-.7.7-.6 1.7-1.3 3.4-1.3 1.8 0 2.7.8 3.4 1.3.6.4.8.7 1.6.7.7 0 1-.2 1.6-.7.7-.6 1.7-1.3 3.4-1.3 1.8 0 2.7.8 3.4 1.3.6.4.8.7 1.6.7s1-.2 1.6-.7c.7-.6 1.7-1.3 3.4-1.3 1.8 0 2.7.8 3.4 1.3.6.4.8.7 1.6.7.7 0 1-.2 1.6-.7.7-.6 1.7-1.3 3.4-1.3 1.8 0 2.7.8 3.4 1.3.6.4.8.7 1.6.7.7 0 1-.2 1.6-.7.7-.6 1.7-1.3 3.4-1.3 1.8 0 2.7.8 3.4 1.3.6.4.8.7 1.6.7s1-.2 1.6-.7c.7-.6 1.7-1.3 3.4-1.3.8 0 1.5.7 1.5 1.5s-.7 1.5-1.5 1.5c-.7 0-1 .2-1.6.7-.7.5-1.6 1.3-3.4 1.3z"/></g><g><path fill="#0E1F2D" d="M181.9 105.4c-1.8 0-2.7-.8-3.4-1.3-.6-.4-.8-.7-1.6-.7-.7 0-1 .2-1.6.7-.7.6-1.7 1.3-3.4 1.3-1.8 0-2.7-.8-3.4-1.3-.6-.4-.8-.7-1.6-.7-.7 0-1 .2-1.6.7-.7.6-1.7 1.3-3.4 1.3-1.8 0-2.7-.8-3.4-1.3-.6-.4-.8-.7-1.6-.7s-1 .2-1.6.7c-.7.6-1.7 1.3-3.4 1.3-1.8 0-2.7-.8-3.4-1.3-.6-.4-.8-.7-1.6-.7-.7 0-1 .2-1.6.7-.7.6-1.7 1.3-3.4 1.3-1.8 0-2.7-.8-3.4-1.3-.6-.4-.8-.7-1.6-.7-.7 0-1 .2-1.6.7-.7.6-1.7 1.3-3.4 1.3-1.8 0-2.7-.8-3.4-1.3-.6-.4-.8-.7-1.6-.7-.7 0-1 .2-1.6.7-.7.6-1.7 1.3-3.4 1.3s-2.7-.8-3.4-1.3c-.6-.4-.8-.7-1.6-.7-.7 0-1 .2-1.6.7-.7.6-1.7 1.3-3.4 1.3-1.8 0-2.7-.8-3.4-1.3-.6-.4-.8-.7-1.6-.7-.7 0-1 .2-1.6.7-.7.6-1.7 1.3-3.4 1.3-1.8 0-2.7-.8-3.4-1.3-.6-.4-.8-.7-1.6-.7s-1 .2-1.6.7c-.7.6-1.7 1.3-3.4 1.3s-2.7-.8-3.4-1.3c-.6-.4-.8-.7-1.6-.7s-1.5-.7-1.5-1.5.7-1.5 1.5-1.5c1.8 0 2.7.8 3.4 1.3.6.4.8.7 1.6.7s1-.2 1.6-.7c.7-.6 1.7-1.3 3.4-1.3 1.8 0 2.7.8 3.4 1.3.6.4.8.7 1.6.7s1-.2 1.6-.7c.7-.6 1.7-1.3 3.4-1.3s2.7.8 3.4 1.3c.6.4.8.7 1.6.7.7 0 1-.2 1.6-.7.7-.6 1.7-1.3 3.4-1.3 1.8 0 2.7.8 3.4 1.3.6.4.8.7 1.6.7s1-.2 1.6-.7c.7-.6 1.7-1.3 3.4-1.3 1.8 0 2.7.8 3.4 1.3.6.4.8.7 1.6.7.7 0 1-.2 1.6-.7.7-.6 1.7-1.3 3.4-1.3 1.8 0 2.7.8 3.4 1.3.6.4.8.7 1.6.7.7 0 1-.2 1.6-.7.7-.6 1.7-1.3 3.4-1.3 1.8 0 2.7.8 3.4 1.3.6.4.8.7 1.6.7s1-.2 1.6-.7c.7-.6 1.7-1.3 3.4-1.3 1.8 0 2.7.8 3.4 1.3.6.4.8.7 1.6.7.7 0 1-.2 1.6-.7.7-.6 1.7-1.3 3.4-1.3 1.8 0 2.7.8 3.4 1.3.6.4.8.7 1.6.7.7 0 1-.2 1.6-.7.7-.6 1.7-1.3 3.4-1.3 1.8 0 2.7.8 3.4 1.3.6.4.8.7 1.6.7s1-.2 1.6-.7c.7-.6 1.7-1.3 3.4-1.3.8 0 1.5.7 1.5 1.5s-.7 1.5-1.5 1.5c-.7 0-1 .2-1.6.7-.7.6-1.6 1.3-3.4 1.3z"/></g><g><path fill="#0E1F2D" d="M181.9 116.2c-1.8 0-2.7-.8-3.4-1.3-.6-.4-.8-.7-1.6-.7-.7 0-1 .2-1.6.7-.7.6-1.7 1.3-3.4 1.3-1.8 0-2.7-.8-3.4-1.3-.6-.4-.8-.7-1.6-.7-.7 0-1 .2-1.6.7-.7.6-1.7 1.3-3.4 1.3-1.8 0-2.7-.8-3.4-1.3-.6-.4-.8-.7-1.6-.7s-1 .2-1.6.7c-.7.6-1.7 1.3-3.4 1.3-1.8 0-2.7-.8-3.4-1.3-.6-.4-.8-.7-1.6-.7-.7 0-1 .2-1.6.7-.7.6-1.7 1.3-3.4 1.3-1.8 0-2.7-.8-3.4-1.3-.6-.4-.8-.7-1.6-.7-.7 0-1 .2-1.6.7-.7.6-1.7 1.3-3.4 1.3-1.8 0-2.7-.8-3.4-1.3-.6-.4-.8-.7-1.6-.7-.7 0-1 .2-1.6.7-.7.6-1.7 1.3-3.4 1.3s-2.7-.8-3.4-1.3c-.6-.4-.8-.7-1.6-.7-.7 0-1 .2-1.6.7-.7.6-1.7 1.3-3.4 1.3-1.8 0-2.7-.8-3.4-1.3-.6-.4-.8-.7-1.6-.7-.7 0-1 .2-1.6.7-.7.6-1.7 1.3-3.4 1.3-1.8 0-2.7-.8-3.4-1.3-.6-.4-.8-.7-1.6-.7s-1 .2-1.6.7c-.7.6-1.7 1.3-3.4 1.3s-2.7-.8-3.4-1.3c-.6-.4-.8-.7-1.6-.7s-1.5-.7-1.5-1.5.7-1.5 1.5-1.5c1.8 0 2.7.8 3.4 1.3.6.4.8.7 1.6.7s1-.2 1.6-.7c.7-.6 1.7-1.3 3.4-1.3 1.8 0 2.7.8 3.4 1.3.6.4.8.7 1.6.7s1-.2 1.6-.7c.7-.6 1.7-1.3 3.4-1.3s2.7.8 3.4 1.3c.6.4.8.7 1.6.7.7 0 1-.2 1.6-.7.7-.6 1.7-1.3 3.4-1.3 1.8 0 2.7.8 3.4 1.3.6.4.8.7 1.6.7s1-.2 1.6-.7c.7-.6 1.7-1.3 3.4-1.3 1.8 0 2.7.8 3.4 1.3.6.4.8.7 1.6.7.7 0 1-.2 1.6-.7.7-.6 1.7-1.3 3.4-1.3 1.8 0 2.7.8 3.4 1.3.6.4.8.7 1.6.7.7 0 1-.2 1.6-.7.7-.6 1.7-1.3 3.4-1.3 1.8 0 2.7.8 3.4 1.3.6.4.8.7 1.6.7s1-.2 1.6-.7c.7-.6 1.7-1.3 3.4-1.3 1.8 0 2.7.8 3.4 1.3.6.4.8.7 1.6.7.7 0 1-.2 1.6-.7.7-.6 1.7-1.3 3.4-1.3 1.8 0 2.7.8 3.4 1.3.6.4.8.7 1.6.7.7 0 1-.2 1.6-.7.7-.6 1.7-1.3 3.4-1.3 1.8 0 2.7.8 3.4 1.3.6.4.8.7 1.6.7s1-.2 1.6-.7c.7-.6 1.7-1.3 3.4-1.3.8 0 1.5.7 1.5 1.5s-.7 1.5-1.5 1.5c-.7 0-1 .2-1.6.7-.7.6-1.6 1.3-3.4 1.3z"/></g><g><path fill="#0E1F2D" d="M181.9 65.5c-1.8 0-2.7-.8-3.4-1.3-.6-.4-.8-.7-1.6-.7-.7 0-1 .2-1.6.7-.7.6-1.7 1.3-3.4 1.3-1.8 0-2.7-.8-3.4-1.3-.6-.4-.8-.7-1.6-.7-.7 0-1 .2-1.6.7-.7.6-1.7 1.3-3.4 1.3-1.8 0-2.7-.8-3.4-1.3-.6-.4-.8-.7-1.6-.7s-1 .2-1.6.7c-.7.6-1.7 1.3-3.4 1.3-1.8 0-2.7-.8-3.4-1.3-.6-.4-.8-.7-1.6-.7-.7 0-1 .2-1.6.7-.7.6-1.7 1.3-3.4 1.3-1.8 0-2.7-.8-3.4-1.3-.6-.4-.8-.7-1.6-.7-.7 0-1 .2-1.6.7-.7.6-1.7 1.3-3.4 1.3-1.8 0-2.7-.8-3.4-1.3-.6-.4-.8-.7-1.6-.7-.7 0-1 .2-1.6.7-.7.6-1.7 1.3-3.4 1.3s-2.7-.8-3.4-1.3c-.6-.4-.8-.7-1.6-.7-.7 0-1 .2-1.6.7-.7.6-1.7 1.3-3.4 1.3-1.8 0-2.7-.8-3.4-1.3-.6-.4-.8-.7-1.6-.7-.7 0-1 .2-1.6.7-.7.6-1.7 1.3-3.4 1.3-1.8 0-2.7-.8-3.4-1.3-.6-.4-.8-.7-1.6-.7s-1 .2-1.6.7c-.7.6-1.7 1.3-3.4 1.3s-2.7-.8-3.4-1.3c-.6-.4-.8-.7-1.6-.7s-1.5-.7-1.5-1.5.7-1.5 1.5-1.5c1.8 0 2.7.8 3.4 1.3.6.4.8.7 1.6.7s1-.2 1.6-.7c.7-.6 1.7-1.3 3.4-1.3 1.8 0 2.7.8 3.4 1.3.6.4.8.7 1.6.7s1-.2 1.6-.7c.7-.6 1.7-1.3 3.4-1.3s2.7.8 3.4 1.3c.6.4.8.7 1.6.7.7 0 1-.2 1.6-.7.7-.6 1.7-1.3 3.4-1.3 1.8 0 2.7.8 3.4 1.3.6.4.8.7 1.6.7s1-.2 1.6-.7c.7-.6 1.7-1.3 3.4-1.3 1.8 0 2.7.8 3.4 1.3.6.4.8.7 1.6.7.7 0 1-.2 1.6-.7.7-.6 1.7-1.3 3.4-1.3 1.8 0 2.7.8 3.4 1.3.6.4.8.7 1.6.7.7 0 1-.2 1.6-.7.7-.6 1.7-1.3 3.4-1.3 1.8 0 2.7.8 3.4 1.3.6.4.8.7 1.6.7s1-.2 1.6-.7c.7-.6 1.7-1.3 3.4-1.3 1.8 0 2.7.8 3.4 1.3.6.4.8.7 1.6.7.7 0 1-.2 1.6-.7.7-.6 1.7-1.3 3.4-1.3 1.8 0 2.7.8 3.4 1.3.6.4.8.7 1.6.7.7 0 1-.2 1.6-.7.7-.6 1.7-1.3 3.4-1.3 1.8 0 2.7.8 3.4 1.3.6.4.8.7 1.6.7s1-.2 1.6-.7c.7-.6 1.7-1.3 3.4-1.3.8 0 1.5.7 1.5 1.5s-.7 1.5-1.5 1.5c-.7 0-1 .2-1.6.7-.7.6-1.6 1.3-3.4 1.3z"/></g><g><path fill="#0E1F2D" d="M181.9 56c-1.8 0-2.7-.8-3.4-1.3-.6-.4-.8-.7-1.6-.7-.7 0-1 .2-1.6.7-.7.6-1.7 1.3-3.4 1.3-1.8 0-2.7-.8-3.4-1.3-.6-.4-.8-.7-1.6-.7-.7 0-1 .2-1.6.7-.7.6-1.7 1.3-3.4 1.3-1.8 0-2.7-.8-3.4-1.3-.6-.4-.8-.7-1.6-.7s-1 .2-1.6.7c-.7.6-1.7 1.3-3.4 1.3-1.8 0-2.7-.8-3.4-1.3-.6-.4-.8-.7-1.6-.7-.7 0-1 .2-1.6.7-.7.6-1.7 1.3-3.4 1.3-1.8 0-2.7-.8-3.4-1.3-.6-.4-.8-.7-1.6-.7-.7 0-1 .2-1.6.7-.7.6-1.7 1.3-3.4 1.3-1.8 0-2.7-.8-3.4-1.3-.6-.4-.8-.7-1.6-.7-.7 0-1 .2-1.6.7-.7.6-1.7 1.3-3.4 1.3s-2.7-.8-3.4-1.3c-.6-.4-.8-.7-1.6-.7-.7 0-1 .2-1.6.7-.7.6-1.7 1.3-3.4 1.3-1.8 0-2.7-.8-3.4-1.3-.6-.4-.8-.7-1.6-.7-.7 0-1 .2-1.6.7-.7.6-1.7 1.3-3.4 1.3-1.8 0-2.7-.8-3.4-1.3-.6-.4-.8-.7-1.6-.7s-1 .2-1.6.7c-.7.6-1.7 1.3-3.4 1.3s-2.7-.8-3.4-1.3c-.6-.4-.8-.7-1.6-.7s-1.5-.7-1.5-1.5.7-1.5 1.5-1.5c1.8 0 2.7.8 3.4 1.3.6.4.8.7 1.6.7s1-.2 1.6-.7c.7-.6 1.7-1.3 3.4-1.3 1.8 0 2.7.8 3.4 1.3.6.4.8.7 1.6.7s1-.2 1.6-.7c.7-.6 1.7-1.3 3.4-1.3s2.7.8 3.4 1.3c.6.4.8.7 1.6.7.7 0 1-.2 1.6-.7.7-.6 1.7-1.3 3.4-1.3 1.8 0 2.7.8 3.4 1.3.6.4.8.7 1.6.7s1-.2 1.6-.7c.7-.6 1.7-1.3 3.4-1.3 1.8 0 2.7.8 3.4 1.3.6.4.8.7 1.6.7.7 0 1-.2 1.6-.7.7-.6 1.7-1.3 3.4-1.3 1.8 0 2.7.8 3.4 1.3.6.4.8.7 1.6.7.7 0 1-.2 1.6-.7.7-.6 1.7-1.3 3.4-1.3 1.8 0 2.7.8 3.4 1.3.6.4.8.7 1.6.7s1-.2 1.6-.7c.7-.6 1.7-1.3 3.4-1.3 1.8 0 2.7.8 3.4 1.3.6.4.8.7 1.6.7.7 0 1-.2 1.6-.7.7-.6 1.7-1.3 3.4-1.3 1.8 0 2.7.8 3.4 1.3.6.4.8.7 1.6.7.7 0 1-.2 1.6-.7.7-.6 1.7-1.3 3.4-1.3 1.8 0 2.7.8 3.4 1.3.6.4.8.7 1.6.7s1-.2 1.6-.7c.7-.6 1.7-1.3 3.4-1.3.8 0 1.5.7 1.5 1.5s-.7 1.5-1.5 1.5c-.7 0-1 .2-1.6.7-.7.5-1.6 1.3-3.4 1.3z"/></g><g><path fill="#0E1F2D" d="M181.9 75.5c-1.8 0-2.7-.8-3.4-1.3-.6-.4-.8-.7-1.6-.7-.7 0-1 .2-1.6.7-.7.6-1.7 1.3-3.4 1.3-1.8 0-2.7-.8-3.4-1.3-.6-.4-.8-.7-1.6-.7-.7 0-1 .2-1.6.7-.7.6-1.7 1.3-3.4 1.3-1.8 0-2.7-.8-3.4-1.3-.6-.4-.8-.7-1.6-.7s-1 .2-1.6.7c-.7.6-1.7 1.3-3.4 1.3-1.8 0-2.7-.8-3.4-1.3-.6-.4-.8-.7-1.6-.7-.7 0-1 .2-1.6.7-.7.6-1.7 1.3-3.4 1.3-1.8 0-2.7-.8-3.4-1.3-.6-.4-.8-.7-1.6-.7-.7 0-1 .2-1.6.7-.7.6-1.7 1.3-3.4 1.3-1.8 0-2.7-.8-3.4-1.3-.6-.4-.8-.7-1.6-.7-.7 0-1 .2-1.6.7-.7.6-1.7 1.3-3.4 1.3s-2.7-.8-3.4-1.3c-.6-.4-.8-.7-1.6-.7-.7 0-1 .2-1.6.7-.7.6-1.7 1.3-3.4 1.3-1.8 0-2.7-.8-3.4-1.3-.6-.4-.8-.7-1.6-.7-.7 0-1 .2-1.6.7-.7.6-1.7 1.3-3.4 1.3-1.8 0-2.7-.8-3.4-1.3-.6-.4-.8-.7-1.6-.7s-1 .2-1.6.7c-.7.6-1.7 1.3-3.4 1.3s-2.7-.8-3.4-1.3c-.6-.4-.8-.7-1.6-.7s-1.5-.7-1.5-1.5.7-1.5 1.5-1.5c1.8 0 2.7.8 3.4 1.3.6.4.8.7 1.6.7s1-.2 1.6-.7c.7-.6 1.7-1.3 3.4-1.3 1.8 0 2.7.8 3.4 1.3.6.4.8.7 1.6.7s1-.2 1.6-.7c.7-.6 1.7-1.3 3.4-1.3s2.7.8 3.4 1.3c.6.4.8.7 1.6.7.7 0 1-.2 1.6-.7.7-.6 1.7-1.3 3.4-1.3 1.8 0 2.7.8 3.4 1.3.6.4.8.7 1.6.7s1-.2 1.6-.7c.7-.6 1.7-1.3 3.4-1.3 1.8 0 2.7.8 3.4 1.3.6.4.8.7 1.6.7.7 0 1-.2 1.6-.7.7-.6 1.7-1.3 3.4-1.3 1.8 0 2.7.8 3.4 1.3.6.4.8.7 1.6.7.7 0 1-.2 1.6-.7.7-.6 1.7-1.3 3.4-1.3 1.8 0 2.7.8 3.4 1.3.6.4.8.7 1.6.7s1-.2 1.6-.7c.7-.6 1.7-1.3 3.4-1.3 1.8 0 2.7.8 3.4 1.3.6.4.8.7 1.6.7.7 0 1-.2 1.6-.7.7-.6 1.7-1.3 3.4-1.3 1.8 0 2.7.8 3.4 1.3.6.4.8.7 1.6.7.7 0 1-.2 1.6-.7.7-.6 1.7-1.3 3.4-1.3 1.8 0 2.7.8 3.4 1.3.6.4.8.7 1.6.7s1-.2 1.6-.7c.7-.6 1.7-1.3 3.4-1.3.8 0 1.5.7 1.5 1.5s-.7 1.5-1.5 1.5c-.7 0-1 .2-1.6.7-.7.5-1.6 1.3-3.4 1.3z"/></g><g><path fill="#0E1F2D" d="M181.9 86.3c-1.8 0-2.7-.8-3.4-1.3-.6-.4-.8-.7-1.6-.7-.7 0-1 .2-1.6.7-.7.6-1.7 1.3-3.4 1.3-1.8 0-2.7-.8-3.4-1.3-.6-.4-.8-.7-1.6-.7-.7 0-1 .2-1.6.7-.7.6-1.7 1.3-3.4 1.3-1.8 0-2.7-.8-3.4-1.3-.6-.4-.8-.7-1.6-.7s-1 .2-1.6.7c-.7.6-1.7 1.3-3.4 1.3-1.8 0-2.7-.8-3.4-1.3-.6-.4-.8-.7-1.6-.7-.7 0-1 .2-1.6.7-.7.6-1.7 1.3-3.4 1.3-1.8 0-2.7-.8-3.4-1.3-.6-.4-.8-.7-1.6-.7-.7 0-1 .2-1.6.7-.7.6-1.7 1.3-3.4 1.3-1.8 0-2.7-.8-3.4-1.3-.6-.4-.8-.7-1.6-.7-.7 0-1 .2-1.6.7-.7.6-1.7 1.3-3.4 1.3s-2.7-.8-3.4-1.3c-.6-.4-.8-.7-1.6-.7-.7 0-1 .2-1.6.7-.7.6-1.7 1.3-3.4 1.3-1.8 0-2.7-.8-3.4-1.3-.6-.4-.8-.7-1.6-.7-.7 0-1 .2-1.6.7-.7.6-1.7 1.3-3.4 1.3-1.8 0-2.7-.8-3.4-1.3-.6-.4-.8-.7-1.6-.7s-1 .2-1.6.7c-.7.6-1.7 1.3-3.4 1.3s-2.7-.8-3.4-1.3c-.6-.4-.8-.7-1.6-.7s-1.5-.7-1.5-1.5.7-1.5 1.5-1.5c1.8 0 2.7.8 3.4 1.3.6.4.8.7 1.6.7s1-.2 1.6-.7c.7-.6 1.7-1.3 3.4-1.3 1.8 0 2.7.8 3.4 1.3.6.4.8.7 1.6.7s1-.2 1.6-.7c.7-.6 1.7-1.3 3.4-1.3s2.7.8 3.4 1.3c.6.4.8.7 1.6.7.7 0 1-.2 1.6-.7.7-.6 1.7-1.3 3.4-1.3 1.8 0 2.7.8 3.4 1.3.6.4.8.7 1.6.7s1-.2 1.6-.7c.7-.6 1.7-1.3 3.4-1.3 1.8 0 2.7.8 3.4 1.3.6.4.8.7 1.6.7.7 0 1-.2 1.6-.7.7-.6 1.7-1.3 3.4-1.3 1.8 0 2.7.8 3.4 1.3.6.4.8.7 1.6.7.7 0 1-.2 1.6-.7.7-.6 1.7-1.3 3.4-1.3 1.8 0 2.7.8 3.4 1.3.6.4.8.7 1.6.7s1-.2 1.6-.7c.7-.6 1.7-1.3 3.4-1.3 1.8 0 2.7.8 3.4 1.3.6.4.8.7 1.6.7.7 0 1-.2 1.6-.7.7-.6 1.7-1.3 3.4-1.3 1.8 0 2.7.8 3.4 1.3.6.4.8.7 1.6.7.7 0 1-.2 1.6-.7.7-.6 1.7-1.3 3.4-1.3 1.8 0 2.7.8 3.4 1.3.6.4.8.7 1.6.7s1-.2 1.6-.7c.7-.6 1.7-1.3 3.4-1.3.8 0 1.5.7 1.5 1.5s-.7 1.5-1.5 1.5c-.7 0-1 .2-1.6.7-.7.5-1.6 1.3-3.4 1.3z"/></g><g><circle fill-rule="evenodd" clip-rule="evenodd" fill="#FFF" cx="174.7" cy="54.5" r="20.4"/><path fill="#091F2F" d="M174.7 76.3c-12.1 0-21.9-9.8-21.9-21.9 0-12.1 9.8-21.9 21.9-21.9 12.1 0 21.9 9.8 21.9 21.9-.1 12.1-9.9 21.9-21.9 21.9zm0-40.7c-10.4 0-18.9 8.5-18.9 18.9 0 10.4 8.5 18.9 18.9 18.9 10.4 0 18.9-8.5 18.9-18.9-.1-10.4-8.5-18.9-18.9-18.9z"/></g><g><path d="M165.8 55.6h-2.5v2.5h-1.7v-2.5H159v-1.7h2.6v-2.6h1.7v2.6h2.5v1.7zM175.5 49v1.9l-4 8.8h-3l3.9-8.5h-3v1.5h-2.5V49h8.6zM179 58.5c0 .8-.6 1.3-1.3 1.3s-1.3-.6-1.3-1.3.5-1.3 1.3-1.3 1.3.6 1.3 1.3zM184.3 52.9c2.5 0 4.2 1.3 4.2 3.2 0 2.3-1.7 3.7-4.4 3.7-1.4 0-3.1-.5-4.3-1.3l1.1-2.2c.8.9 1.8 1.3 2.8 1.3 1.1 0 1.7-.5 1.7-1.4 0-.8-.6-1.3-1.7-1.3-.6 0-2.3 0-3 .1v-6h7.2v2.3h-4.6v1.6h1z"/></g></svg>