<svg xmlns="http://www.w3.org/2000/svg" viewBox="0 0 276 137"><defs><path id="a" d="M87.7-127.5h-1.5v84h108v-84H87.7zm0 3h105l-1.5-1.5v81l1.5-1.5h-105l1.5 1.5v-81l-1.5 1.5zm-21.5-23h148v124h-148v-124z"/></defs><defs><path id="b" d="M81.7-110.5h-2.2l.9-2.1 9.1-22 .4-.9h100.9l.4.9 9.1 22 .9 2.1H81.7zm0-3h117l-1.4 2.1-9.1-22 1.4.9H90.7l1.4-.9-9.1 22-1.3-2.1zm-22.3 23h161.5v-65H59.4v65z"/></defs><defs><path id="c" d="M166.7-143.5h-1.5v19h15v-19h-13.5zm0 3h12l-1.5-1.5v16l1.5-1.5h-12l1.5 1.5v-16l-1.5 1.5zm-21.5-23h55v59h-55v-59z"/></defs><defs><path id="d" d="M100.7-77.5h-1.5v34h24v-34h-22.5zm0 3h21l-1.5-1.5v31l1.5-1.5h-21l1.5 1.5v-31l-1.5 1.5zm-21.5-23h64v74h-64v-74z"/></defs><defs><path id="e" d="M101.7-105.5h-1.5v22h22v-22h-20.5zm0 3h19l-1.5-1.5v19l1.5-1.5h-19l1.5 1.5v-19l-1.5 1.5zm-21.5-23h62v62h-62v-62z"/></defs><defs><path id="f" d="M106.7-100.5h-1.5v12h12v-12h-10.5zm0 3h9l-1.5-1.5v9l1.5-1.5h-9l1.5 1.5v-9l-1.5 1.5zm-21.5-23h52v52h-52v-52z"/></defs><defs><path id="g" d="M131.7-105.5h-1.5v22h22v-22h-20.5zm0 3h19l-1.5-1.5v19l1.5-1.5h-19l1.5 1.5v-19l-1.5 1.5zm-21.5-23h62v62h-62v-62z"/></defs><defs><path id="h" d="M160.7-105.5h-1.5v22h22v-22h-20.5zm0 3h19l-1.5-1.5v19l1.5-1.5h-19l1.5 1.5v-19l-1.5 1.5zm-21.5-23h62v62h-62v-62z"/></defs><defs><path id="i" d="M131.7-77.5h-1.5v22h22v-22h-20.5zm0 3h19l-1.5-1.5v19l1.5-1.5h-19l1.5 1.5v-19l-1.5 1.5zm-21.5-23h62v62h-62v-62z"/></defs><defs><path id="j" d="M160.7-77.5h-1.5v22h22v-22h-20.5zm0 3h19l-1.5-1.5v19l1.5-1.5h-19l1.5 1.5v-19l-1.5 1.5zm-21.5-23h62v62h-62v-62z"/></defs><defs><path id="k" d="M136.7-100.5h-1.5v12h12v-12h-10.5zm0 3h9l-1.5-1.5v9l1.5-1.5h-9l1.5 1.5v-9l-1.5 1.5zm-21.5-23h52v52h-52v-52z"/></defs><defs><path id="l" d="M165.7-100.5h-1.5v12h12v-12h-10.5zm0 3h9l-1.5-1.5v9l1.5-1.5h-9l1.5 1.5v-9l-1.5 1.5zm-21.5-23h52v52h-52v-52z"/></defs><defs><path id="m" d="M136.7-72.5h-1.5v12h12v-12h-10.5zm0 3h9l-1.5-1.5v9l1.5-1.5h-9l1.5 1.5v-9l-1.5 1.5zm-21.5-23h52v52h-52v-52z"/></defs><defs><path id="n" d="M165.7-72.5h-1.5v12h12v-12h-10.5zm0 3h9l-1.5-1.5v9l1.5-1.5h-9l1.5 1.5v-9l-1.5 1.5zm-21.5-23h52v52h-52v-52z"/></defs><path fill="#0E1F2D" d="M181.9 95.5c-1.8 0-2.7-.8-3.4-1.3-.6-.4-.8-.7-1.6-.7-.7 0-1 .2-1.6.7-.7.6-1.7 1.3-3.4 1.3-1.8 0-2.7-.8-3.4-1.3-.6-.4-.8-.7-1.6-.7-.7 0-1 .2-1.6.7-.7.6-1.7 1.3-3.4 1.3-1.8 0-2.7-.8-3.4-1.3-.6-.4-.8-.7-1.6-.7s-1 .2-1.6.7c-.7.6-1.7 1.3-3.4 1.3-1.8 0-2.7-.8-3.4-1.3-.6-.4-.8-.7-1.6-.7-.7 0-1 .2-1.6.7-.7.6-1.7 1.3-3.4 1.3-1.8 0-2.7-.8-3.4-1.3-.6-.4-.8-.7-1.6-.7-.7 0-1 .2-1.6.7-.7.6-1.7 1.3-3.4 1.3-1.8 0-2.7-.8-3.4-1.3-.6-.4-.8-.7-1.6-.7-.7 0-1 .2-1.6.7-.7.6-1.7 1.3-3.4 1.3s-2.7-.8-3.4-1.3c-.6-.4-.8-.7-1.6-.7-.7 0-1 .2-1.6.7-.7.6-1.7 1.3-3.4 1.3-1.8 0-2.7-.8-3.4-1.3-.6-.4-.8-.7-1.6-.7-.7 0-1 .2-1.6.7-.7.6-1.7 1.3-3.4 1.3-1.8 0-2.7-.8-3.4-1.3-.6-.4-.8-.7-1.6-.7s-1 .2-1.6.7c-.7.6-1.7 1.3-3.4 1.3s-2.7-.8-3.4-1.3c-.6-.4-.8-.7-1.6-.7s-1.5-.7-1.5-1.5.7-1.5 1.5-1.5c1.8 0 2.7.8 3.4 1.3.6.4.8.7 1.6.7s1-.2 1.6-.7c.7-.6 1.7-1.3 3.4-1.3 1.8 0 2.7.8 3.4 1.3.6.4.8.7 1.6.7s1-.2 1.6-.7c.7-.6 1.7-1.3 3.4-1.3s2.7.8 3.4 1.3c.6.4.8.7 1.6.7.7 0 1-.2 1.6-.7.7-.6 1.7-1.3 3.4-1.3 1.8 0 2.7.8 3.4 1.3.6.4.8.7 1.6.7s1-.2 1.6-.7c.7-.6 1.7-1.3 3.4-1.3 1.8 0 2.7.8 3.4 1.3.6.4.8.7 1.6.7.7 0 1-.2 1.6-.7.7-.6 1.7-1.3 3.4-1.3 1.8 0 2.7.8 3.4 1.3.6.4.8.7 1.6.7.7 0 1-.2 1.6-.7.7-.6 1.7-1.3 3.4-1.3 1.8 0 2.7.8 3.4 1.3.6.4.8.7 1.6.7s1-.2 1.6-.7c.7-.6 1.7-1.3 3.4-1.3 1.8 0 2.7.8 3.4 1.3.6.4.8.7 1.6.7.7 0 1-.2 1.6-.7.7-.6 1.7-1.3 3.4-1.3 1.8 0 2.7.8 3.4 1.3.6.4.8.7 1.6.7.7 0 1-.2 1.6-.7.7-.6 1.7-1.3 3.4-1.3 1.8 0 2.7.8 3.4 1.3.6.4.8.7 1.6.7s1-.2 1.6-.7c.7-.6 1.7-1.3 3.4-1.3.8 0 1.5.7 1.5 1.5s-.7 1.5-1.5 1.5c-.7 0-1 .2-1.6.7-.7.5-1.6 1.3-3.4 1.3zm0 9.9c-1.8 0-2.7-.8-3.4-1.3-.6-.4-.8-.7-1.6-.7-.7 0-1 .2-1.6.7-.7.6-1.7 1.3-3.4 1.3-1.8 0-2.7-.8-3.4-1.3-.6-.4-.8-.7-1.6-.7-.7 0-1 .2-1.6.7-.7.6-1.7 1.3-3.4 1.3-1.8 0-2.7-.8-3.4-1.3-.6-.4-.8-.7-1.6-.7s-1 .2-1.6.7c-.7.6-1.7 1.3-3.4 1.3-1.8 0-2.7-.8-3.4-1.3-.6-.4-.8-.7-1.6-.7-.7 0-1 .2-1.6.7-.7.6-1.7 1.3-3.4 1.3-1.8 0-2.7-.8-3.4-1.3-.6-.4-.8-.7-1.6-.7-.7 0-1 .2-1.6.7-.7.6-1.7 1.3-3.4 1.3-1.8 0-2.7-.8-3.4-1.3-.6-.4-.8-.7-1.6-.7-.7 0-1 .2-1.6.7-.7.6-1.7 1.3-3.4 1.3s-2.7-.8-3.4-1.3c-.6-.4-.8-.7-1.6-.7-.7 0-1 .2-1.6.7-.7.6-1.7 1.3-3.4 1.3-1.8 0-2.7-.8-3.4-1.3-.6-.4-.8-.7-1.6-.7-.7 0-1 .2-1.6.7-.7.6-1.7 1.3-3.4 1.3-1.8 0-2.7-.8-3.4-1.3-.6-.4-.8-.7-1.6-.7s-1 .2-1.6.7c-.7.6-1.7 1.3-3.4 1.3s-2.7-.8-3.4-1.3c-.6-.4-.8-.7-1.6-.7s-1.5-.7-1.5-1.5.7-1.5 1.5-1.5c1.8 0 2.7.8 3.4 1.3.6.4.8.7 1.6.7s1-.2 1.6-.7c.7-.6 1.7-1.3 3.4-1.3 1.8 0 2.7.8 3.4 1.3.6.4.8.7 1.6.7s1-.2 1.6-.7c.7-.6 1.7-1.3 3.4-1.3s2.7.8 3.4 1.3c.6.4.8.7 1.6.7.7 0 1-.2 1.6-.7.7-.6 1.7-1.3 3.4-1.3 1.8 0 2.7.8 3.4 1.3.6.4.8.7 1.6.7s1-.2 1.6-.7c.7-.6 1.7-1.3 3.4-1.3 1.8 0 2.7.8 3.4 1.3.6.4.8.7 1.6.7.7 0 1-.2 1.6-.7.7-.6 1.7-1.3 3.4-1.3 1.8 0 2.7.8 3.4 1.3.6.4.8.7 1.6.7.7 0 1-.2 1.6-.7.7-.6 1.7-1.3 3.4-1.3 1.8 0 2.7.8 3.4 1.3.6.4.8.7 1.6.7s1-.2 1.6-.7c.7-.6 1.7-1.3 3.4-1.3 1.8 0 2.7.8 3.4 1.3.6.4.8.7 1.6.7.7 0 1-.2 1.6-.7.7-.6 1.7-1.3 3.4-1.3 1.8 0 2.7.8 3.4 1.3.6.4.8.7 1.6.7.7 0 1-.2 1.6-.7.7-.6 1.7-1.3 3.4-1.3 1.8 0 2.7.8 3.4 1.3.6.4.8.7 1.6.7s1-.2 1.6-.7c.7-.6 1.7-1.3 3.4-1.3.8 0 1.5.7 1.5 1.5s-.7 1.5-1.5 1.5c-.7 0-1 .2-1.6.7-.7.6-1.6 1.3-3.4 1.3zm0 10.8c-1.8 0-2.7-.8-3.4-1.3-.6-.4-.8-.7-1.6-.7-.7 0-1 .2-1.6.7-.7.6-1.7 1.3-3.4 1.3-1.8 0-2.7-.8-3.4-1.3-.6-.4-.8-.7-1.6-.7-.7 0-1 .2-1.6.7-.7.6-1.7 1.3-3.4 1.3-1.8 0-2.7-.8-3.4-1.3-.6-.4-.8-.7-1.6-.7s-1 .2-1.6.7c-.7.6-1.7 1.3-3.4 1.3-1.8 0-2.7-.8-3.4-1.3-.6-.4-.8-.7-1.6-.7-.7 0-1 .2-1.6.7-.7.6-1.7 1.3-3.4 1.3-1.8 0-2.7-.8-3.4-1.3-.6-.4-.8-.7-1.6-.7-.7 0-1 .2-1.6.7-.7.6-1.7 1.3-3.4 1.3-1.8 0-2.7-.8-3.4-1.3-.6-.4-.8-.7-1.6-.7-.7 0-1 .2-1.6.7-.7.6-1.7 1.3-3.4 1.3s-2.7-.8-3.4-1.3c-.6-.4-.8-.7-1.6-.7-.7 0-1 .2-1.6.7-.7.6-1.7 1.3-3.4 1.3-1.8 0-2.7-.8-3.4-1.3-.6-.4-.8-.7-1.6-.7-.7 0-1 .2-1.6.7-.7.6-1.7 1.3-3.4 1.3-1.8 0-2.7-.8-3.4-1.3-.6-.4-.8-.7-1.6-.7s-1 .2-1.6.7c-.7.6-1.7 1.3-3.4 1.3s-2.7-.8-3.4-1.3c-.6-.4-.8-.7-1.6-.7s-1.5-.7-1.5-1.5.7-1.5 1.5-1.5c1.8 0 2.7.8 3.4 1.3.6.4.8.7 1.6.7s1-.2 1.6-.7c.7-.6 1.7-1.3 3.4-1.3 1.8 0 2.7.8 3.4 1.3.6.4.8.7 1.6.7s1-.2 1.6-.7c.7-.6 1.7-1.3 3.4-1.3s2.7.8 3.4 1.3c.6.4.8.7 1.6.7.7 0 1-.2 1.6-.7.7-.6 1.7-1.3 3.4-1.3 1.8 0 2.7.8 3.4 1.3.6.4.8.7 1.6.7s1-.2 1.6-.7c.7-.6 1.7-1.3 3.4-1.3 1.8 0 2.7.8 3.4 1.3.6.4.8.7 1.6.7.7 0 1-.2 1.6-.7.7-.6 1.7-1.3 3.4-1.3 1.8 0 2.7.8 3.4 1.3.6.4.8.7 1.6.7.7 0 1-.2 1.6-.7.7-.6 1.7-1.3 3.4-1.3 1.8 0 2.7.8 3.4 1.3.6.4.8.7 1.6.7s1-.2 1.6-.7c.7-.6 1.7-1.3 3.4-1.3 1.8 0 2.7.8 3.4 1.3.6.4.8.7 1.6.7.7 0 1-.2 1.6-.7.7-.6 1.7-1.3 3.4-1.3 1.8 0 2.7.8 3.4 1.3.6.4.8.7 1.6.7.7 0 1-.2 1.6-.7.7-.6 1.7-1.3 3.4-1.3 1.8 0 2.7.8 3.4 1.3.6.4.8.7 1.6.7s1-.2 1.6-.7c.7-.6 1.7-1.3 3.4-1.3.8 0 1.5.7 1.5 1.5s-.7 1.5-1.5 1.5c-.7 0-1 .2-1.6.7-.7.6-1.6 1.3-3.4 1.3zm0-50.7c-1.8 0-2.7-.8-3.4-1.3-.6-.4-.8-.7-1.6-.7-.7 0-1 .2-1.6.7-.7.6-1.7 1.3-3.4 1.3-1.8 0-2.7-.8-3.4-1.3-.6-.4-.8-.7-1.6-.7-.7 0-1 .2-1.6.7-.7.6-1.7 1.3-3.4 1.3-1.8 0-2.7-.8-3.4-1.3-.6-.4-.8-.7-1.6-.7s-1 .2-1.6.7c-.7.6-1.7 1.3-3.4 1.3-1.8 0-2.7-.8-3.4-1.3-.6-.4-.8-.7-1.6-.7-.7 0-1 .2-1.6.7-.7.6-1.7 1.3-3.4 1.3-1.8 0-2.7-.8-3.4-1.3-.6-.4-.8-.7-1.6-.7-.7 0-1 .2-1.6.7-.7.6-1.7 1.3-3.4 1.3-1.8 0-2.7-.8-3.4-1.3-.6-.4-.8-.7-1.6-.7-.7 0-1 .2-1.6.7-.7.6-1.7 1.3-3.4 1.3s-2.7-.8-3.4-1.3c-.6-.4-.8-.7-1.6-.7-.7 0-1 .2-1.6.7-.7.6-1.7 1.3-3.4 1.3-1.8 0-2.7-.8-3.4-1.3-.6-.4-.8-.7-1.6-.7-.7 0-1 .2-1.6.7-.7.6-1.7 1.3-3.4 1.3-1.8 0-2.7-.8-3.4-1.3-.6-.4-.8-.7-1.6-.7s-1 .2-1.6.7c-.7.6-1.7 1.3-3.4 1.3s-2.7-.8-3.4-1.3c-.6-.4-.8-.7-1.6-.7s-1.5-.7-1.5-1.5.7-1.5 1.5-1.5c1.8 0 2.7.8 3.4 1.3.6.4.8.7 1.6.7s1-.2 1.6-.7c.7-.6 1.7-1.3 3.4-1.3 1.8 0 2.7.8 3.4 1.3.6.4.8.7 1.6.7s1-.2 1.6-.7c.7-.6 1.7-1.3 3.4-1.3s2.7.8 3.4 1.3c.6.4.8.7 1.6.7.7 0 1-.2 1.6-.7.7-.6 1.7-1.3 3.4-1.3 1.8 0 2.7.8 3.4 1.3.6.4.8.7 1.6.7s1-.2 1.6-.7c.7-.6 1.7-1.3 3.4-1.3 1.8 0 2.7.8 3.4 1.3.6.4.8.7 1.6.7.7 0 1-.2 1.6-.7.7-.6 1.7-1.3 3.4-1.3 1.8 0 2.7.8 3.4 1.3.6.4.8.7 1.6.7.7 0 1-.2 1.6-.7.7-.6 1.7-1.3 3.4-1.3 1.8 0 2.7.8 3.4 1.3.6.4.8.7 1.6.7s1-.2 1.6-.7c.7-.6 1.7-1.3 3.4-1.3 1.8 0 2.7.8 3.4 1.3.6.4.8.7 1.6.7.7 0 1-.2 1.6-.7.7-.6 1.7-1.3 3.4-1.3 1.8 0 2.7.8 3.4 1.3.6.4.8.7 1.6.7.7 0 1-.2 1.6-.7.7-.6 1.7-1.3 3.4-1.3 1.8 0 2.7.8 3.4 1.3.6.4.8.7 1.6.7s1-.2 1.6-.7c.7-.6 1.7-1.3 3.4-1.3.8 0 1.5.7 1.5 1.5s-.7 1.5-1.5 1.5c-.7 0-1 .2-1.6.7-.7.6-1.6 1.3-3.4 1.3zm0-9.5c-1.8 0-2.7-.8-3.4-1.3-.6-.4-.8-.7-1.6-.7-.7 0-1 .2-1.6.7-.7.6-1.7 1.3-3.4 1.3-1.8 0-2.7-.8-3.4-1.3-.6-.4-.8-.7-1.6-.7-.7 0-1 .2-1.6.7-.7.6-1.7 1.3-3.4 1.3-1.8 0-2.7-.8-3.4-1.3-.6-.4-.8-.7-1.6-.7s-1 .2-1.6.7c-.7.6-1.7 1.3-3.4 1.3-1.8 0-2.7-.8-3.4-1.3-.6-.4-.8-.7-1.6-.7-.7 0-1 .2-1.6.7-.7.6-1.7 1.3-3.4 1.3-1.8 0-2.7-.8-3.4-1.3-.6-.4-.8-.7-1.6-.7-.7 0-1 .2-1.6.7-.7.6-1.7 1.3-3.4 1.3-1.8 0-2.7-.8-3.4-1.3-.6-.4-.8-.7-1.6-.7-.7 0-1 .2-1.6.7-.7.6-1.7 1.3-3.4 1.3s-2.7-.8-3.4-1.3c-.6-.4-.8-.7-1.6-.7-.7 0-1 .2-1.6.7-.7.6-1.7 1.3-3.4 1.3-1.8 0-2.7-.8-3.4-1.3-.6-.4-.8-.7-1.6-.7-.7 0-1 .2-1.6.7-.7.6-1.7 1.3-3.4 1.3-1.8 0-2.7-.8-3.4-1.3-.6-.4-.8-.7-1.6-.7s-1 .2-1.6.7c-.7.6-1.7 1.3-3.4 1.3s-2.7-.8-3.4-1.3c-.6-.4-.8-.7-1.6-.7s-1.5-.7-1.5-1.5.7-1.5 1.5-1.5c1.8 0 2.7.8 3.4 1.3.6.4.8.7 1.6.7s1-.2 1.6-.7c.7-.6 1.7-1.3 3.4-1.3 1.8 0 2.7.8 3.4 1.3.6.4.8.7 1.6.7s1-.2 1.6-.7c.7-.6 1.7-1.3 3.4-1.3s2.7.8 3.4 1.3c.6.4.8.7 1.6.7.7 0 1-.2 1.6-.7.7-.6 1.7-1.3 3.4-1.3 1.8 0 2.7.8 3.4 1.3.6.4.8.7 1.6.7s1-.2 1.6-.7c.7-.6 1.7-1.3 3.4-1.3 1.8 0 2.7.8 3.4 1.3.6.4.8.7 1.6.7.7 0 1-.2 1.6-.7.7-.6 1.7-1.3 3.4-1.3 1.8 0 2.7.8 3.4 1.3.6.4.8.7 1.6.7.7 0 1-.2 1.6-.7.7-.6 1.7-1.3 3.4-1.3 1.8 0 2.7.8 3.4 1.3.6.4.8.7 1.6.7s1-.2 1.6-.7c.7-.6 1.7-1.3 3.4-1.3 1.8 0 2.7.8 3.4 1.3.6.4.8.7 1.6.7.7 0 1-.2 1.6-.7.7-.6 1.7-1.3 3.4-1.3 1.8 0 2.7.8 3.4 1.3.6.4.8.7 1.6.7.7 0 1-.2 1.6-.7.7-.6 1.7-1.3 3.4-1.3 1.8 0 2.7.8 3.4 1.3.6.4.8.7 1.6.7s1-.2 1.6-.7c.7-.6 1.7-1.3 3.4-1.3.8 0 1.5.7 1.5 1.5s-.7 1.5-1.5 1.5c-.7 0-1 .2-1.6.7-.7.5-1.6 1.3-3.4 1.3zm0 19.5c-1.8 0-2.7-.8-3.4-1.3-.6-.4-.8-.7-1.6-.7-.7 0-1 .2-1.6.7-.7.6-1.7 1.3-3.4 1.3-1.8 0-2.7-.8-3.4-1.3-.6-.4-.8-.7-1.6-.7-.7 0-1 .2-1.6.7-.7.6-1.7 1.3-3.4 1.3-1.8 0-2.7-.8-3.4-1.3-.6-.4-.8-.7-1.6-.7s-1 .2-1.6.7c-.7.6-1.7 1.3-3.4 1.3-1.8 0-2.7-.8-3.4-1.3-.6-.4-.8-.7-1.6-.7-.7 0-1 .2-1.6.7-.7.6-1.7 1.3-3.4 1.3-1.8 0-2.7-.8-3.4-1.3-.6-.4-.8-.7-1.6-.7-.7 0-1 .2-1.6.7-.7.6-1.7 1.3-3.4 1.3-1.8 0-2.7-.8-3.4-1.3-.6-.4-.8-.7-1.6-.7-.7 0-1 .2-1.6.7-.7.6-1.7 1.3-3.4 1.3s-2.7-.8-3.4-1.3c-.6-.4-.8-.7-1.6-.7-.7 0-1 .2-1.6.7-.7.6-1.7 1.3-3.4 1.3-1.8 0-2.7-.8-3.4-1.3-.6-.4-.8-.7-1.6-.7-.7 0-1 .2-1.6.7-.7.6-1.7 1.3-3.4 1.3-1.8 0-2.7-.8-3.4-1.3-.6-.4-.8-.7-1.6-.7s-1 .2-1.6.7c-.7.6-1.7 1.3-3.4 1.3s-2.7-.8-3.4-1.3c-.6-.4-.8-.7-1.6-.7s-1.5-.7-1.5-1.5.7-1.5 1.5-1.5c1.8 0 2.7.8 3.4 1.3.6.4.8.7 1.6.7s1-.2 1.6-.7c.7-.6 1.7-1.3 3.4-1.3 1.8 0 2.7.8 3.4 1.3.6.4.8.7 1.6.7s1-.2 1.6-.7c.7-.6 1.7-1.3 3.4-1.3s2.7.8 3.4 1.3c.6.4.8.7 1.6.7.7 0 1-.2 1.6-.7.7-.6 1.7-1.3 3.4-1.3 1.8 0 2.7.8 3.4 1.3.6.4.8.7 1.6.7s1-.2 1.6-.7c.7-.6 1.7-1.3 3.4-1.3 1.8 0 2.7.8 3.4 1.3.6.4.8.7 1.6.7.7 0 1-.2 1.6-.7.7-.6 1.7-1.3 3.4-1.3 1.8 0 2.7.8 3.4 1.3.6.4.8.7 1.6.7.7 0 1-.2 1.6-.7.7-.6 1.7-1.3 3.4-1.3 1.8 0 2.7.8 3.4 1.3.6.4.8.7 1.6.7s1-.2 1.6-.7c.7-.6 1.7-1.3 3.4-1.3 1.8 0 2.7.8 3.4 1.3.6.4.8.7 1.6.7.7 0 1-.2 1.6-.7.7-.6 1.7-1.3 3.4-1.3 1.8 0 2.7.8 3.4 1.3.6.4.8.7 1.6.7.7 0 1-.2 1.6-.7.7-.6 1.7-1.3 3.4-1.3 1.8 0 2.7.8 3.4 1.3.6.4.8.7 1.6.7s1-.2 1.6-.7c.7-.6 1.7-1.3 3.4-1.3.8 0 1.5.7 1.5 1.5s-.7 1.5-1.5 1.5c-.7 0-1 .2-1.6.7-.7.5-1.6 1.3-3.4 1.3zm0 10.8c-1.8 0-2.7-.8-3.4-1.3-.6-.4-.8-.7-1.6-.7-.7 0-1 .2-1.6.7-.7.6-1.7 1.3-3.4 1.3-1.8 0-2.7-.8-3.4-1.3-.6-.4-.8-.7-1.6-.7-.7 0-1 .2-1.6.7-.7.6-1.7 1.3-3.4 1.3-1.8 0-2.7-.8-3.4-1.3-.6-.4-.8-.7-1.6-.7s-1 .2-1.6.7c-.7.6-1.7 1.3-3.4 1.3-1.8 0-2.7-.8-3.4-1.3-.6-.4-.8-.7-1.6-.7-.7 0-1 .2-1.6.7-.7.6-1.7 1.3-3.4 1.3-1.8 0-2.7-.8-3.4-1.3-.6-.4-.8-.7-1.6-.7-.7 0-1 .2-1.6.7-.7.6-1.7 1.3-3.4 1.3-1.8 0-2.7-.8-3.4-1.3-.6-.4-.8-.7-1.6-.7-.7 0-1 .2-1.6.7-.7.6-1.7 1.3-3.4 1.3s-2.7-.8-3.4-1.3c-.6-.4-.8-.7-1.6-.7-.7 0-1 .2-1.6.7-.7.6-1.7 1.3-3.4 1.3-1.8 0-2.7-.8-3.4-1.3-.6-.4-.8-.7-1.6-.7-.7 0-1 .2-1.6.7-.7.6-1.7 1.3-3.4 1.3-1.8 0-2.7-.8-3.4-1.3-.6-.4-.8-.7-1.6-.7s-1 .2-1.6.7c-.7.6-1.7 1.3-3.4 1.3s-2.7-.8-3.4-1.3c-.6-.4-.8-.7-1.6-.7s-1.5-.7-1.5-1.5.7-1.5 1.5-1.5c1.8 0 2.7.8 3.4 1.3.6.4.8.7 1.6.7s1-.2 1.6-.7c.7-.6 1.7-1.3 3.4-1.3 1.8 0 2.7.8 3.4 1.3.6.4.8.7 1.6.7s1-.2 1.6-.7c.7-.6 1.7-1.3 3.4-1.3s2.7.8 3.4 1.3c.6.4.8.7 1.6.7.7 0 1-.2 1.6-.7.7-.6 1.7-1.3 3.4-1.3 1.8 0 2.7.8 3.4 1.3.6.4.8.7 1.6.7s1-.2 1.6-.7c.7-.6 1.7-1.3 3.4-1.3 1.8 0 2.7.8 3.4 1.3.6.4.8.7 1.6.7.7 0 1-.2 1.6-.7.7-.6 1.7-1.3 3.4-1.3 1.8 0 2.7.8 3.4 1.3.6.4.8.7 1.6.7.7 0 1-.2 1.6-.7.7-.6 1.7-1.3 3.4-1.3 1.8 0 2.7.8 3.4 1.3.6.4.8.7 1.6.7s1-.2 1.6-.7c.7-.6 1.7-1.3 3.4-1.3 1.8 0 2.7.8 3.4 1.3.6.4.8.7 1.6.7.7 0 1-.2 1.6-.7.7-.6 1.7-1.3 3.4-1.3 1.8 0 2.7.8 3.4 1.3.6.4.8.7 1.6.7.7 0 1-.2 1.6-.7.7-.6 1.7-1.3 3.4-1.3 1.8 0 2.7.8 3.4 1.3.6.4.8.7 1.6.7s1-.2 1.6-.7c.7-.6 1.7-1.3 3.4-1.3.8 0 1.5.7 1.5 1.5s-.7 1.5-1.5 1.5c-.7 0-1 .2-1.6.7-.7.5-1.6 1.3-3.4 1.3z"/><circle fill-rule="evenodd" clip-rule="evenodd" fill="#FFF" cx="174.7" cy="54.5" r="20.4"/><path fill="#091F2F" d="M174.7 76.3c-12.1 0-21.9-9.8-21.9-21.9 0-12.1 9.8-21.9 21.9-21.9 12.1 0 21.9 9.8 21.9 21.9-.1 12.1-9.9 21.9-21.9 21.9zm0-40.7c-10.4 0-18.9 8.5-18.9 18.9 0 10.4 8.5 18.9 18.9 18.9 10.4 0 18.9-8.5 18.9-18.9-.1-10.4-8.5-18.9-18.9-18.9z"/><path d="M165.8 55.6h-2.5v2.5h-1.7v-2.5H159v-1.7h2.6v-2.6h1.7v2.6h2.5v1.7zm9.7-6.6v1.9l-4 8.8h-3l3.9-8.5h-3v1.5h-2.5V49h8.6zm3.5 9.5c0 .8-.6 1.3-1.3 1.3s-1.3-.6-1.3-1.3.5-1.3 1.3-1.3 1.3.6 1.3 1.3zm5.3-5.6c2.5 0 4.2 1.3 4.2 3.2 0 2.3-1.7 3.7-4.4 3.7-1.4 0-3.1-.5-4.3-1.3l1.1-2.2c.8.9 1.8 1.3 2.8 1.3 1.1 0 1.7-.5 1.7-1.4 0-.8-.6-1.3-1.7-1.3-.6 0-2.3 0-3 .1v-6h7.2v2.3h-4.6v1.6h1z"/></svg>