<svg xmlns="http://www.w3.org/2000/svg" xmlns:xlink="http://www.w3.org/1999/xlink" viewBox="0 0 276 137"><circle fill="#FFF" cx="138.4" cy="67.6" r="48.5"/><defs><path id="a" d="M-867.9-96.9c-27.1 0-49-21.9-49-49s21.9-49 49-49 49 21.9 49 49-21.9 49-49 49zm0 3c28.7 0 52-23.3 52-52s-23.3-52-52-52-52 23.3-52 52 23.3 52 52 52zm-72-124h144v144h-144v-144z"/></defs><clipPath id="b"><use xlink:href="#a" overflow="visible"/></clipPath><g clip-path="url(#b)"><defs><circle id="c" cx="-867.9" cy="-145.9" r="50.5"/></defs><clipPath id="d"><use xlink:href="#c" overflow="visible"/></clipPath><g clip-path="url(#d)"><defs><path id="e" d="M-1042.4-881.9h1121v1030h-1121z"/></defs></g></g><defs><circle id="f" cx="-867.9" cy="-145.9" r="50.5"/></defs><clipPath id="g"><use xlink:href="#f" overflow="visible"/></clipPath><g clip-path="url(#g)"><defs><path id="h" d="M-1042.4-881.9h1121v1030h-1121z"/></defs></g><defs><circle id="i" cx="-867.9" cy="-145.9" r="43.5"/></defs><clipPath id="j"><use xlink:href="#i" overflow="visible"/></clipPath><g clip-path="url(#j)"><defs><path id="k" d="M-1042.4-881.9h1121v1030h-1121z"/></defs></g><g><defs><circle id="l" cx="138" cy="67.5" r="50.5"/></defs><clipPath id="m"><use xlink:href="#l" overflow="visible"/></clipPath><g clip-path="url(#m)"><defs><path id="n" d="M-36.5-668.5h1121v1030h-1121z"/></defs><clipPath id="o"><use xlink:href="#n" overflow="visible"/></clipPath><circle clip-path="url(#o)" fill="none" stroke="#0F1F2D" stroke-width="6" stroke-linecap="round" stroke-miterlimit="10" cx="138" cy="67.5" r="50.5"/></g></g><g><defs><circle id="p" cx="138" cy="67.5" r="43.5"/></defs><clipPath id="q"><use xlink:href="#p" overflow="visible"/></clipPath><g clip-path="url(#q)"><defs><path id="r" d="M-36.5-668.5h1121v1030h-1121z"/></defs><clipPath id="s"><use xlink:href="#r" overflow="visible"/></clipPath><circle clip-path="url(#s)" fill="none" stroke="#0F1F2D" stroke-width="6" stroke-linecap="round" stroke-miterlimit="10" cx="138" cy="67.5" r="43.5"/></g></g><path fill="none" stroke="#0F1F2D" stroke-width="3" stroke-miterlimit="10" d="M115.5 89.8l19.9-20"/><circle fill="#FFF" stroke="#0F1F2D" stroke-width="3" stroke-linecap="round" stroke-miterlimit="10" cx="145.2" cy="59.6" r="14.4"/></svg>