<svg xmlns="http://www.w3.org/2000/svg" xmlns:xlink="http://www.w3.org/1999/xlink" viewBox="0 0 276 137"><path fill="#FFF" d="M75.7 19h119.7v87.9H75.7z"/><path fill="#091F2F" d="M196.9 108.3H74.2V17.5h122.7v90.8zm-119.7-3h116.7V20.5H77.2v84.8z"/><path fill="#FFF" d="M109.3 87l-6.7-4.6-7.7 4.6V44.8h14.4z"/><path fill="#091F2F" d="M110.8 89.8l-8.3-5.6-9.1 5.4V43.3h17.4v46.5zM96.4 46.3v38l6.2-3.7 5.2 3.5V46.3H96.4z"/><circle fill="#FFF" cx="101.8" cy="47.8" r="12.1"/><path fill="#091F2F" d="M101.8 61.3c-7.5 0-13.6-6.1-13.6-13.6s6.1-13.6 13.6-13.6 13.6 6.1 13.6 13.6-6.1 13.6-13.6 13.6zm0-24.1c-5.8 0-10.6 4.7-10.6 10.6s4.7 10.6 10.6 10.6 10.6-4.7 10.6-10.6-4.8-10.6-10.6-10.6zm28.2.8h47v3h-47zm0 12h47v3h-47zm0 12h47v3h-47zm0 12h47v3h-47zm0 12h47v3h-47z"/><ellipse transform="rotate(-45.001 186.45 99.614)" fill="#FFF" cx="186.5" cy="99.6" rx="18.5" ry="18.5"/><path fill="#0F1F2D" d="M186.5 119.6c-5.3 0-10.4-2.1-14.1-5.9-3.8-3.8-5.9-8.8-5.9-14.1 0-5.3 2.1-10.4 5.9-14.1 3.8-3.8 8.8-5.9 14.1-5.9 5.3 0 10.4 2.1 14.1 5.9 3.8 3.8 5.9 8.8 5.9 14.1 0 5.3-2.1 10.4-5.9 14.1-3.8 3.8-8.8 5.9-14.1 5.9zm0-37c-4.5 0-8.8 1.8-12 5-3.2 3.2-5 7.5-5 12s1.8 8.8 5 12c3.2 3.2 7.5 5 12 5s8.8-1.8 12-5c3.2-3.2 5-7.5 5-12s-1.8-8.8-5-12c-3.2-3.2-7.5-5-12-5z"/><path fill="#0F1F2D" d="M176.117 107.937l8.627-8.627 2.121 2.121-8.627 8.627z"/><circle fill="#FFF" cx="190" cy="96" r="6.2"/><path fill="#0F1F2D" d="M190 103.7c-4.3 0-7.7-3.5-7.7-7.7s3.5-7.7 7.7-7.7 7.7 3.5 7.7 7.7-3.4 7.7-7.7 7.7zm0-12.5c-2.6 0-4.7 2.1-4.7 4.7s2.1 4.7 4.7 4.7 4.7-2.1 4.7-4.7c0-2.5-2.1-4.7-4.7-4.7z"/><defs><path id="a" d="M379.4 514.6h-1.5v84h108v-84H379.4zm0 3h105l-1.5-1.5v81l1.5-1.5h-105l1.5 1.5v-81l-1.5 1.5zm-21.5-23h148v124h-148v-124z"/></defs><clipPath id="b"><use xlink:href="#a" overflow="visible"/></clipPath><g clip-path="url(#b)"><defs><path id="c" d="M379.4 516.1h105v81h-105z"/></defs></g><defs><path id="d" d="M379.4 516.1h105v81h-105z"/></defs><defs><path id="e" d="M373.4 531.6h-2.2l.9-2.1 9.1-22 .4-.9h100.9l.4.9 9.1 22 .9 2.1H373.4zm0-3h117l-1.4 2.1-9.1-22 1.4.9h-98.9l1.4-.9-9.1 22-1.3-2.1zm-22.3 23h161.5v-65H351.1v65z"/></defs><clipPath id="f"><use xlink:href="#e" overflow="visible"/></clipPath><g clip-path="url(#f)"><defs><path id="g" d="M373.4 530.1h117l-9.1-22h-98.8z"/></defs></g><defs><path id="h" d="M373.4 530.1h117l-9.1-22h-98.8z"/></defs><defs><path id="i" d="M458.4 498.6h-1.5v19h15v-19h-13.5zm0 3h12l-1.5-1.5v16l1.5-1.5h-12l1.5 1.5v-16l-1.5 1.5zm-21.5-23h55v59h-55v-59z"/></defs><clipPath id="j"><use xlink:href="#i" overflow="visible"/></clipPath><g clip-path="url(#j)"><defs><path id="k" d="M458.4 500.1h12v16h-12z"/></defs></g><defs><path id="l" d="M458.4 500.1h12v16h-12z"/></defs><defs><path id="m" d="M392.4 564.6h-1.5v34h24v-34h-22.5zm0 3h21l-1.5-1.5v31l1.5-1.5h-21l1.5 1.5v-31l-1.5 1.5zm-21.5-23h64v74h-64v-74z"/></defs><clipPath id="n"><use xlink:href="#m" overflow="visible"/></clipPath><g clip-path="url(#n)"><defs><path id="o" d="M392.4 566.1h21v31h-21z"/></defs></g><defs><path id="p" d="M392.4 566.1h21v31h-21z"/></defs><defs><path id="q" d="M393.4 536.6h-1.5v22h22v-22h-20.5zm0 3h19l-1.5-1.5v19l1.5-1.5h-19l1.5 1.5v-19l-1.5 1.5zm-21.5-23h62v62h-62v-62z"/></defs><clipPath id="r"><use xlink:href="#q" overflow="visible"/></clipPath><g clip-path="url(#r)"><defs><path id="s" d="M393.4 538.1h19v19h-19z"/></defs></g><defs><path id="t" d="M393.4 538.1h19v19h-19z"/></defs><defs><path id="u" d="M398.4 541.6h-1.5v12h12v-12h-10.5zm0 3h9l-1.5-1.5v9l1.5-1.5h-9l1.5 1.5v-9l-1.5 1.5zm-21.5-23h52v52h-52v-52z"/></defs><clipPath id="v"><use xlink:href="#u" overflow="visible"/></clipPath><g clip-path="url(#v)"><defs><path id="w" d="M398.4 543.1h9v9h-9z"/></defs></g><defs><path id="x" d="M398.4 543.1h9v9h-9z"/></defs><defs><path id="y" d="M423.4 536.6h-1.5v22h22v-22h-20.5zm0 3h19l-1.5-1.5v19l1.5-1.5h-19l1.5 1.5v-19l-1.5 1.5zm-21.5-23h62v62h-62v-62z"/></defs><clipPath id="z"><use xlink:href="#y" overflow="visible"/></clipPath><g clip-path="url(#z)"><defs><path id="A" d="M423.4 538.1h19v19h-19z"/></defs></g><defs><path id="B" d="M423.4 538.1h19v19h-19z"/></defs><defs><path id="C" d="M452.4 536.6h-1.5v22h22v-22h-20.5zm0 3h19l-1.5-1.5v19l1.5-1.5h-19l1.5 1.5v-19l-1.5 1.5zm-21.5-23h62v62h-62v-62z"/></defs><clipPath id="D"><use xlink:href="#C" overflow="visible"/></clipPath><g clip-path="url(#D)"><defs><path id="E" d="M452.4 538.1h19v19h-19z"/></defs></g><defs><path id="F" d="M452.4 538.1h19v19h-19z"/></defs><defs><path id="G" d="M423.4 564.6h-1.5v22h22v-22h-20.5zm0 3h19l-1.5-1.5v19l1.5-1.5h-19l1.5 1.5v-19l-1.5 1.5zm-21.5-23h62v62h-62v-62z"/></defs><clipPath id="H"><use xlink:href="#G" overflow="visible"/></clipPath><g clip-path="url(#H)"><defs><path id="I" d="M423.4 566.1h19v19h-19z"/></defs></g><defs><path id="J" d="M423.4 566.1h19v19h-19z"/></defs><defs><path id="K" d="M452.4 564.6h-1.5v22h22v-22h-20.5zm0 3h19l-1.5-1.5v19l1.5-1.5h-19l1.5 1.5v-19l-1.5 1.5zm-21.5-23h62v62h-62v-62z"/></defs><clipPath id="L"><use xlink:href="#K" overflow="visible"/></clipPath><g clip-path="url(#L)"><defs><path id="M" d="M452.4 566.1h19v19h-19z"/></defs></g><defs><path id="N" d="M452.4 566.1h19v19h-19z"/></defs><defs><path id="O" d="M428.4 541.6h-1.5v12h12v-12h-10.5zm0 3h9l-1.5-1.5v9l1.5-1.5h-9l1.5 1.5v-9l-1.5 1.5zm-21.5-23h52v52h-52v-52z"/></defs><clipPath id="P"><use xlink:href="#O" overflow="visible"/></clipPath><g clip-path="url(#P)"><defs><path id="Q" d="M428.4 543.1h9v9h-9z"/></defs></g><defs><path id="R" d="M428.4 543.1h9v9h-9z"/></defs><defs><path id="S" d="M457.4 541.6h-1.5v12h12v-12h-10.5zm0 3h9l-1.5-1.5v9l1.5-1.5h-9l1.5 1.5v-9l-1.5 1.5zm-21.5-23h52v52h-52v-52z"/></defs><clipPath id="T"><use xlink:href="#S" overflow="visible"/></clipPath><g clip-path="url(#T)"><defs><path id="U" d="M457.4 543.1h9v9h-9z"/></defs></g><defs><path id="V" d="M457.4 543.1h9v9h-9z"/></defs><defs><path id="W" d="M428.4 569.6h-1.5v12h12v-12h-10.5zm0 3h9l-1.5-1.5v9l1.5-1.5h-9l1.5 1.5v-9l-1.5 1.5zm-21.5-23h52v52h-52v-52z"/></defs><clipPath id="X"><use xlink:href="#W" overflow="visible"/></clipPath><g clip-path="url(#X)"><defs><path id="Y" d="M428.4 571.1h9v9h-9z"/></defs></g><defs><path id="Z" d="M428.4 571.1h9v9h-9z"/></defs><defs><path id="aa" d="M457.4 569.6h-1.5v12h12v-12h-10.5zm0 3h9l-1.5-1.5v9l1.5-1.5h-9l1.5 1.5v-9l-1.5 1.5zm-21.5-23h52v52h-52v-52z"/></defs><clipPath id="ab"><use xlink:href="#aa" overflow="visible"/></clipPath><g clip-path="url(#ab)"><defs><path id="ac" d="M457.4 571.1h9v9h-9z"/></defs></g><defs><path id="ad" d="M457.4 571.1h9v9h-9z"/></defs><defs><path id="ae" d="M979.4 197.6h-1.5v84h108v-84H979.4zm0 3h105l-1.5-1.5v81l1.5-1.5h-105l1.5 1.5v-81l-1.5 1.5zm-21.5-23h148v124h-148v-124z"/></defs><clipPath id="af"><use xlink:href="#ae" overflow="visible"/></clipPath><g clip-path="url(#af)"><defs><path id="ag" d="M979.4 199.1h105v81h-105z"/></defs></g><defs><path id="ah" d="M979.4 199.1h105v81h-105z"/></defs><defs><path id="ai" d="M973.4 214.6h-2.2l.9-2.1 9.1-22 .4-.9h100.9l.4.9 9.1 22 .9 2.1H973.4zm0-3h117l-1.4 2.1-9.1-22 1.4.9h-98.9l1.4-.9-9.1 22-1.3-2.1zm-22.3 23h161.5v-65H951.1v65z"/></defs><clipPath id="aj"><use xlink:href="#ai" overflow="visible"/></clipPath><g clip-path="url(#aj)"><defs><path id="ak" d="M973.4 213.1h117l-9.1-22h-98.8z"/></defs></g><defs><path id="al" d="M973.4 213.1h117l-9.1-22h-98.8z"/></defs><defs><path id="am" d="M1058.4 181.6h-1.5v19h15v-19h-13.5zm0 3h12l-1.5-1.5v16l1.5-1.5h-12l1.5 1.5v-16l-1.5 1.5zm-21.5-23h55v59h-55v-59z"/></defs><clipPath id="an"><use xlink:href="#am" overflow="visible"/></clipPath><g clip-path="url(#an)"><defs><path id="ao" d="M1058.4 183.1h12v16h-12z"/></defs></g><defs><path id="ap" d="M1058.4 183.1h12v16h-12z"/></defs><defs><path id="aq" d="M992.4 247.6h-1.5v34h24v-34h-22.5zm0 3h21l-1.5-1.5v31l1.5-1.5h-21l1.5 1.5v-31l-1.5 1.5zm-21.5-23h64v74h-64v-74z"/></defs><clipPath id="ar"><use xlink:href="#aq" overflow="visible"/></clipPath><g clip-path="url(#ar)"><defs><path id="as" d="M992.4 249.1h21v31h-21z"/></defs></g><defs><path id="at" d="M992.4 249.1h21v31h-21z"/></defs><defs><path id="au" d="M993.4 219.6h-1.5v22h22v-22h-20.5zm0 3h19l-1.5-1.5v19l1.5-1.5h-19l1.5 1.5v-19l-1.5 1.5zm-21.5-23h62v62h-62v-62z"/></defs><clipPath id="av"><use xlink:href="#au" overflow="visible"/></clipPath><g clip-path="url(#av)"><defs><path id="aw" d="M993.4 221.1h19v19h-19z"/></defs></g><defs><path id="ax" d="M993.4 221.1h19v19h-19z"/></defs><defs><path id="ay" d="M998.4 224.6h-1.5v12h12v-12h-10.5zm0 3h9l-1.5-1.5v9l1.5-1.5h-9l1.5 1.5v-9l-1.5 1.5zm-21.5-23h52v52h-52v-52z"/></defs><clipPath id="az"><use xlink:href="#ay" overflow="visible"/></clipPath><g clip-path="url(#az)"><defs><path id="aA" d="M998.4 226.1h9v9h-9z"/></defs></g><defs><path id="aB" d="M998.4 226.1h9v9h-9z"/></defs><defs><path id="aC" d="M1023.4 219.6h-1.5v22h22v-22h-20.5zm0 3h19l-1.5-1.5v19l1.5-1.5h-19l1.5 1.5v-19l-1.5 1.5zm-21.5-23h62v62h-62v-62z"/></defs><clipPath id="aD"><use xlink:href="#aC" overflow="visible"/></clipPath><g clip-path="url(#aD)"><defs><path id="aE" d="M1023.4 221.1h19v19h-19z"/></defs></g><defs><path id="aF" d="M1023.4 221.1h19v19h-19z"/></defs><defs><path id="aG" d="M1052.4 219.6h-1.5v22h22v-22h-20.5zm0 3h19l-1.5-1.5v19l1.5-1.5h-19l1.5 1.5v-19l-1.5 1.5zm-21.5-23h62v62h-62v-62z"/></defs><clipPath id="aH"><use xlink:href="#aG" overflow="visible"/></clipPath><g clip-path="url(#aH)"><defs><path id="aI" d="M1052.4 221.1h19v19h-19z"/></defs></g><g><defs><path id="aJ" d="M1052.4 221.1h19v19h-19z"/></defs></g><g><defs><path id="aK" d="M1023.4 247.6h-1.5v22h22v-22h-20.5zm0 3h19l-1.5-1.5v19l1.5-1.5h-19l1.5 1.5v-19l-1.5 1.5zm-21.5-23h62v62h-62v-62z"/></defs><clipPath id="aL"><use xlink:href="#aK" overflow="visible"/></clipPath><g clip-path="url(#aL)"><defs><path id="aM" d="M1023.4 249.1h19v19h-19z"/></defs></g></g><g><defs><path id="aN" d="M1023.4 249.1h19v19h-19z"/></defs></g><g><defs><path id="aO" d="M1052.4 247.6h-1.5v22h22v-22h-20.5zm0 3h19l-1.5-1.5v19l1.5-1.5h-19l1.5 1.5v-19l-1.5 1.5zm-21.5-23h62v62h-62v-62z"/></defs><clipPath id="aP"><use xlink:href="#aO" overflow="visible"/></clipPath><g clip-path="url(#aP)"><defs><path id="aQ" d="M1052.4 249.1h19v19h-19z"/></defs></g></g><g><defs><path id="aR" d="M1052.4 249.1h19v19h-19z"/></defs></g><g><defs><path id="aS" d="M1028.4 224.6h-1.5v12h12v-12h-10.5zm0 3h9l-1.5-1.5v9l1.5-1.5h-9l1.5 1.5v-9l-1.5 1.5zm-21.5-23h52v52h-52v-52z"/></defs><clipPath id="aT"><use xlink:href="#aS" overflow="visible"/></clipPath><g clip-path="url(#aT)"><defs><path id="aU" d="M1028.4 226.1h9v9h-9z"/></defs></g></g><g><defs><path id="aV" d="M1028.4 226.1h9v9h-9z"/></defs></g><g><defs><path id="aW" d="M1057.4 224.6h-1.5v12h12v-12h-10.5zm0 3h9l-1.5-1.5v9l1.5-1.5h-9l1.5 1.5v-9l-1.5 1.5zm-21.5-23h52v52h-52v-52z"/></defs><clipPath id="aX"><use xlink:href="#aW" overflow="visible"/></clipPath><g clip-path="url(#aX)"><defs><path id="aY" d="M1057.4 226.1h9v9h-9z"/></defs></g></g><g><defs><path id="aZ" d="M1057.4 226.1h9v9h-9z"/></defs></g><g><defs><path id="ba" d="M1028.4 252.6h-1.5v12h12v-12h-10.5zm0 3h9l-1.5-1.5v9l1.5-1.5h-9l1.5 1.5v-9l-1.5 1.5zm-21.5-23h52v52h-52v-52z"/></defs><clipPath id="bb"><use xlink:href="#ba" overflow="visible"/></clipPath><g clip-path="url(#bb)"><defs><path id="bc" d="M1028.4 254.1h9v9h-9z"/></defs></g></g><g><defs><path id="bd" d="M1028.4 254.1h9v9h-9z"/></defs></g><g><defs><path id="be" d="M1057.4 252.6h-1.5v12h12v-12h-10.5zm0 3h9l-1.5-1.5v9l1.5-1.5h-9l1.5 1.5v-9l-1.5 1.5zm-21.5-23h52v52h-52v-52z"/></defs><clipPath id="bf"><use xlink:href="#be" overflow="visible"/></clipPath><g clip-path="url(#bf)"><defs><path id="bg" d="M1057.4 254.1h9v9h-9z"/></defs></g></g><g><defs><path id="bh" d="M1057.4 254.1h9v9h-9z"/></defs></g></svg>