<svg id="Layer_1" data-name="Layer 1" xmlns="http://www.w3.org/2000/svg" viewBox="0 0 276 137"><defs><style>.cls-1,.cls-2,.cls-4,.cls-7,.cls-8{fill:#fff}.cls-1,.cls-5,.cls-6,.cls-8{stroke:#0e1f2d}.cls-1,.cls-5,.cls-6,.cls-7,.cls-8{stroke-miterlimit:10}.cls-1,.cls-5,.cls-6{stroke-width:1.88px}.cls-1{clip-rule:evenodd}.cls-2,.cls-6{fill-rule:evenodd}.cls-3{clip-path:url(#clip-path)}.cls-5,.cls-6{fill:none}.cls-7,.cls-8{stroke-width:3px}.cls-7{stroke:#0c1f2e}.cls-8{stroke-linecap:round}</style><clipPath id="clip-path"><path class="cls-1" d="M-202.67 50.79h65.16l5.85 5.75v11.01h-71.01V50.79z"/></clipPath></defs><path class="cls-2" d="M-202.67 50.79h65.16l5.85 5.75v11.01h-71.01V50.79z"/><g class="cls-3"><path class="cls-4" d="M-392.69-205.45h572.62v493.32h-572.62z"/><path class="cls-5" d="M-392.69-205.45h572.62v493.32h-572.62z"/></g><path class="cls-6" d="M-202.67 50.79h65.16l5.85 5.75v11.01h-71.01V50.79z"/><path class="cls-7" d="M103.93 21.83h74.62v93.35h-74.62z"/><circle class="cls-7" cx="142.65" cy="68.28" r="9.01"/><path class="cls-7" d="M160.18 91.7v13.72h-35.05V91.7l9.79-7.41h15.47l9.79 7.41z"/><path class="cls-8" transform="rotate(-90 103.93 59.27)" d="M101.88 52.8h4.09v12.95h-4.09z"/><path class="cls-8" transform="rotate(-90 103.93 37.18)" d="M101.88 30.71h4.09v12.95h-4.09z"/><path class="cls-8" transform="rotate(-90 103.93 99.82)" d="M101.88 93.35h4.09v12.95h-4.09z"/><path class="cls-8" transform="rotate(-90 103.93 77.73)" d="M101.88 71.26h4.09v12.95h-4.09z"/><path class="cls-8" d="M168.27 49.15h-12.55l-3.83-8.37h-18.82l-3.75 8.37h-12.28V38.69l13.24-5.85h24.4l13.59 7.6v8.71z"/></svg>