<svg id="Layer_1" data-name="Layer 1" xmlns="http://www.w3.org/2000/svg" viewBox="0 0 276 137"><defs><style>.cls-1,.cls-2,.cls-33{fill:none}.cls-1{clip-rule:evenodd}.cls-32{fill:#fff}.cls-32,.cls-33,.cls-34{stroke:#0e1f2d;stroke-linecap:round;stroke-miterlimit:10;stroke-width:2.87px}.cls-34{fill:#0e1f2d}</style><clipPath id="clip-path"><path class="cls-1" d="M87.67-284.51h-1.5v84h108v-84H87.67zm0 3h105l-1.5-1.5v81l1.5-1.5h-105l1.5 1.5v-81zm-21.5-23h148v124h-148z"/></clipPath><clipPath id="clip-path-2"><path class="cls-2" d="M87.67-283.01h105v81h-105z"/></clipPath><clipPath id="clip-path-4"><path class="cls-1" d="M81.67-267.51h-2.24l.85-2.07 9.07-22 .38-.93H190.6l.38.93 9.07 22 .85 2.07H81.67zm0-3h117l-1.39 2.07-9.07-22 1.39.93H90.74l1.39-.93-9.07 22zm-22.24 23h161.48v-65H59.43z"/></clipPath><clipPath id="clip-path-5"><path class="cls-1" d="M81.67-269.01h117l-9.07-22H90.74l-9.07 22z"/></clipPath><clipPath id="clip-path-7"><path class="cls-1" d="M166.67-300.51h-1.5v19h15v-19h-13.5zm0 3h12l-1.5-1.5v16l1.5-1.5h-12l1.5 1.5v-16zm-21.5-23h55v59h-55z"/></clipPath><clipPath id="clip-path-8"><path class="cls-2" d="M166.67-299.01h12v16h-12z"/></clipPath><clipPath id="clip-path-10"><path class="cls-1" d="M100.67-234.51h-1.5v34h24v-34h-22.5zm0 3h21l-1.5-1.5v31l1.5-1.5h-21l1.5 1.5v-31zm-21.5-23h64v74h-64z"/></clipPath><clipPath id="clip-path-11"><path class="cls-2" d="M100.67-233.01h21v31h-21z"/></clipPath><clipPath id="clip-path-13"><path class="cls-1" d="M101.67-262.51h-1.5v22h22v-22h-20.5zm0 3h19l-1.5-1.5v19l1.5-1.5h-19l1.5 1.5v-19zm-21.5-23h62v62h-62z"/></clipPath><clipPath id="clip-path-14"><path class="cls-2" d="M101.67-261.01h19v19h-19z"/></clipPath><clipPath id="clip-path-16"><path class="cls-1" d="M106.67-257.51h-1.5v12h12v-12h-10.5zm0 3h9l-1.5-1.5v9l1.5-1.5h-9l1.5 1.5v-9zm-21.5-23h52v52h-52z"/></clipPath><clipPath id="clip-path-17"><path class="cls-2" d="M106.67-256.01h9v9h-9z"/></clipPath><clipPath id="clip-path-19"><path class="cls-1" d="M131.67-262.51h-1.5v22h22v-22h-20.5zm0 3h19l-1.5-1.5v19l1.5-1.5h-19l1.5 1.5v-19zm-21.5-23h62v62h-62z"/></clipPath><clipPath id="clip-path-20"><path class="cls-2" d="M131.67-261.01h19v19h-19z"/></clipPath><clipPath id="clip-path-22"><path class="cls-1" d="M160.67-262.51h-1.5v22h22v-22h-20.5zm0 3h19l-1.5-1.5v19l1.5-1.5h-19l1.5 1.5v-19zm-21.5-23h62v62h-62z"/></clipPath><clipPath id="clip-path-23"><path class="cls-2" d="M160.67-261.01h19v19h-19z"/></clipPath><clipPath id="clip-path-25"><path class="cls-1" d="M131.67-234.51h-1.5v22h22v-22h-20.5zm0 3h19l-1.5-1.5v19l1.5-1.5h-19l1.5 1.5v-19zm-21.5-23h62v62h-62z"/></clipPath><clipPath id="clip-path-26"><path class="cls-2" d="M131.67-233.01h19v19h-19z"/></clipPath><clipPath id="clip-path-28"><path class="cls-1" d="M160.67-234.51h-1.5v22h22v-22h-20.5zm0 3h19l-1.5-1.5v19l1.5-1.5h-19l1.5 1.5v-19zm-21.5-23h62v62h-62z"/></clipPath><clipPath id="clip-path-29"><path class="cls-2" d="M160.67-233.01h19v19h-19z"/></clipPath><clipPath id="clip-path-31"><path class="cls-1" d="M136.67-257.51h-1.5v12h12v-12h-10.5zm0 3h9l-1.5-1.5v9l1.5-1.5h-9l1.5 1.5v-9zm-21.5-23h52v52h-52z"/></clipPath><clipPath id="clip-path-32"><path class="cls-2" d="M136.67-256.01h9v9h-9z"/></clipPath><clipPath id="clip-path-34"><path class="cls-1" d="M165.67-257.51h-1.5v12h12v-12h-10.5zm0 3h9l-1.5-1.5v9l1.5-1.5h-9l1.5 1.5v-9zm-21.5-23h52v52h-52z"/></clipPath><clipPath id="clip-path-35"><path class="cls-2" d="M165.67-256.01h9v9h-9z"/></clipPath><clipPath id="clip-path-37"><path class="cls-1" d="M136.67-229.51h-1.5v12h12v-12h-10.5zm0 3h9l-1.5-1.5v9l1.5-1.5h-9l1.5 1.5v-9zm-21.5-23h52v52h-52z"/></clipPath><clipPath id="clip-path-38"><path class="cls-2" d="M136.67-228.01h9v9h-9z"/></clipPath><clipPath id="clip-path-40"><path class="cls-1" d="M165.67-229.51h-1.5v12h12v-12h-10.5zm0 3h9l-1.5-1.5v9l1.5-1.5h-9l1.5 1.5v-9zm-21.5-23h52v52h-52z"/></clipPath><clipPath id="clip-path-41"><path class="cls-2" d="M165.67-228.01h9v9h-9z"/></clipPath></defs><path class="cls-32" d="M94.4 33.05h87.2v81.92H94.4z"/><path class="cls-33" d="M94.4 46.94h87.2m-80.95 6.79h13.68v13.68h-13.68zm20.34 0h13.68v13.68h-13.68zm20.34 0h13.68v13.68h-13.68zm20.35 0h13.68v13.68h-13.68z"/><path class="cls-34" d="M100.65 73.38h13.68v13.68h-13.68zm20.34 0h13.68v13.68h-13.68z"/><path class="cls-33" d="M141.33 73.38h13.68v13.68h-13.68zm20.35 0h13.68v13.68h-13.68zm-61.03 19.65h13.68v13.68h-13.68zm20.34 0h13.68v13.68h-13.68zm20.34 0h13.68v13.68h-13.68z"/><path class="cls-32" d="M119.83 22.03h5.68v17.98h-5.68zm30.67 0h5.68v17.98h-5.68z"/></svg>