<svg xmlns="http://www.w3.org/2000/svg" xmlns:xlink="http://www.w3.org/1999/xlink" viewBox="0 0 276 137"><defs><path id="a" d="M-750 121.5c-29.3 0-53-23.7-53-53s23.7-53 53-53 53 23.7 53 53-23.7 53-53 53zm0 3c30.9 0 56-25.1 56-56s-25.1-56-56-56-56 25.1-56 56 25.1 56 56 56z"/></defs><clipPath id="b"><use xlink:href="#a" overflow="visible"/></clipPath><g clip-path="url(#b)"><defs><circle id="c" cx="-750" cy="68.5" r="54.5"/></defs></g><defs><circle id="d" cx="-750" cy="68.5" r="54.5"/></defs><defs><path id="e" d="M-750 100.5c-17.7 0-32-14.3-32-32s14.3-32 32-32 32 14.3 32 32-14.3 32-32 32zm0 3c19.3 0 35-15.7 35-35s-15.7-35-35-35-35 15.7-35 35 15.7 35 35 35zm-55-90h110v110h-110v-110z"/></defs><clipPath id="f"><use xlink:href="#e" overflow="visible"/></clipPath><g clip-path="url(#f)"><defs><circle id="g" cx="-750" cy="68.5" r="33.5"/></defs></g><defs><circle id="h" cx="-750" cy="68.5" r="33.5"/></defs><defs><path id="i" d="M-751.5 14.5h-1.5v13h6v-13h-4.5zm0 3h3L-750 16v10l1.5-1.5h-3l1.5 1.5V16l-1.5 1.5z"/></defs><clipPath id="j"><use xlink:href="#i" overflow="visible"/></clipPath><g clip-path="url(#j)"><defs><path id="k" d="M-751.5 16h3v10h-3z"/></defs></g><defs><path id="l" d="M-751.5 16h3v10h-3z"/></defs><defs><path id="m" d="M-805.5 70.5V72h13v-6h-13v4.5zm3 0v-3L-804 69h10l-1.5-1.5v3l1.5-1.5h-10l1.5 1.5z"/></defs><clipPath id="n"><use xlink:href="#m" overflow="visible"/></clipPath><g clip-path="url(#n)"><defs><path id="o" d="M-804 67.5h10v3h-10z"/></defs></g><defs><path id="p" d="M-804 67.5h10v3h-10z"/></defs><defs><path id="q" d="M-708.5 70.5V72h13v-6h-13v4.5zm3 0v-3L-707 69h10l-1.5-1.5v3l1.5-1.5h-10l1.5 1.5z"/></defs><clipPath id="r"><use xlink:href="#q" overflow="visible"/></clipPath><g clip-path="url(#r)"><defs><path id="s" d="M-707 67.5h10v3h-10z"/></defs></g><defs><path id="t" d="M-707 67.5h10v3h-10z"/></defs><defs><path id="u" d="M-719.5 40.7l1.1 1.1 1.1-1.1 7.1-7.1 1.1-1.1-1.1-1.1-2.1-2.1-1.1-1.1-1.1 1.1-7.1 7.1-1.1 1.1 1.1 1.1 2.1 2.1zm2.1-2.2l-2.1-2.1v2.1l7.1-7.1h-2.1l2.1 2.1v-2.1l-7.1 7.1h2.1z"/></defs><clipPath id="v"><use xlink:href="#u" overflow="visible"/></clipPath><g clip-path="url(#v)"><defs><path id="w" transform="rotate(45.001 -716.003 35.008)" d="M-717.5 30h3v10h-3z"/></defs></g><defs><path id="x" transform="rotate(45.001 -716.003 35.008)" d="M-717.5 30h3v10h-3z"/></defs><defs><path id="y" d="M-779.3 39.5l1.1-1.1-1.1-1.1-7.1-7.1-1.1-1.1-1.1 1.1-2.1 2.1-1.1 1.1 1.1 1.1 7.1 7.1 1.1 1.1 1.1-1.1 2.1-2.1zm-2.2-2.1l-2.1 2.1h2.1l-7.1-7.1v2.1l2.1-2.1h-2.1l7.1 7.1v-2.1z"/></defs><clipPath id="z"><use xlink:href="#y" overflow="visible"/></clipPath><g clip-path="url(#z)"><defs><path id="A" transform="rotate(-45.001 -785.005 35.991)" d="M-786.5 31h3v10h-3z"/></defs></g><defs><path id="B" transform="rotate(-45.001 -785.005 35.991)" d="M-786.5 31h3v10h-3z"/></defs><defs><path id="C" d="M-719.5 96.3l1.1-1.1 1.1 1.1 7.1 7.1 1.1 1.1-1.1 1.1-2.1 2.1-1.1 1.1-1.1-1.1-7.1-7.1-1.1-1.1 1.1-1.1 2.1-2.1zm2.1 2.2l-2.1 2.1v-2.1l7.1 7.1h-2.1l2.1-2.1v2.1l-7.1-7.1h2.1z"/></defs><clipPath id="D"><use xlink:href="#C" overflow="visible"/></clipPath><g clip-path="url(#D)"><defs><path id="E" transform="rotate(-45.001 -716.004 101.992)" d="M-717.5 97h3v10h-3z"/></defs></g><defs><path id="F" transform="rotate(-45.001 -716.004 101.992)" d="M-717.5 97h3v10h-3z"/></defs><defs><path id="G" d="M-779.3 99.5l1.1 1.1-1.1 1.1-7.1 7.1-1.1 1.1-1.1-1.1-2.1-2.1-1.1-1.1 1.1-1.1 7.1-7.1 1.1-1.1 1.1 1.1 2.1 2.1zm-2.2 2.1l-2.1-2.1h2.1l-7.1 7.1v-2.1l2.1 2.1h-2.1l7.1-7.1v2.1z"/></defs><clipPath id="H"><use xlink:href="#G" overflow="visible"/></clipPath><g clip-path="url(#H)"><defs><path id="I" transform="rotate(45.001 -785.003 103.01)" d="M-786.5 98h3v10h-3z"/></defs></g><defs><path id="J" transform="rotate(45.001 -785.003 103.01)" d="M-786.5 98h3v10h-3z"/></defs><defs><path id="K" d="M-740.4 47.9c.7.3 1.5.6 2.2 1 1.3.7 2.5 1.6 3.6 2.4.4.3.7.6 1 .9.2.2.3.3.4.3l1.6 1.6-.3-2.2-2.1-14.7-.2-1.2-1 .6-12.3 8-1.8 1.2 2.1.2c.1 0 .3 0 .5.1.4.1.9.2 1.5.3 1.4.3 3.1.8 4.8 1.5zm7.5 4c-.1-.1-.4-.3-.7-.6l.1.9.6-.3zm0-1l.1.9.6-.3-.4-.4c-.1 0-.2-.1-.3-.2zm-1.9-13.1v.3l.3-.2-.3-.1zm-.8 0l.3-.2-.3-.2v.4zm-11.4 7.4l.7-.5h-.3c-.3 0-.5-.1-.6-.1l.2.6zm.9.3c-.4-.1-.7-.1-.9-.1l.1.6.8-.5z"/></defs><defs><path id="L" d="M-740.2 47.2c-3.9-1.6-7.1-1.9-7.1-1.9l12.3-8 2.1 14.7c.2.1-3.1-3.1-7.3-4.8zm-25-11.1l37.2-15.8 15.8 37.2-37.2 15.8-15.8-37.2z"/></defs><defs><path id="M" d="M-750 92.5c-13.3 0-24-10.7-24-24s10.7-24 24-24 24 10.7 24 24-10.7 24-24 24zm0 3c14.9 0 27-12.1 27-27s-12.1-27-27-27-27 12.1-27 27 12.1 27 27 27zm-47-74h94v94h-94v-94z"/></defs><clipPath id="N"><use xlink:href="#M" overflow="visible"/></clipPath><g clip-path="url(#N)"><defs><circle id="O" cx="-750" cy="68.5" r="25.5"/></defs></g><defs><circle id="P" cx="-750" cy="68.5" r="25.5"/></defs><defs><path id="Q" d="M-459.8 7.5h-1.5v18h19v-18h-17.5zm0 3h16l-1.5-1.5v15l1.5-1.5h-16l1.5 1.5V9l-1.5 1.5z"/></defs><clipPath id="R"><use xlink:href="#Q" overflow="visible"/></clipPath><g clip-path="url(#R)"><defs><path id="S" d="M-459.8 9h16v15h-16z"/></defs></g><defs><path id="T" d="M-459.8 9h16v15h-16z"/></defs><defs><path id="U" d="M-483.8 19.5h-1.5v43h67v-43h-65.5zm0 3h64l-1.5-1.5v40l1.5-1.5h-64l1.5 1.5V21l-1.5 1.5z"/></defs><clipPath id="V"><use xlink:href="#U" overflow="visible"/></clipPath><g clip-path="url(#V)"><defs><path id="W" d="M-483.8 21h64v40h-64z"/></defs></g><defs><path id="X" d="M-483.8 21h64v40h-64z"/></defs><defs><path id="Y" d="M-448.8 29.5h-1.5v33h22v-33h-20.5zm0 3h19l-1.5-1.5v30l1.5-1.5h-19l1.5 1.5V31l-1.5 1.5z"/></defs><clipPath id="Z"><use xlink:href="#Y" overflow="visible"/></clipPath><g clip-path="url(#Z)"><defs><path id="aa" d="M-448.8 31h19v30h-19z"/></defs></g><defs><path id="ab" d="M-448.8 31h19v30h-19z"/></defs><defs><path id="ac" d="M-473.8 29.5h-1.5v33h22v-33h-20.5zm0 3h19l-1.5-1.5v30l1.5-1.5h-19l1.5 1.5V31l-1.5 1.5z"/></defs><clipPath id="ad"><use xlink:href="#ac" overflow="visible"/></clipPath><g clip-path="url(#ad)"><defs><path id="ae" d="M-473.8 31h19v30h-19z"/></defs></g><defs><path id="af" d="M-473.8 31h19v30h-19z"/></defs><defs><path id="ag" d="M-504.3 87.7c0 2.9-.8 7-2.3 11.9-.6 2.1-1.3 4.3-2.1 6.5-1 2.7-2 5.4-3.1 8-.4.9-.7 1.7-1 2.4-.2.4-.3.7-.4.9l-.9 2.1h119.4l-.7-2c-.1-.2-.2-.4-.3-.9-.2-.7-.5-1.5-.8-2.4-.8-2.5-1.6-5.2-2.4-7.9-.7-2.4-1.3-4.8-1.8-7-1.1-4.8-1.7-8.8-1.7-11.8 0-2.8.7-7 1.9-12 .5-1.9 1-3.9 1.6-6 .8-2.7 1.6-5.4 2.4-7.9.3-.9.5-1.7.8-2.4.1-.4.2-.7.3-.9l.7-2h-119.4l1 2.1c.1.1.2.4.4.9.3.7.6 1.5 1 2.4 1 2.5 2.1 5.1 3.1 7.8.8 2.2 1.5 4.4 2.1 6.4 1.4 5 2.2 9 2.2 11.8zm3 0c0-3.2-.9-7.5-2.4-12.5-.6-2.1-1.4-4.3-2.2-6.5-1-2.7-2.1-5.4-3.1-8-.4-.9-.7-1.7-1-2.4-.2-.4-.3-.7-.4-.9l-1.4 2.1h115l-1.4-2c-.1.2-.2.5-.3.9-.2.7-.5 1.5-.8 2.4-.8 2.6-1.7 5.3-2.4 8-.6 2.1-1.1 4.1-1.6 6.1-1.3 5.2-2 9.5-2 12.7 0 3.2.6 7.4 1.7 12.4.5 2.3 1.1 4.7 1.8 7.1.8 2.8 1.6 5.5 2.4 8.1.3.9.6 1.7.8 2.4.1.4.2.7.3.9l1.4-2h-115l1.4 2.1c.1-.2.2-.5.4-.9.3-.7.7-1.5 1-2.4 1.1-2.6 2.1-5.3 3.1-8.1.8-2.3 1.6-4.5 2.2-6.7 1.7-5.2 2.5-9.5 2.5-12.8z"/></defs><clipPath id="ah"><use xlink:href="#ag" overflow="visible"/></clipPath><g clip-path="url(#ah)"><defs><path id="ai" d="M-502.8 87.7c0-9.9-9-29.7-9-29.7h115s-7 20-7 29.6c0 10.5 7 30.4 7 30.4h-115s9-20.2 9-30.3z"/></defs></g><defs><path id="aj" d="M-502.8 87.7c0-9.9-9-29.7-9-29.7h115s-7 20-7 29.6c0 10.5 7 30.4 7 30.4h-115s9-20.2 9-30.3z"/></defs><defs><path id="ak" d="M-488.8 88.5h-1.5v6h72v-6h-70.5zm0 3h69l-1.5-1.5v3l1.5-1.5h-69l1.5 1.5v-3l-1.5 1.5zm-21.5-23h112v46h-112v-46z"/></defs><clipPath id="al"><use xlink:href="#ak" overflow="visible"/></clipPath><g clip-path="url(#al)"><defs><path id="am" d="M-488.8 90h69v3h-69z"/></defs></g><defs><path id="an" d="M-488.8 90h69v3h-69z"/></defs><defs><path id="ao" d="M-488.8 80.5h-1.5v6h72v-6h-70.5zm0 3h69l-1.5-1.5v3l1.5-1.5h-69l1.5 1.5v-3l-1.5 1.5zm-21.5-23h112v46h-112v-46z"/></defs><clipPath id="ap"><use xlink:href="#ao" overflow="visible"/></clipPath><g clip-path="url(#ap)"><defs><path id="aq" d="M-488.8 82h69v3h-69z"/></defs></g><defs><path id="ar" d="M-488.8 82h69v3h-69z"/></defs><defs><path id="as" d="M-456.8 95.9l.5 1.6 1.5-.7c2-.9 4.2-1.3 6.4-1.3 6 0 11.3 3.3 14.1 8.4l.5 1 1.1-.2c.6-.1 1.2-.2 1.8-.2 3.5 0 6.6 2.1 7.9 5.3l.5 1.2 1.3-.3c.4-.1.9-.2 1.4-.2 3 0 5.5 2.5 5.5 5.5s-2.5 5.5-5.5 5.5c-1.5 0-2.9-.6-3.9-1.6l-.9-.9-1 .8c-1.5 1.1-3.3 1.7-5.1 1.7-1.1 0-2.2-.2-3.2-.6l-1-.4-.7.9c-3 3.8-7.6 6.1-12.6 6.1-4.9 0-9.5-2.3-12.5-6l-.7-.8-1 .3c-1.1.4-2.2.5-3.3.5-2 0-4-.6-5.7-1.7l-.8-.5-.8.5c-1.7 1.1-3.6 1.7-5.7 1.7-2.2 0-4.3-.7-6-1.9l-1.1-.7-.9.9c-1 1.1-2.5 1.7-4 1.7-3 0-5.5-2.5-5.5-5.5s2.5-5.5 5.5-5.5h1.4l.2-1.3c.8-5 5.2-8.7 10.4-8.7h1.5V99c0-5.8 4.7-10.5 10.5-10.5 4.6 0 8.6 3 9.9 7.4zm2.9-.9c-1.7-5.6-6.9-9.5-12.9-9.5-7.5 0-13.5 6-13.5 13.5l1.5-1.5c-6.6 0-12.2 4.8-13.3 11.3l1.5.2v-1.5h-.2c-4.7 0-8.5 3.8-8.5 8.5s3.8 8.5 8.5 8.5c2.4 0 4.6-1 6.2-2.7l-2 .2c2.3 1.6 5 2.5 7.8 2.5 2.6 0 5.2-.8 7.3-2.2h-1.6c2.2 1.4 4.7 2.2 7.3 2.2 1.5 0 2.9-.2 4.3-.7l-.5-1.4-1.2.9c3.6 4.5 9 7.2 14.9 7.2s11.4-2.7 15-7.3l-1.2-.9-.6 1.4c1.3.5 2.8.8 4.3.8 2.6 0 5-.8 7-2.4l-2-.1c1.6 1.6 3.7 2.5 6 2.5 4.7 0 8.5-3.8 8.5-8.5s-3.8-8.5-8.5-8.5c-.7 0-1.4.1-2.1.3l.4 1.5 1.4-.6c-1.8-4.3-5.9-7.2-10.6-7.2-.8 0-1.6.1-2.4.2l.3 1.5 1.3-.7c-3.3-6.1-9.7-10-16.7-10-2.7 0-5.2.5-7.6 1.6l1.9.9zm-65.4-29.5h128v85h-128v-85z"/></defs><clipPath id="at"><use xlink:href="#as" overflow="visible"/></clipPath><g clip-path="url(#at)"><defs><path id="au" d="M-455.3 95.5c-1.5-4.9-6.1-8.5-11.5-8.5-6.6 0-12 5.4-12 12-5.9 0-10.9 4.3-11.8 10h-.2c-3.9 0-7 3.1-7 7s3.1 7 7 7c2 0 3.8-.8 5.1-2.2 2 1.4 4.3 2.2 6.9 2.2 2.4 0 4.6-.7 6.5-1.9 1.9 1.2 4.1 1.9 6.5 1.9 1.3 0 2.6-.2 3.8-.6 3.2 4 8.2 6.6 13.7 6.6 5.6 0 10.6-2.6 13.8-6.7 1.1.5 2.4.7 3.7.7 2.3 0 4.4-.8 6.1-2 1.3 1.3 3 2 4.9 2 3.9 0 7-3.1 7-7s-3.1-7-7-7c-.6 0-1.2.1-1.7.2-1.5-3.6-5.1-6.2-9.3-6.2-.7 0-1.4.1-2.1.2-3-5.5-8.8-9.2-15.4-9.2-2.5 0-4.9.5-7 1.5z"/></defs></g><defs><path id="av" d="M-455.3 95.5c-1.5-4.9-6.1-8.5-11.5-8.5-6.6 0-12 5.4-12 12-5.9 0-10.9 4.3-11.8 10h-.2c-3.9 0-7 3.1-7 7s3.1 7 7 7c2 0 3.8-.8 5.1-2.2 2 1.4 4.3 2.2 6.9 2.2 2.4 0 4.6-.7 6.5-1.9 1.9 1.2 4.1 1.9 6.5 1.9 1.3 0 2.6-.2 3.8-.6 3.2 4 8.2 6.6 13.7 6.6 5.6 0 10.6-2.6 13.8-6.7 1.1.5 2.4.7 3.7.7 2.3 0 4.4-.8 6.1-2 1.3 1.3 3 2 4.9 2 3.9 0 7-3.1 7-7s-3.1-7-7-7c-.6 0-1.2.1-1.7.2-1.5-3.6-5.1-6.2-9.3-6.2-.7 0-1.4.1-2.1.2-3-5.5-8.8-9.2-15.4-9.2-2.5 0-4.9.5-7 1.5z"/></defs><defs><path id="aw" d="M-184.3 60.4l56 32.4s-1.5 14.3-8.3 24.7c-6.8 10.4-24.1 17.2-24.1 17.2l-53.4-38.5s13.7-4.3 21.6-13.8 8.2-22 8.2-22z"/></defs><defs><path id="ax" d="M-158.8 74.2l21.8-50.6 6.2 2.7-22.4 51z"/></defs><defs><path id="ay" d="M-193.7 100.6l1.2.9.9-1.2c-1.5-1-3.3-1.6-5.1-1.6-5 0-9 4-9 9 0 3.8 2.4 7.2 6 8.5l-1-1.4c0 4.9 4.1 8.9 9 8.9 1.4 0 2.8-.3 4.1-1l-.7-1.3-1.4.6c1.9 4 5.9 6.7 10.4 6.7 6.4 0 11.5-5.1 11.5-11.5 0-1.2-.2-2.5-.6-3.6l-1.4.5.8 1.3c2.6-1.6 4.2-4.5 4.2-7.6 0-5-4-9-9-9-1.2 0-2.3.2-3.4.7l.6 1.4 1.1-1c-2.2-2.6-5.4-4.1-8.8-4.1-3.8-.1-7.3 1.8-9.4 4.8zm2.4 1.7c1.6-2.3 4.2-3.7 7-3.7 2.5 0 4.9 1.1 6.5 3l.7.8 1-.4c.7-.3 1.5-.4 2.3-.4 3.3 0 6 2.7 6 6 0 2.1-1.1 4-2.8 5.1l-1 .6.4 1.1c.3.9.4 1.8.4 2.7 0 4.7-3.8 8.5-8.5 8.5-3.4 0-6.3-2-7.7-4.9l-.7-1.4-1.4.7c-.8.4-1.8.7-2.7.7-3.3 0-6-2.7-6-5.9v-1.1l-1-.3c-2.4-.8-4-3.1-4-5.7 0-3.3 2.7-6 6-6 1.2 0 2.4.4 3.4 1.1l1.2.9.9-1.4zm-34.5-26.6h81v73h-81v-73z"/></defs><clipPath id="az"><use xlink:href="#ay" overflow="visible"/></clipPath><g clip-path="url(#az)"><defs><path id="aA" d="M-192.5 101.5c1.8-2.6 4.8-4.3 8.2-4.3 3.1 0 5.8 1.4 7.7 3.6.9-.4 1.8-.6 2.8-.6 4.1 0 7.5 3.4 7.5 7.5 0 2.7-1.4 5-3.5 6.3.3 1 .5 2 .5 3.2 0 5.5-4.5 10-10 10-4 0-7.5-2.4-9.1-5.8-1 .5-2.2.8-3.4.8-4.1 0-7.5-3.3-7.5-7.4-2.9-1-5-3.8-5-7.1 0-4.1 3.4-7.5 7.5-7.5 1.6 0 3.1.5 4.3 1.3z"/></defs></g><defs><path id="aB" d="M-192.5 101.5c1.8-2.6 4.8-4.3 8.2-4.3 3.1 0 5.8 1.4 7.7 3.6.9-.4 1.8-.6 2.8-.6 4.1 0 7.5 3.4 7.5 7.5 0 2.7-1.4 5-3.5 6.3.3 1 .5 2 .5 3.2 0 5.5-4.5 10-10 10-4 0-7.5-2.4-9.1-5.8-1 .5-2.2.8-3.4.8-4.1 0-7.5-3.3-7.5-7.4-2.9-1-5-3.8-5-7.1 0-4.1 3.4-7.5 7.5-7.5 1.6 0 3.1.5 4.3 1.3z"/></defs><defs><path id="aC" d="M-136.3 16.8l10.2 4.4 2-4.4-10.3-4-1.9 4zm-8.5 2.7l22.8 9.7 7.1-15.4-23.3-8.4-6.6 14.1z"/></defs><defs><path id="aD" d="M136.1 4.4c30.3 0 55 7.1 55 14.8v22l1.7-1.5c-.1 0-.2 0-.4-.1-.4-.1-.8-.1-1.3-.2-1.4-.2-2.9-.4-4.6-.6-4.9-.7-10-1.3-15.2-2-3.9-.5-7.7-.9-11.3-1.3-9.9-1-18.1-1.6-23.9-1.6-5.2 0-14.3.8-26.1 2.3-2.5.3-5.1.6-7.7 1-5.4.7-10.9 1.5-16.1 2.3-1.8.3-3.5.5-5 .8-.5.1-1 .2-1.4.2-.2 0-.4.1-.5.1l1.7 1.5v-23c.1-7.6 24.8-14.7 55.1-14.7zm0-3c-32.1 0-58 7.5-58 17.8V44l1.7-.3c.1 0 .2 0 .5-.1.4-.1.8-.1 1.4-.2 1.5-.2 3.1-.5 5-.8 5.2-.8 10.7-1.6 16.1-2.3 2.6-.4 5.2-.7 7.7-1 11.7-1.5 20.7-2.3 25.7-2.3 5.6 0 13.7.6 23.6 1.6 3.6.4 7.4.8 11.2 1.3 5.2.6 10.3 1.3 15.2 2 1.7.2 3.2.4 4.6.6.5.1.9.1 1.2.2.2 0 .4.1.4.1l1.7.3V19.4c0-10.6-25.9-18-58-18zm-78-20h156v82.5h-156v-82.5z"/></defs><clipPath id="aE"><use xlink:href="#aD" overflow="visible"/></clipPath><g clip-path="url(#aE)"><defs><path id="aF" d="M136.1 2.9c-31.2 0-56.5 7.3-56.5 16.3v23s42.2-6.7 56.5-6.7c18 0 56.5 5.7 56.5 5.7v-22c0-9-25.3-16.3-56.5-16.3z"/></defs><clipPath id="aG"><use xlink:href="#aF" overflow="visible"/></clipPath><g clip-path="url(#aG)"><defs><path id="aH" d="M-779.4-79.9h1121v1030h-1121z"/></defs><clipPath id="aI"><use xlink:href="#aH" overflow="visible"/></clipPath><path clip-path="url(#aI)" fill-rule="evenodd" clip-rule="evenodd" fill="#FFF" d="M136.1 2.9c-31.2 0-56.5 7.3-56.5 16.3v23s42.2-6.7 56.5-6.7c18 0 56.5 5.7 56.5 5.7v-22c0-9-25.3-16.3-56.5-16.3z"/></g></g><defs><path id="aJ" d="M136.1 2.9c-31.2 0-56.5 7.3-56.5 16.3v23s42.2-6.7 56.5-6.7c18 0 56.5 5.7 56.5 5.7v-22c0-9-25.3-16.3-56.5-16.3z"/></defs><clipPath id="aK"><use xlink:href="#aJ" overflow="visible"/></clipPath><g clip-path="url(#aK)"><defs><path id="aL" d="M-779.4-79.9h1121v1030h-1121z"/></defs><clipPath id="aM"><use xlink:href="#aL" overflow="visible"/></clipPath><path clip-path="url(#aM)" fill="none" stroke="#0C1F2E" stroke-width="6" stroke-linecap="round" stroke-miterlimit="10" d="M136.1 2.9c-31.2 0-56.5 7.3-56.5 16.3v23s42.2-6.7 56.5-6.7c18 0 56.5 5.7 56.5 5.7v-22c0-9-25.3-16.3-56.5-16.3z"/></g><defs><path id="aN" d="M136.1 26.6c30.3 0 55 7.1 55 14.8s-24.7 14.8-55 14.8-55-7.1-55-14.8 24.7-14.8 55-14.8zm0-3c-32.1 0-58 7.5-58 17.8s25.9 17.8 58 17.8 58-7.5 58-17.8-25.9-17.8-58-17.8zm-78-20h156v75.6h-156V3.6z"/></defs><clipPath id="aO"><use xlink:href="#aN" overflow="visible"/></clipPath><g clip-path="url(#aO)"><defs><ellipse id="aP" cx="136.1" cy="41.5" rx="56.5" ry="16.3"/></defs><clipPath id="aQ"><use xlink:href="#aP" overflow="visible"/></clipPath><g clip-path="url(#aQ)"><defs><path id="aR" d="M-779.4-79.9h1121v1030h-1121z"/></defs><clipPath id="aS"><use xlink:href="#aR" overflow="visible"/></clipPath><ellipse clip-path="url(#aS)" fill-rule="evenodd" clip-rule="evenodd" fill="#FFF" cx="136.1" cy="41.5" rx="56.5" ry="16.3"/></g></g><defs><ellipse id="aT" cx="136.1" cy="41.5" rx="56.5" ry="16.3"/></defs><clipPath id="aU"><use xlink:href="#aT" overflow="visible"/></clipPath><g clip-path="url(#aU)"><defs><path id="aV" d="M-779.4-79.9h1121v1030h-1121z"/></defs><clipPath id="aW"><use xlink:href="#aV" overflow="visible"/></clipPath><ellipse clip-path="url(#aW)" fill="none" stroke="#0C1F2E" stroke-width="6" stroke-linecap="round" stroke-miterlimit="10" cx="136.1" cy="41.5" rx="56.5" ry="16.3"/></g><defs><path id="aX" d="M96.1 45.8c0-5.3 18-10.4 40-10.4s40 5.2 40 10.4v7.1l1.2-1.5c-.1 0-.1 0-.3.1-.3 0-.6.1-.9.2-1 .2-2.1.3-3.4.5-3.6.6-7.3 1.1-11.1 1.7-2.9.4-5.6.8-8.3 1.1-7.2.9-13.1 1.3-17.2 1.3-3.7 0-10.3-.5-18.9-1.4-1.8-.2-3.7-.4-5.6-.6-4-.5-8-.9-11.8-1.4-1.3-.2-2.6-.3-3.6-.5-.4 0-.7-.1-1-.1h-.3l1.3 1.5v-8zm-3 0v9.1l1.3.2h.4c.3 0 .6.1 1 .1 1.1.1 2.3.3 3.7.5a11776882415803102 11776882415803102 0 0 0 36.7 3.5c4.3 0 10.3-.5 17.6-1.4 2.7-.3 5.4-.7 8.3-1.1 3.8-.5 7.6-1.1 11.2-1.7 1.3-.2 2.4-.4 3.4-.5.4-.1.7-.1.9-.2.3 0 .3 0 .3-.1l1.2-.2v-8.4c0-7.9-19.2-13.4-43-13.4s-43 5.7-43 13.6zm-20-33.4h126v66.9h-126V12.4z"/></defs><clipPath id="aY"><use xlink:href="#aX" overflow="visible"/></clipPath><g clip-path="url(#aY)"><defs><path id="aZ" d="M94.6 45.8v7.8s31 4.1 41.5 4.1c13.2 0 41.5-4.8 41.5-4.8v-7.1c0-6.6-18.6-11.9-41.5-11.9s-41.5 5.3-41.5 11.9z"/></defs><clipPath id="ba"><use xlink:href="#aZ" overflow="visible"/></clipPath><g clip-path="url(#ba)"><defs><path id="bb" d="M-779.4-79.9h1121v1030h-1121z"/></defs><clipPath id="bc"><use xlink:href="#bb" overflow="visible"/></clipPath><path clip-path="url(#bc)" fill-rule="evenodd" clip-rule="evenodd" fill="#FFF" d="M94.6 45.8v7.8s31 4.1 41.5 4.1c13.2 0 41.5-4.8 41.5-4.8v-7.1c0-6.6-18.6-11.9-41.5-11.9s-41.5 5.3-41.5 11.9z"/></g></g><defs><path id="bd" d="M94.6 45.8v7.8s31 4.1 41.5 4.1c13.2 0 41.5-4.8 41.5-4.8v-7.1c0-6.6-18.6-11.9-41.5-11.9s-41.5 5.3-41.5 11.9z"/></defs><clipPath id="be"><use xlink:href="#bd" overflow="visible"/></clipPath><g clip-path="url(#be)"><defs><path id="bf" d="M-779.4-79.9h1121v1030h-1121z"/></defs><clipPath id="bg"><use xlink:href="#bf" overflow="visible"/></clipPath><path clip-path="url(#bg)" fill="none" stroke="#0C1F2E" stroke-width="6" stroke-linecap="round" stroke-miterlimit="10" d="M94.6 45.8v7.8s31 4.1 41.5 4.1c13.2 0 41.5-4.8 41.5-4.8v-7.1c0-6.6-18.6-11.9-41.5-11.9s-41.5 5.3-41.5 11.9z"/></g><defs><path id="bh" d="M136.1 43.7c22 0 40 5.2 40 10.4 0 5.3-18 10.4-40 10.4s-40-5.2-40-10.4 18-10.4 40-10.4zm0-3c-23.8 0-43 5.5-43 13.4s19.2 13.4 43 13.4 43-5.5 43-13.4-19.2-13.4-43-13.4zm-63-20h126v66.9h-126V20.7z"/></defs><clipPath id="bi"><use xlink:href="#bh" overflow="visible"/></clipPath><g clip-path="url(#bi)"><defs><ellipse id="bj" cx="136.1" cy="54.1" rx="41.5" ry="11.9"/></defs><clipPath id="bk"><use xlink:href="#bj" overflow="visible"/></clipPath><g clip-path="url(#bk)"><defs><path id="bl" d="M-779.4-79.9h1121v1030h-1121z"/></defs><clipPath id="bm"><use xlink:href="#bl" overflow="visible"/></clipPath><ellipse clip-path="url(#bm)" fill-rule="evenodd" clip-rule="evenodd" fill="#FFF" cx="136.1" cy="54.1" rx="41.5" ry="11.9"/></g></g><defs><ellipse id="bn" cx="136.1" cy="54.1" rx="41.5" ry="11.9"/></defs><clipPath id="bo"><use xlink:href="#bn" overflow="visible"/></clipPath><g clip-path="url(#bo)"><defs><path id="bp" d="M-779.4-79.9h1121v1030h-1121z"/></defs><clipPath id="bq"><use xlink:href="#bp" overflow="visible"/></clipPath><ellipse clip-path="url(#bq)" fill="none" stroke="#0C1F2E" stroke-width="6" stroke-linecap="round" stroke-miterlimit="10" cx="136.1" cy="54.1" rx="41.5" ry="11.9"/></g><defs><path id="br" d="M123.5 55.7c0 .4-.2.7-.4.8.1 0 .2-.1.4-.2.6-.2 1.6-.4 2.8-.6 2.6-.4 6-.6 9.8-.6s7.2.2 9.8.6c1.2.2 2.2.4 2.8.6l.4.2c-.2-.1-.4-.4-.4-.8s.2-.7.4-.8c-.1 0-.2.1-.4.2-.6.2-1.6.4-2.8.6-2.6.4-6 .6-9.8.6s-7.2-.2-9.8-.6c-1.2-.2-2.2-.4-2.8-.6l-.4-.2c.2.1.4.3.4.8zm-3 0c0 2.6 6.2 3.5 15.6 3.5s15.6-.9 15.6-3.5-6.2-3.5-15.6-3.5-15.6.8-15.6 3.5zm-20-23.6h71.2v47.1h-71.2V32.1z"/></defs><clipPath id="bs"><use xlink:href="#br" overflow="visible"/></clipPath><g clip-path="url(#bs)"><defs><ellipse id="bt" cx="136.1" cy="55.7" rx="14.1" ry="2"/></defs><clipPath id="bu"><use xlink:href="#bt" overflow="visible"/></clipPath><g clip-path="url(#bu)"><defs><path id="bv" d="M-779.4-79.9h1121v1030h-1121z"/></defs><clipPath id="bw"><use xlink:href="#bv" overflow="visible"/></clipPath><ellipse clip-path="url(#bw)" fill-rule="evenodd" clip-rule="evenodd" fill="#0C1F2E" cx="136.1" cy="55.7" rx="14.1" ry="2"/></g></g><defs><ellipse id="bx" cx="136.1" cy="55.7" rx="14.1" ry="2"/></defs><clipPath id="by"><use xlink:href="#bx" overflow="visible"/></clipPath><g clip-path="url(#by)"><defs><path id="bz" d="M-779.4-79.9h1121v1030h-1121z"/></defs><clipPath id="bA"><use xlink:href="#bz" overflow="visible"/></clipPath><ellipse clip-path="url(#bA)" fill="none" stroke="#0C1F2E" stroke-width="6" stroke-linecap="round" stroke-miterlimit="10" cx="136.1" cy="55.7" rx="14.1" ry="2"/></g><defs><path id="bB" d="M128.9 73s-10.5 3.3-9.1 12.3c.9 5.5 5.6 8.1 5.6 13.5s-4.6 9.5-4.6 9.5 13.5-.3 14.6-9.5c1.1-9.2-6.7-11.3-8.3-15.6-1.4-4.3 1.8-10.2 1.8-10.2z"/></defs><clipPath id="bC"><use xlink:href="#bB" overflow="visible"/></clipPath><g clip-path="url(#bC)"><defs><path id="bD" d="M-779.4-79.9h1121v1030h-1121z"/></defs><clipPath id="bE"><use xlink:href="#bD" overflow="visible"/></clipPath><path clip-path="url(#bE)" fill="#FFF" d="M114.7 68h25.9v45.4h-25.9z"/></g><path fill="none" stroke="#0C1F2E" stroke-width="3" stroke-linecap="round" stroke-miterlimit="10" d="M128.9 73s-10.5 3.3-9.1 12.3c.9 5.5 5.6 8.1 5.6 13.5s-4.6 9.5-4.6 9.5 13.5-.3 14.6-9.5-6.7-11.3-8.3-15.6c-1.4-4.3 1.8-10.2 1.8-10.2z"/><defs><path id="bF" d="M144 76.3s-15.1 4.8-13 17.6c1.2 7.9 8 11.6 8 19.4s-6.5 13.6-6.5 13.6 19.3-.5 20.9-13.6-9.6-16.1-11.8-22.3c-2.3-6.3 2.4-14.7 2.4-14.7z"/></defs><clipPath id="bG"><use xlink:href="#bF" overflow="visible"/></clipPath><g clip-path="url(#bG)"><defs><path id="bH" d="M-779.4-79.9h1121v1030h-1121z"/></defs><clipPath id="bI"><use xlink:href="#bH" overflow="visible"/></clipPath><path clip-path="url(#bI)" fill="#FFF" d="M125.8 71.3h32.8v60.6h-32.8z"/></g><path fill="none" stroke="#0C1F2E" stroke-width="3" stroke-linecap="round" stroke-miterlimit="10" d="M144 76.3s-15.1 4.8-13 17.6c1.2 7.9 8 11.6 8 19.4 0 7.7-6.5 13.6-6.5 13.6s19.3-.5 20.9-13.6c1.6-13.2-9.6-16.1-11.8-22.3-2.3-6.3 2.4-14.7 2.4-14.7z"/><defs><path id="bJ" d="M-507.5 186.5l-1.4.4.4 1.4 30.4 99.5.4 1.4 1.4-.4 60.2-18.4 1.4-.4-.4-1.4-30.4-99.5-.4-1.4-1.4.4-60.2 18.4zm.9 2.9l60.2-18.4-1.9-1 30.4 99.5 1-1.9-60.2 18.4 1.9 1-30.4-99.5-1 1.9zm-27.3-15.7l101.4-31 43 140.6-101.4 31-43-140.6z"/></defs><clipPath id="bK"><use xlink:href="#bJ" overflow="visible"/></clipPath><g clip-path="url(#bK)"><defs><path id="bL" transform="rotate(162.999 -461.709 228.496)" d="M-493.2 176.5h63v104h-63z"/></defs></g><defs><path id="bM" transform="rotate(162.999 -461.709 228.496)" d="M-493.2 176.5h63v104h-63z"/></defs><defs><path id="bN" d="M-472.2 163.5h-1.5v107h66v-107h-64.5zm0 3h63l-1.5-1.5v104l1.5-1.5h-63l1.5 1.5V165l-1.5 1.5zm-21.5-23h106v147h-106v-147z"/></defs><clipPath id="bO"><use xlink:href="#bN" overflow="visible"/></clipPath><g clip-path="url(#bO)"><defs><path id="bP" d="M-472.2 165h63v104h-63z"/></defs></g><defs><path id="bQ" d="M-472.2 165h63v104h-63z"/></defs><defs><path id="bR" d="M-463.2 193h44v13h-44z"/></defs><defs><path id="bS" d="M-463.2 203h44v13h-44z"/></defs><defs><path id="bT" d="M-463.2 213h44v13h-44z"/></defs><defs><path id="bU" d="M-463.2 223h44v14h-44z"/></defs><defs><path id="bV" d="M-463.2 234h44v14h-44z"/></defs><defs><path id="bW" d="M-463.2 245h44v14h-44z"/></defs><defs><path id="bX" d="M-462.2 175h3v13h-3z"/></defs><defs><path id="bY" d="M-457.2 175h3v13h-3z"/></defs><defs><path id="bZ" d="M-452.2 175h3v13h-3z"/></defs><defs><path id="ca" d="M-447.2 175h3v13h-3z"/></defs><defs><path id="cb" d="M-442.2 175h3v13h-3z"/></defs><defs><path id="cc" d="M-442.2 226h3v32h-3z"/></defs><defs><path id="cd" d="M-437.2 175h3v13h-3z"/></defs><defs><path id="ce" d="M-432.2 175h3v13h-3z"/></defs><defs><path id="cf" d="M-427.2 175h3v13h-3z"/></defs><defs><path id="cg" d="M-422.2 175h3v13h-3z"/></defs><defs><path id="ch" d="M-504.2 189.2l53.3 34.1-23.9 61.7"/></defs><defs><path id="ci" d="M-202.5 163.5h-1.5v107h66v-107h-64.5zm0 3h63l-1.5-1.5v104l1.5-1.5h-63l1.5 1.5V165l-1.5 1.5zm-21.5-23h106v147h-106v-147z"/></defs><clipPath id="cj"><use xlink:href="#ci" overflow="visible"/></clipPath><g clip-path="url(#cj)"><defs><path id="ck" d="M-202.5 165h63v104h-63z"/></defs></g><defs><path id="cl" d="M-202.5 165h63v104h-63z"/></defs><defs><path id="cm" d="M-193.5 193h44v13h-44z"/></defs><defs><path id="cn" d="M-193.5 203h44v13h-44z"/></defs><defs><path id="co" d="M-193.5 213h44v13h-44z"/></defs><defs><path id="cp" d="M-193.5 223h44v14h-44z"/></defs><defs><path id="cq" d="M-193.5 234h44v14h-44z"/></defs><defs><path id="cr" d="M-193.5 245h44v14h-44z"/></defs><defs><path id="cs" d="M-192.5 175h3v13h-3z"/></defs><defs><path id="ct" d="M-187.5 175h3v13h-3z"/></defs><defs><path id="cu" d="M-182.5 175h3v13h-3z"/></defs><defs><path id="cv" d="M-177.5 175h3v13h-3z"/></defs><defs><path id="cw" d="M-172.5 175h3v13h-3z"/></defs><defs><path id="cx" d="M-172.5 226h3v32h-3z"/></defs><defs><path id="cy" d="M-167.5 175h3v13h-3z"/></defs><defs><path id="cz" d="M-162.5 175h3v13h-3z"/></defs><defs><path id="cA" d="M-157.5 175h3v13h-3z"/></defs><defs><path id="cB" d="M-152.5 175h3v13h-3z"/></defs><defs><path id="cC" d="M-130.5 284.5c-16.3 0-29.5-13.2-29.5-29.5s13.2-29.5 29.5-29.5S-101 238.7-101 255s-13.2 29.5-29.5 29.5zm0 3c17.9 0 32.5-14.6 32.5-32.5s-14.6-32.5-32.5-32.5S-163 237.1-163 255s14.5 32.5 32.5 32.5zm-52.5-85h105v105h-105v-105z"/></defs><clipPath id="cD"><use xlink:href="#cC" overflow="visible"/></clipPath><g clip-path="url(#cD)"><defs><circle id="cE" cx="-130.5" cy="255" r="31"/></defs></g><defs><circle id="cF" cx="-130.5" cy="255" r="31"/></defs><defs><path id="cG" d="M-224.2 339.7h-1.5v90h134v-90h-132.5zm0 3h131l-1.5-1.5v87l1.5-1.5h-131l1.5 1.5v-87l-1.5 1.5zm-21.5-23h174v130h-174v-130z"/></defs><clipPath id="cH"><use xlink:href="#cG" overflow="visible"/></clipPath><g clip-path="url(#cH)"><defs><path id="cI" d="M-224.2 341.2h131v87h-131z"/></defs></g><defs><path id="cJ" d="M-224.2 341.2h131v87h-131z"/></defs><defs><path id="cK" d="M-219.2 344.7h-1.5v80h124v-80h-122.5zm0 3h121l-1.5-1.5v77l1.5-1.5h-121l1.5 1.5v-77l-1.5 1.5zm-21.5-23h164v120h-164v-120z"/></defs><clipPath id="cL"><use xlink:href="#cK" overflow="visible"/></clipPath><g clip-path="url(#cL)"><defs><path id="cM" d="M-219.2 346.2h121v77h-121z"/></defs></g><defs><path id="cN" d="M-219.2 346.2h121v77h-121z"/></defs><defs><path id="cO" d="M-154.2 359.7h-1.5v6h47v-6h-45.5zm0 3h44l-1.5-1.5v3l1.5-1.5h-44l1.5 1.5v-3l-1.5 1.5zm-21.5-23h87v46h-87v-46z"/></defs><clipPath id="cP"><use xlink:href="#cO" overflow="visible"/></clipPath><g clip-path="url(#cP)"><defs><path id="cQ" d="M-154.2 361.2h44v3h-44z"/></defs></g><defs><path id="cR" d="M-154.2 361.2h44v3h-44z"/></defs><defs><path id="cS" d="M-154.2 365.7h-1.5v6h47v-6h-45.5zm0 3h44l-1.5-1.5v3l1.5-1.5h-44l1.5 1.5v-3l-1.5 1.5zm-21.5-23h87v46h-87v-46z"/></defs><clipPath id="cT"><use xlink:href="#cS" overflow="visible"/></clipPath><g clip-path="url(#cT)"><defs><path id="cU" d="M-154.2 367.2h44v3h-44z"/></defs></g><defs><path id="cV" d="M-154.2 367.2h44v3h-44z"/></defs><defs><path id="cW" d="M-154.2 371.7h-1.5v6h47v-6h-45.5zm0 3h44l-1.5-1.5v3l1.5-1.5h-44l1.5 1.5v-3l-1.5 1.5zm-21.5-23h87v46h-87v-46z"/></defs><clipPath id="cX"><use xlink:href="#cW" overflow="visible"/></clipPath><g clip-path="url(#cX)"><defs><path id="cY" d="M-154.2 373.2h44v3h-44z"/></defs></g><defs><path id="cZ" d="M-154.2 373.2h44v3h-44z"/></defs><defs><path id="da" d="M-154.2 377.7h-1.5v6h47v-6h-45.5zm0 3h44l-1.5-1.5v3l1.5-1.5h-44l1.5 1.5v-3l-1.5 1.5zm-21.5-23h87v46h-87v-46z"/></defs><clipPath id="db"><use xlink:href="#da" overflow="visible"/></clipPath><g clip-path="url(#db)"><defs><path id="dc" d="M-154.2 379.2h44v3h-44z"/></defs></g><defs><path id="dd" d="M-154.2 379.2h44v3h-44z"/></defs><defs><path id="de" d="M-512 502.2h-1.2v71.5h131.7v-71.5H-512zm0 2.4h129.3l-1.2-1.2v69.1l1.2-1.2H-512l1.2 1.2v-69.1l-1.2 1.2zm-17.3-18.5h163.9v103.6h-163.9V486.1z"/></defs><clipPath id="df"><use xlink:href="#de" overflow="visible"/></clipPath><g clip-path="url(#df)"><defs><path id="dg" d="M-512 503.4h129.3v69.1H-512z"/></defs></g><defs><path id="dh" d="M-512 503.4h129.3v69.1H-512z"/></defs><defs><path id="di" d="M-505.6 508.6h-1.2v57.8h118.9v-57.8h-19.5l-.3.2-6.5 4.8.7-.2h-66.7l.8.3-5.9-4.8-.3-.3h-20zm0 2.4h19.4l-.8-.3 5.9 4.8.3.3h67.5l.3-.2 6.5-4.8-.7.2h17.9l-1.2-1.2v55.4l1.2-1.2h-116.5l1.2 1.2v-55.4l-1 1.2zm-17.3-18.5h151v90h-151v-90z"/></defs><clipPath id="dj"><use xlink:href="#di" overflow="visible"/></clipPath><g clip-path="url(#dj)"><defs><path id="dk" d="M-505.6 509.8h19.5l5.9 4.8h66.7l6.5-4.8h17.9v55.4h-116.5z"/></defs></g><defs><path id="dl" d="M-505.6 509.8h19.5l5.9 4.8h66.7l6.5-4.8h17.9v55.4h-116.5z"/></defs><defs><path id="dm" d="M-477.5 509h5.6v2.4h-5.6z"/></defs><defs><path id="dn" d="M-421.2 509h5.6v2.4h-5.6z"/></defs><defs><path id="do" d="M-750.6 274.5c-27.1 0-49-21.9-49-49s21.9-49 49-49 49 21.9 49 49-21.9 49-49 49zm0 3c28.7 0 52-23.3 52-52s-23.3-52-52-52-52 23.3-52 52 23.3 52 52 52zm-72-124h144v144h-144v-144z"/></defs><clipPath id="dp"><use xlink:href="#do" overflow="visible"/></clipPath><g clip-path="url(#dp)"><defs><circle id="dq" cx="-750.6" cy="225.5" r="50.5"/></defs></g><defs><circle id="dr" cx="-750.6" cy="225.5" r="50.5"/></defs><defs><circle id="ds" cx="-750.6" cy="225.5" r="43.5"/></defs><defs><path id="dt" d="M-757.1 201.5h-1.7l.2 1.6 3.1 32 .1 1.4h11.4l.1-1.4 2.3-32 .1-1.6h-15.6zm0 3h14l-1.5-1.6-2.3 32 1.5-1.4h-8.6l1.5 1.4-3.1-32-1.5 1.6zm-21.6-23h57.3v75h-57.3v-75z"/></defs><clipPath id="du"><use xlink:href="#dt" overflow="visible"/></clipPath><g clip-path="url(#du)"><defs><path id="dv" d="M-757.1 203h14l-2.3 32h-8.5z"/></defs></g><defs><path id="dw" d="M-757.1 203.3h14l-2.3 32h-8.5z"/></defs><defs><path id="dx" d="M-749.6 248.5c-2.2 0-4-1.8-4-4s1.8-4 4-4 4 1.8 4 4-1.8 4-4 4zm0 3c3.9 0 7-3.1 7-7s-3.1-7-7-7-7 3.1-7 7 3.2 7 7 7zm-27-34h54v54h-54v-54z"/></defs><clipPath id="dy"><use xlink:href="#dx" overflow="visible"/></clipPath><g clip-path="url(#dy)"><defs><circle id="dz" cx="-749.6" cy="244.5" r="5.5"/></defs></g><defs><circle id="dA" cx="-749.6" cy="244.8" r="5.5"/></defs><defs><path id="dB" d="M69.1 182h-1.5v90h134v-90H69.1zm0 3h131l-1.5-1.5v87l1.5-1.5h-131l1.5 1.5v-87l-1.5 1.5zm-21.5-23h174v130h-174V162z"/></defs><clipPath id="dC"><use xlink:href="#dB" overflow="visible"/></clipPath><g clip-path="url(#dC)"><defs><path id="dD" d="M69.1 183.5h131v87h-131z"/></defs></g><defs><path id="dE" d="M69.1 183.5h131v87h-131z"/></defs><defs><path id="dF" d="M173.1 191h-1.5v23h21v-23h-19.5zm0 3h18l-1.5-1.5v20l1.5-1.5h-18l1.5 1.5v-20l-1.5 1.5zm-21.5-23h61v63h-61v-63z"/></defs><clipPath id="dG"><use xlink:href="#dF" overflow="visible"/></clipPath><g clip-path="url(#dG)"><defs><path id="dH" d="M173.1 192.5h18v20h-18z"/></defs></g><g><defs><path id="dI" d="M173.1 192.5h18v20h-18z"/></defs></g><g><defs><path id="dJ" d="M178.1 196h-1.5v13h11v-13h-9.5zm0 3h8l-1.5-1.5v10l1.5-1.5h-8l1.5 1.5v-10l-1.5 1.5zm-21.5-23h51v53h-51v-53z"/></defs><clipPath id="dK"><use xlink:href="#dJ" overflow="visible"/></clipPath><g clip-path="url(#dK)"><defs><path id="dL" d="M178.1 197.5h8v10h-8z"/></defs></g></g><g><defs><path id="dM" d="M178.1 197.5h8v10h-8z"/></defs></g><g><defs><path id="dN" d="M-729.9 368.2l.2 3c8.3-.7 15.9-2.1 21.4-3.8 2.5-.7 4.4-1.5 5.5-2.2 1.8-1.1 2.5-3 .4-4.1-8.1-4.3-23.9-7.1-41.3-7.1-17.2 0-32.8 2.7-41 6.9-1.8.9-1.5 2.7 0 3.9.9.7 2.4 1.4 4.4 2.1 4.3 1.5 10.5 2.8 17.5 3.7l.3-3c-21.2-2.3-35.5-8.1-35.5-13.8 0-7.7 24.7-14.8 55-14.8s55 7.1 55 14.8c-.1 6.4-17.6 12.7-41.9 14.4zm.2 3c26-1.8 44.7-8.5 44.7-17.4 0-10.3-25.9-17.8-58-17.8s-58 7.5-58 17.8c0 8.1 15.4 14.4 38.2 16.8l.3-3c-6.9-.9-12.9-2.2-16.9-3.6-1.7-.6-3-1.2-3.6-1.6-.1-.1-.1-.1-.2-.1 0 .1.1.2.1.3.1.5-.2.8-.4.9 7.7-4 22.9-6.6 39.7-6.6 17 0 32.3 2.6 39.9 6.7-.1 0-.2-.1-.3-.3-.1-.3-.2-.6-.1-.9 0-.1.1-.2.1-.2-.1.1-.2.2-.4.3-.9.5-2.5 1.2-4.8 1.9-5.2 1.6-12.6 2.9-20.8 3.6l.5 3.2zm-91.4-55.2h156v75.2h-156V316z"/></defs><clipPath id="dO"><use xlink:href="#dN" overflow="visible"/></clipPath><g clip-path="url(#dO)"><defs><path id="dP" d="M-729.8 369.7c24.8-1.7 43.3-8.2 43.3-15.9 0-9-25.3-16.3-56.5-16.3s-56.5 7.3-56.5 16.3c0 7 15.3 13 36.9 15.3-14.9-1.9-24-5.5-21.4-6.9 7.8-4 22.9-6.8 40.4-6.8 17.6 0 32.9 2.8 40.6 6.9 2.6 1.5-9 5.8-26.8 7.4z"/></defs></g></g><g><defs><path id="dQ" d="M-729.8 369.7c24.8-1.7 43.3-8.2 43.3-15.9 0-9-25.3-16.3-56.5-16.3s-56.5 7.3-56.5 16.3c0 7 15.3 13 36.9 15.3-14.9-1.9-24-5.5-21.4-6.9 7.8-4 22.9-6.8 40.4-6.8 17.6 0 32.9 2.8 40.6 6.9 2.6 1.5-9 5.8-26.8 7.4z"/></defs></g><g><defs><path id="dR" d="M-743.1 390c-30.3 0-55-7.1-55-14.8v-22l-2.8.8c.3.6 1.1 1.4 2.4 2.4 2 1.6 4.9 3.2 8.6 4.7 10.5 4.1 26.3 6.6 48.5 6.6 19.8 0 34.5-2.6 44.8-7.1 3.7-1.6 6.5-3.3 8.6-5 1.3-1.1 2.1-1.9 2.5-2.5l-2.7-.9v23c.1 7.7-24.6 14.8-54.9 14.8zm0 3c32.1 0 58-7.5 58-17.8v-27.7l-2.7 3.8c0 .1-.2.2-.4.4-.4.4-.9.9-1.6 1.4-1.9 1.5-4.5 3.1-8 4.6-9.9 4.3-24.2 6.8-43.6 6.8-21.8 0-37.3-2.4-47.4-6.4-3.5-1.4-6.1-2.8-7.9-4.2-1-.8-1.5-1.4-1.7-1.6l-2.8-4.5v27.3c.1 10.4 26 17.9 58.1 17.9zm-78-65.5h156V413h-156v-85.5z"/></defs><clipPath id="dS"><use xlink:href="#dR" overflow="visible"/></clipPath><g clip-path="url(#dS)"><defs><path id="dT" d="M-743.1 391.5c31.2 0 56.5-7.3 56.5-16.3v-23s-9.9 13.9-54.8 13.9c-50.2 0-58.2-13-58.2-13v22c0 9.1 25.3 16.4 56.5 16.4z"/></defs></g></g><g><defs><path id="dU" d="M-743.1 391.5c31.2 0 56.5-7.3 56.5-16.3v-23s-9.9 13.9-54.8 13.9c-50.2 0-58.2-13-58.2-13v22c0 9.1 25.3 16.4 56.5 16.4z"/></defs></g><g><defs><path id="dV" d="M-738.5 426c-8.5 0-15.5-6.9-15.5-15.4s6.9-15.4 15.5-15.4c8.5 0 15.4 6.9 15.4 15.4S-730 426-738.5 426zm0 3c10.2 0 18.4-8.2 18.4-18.4s-8.3-18.4-18.4-18.4-18.5 8.2-18.5 18.4 8.3 18.4 18.5 18.4zm-38.5-56.8h76.9V449H-777v-76.8z"/></defs><clipPath id="dW"><use xlink:href="#dV" overflow="visible"/></clipPath><g clip-path="url(#dW)"><defs><ellipse id="dX" cx="-738.5" cy="410.6" rx="17" ry="16.9"/></defs></g></g><g><defs><ellipse id="dY" cx="-738.5" cy="410.6" rx="17" ry="16.9"/></defs></g><g><defs><path id="dZ" d="M391.5 10.4h93v117h-93z"/></defs></g><g><defs><path id="ea" d="M391.5 10.4h93v117h-93z"/></defs></g><g><defs><path id="eb" d="M398.5 15.9H397v23h82v-23h-80.5zm0 3h79l-1.5-1.5v20l1.5-1.5h-79l1.5 1.5v-20l-1.5 1.5z"/></defs><clipPath id="ec"><use xlink:href="#eb" overflow="visible"/></clipPath><g clip-path="url(#ec)"><defs><path id="ed" d="M398.5 17.4h79v20h-79z"/></defs></g></g><g><defs><path id="ee" d="M398.5 17.4h79v20h-79z"/></defs></g><g><defs><path id="ef" d="M398.5 39.9H397v81h82v-81h-80.5zm0 3h79l-1.5-1.5v78l1.5-1.5h-79l1.5 1.5v-78l-1.5 1.5zm-21.5-23h122v121H377v-121z"/></defs><clipPath id="eg"><use xlink:href="#ef" overflow="visible"/></clipPath><g clip-path="url(#eg)"><defs><path id="eh" d="M398.5 41.4h79v78h-79z"/></defs></g></g><g><defs><path id="ei" d="M398.5 41.4h79v78h-79z"/></defs></g><g><defs><path id="ej" d="M391.5 166H390v120h96V166h-94.5zm0 3h93l-1.5-1.5v117l1.5-1.5h-93l1.5 1.5v-117l-1.5 1.5zM370 146h136v160H370V146z"/></defs><clipPath id="ek"><use xlink:href="#ej" overflow="visible"/></clipPath><g clip-path="url(#ek)"><defs><path id="el" d="M391.5 167.5h93v117h-93z"/></defs></g></g><g><defs><path id="em" d="M391.5 167.5h93v117h-93z"/></defs></g><g><defs><path id="en" d="M398.5 173H397v23h82v-23h-80.5zm0 3h79l-1.5-1.5v20l1.5-1.5h-79l1.5 1.5v-20l-1.5 1.5zM377 153h122v63H377v-63z"/></defs><clipPath id="eo"><use xlink:href="#en" overflow="visible"/></clipPath><g clip-path="url(#eo)"><defs><path id="ep" d="M398.5 174.5h79v20h-79z"/></defs></g></g><g><defs><path id="eq" d="M398.5 174.5h79v20h-79z"/></defs></g><g><defs><path id="er" d="M398.5 197H397v81h82v-81h-80.5zm0 3h79l-1.5-1.5v78l1.5-1.5h-79l1.5 1.5v-78l-1.5 1.5zM377 177h122v121H377V177z"/></defs><clipPath id="es"><use xlink:href="#er" overflow="visible"/></clipPath><g clip-path="url(#es)"><defs><path id="et" d="M398.5 198.5h79v78h-79z"/></defs></g></g><g><defs><path id="eu" d="M398.5 198.5h79v78h-79z"/></defs></g><g><defs><path id="ev" d="M143.1 746.9c-27.1 0-49-21.9-49-49s21.9-49 49-49 49 21.9 49 49-21.9 49-49 49zm0 3c28.7 0 52-23.3 52-52s-23.3-52-52-52-52 23.3-52 52 23.3 52 52 52zm-72-124h144v144h-144v-144z"/></defs><clipPath id="ew"><use xlink:href="#ev" overflow="visible"/></clipPath><g clip-path="url(#ew)"><defs><circle id="ex" cx="143.1" cy="697.9" r="50.5"/></defs></g></g><g><defs><circle id="ey" cx="143.1" cy="697.9" r="50.5"/></defs></g><g><defs><circle id="ez" cx="143.1" cy="697.9" r="43.5"/></defs></g><g><defs><path id="eA" d="M-454 899.3c-27.1 0-49-21.9-49-49s21.9-49 49-49 49 21.9 49 49c0 27-21.9 49-49 49zm0 3c28.7 0 52-23.3 52-52s-23.3-52-52-52-52 23.3-52 52 23.3 52 52 52zm-72-124h144v144h-144v-144z"/></defs><clipPath id="eB"><use xlink:href="#eA" overflow="visible"/></clipPath><g clip-path="url(#eB)"><defs><circle id="eC" cx="-454" cy="850.3" r="50.5"/></defs></g></g><g><defs><circle id="eD" cx="-454" cy="850.3" r="50.5"/></defs></g><g><defs><circle id="eE" cx="-454" cy="850.3" r="43.5"/></defs></g></svg>