<svg xmlns="http://www.w3.org/2000/svg" xmlns:xlink="http://www.w3.org/1999/xlink" viewBox="0 0 276 137"><defs><path id="a" d="M-750 121.5c-29.3 0-53-23.7-53-53s23.7-53 53-53 53 23.7 53 53-23.7 53-53 53zm0 3c30.9 0 56-25.1 56-56s-25.1-56-56-56-56 25.1-56 56 25.1 56 56 56z"/></defs><clipPath id="b"><use xlink:href="#a" overflow="visible"/></clipPath><g clip-path="url(#b)"><defs><circle id="c" cx="-750" cy="68.5" r="54.5"/></defs><clipPath id="d"><use xlink:href="#c" overflow="visible"/></clipPath><g clip-path="url(#d)"><defs><path id="e" d="M-928.5-68h1121V962h-1121z"/></defs></g></g><defs><circle id="f" cx="-750" cy="68.5" r="54.5"/></defs><clipPath id="g"><use xlink:href="#f" overflow="visible"/></clipPath><g clip-path="url(#g)"><defs><path id="h" d="M-928.5-68h1121V962h-1121z"/></defs></g><defs><path id="i" d="M-750 100.5c-17.7 0-32-14.3-32-32s14.3-32 32-32 32 14.3 32 32-14.3 32-32 32zm0 3c19.3 0 35-15.7 35-35s-15.7-35-35-35-35 15.7-35 35 15.7 35 35 35zm-55-90h110v110h-110v-110z"/></defs><clipPath id="j"><use xlink:href="#i" overflow="visible"/></clipPath><g clip-path="url(#j)"><defs><circle id="k" cx="-750" cy="68.5" r="33.5"/></defs><clipPath id="l"><use xlink:href="#k" overflow="visible"/></clipPath><g clip-path="url(#l)"><defs><path id="m" d="M-928.5-68h1121V962h-1121z"/></defs></g></g><defs><circle id="n" cx="-750" cy="68.5" r="33.5"/></defs><clipPath id="o"><use xlink:href="#n" overflow="visible"/></clipPath><g clip-path="url(#o)"><defs><path id="p" d="M-928.5-68h1121V962h-1121z"/></defs></g><defs><path id="q" d="M-751.5 14.5h-1.5v13h6v-13h-4.5zm0 3h3L-750 16v10l1.5-1.5h-3l1.5 1.5V16l-1.5 1.5z"/></defs><clipPath id="r"><use xlink:href="#q" overflow="visible"/></clipPath><g clip-path="url(#r)"><defs><path id="s" d="M-751.5 16h3v10h-3z"/></defs><clipPath id="t"><use xlink:href="#s" overflow="visible"/></clipPath><g clip-path="url(#t)"><defs><path id="u" d="M-928.5-68h1121V962h-1121z"/></defs></g></g><defs><path id="v" d="M-751.5 16h3v10h-3z"/></defs><clipPath id="w"><use xlink:href="#v" overflow="visible"/></clipPath><g clip-path="url(#w)"><defs><path id="x" d="M-928.5-68h1121V962h-1121z"/></defs></g><defs><path id="y" d="M-805.5 70.5V72h13v-6h-13v4.5zm3 0v-3L-804 69h10l-1.5-1.5v3l1.5-1.5h-10l1.5 1.5z"/></defs><clipPath id="z"><use xlink:href="#y" overflow="visible"/></clipPath><g clip-path="url(#z)"><defs><path id="A" d="M-804 67.5h10v3h-10z"/></defs><clipPath id="B"><use xlink:href="#A" overflow="visible"/></clipPath><g clip-path="url(#B)"><defs><path id="C" d="M-928.5-68h1121V962h-1121z"/></defs></g></g><defs><path id="D" d="M-804 67.5h10v3h-10z"/></defs><clipPath id="E"><use xlink:href="#D" overflow="visible"/></clipPath><g clip-path="url(#E)"><defs><path id="F" d="M-928.5-68h1121V962h-1121z"/></defs></g><defs><path id="G" d="M-708.5 70.5V72h13v-6h-13v4.5zm3 0v-3L-707 69h10l-1.5-1.5v3l1.5-1.5h-10l1.5 1.5z"/></defs><clipPath id="H"><use xlink:href="#G" overflow="visible"/></clipPath><g clip-path="url(#H)"><defs><path id="I" d="M-707 67.5h10v3h-10z"/></defs><clipPath id="J"><use xlink:href="#I" overflow="visible"/></clipPath><g clip-path="url(#J)"><defs><path id="K" d="M-928.5-68h1121V962h-1121z"/></defs></g></g><defs><path id="L" d="M-707 67.5h10v3h-10z"/></defs><clipPath id="M"><use xlink:href="#L" overflow="visible"/></clipPath><g clip-path="url(#M)"><defs><path id="N" d="M-928.5-68h1121V962h-1121z"/></defs></g><defs><path id="O" d="M-719.5 40.7l1.1 1.1 1.1-1.1 7.1-7.1 1.1-1.1-1.1-1.1-2.1-2.1-1.1-1.1-1.1 1.1-7.1 7.1-1.1 1.1 1.1 1.1 2.1 2.1zm2.1-2.2l-2.1-2.1v2.1l7.1-7.1h-2.1l2.1 2.1v-2.1l-7.1 7.1h2.1z"/></defs><clipPath id="P"><use xlink:href="#O" overflow="visible"/></clipPath><g clip-path="url(#P)"><defs><path id="Q" transform="rotate(45.001 -716.003 35.008)" d="M-717.5 30h3v10h-3z"/></defs><clipPath id="R"><use xlink:href="#Q" overflow="visible"/></clipPath><g clip-path="url(#R)"><defs><path id="S" d="M-928.5-68h1121V962h-1121z"/></defs></g></g><defs><path id="T" transform="rotate(45.001 -716.003 35.008)" d="M-717.5 30h3v10h-3z"/></defs><clipPath id="U"><use xlink:href="#T" overflow="visible"/></clipPath><g clip-path="url(#U)"><defs><path id="V" d="M-928.5-68h1121V962h-1121z"/></defs></g><defs><path id="W" d="M-779.3 39.5l1.1-1.1-1.1-1.1-7.1-7.1-1.1-1.1-1.1 1.1-2.1 2.1-1.1 1.1 1.1 1.1 7.1 7.1 1.1 1.1 1.1-1.1 2.1-2.1zm-2.2-2.1l-2.1 2.1h2.1l-7.1-7.1v2.1l2.1-2.1h-2.1l7.1 7.1v-2.1z"/></defs><clipPath id="X"><use xlink:href="#W" overflow="visible"/></clipPath><g clip-path="url(#X)"><defs><path id="Y" transform="rotate(-45.001 -785.005 35.991)" d="M-786.5 31h3v10h-3z"/></defs><clipPath id="Z"><use xlink:href="#Y" overflow="visible"/></clipPath><g clip-path="url(#Z)"><defs><path id="aa" d="M-928.5-68h1121V962h-1121z"/></defs></g></g><defs><path id="ab" transform="rotate(-45.001 -785.005 35.991)" d="M-786.5 31h3v10h-3z"/></defs><clipPath id="ac"><use xlink:href="#ab" overflow="visible"/></clipPath><g clip-path="url(#ac)"><defs><path id="ad" d="M-928.5-68h1121V962h-1121z"/></defs></g><defs><path id="ae" d="M-719.5 96.3l1.1-1.1 1.1 1.1 7.1 7.1 1.1 1.1-1.1 1.1-2.1 2.1-1.1 1.1-1.1-1.1-7.1-7.1-1.1-1.1 1.1-1.1 2.1-2.1zm2.1 2.2l-2.1 2.1v-2.1l7.1 7.1h-2.1l2.1-2.1v2.1l-7.1-7.1h2.1z"/></defs><clipPath id="af"><use xlink:href="#ae" overflow="visible"/></clipPath><g clip-path="url(#af)"><defs><path id="ag" transform="rotate(-45.001 -716.004 101.992)" d="M-717.5 97h3v10h-3z"/></defs><clipPath id="ah"><use xlink:href="#ag" overflow="visible"/></clipPath><g clip-path="url(#ah)"><defs><path id="ai" d="M-928.5-68h1121V962h-1121z"/></defs></g></g><defs><path id="aj" transform="rotate(-45.001 -716.004 101.992)" d="M-717.5 97h3v10h-3z"/></defs><clipPath id="ak"><use xlink:href="#aj" overflow="visible"/></clipPath><g clip-path="url(#ak)"><defs><path id="al" d="M-928.5-68h1121V962h-1121z"/></defs></g><defs><path id="am" d="M-779.3 99.5l1.1 1.1-1.1 1.1-7.1 7.1-1.1 1.1-1.1-1.1-2.1-2.1-1.1-1.1 1.1-1.1 7.1-7.1 1.1-1.1 1.1 1.1 2.1 2.1zm-2.2 2.1l-2.1-2.1h2.1l-7.1 7.1v-2.1l2.1 2.1h-2.1l7.1-7.1v2.1z"/></defs><clipPath id="an"><use xlink:href="#am" overflow="visible"/></clipPath><g clip-path="url(#an)"><defs><path id="ao" transform="rotate(45.001 -785.003 103.01)" d="M-786.5 98h3v10h-3z"/></defs><clipPath id="ap"><use xlink:href="#ao" overflow="visible"/></clipPath><g clip-path="url(#ap)"><defs><path id="aq" d="M-928.5-68h1121V962h-1121z"/></defs></g></g><defs><path id="ar" transform="rotate(45.001 -785.003 103.01)" d="M-786.5 98h3v10h-3z"/></defs><clipPath id="as"><use xlink:href="#ar" overflow="visible"/></clipPath><g clip-path="url(#as)"><defs><path id="at" d="M-928.5-68h1121V962h-1121z"/></defs></g><defs><path id="au" d="M-740.4 47.9c.7.3 1.5.6 2.2 1 1.3.7 2.5 1.6 3.6 2.4.4.3.7.6 1 .9.2.2.3.3.4.3l1.6 1.6-.3-2.2-2.1-14.7-.2-1.2-1 .6-12.3 8-1.8 1.2 2.1.2c.1 0 .3 0 .5.1.4.1.9.2 1.5.3 1.4.3 3.1.8 4.8 1.5zm7.5 4c-.1-.1-.4-.3-.7-.6l.1.9.6-.3zm0-1l.1.9.6-.3-.4-.4c-.1 0-.2-.1-.3-.2zm-1.9-13.1v.3l.3-.2-.3-.1zm-.8 0l.3-.2-.3-.2v.4zm-11.4 7.4l.7-.5h-.3c-.3 0-.5-.1-.6-.1l.2.6zm.9.3c-.4-.1-.7-.1-.9-.1l.1.6.8-.5z"/></defs><clipPath id="av"><use xlink:href="#au" overflow="visible"/></clipPath><g clip-path="url(#av)"><defs><path id="aw" d="M-928.5-68h1121V962h-1121z"/></defs></g><defs><path id="ax" d="M-740.2 47.2c-3.9-1.6-7.1-1.9-7.1-1.9l12.3-8 2.1 14.7c.2.1-3.1-3.1-7.3-4.8zm-25-11.1l37.2-15.8 15.8 37.2-37.2 15.8-15.8-37.2z"/></defs><clipPath id="ay"><use xlink:href="#ax" overflow="visible"/></clipPath><g clip-path="url(#ay)"><defs><path id="az" d="M-928.5-68h1121V962h-1121z"/></defs></g><defs><path id="aA" d="M-750 92.5c-13.3 0-24-10.7-24-24s10.7-24 24-24 24 10.7 24 24-10.7 24-24 24zm0 3c14.9 0 27-12.1 27-27s-12.1-27-27-27-27 12.1-27 27 12.1 27 27 27zm-47-74h94v94h-94v-94z"/></defs><clipPath id="aB"><use xlink:href="#aA" overflow="visible"/></clipPath><g clip-path="url(#aB)"><defs><circle id="aC" cx="-750" cy="68.5" r="25.5"/></defs><clipPath id="aD"><use xlink:href="#aC" overflow="visible"/></clipPath><g clip-path="url(#aD)"><defs><path id="aE" d="M-928.5-68h1121V962h-1121z"/></defs></g></g><defs><circle id="aF" cx="-750" cy="68.5" r="25.5"/></defs><clipPath id="aG"><use xlink:href="#aF" overflow="visible"/></clipPath><g clip-path="url(#aG)"><defs><path id="aH" d="M-928.5-68h1121V962h-1121z"/></defs></g><defs><path id="aI" d="M-459.8 7.5h-1.5v18h19v-18h-17.5zm0 3h16l-1.5-1.5v15l1.5-1.5h-16l1.5 1.5V9l-1.5 1.5z"/></defs><clipPath id="aJ"><use xlink:href="#aI" overflow="visible"/></clipPath><g clip-path="url(#aJ)"><defs><path id="aK" d="M-459.8 9h16v15h-16z"/></defs><clipPath id="aL"><use xlink:href="#aK" overflow="visible"/></clipPath><g clip-path="url(#aL)"><defs><path id="aM" d="M-880.8-67.5h1121v1030h-1121z"/></defs></g></g><defs><path id="aN" d="M-459.8 9h16v15h-16z"/></defs><clipPath id="aO"><use xlink:href="#aN" overflow="visible"/></clipPath><g clip-path="url(#aO)"><defs><path id="aP" d="M-880.8-67.5h1121v1030h-1121z"/></defs></g><defs><path id="aQ" d="M-483.8 19.5h-1.5v43h67v-43h-65.5zm0 3h64l-1.5-1.5v40l1.5-1.5h-64l1.5 1.5V21l-1.5 1.5z"/></defs><clipPath id="aR"><use xlink:href="#aQ" overflow="visible"/></clipPath><g clip-path="url(#aR)"><defs><path id="aS" d="M-483.8 21h64v40h-64z"/></defs><clipPath id="aT"><use xlink:href="#aS" overflow="visible"/></clipPath><g clip-path="url(#aT)"><defs><path id="aU" d="M-880.8-67.5h1121v1030h-1121z"/></defs></g></g><defs><path id="aV" d="M-483.8 21h64v40h-64z"/></defs><clipPath id="aW"><use xlink:href="#aV" overflow="visible"/></clipPath><g clip-path="url(#aW)"><defs><path id="aX" d="M-880.8-67.5h1121v1030h-1121z"/></defs></g><defs><path id="aY" d="M-448.8 29.5h-1.5v33h22v-33h-20.5zm0 3h19l-1.5-1.5v30l1.5-1.5h-19l1.5 1.5V31l-1.5 1.5z"/></defs><clipPath id="aZ"><use xlink:href="#aY" overflow="visible"/></clipPath><g clip-path="url(#aZ)"><defs><path id="ba" d="M-448.8 31h19v30h-19z"/></defs><clipPath id="bb"><use xlink:href="#ba" overflow="visible"/></clipPath><g clip-path="url(#bb)"><defs><path id="bc" d="M-880.8-67.5h1121v1030h-1121z"/></defs></g></g><defs><path id="bd" d="M-448.8 31h19v30h-19z"/></defs><clipPath id="be"><use xlink:href="#bd" overflow="visible"/></clipPath><g clip-path="url(#be)"><defs><path id="bf" d="M-880.8-67.5h1121v1030h-1121z"/></defs></g><defs><path id="bg" d="M-473.8 29.5h-1.5v33h22v-33h-20.5zm0 3h19l-1.5-1.5v30l1.5-1.5h-19l1.5 1.5V31l-1.5 1.5z"/></defs><clipPath id="bh"><use xlink:href="#bg" overflow="visible"/></clipPath><g clip-path="url(#bh)"><defs><path id="bi" d="M-473.8 31h19v30h-19z"/></defs><clipPath id="bj"><use xlink:href="#bi" overflow="visible"/></clipPath><g clip-path="url(#bj)"><defs><path id="bk" d="M-880.8-67.5h1121v1030h-1121z"/></defs></g></g><defs><path id="bl" d="M-473.8 31h19v30h-19z"/></defs><clipPath id="bm"><use xlink:href="#bl" overflow="visible"/></clipPath><g clip-path="url(#bm)"><defs><path id="bn" d="M-880.8-67.5h1121v1030h-1121z"/></defs></g><defs><path id="bo" d="M-504.3 87.7c0 2.9-.8 7-2.3 11.9-.6 2.1-1.3 4.3-2.1 6.5-1 2.7-2 5.4-3.1 8-.4.9-.7 1.7-1 2.4-.2.4-.3.7-.4.9l-.9 2.1H-394.7l-.7-2c-.1-.2-.2-.4-.3-.9-.2-.7-.5-1.5-.8-2.4-.8-2.5-1.6-5.2-2.4-7.9-.7-2.4-1.3-4.8-1.8-7-1.1-4.8-1.7-8.8-1.7-11.8 0-2.8.7-7 1.9-12 .5-1.9 1-3.9 1.6-6 .8-2.7 1.6-5.4 2.4-7.9.3-.9.5-1.7.8-2.4.1-.4.2-.7.3-.9l.7-2H-514.1l1 2.1c.1.1.2.4.4.9.3.7.6 1.5 1 2.4 1 2.5 2.1 5.1 3.1 7.8.8 2.2 1.5 4.4 2.1 6.4 1.4 5 2.2 9 2.2 11.8zm3 0c0-3.2-.9-7.5-2.4-12.5-.6-2.1-1.4-4.3-2.2-6.5-1-2.7-2.1-5.4-3.1-8-.4-.9-.7-1.7-1-2.4-.2-.4-.3-.7-.4-.9l-1.4 2.1h115l-1.4-2c-.1.2-.2.5-.3.9-.2.7-.5 1.5-.8 2.4-.8 2.6-1.7 5.3-2.4 8-.6 2.1-1.1 4.1-1.6 6.1-1.3 5.2-2 9.5-2 12.7 0 3.2.6 7.4 1.7 12.4.5 2.3 1.1 4.7 1.8 7.1.8 2.8 1.6 5.5 2.4 8.1.3.9.6 1.7.8 2.4.1.4.2.7.3.9l1.4-2h-115l1.4 2.1c.1-.2.2-.5.4-.9.3-.7.7-1.5 1-2.4 1.1-2.6 2.1-5.3 3.1-8.1.8-2.3 1.6-4.5 2.2-6.7 1.7-5.2 2.5-9.5 2.5-12.8z"/></defs><clipPath id="bp"><use xlink:href="#bo" overflow="visible"/></clipPath><g clip-path="url(#bp)"><defs><path id="bq" d="M-502.8 87.7c0-9.9-9-29.7-9-29.7h115s-7 20-7 29.6c0 10.5 7 30.4 7 30.4h-115s9-20.2 9-30.3z"/></defs><clipPath id="br"><use xlink:href="#bq" overflow="visible"/></clipPath><g clip-path="url(#br)"><defs><path id="bs" d="M-880.8-67.5h1121v1030h-1121z"/></defs></g></g><defs><path id="bt" d="M-502.8 87.7c0-9.9-9-29.7-9-29.7h115s-7 20-7 29.6c0 10.5 7 30.4 7 30.4h-115s9-20.2 9-30.3z"/></defs><clipPath id="bu"><use xlink:href="#bt" overflow="visible"/></clipPath><g clip-path="url(#bu)"><defs><path id="bv" d="M-880.8-67.5h1121v1030h-1121z"/></defs></g><defs><path id="bw" d="M-488.8 88.5h-1.5v6h72v-6h-70.5zm0 3h69l-1.5-1.5v3l1.5-1.5h-69l1.5 1.5v-3l-1.5 1.5zm-21.5-23h112v46h-112v-46z"/></defs><clipPath id="bx"><use xlink:href="#bw" overflow="visible"/></clipPath><g clip-path="url(#bx)"><defs><path id="by" d="M-488.8 90h69v3h-69z"/></defs><clipPath id="bz"><use xlink:href="#by" overflow="visible"/></clipPath><g clip-path="url(#bz)"><defs><path id="bA" d="M-880.8-67.5h1121v1030h-1121z"/></defs></g></g><defs><path id="bB" d="M-488.8 90h69v3h-69z"/></defs><clipPath id="bC"><use xlink:href="#bB" overflow="visible"/></clipPath><g clip-path="url(#bC)"><defs><path id="bD" d="M-880.8-67.5h1121v1030h-1121z"/></defs></g><defs><path id="bE" d="M-488.8 80.5h-1.5v6h72v-6h-70.5zm0 3h69l-1.5-1.5v3l1.5-1.5h-69l1.5 1.5v-3l-1.5 1.5zm-21.5-23h112v46h-112v-46z"/></defs><clipPath id="bF"><use xlink:href="#bE" overflow="visible"/></clipPath><g clip-path="url(#bF)"><defs><path id="bG" d="M-488.8 82h69v3h-69z"/></defs><clipPath id="bH"><use xlink:href="#bG" overflow="visible"/></clipPath><g clip-path="url(#bH)"><defs><path id="bI" d="M-880.8-67.5h1121v1030h-1121z"/></defs></g></g><defs><path id="bJ" d="M-488.8 82h69v3h-69z"/></defs><clipPath id="bK"><use xlink:href="#bJ" overflow="visible"/></clipPath><g clip-path="url(#bK)"><defs><path id="bL" d="M-880.8-67.5h1121v1030h-1121z"/></defs></g><defs><path id="bM" d="M-456.8 95.9l.5 1.6 1.5-.7c2-.9 4.2-1.3 6.4-1.3 6 0 11.3 3.3 14.1 8.4l.5 1 1.1-.2c.6-.1 1.2-.2 1.8-.2 3.5 0 6.6 2.1 7.9 5.3l.5 1.2 1.3-.3c.4-.1.9-.2 1.4-.2 3 0 5.5 2.5 5.5 5.5s-2.5 5.5-5.5 5.5c-1.5 0-2.9-.6-3.9-1.6l-.9-.9-1 .8c-1.5 1.1-3.3 1.7-5.1 1.7-1.1 0-2.2-.2-3.2-.6l-1-.4-.7.9c-3 3.8-7.6 6.1-12.6 6.1-4.9 0-9.5-2.3-12.5-6l-.7-.8-1 .3c-1.1.4-2.2.5-3.3.5-2 0-4-.6-5.7-1.7l-.8-.5-.8.5c-1.7 1.1-3.6 1.7-5.7 1.7-2.2 0-4.3-.7-6-1.9l-1.1-.7-.9.9c-1 1.1-2.5 1.7-4 1.7-3 0-5.5-2.5-5.5-5.5s2.5-5.5 5.5-5.5H-489.3l.2-1.3c.8-5 5.2-8.7 10.4-8.7h1.5V99c0-5.8 4.7-10.5 10.5-10.5 4.6 0 8.6 3 9.9 7.4zm2.9-.9c-1.7-5.6-6.9-9.5-12.9-9.5-7.5 0-13.5 6-13.5 13.5l1.5-1.5c-6.6 0-12.2 4.8-13.3 11.3l1.5.2v-1.5h-.2c-4.7 0-8.5 3.8-8.5 8.5s3.8 8.5 8.5 8.5c2.4 0 4.6-1 6.2-2.7l-2 .2c2.3 1.6 5 2.5 7.8 2.5 2.6 0 5.2-.8 7.3-2.2h-1.6c2.2 1.4 4.7 2.2 7.3 2.2 1.5 0 2.9-.2 4.3-.7l-.5-1.4-1.2.9c3.6 4.5 9 7.2 14.9 7.2s11.4-2.7 15-7.3l-1.2-.9-.6 1.4c1.3.5 2.8.8 4.3.8 2.6 0 5-.8 7-2.4l-2-.1c1.6 1.6 3.7 2.5 6 2.5 4.7 0 8.5-3.8 8.5-8.5s-3.8-8.5-8.5-8.5c-.7 0-1.4.1-2.1.3l.4 1.5 1.4-.6c-1.8-4.3-5.9-7.2-10.6-7.2-.8 0-1.6.1-2.4.2l.3 1.5 1.3-.7c-3.3-6.1-9.7-10-16.7-10-2.7 0-5.2.5-7.6 1.6l1.9.9zm-65.4-29.5h128v85h-128v-85z"/></defs><clipPath id="bN"><use xlink:href="#bM" overflow="visible"/></clipPath><g clip-path="url(#bN)"><defs><path id="bO" d="M-455.3 95.5c-1.5-4.9-6.1-8.5-11.5-8.5-6.6 0-12 5.4-12 12-5.9 0-10.9 4.3-11.8 10h-.2c-3.9 0-7 3.1-7 7s3.1 7 7 7c2 0 3.8-.8 5.1-2.2 2 1.4 4.3 2.2 6.9 2.2 2.4 0 4.6-.7 6.5-1.9 1.9 1.2 4.1 1.9 6.5 1.9 1.3 0 2.6-.2 3.8-.6 3.2 4 8.2 6.6 13.7 6.6 5.6 0 10.6-2.6 13.8-6.7 1.1.5 2.4.7 3.7.7 2.3 0 4.4-.8 6.1-2 1.3 1.3 3 2 4.9 2 3.9 0 7-3.1 7-7s-3.1-7-7-7c-.6 0-1.2.1-1.7.2-1.5-3.6-5.1-6.2-9.3-6.2-.7 0-1.4.1-2.1.2-3-5.5-8.8-9.2-15.4-9.2-2.5 0-4.9.5-7 1.5z"/></defs><clipPath id="bP"><use xlink:href="#bO" overflow="visible"/></clipPath><g clip-path="url(#bP)"><defs><path id="bQ" d="M-880.8-67.5h1121v1030h-1121z"/></defs></g></g><defs><path id="bR" d="M-455.3 95.5c-1.5-4.9-6.1-8.5-11.5-8.5-6.6 0-12 5.4-12 12-5.9 0-10.9 4.3-11.8 10h-.2c-3.9 0-7 3.1-7 7s3.1 7 7 7c2 0 3.8-.8 5.1-2.2 2 1.4 4.3 2.2 6.9 2.2 2.4 0 4.6-.7 6.5-1.9 1.9 1.2 4.1 1.9 6.5 1.9 1.3 0 2.6-.2 3.8-.6 3.2 4 8.2 6.6 13.7 6.6 5.6 0 10.6-2.6 13.8-6.7 1.1.5 2.4.7 3.7.7 2.3 0 4.4-.8 6.1-2 1.3 1.3 3 2 4.9 2 3.9 0 7-3.1 7-7s-3.1-7-7-7c-.6 0-1.2.1-1.7.2-1.5-3.6-5.1-6.2-9.3-6.2-.7 0-1.4.1-2.1.2-3-5.5-8.8-9.2-15.4-9.2-2.5 0-4.9.5-7 1.5z"/></defs><clipPath id="bS"><use xlink:href="#bR" overflow="visible"/></clipPath><g clip-path="url(#bS)"><defs><path id="bT" d="M-880.8-67.5h1121v1030h-1121z"/></defs></g><defs><path id="bU" d="M-184.3 60.4l56 32.4s-1.5 14.3-8.3 24.7c-6.8 10.4-24.1 17.2-24.1 17.2l-53.4-38.5s13.7-4.3 21.6-13.8 8.2-22 8.2-22z"/></defs><clipPath id="bV"><use xlink:href="#bU" overflow="visible"/></clipPath><g clip-path="url(#bV)"><defs><path id="bW" d="M-839.3-66.8h1121v1030h-1121z"/></defs></g><defs><path id="bX" d="M-158.8 74.2l21.8-50.6 6.2 2.7-22.4 51z"/></defs><clipPath id="bY"><use xlink:href="#bX" overflow="visible"/></clipPath><g clip-path="url(#bY)"><defs><path id="bZ" d="M-839.3-66.8h1121v1030h-1121z"/></defs></g><defs><path id="ca" d="M-193.7 100.6l1.2.9.9-1.2c-1.5-1-3.3-1.6-5.1-1.6-5 0-9 4-9 9 0 3.8 2.4 7.2 6 8.5l-1-1.4c0 4.9 4.1 8.9 9 8.9 1.4 0 2.8-.3 4.1-1l-.7-1.3-1.4.6c1.9 4 5.9 6.7 10.4 6.7 6.4 0 11.5-5.1 11.5-11.5 0-1.2-.2-2.5-.6-3.6l-1.4.5.8 1.3c2.6-1.6 4.2-4.5 4.2-7.6 0-5-4-9-9-9-1.2 0-2.3.2-3.4.7l.6 1.4 1.1-1c-2.2-2.6-5.4-4.1-8.8-4.1-3.8-.1-7.3 1.8-9.4 4.8zm2.4 1.7c1.6-2.3 4.2-3.7 7-3.7 2.5 0 4.9 1.1 6.5 3l.7.8 1-.4c.7-.3 1.5-.4 2.3-.4 3.3 0 6 2.7 6 6 0 2.1-1.1 4-2.8 5.1l-1 .6.4 1.1c.3.9.4 1.8.4 2.7 0 4.7-3.8 8.5-8.5 8.5-3.4 0-6.3-2-7.7-4.9l-.7-1.4-1.4.7c-.8.4-1.8.7-2.7.7-3.3 0-6-2.7-6-5.9v-1.1l-1-.3c-2.4-.8-4-3.1-4-5.7 0-3.3 2.7-6 6-6 1.2 0 2.4.4 3.4 1.1l1.2.9.9-1.4zm-34.5-26.6h81v73h-81v-73z"/></defs><clipPath id="cb"><use xlink:href="#ca" overflow="visible"/></clipPath><g clip-path="url(#cb)"><defs><path id="cc" d="M-192.5 101.5c1.8-2.6 4.8-4.3 8.2-4.3 3.1 0 5.8 1.4 7.7 3.6.9-.4 1.8-.6 2.8-.6 4.1 0 7.5 3.4 7.5 7.5 0 2.7-1.4 5-3.5 6.3.3 1 .5 2 .5 3.2 0 5.5-4.5 10-10 10-4 0-7.5-2.4-9.1-5.8-1 .5-2.2.8-3.4.8-4.1 0-7.5-3.3-7.5-7.4-2.9-1-5-3.8-5-7.1 0-4.1 3.4-7.5 7.5-7.5 1.6 0 3.1.5 4.3 1.3z"/></defs><clipPath id="cd"><use xlink:href="#cc" overflow="visible"/></clipPath><g clip-path="url(#cd)"><defs><path id="ce" d="M-839.3-66.8h1121v1030h-1121z"/></defs></g></g><defs><path id="cf" d="M-192.5 101.5c1.8-2.6 4.8-4.3 8.2-4.3 3.1 0 5.8 1.4 7.7 3.6.9-.4 1.8-.6 2.8-.6 4.1 0 7.5 3.4 7.5 7.5 0 2.7-1.4 5-3.5 6.3.3 1 .5 2 .5 3.2 0 5.5-4.5 10-10 10-4 0-7.5-2.4-9.1-5.8-1 .5-2.2.8-3.4.8-4.1 0-7.5-3.3-7.5-7.4-2.9-1-5-3.8-5-7.1 0-4.1 3.4-7.5 7.5-7.5 1.6 0 3.1.5 4.3 1.3z"/></defs><clipPath id="cg"><use xlink:href="#cf" overflow="visible"/></clipPath><g clip-path="url(#cg)"><defs><path id="ch" d="M-839.3-66.8h1121v1030h-1121z"/></defs></g><defs><path id="ci" d="M-136.3 16.8l10.2 4.4 2-4.4-10.3-4-1.9 4zm-8.5 2.7l22.8 9.7 7.1-15.4-23.3-8.4-6.6 14.1z"/></defs><clipPath id="cj"><use xlink:href="#ci" overflow="visible"/></clipPath><g clip-path="url(#cj)"><defs><path id="ck" d="M-839.3-66.8h1121v1030h-1121z"/></defs></g><defs><path id="cl" d="M136.1 4.4c30.3 0 55 7.1 55 14.8v22l1.7-1.5c-.1 0-.2 0-.4-.1-.4-.1-.8-.1-1.3-.2-1.4-.2-2.9-.4-4.6-.6-4.9-.7-10-1.3-15.2-2-3.9-.5-7.7-.9-11.3-1.3-9.9-1-18.1-1.6-23.9-1.6-5.2 0-14.3.8-26.1 2.3-2.5.3-5.1.6-7.7 1-5.4.7-10.9 1.5-16.1 2.3-1.8.3-3.5.5-5 .8-.5.1-1 .2-1.4.2-.2 0-.4.1-.5.1l1.7 1.5v-23c.1-7.6 24.8-14.7 55.1-14.7zm0-3c-32.1 0-58 7.5-58 17.8V44l1.7-.3c.1 0 .2 0 .5-.1.4-.1.8-.1 1.4-.2 1.5-.2 3.1-.5 5-.8 5.2-.8 10.7-1.6 16.1-2.3 2.6-.4 5.2-.7 7.7-1 11.7-1.5 20.7-2.3 25.7-2.3 5.6 0 13.7.6 23.6 1.6 3.6.4 7.4.8 11.2 1.3 5.2.6 10.3 1.3 15.2 2 1.7.2 3.2.4 4.6.6.5.1.9.1 1.2.2.2 0 .4.1.4.1l1.7.3V19.4c0-10.6-25.9-18-58-18zm-78-20h156v82.5h-156v-82.5z"/></defs><clipPath id="cm"><use xlink:href="#cl" overflow="visible"/></clipPath><g clip-path="url(#cm)"><defs><path id="cn" d="M136.1 2.9c-31.2 0-56.5 7.3-56.5 16.3v23s42.2-6.7 56.5-6.7c18 0 56.5 5.7 56.5 5.7v-22c0-9-25.3-16.3-56.5-16.3z"/></defs><clipPath id="co"><use xlink:href="#cn" overflow="visible"/></clipPath><g clip-path="url(#co)"><defs><path id="cp" d="M-779.4-79.9h1121v1030h-1121z"/></defs><clipPath id="cq"><use xlink:href="#cp" overflow="visible"/></clipPath><path clip-path="url(#cq)" fill-rule="evenodd" clip-rule="evenodd" fill="#FFF" d="M136.1 2.9c-31.2 0-56.5 7.3-56.5 16.3v23s42.2-6.7 56.5-6.7c18 0 56.5 5.7 56.5 5.7v-22c0-9-25.3-16.3-56.5-16.3z"/></g></g><defs><path id="cr" d="M136.1 2.9c-31.2 0-56.5 7.3-56.5 16.3v23s42.2-6.7 56.5-6.7c18 0 56.5 5.7 56.5 5.7v-22c0-9-25.3-16.3-56.5-16.3z"/></defs><clipPath id="cs"><use xlink:href="#cr" overflow="visible"/></clipPath><g clip-path="url(#cs)"><defs><path id="ct" d="M-779.4-79.9h1121v1030h-1121z"/></defs><clipPath id="cu"><use xlink:href="#ct" overflow="visible"/></clipPath><path clip-path="url(#cu)" fill="none" stroke="#0C1F2E" stroke-width="6" stroke-linecap="round" stroke-miterlimit="10" d="M136.1 2.9c-31.2 0-56.5 7.3-56.5 16.3v23s42.2-6.7 56.5-6.7c18 0 56.5 5.7 56.5 5.7v-22c0-9-25.3-16.3-56.5-16.3z"/></g><defs><path id="cv" d="M136.1 26.6c30.3 0 55 7.1 55 14.8s-24.7 14.8-55 14.8-55-7.1-55-14.8 24.7-14.8 55-14.8zm0-3c-32.1 0-58 7.5-58 17.8s25.9 17.8 58 17.8 58-7.5 58-17.8-25.9-17.8-58-17.8zm-78-20h156v75.6h-156V3.6z"/></defs><clipPath id="cw"><use xlink:href="#cv" overflow="visible"/></clipPath><g clip-path="url(#cw)"><defs><ellipse id="cx" cx="136.1" cy="41.5" rx="56.5" ry="16.3"/></defs><clipPath id="cy"><use xlink:href="#cx" overflow="visible"/></clipPath><g clip-path="url(#cy)"><defs><path id="cz" d="M-779.4-79.9h1121v1030h-1121z"/></defs><clipPath id="cA"><use xlink:href="#cz" overflow="visible"/></clipPath><ellipse clip-path="url(#cA)" fill-rule="evenodd" clip-rule="evenodd" fill="#FFF" cx="136.1" cy="41.5" rx="56.5" ry="16.3"/></g></g><defs><ellipse id="cB" cx="136.1" cy="41.5" rx="56.5" ry="16.3"/></defs><clipPath id="cC"><use xlink:href="#cB" overflow="visible"/></clipPath><g clip-path="url(#cC)"><defs><path id="cD" d="M-779.4-79.9h1121v1030h-1121z"/></defs><clipPath id="cE"><use xlink:href="#cD" overflow="visible"/></clipPath><ellipse clip-path="url(#cE)" fill="none" stroke="#0C1F2E" stroke-width="6" stroke-linecap="round" stroke-miterlimit="10" cx="136.1" cy="41.5" rx="56.5" ry="16.3"/></g><defs><path id="cF" d="M96.1 45.8c0-5.3 18-10.4 40-10.4s40 5.2 40 10.4v7.1l1.2-1.5c-.1 0-.1 0-.3.1-.3 0-.6.1-.9.2-1 .2-2.1.3-3.4.5-3.6.6-7.3 1.1-11.1 1.7-2.9.4-5.6.8-8.3 1.1-7.2.9-13.1 1.3-17.2 1.3-3.7 0-10.3-.5-18.9-1.4-1.8-.2-3.7-.4-5.6-.6-4-.5-8-.9-11.8-1.4-1.3-.2-2.6-.3-3.6-.5-.4 0-.7-.1-1-.1h-.3l1.3 1.5v-8zm-3 0v9.1l1.3.2h.4c.3 0 .6.1 1 .1 1.1.1 2.3.3 3.7.5a11776882415803102 11776882415803102 0 0 0 36.7 3.5c4.3 0 10.3-.5 17.6-1.4 2.7-.3 5.4-.7 8.3-1.1 3.8-.5 7.6-1.1 11.2-1.7 1.3-.2 2.4-.4 3.4-.5.4-.1.7-.1.9-.2.3 0 .3 0 .3-.1l1.2-.2v-8.4c0-7.9-19.2-13.4-43-13.4s-43 5.7-43 13.6zm-20-33.4h126v66.9h-126V12.4z"/></defs><clipPath id="cG"><use xlink:href="#cF" overflow="visible"/></clipPath><g clip-path="url(#cG)"><defs><path id="cH" d="M94.6 45.8v7.8s31 4.1 41.5 4.1c13.2 0 41.5-4.8 41.5-4.8v-7.1c0-6.6-18.6-11.9-41.5-11.9s-41.5 5.3-41.5 11.9z"/></defs><clipPath id="cI"><use xlink:href="#cH" overflow="visible"/></clipPath><g clip-path="url(#cI)"><defs><path id="cJ" d="M-779.4-79.9h1121v1030h-1121z"/></defs><clipPath id="cK"><use xlink:href="#cJ" overflow="visible"/></clipPath><path clip-path="url(#cK)" fill-rule="evenodd" clip-rule="evenodd" fill="#FFF" d="M94.6 45.8v7.8s31 4.1 41.5 4.1c13.2 0 41.5-4.8 41.5-4.8v-7.1c0-6.6-18.6-11.9-41.5-11.9s-41.5 5.3-41.5 11.9z"/></g></g><defs><path id="cL" d="M94.6 45.8v7.8s31 4.1 41.5 4.1c13.2 0 41.5-4.8 41.5-4.8v-7.1c0-6.6-18.6-11.9-41.5-11.9s-41.5 5.3-41.5 11.9z"/></defs><clipPath id="cM"><use xlink:href="#cL" overflow="visible"/></clipPath><g clip-path="url(#cM)"><defs><path id="cN" d="M-779.4-79.9h1121v1030h-1121z"/></defs><clipPath id="cO"><use xlink:href="#cN" overflow="visible"/></clipPath><path clip-path="url(#cO)" fill="none" stroke="#0C1F2E" stroke-width="6" stroke-linecap="round" stroke-miterlimit="10" d="M94.6 45.8v7.8s31 4.1 41.5 4.1c13.2 0 41.5-4.8 41.5-4.8v-7.1c0-6.6-18.6-11.9-41.5-11.9s-41.5 5.3-41.5 11.9z"/></g><defs><path id="cP" d="M136.1 43.7c22 0 40 5.2 40 10.4 0 5.3-18 10.4-40 10.4s-40-5.2-40-10.4 18-10.4 40-10.4zm0-3c-23.8 0-43 5.5-43 13.4s19.2 13.4 43 13.4 43-5.5 43-13.4-19.2-13.4-43-13.4zm-63-20h126v66.9h-126V20.7z"/></defs><clipPath id="cQ"><use xlink:href="#cP" overflow="visible"/></clipPath><g clip-path="url(#cQ)"><defs><ellipse id="cR" cx="136.1" cy="54.1" rx="41.5" ry="11.9"/></defs><clipPath id="cS"><use xlink:href="#cR" overflow="visible"/></clipPath><g clip-path="url(#cS)"><defs><path id="cT" d="M-779.4-79.9h1121v1030h-1121z"/></defs><clipPath id="cU"><use xlink:href="#cT" overflow="visible"/></clipPath><ellipse clip-path="url(#cU)" fill-rule="evenodd" clip-rule="evenodd" fill="#FFF" cx="136.1" cy="54.1" rx="41.5" ry="11.9"/></g></g><defs><ellipse id="cV" cx="136.1" cy="54.1" rx="41.5" ry="11.9"/></defs><clipPath id="cW"><use xlink:href="#cV" overflow="visible"/></clipPath><g clip-path="url(#cW)"><defs><path id="cX" d="M-779.4-79.9h1121v1030h-1121z"/></defs><clipPath id="cY"><use xlink:href="#cX" overflow="visible"/></clipPath><ellipse clip-path="url(#cY)" fill="none" stroke="#0C1F2E" stroke-width="6" stroke-linecap="round" stroke-miterlimit="10" cx="136.1" cy="54.1" rx="41.5" ry="11.9"/></g><g><defs><path id="cZ" d="M123.5 55.7c0 .4-.2.7-.4.8.1 0 .2-.1.4-.2.6-.2 1.6-.4 2.8-.6 2.6-.4 6-.6 9.8-.6s7.2.2 9.8.6c1.2.2 2.2.4 2.8.6l.4.2c-.2-.1-.4-.4-.4-.8s.2-.7.4-.8c-.1 0-.2.1-.4.2-.6.2-1.6.4-2.8.6-2.6.4-6 .6-9.8.6s-7.2-.2-9.8-.6c-1.2-.2-2.2-.4-2.8-.6l-.4-.2c.2.1.4.3.4.8zm-3 0c0 2.6 6.2 3.5 15.6 3.5s15.6-.9 15.6-3.5-6.2-3.5-15.6-3.5-15.6.8-15.6 3.5zm-20-23.6h71.2v47.1h-71.2V32.1z"/></defs><clipPath id="da"><use xlink:href="#cZ" overflow="visible"/></clipPath><g clip-path="url(#da)"><defs><ellipse id="db" cx="136.1" cy="55.7" rx="14.1" ry="2"/></defs><clipPath id="dc"><use xlink:href="#db" overflow="visible"/></clipPath><g clip-path="url(#dc)"><defs><path id="dd" d="M-779.4-79.9h1121v1030h-1121z"/></defs><clipPath id="de"><use xlink:href="#dd" overflow="visible"/></clipPath><ellipse clip-path="url(#de)" fill-rule="evenodd" clip-rule="evenodd" fill="#0C1F2E" cx="136.1" cy="55.7" rx="14.1" ry="2"/></g></g></g><g><defs><ellipse id="df" cx="136.1" cy="55.7" rx="14.1" ry="2"/></defs><clipPath id="dg"><use xlink:href="#df" overflow="visible"/></clipPath><g clip-path="url(#dg)"><defs><path id="dh" d="M-779.4-79.9h1121v1030h-1121z"/></defs><clipPath id="di"><use xlink:href="#dh" overflow="visible"/></clipPath><ellipse clip-path="url(#di)" fill="none" stroke="#0C1F2E" stroke-width="6" stroke-linecap="round" stroke-miterlimit="10" cx="136.1" cy="55.7" rx="14.1" ry="2"/></g></g><g><defs><path id="dj" d="M128.9 73s-10.5 3.3-9.1 12.3c.9 5.5 5.6 8.1 5.6 13.5s-4.6 9.5-4.6 9.5 13.5-.3 14.6-9.5c1.1-9.2-6.7-11.3-8.3-15.6-1.4-4.3 1.8-10.2 1.8-10.2z"/></defs><clipPath id="dk"><use xlink:href="#dj" overflow="visible"/></clipPath><g clip-path="url(#dk)"><defs><path id="dl" d="M-779.4-79.9h1121v1030h-1121z"/></defs><clipPath id="dm"><use xlink:href="#dl" overflow="visible"/></clipPath><path clip-path="url(#dm)" fill="#FFF" d="M114.7 68h25.9v45.4h-25.9z"/></g></g><g><path fill="none" stroke="#0C1F2E" stroke-width="3" stroke-linecap="round" stroke-miterlimit="10" d="M128.9 73s-10.5 3.3-9.1 12.3c.9 5.5 5.6 8.1 5.6 13.5s-4.6 9.5-4.6 9.5 13.5-.3 14.6-9.5-6.7-11.3-8.3-15.6c-1.4-4.3 1.8-10.2 1.8-10.2z"/></g><g><defs><path id="dn" d="M144 76.3s-15.1 4.8-13 17.6c1.2 7.9 8 11.6 8 19.4s-6.5 13.6-6.5 13.6 19.3-.5 20.9-13.6-9.6-16.1-11.8-22.3c-2.3-6.3 2.4-14.7 2.4-14.7z"/></defs><clipPath id="do"><use xlink:href="#dn" overflow="visible"/></clipPath><g clip-path="url(#do)"><defs><path id="dp" d="M-779.4-79.9h1121v1030h-1121z"/></defs><clipPath id="dq"><use xlink:href="#dp" overflow="visible"/></clipPath><path clip-path="url(#dq)" fill="#FFF" d="M125.8 71.3h32.8v60.6h-32.8z"/></g></g><g><path fill="none" stroke="#0C1F2E" stroke-width="3" stroke-linecap="round" stroke-miterlimit="10" d="M144 76.3s-15.1 4.8-13 17.6c1.2 7.9 8 11.6 8 19.4 0 7.7-6.5 13.6-6.5 13.6s19.3-.5 20.9-13.6c1.6-13.2-9.6-16.1-11.8-22.3-2.3-6.3 2.4-14.7 2.4-14.7z"/></g><g><defs><path id="dr" d="M-507.5 186.5l-1.4.4.4 1.4 30.4 99.5.4 1.4 1.4-.4 60.2-18.4 1.4-.4-.4-1.4-30.4-99.5-.4-1.4-1.4.4-60.2 18.4zm.9 2.9l60.2-18.4-1.9-1 30.4 99.5 1-1.9-60.2 18.4 1.9 1-30.4-99.5-1 1.9zm-27.3-15.7l101.4-31 43 140.6-101.4 31-43-140.6z"/></defs><clipPath id="ds"><use xlink:href="#dr" overflow="visible"/></clipPath><g clip-path="url(#ds)"><defs><path id="dt" transform="rotate(162.999 -461.709 228.496)" d="M-493.2 176.5h63v104h-63z"/></defs><clipPath id="du"><use xlink:href="#dt" overflow="visible"/></clipPath><g clip-path="url(#du)"><defs><path id="dv" d="M-637.2-121h1121V909h-1121z"/></defs></g></g></g><g><defs><path id="dw" transform="rotate(162.999 -461.709 228.496)" d="M-493.2 176.5h63v104h-63z"/></defs><clipPath id="dx"><use xlink:href="#dw" overflow="visible"/></clipPath><g clip-path="url(#dx)"><defs><path id="dy" d="M-637.2-121h1121V909h-1121z"/></defs></g></g><g><defs><path id="dz" d="M-472.2 163.5h-1.5v107h66v-107h-64.5zm0 3h63l-1.5-1.5v104l1.5-1.5h-63l1.5 1.5V165l-1.5 1.5zm-21.5-23h106v147h-106v-147z"/></defs><clipPath id="dA"><use xlink:href="#dz" overflow="visible"/></clipPath><g clip-path="url(#dA)"><defs><path id="dB" d="M-472.2 165h63v104h-63z"/></defs><clipPath id="dC"><use xlink:href="#dB" overflow="visible"/></clipPath><g clip-path="url(#dC)"><defs><path id="dD" d="M-637.2-121h1121V909h-1121z"/></defs></g></g></g><g><defs><path id="dE" d="M-472.2 165h63v104h-63z"/></defs><clipPath id="dF"><use xlink:href="#dE" overflow="visible"/></clipPath><g clip-path="url(#dF)"><defs><path id="dG" d="M-637.2-121h1121V909h-1121z"/></defs></g></g><g><defs><path id="dH" d="M-463.2 193h44v13h-44z"/></defs><clipPath id="dI"><use xlink:href="#dH" overflow="visible"/></clipPath><g clip-path="url(#dI)"><defs><path id="dJ" d="M-637.2-121h1121V909h-1121z"/></defs></g></g><g><defs><path id="dK" d="M-463.2 203h44v13h-44z"/></defs><clipPath id="dL"><use xlink:href="#dK" overflow="visible"/></clipPath><g clip-path="url(#dL)"><defs><path id="dM" d="M-637.2-121h1121V909h-1121z"/></defs></g></g><g><defs><path id="dN" d="M-463.2 213h44v13h-44z"/></defs><clipPath id="dO"><use xlink:href="#dN" overflow="visible"/></clipPath><g clip-path="url(#dO)"><defs><path id="dP" d="M-637.2-121h1121V909h-1121z"/></defs></g></g><g><defs><path id="dQ" d="M-463.2 223h44v14h-44z"/></defs><clipPath id="dR"><use xlink:href="#dQ" overflow="visible"/></clipPath><g clip-path="url(#dR)"><defs><path id="dS" d="M-637.2-121h1121V909h-1121z"/></defs></g></g><g><defs><path id="dT" d="M-463.2 234h44v14h-44z"/></defs><clipPath id="dU"><use xlink:href="#dT" overflow="visible"/></clipPath><g clip-path="url(#dU)"><defs><path id="dV" d="M-637.2-121h1121V909h-1121z"/></defs></g></g><g><defs><path id="dW" d="M-463.2 245h44v14h-44z"/></defs><clipPath id="dX"><use xlink:href="#dW" overflow="visible"/></clipPath><g clip-path="url(#dX)"><defs><path id="dY" d="M-637.2-121h1121V909h-1121z"/></defs></g></g><g><defs><path id="dZ" d="M-462.2 175h3v13h-3z"/></defs><clipPath id="ea"><use xlink:href="#dZ" overflow="visible"/></clipPath><g clip-path="url(#ea)"><defs><path id="eb" d="M-637.2-121h1121V909h-1121z"/></defs></g></g><g><defs><path id="ec" d="M-457.2 175h3v13h-3z"/></defs><clipPath id="ed"><use xlink:href="#ec" overflow="visible"/></clipPath><g clip-path="url(#ed)"><defs><path id="ee" d="M-637.2-121h1121V909h-1121z"/></defs></g></g><g><defs><path id="ef" d="M-452.2 175h3v13h-3z"/></defs><clipPath id="eg"><use xlink:href="#ef" overflow="visible"/></clipPath><g clip-path="url(#eg)"><defs><path id="eh" d="M-637.2-121h1121V909h-1121z"/></defs></g></g><g><defs><path id="ei" d="M-447.2 175h3v13h-3z"/></defs><clipPath id="ej"><use xlink:href="#ei" overflow="visible"/></clipPath><g clip-path="url(#ej)"><defs><path id="ek" d="M-637.2-121h1121V909h-1121z"/></defs></g></g><g><defs><path id="el" d="M-442.2 175h3v13h-3z"/></defs><clipPath id="em"><use xlink:href="#el" overflow="visible"/></clipPath><g clip-path="url(#em)"><defs><path id="en" d="M-637.2-121h1121V909h-1121z"/></defs></g></g><g><defs><path id="eo" d="M-442.2 226h3v32h-3z"/></defs><clipPath id="ep"><use xlink:href="#eo" overflow="visible"/></clipPath><g clip-path="url(#ep)"><defs><path id="eq" d="M-637.2-121h1121V909h-1121z"/></defs></g></g><g><defs><path id="er" d="M-437.2 175h3v13h-3z"/></defs><clipPath id="es"><use xlink:href="#er" overflow="visible"/></clipPath><g clip-path="url(#es)"><defs><path id="et" d="M-637.2-121h1121V909h-1121z"/></defs></g></g><g><defs><path id="eu" d="M-432.2 175h3v13h-3z"/></defs><clipPath id="ev"><use xlink:href="#eu" overflow="visible"/></clipPath><g clip-path="url(#ev)"><defs><path id="ew" d="M-637.2-121h1121V909h-1121z"/></defs></g></g><g><defs><path id="ex" d="M-427.2 175h3v13h-3z"/></defs><clipPath id="ey"><use xlink:href="#ex" overflow="visible"/></clipPath><g clip-path="url(#ey)"><defs><path id="ez" d="M-637.2-121h1121V909h-1121z"/></defs></g></g><g><defs><path id="eA" d="M-422.2 175h3v13h-3z"/></defs><clipPath id="eB"><use xlink:href="#eA" overflow="visible"/></clipPath><g clip-path="url(#eB)"><defs><path id="eC" d="M-637.2-121h1121V909h-1121z"/></defs></g></g><g><defs><path id="eD" d="M-504.2 189.2l53.3 34.1-23.9 61.7"/></defs><clipPath id="eE"><use xlink:href="#eD" overflow="visible"/></clipPath><g clip-path="url(#eE)"><defs><path id="eF" d="M-637.2-121h1121V909h-1121z"/></defs></g></g><g><defs><path id="eG" d="M-202.5 163.5h-1.5v107h66v-107h-64.5zm0 3h63l-1.5-1.5v104l1.5-1.5h-63l1.5 1.5V165l-1.5 1.5zm-21.5-23h106v147h-106v-147z"/></defs><clipPath id="eH"><use xlink:href="#eG" overflow="visible"/></clipPath><g clip-path="url(#eH)"><defs><path id="eI" d="M-202.5 165h63v104h-63z"/></defs><clipPath id="eJ"><use xlink:href="#eI" overflow="visible"/></clipPath><g clip-path="url(#eJ)"><defs><path id="eK" d="M-592.5-115h1121V915h-1121z"/></defs></g></g></g><g><defs><path id="eL" d="M-202.5 165h63v104h-63z"/></defs><clipPath id="eM"><use xlink:href="#eL" overflow="visible"/></clipPath><g clip-path="url(#eM)"><defs><path id="eN" d="M-592.5-115h1121V915h-1121z"/></defs></g></g><g><defs><path id="eO" d="M-193.5 193h44v13h-44z"/></defs><clipPath id="eP"><use xlink:href="#eO" overflow="visible"/></clipPath><g clip-path="url(#eP)"><defs><path id="eQ" d="M-592.5-115h1121V915h-1121z"/></defs></g></g><g><defs><path id="eR" d="M-193.5 203h44v13h-44z"/></defs><clipPath id="eS"><use xlink:href="#eR" overflow="visible"/></clipPath><g clip-path="url(#eS)"><defs><path id="eT" d="M-592.5-115h1121V915h-1121z"/></defs></g></g><g><defs><path id="eU" d="M-193.5 213h44v13h-44z"/></defs><clipPath id="eV"><use xlink:href="#eU" overflow="visible"/></clipPath><g clip-path="url(#eV)"><defs><path id="eW" d="M-592.5-115h1121V915h-1121z"/></defs></g></g><g><defs><path id="eX" d="M-193.5 223h44v14h-44z"/></defs><clipPath id="eY"><use xlink:href="#eX" overflow="visible"/></clipPath><g clip-path="url(#eY)"><defs><path id="eZ" d="M-592.5-115h1121V915h-1121z"/></defs></g></g><g><defs><path id="fa" d="M-193.5 234h44v14h-44z"/></defs><clipPath id="fb"><use xlink:href="#fa" overflow="visible"/></clipPath><g clip-path="url(#fb)"><defs><path id="fc" d="M-592.5-115h1121V915h-1121z"/></defs></g></g><g><defs><path id="fd" d="M-193.5 245h44v14h-44z"/></defs><clipPath id="fe"><use xlink:href="#fd" overflow="visible"/></clipPath><g clip-path="url(#fe)"><defs><path id="ff" d="M-592.5-115h1121V915h-1121z"/></defs></g></g><g><defs><path id="fg" d="M-192.5 175h3v13h-3z"/></defs><clipPath id="fh"><use xlink:href="#fg" overflow="visible"/></clipPath><g clip-path="url(#fh)"><defs><path id="fi" d="M-592.5-115h1121V915h-1121z"/></defs></g></g><g><defs><path id="fj" d="M-187.5 175h3v13h-3z"/></defs><clipPath id="fk"><use xlink:href="#fj" overflow="visible"/></clipPath><g clip-path="url(#fk)"><defs><path id="fl" d="M-592.5-115h1121V915h-1121z"/></defs></g></g><g><defs><path id="fm" d="M-182.5 175h3v13h-3z"/></defs><clipPath id="fn"><use xlink:href="#fm" overflow="visible"/></clipPath><g clip-path="url(#fn)"><defs><path id="fo" d="M-592.5-115h1121V915h-1121z"/></defs></g></g><g><defs><path id="fp" d="M-177.5 175h3v13h-3z"/></defs><clipPath id="fq"><use xlink:href="#fp" overflow="visible"/></clipPath><g clip-path="url(#fq)"><defs><path id="fr" d="M-592.5-115h1121V915h-1121z"/></defs></g></g><g><defs><path id="fs" d="M-172.5 175h3v13h-3z"/></defs><clipPath id="ft"><use xlink:href="#fs" overflow="visible"/></clipPath><g clip-path="url(#ft)"><defs><path id="fu" d="M-592.5-115h1121V915h-1121z"/></defs></g></g><g><defs><path id="fv" d="M-172.5 226h3v32h-3z"/></defs><clipPath id="fw"><use xlink:href="#fv" overflow="visible"/></clipPath><g clip-path="url(#fw)"><defs><path id="fx" d="M-592.5-115h1121V915h-1121z"/></defs></g></g><g><defs><path id="fy" d="M-167.5 175h3v13h-3z"/></defs><clipPath id="fz"><use xlink:href="#fy" overflow="visible"/></clipPath><g clip-path="url(#fz)"><defs><path id="fA" d="M-592.5-115h1121V915h-1121z"/></defs></g></g><g><defs><path id="fB" d="M-162.5 175h3v13h-3z"/></defs><clipPath id="fC"><use xlink:href="#fB" overflow="visible"/></clipPath><g clip-path="url(#fC)"><defs><path id="fD" d="M-592.5-115h1121V915h-1121z"/></defs></g></g><g><defs><path id="fE" d="M-157.5 175h3v13h-3z"/></defs><clipPath id="fF"><use xlink:href="#fE" overflow="visible"/></clipPath><g clip-path="url(#fF)"><defs><path id="fG" d="M-592.5-115h1121V915h-1121z"/></defs></g></g><g><defs><path id="fH" d="M-152.5 175h3v13h-3z"/></defs><clipPath id="fI"><use xlink:href="#fH" overflow="visible"/></clipPath><g clip-path="url(#fI)"><defs><path id="fJ" d="M-592.5-115h1121V915h-1121z"/></defs></g></g><g><defs><path id="fK" d="M-130.5 284.5c-16.3 0-29.5-13.2-29.5-29.5s13.2-29.5 29.5-29.5S-101 238.7-101 255s-13.2 29.5-29.5 29.5zm0 3c17.9 0 32.5-14.6 32.5-32.5s-14.6-32.5-32.5-32.5S-163 237.1-163 255s14.5 32.5 32.5 32.5zm-52.5-85h105v105h-105v-105z"/></defs><clipPath id="fL"><use xlink:href="#fK" overflow="visible"/></clipPath><g clip-path="url(#fL)"><defs><circle id="fM" cx="-130.5" cy="255" r="31"/></defs><clipPath id="fN"><use xlink:href="#fM" overflow="visible"/></clipPath><g clip-path="url(#fN)"><defs><path id="fO" d="M-592.5-115h1121V915h-1121z"/></defs></g></g></g><g><defs><circle id="fP" cx="-130.5" cy="255" r="31"/></defs><clipPath id="fQ"><use xlink:href="#fP" overflow="visible"/></clipPath><g clip-path="url(#fQ)"><defs><path id="fR" d="M-592.5-115h1121V915h-1121z"/></defs></g></g><g><defs><path id="fS" d="M-224.2 339.7h-1.5v90h134v-90h-132.5zm0 3h131l-1.5-1.5v87l1.5-1.5h-131l1.5 1.5v-87l-1.5 1.5zm-21.5-23h174v130h-174v-130z"/></defs><clipPath id="fT"><use xlink:href="#fS" overflow="visible"/></clipPath><g clip-path="url(#fT)"><defs><path id="fU" d="M-224.2 341.2h131v87h-131z"/></defs><clipPath id="fV"><use xlink:href="#fU" overflow="visible"/></clipPath><g clip-path="url(#fV)"><defs><path id="fW" d="M-833.2 37.2h1121v1030h-1121z"/></defs></g></g></g><g><defs><path id="fX" d="M-224.2 341.2h131v87h-131z"/></defs><clipPath id="fY"><use xlink:href="#fX" overflow="visible"/></clipPath><g clip-path="url(#fY)"><defs><path id="fZ" d="M-833.2 37.2h1121v1030h-1121z"/></defs></g></g><g><defs><path id="ga" d="M-219.2 344.7h-1.5v80h124v-80h-122.5zm0 3h121l-1.5-1.5v77l1.5-1.5h-121l1.5 1.5v-77l-1.5 1.5zm-21.5-23h164v120h-164v-120z"/></defs><clipPath id="gb"><use xlink:href="#ga" overflow="visible"/></clipPath><g clip-path="url(#gb)"><defs><path id="gc" d="M-219.2 346.2h121v77h-121z"/></defs><clipPath id="gd"><use xlink:href="#gc" overflow="visible"/></clipPath><g clip-path="url(#gd)"><defs><path id="ge" d="M-833.2 37.2h1121v1030h-1121z"/></defs></g></g></g><g><defs><path id="gf" d="M-219.2 346.2h121v77h-121z"/></defs><clipPath id="gg"><use xlink:href="#gf" overflow="visible"/></clipPath><g clip-path="url(#gg)"><defs><path id="gh" d="M-833.2 37.2h1121v1030h-1121z"/></defs></g></g><g><defs><path id="gi" d="M-154.2 359.7h-1.5v6h47v-6h-45.5zm0 3h44l-1.5-1.5v3l1.5-1.5h-44l1.5 1.5v-3l-1.5 1.5zm-21.5-23h87v46h-87v-46z"/></defs><clipPath id="gj"><use xlink:href="#gi" overflow="visible"/></clipPath><g clip-path="url(#gj)"><defs><path id="gk" d="M-154.2 361.2h44v3h-44z"/></defs><clipPath id="gl"><use xlink:href="#gk" overflow="visible"/></clipPath><g clip-path="url(#gl)"><defs><path id="gm" d="M-833.2 37.2h1121v1030h-1121z"/></defs></g></g></g><g><defs><path id="gn" d="M-154.2 361.2h44v3h-44z"/></defs><clipPath id="go"><use xlink:href="#gn" overflow="visible"/></clipPath><g clip-path="url(#go)"><defs><path id="gp" d="M-833.2 37.2h1121v1030h-1121z"/></defs></g></g><g><defs><path id="gq" d="M-154.2 365.7h-1.5v6h47v-6h-45.5zm0 3h44l-1.5-1.5v3l1.5-1.5h-44l1.5 1.5v-3l-1.5 1.5zm-21.5-23h87v46h-87v-46z"/></defs><clipPath id="gr"><use xlink:href="#gq" overflow="visible"/></clipPath><g clip-path="url(#gr)"><defs><path id="gs" d="M-154.2 367.2h44v3h-44z"/></defs><clipPath id="gt"><use xlink:href="#gs" overflow="visible"/></clipPath><g clip-path="url(#gt)"><defs><path id="gu" d="M-833.2 37.2h1121v1030h-1121z"/></defs></g></g></g><g><defs><path id="gv" d="M-154.2 367.2h44v3h-44z"/></defs><clipPath id="gw"><use xlink:href="#gv" overflow="visible"/></clipPath><g clip-path="url(#gw)"><defs><path id="gx" d="M-833.2 37.2h1121v1030h-1121z"/></defs></g></g><g><defs><path id="gy" d="M-154.2 371.7h-1.5v6h47v-6h-45.5zm0 3h44l-1.5-1.5v3l1.5-1.5h-44l1.5 1.5v-3l-1.5 1.5zm-21.5-23h87v46h-87v-46z"/></defs><clipPath id="gz"><use xlink:href="#gy" overflow="visible"/></clipPath><g clip-path="url(#gz)"><defs><path id="gA" d="M-154.2 373.2h44v3h-44z"/></defs><clipPath id="gB"><use xlink:href="#gA" overflow="visible"/></clipPath><g clip-path="url(#gB)"><defs><path id="gC" d="M-833.2 37.2h1121v1030h-1121z"/></defs></g></g></g><g><defs><path id="gD" d="M-154.2 373.2h44v3h-44z"/></defs><clipPath id="gE"><use xlink:href="#gD" overflow="visible"/></clipPath><g clip-path="url(#gE)"><defs><path id="gF" d="M-833.2 37.2h1121v1030h-1121z"/></defs></g></g><g><defs><path id="gG" d="M-154.2 377.7h-1.5v6h47v-6h-45.5zm0 3h44l-1.5-1.5v3l1.5-1.5h-44l1.5 1.5v-3l-1.5 1.5zm-21.5-23h87v46h-87v-46z"/></defs><clipPath id="gH"><use xlink:href="#gG" overflow="visible"/></clipPath><g clip-path="url(#gH)"><defs><path id="gI" d="M-154.2 379.2h44v3h-44z"/></defs><clipPath id="gJ"><use xlink:href="#gI" overflow="visible"/></clipPath><g clip-path="url(#gJ)"><defs><path id="gK" d="M-833.2 37.2h1121v1030h-1121z"/></defs></g></g></g><g><defs><path id="gL" d="M-154.2 379.2h44v3h-44z"/></defs><clipPath id="gM"><use xlink:href="#gL" overflow="visible"/></clipPath><g clip-path="url(#gM)"><defs><path id="gN" d="M-833.2 37.2h1121v1030h-1121z"/></defs></g></g><g><defs><path id="gO" d="M-512 502.2h-1.2v71.5h131.7v-71.5H-512zm0 2.4h129.3l-1.2-1.2v69.1l1.2-1.2H-512l1.2 1.2v-69.1l-1.2 1.2zm-17.3-18.5h163.9v103.6h-163.9V486.1z"/></defs><clipPath id="gP"><use xlink:href="#gO" overflow="visible"/></clipPath><g clip-path="url(#gP)"><defs><path id="gQ" d="M-512 503.4h129.3v69.1H-512z"/></defs><clipPath id="gR"><use xlink:href="#gQ" overflow="visible"/></clipPath><g clip-path="url(#gR)"><defs><path id="gS" d="M-591.1 98.1h900.5v827.4h-900.5z"/></defs></g></g></g><g><defs><path id="gT" d="M-512 503.4h129.3v69.1H-512z"/></defs><clipPath id="gU"><use xlink:href="#gT" overflow="visible"/></clipPath><g clip-path="url(#gU)"><defs><path id="gV" d="M-591.1 98.1h900.5v827.4h-900.5z"/></defs></g></g><g><defs><path id="gW" d="M-505.6 508.6h-1.2V566.4h118.9V508.6H-407.4l-.3.2-6.5 4.8.7-.2h-66.7l.8.3-5.9-4.8-.3-.3h-20zm0 2.4h19.4l-.8-.3 5.9 4.8.3.3H-413.3l.3-.2 6.5-4.8-.7.2h17.9l-1.2-1.2v55.4l1.2-1.2h-116.5l1.2 1.2v-55.4l-1 1.2zm-17.3-18.5h151v90h-151v-90z"/></defs><clipPath id="gX"><use xlink:href="#gW" overflow="visible"/></clipPath><g clip-path="url(#gX)"><defs><path id="gY" d="M-505.6 509.8h19.5l5.9 4.8h66.7l6.5-4.8h17.9v55.4h-116.5z"/></defs><clipPath id="gZ"><use xlink:href="#gY" overflow="visible"/></clipPath><g clip-path="url(#gZ)"><defs><path id="ha" d="M-591.1 98.1h900.5v827.4h-900.5z"/></defs></g></g></g><g><defs><path id="hb" d="M-505.6 509.8h19.5l5.9 4.8h66.7l6.5-4.8h17.9v55.4h-116.5z"/></defs><clipPath id="hc"><use xlink:href="#hb" overflow="visible"/></clipPath><g clip-path="url(#hc)"><defs><path id="hd" d="M-591.1 98.1h900.5v827.4h-900.5z"/></defs></g></g><g><defs><path id="he" d="M-477.5 509h5.6v2.4h-5.6z"/></defs><clipPath id="hf"><use xlink:href="#he" overflow="visible"/></clipPath><g clip-path="url(#hf)"><defs><path id="hg" d="M-591.1 98.1h900.5v827.4h-900.5z"/></defs></g></g><g><defs><path id="hh" d="M-421.2 509h5.6v2.4h-5.6z"/></defs><clipPath id="hi"><use xlink:href="#hh" overflow="visible"/></clipPath><g clip-path="url(#hi)"><defs><path id="hj" d="M-591.1 98.1h900.5v827.4h-900.5z"/></defs></g></g><g><defs><path id="hk" d="M-750.6 274.5c-27.1 0-49-21.9-49-49s21.9-49 49-49 49 21.9 49 49-21.9 49-49 49zm0 3c28.7 0 52-23.3 52-52s-23.3-52-52-52-52 23.3-52 52 23.3 52 52 52zm-72-124h144v144h-144v-144z"/></defs><clipPath id="hl"><use xlink:href="#hk" overflow="visible"/></clipPath><g clip-path="url(#hl)"><defs><circle id="hm" cx="-750.6" cy="225.5" r="50.5"/></defs><clipPath id="hn"><use xlink:href="#hm" overflow="visible"/></clipPath><g clip-path="url(#hn)"><defs><path id="ho" d="M-925.1-510.5h1121v1030h-1121z"/></defs></g></g></g><g><defs><circle id="hp" cx="-750.6" cy="225.5" r="50.5"/></defs><clipPath id="hq"><use xlink:href="#hp" overflow="visible"/></clipPath><g clip-path="url(#hq)"><defs><path id="hr" d="M-925.1-510.5h1121v1030h-1121z"/></defs></g></g><g><defs><circle id="hs" cx="-750.6" cy="225.5" r="43.5"/></defs><clipPath id="ht"><use xlink:href="#hs" overflow="visible"/></clipPath><g clip-path="url(#ht)"><defs><path id="hu" d="M-925.1-510.5h1121v1030h-1121z"/></defs></g></g><g><defs><path id="hv" d="M-757.1 201.5h-1.7l.2 1.6 3.1 32 .1 1.4h11.4l.1-1.4 2.3-32 .1-1.6h-15.6zm0 3h14l-1.5-1.6-2.3 32 1.5-1.4h-8.6l1.5 1.4-3.1-32-1.5 1.6zm-21.6-23h57.3v75h-57.3v-75z"/></defs><clipPath id="hw"><use xlink:href="#hv" overflow="visible"/></clipPath><g clip-path="url(#hw)"><defs><path id="hx" d="M-757.1 203h14l-2.3 32h-8.5z"/></defs><clipPath id="hy"><use xlink:href="#hx" overflow="visible"/></clipPath><g clip-path="url(#hy)"><defs><path id="hz" d="M-925.1-510.5h1121v1030h-1121z"/></defs></g></g></g><g><defs><path id="hA" d="M-757.1 203.3h14l-2.3 32h-8.5z"/></defs><clipPath id="hB"><use xlink:href="#hA" overflow="visible"/></clipPath><g clip-path="url(#hB)"><defs><path id="hC" d="M-925.1-510.2h1121v1030h-1121z"/></defs></g></g><g><defs><path id="hD" d="M-749.6 248.5c-2.2 0-4-1.8-4-4s1.8-4 4-4 4 1.8 4 4-1.8 4-4 4zm0 3c3.9 0 7-3.1 7-7s-3.1-7-7-7-7 3.1-7 7 3.2 7 7 7zm-27-34h54v54h-54v-54z"/></defs><clipPath id="hE"><use xlink:href="#hD" overflow="visible"/></clipPath><g clip-path="url(#hE)"><defs><circle id="hF" cx="-749.6" cy="244.5" r="5.5"/></defs><clipPath id="hG"><use xlink:href="#hF" overflow="visible"/></clipPath><g clip-path="url(#hG)"><defs><path id="hH" d="M-925.1-510.5h1121v1030h-1121z"/></defs></g></g></g><g><defs><circle id="hI" cx="-749.6" cy="244.8" r="5.5"/></defs><clipPath id="hJ"><use xlink:href="#hI" overflow="visible"/></clipPath><g clip-path="url(#hJ)"><defs><path id="hK" d="M-925.1-510.2h1121v1030h-1121z"/></defs></g></g><g><defs><path id="hL" d="M69.1 182h-1.5v90h134v-90H69.1zm0 3h131l-1.5-1.5v87l1.5-1.5h-131l1.5 1.5v-87l-1.5 1.5zm-21.5-23h174v130h-174V162z"/></defs><clipPath id="hM"><use xlink:href="#hL" overflow="visible"/></clipPath><g clip-path="url(#hM)"><defs><path id="hN" d="M69.1 183.5h131v87h-131z"/></defs><clipPath id="hO"><use xlink:href="#hN" overflow="visible"/></clipPath><g clip-path="url(#hO)"><defs><path id="hP" d="M-806.9-517.5h1121v1030h-1121z"/></defs></g></g></g><g><defs><path id="hQ" d="M69.1 183.5h131v87h-131z"/></defs><clipPath id="hR"><use xlink:href="#hQ" overflow="visible"/></clipPath><g clip-path="url(#hR)"><defs><path id="hS" d="M-806.9-517.5h1121v1030h-1121z"/></defs></g></g><g><defs><path id="hT" d="M173.1 191h-1.5v23h21v-23h-19.5zm0 3h18l-1.5-1.5v20l1.5-1.5h-18l1.5 1.5v-20l-1.5 1.5zm-21.5-23h61v63h-61v-63z"/></defs><clipPath id="hU"><use xlink:href="#hT" overflow="visible"/></clipPath><g clip-path="url(#hU)"><defs><path id="hV" d="M173.1 192.5h18v20h-18z"/></defs><clipPath id="hW"><use xlink:href="#hV" overflow="visible"/></clipPath><g clip-path="url(#hW)"><defs><path id="hX" d="M-806.9-517.5h1121v1030h-1121z"/></defs></g></g></g><g><defs><path id="hY" d="M173.1 192.5h18v20h-18z"/></defs><clipPath id="hZ"><use xlink:href="#hY" overflow="visible"/></clipPath><g clip-path="url(#hZ)"><defs><path id="ia" d="M-806.9-517.5h1121v1030h-1121z"/></defs></g></g><g><defs><path id="ib" d="M178.1 196h-1.5v13h11v-13h-9.5zm0 3h8l-1.5-1.5v10l1.5-1.5h-8l1.5 1.5v-10l-1.5 1.5zm-21.5-23h51v53h-51v-53z"/></defs><clipPath id="ic"><use xlink:href="#ib" overflow="visible"/></clipPath><g clip-path="url(#ic)"><defs><path id="id" d="M178.1 197.5h8v10h-8z"/></defs><clipPath id="ie"><use xlink:href="#id" overflow="visible"/></clipPath><g clip-path="url(#ie)"><defs><path id="if" d="M-806.9-517.5h1121v1030h-1121z"/></defs></g></g></g><g><defs><path id="ig" d="M178.1 197.5h8v10h-8z"/></defs><clipPath id="ih"><use xlink:href="#ig" overflow="visible"/></clipPath><g clip-path="url(#ih)"><defs><path id="ii" d="M-806.9-517.5h1121v1030h-1121z"/></defs></g></g><g><defs><path id="ij" d="M-729.9 368.2l.2 3c8.3-.7 15.9-2.1 21.4-3.8 2.5-.7 4.4-1.5 5.5-2.2 1.8-1.1 2.5-3 .4-4.1-8.1-4.3-23.9-7.1-41.3-7.1-17.2 0-32.8 2.7-41 6.9-1.8.9-1.5 2.7 0 3.9.9.7 2.4 1.4 4.4 2.1 4.3 1.5 10.5 2.8 17.5 3.7l.3-3c-21.2-2.3-35.5-8.1-35.5-13.8 0-7.7 24.7-14.8 55-14.8s55 7.1 55 14.8c-.1 6.4-17.6 12.7-41.9 14.4zm.2 3c26-1.8 44.7-8.5 44.7-17.4 0-10.3-25.9-17.8-58-17.8s-58 7.5-58 17.8c0 8.1 15.4 14.4 38.2 16.8l.3-3c-6.9-.9-12.9-2.2-16.9-3.6-1.7-.6-3-1.2-3.6-1.6-.1-.1-.1-.1-.2-.1 0 .1.1.2.1.3.1.5-.2.8-.4.9 7.7-4 22.9-6.6 39.7-6.6 17 0 32.3 2.6 39.9 6.7-.1 0-.2-.1-.3-.3-.1-.3-.2-.6-.1-.9 0-.1.1-.2.1-.2-.1.1-.2.2-.4.3-.9.5-2.5 1.2-4.8 1.9-5.2 1.6-12.6 2.9-20.8 3.6l.5 3.2zm-91.4-55.2h156v75.2h-156V316z"/></defs><clipPath id="ik"><use xlink:href="#ij" overflow="visible"/></clipPath><g clip-path="url(#ik)"><defs><path id="il" d="M-729.8 369.7c24.8-1.7 43.3-8.2 43.3-15.9 0-9-25.3-16.3-56.5-16.3s-56.5 7.3-56.5 16.3c0 7 15.3 13 36.9 15.3-14.9-1.9-24-5.5-21.4-6.9 7.8-4 22.9-6.8 40.4-6.8 17.6 0 32.9 2.8 40.6 6.9 2.6 1.5-9 5.8-26.8 7.4z"/></defs><clipPath id="im"><use xlink:href="#il" overflow="visible"/></clipPath><g clip-path="url(#im)"><defs><path id="in" d="M-917.6-529h1121V501h-1121z"/></defs></g></g></g><g><defs><path id="io" d="M-729.8 369.7c24.8-1.7 43.3-8.2 43.3-15.9 0-9-25.3-16.3-56.5-16.3s-56.5 7.3-56.5 16.3c0 7 15.3 13 36.9 15.3-14.9-1.9-24-5.5-21.4-6.9 7.8-4 22.9-6.8 40.4-6.8 17.6 0 32.9 2.8 40.6 6.9 2.6 1.5-9 5.8-26.8 7.4z"/></defs><clipPath id="ip"><use xlink:href="#io" overflow="visible"/></clipPath><g clip-path="url(#ip)"><defs><path id="iq" d="M-917.6-529h1121V501h-1121z"/></defs></g></g><g><defs><path id="ir" d="M-743.1 390c-30.3 0-55-7.1-55-14.8v-22l-2.8.8c.3.6 1.1 1.4 2.4 2.4 2 1.6 4.9 3.2 8.6 4.7 10.5 4.1 26.3 6.6 48.5 6.6 19.8 0 34.5-2.6 44.8-7.1 3.7-1.6 6.5-3.3 8.6-5 1.3-1.1 2.1-1.9 2.5-2.5l-2.7-.9v23c.1 7.7-24.6 14.8-54.9 14.8zm0 3c32.1 0 58-7.5 58-17.8v-27.7l-2.7 3.8c0 .1-.2.2-.4.4-.4.4-.9.9-1.6 1.4-1.9 1.5-4.5 3.1-8 4.6-9.9 4.3-24.2 6.8-43.6 6.8-21.8 0-37.3-2.4-47.4-6.4-3.5-1.4-6.1-2.8-7.9-4.2-1-.8-1.5-1.4-1.7-1.6l-2.8-4.5v27.3c.1 10.4 26 17.9 58.1 17.9zm-78-65.5h156V413h-156v-85.5z"/></defs><clipPath id="is"><use xlink:href="#ir" overflow="visible"/></clipPath><g clip-path="url(#is)"><defs><path id="it" d="M-743.1 391.5c31.2 0 56.5-7.3 56.5-16.3v-23s-9.9 13.9-54.8 13.9c-50.2 0-58.2-13-58.2-13v22c0 9.1 25.3 16.4 56.5 16.4z"/></defs><clipPath id="iu"><use xlink:href="#it" overflow="visible"/></clipPath><g clip-path="url(#iu)"><defs><path id="iv" d="M-917.6-529h1121V501h-1121z"/></defs></g></g></g><g><defs><path id="iw" d="M-743.1 391.5c31.2 0 56.5-7.3 56.5-16.3v-23s-9.9 13.9-54.8 13.9c-50.2 0-58.2-13-58.2-13v22c0 9.1 25.3 16.4 56.5 16.4z"/></defs><clipPath id="ix"><use xlink:href="#iw" overflow="visible"/></clipPath><g clip-path="url(#ix)"><defs><path id="iy" d="M-917.6-529h1121V501h-1121z"/></defs></g></g><g><defs><path id="iz" d="M-738.5 426c-8.5 0-15.5-6.9-15.5-15.4s6.9-15.4 15.5-15.4c8.5 0 15.4 6.9 15.4 15.4S-730 426-738.5 426zm0 3c10.2 0 18.4-8.2 18.4-18.4s-8.3-18.4-18.4-18.4-18.5 8.2-18.5 18.4 8.3 18.4 18.5 18.4zm-38.5-56.8h76.9V449H-777v-76.8z"/></defs><clipPath id="iA"><use xlink:href="#iz" overflow="visible"/></clipPath><g clip-path="url(#iA)"><defs><ellipse id="iB" cx="-738.5" cy="410.6" rx="17" ry="16.9"/></defs><clipPath id="iC"><use xlink:href="#iB" overflow="visible"/></clipPath><g clip-path="url(#iC)"><defs><path id="iD" d="M-917.6-529h1121V501h-1121z"/></defs></g></g></g><g><defs><ellipse id="iE" cx="-738.5" cy="410.6" rx="17" ry="16.9"/></defs><clipPath id="iF"><use xlink:href="#iE" overflow="visible"/></clipPath><g clip-path="url(#iF)"><defs><path id="iG" d="M-917.6-529h1121V501h-1121z"/></defs></g></g><g><defs><path id="iH" d="M391.5 10.4h93v117h-93z"/></defs><clipPath id="iI"><use xlink:href="#iH" overflow="visible"/></clipPath><g clip-path="url(#iI)"><defs><path id="iJ" d="M.5-659.1h1121v1030H.5z"/></defs></g></g><g><defs><path id="iK" d="M391.5 10.4h93v117h-93z"/></defs><clipPath id="iL"><use xlink:href="#iK" overflow="visible"/></clipPath><g clip-path="url(#iL)"><defs><path id="iM" d="M.5-659.1h1121v1030H.5z"/></defs></g></g><g><defs><path id="iN" d="M398.5 15.9H397v23h82v-23h-80.5zm0 3h79l-1.5-1.5v20l1.5-1.5h-79l1.5 1.5v-20l-1.5 1.5z"/></defs><clipPath id="iO"><use xlink:href="#iN" overflow="visible"/></clipPath><g clip-path="url(#iO)"><defs><path id="iP" d="M398.5 17.4h79v20h-79z"/></defs><clipPath id="iQ"><use xlink:href="#iP" overflow="visible"/></clipPath><g clip-path="url(#iQ)"><defs><path id="iR" d="M.5-659.1h1121v1030H.5z"/></defs></g></g></g><g><defs><path id="iS" d="M398.5 17.4h79v20h-79z"/></defs><clipPath id="iT"><use xlink:href="#iS" overflow="visible"/></clipPath><g clip-path="url(#iT)"><defs><path id="iU" d="M.5-659.1h1121v1030H.5z"/></defs></g></g><g><defs><path id="iV" d="M398.5 39.9H397v81h82v-81h-80.5zm0 3h79l-1.5-1.5v78l1.5-1.5h-79l1.5 1.5v-78l-1.5 1.5zm-21.5-23h122v121H377v-121z"/></defs><clipPath id="iW"><use xlink:href="#iV" overflow="visible"/></clipPath><g clip-path="url(#iW)"><defs><path id="iX" d="M398.5 41.4h79v78h-79z"/></defs><clipPath id="iY"><use xlink:href="#iX" overflow="visible"/></clipPath><g clip-path="url(#iY)"><defs><path id="iZ" d="M.5-659.1h1121v1030H.5z"/></defs></g></g></g><g><defs><path id="ja" d="M398.5 41.4h79v78h-79z"/></defs><clipPath id="jb"><use xlink:href="#ja" overflow="visible"/></clipPath><g clip-path="url(#jb)"><defs><path id="jc" d="M.5-659.1h1121v1030H.5z"/></defs></g></g><g><defs><path id="jd" d="M391.5 166H390v120h96V166h-94.5zm0 3h93l-1.5-1.5v117l1.5-1.5h-93l1.5 1.5v-117l-1.5 1.5zM370 146h136v160H370V146z"/></defs><clipPath id="je"><use xlink:href="#jd" overflow="visible"/></clipPath><g clip-path="url(#je)"><defs><path id="jf" d="M391.5 167.5h93v117h-93z"/></defs><clipPath id="jg"><use xlink:href="#jf" overflow="visible"/></clipPath><g clip-path="url(#jg)"><defs><path id="jh" d="M-255.5-518h1121V512h-1121z"/></defs></g></g></g><g><defs><path id="ji" d="M391.5 167.5h93v117h-93z"/></defs><clipPath id="jj"><use xlink:href="#ji" overflow="visible"/></clipPath><g clip-path="url(#jj)"><defs><path id="jk" d="M-255.5-518h1121V512h-1121z"/></defs></g></g><g><defs><path id="jl" d="M398.5 173H397v23h82v-23h-80.5zm0 3h79l-1.5-1.5v20l1.5-1.5h-79l1.5 1.5v-20l-1.5 1.5zM377 153h122v63H377v-63z"/></defs><clipPath id="jm"><use xlink:href="#jl" overflow="visible"/></clipPath><g clip-path="url(#jm)"><defs><path id="jn" d="M398.5 174.5h79v20h-79z"/></defs><clipPath id="jo"><use xlink:href="#jn" overflow="visible"/></clipPath><g clip-path="url(#jo)"><defs><path id="jp" d="M-255.5-518h1121V512h-1121z"/></defs></g></g></g><g><defs><path id="jq" d="M398.5 174.5h79v20h-79z"/></defs><clipPath id="jr"><use xlink:href="#jq" overflow="visible"/></clipPath><g clip-path="url(#jr)"><defs><path id="js" d="M-255.5-518h1121V512h-1121z"/></defs></g></g><g><defs><path id="jt" d="M398.5 197H397v81h82v-81h-80.5zm0 3h79l-1.5-1.5v78l1.5-1.5h-79l1.5 1.5v-78l-1.5 1.5zM377 177h122v121H377V177z"/></defs><clipPath id="ju"><use xlink:href="#jt" overflow="visible"/></clipPath><g clip-path="url(#ju)"><defs><path id="jv" d="M398.5 198.5h79v78h-79z"/></defs><clipPath id="jw"><use xlink:href="#jv" overflow="visible"/></clipPath><g clip-path="url(#jw)"><defs><path id="jx" d="M-255.5-518h1121V512h-1121z"/></defs></g></g></g><g><defs><path id="jy" d="M398.5 198.5h79v78h-79z"/></defs><clipPath id="jz"><use xlink:href="#jy" overflow="visible"/></clipPath><g clip-path="url(#jz)"><defs><path id="jA" d="M-255.5-518h1121V512h-1121z"/></defs></g></g><g><defs><path id="jB" d="M143.1 746.9c-27.1 0-49-21.9-49-49s21.9-49 49-49 49 21.9 49 49-21.9 49-49 49zm0 3c28.7 0 52-23.3 52-52s-23.3-52-52-52-52 23.3-52 52 23.3 52 52 52zm-72-124h144v144h-144v-144z"/></defs><clipPath id="jC"><use xlink:href="#jB" overflow="visible"/></clipPath><g clip-path="url(#jC)"><defs><circle id="jD" cx="143.1" cy="697.9" r="50.5"/></defs><clipPath id="jE"><use xlink:href="#jD" overflow="visible"/></clipPath><g clip-path="url(#jE)"><defs><path id="jF" d="M-31.4-38.1h1121v1030h-1121z"/></defs></g></g></g><g><defs><circle id="jG" cx="143.1" cy="697.9" r="50.5"/></defs><clipPath id="jH"><use xlink:href="#jG" overflow="visible"/></clipPath><g clip-path="url(#jH)"><defs><path id="jI" d="M-31.4-38.1h1121v1030h-1121z"/></defs></g></g><g><defs><circle id="jJ" cx="143.1" cy="697.9" r="43.5"/></defs><clipPath id="jK"><use xlink:href="#jJ" overflow="visible"/></clipPath><g clip-path="url(#jK)"><defs><path id="jL" d="M-31.4-38.1h1121v1030h-1121z"/></defs></g></g><g><defs><path id="jM" d="M-454 899.3c-27.1 0-49-21.9-49-49s21.9-49 49-49 49 21.9 49 49c0 27-21.9 49-49 49zm0 3c28.7 0 52-23.3 52-52s-23.3-52-52-52-52 23.3-52 52 23.3 52 52 52zm-72-124h144v144h-144v-144z"/></defs><clipPath id="jN"><use xlink:href="#jM" overflow="visible"/></clipPath><g clip-path="url(#jN)"><defs><circle id="jO" cx="-454" cy="850.3" r="50.5"/></defs><clipPath id="jP"><use xlink:href="#jO" overflow="visible"/></clipPath><g clip-path="url(#jP)"><defs><path id="jQ" d="M-628.5 114.3h1121v1030h-1121z"/></defs></g></g></g><g><defs><circle id="jR" cx="-454" cy="850.3" r="50.5"/></defs><clipPath id="jS"><use xlink:href="#jR" overflow="visible"/></clipPath><g clip-path="url(#jS)"><defs><path id="jT" d="M-628.5 114.3h1121v1030h-1121z"/></defs></g></g><g><defs><circle id="jU" cx="-454" cy="850.3" r="43.5"/></defs><clipPath id="jV"><use xlink:href="#jU" overflow="visible"/></clipPath><g clip-path="url(#jV)"><defs><path id="jW" d="M-628.5 114.3h1121v1030h-1121z"/></defs></g></g></svg>