<svg xmlns="http://www.w3.org/2000/svg" xmlns:xlink="http://www.w3.org/1999/xlink" viewBox="0 0 276 137"><defs><path id="a" d="M-454 121.5c-29.3 0-53-23.7-53-53s23.7-53 53-53 53 23.7 53 53-23.7 53-53 53zm0 3c30.9 0 56-25.1 56-56s-25.1-56-56-56-56 25.1-56 56 25.1 56 56 56z"/></defs><clipPath id="b"><use xlink:href="#a" overflow="visible"/></clipPath><g clip-path="url(#b)"><defs><circle id="c" cx="-454" cy="68.5" r="54.5"/></defs><clipPath id="d"><use xlink:href="#c" overflow="visible"/></clipPath><g clip-path="url(#d)"><defs><path id="e" d="M-632.5-68h1121V962h-1121z"/></defs></g></g><defs><circle id="f" cx="-454" cy="68.5" r="54.5"/></defs><clipPath id="g"><use xlink:href="#f" overflow="visible"/></clipPath><g clip-path="url(#g)"><defs><path id="h" d="M-632.5-68h1121V962h-1121z"/></defs></g><defs><path id="i" d="M-454 100.5c-17.7 0-32-14.3-32-32s14.3-32 32-32 32 14.3 32 32-14.3 32-32 32zm0 3c19.3 0 35-15.7 35-35s-15.7-35-35-35-35 15.7-35 35 15.7 35 35 35zm-55-90h110v110h-110v-110z"/></defs><clipPath id="j"><use xlink:href="#i" overflow="visible"/></clipPath><g clip-path="url(#j)"><defs><circle id="k" cx="-454" cy="68.5" r="33.5"/></defs><clipPath id="l"><use xlink:href="#k" overflow="visible"/></clipPath><g clip-path="url(#l)"><defs><path id="m" d="M-632.5-68h1121V962h-1121z"/></defs></g></g><defs><circle id="n" cx="-454" cy="68.5" r="33.5"/></defs><clipPath id="o"><use xlink:href="#n" overflow="visible"/></clipPath><g clip-path="url(#o)"><defs><path id="p" d="M-632.5-68h1121V962h-1121z"/></defs></g><defs><path id="q" d="M-455.5 14.5h-1.5v13h6v-13h-4.5zm0 3h3L-454 16v10l1.5-1.5h-3l1.5 1.5V16l-1.5 1.5z"/></defs><clipPath id="r"><use xlink:href="#q" overflow="visible"/></clipPath><g clip-path="url(#r)"><defs><path id="s" d="M-455.5 16h3v10h-3z"/></defs><clipPath id="t"><use xlink:href="#s" overflow="visible"/></clipPath><g clip-path="url(#t)"><defs><path id="u" d="M-632.5-68h1121V962h-1121z"/></defs></g></g><defs><path id="v" d="M-455.5 16h3v10h-3z"/></defs><clipPath id="w"><use xlink:href="#v" overflow="visible"/></clipPath><g clip-path="url(#w)"><defs><path id="x" d="M-632.5-68h1121V962h-1121z"/></defs></g><defs><path id="y" d="M-509.5 70.5V72h13v-6h-13v4.5zm3 0v-3L-508 69h10l-1.5-1.5v3l1.5-1.5h-10l1.5 1.5z"/></defs><clipPath id="z"><use xlink:href="#y" overflow="visible"/></clipPath><g clip-path="url(#z)"><defs><path id="A" d="M-508 67.5h10v3h-10z"/></defs><clipPath id="B"><use xlink:href="#A" overflow="visible"/></clipPath><g clip-path="url(#B)"><defs><path id="C" d="M-632.5-68h1121V962h-1121z"/></defs></g></g><defs><path id="D" d="M-508 67.5h10v3h-10z"/></defs><clipPath id="E"><use xlink:href="#D" overflow="visible"/></clipPath><g clip-path="url(#E)"><defs><path id="F" d="M-632.5-68h1121V962h-1121z"/></defs></g><defs><path id="G" d="M-412.5 70.5V72h13v-6h-13v4.5zm3 0v-3L-411 69h10l-1.5-1.5v3l1.5-1.5h-10l1.5 1.5z"/></defs><clipPath id="H"><use xlink:href="#G" overflow="visible"/></clipPath><g clip-path="url(#H)"><defs><path id="I" d="M-411 67.5h10v3h-10z"/></defs><clipPath id="J"><use xlink:href="#I" overflow="visible"/></clipPath><g clip-path="url(#J)"><defs><path id="K" d="M-632.5-68h1121V962h-1121z"/></defs></g></g><defs><path id="L" d="M-411 67.5h10v3h-10z"/></defs><clipPath id="M"><use xlink:href="#L" overflow="visible"/></clipPath><g clip-path="url(#M)"><defs><path id="N" d="M-632.5-68h1121V962h-1121z"/></defs></g><defs><path id="O" d="M-423.5 40.7l1.1 1.1 1.1-1.1 7.1-7.1 1.1-1.1-1.1-1.1-2.1-2.1-1.1-1.1-1.1 1.1-7.1 7.1-1.1 1.1 1.1 1.1 2.1 2.1zm2.1-2.2l-2.1-2.1v2.1l7.1-7.1h-2.1l2.1 2.1v-2.1l-7.1 7.1h2.1z"/></defs><clipPath id="P"><use xlink:href="#O" overflow="visible"/></clipPath><g clip-path="url(#P)"><defs><path id="Q" transform="rotate(45.001 -420.002 35.005)" d="M-421.5 30h3v10h-3z"/></defs><clipPath id="R"><use xlink:href="#Q" overflow="visible"/></clipPath><g clip-path="url(#R)"><defs><path id="S" d="M-632.5-68h1121V962h-1121z"/></defs></g></g><defs><path id="T" transform="rotate(45.001 -420.002 35.005)" d="M-421.5 30h3v10h-3z"/></defs><clipPath id="U"><use xlink:href="#T" overflow="visible"/></clipPath><g clip-path="url(#U)"><defs><path id="V" d="M-632.5-68h1121V962h-1121z"/></defs></g><defs><path id="W" d="M-483.3 39.5l1.1-1.1-1.1-1.1-7.1-7.1-1.1-1.1-1.1 1.1-2.1 2.1-1.1 1.1 1.1 1.1 7.1 7.1 1.1 1.1 1.1-1.1 2.1-2.1zm-2.2-2.1l-2.1 2.1h2.1l-7.1-7.1v2.1l2.1-2.1h-2.1l7.1 7.1v-2.1z"/></defs><clipPath id="X"><use xlink:href="#W" overflow="visible"/></clipPath><g clip-path="url(#X)"><defs><path id="Y" transform="rotate(-45.001 -489.003 35.995)" d="M-490.5 31h3v10h-3z"/></defs><clipPath id="Z"><use xlink:href="#Y" overflow="visible"/></clipPath><g clip-path="url(#Z)"><defs><path id="aa" d="M-632.5-68h1121V962h-1121z"/></defs></g></g><defs><path id="ab" transform="rotate(-45.001 -489.003 35.995)" d="M-490.5 31h3v10h-3z"/></defs><clipPath id="ac"><use xlink:href="#ab" overflow="visible"/></clipPath><g clip-path="url(#ac)"><defs><path id="ad" d="M-632.5-68h1121V962h-1121z"/></defs></g><defs><path id="ae" d="M-423.5 96.3l1.1-1.1 1.1 1.1 7.1 7.1 1.1 1.1-1.1 1.1-2.1 2.1-1.1 1.1-1.1-1.1-7.1-7.1-1.1-1.1 1.1-1.1 2.1-2.1zm2.1 2.2l-2.1 2.1v-2.1l7.1 7.1h-2.1l2.1-2.1v2.1l-7.1-7.1h2.1z"/></defs><clipPath id="af"><use xlink:href="#ae" overflow="visible"/></clipPath><g clip-path="url(#af)"><defs><path id="ag" transform="rotate(-45.001 -420.003 101.995)" d="M-421.5 97h3v10h-3z"/></defs><clipPath id="ah"><use xlink:href="#ag" overflow="visible"/></clipPath><g clip-path="url(#ah)"><defs><path id="ai" d="M-632.5-68h1121V962h-1121z"/></defs></g></g><defs><path id="aj" transform="rotate(-45.001 -420.003 101.995)" d="M-421.5 97h3v10h-3z"/></defs><clipPath id="ak"><use xlink:href="#aj" overflow="visible"/></clipPath><g clip-path="url(#ak)"><defs><path id="al" d="M-632.5-68h1121V962h-1121z"/></defs></g><defs><path id="am" d="M-483.3 99.5l1.1 1.1-1.1 1.1-7.1 7.1-1.1 1.1-1.1-1.1-2.1-2.1-1.1-1.1 1.1-1.1 7.1-7.1 1.1-1.1 1.1 1.1 2.1 2.1zm-2.2 2.1l-2.1-2.1h2.1l-7.1 7.1v-2.1l2.1 2.1h-2.1l7.1-7.1v2.1z"/></defs><clipPath id="an"><use xlink:href="#am" overflow="visible"/></clipPath><g clip-path="url(#an)"><defs><path id="ao" transform="rotate(45.001 -489.001 103.006)" d="M-490.5 98h3v10h-3z"/></defs><clipPath id="ap"><use xlink:href="#ao" overflow="visible"/></clipPath><g clip-path="url(#ap)"><defs><path id="aq" d="M-632.5-68h1121V962h-1121z"/></defs></g></g><defs><path id="ar" transform="rotate(45.001 -489.001 103.006)" d="M-490.5 98h3v10h-3z"/></defs><clipPath id="as"><use xlink:href="#ar" overflow="visible"/></clipPath><g clip-path="url(#as)"><defs><path id="at" d="M-632.5-68h1121V962h-1121z"/></defs></g><defs><path id="au" d="M-444.4 47.9c.7.3 1.5.6 2.2 1 1.3.7 2.5 1.6 3.6 2.4.4.3.7.6 1 .9.2.2.3.3.4.3l1.6 1.6-.3-2.2-2.1-14.7-.2-1.2-1 .6-12.3 8-1.8 1.2 2.1.2c.1 0 .3 0 .5.1.4.1.9.2 1.5.3 1.4.3 3.1.8 4.8 1.5zm7.5 4c-.1-.1-.4-.3-.7-.6l.1.9.6-.3zm0-1l.1.9.6-.3-.4-.4c-.1 0-.2-.1-.3-.2zm-1.9-13.1v.3l.3-.2-.3-.1zm-.8 0l.3-.2-.3-.2v.4zm-11.4 7.4l.7-.5h-.3c-.3 0-.5-.1-.6-.1l.2.6zm.9.3c-.4-.1-.7-.1-.9-.1l.1.6.8-.5z"/></defs><clipPath id="av"><use xlink:href="#au" overflow="visible"/></clipPath><g clip-path="url(#av)"><defs><path id="aw" d="M-632.5-68h1121V962h-1121z"/></defs></g><defs><path id="ax" d="M-444.2 47.2c-3.9-1.6-7.1-1.9-7.1-1.9l12.3-8 2.1 14.7c.2.1-3.1-3.1-7.3-4.8zm-25-11.1l37.2-15.8 15.8 37.2-37.2 15.8-15.8-37.2z"/></defs><clipPath id="ay"><use xlink:href="#ax" overflow="visible"/></clipPath><g clip-path="url(#ay)"><defs><path id="az" d="M-632.5-68h1121V962h-1121z"/></defs></g><defs><path id="aA" d="M-454 92.5c-13.3 0-24-10.7-24-24s10.7-24 24-24 24 10.7 24 24-10.7 24-24 24zm0 3c14.9 0 27-12.1 27-27s-12.1-27-27-27-27 12.1-27 27 12.1 27 27 27zm-47-74h94v94h-94v-94z"/></defs><clipPath id="aB"><use xlink:href="#aA" overflow="visible"/></clipPath><g clip-path="url(#aB)"><defs><circle id="aC" cx="-454" cy="68.5" r="25.5"/></defs><clipPath id="aD"><use xlink:href="#aC" overflow="visible"/></clipPath><g clip-path="url(#aD)"><defs><path id="aE" d="M-632.5-68h1121V962h-1121z"/></defs></g></g><defs><circle id="aF" cx="-454" cy="68.5" r="25.5"/></defs><clipPath id="aG"><use xlink:href="#aF" overflow="visible"/></clipPath><g clip-path="url(#aG)"><defs><path id="aH" d="M-632.5-68h1121V962h-1121z"/></defs></g><defs><path id="aI" d="M-163.8 7.5h-1.5v18h19v-18h-17.5zm0 3h16l-1.5-1.5v15l1.5-1.5h-16l1.5 1.5V9l-1.5 1.5z"/></defs><clipPath id="aJ"><use xlink:href="#aI" overflow="visible"/></clipPath><g clip-path="url(#aJ)"><defs><path id="aK" d="M-163.8 9h16v15h-16z"/></defs><clipPath id="aL"><use xlink:href="#aK" overflow="visible"/></clipPath><g clip-path="url(#aL)"><defs><path id="aM" d="M-584.8-67.5h1121v1030h-1121z"/></defs></g></g><defs><path id="aN" d="M-163.8 9h16v15h-16z"/></defs><clipPath id="aO"><use xlink:href="#aN" overflow="visible"/></clipPath><g clip-path="url(#aO)"><defs><path id="aP" d="M-584.8-67.5h1121v1030h-1121z"/></defs></g><defs><path id="aQ" d="M-187.8 19.5h-1.5v43h67v-43h-65.5zm0 3h64l-1.5-1.5v40l1.5-1.5h-64l1.5 1.5V21l-1.5 1.5z"/></defs><clipPath id="aR"><use xlink:href="#aQ" overflow="visible"/></clipPath><g clip-path="url(#aR)"><defs><path id="aS" d="M-187.8 21h64v40h-64z"/></defs><clipPath id="aT"><use xlink:href="#aS" overflow="visible"/></clipPath><g clip-path="url(#aT)"><defs><path id="aU" d="M-584.8-67.5h1121v1030h-1121z"/></defs></g></g><defs><path id="aV" d="M-187.8 21h64v40h-64z"/></defs><clipPath id="aW"><use xlink:href="#aV" overflow="visible"/></clipPath><g clip-path="url(#aW)"><defs><path id="aX" d="M-584.8-67.5h1121v1030h-1121z"/></defs></g><defs><path id="aY" d="M-152.8 29.5h-1.5v33h22v-33h-20.5zm0 3h19l-1.5-1.5v30l1.5-1.5h-19l1.5 1.5V31l-1.5 1.5z"/></defs><clipPath id="aZ"><use xlink:href="#aY" overflow="visible"/></clipPath><g clip-path="url(#aZ)"><defs><path id="ba" d="M-152.8 31h19v30h-19z"/></defs><clipPath id="bb"><use xlink:href="#ba" overflow="visible"/></clipPath><g clip-path="url(#bb)"><defs><path id="bc" d="M-584.8-67.5h1121v1030h-1121z"/></defs></g></g><defs><path id="bd" d="M-152.8 31h19v30h-19z"/></defs><clipPath id="be"><use xlink:href="#bd" overflow="visible"/></clipPath><g clip-path="url(#be)"><defs><path id="bf" d="M-584.8-67.5h1121v1030h-1121z"/></defs></g><defs><path id="bg" d="M-177.8 29.5h-1.5v33h22v-33h-20.5zm0 3h19l-1.5-1.5v30l1.5-1.5h-19l1.5 1.5V31l-1.5 1.5z"/></defs><clipPath id="bh"><use xlink:href="#bg" overflow="visible"/></clipPath><g clip-path="url(#bh)"><defs><path id="bi" d="M-177.8 31h19v30h-19z"/></defs><clipPath id="bj"><use xlink:href="#bi" overflow="visible"/></clipPath><g clip-path="url(#bj)"><defs><path id="bk" d="M-584.8-67.5h1121v1030h-1121z"/></defs></g></g><defs><path id="bl" d="M-177.8 31h19v30h-19z"/></defs><clipPath id="bm"><use xlink:href="#bl" overflow="visible"/></clipPath><g clip-path="url(#bm)"><defs><path id="bn" d="M-584.8-67.5h1121v1030h-1121z"/></defs></g><defs><path id="bo" d="M-208.3 87.7c0 2.9-.8 7-2.3 11.9-.6 2.1-1.3 4.3-2.1 6.5-1 2.7-2 5.4-3.1 8-.4.9-.7 1.7-1 2.4-.2.4-.3.7-.4.9l-.9 2.1H-98.7l-.7-2c-.1-.2-.2-.4-.3-.9-.2-.7-.5-1.5-.8-2.4-.8-2.5-1.6-5.2-2.4-7.9-.7-2.4-1.3-4.8-1.8-7-1.1-4.8-1.7-8.8-1.7-11.8 0-2.8.7-7 1.9-12 .5-1.9 1-3.9 1.6-6 .8-2.7 1.6-5.4 2.4-7.9.3-.9.5-1.7.8-2.4.1-.4.2-.7.3-.9l.7-2H-218.1l1 2.1c.1.1.2.4.4.9.3.7.6 1.5 1 2.4 1 2.5 2.1 5.1 3.1 7.8.8 2.2 1.5 4.4 2.1 6.4 1.4 5 2.2 9 2.2 11.8zm3 0c0-3.2-.9-7.5-2.4-12.5-.6-2.1-1.4-4.3-2.2-6.5-1-2.7-2.1-5.4-3.1-8-.4-.9-.7-1.7-1-2.4-.2-.4-.3-.7-.4-.9l-1.4 2.1h115l-1.4-2c-.1.2-.2.5-.3.9-.2.7-.5 1.5-.8 2.4-.8 2.6-1.7 5.3-2.4 8-.6 2.1-1.1 4.1-1.6 6.1-1.3 5.2-2 9.5-2 12.7 0 3.2.6 7.4 1.7 12.4.5 2.3 1.1 4.7 1.8 7.1.8 2.8 1.6 5.5 2.4 8.1.3.9.6 1.7.8 2.4.1.4.2.7.3.9l1.4-2h-115l1.4 2.1c.1-.2.2-.5.4-.9.3-.7.7-1.5 1-2.4 1.1-2.6 2.1-5.3 3.1-8.1.8-2.3 1.6-4.5 2.2-6.7 1.7-5.2 2.5-9.5 2.5-12.8z"/></defs><clipPath id="bp"><use xlink:href="#bo" overflow="visible"/></clipPath><g clip-path="url(#bp)"><defs><path id="bq" d="M-206.8 87.7c0-9.9-9-29.7-9-29.7h115s-7 20-7 29.6c0 10.5 7 30.4 7 30.4h-115s9-20.2 9-30.3z"/></defs><clipPath id="br"><use xlink:href="#bq" overflow="visible"/></clipPath><g clip-path="url(#br)"><defs><path id="bs" d="M-584.8-67.5h1121v1030h-1121z"/></defs></g></g><defs><path id="bt" d="M-206.8 87.7c0-9.9-9-29.7-9-29.7h115s-7 20-7 29.6c0 10.5 7 30.4 7 30.4h-115s9-20.2 9-30.3z"/></defs><clipPath id="bu"><use xlink:href="#bt" overflow="visible"/></clipPath><g clip-path="url(#bu)"><defs><path id="bv" d="M-584.8-67.5h1121v1030h-1121z"/></defs></g><defs><path id="bw" d="M-192.8 88.5h-1.5v6h72v-6h-70.5zm0 3h69l-1.5-1.5v3l1.5-1.5h-69l1.5 1.5v-3l-1.5 1.5zm-21.5-23h112v46h-112v-46z"/></defs><clipPath id="bx"><use xlink:href="#bw" overflow="visible"/></clipPath><g clip-path="url(#bx)"><defs><path id="by" d="M-192.8 90h69v3h-69z"/></defs><clipPath id="bz"><use xlink:href="#by" overflow="visible"/></clipPath><g clip-path="url(#bz)"><defs><path id="bA" d="M-584.8-67.5h1121v1030h-1121z"/></defs></g></g><defs><path id="bB" d="M-192.8 90h69v3h-69z"/></defs><clipPath id="bC"><use xlink:href="#bB" overflow="visible"/></clipPath><g clip-path="url(#bC)"><defs><path id="bD" d="M-584.8-67.5h1121v1030h-1121z"/></defs></g><defs><path id="bE" d="M-192.8 80.5h-1.5v6h72v-6h-70.5zm0 3h69l-1.5-1.5v3l1.5-1.5h-69l1.5 1.5v-3l-1.5 1.5zm-21.5-23h112v46h-112v-46z"/></defs><clipPath id="bF"><use xlink:href="#bE" overflow="visible"/></clipPath><g clip-path="url(#bF)"><defs><path id="bG" d="M-192.8 82h69v3h-69z"/></defs><clipPath id="bH"><use xlink:href="#bG" overflow="visible"/></clipPath><g clip-path="url(#bH)"><defs><path id="bI" d="M-584.8-67.5h1121v1030h-1121z"/></defs></g></g><defs><path id="bJ" d="M-192.8 82h69v3h-69z"/></defs><clipPath id="bK"><use xlink:href="#bJ" overflow="visible"/></clipPath><g clip-path="url(#bK)"><defs><path id="bL" d="M-584.8-67.5h1121v1030h-1121z"/></defs></g><defs><path id="bM" d="M-160.8 95.9l.5 1.6 1.5-.7c2-.9 4.2-1.3 6.4-1.3 6 0 11.3 3.3 14.1 8.4l.5 1 1.1-.2c.6-.1 1.2-.2 1.8-.2 3.5 0 6.6 2.1 7.9 5.3l.5 1.2 1.3-.3c.4-.1.9-.2 1.4-.2 3 0 5.5 2.5 5.5 5.5s-2.5 5.5-5.5 5.5c-1.5 0-2.9-.6-3.9-1.6l-.9-.9-1 .8c-1.5 1.1-3.3 1.7-5.1 1.7-1.1 0-2.2-.2-3.2-.6l-1-.4-.7.9c-3 3.8-7.6 6.1-12.6 6.1-4.9 0-9.5-2.3-12.5-6l-.7-.8-1 .3c-1.1.4-2.2.5-3.3.5-2 0-4-.6-5.7-1.7l-.8-.5-.8.5c-1.7 1.1-3.6 1.7-5.7 1.7-2.2 0-4.3-.7-6-1.9l-1.1-.7-.9.9c-1 1.1-2.5 1.7-4 1.7-3 0-5.5-2.5-5.5-5.5s2.5-5.5 5.5-5.5H-193.3l.2-1.3c.8-5 5.2-8.7 10.4-8.7h1.5V99c0-5.8 4.7-10.5 10.5-10.5 4.6 0 8.6 3 9.9 7.4zm2.9-.9c-1.7-5.6-6.9-9.5-12.9-9.5-7.5 0-13.5 6-13.5 13.5l1.5-1.5c-6.6 0-12.2 4.8-13.3 11.3l1.5.2v-1.5h-.2c-4.7 0-8.5 3.8-8.5 8.5s3.8 8.5 8.5 8.5c2.4 0 4.6-1 6.2-2.7l-2 .2c2.3 1.6 5 2.5 7.8 2.5 2.6 0 5.2-.8 7.3-2.2h-1.6c2.2 1.4 4.7 2.2 7.3 2.2 1.5 0 2.9-.2 4.3-.7l-.5-1.4-1.2.9c3.6 4.5 9 7.2 14.9 7.2s11.4-2.7 15-7.3l-1.2-.9-.6 1.4c1.3.5 2.8.8 4.3.8 2.6 0 5-.8 7-2.4l-2-.1c1.6 1.6 3.7 2.5 6 2.5 4.7 0 8.5-3.8 8.5-8.5s-3.8-8.5-8.5-8.5c-.7 0-1.4.1-2.1.3l.4 1.5 1.4-.6c-1.8-4.3-5.9-7.2-10.6-7.2-.8 0-1.6.1-2.4.2l.3 1.5 1.3-.7c-3.3-6.1-9.7-10-16.7-10-2.7 0-5.2.5-7.6 1.6l1.9.9zm-65.4-29.5h128v85h-128v-85z"/></defs><clipPath id="bN"><use xlink:href="#bM" overflow="visible"/></clipPath><g clip-path="url(#bN)"><defs><path id="bO" d="M-159.3 95.5c-1.5-4.9-6.1-8.5-11.5-8.5-6.6 0-12 5.4-12 12-5.9 0-10.9 4.3-11.8 10h-.2c-3.9 0-7 3.1-7 7s3.1 7 7 7c2 0 3.8-.8 5.1-2.2 2 1.4 4.3 2.2 6.9 2.2 2.4 0 4.6-.7 6.5-1.9 1.9 1.2 4.1 1.9 6.5 1.9 1.3 0 2.6-.2 3.8-.6 3.2 4 8.2 6.6 13.7 6.6 5.6 0 10.6-2.6 13.8-6.7 1.1.5 2.4.7 3.7.7 2.3 0 4.4-.8 6.1-2 1.3 1.3 3 2 4.9 2 3.9 0 7-3.1 7-7s-3.1-7-7-7c-.6 0-1.2.1-1.7.2-1.5-3.6-5.1-6.2-9.3-6.2-.7 0-1.4.1-2.1.2-3-5.5-8.8-9.2-15.4-9.2-2.5 0-4.9.5-7 1.5z"/></defs><clipPath id="bP"><use xlink:href="#bO" overflow="visible"/></clipPath><g clip-path="url(#bP)"><defs><path id="bQ" d="M-584.8-67.5h1121v1030h-1121z"/></defs></g></g><defs><path id="bR" d="M-159.3 95.5c-1.5-4.9-6.1-8.5-11.5-8.5-6.6 0-12 5.4-12 12-5.9 0-10.9 4.3-11.8 10h-.2c-3.9 0-7 3.1-7 7s3.1 7 7 7c2 0 3.8-.8 5.1-2.2 2 1.4 4.3 2.2 6.9 2.2 2.4 0 4.6-.7 6.5-1.9 1.9 1.2 4.1 1.9 6.5 1.9 1.3 0 2.6-.2 3.8-.6 3.2 4 8.2 6.6 13.7 6.6 5.6 0 10.6-2.6 13.8-6.7 1.1.5 2.4.7 3.7.7 2.3 0 4.4-.8 6.1-2 1.3 1.3 3 2 4.9 2 3.9 0 7-3.1 7-7s-3.1-7-7-7c-.6 0-1.2.1-1.7.2-1.5-3.6-5.1-6.2-9.3-6.2-.7 0-1.4.1-2.1.2-3-5.5-8.8-9.2-15.4-9.2-2.5 0-4.9.5-7 1.5z"/></defs><clipPath id="bS"><use xlink:href="#bR" overflow="visible"/></clipPath><g clip-path="url(#bS)"><defs><path id="bT" d="M-584.8-67.5h1121v1030h-1121z"/></defs></g><defs><path id="bU" d="M111.7 60.4l56 32.4s-1.5 14.3-8.3 24.7c-6.8 10.4-24.1 17.2-24.1 17.2L81.8 96.2s13.7-4.3 21.6-13.8 8.3-22 8.3-22z"/></defs><clipPath id="bV"><use xlink:href="#bU" overflow="visible"/></clipPath><g clip-path="url(#bV)"><defs><path id="bW" d="M-543.3-66.8h1121v1030h-1121z"/></defs><clipPath id="bX"><use xlink:href="#bW" overflow="visible"/></clipPath><path clip-path="url(#bX)" fill="#FFF" d="M76.8 55.4h95.8v84.3H76.8z"/></g><path fill="none" stroke="#0C1F2E" stroke-width="3" stroke-linecap="round" stroke-miterlimit="10" d="M111.7 60.4l56 32.4s-1.5 14.3-8.3 24.7-24.1 17.2-24.1 17.2L81.8 96.2s13.7-4.3 21.6-13.8 8.3-22 8.3-22z"/><defs><path id="bY" d="M137.2 74.2L159 23.6l6.2 2.7-22.4 51z"/></defs><clipPath id="bZ"><use xlink:href="#bY" overflow="visible"/></clipPath><g clip-path="url(#bZ)"><defs><path id="ca" d="M-543.3-66.8h1121v1030h-1121z"/></defs><clipPath id="cb"><use xlink:href="#ca" overflow="visible"/></clipPath><path clip-path="url(#cb)" fill="#FFF" d="M132.2 18.6h38v63.7h-38z"/></g><path fill="none" stroke="#0C1F2E" stroke-width="3" stroke-linecap="round" stroke-miterlimit="10" d="M137.2 74.2L159 23.6l6.2 2.7-22.4 51z"/><defs><path id="cc" d="M102.3 100.6l1.2.9.9-1.2c-1.5-1-3.3-1.6-5.1-1.6-5 0-9 4-9 9 0 3.8 2.4 7.2 6 8.5l-1-1.4c0 4.9 4.1 8.9 9 8.9 1.4 0 2.8-.3 4.1-1l-.7-1.3-1.4.6c1.9 4 5.9 6.7 10.4 6.7 6.4 0 11.5-5.1 11.5-11.5 0-1.2-.2-2.5-.6-3.6l-1.4.5.8 1.3c2.6-1.6 4.2-4.5 4.2-7.6 0-5-4-9-9-9-1.2 0-2.3.2-3.4.7l.6 1.4 1.1-1c-2.2-2.6-5.4-4.1-8.8-4.1-3.8-.1-7.3 1.8-9.4 4.8zm2.4 1.7c1.6-2.3 4.2-3.7 7-3.7 2.5 0 4.9 1.1 6.5 3l.7.8 1-.4c.7-.3 1.5-.4 2.3-.4 3.3 0 6 2.7 6 6 0 2.1-1.1 4-2.8 5.1l-1 .6.4 1.1c.3.9.4 1.8.4 2.7 0 4.7-3.8 8.5-8.5 8.5-3.4 0-6.3-2-7.7-4.9l-.7-1.4-1.3.7c-.8.4-1.8.7-2.7.7-3.3 0-6-2.7-6-5.9v-1.1l-1-.3c-2.4-.8-4-3.1-4-5.7 0-3.3 2.7-6 6-6 1.2 0 2.4.4 3.4 1.1l1.2.9.8-1.4zM70.2 75.7h81v73h-81v-73z"/></defs><clipPath id="cd"><use xlink:href="#cc" overflow="visible"/></clipPath><g clip-path="url(#cd)"><defs><path id="ce" d="M103.5 101.5c1.8-2.6 4.8-4.3 8.2-4.3 3.1 0 5.8 1.4 7.7 3.6.9-.4 1.8-.6 2.8-.6 4.1 0 7.5 3.4 7.5 7.5 0 2.7-1.4 5-3.5 6.3.3 1 .5 2 .5 3.2 0 5.5-4.5 10-10 10-4 0-7.5-2.4-9.1-5.8-1 .5-2.2.8-3.4.8-4.1 0-7.5-3.3-7.5-7.4-2.9-1-5-3.8-5-7.1 0-4.1 3.4-7.5 7.5-7.5 1.6 0 3.1.5 4.3 1.3z"/></defs><clipPath id="cf"><use xlink:href="#ce" overflow="visible"/></clipPath><g clip-path="url(#cf)"><defs><path id="cg" d="M-543.3-66.8h1121v1030h-1121z"/></defs><clipPath id="ch"><use xlink:href="#cg" overflow="visible"/></clipPath><path clip-path="url(#ch)" fill-rule="evenodd" clip-rule="evenodd" fill="#FFF" d="M103.5 101.5c1.8-2.6 4.8-4.3 8.2-4.3 3.1 0 5.8 1.4 7.7 3.6.9-.4 1.8-.6 2.8-.6 4.1 0 7.5 3.4 7.5 7.5 0 2.7-1.4 5-3.5 6.3.3 1 .5 2 .5 3.2 0 5.5-4.5 10-10 10-4 0-7.5-2.4-9.1-5.8-1 .5-2.2.8-3.4.8-4.1 0-7.5-3.3-7.5-7.4-2.9-1-5-3.8-5-7.1 0-4.1 3.4-7.5 7.5-7.5 1.6 0 3.1.5 4.3 1.3z"/></g></g><defs><path id="ci" d="M103.5 101.5c1.8-2.6 4.8-4.3 8.2-4.3 3.1 0 5.8 1.4 7.7 3.6.9-.4 1.8-.6 2.8-.6 4.1 0 7.5 3.4 7.5 7.5 0 2.7-1.4 5-3.5 6.3.3 1 .5 2 .5 3.2 0 5.5-4.5 10-10 10-4 0-7.5-2.4-9.1-5.8-1 .5-2.2.8-3.4.8-4.1 0-7.5-3.3-7.5-7.4-2.9-1-5-3.8-5-7.1 0-4.1 3.4-7.5 7.5-7.5 1.6 0 3.1.5 4.3 1.3z"/></defs><clipPath id="cj"><use xlink:href="#ci" overflow="visible"/></clipPath><g clip-path="url(#cj)"><defs><path id="ck" d="M-543.3-66.8h1121v1030h-1121z"/></defs><clipPath id="cl"><use xlink:href="#ck" overflow="visible"/></clipPath><path clip-path="url(#cl)" fill="none" stroke="#0C1F2E" stroke-width="6" stroke-linecap="round" stroke-miterlimit="10" d="M103.5 101.5c1.8-2.6 4.8-4.3 8.2-4.3 3.1 0 5.8 1.4 7.7 3.6.9-.4 1.8-.6 2.8-.6 4.1 0 7.5 3.4 7.5 7.5 0 2.7-1.4 5-3.5 6.3.3 1 .5 2 .5 3.2 0 5.5-4.5 10-10 10-4 0-7.5-2.4-9.1-5.8-1 .5-2.2.8-3.4.8-4.1 0-7.5-3.3-7.5-7.4-2.9-1-5-3.8-5-7.1 0-4.1 3.4-7.5 7.5-7.5 1.6 0 3.1.5 4.3 1.3z"/></g><defs><path id="cm" d="M159.7 16.8l10.2 4.4 2-4.4-10.3-4-1.9 4zm-8.5 2.7l22.8 9.7 7.1-15.4-23.3-8.4-6.6 14.1z"/></defs><clipPath id="cn"><use xlink:href="#cm" overflow="visible"/></clipPath><g clip-path="url(#cn)"><defs><path id="co" d="M-543.3-66.8h1121v1030h-1121z"/></defs><clipPath id="cp"><use xlink:href="#co" overflow="visible"/></clipPath><path clip-path="url(#cp)" fill="#FFF" d="M146.2.3h40v33.8h-40z"/></g><path fill="none" stroke="#0C1F2E" stroke-width="3" stroke-linecap="round" stroke-miterlimit="10" d="M159.7 16.8l10.2 4.4 2-4.4-10.3-4-1.9 4zm-8.5 2.7l22.8 9.7 7.1-15.4-23.3-8.4-6.6 14.1z"/><defs><path id="cq" d="M432.1 4.4c30.3 0 55 7.1 55 14.8v22l1.7-1.5c-.1 0-.2 0-.4-.1-.4-.1-.8-.1-1.3-.2-1.4-.2-2.9-.4-4.6-.6-4.9-.7-10-1.3-15.2-2-3.9-.5-7.7-.9-11.3-1.3-9.9-1-18.1-1.6-23.9-1.6-5.2 0-14.3.8-26.1 2.3-2.5.3-5.1.6-7.7 1-5.4.7-10.9 1.5-16.1 2.3-1.8.3-3.5.5-5 .8-.5.1-1 .2-1.4.2-.2 0-.4.1-.5.1l1.7 1.5v-23c.1-7.6 24.8-14.7 55.1-14.7zm0-3c-32.1 0-58 7.5-58 17.8V44l1.7-.3c.1 0 .2 0 .5-.1.4-.1.8-.1 1.4-.2 1.5-.2 3.1-.5 5-.8 5.2-.8 10.7-1.6 16.1-2.3 2.6-.4 5.2-.7 7.7-1 11.7-1.5 20.7-2.3 25.7-2.3 5.6 0 13.7.6 23.6 1.6 3.6.4 7.4.8 11.2 1.3 5.2.6 10.3 1.3 15.2 2 1.7.2 3.2.4 4.6.6.5.1.9.1 1.2.2.2 0 .4.1.4.1l1.7.3V19.4c0-10.6-25.9-18-58-18zm-78-20h156v82.5h-156v-82.5z"/></defs><clipPath id="cr"><use xlink:href="#cq" overflow="visible"/></clipPath><g clip-path="url(#cr)"><defs><path id="cs" d="M432.1 2.9c-31.2 0-56.5 7.3-56.5 16.3v23s42.2-6.7 56.5-6.7c18 0 56.5 5.7 56.5 5.7v-22c0-9-25.3-16.3-56.5-16.3z"/></defs><clipPath id="ct"><use xlink:href="#cs" overflow="visible"/></clipPath><g clip-path="url(#ct)"><defs><path id="cu" d="M-483.4-79.9h1121v1030h-1121z"/></defs></g></g><defs><path id="cv" d="M432.1 2.9c-31.2 0-56.5 7.3-56.5 16.3v23s42.2-6.7 56.5-6.7c18 0 56.5 5.7 56.5 5.7v-22c0-9-25.3-16.3-56.5-16.3z"/></defs><clipPath id="cw"><use xlink:href="#cv" overflow="visible"/></clipPath><g clip-path="url(#cw)"><defs><path id="cx" d="M-483.4-79.9h1121v1030h-1121z"/></defs></g><defs><path id="cy" d="M432.1 26.6c30.3 0 55 7.1 55 14.8s-24.7 14.8-55 14.8-55-7.1-55-14.8 24.7-14.8 55-14.8zm0-3c-32.1 0-58 7.5-58 17.8s25.9 17.8 58 17.8 58-7.5 58-17.8-25.9-17.8-58-17.8zm-78-20h156v75.6h-156V3.6z"/></defs><clipPath id="cz"><use xlink:href="#cy" overflow="visible"/></clipPath><g clip-path="url(#cz)"><defs><ellipse id="cA" cx="432.1" cy="41.5" rx="56.5" ry="16.3"/></defs><clipPath id="cB"><use xlink:href="#cA" overflow="visible"/></clipPath><g clip-path="url(#cB)"><defs><path id="cC" d="M-483.4-79.9h1121v1030h-1121z"/></defs></g></g><defs><ellipse id="cD" cx="432.1" cy="41.5" rx="56.5" ry="16.3"/></defs><clipPath id="cE"><use xlink:href="#cD" overflow="visible"/></clipPath><g clip-path="url(#cE)"><defs><path id="cF" d="M-483.4-79.9h1121v1030h-1121z"/></defs></g><defs><path id="cG" d="M392.1 45.8c0-5.3 18-10.4 40-10.4s40 5.2 40 10.4v7.1l1.2-1.5c-.1 0-.1 0-.3.1-.3 0-.6.1-.9.2-1 .2-2.1.3-3.4.5-3.6.6-7.3 1.1-11.1 1.7-2.9.4-5.6.8-8.3 1.1-7.2.9-13.1 1.3-17.2 1.3-3.7 0-10.3-.5-18.9-1.4-1.8-.2-3.7-.4-5.6-.6-4-.5-8-.9-11.8-1.4-1.3-.2-2.6-.3-3.6-.5-.4 0-.7-.1-1-.1h-.3l1.3 1.5v-8zm-3 0v9.1l1.3.2h.4c.3 0 .6.1 1 .1 1.1.1 2.3.3 3.7.5a11776882415803102 11776882415803102 0 0 0 36.7 3.5c4.3 0 10.3-.5 17.6-1.4 2.7-.3 5.4-.7 8.3-1.1 3.8-.5 7.6-1.1 11.2-1.7 1.3-.2 2.4-.4 3.4-.5.4-.1.7-.1.9-.2.3 0 .3 0 .3-.1l1.2-.2v-8.4c0-7.9-19.2-13.4-43-13.4s-43 5.7-43 13.6zm-20-33.4h126v66.9h-126V12.4z"/></defs><clipPath id="cH"><use xlink:href="#cG" overflow="visible"/></clipPath><g clip-path="url(#cH)"><defs><path id="cI" d="M390.6 45.8v7.8s31 4.1 41.5 4.1c13.2 0 41.5-4.8 41.5-4.8v-7.1c0-6.6-18.6-11.9-41.5-11.9s-41.5 5.3-41.5 11.9z"/></defs><clipPath id="cJ"><use xlink:href="#cI" overflow="visible"/></clipPath><g clip-path="url(#cJ)"><defs><path id="cK" d="M-483.4-79.9h1121v1030h-1121z"/></defs></g></g><defs><path id="cL" d="M390.6 45.8v7.8s31 4.1 41.5 4.1c13.2 0 41.5-4.8 41.5-4.8v-7.1c0-6.6-18.6-11.9-41.5-11.9s-41.5 5.3-41.5 11.9z"/></defs><clipPath id="cM"><use xlink:href="#cL" overflow="visible"/></clipPath><g clip-path="url(#cM)"><defs><path id="cN" d="M-483.4-79.9h1121v1030h-1121z"/></defs></g><defs><path id="cO" d="M432.1 43.7c22 0 40 5.2 40 10.4 0 5.3-18 10.4-40 10.4s-40-5.2-40-10.4 18-10.4 40-10.4zm0-3c-23.8 0-43 5.5-43 13.4s19.2 13.4 43 13.4 43-5.5 43-13.4-19.2-13.4-43-13.4zm-63-20h126v66.9h-126V20.7z"/></defs><clipPath id="cP"><use xlink:href="#cO" overflow="visible"/></clipPath><g clip-path="url(#cP)"><defs><ellipse id="cQ" cx="432.1" cy="54.1" rx="41.5" ry="11.9"/></defs><clipPath id="cR"><use xlink:href="#cQ" overflow="visible"/></clipPath><g clip-path="url(#cR)"><defs><path id="cS" d="M-483.4-79.9h1121v1030h-1121z"/></defs></g></g><defs><ellipse id="cT" cx="432.1" cy="54.1" rx="41.5" ry="11.9"/></defs><clipPath id="cU"><use xlink:href="#cT" overflow="visible"/></clipPath><g clip-path="url(#cU)"><defs><path id="cV" d="M-483.4-79.9h1121v1030h-1121z"/></defs></g><defs><path id="cW" d="M419.5 55.7c0 .4-.2.7-.4.8.1 0 .2-.1.4-.2.6-.2 1.6-.4 2.8-.6 2.6-.4 6-.6 9.8-.6s7.2.2 9.8.6c1.2.2 2.2.4 2.8.6l.4.2c-.2-.1-.4-.4-.4-.8s.2-.7.4-.8c-.1 0-.2.1-.4.2-.6.2-1.6.4-2.8.6-2.6.4-6 .6-9.8.6s-7.2-.2-9.8-.6c-1.2-.2-2.2-.4-2.8-.6l-.4-.2c.2.1.4.3.4.8zm-3 0c0 2.6 6.2 3.5 15.6 3.5s15.6-.9 15.6-3.5-6.2-3.5-15.6-3.5-15.6.8-15.6 3.5zm-20-23.6h71.2v47.1h-71.2V32.1z"/></defs><clipPath id="cX"><use xlink:href="#cW" overflow="visible"/></clipPath><g clip-path="url(#cX)"><defs><ellipse id="cY" cx="432.1" cy="55.7" rx="14.1" ry="2"/></defs><clipPath id="cZ"><use xlink:href="#cY" overflow="visible"/></clipPath><g clip-path="url(#cZ)"><defs><path id="da" d="M-483.4-79.9h1121v1030h-1121z"/></defs></g></g><defs><ellipse id="db" cx="432.1" cy="55.7" rx="14.1" ry="2"/></defs><clipPath id="dc"><use xlink:href="#db" overflow="visible"/></clipPath><g clip-path="url(#dc)"><defs><path id="dd" d="M-483.4-79.9h1121v1030h-1121z"/></defs></g><defs><path id="de" d="M424.9 73s-10.5 3.3-9.1 12.3c.9 5.5 5.6 8.1 5.6 13.5s-4.6 9.5-4.6 9.5 13.5-.3 14.6-9.5c1.1-9.2-6.7-11.3-8.3-15.6-1.4-4.3 1.8-10.2 1.8-10.2z"/></defs><clipPath id="df"><use xlink:href="#de" overflow="visible"/></clipPath><g clip-path="url(#df)"><defs><path id="dg" d="M-483.4-79.9h1121v1030h-1121z"/></defs></g><defs><path id="dh" d="M440 76.3s-15.1 4.8-13 17.6c1.2 7.9 8 11.6 8 19.4s-6.5 13.6-6.5 13.6 19.3-.5 20.9-13.6c1.6-13.2-9.6-16.1-11.8-22.3-2.3-6.3 2.4-14.7 2.4-14.7z"/></defs><clipPath id="di"><use xlink:href="#dh" overflow="visible"/></clipPath><g clip-path="url(#di)"><defs><path id="dj" d="M-483.4-79.9h1121v1030h-1121z"/></defs></g><defs><path id="dk" d="M-211.5 186.5l-1.4.4.4 1.4 30.4 99.5.4 1.4 1.4-.4 60.2-18.4 1.4-.4-.4-1.4-30.4-99.5-.4-1.4-1.4.4-60.2 18.4zm.9 2.9l60.2-18.4-1.9-1 30.4 99.5 1-1.9-60.2 18.4 1.9 1-30.4-99.5-1 1.9zm-27.3-15.7l101.4-31 43 140.6-101.4 31-43-140.6z"/></defs><clipPath id="dl"><use xlink:href="#dk" overflow="visible"/></clipPath><g clip-path="url(#dl)"><defs><path id="dm" transform="rotate(162.999 -165.709 228.5)" d="M-197.2 176.5h63v104h-63z"/></defs><clipPath id="dn"><use xlink:href="#dm" overflow="visible"/></clipPath><g clip-path="url(#dn)"><defs><path id="do" d="M-341.2-121h1121V909h-1121z"/></defs></g></g><defs><path id="dp" transform="rotate(162.999 -165.709 228.5)" d="M-197.2 176.5h63v104h-63z"/></defs><clipPath id="dq"><use xlink:href="#dp" overflow="visible"/></clipPath><g clip-path="url(#dq)"><defs><path id="dr" d="M-341.2-121h1121V909h-1121z"/></defs></g><defs><path id="ds" d="M-176.2 163.5h-1.5v107h66v-107h-64.5zm0 3h63l-1.5-1.5v104l1.5-1.5h-63l1.5 1.5V165l-1.5 1.5zm-21.5-23h106v147h-106v-147z"/></defs><clipPath id="dt"><use xlink:href="#ds" overflow="visible"/></clipPath><g clip-path="url(#dt)"><defs><path id="du" d="M-176.2 165h63v104h-63z"/></defs><clipPath id="dv"><use xlink:href="#du" overflow="visible"/></clipPath><g clip-path="url(#dv)"><defs><path id="dw" d="M-341.2-121h1121V909h-1121z"/></defs></g></g><defs><path id="dx" d="M-176.2 165h63v104h-63z"/></defs><clipPath id="dy"><use xlink:href="#dx" overflow="visible"/></clipPath><g clip-path="url(#dy)"><defs><path id="dz" d="M-341.2-121h1121V909h-1121z"/></defs></g><defs><path id="dA" d="M-167.2 193h44v13h-44z"/></defs><clipPath id="dB"><use xlink:href="#dA" overflow="visible"/></clipPath><g clip-path="url(#dB)"><defs><path id="dC" d="M-341.2-121h1121V909h-1121z"/></defs></g><defs><path id="dD" d="M-167.2 203h44v13h-44z"/></defs><clipPath id="dE"><use xlink:href="#dD" overflow="visible"/></clipPath><g clip-path="url(#dE)"><defs><path id="dF" d="M-341.2-121h1121V909h-1121z"/></defs></g><defs><path id="dG" d="M-167.2 213h44v13h-44z"/></defs><clipPath id="dH"><use xlink:href="#dG" overflow="visible"/></clipPath><g clip-path="url(#dH)"><defs><path id="dI" d="M-341.2-121h1121V909h-1121z"/></defs></g><g><defs><path id="dJ" d="M-167.2 223h44v14h-44z"/></defs><clipPath id="dK"><use xlink:href="#dJ" overflow="visible"/></clipPath><g clip-path="url(#dK)"><defs><path id="dL" d="M-341.2-121h1121V909h-1121z"/></defs></g></g><g><defs><path id="dM" d="M-167.2 234h44v14h-44z"/></defs><clipPath id="dN"><use xlink:href="#dM" overflow="visible"/></clipPath><g clip-path="url(#dN)"><defs><path id="dO" d="M-341.2-121h1121V909h-1121z"/></defs></g></g><g><defs><path id="dP" d="M-167.2 245h44v14h-44z"/></defs><clipPath id="dQ"><use xlink:href="#dP" overflow="visible"/></clipPath><g clip-path="url(#dQ)"><defs><path id="dR" d="M-341.2-121h1121V909h-1121z"/></defs></g></g><g><defs><path id="dS" d="M-166.2 175h3v13h-3z"/></defs><clipPath id="dT"><use xlink:href="#dS" overflow="visible"/></clipPath><g clip-path="url(#dT)"><defs><path id="dU" d="M-341.2-121h1121V909h-1121z"/></defs></g></g><g><defs><path id="dV" d="M-161.2 175h3v13h-3z"/></defs><clipPath id="dW"><use xlink:href="#dV" overflow="visible"/></clipPath><g clip-path="url(#dW)"><defs><path id="dX" d="M-341.2-121h1121V909h-1121z"/></defs></g></g><g><defs><path id="dY" d="M-156.2 175h3v13h-3z"/></defs><clipPath id="dZ"><use xlink:href="#dY" overflow="visible"/></clipPath><g clip-path="url(#dZ)"><defs><path id="ea" d="M-341.2-121h1121V909h-1121z"/></defs></g></g><g><defs><path id="eb" d="M-151.2 175h3v13h-3z"/></defs><clipPath id="ec"><use xlink:href="#eb" overflow="visible"/></clipPath><g clip-path="url(#ec)"><defs><path id="ed" d="M-341.2-121h1121V909h-1121z"/></defs></g></g><g><defs><path id="ee" d="M-146.2 175h3v13h-3z"/></defs><clipPath id="ef"><use xlink:href="#ee" overflow="visible"/></clipPath><g clip-path="url(#ef)"><defs><path id="eg" d="M-341.2-121h1121V909h-1121z"/></defs></g></g><g><defs><path id="eh" d="M-146.2 226h3v32h-3z"/></defs><clipPath id="ei"><use xlink:href="#eh" overflow="visible"/></clipPath><g clip-path="url(#ei)"><defs><path id="ej" d="M-341.2-121h1121V909h-1121z"/></defs></g></g><g><defs><path id="ek" d="M-141.2 175h3v13h-3z"/></defs><clipPath id="el"><use xlink:href="#ek" overflow="visible"/></clipPath><g clip-path="url(#el)"><defs><path id="em" d="M-341.2-121h1121V909h-1121z"/></defs></g></g><g><defs><path id="en" d="M-136.2 175h3v13h-3z"/></defs><clipPath id="eo"><use xlink:href="#en" overflow="visible"/></clipPath><g clip-path="url(#eo)"><defs><path id="ep" d="M-341.2-121h1121V909h-1121z"/></defs></g></g><g><defs><path id="eq" d="M-131.2 175h3v13h-3z"/></defs><clipPath id="er"><use xlink:href="#eq" overflow="visible"/></clipPath><g clip-path="url(#er)"><defs><path id="es" d="M-341.2-121h1121V909h-1121z"/></defs></g></g><g><defs><path id="et" d="M-126.2 175h3v13h-3z"/></defs><clipPath id="eu"><use xlink:href="#et" overflow="visible"/></clipPath><g clip-path="url(#eu)"><defs><path id="ev" d="M-341.2-121h1121V909h-1121z"/></defs></g></g><g><defs><path id="ew" d="M-208.2 189.2l53.3 34.1-23.9 61.7"/></defs><clipPath id="ex"><use xlink:href="#ew" overflow="visible"/></clipPath><g clip-path="url(#ex)"><defs><path id="ey" d="M-341.2-121h1121V909h-1121z"/></defs></g></g><g><defs><path id="ez" d="M93.5 163.5H92v107h66v-107H93.5zm0 3h63L155 165v104l1.5-1.5h-63L95 269V165l-1.5 1.5zm-21.5-23h106v147H72v-147z"/></defs><clipPath id="eA"><use xlink:href="#ez" overflow="visible"/></clipPath><g clip-path="url(#eA)"><defs><path id="eB" d="M93.5 165h63v104h-63z"/></defs><clipPath id="eC"><use xlink:href="#eB" overflow="visible"/></clipPath><g clip-path="url(#eC)"><defs><path id="eD" d="M-296.5-115h1121V915h-1121z"/></defs></g></g></g><g><defs><path id="eE" d="M93.5 165h63v104h-63z"/></defs><clipPath id="eF"><use xlink:href="#eE" overflow="visible"/></clipPath><g clip-path="url(#eF)"><defs><path id="eG" d="M-296.5-115h1121V915h-1121z"/></defs></g></g><g><defs><path id="eH" d="M102.5 193h44v13h-44z"/></defs><clipPath id="eI"><use xlink:href="#eH" overflow="visible"/></clipPath><g clip-path="url(#eI)"><defs><path id="eJ" d="M-296.5-115h1121V915h-1121z"/></defs></g></g><g><defs><path id="eK" d="M102.5 203h44v13h-44z"/></defs><clipPath id="eL"><use xlink:href="#eK" overflow="visible"/></clipPath><g clip-path="url(#eL)"><defs><path id="eM" d="M-296.5-115h1121V915h-1121z"/></defs></g></g><g><defs><path id="eN" d="M102.5 213h44v13h-44z"/></defs><clipPath id="eO"><use xlink:href="#eN" overflow="visible"/></clipPath><g clip-path="url(#eO)"><defs><path id="eP" d="M-296.5-115h1121V915h-1121z"/></defs></g></g><g><defs><path id="eQ" d="M102.5 223h44v14h-44z"/></defs><clipPath id="eR"><use xlink:href="#eQ" overflow="visible"/></clipPath><g clip-path="url(#eR)"><defs><path id="eS" d="M-296.5-115h1121V915h-1121z"/></defs></g></g><g><defs><path id="eT" d="M102.5 234h44v14h-44z"/></defs><clipPath id="eU"><use xlink:href="#eT" overflow="visible"/></clipPath><g clip-path="url(#eU)"><defs><path id="eV" d="M-296.5-115h1121V915h-1121z"/></defs></g></g><g><defs><path id="eW" d="M102.5 245h44v14h-44z"/></defs><clipPath id="eX"><use xlink:href="#eW" overflow="visible"/></clipPath><g clip-path="url(#eX)"><defs><path id="eY" d="M-296.5-115h1121V915h-1121z"/></defs></g></g><g><defs><path id="eZ" d="M103.5 175h3v13h-3z"/></defs><clipPath id="fa"><use xlink:href="#eZ" overflow="visible"/></clipPath><g clip-path="url(#fa)"><defs><path id="fb" d="M-296.5-115h1121V915h-1121z"/></defs></g></g><g><defs><path id="fc" d="M108.5 175h3v13h-3z"/></defs><clipPath id="fd"><use xlink:href="#fc" overflow="visible"/></clipPath><g clip-path="url(#fd)"><defs><path id="fe" d="M-296.5-115h1121V915h-1121z"/></defs></g></g><g><defs><path id="ff" d="M113.5 175h3v13h-3z"/></defs><clipPath id="fg"><use xlink:href="#ff" overflow="visible"/></clipPath><g clip-path="url(#fg)"><defs><path id="fh" d="M-296.5-115h1121V915h-1121z"/></defs></g></g><g><defs><path id="fi" d="M118.5 175h3v13h-3z"/></defs><clipPath id="fj"><use xlink:href="#fi" overflow="visible"/></clipPath><g clip-path="url(#fj)"><defs><path id="fk" d="M-296.5-115h1121V915h-1121z"/></defs></g></g><g><defs><path id="fl" d="M123.5 175h3v13h-3z"/></defs><clipPath id="fm"><use xlink:href="#fl" overflow="visible"/></clipPath><g clip-path="url(#fm)"><defs><path id="fn" d="M-296.5-115h1121V915h-1121z"/></defs></g></g><g><defs><path id="fo" d="M123.5 226h3v32h-3z"/></defs><clipPath id="fp"><use xlink:href="#fo" overflow="visible"/></clipPath><g clip-path="url(#fp)"><defs><path id="fq" d="M-296.5-115h1121V915h-1121z"/></defs></g></g><g><defs><path id="fr" d="M128.5 175h3v13h-3z"/></defs><clipPath id="fs"><use xlink:href="#fr" overflow="visible"/></clipPath><g clip-path="url(#fs)"><defs><path id="ft" d="M-296.5-115h1121V915h-1121z"/></defs></g></g><g><defs><path id="fu" d="M133.5 175h3v13h-3z"/></defs><clipPath id="fv"><use xlink:href="#fu" overflow="visible"/></clipPath><g clip-path="url(#fv)"><defs><path id="fw" d="M-296.5-115h1121V915h-1121z"/></defs></g></g><g><defs><path id="fx" d="M138.5 175h3v13h-3z"/></defs><clipPath id="fy"><use xlink:href="#fx" overflow="visible"/></clipPath><g clip-path="url(#fy)"><defs><path id="fz" d="M-296.5-115h1121V915h-1121z"/></defs></g></g><g><defs><path id="fA" d="M143.5 175h3v13h-3z"/></defs><clipPath id="fB"><use xlink:href="#fA" overflow="visible"/></clipPath><g clip-path="url(#fB)"><defs><path id="fC" d="M-296.5-115h1121V915h-1121z"/></defs></g></g><g><defs><path id="fD" d="M165.5 284.5c-16.3 0-29.5-13.2-29.5-29.5s13.2-29.5 29.5-29.5S195 238.7 195 255s-13.2 29.5-29.5 29.5zm0 3c17.9 0 32.5-14.6 32.5-32.5s-14.6-32.5-32.5-32.5S133 237.1 133 255s14.5 32.5 32.5 32.5zm-52.5-85h105v105H113v-105z"/></defs><clipPath id="fE"><use xlink:href="#fD" overflow="visible"/></clipPath><g clip-path="url(#fE)"><defs><circle id="fF" cx="165.5" cy="255" r="31"/></defs><clipPath id="fG"><use xlink:href="#fF" overflow="visible"/></clipPath><g clip-path="url(#fG)"><defs><path id="fH" d="M-296.5-115h1121V915h-1121z"/></defs></g></g></g><g><defs><circle id="fI" cx="165.5" cy="255" r="31"/></defs><clipPath id="fJ"><use xlink:href="#fI" overflow="visible"/></clipPath><g clip-path="url(#fJ)"><defs><path id="fK" d="M-296.5-115h1121V915h-1121z"/></defs></g></g><g><defs><path id="fL" d="M71.8 339.7h-1.5v90h134v-90H71.8zm0 3h131l-1.5-1.5v87l1.5-1.5h-131l1.5 1.5v-87l-1.5 1.5zm-21.5-23h174v130h-174v-130z"/></defs><clipPath id="fM"><use xlink:href="#fL" overflow="visible"/></clipPath><g clip-path="url(#fM)"><defs><path id="fN" d="M71.8 341.2h131v87h-131z"/></defs><clipPath id="fO"><use xlink:href="#fN" overflow="visible"/></clipPath><g clip-path="url(#fO)"><defs><path id="fP" d="M-537.2 37.2h1121v1030h-1121z"/></defs></g></g></g><g><defs><path id="fQ" d="M71.8 341.2h131v87h-131z"/></defs><clipPath id="fR"><use xlink:href="#fQ" overflow="visible"/></clipPath><g clip-path="url(#fR)"><defs><path id="fS" d="M-537.2 37.2h1121v1030h-1121z"/></defs></g></g><g><defs><path id="fT" d="M76.8 344.7h-1.5v80h124v-80H76.8zm0 3h121l-1.5-1.5v77l1.5-1.5h-121l1.5 1.5v-77l-1.5 1.5zm-21.5-23h164v120h-164v-120z"/></defs><clipPath id="fU"><use xlink:href="#fT" overflow="visible"/></clipPath><g clip-path="url(#fU)"><defs><path id="fV" d="M76.8 346.2h121v77h-121z"/></defs><clipPath id="fW"><use xlink:href="#fV" overflow="visible"/></clipPath><g clip-path="url(#fW)"><defs><path id="fX" d="M-537.2 37.2h1121v1030h-1121z"/></defs></g></g></g><g><defs><path id="fY" d="M76.8 346.2h121v77h-121z"/></defs><clipPath id="fZ"><use xlink:href="#fY" overflow="visible"/></clipPath><g clip-path="url(#fZ)"><defs><path id="ga" d="M-537.2 37.2h1121v1030h-1121z"/></defs></g></g><g><defs><path id="gb" d="M141.8 359.7h-1.5v6h47v-6h-45.5zm0 3h44l-1.5-1.5v3l1.5-1.5h-44l1.5 1.5v-3l-1.5 1.5zm-21.5-23h87v46h-87v-46z"/></defs><clipPath id="gc"><use xlink:href="#gb" overflow="visible"/></clipPath><g clip-path="url(#gc)"><defs><path id="gd" d="M141.8 361.2h44v3h-44z"/></defs><clipPath id="ge"><use xlink:href="#gd" overflow="visible"/></clipPath><g clip-path="url(#ge)"><defs><path id="gf" d="M-537.2 37.2h1121v1030h-1121z"/></defs></g></g></g><g><defs><path id="gg" d="M141.8 361.2h44v3h-44z"/></defs><clipPath id="gh"><use xlink:href="#gg" overflow="visible"/></clipPath><g clip-path="url(#gh)"><defs><path id="gi" d="M-537.2 37.2h1121v1030h-1121z"/></defs></g></g><g><defs><path id="gj" d="M141.8 365.7h-1.5v6h47v-6h-45.5zm0 3h44l-1.5-1.5v3l1.5-1.5h-44l1.5 1.5v-3l-1.5 1.5zm-21.5-23h87v46h-87v-46z"/></defs><clipPath id="gk"><use xlink:href="#gj" overflow="visible"/></clipPath><g clip-path="url(#gk)"><defs><path id="gl" d="M141.8 367.2h44v3h-44z"/></defs><clipPath id="gm"><use xlink:href="#gl" overflow="visible"/></clipPath><g clip-path="url(#gm)"><defs><path id="gn" d="M-537.2 37.2h1121v1030h-1121z"/></defs></g></g></g><g><defs><path id="go" d="M141.8 367.2h44v3h-44z"/></defs><clipPath id="gp"><use xlink:href="#go" overflow="visible"/></clipPath><g clip-path="url(#gp)"><defs><path id="gq" d="M-537.2 37.2h1121v1030h-1121z"/></defs></g></g><g><defs><path id="gr" d="M141.8 371.7h-1.5v6h47v-6h-45.5zm0 3h44l-1.5-1.5v3l1.5-1.5h-44l1.5 1.5v-3l-1.5 1.5zm-21.5-23h87v46h-87v-46z"/></defs><clipPath id="gs"><use xlink:href="#gr" overflow="visible"/></clipPath><g clip-path="url(#gs)"><defs><path id="gt" d="M141.8 373.2h44v3h-44z"/></defs><clipPath id="gu"><use xlink:href="#gt" overflow="visible"/></clipPath><g clip-path="url(#gu)"><defs><path id="gv" d="M-537.2 37.2h1121v1030h-1121z"/></defs></g></g></g><g><defs><path id="gw" d="M141.8 373.2h44v3h-44z"/></defs><clipPath id="gx"><use xlink:href="#gw" overflow="visible"/></clipPath><g clip-path="url(#gx)"><defs><path id="gy" d="M-537.2 37.2h1121v1030h-1121z"/></defs></g></g><g><defs><path id="gz" d="M141.8 377.7h-1.5v6h47v-6h-45.5zm0 3h44l-1.5-1.5v3l1.5-1.5h-44l1.5 1.5v-3l-1.5 1.5zm-21.5-23h87v46h-87v-46z"/></defs><clipPath id="gA"><use xlink:href="#gz" overflow="visible"/></clipPath><g clip-path="url(#gA)"><defs><path id="gB" d="M141.8 379.2h44v3h-44z"/></defs><clipPath id="gC"><use xlink:href="#gB" overflow="visible"/></clipPath><g clip-path="url(#gC)"><defs><path id="gD" d="M-537.2 37.2h1121v1030h-1121z"/></defs></g></g></g><g><defs><path id="gE" d="M141.8 379.2h44v3h-44z"/></defs><clipPath id="gF"><use xlink:href="#gE" overflow="visible"/></clipPath><g clip-path="url(#gF)"><defs><path id="gG" d="M-537.2 37.2h1121v1030h-1121z"/></defs></g></g><g><defs><path id="gH" d="M-216 502.2h-1.2v71.5h131.7v-71.5H-216zm0 2.4h129.3l-1.2-1.2v69.1l1.2-1.2H-216l1.2 1.2v-69.1l-1.2 1.2zm-17.3-18.5h163.9v103.6h-163.9V486.1z"/></defs><clipPath id="gI"><use xlink:href="#gH" overflow="visible"/></clipPath><g clip-path="url(#gI)"><defs><path id="gJ" d="M-216 503.4h129.3v69.1H-216z"/></defs><clipPath id="gK"><use xlink:href="#gJ" overflow="visible"/></clipPath><g clip-path="url(#gK)"><defs><path id="gL" d="M-295.1 98.1h900.5v827.4h-900.5z"/></defs></g></g></g><g><defs><path id="gM" d="M-216 503.4h129.3v69.1H-216z"/></defs><clipPath id="gN"><use xlink:href="#gM" overflow="visible"/></clipPath><g clip-path="url(#gN)"><defs><path id="gO" d="M-295.1 98.1h900.5v827.4h-900.5z"/></defs></g></g><g><defs><path id="gP" d="M-209.6 508.6h-1.2V566.4h118.9V508.6H-111.4l-.3.2-6.5 4.8.7-.2h-66.7l.8.3-5.9-4.8-.3-.3h-20zm0 2.4h19.4l-.8-.3 5.9 4.8.3.3H-117.3l.3-.2 6.5-4.8-.7.2h17.9l-1.2-1.2v55.4l1.2-1.2h-116.5l1.2 1.2v-55.4l-1 1.2zm-17.3-18.5h151v90h-151v-90z"/></defs><clipPath id="gQ"><use xlink:href="#gP" overflow="visible"/></clipPath><g clip-path="url(#gQ)"><defs><path id="gR" d="M-209.6 509.8h19.5l5.9 4.8h66.7l6.5-4.8h17.9v55.4h-116.5z"/></defs><clipPath id="gS"><use xlink:href="#gR" overflow="visible"/></clipPath><g clip-path="url(#gS)"><defs><path id="gT" d="M-295.1 98.1h900.5v827.4h-900.5z"/></defs></g></g></g><g><defs><path id="gU" d="M-209.6 509.8h19.5l5.9 4.8h66.7l6.5-4.8h17.9v55.4h-116.5z"/></defs><clipPath id="gV"><use xlink:href="#gU" overflow="visible"/></clipPath><g clip-path="url(#gV)"><defs><path id="gW" d="M-295.1 98.1h900.5v827.4h-900.5z"/></defs></g></g><g><defs><path id="gX" d="M-181.5 509h5.6v2.4h-5.6z"/></defs><clipPath id="gY"><use xlink:href="#gX" overflow="visible"/></clipPath><g clip-path="url(#gY)"><defs><path id="gZ" d="M-295.1 98.1h900.5v827.4h-900.5z"/></defs></g></g><g><defs><path id="ha" d="M-125.2 509h5.6v2.4h-5.6z"/></defs><clipPath id="hb"><use xlink:href="#ha" overflow="visible"/></clipPath><g clip-path="url(#hb)"><defs><path id="hc" d="M-295.1 98.1h900.5v827.4h-900.5z"/></defs></g></g><g><defs><path id="hd" d="M-525.8 524.2h-1.5v38h142v-25.1l-.4-.4-11.4-12-.4-.5h-128.3zm0 3h127.6l-1.1-.5 11.4 12-.4-1v23l1.5-1.5h-139l1.5 1.5v-35l-1.5 1.5zm-21.5-23h182v78h-182v-78z"/></defs><clipPath id="he"><use xlink:href="#hd" overflow="visible"/></clipPath><g clip-path="url(#he)"><defs><path id="hf" d="M-525.8 525.7h127.6l11.4 12v23h-139z"/></defs><clipPath id="hg"><use xlink:href="#hf" overflow="visible"/></clipPath><g clip-path="url(#hg)"><defs><path id="hh" d="M-897.8-9.3h1121v1030h-1121z"/></defs></g></g></g><g><defs><path id="hi" d="M-525.8 525.7h127.6l11.4 12v23h-139z"/></defs><clipPath id="hj"><use xlink:href="#hi" overflow="visible"/></clipPath><g clip-path="url(#hj)"><defs><path id="hk" d="M-897.8-9.3h1121v1030h-1121z"/></defs></g></g><g><defs><path id="hl" d="M-492.8 575.6c-8 0-14.5-6.5-14.5-14.5s6.5-14.5 14.5-14.5 14.5 6.5 14.5 14.5-6.4 14.5-14.5 14.5zm0 3c9.7 0 17.5-7.8 17.5-17.5s-7.8-17.5-17.5-17.5-17.5 7.8-17.5 17.5 7.9 17.5 17.5 17.5zm-37.5-55h75v75h-75v-75z"/></defs><clipPath id="hm"><use xlink:href="#hl" overflow="visible"/></clipPath><g clip-path="url(#hm)"><defs><circle id="hn" cx="-492.8" cy="561.1" r="16"/></defs><clipPath id="ho"><use xlink:href="#hn" overflow="visible"/></clipPath><g clip-path="url(#ho)"><defs><path id="hp" d="M-897.8-9.3h1121v1030h-1121z"/></defs></g></g></g><g><defs><circle id="hq" cx="-492.8" cy="561.1" r="16"/></defs><clipPath id="hr"><use xlink:href="#hq" overflow="visible"/></clipPath><g clip-path="url(#hr)"><defs><path id="hs" d="M-897.8-9.3h1121v1030h-1121z"/></defs></g></g><g><defs><path id="ht" d="M-492.8 568.6c-4.1 0-7.5-3.4-7.5-7.5s3.4-7.5 7.5-7.5 7.5 3.4 7.5 7.5c0 4.2-3.3 7.5-7.5 7.5zm0 3c5.8 0 10.5-4.7 10.5-10.5s-4.7-10.5-10.5-10.5-10.5 4.7-10.5 10.5 4.7 10.5 10.5 10.5zm-30.5-41h61v61h-61v-61z"/></defs><clipPath id="hu"><use xlink:href="#ht" overflow="visible"/></clipPath><g clip-path="url(#hu)"><defs><circle id="hv" cx="-492.8" cy="561.1" r="9"/></defs><clipPath id="hw"><use xlink:href="#hv" overflow="visible"/></clipPath><g clip-path="url(#hw)"><defs><path id="hx" d="M-897.8-9.3h1121v1030h-1121z"/></defs></g></g></g><g><defs><circle id="hy" cx="-492.8" cy="561.1" r="9"/></defs><clipPath id="hz"><use xlink:href="#hy" overflow="visible"/></clipPath><g clip-path="url(#hz)"><defs><path id="hA" d="M-897.8-9.3h1121v1030h-1121z"/></defs></g></g><g><defs><path id="hB" d="M-426.5 575.6c-8 0-14.5-6.5-14.5-14.5s6.5-14.5 14.5-14.5 14.5 6.5 14.5 14.5-6.5 14.5-14.5 14.5zm0 3c9.7 0 17.5-7.8 17.5-17.5s-7.8-17.5-17.5-17.5-17.5 7.8-17.5 17.5 7.8 17.5 17.5 17.5zm-37.5-55h75v75h-75v-75z"/></defs><clipPath id="hC"><use xlink:href="#hB" overflow="visible"/></clipPath><g clip-path="url(#hC)"><defs><circle id="hD" cx="-426.5" cy="561.1" r="16"/></defs><clipPath id="hE"><use xlink:href="#hD" overflow="visible"/></clipPath><g clip-path="url(#hE)"><defs><path id="hF" d="M-897.8-9.3h1121v1030h-1121z"/></defs></g></g></g><g><defs><circle id="hG" cx="-426.5" cy="561.1" r="16"/></defs><clipPath id="hH"><use xlink:href="#hG" overflow="visible"/></clipPath><g clip-path="url(#hH)"><defs><path id="hI" d="M-897.8-9.3h1121v1030h-1121z"/></defs></g></g><g><defs><path id="hJ" d="M-426.3 520.8l-7.7-15.6h-27.2v15.6h34.9zm-75.2 0l7.4-15.6h27.2v15.6h-34.6zm-10.3 5.3l14.1-26.9h66.8l15.3 27.9-96.2-1z"/></defs><clipPath id="hK"><use xlink:href="#hJ" overflow="visible"/></clipPath><g clip-path="url(#hK)"><defs><path id="hL" d="M-897.8-9.3h1121v1030h-1121z"/></defs></g></g><g><defs><path id="hM" d="M-426.5 568.6c-4.1 0-7.5-3.4-7.5-7.5s3.4-7.5 7.5-7.5 7.5 3.4 7.5 7.5c0 4.2-3.4 7.5-7.5 7.5zm0 3c5.8 0 10.5-4.7 10.5-10.5s-4.7-10.5-10.5-10.5-10.5 4.7-10.5 10.5 4.7 10.5 10.5 10.5zm-30.5-41h61v61h-61v-61z"/></defs><clipPath id="hN"><use xlink:href="#hM" overflow="visible"/></clipPath><g clip-path="url(#hN)"><defs><circle id="hO" cx="-426.5" cy="561.1" r="9"/></defs><clipPath id="hP"><use xlink:href="#hO" overflow="visible"/></clipPath><g clip-path="url(#hP)"><defs><path id="hQ" d="M-897.8-9.3h1121v1030h-1121z"/></defs></g></g></g><g><defs><circle id="hR" cx="-426.5" cy="561.1" r="9"/></defs><clipPath id="hS"><use xlink:href="#hR" overflow="visible"/></clipPath><g clip-path="url(#hS)"><defs><path id="hT" d="M-897.8-9.3h1121v1030h-1121z"/></defs></g></g><g><defs><path id="hU" d="M-211.8 346.5h-1.5v84h108v-84h-106.5zm0 3h105l-1.5-1.5v81l1.5-1.5h-105l1.5 1.5v-81l-1.5 1.5zm-21.5-23h148v124h-148v-124z"/></defs><clipPath id="hV"><use xlink:href="#hU" overflow="visible"/></clipPath><g clip-path="url(#hV)"><defs><path id="hW" d="M-211.8 348h105v81h-105z"/></defs><clipPath id="hX"><use xlink:href="#hW" overflow="visible"/></clipPath><g clip-path="url(#hX)"><defs><path id="hY" d="M-1092.8-151h1121V879h-1121z"/></defs></g></g></g><g><defs><path id="hZ" d="M-211.8 348h105v81h-105z"/></defs><clipPath id="ia"><use xlink:href="#hZ" overflow="visible"/></clipPath><g clip-path="url(#ia)"><defs><path id="ib" d="M-1092.8-151h1121V879h-1121z"/></defs></g></g><g><defs><path id="ic" d="M-217.8 363.5h-2.2l.9-2.1 9.1-22 .4-.9h100.9l.4.9 9.1 22 .9 2.1h-119.5zm0-3h117l-1.4 2.1-9.1-22 1.4.9h-98.9l1.4-.9-9.1 22-1.3-2.1zm-22.2 23h161.5v-65H-240v65z"/></defs><clipPath id="id"><use xlink:href="#ic" overflow="visible"/></clipPath><g clip-path="url(#id)"><defs><path id="ie" d="M-217.8 362h117l-9.1-22h-98.8z"/></defs><clipPath id="if"><use xlink:href="#ie" overflow="visible"/></clipPath><g clip-path="url(#if)"><defs><path id="ig" d="M-1092.8-151h1121V879h-1121z"/></defs></g></g></g><g><defs><path id="ih" d="M-217.8 362h117l-9.1-22h-98.8z"/></defs><clipPath id="ii"><use xlink:href="#ih" overflow="visible"/></clipPath><g clip-path="url(#ii)"><defs><path id="ij" d="M-1092.8-151h1121V879h-1121z"/></defs></g></g><g><defs><path id="ik" d="M-132.8 330.5h-1.5v19h15v-19h-13.5zm0 3h12l-1.5-1.5v16l1.5-1.5h-12l1.5 1.5v-16l-1.5 1.5zm-21.5-23h55v59h-55v-59z"/></defs><clipPath id="il"><use xlink:href="#ik" overflow="visible"/></clipPath><g clip-path="url(#il)"><defs><path id="im" d="M-132.8 332h12v16h-12z"/></defs><clipPath id="in"><use xlink:href="#im" overflow="visible"/></clipPath><g clip-path="url(#in)"><defs><path id="io" d="M-1092.8-151h1121V879h-1121z"/></defs></g></g></g><g><defs><path id="ip" d="M-132.8 332h12v16h-12z"/></defs><clipPath id="iq"><use xlink:href="#ip" overflow="visible"/></clipPath><g clip-path="url(#iq)"><defs><path id="ir" d="M-1092.8-151h1121V879h-1121z"/></defs></g></g><g><defs><path id="is" d="M-198.8 396.5h-1.5v34h24v-34h-22.5zm0 3h21l-1.5-1.5v31l1.5-1.5h-21l1.5 1.5v-31l-1.5 1.5zm-21.5-23h64v74h-64v-74z"/></defs><clipPath id="it"><use xlink:href="#is" overflow="visible"/></clipPath><g clip-path="url(#it)"><defs><path id="iu" d="M-198.8 398h21v31h-21z"/></defs><clipPath id="iv"><use xlink:href="#iu" overflow="visible"/></clipPath><g clip-path="url(#iv)"><defs><path id="iw" d="M-1092.8-151h1121V879h-1121z"/></defs></g></g></g><g><defs><path id="ix" d="M-198.8 398h21v31h-21z"/></defs><clipPath id="iy"><use xlink:href="#ix" overflow="visible"/></clipPath><g clip-path="url(#iy)"><defs><path id="iz" d="M-1092.8-151h1121V879h-1121z"/></defs></g></g><g><defs><path id="iA" d="M-197.8 368.5h-1.5v22h22v-22h-20.5zm0 3h19l-1.5-1.5v19l1.5-1.5h-19l1.5 1.5v-19l-1.5 1.5zm-21.5-23h62v62h-62v-62z"/></defs><clipPath id="iB"><use xlink:href="#iA" overflow="visible"/></clipPath><g clip-path="url(#iB)"><defs><path id="iC" d="M-197.8 370h19v19h-19z"/></defs><clipPath id="iD"><use xlink:href="#iC" overflow="visible"/></clipPath><g clip-path="url(#iD)"><defs><path id="iE" d="M-1092.8-151h1121V879h-1121z"/></defs></g></g></g><g><defs><path id="iF" d="M-197.8 370h19v19h-19z"/></defs><clipPath id="iG"><use xlink:href="#iF" overflow="visible"/></clipPath><g clip-path="url(#iG)"><defs><path id="iH" d="M-1092.8-151h1121V879h-1121z"/></defs></g></g><g><defs><path id="iI" d="M-192.8 373.5h-1.5v12h12v-12h-10.5zm0 3h9l-1.5-1.5v9l1.5-1.5h-9l1.5 1.5v-9l-1.5 1.5zm-21.5-23h52v52h-52v-52z"/></defs><clipPath id="iJ"><use xlink:href="#iI" overflow="visible"/></clipPath><g clip-path="url(#iJ)"><defs><path id="iK" d="M-192.8 375h9v9h-9z"/></defs><clipPath id="iL"><use xlink:href="#iK" overflow="visible"/></clipPath><g clip-path="url(#iL)"><defs><path id="iM" d="M-1092.8-151h1121V879h-1121z"/></defs></g></g></g><g><defs><path id="iN" d="M-192.8 375h9v9h-9z"/></defs><clipPath id="iO"><use xlink:href="#iN" overflow="visible"/></clipPath><g clip-path="url(#iO)"><defs><path id="iP" d="M-1092.8-151h1121V879h-1121z"/></defs></g></g><g><defs><path id="iQ" d="M-167.8 368.5h-1.5v22h22v-22h-20.5zm0 3h19l-1.5-1.5v19l1.5-1.5h-19l1.5 1.5v-19l-1.5 1.5zm-21.5-23h62v62h-62v-62z"/></defs><clipPath id="iR"><use xlink:href="#iQ" overflow="visible"/></clipPath><g clip-path="url(#iR)"><defs><path id="iS" d="M-167.8 370h19v19h-19z"/></defs><clipPath id="iT"><use xlink:href="#iS" overflow="visible"/></clipPath><g clip-path="url(#iT)"><defs><path id="iU" d="M-1092.8-151h1121V879h-1121z"/></defs></g></g></g><g><defs><path id="iV" d="M-167.8 370h19v19h-19z"/></defs><clipPath id="iW"><use xlink:href="#iV" overflow="visible"/></clipPath><g clip-path="url(#iW)"><defs><path id="iX" d="M-1092.8-151h1121V879h-1121z"/></defs></g></g><g><defs><path id="iY" d="M-138.8 368.5h-1.5v22h22v-22h-20.5zm0 3h19l-1.5-1.5v19l1.5-1.5h-19l1.5 1.5v-19l-1.5 1.5zm-21.5-23h62v62h-62v-62z"/></defs><clipPath id="iZ"><use xlink:href="#iY" overflow="visible"/></clipPath><g clip-path="url(#iZ)"><defs><path id="ja" d="M-138.8 370h19v19h-19z"/></defs><clipPath id="jb"><use xlink:href="#ja" overflow="visible"/></clipPath><g clip-path="url(#jb)"><defs><path id="jc" d="M-1092.8-151h1121V879h-1121z"/></defs></g></g></g><g><defs><path id="jd" d="M-138.8 370h19v19h-19z"/></defs><clipPath id="je"><use xlink:href="#jd" overflow="visible"/></clipPath><g clip-path="url(#je)"><defs><path id="jf" d="M-1092.8-151h1121V879h-1121z"/></defs></g></g><g><defs><path id="jg" d="M-167.8 396.5h-1.5v22h22v-22h-20.5zm0 3h19l-1.5-1.5v19l1.5-1.5h-19l1.5 1.5v-19l-1.5 1.5zm-21.5-23h62v62h-62v-62z"/></defs><clipPath id="jh"><use xlink:href="#jg" overflow="visible"/></clipPath><g clip-path="url(#jh)"><defs><path id="ji" d="M-167.8 398h19v19h-19z"/></defs><clipPath id="jj"><use xlink:href="#ji" overflow="visible"/></clipPath><g clip-path="url(#jj)"><defs><path id="jk" d="M-1092.8-151h1121V879h-1121z"/></defs></g></g></g><g><defs><path id="jl" d="M-167.8 398h19v19h-19z"/></defs><clipPath id="jm"><use xlink:href="#jl" overflow="visible"/></clipPath><g clip-path="url(#jm)"><defs><path id="jn" d="M-1092.8-151h1121V879h-1121z"/></defs></g></g><g><defs><path id="jo" d="M-138.8 396.5h-1.5v22h22v-22h-20.5zm0 3h19l-1.5-1.5v19l1.5-1.5h-19l1.5 1.5v-19l-1.5 1.5zm-21.5-23h62v62h-62v-62z"/></defs><clipPath id="jp"><use xlink:href="#jo" overflow="visible"/></clipPath><g clip-path="url(#jp)"><defs><path id="jq" d="M-138.8 398h19v19h-19z"/></defs><clipPath id="jr"><use xlink:href="#jq" overflow="visible"/></clipPath><g clip-path="url(#jr)"><defs><path id="js" d="M-1092.8-151h1121V879h-1121z"/></defs></g></g></g><g><defs><path id="jt" d="M-138.8 398h19v19h-19z"/></defs><clipPath id="ju"><use xlink:href="#jt" overflow="visible"/></clipPath><g clip-path="url(#ju)"><defs><path id="jv" d="M-1092.8-151h1121V879h-1121z"/></defs></g></g><g><defs><path id="jw" d="M-162.8 373.5h-1.5v12h12v-12h-10.5zm0 3h9l-1.5-1.5v9l1.5-1.5h-9l1.5 1.5v-9l-1.5 1.5zm-21.5-23h52v52h-52v-52z"/></defs><clipPath id="jx"><use xlink:href="#jw" overflow="visible"/></clipPath><g clip-path="url(#jx)"><defs><path id="jy" d="M-162.8 375h9v9h-9z"/></defs><clipPath id="jz"><use xlink:href="#jy" overflow="visible"/></clipPath><g clip-path="url(#jz)"><defs><path id="jA" d="M-1092.8-151h1121V879h-1121z"/></defs></g></g></g><g><defs><path id="jB" d="M-162.8 375h9v9h-9z"/></defs><clipPath id="jC"><use xlink:href="#jB" overflow="visible"/></clipPath><g clip-path="url(#jC)"><defs><path id="jD" d="M-1092.8-151h1121V879h-1121z"/></defs></g></g><g><defs><path id="jE" d="M-133.8 373.5h-1.5v12h12v-12h-10.5zm0 3h9l-1.5-1.5v9l1.5-1.5h-9l1.5 1.5v-9l-1.5 1.5zm-21.5-23h52v52h-52v-52z"/></defs><clipPath id="jF"><use xlink:href="#jE" overflow="visible"/></clipPath><g clip-path="url(#jF)"><defs><path id="jG" d="M-133.8 375h9v9h-9z"/></defs><clipPath id="jH"><use xlink:href="#jG" overflow="visible"/></clipPath><g clip-path="url(#jH)"><defs><path id="jI" d="M-1092.8-151h1121V879h-1121z"/></defs></g></g></g><g><defs><path id="jJ" d="M-133.8 375h9v9h-9z"/></defs><clipPath id="jK"><use xlink:href="#jJ" overflow="visible"/></clipPath><g clip-path="url(#jK)"><defs><path id="jL" d="M-1092.8-151h1121V879h-1121z"/></defs></g></g><g><defs><path id="jM" d="M-162.8 401.5h-1.5v12h12v-12h-10.5zm0 3h9l-1.5-1.5v9l1.5-1.5h-9l1.5 1.5v-9l-1.5 1.5zm-21.5-23h52v52h-52v-52z"/></defs><clipPath id="jN"><use xlink:href="#jM" overflow="visible"/></clipPath><g clip-path="url(#jN)"><defs><path id="jO" d="M-162.8 403h9v9h-9z"/></defs><clipPath id="jP"><use xlink:href="#jO" overflow="visible"/></clipPath><g clip-path="url(#jP)"><defs><path id="jQ" d="M-1092.8-151h1121V879h-1121z"/></defs></g></g></g><g><defs><path id="jR" d="M-162.8 403h9v9h-9z"/></defs><clipPath id="jS"><use xlink:href="#jR" overflow="visible"/></clipPath><g clip-path="url(#jS)"><defs><path id="jT" d="M-1092.8-151h1121V879h-1121z"/></defs></g></g><g><defs><path id="jU" d="M-133.8 401.5h-1.5v12h12v-12h-10.5zm0 3h9l-1.5-1.5v9l1.5-1.5h-9l1.5 1.5v-9l-1.5 1.5zm-21.5-23h52v52h-52v-52z"/></defs><clipPath id="jV"><use xlink:href="#jU" overflow="visible"/></clipPath><g clip-path="url(#jV)"><defs><path id="jW" d="M-133.8 403h9v9h-9z"/></defs><clipPath id="jX"><use xlink:href="#jW" overflow="visible"/></clipPath><g clip-path="url(#jX)"><defs><path id="jY" d="M-1092.8-151h1121V879h-1121z"/></defs></g></g></g><g><defs><path id="jZ" d="M-133.8 403h9v9h-9z"/></defs><clipPath id="ka"><use xlink:href="#jZ" overflow="visible"/></clipPath><g clip-path="url(#ka)"><defs><path id="kb" d="M-1092.8-151h1121V879h-1121z"/></defs></g></g><g><defs><path id="kc" d="M-454.6 274.5c-27.1 0-49-21.9-49-49s21.9-49 49-49 49 21.9 49 49-21.9 49-49 49zm0 3c28.7 0 52-23.3 52-52s-23.3-52-52-52-52 23.3-52 52 23.3 52 52 52zm-72-124h144v144h-144v-144z"/></defs><clipPath id="kd"><use xlink:href="#kc" overflow="visible"/></clipPath><g clip-path="url(#kd)"><defs><circle id="ke" cx="-454.6" cy="225.5" r="50.5"/></defs><clipPath id="kf"><use xlink:href="#ke" overflow="visible"/></clipPath><g clip-path="url(#kf)"><defs><path id="kg" d="M-629.1-510.5h1121v1030h-1121z"/></defs></g></g></g><g><defs><circle id="kh" cx="-454.6" cy="225.5" r="50.5"/></defs><clipPath id="ki"><use xlink:href="#kh" overflow="visible"/></clipPath><g clip-path="url(#ki)"><defs><path id="kj" d="M-629.1-510.5h1121v1030h-1121z"/></defs></g></g><g><defs><circle id="kk" cx="-454.6" cy="225.5" r="43.5"/></defs><clipPath id="kl"><use xlink:href="#kk" overflow="visible"/></clipPath><g clip-path="url(#kl)"><defs><path id="km" d="M-629.1-510.5h1121v1030h-1121z"/></defs></g></g><g><defs><path id="kn" d="M-461.1 201.5h-1.7l.2 1.6 3.1 32 .1 1.4h11.4l.1-1.4 2.3-32 .1-1.6h-15.6zm0 3h14l-1.5-1.6-2.3 32 1.5-1.4h-8.6l1.5 1.4-3.1-32-1.5 1.6zm-21.6-23h57.3v75h-57.3v-75z"/></defs><clipPath id="ko"><use xlink:href="#kn" overflow="visible"/></clipPath><g clip-path="url(#ko)"><defs><path id="kp" d="M-461.1 203h14l-2.3 32h-8.5z"/></defs><clipPath id="kq"><use xlink:href="#kp" overflow="visible"/></clipPath><g clip-path="url(#kq)"><defs><path id="kr" d="M-629.1-510.5h1121v1030h-1121z"/></defs></g></g></g><g><defs><path id="ks" d="M-461.1 203.3h14l-2.3 32h-8.5z"/></defs><clipPath id="kt"><use xlink:href="#ks" overflow="visible"/></clipPath><g clip-path="url(#kt)"><defs><path id="ku" d="M-629.1-510.2h1121v1030h-1121z"/></defs></g></g><g><defs><path id="kv" d="M-453.6 248.5c-2.2 0-4-1.8-4-4s1.8-4 4-4 4 1.8 4 4-1.8 4-4 4zm0 3c3.9 0 7-3.1 7-7s-3.1-7-7-7-7 3.1-7 7 3.2 7 7 7zm-27-34h54v54h-54v-54z"/></defs><clipPath id="kw"><use xlink:href="#kv" overflow="visible"/></clipPath><g clip-path="url(#kw)"><defs><circle id="kx" cx="-453.6" cy="244.5" r="5.5"/></defs><clipPath id="ky"><use xlink:href="#kx" overflow="visible"/></clipPath><g clip-path="url(#ky)"><defs><path id="kz" d="M-629.1-510.5h1121v1030h-1121z"/></defs></g></g></g><g><defs><circle id="kA" cx="-453.6" cy="244.8" r="5.5"/></defs><clipPath id="kB"><use xlink:href="#kA" overflow="visible"/></clipPath><g clip-path="url(#kB)"><defs><path id="kC" d="M-629.1-510.2h1121v1030h-1121z"/></defs></g></g><g><defs><path id="kD" d="M365.1 182h-1.5v90h134v-90H365.1zm0 3h131l-1.5-1.5v87l1.5-1.5h-131l1.5 1.5v-87l-1.5 1.5zm-21.5-23h174v130h-174V162z"/></defs><clipPath id="kE"><use xlink:href="#kD" overflow="visible"/></clipPath><g clip-path="url(#kE)"><defs><path id="kF" d="M365.1 183.5h131v87h-131z"/></defs><clipPath id="kG"><use xlink:href="#kF" overflow="visible"/></clipPath><g clip-path="url(#kG)"><defs><path id="kH" d="M-510.9-517.5h1121v1030h-1121z"/></defs></g></g></g><g><defs><path id="kI" d="M365.1 183.5h131v87h-131z"/></defs><clipPath id="kJ"><use xlink:href="#kI" overflow="visible"/></clipPath><g clip-path="url(#kJ)"><defs><path id="kK" d="M-510.9-517.5h1121v1030h-1121z"/></defs></g></g><g><defs><path id="kL" d="M469.1 191h-1.5v23h21v-23h-19.5zm0 3h18l-1.5-1.5v20l1.5-1.5h-18l1.5 1.5v-20l-1.5 1.5zm-21.5-23h61v63h-61v-63z"/></defs><clipPath id="kM"><use xlink:href="#kL" overflow="visible"/></clipPath><g clip-path="url(#kM)"><defs><path id="kN" d="M469.1 192.5h18v20h-18z"/></defs><clipPath id="kO"><use xlink:href="#kN" overflow="visible"/></clipPath><g clip-path="url(#kO)"><defs><path id="kP" d="M-510.9-517.5h1121v1030h-1121z"/></defs></g></g></g><g><defs><path id="kQ" d="M469.1 192.5h18v20h-18z"/></defs><clipPath id="kR"><use xlink:href="#kQ" overflow="visible"/></clipPath><g clip-path="url(#kR)"><defs><path id="kS" d="M-510.9-517.5h1121v1030h-1121z"/></defs></g></g><g><defs><path id="kT" d="M474.1 196h-1.5v13h11v-13h-9.5zm0 3h8l-1.5-1.5v10l1.5-1.5h-8l1.5 1.5v-10l-1.5 1.5zm-21.5-23h51v53h-51v-53z"/></defs><clipPath id="kU"><use xlink:href="#kT" overflow="visible"/></clipPath><g clip-path="url(#kU)"><defs><path id="kV" d="M474.1 197.5h8v10h-8z"/></defs><clipPath id="kW"><use xlink:href="#kV" overflow="visible"/></clipPath><g clip-path="url(#kW)"><defs><path id="kX" d="M-510.9-517.5h1121v1030h-1121z"/></defs></g></g></g><g><defs><path id="kY" d="M474.1 197.5h8v10h-8z"/></defs><clipPath id="kZ"><use xlink:href="#kY" overflow="visible"/></clipPath><g clip-path="url(#kZ)"><defs><path id="la" d="M-510.9-517.5h1121v1030h-1121z"/></defs></g></g><g><defs><path id="lb" d="M-433.9 368.2l.2 3c8.3-.7 15.9-2.1 21.4-3.8 2.5-.7 4.4-1.5 5.5-2.2 1.8-1.1 2.5-3 .4-4.1-8.1-4.3-23.9-7.1-41.3-7.1-17.2 0-32.8 2.7-41 6.9-1.8.9-1.5 2.7 0 3.9.9.7 2.4 1.4 4.4 2.1 4.3 1.5 10.5 2.8 17.5 3.7l.3-3c-21.2-2.3-35.5-8.1-35.5-13.8 0-7.7 24.7-14.8 55-14.8s55 7.1 55 14.8c-.1 6.4-17.6 12.7-41.9 14.4zm.2 3c26-1.8 44.7-8.5 44.7-17.4 0-10.3-25.9-17.8-58-17.8s-58 7.5-58 17.8c0 8.1 15.4 14.4 38.2 16.8l.3-3c-6.9-.9-12.9-2.2-16.9-3.6-1.7-.6-3-1.2-3.6-1.6-.1-.1-.1-.1-.2-.1 0 .1.1.2.1.3.1.5-.2.8-.4.9 7.7-4 22.9-6.6 39.7-6.6 17 0 32.3 2.6 39.9 6.7-.1 0-.2-.1-.3-.3-.1-.3-.2-.6-.1-.9 0-.1.1-.2.1-.2-.1.1-.2.2-.4.3-.9.5-2.5 1.2-4.8 1.9-5.2 1.6-12.6 2.9-20.8 3.6l.5 3.2zm-91.4-55.2h156v75.2h-156V316z"/></defs><clipPath id="lc"><use xlink:href="#lb" overflow="visible"/></clipPath><g clip-path="url(#lc)"><defs><path id="ld" d="M-433.8 369.7c24.8-1.7 43.3-8.2 43.3-15.9 0-9-25.3-16.3-56.5-16.3s-56.5 7.3-56.5 16.3c0 7 15.3 13 36.9 15.3-14.9-1.9-24-5.5-21.4-6.9 7.8-4 22.9-6.8 40.4-6.8 17.6 0 32.9 2.8 40.6 6.9 2.6 1.5-9 5.8-26.8 7.4z"/></defs><clipPath id="le"><use xlink:href="#ld" overflow="visible"/></clipPath><g clip-path="url(#le)"><defs><path id="lf" d="M-621.6-529h1121V501h-1121z"/></defs></g></g></g><g><defs><path id="lg" d="M-433.8 369.7c24.8-1.7 43.3-8.2 43.3-15.9 0-9-25.3-16.3-56.5-16.3s-56.5 7.3-56.5 16.3c0 7 15.3 13 36.9 15.3-14.9-1.9-24-5.5-21.4-6.9 7.8-4 22.9-6.8 40.4-6.8 17.6 0 32.9 2.8 40.6 6.9 2.6 1.5-9 5.8-26.8 7.4z"/></defs><clipPath id="lh"><use xlink:href="#lg" overflow="visible"/></clipPath><g clip-path="url(#lh)"><defs><path id="li" d="M-621.6-529h1121V501h-1121z"/></defs></g></g><g><defs><path id="lj" d="M-447.1 390c-30.3 0-55-7.1-55-14.8v-22l-2.8.8c.3.6 1.1 1.4 2.4 2.4 2 1.6 4.9 3.2 8.6 4.7 10.5 4.1 26.3 6.6 48.5 6.6 19.8 0 34.5-2.6 44.8-7.1 3.7-1.6 6.5-3.3 8.6-5 1.3-1.1 2.1-1.9 2.5-2.5l-2.7-.9v23c.1 7.7-24.6 14.8-54.9 14.8zm0 3c32.1 0 58-7.5 58-17.8v-27.7l-2.7 3.8c0 .1-.2.2-.4.4-.4.4-.9.9-1.6 1.4-1.9 1.5-4.5 3.1-8 4.6-9.9 4.3-24.2 6.8-43.6 6.8-21.8 0-37.3-2.4-47.4-6.4-3.5-1.4-6.1-2.8-7.9-4.2-1-.8-1.5-1.4-1.7-1.6l-2.8-4.5v27.3c.1 10.4 26 17.9 58.1 17.9zm-78-65.5h156V413h-156v-85.5z"/></defs><clipPath id="lk"><use xlink:href="#lj" overflow="visible"/></clipPath><g clip-path="url(#lk)"><defs><path id="ll" d="M-447.1 391.5c31.2 0 56.5-7.3 56.5-16.3v-23s-9.9 13.9-54.8 13.9c-50.2 0-58.2-13-58.2-13v22c0 9.1 25.3 16.4 56.5 16.4z"/></defs><clipPath id="lm"><use xlink:href="#ll" overflow="visible"/></clipPath><g clip-path="url(#lm)"><defs><path id="ln" d="M-621.6-529h1121V501h-1121z"/></defs></g></g></g><g><defs><path id="lo" d="M-447.1 391.5c31.2 0 56.5-7.3 56.5-16.3v-23s-9.9 13.9-54.8 13.9c-50.2 0-58.2-13-58.2-13v22c0 9.1 25.3 16.4 56.5 16.4z"/></defs><clipPath id="lp"><use xlink:href="#lo" overflow="visible"/></clipPath><g clip-path="url(#lp)"><defs><path id="lq" d="M-621.6-529h1121V501h-1121z"/></defs></g></g><g><defs><path id="lr" d="M-442.5 426c-8.5 0-15.4-6.9-15.4-15.4s6.9-15.4 15.4-15.4 15.5 6.9 15.5 15.4-7 15.4-15.5 15.4zm0 3c10.2 0 18.5-8.2 18.5-18.4s-8.3-18.4-18.5-18.4-18.4 8.2-18.4 18.4 8.2 18.4 18.4 18.4zm-38.5-56.8h76.9V449H-481v-76.8z"/></defs><clipPath id="ls"><use xlink:href="#lr" overflow="visible"/></clipPath><g clip-path="url(#ls)"><defs><ellipse id="lt" cx="-442.5" cy="410.6" rx="17" ry="16.9"/></defs><clipPath id="lu"><use xlink:href="#lt" overflow="visible"/></clipPath><g clip-path="url(#lu)"><defs><path id="lv" d="M-621.6-529h1121V501h-1121z"/></defs></g></g></g><g><defs><ellipse id="lw" cx="-442.5" cy="410.6" rx="17" ry="16.9"/></defs><clipPath id="lx"><use xlink:href="#lw" overflow="visible"/></clipPath><g clip-path="url(#lx)"><defs><path id="ly" d="M-621.6-529h1121V501h-1121z"/></defs></g></g><g><defs><path id="lz" d="M687.5 166H686v120h96V166h-94.5zm0 3h93l-1.5-1.5v117l1.5-1.5h-93l1.5 1.5v-117l-1.5 1.5zM666 146h136v160H666V146z"/></defs><clipPath id="lA"><use xlink:href="#lz" overflow="visible"/></clipPath><g clip-path="url(#lA)"><defs><path id="lB" d="M687.5 167.5h93v117h-93z"/></defs><clipPath id="lC"><use xlink:href="#lB" overflow="visible"/></clipPath><g clip-path="url(#lC)"><defs><path id="lD" d="M40.5-518h1121V512H40.5z"/></defs></g></g></g><g><defs><path id="lE" d="M687.5 167.5h93v117h-93z"/></defs><clipPath id="lF"><use xlink:href="#lE" overflow="visible"/></clipPath><g clip-path="url(#lF)"><defs><path id="lG" d="M40.5-518h1121V512H40.5z"/></defs></g></g><g><defs><path id="lH" d="M694.5 173H693v23h82v-23h-80.5zm0 3h79l-1.5-1.5v20l1.5-1.5h-79l1.5 1.5v-20l-1.5 1.5zM673 153h122v63H673v-63z"/></defs><clipPath id="lI"><use xlink:href="#lH" overflow="visible"/></clipPath><g clip-path="url(#lI)"><defs><path id="lJ" d="M694.5 174.5h79v20h-79z"/></defs><clipPath id="lK"><use xlink:href="#lJ" overflow="visible"/></clipPath><g clip-path="url(#lK)"><defs><path id="lL" d="M40.5-518h1121V512H40.5z"/></defs></g></g></g><g><defs><path id="lM" d="M694.5 174.5h79v20h-79z"/></defs><clipPath id="lN"><use xlink:href="#lM" overflow="visible"/></clipPath><g clip-path="url(#lN)"><defs><path id="lO" d="M40.5-518h1121V512H40.5z"/></defs></g></g><g><defs><path id="lP" d="M694.5 197H693v81h82v-81h-80.5zm0 3h79l-1.5-1.5v78l1.5-1.5h-79l1.5 1.5v-78l-1.5 1.5zM673 177h122v121H673V177z"/></defs><clipPath id="lQ"><use xlink:href="#lP" overflow="visible"/></clipPath><g clip-path="url(#lQ)"><defs><path id="lR" d="M694.5 198.5h79v78h-79z"/></defs><clipPath id="lS"><use xlink:href="#lR" overflow="visible"/></clipPath><g clip-path="url(#lS)"><defs><path id="lT" d="M40.5-518h1121V512H40.5z"/></defs></g></g></g><g><defs><path id="lU" d="M694.5 198.5h79v78h-79z"/></defs><clipPath id="lV"><use xlink:href="#lU" overflow="visible"/></clipPath><g clip-path="url(#lV)"><defs><path id="lW" d="M40.5-518h1121V512H40.5z"/></defs></g></g><g><defs><path id="lX" d="M439.1 746.9c-27.1 0-49-21.9-49-49s21.9-49 49-49 49 21.9 49 49-21.9 49-49 49zm0 3c28.7 0 52-23.3 52-52s-23.3-52-52-52-52 23.3-52 52 23.3 52 52 52zm-72-124h144v144h-144v-144z"/></defs><clipPath id="lY"><use xlink:href="#lX" overflow="visible"/></clipPath><g clip-path="url(#lY)"><defs><circle id="lZ" cx="439.1" cy="697.9" r="50.5"/></defs><clipPath id="ma"><use xlink:href="#lZ" overflow="visible"/></clipPath><g clip-path="url(#ma)"><defs><path id="mb" d="M264.6-38.1h1121v1030h-1121z"/></defs></g></g></g><g><defs><circle id="mc" cx="439.1" cy="697.9" r="50.5"/></defs><clipPath id="md"><use xlink:href="#mc" overflow="visible"/></clipPath><g clip-path="url(#md)"><defs><path id="me" d="M264.6-38.1h1121v1030h-1121z"/></defs></g></g><g><defs><circle id="mf" cx="439.1" cy="697.9" r="43.5"/></defs><clipPath id="mg"><use xlink:href="#mf" overflow="visible"/></clipPath><g clip-path="url(#mg)"><defs><path id="mh" d="M264.6-38.1h1121v1030h-1121z"/></defs></g></g><g><defs><path id="mi" d="M-158 899.3c-27.1 0-49-21.9-49-49s21.9-49 49-49 49 21.9 49 49c0 27-21.9 49-49 49zm0 3c28.7 0 52-23.3 52-52s-23.3-52-52-52-52 23.3-52 52 23.3 52 52 52zm-72-124h144v144h-144v-144z"/></defs><clipPath id="mj"><use xlink:href="#mi" overflow="visible"/></clipPath><g clip-path="url(#mj)"><defs><circle id="mk" cx="-158" cy="850.3" r="50.5"/></defs><clipPath id="ml"><use xlink:href="#mk" overflow="visible"/></clipPath><g clip-path="url(#ml)"><defs><path id="mm" d="M-332.5 114.3h1121v1030h-1121z"/></defs></g></g></g><g><defs><circle id="mn" cx="-158" cy="850.3" r="50.5"/></defs><clipPath id="mo"><use xlink:href="#mn" overflow="visible"/></clipPath><g clip-path="url(#mo)"><defs><path id="mp" d="M-332.5 114.3h1121v1030h-1121z"/></defs></g></g><g><defs><circle id="mq" cx="-158" cy="850.3" r="43.5"/></defs><clipPath id="mr"><use xlink:href="#mq" overflow="visible"/></clipPath><g clip-path="url(#mr)"><defs><path id="ms" d="M-332.5 114.3h1121v1030h-1121z"/></defs></g></g></svg>