<svg id="Layer_1" data-name="Layer 1" xmlns="http://www.w3.org/2000/svg" viewBox="0 0 276 137"><defs><style>.cls-1{fill:none}.cls-24{fill:#fff;stroke:#0e1f2d;stroke-linecap:round;stroke-miterlimit:10;stroke-width:3px}</style><clipPath id="clip-path"><path class="cls-1" d="M-201.74-139.88h53.51v88.33h-53.51z"/></clipPath><clipPath id="clip-path-3"><path class="cls-1" d="M-194.1-116.1h37.37v11.04h-37.37z"/></clipPath><clipPath id="clip-path-4"><path class="cls-1" d="M-194.1-107.61h37.37v11.04h-37.37z"/></clipPath><clipPath id="clip-path-5"><path class="cls-1" d="M-194.1-99.12h37.37v11.04h-37.37z"/></clipPath><clipPath id="clip-path-6"><path class="cls-1" d="M-194.1-90.62h37.37v11.89h-37.37z"/></clipPath><clipPath id="clip-path-7"><path class="cls-1" d="M-194.1-81.28h37.37v11.89h-37.37z"/></clipPath><clipPath id="clip-path-8"><path class="cls-1" d="M-194.1-71.94h37.37v11.89h-37.37z"/></clipPath><clipPath id="clip-path-9"><path class="cls-1" d="M-193.25-131.39h2.55v11.04h-2.55z"/></clipPath><clipPath id="clip-path-10"><path class="cls-1" d="M-189-131.39h2.55v11.04H-189z"/></clipPath><clipPath id="clip-path-11"><path class="cls-1" d="M-184.75-131.39h2.55v11.04h-2.55z"/></clipPath><clipPath id="clip-path-12"><path class="cls-1" d="M-180.51-131.39h2.55v11.04h-2.55z"/></clipPath><clipPath id="clip-path-13"><path class="cls-1" d="M-176.26-131.39h2.55v11.04h-2.55z"/></clipPath><clipPath id="clip-path-14"><path class="cls-1" d="M-176.26-88.08h2.55v27.18h-2.55z"/></clipPath><clipPath id="clip-path-15"><path class="cls-1" d="M-172.01-131.39h2.55v11.04h-2.55z"/></clipPath><clipPath id="clip-path-16"><path class="cls-1" d="M-167.77-131.39h2.55v11.04h-2.55z"/></clipPath><clipPath id="clip-path-17"><path class="cls-1" d="M-163.52-131.39h2.55v11.04h-2.55z"/></clipPath><clipPath id="clip-path-18"><path class="cls-1" d="M-159.27-131.39h2.55v11.04h-2.55z"/></clipPath><clipPath id="clip-path-19"><circle class="cls-1" cx="-140.59" cy="-63.44" r="26.33"/></clipPath><clipPath id="clip-path-21"><circle class="cls-1" cx="-454" cy="-88.5" r="50.5"/></clipPath><clipPath id="clip-path-22"><circle class="cls-1" cx="-454" cy="-88.5" r="43.5"/></clipPath><clipPath id="clip-path-23"><circle class="cls-1" cx="-159.84" cy="68.5" r="50.5"/></clipPath><clipPath id="clip-path-24"><circle class="cls-1" cx="-159.84" cy="68.5" r="43.5"/></clipPath><clipPath id="clip-path-25"><circle class="cls-1" cx="434" cy="68.5" r="50.5"/></clipPath><clipPath id="clip-path-26"><circle class="cls-1" cx="434" cy="68.5" r="43.5"/></clipPath></defs><path class="cls-24" d="M134.56 31.07h6.88v49.84h-6.88z"/><path class="cls-24" d="M114.75 88.78c0-4.75-4.31-14.25-4.31-14.25h55.12s-3.36 9.61-3.36 14.17c0 5 3.36 14.59 3.36 14.59h-55.12s4.31-9.67 4.31-14.51z"/><path class="cls-24" d="M169.1 110.84a5.59 5.59 0 0 1-3.31-.37 7.47 7.47 0 0 1-11.53 2.84 5.58 5.58 0 0 1-4.48.75 5.44 5.44 0 0 1-2.07.87 5.6 5.6 0 0 1-3.31-.37 7.46 7.46 0 0 1-11.52 2.84 5.48 5.48 0 0 1-2 .82 5.58 5.58 0 0 1-6.44-3.9 7.47 7.47 0 0 1-6.27-1.46 5.59 5.59 0 0 1-9.48-.77 5.59 5.59 0 0 1-3.19-10.56 5.53 5.53 0 0 1 3.28-.54 7.45 7.45 0 0 1 10.35-5.81 5.43 5.43 0 0 1 1.72-1.33 5.6 5.6 0 0 1 7.51 2.5 5.51 5.51 0 0 1 .57 2.07 7.2 7.2 0 0 1 2.11-.76 7.45 7.45 0 0 1 7.49 3 5.66 5.66 0 0 1 2.38-1.09 5.6 5.6 0 0 1 5.14 1.65.2.2 0 0 0 .35-.14 7.46 7.46 0 0 1 13.52-4.5 5.49 5.49 0 0 1 2.38-1.09 5.6 5.6 0 0 1 6.56 4.36 5.6 5.6 0 0 1 .26 11zm-43.22-92.89h24.25v13.46h-24.25z"/><path class="cls-24" d="M130.87 22.1h14.26v5.16h-14.26z"/></svg>