<svg id="Layer_1" data-name="Layer 1" xmlns="http://www.w3.org/2000/svg" viewBox="0 0 276 137"><defs><style>.cls-1,.cls-7{fill:none}.cls-6{fill:#fff}.cls-6,.cls-7{stroke:#0c1f2e;stroke-linecap:round;stroke-miterlimit:10;stroke-width:3px}.cls-8{fill:#0c1f2e}</style><clipPath id="clip-path"><circle class="cls-1" cx="-750" cy="67.5" r="50.5"/></clipPath><clipPath id="clip-path-2"><circle class="cls-1" cx="-750" cy="67.5" r="43.5"/></clipPath><clipPath id="clip-path-3"><circle class="cls-1" cx="-459.22" cy="67.5" r="50.5"/></clipPath><clipPath id="clip-path-4"><circle class="cls-1" cx="-459.22" cy="67.5" r="43.5"/></clipPath></defs><path class="cls-6" d="M117.38 97.43a12.45 12.45 0 0 0 23.23-5.06c.07-.76.16-2.67.14-2.89a19.21 19.21 0 0 1 3.67-12.6s7.29-9 7.9-15v-.39a22.46 22.46 0 0 0-44.76-3.82q-.06.72-.08 1.43"/><path class="cls-6" d="M113.91 59.59a15.4 15.4 0 0 1 .05-1.79 15.24 15.24 0 1 1 30.37 2.62q-.06.72-.19 1.41"/><path class="cls-7" d="M160.9 36a16.72 16.72 0 0 1 7.32 24.41m-13.64-18.73a11.88 11.88 0 0 1 5.2 17.32m4.47-30a23.07 23.07 0 0 1 13.07 36.48"/><circle class="cls-8" cx="128.19" cy="59.28" r="5.65" transform="rotate(-85.07 128.188 59.28)"/></svg>