<svg id="Layer_1" data-name="Layer 1" xmlns="http://www.w3.org/2000/svg" viewBox="0 0 276 137"><defs><style>.cls-1,.cls-2,.cls-3{fill:none}.cls-1{clip-rule:evenodd}.cls-3{fill-rule:evenodd}.cls-4{clip-path:url(#clip-path)}.cls-5{clip-path:url(#clip-path-2)}.cls-6{clip-path:url(#clip-path-4)}.cls-7{clip-path:url(#clip-path-5)}.cls-8{clip-path:url(#clip-path-7)}.cls-9{clip-path:url(#clip-path-8)}.cls-10{clip-path:url(#clip-path-10)}.cls-11{clip-path:url(#clip-path-11)}.cls-12{clip-path:url(#clip-path-13)}.cls-13{clip-path:url(#clip-path-14)}.cls-14{clip-path:url(#clip-path-16)}.cls-15{clip-path:url(#clip-path-17)}.cls-16{clip-path:url(#clip-path-19)}.cls-17{clip-path:url(#clip-path-20)}.cls-18{clip-path:url(#clip-path-22)}.cls-19{clip-path:url(#clip-path-23)}.cls-20{clip-path:url(#clip-path-25)}.cls-21{clip-path:url(#clip-path-26)}.cls-22{clip-path:url(#clip-path-28)}.cls-23{clip-path:url(#clip-path-29)}.cls-24{clip-path:url(#clip-path-31)}.cls-25{clip-path:url(#clip-path-32)}.cls-26{clip-path:url(#clip-path-34)}.cls-27{clip-path:url(#clip-path-35)}.cls-28{clip-path:url(#clip-path-37)}.cls-29{clip-path:url(#clip-path-38)}.cls-30{clip-path:url(#clip-path-40)}.cls-31{clip-path:url(#clip-path-41)}.cls-32{clip-path:url(#clip-path-43)}.cls-33{clip-path:url(#clip-path-44)}.cls-34{clip-path:url(#clip-path-46)}.cls-35{clip-path:url(#clip-path-47)}.cls-36{clip-path:url(#clip-path-49)}.cls-37{clip-path:url(#clip-path-50)}.cls-38{clip-path:url(#clip-path-52)}.cls-39{clip-path:url(#clip-path-53)}.cls-40{clip-path:url(#clip-path-55)}.cls-41{clip-path:url(#clip-path-56)}.cls-42{clip-path:url(#clip-path-57)}.cls-43{fill:#fff;stroke:#091f2f;stroke-linecap:round;stroke-miterlimit:10;stroke-width:3px}</style><clipPath id="clip-path"><path class="cls-1" d="M383.67-127.51h-1.5v84h108v-84h-106.5zm0 3h105l-1.5-1.5v81l1.5-1.5h-105l1.5 1.5v-81zm-21.5-23h148v124h-148z"/></clipPath><clipPath id="clip-path-2"><path class="cls-2" d="M383.67-126.01h105v81h-105z"/></clipPath><clipPath id="clip-path-4"><path class="cls-1" d="M377.67-110.51h-2.24l.85-2.07 9.07-22 .38-.93H486.6l.38.93 9.07 22 .85 2.07H377.67zm0-3h117l-1.39 2.07-9.07-22 1.39.93h-98.86l1.39-.93-9.07 22zm-22.24 23h161.48v-65H355.43z"/></clipPath><clipPath id="clip-path-5"><path class="cls-1" d="M377.67-112.01h117l-9.07-22h-98.86l-9.07 22z"/></clipPath><clipPath id="clip-path-7"><path class="cls-1" d="M462.67-143.51h-1.5v19h15v-19h-13.5zm0 3h12l-1.5-1.5v16l1.5-1.5h-12l1.5 1.5v-16zm-21.5-23h55v59h-55z"/></clipPath><clipPath id="clip-path-8"><path class="cls-2" d="M462.67-142.01h12v16h-12z"/></clipPath><clipPath id="clip-path-10"><path class="cls-1" d="M396.67-77.51h-1.5v34h24v-34h-22.5zm0 3h21l-1.5-1.5v31l1.5-1.5h-21l1.5 1.5V-76zm-21.5-23h64v74h-64z"/></clipPath><clipPath id="clip-path-11"><path class="cls-2" d="M396.67-76.01h21v31h-21z"/></clipPath><clipPath id="clip-path-13"><path class="cls-1" d="M397.67-105.51h-1.5v22h22v-22h-20.5zm0 3h19l-1.5-1.5v19l1.5-1.5h-19l1.5 1.5v-19zm-21.5-23h62v62h-62z"/></clipPath><clipPath id="clip-path-14"><path class="cls-2" d="M397.67-104.01h19v19h-19z"/></clipPath><clipPath id="clip-path-16"><path class="cls-1" d="M402.67-100.51h-1.5v12h12v-12h-10.5zm0 3h9l-1.5-1.5v9l1.5-1.5h-9l1.5 1.5v-9zm-21.5-23h52v52h-52z"/></clipPath><clipPath id="clip-path-17"><path class="cls-2" d="M402.67-99.01h9v9h-9z"/></clipPath><clipPath id="clip-path-19"><path class="cls-1" d="M427.67-105.51h-1.5v22h22v-22h-20.5zm0 3h19l-1.5-1.5v19l1.5-1.5h-19l1.5 1.5v-19zm-21.5-23h62v62h-62z"/></clipPath><clipPath id="clip-path-20"><path class="cls-2" d="M427.67-104.01h19v19h-19z"/></clipPath><clipPath id="clip-path-22"><path class="cls-1" d="M456.67-105.51h-1.5v22h22v-22h-20.5zm0 3h19l-1.5-1.5v19l1.5-1.5h-19l1.5 1.5v-19zm-21.5-23h62v62h-62z"/></clipPath><clipPath id="clip-path-23"><path class="cls-2" d="M456.67-104.01h19v19h-19z"/></clipPath><clipPath id="clip-path-25"><path class="cls-1" d="M427.67-77.51h-1.5v22h22v-22h-20.5zm0 3h19l-1.5-1.5v19l1.5-1.5h-19l1.5 1.5V-76zm-21.5-23h62v62h-62z"/></clipPath><clipPath id="clip-path-26"><path class="cls-2" d="M427.67-76.01h19v19h-19z"/></clipPath><clipPath id="clip-path-28"><path class="cls-1" d="M456.67-77.51h-1.5v22h22v-22h-20.5zm0 3h19l-1.5-1.5v19l1.5-1.5h-19l1.5 1.5V-76zm-21.5-23h62v62h-62z"/></clipPath><clipPath id="clip-path-29"><path class="cls-2" d="M456.67-76.01h19v19h-19z"/></clipPath><clipPath id="clip-path-31"><path class="cls-1" d="M432.67-100.51h-1.5v12h12v-12h-10.5zm0 3h9l-1.5-1.5v9l1.5-1.5h-9l1.5 1.5v-9zm-21.5-23h52v52h-52z"/></clipPath><clipPath id="clip-path-32"><path class="cls-2" d="M432.67-99.01h9v9h-9z"/></clipPath><clipPath id="clip-path-34"><path class="cls-1" d="M461.67-100.51h-1.5v12h12v-12h-10.5zm0 3h9l-1.5-1.5v9l1.5-1.5h-9l1.5 1.5v-9zm-21.5-23h52v52h-52z"/></clipPath><clipPath id="clip-path-35"><path class="cls-2" d="M461.67-99.01h9v9h-9z"/></clipPath><clipPath id="clip-path-37"><path class="cls-1" d="M432.67-72.51h-1.5v12h12v-12h-10.5zm0 3h9l-1.5-1.5v9l1.5-1.5h-9l1.5 1.5v-9zm-21.5-23h52v52h-52z"/></clipPath><clipPath id="clip-path-38"><path class="cls-2" d="M432.67-71.01h9v9h-9z"/></clipPath><clipPath id="clip-path-40"><path class="cls-1" d="M461.67-72.51h-1.5v12h12v-12h-10.5zm0 3h9l-1.5-1.5v9l1.5-1.5h-9l1.5 1.5v-9zm-21.5-23h52v52h-52z"/></clipPath><clipPath id="clip-path-41"><path class="cls-2" d="M461.67-71.01h9v9h-9z"/></clipPath><clipPath id="clip-path-43"><path class="cls-1" d="M-643.77 666.13h-1.5v38h142V679l-.41-.43-11.44-12-.44-.46h-128.2zm0 3h127.56l-1.09-.46 11.44 12-.41-1v23l1.5-1.5h-139l1.5 1.5v-35zm-21.5-23h182v78h-182z"/></clipPath><clipPath id="clip-path-44"><path class="cls-1" d="M-643.77 667.63h127.56l11.44 12v23h-139v-35z"/></clipPath><clipPath id="clip-path-46"><path class="cls-1" d="M-610.77 717.55a14.5 14.5 0 0 1-14.5-14.5 14.5 14.5 0 0 1 14.5-14.5 14.5 14.5 0 0 1 14.5 14.5 14.5 14.5 0 0 1-14.5 14.5zm0 3a17.5 17.5 0 0 0 17.5-17.5 17.5 17.5 0 0 0-17.5-17.5 17.5 17.5 0 0 0-17.5 17.5 17.5 17.5 0 0 0 17.5 17.5zm-37.5-55h75v75h-75z"/></clipPath><clipPath id="clip-path-47"><circle class="cls-2" cx="-610.77" cy="703.05" r="16"/></clipPath><clipPath id="clip-path-49"><path class="cls-1" d="M-610.77 710.55a7.5 7.5 0 0 1-7.5-7.5 7.5 7.5 0 0 1 7.5-7.5 7.5 7.5 0 0 1 7.5 7.5 7.5 7.5 0 0 1-7.5 7.5zm0 3a10.5 10.5 0 0 0 10.5-10.5 10.5 10.5 0 0 0-10.5-10.5 10.5 10.5 0 0 0-10.5 10.5 10.5 10.5 0 0 0 10.5 10.5zm-30.5-41h61v61h-61z"/></clipPath><clipPath id="clip-path-50"><circle class="cls-2" cx="-610.77" cy="703.05" r="9"/></clipPath><clipPath id="clip-path-52"><path class="cls-1" d="M-544.54 717.55a14.5 14.5 0 0 1-14.5-14.5 14.5 14.5 0 0 1 14.5-14.5 14.5 14.5 0 0 1 14.5 14.5 14.5 14.5 0 0 1-14.5 14.5zm0 3a17.5 17.5 0 0 0 17.5-17.5 17.5 17.5 0 0 0-17.5-17.5 17.5 17.5 0 0 0-17.5 17.5 17.5 17.5 0 0 0 17.5 17.5zm-37.5-55h75v75h-75z"/></clipPath><clipPath id="clip-path-53"><circle class="cls-2" cx="-544.54" cy="703.05" r="16"/></clipPath><clipPath id="clip-path-55"><path class="cls-1" d="M-544.31 662.72l-7.69-15.57h-27.17v15.57zm-75.16 0l7.38-15.55h27.17v15.53zm-10.3 5.35l14.14-26.89h66.84l15.35 27.82z"/></clipPath><clipPath id="clip-path-56"><path class="cls-1" d="M-544.54 710.55a7.5 7.5 0 0 1-7.5-7.5 7.5 7.5 0 0 1 7.5-7.5 7.5 7.5 0 0 1 7.5 7.5 7.5 7.5 0 0 1-7.5 7.5zm0 3a10.5 10.5 0 0 0 10.5-10.5 10.5 10.5 0 0 0-10.5-10.5 10.5 10.5 0 0 0-10.5 10.5 10.5 10.5 0 0 0 10.5 10.5zm-30.5-41h61v61h-61z"/></clipPath><clipPath id="clip-path-57"><circle class="cls-2" cx="-544.54" cy="703.05" r="9"/></clipPath></defs><title>EXPERIENTIAL ICONS</title><path class="cls-43" d="M174.31 114.17c-.4-6-13.73-10.81-30.16-10.81s-29.76 4.82-30.16 10.81zM150.42 80.39c0 3.86-7 11.48-7 11.48s-7-7.62-7-11.48a7 7 0 0 1 14 0zM150.42 55.2c0 3.86-7 11.48-7 11.48s-7-7.62-7-11.48a7 7 0 0 1 14 0zM150.42 32.81c0 3.86-7 11.48-7 11.48s-7-7.62-7-11.48a7 7 0 0 1 14 0zM166.13 93c-2.38 3-12.58 4.72-12.58 4.72s-.79-10.31 1.59-13.34a7 7 0 1 1 11 8.63zM180 75.36c-2.38 3-12.58 4.72-12.58 4.72s-.79-10.31 1.59-13.34a7 7 0 1 1 11 8.63zM193.77 57.75c-2.38 3-12.58 4.72-12.58 4.72s-.79-10.31 1.59-13.34a7 7 0 0 1 11 8.63zM119.34 93c2.38 3 12.58 4.72 12.58 4.72s.79-10.31-1.59-13.34a7 7 0 1 0-11 8.63zM105.51 75.36c2.38 3 12.58 4.72 12.58 4.72s.79-10.31-1.59-13.34a7 7 0 0 0-11 8.63zM91.69 57.75c2.38 3 12.58 4.72 12.58 4.72s.79-10.31-1.59-13.34a7 7 0 1 0-11 8.63z"/></svg>