<svg id="Layer_1" data-name="Layer 1" xmlns="http://www.w3.org/2000/svg" viewBox="0 0 276 137"><defs><style>.cls-1,.cls-2,.cls-37,.cls-38,.cls-59,.cls-63,.cls-65,.cls-66{fill:none}.cls-1,.cls-3,.cls-4{clip-rule:evenodd}.cls-3,.cls-34,.cls-36,.cls-4,.cls-62{fill:#fff}.cls-3,.cls-37,.cls-38,.cls-4,.cls-62,.cls-63,.cls-65,.cls-66{stroke:#0e1f2d}.cls-3,.cls-37,.cls-38,.cls-4,.cls-59,.cls-62,.cls-63,.cls-65,.cls-66{stroke-miterlimit:10}.cls-3,.cls-65,.cls-66{stroke-width:3px}.cls-37,.cls-38,.cls-4{stroke-width:1.88px}.cls-34,.cls-38,.cls-66{fill-rule:evenodd}.cls-35{clip-path:url(#clip-path-43)}.cls-57{clip-path:url(#clip-path-64)}.cls-58{clip-path:url(#clip-path-65)}.cls-59{stroke:#101f2c;stroke-linecap:round;stroke-width:6px}.cls-60{clip-path:url(#clip-path-66)}.cls-61{fill:#0e1f2d}.cls-62,.cls-63{stroke-width:3.58px}.cls-64{clip-path:url(#clip-path-68)}</style><clipPath id="clip-path"><path class="cls-1" d="M-208.33-284.51h-1.5v84h108v-84h-106.5zm0 3h105l-1.5-1.5v81l1.5-1.5h-105l1.5 1.5v-81zm-21.5-23h148v124h-148z"/></clipPath><clipPath id="clip-path-2"><path class="cls-2" d="M-208.33-283.01h105v81h-105z"/></clipPath><clipPath id="clip-path-4"><path class="cls-1" d="M-214.33-267.51h-2.24l.85-2.07 9.07-22 .38-.93h100.87l.38.93 9.07 22 .85 2.07h-119.23zm0-3h117l-1.39 2.07-9.07-22 1.39.93h-98.86l1.39-.93-9.07 22zm-22.24 23h161.48v-65h-161.48z"/></clipPath><clipPath id="clip-path-5"><path class="cls-1" d="M-214.33-269.01h117l-9.07-22h-98.86l-9.07 22z"/></clipPath><clipPath id="clip-path-7"><path class="cls-1" d="M-129.33-300.51h-1.5v19h15v-19h-13.5zm0 3h12l-1.5-1.5v16l1.5-1.5h-12l1.5 1.5v-16zm-21.5-23h55v59h-55z"/></clipPath><clipPath id="clip-path-8"><path class="cls-2" d="M-129.33-299.01h12v16h-12z"/></clipPath><clipPath id="clip-path-10"><path class="cls-1" d="M-195.33-234.51h-1.5v34h24v-34h-22.5zm0 3h21l-1.5-1.5v31l1.5-1.5h-21l1.5 1.5v-31zm-21.5-23h64v74h-64z"/></clipPath><clipPath id="clip-path-11"><path class="cls-2" d="M-195.33-233.01h21v31h-21z"/></clipPath><clipPath id="clip-path-13"><path class="cls-1" d="M-194.33-262.51h-1.5v22h22v-22h-20.5zm0 3h19l-1.5-1.5v19l1.5-1.5h-19l1.5 1.5v-19zm-21.5-23h62v62h-62z"/></clipPath><clipPath id="clip-path-14"><path class="cls-2" d="M-194.33-261.01h19v19h-19z"/></clipPath><clipPath id="clip-path-16"><path class="cls-1" d="M-189.33-257.51h-1.5v12h12v-12h-10.5zm0 3h9l-1.5-1.5v9l1.5-1.5h-9l1.5 1.5v-9zm-21.5-23h52v52h-52z"/></clipPath><clipPath id="clip-path-17"><path class="cls-2" d="M-189.33-256.01h9v9h-9z"/></clipPath><clipPath id="clip-path-19"><path class="cls-1" d="M-164.33-262.51h-1.5v22h22v-22h-20.5zm0 3h19l-1.5-1.5v19l1.5-1.5h-19l1.5 1.5v-19zm-21.5-23h62v62h-62z"/></clipPath><clipPath id="clip-path-20"><path class="cls-2" d="M-164.33-261.01h19v19h-19z"/></clipPath><clipPath id="clip-path-22"><path class="cls-1" d="M-135.33-262.51h-1.5v22h22v-22h-20.5zm0 3h19l-1.5-1.5v19l1.5-1.5h-19l1.5 1.5v-19zm-21.5-23h62v62h-62z"/></clipPath><clipPath id="clip-path-23"><path class="cls-2" d="M-135.33-261.01h19v19h-19z"/></clipPath><clipPath id="clip-path-25"><path class="cls-1" d="M-164.33-234.51h-1.5v22h22v-22h-20.5zm0 3h19l-1.5-1.5v19l1.5-1.5h-19l1.5 1.5v-19zm-21.5-23h62v62h-62z"/></clipPath><clipPath id="clip-path-26"><path class="cls-2" d="M-164.33-233.01h19v19h-19z"/></clipPath><clipPath id="clip-path-28"><path class="cls-1" d="M-135.33-234.51h-1.5v22h22v-22h-20.5zm0 3h19l-1.5-1.5v19l1.5-1.5h-19l1.5 1.5v-19zm-21.5-23h62v62h-62z"/></clipPath><clipPath id="clip-path-29"><path class="cls-2" d="M-135.33-233.01h19v19h-19z"/></clipPath><clipPath id="clip-path-31"><path class="cls-1" d="M-159.33-257.51h-1.5v12h12v-12h-10.5zm0 3h9l-1.5-1.5v9l1.5-1.5h-9l1.5 1.5v-9zm-21.5-23h52v52h-52z"/></clipPath><clipPath id="clip-path-32"><path class="cls-2" d="M-159.33-256.01h9v9h-9z"/></clipPath><clipPath id="clip-path-34"><path class="cls-1" d="M-130.33-257.51h-1.5v12h12v-12h-10.5zm0 3h9l-1.5-1.5v9l1.5-1.5h-9l1.5 1.5v-9zm-21.5-23h52v52h-52z"/></clipPath><clipPath id="clip-path-35"><path class="cls-2" d="M-130.33-256.01h9v9h-9z"/></clipPath><clipPath id="clip-path-37"><path class="cls-1" d="M-159.33-229.51h-1.5v12h12v-12h-10.5zm0 3h9l-1.5-1.5v9l1.5-1.5h-9l1.5 1.5v-9zm-21.5-23h52v52h-52z"/></clipPath><clipPath id="clip-path-38"><path class="cls-2" d="M-159.33-228.01h9v9h-9z"/></clipPath><clipPath id="clip-path-40"><path class="cls-1" d="M-130.33-229.51h-1.5v12h12v-12h-10.5zm0 3h9l-1.5-1.5v9l1.5-1.5h-9l1.5 1.5v-9zm-21.5-23h52v52h-52z"/></clipPath><clipPath id="clip-path-41"><path class="cls-2" d="M-130.33-228.01h9v9h-9z"/></clipPath><clipPath id="clip-path-43"><path class="cls-4" d="M389.33-106.21h65.16l5.85 5.75v11.01h-71.01v-16.76z"/></clipPath><clipPath id="clip-path-44"><path class="cls-2" d="M390.26 17.12h53.51v88.33h-53.51z"/></clipPath><clipPath id="clip-path-46"><path class="cls-2" d="M397.9 40.9h37.37v11.04H397.9z"/></clipPath><clipPath id="clip-path-47"><path class="cls-2" d="M397.9 49.39h37.37v11.04H397.9z"/></clipPath><clipPath id="clip-path-48"><path class="cls-2" d="M397.9 57.88h37.37v11.04H397.9z"/></clipPath><clipPath id="clip-path-49"><path class="cls-2" d="M397.9 66.38h37.37v11.89H397.9z"/></clipPath><clipPath id="clip-path-50"><path class="cls-2" d="M397.9 75.72h37.37v11.89H397.9z"/></clipPath><clipPath id="clip-path-51"><path class="cls-2" d="M397.9 85.06h37.37v11.89H397.9z"/></clipPath><clipPath id="clip-path-52"><path class="cls-2" d="M398.75 25.61h2.55v11.04h-2.55z"/></clipPath><clipPath id="clip-path-53"><path class="cls-2" d="M403 25.61h2.55v11.04H403z"/></clipPath><clipPath id="clip-path-54"><path class="cls-2" d="M407.25 25.61h2.55v11.04h-2.55z"/></clipPath><clipPath id="clip-path-55"><path class="cls-2" d="M411.49 25.61h2.55v11.04h-2.55z"/></clipPath><clipPath id="clip-path-56"><path class="cls-2" d="M415.74 25.61h2.55v11.04h-2.55z"/></clipPath><clipPath id="clip-path-57"><path class="cls-2" d="M415.74 68.92h2.55V96.1h-2.55z"/></clipPath><clipPath id="clip-path-58"><path class="cls-2" d="M419.99 25.61h2.55v11.04h-2.55z"/></clipPath><clipPath id="clip-path-59"><path class="cls-2" d="M424.23 25.61h2.55v11.04h-2.55z"/></clipPath><clipPath id="clip-path-60"><path class="cls-2" d="M428.48 25.61h2.55v11.04h-2.55z"/></clipPath><clipPath id="clip-path-61"><path class="cls-2" d="M432.73 25.61h2.55v11.04h-2.55z"/></clipPath><clipPath id="clip-path-62"><circle class="cls-2" cx="451.41" cy="93.56" r="26.33"/></clipPath><clipPath id="clip-path-64"><circle class="cls-2" cx="138" cy="68.5" r="50.5"/></clipPath><clipPath id="clip-path-65"><path class="cls-2" d="M-36.5-667.5h1121v1030h-1121z"/></clipPath><clipPath id="clip-path-66"><circle class="cls-2" cx="138" cy="68.5" r="43.5"/></clipPath><clipPath id="clip-path-68"><path class="cls-3" d="M-520.75 227.33h109.48l9.81 9.65v18.51h-119.29v-28.16z"/></clipPath><clipPath id="clip-path-69"><circle class="cls-2" cx="432.16" cy="225.5" r="50.5"/></clipPath><clipPath id="clip-path-70"><circle class="cls-2" cx="432.16" cy="225.5" r="43.5"/></clipPath></defs><path class="cls-34" d="M389.33-106.21h65.16l5.85 5.75v11.01h-71.01v-16.76z"/><g class="cls-35"><path class="cls-36" d="M199.31-362.45h572.62v493.32H199.31z"/><path class="cls-37" d="M199.31-362.45h572.62v493.32H199.31z"/></g><path class="cls-38" d="M389.33-106.21h65.16l5.85 5.75v11.01h-71.01v-16.76z"/><circle class="cls-36" cx="138.36" cy="68.64" r="48.55" transform="rotate(-45 138.361 68.639)"/><g class="cls-57"><g class="cls-58"><circle class="cls-59" cx="138" cy="68.5" r="50.5"/></g></g><g class="cls-60"><g class="cls-58"><circle class="cls-59" cx="138" cy="68.5" r="43.5"/></g></g><path class="cls-61" transform="rotate(29.48 147.485 54.61)" d="M145.47 37.09h4.04v35.07h-4.04z"/><path class="cls-62" d="M136.9 101.15l-2.68-1.06-1.73-.69c-.61-.24-1.22-.49-1.82-.76q-2.3-1-4.5-2.19c-1.18-.64-2.35-1.33-3.48-2.06q-2.17-1.38-4.21-3c-.49-.37-1-.76-1.46-1.15l-1.45-1.19-2.34-1.93s9.95-11.53 10.59-12.67c3.17-5.6 8.85-8.57 13.58-7.45a8.22 8.22 0 0 1 4.11 2.38c3.29 3.5 3.64 9.82.5 15.36-.64 1.2-5.11 16.41-5.11 16.41z"/><path class="cls-63" d="M123.04 75.55l18.34 10.37"/><path class="cls-61" d="M122.69 94.4l7.35-9.18-3.87 11.23-3.48-2.05zm-4.21-2.96c-.49-.37-1-.76-1.46-1.15l-1.45-1.19 7-5.8zm15.74 8.65l-1.73-.69c-.61-.24-1.22-.49-1.82-.76L135 91z"/><circle class="cls-61" cx="145.58" cy="91.75" r="1.84" transform="rotate(-51.52 145.577 91.748)"/><circle class="cls-61" cx="152.43" cy="94.84" r=".92" transform="rotate(-51.52 152.423 94.848)"/><circle class="cls-61" cx="144.35" cy="100.13" r="1.84" transform="rotate(-51.52 144.346 100.122)"/><circle class="cls-61" cx="111.58" cy="80.7" r="1.84" transform="rotate(-18.35 111.608 80.697)"/><circle class="cls-61" cx="107.54" cy="74.36" r=".92" transform="rotate(-18.35 107.55 74.356)"/><circle class="cls-61" cx="117.19" cy="74.35" r="1.84" transform="rotate(-18.35 117.206 74.36)"/><path class="cls-34" d="M-520.75 227.33h109.48l9.81 9.65v18.51h-119.29v-28.16z"/><g class="cls-64"><path class="cls-36" d="M-840.01-203.18h962.06v828.83h-962.06z"/><path class="cls-65" d="M-840.01-203.18h962.06v828.83h-962.06z"/></g><path class="cls-66" d="M-520.75 227.33h109.48l9.81 9.65v18.51h-119.29v-28.16z"/></svg>