<svg xmlns="http://www.w3.org/2000/svg" viewBox="0 0 276 137"><path fill="#FFF" stroke="#0E1F2D" stroke-width="3.078" stroke-linecap="round" stroke-miterlimit="10" d="M136.882 37.718v-16.3h2.2v16.3zM161.3 65.6c0 13.6-10.4 28-24.1 28-13.6 0-22.6-14.3-22.6-28s7.1-24.7 23.2-24.7c15.8 0 23.5 11.1 23.5 24.7z"/><path fill="#FFF" stroke="#0E1F2D" stroke-width="3.078" stroke-linecap="round" stroke-miterlimit="10" d="M122.1 86.4h31.8v7.2h-31.8z"/><path fill="#FFF" stroke="#0E1F2D" stroke-width="3.078" stroke-linecap="round" stroke-miterlimit="10" d="M145.8 100.8h-15.6l-5.6-7.2h26.8zm-23.1-59.7h30.6v4.7h-30.6zm5.2-4.9h20.2v4.3h-20.2zm16.5 0h-12.8v-4.4l6.4-3.7 6.4 3.7z"/><ellipse fill="#FFF" stroke="#0E1F2D" stroke-width="3.078" stroke-linecap="round" stroke-miterlimit="10" cx="138" cy="21.4" rx="2.9" ry="3.6"/><path fill="#FFF" stroke="#0E1F2D" stroke-width="3.078" stroke-linecap="round" stroke-miterlimit="10" d="M130.6 100.8h14.8v18.9h-14.8z"/><path fill="none" stroke="#0E1F2D" stroke-width="3.078" stroke-linecap="round" stroke-miterlimit="10" d="M87.3 43.3l21 11.7m0 20l-21 11.7M93 65h13.3m82.4 21.7l-21-11.7m0-20l21-11.7M183 65h-13.3"/><defs><circle id="a" cx="-466.8" cy="225.5" r="50.5"/></defs><defs><circle id="b" cx="-466.8" cy="225.5" r="43.5"/></defs></svg>