<svg xmlns="http://www.w3.org/2000/svg" viewBox="0 0 276 137"><g data-name="Layer 1" stroke-miterlimit="10" stroke-width="3"><path fill="#fff" stroke="#101f2c" d="M81.47 19.27h113.06v75.32H81.47z"/><path fill="#fff" stroke="#101f2c" d="M88.44 25.09h99.12v63.74H88.44zm34.85 69.51h29.43v17.97h-29.43z"/><path fill="#fff" stroke="#101f2c" d="M114.4 112.56h47.21v5.16H114.4z"/><path d="M167.56 56.49c-16.18-17.28-42.37-17.28-58.55 0m-.01-.32c16.18 17.28 42.37 17.28 58.55 0" fill="none" stroke="#0c1f2e" stroke-linecap="round"/><circle cx="138.29" cy="56.49" r="7.84" fill="none" stroke="#0c1f2e"/><ellipse cx="138.29" cy="56.24" rx="13.59" ry="12.63" fill="none" stroke="#0c1f2e"/><path fill="none" stroke="#0c1f2e" d="M107.7 45.52l7.84 5.87m3.94-11.49l5.59 5.59m12.17-10.45v8.48m18.67-3.55l-5.44 5.45m17.83.49L163.21 51m5.09 16.56l-7.84-5.86m-52.76 5.86l7.84-5.86m23.22 14.52v-8.49m17.76 4.69l-5.59-5.59m-30.84 5.52l5.44-5.45"/></g></svg>