<svg xmlns="http://www.w3.org/2000/svg" viewBox="0 0 276 137"><defs><style>.cls-1,.cls-2{fill:none}.cls-1{clip-rule:evenodd}.cls-70{fill:#fff;stroke:#0c1f2e;stroke-linecap:round;stroke-miterlimit:10;stroke-width:3px}.cls-71{fill:#0c1f2e}</style><clipPath id="clip-path"><path class="cls-1" d="M78.48-363.56a38.94 38.94 0 0 1-38.94-38.94 38.94 38.94 0 0 1 38.94-38.94 38.94 38.94 0 0 1 38.94 38.94 38.94 38.94 0 0 1-38.94 38.94zm0 3a41.94 41.94 0 0 0 41.94-41.94 41.94 41.94 0 0 0-41.94-41.94 41.94 41.94 0 0 0-41.94 41.94 41.94 41.94 0 0 0 41.94 41.94zM16.54-464.44h123.88v123.88H16.54z"/></clipPath><clipPath id="clip-path-2"><circle class="cls-2" cx="78.48" cy="-402.5" r="40.44"/></clipPath><clipPath id="clip-path-4"><path class="cls-1" d="M191.48-363.56a38.94 38.94 0 0 1-38.94-38.94 38.94 38.94 0 0 1 38.94-38.94 38.94 38.94 0 0 1 38.94 38.94 38.94 38.94 0 0 1-38.94 38.94zm0 3a41.94 41.94 0 0 0 41.94-41.94 41.94 41.94 0 0 0-41.94-41.94 41.94 41.94 0 0 0-41.94 41.94 41.94 41.94 0 0 0 41.94 41.94zm-61.94-103.88h123.88v123.88H129.54z"/></clipPath><clipPath id="clip-path-5"><circle class="cls-2" cx="191.48" cy="-402.5" r="40.44"/></clipPath><clipPath id="clip-path-7"><path class="cls-1" d="M379.79-438.09h-1.5v84h108v-84h-106.5zm0 3h105l-1.5-1.5v81l1.5-1.5h-105l1.5 1.5v-81zm-21.5-23h148v124h-148z"/></clipPath><clipPath id="clip-path-8"><path class="cls-2" d="M379.79-436.59h105v81h-105z"/></clipPath><clipPath id="clip-path-10"><path class="cls-1" d="M373.79-421.09h-2.24l.85-2.07 9.07-22 .38-.93h100.88l.38.93 9.07 22 .85 2.07H373.79zm0-3h117l-1.38 2.09-9.07-22 1.39.93h-98.87l1.39-.93-9.07 22zm-22.24 23H513v-65H351.55z"/></clipPath><clipPath id="clip-path-11"><path class="cls-1" d="M373.79-422.59h117l-9.06-22h-98.87l-9.07 22z"/></clipPath><clipPath id="clip-path-13"><path class="cls-1" d="M458.79-454.09h-1.5v19h15v-19h-13.5zm0 3h12l-1.5-1.5v16l1.5-1.5h-12l1.5 1.5v-16zm-21.5-23h55v59h-55z"/></clipPath><clipPath id="clip-path-14"><path class="cls-2" d="M458.79-452.59h12v16h-12z"/></clipPath><clipPath id="clip-path-16"><path class="cls-1" d="M392.79-388.09h-1.5v34h24v-34h-22.5zm0 3h21l-1.5-1.5v31l1.5-1.5h-21l1.5 1.5v-31zm-21.5-23h64v74h-64z"/></clipPath><clipPath id="clip-path-17"><path class="cls-2" d="M392.79-386.59h21v31h-21z"/></clipPath><clipPath id="clip-path-19"><path class="cls-1" d="M393.79-416.09h-1.5v22h22v-22h-20.5zm0 3h19l-1.5-1.5v19l1.5-1.5h-19l1.5 1.5v-19zm-21.5-23h62v62h-62z"/></clipPath><clipPath id="clip-path-20"><path class="cls-2" d="M393.79-414.59h19v19h-19z"/></clipPath><clipPath id="clip-path-22"><path class="cls-1" d="M398.79-411.09h-1.5v12h12v-12h-10.5zm0 3h9l-1.5-1.5v9l1.5-1.5h-9l1.5 1.5v-9zm-21.5-23h52v52h-52z"/></clipPath><clipPath id="clip-path-23"><path class="cls-2" d="M398.79-409.59h9v9h-9z"/></clipPath><clipPath id="clip-path-25"><path class="cls-1" d="M423.79-416.09h-1.5v22h22v-22h-20.5zm0 3h19l-1.5-1.5v19l1.5-1.5h-19l1.5 1.5v-19zm-21.5-23h62v62h-62z"/></clipPath><clipPath id="clip-path-26"><path class="cls-2" d="M423.79-414.59h19v19h-19z"/></clipPath><clipPath id="clip-path-28"><path class="cls-1" d="M452.79-416.09h-1.5v22h22v-22h-20.5zm0 3h19l-1.5-1.5v19l1.5-1.5h-19l1.5 1.5v-19zm-21.5-23h62v62h-62z"/></clipPath><clipPath id="clip-path-29"><path class="cls-2" d="M452.79-414.59h19v19h-19z"/></clipPath><clipPath id="clip-path-31"><path class="cls-1" d="M423.79-388.09h-1.5v22h22v-22h-20.5zm0 3h19l-1.5-1.5v19l1.5-1.5h-19l1.5 1.5v-19zm-21.5-23h62v62h-62z"/></clipPath><clipPath id="clip-path-32"><path class="cls-2" d="M423.79-386.59h19v19h-19z"/></clipPath><clipPath id="clip-path-34"><path class="cls-1" d="M452.79-388.09h-1.5v22h22v-22h-20.5zm0 3h19l-1.5-1.5v19l1.5-1.5h-19l1.5 1.5v-19zm-21.5-23h62v62h-62z"/></clipPath><clipPath id="clip-path-35"><path class="cls-2" d="M452.79-386.59h19v19h-19z"/></clipPath><clipPath id="clip-path-37"><path class="cls-1" d="M428.79-411.09h-1.5v12h12v-12h-10.5zm0 3h9l-1.5-1.5v9l1.5-1.5h-9l1.5 1.5v-9zm-21.5-23h52v52h-52z"/></clipPath><clipPath id="clip-path-38"><path class="cls-2" d="M428.79-409.59h9v9h-9z"/></clipPath><clipPath id="clip-path-40"><path class="cls-1" d="M457.79-411.09h-1.5v12h12v-12h-10.5zm0 3h9l-1.5-1.5v9l1.5-1.5h-9l1.5 1.5v-9zm-21.5-23h52v52h-52z"/></clipPath><clipPath id="clip-path-41"><path class="cls-2" d="M457.79-409.59h9v9h-9z"/></clipPath><clipPath id="clip-path-43"><path class="cls-1" d="M428.79-383.09h-1.5v12h12v-12h-10.5zm0 3h9l-1.5-1.5v9l1.5-1.5h-9l1.5 1.5v-9zm-21.5-23h52v52h-52z"/></clipPath><clipPath id="clip-path-44"><path class="cls-2" d="M428.79-381.59h9v9h-9z"/></clipPath><clipPath id="clip-path-46"><path class="cls-1" d="M457.79-383.09h-1.5v12h12v-12h-10.5zm0 3h9l-1.5-1.5v9l1.5-1.5h-9l1.5 1.5v-9zm-21.5-23h52v52h-52z"/></clipPath><clipPath id="clip-path-47"><path class="cls-2" d="M457.79-381.59h9v9h-9z"/></clipPath><clipPath id="clip-path-49"><path class="cls-1" d="M434-199.74a49 49 0 0 1-49-49 49 49 0 0 1 49-49 49 49 0 0 1 49 49 49 49 0 0 1-49 49zm0 3a52 52 0 0 0 52-52 52 52 0 0 0-52-52 52 52 0 0 0-52 52 52 52 0 0 0 52 52zm-72-124h144v144H362z"/></clipPath><clipPath id="clip-path-50"><circle class="cls-2" cx="434" cy="-248.74" r="50.5"/></clipPath><clipPath id="clip-path-52"><circle class="cls-2" cx="434" cy="-248.74" r="43.5"/></clipPath><clipPath id="clip-path-53"><path class="cls-1" d="M434.71-32.53a44.58 44.58 0 0 1-44.58-44.57 44.58 44.58 0 0 1 44.58-44.58 44.58 44.58 0 0 1 44.57 44.58 44.58 44.58 0 0 1-44.57 44.57zm0 2.73A47.31 47.31 0 0 0 482-77.1a47.31 47.31 0 0 0-47.31-47.31A47.31 47.31 0 0 0 387.4-77.1a47.31 47.31 0 0 0 47.31 47.3zm-65.5-112.8h131v131h-131z"/></clipPath><clipPath id="clip-path-54"><circle class="cls-2" cx="434.71" cy="-77.1" r="45.94"/></clipPath><clipPath id="clip-path-56"><circle class="cls-2" cx="434.71" cy="-77.1" r="39.57"/></clipPath><clipPath id="clip-path-57"><path class="cls-1" d="M973.5 34.21H972v84h108v-84H973.5zm0 3h105l-1.5-1.5v81l1.5-1.5h-105l1.5 1.5v-81zm-21.5-23h148v124H952z"/></clipPath><clipPath id="clip-path-58"><path class="cls-2" d="M973.5 35.71h105v81h-105z"/></clipPath><clipPath id="clip-path-60"><path class="cls-1" d="M967.5 51.21h-2.24l.85-2.07 9.07-22 .38-.93h100.87l.38.93 9.07 22 .85 2.07H967.5zm0-3h117l-1.39 2.07-9.07-22 1.39.93h-98.86l1.39-.93-9.07 22zm-22.24 23h161.48v-65H945.26z"/></clipPath><clipPath id="clip-path-61"><path class="cls-1" d="M967.5 49.71h117l-9.07-22h-98.86l-9.07 22z"/></clipPath><clipPath id="clip-path-63"><path class="cls-1" d="M1052.5 18.21h-1.5v19h15v-19h-13.5zm0 3h12l-1.5-1.5v16l1.5-1.5h-12l1.5 1.5v-16zm-21.5-23h55v59h-55z"/></clipPath><clipPath id="clip-path-64"><path class="cls-2" d="M1052.5 19.71h12v16h-12z"/></clipPath><clipPath id="clip-path-66"><path class="cls-1" d="M986.5 84.21H985v34h24v-34h-22.5zm0 3h21l-1.5-1.5v31l1.5-1.5h-21l1.5 1.5v-31zm-21.5-23h64v74h-64z"/></clipPath><clipPath id="clip-path-67"><path class="cls-2" d="M986.5 85.71h21v31h-21z"/></clipPath><clipPath id="clip-path-69"><path class="cls-1" d="M987.5 56.21H986v22h22v-22h-20.5zm0 3h19l-1.5-1.5v19l1.5-1.5h-19l1.5 1.5v-19zm-21.5-23h62v62h-62z"/></clipPath><clipPath id="clip-path-70"><path class="cls-2" d="M987.5 57.71h19v19h-19z"/></clipPath><clipPath id="clip-path-72"><path class="cls-1" d="M992.5 61.21H991v12h12v-12h-10.5zm0 3h9l-1.5-1.5v9l1.5-1.5h-9l1.5 1.5v-9zm-21.5-23h52v52h-52z"/></clipPath><clipPath id="clip-path-73"><path class="cls-2" d="M992.5 62.71h9v9h-9z"/></clipPath><clipPath id="clip-path-75"><path class="cls-1" d="M1017.5 56.21h-1.5v22h22v-22h-20.5zm0 3h19l-1.5-1.5v19l1.5-1.5h-19l1.5 1.5v-19zm-21.5-23h62v62h-62z"/></clipPath><clipPath id="clip-path-76"><path class="cls-2" d="M1017.5 57.71h19v19h-19z"/></clipPath><clipPath id="clip-path-78"><path class="cls-1" d="M1046.5 56.21h-1.5v22h22v-22h-20.5zm0 3h19l-1.5-1.5v19l1.5-1.5h-19l1.5 1.5v-19zm-21.5-23h62v62h-62z"/></clipPath><clipPath id="clip-path-79"><path class="cls-2" d="M1046.5 57.71h19v19h-19z"/></clipPath><clipPath id="clip-path-81"><path class="cls-1" d="M1017.5 84.21h-1.5v22h22v-22h-20.5zm0 3h19l-1.5-1.5v19l1.5-1.5h-19l1.5 1.5v-19zm-21.5-23h62v62h-62z"/></clipPath><clipPath id="clip-path-82"><path class="cls-2" d="M1017.5 85.71h19v19h-19z"/></clipPath><clipPath id="clip-path-84"><path class="cls-1" d="M1046.5 84.21h-1.5v22h22v-22h-20.5zm0 3h19l-1.5-1.5v19l1.5-1.5h-19l1.5 1.5v-19zm-21.5-23h62v62h-62z"/></clipPath><clipPath id="clip-path-85"><path class="cls-2" d="M1046.5 85.71h19v19h-19z"/></clipPath><clipPath id="clip-path-87"><path class="cls-1" d="M1022.5 61.21h-1.5v12h12v-12h-10.5zm0 3h9l-1.5-1.5v9l1.5-1.5h-9l1.5 1.5v-9zm-21.5-23h52v52h-52z"/></clipPath><clipPath id="clip-path-88"><path class="cls-2" d="M1022.5 62.71h9v9h-9z"/></clipPath><clipPath id="clip-path-90"><path class="cls-1" d="M1051.5 61.21h-1.5v12h12v-12h-10.5zm0 3h9l-1.5-1.5v9l1.5-1.5h-9l1.5 1.5v-9zm-21.5-23h52v52h-52z"/></clipPath><clipPath id="clip-path-91"><path class="cls-2" d="M1051.5 62.71h9v9h-9z"/></clipPath><clipPath id="clip-path-93"><path class="cls-1" d="M1022.5 89.21h-1.5v12h12v-12h-10.5zm0 3h9l-1.5-1.5v9l1.5-1.5h-9l1.5 1.5v-9zm-21.5-23h52v52h-52z"/></clipPath><clipPath id="clip-path-94"><path class="cls-2" d="M1022.5 90.71h9v9h-9z"/></clipPath><clipPath id="clip-path-96"><path class="cls-1" d="M1051.5 89.21h-1.5v12h12v-12h-10.5zm0 3h9l-1.5-1.5v9l1.5-1.5h-9l1.5 1.5v-9zm-21.5-23h52v52h-52z"/></clipPath><clipPath id="clip-path-97"><path class="cls-2" d="M1051.5 90.71h9v9h-9z"/></clipPath></defs><g id="Layer_1" data-name="Layer 1"><path class="cls-70" transform="rotate(-47.2 122.28 59.27)" d="M74.82 37.84h94.92v42.84H74.82z"/><circle class="cls-70" cx="122.53" cy="59.32" r="14.52" transform="rotate(-10.33 122.513 59.313)"/><path class="cls-70" transform="rotate(-28.63 137.455 70.241)" d="M90 48.82h94.92v42.84H90z"/><circle class="cls-70" cx="137.53" cy="71.32" r="14.52" transform="rotate(-10.33 137.544 71.323)"/><path class="cls-70" transform="matrix(.98 -.18 .18 .98 -13.06 28.07)" d="M101.26 64.87h94.92v42.84h-94.92z"/><circle class="cls-70" cx="147.53" cy="86.32" r="14.52" transform="rotate(-10.33 147.508 86.332)"/><path class="cls-71" d="M147.88 95.46l-.37-2.06a8.86 8.86 0 0 1-3.85-.26l.19-2.65a7.77 7.77 0 0 0 3.77.3c1.23-.22 2-.86 1.83-1.72s-.94-1.22-2.64-1.47c-2.46-.36-4.24-1.15-4.62-3.25-.35-1.91.72-3.64 3-4.52l-.37-2.06 2.12-.39.35 1.9a7.93 7.93 0 0 1 3.27.14l-.24 2.58a7.3 7.3 0 0 0-3.25-.17c-1.41.26-1.75.95-1.64 1.55s1 1 2.94 1.39c2.74.44 4 1.44 4.35 3.39S152 92 149.6 92.87l.4 2.21z"/></g></svg>