<svg xmlns="http://www.w3.org/2000/svg" xmlns:xlink="http://www.w3.org/1999/xlink" viewBox="0 0 276 137"><g stroke="#0E1F2D" stroke-width="3.078" stroke-linecap="round" stroke-miterlimit="10"><path fill="#FFF" d="M175.7 117.7h-75.4V19.3h50.5l24.9 22.5z"/><path fill="none" d="M150.8 19.3v22.5h24.9"/></g><path fill="#0C1F2E" d="M109.8 86.6h58.8v3h-58.8zM109.8 95.8h58.8v3h-58.8zM109.8 105h58.8v3h-58.8z"/><g fill="#0C1F2E"><path d="M126.4 53.6v4.7h-9.7v4.1c.7-.2 1.6-.3 2.5-.3 2.4 0 4.4.7 6.1 2.1 1.7 1.4 2.6 3.3 2.6 5.8 0 2.4-.9 4.4-2.6 6-1.8 1.6-3.9 2.4-6.5 2.4-3.3 0-6.1-1.2-8.3-3.7l2.9-4 .8.8c.4.3 1 .7 1.9 1.2.9.5 1.9.8 2.8.8.9 0 1.8-.3 2.5-.8.7-.6 1.1-1.4 1.1-2.5s-.4-1.9-1.2-2.5c-.8-.6-1.8-.9-3-.9s-2.7.4-4.3 1.3l-2.3-2.5v-12h14.7zM147.3 53.6v4.7h-9.7v4.1c.7-.2 1.6-.3 2.5-.3 2.4 0 4.4.7 6.1 2.1 1.7 1.4 2.6 3.3 2.6 5.8 0 2.4-.9 4.4-2.6 6-1.8 1.6-3.9 2.4-6.5 2.4-3.3 0-6.1-1.2-8.3-3.7l2.9-4 .8.8c.4.3 1 .7 1.9 1.2.9.5 1.9.8 2.8.8.9 0 1.8-.3 2.5-.8.7-.6 1.1-1.4 1.1-2.5s-.4-1.9-1.2-2.5c-.8-.6-1.8-.9-3-.9s-2.7.4-4.3 1.3l-2.3-2.5v-12h14.7zM158.3 74.3V68h-6.1v-4.3h6.1v-6.3h4.8v6.3h6.1V68h-6.1v6.3h-4.8z"/></g><g><defs><circle id="a" cx="125.2" cy="225.5" r="50.5"/></defs><clipPath id="b"><use xlink:href="#a" overflow="visible"/></clipPath><g clip-path="url(#b)"><defs><path id="c" d="M-49.3-510.5h1121v1030h-1121z"/></defs></g></g><g><defs><circle id="d" cx="125.2" cy="225.5" r="43.5"/></defs><clipPath id="e"><use xlink:href="#d" overflow="visible"/></clipPath><g clip-path="url(#e)"><defs><path id="f" d="M-49.3-510.5h1121v1030h-1121z"/></defs></g></g></svg>