<svg xmlns="http://www.w3.org/2000/svg" xmlns:xlink="http://www.w3.org/1999/xlink" viewBox="0 0 276 137"><defs><path id="a" d="M83.4-458.8h-1.5v84h108v-84H83.4zm0 3h105l-1.5-1.5v81l1.5-1.5h-105l1.5 1.5v-81l-1.5 1.5zm-21.5-23h148v124h-148v-124z"/></defs><clipPath id="b"><use xlink:href="#a" overflow="visible"/></clipPath><g clip-path="url(#b)"><defs><path id="c" d="M83.4-457.3h105v81h-105z"/></defs></g><defs><path id="d" d="M83.4-457.3h105v81h-105z"/></defs><defs><path id="e" d="M77.4-441.8h-2.2l.9-2.1 9.1-22 .4-.9h100.9l.4.9 9.1 22 .9 2.1H77.4zm0-3h117l-1.4 2.1-9.1-22 1.4.9H86.5l1.4-.9-9.1 22-1.4-2.1zm-22.3 23h161.5v-65H55.1v65z"/></defs><clipPath id="f"><use xlink:href="#e" overflow="visible"/></clipPath><g clip-path="url(#f)"><defs><path id="g" d="M77.4-443.3h117l-9.1-22H86.5z"/></defs></g><defs><path id="h" d="M77.4-443.3h117l-9.1-22H86.5z"/></defs><defs><path id="i" d="M162.4-474.8h-1.5v19h15v-19h-13.5zm0 3h12l-1.5-1.5v16l1.5-1.5h-12l1.5 1.5v-16l-1.5 1.5zm-21.5-23h55v59h-55v-59z"/></defs><clipPath id="j"><use xlink:href="#i" overflow="visible"/></clipPath><g clip-path="url(#j)"><defs><path id="k" d="M162.4-473.3h12v16h-12z"/></defs></g><defs><path id="l" d="M162.4-473.3h12v16h-12z"/></defs><defs><path id="m" d="M96.4-408.8h-1.5v34h24v-34H96.4zm0 3h21l-1.5-1.5v31l1.5-1.5h-21l1.5 1.5v-31l-1.5 1.5zm-21.5-23h64v74h-64v-74z"/></defs><clipPath id="n"><use xlink:href="#m" overflow="visible"/></clipPath><g clip-path="url(#n)"><defs><path id="o" d="M96.4-407.3h21v31h-21z"/></defs></g><defs><path id="p" d="M96.4-407.3h21v31h-21z"/></defs><defs><path id="q" d="M97.4-436.8h-1.5v22h22v-22H97.4zm0 3h19l-1.5-1.5v19l1.5-1.5h-19l1.5 1.5v-19l-1.5 1.5zm-21.5-23h62v62h-62v-62z"/></defs><clipPath id="r"><use xlink:href="#q" overflow="visible"/></clipPath><g clip-path="url(#r)"><defs><path id="s" d="M97.4-435.3h19v19h-19z"/></defs></g><defs><path id="t" d="M97.4-435.3h19v19h-19z"/></defs><defs><path id="u" d="M102.4-431.8h-1.5v12h12v-12h-10.5zm0 3h9l-1.5-1.5v9l1.5-1.5h-9l1.5 1.5v-9l-1.5 1.5zm-21.5-23h52v52h-52v-52z"/></defs><clipPath id="v"><use xlink:href="#u" overflow="visible"/></clipPath><g clip-path="url(#v)"><defs><path id="w" d="M102.4-430.3h9v9h-9z"/></defs></g><defs><path id="x" d="M102.4-430.3h9v9h-9z"/></defs><defs><path id="y" d="M127.4-436.8h-1.5v22h22v-22h-20.5zm0 3h19l-1.5-1.5v19l1.5-1.5h-19l1.5 1.5v-19l-1.5 1.5zm-21.5-23h62v62h-62v-62z"/></defs><clipPath id="z"><use xlink:href="#y" overflow="visible"/></clipPath><g clip-path="url(#z)"><defs><path id="A" d="M127.4-435.3h19v19h-19z"/></defs></g><defs><path id="B" d="M127.4-435.3h19v19h-19z"/></defs><defs><path id="C" d="M156.4-436.8h-1.5v22h22v-22h-20.5zm0 3h19l-1.5-1.5v19l1.5-1.5h-19l1.5 1.5v-19l-1.5 1.5zm-21.5-23h62v62h-62v-62z"/></defs><clipPath id="D"><use xlink:href="#C" overflow="visible"/></clipPath><g clip-path="url(#D)"><defs><path id="E" d="M156.4-435.3h19v19h-19z"/></defs></g><defs><path id="F" d="M156.4-435.3h19v19h-19z"/></defs><defs><path id="G" d="M127.4-408.8h-1.5v22h22v-22h-20.5zm0 3h19l-1.5-1.5v19l1.5-1.5h-19l1.5 1.5v-19l-1.5 1.5zm-21.5-23h62v62h-62v-62z"/></defs><clipPath id="H"><use xlink:href="#G" overflow="visible"/></clipPath><g clip-path="url(#H)"><defs><path id="I" d="M127.4-407.3h19v19h-19z"/></defs></g><defs><path id="J" d="M127.4-407.3h19v19h-19z"/></defs><defs><path id="K" d="M156.4-408.8h-1.5v22h22v-22h-20.5zm0 3h19l-1.5-1.5v19l1.5-1.5h-19l1.5 1.5v-19l-1.5 1.5zm-21.5-23h62v62h-62v-62z"/></defs><clipPath id="L"><use xlink:href="#K" overflow="visible"/></clipPath><g clip-path="url(#L)"><defs><path id="M" d="M156.4-407.3h19v19h-19z"/></defs></g><defs><path id="N" d="M156.4-407.3h19v19h-19z"/></defs><defs><path id="O" d="M132.4-431.8h-1.5v12h12v-12h-10.5zm0 3h9l-1.5-1.5v9l1.5-1.5h-9l1.5 1.5v-9l-1.5 1.5zm-21.5-23h52v52h-52v-52z"/></defs><clipPath id="P"><use xlink:href="#O" overflow="visible"/></clipPath><g clip-path="url(#P)"><defs><path id="Q" d="M132.4-430.3h9v9h-9z"/></defs></g><defs><path id="R" d="M132.4-430.3h9v9h-9z"/></defs><defs><path id="S" d="M161.4-431.8h-1.5v12h12v-12h-10.5zm0 3h9l-1.5-1.5v9l1.5-1.5h-9l1.5 1.5v-9l-1.5 1.5zm-21.5-23h52v52h-52v-52z"/></defs><clipPath id="T"><use xlink:href="#S" overflow="visible"/></clipPath><g clip-path="url(#T)"><defs><path id="U" d="M161.4-430.3h9v9h-9z"/></defs></g><defs><path id="V" d="M161.4-430.3h9v9h-9z"/></defs><defs><path id="W" d="M132.4-403.8h-1.5v12h12v-12h-10.5zm0 3h9l-1.5-1.5v9l1.5-1.5h-9l1.5 1.5v-9l-1.5 1.5zm-21.5-23h52v52h-52v-52z"/></defs><clipPath id="X"><use xlink:href="#W" overflow="visible"/></clipPath><g clip-path="url(#X)"><defs><path id="Y" d="M132.4-402.3h9v9h-9z"/></defs></g><defs><path id="Z" d="M132.4-402.3h9v9h-9z"/></defs><defs><path id="aa" d="M161.4-403.8h-1.5v12h12v-12h-10.5zm0 3h9l-1.5-1.5v9l1.5-1.5h-9l1.5 1.5v-9l-1.5 1.5zm-21.5-23h52v52h-52v-52z"/></defs><clipPath id="ab"><use xlink:href="#aa" overflow="visible"/></clipPath><g clip-path="url(#ab)"><defs><path id="ac" d="M161.4-402.3h9v9h-9z"/></defs></g><defs><path id="ad" d="M161.4-402.3h9v9h-9z"/></defs><defs><path id="ae" d="M-225.5-140h-1.5v90h134v-90h-132.5zm0 3h131l-1.5-1.5v87l1.5-1.5h-131l1.5 1.5v-87l-1.5 1.5zm-21.5-23h174v130h-174v-130z"/></defs><clipPath id="af"><use xlink:href="#ae" overflow="visible"/></clipPath><g clip-path="url(#af)"><defs><path id="ag" d="M-225.5-138.5h131v87h-131z"/></defs></g><defs><path id="ah" d="M-225.5-138.5h131v87h-131z"/></defs><defs><path id="ai" d="M-220.5-135h-1.5v80h124v-80h-122.5zm0 3h121l-1.5-1.5v77l1.5-1.5h-121l1.5 1.5v-77l-1.5 1.5zm-21.5-23h164v120h-164v-120z"/></defs><clipPath id="aj"><use xlink:href="#ai" overflow="visible"/></clipPath><g clip-path="url(#aj)"><defs><path id="ak" d="M-220.5-133.5h121v77h-121z"/></defs></g><defs><path id="al" d="M-220.5-133.5h121v77h-121z"/></defs><defs><path id="am" d="M-155.5-120h-1.5v6h47v-6h-45.5zm0 3h44l-1.5-1.5v3l1.5-1.5h-44l1.5 1.5v-3l-1.5 1.5zm-21.5-23h87v46h-87v-46z"/></defs><clipPath id="an"><use xlink:href="#am" overflow="visible"/></clipPath><g clip-path="url(#an)"><defs><path id="ao" d="M-155.5-118.5h44v3h-44z"/></defs></g><defs><path id="ap" d="M-155.5-118.5h44v3h-44z"/></defs><defs><path id="aq" d="M-155.5-114h-1.5v6h47v-6h-45.5zm0 3h44l-1.5-1.5v3l1.5-1.5h-44l1.5 1.5v-3l-1.5 1.5zm-21.5-23h87v46h-87v-46z"/></defs><clipPath id="ar"><use xlink:href="#aq" overflow="visible"/></clipPath><g clip-path="url(#ar)"><defs><path id="as" d="M-155.5-112.5h44v3h-44z"/></defs></g><defs><path id="at" d="M-155.5-112.5h44v3h-44z"/></defs><defs><path id="au" d="M-155.5-108h-1.5v6h47v-6h-45.5zm0 3h44l-1.5-1.5v3l1.5-1.5h-44l1.5 1.5v-3l-1.5 1.5zm-21.5-23h87v46h-87v-46z"/></defs><clipPath id="av"><use xlink:href="#au" overflow="visible"/></clipPath><g clip-path="url(#av)"><defs><path id="aw" d="M-155.5-106.5h44v3h-44z"/></defs></g><defs><path id="ax" d="M-155.5-106.5h44v3h-44z"/></defs><defs><path id="ay" d="M-155.5-102h-1.5v6h47v-6h-45.5zm0 3h44l-1.5-1.5v3l1.5-1.5h-44l1.5 1.5v-3l-1.5 1.5zm-21.5-23h87v46h-87v-46z"/></defs><clipPath id="az"><use xlink:href="#ay" overflow="visible"/></clipPath><g clip-path="url(#az)"><defs><path id="aA" d="M-155.5-100.5h44v3h-44z"/></defs></g><defs><path id="aB" d="M-155.5-100.5h44v3h-44z"/></defs><defs><path id="aC" d="M68.1-140h-1.5v90h134v-90H68.1zm0 3h131l-1.5-1.5v87l1.5-1.5h-131l1.5 1.5v-87l-1.5 1.5zm-21.5-23h174v130h-174v-130z"/></defs><clipPath id="aD"><use xlink:href="#aC" overflow="visible"/></clipPath><g clip-path="url(#aD)"><defs><path id="aE" d="M68.1-138.5h131v87h-131z"/></defs></g><defs><path id="aF" d="M68.1-138.5h131v87h-131z"/></defs><defs><path id="aG" d="M73.1-135h-1.5v80h124v-80H73.1zm0 3h121l-1.5-1.5v77l1.5-1.5h-121l1.5 1.5v-77l-1.5 1.5zm-21.5-23h164v120h-164v-120z"/></defs><clipPath id="aH"><use xlink:href="#aG" overflow="visible"/></clipPath><g clip-path="url(#aH)"><defs><path id="aI" d="M73.1-133.5h121v77h-121z"/></defs></g><defs><path id="aJ" d="M73.1-133.5h121v77h-121z"/></defs><defs><path id="aK" d="M138.1-120h-1.5v6h47v-6h-45.5zm0 3h44l-1.5-1.5v3l1.5-1.5h-44l1.5 1.5v-3l-1.5 1.5zm-21.5-23h87v46h-87v-46z"/></defs><clipPath id="aL"><use xlink:href="#aK" overflow="visible"/></clipPath><g clip-path="url(#aL)"><defs><path id="aM" d="M138.1-118.5h44v3h-44z"/></defs></g><defs><path id="aN" d="M138.1-118.5h44v3h-44z"/></defs><defs><path id="aO" d="M138.1-114h-1.5v6h47v-6h-45.5zm0 3h44l-1.5-1.5v3l1.5-1.5h-44l1.5 1.5v-3l-1.5 1.5zm-21.5-23h87v46h-87v-46z"/></defs><clipPath id="aP"><use xlink:href="#aO" overflow="visible"/></clipPath><g clip-path="url(#aP)"><defs><path id="aQ" d="M138.1-112.5h44v3h-44z"/></defs></g><defs><path id="aR" d="M138.1-112.5h44v3h-44z"/></defs><defs><path id="aS" d="M138.1-108h-1.5v6h47v-6h-45.5zm0 3h44l-1.5-1.5v3l1.5-1.5h-44l1.5 1.5v-3l-1.5 1.5zm-21.5-23h87v46h-87v-46z"/></defs><clipPath id="aT"><use xlink:href="#aS" overflow="visible"/></clipPath><g clip-path="url(#aT)"><defs><path id="aU" d="M138.1-106.5h44v3h-44z"/></defs></g><g><defs><path id="aV" d="M138.1-106.5h44v3h-44z"/></defs></g><g><defs><path id="aW" d="M138.1-102h-1.5v6h47v-6h-45.5zm0 3h44l-1.5-1.5v3l1.5-1.5h-44l1.5 1.5v-3l-1.5 1.5zm-21.5-23h87v46h-87v-46z"/></defs><clipPath id="aX"><use xlink:href="#aW" overflow="visible"/></clipPath><g clip-path="url(#aX)"><defs><path id="aY" d="M138.1-100.5h44v3h-44z"/></defs></g></g><g><defs><path id="aZ" d="M138.1-100.5h44v3h-44z"/></defs></g><g><path fill="#FFF" d="M76.7 24.5h119.7v87.9H76.7z"/><path fill="#091F2F" d="M197.9 113.9H75.2V23h122.7v90.9zm-119.7-3h116.7V26H78.2v84.9z"/></g><g><path fill="#091F2F" d="M140 43.5h43v3h-43z"/></g><g><path fill="#091F2F" d="M140 55.5h43v3h-43z"/></g><g><path fill="#091F2F" d="M140 67.5h43v3h-43z"/></g><g><path fill="#091F2F" d="M140 79.5h43v3h-43z"/></g><g><path fill="#091F2F" d="M140 91.5h43v3h-43z"/></g><path fill="#FFF" stroke="#091F2F" stroke-width="3" stroke-miterlimit="10" d="M92 45h34.8v48H92z"/><g><path fill="#FFF" stroke="#091F2F" stroke-width="3" stroke-miterlimit="10" d="M114 70.2h-9.2l-6.5 4.9V92h22.2V75.3z"/></g><g><circle fill="#FFF" stroke="#091F2F" stroke-width="3" stroke-miterlimit="10" cx="109.2" cy="60.2" r="5.9"/></g></svg>