<svg xmlns="http://www.w3.org/2000/svg" xmlns:xlink="http://www.w3.org/1999/xlink" viewBox="0 0 276 137"><defs><path id="a" d="M-212.6-458.8h-1.5v84h108v-84h-106.5zm0 3h105l-1.5-1.5v81l1.5-1.5h-105l1.5 1.5v-81l-1.5 1.5zm-21.5-23h148v124h-148v-124z"/></defs><clipPath id="b"><use xlink:href="#a" overflow="visible"/></clipPath><g clip-path="url(#b)"><defs><path id="c" d="M-212.6-457.3h105v81h-105z"/></defs></g><defs><path id="d" d="M-212.6-457.3h105v81h-105z"/></defs><defs><path id="e" d="M-218.6-441.8h-2.2l.9-2.1 9.1-22 .4-.9h100.9l.4.9 9.1 22 .9 2.1h-119.5zm0-3h117l-1.4 2.1-9.1-22 1.4.9h-98.9l1.4-.9-9.1 22-1.3-2.1zm-22.3 23h161.5v-65h-161.5v65z"/></defs><clipPath id="f"><use xlink:href="#e" overflow="visible"/></clipPath><g clip-path="url(#f)"><defs><path id="g" d="M-218.6-443.3h117l-9.1-22h-98.8z"/></defs></g><defs><path id="h" d="M-218.6-443.3h117l-9.1-22h-98.8z"/></defs><defs><path id="i" d="M-133.6-474.8h-1.5v19h15v-19h-13.5zm0 3h12l-1.5-1.5v16l1.5-1.5h-12l1.5 1.5v-16l-1.5 1.5zm-21.5-23h55v59h-55v-59z"/></defs><clipPath id="j"><use xlink:href="#i" overflow="visible"/></clipPath><g clip-path="url(#j)"><defs><path id="k" d="M-133.6-473.3h12v16h-12z"/></defs></g><defs><path id="l" d="M-133.6-473.3h12v16h-12z"/></defs><defs><path id="m" d="M-199.6-408.8h-1.5v34h24v-34h-22.5zm0 3h21l-1.5-1.5v31l1.5-1.5h-21l1.5 1.5v-31l-1.5 1.5zm-21.5-23h64v74h-64v-74z"/></defs><clipPath id="n"><use xlink:href="#m" overflow="visible"/></clipPath><g clip-path="url(#n)"><defs><path id="o" d="M-199.6-407.3h21v31h-21z"/></defs></g><defs><path id="p" d="M-199.6-407.3h21v31h-21z"/></defs><defs><path id="q" d="M-198.6-436.8h-1.5v22h22v-22h-20.5zm0 3h19l-1.5-1.5v19l1.5-1.5h-19l1.5 1.5v-19l-1.5 1.5zm-21.5-23h62v62h-62v-62z"/></defs><clipPath id="r"><use xlink:href="#q" overflow="visible"/></clipPath><g clip-path="url(#r)"><defs><path id="s" d="M-198.6-435.3h19v19h-19z"/></defs></g><defs><path id="t" d="M-198.6-435.3h19v19h-19z"/></defs><defs><path id="u" d="M-193.6-431.8h-1.5v12h12v-12h-10.5zm0 3h9l-1.5-1.5v9l1.5-1.5h-9l1.5 1.5v-9l-1.5 1.5zm-21.5-23h52v52h-52v-52z"/></defs><clipPath id="v"><use xlink:href="#u" overflow="visible"/></clipPath><g clip-path="url(#v)"><defs><path id="w" d="M-193.6-430.3h9v9h-9z"/></defs></g><defs><path id="x" d="M-193.6-430.3h9v9h-9z"/></defs><defs><path id="y" d="M-168.6-436.8h-1.5v22h22v-22h-20.5zm0 3h19l-1.5-1.5v19l1.5-1.5h-19l1.5 1.5v-19l-1.5 1.5zm-21.5-23h62v62h-62v-62z"/></defs><clipPath id="z"><use xlink:href="#y" overflow="visible"/></clipPath><g clip-path="url(#z)"><defs><path id="A" d="M-168.6-435.3h19v19h-19z"/></defs></g><defs><path id="B" d="M-168.6-435.3h19v19h-19z"/></defs><defs><path id="C" d="M-139.6-436.8h-1.5v22h22v-22h-20.5zm0 3h19l-1.5-1.5v19l1.5-1.5h-19l1.5 1.5v-19l-1.5 1.5zm-21.5-23h62v62h-62v-62z"/></defs><clipPath id="D"><use xlink:href="#C" overflow="visible"/></clipPath><g clip-path="url(#D)"><defs><path id="E" d="M-139.6-435.3h19v19h-19z"/></defs></g><defs><path id="F" d="M-139.6-435.3h19v19h-19z"/></defs><defs><path id="G" d="M-168.6-408.8h-1.5v22h22v-22h-20.5zm0 3h19l-1.5-1.5v19l1.5-1.5h-19l1.5 1.5v-19l-1.5 1.5zm-21.5-23h62v62h-62v-62z"/></defs><clipPath id="H"><use xlink:href="#G" overflow="visible"/></clipPath><g clip-path="url(#H)"><defs><path id="I" d="M-168.6-407.3h19v19h-19z"/></defs></g><defs><path id="J" d="M-168.6-407.3h19v19h-19z"/></defs><defs><path id="K" d="M-139.6-408.8h-1.5v22h22v-22h-20.5zm0 3h19l-1.5-1.5v19l1.5-1.5h-19l1.5 1.5v-19l-1.5 1.5zm-21.5-23h62v62h-62v-62z"/></defs><clipPath id="L"><use xlink:href="#K" overflow="visible"/></clipPath><g clip-path="url(#L)"><defs><path id="M" d="M-139.6-407.3h19v19h-19z"/></defs></g><defs><path id="N" d="M-139.6-407.3h19v19h-19z"/></defs><defs><path id="O" d="M-163.6-431.8h-1.5v12h12v-12h-10.5zm0 3h9l-1.5-1.5v9l1.5-1.5h-9l1.5 1.5v-9l-1.5 1.5zm-21.5-23h52v52h-52v-52z"/></defs><clipPath id="P"><use xlink:href="#O" overflow="visible"/></clipPath><g clip-path="url(#P)"><defs><path id="Q" d="M-163.6-430.3h9v9h-9z"/></defs></g><defs><path id="R" d="M-163.6-430.3h9v9h-9z"/></defs><defs><path id="S" d="M-134.6-431.8h-1.5v12h12v-12h-10.5zm0 3h9l-1.5-1.5v9l1.5-1.5h-9l1.5 1.5v-9l-1.5 1.5zm-21.5-23h52v52h-52v-52z"/></defs><clipPath id="T"><use xlink:href="#S" overflow="visible"/></clipPath><g clip-path="url(#T)"><defs><path id="U" d="M-134.6-430.3h9v9h-9z"/></defs></g><defs><path id="V" d="M-134.6-430.3h9v9h-9z"/></defs><defs><path id="W" d="M-163.6-403.8h-1.5v12h12v-12h-10.5zm0 3h9l-1.5-1.5v9l1.5-1.5h-9l1.5 1.5v-9l-1.5 1.5zm-21.5-23h52v52h-52v-52z"/></defs><clipPath id="X"><use xlink:href="#W" overflow="visible"/></clipPath><g clip-path="url(#X)"><defs><path id="Y" d="M-163.6-402.3h9v9h-9z"/></defs></g><defs><path id="Z" d="M-163.6-402.3h9v9h-9z"/></defs><defs><path id="aa" d="M-134.6-403.8h-1.5v12h12v-12h-10.5zm0 3h9l-1.5-1.5v9l1.5-1.5h-9l1.5 1.5v-9l-1.5 1.5zm-21.5-23h52v52h-52v-52z"/></defs><clipPath id="ab"><use xlink:href="#aa" overflow="visible"/></clipPath><g clip-path="url(#ab)"><defs><path id="ac" d="M-134.6-402.3h9v9h-9z"/></defs></g><defs><path id="ad" d="M-134.6-402.3h9v9h-9z"/></defs><defs><path id="ae" d="M-227.9-140h-1.5v90h134v-90h-132.5zm0 3h131l-1.5-1.5v87l1.5-1.5h-131l1.5 1.5v-87l-1.5 1.5zm-21.5-23h174v130h-174v-130z"/></defs><clipPath id="af"><use xlink:href="#ae" overflow="visible"/></clipPath><g clip-path="url(#af)"><defs><path id="ag" d="M-227.9-138.5h131v87h-131z"/></defs></g><defs><path id="ah" d="M-227.9-138.5h131v87h-131z"/></defs><defs><path id="ai" d="M-222.9-135h-1.5v80h124v-80h-122.5zm0 3h121l-1.5-1.5v77l1.5-1.5h-121l1.5 1.5v-77l-1.5 1.5zm-21.5-23h164v120h-164v-120z"/></defs><clipPath id="aj"><use xlink:href="#ai" overflow="visible"/></clipPath><g clip-path="url(#aj)"><defs><path id="ak" d="M-222.9-133.5h121v77h-121z"/></defs></g><defs><path id="al" d="M-222.9-133.5h121v77h-121z"/></defs><defs><path id="am" d="M-157.9-120h-1.5v6h47v-6h-45.5zm0 3h44l-1.5-1.5v3l1.5-1.5h-44l1.5 1.5v-3l-1.5 1.5zm-21.5-23h87v46h-87v-46z"/></defs><clipPath id="an"><use xlink:href="#am" overflow="visible"/></clipPath><g clip-path="url(#an)"><defs><path id="ao" d="M-157.9-118.5h44v3h-44z"/></defs></g><defs><path id="ap" d="M-157.9-118.5h44v3h-44z"/></defs><defs><path id="aq" d="M-157.9-114h-1.5v6h47v-6h-45.5zm0 3h44l-1.5-1.5v3l1.5-1.5h-44l1.5 1.5v-3l-1.5 1.5zm-21.5-23h87v46h-87v-46z"/></defs><clipPath id="ar"><use xlink:href="#aq" overflow="visible"/></clipPath><g clip-path="url(#ar)"><defs><path id="as" d="M-157.9-112.5h44v3h-44z"/></defs></g><defs><path id="at" d="M-157.9-112.5h44v3h-44z"/></defs><defs><path id="au" d="M-157.9-108h-1.5v6h47v-6h-45.5zm0 3h44l-1.5-1.5v3l1.5-1.5h-44l1.5 1.5v-3l-1.5 1.5zm-21.5-23h87v46h-87v-46z"/></defs><clipPath id="av"><use xlink:href="#au" overflow="visible"/></clipPath><g clip-path="url(#av)"><defs><path id="aw" d="M-157.9-106.5h44v3h-44z"/></defs></g><defs><path id="ax" d="M-157.9-106.5h44v3h-44z"/></defs><defs><path id="ay" d="M-157.9-102h-1.5v6h47v-6h-45.5zm0 3h44l-1.5-1.5v3l1.5-1.5h-44l1.5 1.5v-3l-1.5 1.5zm-21.5-23h87v46h-87v-46z"/></defs><clipPath id="az"><use xlink:href="#ay" overflow="visible"/></clipPath><g clip-path="url(#az)"><defs><path id="aA" d="M-157.9-100.5h44v3h-44z"/></defs></g><g><defs><path id="aB" d="M-157.9-100.5h44v3h-44z"/></defs></g><path fill="#FFF" stroke="#091F2F" stroke-width="3" stroke-miterlimit="10" d="M155.9 110.5l-4.9 4.7-4.7-4.7 2.3-57.5h6.2zm-23.4.4l-3.5 3.3-3.3-3.3 1.6-34.5h4.4z"/><path fill="none" stroke="#091F2F" stroke-width="3" stroke-miterlimit="10" d="M135 33h-13.5v14h31v6.5"/><path fill="#FFF" stroke="#091F2F" stroke-width="3" stroke-miterlimit="10" d="M175.7 40.7h-47.4V22.5h47.4z"/><g><path fill="#FFF" d="M128.5 31.5c4.8 0 4.8 2 9.5 2 4.8 0 4.8-2 9.5-2 4.8 0 4.8 2 9.5 2 4.8 0 4.8-2 9.5-2s4.8 2 9.5 2"/><path fill="none" stroke="#091F2F" stroke-width="3" stroke-miterlimit="10" d="M128.5 31.5c4.8 0 4.8 2 9.5 2 4.8 0 4.8-2 9.5-2 4.8 0 4.8 2 9.5 2 4.8 0 4.8-2 9.5-2s4.8 2 9.5 2"/></g><path fill="#FFF" stroke="#091F2F" stroke-width="3" stroke-miterlimit="10" d="M134.8 67.6c0 4.8-2.4 8.7-5.3 8.7-3 0-5.3-3.9-5.3-8.7s5.3-11 5.3-11 5.3 6.2 5.3 11zM127 84h5"/><path fill="#FFF" stroke="#091F2F" stroke-width="3" stroke-miterlimit="10" d="M124.6 71.3s4.7 0 4.9-2.8c.2-2.8 5.3-.8 5.3-.8m34.9-10.9l3.5-3.3 3.3 3.3-1.6 37.7h-4.4zm-2.3 46.5c0-4.8 2.4-8.7 5.3-8.7 3 0 5.3 3.9 5.3 8.7 0 4.8-5.3 11-5.3 11s-5.3-6.2-5.3-11zM175 86h-4"/><path fill="#FFF" stroke="#091F2F" stroke-width="3" stroke-miterlimit="10" d="M177.6 99.6s-4.7 0-4.9 2.8c-.2 2.8-5.3.8-5.3.8m-63.3-72.8l4.9-5.8 4.7 5.8-2.3 50h-6.2zm-3.2 65c0-8.3 3.4-15 7.5-15s7.5 6.7 7.5 15-7.5 18.9-7.5 18.9-7.5-10.6-7.5-18.9zM112 67h-7"/><path fill="#FFF" stroke="#091F2F" stroke-width="3" stroke-miterlimit="10" d="M115.2 89.1s-6.6 0-6.8 4.8c-.3 4.8-7.5 1.4-7.5 1.4"/></svg>