<svg xmlns="http://www.w3.org/2000/svg" viewBox="0 0 276 137"><circle fill="#FFF" cx="139.7" cy="72.8" r="46.6"/><path fill="#0F1F2D" d="M139.7 120.9c-26.5 0-48.1-21.6-48.1-48.1s21.6-48.1 48.1-48.1 48.1 21.6 48.1 48.1-21.6 48.1-48.1 48.1zm0-93.2c-24.8 0-45.1 20.2-45.1 45.1s20.2 45.1 45.1 45.1 45.1-20.2 45.1-45.1-20.2-45.1-45.1-45.1z"/><circle fill="#FFF" cx="139.8" cy="72.7" r="40.8"/><path fill="#0C1F2E" d="M139.8 115c-23.3 0-42.3-19-42.3-42.3 0-23.3 19-42.3 42.3-42.3 23.3 0 42.3 19 42.3 42.3 0 23.3-19 42.3-42.3 42.3zm0-81.6c-21.7 0-39.3 17.6-39.3 39.3 0 21.7 17.6 39.3 39.3 39.3 21.7 0 39.3-17.6 39.3-39.3 0-21.7-17.7-39.3-39.3-39.3z"/><path fill="#091F2F" d="M145.6 52.4c-1.6 2-2.6 4.6-2.6 7.3 0 6.5 5.2 11.7 11.7 11.7 2.2 0 4.3-.6 6-1.7-10.4-3.7-14.1-13.5-15.1-17.3zm18.3 14.5c1.5-2 2.4-4.4 2.4-7.1 0-6.5-5.2-11.7-11.7-11.7-2 0-3.9.5-5.5 1.4.8 2.9 4.1 13.5 14.8 17.4z"/><path fill="#091F2F" d="M115.6 94.7h-.4c-.1 0-3.4 0-5.4-2.4-1.4-1.5-1.9-3.6-1.6-6.2l.1-.6 32.2-25.7.4 2.5c0 .3 1.2 6.7 8.3 9.5L152 73l-36.4 21.7zm-4.5-7.7c-.1 1.4.2 2.5.9 3.3.9 1 2.2 1.3 2.8 1.3l30.7-18.3c-4.1-2.5-6-6-6.9-8.2L111.1 87z"/><path fill="#091F2F" d="M136.5 113.8h-3V84.1l-3.1 1.8v26.4h-3V84.2l9.1-5.4z"/><ellipse transform="rotate(-80.492 171.883 102.998)" fill="#FFF" cx="171.9" cy="103" rx="18.3" ry="18.3"/><path fill="#0C1F2E" d="M171.9 122.8c-1.1 0-2.2-.1-3.3-.3-10.8-1.8-18.1-12-16.3-22.8 1.6-9.6 9.8-16.6 19.5-16.6 1.1 0 2.2.1 3.3.3 10.8 1.8 18.1 12 16.3 22.8-1.6 9.7-9.8 16.6-19.5 16.6zm0-36.6c-8.2 0-15.2 5.9-16.6 14-1.5 9.1 4.7 17.8 13.8 19.4.9.2 1.9.2 2.8.2 8.2 0 15.2-5.9 16.6-14 1.5-9.1-4.7-17.8-13.8-19.4-1-.1-1.9-.2-2.8-.2z"/><path fill="#091F2F" d="M174.337 99.034l1.568 2.199-15.959 11.38-1.567-2.199z"/><path fill="#091F2F" d="M171.054 95.653l5.292-3.774 6.27 8.793-5.292 3.774zm-1.188-1.613l5.292-3.775.87 1.222-5.292 3.773zm7.662 10.783l5.292-3.774.87 1.222-5.291 3.773z"/></svg>