<svg id="Layer_1" data-name="Layer 1" xmlns="http://www.w3.org/2000/svg" viewBox="0 0 276 137"><defs><style>.cls-1,.cls-8{fill:none}.cls-2{clip-path:url(#clip-path)}.cls-3{clip-path:url(#clip-path-2)}.cls-4{clip-path:url(#clip-path-3)}.cls-5{clip-path:url(#clip-path-4)}.cls-6{fill:#0e1f2d}.cls-7{fill:#fff}.cls-7,.cls-8{stroke:#0c1f2e;stroke-miterlimit:10;stroke-width:3px}</style><clipPath id="clip-path"><circle class="cls-1" cx="138" cy="224.27" r="50.5"/></clipPath><clipPath id="clip-path-2"><circle class="cls-1" cx="138" cy="224.27" r="43.5"/></clipPath><clipPath id="clip-path-3"><circle class="cls-1" cx="433.48" cy="541.59" r="50.5"/></clipPath><clipPath id="clip-path-4"><circle class="cls-1" cx="433.48" cy="541.59" r="43.5"/></clipPath></defs><title>EXPERIENTIAL ICONS</title><path class="cls-6" d="M140.6 96.11v-7.06c-4.12 5.1-10.75 7.6-19.1 7.6-12.48 0-20.3-7.71-20.3-17.91 0-10.53 7.92-17.26 21.82-17.37h17.48v-1.73c0-7.27-4.67-11.61-13.79-11.61-5.54 0-11.29 2-17 5.86l-5.1-8.68c8-4.78 13.89-7.27 24.86-7.27 14.87 0 23.23 7.6 23.34 20.3l.11 37.88zm-.11-20.3v-5.32h-15.63c-8.14 0-11.94 2.17-11.94 7.71 0 5.21 4.23 8.58 11.18 8.58 8.9-.01 15.74-4.67 16.39-10.97z"/><path class="cls-7" d="M158 39.5h14M158 94.5h14M158 67.5h14M163 85.5h9M163 76.5h9M163 57.5h9M163 48.5h9"/><path class="cls-8" d="M170.5 39v55"/></svg>