<svg xmlns="http://www.w3.org/2000/svg" xmlns:xlink="http://www.w3.org/1999/xlink" viewBox="0 0 276 137"><defs><path id="a" d="M-158-35.5c-29.3 0-53-23.7-53-53s23.7-53 53-53 53 23.7 53 53-23.7 53-53 53zm0 3c30.9 0 56-25.1 56-56s-25.1-56-56-56-56 25.1-56 56 25.1 56 56 56z"/></defs><clipPath id="b"><use xlink:href="#a" overflow="visible"/></clipPath><g clip-path="url(#b)"><defs><circle id="c" cx="-158" cy="-88.5" r="54.5"/></defs></g><defs><circle id="d" cx="-158" cy="-88.5" r="54.5"/></defs><defs><path id="e" d="M-158-56.5c-17.7 0-32-14.3-32-32s14.3-32 32-32 32 14.3 32 32-14.3 32-32 32zm0 3c19.3 0 35-15.7 35-35s-15.7-35-35-35-35 15.7-35 35 15.7 35 35 35zm-55-90h110v110h-110v-110z"/></defs><clipPath id="f"><use xlink:href="#e" overflow="visible"/></clipPath><g clip-path="url(#f)"><defs><circle id="g" cx="-158" cy="-88.5" r="33.5"/></defs></g><defs><circle id="h" cx="-158" cy="-88.5" r="33.5"/></defs><defs><path id="i" d="M-159.5-142.5h-1.5v13h6v-13h-4.5zm0 3h3l-1.5-1.5v10l1.5-1.5h-3l1.5 1.5v-10l-1.5 1.5z"/></defs><clipPath id="j"><use xlink:href="#i" overflow="visible"/></clipPath><g clip-path="url(#j)"><defs><path id="k" d="M-159.5-141h3v10h-3z"/></defs></g><defs><path id="l" d="M-159.5-141h3v10h-3z"/></defs><defs><path id="m" d="M-213.5-86.5v1.5h13v-6h-13v4.5zm3 0v-3L-212-88h10l-1.5-1.5v3l1.5-1.5h-10l1.5 1.5z"/></defs><clipPath id="n"><use xlink:href="#m" overflow="visible"/></clipPath><g clip-path="url(#n)"><defs><path id="o" d="M-212-89.5h10v3h-10z"/></defs></g><defs><path id="p" d="M-212-89.5h10v3h-10z"/></defs><defs><path id="q" d="M-116.5-86.5v1.5h13v-6h-13v4.5zm3 0v-3L-115-88h10l-1.5-1.5v3l1.5-1.5h-10l1.5 1.5z"/></defs><clipPath id="r"><use xlink:href="#q" overflow="visible"/></clipPath><g clip-path="url(#r)"><defs><path id="s" d="M-115-89.5h10v3h-10z"/></defs></g><defs><path id="t" d="M-115-89.5h10v3h-10z"/></defs><defs><path id="u" d="M-127.5-116.3l1.1 1.1 1.1-1.1 7.1-7.1 1.1-1.1-1.1-1.1-2.1-2.1-1.1-1.1-1.1 1.1-7.1 7.1-1.1 1.1 1.1 1.1 2.1 2.1zm2.1-2.2l-2.1-2.1v2.1l7.1-7.1h-2.1l2.1 2.1v-2.1l-7.1 7.1h2.1z"/></defs><clipPath id="v"><use xlink:href="#u" overflow="visible"/></clipPath><g clip-path="url(#v)"><defs><path id="w" transform="rotate(45.001 -124.002 -122)" d="M-125.5-127h3v10h-3z"/></defs></g><defs><path id="x" transform="rotate(45.001 -124.002 -122)" d="M-125.5-127h3v10h-3z"/></defs><defs><path id="y" d="M-187.3-117.5l1.1-1.1-1.1-1.1-7.1-7.1-1.1-1.1-1.1 1.1-2.1 2.1-1.1 1.1 1.1 1.1 7.1 7.1 1.1 1.1 1.1-1.1 2.1-2.1zm-2.2-2.1l-2.1 2.1h2.1l-7.1-7.1v2.1l2.1-2.1h-2.1l7.1 7.1v-2.1z"/></defs><clipPath id="z"><use xlink:href="#y" overflow="visible"/></clipPath><g clip-path="url(#z)"><defs><path id="A" transform="rotate(-45.001 -193 -121.003)" d="M-194.5-126h3v10h-3z"/></defs></g><defs><path id="B" transform="rotate(-45.001 -193 -121.003)" d="M-194.5-126h3v10h-3z"/></defs><defs><path id="C" d="M-127.5-60.7l1.1-1.1 1.1 1.1 7.1 7.1 1.1 1.1-1.1 1.1-2.1 2.1-1.1 1.1-1.1-1.1-7.1-7.1-1.1-1.1 1.1-1.1 2.1-2.1zm2.1 2.2l-2.1 2.1v-2.1l7.1 7.1h-2.1l2.1-2.1v2.1l-7.1-7.1h2.1z"/></defs><clipPath id="D"><use xlink:href="#C" overflow="visible"/></clipPath><g clip-path="url(#D)"><defs><path id="E" transform="rotate(-45.001 -124 -55.002)" d="M-125.5-60h3v10h-3z"/></defs></g><defs><path id="F" transform="rotate(-45.001 -124 -55.002)" d="M-125.5-60h3v10h-3z"/></defs><defs><path id="G" d="M-187.3-57.5l1.1 1.1-1.1 1.1-7.1 7.1-1.1 1.1-1.1-1.1-2.1-2.1-1.1-1.1 1.1-1.1 7.1-7.1 1.1-1.1 1.1 1.1 2.1 2.1zm-2.2 2.1l-2.1-2.1h2.1l-7.1 7.1v-2.1l2.1 2.1h-2.1l7.1-7.1v2.1z"/></defs><clipPath id="H"><use xlink:href="#G" overflow="visible"/></clipPath><g clip-path="url(#H)"><defs><path id="I" transform="rotate(45.001 -193.002 -53.998)" d="M-194.5-59h3v10h-3z"/></defs></g><defs><path id="J" transform="rotate(45.001 -193.002 -53.998)" d="M-194.5-59h3v10h-3z"/></defs><defs><path id="K" d="M-148.4-109.1c.7.3 1.5.6 2.2 1 1.3.7 2.5 1.6 3.6 2.4.4.3.7.6 1 .9.2.2.3.3.4.3l1.6 1.6-.3-2.2-2.1-14.7-.2-1.2-1 .6-12.3 8-1.8 1.2 2.1.2c.1 0 .3 0 .5.1.4.1.9.2 1.5.3 1.4.3 3.1.8 4.8 1.5zm7.5 4c-.1-.1-.4-.3-.7-.6l.1.9.6-.3zm0-1l.1.9.6-.3-.4-.4c-.1 0-.2-.1-.3-.2zm-1.9-13.1v.3l.3-.2-.3-.1zm-.8 0l.3-.2-.3-.2v.4zm-11.4 7.4l.7-.5h-.3c-.3 0-.5-.1-.6-.1l.2.6zm.9.3c-.4-.1-.7-.1-.9-.1l.1.6.8-.5z"/></defs><defs><path id="L" d="M-148.2-109.8c-3.9-1.6-7.1-1.9-7.1-1.9l12.3-8 2.1 14.7c.2.1-3.1-3.1-7.3-4.8zm-25-11.1l37.2-15.8 15.8 37.2-37.2 15.8-15.8-37.2z"/></defs><defs><path id="M" d="M-158-64.5c-13.3 0-24-10.7-24-24s10.7-24 24-24 24 10.7 24 24-10.7 24-24 24zm0 3c14.9 0 27-12.1 27-27s-12.1-27-27-27-27 12.1-27 27 12.1 27 27 27zm-47-74h94v94h-94v-94z"/></defs><clipPath id="N"><use xlink:href="#M" overflow="visible"/></clipPath><g clip-path="url(#N)"><defs><circle id="O" cx="-158" cy="-88.5" r="25.5"/></defs></g><defs><circle id="P" cx="-158" cy="-88.5" r="25.5"/></defs><defs><path id="Q" d="M132.2-149.5h-1.5v18h19v-18h-17.5zm0 3h16l-1.5-1.5v15l1.5-1.5h-16l1.5 1.5v-15l-1.5 1.5z"/></defs><clipPath id="R"><use xlink:href="#Q" overflow="visible"/></clipPath><g clip-path="url(#R)"><defs><path id="S" d="M132.2-148h16v15h-16z"/></defs></g><defs><path id="T" d="M132.2-148h16v15h-16z"/></defs><defs><path id="U" d="M108.2-137.5h-1.5v43h67v-43h-65.5zm0 3h64l-1.5-1.5v40l1.5-1.5h-64l1.5 1.5v-40l-1.5 1.5z"/></defs><clipPath id="V"><use xlink:href="#U" overflow="visible"/></clipPath><g clip-path="url(#V)"><defs><path id="W" d="M108.2-136h64v40h-64z"/></defs></g><defs><path id="X" d="M108.2-136h64v40h-64z"/></defs><defs><path id="Y" d="M143.2-127.5h-1.5v33h22v-33h-20.5zm0 3h19l-1.5-1.5v30l1.5-1.5h-19l1.5 1.5v-30l-1.5 1.5z"/></defs><clipPath id="Z"><use xlink:href="#Y" overflow="visible"/></clipPath><g clip-path="url(#Z)"><defs><path id="aa" d="M143.2-126h19v30h-19z"/></defs></g><defs><path id="ab" d="M143.2-126h19v30h-19z"/></defs><defs><path id="ac" d="M118.2-127.5h-1.5v33h22v-33h-20.5zm0 3h19l-1.5-1.5v30l1.5-1.5h-19l1.5 1.5v-30l-1.5 1.5z"/></defs><clipPath id="ad"><use xlink:href="#ac" overflow="visible"/></clipPath><g clip-path="url(#ad)"><defs><path id="ae" d="M118.2-126h19v30h-19z"/></defs></g><defs><path id="af" d="M118.2-126h19v30h-19z"/></defs><defs><path id="ag" d="M87.7-69.3c0 2.9-.8 7-2.3 11.9-.6 2.1-1.3 4.3-2.1 6.5-1 2.7-2 5.4-3.1 8-.4.9-.7 1.7-1 2.4-.2.4-.3.7-.4.9l-.9 2.1h119.4l-.7-2c-.1-.2-.2-.4-.3-.9-.2-.7-.5-1.5-.8-2.4-.8-2.5-1.6-5.2-2.4-7.9-.7-2.4-1.3-4.8-1.8-7-1.1-4.8-1.7-8.8-1.7-11.8 0-2.8.7-7 1.9-12 .5-1.9 1-3.9 1.6-6 .8-2.7 1.6-5.4 2.4-7.9.3-.9.5-1.7.8-2.4.1-.4.2-.7.3-.9l.7-2H77.9l1 2.1c.1.1.2.4.4.9.3.7.6 1.5 1 2.4 1 2.5 2.1 5.1 3.1 7.8.8 2.2 1.5 4.4 2.1 6.4 1.4 5 2.2 9 2.2 11.8zm3 0c0-3.2-.9-7.5-2.4-12.5-.6-2.1-1.4-4.3-2.2-6.5-1-2.7-2.1-5.4-3.1-8-.4-.9-.7-1.7-1-2.4-.2-.4-.3-.7-.4-.9l-1.4 2.1h115l-1.4-2c-.1.2-.2.5-.3.9-.2.7-.5 1.5-.8 2.4-.8 2.6-1.7 5.3-2.4 8-.6 2.1-1.1 4.1-1.6 6.1-1.3 5.2-2 9.5-2 12.7 0 3.2.6 7.4 1.7 12.4.5 2.3 1.1 4.7 1.8 7.1.8 2.8 1.6 5.5 2.4 8.1.3.9.6 1.7.8 2.4.1.4.2.7.3.9l1.4-2h-115l1.4 2.1c.1-.2.2-.5.4-.9.3-.7.7-1.5 1-2.4C84-44.3 85-47 86-49.8c.8-2.3 1.6-4.5 2.2-6.7 1.7-5.2 2.5-9.5 2.5-12.8z"/></defs><clipPath id="ah"><use xlink:href="#ag" overflow="visible"/></clipPath><g clip-path="url(#ah)"><defs><path id="ai" d="M89.2-69.3c0-9.9-9-29.7-9-29.7h115s-7 20-7 29.6c0 10.5 7 30.4 7 30.4h-115s9-20.2 9-30.3z"/></defs></g><defs><path id="aj" d="M89.2-69.3c0-9.9-9-29.7-9-29.7h115s-7 20-7 29.6c0 10.5 7 30.4 7 30.4h-115s9-20.2 9-30.3z"/></defs><defs><path id="ak" d="M103.2-68.5h-1.5v6h72v-6h-70.5zm0 3h69l-1.5-1.5v3l1.5-1.5h-69l1.5 1.5v-3l-1.5 1.5zm-21.5-23h112v46h-112v-46z"/></defs><clipPath id="al"><use xlink:href="#ak" overflow="visible"/></clipPath><g clip-path="url(#al)"><defs><path id="am" d="M103.2-67h69v3h-69z"/></defs></g><defs><path id="an" d="M103.2-67h69v3h-69z"/></defs><defs><path id="ao" d="M103.2-76.5h-1.5v6h72v-6h-70.5zm0 3h69l-1.5-1.5v3l1.5-1.5h-69l1.5 1.5v-3l-1.5 1.5zm-21.5-23h112v46h-112v-46z"/></defs><clipPath id="ap"><use xlink:href="#ao" overflow="visible"/></clipPath><g clip-path="url(#ap)"><defs><path id="aq" d="M103.2-75h69v3h-69z"/></defs></g><defs><path id="ar" d="M103.2-75h69v3h-69z"/></defs><defs><path id="as" d="M135.2-61.1l.5 1.6 1.5-.7c2-.9 4.2-1.3 6.4-1.3 6 0 11.3 3.3 14.1 8.4l.5 1 1.1-.2c.6-.1 1.2-.2 1.8-.2 3.5 0 6.6 2.1 7.9 5.3l.5 1.2 1.3-.3c.4-.1.9-.2 1.4-.2 3 0 5.5 2.5 5.5 5.5s-2.5 5.5-5.5 5.5c-1.5 0-2.9-.6-3.9-1.6l-.9-.9-1 .8c-1.5 1.1-3.3 1.7-5.1 1.7-1.1 0-2.2-.2-3.2-.6l-1-.4-.7.9c-3 3.8-7.6 6.1-12.6 6.1-4.9 0-9.5-2.3-12.5-6l-.7-.8-1 .3c-1.1.4-2.2.5-3.3.5-2 0-4-.6-5.7-1.7l-.8-.5-.8.5c-1.7 1.1-3.6 1.7-5.7 1.7-2.2 0-4.3-.7-6-1.9l-1.1-.7-.9.9c-1 1.1-2.5 1.7-4 1.7-3 0-5.5-2.5-5.5-5.5s2.5-5.5 5.5-5.5h1.4l.2-1.3c.8-5 5.2-8.7 10.4-8.7h1.5V-58c0-5.8 4.7-10.5 10.5-10.5 4.6 0 8.6 3 9.9 7.4zm2.9-.9c-1.7-5.6-6.9-9.5-12.9-9.5-7.5 0-13.5 6-13.5 13.5l1.5-1.5c-6.6 0-12.2 4.8-13.3 11.3l1.5.2v-1.5h-.2c-4.7 0-8.5 3.8-8.5 8.5s3.8 8.5 8.5 8.5c2.4 0 4.6-1 6.2-2.7l-2 .2c2.3 1.6 5 2.5 7.8 2.5 2.6 0 5.2-.8 7.3-2.2h-1.6c2.2 1.4 4.7 2.2 7.3 2.2 1.5 0 2.9-.2 4.3-.7l-.5-1.4-1.2.9c3.6 4.5 9 7.2 14.9 7.2s11.4-2.7 15-7.3l-1.2-.9-.6 1.4c1.3.5 2.8.8 4.3.8 2.6 0 5-.8 7-2.4l-2-.1c1.6 1.6 3.7 2.5 6 2.5 4.7 0 8.5-3.8 8.5-8.5s-3.8-8.5-8.5-8.5c-.7 0-1.4.1-2.1.3l.4 1.5 1.4-.6c-1.8-4.3-5.9-7.2-10.6-7.2-.8 0-1.6.1-2.4.2l.3 1.5 1.3-.7c-3.3-6.1-9.7-10-16.7-10-2.7 0-5.2.5-7.6 1.6l1.9.9zM72.7-91.5h128v85h-128v-85z"/></defs><clipPath id="at"><use xlink:href="#as" overflow="visible"/></clipPath><g clip-path="url(#at)"><defs><path id="au" d="M136.7-61.5c-1.5-4.9-6.1-8.5-11.5-8.5-6.6 0-12 5.4-12 12-5.9 0-10.9 4.3-11.8 10h-.2c-3.9 0-7 3.1-7 7s3.1 7 7 7c2 0 3.8-.8 5.1-2.2 2 1.4 4.3 2.2 6.9 2.2 2.4 0 4.6-.7 6.5-1.9 1.9 1.2 4.1 1.9 6.5 1.9 1.3 0 2.6-.2 3.8-.6 3.2 4 8.2 6.6 13.7 6.6 5.6 0 10.6-2.6 13.8-6.7 1.1.5 2.4.7 3.7.7 2.3 0 4.4-.8 6.1-2 1.3 1.3 3 2 4.9 2 3.9 0 7-3.1 7-7s-3.1-7-7-7c-.6 0-1.2.1-1.7.2-1.5-3.6-5.1-6.2-9.3-6.2-.7 0-1.4.1-2.1.2-3-5.5-8.8-9.2-15.4-9.2-2.5 0-4.9.5-7 1.5z"/></defs></g><defs><path id="av" d="M136.7-61.5c-1.5-4.9-6.1-8.5-11.5-8.5-6.6 0-12 5.4-12 12-5.9 0-10.9 4.3-11.8 10h-.2c-3.9 0-7 3.1-7 7s3.1 7 7 7c2 0 3.8-.8 5.1-2.2 2 1.4 4.3 2.2 6.9 2.2 2.4 0 4.6-.7 6.5-1.9 1.9 1.2 4.1 1.9 6.5 1.9 1.3 0 2.6-.2 3.8-.6 3.2 4 8.2 6.6 13.7 6.6 5.6 0 10.6-2.6 13.8-6.7 1.1.5 2.4.7 3.7.7 2.3 0 4.4-.8 6.1-2 1.3 1.3 3 2 4.9 2 3.9 0 7-3.1 7-7s-3.1-7-7-7c-.6 0-1.2.1-1.7.2-1.5-3.6-5.1-6.2-9.3-6.2-.7 0-1.4.1-2.1.2-3-5.5-8.8-9.2-15.4-9.2-2.5 0-4.9.5-7 1.5z"/></defs><defs><path id="aw" d="M407.7-96.6l56 32.4s-1.5 14.3-8.3 24.7c-6.8 10.4-24.1 17.2-24.1 17.2l-53.4-38.5s13.7-4.3 21.6-13.8 8.2-22 8.2-22z"/></defs><defs><path id="ax" d="M433.2-82.8l21.8-50.6 6.2 2.7-22.4 51z"/></defs><defs><path id="ay" d="M398.3-56.4l1.2.9.9-1.2c-1.5-1-3.3-1.6-5.1-1.6-5 0-9 4-9 9 0 3.8 2.4 7.2 6 8.5l-1-1.4c0 4.9 4.1 8.9 9 8.9 1.4 0 2.8-.3 4.1-1l-.7-1.3-1.4.6c1.9 4 5.9 6.7 10.4 6.7 6.4 0 11.5-5.1 11.5-11.5 0-1.2-.2-2.5-.6-3.6l-1.4.5.8 1.3c2.6-1.6 4.2-4.5 4.2-7.6 0-5-4-9-9-9-1.2 0-2.3.2-3.4.7l.6 1.4 1.1-1c-2.2-2.6-5.4-4.1-8.8-4.1-3.8-.1-7.3 1.8-9.4 4.8zm2.4 1.7c1.6-2.3 4.2-3.7 7-3.7 2.5 0 4.9 1.1 6.5 3l.7.8 1-.4c.7-.3 1.5-.4 2.3-.4 3.3 0 6 2.7 6 6 0 2.1-1.1 4-2.8 5.1l-1 .6.4 1.1c.3.9.4 1.8.4 2.7 0 4.7-3.8 8.5-8.5 8.5-3.4 0-6.3-2-7.7-4.9l-.7-1.4-1.3.7c-.8.4-1.8.7-2.7.7-3.3 0-6-2.7-6-5.9v-1.1l-1-.3c-2.4-.8-4-3.1-4-5.7 0-3.3 2.7-6 6-6 1.2 0 2.4.4 3.4 1.1l1.2.9.8-1.4zm-34.5-26.6h81v73h-81v-73z"/></defs><clipPath id="az"><use xlink:href="#ay" overflow="visible"/></clipPath><g clip-path="url(#az)"><defs><path id="aA" d="M399.5-55.5c1.8-2.6 4.8-4.3 8.2-4.3 3.1 0 5.8 1.4 7.7 3.6.9-.4 1.8-.6 2.8-.6 4.1 0 7.5 3.4 7.5 7.5 0 2.7-1.4 5-3.5 6.3.3 1 .5 2 .5 3.2 0 5.5-4.5 10-10 10-4 0-7.5-2.4-9.1-5.8-1 .5-2.2.8-3.4.8-4.1 0-7.5-3.3-7.5-7.4-2.9-1-5-3.8-5-7.1 0-4.1 3.4-7.5 7.5-7.5 1.6 0 3.1.5 4.3 1.3z"/></defs></g><defs><path id="aB" d="M399.5-55.5c1.8-2.6 4.8-4.3 8.2-4.3 3.1 0 5.8 1.4 7.7 3.6.9-.4 1.8-.6 2.8-.6 4.1 0 7.5 3.4 7.5 7.5 0 2.7-1.4 5-3.5 6.3.3 1 .5 2 .5 3.2 0 5.5-4.5 10-10 10-4 0-7.5-2.4-9.1-5.8-1 .5-2.2.8-3.4.8-4.1 0-7.5-3.3-7.5-7.4-2.9-1-5-3.8-5-7.1 0-4.1 3.4-7.5 7.5-7.5 1.6 0 3.1.5 4.3 1.3z"/></defs><defs><path id="aC" d="M455.7-140.2l10.2 4.4 2-4.4-10.3-4-1.9 4zm-8.5 2.7l22.8 9.7 7.1-15.4-23.3-8.4-6.6 14.1z"/></defs><defs><path id="aD" d="M728.1-152.6c30.3 0 55 7.1 55 14.8v22l1.7-1.5c-.1 0-.2 0-.4-.1-.4-.1-.8-.1-1.3-.2-1.4-.2-2.9-.4-4.6-.6-4.9-.7-10-1.3-15.2-2-3.9-.5-7.7-.9-11.3-1.3-9.9-1-18.1-1.6-23.9-1.6-5.2 0-14.3.8-26.1 2.3-2.5.3-5.1.6-7.7 1-5.4.7-10.9 1.5-16.1 2.3-1.8.3-3.5.5-5 .8-.5.1-1 .2-1.4.2-.2 0-.4.1-.5.1l1.7 1.5v-23c.1-7.6 24.8-14.7 55.1-14.7zm0-3c-32.1 0-58 7.5-58 17.8v24.8l1.7-.3c.1 0 .2 0 .5-.1.4-.1.8-.1 1.4-.2 1.5-.2 3.1-.5 5-.8 5.2-.8 10.7-1.6 16.1-2.3 2.6-.4 5.2-.7 7.7-1 11.7-1.5 20.7-2.3 25.7-2.3 5.6 0 13.7.6 23.6 1.6 3.6.4 7.4.8 11.2 1.3 5.2.6 10.3 1.3 15.2 2 1.7.2 3.2.4 4.6.6.5.1.9.1 1.2.2.2 0 .4.1.4.1l1.7.3v-23.7c0-10.6-25.9-18-58-18zm-78-20h156v82.5h-156v-82.5z"/></defs><clipPath id="aE"><use xlink:href="#aD" overflow="visible"/></clipPath><g clip-path="url(#aE)"><defs><path id="aF" d="M728.1-154.1c-31.2 0-56.5 7.3-56.5 16.3v23s42.2-6.7 56.5-6.7c18 0 56.5 5.7 56.5 5.7v-22c0-9-25.3-16.3-56.5-16.3z"/></defs></g><defs><path id="aG" d="M728.1-154.1c-31.2 0-56.5 7.3-56.5 16.3v23s42.2-6.7 56.5-6.7c18 0 56.5 5.7 56.5 5.7v-22c0-9-25.3-16.3-56.5-16.3z"/></defs><defs><path id="aH" d="M728.1-130.4c30.3 0 55 7.1 55 14.8s-24.7 14.8-55 14.8-55-7.1-55-14.8 24.7-14.8 55-14.8zm0-3c-32.1 0-58 7.5-58 17.8s25.9 17.8 58 17.8 58-7.5 58-17.8-25.9-17.8-58-17.8zm-78-20h156v75.6h-156v-75.6z"/></defs><clipPath id="aI"><use xlink:href="#aH" overflow="visible"/></clipPath><g clip-path="url(#aI)"><defs><ellipse id="aJ" cx="728.1" cy="-115.5" rx="56.5" ry="16.3"/></defs></g><defs><ellipse id="aK" cx="728.1" cy="-115.5" rx="56.5" ry="16.3"/></defs><defs><path id="aL" d="M688.1-111.2c0-5.3 18-10.4 40-10.4s40 5.2 40 10.4v7.1l1.2-1.5c-.1 0-.1 0-.3.1-.3 0-.6.1-.9.2-1 .2-2.1.3-3.4.5-3.6.6-7.3 1.1-11.1 1.7-2.9.4-5.6.8-8.3 1.1-7.2.9-13.1 1.3-17.2 1.3-3.7 0-10.3-.5-18.9-1.4-1.8-.2-3.7-.4-5.6-.6-4-.5-8-.9-11.8-1.4-1.3-.2-2.6-.3-3.6-.5-.4 0-.7-.1-1-.1h-.3l1.3 1.5v-8zm-3 0v9.1l1.3.2h.4c.3 0 .6.1 1 .1 1.1.1 2.3.3 3.7.5a11776882415803102 11776882415803102 0 0 0 36.7 3.5c4.3 0 10.3-.5 17.6-1.4 2.7-.3 5.4-.7 8.3-1.1 3.8-.5 7.6-1.1 11.2-1.7 1.3-.2 2.4-.4 3.4-.5.4-.1.7-.1.9-.2.3 0 .3 0 .3-.1l1.2-.2v-8.4c0-7.9-19.2-13.4-43-13.4s-43 5.7-43 13.6zm-20-33.4h126v66.9h-126v-66.9z"/></defs><clipPath id="aM"><use xlink:href="#aL" overflow="visible"/></clipPath><g clip-path="url(#aM)"><defs><path id="aN" d="M686.6-111.2v7.8s31 4.1 41.5 4.1c13.2 0 41.5-4.8 41.5-4.8v-7.1c0-6.6-18.6-11.9-41.5-11.9s-41.5 5.3-41.5 11.9z"/></defs></g><defs><path id="aO" d="M686.6-111.2v7.8s31 4.1 41.5 4.1c13.2 0 41.5-4.8 41.5-4.8v-7.1c0-6.6-18.6-11.9-41.5-11.9s-41.5 5.3-41.5 11.9z"/></defs><defs><path id="aP" d="M728.1-113.3c22 0 40 5.2 40 10.4 0 5.3-18 10.4-40 10.4s-40-5.2-40-10.4 18-10.4 40-10.4zm0-3c-23.8 0-43 5.5-43 13.4s19.2 13.4 43 13.4 43-5.5 43-13.4-19.2-13.4-43-13.4zm-63-20h126v66.9h-126v-66.9z"/></defs><clipPath id="aQ"><use xlink:href="#aP" overflow="visible"/></clipPath><g clip-path="url(#aQ)"><defs><ellipse id="aR" cx="728.1" cy="-102.9" rx="41.5" ry="11.9"/></defs></g><defs><ellipse id="aS" cx="728.1" cy="-102.9" rx="41.5" ry="11.9"/></defs><defs><path id="aT" d="M715.5-101.3c0 .4-.2.7-.4.8.1 0 .2-.1.4-.2.6-.2 1.6-.4 2.8-.6 2.6-.4 6-.6 9.8-.6s7.2.2 9.8.6c1.2.2 2.2.4 2.8.6l.4.2c-.2-.1-.4-.4-.4-.8s.2-.7.4-.8c-.1 0-.2.1-.4.2-.6.2-1.6.4-2.8.6-2.6.4-6 .6-9.8.6s-7.2-.2-9.8-.6c-1.2-.2-2.2-.4-2.8-.6l-.4-.2c.2.1.4.3.4.8zm-3 0c0 2.6 6.2 3.5 15.6 3.5s15.6-.9 15.6-3.5-6.2-3.5-15.6-3.5-15.6.8-15.6 3.5zm-20-23.6h71.2v47.1h-71.2v-47.1z"/></defs><clipPath id="aU"><use xlink:href="#aT" overflow="visible"/></clipPath><g clip-path="url(#aU)"><defs><ellipse id="aV" cx="728.1" cy="-101.3" rx="14.1" ry="2"/></defs></g><defs><ellipse id="aW" cx="728.1" cy="-101.3" rx="14.1" ry="2"/></defs><defs><path id="aX" d="M720.9-84s-10.5 3.3-9.1 12.3c.9 5.5 5.6 8.1 5.6 13.5s-4.6 9.5-4.6 9.5 13.5-.3 14.6-9.5c1.1-9.2-6.7-11.3-8.3-15.6-1.4-4.3 1.8-10.2 1.8-10.2z"/></defs><defs><path id="aY" d="M736-80.7s-15.1 4.8-13 17.6c1.2 7.9 8 11.6 8 19.4s-6.5 13.6-6.5 13.6 19.3-.5 20.9-13.6c1.6-13.2-9.6-16.1-11.8-22.3s2.4-14.7 2.4-14.7z"/></defs><defs><path id="aZ" d="M84.5 29.5l-1.4.5.4 1.4 30.4 99.5.4 1.4 1.4-.4 60.2-18.4 1.4-.4-.4-1.4-30.4-99.5-.4-1.4-1.4.4-60.2 18.3zm.9 2.9L145.7 14l-1.9-1 30.4 99.5 1-1.9-60.3 18.4 1.9 1-30.4-99.5-1 1.9zM58.1 16.7l101.4-31 43 140.6-101.4 31-43-140.6z"/></defs><clipPath id="ba"><use xlink:href="#aZ" overflow="visible"/></clipPath><g clip-path="url(#ba)"><defs><path id="bb" transform="rotate(162.999 130.293 71.504)" d="M98.8 19.5h63v104h-63z"/></defs><clipPath id="bc"><use xlink:href="#bb" overflow="visible"/></clipPath><g clip-path="url(#bc)"><defs><path id="bd" d="M-45.2-278h1121V752h-1121z"/></defs><clipPath id="be"><use xlink:href="#bd" overflow="visible"/></clipPath><path transform="rotate(162.999 130.293 71.504)" clip-path="url(#be)" fill-rule="evenodd" clip-rule="evenodd" fill="#FFF" d="M98.8 19.5h63v104h-63z"/></g></g><defs><path id="bf" transform="rotate(162.999 130.293 71.504)" d="M98.8 19.5h63v104h-63z"/></defs><clipPath id="bg"><use xlink:href="#bf" overflow="visible"/></clipPath><g clip-path="url(#bg)"><defs><path id="bh" d="M-45.2-278h1121V752h-1121z"/></defs><clipPath id="bi"><use xlink:href="#bh" overflow="visible"/></clipPath><path transform="rotate(162.999 130.293 71.504)" clip-path="url(#bi)" fill="none" stroke="#0C1F2E" stroke-width="6" stroke-linecap="round" stroke-miterlimit="10" d="M98.8 19.5h63v104h-63z"/></g><defs><path id="bj" d="M119.8 6.5h-1.5v107h66V6.5h-64.5zm0 3h63L181.3 8v104l1.5-1.5h-63l1.5 1.5V8l-1.5 1.5zm-21.5-23h106v147h-106v-147z"/></defs><clipPath id="bk"><use xlink:href="#bj" overflow="visible"/></clipPath><g clip-path="url(#bk)"><defs><path id="bl" d="M119.8 8h63v104h-63z"/></defs><clipPath id="bm"><use xlink:href="#bl" overflow="visible"/></clipPath><g clip-path="url(#bm)"><defs><path id="bn" d="M-45.2-278h1121V752h-1121z"/></defs><clipPath id="bo"><use xlink:href="#bn" overflow="visible"/></clipPath><path clip-path="url(#bo)" fill-rule="evenodd" clip-rule="evenodd" fill="#FFF" d="M119.8 8h63v104h-63z"/></g></g><defs><path id="bp" d="M119.8 8h63v104h-63z"/></defs><clipPath id="bq"><use xlink:href="#bp" overflow="visible"/></clipPath><g clip-path="url(#bq)"><defs><path id="br" d="M-45.2-278h1121V752h-1121z"/></defs><clipPath id="bs"><use xlink:href="#br" overflow="visible"/></clipPath><path clip-path="url(#bs)" fill="none" stroke="#0C1F2E" stroke-width="6" stroke-linecap="round" stroke-miterlimit="10" d="M119.8 8h63v104h-63z"/></g><defs><path id="bt" d="M128.8 36h44v13h-44z"/></defs><clipPath id="bu"><use xlink:href="#bt" overflow="visible"/></clipPath><g clip-path="url(#bu)"><defs><path id="bv" d="M-45.2-278h1121V752h-1121z"/></defs><clipPath id="bw"><use xlink:href="#bv" overflow="visible"/></clipPath><path clip-path="url(#bw)" fill="none" stroke="#0C1F2E" stroke-width="6" stroke-linecap="round" stroke-miterlimit="10" d="M128.8 36h44v13h-44z"/></g><defs><path id="bx" d="M128.8 46h44v13h-44z"/></defs><clipPath id="by"><use xlink:href="#bx" overflow="visible"/></clipPath><g clip-path="url(#by)"><defs><path id="bz" d="M-45.2-278h1121V752h-1121z"/></defs><clipPath id="bA"><use xlink:href="#bz" overflow="visible"/></clipPath><path clip-path="url(#bA)" fill="none" stroke="#0C1F2E" stroke-width="6" stroke-linecap="round" stroke-miterlimit="10" d="M128.8 46h44v13h-44z"/></g><defs><path id="bB" d="M128.8 56h44v13h-44z"/></defs><clipPath id="bC"><use xlink:href="#bB" overflow="visible"/></clipPath><g clip-path="url(#bC)"><defs><path id="bD" d="M-45.2-278h1121V752h-1121z"/></defs><clipPath id="bE"><use xlink:href="#bD" overflow="visible"/></clipPath><path clip-path="url(#bE)" fill="none" stroke="#0C1F2E" stroke-width="6" stroke-linecap="round" stroke-miterlimit="10" d="M128.8 56h44v13h-44z"/></g><defs><path id="bF" d="M128.8 66h44v14h-44z"/></defs><clipPath id="bG"><use xlink:href="#bF" overflow="visible"/></clipPath><g clip-path="url(#bG)"><defs><path id="bH" d="M-45.2-278h1121V752h-1121z"/></defs><clipPath id="bI"><use xlink:href="#bH" overflow="visible"/></clipPath><path clip-path="url(#bI)" fill="none" stroke="#0C1F2E" stroke-width="6" stroke-linecap="round" stroke-miterlimit="10" d="M128.8 66h44v14h-44z"/></g><defs><path id="bJ" d="M128.8 77h44v14h-44z"/></defs><clipPath id="bK"><use xlink:href="#bJ" overflow="visible"/></clipPath><g clip-path="url(#bK)"><defs><path id="bL" d="M-45.2-278h1121V752h-1121z"/></defs><clipPath id="bM"><use xlink:href="#bL" overflow="visible"/></clipPath><path clip-path="url(#bM)" fill="none" stroke="#0C1F2E" stroke-width="6" stroke-linecap="round" stroke-miterlimit="10" d="M128.8 77h44v14h-44z"/></g><defs><path id="bN" d="M128.8 88h44v14h-44z"/></defs><clipPath id="bO"><use xlink:href="#bN" overflow="visible"/></clipPath><g clip-path="url(#bO)"><defs><path id="bP" d="M-45.2-278h1121V752h-1121z"/></defs><clipPath id="bQ"><use xlink:href="#bP" overflow="visible"/></clipPath><path clip-path="url(#bQ)" fill="none" stroke="#0C1F2E" stroke-width="6" stroke-linecap="round" stroke-miterlimit="10" d="M128.8 88h44v14h-44z"/></g><defs><path id="bR" d="M129.8 18h3v13h-3z"/></defs><clipPath id="bS"><use xlink:href="#bR" overflow="visible"/></clipPath><g clip-path="url(#bS)"><defs><path id="bT" d="M-45.2-278h1121V752h-1121z"/></defs><clipPath id="bU"><use xlink:href="#bT" overflow="visible"/></clipPath><path clip-path="url(#bU)" fill="#0C1F2E" d="M124.8 13h13v23h-13z"/></g><defs><path id="bV" d="M134.8 18h3v13h-3z"/></defs><clipPath id="bW"><use xlink:href="#bV" overflow="visible"/></clipPath><g clip-path="url(#bW)"><defs><path id="bX" d="M-45.2-278h1121V752h-1121z"/></defs><clipPath id="bY"><use xlink:href="#bX" overflow="visible"/></clipPath><path clip-path="url(#bY)" fill="#0C1F2E" d="M129.8 13h13v23h-13z"/></g><defs><path id="bZ" d="M139.8 18h3v13h-3z"/></defs><clipPath id="ca"><use xlink:href="#bZ" overflow="visible"/></clipPath><g clip-path="url(#ca)"><defs><path id="cb" d="M-45.2-278h1121V752h-1121z"/></defs><clipPath id="cc"><use xlink:href="#cb" overflow="visible"/></clipPath><path clip-path="url(#cc)" fill="#0C1F2E" d="M134.8 13h13v23h-13z"/></g><defs><path id="cd" d="M144.8 18h3v13h-3z"/></defs><clipPath id="ce"><use xlink:href="#cd" overflow="visible"/></clipPath><g clip-path="url(#ce)"><defs><path id="cf" d="M-45.2-278h1121V752h-1121z"/></defs><clipPath id="cg"><use xlink:href="#cf" overflow="visible"/></clipPath><path clip-path="url(#cg)" fill="#0C1F2E" d="M139.8 13h13v23h-13z"/></g><defs><path id="ch" d="M149.8 18h3v13h-3z"/></defs><clipPath id="ci"><use xlink:href="#ch" overflow="visible"/></clipPath><g clip-path="url(#ci)"><defs><path id="cj" d="M-45.2-278h1121V752h-1121z"/></defs><clipPath id="ck"><use xlink:href="#cj" overflow="visible"/></clipPath><path clip-path="url(#ck)" fill="#0C1F2E" d="M144.8 13h13v23h-13z"/></g><defs><path id="cl" d="M149.8 69h3v32h-3z"/></defs><clipPath id="cm"><use xlink:href="#cl" overflow="visible"/></clipPath><g clip-path="url(#cm)"><defs><path id="cn" d="M-45.2-278h1121V752h-1121z"/></defs><clipPath id="co"><use xlink:href="#cn" overflow="visible"/></clipPath><path clip-path="url(#co)" fill="#0C1F2E" d="M144.8 64h13v42h-13z"/></g><defs><path id="cp" d="M154.8 18h3v13h-3z"/></defs><clipPath id="cq"><use xlink:href="#cp" overflow="visible"/></clipPath><g clip-path="url(#cq)"><defs><path id="cr" d="M-45.2-278h1121V752h-1121z"/></defs><clipPath id="cs"><use xlink:href="#cr" overflow="visible"/></clipPath><path clip-path="url(#cs)" fill="#0C1F2E" d="M149.8 13h13v23h-13z"/></g><defs><path id="ct" d="M159.8 18h3v13h-3z"/></defs><clipPath id="cu"><use xlink:href="#ct" overflow="visible"/></clipPath><g clip-path="url(#cu)"><defs><path id="cv" d="M-45.2-278h1121V752h-1121z"/></defs><clipPath id="cw"><use xlink:href="#cv" overflow="visible"/></clipPath><path clip-path="url(#cw)" fill="#0C1F2E" d="M154.8 13h13v23h-13z"/></g><defs><path id="cx" d="M164.8 18h3v13h-3z"/></defs><clipPath id="cy"><use xlink:href="#cx" overflow="visible"/></clipPath><g clip-path="url(#cy)"><defs><path id="cz" d="M-45.2-278h1121V752h-1121z"/></defs><clipPath id="cA"><use xlink:href="#cz" overflow="visible"/></clipPath><path clip-path="url(#cA)" fill="#0C1F2E" d="M159.8 13h13v23h-13z"/></g><defs><path id="cB" d="M169.8 18h3v13h-3z"/></defs><clipPath id="cC"><use xlink:href="#cB" overflow="visible"/></clipPath><g clip-path="url(#cC)"><defs><path id="cD" d="M-45.2-278h1121V752h-1121z"/></defs><clipPath id="cE"><use xlink:href="#cD" overflow="visible"/></clipPath><path clip-path="url(#cE)" fill="#0C1F2E" d="M164.8 13h13v23h-13z"/></g><defs><path id="cF" d="M87.8 32.2l53.3 34.1-23.9 61.7"/></defs><clipPath id="cG"><use xlink:href="#cF" overflow="visible"/></clipPath><g clip-path="url(#cG)"><defs><path id="cH" d="M-45.2-278h1121V752h-1121z"/></defs><clipPath id="cI"><use xlink:href="#cH" overflow="visible"/></clipPath><path clip-path="url(#cI)" fill="#FFF" d="M82.8 27.2h63.4V133H82.8z"/></g><path fill="none" stroke="#0C1F2E" stroke-width="3" stroke-linecap="round" stroke-miterlimit="10" d="M87.8 32.2l53.3 34.1-23.9 61.7"/><defs><path id="cJ" d="M389.5 6.5H388v107h66V6.5h-64.5zm0 3h63L451 8v104l1.5-1.5h-63l1.5 1.5V8l-1.5 1.5zm-21.5-23h106v147H368v-147z"/></defs><clipPath id="cK"><use xlink:href="#cJ" overflow="visible"/></clipPath><g clip-path="url(#cK)"><defs><path id="cL" d="M389.5 8h63v104h-63z"/></defs></g><defs><path id="cM" d="M389.5 8h63v104h-63z"/></defs><defs><path id="cN" d="M398.5 36h44v13h-44z"/></defs><defs><path id="cO" d="M398.5 46h44v13h-44z"/></defs><defs><path id="cP" d="M398.5 56h44v13h-44z"/></defs><defs><path id="cQ" d="M398.5 66h44v14h-44z"/></defs><defs><path id="cR" d="M398.5 77h44v14h-44z"/></defs><defs><path id="cS" d="M398.5 88h44v14h-44z"/></defs><defs><path id="cT" d="M399.5 18h3v13h-3z"/></defs><defs><path id="cU" d="M404.5 18h3v13h-3z"/></defs><defs><path id="cV" d="M409.5 18h3v13h-3z"/></defs><defs><path id="cW" d="M414.5 18h3v13h-3z"/></defs><defs><path id="cX" d="M419.5 18h3v13h-3z"/></defs><defs><path id="cY" d="M419.5 69h3v32h-3z"/></defs><defs><path id="cZ" d="M424.5 18h3v13h-3z"/></defs><defs><path id="da" d="M429.5 18h3v13h-3z"/></defs><defs><path id="db" d="M434.5 18h3v13h-3z"/></defs><defs><path id="dc" d="M439.5 18h3v13h-3z"/></defs><defs><path id="dd" d="M461.5 127.5c-16.3 0-29.5-13.2-29.5-29.5s13.2-29.5 29.5-29.5S491 81.7 491 98s-13.2 29.5-29.5 29.5zm0 3c17.9 0 32.5-14.6 32.5-32.5s-14.6-32.5-32.5-32.5S429 80.1 429 98s14.5 32.5 32.5 32.5zm-52.5-85h105v105H409v-105z"/></defs><clipPath id="de"><use xlink:href="#dd" overflow="visible"/></clipPath><g clip-path="url(#de)"><defs><circle id="df" cx="461.5" cy="98" r="31"/></defs></g><defs><circle id="dg" cx="461.5" cy="98" r="31"/></defs><defs><path id="dh" d="M367.8 182.7h-1.5v90h134v-90H367.8zm0 3h131l-1.5-1.5v87l1.5-1.5h-131l1.5 1.5v-87l-1.5 1.5zm-21.5-23h174v130h-174v-130z"/></defs><clipPath id="di"><use xlink:href="#dh" overflow="visible"/></clipPath><g clip-path="url(#di)"><defs><path id="dj" d="M367.8 184.2h131v87h-131z"/></defs></g><defs><path id="dk" d="M367.8 184.2h131v87h-131z"/></defs><defs><path id="dl" d="M372.8 187.7h-1.5v80h124v-80H372.8zm0 3h121l-1.5-1.5v77l1.5-1.5h-121l1.5 1.5v-77l-1.5 1.5zm-21.5-23h164v120h-164v-120z"/></defs><clipPath id="dm"><use xlink:href="#dl" overflow="visible"/></clipPath><g clip-path="url(#dm)"><defs><path id="dn" d="M372.8 189.2h121v77h-121z"/></defs></g><defs><path id="do" d="M372.8 189.2h121v77h-121z"/></defs><defs><path id="dp" d="M437.8 202.7h-1.5v6h47v-6h-45.5zm0 3h44l-1.5-1.5v3l1.5-1.5h-44l1.5 1.5v-3l-1.5 1.5zm-21.5-23h87v46h-87v-46z"/></defs><clipPath id="dq"><use xlink:href="#dp" overflow="visible"/></clipPath><g clip-path="url(#dq)"><defs><path id="dr" d="M437.8 204.2h44v3h-44z"/></defs></g><defs><path id="ds" d="M437.8 204.2h44v3h-44z"/></defs><defs><path id="dt" d="M437.8 208.7h-1.5v6h47v-6h-45.5zm0 3h44l-1.5-1.5v3l1.5-1.5h-44l1.5 1.5v-3l-1.5 1.5zm-21.5-23h87v46h-87v-46z"/></defs><clipPath id="du"><use xlink:href="#dt" overflow="visible"/></clipPath><g clip-path="url(#du)"><defs><path id="dv" d="M437.8 210.2h44v3h-44z"/></defs></g><defs><path id="dw" d="M437.8 210.2h44v3h-44z"/></defs><defs><path id="dx" d="M437.8 214.7h-1.5v6h47v-6h-45.5zm0 3h44l-1.5-1.5v3l1.5-1.5h-44l1.5 1.5v-3l-1.5 1.5zm-21.5-23h87v46h-87v-46z"/></defs><clipPath id="dy"><use xlink:href="#dx" overflow="visible"/></clipPath><g clip-path="url(#dy)"><defs><path id="dz" d="M437.8 216.2h44v3h-44z"/></defs></g><defs><path id="dA" d="M437.8 216.2h44v3h-44z"/></defs><defs><path id="dB" d="M437.8 220.7h-1.5v6h47v-6h-45.5zm0 3h44l-1.5-1.5v3l1.5-1.5h-44l1.5 1.5v-3l-1.5 1.5zm-21.5-23h87v46h-87v-46z"/></defs><clipPath id="dC"><use xlink:href="#dB" overflow="visible"/></clipPath><g clip-path="url(#dC)"><defs><path id="dD" d="M437.8 222.2h44v3h-44z"/></defs></g><defs><path id="dE" d="M437.8 222.2h44v3h-44z"/></defs><defs><path id="dF" d="M80 345.2h-1.2v71.5h131.7v-71.5H80zm0 2.4h129.3l-1.2-1.2v69.1l1.2-1.2H80l1.2 1.2v-69.1l-1.2 1.2zm-17.3-18.5h163.9v103.6H62.7V329.1z"/></defs><clipPath id="dG"><use xlink:href="#dF" overflow="visible"/></clipPath><g clip-path="url(#dG)"><defs><path id="dH" d="M80 346.4h129.3v69.1H80z"/></defs></g><defs><path id="dI" d="M80 346.4h129.3v69.1H80z"/></defs><defs><path id="dJ" d="M86.4 351.6h-1.2v57.8h118.9v-57.8h-19.5l-.3.2-6.5 4.8.7-.2h-66.7l.8.3-5.9-4.8-.3-.3h-20zm0 2.4h19.4l-.8-.3 5.9 4.8.3.3h67.5l.3-.2 6.5-4.8-.5.2h17.9l-1.2-1.2v55.4l1.2-1.2H86.4l1.2 1.2v-55.4l-1.2 1.2zm-17.3-18.5h151v90h-151v-90z"/></defs><clipPath id="dK"><use xlink:href="#dJ" overflow="visible"/></clipPath><g clip-path="url(#dK)"><defs><path id="dL" d="M86.4 352.8h19.5l5.9 4.8h66.7l6.5-4.8h17.9v55.4H86.4z"/></defs></g><defs><path id="dM" d="M86.4 352.8h19.5l5.9 4.8h66.7l6.5-4.8h17.9v55.4H86.4z"/></defs><defs><path id="dN" d="M114.5 352h5.6v2.4h-5.6z"/></defs><defs><path id="dO" d="M170.8 352h5.6v2.4h-5.6z"/></defs><defs><path id="dP" d="M-217.5 578.4c-21.5 0-38.9-17.4-38.9-38.9s17.4-38.9 38.9-38.9 38.9 17.4 38.9 38.9-17.4 38.9-38.9 38.9zm0 3c23.2 0 41.9-18.8 41.9-41.9s-18.8-41.9-41.9-41.9c-23.2 0-41.9 18.8-41.9 41.9s18.7 41.9 41.9 41.9zm-62-103.8h123.9v123.9h-123.9V477.6z"/></defs><clipPath id="dQ"><use xlink:href="#dP" overflow="visible"/></clipPath><g clip-path="url(#dQ)"><defs><circle id="dR" cx="-217.5" cy="539.5" r="40.4"/></defs></g><defs><circle id="dS" cx="-217.5" cy="539.5" r="40.4"/></defs><defs><path id="dT" d="M-104.5 578.4c-21.5 0-38.9-17.4-38.9-38.9s17.4-38.9 38.9-38.9 38.9 17.4 38.9 38.9-17.4 38.9-38.9 38.9zm0 3c23.2 0 41.9-18.8 41.9-41.9s-18.8-41.9-41.9-41.9c-23.2 0-41.9 18.8-41.9 41.9s18.7 41.9 41.9 41.9zm-62-103.8h123.9v123.9h-123.9V477.6z"/></defs><clipPath id="dU"><use xlink:href="#dT" overflow="visible"/></clipPath><g clip-path="url(#dU)"><defs><circle id="dV" cx="-104.5" cy="539.5" r="40.4"/></defs></g><defs><circle id="dW" cx="-104.5" cy="539.5" r="40.4"/></defs><defs><path id="dX" d="M-229.8 367.2h-1.5v38h142v-25.1l-.4-.4-11.4-12-.4-.5h-128.3zm0 3h127.6l-1.1-.5 11.4 12-.4-1v23l1.5-1.5h-139l1.5 1.5v-35l-1.5 1.5zm-21.5-23h182v78h-182v-78z"/></defs><clipPath id="dY"><use xlink:href="#dX" overflow="visible"/></clipPath><g clip-path="url(#dY)"><defs><path id="dZ" d="M-229.8 368.7h127.6l11.4 12v23h-139z"/></defs></g><defs><path id="ea" d="M-229.8 368.7h127.6l11.4 12v23h-139z"/></defs><defs><path id="eb" d="M-196.8 418.6c-8 0-14.5-6.5-14.5-14.5s6.5-14.5 14.5-14.5 14.5 6.5 14.5 14.5-6.4 14.5-14.5 14.5zm0 3c9.7 0 17.5-7.8 17.5-17.5s-7.8-17.5-17.5-17.5-17.5 7.8-17.5 17.5 7.9 17.5 17.5 17.5zm-37.5-55h75v75h-75v-75z"/></defs><clipPath id="ec"><use xlink:href="#eb" overflow="visible"/></clipPath><g clip-path="url(#ec)"><defs><circle id="ed" cx="-196.8" cy="404.1" r="16"/></defs></g><defs><circle id="ee" cx="-196.8" cy="404.1" r="16"/></defs><defs><path id="ef" d="M-196.8 411.6c-4.1 0-7.5-3.4-7.5-7.5s3.4-7.5 7.5-7.5 7.5 3.4 7.5 7.5c0 4.2-3.3 7.5-7.5 7.5zm0 3c5.8 0 10.5-4.7 10.5-10.5s-4.7-10.5-10.5-10.5-10.5 4.7-10.5 10.5 4.7 10.5 10.5 10.5zm-30.5-41h61v61h-61v-61z"/></defs><clipPath id="eg"><use xlink:href="#ef" overflow="visible"/></clipPath><g clip-path="url(#eg)"><defs><circle id="eh" cx="-196.8" cy="404.1" r="9"/></defs></g><defs><circle id="ei" cx="-196.8" cy="404.1" r="9"/></defs><defs><path id="ej" d="M-130.5 418.6c-8 0-14.5-6.5-14.5-14.5s6.5-14.5 14.5-14.5 14.5 6.5 14.5 14.5-6.5 14.5-14.5 14.5zm0 3c9.7 0 17.5-7.8 17.5-17.5s-7.8-17.5-17.5-17.5-17.5 7.8-17.5 17.5 7.8 17.5 17.5 17.5zm-37.5-55h75v75h-75v-75z"/></defs><clipPath id="ek"><use xlink:href="#ej" overflow="visible"/></clipPath><g clip-path="url(#ek)"><defs><circle id="el" cx="-130.5" cy="404.1" r="16"/></defs></g><defs><circle id="em" cx="-130.5" cy="404.1" r="16"/></defs><defs><path id="en" d="M-130.3 363.8l-7.7-15.6h-27.2v15.6h34.9zm-75.2 0l7.4-15.6h27.2v15.6h-34.6zm-10.3 5.3l14.1-26.9h66.8l15.3 27.9-96.2-1z"/></defs><defs><path id="eo" d="M-130.5 411.6c-4.1 0-7.5-3.4-7.5-7.5s3.4-7.5 7.5-7.5 7.5 3.4 7.5 7.5c0 4.2-3.4 7.5-7.5 7.5zm0 3c5.8 0 10.5-4.7 10.5-10.5s-4.7-10.5-10.5-10.5-10.5 4.7-10.5 10.5 4.7 10.5 10.5 10.5zm-30.5-41h61v61h-61v-61z"/></defs><clipPath id="ep"><use xlink:href="#eo" overflow="visible"/></clipPath><g clip-path="url(#ep)"><defs><circle id="eq" cx="-130.5" cy="404.1" r="9"/></defs></g><defs><circle id="er" cx="-130.5" cy="404.1" r="9"/></defs><defs><path id="es" d="M84.2 189.5h-1.5v84h108v-84H84.2zm0 3h105l-1.5-1.5v81l1.5-1.5h-105l1.5 1.5v-81l-1.5 1.5zm-21.5-23h148v124h-148v-124z"/></defs><clipPath id="et"><use xlink:href="#es" overflow="visible"/></clipPath><g clip-path="url(#et)"><defs><path id="eu" d="M84.2 191h105v81h-105z"/></defs></g><defs><path id="ev" d="M84.2 191h105v81h-105z"/></defs><defs><path id="ew" d="M78.2 206.5H76l.9-2.1 9.1-22 .4-.9h100.9l.4.9 9.1 22 .9 2.1H78.2zm0-3h117l-1.4 2.1-9.1-22 1.4.9H87.3l1.4-.9-9.1 22-1.4-2.1zm-22.2 23h161.5v-65H56v65z"/></defs><clipPath id="ex"><use xlink:href="#ew" overflow="visible"/></clipPath><g clip-path="url(#ex)"><defs><path id="ey" d="M78.2 205h117l-9.1-22H87.3z"/></defs></g><defs><path id="ez" d="M78.2 205h117l-9.1-22H87.3z"/></defs><defs><path id="eA" d="M163.2 173.5h-1.5v19h15v-19h-13.5zm0 3h12l-1.5-1.5v16l1.5-1.5h-12l1.5 1.5v-16l-1.5 1.5zm-21.5-23h55v59h-55v-59z"/></defs><clipPath id="eB"><use xlink:href="#eA" overflow="visible"/></clipPath><g clip-path="url(#eB)"><defs><path id="eC" d="M163.2 175h12v16h-12z"/></defs></g><defs><path id="eD" d="M163.2 175h12v16h-12z"/></defs><defs><path id="eE" d="M97.2 239.5h-1.5v34h24v-34H97.2zm0 3h21l-1.5-1.5v31l1.5-1.5h-21l1.5 1.5v-31l-1.5 1.5zm-21.5-23h64v74h-64v-74z"/></defs><clipPath id="eF"><use xlink:href="#eE" overflow="visible"/></clipPath><g clip-path="url(#eF)"><defs><path id="eG" d="M97.2 241h21v31h-21z"/></defs></g><defs><path id="eH" d="M97.2 241h21v31h-21z"/></defs><defs><path id="eI" d="M98.2 211.5h-1.5v22h22v-22H98.2zm0 3h19l-1.5-1.5v19l1.5-1.5h-19l1.5 1.5v-19l-1.5 1.5zm-21.5-23h62v62h-62v-62z"/></defs><clipPath id="eJ"><use xlink:href="#eI" overflow="visible"/></clipPath><g clip-path="url(#eJ)"><defs><path id="eK" d="M98.2 213h19v19h-19z"/></defs></g><defs><path id="eL" d="M98.2 213h19v19h-19z"/></defs><defs><path id="eM" d="M103.2 216.5h-1.5v12h12v-12h-10.5zm0 3h9l-1.5-1.5v9l1.5-1.5h-9l1.5 1.5v-9l-1.5 1.5zm-21.5-23h52v52h-52v-52z"/></defs><clipPath id="eN"><use xlink:href="#eM" overflow="visible"/></clipPath><g clip-path="url(#eN)"><defs><path id="eO" d="M103.2 218h9v9h-9z"/></defs></g><defs><path id="eP" d="M103.2 218h9v9h-9z"/></defs><defs><path id="eQ" d="M128.2 211.5h-1.5v22h22v-22h-20.5zm0 3h19l-1.5-1.5v19l1.5-1.5h-19l1.5 1.5v-19l-1.5 1.5zm-21.5-23h62v62h-62v-62z"/></defs><clipPath id="eR"><use xlink:href="#eQ" overflow="visible"/></clipPath><g clip-path="url(#eR)"><defs><path id="eS" d="M128.2 213h19v19h-19z"/></defs></g><defs><path id="eT" d="M128.2 213h19v19h-19z"/></defs><defs><path id="eU" d="M157.2 211.5h-1.5v22h22v-22h-20.5zm0 3h19l-1.5-1.5v19l1.5-1.5h-19l1.5 1.5v-19l-1.5 1.5zm-21.5-23h62v62h-62v-62z"/></defs><clipPath id="eV"><use xlink:href="#eU" overflow="visible"/></clipPath><g clip-path="url(#eV)"><defs><path id="eW" d="M157.2 213h19v19h-19z"/></defs></g><defs><path id="eX" d="M157.2 213h19v19h-19z"/></defs><defs><path id="eY" d="M128.2 239.5h-1.5v22h22v-22h-20.5zm0 3h19l-1.5-1.5v19l1.5-1.5h-19l1.5 1.5v-19l-1.5 1.5zm-21.5-23h62v62h-62v-62z"/></defs><clipPath id="eZ"><use xlink:href="#eY" overflow="visible"/></clipPath><g clip-path="url(#eZ)"><defs><path id="fa" d="M128.2 241h19v19h-19z"/></defs></g><defs><path id="fb" d="M128.2 241h19v19h-19z"/></defs><defs><path id="fc" d="M157.2 239.5h-1.5v22h22v-22h-20.5zm0 3h19l-1.5-1.5v19l1.5-1.5h-19l1.5 1.5v-19l-1.5 1.5zm-21.5-23h62v62h-62v-62z"/></defs><clipPath id="fd"><use xlink:href="#fc" overflow="visible"/></clipPath><g clip-path="url(#fd)"><defs><path id="fe" d="M157.2 241h19v19h-19z"/></defs></g><defs><path id="ff" d="M157.2 241h19v19h-19z"/></defs><defs><path id="fg" d="M133.2 216.5h-1.5v12h12v-12h-10.5zm0 3h9l-1.5-1.5v9l1.5-1.5h-9l1.5 1.5v-9l-1.5 1.5zm-21.5-23h52v52h-52v-52z"/></defs><clipPath id="fh"><use xlink:href="#fg" overflow="visible"/></clipPath><g clip-path="url(#fh)"><defs><path id="fi" d="M133.2 218h9v9h-9z"/></defs></g><defs><path id="fj" d="M133.2 218h9v9h-9z"/></defs><defs><path id="fk" d="M162.2 216.5h-1.5v12h12v-12h-10.5zm0 3h9l-1.5-1.5v9l1.5-1.5h-9l1.5 1.5v-9l-1.5 1.5zm-21.5-23h52v52h-52v-52z"/></defs><clipPath id="fl"><use xlink:href="#fk" overflow="visible"/></clipPath><g clip-path="url(#fl)"><defs><path id="fm" d="M162.2 218h9v9h-9z"/></defs></g><defs><path id="fn" d="M162.2 218h9v9h-9z"/></defs><defs><path id="fo" d="M133.2 244.5h-1.5v12h12v-12h-10.5zm0 3h9l-1.5-1.5v9l1.5-1.5h-9l1.5 1.5v-9l-1.5 1.5zm-21.5-23h52v52h-52v-52z"/></defs><clipPath id="fp"><use xlink:href="#fo" overflow="visible"/></clipPath><g clip-path="url(#fp)"><defs><path id="fq" d="M133.2 246h9v9h-9z"/></defs></g><defs><path id="fr" d="M133.2 246h9v9h-9z"/></defs><defs><path id="fs" d="M162.2 244.5h-1.5v12h12v-12h-10.5zm0 3h9l-1.5-1.5v9l1.5-1.5h-9l1.5 1.5v-9l-1.5 1.5zm-21.5-23h52v52h-52v-52z"/></defs><clipPath id="ft"><use xlink:href="#fs" overflow="visible"/></clipPath><g clip-path="url(#ft)"><defs><path id="fu" d="M162.2 246h9v9h-9z"/></defs></g><defs><path id="fv" d="M162.2 246h9v9h-9z"/></defs><defs><path id="fw" d="M-158.6 117.5c-27.1 0-49-21.9-49-49s21.9-49 49-49 49 21.9 49 49-21.9 49-49 49zm0 3c28.7 0 52-23.3 52-52s-23.3-52-52-52-52 23.3-52 52 23.3 52 52 52zm-72-124h144v144h-144v-144z"/></defs><clipPath id="fx"><use xlink:href="#fw" overflow="visible"/></clipPath><g clip-path="url(#fx)"><defs><circle id="fy" cx="-158.6" cy="68.5" r="50.5"/></defs></g><defs><circle id="fz" cx="-158.6" cy="68.5" r="50.5"/></defs><defs><circle id="fA" cx="-158.6" cy="68.5" r="43.5"/></defs><defs><path id="fB" d="M-165.1 44.5h-1.7l.2 1.6 3.1 32 .1 1.4h11.4l.1-1.4 2.3-32 .1-1.6h-15.6zm0 3h14l-1.5-1.6-2.3 32 1.5-1.4h-8.6l1.5 1.4-3.1-32-1.5 1.6zm-21.6-23h57.3v75h-57.3v-75z"/></defs><clipPath id="fC"><use xlink:href="#fB" overflow="visible"/></clipPath><g clip-path="url(#fC)"><defs><path id="fD" d="M-165.1 46h14l-2.3 32h-8.5z"/></defs></g><defs><path id="fE" d="M-165.1 46.3h14l-2.3 32h-8.5z"/></defs><defs><path id="fF" d="M-157.6 91.5c-2.2 0-4-1.8-4-4s1.8-4 4-4 4 1.8 4 4-1.8 4-4 4zm0 3c3.9 0 7-3.1 7-7s-3.1-7-7-7-7 3.1-7 7 3.2 7 7 7zm-27-34h54v54h-54v-54z"/></defs><clipPath id="fG"><use xlink:href="#fF" overflow="visible"/></clipPath><g clip-path="url(#fG)"><defs><circle id="fH" cx="-157.6" cy="87.5" r="5.5"/></defs></g><g><defs><circle id="fI" cx="-157.6" cy="87.8" r="5.5"/></defs></g><g><defs><path id="fJ" d="M661.1 25h-1.5v90h134V25H661.1zm0 3h131l-1.5-1.5v87l1.5-1.5h-131l1.5 1.5v-87l-1.5 1.5zM639.6 5h174v130h-174V5z"/></defs><clipPath id="fK"><use xlink:href="#fJ" overflow="visible"/></clipPath><g clip-path="url(#fK)"><defs><path id="fL" d="M661.1 26.5h131v87h-131z"/></defs></g></g><g><defs><path id="fM" d="M661.1 26.5h131v87h-131z"/></defs></g><g><defs><path id="fN" d="M765.1 34h-1.5v23h21V34h-19.5zm0 3h18l-1.5-1.5v20l1.5-1.5h-18l1.5 1.5v-20l-1.5 1.5zm-21.5-23h61v63h-61V14z"/></defs><clipPath id="fO"><use xlink:href="#fN" overflow="visible"/></clipPath><g clip-path="url(#fO)"><defs><path id="fP" d="M765.1 35.5h18v20h-18z"/></defs></g></g><g><defs><path id="fQ" d="M765.1 35.5h18v20h-18z"/></defs></g><g><defs><path id="fR" d="M770.1 39h-1.5v13h11V39h-9.5zm0 3h8l-1.5-1.5v10l1.5-1.5h-8l1.5 1.5v-10l-1.5 1.5zm-21.5-23h51v53h-51V19z"/></defs><clipPath id="fS"><use xlink:href="#fR" overflow="visible"/></clipPath><g clip-path="url(#fS)"><defs><path id="fT" d="M770.1 40.5h8v10h-8z"/></defs></g></g><g><defs><path id="fU" d="M770.1 40.5h8v10h-8z"/></defs></g><g><defs><path id="fV" d="M-137.9 211.2l.2 3c8.3-.7 15.9-2.1 21.4-3.8 2.5-.7 4.4-1.5 5.5-2.2 1.8-1.1 2.5-3 .4-4.1-8.1-4.3-23.9-7.1-41.3-7.1-17.2 0-32.8 2.7-41 6.9-1.8.9-1.5 2.7 0 3.9.9.7 2.4 1.4 4.4 2.1 4.3 1.5 10.5 2.8 17.5 3.7l.3-3c-21.2-2.3-35.5-8.1-35.5-13.8 0-7.7 24.7-14.8 55-14.8s55 7.1 55 14.8c-.1 6.4-17.6 12.7-41.9 14.4zm.2 3c26-1.8 44.7-8.5 44.7-17.4 0-10.3-25.9-17.8-58-17.8s-58 7.5-58 17.8c0 8.1 15.4 14.4 38.2 16.8l.3-3c-6.9-.9-12.9-2.2-16.9-3.6-1.7-.6-3-1.2-3.6-1.6-.1-.1-.1-.1-.2-.1 0 .1.1.2.1.3.1.5-.2.8-.4.9 7.7-4 22.9-6.6 39.7-6.6 17 0 32.3 2.6 39.9 6.7-.1 0-.2-.1-.3-.3-.1-.3-.2-.6-.1-.9 0-.1.1-.2.1-.2-.1.1-.2.2-.4.3-.9.5-2.5 1.2-4.8 1.9-5.2 1.6-12.6 2.9-20.8 3.6l.5 3.2zm-91.4-55.2h156v75.2h-156V159z"/></defs><clipPath id="fW"><use xlink:href="#fV" overflow="visible"/></clipPath><g clip-path="url(#fW)"><defs><path id="fX" d="M-137.8 212.7c24.8-1.7 43.3-8.2 43.3-15.9 0-9-25.3-16.3-56.5-16.3s-56.5 7.3-56.5 16.3c0 7 15.3 13 36.9 15.3-14.9-1.9-24-5.5-21.4-6.9 7.8-4 22.9-6.8 40.4-6.8 17.6 0 32.9 2.8 40.6 6.9 2.6 1.5-9 5.8-26.8 7.4z"/></defs></g></g><g><defs><path id="fY" d="M-137.8 212.7c24.8-1.7 43.3-8.2 43.3-15.9 0-9-25.3-16.3-56.5-16.3s-56.5 7.3-56.5 16.3c0 7 15.3 13 36.9 15.3-14.9-1.9-24-5.5-21.4-6.9 7.8-4 22.9-6.8 40.4-6.8 17.6 0 32.9 2.8 40.6 6.9 2.6 1.5-9 5.8-26.8 7.4z"/></defs></g><g><defs><path id="fZ" d="M-151.1 233c-30.3 0-55-7.1-55-14.8v-22l-2.8.8c.3.6 1.1 1.4 2.4 2.4 2 1.6 4.9 3.2 8.6 4.7 10.5 4.1 26.3 6.6 48.5 6.6 19.8 0 34.5-2.6 44.8-7.1 3.7-1.6 6.5-3.3 8.6-5 1.3-1.1 2.1-1.9 2.5-2.5l-2.7-.9v23c.1 7.7-24.6 14.8-54.9 14.8zm0 3c32.1 0 58-7.5 58-17.8v-27.7l-2.7 3.8c0 .1-.2.2-.4.4-.4.4-.9.9-1.6 1.4-1.9 1.5-4.5 3.1-8 4.6-9.9 4.3-24.2 6.8-43.6 6.8-21.8 0-37.3-2.4-47.4-6.4-3.5-1.4-6.1-2.8-7.9-4.2-1-.8-1.5-1.4-1.7-1.6l-2.8-4.5v27.3c.1 10.4 26 17.9 58.1 17.9zm-78-65.5h156V256h-156v-85.5z"/></defs><clipPath id="ga"><use xlink:href="#fZ" overflow="visible"/></clipPath><g clip-path="url(#ga)"><defs><path id="gb" d="M-151.1 234.5c31.2 0 56.5-7.3 56.5-16.3v-23s-9.9 13.9-54.8 13.9c-50.2 0-58.2-13-58.2-13v22c0 9.1 25.3 16.4 56.5 16.4z"/></defs></g></g><g><defs><path id="gc" d="M-151.1 234.5c31.2 0 56.5-7.3 56.5-16.3v-23s-9.9 13.9-54.8 13.9c-50.2 0-58.2-13-58.2-13v22c0 9.1 25.3 16.4 56.5 16.4z"/></defs></g><g><defs><path id="gd" d="M-146.5 269c-8.5 0-15.4-6.9-15.4-15.4s6.9-15.4 15.4-15.4 15.5 6.9 15.5 15.4c-.1 8.5-7 15.4-15.5 15.4zm0 3c10.2 0 18.5-8.2 18.5-18.4s-8.3-18.4-18.5-18.4-18.4 8.2-18.4 18.4 8.2 18.4 18.4 18.4zm-38.5-56.8h76.9V292H-185v-76.8z"/></defs><clipPath id="ge"><use xlink:href="#gd" overflow="visible"/></clipPath><g clip-path="url(#ge)"><defs><ellipse id="gf" cx="-146.5" cy="253.6" rx="17" ry="16.9"/></defs></g></g><g><defs><ellipse id="gg" cx="-146.5" cy="253.6" rx="17" ry="16.9"/></defs></g><g><defs><path id="gh" d="M83.8 503.9h-1.5v84h108v-84H83.8zm0 3h105l-1.5-1.5v81l1.5-1.5h-105l1.5 1.5v-81l-1.5 1.5zm-21.5-23h148v124h-148v-124z"/></defs><clipPath id="gi"><use xlink:href="#gh" overflow="visible"/></clipPath><g clip-path="url(#gi)"><defs><path id="gj" d="M83.8 505.4h105v81h-105z"/></defs></g></g><g><defs><path id="gk" d="M83.8 505.4h105v81h-105z"/></defs></g><g><defs><path id="gl" d="M77.8 520.9h-2.2l.9-2.1 9.1-22 .4-.9h100.9l.4.9 9.1 22 .9 2.1H77.8zm0-3h117l-1.4 2.1-9.1-22 1.4.9H86.9l1.4-.9-9.1 22-1.4-2.1zm-22.2 23H217v-65H55.6v65z"/></defs><clipPath id="gm"><use xlink:href="#gl" overflow="visible"/></clipPath><g clip-path="url(#gm)"><defs><path id="gn" d="M77.8 519.4h117l-9.1-22H86.9z"/></defs></g></g><g><defs><path id="go" d="M77.8 519.4h117l-9.1-22H86.9z"/></defs></g><g><defs><path id="gp" d="M162.8 487.9h-1.5v19h15v-19h-13.5zm0 3h12l-1.5-1.5v16l1.5-1.5h-12l1.5 1.5v-16l-1.5 1.5zm-21.5-23h55v59h-55v-59z"/></defs><clipPath id="gq"><use xlink:href="#gp" overflow="visible"/></clipPath><g clip-path="url(#gq)"><defs><path id="gr" d="M162.8 489.4h12v16h-12z"/></defs></g></g><g><defs><path id="gs" d="M162.8 489.4h12v16h-12z"/></defs></g><g><defs><path id="gt" d="M96.8 553.9h-1.5v34h24v-34H96.8zm0 3h21l-1.5-1.5v31l1.5-1.5h-21l1.5 1.5v-31l-1.5 1.5zm-21.5-23h64v74h-64v-74z"/></defs><clipPath id="gu"><use xlink:href="#gt" overflow="visible"/></clipPath><g clip-path="url(#gu)"><defs><path id="gv" d="M96.8 555.4h21v31h-21z"/></defs></g></g><g><defs><path id="gw" d="M96.8 555.4h21v31h-21z"/></defs></g><g><defs><path id="gx" d="M97.8 525.9h-1.5v22h22v-22H97.8zm0 3h19l-1.5-1.5v19l1.5-1.5h-19l1.5 1.5v-19l-1.5 1.5zm-21.5-23h62v62h-62v-62z"/></defs><clipPath id="gy"><use xlink:href="#gx" overflow="visible"/></clipPath><g clip-path="url(#gy)"><defs><path id="gz" d="M97.8 527.4h19v19h-19z"/></defs></g></g><g><defs><path id="gA" d="M97.8 527.4h19v19h-19z"/></defs></g><g><defs><path id="gB" d="M102.8 530.9h-1.5v12h12v-12h-10.5zm0 3h9l-1.5-1.5v9l1.5-1.5h-9l1.5 1.5v-9l-1.5 1.5zm-21.5-23h52v52h-52v-52z"/></defs><clipPath id="gC"><use xlink:href="#gB" overflow="visible"/></clipPath><g clip-path="url(#gC)"><defs><path id="gD" d="M102.8 532.4h9v9h-9z"/></defs></g></g><g><defs><path id="gE" d="M102.8 532.4h9v9h-9z"/></defs></g><g><defs><path id="gF" d="M127.8 525.9h-1.5v22h22v-22h-20.5zm0 3h19l-1.5-1.5v19l1.5-1.5h-19l1.5 1.5v-19l-1.5 1.5zm-21.5-23h62v62h-62v-62z"/></defs><clipPath id="gG"><use xlink:href="#gF" overflow="visible"/></clipPath><g clip-path="url(#gG)"><defs><path id="gH" d="M127.8 527.4h19v19h-19z"/></defs></g></g><g><defs><path id="gI" d="M127.8 527.4h19v19h-19z"/></defs></g><g><defs><path id="gJ" d="M156.8 525.9h-1.5v22h22v-22h-20.5zm0 3h19l-1.5-1.5v19l1.5-1.5h-19l1.5 1.5v-19l-1.5 1.5zm-21.5-23h62v62h-62v-62z"/></defs><clipPath id="gK"><use xlink:href="#gJ" overflow="visible"/></clipPath><g clip-path="url(#gK)"><defs><path id="gL" d="M156.8 527.4h19v19h-19z"/></defs></g></g><g><defs><path id="gM" d="M156.8 527.4h19v19h-19z"/></defs></g><g><defs><path id="gN" d="M127.8 553.9h-1.5v22h22v-22h-20.5zm0 3h19l-1.5-1.5v19l1.5-1.5h-19l1.5 1.5v-19l-1.5 1.5zm-21.5-23h62v62h-62v-62z"/></defs><clipPath id="gO"><use xlink:href="#gN" overflow="visible"/></clipPath><g clip-path="url(#gO)"><defs><path id="gP" d="M127.8 555.4h19v19h-19z"/></defs></g></g><g><defs><path id="gQ" d="M127.8 555.4h19v19h-19z"/></defs></g><g><defs><path id="gR" d="M156.8 553.9h-1.5v22h22v-22h-20.5zm0 3h19l-1.5-1.5v19l1.5-1.5h-19l1.5 1.5v-19l-1.5 1.5zm-21.5-23h62v62h-62v-62z"/></defs><clipPath id="gS"><use xlink:href="#gR" overflow="visible"/></clipPath><g clip-path="url(#gS)"><defs><path id="gT" d="M156.8 555.4h19v19h-19z"/></defs></g></g><g><defs><path id="gU" d="M156.8 555.4h19v19h-19z"/></defs></g><g><defs><path id="gV" d="M132.8 530.9h-1.5v12h12v-12h-10.5zm0 3h9l-1.5-1.5v9l1.5-1.5h-9l1.5 1.5v-9l-1.5 1.5zm-21.5-23h52v52h-52v-52z"/></defs><clipPath id="gW"><use xlink:href="#gV" overflow="visible"/></clipPath><g clip-path="url(#gW)"><defs><path id="gX" d="M132.8 532.4h9v9h-9z"/></defs></g></g><g><defs><path id="gY" d="M132.8 532.4h9v9h-9z"/></defs></g><g><defs><path id="gZ" d="M161.8 530.9h-1.5v12h12v-12h-10.5zm0 3h9l-1.5-1.5v9l1.5-1.5h-9l1.5 1.5v-9l-1.5 1.5zm-21.5-23h52v52h-52v-52z"/></defs><clipPath id="ha"><use xlink:href="#gZ" overflow="visible"/></clipPath><g clip-path="url(#ha)"><defs><path id="hb" d="M161.8 532.4h9v9h-9z"/></defs></g></g><g><defs><path id="hc" d="M161.8 532.4h9v9h-9z"/></defs></g><g><defs><path id="hd" d="M132.8 558.9h-1.5v12h12v-12h-10.5zm0 3h9l-1.5-1.5v9l1.5-1.5h-9l1.5 1.5v-9l-1.5 1.5zm-21.5-23h52v52h-52v-52z"/></defs><clipPath id="he"><use xlink:href="#hd" overflow="visible"/></clipPath><g clip-path="url(#he)"><defs><path id="hf" d="M132.8 560.4h9v9h-9z"/></defs></g></g><g><defs><path id="hg" d="M132.8 560.4h9v9h-9z"/></defs></g><g><defs><path id="hh" d="M161.8 558.9h-1.5v12h12v-12h-10.5zm0 3h9l-1.5-1.5v9l1.5-1.5h-9l1.5 1.5v-9l-1.5 1.5zm-21.5-23h52v52h-52v-52z"/></defs><clipPath id="hi"><use xlink:href="#hh" overflow="visible"/></clipPath><g clip-path="url(#hi)"><defs><path id="hj" d="M161.8 560.4h9v9h-9z"/></defs></g></g><g><defs><path id="hk" d="M161.8 560.4h9v9h-9z"/></defs></g><g><defs><path id="hl" d="M138 742.3c-27.1 0-49-21.9-49-49s21.9-49 49-49 49 21.9 49 49c0 27-21.9 49-49 49zm0 3c28.7 0 52-23.3 52-52s-23.3-52-52-52-52 23.3-52 52 23.3 52 52 52zm-72-124h144v144H66v-144z"/></defs><clipPath id="hm"><use xlink:href="#hl" overflow="visible"/></clipPath><g clip-path="url(#hm)"><defs><circle id="hn" cx="138" cy="693.3" r="50.5"/></defs></g></g><g><defs><circle id="ho" cx="138" cy="693.3" r="50.5"/></defs></g><g><defs><circle id="hp" cx="138" cy="693.3" r="43.5"/></defs></g></svg>