<svg xmlns="http://www.w3.org/2000/svg" xmlns:xlink="http://www.w3.org/1999/xlink" viewBox="0 0 276 137"><defs><path id="a" d="M-225.1 61.4h-1.5v38h142V74.3l-.4-.4-11.4-12-.4-.5h-128.3zm0 3h127.6l-1.1-.5 11.4 12-.4-1v23l1.5-1.5h-139l1.5 1.5v-35l-1.5 1.5zm-21.5-23h182v78h-182v-78z"/></defs><clipPath id="b"><use xlink:href="#a" overflow="visible"/></clipPath><g clip-path="url(#b)"><defs><path id="c" d="M-225.1 62.9h127.6l11.4 12v23h-139z"/></defs><clipPath id="d"><use xlink:href="#c" overflow="visible"/></clipPath><g clip-path="url(#d)"><defs><path id="e" d="M-597.1-472.1h1121v1030h-1121z"/></defs></g></g><defs><path id="f" d="M-225.1 62.9h127.6l11.4 12v23h-139z"/></defs><clipPath id="g"><use xlink:href="#f" overflow="visible"/></clipPath><g clip-path="url(#g)"><defs><path id="h" d="M-597.1-472.1h1121v1030h-1121z"/></defs></g><defs><path id="i" d="M-192.1 112.8c-8 0-14.5-6.5-14.5-14.5s6.5-14.5 14.5-14.5 14.5 6.5 14.5 14.5-6.5 14.5-14.5 14.5zm0 3c9.7 0 17.5-7.8 17.5-17.5s-7.8-17.5-17.5-17.5-17.5 7.8-17.5 17.5 7.9 17.5 17.5 17.5zm-37.5-55h75v75h-75v-75z"/></defs><clipPath id="j"><use xlink:href="#i" overflow="visible"/></clipPath><g clip-path="url(#j)"><defs><circle id="k" cx="-192.1" cy="98.3" r="16"/></defs><clipPath id="l"><use xlink:href="#k" overflow="visible"/></clipPath><g clip-path="url(#l)"><defs><path id="m" d="M-597.1-472.1h1121v1030h-1121z"/></defs></g></g><defs><circle id="n" cx="-192.1" cy="98.3" r="16"/></defs><clipPath id="o"><use xlink:href="#n" overflow="visible"/></clipPath><g clip-path="url(#o)"><defs><path id="p" d="M-597.1-472.1h1121v1030h-1121z"/></defs></g><defs><path id="q" d="M-192.1 105.8c-4.1 0-7.5-3.4-7.5-7.5s3.4-7.5 7.5-7.5 7.5 3.4 7.5 7.5c0 4.2-3.3 7.5-7.5 7.5zm0 3c5.8 0 10.5-4.7 10.5-10.5s-4.7-10.5-10.5-10.5-10.5 4.7-10.5 10.5 4.7 10.5 10.5 10.5zm-30.5-41h61v61h-61v-61z"/></defs><clipPath id="r"><use xlink:href="#q" overflow="visible"/></clipPath><g clip-path="url(#r)"><defs><circle id="s" cx="-192.1" cy="98.3" r="9"/></defs><clipPath id="t"><use xlink:href="#s" overflow="visible"/></clipPath><g clip-path="url(#t)"><defs><path id="u" d="M-597.1-472.1h1121v1030h-1121z"/></defs></g></g><defs><circle id="v" cx="-192.1" cy="98.3" r="9"/></defs><clipPath id="w"><use xlink:href="#v" overflow="visible"/></clipPath><g clip-path="url(#w)"><defs><path id="x" d="M-597.1-472.1h1121v1030h-1121z"/></defs></g><defs><path id="y" d="M-125.8 112.8c-8 0-14.5-6.5-14.5-14.5s6.5-14.5 14.5-14.5 14.5 6.5 14.5 14.5-6.5 14.5-14.5 14.5zm0 3c9.7 0 17.5-7.8 17.5-17.5s-7.8-17.5-17.5-17.5-17.5 7.8-17.5 17.5 7.8 17.5 17.5 17.5zm-37.5-55h75v75h-75v-75z"/></defs><clipPath id="z"><use xlink:href="#y" overflow="visible"/></clipPath><g clip-path="url(#z)"><defs><circle id="A" cx="-125.8" cy="98.3" r="16"/></defs><clipPath id="B"><use xlink:href="#A" overflow="visible"/></clipPath><g clip-path="url(#B)"><defs><path id="C" d="M-597.1-472.1h1121v1030h-1121z"/></defs></g></g><defs><circle id="D" cx="-125.8" cy="98.3" r="16"/></defs><clipPath id="E"><use xlink:href="#D" overflow="visible"/></clipPath><g clip-path="url(#E)"><defs><path id="F" d="M-597.1-472.1h1121v1030h-1121z"/></defs></g><defs><path id="G" d="M-125.6 58l-7.7-15.6h-27.2V58h34.9zm-75.2 0l7.4-15.6h27.2V58h-34.6zm-10.3 5.3l14.1-26.9h66.8l15.3 27.9-96.2-1z"/></defs><clipPath id="H"><use xlink:href="#G" overflow="visible"/></clipPath><g clip-path="url(#H)"><defs><path id="I" d="M-597.1-472.1h1121v1030h-1121z"/></defs></g><g><defs><path id="J" d="M-125.8 105.8c-4.1 0-7.5-3.4-7.5-7.5s3.4-7.5 7.5-7.5 7.5 3.4 7.5 7.5c0 4.2-3.4 7.5-7.5 7.5zm0 3c5.8 0 10.5-4.7 10.5-10.5s-4.7-10.5-10.5-10.5-10.5 4.7-10.5 10.5 4.7 10.5 10.5 10.5zm-30.5-41h61v61h-61v-61z"/></defs><clipPath id="K"><use xlink:href="#J" overflow="visible"/></clipPath><g clip-path="url(#K)"><defs><circle id="L" cx="-125.8" cy="98.3" r="9"/></defs><clipPath id="M"><use xlink:href="#L" overflow="visible"/></clipPath><g clip-path="url(#M)"><defs><path id="N" d="M-597.1-472.1h1121v1030h-1121z"/></defs></g></g></g><g><defs><circle id="O" cx="-125.8" cy="98.3" r="9"/></defs><clipPath id="P"><use xlink:href="#O" overflow="visible"/></clipPath><g clip-path="url(#P)"><defs><path id="Q" d="M-597.1-472.1h1121v1030h-1121z"/></defs></g></g><g><path fill="#FFF" d="M192.6 98.9V87.4h-74.1V62.1H99.2l-6.3 13.1s-8.1 1.5-17.9 4.7v18.9h117.6z"/><path fill="#0C1F2E" d="M194.1 100.4H73.5V78.9l1-.3c8-2.7 15-4.2 17.3-4.6l6.4-13.3H120V86h74.1v14.4zm-117.6-3H191V89h-74V63.7h-16.8l-6.2 13-.8.1c-.1 0-7.6 1.4-16.6 4.4v16.2z"/></g><g><path fill="#FFF" d="M113.3 80.5H99.1v-3.9l4-8.6h10.2z"/><path fill="#0C1F2E" d="M114.8 82H97.6v-5.8l4.6-9.8h12.6V82zm-14.2-3h11.2v-9.5h-7.7l-3.5 7.4V79z"/></g><g><path fill="#0C1F2E" d="M93 100.3c-.8 0-1.5-.7-1.5-1.5V75.4c0-.8.7-1.5 1.5-1.5s1.5.7 1.5 1.5v23.4c0 .8-.7 1.5-1.5 1.5z"/></g><g><path fill="#0C1F2E" d="M118.5 100.3c-.8 0-1.5-.7-1.5-1.5V86.1c0-.8.7-1.5 1.5-1.5s1.5.7 1.5 1.5v12.7c0 .8-.7 1.5-1.5 1.5z"/></g><g><circle fill="#FFF" cx="96.4" cy="103.2" r="11"/><path fill="#0C1F2E" d="M96.4 115.7c-6.9 0-12.5-5.6-12.5-12.5s5.6-12.5 12.5-12.5 12.5 5.6 12.5 12.5-5.6 12.5-12.5 12.5zm0-21.9c-5.2 0-9.5 4.2-9.5 9.5s4.2 9.5 9.5 9.5 9.5-4.2 9.5-9.5-4.3-9.5-9.5-9.5z"/></g><g><circle fill="#FFF" cx="176" cy="103.2" r="11"/><path fill="#0C1F2E" d="M176 115.7c-6.9 0-12.5-5.6-12.5-12.5s5.6-12.5 12.5-12.5 12.5 5.6 12.5 12.5-5.7 12.5-12.5 12.5zm0-21.9c-5.2 0-9.5 4.2-9.5 9.5s4.2 9.5 9.5 9.5 9.5-4.2 9.5-9.5-4.3-9.5-9.5-9.5z"/></g><g><circle fill="#FFF" cx="96.2" cy="103.1" r="5"/><path fill="#0C1F2E" d="M96.2 109.6c-3.6 0-6.5-2.9-6.5-6.5s2.9-6.5 6.5-6.5 6.5 2.9 6.5 6.5-2.9 6.5-6.5 6.5zm0-10c-1.9 0-3.5 1.6-3.5 3.5s1.6 3.5 3.5 3.5 3.5-1.6 3.5-3.5-1.5-3.5-3.5-3.5z"/></g><path fill="#FFF" stroke="#0F1F2D" stroke-width="3" stroke-linecap="round" stroke-miterlimit="10" d="M118.5 76.5v5.1l68.4-27.3 1.4-5.6z"/><g><circle fill="#FFF" cx="175.8" cy="103.1" r="5"/><path fill="#0C1F2E" d="M175.8 109.6c-3.6 0-6.5-2.9-6.5-6.5s2.9-6.5 6.5-6.5 6.5 2.9 6.5 6.5-2.9 6.5-6.5 6.5zm0-10c-1.9 0-3.5 1.6-3.5 3.5s1.6 3.5 3.5 3.5 3.5-1.6 3.5-3.5-1.6-3.5-3.5-3.5z"/></g><g><path fill="#0C1F2E" d="M113.8 63.6h-11.3l2.6-10.5h6.2l2.5 10.5zm-7.5-3h3.7l-1.1-4.5h-1.5l-1.1 4.5z"/></g><path fill="#FFF" stroke="#0F1F2D" stroke-width="3" stroke-linecap="round" stroke-miterlimit="10" d="M118.5 76.5h15.3v10.9h-15.3z"/><circle fill="#FFF" stroke="#0F1F2D" stroke-width="3" stroke-linecap="round" stroke-miterlimit="10" cx="188.1" cy="66.9" r="3.8"/><path fill="#FFF" stroke="#0F1F2D" stroke-width="3" stroke-linecap="round" stroke-miterlimit="10" d="M188.5 72.5v1.9s2.1 1 2.3 3.3-1.7 3.5-3.3 3.5c-1.6.1-3.1-1.5-3-3.4"/><path fill="none" stroke="#0F1F2D" stroke-width="3" stroke-linecap="round" stroke-miterlimit="10" d="M188.1 63.1v-14"/><g><circle fill-rule="evenodd" clip-rule="evenodd" fill="#FFF" cx="136.3" cy="35.7" r="20.4"/><path fill="#0C1F2E" d="M136.3 57.5c-12.1 0-21.9-9.8-21.9-21.9s9.8-21.9 21.9-21.9 21.9 9.8 21.9 21.9-9.9 21.9-21.9 21.9zm0-40.7c-10.4 0-18.9 8.5-18.9 18.9s8.5 18.9 18.9 18.9 18.9-8.5 18.9-18.9-8.5-18.9-18.9-18.9z"/></g><g><path d="M138.6 43.1c0 1.5-1 2.4-2.4 2.4s-2.4-1-2.4-2.4 1-2.4 2.4-2.4 2.4 1 2.4 2.4zm-.8-4.7h-3l-.9-8.1v-5.2h4.8v5.2l-.9 8.1z"/></g></svg>