<svg id="Layer_1" data-name="Layer 1" xmlns="http://www.w3.org/2000/svg" viewBox="0 0 276 137"><defs><style>.cls-1,.cls-11,.cls-16,.cls-17,.cls-2{fill:none}.cls-1,.cls-3{clip-rule:evenodd}.cls-10,.cls-14,.cls-3,.cls-8{fill:#fff}.cls-16,.cls-17,.cls-3{stroke:#0e1f2d;stroke-width:3px}.cls-10,.cls-11,.cls-16,.cls-17,.cls-3{stroke-miterlimit:10}.cls-4{clip-path:url(#clip-path)}.cls-5{clip-path:url(#clip-path-2)}.cls-6{clip-path:url(#clip-path-4)}.cls-7{clip-path:url(#clip-path-5)}.cls-9{fill:#0e1f2d}.cls-10,.cls-11{stroke:#101f2c;stroke-linecap:round;stroke-width:3.17px}.cls-12{clip-path:url(#clip-path-7)}.cls-13{clip-path:url(#clip-path-8)}.cls-14,.cls-17{fill-rule:evenodd}.cls-15{clip-path:url(#clip-path-9)}.cls-18{clip-path:url(#clip-path-10)}.cls-19{clip-path:url(#clip-path-11)}</style><clipPath id="clip-path"><path class="cls-1" d="M692.69-54.42a29.08 29.08 0 0 1-29.07-29.08 29.08 29.08 0 0 1 29.08-29.08 29.08 29.08 0 0 1 29.07 29.08 29.08 29.08 0 0 1-29.08 29.08zm0 2.24A31.32 31.32 0 0 0 724-83.5a31.32 31.32 0 0 0-31.32-31.32 31.32 31.32 0 0 0-31.3 31.32 31.32 31.32 0 0 0 31.31 31.32zm-46.25-77.57h92.5v92.5h-92.5z"/></clipPath><clipPath id="clip-path-2"><circle class="cls-2" cx="692.69" cy="-83.5" r="30.2"/></clipPath><clipPath id="clip-path-4"><path class="cls-1" d="M775.23-54.42a29.08 29.08 0 0 1-29.08-29.08 29.08 29.08 0 0 1 29.08-29.08A29.08 29.08 0 0 1 804.3-83.5a29.08 29.08 0 0 1-29.07 29.08zm0 2.24a31.32 31.32 0 0 0 31.31-31.32 31.32 31.32 0 0 0-31.32-31.32 31.32 31.32 0 0 0-31.31 31.32 31.32 31.32 0 0 0 31.32 31.32zM729-129.75h92.5v92.5H729z"/></clipPath><clipPath id="clip-path-5"><circle class="cls-2" cx="775.23" cy="-83.5" r="30.2"/></clipPath><clipPath id="clip-path-7"><circle class="cls-2" cx="432.82" cy="229.42" r="50.5"/></clipPath><clipPath id="clip-path-8"><circle class="cls-2" cx="432.82" cy="229.42" r="43.5"/></clipPath><clipPath id="clip-path-9"><path class="cls-3" d="M-524.77 388.73h109.47l9.82 9.65v18.51h-119.29v-28.16z"/></clipPath><clipPath id="clip-path-10"><circle class="cls-2" cx="428.14" cy="386.9" r="50.5"/></clipPath><clipPath id="clip-path-11"><circle class="cls-2" cx="428.14" cy="386.9" r="43.5"/></clipPath></defs><title>EXPERIENTIAL ICONS</title><path class="cls-8" d="M193.86 90.55v-12.1h-78.39V51.67H95.05l-6.67 13.88a156.93 156.93 0 0 0-18.89 5v20z"/><path class="cls-9" d="M195.45 92.14H67.9V69.43l1.1-.37a163.86 163.86 0 0 1 18.3-4.92l6.76-14.06h23v26.78h78.39zM71.08 89h121.19v-9h-78.38V53.22H96.05L89.47 67l-.79.15a156.44 156.44 0 0 0-17.59 4.61z"/><path class="cls-8" d="M110 71.11H94.98v-4.15l4.25-9.11H110v13.26z"/><path class="cls-9" d="M111.59 72.7H93.4v-6.09l4.82-10.35h13.37zm-15-3.17h11.85V59.44h-8.17l-3.67 7.88zM88.46 92.05a1.59 1.59 0 0 1-1.59-1.59V65.75a1.59 1.59 0 1 1 3.17 0v24.72a1.59 1.59 0 0 1-1.58 1.58zM115.5 92.05a1.59 1.59 0 0 1-1.59-1.59V77.08a1.59 1.59 0 0 1 3.17 0v13.39a1.59 1.59 0 0 1-1.58 1.58z"/><circle class="cls-8" cx="92.08" cy="95.17" r="11.61"/><path class="cls-9" d="M92.08 108.36a13.19 13.19 0 1 1 13.19-13.19 13.21 13.21 0 0 1-13.19 13.19zm0-23.21a10 10 0 1 0 10 10 10 10 0 0 0-10-10z"/><circle class="cls-8" cx="176.28" cy="95.17" r="11.61"/><path class="cls-9" d="M176.28 108.36a13.19 13.19 0 1 1 13.19-13.19 13.21 13.21 0 0 1-13.19 13.19zm0-23.21a10 10 0 1 0 10 10 10 10 0 0 0-10-10z"/><circle class="cls-8" cx="91.93" cy="95.01" r="5.27"/><path class="cls-9" d="M91.93 101.87A6.86 6.86 0 1 1 98.78 95a6.86 6.86 0 0 1-6.85 6.87zm0-10.54A3.68 3.68 0 1 0 95.61 95a3.69 3.69 0 0 0-3.68-3.67z"/><path class="cls-10" d="M115.46 66.92v5.32l72.4-28.84 1.44-5.89-73.84 29.41z"/><circle class="cls-8" cx="176.13" cy="95.01" r="5.27"/><path class="cls-9" d="M176.13 101.87A6.86 6.86 0 1 1 183 95a6.86 6.86 0 0 1-6.87 6.87zm0-10.54a3.68 3.68 0 1 0 3.68 3.67 3.69 3.69 0 0 0-3.68-3.67zM110.46 53.26h-12l2.76-11.15h6.57zm-7.91-3.17h3.9l-1.14-4.8h-1.58z"/><path class="cls-10" d="M115.5 66.89h16.18v11.56H115.5z"/><circle class="cls-10" cx="189.09" cy="56.68" r="3.99"/><path class="cls-10" d="M189.56 62.66v2a4.43 4.43 0 0 1 2.44 3.52 3.46 3.46 0 0 1-3.46 3.76 3.39 3.39 0 0 1-3.19-3.64"/><path class="cls-11" d="M189.09 52.69V37.88"/><path class="cls-14" d="M-524.77 388.73h109.47l9.82 9.65v18.51h-119.29v-28.16z"/><g class="cls-15"><path class="cls-8" d="M-844.03-41.78h962.06v828.83h-962.06z"/><path class="cls-16" d="M-844.03-41.78h962.06v828.83h-962.06z"/></g><path class="cls-17" d="M-524.77 388.73h109.47l9.82 9.65v18.51h-119.29v-28.16z"/></svg>