<svg id="Layer_1" data-name="Layer 1" xmlns="http://www.w3.org/2000/svg" viewBox="0 0 276 137"><defs><style>.cls-1,.cls-2{fill:none}.cls-1{clip-rule:evenodd}.cls-43,.cls-44{fill:#fff}.cls-43,.cls-45{stroke:#091f2f}.cls-43,.cls-44,.cls-45{stroke-linecap:round;stroke-miterlimit:10;stroke-width:3px}.cls-44{stroke:#0f1f2d}.cls-45{fill:#091f2f}</style><clipPath id="clip-path"><path class="cls-1" d="M679.67-127.51h-1.5v84h108v-84h-106.5zm0 3h105l-1.5-1.5v81l1.5-1.5h-105l1.5 1.5v-81zm-21.5-23h148v124h-148z"/></clipPath><clipPath id="clip-path-2"><path class="cls-2" d="M679.67-126.01h105v81h-105z"/></clipPath><clipPath id="clip-path-4"><path class="cls-1" d="M673.67-110.51h-2.24l.85-2.07 9.07-22 .38-.93H782.6l.38.93 9.07 22 .85 2.07H673.67zm0-3h117l-1.39 2.07-9.07-22 1.39.93h-98.86l1.39-.93-9.07 22zm-22.24 23h161.48v-65H651.43z"/></clipPath><clipPath id="clip-path-5"><path class="cls-1" d="M673.67-112.01h117l-9.07-22h-98.86l-9.07 22z"/></clipPath><clipPath id="clip-path-7"><path class="cls-1" d="M758.67-143.51h-1.5v19h15v-19h-13.5zm0 3h12l-1.5-1.5v16l1.5-1.5h-12l1.5 1.5v-16zm-21.5-23h55v59h-55z"/></clipPath><clipPath id="clip-path-8"><path class="cls-2" d="M758.67-142.01h12v16h-12z"/></clipPath><clipPath id="clip-path-10"><path class="cls-1" d="M692.67-77.51h-1.5v34h24v-34h-22.5zm0 3h21l-1.5-1.5v31l1.5-1.5h-21l1.5 1.5V-76zm-21.5-23h64v74h-64z"/></clipPath><clipPath id="clip-path-11"><path class="cls-2" d="M692.67-76.01h21v31h-21z"/></clipPath><clipPath id="clip-path-13"><path class="cls-1" d="M693.67-105.51h-1.5v22h22v-22h-20.5zm0 3h19l-1.5-1.5v19l1.5-1.5h-19l1.5 1.5v-19zm-21.5-23h62v62h-62z"/></clipPath><clipPath id="clip-path-14"><path class="cls-2" d="M693.67-104.01h19v19h-19z"/></clipPath><clipPath id="clip-path-16"><path class="cls-1" d="M698.67-100.51h-1.5v12h12v-12h-10.5zm0 3h9l-1.5-1.5v9l1.5-1.5h-9l1.5 1.5v-9zm-21.5-23h52v52h-52z"/></clipPath><clipPath id="clip-path-17"><path class="cls-2" d="M698.67-99.01h9v9h-9z"/></clipPath><clipPath id="clip-path-19"><path class="cls-1" d="M723.67-105.51h-1.5v22h22v-22h-20.5zm0 3h19l-1.5-1.5v19l1.5-1.5h-19l1.5 1.5v-19zm-21.5-23h62v62h-62z"/></clipPath><clipPath id="clip-path-20"><path class="cls-2" d="M723.67-104.01h19v19h-19z"/></clipPath><clipPath id="clip-path-22"><path class="cls-1" d="M752.67-105.51h-1.5v22h22v-22h-20.5zm0 3h19l-1.5-1.5v19l1.5-1.5h-19l1.5 1.5v-19zm-21.5-23h62v62h-62z"/></clipPath><clipPath id="clip-path-23"><path class="cls-2" d="M752.67-104.01h19v19h-19z"/></clipPath><clipPath id="clip-path-25"><path class="cls-1" d="M723.67-77.51h-1.5v22h22v-22h-20.5zm0 3h19l-1.5-1.5v19l1.5-1.5h-19l1.5 1.5V-76zm-21.5-23h62v62h-62z"/></clipPath><clipPath id="clip-path-26"><path class="cls-2" d="M723.67-76.01h19v19h-19z"/></clipPath><clipPath id="clip-path-28"><path class="cls-1" d="M752.67-77.51h-1.5v22h22v-22h-20.5zm0 3h19l-1.5-1.5v19l1.5-1.5h-19l1.5 1.5V-76zm-21.5-23h62v62h-62z"/></clipPath><clipPath id="clip-path-29"><path class="cls-2" d="M752.67-76.01h19v19h-19z"/></clipPath><clipPath id="clip-path-31"><path class="cls-1" d="M728.67-100.51h-1.5v12h12v-12h-10.5zm0 3h9l-1.5-1.5v9l1.5-1.5h-9l1.5 1.5v-9zm-21.5-23h52v52h-52z"/></clipPath><clipPath id="clip-path-32"><path class="cls-2" d="M728.67-99.01h9v9h-9z"/></clipPath><clipPath id="clip-path-34"><path class="cls-1" d="M757.67-100.51h-1.5v12h12v-12h-10.5zm0 3h9l-1.5-1.5v9l1.5-1.5h-9l1.5 1.5v-9zm-21.5-23h52v52h-52z"/></clipPath><clipPath id="clip-path-35"><path class="cls-2" d="M757.67-99.01h9v9h-9z"/></clipPath><clipPath id="clip-path-37"><path class="cls-1" d="M728.67-72.51h-1.5v12h12v-12h-10.5zm0 3h9l-1.5-1.5v9l1.5-1.5h-9l1.5 1.5v-9zm-21.5-23h52v52h-52z"/></clipPath><clipPath id="clip-path-38"><path class="cls-2" d="M728.67-71.01h9v9h-9z"/></clipPath><clipPath id="clip-path-40"><path class="cls-1" d="M757.67-72.51h-1.5v12h12v-12h-10.5zm0 3h9l-1.5-1.5v9l1.5-1.5h-9l1.5 1.5v-9zm-21.5-23h52v52h-52z"/></clipPath><clipPath id="clip-path-41"><path class="cls-2" d="M757.67-71.01h9v9h-9z"/></clipPath><clipPath id="clip-path-43"><path class="cls-1" d="M-347.77 666.13h-1.5v38h142V679l-.41-.43-11.44-12-.44-.46h-128.2zm0 3h127.56l-1.09-.46 11.44 12-.41-1v23l1.5-1.5h-139l1.5 1.5v-35zm-21.5-23h182v78h-182z"/></clipPath><clipPath id="clip-path-44"><path class="cls-1" d="M-347.77 667.63h127.56l11.44 12v23h-139v-35z"/></clipPath><clipPath id="clip-path-46"><path class="cls-1" d="M-314.77 717.55a14.5 14.5 0 0 1-14.5-14.5 14.5 14.5 0 0 1 14.5-14.5 14.5 14.5 0 0 1 14.5 14.5 14.5 14.5 0 0 1-14.5 14.5zm0 3a17.5 17.5 0 0 0 17.5-17.5 17.5 17.5 0 0 0-17.5-17.5 17.5 17.5 0 0 0-17.5 17.5 17.5 17.5 0 0 0 17.5 17.5zm-37.5-55h75v75h-75z"/></clipPath><clipPath id="clip-path-47"><circle class="cls-2" cx="-314.77" cy="703.05" r="16"/></clipPath><clipPath id="clip-path-49"><path class="cls-1" d="M-314.77 710.55a7.5 7.5 0 0 1-7.5-7.5 7.5 7.5 0 0 1 7.5-7.5 7.5 7.5 0 0 1 7.5 7.5 7.5 7.5 0 0 1-7.5 7.5zm0 3a10.5 10.5 0 0 0 10.5-10.5 10.5 10.5 0 0 0-10.5-10.5 10.5 10.5 0 0 0-10.5 10.5 10.5 10.5 0 0 0 10.5 10.5zm-30.5-41h61v61h-61z"/></clipPath><clipPath id="clip-path-50"><circle class="cls-2" cx="-314.77" cy="703.05" r="9"/></clipPath><clipPath id="clip-path-52"><path class="cls-1" d="M-248.54 717.55a14.5 14.5 0 0 1-14.5-14.5 14.5 14.5 0 0 1 14.5-14.5 14.5 14.5 0 0 1 14.5 14.5 14.5 14.5 0 0 1-14.5 14.5zm0 3a17.5 17.5 0 0 0 17.5-17.5 17.5 17.5 0 0 0-17.5-17.5 17.5 17.5 0 0 0-17.5 17.5 17.5 17.5 0 0 0 17.5 17.5zm-37.5-55h75v75h-75z"/></clipPath><clipPath id="clip-path-53"><circle class="cls-2" cx="-248.54" cy="703.05" r="16"/></clipPath><clipPath id="clip-path-55"><path class="cls-1" d="M-248.31 662.72l-7.69-15.57h-27.17v15.57zm-75.16 0l7.38-15.55h27.17v15.53zm-10.3 5.35l14.14-26.89h66.84l15.35 27.82z"/></clipPath><clipPath id="clip-path-56"><path class="cls-1" d="M-248.54 710.55a7.5 7.5 0 0 1-7.5-7.5 7.5 7.5 0 0 1 7.5-7.5 7.5 7.5 0 0 1 7.5 7.5 7.5 7.5 0 0 1-7.5 7.5zm0 3a10.5 10.5 0 0 0 10.5-10.5 10.5 10.5 0 0 0-10.5-10.5 10.5 10.5 0 0 0-10.5 10.5 10.5 10.5 0 0 0 10.5 10.5zm-30.5-41h61v61h-61z"/></clipPath><clipPath id="clip-path-57"><circle class="cls-2" cx="-248.54" cy="703.05" r="9"/></clipPath></defs><path class="cls-43" d="M113.68 23h43v92.67h-43z"/><circle class="cls-44" cx="135.18" cy="41.67" r="9.67"/><circle class="cls-44" cx="135.18" cy="68.33" r="9.67"/><circle class="cls-45" cx="135.18" cy="95" r="9.67"/><path class="cls-43" d="M110.21 18.33h49.95v7.01h-49.95zm0 92.33h49.95V118h-49.95z"/></svg>