<svg id="Layer_1" data-name="Layer 1" xmlns="http://www.w3.org/2000/svg" viewBox="0 0 276 137"><defs><style>.cls-1,.cls-2,.cls-33{fill:none}.cls-1{clip-rule:evenodd}.cls-32{fill:#fff}.cls-32,.cls-33{stroke:#0e1f2d;stroke-linecap:round;stroke-miterlimit:10;stroke-width:3px}.cls-34{fill:#0e1f2d}</style><clipPath id="clip-path"><path class="cls-1" d="M-208.33-284.51h-1.5v84h108v-84h-106.5zm0 3h105l-1.5-1.5v81l1.5-1.5h-105l1.5 1.5v-81zm-21.5-23h148v124h-148z"/></clipPath><clipPath id="clip-path-2"><path class="cls-2" d="M-208.33-283.01h105v81h-105z"/></clipPath><clipPath id="clip-path-4"><path class="cls-1" d="M-214.33-267.51h-2.24l.85-2.07 9.07-22 .38-.93h100.87l.38.93 9.07 22 .85 2.07h-119.23zm0-3h117l-1.39 2.07-9.07-22 1.39.93h-98.86l1.39-.93-9.07 22zm-22.24 23h161.48v-65h-161.48z"/></clipPath><clipPath id="clip-path-5"><path class="cls-1" d="M-214.33-269.01h117l-9.07-22h-98.86l-9.07 22z"/></clipPath><clipPath id="clip-path-7"><path class="cls-1" d="M-129.33-300.51h-1.5v19h15v-19h-13.5zm0 3h12l-1.5-1.5v16l1.5-1.5h-12l1.5 1.5v-16zm-21.5-23h55v59h-55z"/></clipPath><clipPath id="clip-path-8"><path class="cls-2" d="M-129.33-299.01h12v16h-12z"/></clipPath><clipPath id="clip-path-10"><path class="cls-1" d="M-195.33-234.51h-1.5v34h24v-34h-22.5zm0 3h21l-1.5-1.5v31l1.5-1.5h-21l1.5 1.5v-31zm-21.5-23h64v74h-64z"/></clipPath><clipPath id="clip-path-11"><path class="cls-2" d="M-195.33-233.01h21v31h-21z"/></clipPath><clipPath id="clip-path-13"><path class="cls-1" d="M-194.33-262.51h-1.5v22h22v-22h-20.5zm0 3h19l-1.5-1.5v19l1.5-1.5h-19l1.5 1.5v-19zm-21.5-23h62v62h-62z"/></clipPath><clipPath id="clip-path-14"><path class="cls-2" d="M-194.33-261.01h19v19h-19z"/></clipPath><clipPath id="clip-path-16"><path class="cls-1" d="M-189.33-257.51h-1.5v12h12v-12h-10.5zm0 3h9l-1.5-1.5v9l1.5-1.5h-9l1.5 1.5v-9zm-21.5-23h52v52h-52z"/></clipPath><clipPath id="clip-path-17"><path class="cls-2" d="M-189.33-256.01h9v9h-9z"/></clipPath><clipPath id="clip-path-19"><path class="cls-1" d="M-164.33-262.51h-1.5v22h22v-22h-20.5zm0 3h19l-1.5-1.5v19l1.5-1.5h-19l1.5 1.5v-19zm-21.5-23h62v62h-62z"/></clipPath><clipPath id="clip-path-20"><path class="cls-2" d="M-164.33-261.01h19v19h-19z"/></clipPath><clipPath id="clip-path-22"><path class="cls-1" d="M-135.33-262.51h-1.5v22h22v-22h-20.5zm0 3h19l-1.5-1.5v19l1.5-1.5h-19l1.5 1.5v-19zm-21.5-23h62v62h-62z"/></clipPath><clipPath id="clip-path-23"><path class="cls-2" d="M-135.33-261.01h19v19h-19z"/></clipPath><clipPath id="clip-path-25"><path class="cls-1" d="M-164.33-234.51h-1.5v22h22v-22h-20.5zm0 3h19l-1.5-1.5v19l1.5-1.5h-19l1.5 1.5v-19zm-21.5-23h62v62h-62z"/></clipPath><clipPath id="clip-path-26"><path class="cls-2" d="M-164.33-233.01h19v19h-19z"/></clipPath><clipPath id="clip-path-28"><path class="cls-1" d="M-135.33-234.51h-1.5v22h22v-22h-20.5zm0 3h19l-1.5-1.5v19l1.5-1.5h-19l1.5 1.5v-19zm-21.5-23h62v62h-62z"/></clipPath><clipPath id="clip-path-29"><path class="cls-2" d="M-135.33-233.01h19v19h-19z"/></clipPath><clipPath id="clip-path-31"><path class="cls-1" d="M-159.33-257.51h-1.5v12h12v-12h-10.5zm0 3h9l-1.5-1.5v9l1.5-1.5h-9l1.5 1.5v-9zm-21.5-23h52v52h-52z"/></clipPath><clipPath id="clip-path-32"><path class="cls-2" d="M-159.33-256.01h9v9h-9z"/></clipPath><clipPath id="clip-path-34"><path class="cls-1" d="M-130.33-257.51h-1.5v12h12v-12h-10.5zm0 3h9l-1.5-1.5v9l1.5-1.5h-9l1.5 1.5v-9zm-21.5-23h52v52h-52z"/></clipPath><clipPath id="clip-path-35"><path class="cls-2" d="M-130.33-256.01h9v9h-9z"/></clipPath><clipPath id="clip-path-37"><path class="cls-1" d="M-159.33-229.51h-1.5v12h12v-12h-10.5zm0 3h9l-1.5-1.5v9l1.5-1.5h-9l1.5 1.5v-9zm-21.5-23h52v52h-52z"/></clipPath><clipPath id="clip-path-38"><path class="cls-2" d="M-159.33-228.01h9v9h-9z"/></clipPath><clipPath id="clip-path-40"><path class="cls-1" d="M-130.33-229.51h-1.5v12h12v-12h-10.5zm0 3h9l-1.5-1.5v9l1.5-1.5h-9l1.5 1.5v-9zm-21.5-23h52v52h-52z"/></clipPath><clipPath id="clip-path-41"><path class="cls-2" d="M-130.33-228.01h9v9h-9z"/></clipPath><clipPath id="clip-path-43"><circle class="cls-2" cx="-737.7" cy="859.62" r="50.5"/></clipPath><clipPath id="clip-path-44"><circle class="cls-2" cx="-737.7" cy="859.62" r="43.5"/></clipPath><clipPath id="clip-path-45"><circle class="cls-2" cx="150.3" cy="859.62" r="50.5"/></clipPath><clipPath id="clip-path-46"><circle class="cls-2" cx="150.3" cy="859.62" r="43.5"/></clipPath></defs><path class="cls-32" d="M186.59 107.18l-22.31 6.77-27.06-6.77-24.45 7.52-24.66-7.52V33.11l24.66 7.52 24.58-7.52 26.93 6.77 22.31-6.77v74.07z"/><path class="cls-33" d="M112.51 40.64v63.69m0-5.9v15.6m51.27-18.73v18.05m0-73.51v63.46m-25.94-9.9v13.98m0-73.31v13.98"/><path class="cls-34" d="M138.14 87.56a17.24 17.24 0 1 1 17.24-17.24 17.26 17.26 0 0 1-17.24 17.24zm0-29.08A11.84 11.84 0 1 0 150 70.32a11.85 11.85 0 0 0-11.86-11.84z"/><circle class="cls-34" cx="138.07" cy="70.4" r="4.05"/><path class="cls-34" d="M122.85 69.42h30.58v1.8h-30.58z"/><path class="cls-34" d="M137.24 55.48h1.8v30.58h-1.8z"/><path class="cls-34" transform="rotate(-45 138.003 69.947)" d="M137.11 54.65h1.8v30.58h-1.8z"/><path class="cls-34" transform="rotate(-45 137.691 70.256)" d="M122.4 69.36h30.58v1.8H122.4z"/></svg>