<svg id="Layer_1" data-name="Layer 1" xmlns="http://www.w3.org/2000/svg" viewBox="0 0 276 137"><defs><style>.cls-1,.cls-18,.cls-19,.cls-2,.cls-8{fill:none}.cls-2,.cls-3{clip-rule:evenodd}.cls-16,.cls-3,.cls-6,.cls-9{fill:#fff}.cls-18,.cls-19,.cls-3{stroke:#0e1f2d;stroke-width:1.88px}.cls-18,.cls-19,.cls-3,.cls-6,.cls-7,.cls-8{stroke-miterlimit:10}.cls-4{clip-path:url(#clip-path)}.cls-5{clip-path:url(#clip-path-2)}.cls-6,.cls-7,.cls-8{stroke:#091f2f;stroke-width:3px}.cls-7{fill:#091f2f}.cls-10{fill:#0c1f2e}.cls-11{fill:#0e1f2d}.cls-12{clip-path:url(#clip-path-3)}.cls-13{clip-path:url(#clip-path-4)}.cls-14{clip-path:url(#clip-path-6)}.cls-15{clip-path:url(#clip-path-7)}.cls-16,.cls-19{fill-rule:evenodd}.cls-17{clip-path:url(#clip-path-9)}.cls-20{clip-path:url(#clip-path-10)}.cls-21{clip-path:url(#clip-path-11)}.cls-22{clip-path:url(#clip-path-12)}.cls-23{clip-path:url(#clip-path-13)}</style><clipPath id="clip-path"><circle class="cls-1" cx="-158.52" cy="-86.41" r="50.5"/></clipPath><clipPath id="clip-path-2"><circle class="cls-1" cx="-158.52" cy="-86.41" r="43.5"/></clipPath><clipPath id="clip-path-3"><path class="cls-2" d="M100.69 259.58a29.08 29.08 0 1 1 29.08-29.08 29.08 29.08 0 0 1-29.08 29.08zm0 2.24a31.32 31.32 0 1 0-31.31-31.32 31.32 31.32 0 0 0 31.31 31.32zm-46.25-77.57h92.5v92.5h-92.5z"/></clipPath><clipPath id="clip-path-4"><circle class="cls-1" cx="100.69" cy="230.5" r="30.2"/></clipPath><clipPath id="clip-path-6"><path class="cls-2" d="M183.23 259.58a29.08 29.08 0 1 1 29.07-29.08 29.08 29.08 0 0 1-29.07 29.08zm0 2.24a31.32 31.32 0 1 0-31.32-31.32 31.32 31.32 0 0 0 31.32 31.32zM137 184.25h92.5v92.5H137z"/></clipPath><clipPath id="clip-path-7"><circle class="cls-1" cx="183.23" cy="230.5" r="30.2"/></clipPath><clipPath id="clip-path-9"><path class="cls-3" d="M96.34 370.06h65.16l5.84 5.75v11.01h-71v-16.76z"/></clipPath><clipPath id="clip-path-10"><circle class="cls-1" cx="-159.18" cy="543.42" r="50.5"/></clipPath><clipPath id="clip-path-11"><circle class="cls-1" cx="-159.18" cy="543.42" r="43.5"/></clipPath><clipPath id="clip-path-12"><circle class="cls-1" cx="-163.86" cy="700.9" r="50.5"/></clipPath><clipPath id="clip-path-13"><circle class="cls-1" cx="-163.86" cy="700.9" r="43.5"/></clipPath></defs><title>EXPERIENTIAL ICONS</title><path class="cls-6" d="M137.25 40.24h50.72v71.55h-50.72zM86.53 40.24h50.72v71.55H86.53z"/><path class="cls-7" d="M86.53 35.64h101.43v4.59H86.53z"/><path class="cls-8" d="M94.99 49.67h33.33v9.42H94.99zM145.94 49.67h33.33V68.5h-33.33zM152.44 59h20.33M94.32 81.33h6.17v6.17h-6.17zM145.94 81.33h6.17v6.17h-6.17z"/><circle class="cls-9" cx="192.76" cy="93.76" r="20.36"/><path class="cls-10" d="M192.76 115.63a21.86 21.86 0 1 1 21.86-21.86 21.89 21.89 0 0 1-21.86 21.86zm0-40.73a18.86 18.86 0 1 0 18.86 18.86 18.89 18.89 0 0 0-18.86-18.86z"/><path class="cls-11" d="M195.1 101.22a2.43 2.43 0 1 1-2.44-2.41 2.33 2.33 0 0 1 2.44 2.41zm-.84-4.76h-3l-.87-8.08v-5.17h4.76v5.17z"/><path class="cls-16" d="M96.34 370.06h65.16l5.84 5.75v11.01h-71v-16.76z"/><g class="cls-17"><path class="cls-9" d="M-93.69 113.82h572.62v493.32H-93.69z"/><path class="cls-18" d="M-93.69 113.82h572.62v493.32H-93.69z"/></g><path class="cls-19" d="M96.34 370.06h65.16l5.84 5.75v11.01h-71v-16.76z"/></svg>