<svg id="Layer_1" data-name="Layer 1" xmlns="http://www.w3.org/2000/svg" viewBox="0 0 276 137"><defs><style>.cls-1,.cls-2,.cls-9{fill:none}.cls-2{clip-rule:evenodd}.cls-10,.cls-7{fill:#fff}.cls-7,.cls-8,.cls-9{stroke:#091f2f;stroke-miterlimit:10;stroke-width:3px}.cls-8{fill:#091f2f}.cls-11{fill:#0f1f2d}</style><clipPath id="clip-path"><circle class="cls-1" cx="-454" cy="-246.73" r="50.5"/></clipPath><clipPath id="clip-path-2"><circle class="cls-1" cx="-454" cy="-246.73" r="43.5"/></clipPath><clipPath id="clip-path-3"><circle class="cls-1" cx="-158.52" cy="70.59" r="50.5"/></clipPath><clipPath id="clip-path-4"><circle class="cls-1" cx="-158.52" cy="70.59" r="43.5"/></clipPath><clipPath id="clip-path-5"><path class="cls-2" d="M100.69 416.58a29.08 29.08 0 1 1 29.08-29.08 29.08 29.08 0 0 1-29.08 29.08zm0 2.24a31.32 31.32 0 1 0-31.31-31.32 31.32 31.32 0 0 0 31.31 31.32zm-46.25-77.57h92.5v92.5h-92.5z"/></clipPath><clipPath id="clip-path-6"><circle class="cls-1" cx="100.69" cy="387.5" r="30.2"/></clipPath><clipPath id="clip-path-8"><path class="cls-2" d="M183.23 416.58a29.08 29.08 0 1 1 29.07-29.08 29.08 29.08 0 0 1-29.07 29.08zm0 2.24a31.32 31.32 0 1 0-31.32-31.32 31.32 31.32 0 0 0 31.32 31.32zM137 341.25h92.5v92.5H137z"/></clipPath><clipPath id="clip-path-9"><circle class="cls-1" cx="183.23" cy="387.5" r="30.2"/></clipPath><clipPath id="clip-path-11"><circle class="cls-1" cx="-159.18" cy="700.42" r="50.5"/></clipPath><clipPath id="clip-path-12"><circle class="cls-1" cx="-159.18" cy="700.42" r="43.5"/></clipPath><clipPath id="clip-path-13"><circle class="cls-1" cx="-163.86" cy="857.9" r="50.5"/></clipPath><clipPath id="clip-path-14"><circle class="cls-1" cx="-163.86" cy="857.9" r="43.5"/></clipPath></defs><path class="cls-7" d="M137.25 30.16h50.72v71.55h-50.72zm-50.72 0h50.72v71.55H86.53z"/><path class="cls-8" d="M86.53 25.57h101.43v4.59H86.53z"/><path class="cls-9" d="M94.99 39.6h33.33v9.42H94.99zm50.95 0h33.33v18.83h-33.33zm6.5 9.33h20.33M94.32 71.26h6.17v6.17h-6.17zm51.62 0h6.17v6.17h-6.17z"/><circle class="cls-10" cx="194.08" cy="82.53" r="18.95"/><path class="cls-11" d="M194.08 103.09a20.55 20.55 0 1 1 20.55-20.55 20.57 20.57 0 0 1-20.55 20.55zm0-37.9a17.35 17.35 0 1 0 17.35 17.35 17.37 17.37 0 0 0-17.35-17.35z"/><path class="cls-10" d="M201.24 79.47c0 3.58-6.47 12.23-6.47 12.23s-6.47-8.66-6.47-12.23a6.47 6.47 0 0 1 12.95 0z"/><path class="cls-11" d="M194.76 94.2l-1.2-1.61c-1.13-1.51-6.77-9.25-6.77-13.13a8 8 0 1 1 15.95 0c0 3.88-5.64 11.62-6.77 13.13zm0-19.71a5 5 0 0 0-5 5c0 1.81 2.61 6.26 5 9.66 2.28-3.28 5-7.78 5-9.66a5 5 0 0 0-5-5z"/><circle class="cls-11" cx="194.76" cy="78.84" r="2.14"/></svg>