<svg xmlns="http://www.w3.org/2000/svg" xmlns:xlink="http://www.w3.org/1999/xlink" viewBox="0 0 276 137"><defs><path id="a" d="M-225.5-309.5h-1.5v90h134v-90h-132.5zm0 3h131L-96-308v87l1.5-1.5h-131l1.5 1.5v-87l-1.5 1.5zm-21.5-23h174v130h-174v-130z"/></defs><clipPath id="b"><use xlink:href="#a" overflow="visible"/></clipPath><g clip-path="url(#b)"><defs><path id="c" d="M-225.5-308h131v87h-131z"/></defs></g><defs><path id="d" d="M-225.5-308h131v87h-131z"/></defs><defs><path id="e" d="M-220.5-304.5h-1.5v80h124v-80h-122.5zm0 3h121l-1.5-1.5v77l1.5-1.5h-121l1.5 1.5v-77l-1.5 1.5zm-21.5-23h164v120h-164v-120z"/></defs><clipPath id="f"><use xlink:href="#e" overflow="visible"/></clipPath><g clip-path="url(#f)"><defs><path id="g" d="M-220.5-303h121v77h-121z"/></defs></g><defs><path id="h" d="M-220.5-303h121v77h-121z"/></defs><defs><path id="i" d="M-155.5-289.5h-1.5v6h47v-6h-45.5zm0 3h44l-1.5-1.5v3l1.5-1.5h-44l1.5 1.5v-3l-1.5 1.5zm-21.5-23h87v46h-87v-46z"/></defs><clipPath id="j"><use xlink:href="#i" overflow="visible"/></clipPath><g clip-path="url(#j)"><defs><path id="k" d="M-155.5-288h44v3h-44z"/></defs></g><defs><path id="l" d="M-155.5-288h44v3h-44z"/></defs><defs><path id="m" d="M-155.5-283.5h-1.5v6h47v-6h-45.5zm0 3h44l-1.5-1.5v3l1.5-1.5h-44l1.5 1.5v-3l-1.5 1.5zm-21.5-23h87v46h-87v-46z"/></defs><clipPath id="n"><use xlink:href="#m" overflow="visible"/></clipPath><g clip-path="url(#n)"><defs><path id="o" d="M-155.5-282h44v3h-44z"/></defs></g><defs><path id="p" d="M-155.5-282h44v3h-44z"/></defs><defs><path id="q" d="M-155.5-277.5h-1.5v6h47v-6h-45.5zm0 3h44l-1.5-1.5v3l1.5-1.5h-44l1.5 1.5v-3l-1.5 1.5zm-21.5-23h87v46h-87v-46z"/></defs><clipPath id="r"><use xlink:href="#q" overflow="visible"/></clipPath><g clip-path="url(#r)"><defs><path id="s" d="M-155.5-276h44v3h-44z"/></defs></g><defs><path id="t" d="M-155.5-276h44v3h-44z"/></defs><defs><path id="u" d="M-155.5-271.5h-1.5v6h47v-6h-45.5zm0 3h44l-1.5-1.5v3l1.5-1.5h-44l1.5 1.5v-3l-1.5 1.5zm-21.5-23h87v46h-87v-46z"/></defs><clipPath id="v"><use xlink:href="#u" overflow="visible"/></clipPath><g clip-path="url(#v)"><defs><path id="w" d="M-155.5-270h44v3h-44z"/></defs></g><defs><path id="x" d="M-155.5-270h44v3h-44z"/></defs><defs><path id="y" d="M68.1-309.5h-1.5v90h134v-90H68.1zm0 3h131l-1.5-1.5v87l1.5-1.5h-131l1.5 1.5v-87l-1.5 1.5zm-21.5-23h174v130h-174v-130z"/></defs><clipPath id="z"><use xlink:href="#y" overflow="visible"/></clipPath><g clip-path="url(#z)"><defs><path id="A" d="M68.1-308h131v87h-131z"/></defs></g><defs><path id="B" d="M68.1-308h131v87h-131z"/></defs><defs><path id="C" d="M73.1-304.5h-1.5v80h124v-80H73.1zm0 3h121l-1.5-1.5v77l1.5-1.5h-121l1.5 1.5v-77l-1.5 1.5zm-21.5-23h164v120h-164v-120z"/></defs><clipPath id="D"><use xlink:href="#C" overflow="visible"/></clipPath><g clip-path="url(#D)"><defs><path id="E" d="M73.1-303h121v77h-121z"/></defs></g><defs><path id="F" d="M73.1-303h121v77h-121z"/></defs><defs><path id="G" d="M138.1-289.5h-1.5v6h47v-6h-45.5zm0 3h44l-1.5-1.5v3l1.5-1.5h-44l1.5 1.5v-3l-1.5 1.5zm-21.5-23h87v46h-87v-46z"/></defs><clipPath id="H"><use xlink:href="#G" overflow="visible"/></clipPath><g clip-path="url(#H)"><defs><path id="I" d="M138.1-288h44v3h-44z"/></defs></g><defs><path id="J" d="M138.1-288h44v3h-44z"/></defs><defs><path id="K" d="M138.1-283.5h-1.5v6h47v-6h-45.5zm0 3h44l-1.5-1.5v3l1.5-1.5h-44l1.5 1.5v-3l-1.5 1.5zm-21.5-23h87v46h-87v-46z"/></defs><clipPath id="L"><use xlink:href="#K" overflow="visible"/></clipPath><g clip-path="url(#L)"><defs><path id="M" d="M138.1-282h44v3h-44z"/></defs></g><defs><path id="N" d="M138.1-282h44v3h-44z"/></defs><defs><path id="O" d="M138.1-277.5h-1.5v6h47v-6h-45.5zm0 3h44l-1.5-1.5v3l1.5-1.5h-44l1.5 1.5v-3l-1.5 1.5zm-21.5-23h87v46h-87v-46z"/></defs><clipPath id="P"><use xlink:href="#O" overflow="visible"/></clipPath><g clip-path="url(#P)"><defs><path id="Q" d="M138.1-276h44v3h-44z"/></defs></g><defs><path id="R" d="M138.1-276h44v3h-44z"/></defs><defs><path id="S" d="M138.1-271.5h-1.5v6h47v-6h-45.5zm0 3h44l-1.5-1.5v3l1.5-1.5h-44l1.5 1.5v-3l-1.5 1.5zm-21.5-23h87v46h-87v-46z"/></defs><clipPath id="T"><use xlink:href="#S" overflow="visible"/></clipPath><g clip-path="url(#T)"><defs><path id="U" d="M138.1-270h44v3h-44z"/></defs></g><defs><path id="V" d="M138.1-270h44v3h-44z"/></defs><path fill="#FFF" stroke="#0F1F2D" stroke-width="3" stroke-linecap="round" stroke-miterlimit="10" d="M181.3 77.3h-20.7V45L171 33.1 181.3 45zm-68.7 0H91.9V45l10.4-12.4 10.3 11.9z"/><path fill="#FFF" stroke="#0F1F2D" stroke-width="3" stroke-linecap="round" stroke-miterlimit="10" d="M91.9 56.2h89.4V90H91.9z"/><path fill="#FFF" stroke="#0F1F2D" stroke-width="3" stroke-linecap="round" stroke-miterlimit="10" d="M86.6 85.8h100.5v30H86.6zM154 56.2h-34.7V45.7l17.3-24.6L154 45.7z"/><path fill="#FFF" stroke="#0F1F2D" stroke-width="3" stroke-linecap="round" stroke-miterlimit="10" d="M106.9 115.9h-15v-26l7.5-9.6 7.5 9.6zm17.3-59.7h-5.1V36.7l2.5-9 2.6 9zm-3.3 5.6c-1.3 0-2.6 1.1-2.6 2.4v15.7h5.2V64.2c0-1.4-1.2-2.4-2.6-2.4zm10.1 0c-1.3 0-2.6 1.1-2.6 2.4v15.7h5.2V64.2c0-1.4-1.2-2.4-2.6-2.4zm10.6 0c-1.3 0-2.6 1.1-2.6 2.4v15.7h5.2V64.2c0-1.4-1.3-2.4-2.6-2.4zm10.6 0c-1.3 0-2.6 1.1-2.6 2.4v15.7h5.2V64.2c-.1-1.4-1.3-2.4-2.6-2.4zm1.9-5.6h-5V36.7l2.5-9 2.5 9zm11.6 0h-5.1V44.3l2.6-7.5 2.5 7.5zm15.6 0h-5.1V44.3l2.6-7.5 2.5 7.5zm0 59.7h-14.9v-26l7.4-9.6 7.5 9.6z"/><path fill="#FFF" stroke="#0F1F2D" stroke-width="3" stroke-linecap="round" stroke-miterlimit="10" d="M99.6 89.1c-1.7 0-3.3 2.2-3.3 4.8v22h6.6v-22c0-2.7-1.6-4.8-3.3-4.8zm49.7 26.8h-26v-30l13-14.7 13 14.7zM98.8 62.5c-1.3 0-2.6 1.1-2.6 2.4V76h5.2V64.9c0-1.3-1.2-2.4-2.6-2.4zm6.8 0c-1.3 0-2.6 1.1-2.6 2.4V76h5.2V64.9c-.1-1.3-1.3-2.4-2.6-2.4zM97 56.2h-5.1V44.3l2.6-7.5 2.5 7.5zm15.6 0h-5.1V44.8l2.6-8 2.5 7.5zm62.1 6.3c-1.3 0-2.6 1.1-2.6 2.4V76h5.2V64.9c0-1.3-1.3-2.4-2.6-2.4zm-7.8 0c-1.3 0-2.6 1.1-2.6 2.4V76h5.2V64.9c-.1-1.3-1.3-2.4-2.6-2.4zm-30.3-27.1c-1.5 0-2.9 1.7-2.9 3.7v17.1h5.7V39.1c.1-2-1.3-3.7-2.8-3.7zm37.2 53.7c-1.7 0-3.3 2.2-3.3 4.8v22h6.6v-22c0-2.7-1.6-4.8-3.3-4.8z"/><path fill="#FFF" stroke="#0F1F2D" stroke-width="3" stroke-linecap="round" stroke-miterlimit="10" d="M136.1 86c-4.6 0-8.4 3.7-8.4 8.4v21.5h16.8V94.4c0-4.6-3.8-8.4-8.4-8.4zm-23.5-29.8v29.6m48-29.6v29.6"/></svg>