<svg xmlns="http://www.w3.org/2000/svg" xmlns:xlink="http://www.w3.org/1999/xlink" viewBox="0 0 276 137"><defs><path id="a" d="M-571.9-96.9c-27.1 0-49-21.9-49-49s21.9-49 49-49 49 21.9 49 49-21.9 49-49 49zm0 3c28.7 0 52-23.3 52-52s-23.3-52-52-52-52 23.3-52 52 23.3 52 52 52zm-72-124h144v144h-144v-144z"/></defs><clipPath id="b"><use xlink:href="#a" overflow="visible"/></clipPath><g clip-path="url(#b)"><defs><circle id="c" cx="-571.9" cy="-145.9" r="50.5"/></defs></g><defs><circle id="d" cx="-571.9" cy="-145.9" r="50.5"/></defs><defs><circle id="e" cx="-571.9" cy="-145.9" r="43.5"/></defs><defs><circle id="f" cx="434" cy="67.5" r="50.5"/></defs><defs><circle id="g" cx="434" cy="67.5" r="43.5"/></defs><path fill="#FFF" d="M192.9 90.1V78.7h-84.1V53.4H89.6l-6.3 13.1s-8.1 1.5-17.9 4.7v18.9h127.5z"/><path fill="#0C1F2E" d="M194.4 91.6H63.9V70.2l1-.3c8-2.7 15-4.2 17.3-4.6L88.6 52h21.7v25.3h84.1v14.3zm-127.5-3h124.5v-8.4h-84.1V54.9H90.5l-6.2 13-.8.1c-.1 0-7.6 1.4-16.6 4.4v16.2z"/><path fill="#FFF" d="M103.7 71.8H89.5v-4l4-8.6h10.2z"/><path fill="#0C1F2E" d="M105.2 73.3H88v-5.8l4.6-9.8h12.6v15.6zm-14.2-3h11.2v-9.5h-7.7L91 68.2v2.1zm-7.7 21.2c-.8 0-1.5-.7-1.5-1.5V66.7c0-.8.7-1.5 1.5-1.5s1.5.7 1.5 1.5V90c0 .9-.6 1.5-1.5 1.5zm25.6 0c-.8 0-1.5-.7-1.5-1.5V77.4c0-.8.7-1.5 1.5-1.5s1.5.7 1.5 1.5V90c0 .9-.7 1.5-1.5 1.5z"/><circle fill="#FFF" cx="86.8" cy="94.5" r="11"/><path fill="#0C1F2E" d="M86.8 107c-6.9 0-12.5-5.6-12.5-12.5S79.9 82 86.8 82s12.5 5.6 12.5 12.5S93.6 107 86.8 107zm0-22c-5.2 0-9.5 4.2-9.5 9.5s4.2 9.5 9.5 9.5 9.5-4.2 9.5-9.5S92 85 86.8 85z"/><circle fill="#FFF" cx="176.3" cy="94.5" r="11"/><path fill="#0C1F2E" d="M176.3 107c-6.9 0-12.5-5.6-12.5-12.5S169.4 82 176.3 82s12.5 5.6 12.5 12.5-5.6 12.5-12.5 12.5zm0-22c-5.2 0-9.5 4.2-9.5 9.5s4.2 9.5 9.5 9.5 9.5-4.2 9.5-9.5-4.3-9.5-9.5-9.5z"/><circle fill="#FFF" cx="86.6" cy="94.3" r="5"/><path fill="#0C1F2E" d="M86.6 100.8c-3.6 0-6.5-2.9-6.5-6.5s2.9-6.5 6.5-6.5 6.5 2.9 6.5 6.5-2.9 6.5-6.5 6.5zm0-9.9c-1.9 0-3.5 1.6-3.5 3.5s1.6 3.5 3.5 3.5 3.5-1.6 3.5-3.5c0-2-1.6-3.5-3.5-3.5z"/><circle fill="#FFF" cx="176.2" cy="94.3" r="5"/><path fill="#0C1F2E" d="M176.2 100.8c-3.6 0-6.5-2.9-6.5-6.5s2.9-6.5 6.5-6.5 6.5 2.9 6.5 6.5-3 6.5-6.5 6.5zm0-9.9c-1.9 0-3.5 1.6-3.5 3.5s1.6 3.5 3.5 3.5 3.5-1.6 3.5-3.5c0-2-1.6-3.5-3.5-3.5z"/><g><path fill="#FFF" stroke="#000" stroke-width="3" stroke-miterlimit="10" d="M204.7 80.2h-94.3V34.7h94.3v45.5z"/></g></svg>