<svg id="Layer_1" data-name="Layer 1" xmlns="http://www.w3.org/2000/svg" viewBox="0 0 276 137"><defs><style>.cls-1,.cls-2{fill:none}.cls-2{clip-rule:evenodd}.cls-36{fill:#fff;stroke:#0c1f2e;stroke-linecap:round;stroke-miterlimit:10;stroke-width:3px}</style><clipPath id="clip-path"><circle class="cls-1" cx="-454" cy="67.5" r="50.5"/></clipPath><clipPath id="clip-path-2"><circle class="cls-1" cx="-454" cy="67.5" r="43.5"/></clipPath><clipPath id="clip-path-3"><circle class="cls-1" cx="-163.22" cy="67.5" r="50.5"/></clipPath><clipPath id="clip-path-4"><circle class="cls-1" cx="-163.22" cy="67.5" r="43.5"/></clipPath><clipPath id="clip-path-5"><path class="cls-2" d="M-208.33 343.49h-1.5v84h108v-84h-106.5zm0 3h105l-1.5-1.5v81l1.5-1.5h-105l1.5 1.5V345zm-21.5-23h148v124h-148z"/></clipPath><clipPath id="clip-path-6"><path class="cls-1" d="M-208.33 344.99h105v81h-105z"/></clipPath><clipPath id="clip-path-8"><path class="cls-2" d="M-214.33 360.49h-2.24l.85-2.07 9.07-22 .38-.93h100.87l.38.93 9.07 22 .85 2.07h-119.23zm0-3h117l-1.39 2.07-9.07-22 1.39.93h-98.86l1.39-.93-9.07 22zm-22.24 23h161.48v-65h-161.48z"/></clipPath><clipPath id="clip-path-9"><path class="cls-2" d="M-214.33 358.99h117l-9.07-22h-98.86l-9.07 22z"/></clipPath><clipPath id="clip-path-11"><path class="cls-2" d="M-129.33 327.49h-1.5v19h15v-19h-13.5zm0 3h12l-1.5-1.5v16l1.5-1.5h-12l1.5 1.5V329zm-21.5-23h55v59h-55z"/></clipPath><clipPath id="clip-path-12"><path class="cls-1" d="M-129.33 328.99h12v16h-12z"/></clipPath><clipPath id="clip-path-14"><path class="cls-2" d="M-195.33 393.49h-1.5v34h24v-34h-22.5zm0 3h21l-1.5-1.5v31l1.5-1.5h-21l1.5 1.5V395zm-21.5-23h64v74h-64z"/></clipPath><clipPath id="clip-path-15"><path class="cls-1" d="M-195.33 394.99h21v31h-21z"/></clipPath><clipPath id="clip-path-17"><path class="cls-2" d="M-194.33 365.49h-1.5v22h22v-22h-20.5zm0 3h19l-1.5-1.5v19l1.5-1.5h-19l1.5 1.5V367zm-21.5-23h62v62h-62z"/></clipPath><clipPath id="clip-path-18"><path class="cls-1" d="M-194.33 366.99h19v19h-19z"/></clipPath><clipPath id="clip-path-20"><path class="cls-2" d="M-189.33 370.49h-1.5v12h12v-12h-10.5zm0 3h9l-1.5-1.5v9l1.5-1.5h-9l1.5 1.5v-9zm-21.5-23h52v52h-52z"/></clipPath><clipPath id="clip-path-21"><path class="cls-1" d="M-189.33 371.99h9v9h-9z"/></clipPath><clipPath id="clip-path-23"><path class="cls-2" d="M-164.33 365.49h-1.5v22h22v-22h-20.5zm0 3h19l-1.5-1.5v19l1.5-1.5h-19l1.5 1.5V367zm-21.5-23h62v62h-62z"/></clipPath><clipPath id="clip-path-24"><path class="cls-1" d="M-164.33 366.99h19v19h-19z"/></clipPath><clipPath id="clip-path-26"><path class="cls-2" d="M-135.33 365.49h-1.5v22h22v-22h-20.5zm0 3h19l-1.5-1.5v19l1.5-1.5h-19l1.5 1.5V367zm-21.5-23h62v62h-62z"/></clipPath><clipPath id="clip-path-27"><path class="cls-1" d="M-135.33 366.99h19v19h-19z"/></clipPath><clipPath id="clip-path-29"><path class="cls-2" d="M-164.33 393.49h-1.5v22h22v-22h-20.5zm0 3h19l-1.5-1.5v19l1.5-1.5h-19l1.5 1.5V395zm-21.5-23h62v62h-62z"/></clipPath><clipPath id="clip-path-30"><path class="cls-1" d="M-164.33 394.99h19v19h-19z"/></clipPath><clipPath id="clip-path-32"><path class="cls-2" d="M-135.33 393.49h-1.5v22h22v-22h-20.5zm0 3h19l-1.5-1.5v19l1.5-1.5h-19l1.5 1.5V395zm-21.5-23h62v62h-62z"/></clipPath><clipPath id="clip-path-33"><path class="cls-1" d="M-135.33 394.99h19v19h-19z"/></clipPath><clipPath id="clip-path-35"><path class="cls-2" d="M-159.33 370.49h-1.5v12h12v-12h-10.5zm0 3h9l-1.5-1.5v9l1.5-1.5h-9l1.5 1.5v-9zm-21.5-23h52v52h-52z"/></clipPath><clipPath id="clip-path-36"><path class="cls-1" d="M-159.33 371.99h9v9h-9z"/></clipPath><clipPath id="clip-path-38"><path class="cls-2" d="M-130.33 370.49h-1.5v12h12v-12h-10.5zm0 3h9l-1.5-1.5v9l1.5-1.5h-9l1.5 1.5v-9zm-21.5-23h52v52h-52z"/></clipPath><clipPath id="clip-path-39"><path class="cls-1" d="M-130.33 371.99h9v9h-9z"/></clipPath><clipPath id="clip-path-41"><path class="cls-2" d="M-159.33 398.49h-1.5v12h12v-12h-10.5zm0 3h9l-1.5-1.5v9l1.5-1.5h-9l1.5 1.5v-9zm-21.5-23h52v52h-52z"/></clipPath><clipPath id="clip-path-42"><path class="cls-1" d="M-159.33 399.99h9v9h-9z"/></clipPath><clipPath id="clip-path-44"><path class="cls-2" d="M-130.33 398.49h-1.5v12h12v-12h-10.5zm0 3h9l-1.5-1.5v9l1.5-1.5h-9l1.5 1.5v-9zm-21.5-23h52v52h-52z"/></clipPath><clipPath id="clip-path-45"><path class="cls-1" d="M-130.33 399.99h9v9h-9z"/></clipPath></defs><path class="cls-36" d="M119.53 60.99h-15.66l-11.13 8.42v28.9h37.84V69.73l-11.05-8.74z"/><circle class="cls-36" cx="111.32" cy="43.87" r="10.04"/><path class="cls-36" d="M172.21 60.99h-15.66l-11.13 8.42v28.9h37.84V69.73l-11.05-8.74z"/><circle class="cls-36" cx="164.01" cy="43.87" r="10.04"/><path class="cls-36" d="M145.87 71.12h-15.66l-11.13 8.41v28.91h37.84V79.86l-11.05-8.74z"/><circle class="cls-36" cx="137.66" cy="54" r="10.04"/></svg>