<svg xmlns="http://www.w3.org/2000/svg" viewBox="0 0 276 137"><title>EXPERIENTIAL ICONS 3 (5)</title><g data-name="Layer 1"><path d="M86.58 21.65v78.47H74.73v1.55a13.76 13.76 0 0 0 13.4 13.69l99.31-.05A13.49 13.49 0 0 0 201.1 102l.18-80.37zm1.58 90.61a10.65 10.65 0 0 1-10.22-9.05h95.91a13.27 13.27 0 0 0 4.72 9zM198 102a10.4 10.4 0 0 1-10.57 10.19 10.2 10.2 0 0 1-10.56-10.51v-1.55H89.68V24.75h108.49z" fill="#0c1f2e"/><path d="M178.57 112.21l-90.41.05a10.65 10.65 0 0 1-10.22-9.05h95.91a13.27 13.27 0 0 0 4.72 9z" fill="#fff"/><path d="M89.68 24.75v75.37h87.19v1.55a10.2 10.2 0 0 0 10.56 10.51A10.4 10.4 0 0 0 198 102l.17-77.27zm97 63.9h-48.52v-3.1h48.49zm0-12.38h-48.52v-3.1h48.49zm0-12.38h-48.52v-3.1h48.49zm0-12.38h-48.52v-3.1h48.49zm0-12.38h-48.52V36h48.49z" fill="#fff"/><path fill="#0c1f2e" d="M138.16 36.03h48.49v3.1h-48.49zM138.16 48.41h48.49v3.1h-48.49zM138.16 60.79h48.49v3.1h-48.49zM138.16 73.17h48.49v3.1h-48.49zM138.16 85.55h48.49v3.1h-48.49z"/><path fill="none" stroke="#091f2f" stroke-miterlimit="10" stroke-width="3" d="M112.31 63.63l13.31-11.38v-16.3H99v16.3l13.31 11.38zM112.31 64.37l3.96 8.02 8.85 1.29-6.41 6.24 1.51 8.81-7.91-4.16-7.92 4.16 1.52-8.81-6.41-6.24 8.85-1.29 3.96-8.02z"/></g></svg>