<svg xmlns="http://www.w3.org/2000/svg" xmlns:xlink="http://www.w3.org/1999/xlink" viewBox="0 0 276 137"><defs><path id="a" d="M-225.1-108.1h-1.5v38h142v-25.1l-.4-.4-11.4-12-.4-.5h-128.3zm0 3h127.6l-1.1-.5 11.4 12-.4-1v23l1.5-1.5h-139l1.5 1.5v-35l-1.5 1.5zm-21.5-23h182v78h-182v-78z"/></defs><clipPath id="b"><use xlink:href="#a" overflow="visible"/></clipPath><g clip-path="url(#b)"><defs><path id="c" d="M-225.1-106.6h127.6l11.4 12v23h-139z"/></defs><clipPath id="d"><use xlink:href="#c" overflow="visible"/></clipPath><g clip-path="url(#d)"><defs><path id="e" d="M-597.1-641.6h1121v1030h-1121z"/></defs></g></g><defs><path id="f" d="M-225.1-106.6h127.6l11.4 12v23h-139z"/></defs><clipPath id="g"><use xlink:href="#f" overflow="visible"/></clipPath><g clip-path="url(#g)"><defs><path id="h" d="M-597.1-641.6h1121v1030h-1121z"/></defs></g><defs><path id="i" d="M-192.1-56.7c-8 0-14.5-6.5-14.5-14.5s6.5-14.5 14.5-14.5 14.5 6.5 14.5 14.5-6.5 14.5-14.5 14.5zm0 3c9.7 0 17.5-7.8 17.5-17.5s-7.8-17.5-17.5-17.5-17.5 7.8-17.5 17.5 7.9 17.5 17.5 17.5zm-37.5-55h75v75h-75v-75z"/></defs><clipPath id="j"><use xlink:href="#i" overflow="visible"/></clipPath><g clip-path="url(#j)"><defs><circle id="k" cx="-192.1" cy="-71.2" r="16"/></defs><clipPath id="l"><use xlink:href="#k" overflow="visible"/></clipPath><g clip-path="url(#l)"><defs><path id="m" d="M-597.1-641.6h1121v1030h-1121z"/></defs></g></g><defs><circle id="n" cx="-192.1" cy="-71.2" r="16"/></defs><clipPath id="o"><use xlink:href="#n" overflow="visible"/></clipPath><g clip-path="url(#o)"><defs><path id="p" d="M-597.1-641.6h1121v1030h-1121z"/></defs></g><defs><path id="q" d="M-192.1-63.7c-4.1 0-7.5-3.4-7.5-7.5s3.4-7.5 7.5-7.5 7.5 3.4 7.5 7.5c0 4.2-3.3 7.5-7.5 7.5zm0 3c5.8 0 10.5-4.7 10.5-10.5s-4.7-10.5-10.5-10.5-10.5 4.7-10.5 10.5 4.7 10.5 10.5 10.5zm-30.5-41h61v61h-61v-61z"/></defs><clipPath id="r"><use xlink:href="#q" overflow="visible"/></clipPath><g clip-path="url(#r)"><defs><circle id="s" cx="-192.1" cy="-71.2" r="9"/></defs><clipPath id="t"><use xlink:href="#s" overflow="visible"/></clipPath><g clip-path="url(#t)"><defs><path id="u" d="M-597.1-641.6h1121v1030h-1121z"/></defs></g></g><defs><circle id="v" cx="-192.1" cy="-71.2" r="9"/></defs><clipPath id="w"><use xlink:href="#v" overflow="visible"/></clipPath><g clip-path="url(#w)"><defs><path id="x" d="M-597.1-641.6h1121v1030h-1121z"/></defs></g><defs><path id="y" d="M-125.8-56.7c-8 0-14.5-6.5-14.5-14.5s6.5-14.5 14.5-14.5 14.5 6.5 14.5 14.5-6.5 14.5-14.5 14.5zm0 3c9.7 0 17.5-7.8 17.5-17.5s-7.8-17.5-17.5-17.5-17.5 7.8-17.5 17.5 7.8 17.5 17.5 17.5zm-37.5-55h75v75h-75v-75z"/></defs><clipPath id="z"><use xlink:href="#y" overflow="visible"/></clipPath><g clip-path="url(#z)"><defs><circle id="A" cx="-125.8" cy="-71.2" r="16"/></defs><clipPath id="B"><use xlink:href="#A" overflow="visible"/></clipPath><g clip-path="url(#B)"><defs><path id="C" d="M-597.1-641.6h1121v1030h-1121z"/></defs></g></g><g><defs><circle id="D" cx="-125.8" cy="-71.2" r="16"/></defs><clipPath id="E"><use xlink:href="#D" overflow="visible"/></clipPath><g clip-path="url(#E)"><defs><path id="F" d="M-597.1-641.6h1121v1030h-1121z"/></defs></g></g><g><defs><path id="G" d="M-125.6-111.5l-7.7-15.6h-27.2v15.6h34.9zm-75.2 0l7.4-15.6h27.2v15.6h-34.6zm-10.3 5.3l14.1-26.9h66.8l15.3 27.9-96.2-1z"/></defs><clipPath id="H"><use xlink:href="#G" overflow="visible"/></clipPath><g clip-path="url(#H)"><defs><path id="I" d="M-597.1-641.6h1121v1030h-1121z"/></defs></g></g><g><defs><path id="J" d="M-125.8-63.7c-4.1 0-7.5-3.4-7.5-7.5s3.4-7.5 7.5-7.5 7.5 3.4 7.5 7.5c0 4.2-3.4 7.5-7.5 7.5zm0 3c5.8 0 10.5-4.7 10.5-10.5s-4.7-10.5-10.5-10.5-10.5 4.7-10.5 10.5 4.7 10.5 10.5 10.5zm-30.5-41h61v61h-61v-61z"/></defs><clipPath id="K"><use xlink:href="#J" overflow="visible"/></clipPath><g clip-path="url(#K)"><defs><circle id="L" cx="-125.8" cy="-71.2" r="9"/></defs><clipPath id="M"><use xlink:href="#L" overflow="visible"/></clipPath><g clip-path="url(#M)"><defs><path id="N" d="M-597.1-641.6h1121v1030h-1121z"/></defs></g></g></g><g><defs><circle id="O" cx="-125.8" cy="-71.2" r="9"/></defs><clipPath id="P"><use xlink:href="#O" overflow="visible"/></clipPath><g clip-path="url(#P)"><defs><path id="Q" d="M-597.1-641.6h1121v1030h-1121z"/></defs></g></g><path fill="#FFF" stroke="#091F2F" stroke-width="3" stroke-miterlimit="10" d="M138.1 36.4l-2.5-8h-22l-3 8H79.7v64.2h86.4V36.4z"/><path fill="#FFF" stroke="#091F2F" stroke-width="3" stroke-miterlimit="10" d="M154.8 36.4l-2.6-8h-22l-2.9 8H81.2v64.2h101.5V36.4z"/><path fill="#FFF" stroke="#091F2F" stroke-width="3" stroke-miterlimit="10" d="M173.3 36.4l-2.6-8h-22l-2.9 8H79.7v64.2h101.5V36.4z"/><path fill="none" stroke="#091F2F" stroke-width="3" stroke-miterlimit="10" d="M120.4 58.1l21.2 10.6-21.2 10.6z"/><circle fill="none" stroke="#091F2F" stroke-width="3" stroke-miterlimit="10" cx="129" cy="68.7" r="24"/><circle fill="#FFF" stroke="#0F1F2D" stroke-width="3" stroke-linecap="round" stroke-miterlimit="10" cx="181.2" cy="96.4" r="18.5"/><path fill="none" stroke="#0F1F2D" stroke-width="3" stroke-miterlimit="10" d="M172 105.8l8.6-8.6"/><circle fill="#FFF" stroke="#0F1F2D" stroke-width="3" stroke-linecap="round" stroke-miterlimit="10" cx="184.8" cy="92.8" r="6.2"/></svg>