<svg xmlns="http://www.w3.org/2000/svg" viewBox="0 0 276 137"><defs><path id="a" d="M70.9-108.1h-1.5v38h142v-25.1l-.4-.4-11.4-12-.4-.5H70.9zm0 3h127.6l-1.1-.5 11.4 12-.4-1v23l1.5-1.5h-139l1.5 1.5v-35l-1.5 1.5zm-21.5-23h182v78h-182v-78z"/></defs><defs><path id="b" d="M103.9-56.7c-8 0-14.5-6.5-14.5-14.5s6.5-14.5 14.5-14.5 14.5 6.5 14.5 14.5-6.5 14.5-14.5 14.5zm0 3c9.7 0 17.5-7.8 17.5-17.5s-7.8-17.5-17.5-17.5-17.5 7.8-17.5 17.5 7.9 17.5 17.5 17.5zm-37.5-55h75v75h-75v-75z"/></defs><defs><path id="c" d="M103.9-63.7c-4.1 0-7.5-3.4-7.5-7.5s3.4-7.5 7.5-7.5 7.5 3.4 7.5 7.5c0 4.2-3.3 7.5-7.5 7.5zm0 3c5.8 0 10.5-4.7 10.5-10.5s-4.7-10.5-10.5-10.5S93.4-77 93.4-71.2s4.7 10.5 10.5 10.5zm-30.5-41h61v61h-61v-61z"/></defs><defs><path id="d" d="M170.2-56.7c-8 0-14.5-6.5-14.5-14.5s6.5-14.5 14.5-14.5 14.5 6.5 14.5 14.5-6.5 14.5-14.5 14.5zm0 3c9.7 0 17.5-7.8 17.5-17.5s-7.8-17.5-17.5-17.5-17.5 7.8-17.5 17.5 7.8 17.5 17.5 17.5zm-37.5-55h75v75h-75v-75z"/></defs><defs><path id="e" d="M170.2-63.7c-4.1 0-7.5-3.4-7.5-7.5s3.4-7.5 7.5-7.5 7.5 3.4 7.5 7.5c0 4.2-3.4 7.5-7.5 7.5zm0 3c5.8 0 10.5-4.7 10.5-10.5s-4.7-10.5-10.5-10.5-10.5 4.7-10.5 10.5 4.7 10.5 10.5 10.5zm-30.5-41h61v61h-61v-61z"/></defs><path fill="none" stroke="#091F2F" stroke-width="3" stroke-miterlimit="10" d="M97.8 25h73.5m-73.5 77.5h73.5M97.8 44.8h70.5M97.8 83.7h65.6M99.3 26v75.5m9.8-75.5v75.5M99.3 35h9.8m-9.8 19.5h9.8m-9.8 9.8h9.8M99.3 74h9.8m-9.8 19.5h9.8M160 26.1v75.5m9.7-75.5v75.5M160 35.1h9.7m-9.7 9.7h9.7m-9.7 9.8h9.7m-9.7 9.7h9.7m-9.7 9.8h9.7m-9.7 9.7h9.7m-9.7 9.7h9.7m-41.5-36.6l14.8 7.4-14.8 7.4z"/><circle fill="#FFF" stroke="#0F1F2D" stroke-width="3" stroke-linecap="round" stroke-miterlimit="10" cx="166.5" cy="93.5" r="18.5"/><path fill="none" stroke="#0F1F2D" stroke-width="3" stroke-miterlimit="10" d="M157.2 102.9l8.7-8.6"/><circle fill="#FFF" stroke="#0F1F2D" stroke-width="3" stroke-linecap="round" stroke-miterlimit="10" cx="170.1" cy="89.8" r="6.2"/></svg>