<svg id="Layer_1" data-name="Layer 1" xmlns="http://www.w3.org/2000/svg" viewBox="0 0 276 137"><defs><style>.cls-1,.cls-3{fill:none}.cls-2{fill:#fff}.cls-2,.cls-3,.cls-4{stroke:#0e1f2d;stroke-linecap:round;stroke-miterlimit:10;stroke-width:2.96px}.cls-4{fill:#0e1f2d}.cls-5{clip-path:url(#clip-path)}.cls-6{clip-path:url(#clip-path-2)}.cls-7{clip-path:url(#clip-path-3)}.cls-8{clip-path:url(#clip-path-4)}</style><clipPath id="clip-path"><circle class="cls-1" cx="-750" cy="225.5" r="50.5"/></clipPath><clipPath id="clip-path-2"><circle class="cls-1" cx="-750" cy="225.5" r="43.5"/></clipPath><clipPath id="clip-path-3"><circle class="cls-1" cx="138" cy="225.5" r="50.5"/></clipPath><clipPath id="clip-path-4"><circle class="cls-1" cx="138" cy="225.5" r="43.5"/></clipPath></defs><title>EXPERIENTIAL ICONS 2 (2)</title><path class="cls-2" d="M93.02 31.93h89.96v84.51H93.02z"/><path class="cls-3" d="M93.02 46.25h89.96M99.46 53.27h14.11v14.11H99.46zM120.45 53.27h14.11v14.11h-14.11zM141.44 53.27h14.11v14.11h-14.11zM162.43 53.27h14.11v14.11h-14.11z"/><path class="cls-4" d="M99.46 73.54h14.11v14.11H99.46zM120.45 73.54h14.11v14.11h-14.11z"/><path class="cls-3" d="M141.44 73.54h14.11v14.11h-14.11zM162.43 73.54h14.11v14.11h-14.11zM99.46 93.8h14.11v14.11H99.46zM120.45 93.8h14.11v14.11h-14.11zM141.44 93.8h14.11v14.11h-14.11z"/><path class="cls-2" d="M119.25 20.56h5.86V39.1h-5.86zM150.89 20.56h5.86V39.1h-5.86z"/></svg>