<svg id="Layer_1" data-name="Layer 1" xmlns="http://www.w3.org/2000/svg" viewBox="0 0 276 137"><defs><style>.cls-1,.cls-3{fill:none}.cls-2{fill:#fff}.cls-2,.cls-3,.cls-4{stroke:#0e1f2d;stroke-linecap:round;stroke-miterlimit:10;stroke-width:2.96px}.cls-4{fill:#0e1f2d}</style><clipPath id="clip-path"><circle class="cls-1" cx="-750" cy="225.5" r="50.5"/></clipPath><clipPath id="clip-path-2"><circle class="cls-1" cx="-750" cy="225.5" r="43.5"/></clipPath><clipPath id="clip-path-3"><circle class="cls-1" cx="138" cy="225.5" r="50.5"/></clipPath><clipPath id="clip-path-4"><circle class="cls-1" cx="138" cy="225.5" r="43.5"/></clipPath></defs><path class="cls-2" d="M93.02 31.93h89.96v84.51H93.02z"/><path class="cls-3" d="M93.02 46.25h89.96m-83.52 7.02h14.11v14.11H99.46zm20.99 0h14.11v14.11h-14.11zm20.99 0h14.11v14.11h-14.11zm20.99 0h14.11v14.11h-14.11z"/><path class="cls-4" d="M99.46 73.54h14.11v14.11H99.46zm20.99 0h14.11v14.11h-14.11z"/><path class="cls-3" d="M141.44 73.54h14.11v14.11h-14.11zm20.99 0h14.11v14.11h-14.11zM99.46 93.8h14.11v14.11H99.46zm20.99 0h14.11v14.11h-14.11zm20.99 0h14.11v14.11h-14.11z"/><path class="cls-2" d="M119.25 20.56h5.86V39.1h-5.86zm31.64 0h5.86V39.1h-5.86z"/></svg>