<svg id="Layer_1" data-name="Layer 1" xmlns="http://www.w3.org/2000/svg" viewBox="0 0 276 137"><defs><style>.cls-1,.cls-27,.cls-29{fill:none}.cls-24{fill:#fff}.cls-25{clip-path:url(#clip-path-25)}.cls-26{clip-path:url(#clip-path-26)}.cls-27{stroke:#101f2c;stroke-width:6px}.cls-27,.cls-29{stroke-linecap:round;stroke-miterlimit:10}.cls-28{clip-path:url(#clip-path-27)}.cls-29{stroke:#0c1f2e;stroke-width:3px}</style><clipPath id="clip-path"><path class="cls-1" d="M-497.74-139.88h53.51v88.33h-53.51z"/></clipPath><clipPath id="clip-path-3"><path class="cls-1" d="M-490.1-116.1h37.37v11.04h-37.37z"/></clipPath><clipPath id="clip-path-4"><path class="cls-1" d="M-490.1-107.61h37.37v11.04h-37.37z"/></clipPath><clipPath id="clip-path-5"><path class="cls-1" d="M-490.1-99.12h37.37v11.04h-37.37z"/></clipPath><clipPath id="clip-path-6"><path class="cls-1" d="M-490.1-90.62h37.37v11.89h-37.37z"/></clipPath><clipPath id="clip-path-7"><path class="cls-1" d="M-490.1-81.28h37.37v11.89h-37.37z"/></clipPath><clipPath id="clip-path-8"><path class="cls-1" d="M-490.1-71.94h37.37v11.89h-37.37z"/></clipPath><clipPath id="clip-path-9"><path class="cls-1" d="M-489.25-131.39h2.55v11.04h-2.55z"/></clipPath><clipPath id="clip-path-10"><path class="cls-1" d="M-485-131.39h2.55v11.04H-485z"/></clipPath><clipPath id="clip-path-11"><path class="cls-1" d="M-480.75-131.39h2.55v11.04h-2.55z"/></clipPath><clipPath id="clip-path-12"><path class="cls-1" d="M-476.51-131.39h2.55v11.04h-2.55z"/></clipPath><clipPath id="clip-path-13"><path class="cls-1" d="M-472.26-131.39h2.55v11.04h-2.55z"/></clipPath><clipPath id="clip-path-14"><path class="cls-1" d="M-472.26-88.08h2.55v27.18h-2.55z"/></clipPath><clipPath id="clip-path-15"><path class="cls-1" d="M-468.01-131.39h2.55v11.04h-2.55z"/></clipPath><clipPath id="clip-path-16"><path class="cls-1" d="M-463.77-131.39h2.55v11.04h-2.55z"/></clipPath><clipPath id="clip-path-17"><path class="cls-1" d="M-459.52-131.39h2.55v11.04h-2.55z"/></clipPath><clipPath id="clip-path-18"><path class="cls-1" d="M-455.27-131.39h2.55v11.04h-2.55z"/></clipPath><clipPath id="clip-path-19"><circle class="cls-1" cx="-436.59" cy="-63.44" r="26.33"/></clipPath><clipPath id="clip-path-21"><circle class="cls-1" cx="-750" cy="-88.5" r="50.5"/></clipPath><clipPath id="clip-path-22"><circle class="cls-1" cx="-750" cy="-88.5" r="43.5"/></clipPath><clipPath id="clip-path-23"><circle class="cls-1" cx="-455.84" cy="68.5" r="50.5"/></clipPath><clipPath id="clip-path-24"><circle class="cls-1" cx="-455.84" cy="68.5" r="43.5"/></clipPath><clipPath id="clip-path-25"><circle class="cls-1" cx="138" cy="68.5" r="50.5"/></clipPath><clipPath id="clip-path-26"><path class="cls-1" d="M-36.5-667.5h1121v1030h-1121z"/></clipPath><clipPath id="clip-path-27"><circle class="cls-1" cx="138" cy="68.5" r="43.5"/></clipPath></defs><circle class="cls-24" cx="138" cy="68.5" r="48.55" transform="rotate(-45 137.994 68.501)"/><g class="cls-25"><g class="cls-26"><circle class="cls-27" cx="138" cy="68.5" r="50.5"/></g></g><g class="cls-28"><g class="cls-26"><circle class="cls-27" cx="138" cy="68.5" r="43.5"/></g></g><path class="cls-29" d="M136.32 59l2.15 7.55 8.15-1.46m-15.64 2.71l2.15 7.54 8.14-1.45m-14.98 1.39l2.15 7.55 8.14-1.46"/><path class="cls-29" d="M137.72 87.9l-16.1 5.82L120 76.78a28.18 28.18 0 0 1 20.09-29.64l13.1-3.86 2.42 13.59a27.81 27.81 0 0 1-17.89 31.03zm9.88-35.64l-25.98 41.46"/></svg>