<svg xmlns="http://www.w3.org/2000/svg" xmlns:xlink="http://www.w3.org/1999/xlink" viewBox="0 0 276 137"><defs><circle id="a" cx="-153.9" cy="70.5" r="50.5"/></defs><defs><circle id="b" cx="-153.9" cy="70.5" r="43.5"/></defs><defs><path id="c" d="M-749.3-189.5c-24.6 0-44.6-20-44.6-44.6s20-44.6 44.6-44.6 44.6 20 44.6 44.6-20 44.6-44.6 44.6zm0 2.7c26.1 0 47.3-21.2 47.3-47.3s-21.2-47.3-47.3-47.3c-26.1 0-47.3 21.2-47.3 47.3s21.2 47.3 47.3 47.3zm-65.5-112.8h131v131h-131v-131z"/></defs><clipPath id="d"><use xlink:href="#c" overflow="visible"/></clipPath><g clip-path="url(#d)"><defs><circle id="e" cx="-749.3" cy="-234.1" r="45.9"/></defs></g><defs><circle id="f" cx="-749.3" cy="-234.1" r="45.9"/></defs><defs><circle id="g" cx="-749.3" cy="-234.1" r="39.6"/></defs><defs><path id="h" d="M-210.5-122.8h-1.5v84h108v-84h-106.5zm0 3h105l-1.5-1.5v81l1.5-1.5h-105l1.5 1.5v-81l-1.5 1.5zm-21.5-23h148v124h-148v-124z"/></defs><clipPath id="i"><use xlink:href="#h" overflow="visible"/></clipPath><g clip-path="url(#i)"><defs><path id="j" d="M-210.5-121.3h105v81h-105z"/></defs></g><defs><path id="k" d="M-210.5-121.3h105v81h-105z"/></defs><defs><path id="l" d="M-216.5-105.8h-2.2l.9-2.1 9.1-22 .4-.9h100.9l.4.9 9.1 22 .9 2.1h-119.5zm0-3h117l-1.4 2.1-9.1-22 1.4.9h-98.9l1.4-.9-9.1 22-1.3-2.1zm-22.2 23h161.5v-65h-161.5v65z"/></defs><clipPath id="m"><use xlink:href="#l" overflow="visible"/></clipPath><g clip-path="url(#m)"><defs><path id="n" d="M-216.5-107.3h117l-9.1-22h-98.8z"/></defs></g><defs><path id="o" d="M-216.5-107.3h117l-9.1-22h-98.8z"/></defs><defs><path id="p" d="M-131.5-138.8h-1.5v19h15v-19h-13.5zm0 3h12l-1.5-1.5v16l1.5-1.5h-12l1.5 1.5v-16l-1.5 1.5zm-21.5-23h55v59h-55v-59z"/></defs><clipPath id="q"><use xlink:href="#p" overflow="visible"/></clipPath><g clip-path="url(#q)"><defs><path id="r" d="M-131.5-137.3h12v16h-12z"/></defs></g><defs><path id="s" d="M-131.5-137.3h12v16h-12z"/></defs><defs><path id="t" d="M-197.5-72.8h-1.5v34h24v-34h-22.5zm0 3h21l-1.5-1.5v31l1.5-1.5h-21l1.5 1.5v-31l-1.5 1.5zm-21.5-23h64v74h-64v-74z"/></defs><clipPath id="u"><use xlink:href="#t" overflow="visible"/></clipPath><g clip-path="url(#u)"><defs><path id="v" d="M-197.5-71.3h21v31h-21z"/></defs></g><defs><path id="w" d="M-197.5-71.3h21v31h-21z"/></defs><defs><path id="x" d="M-196.5-100.8h-1.5v22h22v-22h-20.5zm0 3h19l-1.5-1.5v19l1.5-1.5h-19l1.5 1.5v-19l-1.5 1.5zm-21.5-23h62v62h-62v-62z"/></defs><clipPath id="y"><use xlink:href="#x" overflow="visible"/></clipPath><g clip-path="url(#y)"><defs><path id="z" d="M-196.5-99.3h19v19h-19z"/></defs></g><defs><path id="A" d="M-196.5-99.3h19v19h-19z"/></defs><defs><path id="B" d="M-191.5-95.8h-1.5v12h12v-12h-10.5zm0 3h9l-1.5-1.5v9l1.5-1.5h-9l1.5 1.5v-9l-1.5 1.5zm-21.5-23h52v52h-52v-52z"/></defs><clipPath id="C"><use xlink:href="#B" overflow="visible"/></clipPath><g clip-path="url(#C)"><defs><path id="D" d="M-191.5-94.3h9v9h-9z"/></defs></g><defs><path id="E" d="M-191.5-94.3h9v9h-9z"/></defs><defs><path id="F" d="M-166.5-100.8h-1.5v22h22v-22h-20.5zm0 3h19l-1.5-1.5v19l1.5-1.5h-19l1.5 1.5v-19l-1.5 1.5zm-21.5-23h62v62h-62v-62z"/></defs><clipPath id="G"><use xlink:href="#F" overflow="visible"/></clipPath><g clip-path="url(#G)"><defs><path id="H" d="M-166.5-99.3h19v19h-19z"/></defs></g><defs><path id="I" d="M-166.5-99.3h19v19h-19z"/></defs><defs><path id="J" d="M-137.5-100.8h-1.5v22h22v-22h-20.5zm0 3h19l-1.5-1.5v19l1.5-1.5h-19l1.5 1.5v-19l-1.5 1.5zm-21.5-23h62v62h-62v-62z"/></defs><clipPath id="K"><use xlink:href="#J" overflow="visible"/></clipPath><g clip-path="url(#K)"><defs><path id="L" d="M-137.5-99.3h19v19h-19z"/></defs></g><defs><path id="M" d="M-137.5-99.3h19v19h-19z"/></defs><defs><path id="N" d="M-166.5-72.8h-1.5v22h22v-22h-20.5zm0 3h19l-1.5-1.5v19l1.5-1.5h-19l1.5 1.5v-19l-1.5 1.5zm-21.5-23h62v62h-62v-62z"/></defs><clipPath id="O"><use xlink:href="#N" overflow="visible"/></clipPath><g clip-path="url(#O)"><defs><path id="P" d="M-166.5-71.3h19v19h-19z"/></defs></g><defs><path id="Q" d="M-166.5-71.3h19v19h-19z"/></defs><defs><path id="R" d="M-137.5-72.8h-1.5v22h22v-22h-20.5zm0 3h19l-1.5-1.5v19l1.5-1.5h-19l1.5 1.5v-19l-1.5 1.5zm-21.5-23h62v62h-62v-62z"/></defs><clipPath id="S"><use xlink:href="#R" overflow="visible"/></clipPath><g clip-path="url(#S)"><defs><path id="T" d="M-137.5-71.3h19v19h-19z"/></defs></g><defs><path id="U" d="M-137.5-71.3h19v19h-19z"/></defs><defs><path id="V" d="M-161.5-95.8h-1.5v12h12v-12h-10.5zm0 3h9l-1.5-1.5v9l1.5-1.5h-9l1.5 1.5v-9l-1.5 1.5zm-21.5-23h52v52h-52v-52z"/></defs><clipPath id="W"><use xlink:href="#V" overflow="visible"/></clipPath><g clip-path="url(#W)"><defs><path id="X" d="M-161.5-94.3h9v9h-9z"/></defs></g><defs><path id="Y" d="M-161.5-94.3h9v9h-9z"/></defs><defs><path id="Z" d="M-132.5-95.8h-1.5v12h12v-12h-10.5zm0 3h9l-1.5-1.5v9l1.5-1.5h-9l1.5 1.5v-9l-1.5 1.5zm-21.5-23h52v52h-52v-52z"/></defs><clipPath id="aa"><use xlink:href="#Z" overflow="visible"/></clipPath><g clip-path="url(#aa)"><defs><path id="ab" d="M-132.5-94.3h9v9h-9z"/></defs></g><g><defs><path id="ac" d="M-132.5-94.3h9v9h-9z"/></defs></g><g><defs><path id="ad" d="M-161.5-67.8h-1.5v12h12v-12h-10.5zm0 3h9l-1.5-1.5v9l1.5-1.5h-9l1.5 1.5v-9l-1.5 1.5zm-21.5-23h52v52h-52v-52z"/></defs><clipPath id="ae"><use xlink:href="#ad" overflow="visible"/></clipPath><g clip-path="url(#ae)"><defs><path id="af" d="M-161.5-66.3h9v9h-9z"/></defs></g></g><g><defs><path id="ag" d="M-161.5-66.3h9v9h-9z"/></defs></g><g><defs><path id="ah" d="M-132.5-67.8h-1.5v12h12v-12h-10.5zm0 3h9l-1.5-1.5v9l1.5-1.5h-9l1.5 1.5v-9l-1.5 1.5zm-21.5-23h52v52h-52v-52z"/></defs><clipPath id="ai"><use xlink:href="#ah" overflow="visible"/></clipPath><g clip-path="url(#ai)"><defs><path id="aj" d="M-132.5-66.3h9v9h-9z"/></defs></g></g><g><defs><path id="ak" d="M-132.5-66.3h9v9h-9z"/></defs></g><g fill="none" stroke="#091F2F" stroke-width="3" stroke-miterlimit="10"><path d="M117.69 42.871l35.202-26.06 14.697 19.85-35.202 26.062zM141.9 34.6l10-7.4m-4.8 14.4l10-7.4"/></g><path fill="#FFF" stroke="#091F2F" stroke-width="3" stroke-miterlimit="10" d="M90 59.7h89.9v56.8H90zm0-8.2h89.9v8.2H90z"/><g><path d="M112.2 95.4l-5.6-14.5h3.9l3.7 10.6 3.7-10.6h3.8L116 95.4h-3.8zm25.6-7.3c0 4.2-3.3 7.4-7.8 7.4s-7.8-3.2-7.8-7.4 3.3-7.3 7.8-7.3c4.4 0 7.8 3.1 7.8 7.3zm-11.9.1c0 2.4 1.9 4.3 4.1 4.3 2.2 0 4-1.9 4-4.3s-1.8-4.3-4-4.3c-2.3 0-4.1 1.8-4.1 4.3zm20-4.3v11.5h-3.7V83.9h-4.3v-3h12.3v3h-4.3zm9.6-.1v2.9h6.9v2.9h-6.9v2.9h7.9v2.9h-11.5V80.9h11.3v2.9h-7.7z"/></g></svg>