<svg xmlns="http://www.w3.org/2000/svg" xmlns:xlink="http://www.w3.org/1999/xlink" viewBox="0 0 276 137"><defs><circle id="a" cx="-153.9" cy="70.5" r="50.5"/></defs><clipPath id="b"><use xlink:href="#a" overflow="visible"/></clipPath><g clip-path="url(#b)"><defs><path id="c" d="M-328.4-665.5h1121v1030h-1121z"/></defs></g><defs><circle id="d" cx="-153.9" cy="70.5" r="43.5"/></defs><clipPath id="e"><use xlink:href="#d" overflow="visible"/></clipPath><g clip-path="url(#e)"><defs><path id="f" d="M-328.4-665.5h1121v1030h-1121z"/></defs></g><defs><path id="g" d="M-749.3-189.5c-24.6 0-44.6-20-44.6-44.6s20-44.6 44.6-44.6 44.6 20 44.6 44.6-20 44.6-44.6 44.6zm0 2.7c26.1 0 47.3-21.2 47.3-47.3s-21.2-47.3-47.3-47.3c-26.1 0-47.3 21.2-47.3 47.3s21.2 47.3 47.3 47.3zm-65.5-112.8h131v131h-131v-131z"/></defs><clipPath id="h"><use xlink:href="#g" overflow="visible"/></clipPath><g clip-path="url(#h)"><defs><circle id="i" cx="-749.3" cy="-234.1" r="45.9"/></defs><clipPath id="j"><use xlink:href="#i" overflow="visible"/></clipPath><g clip-path="url(#j)"><defs><path id="k" d="M-908-903.7H111.8v937H-908z"/></defs></g></g><defs><circle id="l" cx="-749.3" cy="-234.1" r="45.9"/></defs><clipPath id="m"><use xlink:href="#l" overflow="visible"/></clipPath><g clip-path="url(#m)"><defs><path id="n" d="M-908-903.7H111.8v937H-908z"/></defs></g><defs><circle id="o" cx="-749.3" cy="-234.1" r="39.6"/></defs><clipPath id="p"><use xlink:href="#o" overflow="visible"/></clipPath><g clip-path="url(#p)"><defs><path id="q" d="M-908-903.7H111.8v937H-908z"/></defs></g><defs><path id="r" d="M-210.5-122.8h-1.5v84h108v-84h-106.5zm0 3h105l-1.5-1.5v81l1.5-1.5h-105l1.5 1.5v-81l-1.5 1.5zm-21.5-23h148v124h-148v-124z"/></defs><clipPath id="s"><use xlink:href="#r" overflow="visible"/></clipPath><g clip-path="url(#s)"><defs><path id="t" d="M-210.5-121.3h105v81h-105z"/></defs><clipPath id="u"><use xlink:href="#t" overflow="visible"/></clipPath><g clip-path="url(#u)"><defs><path id="v" d="M-1091.5-620.3h1121v1030h-1121z"/></defs></g></g><defs><path id="w" d="M-210.5-121.3h105v81h-105z"/></defs><clipPath id="x"><use xlink:href="#w" overflow="visible"/></clipPath><g clip-path="url(#x)"><defs><path id="y" d="M-1091.5-620.3h1121v1030h-1121z"/></defs></g><defs><path id="z" d="M-216.5-105.8h-2.2l.9-2.1 9.1-22 .4-.9h100.9l.4.9 9.1 22 .9 2.1h-119.5zm0-3h117l-1.4 2.1-9.1-22 1.4.9h-98.9l1.4-.9-9.1 22-1.3-2.1zm-22.2 23h161.5v-65h-161.5v65z"/></defs><clipPath id="A"><use xlink:href="#z" overflow="visible"/></clipPath><g clip-path="url(#A)"><defs><path id="B" d="M-216.5-107.3h117l-9.1-22h-98.8z"/></defs><clipPath id="C"><use xlink:href="#B" overflow="visible"/></clipPath><g clip-path="url(#C)"><defs><path id="D" d="M-1091.5-620.3h1121v1030h-1121z"/></defs></g></g><defs><path id="E" d="M-216.5-107.3h117l-9.1-22h-98.8z"/></defs><clipPath id="F"><use xlink:href="#E" overflow="visible"/></clipPath><g clip-path="url(#F)"><defs><path id="G" d="M-1091.5-620.3h1121v1030h-1121z"/></defs></g><defs><path id="H" d="M-131.5-138.8h-1.5v19h15v-19h-13.5zm0 3h12l-1.5-1.5v16l1.5-1.5h-12l1.5 1.5v-16l-1.5 1.5zm-21.5-23h55v59h-55v-59z"/></defs><clipPath id="I"><use xlink:href="#H" overflow="visible"/></clipPath><g clip-path="url(#I)"><defs><path id="J" d="M-131.5-137.3h12v16h-12z"/></defs><clipPath id="K"><use xlink:href="#J" overflow="visible"/></clipPath><g clip-path="url(#K)"><defs><path id="L" d="M-1091.5-620.3h1121v1030h-1121z"/></defs></g></g><defs><path id="M" d="M-131.5-137.3h12v16h-12z"/></defs><clipPath id="N"><use xlink:href="#M" overflow="visible"/></clipPath><g clip-path="url(#N)"><defs><path id="O" d="M-1091.5-620.3h1121v1030h-1121z"/></defs></g><defs><path id="P" d="M-197.5-72.8h-1.5v34h24v-34h-22.5zm0 3h21l-1.5-1.5v31l1.5-1.5h-21l1.5 1.5v-31l-1.5 1.5zm-21.5-23h64v74h-64v-74z"/></defs><clipPath id="Q"><use xlink:href="#P" overflow="visible"/></clipPath><g clip-path="url(#Q)"><defs><path id="R" d="M-197.5-71.3h21v31h-21z"/></defs><clipPath id="S"><use xlink:href="#R" overflow="visible"/></clipPath><g clip-path="url(#S)"><defs><path id="T" d="M-1091.5-620.3h1121v1030h-1121z"/></defs></g></g><defs><path id="U" d="M-197.5-71.3h21v31h-21z"/></defs><clipPath id="V"><use xlink:href="#U" overflow="visible"/></clipPath><g clip-path="url(#V)"><defs><path id="W" d="M-1091.5-620.3h1121v1030h-1121z"/></defs></g><g><defs><path id="X" d="M-196.5-100.8h-1.5v22h22v-22h-20.5zm0 3h19l-1.5-1.5v19l1.5-1.5h-19l1.5 1.5v-19l-1.5 1.5zm-21.5-23h62v62h-62v-62z"/></defs><clipPath id="Y"><use xlink:href="#X" overflow="visible"/></clipPath><g clip-path="url(#Y)"><defs><path id="Z" d="M-196.5-99.3h19v19h-19z"/></defs><clipPath id="aa"><use xlink:href="#Z" overflow="visible"/></clipPath><g clip-path="url(#aa)"><defs><path id="ab" d="M-1091.5-620.3h1121v1030h-1121z"/></defs></g></g></g><g><defs><path id="ac" d="M-196.5-99.3h19v19h-19z"/></defs><clipPath id="ad"><use xlink:href="#ac" overflow="visible"/></clipPath><g clip-path="url(#ad)"><defs><path id="ae" d="M-1091.5-620.3h1121v1030h-1121z"/></defs></g></g><g><defs><path id="af" d="M-191.5-95.8h-1.5v12h12v-12h-10.5zm0 3h9l-1.5-1.5v9l1.5-1.5h-9l1.5 1.5v-9l-1.5 1.5zm-21.5-23h52v52h-52v-52z"/></defs><clipPath id="ag"><use xlink:href="#af" overflow="visible"/></clipPath><g clip-path="url(#ag)"><defs><path id="ah" d="M-191.5-94.3h9v9h-9z"/></defs><clipPath id="ai"><use xlink:href="#ah" overflow="visible"/></clipPath><g clip-path="url(#ai)"><defs><path id="aj" d="M-1091.5-620.3h1121v1030h-1121z"/></defs></g></g></g><g><defs><path id="ak" d="M-191.5-94.3h9v9h-9z"/></defs><clipPath id="al"><use xlink:href="#ak" overflow="visible"/></clipPath><g clip-path="url(#al)"><defs><path id="am" d="M-1091.5-620.3h1121v1030h-1121z"/></defs></g></g><g><defs><path id="an" d="M-166.5-100.8h-1.5v22h22v-22h-20.5zm0 3h19l-1.5-1.5v19l1.5-1.5h-19l1.5 1.5v-19l-1.5 1.5zm-21.5-23h62v62h-62v-62z"/></defs><clipPath id="ao"><use xlink:href="#an" overflow="visible"/></clipPath><g clip-path="url(#ao)"><defs><path id="ap" d="M-166.5-99.3h19v19h-19z"/></defs><clipPath id="aq"><use xlink:href="#ap" overflow="visible"/></clipPath><g clip-path="url(#aq)"><defs><path id="ar" d="M-1091.5-620.3h1121v1030h-1121z"/></defs></g></g></g><g><defs><path id="as" d="M-166.5-99.3h19v19h-19z"/></defs><clipPath id="at"><use xlink:href="#as" overflow="visible"/></clipPath><g clip-path="url(#at)"><defs><path id="au" d="M-1091.5-620.3h1121v1030h-1121z"/></defs></g></g><g><defs><path id="av" d="M-137.5-100.8h-1.5v22h22v-22h-20.5zm0 3h19l-1.5-1.5v19l1.5-1.5h-19l1.5 1.5v-19l-1.5 1.5zm-21.5-23h62v62h-62v-62z"/></defs><clipPath id="aw"><use xlink:href="#av" overflow="visible"/></clipPath><g clip-path="url(#aw)"><defs><path id="ax" d="M-137.5-99.3h19v19h-19z"/></defs><clipPath id="ay"><use xlink:href="#ax" overflow="visible"/></clipPath><g clip-path="url(#ay)"><defs><path id="az" d="M-1091.5-620.3h1121v1030h-1121z"/></defs></g></g></g><g><defs><path id="aA" d="M-137.5-99.3h19v19h-19z"/></defs><clipPath id="aB"><use xlink:href="#aA" overflow="visible"/></clipPath><g clip-path="url(#aB)"><defs><path id="aC" d="M-1091.5-620.3h1121v1030h-1121z"/></defs></g></g><g><defs><path id="aD" d="M-166.5-72.8h-1.5v22h22v-22h-20.5zm0 3h19l-1.5-1.5v19l1.5-1.5h-19l1.5 1.5v-19l-1.5 1.5zm-21.5-23h62v62h-62v-62z"/></defs><clipPath id="aE"><use xlink:href="#aD" overflow="visible"/></clipPath><g clip-path="url(#aE)"><defs><path id="aF" d="M-166.5-71.3h19v19h-19z"/></defs><clipPath id="aG"><use xlink:href="#aF" overflow="visible"/></clipPath><g clip-path="url(#aG)"><defs><path id="aH" d="M-1091.5-620.3h1121v1030h-1121z"/></defs></g></g></g><g><defs><path id="aI" d="M-166.5-71.3h19v19h-19z"/></defs><clipPath id="aJ"><use xlink:href="#aI" overflow="visible"/></clipPath><g clip-path="url(#aJ)"><defs><path id="aK" d="M-1091.5-620.3h1121v1030h-1121z"/></defs></g></g><g><defs><path id="aL" d="M-137.5-72.8h-1.5v22h22v-22h-20.5zm0 3h19l-1.5-1.5v19l1.5-1.5h-19l1.5 1.5v-19l-1.5 1.5zm-21.5-23h62v62h-62v-62z"/></defs><clipPath id="aM"><use xlink:href="#aL" overflow="visible"/></clipPath><g clip-path="url(#aM)"><defs><path id="aN" d="M-137.5-71.3h19v19h-19z"/></defs><clipPath id="aO"><use xlink:href="#aN" overflow="visible"/></clipPath><g clip-path="url(#aO)"><defs><path id="aP" d="M-1091.5-620.3h1121v1030h-1121z"/></defs></g></g></g><g><defs><path id="aQ" d="M-137.5-71.3h19v19h-19z"/></defs><clipPath id="aR"><use xlink:href="#aQ" overflow="visible"/></clipPath><g clip-path="url(#aR)"><defs><path id="aS" d="M-1091.5-620.3h1121v1030h-1121z"/></defs></g></g><g><defs><path id="aT" d="M-161.5-95.8h-1.5v12h12v-12h-10.5zm0 3h9l-1.5-1.5v9l1.5-1.5h-9l1.5 1.5v-9l-1.5 1.5zm-21.5-23h52v52h-52v-52z"/></defs><clipPath id="aU"><use xlink:href="#aT" overflow="visible"/></clipPath><g clip-path="url(#aU)"><defs><path id="aV" d="M-161.5-94.3h9v9h-9z"/></defs><clipPath id="aW"><use xlink:href="#aV" overflow="visible"/></clipPath><g clip-path="url(#aW)"><defs><path id="aX" d="M-1091.5-620.3h1121v1030h-1121z"/></defs></g></g></g><g><defs><path id="aY" d="M-161.5-94.3h9v9h-9z"/></defs><clipPath id="aZ"><use xlink:href="#aY" overflow="visible"/></clipPath><g clip-path="url(#aZ)"><defs><path id="ba" d="M-1091.5-620.3h1121v1030h-1121z"/></defs></g></g><g><defs><path id="bb" d="M-132.5-95.8h-1.5v12h12v-12h-10.5zm0 3h9l-1.5-1.5v9l1.5-1.5h-9l1.5 1.5v-9l-1.5 1.5zm-21.5-23h52v52h-52v-52z"/></defs><clipPath id="bc"><use xlink:href="#bb" overflow="visible"/></clipPath><g clip-path="url(#bc)"><defs><path id="bd" d="M-132.5-94.3h9v9h-9z"/></defs><clipPath id="be"><use xlink:href="#bd" overflow="visible"/></clipPath><g clip-path="url(#be)"><defs><path id="bf" d="M-1091.5-620.3h1121v1030h-1121z"/></defs></g></g></g><g><defs><path id="bg" d="M-132.5-94.3h9v9h-9z"/></defs><clipPath id="bh"><use xlink:href="#bg" overflow="visible"/></clipPath><g clip-path="url(#bh)"><defs><path id="bi" d="M-1091.5-620.3h1121v1030h-1121z"/></defs></g></g><g><defs><path id="bj" d="M-161.5-67.8h-1.5v12h12v-12h-10.5zm0 3h9l-1.5-1.5v9l1.5-1.5h-9l1.5 1.5v-9l-1.5 1.5zm-21.5-23h52v52h-52v-52z"/></defs><clipPath id="bk"><use xlink:href="#bj" overflow="visible"/></clipPath><g clip-path="url(#bk)"><defs><path id="bl" d="M-161.5-66.3h9v9h-9z"/></defs><clipPath id="bm"><use xlink:href="#bl" overflow="visible"/></clipPath><g clip-path="url(#bm)"><defs><path id="bn" d="M-1091.5-620.3h1121v1030h-1121z"/></defs></g></g></g><g><defs><path id="bo" d="M-161.5-66.3h9v9h-9z"/></defs><clipPath id="bp"><use xlink:href="#bo" overflow="visible"/></clipPath><g clip-path="url(#bp)"><defs><path id="bq" d="M-1091.5-620.3h1121v1030h-1121z"/></defs></g></g><g><defs><path id="br" d="M-132.5-67.8h-1.5v12h12v-12h-10.5zm0 3h9l-1.5-1.5v9l1.5-1.5h-9l1.5 1.5v-9l-1.5 1.5zm-21.5-23h52v52h-52v-52z"/></defs><clipPath id="bs"><use xlink:href="#br" overflow="visible"/></clipPath><g clip-path="url(#bs)"><defs><path id="bt" d="M-132.5-66.3h9v9h-9z"/></defs><clipPath id="bu"><use xlink:href="#bt" overflow="visible"/></clipPath><g clip-path="url(#bu)"><defs><path id="bv" d="M-1091.5-620.3h1121v1030h-1121z"/></defs></g></g></g><g><defs><path id="bw" d="M-132.5-66.3h9v9h-9z"/></defs><clipPath id="bx"><use xlink:href="#bw" overflow="visible"/></clipPath><g clip-path="url(#bx)"><defs><path id="by" d="M-1091.5-620.3h1121v1030h-1121z"/></defs></g></g><g fill="none" stroke="#091F2F" stroke-width="3" stroke-miterlimit="10"><path d="M117.69 42.871l35.202-26.06 14.697 19.85-35.202 26.062z" stroke-width="2.99994"/><path d="M141.9 34.6l10-7.4M147.1 41.6l10-7.4"/></g><path fill="#FFF" stroke="#091F2F" stroke-width="3" stroke-miterlimit="10" d="M90 59.7h89.9v56.8H90zM90 51.5h89.9v8.2H90z"/><g><path d="M112.2 95.4l-5.6-14.5h3.9l3.7 10.6 3.7-10.6h3.8L116 95.4h-3.8zM137.8 88.1c0 4.2-3.3 7.4-7.8 7.4s-7.8-3.2-7.8-7.4 3.3-7.3 7.8-7.3c4.4 0 7.8 3.1 7.8 7.3zm-11.9.1c0 2.4 1.9 4.3 4.1 4.3 2.2 0 4-1.9 4-4.3s-1.8-4.3-4-4.3c-2.3 0-4.1 1.8-4.1 4.3zM145.9 83.9v11.5h-3.7V83.9h-4.3v-3h12.3v3h-4.3zM155.5 83.8v2.9h6.9v2.9h-6.9v2.9h7.9v2.9h-11.5V80.9h11.3v2.9h-7.7z"/></g></svg>