<svg xmlns="http://www.w3.org/2000/svg" viewBox="0 0 276 137"><defs><path id="a" d="M-749.3-189.5c-24.6 0-44.6-20-44.6-44.6s20-44.6 44.6-44.6 44.6 20 44.6 44.6-20 44.6-44.6 44.6zm0 2.7c26.1 0 47.3-21.2 47.3-47.3s-21.2-47.3-47.3-47.3c-26.1 0-47.3 21.2-47.3 47.3s21.2 47.3 47.3 47.3zm-65.5-112.8h131v131h-131v-131z"/></defs><defs><path id="b" d="M-210.5-122.8h-1.5v84h108v-84h-106.5zm0 3h105l-1.5-1.5v81l1.5-1.5h-105l1.5 1.5v-81l-1.5 1.5zm-21.5-23h148v124h-148v-124z"/></defs><defs><path id="c" d="M-216.5-105.8h-2.2l.9-2.1 9.1-22 .4-.9h100.9l.4.9 9.1 22 .9 2.1h-119.5zm0-3h117l-1.4 2.1-9.1-22 1.4.9h-98.9l1.4-.9-9.1 22-1.3-2.1zm-22.2 23h161.5v-65h-161.5v65z"/></defs><defs><path id="d" d="M-131.5-138.8h-1.5v19h15v-19h-13.5zm0 3h12l-1.5-1.5v16l1.5-1.5h-12l1.5 1.5v-16l-1.5 1.5zm-21.5-23h55v59h-55v-59z"/></defs><defs><path id="e" d="M-197.5-72.8h-1.5v34h24v-34h-22.5zm0 3h21l-1.5-1.5v31l1.5-1.5h-21l1.5 1.5v-31l-1.5 1.5zm-21.5-23h64v74h-64v-74z"/></defs><defs><path id="f" d="M-196.5-100.8h-1.5v22h22v-22h-20.5zm0 3h19l-1.5-1.5v19l1.5-1.5h-19l1.5 1.5v-19l-1.5 1.5zm-21.5-23h62v62h-62v-62z"/></defs><defs><path id="g" d="M-191.5-95.8h-1.5v12h12v-12h-10.5zm0 3h9l-1.5-1.5v9l1.5-1.5h-9l1.5 1.5v-9l-1.5 1.5zm-21.5-23h52v52h-52v-52z"/></defs><defs><path id="h" d="M-166.5-100.8h-1.5v22h22v-22h-20.5zm0 3h19l-1.5-1.5v19l1.5-1.5h-19l1.5 1.5v-19l-1.5 1.5zm-21.5-23h62v62h-62v-62z"/></defs><defs><path id="i" d="M-137.5-100.8h-1.5v22h22v-22h-20.5zm0 3h19l-1.5-1.5v19l1.5-1.5h-19l1.5 1.5v-19l-1.5 1.5zm-21.5-23h62v62h-62v-62z"/></defs><defs><path id="j" d="M-166.5-72.8h-1.5v22h22v-22h-20.5zm0 3h19l-1.5-1.5v19l1.5-1.5h-19l1.5 1.5v-19l-1.5 1.5zm-21.5-23h62v62h-62v-62z"/></defs><defs><path id="k" d="M-137.5-72.8h-1.5v22h22v-22h-20.5zm0 3h19l-1.5-1.5v19l1.5-1.5h-19l1.5 1.5v-19l-1.5 1.5zm-21.5-23h62v62h-62v-62z"/></defs><defs><path id="l" d="M-161.5-95.8h-1.5v12h12v-12h-10.5zm0 3h9l-1.5-1.5v9l1.5-1.5h-9l1.5 1.5v-9l-1.5 1.5zm-21.5-23h52v52h-52v-52z"/></defs><defs><path id="m" d="M-132.5-95.8h-1.5v12h12v-12h-10.5zm0 3h9l-1.5-1.5v9l1.5-1.5h-9l1.5 1.5v-9l-1.5 1.5zm-21.5-23h52v52h-52v-52z"/></defs><defs><path id="n" d="M-161.5-67.8h-1.5v12h12v-12h-10.5zm0 3h9l-1.5-1.5v9l1.5-1.5h-9l1.5 1.5v-9l-1.5 1.5zm-21.5-23h52v52h-52v-52z"/></defs><defs><path id="o" d="M-132.5-67.8h-1.5v12h12v-12h-10.5zm0 3h9l-1.5-1.5v9l1.5-1.5h-9l1.5 1.5v-9l-1.5 1.5zm-21.5-23h52v52h-52v-52z"/></defs><path d="M117.69 42.871l35.202-26.06 14.697 19.85-35.202 26.062zM141.9 34.6l10-7.4m-4.8 14.4l10-7.4" fill="none" stroke="#091F2F" stroke-width="3" stroke-miterlimit="10"/><path fill="#FFF" stroke="#091F2F" stroke-width="3" stroke-miterlimit="10" d="M90 59.7h89.9v56.8H90zm0-8.2h89.9v8.2H90z"/><path d="M112.2 95.4l-5.6-14.5h3.9l3.7 10.6 3.7-10.6h3.8L116 95.4h-3.8zm25.6-7.3c0 4.2-3.3 7.4-7.8 7.4s-7.8-3.2-7.8-7.4 3.3-7.3 7.8-7.3c4.4 0 7.8 3.1 7.8 7.3zm-11.9.1c0 2.4 1.9 4.3 4.1 4.3 2.2 0 4-1.9 4-4.3s-1.8-4.3-4-4.3c-2.3 0-4.1 1.8-4.1 4.3zm20-4.3v11.5h-3.7V83.9h-4.3v-3h12.3v3h-4.3zm9.6-.1v2.9h6.9v2.9h-6.9v2.9h7.9v2.9h-11.5V80.9h11.3v2.9h-7.7z"/></svg>