<svg id="Layer_1" data-name="Layer 1" xmlns="http://www.w3.org/2000/svg" viewBox="0 0 276 137"><defs><style>.cls-1,.cls-2,.cls-38,.cls-39{fill:none}.cls-1,.cls-3{clip-rule:evenodd}.cls-3,.cls-35,.cls-37,.cls-40,.cls-42{fill:#fff}.cls-3,.cls-38,.cls-39,.cls-40{stroke:#0e1f2d;stroke-width:3px}.cls-3,.cls-38,.cls-39,.cls-40,.cls-42{stroke-miterlimit:10}.cls-35,.cls-39{fill-rule:evenodd}.cls-36{clip-path:url(#clip-path-45)}.cls-40{stroke-linecap:round}.cls-41{fill:#0e1f2d}.cls-42{stroke:#0c1f2e;stroke-width:2px}</style><clipPath id="clip-path"><path class="cls-1" d="M87.67-441.51h-1.5v84h108v-84H87.67zm0 3h105l-1.5-1.5v81l1.5-1.5h-105l1.5 1.5v-81zm-21.5-23h148v124h-148z"/></clipPath><clipPath id="clip-path-2"><path class="cls-2" d="M87.67-440.01h105v81h-105z"/></clipPath><clipPath id="clip-path-4"><path class="cls-1" d="M81.67-424.51h-2.24l.85-2.07 9.07-22 .38-.93H190.6l.38.93 9.07 22 .85 2.07H81.67zm0-3h117l-1.39 2.07-9.07-22 1.39.93H90.74l1.39-.93-9.07 22zm-22.24 23h161.48v-65H59.43z"/></clipPath><clipPath id="clip-path-5"><path class="cls-1" d="M81.67-426.01h117l-9.07-22H90.74l-9.07 22z"/></clipPath><clipPath id="clip-path-7"><path class="cls-1" d="M166.67-457.51h-1.5v19h15v-19h-13.5zm0 3h12l-1.5-1.5v16l1.5-1.5h-12l1.5 1.5v-16zm-21.5-23h55v59h-55z"/></clipPath><clipPath id="clip-path-8"><path class="cls-2" d="M166.67-456.01h12v16h-12z"/></clipPath><clipPath id="clip-path-10"><path class="cls-1" d="M100.67-391.51h-1.5v34h24v-34h-22.5zm0 3h21l-1.5-1.5v31l1.5-1.5h-21l1.5 1.5v-31zm-21.5-23h64v74h-64z"/></clipPath><clipPath id="clip-path-11"><path class="cls-2" d="M100.67-390.01h21v31h-21z"/></clipPath><clipPath id="clip-path-13"><path class="cls-1" d="M101.67-419.51h-1.5v22h22v-22h-20.5zm0 3h19l-1.5-1.5v19l1.5-1.5h-19l1.5 1.5v-19zm-21.5-23h62v62h-62z"/></clipPath><clipPath id="clip-path-14"><path class="cls-2" d="M101.67-418.01h19v19h-19z"/></clipPath><clipPath id="clip-path-16"><path class="cls-1" d="M106.67-414.51h-1.5v12h12v-12h-10.5zm0 3h9l-1.5-1.5v9l1.5-1.5h-9l1.5 1.5v-9zm-21.5-23h52v52h-52z"/></clipPath><clipPath id="clip-path-17"><path class="cls-2" d="M106.67-413.01h9v9h-9z"/></clipPath><clipPath id="clip-path-19"><path class="cls-1" d="M131.67-419.51h-1.5v22h22v-22h-20.5zm0 3h19l-1.5-1.5v19l1.5-1.5h-19l1.5 1.5v-19zm-21.5-23h62v62h-62z"/></clipPath><clipPath id="clip-path-20"><path class="cls-2" d="M131.67-418.01h19v19h-19z"/></clipPath><clipPath id="clip-path-22"><path class="cls-1" d="M160.67-419.51h-1.5v22h22v-22h-20.5zm0 3h19l-1.5-1.5v19l1.5-1.5h-19l1.5 1.5v-19zm-21.5-23h62v62h-62z"/></clipPath><clipPath id="clip-path-23"><path class="cls-2" d="M160.67-418.01h19v19h-19z"/></clipPath><clipPath id="clip-path-25"><path class="cls-1" d="M131.67-391.51h-1.5v22h22v-22h-20.5zm0 3h19l-1.5-1.5v19l1.5-1.5h-19l1.5 1.5v-19zm-21.5-23h62v62h-62z"/></clipPath><clipPath id="clip-path-26"><path class="cls-2" d="M131.67-390.01h19v19h-19z"/></clipPath><clipPath id="clip-path-28"><path class="cls-1" d="M160.67-391.51h-1.5v22h22v-22h-20.5zm0 3h19l-1.5-1.5v19l1.5-1.5h-19l1.5 1.5v-19zm-21.5-23h62v62h-62z"/></clipPath><clipPath id="clip-path-29"><path class="cls-2" d="M160.67-390.01h19v19h-19z"/></clipPath><clipPath id="clip-path-31"><path class="cls-1" d="M136.67-414.51h-1.5v12h12v-12h-10.5zm0 3h9l-1.5-1.5v9l1.5-1.5h-9l1.5 1.5v-9zm-21.5-23h52v52h-52z"/></clipPath><clipPath id="clip-path-32"><path class="cls-2" d="M136.67-413.01h9v9h-9z"/></clipPath><clipPath id="clip-path-34"><path class="cls-1" d="M165.67-414.51h-1.5v12h12v-12h-10.5zm0 3h9l-1.5-1.5v9l1.5-1.5h-9l1.5 1.5v-9zm-21.5-23h52v52h-52z"/></clipPath><clipPath id="clip-path-35"><path class="cls-2" d="M165.67-413.01h9v9h-9z"/></clipPath><clipPath id="clip-path-37"><path class="cls-1" d="M136.67-386.51h-1.5v12h12v-12h-10.5zm0 3h9l-1.5-1.5v9l1.5-1.5h-9l1.5 1.5v-9zm-21.5-23h52v52h-52z"/></clipPath><clipPath id="clip-path-38"><path class="cls-2" d="M136.67-385.01h9v9h-9z"/></clipPath><clipPath id="clip-path-40"><path class="cls-1" d="M165.67-386.51h-1.5v12h12v-12h-10.5zm0 3h9l-1.5-1.5v9l1.5-1.5h-9l1.5 1.5v-9zm-21.5-23h52v52h-52z"/></clipPath><clipPath id="clip-path-41"><path class="cls-2" d="M165.67-385.01h9v9h-9z"/></clipPath><clipPath id="clip-path-43"><circle class="cls-2" cx="434" cy="-88.5" r="50.5"/></clipPath><clipPath id="clip-path-44"><circle class="cls-2" cx="434" cy="-88.5" r="43.5"/></clipPath><clipPath id="clip-path-45"><path class="cls-3" d="M-224.75 70.33h109.48l9.81 9.65v18.51h-119.29V70.33z"/></clipPath></defs><path class="cls-35" d="M-224.75 70.33h109.48l9.81 9.65v18.51h-119.29V70.33z"/><g class="cls-36"><path class="cls-37" d="M-544.01-360.18h962.06v828.83h-962.06z"/><path class="cls-38" d="M-544.01-360.18h962.06v828.83h-962.06z"/></g><path class="cls-39" d="M-224.75 70.33h109.48l9.81 9.65v18.51h-119.29V70.33z"/><path class="cls-40" d="M118.81 121.61a12.5 12.5 0 1 1 12.5-12.5 12.51 12.51 0 0 1-12.5 12.5zm0-16.83a4.33 4.33 0 1 0 4.33 4.33 4.33 4.33 0 0 0-4.33-4.32z"/><path class="cls-40" d="M177 26s-60.89-.19-64.41 0H99v4.7h13.81l5 61.34c10.14 0 18.37 6.14 18.37 16.28a18.31 18.31 0 0 1-1.41 7.06h25.52l8.63-8.09zm-8.5-10.61h-47l-6.58 6.32h60.16l-6.58-6.32z"/><path class="cls-41" d="M143.71 46.83l-.16 4.74-2-2.38a1.12 1.12 0 0 0-1.72 1.44l3.61 4.29-.17 4.85-2.08 1.23-3.9-2.36-1.35-5.86a1.12 1.12 0 1 0-2.19.5l.86 3.75-4.24-2.56a1.3 1.3 0 0 0-1.37 2.19l4.24 2.56-3.72 1a1.12 1.12 0 0 0 .57 2.17l5.82-1.55 3.9 2.36-.08 2.4-3.83 2.19-6.1-1a1.12 1.12 0 1 0-.37 2.21l3.39.57-4.3 2.43a1.33 1.33 0 0 0-.52 1.76 1.24 1.24 0 0 0 1.72.49l4.89-2.79-.76 4a1.12 1.12 0 0 0 2.2.42l1.11-5.88 3.84-2.16 2 1.22-.15 4.46-3.93 4.48a1.12 1.12 0 1 0 1.69 1.47l2.1-2.43-.17 4.96a1.24 1.24 0 0 0 1.24 1.3 1.29 1.29 0 0 0 1.12-.64 1.27 1.27 0 0 0 .19-.65l.2-6 3.19 2.82a1.12 1.12 0 1 0 1.52-1.67l-4.58-4 .13-4 2.09-1.2 4.29 2.59 1.35 5.86a1.12 1.12 0 1 0 2.18-.5l-.86-3.76 3.86 2.33a1.3 1.3 0 0 0 1.34-2.23l-3.85-2.32 3.71-1a1.12 1.12 0 0 0 .84-1.08 1 1 0 0 0 0-.29 1.12 1.12 0 0 0-1.37-.8l-5.82 1.54-4.31-2.66.09-2.41 3.74-2.14 5.7 1.14a1.12 1.12 0 0 0 1.32-.88 1 1 0 0 0 0-.22 1.13 1.13 0 0 0-.9-1.1l-3.18-.63 4.53-2.58a1.34 1.34 0 0 0 .48-.47 1.32 1.32 0 0 0 0-1.29 1.24 1.24 0 0 0-1.72-.48l-5.26 3 .92-4.18a1.12 1.12 0 1 0-2.19-.48l-1.36 6.15-3.33 1.93-2-1.21.14-4.13 4.91-4.29a1.12 1.12 0 0 0-1.47-1.69l-3.33 2.91.19-5.73a1.24 1.24 0 0 0-1.23-1.3 1.32 1.32 0 0 0-1.34 1.27zm2.05 14.62l.62.38 1.25.75-.06 1.48v2.24l-1.29.73-.65.37-1.29.74-1.34-.75-.62-.38-1.24-.75v-3.73l1.29-.74.65-.36 1.29-.74z"/><path class="cls-42" d="M144.52 60.69l1.25.76.61.37 1.26.76-.06 1.48-.03.74-.04 1.49-1.29.74-.65.37-1.29.74-1.25-.75-.62-.38-1.24-.75.05-1.49.02-.74.05-1.49 1.29-.74.65-.36 1.29-.75z"/></svg>