<svg id="Layer_1" data-name="Layer 1" xmlns="http://www.w3.org/2000/svg" viewBox="0 0 276 137"><defs><style>.cls-1,.cls-10,.cls-8{fill:none}.cls-2{clip-path:url(#clip-path)}.cls-3{clip-path:url(#clip-path-2)}.cls-4{clip-path:url(#clip-path-3)}.cls-5{clip-path:url(#clip-path-4)}.cls-6{fill:#0c1f2e}.cls-7,.cls-9{fill:#fff}.cls-10,.cls-8,.cls-9{stroke:#0e1f2d;stroke-linecap:round;stroke-miterlimit:10}.cls-8,.cls-9{stroke-width:3px}.cls-10{stroke-width:2px}</style><clipPath id="clip-path"><circle class="cls-1" cx="-158" cy="-89.73" r="50.5"/></clipPath><clipPath id="clip-path-2"><circle class="cls-1" cx="-158" cy="-89.73" r="43.5"/></clipPath><clipPath id="clip-path-3"><circle class="cls-1" cx="434" cy="-244.5" r="50.5"/></clipPath><clipPath id="clip-path-4"><circle class="cls-1" cx="434" cy="-244.5" r="43.5"/></clipPath></defs><title>EXPERIENTIAL ICONS 2 (2)</title><path class="cls-6" d="M88 25v75H77v1.28a13.19 13.19 0 0 0 12.84 13.07l94.77-.06a12.86 12.86 0 0 0 13.05-12.65l.18-76.64zm1.94 86.39a10.14 10.14 0 0 1-9.75-8.63h91.5a12.7 12.7 0 0 0 4.49 8.56zm104.78-9.72a9.7 9.7 0 0 1-9.86 9.69c-5.84 0-9.86-4.24-9.86-10v-1.52H91V28h103.88z"/><path class="cls-7" d="M176.18 111.35H89.94a10.14 10.14 0 0 1-9.75-8.63h91.5a12.7 12.7 0 0 0 4.49 8.63z"/><path class="cls-7" d="M194.88 28l-.16 73.67a9.7 9.7 0 0 1-9.86 9.7c-5.84 0-9.86-4.24-9.86-10.05v-1.48H91V28z"/><path class="cls-6" d="M137.64 38.68h46.26v2.95h-46.26zM137.64 50.49h46.26v2.95h-46.26zM137.64 62.3h46.26v2.95h-46.26zM137.64 74.11h46.26v2.95h-46.26zM137.64 85.92h46.26v2.95h-46.26z"/><path class="cls-8" d="M99.2 49.79h30.25v34.87H99.2z"/><path class="cls-9" d="M96.71 55.81h35.32l-2.74-9.47H99.44l-2.73 9.47z"/><path class="cls-9" d="M118.26 42.9h5.17v6.89h-5.17z"/><path class="cls-10" d="M103.57 71.31h9.04v13.34h-9.04zM104 59.26h8.18v8.18H104zM116.91 59.26h8.18v8.18h-8.18zM116.91 71.31h8.18v8.18h-8.18z"/></svg>