<svg id="Layer_1" data-name="Layer 1" xmlns="http://www.w3.org/2000/svg" viewBox="0 0 276 137"><defs><style>.cls-1,.cls-2,.cls-35{fill:none}.cls-1{clip-rule:evenodd}.cls-32,.cls-34{fill:#fff}.cls-33{fill:#0e1f2d}.cls-34,.cls-35{stroke:#101f2c;stroke-linecap:round;stroke-miterlimit:10;stroke-width:3.17px}</style><clipPath id="clip-path"><path class="cls-1" d="M87.67-127.51h-1.5v84h108v-84H87.67zm0 3h105l-1.5-1.5v81l1.5-1.5h-105l1.5 1.5v-81zm-21.5-23h148v124h-148z"/></clipPath><clipPath id="clip-path-2"><path class="cls-2" d="M87.67-126.01h105v81h-105z"/></clipPath><clipPath id="clip-path-4"><path class="cls-1" d="M81.67-110.51h-2.24l.85-2.07 9.07-22 .38-.93H190.6l.38.93 9.07 22 .85 2.07H81.67zm0-3h117l-1.39 2.07-9.07-22 1.39.93H90.74l1.39-.93-9.07 22zm-22.24 23h161.48v-65H59.43z"/></clipPath><clipPath id="clip-path-5"><path class="cls-1" d="M81.67-112.01h117l-9.07-22H90.74l-9.07 22z"/></clipPath><clipPath id="clip-path-7"><path class="cls-1" d="M166.67-143.51h-1.5v19h15v-19h-13.5zm0 3h12l-1.5-1.5v16l1.5-1.5h-12l1.5 1.5v-16zm-21.5-23h55v59h-55z"/></clipPath><clipPath id="clip-path-8"><path class="cls-2" d="M166.67-142.01h12v16h-12z"/></clipPath><clipPath id="clip-path-10"><path class="cls-1" d="M100.67-77.51h-1.5v34h24v-34h-22.5zm0 3h21l-1.5-1.5v31l1.5-1.5h-21l1.5 1.5V-76zm-21.5-23h64v74h-64z"/></clipPath><clipPath id="clip-path-11"><path class="cls-2" d="M100.67-76.01h21v31h-21z"/></clipPath><clipPath id="clip-path-13"><path class="cls-1" d="M101.67-105.51h-1.5v22h22v-22h-20.5zm0 3h19l-1.5-1.5v19l1.5-1.5h-19l1.5 1.5v-19zm-21.5-23h62v62h-62z"/></clipPath><clipPath id="clip-path-14"><path class="cls-2" d="M101.67-104.01h19v19h-19z"/></clipPath><clipPath id="clip-path-16"><path class="cls-1" d="M106.67-100.51h-1.5v12h12v-12h-10.5zm0 3h9l-1.5-1.5v9l1.5-1.5h-9l1.5 1.5v-9zm-21.5-23h52v52h-52z"/></clipPath><clipPath id="clip-path-17"><path class="cls-2" d="M106.67-99.01h9v9h-9z"/></clipPath><clipPath id="clip-path-19"><path class="cls-1" d="M131.67-105.51h-1.5v22h22v-22h-20.5zm0 3h19l-1.5-1.5v19l1.5-1.5h-19l1.5 1.5v-19zm-21.5-23h62v62h-62z"/></clipPath><clipPath id="clip-path-20"><path class="cls-2" d="M131.67-104.01h19v19h-19z"/></clipPath><clipPath id="clip-path-22"><path class="cls-1" d="M160.67-105.51h-1.5v22h22v-22h-20.5zm0 3h19l-1.5-1.5v19l1.5-1.5h-19l1.5 1.5v-19zm-21.5-23h62v62h-62z"/></clipPath><clipPath id="clip-path-23"><path class="cls-2" d="M160.67-104.01h19v19h-19z"/></clipPath><clipPath id="clip-path-25"><path class="cls-1" d="M131.67-77.51h-1.5v22h22v-22h-20.5zm0 3h19l-1.5-1.5v19l1.5-1.5h-19l1.5 1.5V-76zm-21.5-23h62v62h-62z"/></clipPath><clipPath id="clip-path-26"><path class="cls-2" d="M131.67-76.01h19v19h-19z"/></clipPath><clipPath id="clip-path-28"><path class="cls-1" d="M160.67-77.51h-1.5v22h22v-22h-20.5zm0 3h19l-1.5-1.5v19l1.5-1.5h-19l1.5 1.5V-76zm-21.5-23h62v62h-62z"/></clipPath><clipPath id="clip-path-29"><path class="cls-2" d="M160.67-76.01h19v19h-19z"/></clipPath><clipPath id="clip-path-31"><path class="cls-1" d="M136.67-100.51h-1.5v12h12v-12h-10.5zm0 3h9l-1.5-1.5v9l1.5-1.5h-9l1.5 1.5v-9zm-21.5-23h52v52h-52z"/></clipPath><clipPath id="clip-path-32"><path class="cls-2" d="M136.67-99.01h9v9h-9z"/></clipPath><clipPath id="clip-path-34"><path class="cls-1" d="M165.67-100.51h-1.5v12h12v-12h-10.5zm0 3h9l-1.5-1.5v9l1.5-1.5h-9l1.5 1.5v-9zm-21.5-23h52v52h-52z"/></clipPath><clipPath id="clip-path-35"><path class="cls-2" d="M165.67-99.01h9v9h-9z"/></clipPath><clipPath id="clip-path-37"><path class="cls-1" d="M136.67-72.51h-1.5v12h12v-12h-10.5zm0 3h9l-1.5-1.5v9l1.5-1.5h-9l1.5 1.5v-9zm-21.5-23h52v52h-52z"/></clipPath><clipPath id="clip-path-38"><path class="cls-2" d="M136.67-71.01h9v9h-9z"/></clipPath><clipPath id="clip-path-40"><path class="cls-1" d="M165.67-72.51h-1.5v12h12v-12h-10.5zm0 3h9l-1.5-1.5v9l1.5-1.5h-9l1.5 1.5v-9zm-21.5-23h52v52h-52z"/></clipPath><clipPath id="clip-path-41"><path class="cls-2" d="M165.67-71.01h9v9h-9z"/></clipPath></defs><path class="cls-32" d="M200.18 86.12V74H121.8V47.22h-20.42l-6.67 13.89a156.93 156.93 0 0 0-18.89 5v20z"/><path class="cls-33" d="M201.77 87.7H74.23V65l1.09-.36a163.86 163.86 0 0 1 18.31-4.92l6.76-14.06h23v26.78h78.39zM77.4 84.53h121.2V75.6h-78.39V48.82h-17.8l-6.59 13.7-.79.15a156.44 156.44 0 0 0-17.63 4.61z"/><path class="cls-32" d="M116.33 66.67h-15.02v-4.15l4.25-9.11h10.77v13.26z"/><path class="cls-33" d="M117.92 68.26h-18.2v-6.09l4.82-10.35h13.37zm-15-3.17h11.85V55h-8.17l-3.67 7.88zm-8.13 22.53A1.59 1.59 0 0 1 93.2 86V61.31a1.59 1.59 0 0 1 3.17 0V86a1.59 1.59 0 0 1-1.58 1.62zm27.03 0a1.59 1.59 0 0 1-1.59-1.62V72.64a1.59 1.59 0 0 1 3.17 0V86a1.59 1.59 0 0 1-1.58 1.62z"/><circle class="cls-32" cx="98.41" cy="90.73" r="11.61"/><path class="cls-33" d="M98.41 103.92a13.19 13.19 0 1 1 13.19-13.19 13.21 13.21 0 0 1-13.19 13.19zm0-23.21a10 10 0 1 0 10 10 10 10 0 0 0-10-10z"/><circle class="cls-32" cx="182.61" cy="90.73" r="11.61"/><path class="cls-33" d="M182.61 103.92a13.19 13.19 0 1 1 13.19-13.19 13.21 13.21 0 0 1-13.19 13.19zm0-23.21a10 10 0 1 0 10 10 10 10 0 0 0-10-10z"/><circle class="cls-32" cx="98.25" cy="90.58" r="5.27"/><path class="cls-33" d="M98.25 97.43a6.86 6.86 0 1 1 6.86-6.86 6.86 6.86 0 0 1-6.86 6.86zm0-10.54a3.68 3.68 0 1 0 3.68 3.68 3.69 3.69 0 0 0-3.68-3.68z"/><path class="cls-34" d="M121.78 62.49v5.32l72.4-28.84 1.44-5.89-73.84 29.41z"/><circle class="cls-32" cx="182.45" cy="90.58" r="5.27"/><path class="cls-33" d="M182.45 97.43a6.86 6.86 0 1 1 6.86-6.86 6.86 6.86 0 0 1-6.86 6.86zm0-10.54a3.68 3.68 0 1 0 3.68 3.68 3.69 3.69 0 0 0-3.68-3.68zm-65.66-38.07h-12l2.76-11.15h6.57zm-7.91-3.17h3.9l-1.14-4.8h-1.58z"/><path class="cls-34" d="M121.82 62.46H138v11.56h-16.18z"/><circle class="cls-34" cx="195.41" cy="52.24" r="3.99"/><path class="cls-34" d="M195.88 58.22v2a4.43 4.43 0 0 1 2.42 3.47 3.46 3.46 0 0 1-3.46 3.76 3.39 3.39 0 0 1-3.19-3.64"/><path class="cls-35" d="M195.41 48.25V33.44"/></svg>