<svg id="Layer_1" data-name="Layer 1" xmlns="http://www.w3.org/2000/svg" viewBox="0 0 276 137"><defs><style>.cls-1,.cls-4,.cls-6{fill:none}.cls-2{fill:#0c1f2e}.cls-3,.cls-5{fill:#fff}.cls-4,.cls-5,.cls-6{stroke:#0e1f2d;stroke-linecap:round;stroke-miterlimit:10}.cls-4,.cls-5{stroke-width:3px}.cls-6{stroke-width:2px}</style><clipPath id="clip-path"><circle class="cls-1" cx="-737.7" cy="545.62" r="50.5"/></clipPath><clipPath id="clip-path-2"><circle class="cls-1" cx="-737.7" cy="545.62" r="43.5"/></clipPath><clipPath id="clip-path-3"><circle class="cls-1" cx="150.3" cy="545.62" r="50.5"/></clipPath><clipPath id="clip-path-4"><circle class="cls-1" cx="150.3" cy="545.62" r="43.5"/></clipPath></defs><path class="cls-2" d="M88.58 23.83v75h-11v1.28a13.19 13.19 0 0 0 12.84 13.07l94.77-.06a12.86 12.86 0 0 0 13.05-12.65l.18-76.64zm1.94 86.39a10.14 10.14 0 0 1-9.75-8.63h91.5a12.7 12.7 0 0 0 4.49 8.56zm104.78-9.72a9.7 9.7 0 0 1-9.86 9.69c-5.84 0-9.86-4.24-9.86-10v-1.53h-84V26.83h103.88z"/><path class="cls-3" d="M176.76 110.17H90.52a10.14 10.14 0 0 1-9.75-8.63h91.5a12.7 12.7 0 0 0 4.49 8.63z"/><path class="cls-3" d="M195.46 26.83l-.16 73.67a9.7 9.7 0 0 1-9.86 9.7c-5.84 0-9.86-4.24-9.86-10.05v-1.49h-84V26.83z"/><path class="cls-2" d="M138.22 37.51h46.26v2.95h-46.26zm0 11.81h46.26v2.95h-46.26zm0 11.81h46.26v2.95h-46.26zm0 11.81h46.26v2.95h-46.26zm0 11.81h46.26v2.95h-46.26z"/><path class="cls-4" d="M99.78 48.61h30.25v34.87H99.78z"/><path class="cls-5" d="M97.28 54.64h35.33l-2.74-9.47h-29.85l-2.74 9.47z"/><path class="cls-5" d="M118.84 41.73h5.17v6.89h-5.17z"/><path class="cls-6" d="M104.15 70.13h9.04v13.34h-9.04zm.43-12.05h8.18v8.18h-8.18zm12.91 0h8.18v8.18h-8.18zm0 12.05h8.18v8.18h-8.18z"/></svg>