<svg id="Layer_1" data-name="Layer 1" xmlns="http://www.w3.org/2000/svg" viewBox="0 0 276 137"><defs><style>.cls-1,.cls-2,.cls-3,.cls-51,.cls-52{fill:none}.cls-1,.cls-4{clip-rule:evenodd}.cls-3,.cls-46,.cls-50,.cls-52{fill-rule:evenodd}.cls-4,.cls-46,.cls-48,.cls-5,.cls-50,.cls-53,.cls-54{fill:#fff}.cls-4,.cls-5,.cls-50,.cls-51,.cls-52,.cls-53{stroke:#0e1f2d;stroke-width:3px}.cls-4,.cls-5,.cls-50,.cls-51,.cls-52,.cls-53,.cls-54{stroke-miterlimit:10}.cls-6{clip-path:url(#clip-path)}.cls-7{clip-path:url(#clip-path-2)}.cls-8{clip-path:url(#clip-path-4)}.cls-9{clip-path:url(#clip-path-5)}.cls-10{clip-path:url(#clip-path-7)}.cls-11{clip-path:url(#clip-path-8)}.cls-12{clip-path:url(#clip-path-10)}.cls-13{clip-path:url(#clip-path-11)}.cls-14{clip-path:url(#clip-path-13)}.cls-15{clip-path:url(#clip-path-14)}.cls-16{clip-path:url(#clip-path-16)}.cls-17{clip-path:url(#clip-path-17)}.cls-18{clip-path:url(#clip-path-19)}.cls-19{clip-path:url(#clip-path-20)}.cls-20{clip-path:url(#clip-path-22)}.cls-21{clip-path:url(#clip-path-23)}.cls-22{clip-path:url(#clip-path-25)}.cls-23{clip-path:url(#clip-path-26)}.cls-24{clip-path:url(#clip-path-28)}.cls-25{clip-path:url(#clip-path-29)}.cls-26{clip-path:url(#clip-path-31)}.cls-27{clip-path:url(#clip-path-32)}.cls-28{clip-path:url(#clip-path-34)}.cls-29{clip-path:url(#clip-path-35)}.cls-30{clip-path:url(#clip-path-37)}.cls-31{clip-path:url(#clip-path-38)}.cls-32{clip-path:url(#clip-path-40)}.cls-33{clip-path:url(#clip-path-41)}.cls-34{clip-path:url(#clip-path-43)}.cls-35{clip-path:url(#clip-path-44)}.cls-36{clip-path:url(#clip-path-46)}.cls-37{clip-path:url(#clip-path-47)}.cls-38{clip-path:url(#clip-path-49)}.cls-39{clip-path:url(#clip-path-50)}.cls-40{clip-path:url(#clip-path-52)}.cls-41{clip-path:url(#clip-path-53)}.cls-42{clip-path:url(#clip-path-55)}.cls-43{clip-path:url(#clip-path-56)}.cls-44{clip-path:url(#clip-path-57)}.cls-45{fill:#0e1f2d}.cls-47{clip-path:url(#clip-path-59)}.cls-49{clip-path:url(#clip-path-60)}.cls-53{stroke-linecap:round}.cls-54{stroke:#0c1f2e;stroke-width:.76px}</style><clipPath id="clip-path"><path class="cls-1" d="M383.67-441.51h-1.5v84h108v-84h-106.5zm0 3h105l-1.5-1.5v81l1.5-1.5h-105l1.5 1.5v-81zm-21.5-23h148v124h-148z"/></clipPath><clipPath id="clip-path-2"><path class="cls-2" d="M383.67-440.01h105v81h-105z"/></clipPath><clipPath id="clip-path-4"><path class="cls-1" d="M377.67-424.51h-2.24l.85-2.07 9.07-22 .38-.93H486.6l.38.93 9.07 22 .85 2.07H377.67zm0-3h117l-1.39 2.07-9.07-22 1.39.93h-98.86l1.39-.93-9.07 22zm-22.24 23h161.48v-65H355.43z"/></clipPath><clipPath id="clip-path-5"><path class="cls-1" d="M377.67-426.01h117l-9.07-22h-98.86l-9.07 22z"/></clipPath><clipPath id="clip-path-7"><path class="cls-1" d="M462.67-457.51h-1.5v19h15v-19h-13.5zm0 3h12l-1.5-1.5v16l1.5-1.5h-12l1.5 1.5v-16zm-21.5-23h55v59h-55z"/></clipPath><clipPath id="clip-path-8"><path class="cls-2" d="M462.67-456.01h12v16h-12z"/></clipPath><clipPath id="clip-path-10"><path class="cls-1" d="M396.67-391.51h-1.5v34h24v-34h-22.5zm0 3h21l-1.5-1.5v31l1.5-1.5h-21l1.5 1.5v-31zm-21.5-23h64v74h-64z"/></clipPath><clipPath id="clip-path-11"><path class="cls-2" d="M396.67-390.01h21v31h-21z"/></clipPath><clipPath id="clip-path-13"><path class="cls-1" d="M397.67-419.51h-1.5v22h22v-22h-20.5zm0 3h19l-1.5-1.5v19l1.5-1.5h-19l1.5 1.5v-19zm-21.5-23h62v62h-62z"/></clipPath><clipPath id="clip-path-14"><path class="cls-2" d="M397.67-418.01h19v19h-19z"/></clipPath><clipPath id="clip-path-16"><path class="cls-1" d="M402.67-414.51h-1.5v12h12v-12h-10.5zm0 3h9l-1.5-1.5v9l1.5-1.5h-9l1.5 1.5v-9zm-21.5-23h52v52h-52z"/></clipPath><clipPath id="clip-path-17"><path class="cls-2" d="M402.67-413.01h9v9h-9z"/></clipPath><clipPath id="clip-path-19"><path class="cls-1" d="M427.67-419.51h-1.5v22h22v-22h-20.5zm0 3h19l-1.5-1.5v19l1.5-1.5h-19l1.5 1.5v-19zm-21.5-23h62v62h-62z"/></clipPath><clipPath id="clip-path-20"><path class="cls-2" d="M427.67-418.01h19v19h-19z"/></clipPath><clipPath id="clip-path-22"><path class="cls-1" d="M456.67-419.51h-1.5v22h22v-22h-20.5zm0 3h19l-1.5-1.5v19l1.5-1.5h-19l1.5 1.5v-19zm-21.5-23h62v62h-62z"/></clipPath><clipPath id="clip-path-23"><path class="cls-2" d="M456.67-418.01h19v19h-19z"/></clipPath><clipPath id="clip-path-25"><path class="cls-1" d="M427.67-391.51h-1.5v22h22v-22h-20.5zm0 3h19l-1.5-1.5v19l1.5-1.5h-19l1.5 1.5v-19zm-21.5-23h62v62h-62z"/></clipPath><clipPath id="clip-path-26"><path class="cls-2" d="M427.67-390.01h19v19h-19z"/></clipPath><clipPath id="clip-path-28"><path class="cls-1" d="M456.67-391.51h-1.5v22h22v-22h-20.5zm0 3h19l-1.5-1.5v19l1.5-1.5h-19l1.5 1.5v-19zm-21.5-23h62v62h-62z"/></clipPath><clipPath id="clip-path-29"><path class="cls-2" d="M456.67-390.01h19v19h-19z"/></clipPath><clipPath id="clip-path-31"><path class="cls-1" d="M432.67-414.51h-1.5v12h12v-12h-10.5zm0 3h9l-1.5-1.5v9l1.5-1.5h-9l1.5 1.5v-9zm-21.5-23h52v52h-52z"/></clipPath><clipPath id="clip-path-32"><path class="cls-2" d="M432.67-413.01h9v9h-9z"/></clipPath><clipPath id="clip-path-34"><path class="cls-1" d="M461.67-414.51h-1.5v12h12v-12h-10.5zm0 3h9l-1.5-1.5v9l1.5-1.5h-9l1.5 1.5v-9zm-21.5-23h52v52h-52z"/></clipPath><clipPath id="clip-path-35"><path class="cls-2" d="M461.67-413.01h9v9h-9z"/></clipPath><clipPath id="clip-path-37"><path class="cls-1" d="M432.67-386.51h-1.5v12h12v-12h-10.5zm0 3h9l-1.5-1.5v9l1.5-1.5h-9l1.5 1.5v-9zm-21.5-23h52v52h-52z"/></clipPath><clipPath id="clip-path-38"><path class="cls-2" d="M432.67-385.01h9v9h-9z"/></clipPath><clipPath id="clip-path-40"><path class="cls-1" d="M461.67-386.51h-1.5v12h12v-12h-10.5zm0 3h9l-1.5-1.5v9l1.5-1.5h-9l1.5 1.5v-9zm-21.5-23h52v52h-52z"/></clipPath><clipPath id="clip-path-41"><path class="cls-2" d="M461.67-385.01h9v9h-9z"/></clipPath><clipPath id="clip-path-43"><path class="cls-1" d="M-643.77 352.13h-1.5v38h142V365l-.41-.43-11.44-12-.44-.46h-128.2zm0 3h127.56l-1.09-.46 11.44 12-.41-1v23l1.5-1.5h-139l1.5 1.5v-35zm-21.5-23h182v78h-182z"/></clipPath><clipPath id="clip-path-44"><path class="cls-1" d="M-643.77 353.63h127.56l11.44 12v23h-139v-35z"/></clipPath><clipPath id="clip-path-46"><path class="cls-1" d="M-610.77 403.55a14.5 14.5 0 0 1-14.5-14.5 14.5 14.5 0 0 1 14.5-14.5 14.5 14.5 0 0 1 14.5 14.5 14.5 14.5 0 0 1-14.5 14.5zm0 3a17.5 17.5 0 0 0 17.5-17.5 17.5 17.5 0 0 0-17.5-17.5 17.5 17.5 0 0 0-17.5 17.5 17.5 17.5 0 0 0 17.5 17.5zm-37.5-55h75v75h-75z"/></clipPath><clipPath id="clip-path-47"><circle class="cls-2" cx="-610.77" cy="389.05" r="16"/></clipPath><clipPath id="clip-path-49"><path class="cls-1" d="M-610.77 396.55a7.5 7.5 0 0 1-7.5-7.5 7.5 7.5 0 0 1 7.5-7.5 7.5 7.5 0 0 1 7.5 7.5 7.5 7.5 0 0 1-7.5 7.5zm0 3a10.5 10.5 0 0 0 10.5-10.5 10.5 10.5 0 0 0-10.5-10.5 10.5 10.5 0 0 0-10.5 10.5 10.5 10.5 0 0 0 10.5 10.5zm-30.5-41h61v61h-61z"/></clipPath><clipPath id="clip-path-50"><circle class="cls-2" cx="-610.77" cy="389.05" r="9"/></clipPath><clipPath id="clip-path-52"><path class="cls-1" d="M-544.54 403.55a14.5 14.5 0 0 1-14.5-14.5 14.5 14.5 0 0 1 14.5-14.5 14.5 14.5 0 0 1 14.5 14.5 14.5 14.5 0 0 1-14.5 14.5zm0 3a17.5 17.5 0 0 0 17.5-17.5 17.5 17.5 0 0 0-17.5-17.5 17.5 17.5 0 0 0-17.5 17.5 17.5 17.5 0 0 0 17.5 17.5zm-37.5-55h75v75h-75z"/></clipPath><clipPath id="clip-path-53"><circle class="cls-2" cx="-544.54" cy="389.05" r="16"/></clipPath><clipPath id="clip-path-55"><path class="cls-1" d="M-544.31 348.72l-7.69-15.57h-27.17v15.57zm-75.16 0l7.38-15.55h27.17v15.53zm-10.3 5.35l14.14-26.89h66.84l15.35 27.82z"/></clipPath><clipPath id="clip-path-56"><path class="cls-1" d="M-544.54 396.55a7.5 7.5 0 0 1-7.5-7.5 7.5 7.5 0 0 1 7.5-7.5 7.5 7.5 0 0 1 7.5 7.5 7.5 7.5 0 0 1-7.5 7.5zm0 3a10.5 10.5 0 0 0 10.5-10.5 10.5 10.5 0 0 0-10.5-10.5 10.5 10.5 0 0 0-10.5 10.5 10.5 10.5 0 0 0 10.5 10.5zm-30.5-41h61v61h-61z"/></clipPath><clipPath id="clip-path-57"><circle class="cls-2" cx="-544.54" cy="389.05" r="9"/></clipPath><clipPath id="clip-path-59"><path class="cls-4" d="M71.25 70.33h109.48l9.81 9.65v18.51H71.25V70.33z"/></clipPath><clipPath id="clip-path-60"><path class="cls-5" d="M-248.01-360.18h962.06v828.83h-962.06z"/></clipPath></defs><title>EXPERIENTIAL ICONS 2 (2)</title><path class="cls-5" d="M168.94 72.27l-86.99-.83 13.48-24.03h58.9l14.61 24.86z"/><path class="cls-45" d="M150.84 51.34h-25.4v15h33.24zM128 53.77h21.23l5.3 10.11H128zM90 66.28h33V51.34H97.62zm30.39-12.51v10.1H94.14l5.11-10.1z"/><path class="cls-46" d="M71.25 70.33h109.48l9.81 9.65v18.51H71.25V70.33z"/><g class="cls-47"><path class="cls-48" d="M-248.01-360.18h962.06v828.83h-962.06z"/><g class="cls-49"><path class="cls-50" d="M71.25 70.33h109.48l9.81 9.65v18.51H71.25V70.33z"/></g><path class="cls-51" d="M-248.01-360.18h962.06v828.83h-962.06z"/></g><path class="cls-52" d="M71.25 70.33h109.48l9.81 9.65v18.51H71.25V70.33z"/><path class="cls-3" d="M71.25 71.53h109.48l-.94-.37 9.82 9.66-.35-.84v18.51l1.28-1.21H71.25l1.29 1.21V70.33l-1.29 1.2z"/><ellipse class="cls-5" cx="156.41" cy="98.83" rx="12.44" ry="11.67"/><ellipse class="cls-2" cx="156.41" cy="98.83" rx="7.72" ry="7.24"/><ellipse class="cls-51" cx="156.41" cy="98.83" rx="6.44" ry="6.04"/><ellipse class="cls-2" cx="156.41" cy="98.83" rx="7.72" ry="7.24"/><path class="cls-45" d="M125.66 98.25a1.25 1.25 0 0 1-1.29-1.25V72.19a1.29 1.29 0 0 1 2.57 0V97a1.25 1.25 0 0 1-1.28 1.25zM99.48 78.11H91.6a1.21 1.21 0 1 1 0-2.41h7.88a1.21 1.21 0 1 1 0 2.41zM140.68 78.11h-7.88a1.21 1.21 0 1 1 0-2.41h7.88a1.21 1.21 0 1 1 0 2.41z"/><ellipse class="cls-5" cx="99.57" cy="98.83" rx="12.44" ry="11.67"/><ellipse class="cls-51" cx="99.57" cy="98.83" rx="6.44" ry="6.04"/><circle class="cls-53" cx="185.84" cy="45.41" r="18.91" transform="rotate(-45 185.84 45.412)"/><path class="cls-45" d="M197.85 44.94l-3.24-.11 1.63-1.36a.77.77 0 0 0-1-1.18l-2.93 2.47-3.31-.12-.82-1.43 1.61-2.67 4-.92a.77.77 0 1 0-.34-1.49l-2.56.59 1.75-2.9a.89.89 0 0 0-1.52-.91l-1.75 2.89-.67-2.54a.77.77 0 0 0-1.48.39l1.06 4-1.61 2.67-1.67-.07-1.49-2.61.7-4.17a.77.77 0 1 0-1.51-.25l-.39 2.32-1.69-3a.91.91 0 0 0-1.2-.36.85.85 0 0 0-.33 1.18l1.91 3.36-2.73-.52a.77.77 0 0 0-.29 1.51l4 .76 1.48 2.59-.83 1.38-3-.1-3.09-2.67a.77.77 0 1 0-1 1.16l1.66 1.44-3.36-.11a.85.85 0 0 0-.84.84.88.88 0 0 0 .44.76.87.87 0 0 0 .44.13l4.09.14-1.97 2.16a.77.77 0 1 0 1.15 1l2.76-3.12 2.76.09.82 1.43-1.77 2.93-4 .92a.76.76 0 1 0 .34 1.49l2.56-.59L179 55a.89.89 0 0 0 1.52.91l1.59-2.63.67 2.54a.77.77 0 0 0 .74.57.67.67 0 0 0 .2 0 .77.77 0 0 0 .54-.94l-1.05-4 1.79-2.93 1.65.06 1.46 2.56-.78 3.86a.76.76 0 0 0 .6.9h.15a.77.77 0 0 0 .75-.62l.43-2.17 1.74 3.14a.92.92 0 0 0 .32.33.9.9 0 0 0 .88 0 .85.85 0 0 0 .33-1.17l-2.05-3.59 2.85.63a.76.76 0 1 0 .33-1.49l-4.2-.93-1.31-2.3.83-1.38 2.82.1 2.93 3.35a.77.77 0 0 0 1.15-1l-2-2.27 3.92.13a.85.85 0 0 0 .88-.84.9.9 0 0 0-.83-.88zm-10 1.4l-.26.42-.51.85h-2.5l-.5-.88-.25-.44-.5-.88.51-.85.26-.42.51-.85h2.5l.51.88.25.44.51.88z"/><path class="cls-54" d="M188.38 45.49l-.51.85-.26.43-.52.85-1.01-.04-.5-.02-1.02-.03-.5-.88-.26-.44-.5-.88.51-.86.26-.42.51-.85 1.02.04.5.01 1.02.04.51.88.25.44.5.88z"/></svg>