<svg xmlns="http://www.w3.org/2000/svg" xmlns:xlink="http://www.w3.org/1999/xlink" viewBox="0 0 276 137"><defs><circle id="a" cx="132.1" cy="70" r="43.5"/></defs><defs><path id="b" d="M132.1 115c-24.8 0-45-20.2-45-45s20.2-45 45-45 45 20.2 45 45-20.1 45-45 45zm0-87c-23.2 0-42 18.8-42 42s18.8 42 42 42 42-18.8 42-42-18.8-42-42-42z"/></defs><use xlink:href="#a" overflow="visible" fill-rule="evenodd" clip-rule="evenodd" fill="#FFF"/><use xlink:href="#b" overflow="visible" fill="#0F1F2D"/><clipPath id="c"><use xlink:href="#a" overflow="visible"/></clipPath><clipPath id="d" clip-path="url(#c)"><use xlink:href="#b" overflow="visible"/></clipPath><g clip-path="url(#d)"><defs><path id="e" d="M-42.4-666h1121V364h-1121z"/></defs><defs><path id="f" d="M1080.1 365.5h-1124v-1033h1124v1033zm-1121-3h1118v-1027h-1118v1027z"/></defs><use xlink:href="#e" overflow="visible" fill="#FFF"/><use xlink:href="#f" overflow="visible" fill="#0F1F2D"/><clipPath id="g"><use xlink:href="#e" overflow="visible"/></clipPath><clipPath id="h" clip-path="url(#g)"><use xlink:href="#f" overflow="visible"/></clipPath><g clip-path="url(#h)"><circle fill="#FFF" cx="132.1" cy="70" r="43.5"/><path fill="#0F1F2D" d="M132.1 115c-24.8 0-45-20.2-45-45s20.2-45 45-45 45 20.2 45 45-20.1 45-45 45zm0-87c-23.2 0-42 18.8-42 42s18.8 42 42 42 42-18.8 42-42-18.8-42-42-42z"/></g></g><path fill="#091F2F" d="M139.58 60.048l4.312 4.313-30.83 30.83-4.312-4.314z"/><path fill="#091F2F" d="M131.174 53.906l10.182-10.183 17.04 17.041-10.181 10.183zM128.1 50.686l10.181-10.183 2.405 2.405-10.183 10.182zM148.89 71.697l10.182-10.183 2.404 2.405L151.294 74.1z"/><circle fill="#FFF" cx="174.8" cy="100.7" r="18.5"/><path fill="#0F1F2D" d="M174.8 120.7c-5.3 0-10.4-2.1-14.1-5.9-7.8-7.8-7.8-20.5 0-28.3 3.8-3.8 8.8-5.9 14.1-5.9 5.3 0 10.4 2.1 14.1 5.9 3.8 3.8 5.9 8.8 5.9 14.1s-2.1 10.4-5.9 14.1c-3.8 3.9-8.8 6-14.1 6zm0-36.9c-4.5 0-8.8 1.8-12 5-6.6 6.6-6.6 17.4 0 24 3.2 3.2 7.5 5 12 5s8.8-1.8 12-5c3.2-3.2 5-7.5 5-12s-1.8-8.8-5-12c-3.2-3.3-7.5-5-12-5z"/><path d="M168.1 97.7c.1-4.3 2.6-6.8 6.8-6.8 4 0 6.5 1.9 6.5 5.2 0 4.6-4.6 5.1-4.6 8.7h-3.9c0-4.6 3.7-4.9 3.7-7.9 0-1.3-.8-2-2.2-2-1.5 0-2.3.9-2.4 2.7l-3.9.1zm9.2 12c0 1.5-1.1 2.5-2.5 2.5-1.5 0-2.5-1-2.5-2.5s1-2.5 2.5-2.5c1.4.1 2.5 1.1 2.5 2.5z"/><defs><path id="i" d="M367.2-93h-1.5v38h142v-25.1l-.4-.4-11.4-12-.4-.5H367.2zm0 3h127.6l-1.1-.5 11.4 12-.4-1v23l1.5-1.5h-139l1.5 1.5v-35l-1.5 1.5zm-21.5-23h182v78h-182v-78z"/></defs><clipPath id="j"><use xlink:href="#i" overflow="visible"/></clipPath><g clip-path="url(#j)"><defs><path id="k" d="M367.2-91.5h127.6l11.4 12v23h-139z"/></defs><clipPath id="l"><use xlink:href="#k" overflow="visible"/></clipPath><g clip-path="url(#l)"><defs><path id="m" d="M-4.8-626.5h1121v1030H-4.8z"/></defs></g></g><defs><path id="n" d="M367.2-91.5h127.6l11.4 12v23h-139z"/></defs><clipPath id="o"><use xlink:href="#n" overflow="visible"/></clipPath><g clip-path="url(#o)"><defs><path id="p" d="M-4.8-626.5h1121v1030H-4.8z"/></defs></g><defs><path id="q" d="M400.2-41.6c-8 0-14.5-6.5-14.5-14.5s6.5-14.5 14.5-14.5 14.5 6.5 14.5 14.5-6.4 14.5-14.5 14.5zm0 3c9.7 0 17.5-7.8 17.5-17.5s-7.8-17.5-17.5-17.5-17.5 7.8-17.5 17.5c0 9.6 7.9 17.5 17.5 17.5zm-37.5-55h75v75h-75v-75z"/></defs><clipPath id="r"><use xlink:href="#q" overflow="visible"/></clipPath><g clip-path="url(#r)"><defs><circle id="s" cx="400.2" cy="-56.1" r="16"/></defs><clipPath id="t"><use xlink:href="#s" overflow="visible"/></clipPath><g clip-path="url(#t)"><defs><path id="u" d="M-4.8-626.5h1121v1030H-4.8z"/></defs></g></g><defs><circle id="v" cx="400.2" cy="-56.1" r="16"/></defs><clipPath id="w"><use xlink:href="#v" overflow="visible"/></clipPath><g clip-path="url(#w)"><defs><path id="x" d="M-4.8-626.5h1121v1030H-4.8z"/></defs></g><defs><path id="y" d="M400.2-48.6c-4.1 0-7.5-3.4-7.5-7.5s3.4-7.5 7.5-7.5 7.5 3.4 7.5 7.5-3.3 7.5-7.5 7.5zm0 3c5.8 0 10.5-4.7 10.5-10.5s-4.7-10.5-10.5-10.5-10.5 4.7-10.5 10.5 4.7 10.5 10.5 10.5zm-30.5-41h61v61h-61v-61z"/></defs><clipPath id="z"><use xlink:href="#y" overflow="visible"/></clipPath><g clip-path="url(#z)"><defs><circle id="A" cx="400.2" cy="-56.1" r="9"/></defs><clipPath id="B"><use xlink:href="#A" overflow="visible"/></clipPath><g clip-path="url(#B)"><defs><path id="C" d="M-4.8-626.5h1121v1030H-4.8z"/></defs></g></g><defs><circle id="D" cx="400.2" cy="-56.1" r="9"/></defs><clipPath id="E"><use xlink:href="#D" overflow="visible"/></clipPath><g clip-path="url(#E)"><defs><path id="F" d="M-4.8-626.5h1121v1030H-4.8z"/></defs></g><defs><path id="G" d="M466.5-41.6c-8 0-14.5-6.5-14.5-14.5s6.5-14.5 14.5-14.5S481-64.1 481-56.1s-6.5 14.5-14.5 14.5zm0 3c9.7 0 17.5-7.8 17.5-17.5s-7.8-17.5-17.5-17.5S449-65.8 449-56.1c0 9.6 7.8 17.5 17.5 17.5zm-37.5-55h75v75h-75v-75z"/></defs><clipPath id="H"><use xlink:href="#G" overflow="visible"/></clipPath><g clip-path="url(#H)"><defs><circle id="I" cx="466.5" cy="-56.1" r="16"/></defs><clipPath id="J"><use xlink:href="#I" overflow="visible"/></clipPath><g clip-path="url(#J)"><defs><path id="K" d="M-4.8-626.5h1121v1030H-4.8z"/></defs></g></g><defs><circle id="L" cx="466.5" cy="-56.1" r="16"/></defs><clipPath id="M"><use xlink:href="#L" overflow="visible"/></clipPath><g clip-path="url(#M)"><defs><path id="N" d="M-4.8-626.5h1121v1030H-4.8z"/></defs></g><defs><path id="O" d="M466.7-96.4L459-112h-27.2v15.6h34.9zm-75.2-.1l7.4-15.6h27.2v15.6h-34.6zm-10.3 5.4l14.1-26.9h66.8l15.3 27.9-96.2-1z"/></defs><clipPath id="P"><use xlink:href="#O" overflow="visible"/></clipPath><g clip-path="url(#P)"><defs><path id="Q" d="M-4.8-626.5h1121v1030H-4.8z"/></defs></g><defs><path id="R" d="M466.5-48.6c-4.1 0-7.5-3.4-7.5-7.5s3.4-7.5 7.5-7.5 7.5 3.4 7.5 7.5-3.4 7.5-7.5 7.5zm0 3c5.8 0 10.5-4.7 10.5-10.5s-4.7-10.5-10.5-10.5S456-61.9 456-56.1s4.7 10.5 10.5 10.5zm-30.5-41h61v61h-61v-61z"/></defs><clipPath id="S"><use xlink:href="#R" overflow="visible"/></clipPath><g clip-path="url(#S)"><defs><circle id="T" cx="466.5" cy="-56.1" r="9"/></defs><clipPath id="U"><use xlink:href="#T" overflow="visible"/></clipPath><g clip-path="url(#U)"><defs><path id="V" d="M-4.8-626.5h1121v1030H-4.8z"/></defs></g></g><defs><circle id="W" cx="466.5" cy="-56.1" r="9"/></defs><clipPath id="X"><use xlink:href="#W" overflow="visible"/></clipPath><g clip-path="url(#X)"><defs><path id="Y" d="M-4.8-626.5h1121v1030H-4.8z"/></defs></g><g><defs><path id="Z" d="M91.4-123.4h-1.5v84h108v-84H91.4zm0 3h105l-1.5-1.5v81l1.5-1.5h-105l1.5 1.5v-81l-1.5 1.5zm-21.5-23h148v124h-148v-124z"/></defs><clipPath id="aa"><use xlink:href="#Z" overflow="visible"/></clipPath><g clip-path="url(#aa)"><defs><path id="ab" d="M91.4-121.9h105v81h-105z"/></defs><clipPath id="ac"><use xlink:href="#ab" overflow="visible"/></clipPath><g clip-path="url(#ac)"><defs><path id="ad" d="M-789.6-620.9h1121v1030h-1121z"/></defs></g></g></g><g><defs><path id="ae" d="M91.4-121.9h105v81h-105z"/></defs><clipPath id="af"><use xlink:href="#ae" overflow="visible"/></clipPath><g clip-path="url(#af)"><defs><path id="ag" d="M-789.6-620.9h1121v1030h-1121z"/></defs></g></g><g><defs><path id="ah" d="M85.4-106.4h-2.2l.9-2.1 9.1-22 .4-.9h100.9l.4.9 9.1 22 .9 2.1H85.4zm0-3h117l-1.4 2.1-9.1-22 1.4.9H94.5l1.4-.9-9.1 22-1.4-2.1zm-22.3 23h161.5v-65H63.1v65z"/></defs><clipPath id="ai"><use xlink:href="#ah" overflow="visible"/></clipPath><g clip-path="url(#ai)"><defs><path id="aj" d="M85.4-107.9h117l-9.1-22H94.5z"/></defs><clipPath id="ak"><use xlink:href="#aj" overflow="visible"/></clipPath><g clip-path="url(#ak)"><defs><path id="al" d="M-789.6-620.9h1121v1030h-1121z"/></defs></g></g></g><g><defs><path id="am" d="M85.4-107.9h117l-9.1-22H94.5z"/></defs><clipPath id="an"><use xlink:href="#am" overflow="visible"/></clipPath><g clip-path="url(#an)"><defs><path id="ao" d="M-789.6-620.9h1121v1030h-1121z"/></defs></g></g><g><defs><path id="ap" d="M170.4-139.4h-1.5v19h15v-19h-13.5zm0 3h12l-1.5-1.5v16l1.5-1.5h-12l1.5 1.5v-16l-1.5 1.5zm-21.5-23h55v59h-55v-59z"/></defs><clipPath id="aq"><use xlink:href="#ap" overflow="visible"/></clipPath><g clip-path="url(#aq)"><defs><path id="ar" d="M170.4-137.9h12v16h-12z"/></defs><clipPath id="as"><use xlink:href="#ar" overflow="visible"/></clipPath><g clip-path="url(#as)"><defs><path id="at" d="M-789.6-620.9h1121v1030h-1121z"/></defs></g></g></g><g><defs><path id="au" d="M170.4-137.9h12v16h-12z"/></defs><clipPath id="av"><use xlink:href="#au" overflow="visible"/></clipPath><g clip-path="url(#av)"><defs><path id="aw" d="M-789.6-620.9h1121v1030h-1121z"/></defs></g></g><g><defs><path id="ax" d="M104.4-73.4h-1.5v34h24v-34h-22.5zm0 3h21l-1.5-1.5v31l1.5-1.5h-21l1.5 1.5v-31l-1.5 1.5zm-21.5-23h64v74h-64v-74z"/></defs><clipPath id="ay"><use xlink:href="#ax" overflow="visible"/></clipPath><g clip-path="url(#ay)"><defs><path id="az" d="M104.4-71.9h21v31h-21z"/></defs><clipPath id="aA"><use xlink:href="#az" overflow="visible"/></clipPath><g clip-path="url(#aA)"><defs><path id="aB" d="M-789.6-620.9h1121v1030h-1121z"/></defs></g></g></g><g><defs><path id="aC" d="M104.4-71.9h21v31h-21z"/></defs><clipPath id="aD"><use xlink:href="#aC" overflow="visible"/></clipPath><g clip-path="url(#aD)"><defs><path id="aE" d="M-789.6-620.9h1121v1030h-1121z"/></defs></g></g><g><defs><path id="aF" d="M105.4-101.4h-1.5v22h22v-22h-20.5zm0 3h19l-1.5-1.5v19l1.5-1.5h-19l1.5 1.5v-19l-1.5 1.5zm-21.5-23h62v62h-62v-62z"/></defs><clipPath id="aG"><use xlink:href="#aF" overflow="visible"/></clipPath><g clip-path="url(#aG)"><defs><path id="aH" d="M105.4-99.9h19v19h-19z"/></defs><clipPath id="aI"><use xlink:href="#aH" overflow="visible"/></clipPath><g clip-path="url(#aI)"><defs><path id="aJ" d="M-789.6-620.9h1121v1030h-1121z"/></defs></g></g></g><g><defs><path id="aK" d="M105.4-99.9h19v19h-19z"/></defs><clipPath id="aL"><use xlink:href="#aK" overflow="visible"/></clipPath><g clip-path="url(#aL)"><defs><path id="aM" d="M-789.6-620.9h1121v1030h-1121z"/></defs></g></g><g><defs><path id="aN" d="M110.4-96.4h-1.5v12h12v-12h-10.5zm0 3h9l-1.5-1.5v9l1.5-1.5h-9l1.5 1.5v-9l-1.5 1.5zm-21.5-23h52v52h-52v-52z"/></defs><clipPath id="aO"><use xlink:href="#aN" overflow="visible"/></clipPath><g clip-path="url(#aO)"><defs><path id="aP" d="M110.4-94.9h9v9h-9z"/></defs><clipPath id="aQ"><use xlink:href="#aP" overflow="visible"/></clipPath><g clip-path="url(#aQ)"><defs><path id="aR" d="M-789.6-620.9h1121v1030h-1121z"/></defs></g></g></g><g><defs><path id="aS" d="M110.4-94.9h9v9h-9z"/></defs><clipPath id="aT"><use xlink:href="#aS" overflow="visible"/></clipPath><g clip-path="url(#aT)"><defs><path id="aU" d="M-789.6-620.9h1121v1030h-1121z"/></defs></g></g><g><defs><path id="aV" d="M135.4-101.4h-1.5v22h22v-22h-20.5zm0 3h19l-1.5-1.5v19l1.5-1.5h-19l1.5 1.5v-19l-1.5 1.5zm-21.5-23h62v62h-62v-62z"/></defs><clipPath id="aW"><use xlink:href="#aV" overflow="visible"/></clipPath><g clip-path="url(#aW)"><defs><path id="aX" d="M135.4-99.9h19v19h-19z"/></defs><clipPath id="aY"><use xlink:href="#aX" overflow="visible"/></clipPath><g clip-path="url(#aY)"><defs><path id="aZ" d="M-789.6-620.9h1121v1030h-1121z"/></defs></g></g></g><g><defs><path id="ba" d="M135.4-99.9h19v19h-19z"/></defs><clipPath id="bb"><use xlink:href="#ba" overflow="visible"/></clipPath><g clip-path="url(#bb)"><defs><path id="bc" d="M-789.6-620.9h1121v1030h-1121z"/></defs></g></g><g><defs><path id="bd" d="M164.4-101.4h-1.5v22h22v-22h-20.5zm0 3h19l-1.5-1.5v19l1.5-1.5h-19l1.5 1.5v-19l-1.5 1.5zm-21.5-23h62v62h-62v-62z"/></defs><clipPath id="be"><use xlink:href="#bd" overflow="visible"/></clipPath><g clip-path="url(#be)"><defs><path id="bf" d="M164.4-99.9h19v19h-19z"/></defs><clipPath id="bg"><use xlink:href="#bf" overflow="visible"/></clipPath><g clip-path="url(#bg)"><defs><path id="bh" d="M-789.6-620.9h1121v1030h-1121z"/></defs></g></g></g><g><defs><path id="bi" d="M164.4-99.9h19v19h-19z"/></defs><clipPath id="bj"><use xlink:href="#bi" overflow="visible"/></clipPath><g clip-path="url(#bj)"><defs><path id="bk" d="M-789.6-620.9h1121v1030h-1121z"/></defs></g></g><g><defs><path id="bl" d="M135.4-73.4h-1.5v22h22v-22h-20.5zm0 3h19l-1.5-1.5v19l1.5-1.5h-19l1.5 1.5v-19l-1.5 1.5zm-21.5-23h62v62h-62v-62z"/></defs><clipPath id="bm"><use xlink:href="#bl" overflow="visible"/></clipPath><g clip-path="url(#bm)"><defs><path id="bn" d="M135.4-71.9h19v19h-19z"/></defs><clipPath id="bo"><use xlink:href="#bn" overflow="visible"/></clipPath><g clip-path="url(#bo)"><defs><path id="bp" d="M-789.6-620.9h1121v1030h-1121z"/></defs></g></g></g><g><defs><path id="bq" d="M135.4-71.9h19v19h-19z"/></defs><clipPath id="br"><use xlink:href="#bq" overflow="visible"/></clipPath><g clip-path="url(#br)"><defs><path id="bs" d="M-789.6-620.9h1121v1030h-1121z"/></defs></g></g><g><defs><path id="bt" d="M164.4-73.4h-1.5v22h22v-22h-20.5zm0 3h19l-1.5-1.5v19l1.5-1.5h-19l1.5 1.5v-19l-1.5 1.5zm-21.5-23h62v62h-62v-62z"/></defs><clipPath id="bu"><use xlink:href="#bt" overflow="visible"/></clipPath><g clip-path="url(#bu)"><defs><path id="bv" d="M164.4-71.9h19v19h-19z"/></defs><clipPath id="bw"><use xlink:href="#bv" overflow="visible"/></clipPath><g clip-path="url(#bw)"><defs><path id="bx" d="M-789.6-620.9h1121v1030h-1121z"/></defs></g></g></g><g><defs><path id="by" d="M164.4-71.9h19v19h-19z"/></defs><clipPath id="bz"><use xlink:href="#by" overflow="visible"/></clipPath><g clip-path="url(#bz)"><defs><path id="bA" d="M-789.6-620.9h1121v1030h-1121z"/></defs></g></g><g><defs><path id="bB" d="M140.4-96.4h-1.5v12h12v-12h-10.5zm0 3h9l-1.5-1.5v9l1.5-1.5h-9l1.5 1.5v-9l-1.5 1.5zm-21.5-23h52v52h-52v-52z"/></defs><clipPath id="bC"><use xlink:href="#bB" overflow="visible"/></clipPath><g clip-path="url(#bC)"><defs><path id="bD" d="M140.4-94.9h9v9h-9z"/></defs><clipPath id="bE"><use xlink:href="#bD" overflow="visible"/></clipPath><g clip-path="url(#bE)"><defs><path id="bF" d="M-789.6-620.9h1121v1030h-1121z"/></defs></g></g></g><g><defs><path id="bG" d="M140.4-94.9h9v9h-9z"/></defs><clipPath id="bH"><use xlink:href="#bG" overflow="visible"/></clipPath><g clip-path="url(#bH)"><defs><path id="bI" d="M-789.6-620.9h1121v1030h-1121z"/></defs></g></g><g><defs><path id="bJ" d="M169.4-96.4h-1.5v12h12v-12h-10.5zm0 3h9l-1.5-1.5v9l1.5-1.5h-9l1.5 1.5v-9l-1.5 1.5zm-21.5-23h52v52h-52v-52z"/></defs><clipPath id="bK"><use xlink:href="#bJ" overflow="visible"/></clipPath><g clip-path="url(#bK)"><defs><path id="bL" d="M169.4-94.9h9v9h-9z"/></defs><clipPath id="bM"><use xlink:href="#bL" overflow="visible"/></clipPath><g clip-path="url(#bM)"><defs><path id="bN" d="M-789.6-620.9h1121v1030h-1121z"/></defs></g></g></g><g><defs><path id="bO" d="M169.4-94.9h9v9h-9z"/></defs><clipPath id="bP"><use xlink:href="#bO" overflow="visible"/></clipPath><g clip-path="url(#bP)"><defs><path id="bQ" d="M-789.6-620.9h1121v1030h-1121z"/></defs></g></g><g><defs><path id="bR" d="M140.4-68.4h-1.5v12h12v-12h-10.5zm0 3h9l-1.5-1.5v9l1.5-1.5h-9l1.5 1.5v-9l-1.5 1.5zm-21.5-23h52v52h-52v-52z"/></defs><clipPath id="bS"><use xlink:href="#bR" overflow="visible"/></clipPath><g clip-path="url(#bS)"><defs><path id="bT" d="M140.4-66.9h9v9h-9z"/></defs><clipPath id="bU"><use xlink:href="#bT" overflow="visible"/></clipPath><g clip-path="url(#bU)"><defs><path id="bV" d="M-789.6-620.9h1121v1030h-1121z"/></defs></g></g></g><g><defs><path id="bW" d="M140.4-66.9h9v9h-9z"/></defs><clipPath id="bX"><use xlink:href="#bW" overflow="visible"/></clipPath><g clip-path="url(#bX)"><defs><path id="bY" d="M-789.6-620.9h1121v1030h-1121z"/></defs></g></g><g><defs><path id="bZ" d="M169.4-68.4h-1.5v12h12v-12h-10.5zm0 3h9l-1.5-1.5v9l1.5-1.5h-9l1.5 1.5v-9l-1.5 1.5zm-21.5-23h52v52h-52v-52z"/></defs><clipPath id="ca"><use xlink:href="#bZ" overflow="visible"/></clipPath><g clip-path="url(#ca)"><defs><path id="cb" d="M169.4-66.9h9v9h-9z"/></defs><clipPath id="cc"><use xlink:href="#cb" overflow="visible"/></clipPath><g clip-path="url(#cc)"><defs><path id="cd" d="M-789.6-620.9h1121v1030h-1121z"/></defs></g></g></g><g><defs><path id="ce" d="M169.4-66.9h9v9h-9z"/></defs><clipPath id="cf"><use xlink:href="#ce" overflow="visible"/></clipPath><g clip-path="url(#cf)"><defs><path id="cg" d="M-789.6-620.9h1121v1030h-1121z"/></defs></g></g></svg>