<svg id="Layer_1" data-name="Layer 1" xmlns="http://www.w3.org/2000/svg" viewBox="0 0 276 137"><defs><style>.cls-1,.cls-10,.cls-11,.cls-12,.cls-18,.cls-19,.cls-2{fill:none}.cls-2,.cls-3{clip-rule:evenodd}.cls-16,.cls-3,.cls-9{fill:#fff}.cls-18,.cls-19,.cls-3{stroke:#0e1f2d;stroke-width:1.88px}.cls-10,.cls-11,.cls-12,.cls-18,.cls-19,.cls-3{stroke-miterlimit:10}.cls-6{clip-path:url(#clip-path-3)}.cls-7{clip-path:url(#clip-path-4)}.cls-8{clip-path:url(#clip-path-5)}.cls-10,.cls-11,.cls-12{stroke:#0c1f2e;stroke-linecap:round}.cls-10{stroke-width:6px}.cls-11,.cls-12{stroke-width:3px}.cls-13{clip-path:url(#clip-path-8)}.cls-14{clip-path:url(#clip-path-9)}.cls-15{clip-path:url(#clip-path-10)}.cls-16,.cls-19{fill-rule:evenodd}.cls-17{clip-path:url(#clip-path-13)}</style><clipPath id="clip-path"><circle class="cls-1" cx="-158.52" cy="-243.41" r="50.5"/></clipPath><clipPath id="clip-path-2"><circle class="cls-1" cx="-158.52" cy="-243.41" r="43.5"/></clipPath><clipPath id="clip-path-3"><path class="cls-2" d="M100.69 102.58a29.08 29.08 0 1 1 29.08-29.08 29.08 29.08 0 0 1-29.08 29.08zm0 2.24A31.32 31.32 0 1 0 69.38 73.5a31.32 31.32 0 0 0 31.31 31.32zM54.44 27.25h92.5v92.5h-92.5z"/></clipPath><clipPath id="clip-path-4"><circle class="cls-1" cx="100.69" cy="73.5" r="30.2"/></clipPath><clipPath id="clip-path-5"><path class="cls-1" d="M-372.12-333.63h837.01v769.06h-837.01z"/></clipPath><clipPath id="clip-path-8"><path class="cls-2" d="M183.23 102.58A29.08 29.08 0 1 1 212.3 73.5a29.08 29.08 0 0 1-29.07 29.08zm0 2.24a31.32 31.32 0 1 0-31.32-31.32 31.32 31.32 0 0 0 31.32 31.32zM137 27.25h92.5v92.5H137z"/></clipPath><clipPath id="clip-path-9"><circle class="cls-1" cx="183.23" cy="73.5" r="30.2"/></clipPath><clipPath id="clip-path-10"><path class="cls-1" d="M-373.96-333.63h837.01v769.06h-837.01z"/></clipPath><clipPath id="clip-path-13"><path class="cls-3" d="M96.34 213.06h65.16l5.84 5.75v11.01h-71v-16.76z"/></clipPath><clipPath id="clip-path-14"><circle class="cls-1" cx="-159.18" cy="386.42" r="50.5"/></clipPath><clipPath id="clip-path-15"><circle class="cls-1" cx="-159.18" cy="386.42" r="43.5"/></clipPath><clipPath id="clip-path-16"><circle class="cls-1" cx="-163.86" cy="543.9" r="50.5"/></clipPath><clipPath id="clip-path-17"><circle class="cls-1" cx="-163.86" cy="543.9" r="43.5"/></clipPath></defs><g class="cls-6"><g class="cls-7"><g class="cls-8"><circle class="cls-9" cx="100.69" cy="73.5" r="30.2"/></g></g></g><g class="cls-7"><g class="cls-8"><circle class="cls-10" cx="100.69" cy="73.5" r="30.2"/></g></g><path class="cls-11" d="M143.22 76.71l5-4.28-5.1-4.52"/><path class="cls-12" d="M130.89 72.36h15.25"/><g class="cls-13"><g class="cls-14"><g class="cls-15"><circle class="cls-9" cx="183.23" cy="73.5" r="30.2"/></g></g></g><g class="cls-14"><g class="cls-15"><circle class="cls-10" cx="183.23" cy="73.5" r="30.2"/></g></g><circle class="cls-12" cx="100.96" cy="86.56" r="3.11"/><path class="cls-12" d="M113.43 72.36a17.13 17.13 0 0 0-24.5-.49m27.5-3.98a21.33 21.33 0 0 0-30.5-.61m20.89 13.94a7.91 7.91 0 0 0-11.72 0m14.9-4.44a12.14 12.14 0 0 0-18 0m95.61-5.35h-8.53l-6.06 4.59v15.74h20.61V76.19l-6.02-4.76z"/><circle class="cls-12" cx="183.14" cy="61.13" r="5.47"/><path class="cls-16" d="M96.34 213.06h65.16l5.84 5.75v11.01h-71v-16.76z"/><g class="cls-17"><path class="cls-9" d="M-93.69-43.18h572.62v493.32H-93.69z"/><path class="cls-18" d="M-93.69-43.18h572.62v493.32H-93.69z"/></g><path class="cls-19" d="M96.34 213.06h65.16l5.84 5.75v11.01h-71v-16.76z"/></svg>