<svg xmlns="http://www.w3.org/2000/svg" xmlns:xlink="http://www.w3.org/1999/xlink" viewBox="0 0 276 137"><circle fill="#FFF" cx="138.4" cy="69.6" r="48.5"/><defs><circle id="a" cx="138" cy="69.5" r="50.5"/></defs><clipPath id="b"><use xlink:href="#a" overflow="visible"/></clipPath><g clip-path="url(#b)"><defs><path id="c" d="M-36.5-666.5h1121v1030h-1121z"/></defs><clipPath id="d"><use xlink:href="#c" overflow="visible"/></clipPath><circle clip-path="url(#d)" fill="none" stroke="#0F1F2D" stroke-width="6" stroke-linecap="round" stroke-miterlimit="10" cx="138" cy="69.5" r="50.5"/></g><g><defs><circle id="e" cx="138" cy="69.5" r="43.5"/></defs><clipPath id="f"><use xlink:href="#e" overflow="visible"/></clipPath><g clip-path="url(#f)"><defs><path id="g" d="M-36.5-666.5h1121v1030h-1121z"/></defs><clipPath id="h"><use xlink:href="#g" overflow="visible"/></clipPath><circle clip-path="url(#h)" fill="none" stroke="#0F1F2D" stroke-width="6" stroke-linecap="round" stroke-miterlimit="10" cx="138" cy="69.5" r="43.5"/></g></g><g><circle fill="#0C1F2E" cx="137.8" cy="85.7" r="4.5"/><path fill="none" stroke="#0C1F2E" stroke-width="3" stroke-linecap="round" stroke-miterlimit="10" d="M156 65c-4.6-4.8-11-7.9-18.2-7.9-6.8 0-13 2.7-17.5 7.2"/><path fill="none" stroke="#0C1F2E" stroke-width="3" stroke-linecap="round" stroke-miterlimit="10" d="M160.3 58.5c-5.7-6-13.7-9.8-22.6-9.8-8.5 0-16.2 3.4-21.8 8.9M146.4 77.9c-2.1-2.3-5.1-3.8-8.5-3.8-3.4 0-6.4 1.5-8.5 3.8M150.9 71.5c-3.2-3.6-7.9-5.8-13.1-5.8-5.2 0-9.8 2.2-13.1 5.8"/></g></svg>