<svg xmlns="http://www.w3.org/2000/svg" xmlns:xlink="http://www.w3.org/1999/xlink" viewBox="0 0 276 137"><path fill="#0C1F2E" d="M135.6 68.5l-30.9-39.1 1.5-.9c6.6-3.8 28.1-10.5 29-10.8l.5-.1.5.2c.9.3 23 8 29.9 12.4l1.5.9-32 37.4zm-26.4-38.2l26.5 33.5 27.2-32c-7.3-4-24.3-10-27.3-11.1-3 1-19.4 6.2-26.4 9.6zm26.9 88.7l-.4-.1c-1-.2-24.6-6.1-31.6-10.6l-1.5-.9 33.5-39.3 31.4 39.1-1.5.8c-6.6 3.8-28.5 10.5-29.5 10.8l-.4.2zm-28.9-12.4c7.5 3.8 25.9 8.5 28.8 9.2 2.8-.9 19.7-6.2 26.9-9.6L136 72.8l-28.8 33.8z"/><path fill="#0C1F2E" d="M171.6 101.7l-35.9-33.8L175 37.5l.9 1.5c3.8 6.6 10.3 27.7 10.6 28.6l.2.5-.2.5c-.4 1-9.4 24.6-13.8 31.6l-1.1 1.5zm-31.3-33.5L171 97c4.1-7.5 11.2-25.8 12.4-29-.9-3-6-19-9.4-26l-33.7 26.2zm-42.5 33.5l-.9-1.6C93.2 93.5 85.6 70 85.3 69l-.1-.4.1-.4c.3-1 6.3-24.7 10.8-31.7L97 35l39 33.5-38.2 33.2zm-9.5-33.3c1 3 6.9 21.1 10.4 28.5l32.7-28.5-33.7-29c-3.8 7.6-8.7 26-9.4 29z"/><circle fill="#FFF" cx="135.7" cy="67" r="26.5"/><path fill="#0F1F2D" d="M135.7 95c-15.4 0-28-12.6-28-28s12.6-28 28-28 28 12.6 28 28-12.6 28-28 28zm0-53c-13.8 0-25 11.2-25 25s11.2 25 25 25 25-11.2 25-25-11.2-25-25-25z"/><path fill="#0F1F2D" d="M126.7 78.8c.8 1.1 1.8 2.2 2.9 3.2 1.2 1 2.4 1.9 3.6 2.6 1.2.7 2.6 1.4 4.1 2.1h.1c-1.2-2.2-1.7-4.1-1.7-5.8 0-.9.2-1.7.6-2.5.4-.8 1-1.5 1.7-2.1.7-.6 1.4-1.2 2.3-1.9.8-.6 1.7-1.3 2.5-2s1.6-1.5 2.3-2.3c.7-.8 1.2-1.8 1.7-2.9.4-1.1.6-2.4.6-3.7 0-1.7-.2-3.3-.7-4.8-.5-1.5-1.1-2.8-1.9-3.9-.8-1.1-1.8-2.2-2.9-3.2s-2.4-1.9-3.6-2.6c-1.2-.7-2.6-1.4-4.1-2.1h-.1c1.1 2.2 1.7 4.2 1.7 5.8 0 .9-.2 1.7-.6 2.5-.4.8-1 1.5-1.7 2.1-.7.6-1.4 1.2-2.3 1.9-.8.6-1.7 1.3-2.5 2s-1.6 1.5-2.3 2.3c-.7.8-1.2 1.8-1.7 2.9-.4 1.1-.6 2.4-.6 3.7 0 1.7.2 3.3.7 4.8.5 1.5 1.2 2.8 1.9 3.9z"/><defs><path id="a" d="M379.4 351.1h-1.5v84h108v-84H379.4zm0 3h105l-1.5-1.5v81l1.5-1.5h-105l1.5 1.5v-81l-1.5 1.5zm-21.5-23h148v124h-148v-124z"/></defs><clipPath id="b"><use xlink:href="#a" overflow="visible"/></clipPath><g clip-path="url(#b)"><defs><path id="c" d="M379.4 352.6h105v81h-105z"/></defs></g><defs><path id="d" d="M379.4 352.6h105v81h-105z"/></defs><defs><path id="e" d="M373.4 368.1h-2.2l.9-2.1 9.1-22 .4-.9h100.9l.4.9 9.1 22 .9 2.1H373.4zm0-3h117l-1.4 2.1-9.1-22 1.4.9h-98.9l1.4-.9-9.1 22-1.3-2.1zm-22.3 23h161.5v-65H351.1v65z"/></defs><clipPath id="f"><use xlink:href="#e" overflow="visible"/></clipPath><g clip-path="url(#f)"><defs><path id="g" d="M373.4 366.6h117l-9.1-22h-98.8z"/></defs></g><defs><path id="h" d="M373.4 366.6h117l-9.1-22h-98.8z"/></defs><defs><path id="i" d="M458.4 335.1h-1.5v19h15v-19h-13.5zm0 3h12l-1.5-1.5v16l1.5-1.5h-12l1.5 1.5v-16l-1.5 1.5zm-21.5-23h55v59h-55v-59z"/></defs><clipPath id="j"><use xlink:href="#i" overflow="visible"/></clipPath><g clip-path="url(#j)"><defs><path id="k" d="M458.4 336.6h12v16h-12z"/></defs></g><defs><path id="l" d="M458.4 336.6h12v16h-12z"/></defs><defs><path id="m" d="M392.4 401.1h-1.5v34h24v-34h-22.5zm0 3h21l-1.5-1.5v31l1.5-1.5h-21l1.5 1.5v-31l-1.5 1.5zm-21.5-23h64v74h-64v-74z"/></defs><clipPath id="n"><use xlink:href="#m" overflow="visible"/></clipPath><g clip-path="url(#n)"><defs><path id="o" d="M392.4 402.6h21v31h-21z"/></defs></g><defs><path id="p" d="M392.4 402.6h21v31h-21z"/></defs><defs><path id="q" d="M393.4 373.1h-1.5v22h22v-22h-20.5zm0 3h19l-1.5-1.5v19l1.5-1.5h-19l1.5 1.5v-19l-1.5 1.5zm-21.5-23h62v62h-62v-62z"/></defs><clipPath id="r"><use xlink:href="#q" overflow="visible"/></clipPath><g clip-path="url(#r)"><defs><path id="s" d="M393.4 374.6h19v19h-19z"/></defs></g><defs><path id="t" d="M393.4 374.6h19v19h-19z"/></defs><defs><path id="u" d="M398.4 378.1h-1.5v12h12v-12h-10.5zm0 3h9l-1.5-1.5v9l1.5-1.5h-9l1.5 1.5v-9l-1.5 1.5zm-21.5-23h52v52h-52v-52z"/></defs><clipPath id="v"><use xlink:href="#u" overflow="visible"/></clipPath><g clip-path="url(#v)"><defs><path id="w" d="M398.4 379.6h9v9h-9z"/></defs></g><defs><path id="x" d="M398.4 379.6h9v9h-9z"/></defs><defs><path id="y" d="M423.4 373.1h-1.5v22h22v-22h-20.5zm0 3h19l-1.5-1.5v19l1.5-1.5h-19l1.5 1.5v-19l-1.5 1.5zm-21.5-23h62v62h-62v-62z"/></defs><clipPath id="z"><use xlink:href="#y" overflow="visible"/></clipPath><g clip-path="url(#z)"><defs><path id="A" d="M423.4 374.6h19v19h-19z"/></defs></g><defs><path id="B" d="M423.4 374.6h19v19h-19z"/></defs><defs><path id="C" d="M452.4 373.1h-1.5v22h22v-22h-20.5zm0 3h19l-1.5-1.5v19l1.5-1.5h-19l1.5 1.5v-19l-1.5 1.5zm-21.5-23h62v62h-62v-62z"/></defs><clipPath id="D"><use xlink:href="#C" overflow="visible"/></clipPath><g clip-path="url(#D)"><defs><path id="E" d="M452.4 374.6h19v19h-19z"/></defs></g><defs><path id="F" d="M452.4 374.6h19v19h-19z"/></defs><defs><path id="G" d="M423.4 401.1h-1.5v22h22v-22h-20.5zm0 3h19l-1.5-1.5v19l1.5-1.5h-19l1.5 1.5v-19l-1.5 1.5zm-21.5-23h62v62h-62v-62z"/></defs><clipPath id="H"><use xlink:href="#G" overflow="visible"/></clipPath><g clip-path="url(#H)"><defs><path id="I" d="M423.4 402.6h19v19h-19z"/></defs></g><defs><path id="J" d="M423.4 402.6h19v19h-19z"/></defs><defs><path id="K" d="M452.4 401.1h-1.5v22h22v-22h-20.5zm0 3h19l-1.5-1.5v19l1.5-1.5h-19l1.5 1.5v-19l-1.5 1.5zm-21.5-23h62v62h-62v-62z"/></defs><clipPath id="L"><use xlink:href="#K" overflow="visible"/></clipPath><g clip-path="url(#L)"><defs><path id="M" d="M452.4 402.6h19v19h-19z"/></defs></g><defs><path id="N" d="M452.4 402.6h19v19h-19z"/></defs><defs><path id="O" d="M428.4 378.1h-1.5v12h12v-12h-10.5zm0 3h9l-1.5-1.5v9l1.5-1.5h-9l1.5 1.5v-9l-1.5 1.5zm-21.5-23h52v52h-52v-52z"/></defs><clipPath id="P"><use xlink:href="#O" overflow="visible"/></clipPath><g clip-path="url(#P)"><defs><path id="Q" d="M428.4 379.6h9v9h-9z"/></defs></g><defs><path id="R" d="M428.4 379.6h9v9h-9z"/></defs><defs><path id="S" d="M457.4 378.1h-1.5v12h12v-12h-10.5zm0 3h9l-1.5-1.5v9l1.5-1.5h-9l1.5 1.5v-9l-1.5 1.5zm-21.5-23h52v52h-52v-52z"/></defs><clipPath id="T"><use xlink:href="#S" overflow="visible"/></clipPath><g clip-path="url(#T)"><defs><path id="U" d="M457.4 379.6h9v9h-9z"/></defs></g><defs><path id="V" d="M457.4 379.6h9v9h-9z"/></defs><defs><path id="W" d="M428.4 406.1h-1.5v12h12v-12h-10.5zm0 3h9l-1.5-1.5v9l1.5-1.5h-9l1.5 1.5v-9l-1.5 1.5zm-21.5-23h52v52h-52v-52z"/></defs><clipPath id="X"><use xlink:href="#W" overflow="visible"/></clipPath><g clip-path="url(#X)"><defs><path id="Y" d="M428.4 407.6h9v9h-9z"/></defs></g><defs><path id="Z" d="M428.4 407.6h9v9h-9z"/></defs><defs><path id="aa" d="M457.4 406.1h-1.5v12h12v-12h-10.5zm0 3h9l-1.5-1.5v9l1.5-1.5h-9l1.5 1.5v-9l-1.5 1.5zm-21.5-23h52v52h-52v-52z"/></defs><clipPath id="ab"><use xlink:href="#aa" overflow="visible"/></clipPath><g clip-path="url(#ab)"><defs><path id="ac" d="M457.4 407.6h9v9h-9z"/></defs></g><defs><path id="ad" d="M457.4 407.6h9v9h-9z"/></defs><defs><circle id="ae" cx="100.3" cy="376" r="15.7"/></defs><defs><path id="af" d="M100.3 393.3c-9.5 0-17.2-7.7-17.2-17.2s7.7-17.2 17.2-17.2 17.2 7.7 17.2 17.2c.1 9.4-7.7 17.2-17.2 17.2zm0-31.5c-7.9 0-14.2 6.4-14.2 14.2 0 7.9 6.4 14.2 14.2 14.2s14.2-6.4 14.2-14.2c.1-7.8-6.3-14.2-14.2-14.2z"/></defs><use xlink:href="#ae" overflow="visible" fill-rule="evenodd" clip-rule="evenodd" fill="#FFF"/><use xlink:href="#af" overflow="visible" fill="#0F1F2D"/><clipPath id="ag"><use xlink:href="#ae" overflow="visible"/></clipPath><clipPath id="ah" clip-path="url(#ag)"><use xlink:href="#af" overflow="visible"/></clipPath><g clip-path="url(#ah)"><defs><path id="ai" d="M37.2 109.7h405.6v372.7H37.2z"/></defs><defs><path id="aj" d="M444.3 483.9H35.7V108.2h408.6v375.7zm-405.6-3h402.6V111.2H38.7v369.7z"/></defs><use xlink:href="#ai" overflow="visible" fill="#FFF"/><use xlink:href="#aj" overflow="visible" fill="#0F1F2D"/></g><defs><path id="ak" d="M979.4 34.1h-1.5v84h108v-84H979.4zm0 3h105l-1.5-1.5v81l1.5-1.5h-105l1.5 1.5v-81l-1.5 1.5zm-21.5-23h148v124h-148v-124z"/></defs><clipPath id="al"><use xlink:href="#ak" overflow="visible"/></clipPath><g clip-path="url(#al)"><defs><path id="am" d="M979.4 35.6h105v81h-105z"/></defs></g><defs><path id="an" d="M979.4 35.6h105v81h-105z"/></defs><defs><path id="ao" d="M973.4 51.1h-2.2l.9-2.1 9.1-22 .4-.9h100.9l.4.9 9.1 22 .9 2.1H973.4zm0-3h117l-1.4 2.1-9.1-22 1.4.9h-98.9l1.4-.9-9.1 22-1.3-2.1zm-22.3 23h161.5v-65H951.1v65z"/></defs><clipPath id="ap"><use xlink:href="#ao" overflow="visible"/></clipPath><g clip-path="url(#ap)"><defs><path id="aq" d="M973.4 49.6h117l-9.1-22h-98.8z"/></defs></g><defs><path id="ar" d="M973.4 49.6h117l-9.1-22h-98.8z"/></defs><defs><path id="as" d="M1058.4 18.1h-1.5v19h15v-19h-13.5zm0 3h12l-1.5-1.5v16l1.5-1.5h-12l1.5 1.5v-16l-1.5 1.5zm-21.5-23h55v59h-55v-59z"/></defs><clipPath id="at"><use xlink:href="#as" overflow="visible"/></clipPath><g clip-path="url(#at)"><defs><path id="au" d="M1058.4 19.6h12v16h-12z"/></defs></g><defs><path id="av" d="M1058.4 19.6h12v16h-12z"/></defs><defs><path id="aw" d="M992.4 84.1h-1.5v34h24v-34h-22.5zm0 3h21l-1.5-1.5v31l1.5-1.5h-21l1.5 1.5v-31l-1.5 1.5zm-21.5-23h64v74h-64v-74z"/></defs><clipPath id="ax"><use xlink:href="#aw" overflow="visible"/></clipPath><g clip-path="url(#ax)"><defs><path id="ay" d="M992.4 85.6h21v31h-21z"/></defs></g><defs><path id="az" d="M992.4 85.6h21v31h-21z"/></defs><defs><path id="aA" d="M993.4 56.1h-1.5v22h22v-22h-20.5zm0 3h19l-1.5-1.5v19l1.5-1.5h-19l1.5 1.5v-19l-1.5 1.5zm-21.5-23h62v62h-62v-62z"/></defs><clipPath id="aB"><use xlink:href="#aA" overflow="visible"/></clipPath><g clip-path="url(#aB)"><defs><path id="aC" d="M993.4 57.6h19v19h-19z"/></defs></g><defs><path id="aD" d="M993.4 57.6h19v19h-19z"/></defs><defs><path id="aE" d="M998.4 61.1h-1.5v12h12v-12h-10.5zm0 3h9l-1.5-1.5v9l1.5-1.5h-9l1.5 1.5v-9l-1.5 1.5zm-21.5-23h52v52h-52v-52z"/></defs><clipPath id="aF"><use xlink:href="#aE" overflow="visible"/></clipPath><g clip-path="url(#aF)"><defs><path id="aG" d="M998.4 62.6h9v9h-9z"/></defs></g><defs><path id="aH" d="M998.4 62.6h9v9h-9z"/></defs><defs><path id="aI" d="M1023.4 56.1h-1.5v22h22v-22h-20.5zm0 3h19l-1.5-1.5v19l1.5-1.5h-19l1.5 1.5v-19l-1.5 1.5zm-21.5-23h62v62h-62v-62z"/></defs><clipPath id="aJ"><use xlink:href="#aI" overflow="visible"/></clipPath><g clip-path="url(#aJ)"><defs><path id="aK" d="M1023.4 57.6h19v19h-19z"/></defs></g><defs><path id="aL" d="M1023.4 57.6h19v19h-19z"/></defs><defs><path id="aM" d="M1052.4 56.1h-1.5v22h22v-22h-20.5zm0 3h19l-1.5-1.5v19l1.5-1.5h-19l1.5 1.5v-19l-1.5 1.5zm-21.5-23h62v62h-62v-62z"/></defs><clipPath id="aN"><use xlink:href="#aM" overflow="visible"/></clipPath><g clip-path="url(#aN)"><defs><path id="aO" d="M1052.4 57.6h19v19h-19z"/></defs></g><g><defs><path id="aP" d="M1052.4 57.6h19v19h-19z"/></defs></g><g><defs><path id="aQ" d="M1023.4 84.1h-1.5v22h22v-22h-20.5zm0 3h19l-1.5-1.5v19l1.5-1.5h-19l1.5 1.5v-19l-1.5 1.5zm-21.5-23h62v62h-62v-62z"/></defs><clipPath id="aR"><use xlink:href="#aQ" overflow="visible"/></clipPath><g clip-path="url(#aR)"><defs><path id="aS" d="M1023.4 85.6h19v19h-19z"/></defs></g></g><g><defs><path id="aT" d="M1023.4 85.6h19v19h-19z"/></defs></g><g><defs><path id="aU" d="M1052.4 84.1h-1.5v22h22v-22h-20.5zm0 3h19l-1.5-1.5v19l1.5-1.5h-19l1.5 1.5v-19l-1.5 1.5zm-21.5-23h62v62h-62v-62z"/></defs><clipPath id="aV"><use xlink:href="#aU" overflow="visible"/></clipPath><g clip-path="url(#aV)"><defs><path id="aW" d="M1052.4 85.6h19v19h-19z"/></defs></g></g><g><defs><path id="aX" d="M1052.4 85.6h19v19h-19z"/></defs></g><g><defs><path id="aY" d="M1028.4 61.1h-1.5v12h12v-12h-10.5zm0 3h9l-1.5-1.5v9l1.5-1.5h-9l1.5 1.5v-9l-1.5 1.5zm-21.5-23h52v52h-52v-52z"/></defs><clipPath id="aZ"><use xlink:href="#aY" overflow="visible"/></clipPath><g clip-path="url(#aZ)"><defs><path id="ba" d="M1028.4 62.6h9v9h-9z"/></defs></g></g><g><defs><path id="bb" d="M1028.4 62.6h9v9h-9z"/></defs></g><g><defs><path id="bc" d="M1057.4 61.1h-1.5v12h12v-12h-10.5zm0 3h9l-1.5-1.5v9l1.5-1.5h-9l1.5 1.5v-9l-1.5 1.5zm-21.5-23h52v52h-52v-52z"/></defs><clipPath id="bd"><use xlink:href="#bc" overflow="visible"/></clipPath><g clip-path="url(#bd)"><defs><path id="be" d="M1057.4 62.6h9v9h-9z"/></defs></g></g><g><defs><path id="bf" d="M1057.4 62.6h9v9h-9z"/></defs></g><g><defs><path id="bg" d="M1028.4 89.1h-1.5v12h12v-12h-10.5zm0 3h9l-1.5-1.5v9l1.5-1.5h-9l1.5 1.5v-9l-1.5 1.5zm-21.5-23h52v52h-52v-52z"/></defs><clipPath id="bh"><use xlink:href="#bg" overflow="visible"/></clipPath><g clip-path="url(#bh)"><defs><path id="bi" d="M1028.4 90.6h9v9h-9z"/></defs></g></g><g><defs><path id="bj" d="M1028.4 90.6h9v9h-9z"/></defs></g><g><defs><path id="bk" d="M1057.4 89.1h-1.5v12h12v-12h-10.5zm0 3h9l-1.5-1.5v9l1.5-1.5h-9l1.5 1.5v-9l-1.5 1.5zm-21.5-23h52v52h-52v-52z"/></defs><clipPath id="bl"><use xlink:href="#bk" overflow="visible"/></clipPath><g clip-path="url(#bl)"><defs><path id="bm" d="M1057.4 90.6h9v9h-9z"/></defs></g></g><g><defs><path id="bn" d="M1057.4 90.6h9v9h-9z"/></defs></g></svg>