<svg id="Layer_1" data-name="Layer 1" xmlns="http://www.w3.org/2000/svg" viewBox="0 0 276 137"><defs><style>.cls-1,.cls-8,.cls-9{fill:none}.cls-2{clip-path:url(#clip-path)}.cls-3{clip-path:url(#clip-path-2)}.cls-4{clip-path:url(#clip-path-3)}.cls-5{clip-path:url(#clip-path-4)}.cls-6{clip-path:url(#clip-path-5)}.cls-7{clip-path:url(#clip-path-6)}.cls-8,.cls-9{stroke:#0e1f2d;stroke-linecap:round;stroke-miterlimit:10;stroke-width:3px}.cls-9{stroke-dasharray:.25 4.92}</style><clipPath id="clip-path"><circle class="cls-1" cx="-158" cy="67.27" r="50.5"/></clipPath><clipPath id="clip-path-2"><circle class="cls-1" cx="-158" cy="67.27" r="43.5"/></clipPath><clipPath id="clip-path-3"><circle class="cls-1" cx="137.48" cy="384.59" r="50.5"/></clipPath><clipPath id="clip-path-4"><circle class="cls-1" cx="137.48" cy="384.59" r="43.5"/></clipPath><clipPath id="clip-path-5"><circle class="cls-1" cx="434" cy="-87.5" r="50.5"/></clipPath><clipPath id="clip-path-6"><circle class="cls-1" cx="434" cy="-87.5" r="43.5"/></clipPath></defs><title>EXPERIENTIAL ICONS</title><path class="cls-8" d="M125.82 98.24a106 106 0 0 0 12.18 17.3 107.45 107.45 0 0 0 11.76-16.46c-5.1-1.5-10-3.62-13-6.56-2.67 2.48-6.65 4.32-10.94 5.72zM150.39 39.06A105.51 105.51 0 0 0 138 21.46a103.83 103.83 0 0 0-12.79 18.43c4.46 1.37 8.67 3.22 11.55 5.7 3.24-2.97 8.37-5.06 13.63-6.53zM107.66 57.53A107 107 0 0 0 91 69.38 107.63 107.63 0 0 0 107.29 81c1.44-4.68 3.4-9.1 6.06-12-2.47-2.84-4.35-7-5.69-11.47zM166.85 82A104.35 104.35 0 0 0 185 69.37a103.62 103.62 0 0 0-18.57-12.83C165 61.4 163 66 160.28 69c2.95 3.05 5.06 7.92 6.57 13z"/><path class="cls-8" d="M121.39 52.55c0-3.86 1.62-8.33 3.84-12.67a105.18 105.18 0 0 0-21.37-3.78 105.09 105.09 0 0 0 3.8 21.43c4.62-2.53 9.51-4.53 13.74-4.73 0-.08-.01-.16-.01-.25zM166.85 82c-4.17 2.16-8.48 3.77-12.26 3.94-.41 4.1-2.38 8.74-4.83 13.12a106.23 106.23 0 0 0 20.64 3.55A106.28 106.28 0 0 0 166.85 82zM154.67 52.8c3.65.18 7.78 1.69 11.8 3.74a106.08 106.08 0 0 0 3.59-20.76 107.77 107.77 0 0 0-19.68 3.28c2.45 4.59 4.29 9.39 4.29 13.49.01.09 0 .17 0 .25zM107.29 81a105.33 105.33 0 0 0-3.75 21.28 103.51 103.51 0 0 0 22.28-4.07c-2.23-4.12-4-8.43-4.35-12.27-4.36-.14-9.47-2.25-14.18-4.94z"/><circle class="cls-8" cx="137.48" cy="69.21" r="20.59"/><circle class="cls-9" cx="137.72" cy="69.07" r="14.8"/></svg>