<svg data-name="Layer 1" xmlns="http://www.w3.org/2000/svg" viewBox="0 0 66 66"><circle cx="33" cy="33" r="31.42" fill="#fff"/><circle cx="33" cy="33" r="31.42" fill="none" stroke="#091f2f" stroke-miterlimit="10" stroke-width="3"/><path d="M28.56 38.76c-.38-1.31-3.35-11.68-4-14.12l.58-.17c.17.48.36 1 .5 1.44.57 1.95 1.11 3.92 1.71 5.87.84-.25 1.66-.52 2.49-.82-.52-1.65-1-3.31-1.51-5-1.77-5.81-2-6-8.08-5.92-3 0-4.1.87-5 3.73-.8 2.54-1.66 5.05-2.5 7.58a20.69 20.69 0 0 1 2.63 1c0-.12.08-.22.12-.35.55-1.79 1-3.61 1.56-5.41.22-.73.49-1.44.74-2.16l.5.16-4 14.25H18v2c0 2.7-.05 5.4.07 8.09H21v-8.72a14.09 14.09 0 0 1 .16-1.44h.49c.05.54.14 1.07.15 1.6v8.55h2.85V38.68zM50.64 26.8v-1.73h.55c0 .49.11 1 .12 1.46v6.34h2.59c.1-2.88.1-5.77 0-8.66a4 4 0 0 0-4.11-4.06c-1.94-.05-3.87 0-5.8 0-2.84 0-4.4 1.49-4.46 4.34s0 5.71 0 8.56h2.71v-6.78a9.9 9.9 0 0 1 .17-1.2l.5.05v23.63h3.57V36.74c0-.52.07-1 .1-1.56h.43v13.6h3.73v-.85z" fill="#091f2e" stroke="#fff" stroke-miterlimit="10" stroke-width=".25"/><path d="M32.61 13.46h3.29V50.7h-3.29z" fill="#091f2e"/><circle cx="21.1" cy="16.4" r="2.94" fill="#091f2e"/><circle cx="47.1" cy="16.4" r="2.94" fill="#091f2e"/></svg>