<svg xmlns="http://www.w3.org/2000/svg" viewBox="0 0 65.83 65.83"><g data-name="Layer 2"><g data-name="Layer 1"><circle cx="32.92" cy="32.92" r="31.42" fill="#fff"/><circle cx="32.92" cy="32.92" r="31.42" fill="none" stroke="#091f2f" stroke-miterlimit="10" stroke-width="3"/><path d="M28.47 38.68c-.37-1.31-3.35-11.69-4-14.13l.59-.17c.17.48.36 1 .5 1.44.57 2 1.1 3.92 1.7 5.87.83-.24 1.66-.52 2.48-.81-.51-1.65-1-3.32-1.5-5-1.77-5.82-2-5.95-8.08-5.92-3 0-4.11.87-5 3.73-.8 2.54-1.66 5.05-2.49 7.57a23 23 0 0 1 2.63 1c0-.11.08-.21.12-.34.54-1.8 1-3.61 1.56-5.41.22-.73.49-1.44.73-2.16l.5.15-4 14.25H18v2.06c0 2.7-.05 5.4.06 8.09H21v-.51-8.22a13.87 13.87 0 0 1 .15-1.43h.5c.05.53.14 1.07.14 1.6v8.55h2.86V38.65zM50.56 26.72V25h.55c0 .49.11 1 .11 1.47v6.34h2.59c.1-2.88.09-5.77 0-8.66A4 4 0 0 0 49.73 20h-5.8c-2.83 0-4.39 1.5-4.46 4.35s0 5.7 0 8.56h2.71v-6.79a8.25 8.25 0 0 1 .17-1.2l.49.06V48.67h3.57v-.74-11.27c0-.52.07-1 .1-1.56h.43v13.59h3.72v-.85z" fill="#091f2e" stroke="#fff" stroke-miterlimit="10" stroke-width=".25"/><path d="M32.53 13.38h3.29v37.24h-3.29z" fill="#091f2e"/><circle cx="21.02" cy="16.31" r="2.94" fill="#091f2e"/><circle cx="47.02" cy="16.31" r="2.94" fill="#091f2e"/><path fill="none" d="M48.92 33.92v15M44.92 33.92v9"/></g></g></svg>