<svg xmlns="http://www.w3.org/2000/svg" xmlns:xlink="http://www.w3.org/1999/xlink" viewBox="0 0 66 66"><defs><circle id="a" cx="33" cy="33" r="31.4"/></defs><use xlink:href="#a" overflow="visible" fill-rule="evenodd" clip-rule="evenodd" fill="none" stroke="#091F2F" stroke-width="3" stroke-miterlimit="10"/><path fill="none" stroke="#091F2F" stroke-width="3" stroke-miterlimit="10" d="M20.3 26.6l-2 23.3M46.5 26.6l2 23.3"/><path fill="#FFF" stroke="#091F2F" stroke-width="3" stroke-miterlimit="10" d="M13.5 20.2h39.2v5.7H13.5zM13.5 30.9h39.2v5.7H13.5z"/><path fill="none" stroke="#091F2F" stroke-width="3" stroke-miterlimit="10" d="M20.3 43h26.2M19.9 20.5l-3.6 5M25.9 20.5l-3.6 5M31.9 20.5l-3.7 5M37.8 20.5l-3.6 5M43.8 20.5l-3.6 5M49.8 20.5l-3.6 5M19.9 31.2l-3.6 5M25.9 31.2l-3.6 5M31.9 31.2l-3.7 5M37.8 31.2l-3.6 5M43.8 31.2l-3.6 5M49.8 31.2l-3.6 5"/></svg>