<svg xmlns="http://www.w3.org/2000/svg" viewBox="0 0 65.83 65.83"><g data-name="Layer 2"><g data-name="Layer 1"><circle cx="32.92" cy="32.92" r="31.42" fill="#fff"/><circle cx="32.92" cy="32.92" r="31.42" fill="none" stroke="#091f2f" stroke-miterlimit="10" stroke-width="3"/><path d="M25.71 36.25V27h-7.93l-2.33 4.86a55.58 55.58 0 0 0-6.32 1.69l-.38.13v7.83H55.5v-5.26zm-1.88-1.43h-6.28v-2.1l1.66-3.57h4.62z" fill="#091f2f"/><circle cx="17.1" cy="42.57" r="4" fill="#091f2f"/><path d="M17.1 47.12a4.55 4.55 0 1 1 4.55-4.55 4.55 4.55 0 0 1-4.55 4.55zm0-8a3.46 3.46 0 1 0 3.45 3.46 3.46 3.46 0 0 0-3.45-3.47z" fill="#091f2f"/><circle cx="49.06" cy="42.57" r="4" fill="#091f2f"/><path d="M49.06 47.12a4.55 4.55 0 1 1 4.55-4.55 4.55 4.55 0 0 1-4.55 4.55zm0-8a3.46 3.46 0 1 0 3.46 3.46 3.46 3.46 0 0 0-3.46-3.47z" fill="#091f2f"/><circle cx="17.04" cy="42.52" r="1.82" fill="#091f2f"/><path d="M17 44.88a2.37 2.37 0 1 1 2.37-2.36A2.36 2.36 0 0 1 17 44.88zm0-3.63a1.27 1.27 0 1 0 1.27 1.27A1.27 1.27 0 0 0 17 41.25zM23.83 23.33v15.24H55.5V23.33zm24.63 12.41H29v-9.58h19.46z" fill="#091f2f"/><path fill="#091f2f" d="M29.58 26.72h18.33v1.57H29.58z"/></g></g></svg>