<svg xmlns="http://www.w3.org/2000/svg" viewBox="0 0 65.83 65.83"><g data-name="Layer 2"><g data-name="Layer 1"><circle cx="32.92" cy="32.92" r="31.42" fill="#fff"/><circle cx="32.92" cy="32.92" r="31.42" fill="none" stroke="#091f2f" stroke-miterlimit="10" stroke-width="3"/><path d="M38.05 25.46a3.12 3.12 0 0 0 2.19.77A3.06 3.06 0 0 0 39.8 24a3.08 3.08 0 0 0-2.18-.77 3 3 0 0 0 .43 2.28z" fill="#091f2f"/><path d="M42.24 27.85a1.73 1.73 0 0 0-3.43-.44c-.23 1.8-1.85 2.95-2 4.44a3.19 3.19 0 0 0 6.32.82c.15-1.5-1.13-2.96-.89-4.82z" fill="#091f2f"/><path d="M41.11 26.18l-.9-.12a7.45 7.45 0 0 0 0-1c0-1.09 0-2.33 1.69-2.58l.14.89c-.86.13-.91.54-.92 1.7.04.3.04.7-.01 1.11z" fill="#0f1f2d"/><circle cx="37.24" cy="30.15" r="3.92" fill="#091f2f"/><circle cx="33.11" cy="32.21" r="3.92" fill="#091f2f"/><circle cx="41.16" cy="33.58" r="3.92" fill="#091f2f"/><path d="M35 25.07a1.73 1.73 0 1 0-3.38-.72c-.38 1.77-2.08 2.78-2.4 4.26a3.19 3.19 0 1 0 6.23 1.33c.3-1.48-.86-3.03-.45-4.87z" fill="#091f2f"/><path d="M34 23.31l-.88-.19a9.23 9.23 0 0 0 .14-1c.1-1 .21-2.15 1.89-2.27l.06.9c-.88.06-1 .38-1.05 1.46a10.07 10.07 0 0 1-.16 1.1zM25 23a3.11 3.11 0 0 0 0 2.32 3.11 3.11 0 0 0 2-1.11 3.11 3.11 0 0 0 .06-2.32A3.11 3.11 0 0 0 25 23z" fill="#0f1f2d"/><path d="M27 24.21a3.11 3.11 0 0 1-2 1.11A3.11 3.11 0 0 1 25 23a3.11 3.11 0 0 1 2-1.11 3.11 3.11 0 0 1 0 2.32z" fill="#091f2f"/><path d="M26.9 25.73a1.73 1.73 0 1 0-3.08 1.57c.82 1.61.13 3.47.82 4.82a3.18 3.18 0 1 0 5.67-2.9c-.68-1.34-2.56-1.82-3.41-3.49z" fill="#091f2f"/><path d="M24.21 25.39c-.08-.17-.16-.32-.24-.47-.57-1.06-1.06-2 .3-3.24l.61.66c-.85.79-.68 1.11-.12 2.16l.24.5z" fill="#0f1f2d"/><circle cx="24.94" cy="32.45" r="3.97" fill="#091f2f"/><path fill="#0f1f2d" d="M18.59 32.65h28.66v2.62H18.59z"/><path d="M19.81 34.89l2.65 14.91h20.91L46 34.89zm7.91 12.66h-2.58V37.47h2.58zm6.32 0h-2.58V37.47H34zm6.38 0h-2.58V37.47h2.58z" fill="#0f1f2d"/><path d="M20.67 33.58v-7.35a12.44 12.44 0 0 1 24.88-.14v7.49" fill="none" stroke="#0f1f2d" stroke-miterlimit="10" stroke-width="1.5"/></g></g></svg>