<svg data-name="Layer 1" xmlns="http://www.w3.org/2000/svg" viewBox="0 0 66 66"><circle cx="33" cy="32.95" r="31.42" fill="#fff"/><circle cx="33" cy="32.95" r="31.42" fill="none" stroke="#091f2f" stroke-miterlimit="10" stroke-width="3"/><path d="M51.73 46.71c-.72 1-.83 1.35-1.34 1.35s-.7-.3-1.43-1.35S47.11 44 44.84 44s-3.38 1.65-4.14 2.74-1 1.35-1.51 1.35-.78-.3-1.51-1.35S35.78 44 33.52 44s-3.41 1.65-4.17 2.74-1 1.35-1.51 1.35-.8-.3-1.53-1.35S24.41 44 22.15 44s-3.41 1.62-4.15 2.71-1 1.35-1.53 1.35-.66-.3-1.39-1.35S13.25 44 11 44v3.22c.56 0 .68.3 1.41 1.35s1.87 2.74 4.13 2.74 3.37-1.65 4.13-2.74 1-1.35 1.5-1.35.78.3 1.51 1.35 1.9 2.74 4.16 2.74 3.41-1.65 4.16-2.74 1-1.35 1.52-1.35.79.3 1.52 1.35 1.9 2.74 4.17 2.74 3.4-1.65 4.16-2.74 1-1.35 1.52-1.35.79.3 1.52 1.35 1.9 2.74 4.16 2.74 3-1.65 3.81-2.74a2.89 2.89 0 0 0 .62-1.21V44a7.77 7.77 0 0 0-3.27 2.71zM51.73 36.07c-.72 1-.83 1.35-1.34 1.35s-.7-.31-1.43-1.35-1.85-2.74-4.12-2.74-3.38 1.67-4.14 2.74-1 1.35-1.51 1.35-.78-.31-1.51-1.36-1.9-2.73-4.16-2.73-3.41 1.67-4.17 2.74-1 1.35-1.51 1.35-.8-.31-1.53-1.35-1.9-2.74-4.16-2.74S18.74 35 18 36.07s-1 1.35-1.53 1.35-.66-.31-1.39-1.35-1.83-2.74-4.08-2.74v3.22c.56 0 .68.3 1.41 1.35s1.87 2.74 4.13 2.74 3.37-1.64 4.13-2.74 1-1.35 1.5-1.35.78.3 1.51 1.35 1.9 2.74 4.16 2.74S31.25 39 32 37.9s1-1.35 1.52-1.35.79.3 1.52 1.35 1.9 2.74 4.17 2.74 3.4-1.65 4.16-2.74 1-1.35 1.52-1.35.79.3 1.52 1.35 1.9 2.74 4.16 2.74 3-1.65 3.81-2.74a2.89 2.89 0 0 0 .62-1.18v-3.36a7.87 7.87 0 0 0-3.27 2.71z" fill="#091f2f"/><path d="M32.5 35V20s-.72-5.5 4.28-5.5H37M41.5 37V20s-.72-5.5 4.28-5.5H46M32 22.5h9M32 29.5h9" fill="none" stroke="#091f2f" stroke-miterlimit="10" stroke-width="3"/></svg>