<svg xmlns="http://www.w3.org/2000/svg" viewBox="0 0 65.83 65.83"><g data-name="Layer 2"><g data-name="Layer 1"><circle cx="32.92" cy="32.92" r="31.42" fill="#fff"/><path d="M32.92 65.83a32.92 32.92 0 1 1 32.91-32.91 33 33 0 0 1-32.91 32.91zm0-62.83a29.92 29.92 0 1 0 29.91 29.92A30 30 0 0 0 32.92 3z" fill="#091f2f"/><circle cx="32.98" cy="33.28" r="21.86" fill="#091f2f"/><path d="M46.87 29.07c0 6.51-4.06 10.29-11.12 10.29h-4.93V47H23.6V19.36h12.15c7.06 0 11.12 3.55 11.12 9.71zM40 29.3c0-2.72-1.7-4.18-4.62-4.18h-4.56v8.48h4.57c2.92 0 4.61-1.5 4.61-4.3z" fill="#fff"/><path fill="#fff" d="M18.242 15.437l2.283-1.947 30.266 35.487-2.283 1.946z"/></g></g></svg>