<svg data-name="Layer 1" xmlns="http://www.w3.org/2000/svg" viewBox="0 0 66 66"><circle cx="33" cy="33" r="31.42" fill="#fff"/><circle cx="33" cy="33" r="31.42" fill="none" stroke="#091f2f" stroke-miterlimit="10" stroke-width="3"/><path d="M45.68 49.88c-.15-2.31-5.28-4.16-11.6-4.16s-11.45 1.85-11.61 4.16zM36.49 36.88c0 1.48-2.69 4.41-2.69 4.41s-2.69-2.93-2.69-4.41a2.69 2.69 0 1 1 5.38 0zM36.49 27.19c0 1.48-2.69 4.41-2.69 4.41s-2.69-2.93-2.69-4.41a2.69 2.69 0 0 1 5.38 0zM36.49 18.57c0 1.49-2.69 4.42-2.69 4.42s-2.69-2.93-2.69-4.42a2.69 2.69 0 0 1 5.38 0zM42.53 41.72c-.91 1.17-4.84 1.82-4.84 1.82s-.3-4 .61-5.14a2.69 2.69 0 0 1 4.23 3.32zM47.85 35c-.92 1.11-4.85 1.76-4.85 1.76s-.3-4 .61-5.13A2.69 2.69 0 1 1 47.85 35zM53.17 28.17c-.92 1.17-4.84 1.83-4.84 1.83s-.31-4 .61-5.13a2.69 2.69 0 0 1 4.23 3.32zM24.53 41.72c.92 1.17 4.84 1.82 4.84 1.82s.31-4-.61-5.14a2.69 2.69 0 0 0-4.23 3.32zM19.21 35c.92 1.16 4.84 1.81 4.84 1.81s.31-4-.61-5.13A2.69 2.69 0 1 0 19.21 35zM13.9 28.17c.91 1.17 4.84 1.81 4.84 1.81s.3-4-.61-5.13a2.69 2.69 0 0 0-4.23 3.32z" fill="#091f2f"/></svg>