<svg xmlns="http://www.w3.org/2000/svg" xmlns:xlink="http://www.w3.org/1999/xlink" viewBox="0 0 180.7 40.3"><g fill="#FFF"><path d="M.9 1h21.8v5.6h-7.3v22.7H8.2V6.6H.9V1zM49.9 1.1v28.2h-7.1v-12H32.5v12h-7.1V1.1h7.1v10.2h10.3V1.1h7.1zM56.7 1.1h20.9v5.5H63.7v5.1h12.9V17H63.7v6.7h15.1v5.6H56.7V1.1zM118 1.1v28.2h-7v-12h-10.3v12h-7.1V1.1h7.1v10.2H111V1.1h7zM148.7 1.1v15.8c0 2.7-.1 5.4-1.6 8-3 4.9-9.3 5.1-10.5 5.1-2.1 0-4.6-.5-6.6-1.5-5.4-2.8-5.4-7.8-5.4-11.6V1.1h7.1v17.6c0 1.4 0 2.6.5 3.5.9 1.5 2.8 1.9 4.6 1.9 4.8 0 4.8-3.3 4.8-5.5V1.1h7.1zM155.2 1.1h10.9c3 0 5.6.1 7.4.7 3.5 1.1 4.9 3.9 4.9 6.6 0 1.5-.4 2.4-.5 2.7-1.3 2.9-4 3.4-5.5 3.8 1.7.3 4 .6 5.6 2.4 1 1.1 1.6 2.6 1.6 4.2 0 2.2-1.2 5.3-4.7 6.8-2.1.9-4.4 1-7.6 1h-11.9V1.1zm6.8 5.3v5.9h5.3c1.6 0 4.2-.1 4.2-3 0-2.7-2.4-2.8-3.7-2.8H162zm0 11v6.8h4.9c2.4 0 5.4-.1 5.4-3.4 0-3.4-2.8-3.4-4.2-3.5H162z"/></g><defs><path id="a" d="M93.5 35.6h85.9v3.6H93.5z"/></defs><clipPath id="b"><use xlink:href="#a" overflow="visible"/></clipPath><g clip-path="url(#b)"><defs><path id="c" d="M18 15.3h161.5v24H18z"/></defs><clipPath id="d"><use xlink:href="#c" overflow="visible"/></clipPath><path clip-path="url(#d)" fill="#EF5146" d="M89 30.6h95v13.6H89z"/></g></svg>
