<svg xmlns="http://www.w3.org/2000/svg" viewBox="0 0 1280 634.328"><path fill="#fff" d="M2 218.128h1278.2v416.2H2z"/><path fill="#091f2f" d="M2-165.672h1278.2v729H2z"/><path fill="#091f2f" d="M2-165.672h1278v730.7H2z"/><path fill="#fff" d="M412.9 428.728h282v133.8h-282z"/><path d="M696.4 564.028h-285v-136.8h285v136.8zm-282-3h279v-130.8h-279v130.8z" fill="#091f2f"/><path fill="#fff" d="M413.1 428.328l137.1-96.6 144.8 96.6z"/><path d="M699.9 430.328H408.4l141.8-99.9.9.6 148.8 99.3zm-282.1-3H690l-139.8-93.3-132.4 93.3z" fill="#091f2f"/><path fill="#fff" d="M141.1 422.228h208.4v140.3H141.1z"/><path d="M351 564.028H139.6v-143.3H351v143.3zm-208.4-3H348v-137.3H142.6v137.3z" fill="#091f2f"/><path fill="#fff" d="M522.1 228.328h62.3v55.3h-62.3z"/><path d="M586 285.028h-65.3v-58.3H586v58.3zm-62.4-3H583v-52.3h-59.3v52.3z" fill="#091f2f"/><path fill="#fff" d="M517.3 283.328h71.5v55.3h-71.5z"/><path d="M590.3 340.128h-74.5v-58.3h74.5v58.3zm-71.5-3h68.5v-52.3h-68.5v52.3z" fill="#091f2f"/><path fill="#fff" d="M494.2 316.028h116.9v81.3H494.2z"/><path d="M612.6 398.828H492.7v-84.3h119.9v84.3zm-116.9-3h113.9v-78.3H495.7v78.3z" fill="#091f2f"/><path fill="#fff" d="M494.2 397.328h116.9v81.3H494.2z"/><path d="M612.6 480.128H492.7v-84.3h119.9v84.3zm-116.9-3h113.9v-78.3H495.7v78.3z" fill="#091f2f"/><path fill="#fff" d="M494.2 478.628h116.9v83.9H494.2z"/><path d="M612.6 564.028H492.7v-86.9h119.9v86.9zm-116.9-3h113.9v-80.9H495.7v80.9z" fill="#091f2f"/><path fill="#fff" d="M145 386.628h200.8l20.4 41.7H124.6z"/><path d="M368.6 429.828H122.2l21.8-44.8h202.7l21.9 44.8zm-241.6-3h236.8l-18.9-38.8h-199l-18.9 38.8z" fill="#091f2f"/><path fill="#fff" d="M503.9 266.828v-3l8.9 52.4h-17.9z"/><path d="M514.6 317.728h-21.5l9.3-51v-2.9l3-.3 9.2 54.2zm-17.9-3H511l-7-40.6-7.3 40.6z" fill="#091f2f"/><path fill="#fff" d="M602.1 266.828v-3l9 52.4h-17.9z"/><path d="M612.9 317.728h-21.5l9.3-51v-2.9l3-.3 9.2 54.2zm-17.9-3h14.3l-7-40.6-7.3 40.6z" fill="#091f2f"/><path fill="#fff" d="M526.6 206.528v-3l4.3 24.5h-8.5z"/><path d="M532.6 229.528h-12l4.5-23.2v-2.9l3-.3 4.5 26.4zm-8.3-3h4.8l-2.2-13.1-2.6 13.1z" fill="#091f2f"/><path fill="#fff" d="M579.9 206.528v-3l4.2 24.5h-8.4z"/><path d="M585.9 229.528h-12l4.5-23.2v-2.9l3-.3 4.5 26.4zm-8.4-3h4.8l-2.2-13.1-2.6 13.1z" fill="#091f2f"/><path fill="#fff" d="M553.1 73.328l17.6 99.9h-35.3z"/><path d="M572.5 174.728h-38.8l19.4-110 19.4 110zm-35.3-3h31.7l-15.8-89.8-15.9 89.8z" fill="#091f2f"/><path fill="#fff" d="M302.7 370.328H321v26.5h-18.3z"/><path d="M322.5 398.228h-21.3v-29.5h21.3v29.5zm-18.3-3h15.3v-23.5h-15.3v23.5z" fill="#091f2f"/><path fill="#fff" d="M163.5 507.528h39v55h-39z"/><path d="M204 564.028h-42v-58h42v58zm-39-3h36v-52h-36v52z" fill="#091f2f"/><path fill="#fff" d="M164.3 448.128h39v37.2h-39z"/><path d="M204.8 486.828h-42v-40.2h42v40.2zm-39-3h36v-34.2h-36v34.2z" fill="#091f2f"/><path fill="#fff" d="M176.8 460.028h14v13.4h-14z"/><path d="M192.3 474.928h-17v-16.4h17v16.4zm-14-3h11v-10.4h-11v10.4z" fill="#091f2f"/><path fill="#fff" d="M226.3 448.128h39v37.2h-39z"/><path d="M266.8 486.828h-42v-40.2h42v40.2zm-39-3h36v-34.2h-36v34.2z" fill="#091f2f"/><path fill="#fff" d="M238.8 460.028h14v13.4h-14z"/><path d="M254.3 474.928h-17v-16.4h17v16.4zm-14-3h11v-10.4h-11v10.4z" fill="#091f2f"/><path fill="#fff" d="M287.4 448.128h39v37.2h-39z"/><path d="M327.9 486.828h-42v-40.2h42v40.2zm-39-3h36v-34.2h-36v34.2z" fill="#091f2f"/><path fill="#fff" d="M299.9 460.028h14v13.4h-14z"/><path d="M315.4 474.928h-17v-16.4h17v16.4zm-14-3h11v-10.4h-11v10.4z" fill="#091f2f"/><path fill="#fff" d="M226.3 507.828h39v37.2h-39z"/><path d="M266.8 546.528h-42v-40.2h42v40.2zm-39-3h36v-34.2h-36v34.2z" fill="#091f2f"/><path fill="#fff" d="M238.8 519.728h14v13.4h-14z"/><path d="M254.3 534.528h-17v-16.4h17v16.4zm-14-3h11v-10.4h-11v10.4z" fill="#091f2f"/><path fill="#fff" d="M287.4 507.828h39v37.2h-39z"/><path d="M327.9 546.528h-42v-40.2h42v40.2zm-39-3h36v-34.2h-36v34.2z" fill="#091f2f"/><path fill="#fff" d="M299.9 519.728h14v13.4h-14z"/><path d="M315.4 534.528h-17v-16.4h17v16.4zm-14-3h11v-10.4h-11v10.4z" fill="#091f2f"/><path fill="#fff" d="M-3.5 422.228h84.2v140.3H-3.5z"/><path d="M82.2 564.028H-5v-143.3h87.2v143.3zm-84.2-3h81.2v-137.3H-2v137.3z" fill="#091f2f"/><path fill="#fff" d="M77 386.628H-5.8v41.7H97.4z"/><path d="M99.8 429.828H-7.3v-44.8h85.2l21.9 44.8zm-104.1-3H95l-19-38.7H-4.3v38.7z" fill="#091f2f"/><path fill="#fff" d="M33.8 370.328h18.3v26.5H33.8z"/><path d="M53.7 398.228H32.3v-29.5h21.3v29.5zm-18.4-3h15.3v-23.5H35.3v23.5z" fill="#091f2f"/><path fill="#fff" d="M18.5 448.128h39v37.2h-39z"/><path d="M59.1 486.828H17v-40.2h42v40.2zm-39.1-3h36v-34.2H20v34.2z" fill="#091f2f"/><path fill="#fff" d="M31 460.028h14v13.4H31z"/><path d="M46.6 474.928h-17v-16.4h17v16.4zm-14.1-3h11v-10.4h-11v10.4z" fill="#091f2f"/><path fill="#fff" d="M18.5 507.828h39v37.2h-39z"/><path d="M59.1 546.528H17v-40.2h42v40.2zm-39.1-3h36v-34.2H20v34.2z" fill="#091f2f"/><path fill="#fff" d="M31 519.728h14v13.4H31z"/><path d="M46.6 534.528h-17v-16.4h17v16.4zm-14.1-3h11v-10.4h-11v10.4z" fill="#091f2f"/><path d="M572.7 276.428h-14.3v-32.1s.4-6.5 7.2-6.5 7.2 6.5 7.2 6.5v32.1z" fill="#fff"/><path d="M574.2 277.928h-17.3v-33.6c.2-2.8 2.2-8 8.7-8 6.5 0 8.5 5.2 8.7 7.9l-.1 33.7zm-14.3-3h11.3v-30.5c-.1-.7-.7-5.1-5.7-5.1-5.3 0-5.7 4.9-5.7 5.1l.1 30.5z" fill="#091f2f"/><path d="M548.5 276.428h-14.3v-32.1s.4-6.5 7.2-6.5 7.2 6.5 7.2 6.5v32.1z" fill="#fff"/><path d="M550 277.928h-17.3v-33.6c.2-2.8 2.2-8 8.7-8 6.5 0 8.5 5.2 8.7 7.9l-.1 33.7zm-14.4-3H547v-30.5c-.1-.7-.7-5.1-5.7-5.1-5.3 0-5.7 4.9-5.7 5.1v30.5z" fill="#091f2f"/><path fill="#fff" d="M534.1 172.928h38.5v55.3h-38.5z"/><path d="M574.2 229.728h-41.5v-58.3h41.5v58.3zm-38.6-3h35.5v-52.3h-35.5v52.3z" fill="#091f2f"/><path d="M560.2 221.128h-14.3v-32.1s.4-6.5 7.2-6.5 7.2 6.5 7.2 6.5v32.1z" fill="#fff"/><path d="M561.7 222.628h-17.3v-33.6c.2-2.8 2.2-8 8.7-8 6.5 0 8.5 5.2 8.7 7.9l-.1 33.7zm-14.3-3h11.3v-30.5c-.1-.7-.7-5.1-5.7-5.1-5.3 0-5.7 4.9-5.7 5.1l.1 30.5z" fill="#091f2f"/><path d="M566.2 378.828h-30v-34.2s.9-9.6 15-9.6 15 9.6 15 9.6v34.2z" fill="#fff"/><path d="M567.7 380.328h-33v-35.8c0-.1 1.2-10.9 16.5-10.9 7.9 0 11.9 2.9 14 5.3 2.3 2.7 2.5 5.5 2.6 5.6v35.8zm-30-3h27v-32.6c-.1-.8-1.4-8.2-13.5-8.2s-13.4 7.5-13.5 8.2v32.6z" fill="#091f2f"/><path d="M566.2 459.828h-30v-34.2s.9-9.6 15-9.6 15 9.6 15 9.6v34.2z" fill="#fff"/><path d="M567.7 461.328h-33v-35.8c0-.1 1.2-10.9 16.5-10.9 7.9 0 11.9 2.9 14 5.3 2.3 2.7 2.5 5.5 2.6 5.6v35.8zm-30-3h27v-32.6c-.1-.8-1.4-8.2-13.5-8.2s-13.4 7.3-13.5 8.2v32.6z" fill="#091f2f"/><path d="M662.1 486.428h-22.5v-25.6s.7-7.2 11.3-7.2c10.6 0 11.3 7.2 11.3 7.2v25.6z" fill="#fff"/><path d="M663.6 487.928h-25.5v-27.3c0-.1.9-8.5 12.8-8.5 6.1 0 9.2 2.2 10.8 4.1 1.7 2.1 2 4.2 2 4.4v27.3zm-22.5-3h19.5v-24c-.1-.6-1.1-5.8-9.8-5.8-8.6 0-9.7 5.1-9.8 5.8v24z" fill="#091f2f"/><g><path d="M662.1 537.128h-22.5v-25.6s.7-7.2 11.3-7.2c10.6 0 11.3 7.2 11.3 7.2v25.6z" fill="#fff"/><path d="M663.6 538.628h-25.5v-27.3c0-.1.9-8.5 12.8-8.5 6.1 0 9.2 2.2 10.8 4.1 1.7 2.1 2 4.2 2 4.4v27.3zm-22.5-3h19.5v-24c-.1-.6-1.1-5.8-9.8-5.8-8.7 0-9.7 5.2-9.8 5.8v24z" fill="#091f2f"/></g><g><path d="M463.1 486.428h-22.5v-25.6s.7-7.2 11.3-7.2c10.6 0 11.3 7.2 11.3 7.2v25.6z" fill="#fff"/><path d="M464.6 487.928h-25.5v-27.3c0-.1.9-8.5 12.8-8.5 6.1 0 9.2 2.2 10.8 4.1 1.7 2.1 2 4.2 2 4.4v27.3zm-22.5-3h19.5v-24c-.1-.6-1.1-5.8-9.8-5.8-8.7 0-9.7 5.2-9.8 5.8v24z" fill="#091f2f"/></g><g><path d="M463.1 537.128h-22.5v-25.6s.7-7.2 11.3-7.2c10.6 0 11.3 7.2 11.3 7.2v25.6z" fill="#fff"/><path d="M464.6 538.628h-25.5v-27.3c0-.1.9-8.5 12.8-8.5 6.1 0 9.2 2.2 10.8 4.1 1.7 2.1 2 4.2 2 4.4v27.3zm-22.5-3h19.5v-24c-.1-.6-1.1-5.8-9.8-5.8-8.6 0-9.7 5.1-9.8 5.8v24z" fill="#091f2f"/></g><g><path d="M566.2 562.528h-30v-35.8s.9-9.6 15-9.6 15 9.6 15 9.6v35.8z" fill="#fff"/><path d="M567.7 564.028h-33v-37.4c0-.1 1.2-10.9 16.5-10.9 7.9 0 11.9 2.9 14 5.3 2.3 2.7 2.5 5.5 2.6 5.6v37.4zm-30-3h27v-34.2c-.1-.8-1.4-8.2-13.5-8.2s-13.4 7.4-13.5 8.2v34.2z" fill="#091f2f"/></g><g><path d="M1140.5.728c-4.6 0-9 .9-13 2.5 12.7 5.2 21.6 17.6 21.6 32.1s-8.9 26.9-21.6 32.1c4 1.6 8.4 2.5 13 2.5 19.1 0 34.7-15.5 34.7-34.7 0-19-15.5-34.5-34.7-34.5z" fill="#fff"/><path d="M1140.5 71.528c-4.7 0-9.3-.9-13.6-2.7l-3.4-1.4 3.4-1.4c12.6-5.1 20.7-17.2 20.7-30.7s-8.1-25.6-20.7-30.7l-3.4-1.4 3.4-1.4c4.3-1.8 8.9-2.7 13.6-2.7 19.9 0 36.2 16.2 36.2 36.2 0 20-16.2 36.2-36.2 36.2zm-9-4.2c2.9.8 6 1.3 9.1 1.3 18.3 0 33.2-14.9 33.2-33.2 0-18.3-14.9-33.2-33.2-33.2-3.1 0-6.1.4-9.1 1.3 11.7 6.2 19.1 18.4 19.1 31.9s-7.4 25.6-19.1 31.9z" fill="#091f2f"/></g><g><path d="M1188.5 324.628c-.2-.6-.4-1.3-.7-1.9-4.9-11.5-17.8-16.6-29-11.4-11.2 5.2-16.2 18.7-11.4 30.2l.9 1.8 40.2-18.7z" fill="#fff"/><path d="M1147.7 345.328l-.7-1.3c-.4-.7-.7-1.3-.9-1.9-5.2-12.2.3-26.6 12.1-32.1 3.1-1.4 6.4-2.2 9.7-2.2 9.2 0 17.6 5.6 21.3 14.3.3.6.5 1.3.7 2l.4 1.3-42.6 19.9zm20.2-34.5c-2.9 0-5.8.6-8.5 1.9-10.4 4.9-15.2 17.5-10.6 28.2.1.1.1.3.2.4l37.6-17.5c-.1-.2-.1-.3-.2-.5-3.2-7.6-10.5-12.5-18.5-12.5z" fill="#091f2f"/></g><g><path d="M1167 319.328c.5 1 .7 2.2.5 3.4-.5 2.9-3.2 4.9-6 4.3-1.8-.3-3.1-1.5-3.8-3.1-11.6 7.1-14 18.5-19.9 25.4l63-29.6c-9.5-1.8-20.1-5.8-33.8-.4z" fill="#fff"/><path d="M1132.1 353.728l4.5-5.3c1.9-2.2 3.4-5 5.1-8 3.4-6 7.2-12.9 15.1-17.7l1.5-.9.7 1.6c.5 1.2 1.5 2 2.7 2.2 2 .4 3.9-1.1 4.3-3.1.2-.9 0-1.7-.3-2.5l-.7-1.5 1.5-.6c4.9-1.9 9.7-2.8 14.8-2.8 5.7 0 10.9 1.2 15.5 2.3 1.5.3 2.9.7 4.3 1l4.5.9-73.5 34.4zm25-27.6c-6.5 4.4-9.8 10.4-12.8 15.8-.7 1.3-1.4 2.5-2.1 3.8l54-25.3h-.1c-4.7-1.1-9.5-2.2-14.8-2.2-4.2 0-8.3.7-12.3 2.1.2.9.2 1.9.1 2.8-.6 3.3-3.4 5.6-6.6 5.6-.4 0-.8 0-1.2-.1-1.8-.3-3.2-1.2-4.2-2.5z" fill="#091f2f"/></g><g><path d="M1278 338.328h-3v-3h3v3zm-8 0h-3v-3h3v3zm-8 0h-3v-3h3v3zm-8 0h-3v-3h3v3zm-8 0h-3v-3h3v3zm-8 0h-3v-3h3v3zm-8 0h-3v-3h3v3zm-8 0h-3v-3h3v3zm-8 0h-3v-3h3v3zm-8 0h-3v-3h3v3z" fill="#fff"/></g><g><path d="M1277 324.328h-3v-3h3v3zm-8 0h-3v-3h3v3zm-8 0h-3v-3h3v3zm-8 0h-3v-3h3v3zm-8 0h-3v-3h3v3z" fill="#fff"/></g><g><path d="M1276 311.328h-3v-3h3v3zm-8 0h-3v-3h3v3zm-8 0h-3v-3h3v3zm-8 0h-3v-3h3v3zm-8 0h-3v-3h3v3zm-8 0h-3v-3h3v3zm-8 0h-3v-3h3v3zm-8 0h-3v-3h3v3z" fill="#fff"/></g><g><path d="M1135 611.328h-3v-3h3v3zm-8 0h-3v-3h3v3zm-8 0h-3v-3h3v3zm-8 0h-3v-3h3v3zm-8 0h-3v-3h3v3zm-8 0h-3v-3h3v3zm-8 0h-3v-3h3v3zm-8 0h-3v-3h3v3zm-8 0h-3v-3h3v3zm-8 0h-3v-3h3v3zm-8 0h-3v-3h3v3zm-8 0h-3v-3h3v3zm-8 0h-3v-3h3v3z" fill="#091f2f"/></g><g><path d="M1119 597.328h-3v-3h3v3zm-8 0h-3v-3h3v3zm-8 0h-3v-3h3v3zm-8 0h-3v-3h3v3zm-8 0h-3v-3h3v3zm-8 0h-3v-3h3v3zm-8 0h-3v-3h3v3zm-8 0h-3v-3h3v3zm-8 0h-3v-3h3v3zm-8 0h-3v-3h3v3zm-8 0h-3v-3h3v3zm-8 0h-3v-3h3v3zm-8 0h-3v-3h3v3z" fill="#091f2f"/></g><g><path d="M1130 584.328h-3v-3h3v3zm-8 0h-3v-3h3v3zm-8 0h-3v-3h3v3zm-8 0h-3v-3h3v3zm-8 0h-3v-3h3v3zm-8 0h-3v-3h3v3zm-8 0h-3v-3h3v3zm-8 0h-3v-3h3v3zm-8 0h-3v-3h3v3zm-8 0h-3v-3h3v3zm-8 0h-3v-3h3v3zm-8 0h-3v-3h3v3zm-8 0h-3v-3h3v3z" fill="#091f2f"/></g><g><path d="M1075.9 455.928l-2.1-2.1c8.2-8.1 27-14.6 47.8-16.6 18.8-1.8 48.1-1.1 81.5 12.9l-1.2 2.8c-57.4-24.1-111.8-11.1-126 3z" fill="#fff"/><path d="M1098.9 458.928l-2.1-2.1c8.2-8.1 27-14.6 47.8-16.6 18.8-1.8 48.1-1.1 81.5 12.9l-1.2 2.8c-57.4-24.1-111.8-11.1-126 3z" fill="#fff"/><path d="M1051.2 459.128l-2.4-1.8c6.7-9 24-17.2 45.2-21.6 18.2-3.7 47.3-6.3 82.7 2.5l-.7 2.9c-62.4-15.6-113.6 3.2-124.8 18zm149.2 53.8l18 43-33.5 30.9-21.7-2.8 8.3-19.7 10.4 7.4 14.9-19.2-18.3-23.3" fill="#fff"/><path fill="#091f2f" d="M1170.8 562.028l10.8 7.7 13.3-17.2-17.6-22.4 2.4-1.8 19.1 24.2-16.5 21.3-10.2-7.2-6.8 16.2 19.1 2.5 32.2-29.8-17.6-42 2.8-1.2 18.4 44-34.8 32.1-24.4-3.1z"/><path d="M1191.5 522.428c4.9-2 10.2-3.4 15.6-4.2 17.6-2.5 46.9 5 63.5 15.7l37.2-21-1.5-19.4-103.8-10.5-8.6 22.8-2.4 16.6z" fill="#fff"/><path d="M1270.6 535.628l-.8-.5c-14.1-9.1-37.9-15.9-55.3-15.9-2.6 0-5 .2-7.2.5-5.3.7-10.4 2.1-15.2 4.1l-2.4 1 2.9-19.5 9-23.9 106.2 10.7 1.7 21.6-38.9 21.9zm-56.1-19.4c17.6 0 41.6 6.8 56.2 15.9l35.6-20.1-1.3-17.2-101.4-10.3-8.1 21.6-2 13.9c4.3-1.6 8.9-2.7 13.5-3.3 2.2-.3 4.7-.5 7.5-.5z" fill="#091f2f"/><path d="M1208.9 514.028c-8.5 6.1-19.3 9.2-30.6 7.7-23.7-3-40.5-24.6-37.5-48.3 3-23.7 24.6-40.5 48.3-37.5 7.1.9 22.9 8.6 22.9 8.6 17.8 8.6 42.3 12.3 59.5 7.7 0 0 10.4-3.3 24.8-7.9l35.4 18.6-18 34.1" fill="#fff"/><path d="M1183.8 523.628c-1.9 0-3.8-.1-5.7-.4-24.5-3.1-41.9-25.5-38.8-50 3.1-24.5 25.5-41.9 50-38.8 7.3.9 22.7 8.4 23.4 8.7 18.3 8.8 42.3 12 58.5 7.6.3-.1 14.2-4.6 24.7-7.9l.6-.2 37.2 19.6-18.7 35.5-2.7-1.4 17.3-32.8-33.5-17.6c-24.1 7.7-24.2 7.8-24.2 7.8-16.8 4.5-41.7 1.3-60.5-7.8-.2-.1-15.7-7.6-22.5-8.4-22.8-2.9-43.7 13.3-46.6 36.2-2.9 22.8 13.3 43.7 36.2 46.6 10.5 1.3 21-1.3 29.5-7.5l1.7 2.4c-7.5 5.5-16.6 8.4-25.9 8.4z" fill="#091f2f"/><path d="M1154.5 472.128l-.4 16.5-25.1 35.5 24.2 62-16.2 5 15.3 19.8 14.8-18.9-9.7-54.3 10.4-8.9s26.3 5.2 41.3-14.6" fill="#fff"/><path d="M1152.3 613.428l-17.9-23.1 16.7-5.1-23.9-61.3 25.3-35.8.4-16.1 3 .1-.4 17-24.9 35.3 24.5 62.8-15.7 4.8 12.8 16.6 13.2-16.8-9.7-54.5 11.6-10 .7.1c.3.1 25.5 4.8 39.8-14l2.4 1.8c-14 18.5-37.6 15.9-42 15.3l-9.2 7.9 9.7 54.1-16.4 20.9z" fill="#091f2f"/><path d="M1338.6 477.928c5.7 7.4 9.1 16.6 9.1 26.7 0 24.1-19.6 43.7-43.7 43.7-19.3 0-35.6-12.5-41.4-29.8" fill="#fff"/><path d="M1304 549.828c-19.4 0-36.7-12.4-42.8-30.8l2.8-1c5.8 17.2 21.8 28.8 40 28.8 23.3 0 42.2-18.9 42.2-42.2 0-9.4-3-18.3-8.8-25.7l2.4-1.8c6.1 8 9.4 17.5 9.4 27.6 0 24.8-20.3 45.1-45.2 45.1z" fill="#091f2f"/><path d="M1287.7 472.128s-89.3 4.5-98.7-2.7c-9.3-7.2 5.5-31.1 5.5-31.1l98.9 7" fill="#fff"/><path d="M1234.3 475.028c-21.3 0-41.8-1-46.2-4.4-10.3-8 4.5-32.1 5.1-33.1l.5-.8 99.8 7.1-.2 3-98-6.9c-4.1 6.9-11.9 23.3-5.4 28.4 6.5 5 62 4.2 97.7 2.4l.2 3c-4.9.1-29.7 1.3-53.5 1.3z" fill="#091f2f"/><path d="M1300 352.128l-78.5 55.6s-21.6 12.9-10.1 29.4c8.1 11.7 23.5 26.9 23.5 26.9l-27.5 18.7 10.9 19.1 46.1-26.6s7.3-7.9 1.7-19.4c-7.3-9.8-14.3-22.5-14.3-22.5l63.7-13.7 16.3-47.1-31.8-20.4z" fill="#fff"/><path d="M1217.7 503.928l-12.3-21.6 27.1-18.5c-3.9-3.9-15.6-16-22.4-25.9-3.2-4.6-4.3-9.4-3.2-14.2 2.2-10 12.8-16.7 13.8-17.3l79.2-56.1 33.6 21.5-17 49.1-62.5 13.5c2.2 3.8 7.6 13.1 13.2 20.6l.1.2c6.1 12.2-1.6 20.7-1.9 21.1l-.2.2-.2.1-47.3 27.3zm-8.4-20.7l9.5 16.6 44.6-25.7c.9-1.1 6-7.9 1.3-17.4-7.3-9.8-14.3-22.5-14.3-22.6l-1-1.8 64.8-14 15.7-45.2-29.9-19.1-77.7 55.1c-.1.1-10.5 6.4-12.4 15.4-.9 4 .1 8 2.7 11.9 7.9 11.5 23.1 26.6 23.3 26.7l1.3 1.3-27.9 18.8z" fill="#091f2f"/><g><path fill="#fff" d="M1221.5 407.728l30.2 25.6"/><path fill="#091f2f" d="M1222.476 406.567l30.21 25.602-1.939 2.288-30.21-25.601z"/></g><g><path fill="#fff" d="M1200.3 502.928l2.2 13.4 16.7 6.9 1.5-6.4-5.6-5.9 3.2-9-11-19-12.2 8.2z"/><path d="M1220.2 525.228l-19-7.8-2.3-14-5.7-12.8 14.6-9.7 12.1 20.9-3.1 8.8 5.6 5.9-2.2 8.7zm-16.3-9.9l14.3 5.9.9-3.9-5.7-6 3.3-9.2-9.8-17-9.8 6.6 4.8 11.1 2 12.5z" fill="#091f2f"/></g></g></svg>