<svg viewBox="0 0 2776 1726" xmlns="http://www.w3.org/2000/svg"><g fill="none" fill-rule="evenodd"><path fill="#FFF" d="M-2.713 834.285h2778.619V1739H-2.713z"/><path fill="#091F2F" d="M-2.713 0h2778.619v1584.664H-2.713z"/><path fill="#091F2F" d="M-2.713 0h2778.185v1588.359H-2.713z"/><path fill="#FFF" d="M890.524 1292.077h613.027v290.848H890.524z"/><path d="M1506.811 1586.185H887.263v-297.369h619.548v297.37zm-613.027-6.52h606.505v-284.327H893.784v284.326z" fill="#091F2F"/><path fill="#FFF" d="M890.958 1291.207l298.036-209.984 314.774 209.985z"/><path d="M1514.42 1295.555H880.74l308.253-217.158 1.956 1.305 323.47 215.853zm-613.245-6.521h591.723l-303.904-202.811-287.819 202.81z" fill="#091F2F"/><path fill="#FFF" d="M299.67 1277.948h453.031v304.977H299.67z"/><path d="M755.962 1586.185H296.409v-311.498h459.553v311.498zm-453.031-6.52h446.51v-298.457H302.93v298.456z" fill="#091F2F"/><path fill="#FFF" d="M1127.908 856.457h135.431v120.208h-135.431z"/><path d="M1266.818 979.71h-141.953V852.98h141.953v126.73zm-135.649-6.522h129.127V859.5h-128.91v113.687h-.217z" fill="#091F2F"/><path fill="#FFF" d="M1117.474 976.014h155.431v120.208h-155.431z"/><path d="M1276.165 1099.483h-161.952v-126.73h161.952v126.73zm-155.43-6.522h148.909V979.274h-148.91v113.687z" fill="#091F2F"/><path fill="#FFF" d="M1067.258 1047.095h254.123v176.726h-254.123z"/><path d="M1324.642 1227.082h-260.645v-183.247h260.645v183.247zm-254.123-6.521h247.602v-170.205h-247.602v170.205z" fill="#091F2F"/><path fill="#FFF" d="M1067.258 1223.821h254.123v176.726h-254.123z"/><path d="M1324.642 1403.808h-260.645V1220.56h260.645v183.247zm-254.123-6.522h247.602v-170.204h-247.602v170.204z" fill="#091F2F"/><path fill="#FFF" d="M1067.258 1400.547h254.123v182.378h-254.123z"/><path d="M1324.642 1586.185h-260.645v-188.899h260.645v188.9zm-254.123-6.52h247.602v-175.857h-247.602v175.856z" fill="#091F2F"/><path fill="#FFF" d="M789.005 1291.207H263.802l44.346-90.645h436.51z"/><path d="M794.222 1294.468H258.584l47.39-97.384h440.64l47.608 97.384zm-525.203-6.521h514.768l-41.085-84.342H310.105l-41.086 84.342z" fill="#091F2F"/><path fill="#FFF" d="M1107.691 1047.53h-38.911l19.564-107.383v-6.521z"/><path d="M1111.604 1050.79h-46.737l20.216-110.86v-6.304l6.522-.653 20 117.818zm-38.912-6.52h31.087l-15.217-88.255-15.87 88.255z" fill="#091F2F"/><path fill="#FFF" d="M1321.381 1047.53h-38.912l19.348-107.383v-6.521z"/><path d="M1325.294 1050.79h-46.738l20.217-110.86v-6.304l6.522-.653 20 117.818zm-38.912-6.52h31.086l-15.217-88.255-15.869 88.255z" fill="#091F2F"/><path fill="#FFF" d="M1147.038 855.805h-18.478l9.13-46.735v-6.522z"/><path d="M1150.734 859.066h-26.086l9.782-50.431v-6.304l6.521-.652 9.783 57.387zm-18.043-6.521h10.434l-4.782-28.476-5.652 28.476z" fill="#091F2F"/><path fill="#FFF" d="M1262.687 855.805h-18.26l9.13-46.735v-6.522z"/><path d="M1266.6 859.066h-26.086l9.782-50.431v-6.304l6.522-.652 9.782 57.387zm-18.26-6.521h10.434l-4.782-28.476-5.652 28.476z" fill="#091F2F"/><path fill="#FFF" d="M1233.558 736.684h-76.737l38.477-217.158z"/><path d="M1237.47 739.944h-84.345l42.173-239.112 42.173 239.112zm-76.736-6.52h68.91l-34.346-195.203-34.564 195.202z" fill="#091F2F"/><path fill="#FFF" d="M650.965 1165.13h39.782v57.604h-39.782z"/><path d="M694.007 1225.778h-46.303v-64.126h46.303v64.126zm-39.781-6.522h33.26v-51.083h-33.26v51.083z" fill="#091F2F"/><path fill="#FFF" d="M348.364 1463.369h84.78v119.556h-84.78z"/><path d="M436.406 1586.185h-91.302v-126.077h91.302v126.077zm-84.78-6.52h78.258v-113.036h-78.259v113.035z" fill="#091F2F"/><path fill="#FFF" d="M350.104 1334.248h84.78v80.864h-84.78z"/><path d="M438.145 1418.372h-91.302v-87.385h91.302v87.385zm-84.78-6.521h78.258v-74.343h-78.259v74.343z" fill="#091F2F"/><path fill="#FFF" d="M377.277 1360.115h30.434v29.128h-30.434z"/><path d="M410.971 1392.504h-36.955v-35.65h36.955v35.65zm-30.433-6.521h23.912v-22.607h-23.912v22.607z" fill="#091F2F"/><path fill="#FFF" d="M484.882 1334.248h84.78v80.864h-84.78z"/><path d="M572.924 1418.372h-91.302v-87.385h91.302v87.385zm-84.78-6.521h78.258v-74.343h-78.259v74.343z" fill="#091F2F"/><path fill="#FFF" d="M512.056 1360.115h30.434v29.128h-30.434z"/><path d="M545.75 1392.504h-36.955v-35.65h36.955v35.65zm-30.434-6.521h23.913v-22.607h-23.913v22.607z" fill="#091F2F"/><path fill="#FFF" d="M617.705 1334.248h84.78v80.864h-84.78z"/><path d="M705.746 1418.372h-91.302v-87.385h91.302v87.385zm-84.78-6.521h78.258v-74.343h-78.258v74.343z" fill="#091F2F"/><path fill="#FFF" d="M644.878 1360.115h30.434v29.128h-30.434z"/><path d="M678.573 1392.504h-36.956v-35.65h36.956v35.65zm-30.434-6.521h23.912v-22.607H648.14v22.607z" fill="#091F2F"/><path fill="#FFF" d="M484.882 1464.021h84.78v80.864h-84.78z"/><path d="M572.924 1548.145h-91.302v-87.385h91.302v87.385zm-84.78-6.522h78.258v-74.342h-78.259v74.342z" fill="#091F2F"/><path fill="#FFF" d="M512.056 1489.888h30.434v29.128h-30.434z"/><path d="M545.75 1522.06h-36.955v-35.65h36.955v35.65zm-30.434-6.521h23.913v-22.608h-23.913v22.608z" fill="#091F2F"/><path fill="#FFF" d="M617.705 1464.021h84.78v80.864h-84.78z"/><path d="M705.746 1548.145h-91.302v-87.385h91.302v87.385zm-84.78-6.522h78.258v-74.342h-78.258v74.342z" fill="#091F2F"/><path fill="#FFF" d="M644.878 1489.888h30.434v29.128h-30.434z"/><path d="M678.573 1522.06h-36.956v-35.65h36.956v35.65zm-30.434-6.521h23.912v-22.608H648.14v22.608z" fill="#091F2F"/><path fill="#FFF" d="M-14.669 1277.948h183.038v304.977H-14.669z"/><path d="M171.63 1586.185H-17.93v-311.498h189.56v311.498zm-183.038-6.52h176.517v-298.457H-11.408v298.456z" fill="#091F2F"/><path fill="#FFF" d="M-19.669 1291.207h224.342l-44.347-90.645H-19.669z"/><path d="M209.89 1294.468H-22.93v-97.384h185.213l47.607 97.384zm-226.298-6.521h215.864l-41.304-84.124h-174.56v84.124z" fill="#091F2F"/><path fill="#FFF" d="M66.416 1165.13h39.782v57.604H66.416z"/><path d="M109.675 1225.778h-46.52v-64.126h46.303v64.126h.217zm-39.999-6.522h33.26v-51.083h-33.26v51.083z" fill="#091F2F"/><path fill="#FFF" d="M33.156 1334.248h84.78v80.864h-84.78z"/><path d="M121.414 1418.372H29.895v-87.385h91.302v87.385h.217zm-84.997-6.521h78.258v-74.343H36.417v74.343z" fill="#091F2F"/><path fill="#FFF" d="M60.329 1360.115h30.434v29.128H60.329z"/><path d="M94.241 1392.504H57.286v-35.65H94.24v35.65zm-30.651-6.521h23.912v-22.607H63.59v22.607z" fill="#091F2F"/><path fill="#FFF" d="M33.156 1464.021h84.78v80.864h-84.78z"/><path d="M121.414 1548.145H29.895v-87.385h91.302v87.385h.217zm-84.997-6.522h78.258v-74.342H36.417v74.342z" fill="#091F2F"/><path fill="#FFF" d="M60.329 1489.888h30.434v29.128H60.329z"/><path d="M94.241 1522.06H57.286v-35.65H94.24v35.65zm-30.651-6.521h23.912v-22.608H63.59v22.608z" fill="#091F2F"/><path d="M1237.905 961.015h-31.086v-69.778s.87-14.129 15.652-14.129 15.652 14.13 15.652 14.13v69.777h-.218z" fill="#FFF"/><path d="M1241.166 964.275h-37.608v-73.038c.435-6.086 4.783-17.39 18.913-17.39 14.13 0 18.478 11.304 18.912 17.173l-.217 73.256zm-31.086-6.52h24.565v-66.3c-.218-1.522-1.522-11.086-12.391-11.086-11.522 0-12.391 10.651-12.391 11.086l.217 66.3z" fill="#091F2F"/><path d="M1185.298 961.015h-31.086v-69.778s.87-14.129 15.652-14.129 15.651 14.13 15.651 14.13v69.777h-.217z" fill="#FFF"/><path d="M1188.559 964.275h-37.608v-73.038c.435-6.086 4.783-17.39 18.913-17.39 14.13 0 18.477 11.304 18.912 17.173l-.217 73.256zm-31.304-6.52h24.782v-66.3c-.217-1.522-1.521-11.086-12.39-11.086-11.522 0-12.392 10.651-12.392 11.086v66.3z" fill="#091F2F"/><path fill="#FFF" d="M1153.995 736.032h83.693V856.24h-83.693z"/><path d="M1241.166 859.5h-90.215V732.772h90.215v126.73zm-83.91-6.52h77.171V739.292h-77.172V852.98z" fill="#091F2F"/><path d="M1210.732 840.807h-31.086v-69.778s.87-14.13 15.652-14.13 15.652 14.13 15.652 14.13v69.778h-.218z" fill="#FFF"/><path d="M1213.993 844.067h-37.608V771.03c.435-6.086 4.783-17.39 18.913-17.39 14.13 0 18.478 11.304 18.912 17.173l-.217 73.255zm-31.086-6.521h24.564v-66.3c-.217-1.521-1.521-11.086-12.39-11.086-11.522 0-12.392 10.652-12.392 11.087l.218 66.299z" fill="#091F2F"/><path d="M1223.775 1183.607h-65.215v-74.342s1.956-20.868 32.607-20.868c30.652 0 32.608 20.868 32.608 20.868v74.342z" fill="#FFF"/><path d="M1227.036 1186.868h-71.737v-77.82c0-.218 2.609-23.695 35.868-23.695 17.174 0 25.87 6.304 30.434 11.521 5 5.87 5.435 11.956 5.652 12.173v77.82h-.217zm-65.216-6.522h58.694v-70.864c-.217-1.739-3.043-17.825-29.347-17.825-26.303 0-29.13 16.303-29.347 17.825v70.864z" fill="#091F2F"/><path d="M1223.775 1359.68h-65.215v-74.342s1.956-20.868 32.607-20.868c30.652 0 32.608 20.868 32.608 20.868v74.343z" fill="#FFF"/><path d="M1227.036 1362.941h-71.737v-77.82c0-.217 2.609-23.694 35.868-23.694 17.174 0 25.87 6.304 30.434 11.521 5 5.87 5.435 11.956 5.652 12.173v77.82h-.217zm-65.216-6.521h58.694v-70.864c-.217-1.74-3.043-17.825-29.347-17.825-26.303 0-29.13 15.868-29.347 17.825v70.864z" fill="#091F2F"/><path d="M1432.248 1417.502h-48.912v-55.648s1.522-15.65 24.565-15.65c23.043 0 24.564 15.65 24.564 15.65v55.648h-.217z" fill="#FFF"/><path d="M1435.509 1420.763h-55.434v-59.343c0-.218 1.957-18.477 27.826-18.477 13.26 0 20 4.782 23.477 8.912 3.696 4.565 4.348 9.13 4.348 9.565v59.343h-.217zm-48.912-6.521h42.39v-52.17c-.217-1.304-2.391-12.608-21.304-12.608-18.695 0-21.086 11.086-21.303 12.608v52.17h.217z" fill="#091F2F"/><path d="M1432.248 1527.711h-48.912v-55.648s1.522-15.65 24.565-15.65c23.043 0 24.564 15.65 24.564 15.65v55.648h-.217z" fill="#FFF"/><path d="M1435.509 1530.972h-55.434v-59.343c0-.218 1.957-18.477 27.826-18.477 13.26 0 20 4.782 23.477 8.912 3.696 4.565 4.348 9.13 4.348 9.565v59.343h-.217zm-48.912-6.521h42.39v-52.17c-.217-1.304-2.391-12.608-21.304-12.608-18.912 0-21.086 11.304-21.303 12.608v52.17h.217z" fill="#091F2F"/><path d="M999.651 1417.502h-48.912v-55.648s1.522-15.65 24.565-15.65c23.043 0 24.564 15.65 24.564 15.65v55.648h-.217z" fill="#FFF"/><path d="M1002.912 1420.763h-55.434v-59.343c0-.218 1.957-18.477 27.826-18.477 13.26 0 20 4.782 23.477 8.912 3.696 4.565 4.348 9.13 4.348 9.565v59.343h-.217zM954 1414.242h42.39v-52.17c-.217-1.304-2.391-12.608-21.304-12.608-18.912 0-21.086 11.303-21.303 12.608v52.17H954z" fill="#091F2F"/><path d="M999.651 1527.711h-48.912v-55.648s1.522-15.65 24.565-15.65c23.043 0 24.564 15.65 24.564 15.65v55.648h-.217z" fill="#FFF"/><path d="M1002.912 1530.972h-55.434v-59.343c0-.218 1.957-18.477 27.826-18.477 13.26 0 20 4.782 23.477 8.912 3.696 4.565 4.348 9.13 4.348 9.565v59.343h-.217zM954 1524.451h42.39v-52.17c-.217-1.304-2.391-12.608-21.304-12.608-18.695 0-21.086 11.086-21.303 12.608v52.17H954z" fill="#091F2F"/><path d="M1223.775 1582.925h-65.215v-77.82s1.956-20.869 32.607-20.869c30.652 0 32.608 20.868 32.608 20.868v77.82z" fill="#FFF"/><path d="M1227.036 1586.185h-71.737v-81.298c0-.217 2.609-23.694 35.868-23.694 17.174 0 25.87 6.304 30.434 11.521 5 5.87 5.435 11.956 5.652 12.173v81.298h-.217zm-65.216-6.52h58.694v-74.343c-.217-1.74-3.043-17.825-29.347-17.825-26.303 0-29.13 16.086-29.347 17.825v74.342z" fill="#091F2F"/><path d="M2472.22 361.712c-10 0-19.565 1.956-28.26 5.434 27.607 11.304 46.954 38.258 46.954 69.778 0 31.52-19.347 58.474-46.955 69.777a76.056 76.056 0 0 0 28.26 5.434c41.52 0 75.433-33.693 75.433-75.429 0-41.3-33.695-74.994-75.433-74.994z" fill="#FFF"/><path d="M2472.22 515.614c-10.218 0-20.218-1.957-29.565-5.87l-7.391-3.043 7.39-3.043c27.391-11.086 45-37.389 45-66.734 0-29.346-17.609-55.648-45-66.734l-7.39-3.044 7.39-3.043c9.348-3.913 19.348-5.869 29.565-5.869 43.26 0 78.694 35.215 78.694 78.69 0 43.475-35.217 78.69-78.694 78.69zm-19.565-9.13c6.304 1.739 13.043 2.826 19.782 2.826 39.781 0 72.172-32.39 72.172-72.169 0-39.78-32.39-72.168-72.172-72.168-6.74 0-13.26.87-19.782 2.825 25.434 13.478 41.52 39.998 41.52 69.343 0 29.346-16.086 55.648-41.52 69.343z" fill="#091F2F"/><path d="M2576.564 1065.79c-.435-1.305-.87-2.826-1.521-4.13-10.652-24.999-38.695-36.085-63.042-24.781-24.347 11.303-35.217 40.649-24.782 65.647l1.956 3.913 87.39-40.65z" fill="#FFF"/><path d="M2487.871 1110.786l-1.522-2.826c-.87-1.521-1.521-2.826-1.956-4.13-11.304-26.52.652-57.822 26.303-69.777 6.74-3.043 13.913-4.782 21.087-4.782 20 0 38.26 12.173 46.303 31.084.652 1.304 1.087 2.826 1.522 4.348l.87 2.826-92.607 43.257zm43.912-74.994c-6.304 0-12.608 1.304-18.478 4.13-22.608 10.651-33.042 38.04-23.043 61.3.218.217.218.652.435.87l81.737-38.041c-.217-.435-.217-.652-.435-1.087-6.956-16.52-22.825-27.172-40.216-27.172z" fill="#091F2F"/><path d="M2529.826 1054.269c1.087 2.174 1.522 4.782 1.087 7.39-1.087 6.304-6.956 10.652-13.043 9.348-3.913-.653-6.739-3.261-8.26-6.739-25.217 15.434-30.434 40.214-43.26 55.213l136.953-64.343c-20.652-3.912-43.695-12.607-73.477-.87z" fill="#FFF"/><path d="M2453.959 1129.046l9.782-11.521c4.13-4.782 7.391-10.869 11.087-17.39 7.391-13.043 15.652-28.042 32.825-38.476l3.26-1.956 1.523 3.478c1.087 2.609 3.26 4.348 5.869 4.782 4.348.87 8.478-2.39 9.348-6.738.434-1.957 0-3.696-.653-5.435l-1.521-3.26 3.26-1.304c10.652-4.13 21.087-6.087 32.174-6.087 12.39 0 23.695 2.609 33.694 5 3.261.652 6.304 1.521 9.348 2.173l9.782 1.957-159.778 74.777zm54.346-59.996c-14.13 9.565-21.303 22.607-27.825 34.346-1.522 2.825-3.043 5.434-4.565 8.26l117.388-54.996h-.217c-10.218-2.391-20.652-4.782-32.173-4.782-9.13 0-18.043 1.521-26.739 4.565.435 1.956.435 4.13.218 6.086-1.305 7.173-7.392 12.173-14.348 12.173-.87 0-1.739 0-2.609-.217-3.912-.652-6.956-2.609-9.13-5.435z" fill="#091F2F"/><path d="M2771.124 1095.57h-6.521v-6.521h6.521v6.521zm-17.39 0h-6.522v-6.521h6.521v6.521zm-17.392 0h-6.521v-6.521h6.521v6.521zm-17.39 0h-6.522v-6.521h6.522v6.521zm-17.391 0h-6.522v-6.521h6.522v6.521zm-17.391 0h-6.522v-6.521h6.522v6.521zm-17.39 0h-6.522v-6.521h6.521v6.521zm-17.392 0h-6.521v-6.521h6.521v6.521zm-17.39 0h-6.522v-6.521h6.522v6.521zm-17.391 0h-6.522v-6.521h6.522v6.521zm154.343-30.432h-6.521v-6.522h6.521v6.522zm-17.39 0h-6.522v-6.522h6.521v6.522zm-17.391 0h-6.522v-6.522h6.522v6.522zm-17.391 0h-6.522v-6.522h6.522v6.522zm-17.391 0h-6.522v-6.522h6.522v6.522zm67.389-28.259h-6.521v-6.521h6.521v6.52zm-17.39 0h-6.522v-6.521h6.522v6.52zm-17.391 0h-6.522v-6.521h6.522v6.52zm-17.391 0h-6.522v-6.521h6.522v6.52zm-17.39 0h-6.522v-6.521h6.521v6.52zm-17.392 0h-6.521v-6.521h6.521v6.52zm-17.39 0h-6.522v-6.521h6.521v6.52zm-17.391 0h-6.522v-6.521h6.522v6.52z" fill="#FFF"/><path d="M2460.263 1689.004h-6.521v-6.521h6.521v6.52zm-17.39 0h-6.522v-6.521h6.521v6.52zm-17.392 0h-6.521v-6.521h6.521v6.52zm-17.39 0h-6.522v-6.521h6.522v6.52zm-17.391 0h-6.522v-6.521h6.522v6.52zm-17.391 0h-6.522v-6.521h6.522v6.52zm-17.39 0h-6.522v-6.521h6.521v6.52zm-17.392 0h-6.521v-6.521h6.521v6.52zm-17.39 0h-6.522v-6.521h6.521v6.52zm-17.391 0h-6.522v-6.521h6.522v6.52zm-17.391 0h-6.522v-6.521h6.522v6.52zm-17.391 0h-6.522v-6.521h6.522v6.52zm-17.39 0h-6.522v-6.521h6.521v6.52zm173.907-30.433h-6.521v-6.521h6.521v6.521zm-17.39 0h-6.522v-6.521h6.522v6.521zm-17.391 0h-6.522v-6.521h6.522v6.521zm-17.391 0h-6.522v-6.521h6.522v6.521zm-17.39 0h-6.522v-6.521h6.521v6.521zm-17.392 0h-6.521v-6.521h6.521v6.521zm-17.39 0h-6.522v-6.521h6.521v6.521zm-17.391 0h-6.522v-6.521h6.522v6.521zm-17.391 0h-6.522v-6.521h6.522v6.521zm-17.391 0h-6.522v-6.521h6.522v6.521zm-17.39 0h-6.522v-6.521h6.521v6.521zm-17.392 0h-6.521v-6.521h6.521v6.521zm-17.39 0h-6.522v-6.521h6.522v6.521zm232.602-28.258h-6.522v-6.522h6.522v6.522zm-17.391 0h-6.522v-6.522h6.522v6.522zm-17.39 0h-6.522v-6.522h6.521v6.522zm-17.392 0h-6.521v-6.522h6.521v6.522zm-17.39 0h-6.522v-6.522h6.522v6.522zm-17.391 0h-6.522v-6.522h6.522v6.522zm-17.391 0h-6.522v-6.522h6.522v6.522zm-17.391 0h-6.522v-6.522h6.522v6.522zm-17.39 0h-6.522v-6.522h6.521v6.522zm-17.392 0h-6.521v-6.522h6.521v6.522zm-17.39 0h-6.522v-6.522h6.522v6.522zm-17.391 0h-6.522v-6.522h6.522v6.522zm-17.391 0h-6.522v-6.522h6.522v6.522z" fill="#091F2F"/><path d="M2331.788 1351.203l-4.565-4.565c17.826-17.607 58.694-31.737 103.91-36.084 40.869-3.913 104.563-2.391 177.17 28.041l-2.61 6.087c-124.778-52.388-243.036-24.129-273.905 6.521z" fill="#FFF"/><path d="M2381.787 1357.724l-4.565-4.565c17.825-17.607 58.694-31.736 103.91-36.084 40.869-3.913 104.562-2.391 177.17 28.042l-2.61 6.086c-124.779-52.387-243.036-24.129-273.905 6.521z" fill="#FFF"/><path d="M2278.094 1358.159l-5.217-3.913c14.565-19.564 52.172-37.388 98.258-46.953 39.564-8.043 102.823-13.694 179.778 5.435l-1.522 6.303c-135.648-33.91-246.95 6.957-271.297 39.128zm324.339 116.948l39.13 93.471-72.825 67.169-47.172-6.087 18.043-42.822 22.608 16.085 32.39-41.736-39.781-50.648" fill="#FFF"/><path fill="#091F2F" d="M2569.825 1639.225l-53.042-6.739 21.304-50.648 23.478 16.738 28.912-37.389-38.26-48.692 5.217-3.912 41.52 52.604-35.868 46.301-22.173-15.65-14.782 35.214 41.52 5.434 69.999-64.778-38.26-91.297 6.087-2.609 39.998 95.646z"/><path d="M2583.086 1495.757c10.652-4.347 22.173-7.39 33.912-9.13 38.26-5.434 101.954 10.87 138.04 34.129l80.867-45.65-3.26-42.17-225.647-22.824-18.695 49.561-5.217 36.084z" fill="#FFF"/><path d="M2755.038 1524.45l-1.74-1.086c-30.65-19.781-82.388-34.563-120.214-34.563-5.652 0-10.869.435-15.651 1.087a130.203 130.203 0 0 0-33.043 8.913l-5.217 2.173 6.304-42.388 19.565-51.952 230.863 23.259 3.696 46.953-84.563 47.605zm-121.954-42.17c38.26 0 90.433 14.782 122.171 34.563l77.39-43.693-2.827-37.388-220.429-22.39-17.608 46.953-4.347 30.215c9.347-3.478 19.347-5.869 29.347-7.173a120.423 120.423 0 0 1 16.303-1.087z" fill="#091F2F"/><path d="M2620.91 1477.498c-18.477 13.26-41.954 19.998-66.519 16.738-51.52-6.522-88.041-53.475-81.52-104.992 6.522-51.518 53.477-88.037 104.998-81.516 15.434 1.956 49.78 18.694 49.78 18.694 38.695 18.695 91.955 26.737 129.345 16.738 0 0 22.608-7.173 53.912-17.173l76.954 40.432-39.13 74.125" fill="#FFF"/><path d="M2566.347 1498.366c-4.13 0-8.26-.217-12.39-.87-53.26-6.738-91.085-55.43-84.346-108.687 6.739-53.257 55.433-91.08 108.692-84.342 15.87 1.957 49.347 18.26 50.869 18.912 39.781 19.129 91.954 26.085 127.17 16.52.652-.217 30.869-9.999 53.694-17.172l1.304-.435 80.868 42.606-40.651 77.168-5.87-3.043 37.608-71.3-72.824-38.257c-52.39 16.737-52.607 16.955-52.607 16.955-36.521 9.782-90.65 2.826-131.519-16.956-.434-.217-34.129-16.52-48.911-18.259-49.564-6.304-94.998 28.91-101.302 78.69-6.304 49.561 28.912 94.993 78.694 101.297 22.825 2.825 45.65-2.826 64.128-16.304l3.696 5.217c-16.304 11.956-36.086 18.26-56.303 18.26z" fill="#091F2F"/><path d="M2502.653 1386.418l-.87 35.867-54.563 77.168 52.607 134.772-35.216 10.869 33.26 43.04 32.173-41.084-21.087-118.034 22.608-19.347s57.173 11.304 89.78-31.736" fill="#FFF"/><path d="M2497.87 1693.569l-38.911-50.214 36.303-11.086-51.955-133.251 54.999-77.82.87-34.998 6.52.218-.869 36.954-54.129 76.733 53.26 136.511-34.13 10.434 27.825 36.085 28.695-36.52-21.086-118.469 25.217-21.737 1.521.217c.652.217 55.434 10.434 86.52-30.432l5.217 3.912c-30.434 40.215-81.737 34.563-91.302 33.259l-20 17.172 21.087 117.6-35.651 45.432z" fill="#091F2F"/><path d="M2902.86 1399.025c12.39 16.086 19.782 36.085 19.782 58.04 0 52.387-42.608 94.992-94.998 94.992-41.955 0-77.389-27.171-89.997-64.777" fill="#FFF"/><path d="M2827.644 1555.318c-42.172 0-79.78-26.954-93.04-66.951l6.086-2.174c12.609 37.388 47.39 62.604 86.954 62.604 50.651 0 91.737-41.084 91.737-91.732 0-20.434-6.522-39.78-19.13-55.866l5.217-3.913c13.26 17.39 20.435 38.041 20.435 59.996 0 53.909-44.13 98.036-98.259 98.036z" fill="#091F2F"/><path d="M2792.21 1386.418s-194.125 9.782-214.559-5.87c-20.217-15.65 11.956-67.603 11.956-67.603l214.994 15.216" fill="#FFF"/><path d="M2676.127 1392.722c-46.303 0-90.867-2.174-100.432-9.565-22.391-17.39 9.782-69.777 11.086-71.951l1.087-1.739 216.95 15.434-.434 6.52-213.038-14.998c-8.912 14.999-25.868 50.648-11.738 61.735 14.13 10.868 134.779 9.13 212.385 5.216l.435 6.522c-10.652.217-64.564 2.826-116.301 2.826z" fill="#091F2F"/><path d="M2818.949 1125.568l-170.648 120.86s-46.955 28.042-21.956 63.908c17.609 25.433 51.086 58.474 51.086 58.474l-59.78 40.65 23.694 41.518 100.215-57.822s15.869-17.172 3.695-42.17c-15.869-21.303-31.086-48.91-31.086-48.91l138.475-29.78 35.433-102.384-69.128-44.344z" fill="#FFF"/><path d="M2640.04 1455.543l-26.738-46.953 58.912-40.214c-8.478-8.478-33.912-34.78-48.695-56.3-6.956-10-9.347-20.434-6.956-30.868 4.783-21.737 27.825-36.301 30-37.606l172.169-121.947 73.041 46.736-36.956 106.73-135.865 29.346c4.782 8.26 16.52 28.476 28.695 44.78l.217.434c13.26 26.52-3.478 44.997-4.13 45.866l-.435.435-.435.218-102.823 59.343zm-18.26-44.997l20.652 36.085 96.954-55.866c1.956-2.39 13.043-17.172 2.826-37.823-15.87-21.303-31.086-48.91-31.086-49.127l-2.174-3.913 140.866-30.432 34.13-98.254-65-41.518-168.907 119.774c-.218.217-22.826 13.911-26.956 33.475-1.957 8.695.217 17.39 5.87 25.868 17.173 24.998 50.215 57.822 50.65 58.039l2.826 2.826-60.65 40.866z" fill="#091F2F"/><path d="M2648.301 1246.428l65.65 55.648" fill="#FFF"/><path fill="#091F2F" d="M2650.422 1243.902l65.674 55.654-4.215 4.975-65.675-55.654z"/><path fill="#FFF" d="M2617.433 1409.894l-26.521 17.825 11.304 25.65 4.782 29.129 36.304 14.998 3.26-13.912-12.173-12.825 6.956-19.563z"/><path d="M2645.475 1501.844l-41.303-16.955-5-30.433-12.39-27.824 31.738-21.085 26.303 45.431-6.739 19.13 12.174 12.824-4.783 18.912zm-35.433-21.52l31.086 12.825 1.956-8.478-12.39-13.042 7.173-19.999-21.304-36.954-21.304 14.347 10.435 24.129 4.348 27.172z" fill="#091F2F"/></g></svg>