<svg xmlns="http://www.w3.org/2000/svg" viewBox="0 0 1280 800"><g data-name="Layer 1"><path fill="#fff" d="M-25 383.79h1343V833H-25z"/><path fill="#091f2f" d="M2 0h1278.2v729H2z"/><path fill="#091f2f" d="M-6-12h1299v742.66H-6z"/><path fill="#fff" d="M412.93 594.43h281.95V728.2H412.93z"/><path fill="none" stroke="#091f2f" stroke-miterlimit="10" stroke-width="3" d="M412.93 594.43h281.95V728.2H412.93z"/><path fill="#fff" d="M413.1 594l137.12-96.58L694.96 594H413.1z"/><path fill="none" stroke="#091f2f" stroke-miterlimit="10" stroke-width="3" d="M413.1 594.5l137.12-96.58 144.74 96.58H413.1z"/><path fill="#fff" d="M141.1 587.9h208.42v140.3H141.1z"/><path fill="none" stroke="#091f2f" stroke-miterlimit="10" stroke-width="3" d="M141.1 587.9h208.42v140.3H141.1z"/><path fill="#fff" d="M522.15 393.95h62.33v55.25h-62.33z"/><path fill="none" stroke="#091f2f" stroke-miterlimit="10" stroke-width="3" d="M522.15 393.95h62.33v55.25h-62.33z"/><path fill="#fff" d="M517.31 449.01h71.53v55.25h-71.53z"/><path fill="none" stroke="#091f2f" stroke-miterlimit="10" stroke-width="3" d="M517.31 449.01h71.53v55.25h-71.53z"/><path fill="#fff" d="M494.18 481.67H611.1v81.3H494.18z"/><path fill="none" stroke="#091f2f" stroke-miterlimit="10" stroke-width="3" d="M494.18 481.67H611.1v81.3H494.18z"/><path fill="#fff" d="M494.18 562.97H611.1v81.3H494.18z"/><path fill="none" stroke="#091f2f" stroke-miterlimit="10" stroke-width="3" d="M494.18 562.97H611.1v81.3H494.18z"/><path fill="#fff" d="M494.18 644.27H611.1v83.93H494.18z"/><path fill="none" stroke="#091f2f" stroke-miterlimit="10" stroke-width="3" d="M494.18 644.27H611.1v83.93H494.18z"/><path fill="#fff" d="M366.19 594.01H124.58l20.38-41.75h200.85l20.38 41.75z"/><path fill="none" stroke="#091f2f" stroke-miterlimit="10" stroke-width="3" d="M366.19 594.01H124.58l20.38-41.75h200.85l20.38 41.75z"/><path fill="#fff" d="M512.84 481.86h-17.92l8.96-49.32v-3l8.96 52.32z"/><path fill="none" stroke="#091f2f" stroke-miterlimit="10" stroke-width="3" d="M512.84 481.86h-17.92l8.96-49.32v-3l8.96 52.32z"/><path fill="#fff" d="M611.1 481.86h-17.92l8.96-49.32v-3l8.96 52.32z"/><path fill="none" stroke="#091f2f" stroke-miterlimit="10" stroke-width="3" d="M611.1 481.86h-17.92l8.96-49.32v-3l8.96 52.32z"/><path fill="#fff" d="M530.85 393.73h-8.4l4.2-21.54v-3l4.2 24.54z"/><path fill="none" stroke="#091f2f" stroke-miterlimit="10" stroke-width="3" d="M530.85 393.73h-8.4l4.2-21.54v-3l4.2 24.54z"/><path fill="#fff" d="M584.1 393.73h-8.41l4.2-21.54v-3l4.21 24.54z"/><path fill="none" stroke="#091f2f" stroke-miterlimit="10" stroke-width="3" d="M584.1 393.73h-8.41l4.2-21.54v-3l4.21 24.54z"/><path fill="#fff" d="M570.68 338.93h-35.25l17.63-99.89 17.62 99.89z"/><path fill="none" stroke="#091f2f" stroke-miterlimit="10" stroke-width="3" d="M570.68 338.93h-35.25l17.63-99.89 17.62 99.89z"/><path fill="#fff" d="M302.68 535.96h18.33v26.48h-18.33z"/><path fill="none" stroke="#091f2f" stroke-miterlimit="10" stroke-width="3" d="M302.68 535.96h18.33v26.48h-18.33z"/><path fill="#fff" d="M163.5 673.19h39.04v55.01H163.5z"/><path fill="none" stroke="#091f2f" stroke-miterlimit="10" stroke-width="3" d="M163.5 673.19h39.04v55.01H163.5z"/><path fill="#fff" d="M164.27 613.83h39.04v37.2h-39.04z"/><path fill="none" stroke="#091f2f" stroke-miterlimit="10" stroke-width="3" d="M164.27 613.83h39.04v37.2h-39.04z"/><path fill="#fff" d="M176.77 625.74h14.04v13.37h-14.04z"/><path fill="none" stroke="#091f2f" stroke-miterlimit="10" stroke-width="3" d="M176.77 625.74h14.04v13.37h-14.04z"/><path fill="#fff" d="M226.25 613.83h39.04v37.2h-39.04z"/><path fill="none" stroke="#091f2f" stroke-miterlimit="10" stroke-width="3" d="M226.25 613.83h39.04v37.2h-39.04z"/><path fill="#fff" d="M238.76 625.74h14.04v13.37h-14.04z"/><path fill="none" stroke="#091f2f" stroke-miterlimit="10" stroke-width="3" d="M238.76 625.74h14.04v13.37h-14.04z"/><path fill="#fff" d="M287.36 613.83h39.04v37.2h-39.04z"/><path fill="none" stroke="#091f2f" stroke-miterlimit="10" stroke-width="3" d="M287.36 613.83h39.04v37.2h-39.04z"/><path fill="#fff" d="M299.86 625.74h14.04v13.37h-14.04z"/><path fill="none" stroke="#091f2f" stroke-miterlimit="10" stroke-width="3" d="M299.86 625.74h14.04v13.37h-14.04z"/><path fill="#fff" d="M226.25 673.45h39.04v37.2h-39.04z"/><path fill="none" stroke="#091f2f" stroke-miterlimit="10" stroke-width="3" d="M226.25 673.45h39.04v37.2h-39.04z"/><path fill="#fff" d="M238.76 685.37h14.04v13.37h-14.04z"/><path fill="none" stroke="#091f2f" stroke-miterlimit="10" stroke-width="3" d="M238.76 685.37h14.04v13.37h-14.04z"/><path fill="#fff" d="M287.36 673.45h39.04v37.2h-39.04z"/><path fill="none" stroke="#091f2f" stroke-miterlimit="10" stroke-width="3" d="M287.36 673.45h39.04v37.2h-39.04z"/><path fill="#fff" d="M299.86 685.37h14.04v13.37h-14.04z"/><path fill="none" stroke="#091f2f" stroke-miterlimit="10" stroke-width="3" d="M299.86 685.37h14.04v13.37h-14.04z"/><path fill="#fff" d="M-3.53 587.9H80.7v140.3H-3.53z"/><path fill="none" stroke="#091f2f" stroke-miterlimit="10" stroke-width="3" d="M-3.53 587.9H80.7v140.3H-3.53z"/><path fill="#fff" d="M-5.83 594.01H97.36l-20.38-41.75H-5.83v41.75z"/><path fill="none" stroke="#091f2f" stroke-miterlimit="10" stroke-width="3" d="M-5.83 594.01H97.36l-20.38-41.75H-5.83v41.75z"/><path fill="#fff" d="M33.85 535.96h18.33v26.48H33.85z"/><path fill="none" stroke="#091f2f" stroke-miterlimit="10" stroke-width="3" d="M33.85 535.96h18.33v26.48H33.85z"/><path fill="#fff" d="M18.53 613.83h39.04v37.2H18.53z"/><path fill="none" stroke="#091f2f" stroke-miterlimit="10" stroke-width="3" d="M18.53 613.83h39.04v37.2H18.53z"/><path fill="#fff" d="M31.03 625.74h14.04v13.37H31.03z"/><path fill="none" stroke="#091f2f" stroke-miterlimit="10" stroke-width="3" d="M31.03 625.74h14.04v13.37H31.03z"/><path fill="#fff" d="M18.53 673.45h39.04v37.2H18.53z"/><path fill="none" stroke="#091f2f" stroke-miterlimit="10" stroke-width="3" d="M18.53 673.45h39.04v37.2H18.53z"/><path fill="#fff" d="M31.03 685.37h14.04v13.37H31.03z"/><path fill="none" stroke="#091f2f" stroke-miterlimit="10" stroke-width="3" d="M31.03 685.37h14.04v13.37H31.03z"/><path d="M572.68 442.13h-14.33V410s.43-6.54 7.17-6.54 7.16 6.54 7.16 6.54zM548.47 442.13h-14.33V410s.43-6.54 7.17-6.54 7.16 6.54 7.16 6.54z" fill="#fff" stroke="#091f2f" stroke-miterlimit="10" stroke-width="3"/><path fill="#fff" d="M534.14 338.65h38.54v55.25h-38.54z"/><path fill="none" stroke="#091f2f" stroke-miterlimit="10" stroke-width="3" d="M534.14 338.65h38.54v55.25h-38.54z"/><path d="M560.23 386.82h-14.32v-32.1s.42-6.55 7.16-6.55 7.16 6.55 7.16 6.55zM566.2 544.49h-30v-34.16s.89-9.57 15-9.57 15 9.57 15 9.57zM566.2 625.48h-30v-34.16s.89-9.57 15-9.57 15 9.57 15 9.57zM662.08 652.06h-22.53v-25.63s.67-7.18 11.27-7.18 11.26 7.18 11.26 7.18zM662.08 702.8h-22.53v-25.63s.67-7.18 11.27-7.18 11.26 7.18 11.26 7.18zM463.1 652.06h-22.53v-25.63s.67-7.18 11.27-7.18 11.26 7.18 11.26 7.18zM463.1 702.8h-22.53v-25.63s.67-7.18 11.27-7.18 11.26 7.18 11.26 7.18zM566.2 728.2h-30v-35.78s.89-9.57 15-9.57 15 9.57 15 9.57zM1140.55 166.42a34.53 34.53 0 0 0-13 2.55 34.65 34.65 0 0 1 0 64.2 34.65 34.65 0 1 0 13-66.75z" fill="#fff" stroke="#091f2f" stroke-miterlimit="10" stroke-width="3"/><path d="M1188.5 490.29c-.21-.63-.43-1.26-.7-1.88a21.47 21.47 0 0 0-29-11.36 23.38 23.38 0 0 0-11.36 30.18c.26.62.55 1.22.86 1.8z" fill="#fff"/><path d="M1188.5 490.29c-.21-.63-.43-1.26-.7-1.88a21.47 21.47 0 0 0-29-11.36 23.38 23.38 0 0 0-11.36 30.18c.26.62.55 1.22.86 1.8z" fill="none" stroke="#091f2f" stroke-miterlimit="10" stroke-width="3"/><path d="M1167 485a5.44 5.44 0 0 1 .47 3.42 5.26 5.26 0 0 1-6 4.34 5.1 5.1 0 0 1-3.79-3.12c-11.56 7.06-14 18.52-19.88 25.4l63-29.58c-9.51-1.89-20.05-5.85-33.8-.46z" fill="#fff"/><path d="M1167 485a5.44 5.44 0 0 1 .47 3.42 5.26 5.26 0 0 1-6 4.34 5.1 5.1 0 0 1-3.79-3.12c-11.56 7.06-14 18.52-19.88 25.4l63-29.58c-9.51-1.89-20.05-5.85-33.8-.46z" fill="none" stroke="#091f2f" stroke-miterlimit="10" stroke-width="3"/><path fill="none" stroke="#fff" stroke-miterlimit="10" stroke-width="3" stroke-dasharray="3 5" d="M1203 502.5h77M1242 488.5h40M1217 475.5h63"/><path fill="none" stroke="#091f2f" stroke-miterlimit="10" stroke-width="3" stroke-dasharray="3 5" d="M997 775.5h103M981 761.5h103M992 748.5h103"/></g><g data-name="Layer 2"><path d="M1119.72 747.27L1109.6 755l-2.75-6.32c-1.79-5.28.32-11.27.32-11.27l8.71-4.73a4.65 4.65 0 0 0 2.42-4.36l-.81-50.41a10.43 10.43 0 0 1 .44-2.87 6.84 6.84 0 0 1 5.32-6.49l21.61-6.74a19.09 19.09 0 0 0 13.4-17.37l1-20.73c1.18-9.69 16-20.35 16-20.35l56.65 36.12-5.91 7.32a99 99 0 0 1-50.65 33.49l-.78.21a167.46 167.46 0 0 1-24.55 4.69l-17.63 2-3.58 46.61z" fill="#fff" stroke="#0c1f2e" stroke-linejoin="round" stroke-width="3"/><path d="M1114 733.07l.36 1.43a41 41 0 0 0 5 11.72l.36.59" fill="#fff" stroke="#0c1f2e" stroke-linejoin="round" stroke-width="3"/><path d="M1243.9 727.23l2.5.84a22.68 22.68 0 0 0 11.93 2l2.36-.24" fill="#fff" stroke="#0c1f2e" stroke-miterlimit="10" stroke-width="2.59"/><path d="M1151.5 580.5l-21 15c-19.86 11.5-49.5 19.31-75.39 21.5l-16 1.33" fill="none" stroke="#fff" stroke-linecap="round" stroke-miterlimit="10" stroke-width="3"/><path d="M1028.05 633.94l36.53-6.11A130.78 130.78 0 0 0 1107 613l8.27-4.68 29.21-19.78" fill="none" stroke="#fff" stroke-linecap="round" stroke-miterlimit="10" stroke-width="3"/><path d="M1037.7 643.54l13.8-1c28.66-3.52 54.91-17.72 75.39-38.06 7.33-7.28 14.16-11.67 13.61-11.94" fill="none" stroke="#fff" stroke-linecap="round" stroke-miterlimit="10" stroke-width="3"/><path d="M1072.09 649l3.8-1a88.74 88.74 0 0 0 53.2-39.2l7.31-11.8" fill="none" stroke="#fff" stroke-linecap="round" stroke-miterlimit="10" stroke-width="3"/><path d="M1192.25 571c1.14.25 2.24.55 3.33.89l125.82 27.5a15.75 15.75 0 0 1 13.2 17.85l-5.94 39.52c-1.28 8.53-8.67 16.58-17.21 15.3a325.16 325.16 0 0 1-92.23-24.76l-11.88-5.16c-.29.16 3.28 6.81-4.71 26-7 16.78-25.71 31.34-25.71 31.34l35 40.85 6.64 20.65-2.22 13.68-4.59-1.33a16.49 16.49 0 0 1-10.07-8.28l-.76-1.48 2.52-7a10.83 10.83 0 0 0 .22-6.52 6.26 6.26 0 0 0-.83-2.11l-41-36.41a11.81 11.81 0 0 1-2.57-2.13c-3-1.87-7-5.87-5.82-9.35l11.74-26a20.66 20.66 0 0 0-2.12-14.78 26.9 26.9 0 0 0-9.91-10.26l-.69-.42a31.44 31.44 0 0 1-11.25-11.79l-2.46-4.52a31.14 31.14 0 0 1-3.76-16.56c.25-4.5.57-9.18.88-10.79 4.65-23.7 30.3-39 54.83-34.22z" fill="#fff" stroke="#0c1f2e" stroke-linejoin="round" stroke-width="3"/><path d="M1203.81 755.15l5.25 1.76a19.3 19.3 0 0 0 4.25.92l4.38.43M1221.62 574.28l-17.86 58.43 104.76 30.94 13.88-71.3h-.18a115.9 115.9 0 0 1-50.6-3.36z" fill="#fff" stroke="#0c1f2e" stroke-miterlimit="10" stroke-width="3"/><path d="M1302.69 521.39l-65.11 50.07s-18 11.72-7.68 25.46c7.29 9.73 20.94 22.21 20.94 22.21L1228 636l10 15.94 38.44-24.26s6-7 .78-16.6a193.25 193.25 0 0 1-13-18.77l53.89-13.85 12.36-40.78z" fill="#fff"/><path d="M1302.69 521.39l-65.11 50.07s-18 11.72-7.68 25.46c7.29 9.73 20.94 22.21 20.94 22.21L1228 636l10 15.94 38.44-24.26s6-7 .78-16.6a193.25 193.25 0 0 1-13-18.77l53.89-13.85 12.36-40.78z" fill="none" stroke="#091f2f" stroke-miterlimit="10" stroke-width="3"/><path fill="#fff" d="M1237.58 571.46l26.64 20.85"/><path fill="none" stroke="#091f2f" stroke-miterlimit="10" stroke-width="3" d="M1237.58 571.46l26.64 20.85"/><path fill="#fff" d="M1227.97 636.14l-10.15 7.37 4.87 9.96 2.34 11.36 14.44 5.29 1.08-5.48-5.02-4.91 2.43-7.79-9.99-15.8z"/><path fill="none" stroke="#091f2f" stroke-miterlimit="10" stroke-width="3" d="M1227.97 636.14l-10.15 7.37 4.87 9.96 2.34 11.36 14.44 5.29 1.08-5.48-5.02-4.91 2.43-7.79-9.99-15.8z"/></g></svg>