<svg xmlns="http://www.w3.org/2000/svg" viewBox="0 0 1280 800"><path fill="#FFF" d="M400.684 727.548l20.615 3.44-3.44 20.616-20.615-3.44z"/><path d="M419.5 754l-24.6-4.1 4.1-24.6 24.6 4.1-4.1 24.6zm-20-7.4l16.7 2.8 2.8-16.7-16.7-2.8-2.8 16.7z"/><path fill="#FFF" d="M139.2 579.6h25.3v25.6h-25.3z"/><path d="M166.5 607.2h-29.3v-29.6h29.3v29.6zm-25.3-4h21.3v-21.6h-21.3v21.6z"/><path fill="#FFF" d="M148.5 586.3h6.7v10.9h-6.7z"/><path d="M157.2 599.2h-10.7v-14.9h10.7v14.9zm-6.7-4h2.7v-6.9h-2.7v6.9z"/><path fill="#FFF" d="M90 642.9h189.7v70.2H90z"/><path d="M281.7 715.1H88v-74.2h193.7v74.2zm-189.7-4h185.7v-66.2H92v66.2z"/><path fill="#FFF" d="M61.1 713.1h12.6v40.3H61.1z"/><path d="M75.7 755.4H59.1v-44.3h16.6v44.3zm-12.6-4h8.6v-36.3h-8.6v36.3z"/><path fill="#FFF" d="M81.7 610.1h204.5V643H81.7z"/><path d="M288.2 644.9H79.7V608h208.5v36.9zm-204.5-4h200.5V612H83.7v28.9z"/><path fill="#FFF" d="M97.5 713.1h12.6v40.3H97.5z"/><path d="M112.1 755.4H95.5v-44.3h16.6v44.3zm-12.6-4h8.6v-36.3h-8.6v36.3z"/><path fill="#FFF" d="M135.2 604.4h33.4v17.1h-33.4z"/><path d="M170.5 623.5h-37.4v-21.1h37.4v21.1zm-33.3-4h29.4v-13.1h-29.4v13.1z"/><path fill="#FFF" d="M166.8 579.6h-29.9l8.9-10.8h12.1z"/><path d="M171 581.6h-38.4l12.1-14.8h14.1l12.2 14.8zm-29.9-4h21.5l-5.6-6.8h-10.3l-5.6 6.8z"/><path fill="#FFF" d="M133.9 713.1h12.6v40.3h-12.6z"/><path d="M148.5 755.4h-16.6v-44.3h16.6v44.3zm-12.6-4h8.6v-36.3h-8.6v36.3z"/><path fill="#FFF" d="M170.3 713.1h12.6v40.3h-12.6z"/><path d="M184.9 755.4h-16.6v-44.3h16.6v44.3zm-12.6-4h8.6v-36.3h-8.6v36.3z"/><path fill="#FFF" d="M206.7 713.1h12.6v40.3h-12.6z"/><path d="M221.4 755.4h-16.6v-44.3h16.6v44.3zm-12.7-4h8.6v-36.3h-8.6v36.3z"/><path fill="#FFF" d="M243.2 713.1h12.6v40.3h-12.6z"/><path d="M257.8 755.4h-16.6v-44.3h16.6v44.3zm-12.6-4h8.6v-36.3h-8.6v36.3z"/><path fill="#FFF" d="M279.6 713.1h12.6v40.3h-12.6z"/><path d="M294.2 755.4h-16.6v-44.3h16.6v44.3zm-12.6-4h8.6v-36.3h-8.6v36.3z"/><path fill="#FFF" d="M316 713.1h12.6v40.3H316z"/><path d="M330.6 755.4H314v-44.3h16.6v44.3zm-12.6-4h8.6v-36.3H318v36.3z"/><path fill="#FFF" d="M1301.2 744.9c-10.7-.8-10.4-6.7-21.1-6.7-10.7 0-10.7 6.6-21.4 6.6s-10.7-6.7-21.4-6.7-10.7 6.6-21.4 6.6-10.7-6.7-21.4-6.7-10.7 6.6-21.4 6.6-10.7-6.7-21.4-6.7-10.7 6.6-21.4 6.6-10.7-6.7-21.4-6.7-10.7 6.6-21.4 6.6-10.7-6.7-21.4-6.7-10.7 6.6-21.4 6.6-10.7-6.7-21.4-6.7-10.7 6.6-21.4 6.6-10.7-6.7-21.4-6.7-10.7 6.6-21.4 6.6-10.7-6.7-21.4-6.7-10.7 6.6-21.4 6.6-10.7-6.7-21.4-6.7-10.7 6.6-21.4 6.6-10.7-6.7-21.4-6.7-10.7 6.6-21.4 6.6-10.7-6.7-21.4-6.7-10.7 6.6-21.4 6.6-10.7-6.7-21.4-6.7-10.7 6.6-21.4 6.6-10.7-6.7-21.4-6.7-10.7 6.6-21.4 6.6-10.7-6.7-21.4-6.7-10.7 6.6-21.4 6.6-10.7-6.7-21.4-6.7-10.7 6.6-21.4 6.6-10.7-6.7-21.4-6.7-10.7 6.6-21.4 6.6-10.7-6.7-21.4-6.7-10.7 6.6-21.4 6.6-10.7-6.7-21.4-6.7-10.7 6.6-21.4 6.6-10.7-6.7-21.4-6.7-10.7 6.6-21.4 6.6-10.7-6.7-21.4-6.7-10.7 6.6-21.4 6.6-10.7-6.7-21.4-6.7-10.7 6.6-21.4 6.6-10.7-6.7-21.4-6.7-10.7 6.6-21.4 6.6-10.7-6.7-21.4-6.7-10.7 6.6-21.4 6.6-10.7-6.7-21.4-6.7-10.7 6.6-21.4 6.6-10.7-6.7-21.4-6.7-10.7 6.6-21.4 6.6-10.7-6.7-21.4-6.7-10.7 6.6-21.4 6.6-10.7-6.7-21.4-6.7-10.7 6.6-21.4 6.6-10.7-6.7-21.4-6.7S71 742 60.3 742s-10.7-6.7-21.4-6.7-10.7 6.6-21.4 6.6-10.7-6.7-21.4-6.7-10.5 5.8-21.2 6.6c-.8.1-3.6-2.5-3.6-1.7s6.7.8 6.7 1.6-6.7.8-6.7 1.6 6.7.8 6.7 1.6-6.7.8-6.7 1.6 6.7.8 6.7 1.6-6.7.8-6.7 1.6 6.7.8 6.7 1.6-6.7.8-6.7 1.6 6.7.8 6.7 1.6-6.7.8-6.7 1.6 6.7.8 6.7 1.6-6.7.8-6.7 1.6 6.7.8 6.7 1.6-6.7.8-6.7 1.6 6.7.8 6.7 1.6-6.7.8-6.7 1.6 6.7.8 6.7 1.6-6.7.8-6.7 1.6 6.7.8 6.7 1.6-6.7.8-6.7 1.6 6.7.8 6.7 1.6-6.7.8-6.7 1.6 6.7.8 6.7 1.6-6.7.8-6.7 1.6 6.7.8 6.7 1.6-6.7.8-6.7 1.6 6.7.8 6.7 1.6-6.7.8-6.7 1.6 6.7.8 6.7 1.6-6.7.8-6.7 1.6 6.7.8 6.7 1.6-6.7.8-6.7 1.6 6.7.8 6.7 1.6-6.7.8-6.7 1.6 6.7.8 6.7 1.6-6.7.8-6.7 1.6 6.7.8 6.7 1.6-6.7.8-6.7 1.6 6.7.8 6.7 1.6-6.7.8-6.7 1.6 6.7.8 6.7 1.6-6.7.8-6.7 1.6 6.7.8 6.7 1.6-6.7.8-6.7 1.6 6.7.8 6.7 1.6-6.7.8-6.7 1.6 6.7.8 6.7 1.6-6.7.8-6.7 1.6 6.7.8 6.7 1.6-6.7.8-6.7 1.6 6.7.8 6.7 1.6-6.7.8-6.7 1.6 6.7.8 6.7 1.6-6.7.8-6.7 1.6 6.7.8 6.7 1.6-6.7.8-6.7 1.6 6.7.8 6.7 1.6-6.7.8-6.7 1.6 6.7.8 6.7 1.6-6.7.8-6.7 1.6 2.8-1.8 3.6-1.7c10.7.8 10.5 6.6 21.2 6.6s10.7-6.7 21.5-6.7c10.7 0 10.7 6.7 21.5 6.7 10.7 0 10.7-6.7 21.5-6.7 10.7 0 10.7 6.7 21.5 6.7 10.7 0 10.7-6.7 21.5-6.7 10.7 0 10.7 6.7 21.5 6.7 10.7 0 10.7-6.7 21.5-6.7 10.7 0 10.7 6.7 21.5 6.7 10.7 0 10.7-6.7 21.5-6.7 10.7 0 10.7 6.7 21.5 6.7 10.7 0 10.7-6.7 21.5-6.7 10.7 0 10.7 6.7 21.5 6.7 10.7 0 10.7-6.7 21.5-6.7 10.7 0 10.7 6.7 21.5 6.7 10.7 0 10.7-6.7 21.5-6.7 10.7 0 10.7 6.7 21.5 6.7 10.7 0 10.7-6.7 21.5-6.7 10.7 0 10.7 6.7 21.5 6.7 10.7 0 10.7-6.7 21.5-6.7 10.7 0 10.7 6.7 21.5 6.7 10.7 0 10.7-6.7 21.5-6.7 10.7 0 10.7 6.7 21.5 6.7 10.7 0 10.7-6.7 21.5-6.7 10.7 0 10.7 6.7 21.5 6.7 10.7 0 10.7-6.7 21.5-6.7 10.7 0 10.7 6.7 21.5 6.7 10.7 0 10.7-6.7 21.5-6.7 10.7 0 10.7 6.7 21.5 6.7 10.7 0 10.7-6.7 21.5-6.7 10.7 0 10.7 6.7 21.5 6.7 10.7 0 10.7-6.7 21.5-6.7 10.7 0 10.7 6.7 21.5 6.7 10.7 0 10.7-6.7 21.5-6.7 10.7 0 10.7 6.7 21.5 6.7 10.7 0 10.7-6.7 21.5-6.7 10.7 0 10.7 6.7 21.5 6.7 10.7 0 10.7-6.7 21.5-6.7 10.7 0 10.7 6.7 21.5 6.7 10.7 0 10.7-6.7 21.5-6.7 10.7 0 10.7 6.7 21.5 6.7 10.7 0 10.7-6.7 21.5-6.7 10.7 0 10.7 6.7 21.5 6.7 10.7 0 10.7-6.7 21.5-6.7 10.7 0 10.7 6.7 21.5 6.7 10.7 0 10.7-6.7 21.5-6.7 10.7 0 10.7 6.7 21.5 6.7 10.7 0 10.7-6.7 21.5-6.7 10.7 0 10.7 6.7 21.5 6.7 10.7 0 10.7-6.7 21.5-6.7 10.7 0 10.7 6.7 21.5 6.7 10.7 0 10.7-6.7 21.5-6.7 10.7 0 10.7 6.7 21.5 6.7 10.7 0 10.7-6.7 21.5-6.7 10.7 0 10.7 6.7 21.5 6.7 10.7 0 10.7-6.7 21.5-6.7 10.7 0 10.7 6.7 21.5 6.7s10.7-6.7 21.5-6.7c10.7 0 10.7 6.7 21.5 6.7 10.7 0 10.7-6.7 21.5-6.7 10.7 0 10.7 6.7 21.5 6.7 10.7 0 10.5-5.9 21.2-6.7.8-.1 3.5 2.3 3.5 1.6 0-.8-6.7-.4-6.7-1.2 0-.8 6.6-1.2 6.6-2s-6.7-.4-6.7-1.2c0-.8 6.6-1.2 6.6-2s-6.7-.4-6.7-1.2c0-.8 6.6-1.2 6.6-2s-6.7-.4-6.7-1.2c0-.8 6.6-1.2 6.6-2s-6.7-.4-6.7-1.2c0-.8 6.6-1.2 6.6-2s-6.7-.4-6.7-1.2c0-.8 6.6-1.2 6.6-2s-6.7-.4-6.7-1.2c0-.8 6.6-1.2 6.6-2s-6.7-.4-6.7-1.2c0-.8 6.6-1.2 6.6-2s-6.7-.4-6.7-1.2c0-.8 6.6-1.2 6.6-2s-6.7-.4-6.7-1.2c0-.8 6.6-1.2 6.6-2s-6.7-.4-6.7-1.2c0-.8 6.6-1.2 6.6-2s-6.7-.4-6.7-1.2c0-.8 6.6-1.2 6.6-2s-6.7-.4-6.7-1.2c0-.8 6.6-1.2 6.6-2s-6.7-.4-6.7-1.2c0-.8 6.6-1.2 6.6-2s-6.7-.4-6.7-1.2c0-.8 6.6-1.2 6.6-2s-6.7-.4-6.7-1.2c0-.8 6.6-1.2 6.6-2s-6.7-.4-6.7-1.2c0-.8 6.6-1.2 6.6-2s-6.7-.4-6.7-1.2c0-.8 6.6-1.2 6.6-2s-6.7-.4-6.7-1.2c0-.8 6.6-1.2 6.6-2s-6.7-.4-6.7-1.2c0-.8 6.6-1.2 6.6-2s-6.7-.4-6.7-1.2c0-.8 6.6-1.2 6.6-2s-6.7-.4-6.7-1.2c0-.8 6.6-1.2 6.6-2s-6.7-.4-6.7-1.2c0-.8 6.6-1.2 6.6-2s-6.7-.4-6.7-1.2c0-.8 6.6-1.2 6.6-2s-6.7-.4-6.7-1.2c0-.8 6.6-1.2 6.6-2s-6.7-.4-6.7-1.2c0-.8 6.6-1.2 6.6-2s-6.7-.4-6.7-1.2c0-.8 6.6-1.2 6.6-2s-6.7-.4-6.7-1.2c0-.8 6.6-1.2 6.6-2s-6.7-.4-6.7-1.2c0-.8 6.6-1.2 6.6-2s-6.7-.4-6.7-1.2c0-.8 1 .8 1.7 1.2-2.1 3.5-.9 1.9-1.7 1.8z"/><path d="M1300 765c-5.9 0-9-2.1-11.8-3.8-2.6-1.6-4.9-3.2-9.6-3.2-4.8 0-7 1.6-9.6 3.2-2.7 1.7-5.8 3.8-11.7 3.8-5.9 0-9-2.1-11.7-3.8-2.6-1.6-4.9-3.2-9.6-3.2-4.8 0-7 1.6-9.6 3.2-2.7 1.7-5.8 3.8-11.7 3.8-5.9 0-9-2.1-11.7-3.8-2.6-1.6-4.9-3.2-9.6-3.2-4.8 0-7 1.6-9.6 3.2-2.7 1.7-5.8 3.8-11.7 3.8-5.9 0-9-2.1-11.7-3.8-2.6-1.6-4.9-3.2-9.6-3.2-4.8 0-7 1.6-9.6 3.2-2.7 1.7-5.8 3.8-11.7 3.8-5.9 0-9-2.1-11.7-3.8-2.6-1.6-4.9-3.2-9.6-3.2-4.8 0-7 1.6-9.6 3.2-2.7 1.7-5.8 3.8-11.7 3.8-5.9 0-9-2.1-11.7-3.8-2.6-1.6-4.9-3.2-9.6-3.2-4.8 0-7 1.6-9.6 3.2-2.7 1.7-5.8 3.8-11.7 3.8-5.9 0-9-2.1-11.7-3.8-2.6-1.6-4.9-3.2-9.6-3.2-4.8 0-7 1.6-9.6 3.2-2.7 1.7-5.8 3.8-11.7 3.8-5.9 0-9-2.1-11.7-3.8-2.6-1.6-4.9-3.2-9.6-3.2-4.8 0-7 1.6-9.6 3.2-2.7 1.7-5.8 3.8-11.7 3.8-5.9 0-9-2.1-11.7-3.8-2.6-1.6-4.9-3.2-9.6-3.2-4.8 0-7 1.1-9.6 2.7-2.7 1.7-5.8 3.3-11.7 3.3-5.9 0-9-1.6-11.7-3.3-2.6-1.6-4.9-2.7-9.6-2.7-4.8 0-7 1.1-9.6 2.7-2.7 1.7-5.8 3.3-11.7 3.3-5.9 0-9-1.6-11.7-3.3-2.6-1.6-4.9-2.7-9.6-2.7-4.8 0-7 1.1-9.6 2.7-2.7 1.7-5.8 3.3-11.7 3.3-5.9 0-9-1.6-11.7-3.3-2.6-1.6-4.9-2.7-9.6-2.7-4.8 0-7 1.1-9.6 2.7-2.7 1.7-5.8 3.3-11.7 3.3-5.9 0-9-1.6-11.7-3.3-2.6-1.6-4.9-2.7-9.6-2.7-4.8 0-7 1.1-9.6 2.7-2.7 1.7-5.8 3.3-11.7 3.3-5.9 0-9-1.6-11.7-3.3-2.6-1.6-4.9-2.7-9.6-2.7-4.8 0-7 1.1-9.6 2.7-2.7 1.7-5.8 3.3-11.7 3.3-5.9 0-9-1.6-11.7-3.3-2.6-1.6-4.9-2.7-9.6-2.7-4.8 0-7 1.1-9.6 2.7-2.7 1.7-5.8 3.3-11.7 3.3-5.9 0-9-1.6-11.7-3.3-2.6-1.6-4.9-2.7-9.6-2.7-4.8 0-7 1.1-9.6 2.7-2.7 1.7-5.8 3.3-11.7 3.3-5.9 0-9-1.6-11.7-3.3-2.6-1.6-4.9-2.7-9.6-2.7-4.8 0-7 1.1-9.6 2.7-2.7 1.7-5.8 3.3-11.7 3.3-5.9 0-9-2.1-11.7-3.8-2.6-1.6-4.9-3.2-9.6-3.2-4.8 0-7 1.6-9.6 3.2-2.7 1.7-5.8 3.8-11.7 3.8-5.9 0-9-2.1-11.7-3.8-2.6-1.6-4.9-3.2-9.6-3.2-4.8 0-7 1.6-9.6 3.2-2.7 1.7-5.8 3.8-11.7 3.8-5.9 0-9-2.1-11.7-3.8-2.6-1.6-4.9-3.2-9.6-3.2-4.8 0-7 1.6-9.6 3.2-2.7 1.7-5.8 3.8-11.7 3.8-5.9 0-9-2.1-11.7-3.8-2.6-1.6-4.9-3.2-9.6-3.2-4.8 0-7 1.6-9.6 3.2-2.7 1.7-5.8 3.8-11.7 3.8-5.9 0-9-2.1-11.7-3.8-2.6-1.6-4.9-3.2-9.6-3.2-4.8 0-7 1.6-9.6 3.2-2.7 1.7-5.8 3.8-11.7 3.8-5.9 0-9-2.1-11.7-3.8-2.6-1.6-4.9-3.2-9.6-3.2-4.8 0-7 1.6-9.6 3.2-2.7 1.7-5.8 3.8-11.7 3.8-5.9 0-9-2.1-11.7-3.8-2.6-1.6-4.9-3.2-9.6-3.2-4.8 0-7 1.5-9.6 3.1-2.7 1.7-5.8 3.7-11.8 3.7-5.9 0-9-2-11.7-3.7-2.6-1.6-4.9-3.1-9.6-3.1-4.8 0-7 1.6-9.6 3.2-2.7 1.7-5.8 3.8-11.7 3.8-5.9 0-9-2.1-11.7-3.8-2.6-1.6-4.9-3.2-9.6-3.2-4.8 0-7 1.6-9.6 3.2-2.7 1.7-5.8 3.8-11.7 3.8-5.9 0-9-2.1-11.7-3.8-2.6-1.6-4.9-3.2-9.6-3.2-4.8 0-7 1.6-9.6 3.2-2.7 1.7-5.8 3.8-11.7 3.8-5.9 0-9-2.1-11.7-3.8-2.6-1.6-4.9-3.2-9.6-3.2-4.8 0-7 1.6-9.6 3.2-2.7 1.7-5.8 3.8-11.7 3.8-5.9 0-9-2.1-11.7-3.8-2.6-1.6-4.9-3.2-9.6-3.2-4.8 0-7 1.6-9.6 3.2-2.7 1.7-5.8 3.8-11.7 3.8-5.9 0-9-2.1-11.7-3.8-2.6-1.6-4.9-3.2-9.6-3.2-4.8 0-7 1.6-9.6 3.2-2.7 1.7-5.8 3.8-11.7 3.8-5.9 0-9-2.2-11.7-3.9-2.6-1.6-4.9-3.1-9.6-3.1v-4.1c5.9 0 9 2.1 11.7 3.8 2.6 1.6 4.9 3.2 9.6 3.2 4.8 0 7-1.6 9.6-3.2 2.7-1.7 5.8-3.8 11.7-3.8 5.9 0 9 2.1 11.7 3.8 2.6 1.6 4.9 3.2 9.6 3.2 4.8 0 7-1.6 9.6-3.2 2.7-1.7 5.8-3.8 11.7-3.8 5.9 0 9 2.1 11.7 3.8 2.6 1.6 4.9 3.2 9.6 3.2 4.8 0 7-1.6 9.6-3.2 2.7-1.7 5.8-3.8 11.7-3.8 5.9 0 9 2.1 11.7 3.8 2.6 1.6 4.9 3.2 9.6 3.2 4.8 0 7-1.6 9.6-3.2 2.7-1.7 5.8-3.8 11.7-3.8 5.9 0 9 2.1 11.7 3.8 2.6 1.6 4.9 3.2 9.6 3.2 4.8 0 7-1.6 9.6-3.2 2.7-1.7 5.8-3.8 11.7-3.8 5.9 0 9 2.1 11.7 3.8 2.6 1.6 4.9 3.2 9.6 3.2 4.8 0 7-1.6 9.6-3.2 2.7-1.7 5.8-3.8 11.7-3.8 5.9 0 9 2.1 11.7 3.8 2.6 1.6 4.9 3.2 9.6 3.2 4.8 0 7-1.6 9.6-3.2 2.7-1.7 5.8-3.8 11.7-3.8 5.9 0 9 2.1 11.7 3.8 2.6 1.6 4.9 3.2 9.6 3.2 4.8 0 7-1.6 9.6-3.2 2.7-1.7 5.8-3.8 11.7-3.8 5.9 0 9 2.1 11.7 3.8 2.6 1.6 4.9 3.2 9.6 3.2 4.8 0 7-1.6 9.6-3.2 2.7-1.7 5.8-3.8 11.7-3.8 5.9 0 9 2.1 11.7 3.8 2.6 1.6 4.9 3.2 9.6 3.2 4.8 0 7-1.6 9.6-3.2 2.7-1.7 5.8-3.8 11.7-3.8 5.9 0 9 2.1 11.7 3.8 2.6 1.6 4.9 3.2 9.6 3.2 4.8 0 7-1.6 9.6-3.2 2.7-1.7 5.8-3.8 11.7-3.8 5.9 0 9 2.1 11.7 3.8 2.6 1.6 4.9 3.2 9.6 3.2 4.8 0 7-1.6 9.6-3.2 2.7-1.7 5.8-3.8 11.7-3.8 5.9 0 9 2.1 11.7 3.8 2.6 1.6 4.9 3.2 9.6 3.2 4.8 0 7-1.6 9.6-3.2 2.7-1.7 5.8-3.8 11.7-3.8 5.9 0 9 2.1 11.7 3.8 2.6 1.6 4.9 3.2 9.6 3.2 4.8 0 7-1.3 9.6-2.9 2.7-1.7 5.8-3.6 11.8-3.6 5.9 0 9 1.9 11.7 3.6 2.6 1.6 4.9 3 9.6 3 4.8 0 7-1.1 9.6-2.7 2.7-1.7 5.8-3.3 11.7-3.3 5.9 0 9 1.6 11.7 3.3 2.6 1.6 4.9 2.7 9.6 2.7 4.8 0 7-1.1 9.6-2.7 2.7-1.7 5.8-3.3 11.7-3.3 5.9 0 9 1.6 11.7 3.3 2.6 1.6 4.9 2.7 9.6 2.7 4.8 0 7-1.1 9.6-2.7 2.7-1.7 5.8-3.3 11.7-3.3 5.9 0 9 1.6 11.7 3.3 2.6 1.6 4.9 2.7 9.6 2.7 4.8 0 7-1.1 9.6-2.7 2.7-1.7 5.8-3.3 11.7-3.3 5.9 0 9 1.6 11.7 3.3 2.6 1.6 4.9 2.7 9.6 2.7 4.8 0 7-1.1 9.6-2.7 2.7-1.7 5.8-3.3 11.7-3.3 5.9 0 9 1.6 11.7 3.3 2.6 1.6 4.9 2.7 9.6 2.7 4.8 0 7-1.1 9.6-2.7 2.7-1.7 5.8-3.3 11.7-3.3 5.9 0 9 1.6 11.7 3.3 2.6 1.6 4.9 2.7 9.6 2.7 4.8 0 7-1.1 9.6-2.7 2.7-1.7 5.8-3.3 11.7-3.3 5.9 0 9 1.6 11.7 3.3 2.6 1.6 4.9 2.7 9.6 2.7 4.8 0 7-1.1 9.6-2.7 2.7-1.7 5.8-3.3 11.7-3.3 5.9 0 9 2.1 11.7 3.8 2.6 1.6 4.9 3.2 9.6 3.2 4.8 0 7-1.6 9.6-3.2 2.7-1.7 5.8-3.8 11.7-3.8 5.9 0 9 2.1 11.7 3.8 2.6 1.6 4.9 3.2 9.6 3.2 4.8 0 7-1.6 9.6-3.2 2.7-1.7 5.8-3.8 11.7-3.8 5.9 0 9 2.1 11.7 3.8 2.6 1.6 4.9 3.2 9.6 3.2 4.8 0 7-1.6 9.6-3.2 2.7-1.7 5.8-3.8 11.7-3.8 5.9 0 9 2.1 11.7 3.8 2.6 1.6 4.9 3.2 9.6 3.2 4.8 0 7-1.6 9.6-3.2 2.7-1.7 5.9-3.7 11.8-3.7s9 2 11.7 3.7c2.6 1.6 4.9 3.1 9.6 3.1 4.8 0 7-1.6 9.6-3.2 2.7-1.7 5.8-3.8 11.7-3.8 5.9 0 9 2.1 11.7 3.8 2.6 1.6 4.9 3.2 9.6 3.2 4.8 0 7-1.6 9.6-3.2 2.7-1.7 5.8-3.8 11.7-3.8 5.9 0 9 2.1 11.7 3.8 2.6 1.6 4.9 3.2 9.6 3.2 4.8 0 7-1.6 9.6-3.2 2.7-1.7 5.8-3.8 11.7-3.8 5.9 0 9 2.1 11.7 3.8 2.6 1.6 4.9 3.2 9.6 3.2 4.8 0 7-1.6 9.6-3.2 2.7-1.7 5.8-3.8 11.7-3.8 5.9 0 9 2.1 11.8 3.8 2.6 1.6 4.9 3.2 9.6 3.2 4.8 0 7-1.6 9.6-3.2 2.7-1.7 5.8-3.8 11.7-3.8v4c-4.8 0-7 1.6-9.6 3.2-2.8 1.8-5.9 3.9-11.8 3.9z"/><path fill="#FFF" d="M212.6 659L152 608.2 96.4 659H110v54h86v-54z"/><path d="M198 715h-90v-54H91.2l60.7-55.5 66.2 55.5H198v54zm-86-4h82v-54h13.1L152 610.9 101.5 657H112v54z"/><path fill="#FFF" d="M325.914 755.806l19.232 8.18-8.18 19.233-19.232-8.18z"/><path d="M338.1 785.9l-22.9-9.8 9.8-22.9 22.9 9.8-9.8 22.9zM320.4 774l15.6 6.6 6.6-15.6-15.6-6.6-6.6 15.6z"/><path fill="#FFF" d="M137.62 765.517l18.23-10.218 10.219 18.23-18.231 10.219z"/><path d="M147.1 786.5l-12.2-21.8 21.8-12.2 12.2 21.8-21.8 12.2zm-6.8-20.2l8.3 14.8 14.8-8.3-8.3-14.8-14.8 8.3z"/><path fill="#FFF" d="M1301.2 779.9c-10.7-.8-10.4-6.7-21.1-6.7-10.7 0-10.7 6.6-21.4 6.6s-10.7-6.7-21.4-6.7-10.7 6.6-21.4 6.6-10.7-6.7-21.4-6.7-10.7 6.6-21.4 6.6-10.7-6.7-21.4-6.7-10.7 6.6-21.4 6.6-10.7-6.7-21.4-6.7-10.7 6.6-21.4 6.6-10.7-6.7-21.4-6.7-10.7 6.6-21.4 6.6-10.7-6.7-21.4-6.7-10.7 6.6-21.4 6.6-10.7-6.7-21.4-6.7-10.7 6.6-21.4 6.6-10.7-6.7-21.4-6.7-10.7 6.6-21.4 6.6-10.7-6.7-21.4-6.7-10.7 6.6-21.4 6.6-10.7-6.7-21.4-6.7-10.7 6.6-21.4 6.6-10.7-6.7-21.4-6.7-10.7 6.6-21.4 6.6-10.7-6.7-21.4-6.7-10.7 6.6-21.4 6.6-10.7-6.7-21.4-6.7-10.7 6.6-21.4 6.6-10.7-6.7-21.4-6.7-10.7 6.6-21.4 6.6-10.7-6.7-21.4-6.7-10.7 6.6-21.4 6.6-10.7-6.7-21.4-6.7-10.7 6.6-21.4 6.6-10.7-6.7-21.4-6.7-10.7 6.6-21.4 6.6-10.7-6.7-21.4-6.7-10.7 6.6-21.4 6.6-10.7-6.7-21.4-6.7-10.7 6.6-21.4 6.6-10.7-6.7-21.4-6.7-10.7 6.6-21.4 6.6-10.7-6.7-21.4-6.7-10.7 6.6-21.4 6.6-10.7-6.7-21.4-6.7-10.7 6.6-21.4 6.6-10.7-6.7-21.4-6.7-10.7 6.6-21.4 6.6-10.7-6.7-21.4-6.7-10.7 6.6-21.4 6.6-10.7-6.7-21.4-6.7-10.7 6.6-21.4 6.6-10.7-6.7-21.4-6.7-10.7 6.6-21.4 6.6-10.7-6.7-21.4-6.7-10.7 6.6-21.4 6.6-10.7-6.7-21.4-6.7S71 777 60.3 777s-10.7-6.7-21.4-6.7-10.7 6.6-21.4 6.6-10.7-6.7-21.4-6.7-10.5 5.8-21.2 6.6c-.8.1-3.6-2.5-3.6-1.7s6.7.8 6.7 1.6-6.7.8-6.7 1.6 6.7.8 6.7 1.6-6.7.8-6.7 1.6 6.7.8 6.7 1.6-6.7.8-6.7 1.6 6.7.8 6.7 1.6-6.7.8-6.7 1.6 6.7.8 6.7 1.6-6.7.8-6.7 1.6 6.7.8 6.7 1.6-6.7.8-6.7 1.6 6.7.8 6.7 1.6-6.7.8-6.7 1.6 6.7.8 6.7 1.6-6.7.8-6.7 1.6 6.7.8 6.7 1.6-6.7.8-6.7 1.6 6.7.8 6.7 1.6-6.7.8-6.7 1.6 6.7.8 6.7 1.6-6.7.8-6.7 1.6 6.7.8 6.7 1.6-6.7.8-6.7 1.6 6.7.8 6.7 1.6-6.7.8-6.7 1.6 6.7.8 6.7 1.6-6.7.8-6.7 1.6 6.7.8 6.7 1.6-6.7.8-6.7 1.6 6.7.8 6.7 1.6-6.7.8-6.7 1.6 6.7.8 6.7 1.6-6.7.8-6.7 1.6 6.7.8 6.7 1.6-6.7.8-6.7 1.6 6.7.8 6.7 1.6-6.7.8-6.7 1.6 6.7.8 6.7 1.6-6.7.8-6.7 1.6 6.7.8 6.7 1.6-6.7.8-6.7 1.6 6.7.8 6.7 1.6-6.7.8-6.7 1.6 6.7.8 6.7 1.6-6.7.8-6.7 1.6 6.7.8 6.7 1.6-6.7.8-6.7 1.6 6.7.8 6.7 1.6-6.7.8-6.7 1.6 6.7.8 6.7 1.6-6.7.8-6.7 1.6 6.7.8 6.7 1.6-6.7.8-6.7 1.6 6.7.8 6.7 1.6-6.7.8-6.7 1.6 6.7.8 6.7 1.6-6.7.8-6.7 1.6 6.7.8 6.7 1.6-6.7.8-6.7 1.6 2.8-1.8 3.6-1.7c10.7.8 10.5 6.6 21.2 6.6s10.7-6.7 21.5-6.7c10.7 0 10.7 6.7 21.5 6.7 10.7 0 10.7-6.7 21.5-6.7 10.7 0 10.7 6.7 21.5 6.7 10.7 0 10.7-6.7 21.5-6.7 10.7 0 10.7 6.7 21.5 6.7 10.7 0 10.7-6.7 21.5-6.7 10.7 0 10.7 6.7 21.5 6.7 10.7 0 10.7-6.7 21.5-6.7 10.7 0 10.7 6.7 21.5 6.7 10.7 0 10.7-6.7 21.5-6.7 10.7 0 10.7 6.7 21.5 6.7 10.7 0 10.7-6.7 21.5-6.7 10.7 0 10.7 6.7 21.5 6.7 10.7 0 10.7-6.7 21.5-6.7 10.7 0 10.7 6.7 21.5 6.7 10.7 0 10.7-6.7 21.5-6.7 10.7 0 10.7 6.7 21.5 6.7 10.7 0 10.7-6.7 21.5-6.7 10.7 0 10.7 6.7 21.5 6.7 10.7 0 10.7-6.7 21.5-6.7 10.7 0 10.7 6.7 21.5 6.7 10.7 0 10.7-6.7 21.5-6.7 10.7 0 10.7 6.7 21.5 6.7 10.7 0 10.7-6.7 21.5-6.7 10.7 0 10.7 6.7 21.5 6.7 10.7 0 10.7-6.7 21.5-6.7 10.7 0 10.7 6.7 21.5 6.7 10.7 0 10.7-6.7 21.5-6.7 10.7 0 10.7 6.7 21.5 6.7 10.7 0 10.7-6.7 21.5-6.7 10.7 0 10.7 6.7 21.5 6.7 10.7 0 10.7-6.7 21.5-6.7 10.7 0 10.7 6.7 21.5 6.7 10.7 0 10.7-6.7 21.5-6.7 10.7 0 10.7 6.7 21.5 6.7 10.7 0 10.7-6.7 21.5-6.7 10.7 0 10.7 6.7 21.5 6.7 10.7 0 10.7-6.7 21.5-6.7 10.7 0 10.7 6.7 21.5 6.7 10.7 0 10.7-6.7 21.5-6.7 10.7 0 10.7 6.7 21.5 6.7 10.7 0 10.7-6.7 21.5-6.7 10.7 0 10.7 6.7 21.5 6.7 10.7 0 10.7-6.7 21.5-6.7 10.7 0 10.7 6.7 21.5 6.7 10.7 0 10.7-6.7 21.5-6.7 10.7 0 10.7 6.7 21.5 6.7 10.7 0 10.7-6.7 21.5-6.7 10.7 0 10.7 6.7 21.5 6.7 10.7 0 10.7-6.7 21.5-6.7 10.7 0 10.7 6.7 21.5 6.7 10.7 0 10.7-6.7 21.5-6.7 10.7 0 10.7 6.7 21.5 6.7 10.7 0 10.7-6.7 21.5-6.7 10.7 0 10.7 6.7 21.5 6.7s10.7-6.7 21.5-6.7c10.7 0 10.7 6.7 21.5 6.7 10.7 0 10.7-6.7 21.5-6.7 10.7 0 10.7 6.7 21.5 6.7 10.7 0 10.5-5.9 21.2-6.7.8-.1 3.5 2.3 3.5 1.6 0-.8-6.7-.4-6.7-1.2 0-.8 6.6-1.2 6.6-2s-6.7-.4-6.7-1.2c0-.8 6.6-1.2 6.6-2s-6.7-.4-6.7-1.2c0-.8 6.6-1.2 6.6-2s-6.7-.4-6.7-1.2c0-.8 6.6-1.2 6.6-2s-6.7-.4-6.7-1.2c0-.8 6.6-1.2 6.6-2s-6.7-.4-6.7-1.2c0-.8 6.6-1.2 6.6-2s-6.7-.4-6.7-1.2c0-.8 6.6-1.2 6.6-2s-6.7-.4-6.7-1.2c0-.8 6.6-1.2 6.6-2s-6.7-.4-6.7-1.2c0-.8 6.6-1.2 6.6-2s-6.7-.4-6.7-1.2c0-.8 6.6-1.2 6.6-2s-6.7-.4-6.7-1.2c0-.8 6.6-1.2 6.6-2s-6.7-.4-6.7-1.2c0-.8 6.6-1.2 6.6-2s-6.7-.4-6.7-1.2c0-.8 6.6-1.2 6.6-2s-6.7-.4-6.7-1.2c0-.8 6.6-1.2 6.6-2s-6.7-.4-6.7-1.2c0-.8 6.6-1.2 6.6-2s-6.7-.4-6.7-1.2c0-.8 6.6-1.2 6.6-2s-6.7-.4-6.7-1.2c0-.8 6.6-1.2 6.6-2s-6.7-.4-6.7-1.2c0-.8 6.6-1.2 6.6-2s-6.7-.4-6.7-1.2c0-.8 6.6-1.2 6.6-2s-6.7-.4-6.7-1.2c0-.8 6.6-1.2 6.6-2s-6.7-.4-6.7-1.2c0-.8 6.6-1.2 6.6-2s-6.7-.4-6.7-1.2c0-.8 6.6-1.2 6.6-2s-6.7-.4-6.7-1.2c0-.8 6.6-1.2 6.6-2s-6.7-.4-6.7-1.2c0-.8 6.6-1.2 6.6-2s-6.7-.4-6.7-1.2c0-.8 6.6-1.2 6.6-2s-6.7-.4-6.7-1.2c0-.8 6.6-1.2 6.6-2s-6.7-.4-6.7-1.2c0-.8 6.6-1.2 6.6-2s-6.7-.4-6.7-1.2c0-.8 6.6-1.2 6.6-2s-6.7-.4-6.7-1.2c0-.8 6.6-1.2 6.6-2s-6.7-.4-6.7-1.2c0-.8 1 .8 1.7 1.2-2.1 3.5-.9 1.9-1.7 1.8zM122.7 684h6.7v18.3h-6.7z"/><path d="M131.3 704.3h-10.7V682h10.7v22.3zm-6.6-4h2.7V686h-2.7v14.3z"/><path fill="#FFF" d="M139.4 684h6.7v18.3h-6.7z"/><path d="M148 704.3h-10.7V682H148v22.3zm-6.6-4h2.7V686h-2.7v14.3z"/><path fill="#FFF" d="M156.9 684h6.7v18.3h-6.7z"/><path d="M165.5 704.3h-10.7V682h10.7v22.3zm-6.6-4h2.7V686h-2.7v14.3z"/><path fill="#FFF" d="M139.4 642.3h6.7v18.3h-6.7z"/><path d="M148 662.6h-10.7v-22.3H148v22.3zm-6.6-4h2.7v-14.3h-2.7v14.3z"/><path fill="#FFF" d="M156.9 642.3h6.7v18.3h-6.7z"/><path d="M165.5 662.6h-10.7v-22.3h10.7v22.3zm-6.6-4h2.7v-14.3h-2.7v14.3z"/><path fill="#FFF" d="M174.4 684h6.7v18.3h-6.7z"/><path d="M183 704.3h-10.7V682H183v22.3zm-6.6-4h2.7V686h-2.7v14.3zM1300 748c-5.9 0-9-2.1-11.8-3.8-2.6-1.6-4.9-3.2-9.6-3.2-4.8 0-7 1.6-9.6 3.2-2.7 1.7-5.8 3.8-11.7 3.8-5.9 0-9-2.1-11.7-3.8-2.6-1.6-4.9-3.2-9.6-3.2-4.8 0-7 1.6-9.6 3.2-2.7 1.7-5.8 3.8-11.7 3.8-5.9 0-9-2.1-11.7-3.8-2.6-1.6-4.9-3.2-9.6-3.2-4.8 0-7 1.6-9.6 3.2-2.7 1.7-5.8 3.8-11.7 3.8-5.9 0-9-2.1-11.7-3.8-2.6-1.6-4.9-3.2-9.6-3.2-4.8 0-7 1.6-9.6 3.2-2.7 1.7-5.8 3.8-11.7 3.8-5.9 0-9-2.1-11.7-3.8-2.6-1.6-4.9-3.2-9.6-3.2-4.8 0-7 1.6-9.6 3.2-2.7 1.7-5.8 3.8-11.7 3.8-5.9 0-9-2.1-11.7-3.8-2.6-1.6-4.9-3.2-9.6-3.2-4.8 0-7 1.6-9.6 3.2-2.7 1.7-5.8 3.8-11.7 3.8-5.9 0-9-2.1-11.7-3.8-2.6-1.6-4.9-3.2-9.6-3.2-4.8 0-7 1.6-9.6 3.2-2.7 1.7-5.8 3.8-11.7 3.8-5.9 0-9-2.1-11.7-3.8-2.6-1.6-4.9-3.2-9.6-3.2-4.8 0-7 1.6-9.6 3.2-2.7 1.7-5.8 3.8-11.7 3.8-5.9 0-9-2.1-11.7-3.8-2.6-1.6-4.9-3.2-9.6-3.2-4.8 0-7 1.1-9.6 2.7-2.7 1.7-5.8 3.3-11.7 3.3-5.9 0-9-1.6-11.7-3.3-2.6-1.6-4.9-2.7-9.6-2.7-4.8 0-7 1.1-9.6 2.7-2.7 1.7-5.8 3.3-11.7 3.3-5.9 0-9-1.6-11.7-3.3-2.6-1.6-4.9-2.7-9.6-2.7-4.8 0-7 1.1-9.6 2.7-2.7 1.7-5.8 3.3-11.7 3.3-5.9 0-9-1.6-11.7-3.3-2.6-1.6-4.9-2.7-9.6-2.7-4.8 0-7 1.1-9.6 2.7-2.7 1.7-5.8 3.3-11.7 3.3-5.9 0-9-1.6-11.7-3.3-2.6-1.6-4.9-2.7-9.6-2.7-4.8 0-7 1.1-9.6 2.7-2.7 1.7-5.8 3.3-11.7 3.3-5.9 0-9-1.6-11.7-3.3-2.6-1.6-4.9-2.7-9.6-2.7-4.8 0-7 1.1-9.6 2.7-2.7 1.7-5.8 3.3-11.7 3.3-5.9 0-9-1.6-11.7-3.3-2.6-1.6-4.9-2.7-9.6-2.7-4.8 0-7 1.1-9.6 2.7-2.7 1.7-5.8 3.3-11.7 3.3-5.9 0-9-1.6-11.7-3.3-2.6-1.6-4.9-2.7-9.6-2.7-4.8 0-7 1.1-9.6 2.7-2.7 1.7-5.8 3.3-11.7 3.3-5.9 0-9-1.6-11.7-3.3-2.6-1.6-4.9-2.7-9.6-2.7-4.8 0-7 1.1-9.6 2.7-2.7 1.7-5.8 3.3-11.7 3.3-5.9 0-9-2.1-11.7-3.8-2.6-1.6-4.9-3.2-9.6-3.2-4.8 0-7 1.6-9.6 3.2-2.7 1.7-5.8 3.8-11.7 3.8-5.9 0-9-2.1-11.7-3.8-2.6-1.6-4.9-3.2-9.6-3.2-4.8 0-7 1.6-9.6 3.2-2.7 1.7-5.8 3.8-11.7 3.8-5.9 0-9-2.1-11.7-3.8-2.6-1.6-4.9-3.2-9.6-3.2-4.8 0-7 1.6-9.6 3.2-2.7 1.7-5.8 3.8-11.7 3.8-5.9 0-9-2.1-11.7-3.8-2.6-1.6-4.9-3.2-9.6-3.2-4.8 0-7 1.6-9.6 3.2-2.7 1.7-5.8 3.8-11.7 3.8-5.9 0-9-2.1-11.7-3.8-2.6-1.6-4.9-3.2-9.6-3.2-4.8 0-7 1.6-9.6 3.2-2.7 1.7-5.8 3.8-11.7 3.8-5.9 0-9-2.1-11.7-3.8-2.6-1.6-4.9-3.2-9.6-3.2-4.8 0-7 1.6-9.6 3.2-2.7 1.7-5.8 3.8-11.7 3.8-5.9 0-9-2.1-11.7-3.8-2.6-1.6-4.9-3.2-9.6-3.2-4.8 0-7 1.6-9.6 3.2-2.7 1.7-5.8 3.8-11.7 3.8-5.9 0-9-2.1-11.7-3.8-2.6-1.6-4.9-3.2-9.6-3.2-4.8 0-7 1.6-9.6 3.2-2.7 1.7-5.8 3.8-11.7 3.8-5.9 0-9-2.1-11.7-3.8-2.6-1.6-4.9-3.2-9.6-3.2-4.8 0-7 1.6-9.6 3.2-2.7 1.7-5.8 3.8-11.7 3.8-5.9 0-9-2.1-11.7-3.8-2.6-1.6-4.9-3.2-9.6-3.2-4.8 0-7 1.6-9.6 3.2-2.7 1.7-5.8 3.8-11.7 3.8-5.9 0-9-2.1-11.7-3.8-2.6-1.6-4.9-3.2-9.6-3.2-4.8 0-7 1.6-9.6 3.2-2.7 1.7-5.8 3.8-11.7 3.8-5.9 0-9-2.1-11.7-3.8-2.6-1.6-4.9-3.2-9.6-3.2-4.8 0-7 1.6-9.6 3.2-2.7 1.7-5.8 3.8-11.7 3.8-5.9 0-9-2.1-11.7-3.8-2.6-1.6-4.9-3.2-9.6-3.2-4.8 0-7 1.6-9.6 3.2-2.7 1.7-5.8 3.8-11.7 3.8-5.9 0-9-2.2-11.7-3.9-2.6-1.6-4.9-3.1-9.6-3.1v-4.1c5.9 0 9 2.1 11.7 3.8 2.6 1.6 4.9 3.2 9.6 3.2 4.8 0 7-1.6 9.6-3.2 2.7-1.7 5.8-3.8 11.7-3.8 5.9 0 9 2.1 11.7 3.8 2.6 1.6 4.9 3.2 9.6 3.2 4.8 0 7-1.6 9.6-3.2 2.7-1.7 5.8-3.8 11.7-3.8 5.9 0 9 2.1 11.7 3.8 2.6 1.6 4.9 3.2 9.6 3.2 4.8 0 7-1.6 9.6-3.2 2.7-1.7 5.8-3.8 11.7-3.8 5.9 0 9 2.1 11.7 3.8 2.6 1.6 4.9 3.2 9.6 3.2 4.8 0 7-1.6 9.6-3.2 2.7-1.7 5.8-3.8 11.7-3.8 5.9 0 9 2.1 11.7 3.8 2.6 1.6 4.9 3.2 9.6 3.2 4.8 0 7-1.6 9.6-3.2 2.7-1.7 5.8-3.8 11.7-3.8 5.9 0 9 2.1 11.7 3.8 2.6 1.6 4.9 3.2 9.6 3.2 4.8 0 7-1.6 9.6-3.2 2.7-1.7 5.8-3.8 11.7-3.8 5.9 0 9 2.1 11.7 3.8 2.6 1.6 4.9 3.2 9.6 3.2 4.8 0 7-1.6 9.6-3.2 2.7-1.7 5.8-3.8 11.7-3.8 5.9 0 9 2.1 11.7 3.8 2.6 1.6 4.9 3.2 9.6 3.2 4.8 0 7-1.6 9.6-3.2 2.7-1.7 5.8-3.8 11.7-3.8 5.9 0 9 2.1 11.7 3.8 2.6 1.6 4.9 3.2 9.6 3.2 4.8 0 7-1.6 9.6-3.2 2.7-1.7 5.8-3.8 11.7-3.8 5.9 0 9 2.1 11.7 3.8 2.6 1.6 4.9 3.2 9.6 3.2 4.8 0 7-1.6 9.6-3.2 2.7-1.7 5.8-3.8 11.7-3.8 5.9 0 9 2.1 11.7 3.8 2.6 1.6 4.9 3.2 9.6 3.2 4.8 0 7-1.6 9.6-3.2 2.7-1.7 5.8-3.8 11.7-3.8 5.9 0 9 2.1 11.7 3.8 2.6 1.6 4.9 3.2 9.6 3.2 4.8 0 7-1.6 9.6-3.2 2.7-1.7 5.8-3.8 11.7-3.8 5.9 0 9 2.1 11.7 3.8 2.6 1.6 4.9 3.2 9.6 3.2 4.8 0 7-1.6 9.6-3.2 2.7-1.7 5.8-3.8 11.7-3.8 5.9 0 9 2.1 11.7 3.8 2.6 1.6 4.9 3.2 9.6 3.2 4.8 0 7-1.1 9.6-2.7 2.7-1.7 5.8-3.3 11.7-3.3 5.9 0 9 1.6 11.7 3.3 2.6 1.6 4.9 2.7 9.6 2.7 4.8 0 7-1.1 9.6-2.7 2.7-1.7 5.8-3.3 11.7-3.3 5.9 0 9 1.6 11.7 3.3 2.6 1.6 4.9 2.7 9.6 2.7 4.8 0 7-1.1 9.6-2.7 2.7-1.7 5.8-3.3 11.7-3.3 5.9 0 9 1.6 11.7 3.3 2.6 1.6 4.9 2.7 9.6 2.7 4.8 0 7-1.1 9.6-2.7 2.7-1.7 5.8-3.3 11.7-3.3 5.9 0 9 1.6 11.7 3.3 2.6 1.6 4.9 2.7 9.6 2.7 4.8 0 7-1.2 9.6-2.9 2.7-1.7 5.9-3.5 11.8-3.5s9 1.8 11.7 3.5c2.6 1.6 4.9 2.9 9.6 2.9 4.8 0 7-1.1 9.6-2.7 2.7-1.7 5.8-3.3 11.7-3.3 5.9 0 9 1.6 11.7 3.3 2.6 1.6 4.9 2.7 9.6 2.7 4.8 0 7-1.1 9.6-2.7 2.7-1.7 5.8-3.3 11.7-3.3 5.9 0 9 1.6 11.7 3.3 2.6 1.6 4.9 2.7 9.6 2.7 4.8 0 7-1.1 9.6-2.7 2.7-1.7 5.8-3.3 11.7-3.3 5.9 0 9 1.8 11.7 3.5 2.6 1.6 4.9 3 9.6 3 4.8 0 7-1.3 9.6-3 2.7-1.7 5.8-3.6 11.7-3.6 5.9 0 9 2.1 11.7 3.8 2.6 1.6 4.9 3.2 9.6 3.2 4.8 0 7-1.6 9.6-3.2 2.7-1.7 5.8-3.8 11.7-3.8 5.9 0 9 2.1 11.7 3.8 2.6 1.6 4.9 3.2 9.6 3.2 4.8 0 7-1.6 9.6-3.2 2.7-1.7 5.8-3.8 11.7-3.8 5.9 0 9 2.1 11.7 3.8 2.6 1.6 4.9 3.2 9.6 3.2 4.8 0 7-1.6 9.6-3.2 2.7-1.7 5.8-3.8 11.7-3.8 5.9 0 9 2.1 11.7 3.8 2.6 1.6 4.9 3.2 9.6 3.2 4.8 0 7-1.6 9.6-3.2 2.7-1.7 5.8-3.8 11.7-3.8 5.9 0 9 2.1 11.7 3.8 2.6 1.6 4.9 3.2 9.6 3.2 4.8 0 7-1.6 9.6-3.2 2.7-1.7 5.8-3.8 11.7-3.8 5.9 0 9 2.1 11.7 3.8 2.6 1.6 4.9 3.2 9.6 3.2 4.8 0 7-1.6 9.6-3.2 2.7-1.7 5.8-3.8 11.7-3.8 5.9 0 9 2.1 11.7 3.8 2.6 1.6 4.9 3.2 9.6 3.2 4.8 0 7-1.6 9.6-3.2 2.7-1.7 5.8-3.8 11.7-3.8 5.9 0 9 2.1 11.7 3.8 2.6 1.6 4.9 3.2 9.6 3.2 4.8 0 7-1.6 9.6-3.2 2.7-1.7 5.8-3.8 11.7-3.8 5.9 0 9 2.1 11.8 3.8 2.6 1.6 4.9 3.2 9.6 3.2 4.8 0 7-1.6 9.6-3.2 2.7-1.7 5.8-3.8 11.7-3.8v4c-4.8 0-7 1.6-9.6 3.2-2.8 1.9-5.9 4-11.8 4z"/><path fill="#FFF" d="M-4.5 712.6h340v8.2h-340z"/><path d="M337.5 722.8h-344v-12.2h344v12.2zm-340-4h336v-4.2h-336v4.2z"/><path fill="#FFF" d="M820.2 777.3l24.3-45.3H708.9l-11.5-11h-17l-6-8H602v24.6l23 37.6"/><path d="M822 778.3l-3.5-1.9 22.6-42.4H708l-11.4-11h-17.2l-6-8H604v22.1l22.7 37.1-3.4 2-23.3-38V711h75.4l6 8h16.8l11.5 11h138.1z"/><path fill="#FFF" d="M651 594v118"/><path d="M649 594h4v118h-4z"/><path fill="#FFF" d="M844.5 732.6l52.8-32.5"/><path d="M896.217 698.445l2.096 3.407-52.805 32.488-2.096-3.407z"/><path fill="#FFF" d="M628 619h48"/><path d="M628 617h48v4h-48z"/><path fill="#FFF" d="M597.4 719.9h41.7v17.2h-41.7z"/><path d="M641.1 739.1h-45.7v-21.2h45.7v21.2zm-41.7-4h37.7v-13.2h-37.7v13.2zM1300 782c-5.9 0-9-2.1-11.8-3.8-2.6-1.6-4.9-3.2-9.6-3.2-4.8 0-7 1.6-9.6 3.2-2.7 1.7-5.8 3.8-11.7 3.8-5.9 0-9-2.1-11.7-3.8-2.6-1.6-4.9-3.2-9.6-3.2-4.8 0-7 1.6-9.6 3.2-2.7 1.7-5.8 3.8-11.7 3.8-5.9 0-9-2.1-11.7-3.8-2.6-1.6-4.9-3.2-9.6-3.2-4.8 0-7 1.6-9.6 3.2-2.7 1.7-5.8 3.8-11.7 3.8-5.9 0-9-2.1-11.7-3.8-2.6-1.6-4.9-3.2-9.6-3.2-4.8 0-7 1.6-9.6 3.2-2.7 1.7-5.8 3.8-11.7 3.8-5.9 0-9-2.1-11.7-3.8-2.6-1.6-4.9-3.2-9.6-3.2-4.8 0-7 1.6-9.6 3.2-2.7 1.7-5.8 3.8-11.7 3.8-5.9 0-9-2.1-11.7-3.8-2.6-1.6-4.9-3.2-9.6-3.2-4.8 0-7 1.6-9.6 3.2-2.7 1.7-5.8 3.8-11.7 3.8-5.9 0-9-2.1-11.7-3.8-2.6-1.6-4.9-3.2-9.6-3.2-4.8 0-7 1.6-9.6 3.2-2.7 1.7-5.8 3.8-11.7 3.8-5.9 0-9-2.1-11.7-3.8-2.6-1.6-4.9-3.2-9.6-3.2-4.8 0-7 1.6-9.6 3.2-2.7 1.7-5.8 3.8-11.7 3.8-5.9 0-9-2.1-11.7-3.8-2.6-1.6-4.9-3.2-9.6-3.2-4.8 0-7 1.1-9.6 2.7-2.7 1.7-5.8 3.3-11.7 3.3-5.9 0-9-1.6-11.7-3.3-2.6-1.6-4.9-2.7-9.6-2.7-4.8 0-7 1.1-9.6 2.7-2.7 1.7-5.8 3.3-11.7 3.3-5.9 0-9-1.6-11.7-3.3-2.6-1.6-4.9-2.7-9.6-2.7-4.8 0-7 1.1-9.6 2.7-2.7 1.7-5.8 3.3-11.7 3.3-5.9 0-9-1.6-11.7-3.3-2.6-1.6-4.9-2.7-9.6-2.7-4.8 0-7 1.1-9.6 2.7-2.7 1.7-5.8 3.3-11.7 3.3-5.9 0-9-1.6-11.7-3.3-2.6-1.6-4.9-2.7-9.6-2.7-4.8 0-7 1.1-9.6 2.7-2.7 1.7-5.8 3.3-11.7 3.3-5.9 0-9-1.6-11.7-3.3-2.6-1.6-4.9-2.7-9.6-2.7-4.8 0-7 1.1-9.6 2.7-2.7 1.7-5.8 3.3-11.7 3.3-5.9 0-9-1.6-11.7-3.3-2.6-1.6-4.9-2.7-9.6-2.7-4.8 0-7 1.1-9.6 2.7-2.7 1.7-5.8 3.3-11.7 3.3-5.9 0-9-1.6-11.7-3.3-2.6-1.6-4.9-2.7-9.6-2.7-4.8 0-7 1.1-9.6 2.7-2.7 1.7-5.8 3.3-11.7 3.3-5.9 0-9-1.6-11.7-3.3-2.6-1.6-4.9-2.7-9.6-2.7-4.8 0-7 1.1-9.6 2.7-2.7 1.7-5.8 3.3-11.7 3.3-5.9 0-9-2.1-11.7-3.8-2.6-1.6-4.9-3.2-9.6-3.2-4.8 0-7 1.6-9.6 3.2-2.7 1.7-5.8 3.8-11.7 3.8-5.9 0-9-2.1-11.7-3.8-2.6-1.6-4.9-3.2-9.6-3.2-4.8 0-7 1.6-9.6 3.2-2.7 1.7-5.8 3.8-11.7 3.8-5.9 0-9-2.1-11.7-3.8-2.6-1.6-4.9-3.2-9.6-3.2-4.8 0-7 1.6-9.6 3.2-2.7 1.7-5.8 3.8-11.7 3.8-5.9 0-9-2.1-11.7-3.8-2.6-1.6-4.9-3.2-9.6-3.2-4.8 0-7 1.6-9.6 3.2-2.7 1.7-5.8 3.8-11.7 3.8-5.9 0-9-2.1-11.7-3.8-2.6-1.6-4.9-3.2-9.6-3.2-4.8 0-7 1.6-9.6 3.2-2.7 1.7-5.8 3.8-11.7 3.8-5.9 0-9-2.1-11.7-3.8-2.6-1.6-4.9-3.2-9.6-3.2-4.8 0-7 1.6-9.6 3.2-2.7 1.7-5.8 3.8-11.7 3.8-5.9 0-9-2.1-11.7-3.8-2.6-1.6-4.9-3.2-9.6-3.2-4.8 0-7 1.6-9.6 3.2-2.7 1.7-5.8 3.8-11.7 3.8-5.9 0-9-2.1-11.7-3.8-2.6-1.6-4.9-3.2-9.6-3.2-4.8 0-7 1.6-9.6 3.2-2.7 1.7-5.8 3.8-11.7 3.8-5.9 0-9-2.1-11.7-3.8-2.6-1.6-4.9-3.2-9.6-3.2-4.8 0-7 1.6-9.6 3.2-2.7 1.7-5.8 3.8-11.7 3.8-5.9 0-9-2.1-11.7-3.8-2.6-1.6-4.9-3.2-9.6-3.2-4.8 0-7 1.6-9.6 3.2-2.7 1.7-5.8 3.8-11.7 3.8-5.9 0-9-2.1-11.7-3.8-2.6-1.6-4.9-3.2-9.6-3.2-4.8 0-7 1.6-9.6 3.2-2.7 1.7-5.8 3.8-11.7 3.8-5.9 0-9-2.1-11.7-3.8-2.6-1.6-4.9-3.2-9.6-3.2-4.8 0-7 1.6-9.6 3.2-2.7 1.7-5.8 3.8-11.7 3.8-5.9 0-9-2.1-11.7-3.8-2.6-1.6-4.9-3.2-9.6-3.2-4.8 0-7 1.6-9.6 3.2-2.7 1.7-5.8 3.8-11.7 3.8-5.9 0-9-2.2-11.7-3.9-2.6-1.6-4.9-3.1-9.6-3.1v-4.1c5.9 0 9 2.1 11.7 3.8 2.6 1.6 4.9 3.2 9.6 3.2 4.8 0 7-1.6 9.6-3.2 2.7-1.7 5.8-3.8 11.7-3.8 5.9 0 9 2.1 11.7 3.8 2.6 1.6 4.9 3.2 9.6 3.2 4.8 0 7-1.6 9.6-3.2 2.7-1.7 5.8-3.8 11.7-3.8 5.9 0 9 2.1 11.7 3.8 2.6 1.6 4.9 3.2 9.6 3.2 4.8 0 7-1.6 9.6-3.2 2.7-1.7 5.8-3.7 11.8-3.7 5.9 0 9 2 11.7 3.7 2.6 1.6 4.9 3.1 9.6 3.1 4.8 0 7-1.6 9.6-3.2 2.7-1.7 5.8-3.8 11.7-3.8 5.9 0 9 2.1 11.7 3.8 2.6 1.6 4.9 3.2 9.6 3.2 4.8 0 7-1.6 9.6-3.2 2.7-1.7 5.8-3.8 11.7-3.8 5.9 0 9 2.1 11.7 3.8 2.6 1.6 4.9 3.2 9.6 3.2 4.8 0 7-1.6 9.6-3.2 2.7-1.7 5.8-3.8 11.7-3.8 5.9 0 9 2.1 11.7 3.8 2.6 1.6 4.9 3.2 9.6 3.2 4.8 0 7-1.6 9.6-3.2 2.7-1.7 5.8-3.8 11.7-3.8 5.9 0 9 2.1 11.7 3.8 2.6 1.6 4.9 3.2 9.6 3.2 4.8 0 7-1.6 9.6-3.2 2.7-1.7 5.8-3.8 11.7-3.8 5.9 0 9 2.1 11.7 3.8 2.6 1.6 4.9 3.2 9.6 3.2 4.8 0 7-1.6 9.6-3.2 2.7-1.7 5.8-3.8 11.7-3.8 5.9 0 9 2.1 11.7 3.8 2.6 1.6 4.9 3.2 9.6 3.2 4.8 0 7-1.6 9.6-3.2 2.7-1.7 5.8-3.8 11.7-3.8 5.9 0 9 2.1 11.7 3.8 2.6 1.6 4.9 3.2 9.6 3.2 4.8 0 7-1.6 9.6-3.2 2.7-1.7 5.8-3.8 11.7-3.8 5.9 0 9 2.1 11.7 3.8 2.6 1.6 4.9 3.2 9.6 3.2 4.8 0 7-1.6 9.6-3.2 2.7-1.7 5.8-3.8 11.7-3.8 5.9 0 9 2.1 11.7 3.8 2.6 1.6 4.9 3.2 9.6 3.2 4.8 0 7-1.6 9.6-3.2 2.7-1.7 5.8-3.8 11.7-3.8 5.9 0 9 2.1 11.7 3.8 2.6 1.6 4.9 3.2 9.6 3.2 4.8 0 7-1.1 9.6-2.7 2.7-1.7 5.8-3.3 11.7-3.3 5.9 0 9 1.6 11.7 3.3 2.6 1.6 4.9 2.7 9.6 2.7 4.8 0 7-1.1 9.6-2.7 2.7-1.7 5.8-3.3 11.7-3.3 5.9 0 9 1.6 11.7 3.3 2.6 1.6 4.9 2.7 9.6 2.7 4.8 0 7-1.1 9.6-2.7 2.7-1.7 5.8-3.3 11.7-3.3 5.9 0 9 1.6 11.7 3.3 2.6 1.6 4.9 2.7 9.6 2.7 4.8 0 7-1.1 9.6-2.7 2.7-1.7 5.8-3.3 11.7-3.3 5.9 0 9 1.6 11.7 3.3 2.6 1.6 4.9 2.7 9.6 2.7 4.8 0 7-1.1 9.6-2.7 2.7-1.7 5.8-3.3 11.7-3.3 5.9 0 9 1.6 11.7 3.3 2.6 1.6 4.9 2.7 9.6 2.7 4.8 0 7-1.1 9.6-2.7 2.7-1.7 5.8-3.3 11.7-3.3 5.9 0 9 1.6 11.7 3.3 2.6 1.6 4.9 2.7 9.6 2.7 4.8 0 7-1.1 9.6-2.7 2.7-1.7 5.8-3.3 11.7-3.3 5.9 0 9 1.6 11.7 3.3 2.6 1.6 4.9 2.7 9.6 2.7 4.8 0 7-1.1 9.6-2.7 2.7-1.7 5.8-3.3 11.7-3.3 5.9 0 9 1.8 11.7 3.5 2.6 1.6 4.9 3 9.6 3 4.8 0 7-1.3 9.6-3 2.7-1.7 5.8-3.6 11.7-3.6 5.9 0 9 2.1 11.7 3.8 2.6 1.6 4.9 3.2 9.6 3.2 4.8 0 7-1.6 9.6-3.2 2.7-1.7 5.8-3.8 11.7-3.8 5.9 0 9 2.1 11.7 3.8 2.6 1.6 4.9 3.2 9.6 3.2 4.8 0 7-1.6 9.6-3.2 2.7-1.7 5.8-3.8 11.7-3.8 5.9 0 9 2.1 11.7 3.8 2.6 1.6 4.9 3.2 9.6 3.2 4.8 0 7-1.6 9.6-3.2 2.7-1.7 5.8-3.8 11.7-3.8 5.9 0 9 2.1 11.7 3.8 2.6 1.6 4.9 3.2 9.6 3.2 4.8 0 7-1.6 9.6-3.2 2.7-1.7 5.8-3.8 11.7-3.8 5.9 0 9 2.1 11.7 3.8 2.6 1.6 4.9 3.2 9.6 3.2 4.8 0 7-1.6 9.6-3.2 2.7-1.7 5.8-3.8 11.7-3.8 5.9 0 9 2.1 11.7 3.8 2.6 1.6 4.9 3.2 9.6 3.2 4.8 0 7-1.6 9.6-3.2 2.7-1.7 5.8-3.8 11.7-3.8 5.9 0 9 2.1 11.7 3.8 2.6 1.6 4.9 3.2 9.6 3.2 4.8 0 7-1.6 9.6-3.2 2.7-1.7 5.8-3.8 11.7-3.8 5.9 0 9 2.1 11.7 3.8 2.6 1.6 4.9 3.2 9.6 3.2 4.8 0 7-1.6 9.6-3.2 2.7-1.7 5.8-3.8 11.7-3.8 5.9 0 9 2.1 11.8 3.8 2.6 1.6 4.9 3.2 9.6 3.2 4.8 0 7-1.6 9.6-3.2 2.7-1.7 5.8-3.8 11.7-3.8v4c-4.8 0-7 1.6-9.6 3.2-2.8 2-5.9 4.1-11.8 4.1zM1300 799c-5.9 0-9-2.1-11.8-3.8-2.6-1.6-4.9-3.2-9.6-3.2-4.8 0-7 1.6-9.6 3.2-2.7 1.7-5.8 3.8-11.7 3.8-5.9 0-9-2.1-11.7-3.8-2.6-1.6-4.9-3.2-9.6-3.2-4.8 0-7 1.6-9.6 3.2-2.7 1.7-5.8 3.8-11.7 3.8-5.9 0-9-2.1-11.7-3.8-2.6-1.6-4.9-3.2-9.6-3.2-4.8 0-7 1.6-9.6 3.2-2.7 1.7-5.8 3.8-11.7 3.8-5.9 0-9-2.1-11.7-3.8-2.6-1.6-4.9-3.2-9.6-3.2-4.8 0-7 1.6-9.6 3.2-2.7 1.7-5.8 3.8-11.7 3.8-5.9 0-9-2.1-11.7-3.8-2.6-1.6-4.9-3.2-9.6-3.2-4.8 0-7 1.6-9.6 3.2-2.7 1.7-5.8 3.8-11.7 3.8-5.9 0-9-2.1-11.7-3.8-2.6-1.6-4.9-3.2-9.6-3.2-4.8 0-7 1.6-9.6 3.2-2.7 1.7-5.8 3.8-11.7 3.8-5.9 0-9-2.1-11.7-3.8-2.6-1.6-4.9-3.2-9.6-3.2-4.8 0-7 1.6-9.6 3.2-2.7 1.7-5.8 3.8-11.7 3.8-5.9 0-9-2.1-11.7-3.8-2.6-1.6-4.9-3.2-9.6-3.2-4.8 0-7 1.6-9.6 3.2-2.7 1.7-5.8 3.8-11.7 3.8-5.9 0-9-2.1-11.7-3.8-2.6-1.6-4.9-3.2-9.6-3.2-4.8 0-7 1.1-9.6 2.7-2.7 1.7-5.8 3.3-11.7 3.3-5.9 0-9-1.6-11.7-3.3-2.6-1.6-4.9-2.7-9.6-2.7-4.8 0-7 1.1-9.6 2.7-2.7 1.7-5.8 3.3-11.7 3.3-5.9 0-9-1.6-11.7-3.3-2.6-1.6-4.9-2.7-9.6-2.7-4.8 0-7 1.1-9.6 2.7-2.7 1.7-5.8 3.3-11.7 3.3-5.9 0-9-1.6-11.7-3.3-2.6-1.6-4.9-2.7-9.6-2.7-4.8 0-7 1.1-9.6 2.7-2.7 1.7-5.8 3.3-11.7 3.3-5.9 0-9-1.6-11.7-3.3-2.6-1.6-4.9-2.7-9.6-2.7-4.8 0-7 1.1-9.6 2.7-2.7 1.7-5.8 3.3-11.7 3.3-5.9 0-9-1.6-11.7-3.3-2.6-1.6-4.9-2.7-9.6-2.7-4.8 0-7 1.1-9.6 2.7-2.7 1.7-5.8 3.3-11.7 3.3-5.9 0-9-1.6-11.7-3.3-2.6-1.6-4.9-2.7-9.6-2.7-4.8 0-7 1.1-9.6 2.7-2.7 1.7-5.8 3.3-11.7 3.3-5.9 0-9-1.6-11.7-3.3-2.6-1.6-4.9-2.7-9.6-2.7-4.8 0-7 1.1-9.6 2.7-2.7 1.7-5.8 3.3-11.7 3.3-5.9 0-9-1.6-11.7-3.3-2.6-1.6-4.9-2.7-9.6-2.7-4.8 0-7 1.1-9.6 2.7-2.7 1.7-5.8 3.3-11.7 3.3-5.9 0-9-2.1-11.7-3.8-2.6-1.6-4.9-3.2-9.6-3.2-4.8 0-7 1.6-9.6 3.2-2.7 1.7-5.8 3.8-11.7 3.8-5.9 0-9-2.1-11.7-3.8-2.6-1.6-4.9-3.2-9.6-3.2-4.8 0-7 1.6-9.6 3.2-2.7 1.7-5.8 3.8-11.7 3.8-5.9 0-9-2.1-11.7-3.8-2.6-1.6-4.9-3.2-9.6-3.2-4.8 0-7 1.6-9.6 3.2-2.7 1.7-5.8 3.8-11.7 3.8-5.9 0-9-2.1-11.7-3.8-2.6-1.6-4.9-3.2-9.6-3.2-4.8 0-7 1.6-9.6 3.2-2.7 1.7-5.8 3.8-11.7 3.8-5.9 0-9-2.1-11.7-3.8-2.6-1.6-4.9-3.2-9.6-3.2-4.8 0-7 1.6-9.6 3.2-2.7 1.7-5.8 3.8-11.7 3.8-5.9 0-9-2.1-11.7-3.8-2.6-1.6-4.9-3.2-9.6-3.2-4.8 0-7 1.6-9.6 3.2-2.7 1.7-5.8 3.8-11.7 3.8-5.9 0-9-2.1-11.7-3.8-2.6-1.6-4.9-3.2-9.6-3.2-4.8 0-7 1.6-9.6 3.2-2.7 1.7-5.8 3.8-11.7 3.8-5.9 0-9-2.1-11.7-3.8-2.6-1.6-4.9-3.2-9.6-3.2-4.8 0-7 1.6-9.6 3.2-2.7 1.7-5.8 3.8-11.7 3.8-5.9 0-9-2.1-11.7-3.8-2.6-1.6-4.9-3.2-9.6-3.2-4.8 0-7 1.6-9.6 3.2-2.7 1.7-5.8 3.8-11.7 3.8-5.9 0-9-2.1-11.7-3.8-2.6-1.6-4.9-3.2-9.6-3.2-4.8 0-7 1.6-9.6 3.2-2.7 1.7-5.8 3.8-11.7 3.8-5.9 0-9-2.1-11.7-3.8-2.6-1.6-4.9-3.2-9.6-3.2-4.8 0-7 1.6-9.6 3.2-2.7 1.7-5.8 3.8-11.7 3.8-5.9 0-9-2.1-11.7-3.8-2.6-1.6-4.9-3.2-9.6-3.2-4.8 0-7 1.6-9.6 3.2-2.7 1.7-5.8 3.8-11.7 3.8-5.9 0-9-2.1-11.7-3.8-2.6-1.6-4.9-3.2-9.6-3.2-4.8 0-7 1.6-9.6 3.2-2.7 1.7-5.8 3.8-11.7 3.8-5.9 0-9-2.2-11.7-3.9-2.6-1.6-4.9-3.1-9.6-3.1v-4.1c5.9 0 9 2.1 11.7 3.8 2.6 1.6 4.9 3.2 9.6 3.2 4.8 0 7-1.6 9.6-3.2 2.7-1.7 5.8-3.8 11.7-3.8 5.9 0 9 2.1 11.7 3.8 2.6 1.6 4.9 3.2 9.6 3.2 4.8 0 7-1.6 9.6-3.2 2.7-1.7 5.8-3.8 11.7-3.8 5.9 0 9 2.1 11.7 3.8 2.6 1.6 4.9 3.2 9.6 3.2 4.8 0 7-1.6 9.6-3.2 2.7-1.7 5.8-3.8 11.7-3.8 5.9 0 9 2.1 11.7 3.8 2.6 1.6 4.9 3.2 9.6 3.2 4.8 0 7-1.6 9.6-3.2 2.7-1.7 5.8-3.8 11.7-3.8 5.9 0 9 2.1 11.7 3.8 2.6 1.6 4.9 3.2 9.6 3.2 4.8 0 7-1.6 9.6-3.2 2.7-1.7 5.8-3.8 11.7-3.8 5.9 0 9 2.1 11.7 3.8 2.6 1.6 4.9 3.2 9.6 3.2 4.8 0 7-1.6 9.6-3.2 2.7-1.7 5.8-3.8 11.7-3.8 5.9 0 9 2.1 11.7 3.8 2.6 1.6 4.9 3.2 9.6 3.2 4.8 0 7-1.6 9.6-3.2 2.7-1.7 5.8-3.8 11.7-3.8 5.9 0 9 2 11.7 3.7 2.6 1.6 4.9 3.1 9.6 3.1 4.7 0 7-1.5 9.6-3.1 2.7-1.7 5.8-3.7 11.7-3.7 5.9 0 9 2.1 11.7 3.8 2.6 1.6 4.9 3.2 9.6 3.2 4.8 0 7-1.6 9.6-3.2 2.7-1.7 5.8-3.8 11.7-3.8 5.9 0 9 2.1 11.7 3.8 2.6 1.6 4.9 3.2 9.6 3.2 4.8 0 7-1.6 9.6-3.2 2.7-1.7 5.8-3.8 11.7-3.8 5.9 0 9 2.1 11.7 3.8 2.6 1.6 4.9 3.2 9.6 3.2 4.8 0 7-1.6 9.6-3.2 2.7-1.7 5.8-3.8 11.7-3.8 5.9 0 9 2.1 11.7 3.8 2.6 1.6 4.9 3.2 9.6 3.2 4.8 0 7-1.6 9.6-3.2 2.7-1.7 5.8-3.8 11.7-3.8 5.9 0 9 2.1 11.7 3.8 2.6 1.6 4.9 3.2 9.6 3.2 4.8 0 7-1.6 9.6-3.2 2.7-1.7 5.8-3.8 11.7-3.8 5.9 0 9 2.2 11.7 3.9 2.6 1.6 4.9 3.1 9.6 3.1 4.8 0 7-1.1 9.6-2.7 2.7-1.7 5.8-3.3 11.7-3.3 5.9 0 9 1.6 11.7 3.3 2.6 1.6 4.9 2.7 9.6 2.7 4.8 0 7-1.1 9.6-2.7 2.7-1.7 5.8-3.3 11.7-3.3 5.9 0 9 1.6 11.7 3.3 2.6 1.6 4.9 2.7 9.6 2.7 4.8 0 7-1.1 9.6-2.7 2.7-1.7 5.8-3.3 11.7-3.3 5.9 0 9 1.6 11.7 3.3 2.6 1.6 4.9 2.7 9.6 2.7 4.8 0 7-1.1 9.6-2.7 2.7-1.7 5.8-3.3 11.7-3.3 5.9 0 9 1.6 11.7 3.3 2.6 1.6 4.9 2.7 9.6 2.7 4.8 0 7-1.1 9.6-2.7 2.7-1.7 5.8-3.3 11.7-3.3 5.9 0 9 1.6 11.7 3.3 2.6 1.6 4.9 2.7 9.6 2.7 4.8 0 7-1.1 9.6-2.7 2.7-1.7 5.8-3.3 11.7-3.3 5.9 0 9 1.6 11.7 3.3 2.6 1.6 4.9 2.7 9.6 2.7 4.8 0 7-1.1 9.6-2.7 2.7-1.7 5.8-3.3 11.7-3.3 5.9 0 9 1.6 11.7 3.3 2.6 1.6 4.9 2.7 9.6 2.7 4.8 0 7-1.1 9.6-2.7 2.7-1.7 5.8-3.3 11.7-3.3 5.9 0 9 1.6 11.7 3.3 2.6 1.6 4.9 2.7 9.6 2.7 4.8 0 7-1.1 9.6-2.7 2.7-1.7 5.8-3.3 11.7-3.3 5.9 0 9 2.1 11.7 3.8 2.6 1.6 4.9 3.2 9.6 3.2 4.8 0 7-1.6 9.6-3.2 2.7-1.7 5.8-3.8 11.7-3.8 5.9 0 9 2.1 11.7 3.8 2.6 1.6 4.9 3.2 9.6 3.2 4.8 0 7-1.6 9.6-3.2 2.7-1.7 5.8-3.8 11.7-3.8 5.9 0 9 2.1 11.7 3.8 2.6 1.6 4.9 3.2 9.6 3.2 4.8 0 7-1.6 9.6-3.2 2.7-1.7 5.8-3.8 11.7-3.8 5.9 0 9 1.9 11.7 3.6 2.6 1.6 4.9 3 9.6 3 4.8 0 7-1.4 9.6-3 2.7-1.7 5.8-3.6 11.7-3.6 5.9 0 9 2.1 11.7 3.8 2.6 1.6 4.9 3.2 9.6 3.2 4.8 0 7-1.6 9.6-3.2 2.7-1.7 5.8-3.8 11.7-3.8 5.9 0 9 2.1 11.7 3.8 2.6 1.6 4.9 3.2 9.6 3.2 4.8 0 7-1.6 9.6-3.2 2.7-1.7 5.8-3.8 11.7-3.8 5.9 0 9 2.1 11.7 3.8 2.6 1.6 4.9 3.2 9.6 3.2 4.8 0 7-1.6 9.6-3.2 2.7-1.7 5.8-3.8 11.7-3.8 5.9 0 9 2.1 11.7 3.8 2.6 1.6 4.9 3.2 9.6 3.2 4.8 0 7-1.6 9.6-3.2 2.7-1.7 5.8-3.8 11.7-3.8 5.9 0 9 2.1 11.8 3.8 2.6 1.6 4.9 3.2 9.6 3.2 4.8 0 7-1.6 9.6-3.2 2.7-1.7 5.8-3.8 11.7-3.8v4c-4.8 0-7 1.6-9.6 3.2-2.7 1.8-5.8 3.9-11.7 3.9z"/><path fill="#FFF" d="M607 720v18"/><path d="M605 720h4v18h-4z"/><path fill="#FFF" d="M617 721v17"/><path d="M615 721h4v17h-4z"/><path fill="#FFF" d="M628 720v18"/><path d="M626 720h4v18h-4z"/><path fill="#FFF" d="M807 588v144"/><path d="M805 588h4v144h-4z"/><path fill="#FFF" d="M687.2 676.5h-70.3l13.4-49.3h43.4z"/><path d="M689.8 678.5h-75.6l14.6-53.3h46.4l14.6 53.3zm-70.3-4h65.1l-12.4-45.3h-40.3l-12.4 45.3z"/><path fill="#FFF" d="M728 547v185"/><path d="M726 547h4v185h-4z"/><path fill="#FFF" d="M691 624h75"/><path d="M691 622h75v4h-75z"/><g><path fill="#FFF" d="M780 650h55"/><path d="M780 648h55v4h-55z"/></g><g><path fill="#FFF" d="M791 592h32"/><path d="M791 590h32v4h-32z"/></g><g><path fill="#FFF" d="M707 560h45"/><path d="M707 558h45v4h-45z"/></g><g><path d="M150 544h4v24h-4z"/></g><g><circle cx="152" cy="555.5" r="4.1"/></g><g><path fill="#FFF" d="M759.4 616h-58.8l11.3-48.9h36.3z"/><path d="M762 618h-63.9l12.2-52.9h39.4L762 618zm-58.9-4h53.8l-10.4-44.9h-33.1L703.1 614z"/></g><g><path fill="#FFF" d="M779.5 697.6h-98.4l14.9-67.2h68.7z"/><path d="M782 699.6H678.7l15.7-71.2h72l15.6 71.2zm-98.4-4H777l-13.9-63.2h-65.5l-14 63.2z"/></g><g><path fill="#FFF" d="M829.1 642.9h-43.2l8.3-43.8h26.6z"/><path d="M831.5 644.9h-48l9-47.8h29.9l9.1 47.8zm-43.1-4h38.3l-7.5-39.8h-23.3l-7.5 39.8z"/></g><g><path fill="#FFF" d="M841.5 706h-68l10.3-49.3h47.5z"/><path d="M844 708h-72.9l11.1-53.3H833l11 53.3zm-68-4h63.1l-9.4-45.3h-44.2L776 704z"/></g><g><path fill="#FFF" d="M481.248 792.119l18.19-10.295 10.295 18.189-18.19 10.295z"/><path d="M490.8 813.1l-12.3-21.7 21.7-12.3 12.3 21.7-21.7 12.3zm-6.8-20.2l8.3 14.7 14.7-8.3-8.3-14.7-14.7 8.3z"/></g><g><path fill="#FFF" d="M259.18 689.721l20.9-.04.04 20.9-20.9.04z"/><path d="M257.2 712.6v-24.9h24.9v24.9h-24.9zm4-20.9v16.9h16.9v-16.9h-16.9z"/></g><g><path fill="#FFF" d="M280.18 689.72l20.9-.038.04 20.9-20.9.039z"/><path d="M278.2 712.6v-24.9h24.9v24.9h-24.9zm4-20.9v16.9h16.9v-16.9h-16.9z"/></g><g><path fill="#FFF" d="M269.68 667.62l20.9-.038.04 20.9-20.9.039z"/><path d="M267.7 690.5v-24.9h24.9v24.9h-24.9zm4-20.9v16.9h16.9v-16.9h-16.9z"/></g></svg>