<svg width="54" height="84" xmlns="http://www.w3.org/2000/svg"><g fill="none" fill-rule="evenodd"><path d="M.083 0H24.28c6.56 0 12.498.265 16.31 1.5 7.711 2.47 10.813 8.558 10.813 14.469 0 3.353-.886 5.382-1.152 6-2.836 6.352-8.864 7.588-12.232 8.293 3.812.618 8.864 1.412 12.32 5.294 2.217 2.382 3.457 5.823 3.457 9.352 0 4.853-2.57 11.646-10.37 15.087-4.698 2.03-9.75 2.294-16.93 2.294H.084V0zm14.89 11.646v12.97h11.79c3.545-.089 9.306-.265 9.306-6.706 0-6-5.23-6.264-8.243-6.264H14.974zm0 24.262v15.088h10.903c5.23-.089 12.054-.265 12.054-7.411 0-7.5-6.204-7.588-9.395-7.677H14.974z" fill="#071722"/><path d="M0 70.966h53.238v12.086H0V70.966z" fill="#FB4D42"/></g></svg>