<svg viewBox="0 0 427 265" xmlns="http://www.w3.org/2000/svg"><g fill="none" fill-rule="evenodd"><path d="M24.607 49.041h377.705v214.033H24.607V49.041z" fill="#FFF"/><path d="M24.607 49.041h377.705v214.033H24.607V49.041z" stroke="#E9E9E9" stroke-width="3" stroke-linejoin="round"/><path d="M1.525 1.53h423.87v47.62H1.524V1.53z" stroke="#E9E9E9" stroke-width="3" stroke-linejoin="round" fill="#FFF"/><path d="M24.607 49.041h377.705v48.262H24.607V49.041zm31.475 48.262h313.706v48.263H56.082V97.303z" stroke="#E9E9E9" stroke-width="3" stroke-linejoin="round"/><path d="M243.886 83.664h101.77v101.77h-101.77V83.665z" fill="#FFF"/><path d="M243.886 83.664h101.77v101.77h-101.77V83.665z" stroke="#E9E9E9" stroke-width="3" stroke-linejoin="round"/><path d="M260.673 125.631h25.18v46.164h-25.18v-46.164z" fill="#FFF"/><path d="M260.673 125.631h25.18v46.164h-25.18v-46.164z" stroke="#E9E9E9" stroke-width="3" stroke-linejoin="round"/><path d="M302.64 125.631h25.18v46.164h-25.18v-46.164z" fill="#FFF"/><path d="M302.64 125.631h25.18v46.164h-25.18v-46.164z" stroke="#E9E9E9" stroke-width="3" stroke-linejoin="round"/><path d="M344.083 108.684h-99.485" stroke="#E9E9E9" stroke-width="3" stroke-linecap="round"/><path d="M88.607 136.023h83.934v49.412H88.607v-49.412z" stroke="#E9E9E9" stroke-width="3" stroke-linejoin="round"/><path d="M107.492 185.96v-38.82m22.033 36.72v-37.77m23.082 39.87v-38.82" stroke="#E9E9E9" stroke-width="3" stroke-linecap="round"/><path d="M185.131 136.023h58.755v80.887H185.13v-80.887z" stroke="#E9E9E9" stroke-width="3" stroke-linejoin="round"/><path d="M173.066 145.566H87.033m136.918-9.207v30.808m-18.789-30.048v31.856m-19.506-.327h58.754m72.918 92.949v-76.11m52.46 77.063v-130.1m-155.28 130.1v-45.115m-72.393 25.18v-54.557m-72.394 54.557V146.09m-13.639 96.525V146.09m158.003 96.953H25.13" stroke="#E9E9E9" stroke-width="3" stroke-linecap="round"/><path d="M16.213 14.418h12.59v20.984h-12.59V14.418z" fill="#FFF"/><path d="M16.213 14.418h12.59v20.984h-12.59V14.418z" stroke="#E9E9E9" stroke-width="3" stroke-linejoin="round"/><path d="M366.64 14.418h13.64v20.984h-13.64V14.418z" fill="#FFF"/><path d="M366.64 14.418h13.64v20.984h-13.64V14.418z" stroke="#E9E9E9" stroke-width="3" stroke-linejoin="round"/><path d="M396.017 14.418h13.64v20.984h-13.64V14.418z" fill="#FFF"/><path d="M396.017 14.418h13.64v20.984h-13.64V14.418z" stroke="#E9E9E9" stroke-width="3" stroke-linejoin="round"/><path d="M337.263 14.418h13.64v20.984h-13.64V14.418z" fill="#FFF"/><path d="M337.263 14.418h13.64v20.984h-13.64V14.418z" stroke="#E9E9E9" stroke-width="3" stroke-linejoin="round"/><path d="M307.886 14.418h13.64v20.984h-13.64V14.418z" fill="#FFF"/><path d="M307.886 14.418h13.64v20.984h-13.64V14.418z" stroke="#E9E9E9" stroke-width="3" stroke-linejoin="round"/><path d="M279.558 14.418h12.59v20.984h-12.59V14.418z" fill="#FFF"/><path d="M279.558 14.418h12.59v20.984h-12.59V14.418z" stroke="#E9E9E9" stroke-width="3" stroke-linejoin="round"/><path d="M250.18 14.418h12.59v20.984h-12.59V14.418z" fill="#FFF"/><path d="M250.18 14.418h12.59v20.984h-12.59V14.418z" stroke="#E9E9E9" stroke-width="3" stroke-linejoin="round"/><path d="M220.804 14.418h12.59v20.984h-12.59V14.418z" fill="#FFF"/><path d="M220.804 14.418h12.59v20.984h-12.59V14.418z" stroke="#E9E9E9" stroke-width="3" stroke-linejoin="round"/><path d="M191.427 14.418h13.639v20.984h-13.64V14.418z" fill="#FFF"/><path d="M191.427 14.418h13.639v20.984h-13.64V14.418z" stroke="#E9E9E9" stroke-width="3" stroke-linejoin="round"/><path d="M162.05 14.418h13.639v20.984h-13.64V14.418z" fill="#FFF"/><path d="M162.05 14.418h13.639v20.984h-13.64V14.418z" stroke="#E9E9E9" stroke-width="3" stroke-linejoin="round"/><path d="M132.672 14.418h13.64v20.984h-13.64V14.418z" fill="#FFF"/><path d="M132.672 14.418h13.64v20.984h-13.64V14.418z" stroke="#E9E9E9" stroke-width="3" stroke-linejoin="round"/><path d="M103.295 14.418h13.64v20.984h-13.64V14.418z" fill="#FFF"/><path d="M103.295 14.418h13.64v20.984h-13.64V14.418z" stroke="#E9E9E9" stroke-width="3" stroke-linejoin="round"/><path d="M74.967 14.418h12.59v20.984h-12.59V14.418z" fill="#FFF"/><path d="M74.967 14.418h12.59v20.984h-12.59V14.418z" stroke="#E9E9E9" stroke-width="3" stroke-linejoin="round"/><path d="M45.59 14.418h12.59v20.984H45.59V14.418z" fill="#FFF"/><path d="M45.59 14.418h12.59v20.984H45.59V14.418z" stroke="#E9E9E9" stroke-width="3" stroke-linejoin="round"/><path d="M366.64 62.68h13.64v20.984h-13.64V62.68z" fill="#FFF"/><path d="M366.64 62.68h13.64v20.984h-13.64V62.68z" stroke="#E9E9E9" stroke-width="3" stroke-linejoin="round"/><path d="M337.263 62.68h13.64v20.984h-13.64V62.68z" fill="#FFF"/><path d="M337.263 62.68h13.64v20.984h-13.64V62.68z" stroke="#E9E9E9" stroke-width="3" stroke-linejoin="round"/><path d="M307.886 62.68h13.64v20.984h-13.64V62.68z" fill="#FFF"/><path d="M307.886 62.68h13.64v20.984h-13.64V62.68z" stroke="#E9E9E9" stroke-width="3" stroke-linejoin="round"/><path d="M279.558 62.68h12.59v20.984h-12.59V62.68z" fill="#FFF"/><path d="M279.558 62.68h12.59v20.984h-12.59V62.68z" stroke="#E9E9E9" stroke-width="3" stroke-linejoin="round"/><path d="M250.18 62.68h12.59v20.984h-12.59V62.68z" fill="#FFF"/><path d="M250.18 62.68h12.59v20.984h-12.59V62.68z" stroke="#E9E9E9" stroke-width="3" stroke-linejoin="round"/><path d="M220.804 62.68h12.59v20.984h-12.59V62.68z" fill="#FFF"/><path d="M220.804 62.68h12.59v20.984h-12.59V62.68z" stroke="#E9E9E9" stroke-width="3" stroke-linejoin="round"/><path d="M191.427 62.68h13.639v20.984h-13.64V62.68z" fill="#FFF"/><path d="M191.427 62.68h13.639v20.984h-13.64V62.68z" stroke="#E9E9E9" stroke-width="3" stroke-linejoin="round"/><path d="M162.05 62.68h13.639v20.984h-13.64V62.68z" fill="#FFF"/><path d="M162.05 62.68h13.639v20.984h-13.64V62.68z" stroke="#E9E9E9" stroke-width="3" stroke-linejoin="round"/><path d="M132.672 62.68h13.64v20.984h-13.64V62.68z" fill="#FFF"/><path d="M132.672 62.68h13.64v20.984h-13.64V62.68z" stroke="#E9E9E9" stroke-width="3" stroke-linejoin="round"/><path d="M103.295 62.68h13.64v20.984h-13.64V62.68z" fill="#FFF"/><path d="M103.295 62.68h13.64v20.984h-13.64V62.68z" stroke="#E9E9E9" stroke-width="3" stroke-linejoin="round"/><path d="M74.967 62.68h12.59v20.984h-12.59V62.68z" fill="#FFF"/><path d="M74.967 62.68h12.59v20.984h-12.59V62.68z" stroke="#E9E9E9" stroke-width="3" stroke-linejoin="round"/><path d="M45.59 62.68h12.59v20.984H45.59V62.68z" fill="#FFF"/><path d="M45.59 62.68h12.59v20.984H45.59V62.68z" stroke="#E9E9E9" stroke-width="3" stroke-linejoin="round"/><path d="M220.804 109.894h12.59v20.983h-12.59v-20.983z" fill="#FFF"/><path d="M220.804 109.894h12.59v20.983h-12.59v-20.983z" stroke="#E9E9E9" stroke-width="3" stroke-linejoin="round"/><path d="M191.427 109.894h13.639v20.983h-13.64v-20.983z" fill="#FFF"/><path d="M191.427 109.894h13.639v20.983h-13.64v-20.983z" stroke="#E9E9E9" stroke-width="3" stroke-linejoin="round"/><path d="M162.05 109.894h13.639v20.983h-13.64v-20.983z" fill="#FFF"/><path d="M162.05 109.894h13.639v20.983h-13.64v-20.983z" stroke="#E9E9E9" stroke-width="3" stroke-linejoin="round"/><path d="M132.672 109.894h13.64v20.983h-13.64v-20.983z" fill="#FFF"/><path d="M132.672 109.894h13.64v20.983h-13.64v-20.983z" stroke="#E9E9E9" stroke-width="3" stroke-linejoin="round"/><path d="M103.295 109.894h13.64v20.983h-13.64v-20.983z" fill="#FFF"/><path d="M103.295 109.894h13.64v20.983h-13.64v-20.983z" stroke="#E9E9E9" stroke-width="3" stroke-linejoin="round"/><path d="M74.967 109.894h12.59v20.983h-12.59v-20.983z" fill="#FFF"/><path d="M74.967 109.894h12.59v20.983h-12.59v-20.983z" stroke="#E9E9E9" stroke-width="3" stroke-linejoin="round"/></g></svg>