<svg xmlns="http://www.w3.org/2000/svg" xmlns:xlink="http://www.w3.org/1999/xlink" viewBox="0 0 140 140"><defs><path id="a" d="M-678.8-687.5c-29.3 0-53-23.7-53-53s23.7-53 53-53 53 23.7 53 53-23.7 53-53 53zm0 3c30.9 0 56-25.1 56-56s-25.1-56-56-56-56 25.1-56 56 25.1 56 56 56z"/></defs><clipPath id="b"><use xlink:href="#a" overflow="visible"/></clipPath><g clip-path="url(#b)"><defs><circle id="c" cx="-678.8" cy="-740.5" r="54.5"/></defs><clipPath id="d"><use xlink:href="#c" overflow="visible"/></clipPath></g><defs><circle id="e" cx="-678.8" cy="-740.5" r="54.5"/></defs><clipPath id="f"><use xlink:href="#e" overflow="visible"/></clipPath><defs><path id="g" d="M-678.8-708.5c-17.7 0-32-14.3-32-32s14.3-32 32-32 32 14.3 32 32-14.3 32-32 32zm0 3c19.3 0 35-15.7 35-35s-15.7-35-35-35-35 15.7-35 35 15.7 35 35 35zm-55-90h110v110h-110v-110z"/></defs><clipPath id="h"><use xlink:href="#g" overflow="visible"/></clipPath><g clip-path="url(#h)"><defs><circle id="i" cx="-678.8" cy="-740.5" r="33.5"/></defs><clipPath id="j"><use xlink:href="#i" overflow="visible"/></clipPath></g><defs><circle id="k" cx="-678.8" cy="-740.5" r="33.5"/></defs><clipPath id="l"><use xlink:href="#k" overflow="visible"/></clipPath><defs><path id="m" d="M-680.3-794.5h-1.5v13h6v-13h-4.5zm0 3h3l-1.5-1.5v10l1.5-1.5h-3l1.5 1.5v-10l-1.5 1.5z"/></defs><clipPath id="n"><use xlink:href="#m" overflow="visible"/></clipPath><g clip-path="url(#n)"><defs><path id="o" d="M-680.3-793h3v10h-3z"/></defs><clipPath id="p"><use xlink:href="#o" overflow="visible"/></clipPath></g><defs><path id="q" d="M-680.3-793h3v10h-3z"/></defs><clipPath id="r"><use xlink:href="#q" overflow="visible"/></clipPath><defs><path id="s" d="M-734.3-738.5v1.5h13v-6h-13v4.5zm3 0v-3l-1.5 1.5h10l-1.5-1.5v3l1.5-1.5h-10l1.5 1.5z"/></defs><clipPath id="t"><use xlink:href="#s" overflow="visible"/></clipPath><g clip-path="url(#t)"><defs><path id="u" d="M-732.8-741.5h10v3h-10z"/></defs><clipPath id="v"><use xlink:href="#u" overflow="visible"/></clipPath></g><defs><path id="w" d="M-732.8-741.5h10v3h-10z"/></defs><clipPath id="x"><use xlink:href="#w" overflow="visible"/></clipPath><defs><path id="y" d="M-637.3-738.5v1.5h13v-6h-13v4.5zm3 0v-3l-1.5 1.5h10l-1.5-1.5v3l1.5-1.5h-10l1.5 1.5z"/></defs><clipPath id="z"><use xlink:href="#y" overflow="visible"/></clipPath><g clip-path="url(#z)"><defs><path id="A" d="M-635.8-741.5h10v3h-10z"/></defs><clipPath id="B"><use xlink:href="#A" overflow="visible"/></clipPath></g><defs><path id="C" d="M-635.8-741.5h10v3h-10z"/></defs><clipPath id="D"><use xlink:href="#C" overflow="visible"/></clipPath><defs><path id="E" d="M-648.3-768.3l1.1 1.1 1.1-1.1 7.1-7.1 1.1-1.1-1.1-1.1-2.1-2.1-1.1-1.1-1.1 1.1-7.1 7.1-1.1 1.1 1.1 1.1 2.1 2.1zm2.1-2.2l-2.1-2.1v2.1l7.1-7.1h-2.1l2.1 2.1v-2.1l-7.1 7.1h2.1z"/></defs><clipPath id="F"><use xlink:href="#E" overflow="visible"/></clipPath><g clip-path="url(#F)"><defs><path id="G" transform="rotate(45.001 -644.81 -773.996)" d="M-646.3-779h3v10h-3z"/></defs><clipPath id="H"><use xlink:href="#G" overflow="visible"/></clipPath></g><defs><path id="I" transform="rotate(45.001 -644.81 -773.996)" d="M-646.3-779h3v10h-3z"/></defs><clipPath id="J"><use xlink:href="#I" overflow="visible"/></clipPath><defs><path id="K" d="M-708.1-769.5l1.1-1.1-1.1-1.1-7.1-7.1-1.1-1.1-1.1 1.1-2.1 2.1-1.1 1.1 1.1 1.1 7.1 7.1 1.1 1.1 1.1-1.1 2.1-2.1zm-2.2-2.1l-2.1 2.1h2.1l-7.1-7.1v2.1l2.1-2.1h-2.1l7.1 7.1v-2.1z"/></defs><clipPath id="L"><use xlink:href="#K" overflow="visible"/></clipPath><g clip-path="url(#L)"><defs><path id="M" transform="rotate(-45.001 -713.793 -773.012)" d="M-715.3-778h3v10h-3z"/></defs><clipPath id="N"><use xlink:href="#M" overflow="visible"/></clipPath></g><defs><path id="O" transform="rotate(-45.001 -713.793 -773.012)" d="M-715.3-778h3v10h-3z"/></defs><clipPath id="P"><use xlink:href="#O" overflow="visible"/></clipPath><defs><path id="Q" d="M-648.3-712.7l1.1-1.1 1.1 1.1 7.1 7.1 1.1 1.1-1.1 1.1-2.1 2.1-1.1 1.1-1.1-1.1-7.1-7.1-1.1-1.1 1.1-1.1 2.1-2.1zm2.1 2.2l-2.1 2.1v-2.1l7.1 7.1h-2.1l2.1-2.1v2.1l-7.1-7.1h2.1z"/></defs><clipPath id="R"><use xlink:href="#Q" overflow="visible"/></clipPath><g clip-path="url(#R)"><defs><path id="S" transform="rotate(-45.001 -644.791 -707.01)" d="M-646.3-712h3v10h-3z"/></defs><clipPath id="T"><use xlink:href="#S" overflow="visible"/></clipPath></g><defs><path id="U" transform="rotate(-45.001 -644.791 -707.01)" d="M-646.3-712h3v10h-3z"/></defs><clipPath id="V"><use xlink:href="#U" overflow="visible"/></clipPath><defs><path id="W" d="M-708.1-709.5l1.1 1.1-1.1 1.1-7.1 7.1-1.1 1.1-1.1-1.1-2.1-2.1-1.1-1.1 1.1-1.1 7.1-7.1 1.1-1.1 1.1 1.1 2.1 2.1zm-2.2 2.1l-2.1-2.1h2.1l-7.1 7.1v-2.1l2.1 2.1h-2.1l7.1-7.1v2.1z"/></defs><clipPath id="X"><use xlink:href="#W" overflow="visible"/></clipPath><g clip-path="url(#X)"><defs><path id="Y" transform="rotate(45.001 -713.809 -705.995)" d="M-715.3-711h3v10h-3z"/></defs><clipPath id="Z"><use xlink:href="#Y" overflow="visible"/></clipPath></g><defs><path id="aa" transform="rotate(45.001 -713.809 -705.995)" d="M-715.3-711h3v10h-3z"/></defs><clipPath id="ab"><use xlink:href="#aa" overflow="visible"/></clipPath><defs><path id="ac" d="M-669.2-761.1c.7.3 1.5.6 2.2 1 1.3.7 2.5 1.6 3.6 2.4.4.3.7.6 1 .9.2.2.3.3.4.3l1.6 1.6-.3-2.2-2.1-14.7-.2-1.2-1 .6-12.3 8-1.8 1.2 2.1.2c.1 0 .3 0 .5.1.4.1.9.2 1.5.3 1.4.3 3.1.8 4.8 1.5zm7.5 4c-.1-.1-.4-.3-.7-.6l.1.9.6-.3zm0-1l.1.9.6-.3-.4-.4c-.1 0-.2-.1-.3-.2zm-1.9-13.1v.3l.3-.2-.3-.1zm-.8 0l.3-.2-.3-.2v.4zm-11.4 7.4l.7-.5h-.3c-.3 0-.5-.1-.6-.1l.2.6zm.9.3c-.4-.1-.7-.1-.9-.1l.1.6.8-.5z"/></defs><clipPath id="ad"><use xlink:href="#ac" overflow="visible"/></clipPath><defs><path id="ae" d="M-669-761.8c-3.9-1.6-7.1-1.9-7.1-1.9l12.3-8 2.1 14.7c.2.1-3.1-3.1-7.3-4.8zm-25-11.1l37.2-15.8 15.8 37.2-37.2 15.8-15.8-37.2z"/></defs><clipPath id="af"><use xlink:href="#ae" overflow="visible"/></clipPath><defs><path id="ag" d="M-678.8-716.5c-13.3 0-24-10.7-24-24s10.7-24 24-24 24 10.7 24 24-10.7 24-24 24zm0 3c14.9 0 27-12.1 27-27s-12.1-27-27-27-27 12.1-27 27 12.1 27 27 27zm-47-74h94v94h-94v-94z"/></defs><clipPath id="ah"><use xlink:href="#ag" overflow="visible"/></clipPath><g clip-path="url(#ah)"><defs><circle id="ai" cx="-678.8" cy="-740.5" r="25.5"/></defs><clipPath id="aj"><use xlink:href="#ai" overflow="visible"/></clipPath></g><defs><circle id="ak" cx="-678.8" cy="-740.5" r="25.5"/></defs><clipPath id="al"><use xlink:href="#ak" overflow="visible"/></clipPath><defs><path id="am" d="M-524.3-797.2h-1.5v18h19v-18h-17.5zm0 3h16l-1.5-1.5v15l1.5-1.5h-16l1.5 1.5v-15l-1.5 1.5z"/></defs><clipPath id="an"><use xlink:href="#am" overflow="visible"/></clipPath><g clip-path="url(#an)"><defs><path id="ao" d="M-524.3-795.7h16v15h-16z"/></defs><clipPath id="ap"><use xlink:href="#ao" overflow="visible"/></clipPath></g><defs><path id="aq" d="M-524.3-795.7h16v15h-16z"/></defs><clipPath id="ar"><use xlink:href="#aq" overflow="visible"/></clipPath><defs><path id="as" d="M-548.3-785.2h-1.5v43h67v-43h-65.5zm0 3h64l-1.5-1.5v40l1.5-1.5h-64l1.5 1.5v-40l-1.5 1.5z"/></defs><clipPath id="at"><use xlink:href="#as" overflow="visible"/></clipPath><g clip-path="url(#at)"><defs><path id="au" d="M-548.3-783.7h64v40h-64z"/></defs><clipPath id="av"><use xlink:href="#au" overflow="visible"/></clipPath></g><defs><path id="aw" d="M-548.3-784.7h64v40h-64z"/></defs><use xlink:href="#aw" overflow="visible" fill-rule="evenodd" clip-rule="evenodd" fill="#FFF"/><clipPath id="ax"><use xlink:href="#aw" overflow="visible"/></clipPath><g clip-path="url(#ax)"><defs><path id="ay" d="M-945.3-873.2h1121v1030h-1121z"/></defs><use xlink:href="#ay" overflow="visible" fill="#FFF"/></g><defs><path id="az" d="M-513.3-775.2h-1.5v33h22v-33h-20.5zm0 3h19l-1.5-1.5v30l1.5-1.5h-19l1.5 1.5v-30l-1.5 1.5z"/></defs><clipPath id="aA"><use xlink:href="#az" overflow="visible"/></clipPath><g clip-path="url(#aA)"><defs><path id="aB" d="M-513.3-773.7h19v30h-19z"/></defs><clipPath id="aC"><use xlink:href="#aB" overflow="visible"/></clipPath></g><defs><path id="aD" d="M-513.3-773.7h19v30h-19z"/></defs><clipPath id="aE"><use xlink:href="#aD" overflow="visible"/></clipPath><defs><path id="aF" d="M-538.3-775.2h-1.5v33h22v-33h-20.5zm0 3h19l-1.5-1.5v30l1.5-1.5h-19l1.5 1.5v-30l-1.5 1.5z"/></defs><clipPath id="aG"><use xlink:href="#aF" overflow="visible"/></clipPath><g clip-path="url(#aG)"><defs><path id="aH" d="M-538.3-773.7h19v30h-19z"/></defs><clipPath id="aI"><use xlink:href="#aH" overflow="visible"/></clipPath></g><defs><path id="aJ" d="M-538.3-773.7h19v30h-19z"/></defs><clipPath id="aK"><use xlink:href="#aJ" overflow="visible"/></clipPath><defs><path id="aL" d="M-568.8-717c0 2.9-.8 7-2.3 11.9-.6 2.1-1.3 4.3-2.1 6.5-1 2.7-2 5.4-3.1 8-.4.9-.7 1.7-1 2.4-.2.4-.3.7-.4.9l-.9 2.1h119.4l-.7-2c-.1-.2-.2-.4-.3-.9-.2-.7-.5-1.5-.8-2.4-.8-2.5-1.6-5.2-2.4-7.9-.7-2.4-1.3-4.8-1.8-7-1.1-4.8-1.7-8.8-1.7-11.8 0-2.8.7-7 1.9-12 .5-1.9 1-3.9 1.6-6 .8-2.7 1.6-5.4 2.4-7.9.3-.9.5-1.7.8-2.4.1-.4.2-.7.3-.9l.7-2h-119.4l1 2.1c.1.1.2.4.4.9.3.7.6 1.5 1 2.4 1 2.5 2.1 5.1 3.1 7.8.8 2.2 1.5 4.4 2.1 6.4 1.4 5 2.2 9 2.2 11.8zm3 0c0-3.2-.9-7.5-2.4-12.5-.6-2.1-1.4-4.3-2.2-6.5-1-2.7-2.1-5.4-3.1-8-.4-.9-.7-1.7-1-2.4-.2-.4-.3-.7-.4-.9l-1.4 2.1h115l-1.4-2c-.1.2-.2.5-.3.9-.2.7-.5 1.5-.8 2.4-.8 2.6-1.7 5.3-2.4 8-.6 2.1-1.1 4.1-1.6 6.1-1.3 5.2-2 9.5-2 12.7 0 3.2.6 7.4 1.7 12.4.5 2.3 1.1 4.7 1.8 7.1.8 2.8 1.6 5.5 2.4 8.1.3.9.6 1.7.8 2.4.1.4.2.7.3.9l1.4-2h-115l1.4 2.1c.1-.2.2-.5.4-.9.3-.7.7-1.5 1-2.4 1.1-2.6 2.1-5.3 3.1-8.1.8-2.3 1.6-4.5 2.2-6.7 1.7-5.2 2.5-9.5 2.5-12.8z"/></defs><clipPath id="aM"><use xlink:href="#aL" overflow="visible"/></clipPath><g clip-path="url(#aM)"><defs><path id="aN" d="M-567.3-717c0-9.9-9-29.7-9-29.7h115s-7 20-7 29.6c0 10.5 7 30.4 7 30.4h-115s9-20.2 9-30.3z"/></defs><clipPath id="aO"><use xlink:href="#aN" overflow="visible"/></clipPath></g><defs><path id="aP" d="M-567.3-717c0-9.9-9-29.7-9-29.7h115s-7 20-7 29.6c0 10.5 7 30.4 7 30.4h-115s9-20.2 9-30.3z"/></defs><use xlink:href="#aP" overflow="visible" fill-rule="evenodd" clip-rule="evenodd" fill="#FFF"/><clipPath id="aQ"><use xlink:href="#aP" overflow="visible"/></clipPath><g clip-path="url(#aQ)"><defs><path id="aR" d="M-945.3-872.2h1121v1030h-1121z"/></defs><use xlink:href="#aR" overflow="visible" fill="#FFF"/></g><defs><path id="aS" d="M-553.3-716.2h-1.5v6h72v-6h-70.5zm0 3h69l-1.5-1.5v3l1.5-1.5h-69l1.5 1.5v-3l-1.5 1.5zm-21.5-23h112v46h-112v-46z"/></defs><clipPath id="aT"><use xlink:href="#aS" overflow="visible"/></clipPath><g clip-path="url(#aT)"><defs><path id="aU" d="M-553.3-714.7h69v3h-69z"/></defs><clipPath id="aV"><use xlink:href="#aU" overflow="visible"/></clipPath></g><defs><path id="aW" d="M-553.3-714.7h69v3h-69z"/></defs><clipPath id="aX"><use xlink:href="#aW" overflow="visible"/></clipPath><defs><path id="aY" d="M-553.3-724.2h-1.5v6h72v-6h-70.5zm0 3h69l-1.5-1.5v3l1.5-1.5h-69l1.5 1.5v-3l-1.5 1.5zm-21.5-23h112v46h-112v-46z"/></defs><clipPath id="aZ"><use xlink:href="#aY" overflow="visible"/></clipPath><g clip-path="url(#aZ)"><defs><path id="ba" d="M-553.3-722.7h69v3h-69z"/></defs><clipPath id="bb"><use xlink:href="#ba" overflow="visible"/></clipPath></g><defs><path id="bc" d="M-553.3-722.7h69v3h-69z"/></defs><clipPath id="bd"><use xlink:href="#bc" overflow="visible"/></clipPath><defs><path id="be" d="M-521.2-708.8l.5 1.6 1.5-.7c2-.9 4.2-1.3 6.4-1.3 6 0 11.3 3.3 14.1 8.4l.5 1 1.1-.2c.6-.1 1.2-.2 1.8-.2 3.5 0 6.6 2.1 7.9 5.3l.5 1.2 1.3-.3c.4-.1.9-.2 1.4-.2 3 0 5.5 2.5 5.5 5.5s-2.5 5.5-5.5 5.5c-1.5 0-2.9-.6-3.9-1.6l-.9-.9-1 .8c-1.5 1.1-3.3 1.7-5.1 1.7-1.1 0-2.2-.2-3.2-.6l-1-.4-.7.9c-3 3.8-7.6 6.1-12.6 6.1-4.9 0-9.5-2.3-12.5-6l-.7-.8-1 .3c-1.1.4-2.2.5-3.3.5-2 0-4-.6-5.7-1.7l-.8-.5-.8.5c-1.7 1.1-3.6 1.7-5.7 1.7-2.2 0-4.3-.7-6-1.9l-1.1-.7-.9.9c-1 1.1-2.5 1.7-4 1.7-3 0-5.5-2.5-5.5-5.5s2.5-5.5 5.5-5.5h1.4l.2-1.3c.8-5 5.2-8.7 10.4-8.7h1.5v-1.5c0-5.8 4.7-10.5 10.5-10.5 4.5 0 8.5 3 9.9 7.4zm2.8-.9c-1.7-5.6-6.9-9.5-12.9-9.5-7.5 0-13.5 6-13.5 13.5l1.5-1.5c-6.6 0-12.2 4.8-13.3 11.3l1.5.2v-1.5h-.2c-4.7 0-8.5 3.8-8.5 8.5s3.8 8.5 8.5 8.5c2.4 0 4.6-1 6.2-2.7l-2 .2c2.3 1.6 5 2.5 7.8 2.5 2.6 0 5.2-.8 7.3-2.2h-1.6c2.2 1.4 4.7 2.2 7.3 2.2 1.5 0 2.9-.2 4.3-.7l-.5-1.4-1.2.9c3.6 4.5 9 7.2 14.9 7.2s11.4-2.7 15-7.3l-1.2-.9-.6 1.4c1.3.5 2.8.8 4.3.8 2.6 0 5-.8 7-2.4l-2-.1c1.6 1.6 3.7 2.5 6 2.5 4.7 0 8.5-3.8 8.5-8.5s-3.8-8.5-8.5-8.5c-.7 0-1.4.1-2.1.3l.4 1.5 1.4-.6c-1.8-4.3-5.9-7.2-10.6-7.2-.8 0-1.6.1-2.4.2l.3 1.5 1.3-.7c-3.3-6.1-9.7-10-16.7-10-2.7 0-5.2.5-7.6 1.6l1.9.9zm-65.4-29.5h128v85h-128v-85z"/></defs><clipPath id="bf"><use xlink:href="#be" overflow="visible"/></clipPath><g clip-path="url(#bf)"><defs><path id="bg" d="M-519.8-709.3c-1.5-4.9-6.1-8.5-11.5-8.5-6.6 0-12 5.4-12 12-5.9 0-10.9 4.3-11.8 10h-.2c-3.9 0-7 3.1-7 7s3.1 7 7 7c2 0 3.8-.8 5.1-2.2 2 1.4 4.3 2.2 6.9 2.2 2.4 0 4.6-.7 6.5-1.9 1.9 1.2 4.1 1.9 6.5 1.9 1.3 0 2.6-.2 3.8-.6 3.2 4 8.2 6.6 13.7 6.6 5.6 0 10.6-2.6 13.8-6.7 1.1.5 2.4.7 3.7.7 2.3 0 4.4-.8 6.1-2 1.3 1.3 3 2 4.9 2 3.9 0 7-3.1 7-7s-3.1-7-7-7c-.6 0-1.2.1-1.7.2-1.5-3.6-5.1-6.2-9.3-6.2-.7 0-1.4.1-2.1.2-3-5.5-8.8-9.2-15.4-9.2-2.5.1-4.9.6-7 1.5z"/></defs><clipPath id="bh"><use xlink:href="#bg" overflow="visible"/></clipPath></g><defs><path id="bi" d="M-519.8-709.3c-1.5-4.9-6.1-8.5-11.5-8.5-6.6 0-12 5.4-12 12-5.9 0-10.9 4.3-11.8 10h-.2c-3.9 0-7 3.1-7 7s3.1 7 7 7c2 0 3.8-.8 5.1-2.2 2 1.4 4.3 2.2 6.9 2.2 2.4 0 4.6-.7 6.5-1.9 1.9 1.2 4.1 1.9 6.5 1.9 1.3 0 2.6-.2 3.8-.6 3.2 4 8.2 6.6 13.7 6.6 5.6 0 10.6-2.6 13.8-6.7 1.1.5 2.4.7 3.7.7 2.3 0 4.4-.8 6.1-2 1.3 1.3 3 2 4.9 2 3.9 0 7-3.1 7-7s-3.1-7-7-7c-.6 0-1.2.1-1.7.2-1.5-3.6-5.1-6.2-9.3-6.2-.7 0-1.4.1-2.1.2-3-5.5-8.8-9.2-15.4-9.2-2.5.1-4.9.6-7 1.5z"/></defs><clipPath id="bj"><use xlink:href="#bi" overflow="visible"/></clipPath><defs><path id="bk" d="M-386.5-749.3l56 32.4s-1.5 14.3-8.3 24.7S-363-675-363-675l-53.4-38.5s13.7-4.3 21.6-13.8 8.3-22 8.3-22z"/></defs><clipPath id="bl"><use xlink:href="#bk" overflow="visible"/></clipPath><defs><path id="bm" d="M-361-735.5l21.8-50.6 6.2 2.7-22.4 51z"/></defs><clipPath id="bn"><use xlink:href="#bm" overflow="visible"/></clipPath><defs><path id="bo" d="M-396-709.1l1.2.9.9-1.2c-1.5-1-3.3-1.6-5.1-1.6-5 0-9 4-9 9 0 3.8 2.4 7.2 6 8.5l-1-1.4c0 4.9 4.1 8.9 9 8.9 1.4 0 2.8-.3 4.1-1l-.7-1.3-1.4.6c1.9 4 5.9 6.7 10.4 6.7 6.4 0 11.5-5.1 11.5-11.5 0-1.2-.2-2.5-.6-3.6l-1.4.5.8 1.3c2.6-1.6 4.2-4.5 4.2-7.6 0-5-4-9-9-9-1.2 0-2.3.2-3.4.7l.6 1.4 1.1-1c-2.2-2.6-5.4-4.1-8.8-4.1-3.7-.2-7.2 1.7-9.4 4.8zm2.5 1.7c1.6-2.3 4.2-3.7 7-3.7 2.5 0 4.9 1.1 6.5 3l.7.8 1-.4c.7-.3 1.5-.4 2.3-.4 3.3 0 6 2.7 6 6 0 2.1-1.1 4-2.8 5.1l-1 .6.4 1.1c.3.9.4 1.8.4 2.7 0 4.7-3.8 8.5-8.5 8.5-3.4 0-6.3-2-7.7-4.9l-.7-1.4-1.4.7c-.8.4-1.8.7-2.7.7-3.3 0-6-2.7-6-5.9v-1l-1-.3c-2.4-.8-4-3.1-4-5.7 0-3.3 2.7-6 6-6 1.2 0 2.4.4 3.4 1.1l1.2.9.9-1.5zm-34.5-26.7h81v73h-81v-73z"/></defs><clipPath id="bp"><use xlink:href="#bo" overflow="visible"/></clipPath><g clip-path="url(#bp)"><defs><path id="bq" d="M-394.7-708.2c1.8-2.6 4.8-4.3 8.2-4.3 3.1 0 5.8 1.4 7.7 3.6.9-.4 1.8-.6 2.8-.6 4.1 0 7.5 3.4 7.5 7.5 0 2.7-1.4 5-3.5 6.3.3 1 .5 2 .5 3.2 0 5.5-4.5 10-10 10-4 0-7.5-2.4-9.1-5.8-1 .5-2.2.8-3.4.8-4.1 0-7.5-3.3-7.5-7.4-2.9-1-5-3.8-5-7.1 0-4.1 3.4-7.5 7.5-7.5 1.6-.1 3.1.4 4.3 1.3z"/></defs><clipPath id="br"><use xlink:href="#bq" overflow="visible"/></clipPath></g><defs><path id="bs" d="M-394.7-708.2c1.8-2.6 4.8-4.3 8.2-4.3 3.1 0 5.8 1.4 7.7 3.6.9-.4 1.8-.6 2.8-.6 4.1 0 7.5 3.4 7.5 7.5 0 2.7-1.4 5-3.5 6.3.3 1 .5 2 .5 3.2 0 5.5-4.5 10-10 10-4 0-7.5-2.4-9.1-5.8-1 .5-2.2.8-3.4.8-4.1 0-7.5-3.3-7.5-7.4-2.9-1-5-3.8-5-7.1 0-4.1 3.4-7.5 7.5-7.5 1.6-.1 3.1.4 4.3 1.3z"/></defs><clipPath id="bt"><use xlink:href="#bs" overflow="visible"/></clipPath><defs><path id="bu" d="M-338.6-792.9l10.2 4.4 2-4.4-10.3-4-1.9 4zm-8.4 2.6l22.8 9.7 7.1-15.4-23.3-8.4-6.6 14.1z"/></defs><clipPath id="bv"><use xlink:href="#bu" overflow="visible"/></clipPath><defs><path id="bw" d="M-198.3-793.8c30.3 0 55 7.1 55 14.8v22l1.7-1.5c-.1 0-.2 0-.4-.1-.4-.1-.8-.1-1.3-.2-1.4-.2-2.9-.4-4.6-.6-4.9-.7-10-1.3-15.2-2-3.9-.5-7.7-.9-11.3-1.3-9.9-1-18.1-1.6-23.9-1.6-5.2 0-14.3.8-26.1 2.3-2.5.3-5.1.6-7.7 1-5.4.7-10.9 1.5-16.1 2.3-1.8.3-3.5.5-5 .8-.5.1-1 .2-1.4.2-.2 0-.4.1-.5.1l1.7 1.5v-23c.1-7.6 24.8-14.7 55.1-14.7zm0-3c-32.1 0-58 7.5-58 17.8v24.8l1.7-.3c.1 0 .2 0 .5-.1.4-.1.8-.1 1.4-.2 1.5-.2 3.1-.5 5-.8 5.2-.8 10.7-1.6 16.1-2.3 2.6-.4 5.2-.7 7.7-1 11.7-1.5 20.7-2.3 25.7-2.3 5.6 0 13.7.6 23.6 1.6 3.6.4 7.4.8 11.2 1.3 5.2.6 10.3 1.3 15.2 2 1.7.2 3.2.4 4.6.6.5.1.9.1 1.2.2.2 0 .4.1.4.1l1.7.3v-23.7c0-10.5-25.9-18-58-18zm-78-20h156v82.5h-156v-82.5z"/></defs><clipPath id="bx"><use xlink:href="#bw" overflow="visible"/></clipPath><g clip-path="url(#bx)"><defs><path id="by" d="M-198.3-795.3c-31.2 0-56.5 7.3-56.5 16.3v23s42.2-6.7 56.5-6.7c18 0 56.5 5.7 56.5 5.7v-22c0-9-25.3-16.3-56.5-16.3z"/></defs><clipPath id="bz"><use xlink:href="#by" overflow="visible"/></clipPath></g><defs><path id="bA" d="M-198.3-795.3c-31.2 0-56.5 7.3-56.5 16.3v23s42.2-6.7 56.5-6.7c18 0 56.5 5.7 56.5 5.7v-22c0-9-25.3-16.3-56.5-16.3z"/></defs><clipPath id="bB"><use xlink:href="#bA" overflow="visible"/></clipPath><defs><path id="bC" d="M-198.3-771.5c30.3 0 55 7.1 55 14.8 0 7.7-24.7 14.8-55 14.8s-55-7.1-55-14.8c0-7.7 24.7-14.8 55-14.8zm0-3c-32.1 0-58 7.5-58 17.8s25.9 17.8 58 17.8 58-7.5 58-17.8-25.9-17.8-58-17.8zm-78-20h156v75.6h-156v-75.6z"/></defs><clipPath id="bD"><use xlink:href="#bC" overflow="visible"/></clipPath><g clip-path="url(#bD)"><defs><ellipse id="bE" cx="-198.3" cy="-756.7" rx="56.5" ry="16.3"/></defs><clipPath id="bF"><use xlink:href="#bE" overflow="visible"/></clipPath></g><defs><ellipse id="bG" cx="-198.3" cy="-756.7" rx="56.5" ry="16.3"/></defs><clipPath id="bH"><use xlink:href="#bG" overflow="visible"/></clipPath><defs><path id="bI" d="M-238.3-752.3c0-5.3 18-10.4 40-10.4s40 5.2 40 10.4v7.1l1.2-1.5c-.1 0-.1 0-.3.1-.3 0-.6.1-.9.2-1 .2-2.1.3-3.4.5-3.6.6-7.3 1.1-11.1 1.7-2.9.4-5.6.8-8.3 1.1-7.2.9-13.1 1.3-17.2 1.3-3.7 0-10.3-.5-18.9-1.4-1.8-.2-3.7-.4-5.6-.6-4-.5-8-.9-11.8-1.4-1.3-.2-2.6-.3-3.6-.5-.4 0-.7-.1-1-.1h-.3l1.3 1.5v-8zm-3 0v9.1l1.3.2h.4c.3 0 .6.1 1 .1 1.1.1 2.3.3 3.7.5a11776882415803102 11776882415803102 0 0 0 36.7 3.5c4.3 0 10.3-.5 17.6-1.4 2.7-.3 5.4-.7 8.3-1.1 3.8-.5 7.6-1.1 11.2-1.7 1.3-.2 2.4-.4 3.4-.5.4-.1.7-.1.9-.2.3 0 .3 0 .3-.1l1.2-.2v-8.4c0-7.9-19.2-13.4-43-13.4s-43 5.6-43 13.6zm-20-33.5h126v66.9h-126v-66.9z"/></defs><clipPath id="bJ"><use xlink:href="#bI" overflow="visible"/></clipPath><g clip-path="url(#bJ)"><defs><path id="bK" d="M-239.8-752.3v7.8s31 4.1 41.5 4.1c13.2 0 41.5-4.8 41.5-4.8v-7.1c0-6.6-18.6-11.9-41.5-11.9s-41.5 5.3-41.5 11.9z"/></defs><clipPath id="bL"><use xlink:href="#bK" overflow="visible"/></clipPath></g><defs><path id="bM" d="M-239.8-752.3v7.8s31 4.1 41.5 4.1c13.2 0 41.5-4.8 41.5-4.8v-7.1c0-6.6-18.6-11.9-41.5-11.9s-41.5 5.3-41.5 11.9z"/></defs><clipPath id="bN"><use xlink:href="#bM" overflow="visible"/></clipPath><defs><path id="bO" d="M-198.3-754.5c22 0 40 5.2 40 10.4s-18 10.4-40 10.4-40-5.2-40-10.4 18-10.4 40-10.4zm0-3c-23.8 0-43 5.5-43 13.4s19.2 13.4 43 13.4 43-5.5 43-13.4-19.2-13.4-43-13.4zm-63-20h126v66.9h-126v-66.9z"/></defs><clipPath id="bP"><use xlink:href="#bO" overflow="visible"/></clipPath><g clip-path="url(#bP)"><defs><ellipse id="bQ" cx="-198.3" cy="-744" rx="41.5" ry="11.9"/></defs><clipPath id="bR"><use xlink:href="#bQ" overflow="visible"/></clipPath></g><defs><ellipse id="bS" cx="-198.3" cy="-744" rx="41.5" ry="11.9"/></defs><clipPath id="bT"><use xlink:href="#bS" overflow="visible"/></clipPath><defs><path id="bU" d="M-210.9-742.5c0 .4-.2.7-.4.8.1 0 .2-.1.4-.2.6-.2 1.6-.4 2.8-.6 2.6-.4 6-.6 9.8-.6s7.2.2 9.8.6c1.2.2 2.2.4 2.8.6l.4.2c-.2-.1-.4-.4-.4-.8s.2-.7.4-.8c-.1 0-.2.1-.4.2-.6.2-1.6.4-2.8.6-2.6.4-6 .6-9.8.6s-7.2-.2-9.8-.6c-1.2-.2-2.2-.4-2.8-.6l-.4-.2c.2.1.4.4.4.8zm-3 0c0 2.6 6.2 3.5 15.6 3.5 9.4 0 15.6-.9 15.6-3.5s-6.2-3.5-15.6-3.5c-9.4 0-15.6.9-15.6 3.5zm-20-23.5h71.2v47.1h-71.2V-766z"/></defs><clipPath id="bV"><use xlink:href="#bU" overflow="visible"/></clipPath><g clip-path="url(#bV)"><defs><ellipse id="bW" cx="-198.3" cy="-742.5" rx="14.1" ry="2"/></defs><clipPath id="bX"><use xlink:href="#bW" overflow="visible"/></clipPath></g><defs><ellipse id="bY" cx="-198.3" cy="-742.5" rx="14.1" ry="2"/></defs><clipPath id="bZ"><use xlink:href="#bY" overflow="visible"/></clipPath><defs><path id="ca" d="M-205.5-725.2s-10.5 3.3-9.1 12.3c.9 5.5 5.6 8.1 5.6 13.5s-4.6 9.5-4.6 9.5 13.5-.3 14.6-9.5c1.1-9.2-6.7-11.3-8.3-15.6-1.4-4.3 1.8-10.2 1.8-10.2z"/></defs><clipPath id="cb"><use xlink:href="#ca" overflow="visible"/></clipPath><defs><path id="cc" d="M-190.4-721.8s-15.1 4.8-13 17.6c1.2 7.9 8 11.6 8 19.4 0 7.7-6.5 13.6-6.5 13.6s19.3-.5 20.9-13.6c1.6-13.2-9.6-16.1-11.8-22.3-2.2-6.3 2.4-14.7 2.4-14.7z"/></defs><clipPath id="cd"><use xlink:href="#cc" overflow="visible"/></clipPath><defs><path id="ce" d="M-575.5-616l-1.4.4.4 1.4 30.4 99.5.4 1.4 1.4-.4 60.2-18.4 1.4-.4-.4-1.4-30.4-99.5-.4-1.4-1.4.4-60.2 18.4zm.9 2.9l60.2-18.4-1.9-1 30.4 99.5 1-1.9-60.2 18.4 1.9 1-30.4-99.5-1 1.9zm-27.3-15.7l101.4-31 43 140.6-101.4 31-43-140.6z"/></defs><clipPath id="cf"><use xlink:href="#ce" overflow="visible"/></clipPath><g clip-path="url(#cf)"><defs><path id="cg" transform="rotate(162.999 -529.693 -574.007)" d="M-561.2-626h63v104h-63z"/></defs><clipPath id="ch"><use xlink:href="#cg" overflow="visible"/></clipPath></g><defs><path id="ci" transform="rotate(162.999 -529.693 -574.007)" d="M-561.2-626h63v104h-63z"/></defs><clipPath id="cj"><use xlink:href="#ci" overflow="visible"/></clipPath><defs><path id="ck" d="M-540.2-639h-1.5v107h66v-107h-64.5zm0 3h63l-1.5-1.5v104l1.5-1.5h-63l1.5 1.5v-104l-1.5 1.5zm-21.5-23h106v147h-106v-147z"/></defs><clipPath id="cl"><use xlink:href="#ck" overflow="visible"/></clipPath><g clip-path="url(#cl)"><defs><path id="cm" d="M-540.2-637.5h63v104h-63z"/></defs><clipPath id="cn"><use xlink:href="#cm" overflow="visible"/></clipPath></g><defs><path id="co" d="M-540.2-637.5h63v104h-63z"/></defs><clipPath id="cp"><use xlink:href="#co" overflow="visible"/></clipPath><g><defs><path id="cq" d="M-531.2-609.5h44v13h-44z"/></defs><clipPath id="cr"><use xlink:href="#cq" overflow="visible"/></clipPath></g><g><defs><path id="cs" d="M-531.2-599.5h44v13h-44z"/></defs><clipPath id="ct"><use xlink:href="#cs" overflow="visible"/></clipPath></g><g><defs><path id="cu" d="M-531.2-589.5h44v13h-44z"/></defs><clipPath id="cv"><use xlink:href="#cu" overflow="visible"/></clipPath></g><g><defs><path id="cw" d="M-531.2-579.5h44v14h-44z"/></defs><clipPath id="cx"><use xlink:href="#cw" overflow="visible"/></clipPath></g><g><defs><path id="cy" d="M-531.2-568.5h44v14h-44z"/></defs><clipPath id="cz"><use xlink:href="#cy" overflow="visible"/></clipPath></g><g><defs><path id="cA" d="M-531.2-557.5h44v14h-44z"/></defs><clipPath id="cB"><use xlink:href="#cA" overflow="visible"/></clipPath></g><g><defs><path id="cC" d="M-530.2-627.5h3v13h-3z"/></defs><clipPath id="cD"><use xlink:href="#cC" overflow="visible"/></clipPath></g><g><defs><path id="cE" d="M-525.2-627.5h3v13h-3z"/></defs><clipPath id="cF"><use xlink:href="#cE" overflow="visible"/></clipPath></g><g><defs><path id="cG" d="M-520.2-627.5h3v13h-3z"/></defs><clipPath id="cH"><use xlink:href="#cG" overflow="visible"/></clipPath></g><g><defs><path id="cI" d="M-515.2-627.5h3v13h-3z"/></defs><clipPath id="cJ"><use xlink:href="#cI" overflow="visible"/></clipPath></g><g><defs><path id="cK" d="M-510.2-627.5h3v13h-3z"/></defs><clipPath id="cL"><use xlink:href="#cK" overflow="visible"/></clipPath></g><g><defs><path id="cM" d="M-510.2-576.5h3v32h-3z"/></defs><clipPath id="cN"><use xlink:href="#cM" overflow="visible"/></clipPath></g><g><defs><path id="cO" d="M-505.2-627.5h3v13h-3z"/></defs><clipPath id="cP"><use xlink:href="#cO" overflow="visible"/></clipPath></g><g><defs><path id="cQ" d="M-500.2-627.5h3v13h-3z"/></defs><clipPath id="cR"><use xlink:href="#cQ" overflow="visible"/></clipPath></g><g><defs><path id="cS" d="M-495.2-627.5h3v13h-3z"/></defs><clipPath id="cT"><use xlink:href="#cS" overflow="visible"/></clipPath></g><g><defs><path id="cU" d="M-490.2-627.5h3v13h-3z"/></defs><clipPath id="cV"><use xlink:href="#cU" overflow="visible"/></clipPath></g><g><defs><path id="cW" d="M-572.2-613.3l53.3 34.1-23.9 61.7"/></defs><clipPath id="cX"><use xlink:href="#cW" overflow="visible"/></clipPath></g><g><defs><path id="cY" d="M-409.5-638.5h-1.5v107h66v-107h-64.5zm0 3h63l-1.5-1.5v104l1.5-1.5h-63l1.5 1.5v-104l-1.5 1.5zm-21.5-23h106v147h-106v-147z"/></defs><clipPath id="cZ"><use xlink:href="#cY" overflow="visible"/></clipPath><g clip-path="url(#cZ)"><defs><path id="da" d="M-409.5-637h63v104h-63z"/></defs><clipPath id="db"><use xlink:href="#da" overflow="visible"/></clipPath></g></g><g><defs><path id="dc" d="M-409.5-637h63v104h-63z"/></defs><clipPath id="dd"><use xlink:href="#dc" overflow="visible"/></clipPath></g><g><defs><path id="de" d="M-400.5-609h44v13h-44z"/></defs><clipPath id="df"><use xlink:href="#de" overflow="visible"/></clipPath></g><g><defs><path id="dg" d="M-400.5-599h44v13h-44z"/></defs><clipPath id="dh"><use xlink:href="#dg" overflow="visible"/></clipPath></g><g><defs><path id="di" d="M-400.5-589h44v13h-44z"/></defs><clipPath id="dj"><use xlink:href="#di" overflow="visible"/></clipPath></g><g><defs><path id="dk" d="M-400.5-579h44v14h-44z"/></defs><clipPath id="dl"><use xlink:href="#dk" overflow="visible"/></clipPath></g><g><defs><path id="dm" d="M-400.5-568h44v14h-44z"/></defs><clipPath id="dn"><use xlink:href="#dm" overflow="visible"/></clipPath></g><g><defs><path id="do" d="M-400.5-557h44v14h-44z"/></defs><clipPath id="dp"><use xlink:href="#do" overflow="visible"/></clipPath></g><g><defs><path id="dq" d="M-399.5-627h3v13h-3z"/></defs><clipPath id="dr"><use xlink:href="#dq" overflow="visible"/></clipPath></g><g><defs><path id="ds" d="M-394.5-627h3v13h-3z"/></defs><clipPath id="dt"><use xlink:href="#ds" overflow="visible"/></clipPath></g><g><defs><path id="du" d="M-389.5-627h3v13h-3z"/></defs><clipPath id="dv"><use xlink:href="#du" overflow="visible"/></clipPath></g><g><defs><path id="dw" d="M-384.5-627h3v13h-3z"/></defs><clipPath id="dx"><use xlink:href="#dw" overflow="visible"/></clipPath></g><g><defs><path id="dy" d="M-379.5-627h3v13h-3z"/></defs><clipPath id="dz"><use xlink:href="#dy" overflow="visible"/></clipPath></g><g><defs><path id="dA" d="M-379.5-576h3v32h-3z"/></defs><clipPath id="dB"><use xlink:href="#dA" overflow="visible"/></clipPath></g><g><defs><path id="dC" d="M-374.5-627h3v13h-3z"/></defs><clipPath id="dD"><use xlink:href="#dC" overflow="visible"/></clipPath></g><g><defs><path id="dE" d="M-369.5-627h3v13h-3z"/></defs><clipPath id="dF"><use xlink:href="#dE" overflow="visible"/></clipPath></g><g><defs><path id="dG" d="M-364.5-627h3v13h-3z"/></defs><clipPath id="dH"><use xlink:href="#dG" overflow="visible"/></clipPath></g><g><defs><path id="dI" d="M-359.5-627h3v13h-3z"/></defs><clipPath id="dJ"><use xlink:href="#dI" overflow="visible"/></clipPath></g><g><defs><path id="dK" d="M-337.5-517.5c-16.3 0-29.5-13.2-29.5-29.5s13.2-29.5 29.5-29.5S-308-563.3-308-547s-13.2 29.5-29.5 29.5zm0 3c17.9 0 32.5-14.6 32.5-32.5s-14.6-32.5-32.5-32.5S-370-564.9-370-547s14.6 32.5 32.5 32.5zm-52.5-85h105v105h-105v-105z"/></defs><clipPath id="dL"><use xlink:href="#dK" overflow="visible"/></clipPath><g clip-path="url(#dL)"><defs><circle id="dM" cx="-337.5" cy="-547" r="31"/></defs><clipPath id="dN"><use xlink:href="#dM" overflow="visible"/></clipPath></g></g><g><defs><circle id="dO" cx="-337.5" cy="-547" r="31"/></defs><clipPath id="dP"><use xlink:href="#dO" overflow="visible"/></clipPath></g><g><defs><path id="dQ" d="M-408.5 118.5c-27.1 0-49-21.9-49-49s21.9-49 49-49 49 21.9 49 49-21.9 49-49 49zm0 3c28.7 0 52-23.3 52-52s-23.3-52-52-52-52 23.3-52 52 23.3 52 52 52zm-72-124h144v144h-144v-144z"/></defs><clipPath id="dR"><use xlink:href="#dQ" overflow="visible"/></clipPath><g clip-path="url(#dR)"><defs><circle id="dS" cx="-408.5" cy="69.5" r="50.5"/></defs><clipPath id="dT"><use xlink:href="#dS" overflow="visible"/></clipPath></g></g><g><defs><circle id="dU" cx="-408.5" cy="69.5" r="50.5"/></defs><clipPath id="dV"><use xlink:href="#dU" overflow="visible"/></clipPath></g><g><defs><circle id="dW" cx="-408.5" cy="69.5" r="43.5"/></defs><clipPath id="dX"><use xlink:href="#dW" overflow="visible"/></clipPath></g><g><defs><path id="dY" d="M71.5 118.5c-27.1 0-49-21.9-49-49s21.9-49 49-49 49 21.9 49 49-21.9 49-49 49z"/></defs><use xlink:href="#dY" overflow="visible" fill-rule="evenodd" clip-rule="evenodd" fill="#FFF"/><clipPath id="dZ"><use xlink:href="#dY" overflow="visible"/></clipPath><g clip-path="url(#dZ)"><defs><circle id="ea" cx="71.5" cy="69.5" r="50.5"/></defs><use xlink:href="#ea" overflow="visible" fill-rule="evenodd" clip-rule="evenodd" fill="#FFF"/><clipPath id="eb"><use xlink:href="#ea" overflow="visible"/></clipPath><g clip-path="url(#eb)"><defs><path id="ec" d="M-103-666.5h1121v1030H-103z"/></defs><use xlink:href="#ec" overflow="visible" fill="#FFF"/><clipPath id="ed"><use xlink:href="#ec" overflow="visible"/></clipPath><circle clip-path="url(#ed)" fill-rule="evenodd" clip-rule="evenodd" fill="#FFF" cx="71.5" cy="69.5" r="50.5"/></g></g></g><g><defs><circle id="ee" cx="71.5" cy="69.5" r="50.5"/></defs><use xlink:href="#ee" overflow="visible" fill-rule="evenodd" clip-rule="evenodd" fill="#FFF"/><clipPath id="ef"><use xlink:href="#ee" overflow="visible"/></clipPath><g clip-path="url(#ef)"><defs><path id="eg" d="M-103-666.5h1121v1030H-103z"/></defs><use xlink:href="#eg" overflow="visible" fill="#FFF"/><clipPath id="eh"><use xlink:href="#eg" overflow="visible"/></clipPath><circle clip-path="url(#eh)" fill="#FFF" stroke="#0F202E" stroke-width="6" stroke-linecap="round" stroke-miterlimit="10" cx="71.5" cy="69.5" r="50.5"/></g></g><g><defs><circle id="ei" cx="71.5" cy="69.5" r="43.5"/></defs><use xlink:href="#ei" overflow="visible" fill-rule="evenodd" clip-rule="evenodd" fill="#FFF"/><clipPath id="ej"><use xlink:href="#ei" overflow="visible"/></clipPath><g clip-path="url(#ej)"><defs><path id="ek" d="M-103-666.5h1121v1030H-103z"/></defs><use xlink:href="#ek" overflow="visible" fill="#FFF"/><clipPath id="el"><use xlink:href="#ek" overflow="visible"/></clipPath><circle clip-path="url(#el)" fill="#FFF" stroke="#0F202E" stroke-width="6" stroke-linecap="round" stroke-miterlimit="10" cx="71.5" cy="69.5" r="43.5"/></g></g><g><defs><path id="em" d="M-88.5 279.1c-24.6 0-44.6-20-44.6-44.6s20-44.6 44.6-44.6 44.6 20 44.6 44.6-19.9 44.6-44.6 44.6zm0 2.7c26.1 0 47.3-21.2 47.3-47.3s-21.2-47.3-47.3-47.3-47.3 21.2-47.3 47.3 21.2 47.3 47.3 47.3z"/></defs><clipPath id="en"><use xlink:href="#em" overflow="visible"/></clipPath><g clip-path="url(#en)"><defs><circle id="eo" cx="-88.5" cy="234.5" r="45.9"/></defs><clipPath id="ep"><use xlink:href="#eo" overflow="visible"/></clipPath></g></g><g><defs><circle id="eq" cx="-88.5" cy="234.5" r="45.9"/></defs><use xlink:href="#eq" overflow="visible" fill-rule="evenodd" clip-rule="evenodd" fill="#FFF"/><clipPath id="er"><use xlink:href="#eq" overflow="visible"/></clipPath></g><g><defs><circle id="es" cx="-88.5" cy="234.5" r="39.6"/></defs><clipPath id="et"><use xlink:href="#es" overflow="visible"/></clipPath></g><g><path fill="none" stroke="#0D202E" stroke-width="3" stroke-linecap="round" stroke-miterlimit="10" d="M68.4 95.1v-6.3c-4.4-.2-8.7-1.4-11.2-2.8l2-7.7c2.8 1.5 6.6 2.9 10.9 2.9 3.8 0 6.3-1.4 6.3-4.1 0-2.5-2.1-4.1-7-5.7-7-2.4-11.8-5.7-11.8-12 0-5.8 4.1-10.3 11.1-11.7v-6.3h6.5v5.8c4.4.2 7.4 1.1 9.5 2.2l-1.9 7.4c-1.7-.7-4.7-2.2-9.5-2.2-4.3 0-5.7 1.8-5.7 3.7 0 2.2 2.3 3.6 7.9 5.7 7.8 2.8 11 6.4 11 12.3s-4.1 10.9-11.7 12.2v6.7h-6.4z"/></g></svg>