<svg xmlns="http://www.w3.org/2000/svg" xmlns:xlink="http://www.w3.org/1999/xlink" viewBox="0 0 140 140"><defs><path id="a" d="M-895.5-616l-1.4.4.4 1.4 30.4 99.5.4 1.4 1.4-.4 60.2-18.4 1.4-.4-.4-1.4-30.4-99.5-.4-1.4-1.4.4-60.2 18.4zm.9 2.9l60.2-18.4-1.9-1 30.4 99.5 1-1.9-60.2 18.4 1.9 1-30.4-99.5-1 1.9zm-27.3-15.7l101.4-31 43 140.6-101.4 31-43-140.6z"/></defs><clipPath id="b"><use xlink:href="#a" overflow="visible"/></clipPath><defs><path id="c" d="M-860.2-639h-1.5v107h66v-107h-64.5zm0 3h63l-1.5-1.5v104l1.5-1.5h-63l1.5 1.5v-104l-1.5 1.5zm-21.5-23h106v147h-106v-147z"/></defs><clipPath id="d"><use xlink:href="#c" overflow="visible"/></clipPath><defs><path id="e" d="M-729.5-638.5h-1.5v107h66v-107h-64.5zm0 3h63l-1.5-1.5v104l1.5-1.5h-63l1.5 1.5v-104l-1.5 1.5zm-21.5-23h106v147h-106v-147z"/></defs><clipPath id="f"><use xlink:href="#e" overflow="visible"/></clipPath><defs><path id="g" d="M-657.5-517.5c-16.3 0-29.5-13.2-29.5-29.5s13.2-29.5 29.5-29.5S-628-563.3-628-547s-13.2 29.5-29.5 29.5zm0 3c17.9 0 32.5-14.6 32.5-32.5s-14.6-32.5-32.5-32.5S-690-564.9-690-547s14.6 32.5 32.5 32.5zm-52.5-85h105v105h-105v-105z"/></defs><clipPath id="h"><use xlink:href="#g" overflow="visible"/></clipPath><defs><path id="i" d="M523.2-341.8c-21.5 0-38.9-17.4-38.9-38.9s17.4-38.9 38.9-38.9 38.9 17.4 38.9 38.9-17.4 38.9-38.9 38.9zm0 3c23.2 0 41.9-18.8 41.9-41.9s-18.8-41.9-41.9-41.9c-23.2 0-41.9 18.8-41.9 41.9s18.8 41.9 41.9 41.9zm-61.9-103.9h123.9v123.9H461.3v-123.9z"/></defs><clipPath id="j"><use xlink:href="#i" overflow="visible"/></clipPath><defs><path id="k" d="M636.2-341.8c-21.5 0-38.9-17.4-38.9-38.9s17.4-38.9 38.9-38.9 38.9 17.4 38.9 38.9-17.4 38.9-38.9 38.9zm0 3c23.2 0 41.9-18.8 41.9-41.9s-18.8-41.9-41.9-41.9c-23.2 0-41.9 18.8-41.9 41.9s18.8 41.9 41.9 41.9zm-61.9-103.9h123.9v123.9H574.3v-123.9z"/></defs><clipPath id="l"><use xlink:href="#k" overflow="visible"/></clipPath><defs><path id="m" d="M-728.5 118.5c-27.1 0-49-21.9-49-49s21.9-49 49-49 49 21.9 49 49-21.9 49-49 49zm0 3c28.7 0 52-23.3 52-52s-23.3-52-52-52-52 23.3-52 52 23.3 52 52 52zm-72-124h144v144h-144v-144z"/></defs><clipPath id="n"><use xlink:href="#m" overflow="visible"/></clipPath><defs><path id="o" d="M-248.5 118.5c-27.1 0-49-21.9-49-49s21.9-49 49-49 49 21.9 49 49-21.9 49-49 49z"/></defs><use xlink:href="#o" overflow="visible" fill-rule="evenodd" clip-rule="evenodd" fill="#FFF"/><clipPath id="p"><use xlink:href="#o" overflow="visible"/></clipPath><g clip-path="url(#p)"><defs><circle id="q" cx="-248.5" cy="69.5" r="50.5"/></defs><use xlink:href="#q" overflow="visible" fill-rule="evenodd" clip-rule="evenodd" fill="#FFF"/><clipPath id="r"><use xlink:href="#q" overflow="visible"/></clipPath><g clip-path="url(#r)"><defs><path id="s" d="M-423-666.5H698v1030H-423z"/></defs><use xlink:href="#s" overflow="visible" fill="#FFF"/></g></g><defs><circle id="t" cx="-248.5" cy="69.5" r="50.5"/></defs><use xlink:href="#t" overflow="visible" fill-rule="evenodd" clip-rule="evenodd" fill="#FFF"/><clipPath id="u"><use xlink:href="#t" overflow="visible"/></clipPath><g clip-path="url(#u)"><defs><path id="v" d="M-423-666.5H698v1030H-423z"/></defs><use xlink:href="#v" overflow="visible" fill="#FFF"/></g><defs><circle id="w" cx="-248.5" cy="69.5" r="43.5"/></defs><use xlink:href="#w" overflow="visible" fill-rule="evenodd" clip-rule="evenodd" fill="#FFF"/><clipPath id="x"><use xlink:href="#w" overflow="visible"/></clipPath><g clip-path="url(#x)"><defs><path id="y" d="M-423-666.5H698v1030H-423z"/></defs><use xlink:href="#y" overflow="visible" fill="#FFF"/></g><g><defs><path id="z" d="M-408.5 279.1c-24.6 0-44.6-20-44.6-44.6s20-44.6 44.6-44.6 44.6 20 44.6 44.6-19.9 44.6-44.6 44.6zm0 2.7c26.1 0 47.3-21.2 47.3-47.3s-21.2-47.3-47.3-47.3-47.3 21.2-47.3 47.3 21.2 47.3 47.3 47.3z"/></defs><clipPath id="A"><use xlink:href="#z" overflow="visible"/></clipPath></g><g><defs><circle id="B" cx="-408.5" cy="234.5" r="45.9"/></defs><use xlink:href="#B" overflow="visible" fill-rule="evenodd" clip-rule="evenodd" fill="#FFF"/></g><g stroke="#0D202E" stroke-width="3" stroke-linecap="round" stroke-miterlimit="10"><path fill="#FFF" d="M26 30.5h91V116H26z"/><path fill="none" d="M26 45h91.1"/></g><g stroke="#0D202E" stroke-width="3" stroke-linecap="round" stroke-miterlimit="10"><path fill="none" d="M32.5 52.1h14.3v14.3H32.5zm21.3 0h14.3v14.3H53.8zm21.2 0h14.3v14.3H75zm21.3 0h14.3v14.3H96.3z"/><path d="M32.5 72.6h14.3v14.3H32.5z"/><path fill="#0D202E" d="M53.8 72.6h14.3v14.3H53.8z"/><path fill="none" d="M75 72.6h14.3v14.3H75zm21.3 0h14.3v14.3H96.3zM32.5 93.1h14.3v14.3H32.5zm21.3 0h14.3v14.3H53.8zm21.2 0h14.3v14.3H75z"/></g><path fill="#FFF" stroke="#0D202E" stroke-width="3" stroke-linecap="round" stroke-miterlimit="10" d="M48.3 19h5.9v18.8h-5.9zm42 0h5.9v18.8h-5.9z"/></svg>