<svg xmlns="http://www.w3.org/2000/svg" xmlns:xlink="http://www.w3.org/1999/xlink" viewBox="0 0 140 140"><defs><path id="a" d="M-895.5-616l-1.4.4.4 1.4 30.4 99.5.4 1.4 1.4-.4 60.2-18.4 1.4-.4-.4-1.4-30.4-99.5-.4-1.4-1.4.4-60.2 18.4zm.9 2.9l60.2-18.4-1.9-1 30.4 99.5 1-1.9-60.2 18.4 1.9 1-30.4-99.5-1 1.9zm-27.3-15.7l101.4-31 43 140.6-101.4 31-43-140.6z"/></defs><clipPath id="b"><use xlink:href="#a" overflow="visible"/></clipPath><g clip-path="url(#b)"><defs><path id="c" transform="rotate(162.999 -849.693 -574.012)" d="M-881.2-626h63v104h-63z"/></defs><clipPath id="d"><use xlink:href="#c" overflow="visible"/></clipPath></g><defs><path id="e" transform="rotate(162.999 -849.693 -574.012)" d="M-881.2-626h63v104h-63z"/></defs><clipPath id="f"><use xlink:href="#e" overflow="visible"/></clipPath><defs><path id="g" d="M-860.2-639h-1.5v107h66v-107h-64.5zm0 3h63l-1.5-1.5v104l1.5-1.5h-63l1.5 1.5v-104l-1.5 1.5zm-21.5-23h106v147h-106v-147z"/></defs><clipPath id="h"><use xlink:href="#g" overflow="visible"/></clipPath><g clip-path="url(#h)"><defs><path id="i" d="M-860.2-637.5h63v104h-63z"/></defs><clipPath id="j"><use xlink:href="#i" overflow="visible"/></clipPath></g><defs><path id="k" d="M-860.2-637.5h63v104h-63z"/></defs><clipPath id="l"><use xlink:href="#k" overflow="visible"/></clipPath><defs><path id="m" d="M-851.2-609.5h44v13h-44z"/></defs><clipPath id="n"><use xlink:href="#m" overflow="visible"/></clipPath><defs><path id="o" d="M-851.2-599.5h44v13h-44z"/></defs><clipPath id="p"><use xlink:href="#o" overflow="visible"/></clipPath><defs><path id="q" d="M-851.2-589.5h44v13h-44z"/></defs><clipPath id="r"><use xlink:href="#q" overflow="visible"/></clipPath><defs><path id="s" d="M-851.2-579.5h44v14h-44z"/></defs><clipPath id="t"><use xlink:href="#s" overflow="visible"/></clipPath><defs><path id="u" d="M-851.2-568.5h44v14h-44z"/></defs><clipPath id="v"><use xlink:href="#u" overflow="visible"/></clipPath><defs><path id="w" d="M-851.2-557.5h44v14h-44z"/></defs><clipPath id="x"><use xlink:href="#w" overflow="visible"/></clipPath><defs><path id="y" d="M-850.2-627.5h3v13h-3z"/></defs><clipPath id="z"><use xlink:href="#y" overflow="visible"/></clipPath><defs><path id="A" d="M-845.2-627.5h3v13h-3z"/></defs><clipPath id="B"><use xlink:href="#A" overflow="visible"/></clipPath><defs><path id="C" d="M-840.2-627.5h3v13h-3z"/></defs><clipPath id="D"><use xlink:href="#C" overflow="visible"/></clipPath><defs><path id="E" d="M-835.2-627.5h3v13h-3z"/></defs><clipPath id="F"><use xlink:href="#E" overflow="visible"/></clipPath><defs><path id="G" d="M-830.2-627.5h3v13h-3z"/></defs><clipPath id="H"><use xlink:href="#G" overflow="visible"/></clipPath><defs><path id="I" d="M-830.2-576.5h3v32h-3z"/></defs><clipPath id="J"><use xlink:href="#I" overflow="visible"/></clipPath><defs><path id="K" d="M-825.2-627.5h3v13h-3z"/></defs><clipPath id="L"><use xlink:href="#K" overflow="visible"/></clipPath><defs><path id="M" d="M-820.2-627.5h3v13h-3z"/></defs><clipPath id="N"><use xlink:href="#M" overflow="visible"/></clipPath><defs><path id="O" d="M-815.2-627.5h3v13h-3z"/></defs><clipPath id="P"><use xlink:href="#O" overflow="visible"/></clipPath><defs><path id="Q" d="M-810.2-627.5h3v13h-3z"/></defs><clipPath id="R"><use xlink:href="#Q" overflow="visible"/></clipPath><defs><path id="S" d="M-892.2-613.3l53.3 34.1-23.9 61.7"/></defs><clipPath id="T"><use xlink:href="#S" overflow="visible"/></clipPath><defs><path id="U" d="M-729.5-638.5h-1.5v107h66v-107h-64.5zm0 3h63l-1.5-1.5v104l1.5-1.5h-63l1.5 1.5v-104l-1.5 1.5zm-21.5-23h106v147h-106v-147z"/></defs><clipPath id="V"><use xlink:href="#U" overflow="visible"/></clipPath><g clip-path="url(#V)"><defs><path id="W" d="M-729.5-637h63v104h-63z"/></defs><clipPath id="X"><use xlink:href="#W" overflow="visible"/></clipPath></g><defs><path id="Y" d="M-729.5-637h63v104h-63z"/></defs><clipPath id="Z"><use xlink:href="#Y" overflow="visible"/></clipPath><defs><path id="aa" d="M-720.5-609h44v13h-44z"/></defs><clipPath id="ab"><use xlink:href="#aa" overflow="visible"/></clipPath><defs><path id="ac" d="M-720.5-599h44v13h-44z"/></defs><clipPath id="ad"><use xlink:href="#ac" overflow="visible"/></clipPath><defs><path id="ae" d="M-720.5-589h44v13h-44z"/></defs><clipPath id="af"><use xlink:href="#ae" overflow="visible"/></clipPath><defs><path id="ag" d="M-720.5-579h44v14h-44z"/></defs><clipPath id="ah"><use xlink:href="#ag" overflow="visible"/></clipPath><defs><path id="ai" d="M-720.5-568h44v14h-44z"/></defs><clipPath id="aj"><use xlink:href="#ai" overflow="visible"/></clipPath><defs><path id="ak" d="M-720.5-557h44v14h-44z"/></defs><clipPath id="al"><use xlink:href="#ak" overflow="visible"/></clipPath><defs><path id="am" d="M-719.5-627h3v13h-3z"/></defs><clipPath id="an"><use xlink:href="#am" overflow="visible"/></clipPath><defs><path id="ao" d="M-714.5-627h3v13h-3z"/></defs><clipPath id="ap"><use xlink:href="#ao" overflow="visible"/></clipPath><defs><path id="aq" d="M-709.5-627h3v13h-3z"/></defs><clipPath id="ar"><use xlink:href="#aq" overflow="visible"/></clipPath><defs><path id="as" d="M-704.5-627h3v13h-3z"/></defs><clipPath id="at"><use xlink:href="#as" overflow="visible"/></clipPath><g><defs><path id="au" d="M-699.5-627h3v13h-3z"/></defs><clipPath id="av"><use xlink:href="#au" overflow="visible"/></clipPath></g><g><defs><path id="aw" d="M-699.5-576h3v32h-3z"/></defs><clipPath id="ax"><use xlink:href="#aw" overflow="visible"/></clipPath></g><g><defs><path id="ay" d="M-694.5-627h3v13h-3z"/></defs><clipPath id="az"><use xlink:href="#ay" overflow="visible"/></clipPath></g><g><defs><path id="aA" d="M-689.5-627h3v13h-3z"/></defs><clipPath id="aB"><use xlink:href="#aA" overflow="visible"/></clipPath></g><g><defs><path id="aC" d="M-684.5-627h3v13h-3z"/></defs><clipPath id="aD"><use xlink:href="#aC" overflow="visible"/></clipPath></g><g><defs><path id="aE" d="M-679.5-627h3v13h-3z"/></defs><clipPath id="aF"><use xlink:href="#aE" overflow="visible"/></clipPath></g><g><defs><path id="aG" d="M-657.5-517.5c-16.3 0-29.5-13.2-29.5-29.5s13.2-29.5 29.5-29.5S-628-563.3-628-547s-13.2 29.5-29.5 29.5zm0 3c17.9 0 32.5-14.6 32.5-32.5s-14.6-32.5-32.5-32.5S-690-564.9-690-547s14.6 32.5 32.5 32.5zm-52.5-85h105v105h-105v-105z"/></defs><clipPath id="aH"><use xlink:href="#aG" overflow="visible"/></clipPath><g clip-path="url(#aH)"><defs><circle id="aI" cx="-657.5" cy="-547" r="31"/></defs><clipPath id="aJ"><use xlink:href="#aI" overflow="visible"/></clipPath></g></g><g><defs><circle id="aK" cx="-657.5" cy="-547" r="31"/></defs><clipPath id="aL"><use xlink:href="#aK" overflow="visible"/></clipPath></g><g><defs><path id="aM" d="M523.2-341.8c-21.5 0-38.9-17.4-38.9-38.9s17.4-38.9 38.9-38.9 38.9 17.4 38.9 38.9-17.4 38.9-38.9 38.9zm0 3c23.2 0 41.9-18.8 41.9-41.9s-18.8-41.9-41.9-41.9c-23.2 0-41.9 18.8-41.9 41.9s18.8 41.9 41.9 41.9zm-61.9-103.9h123.9v123.9H461.3v-123.9z"/></defs><clipPath id="aN"><use xlink:href="#aM" overflow="visible"/></clipPath><g clip-path="url(#aN)"><defs><circle id="aO" cx="523.2" cy="-380.7" r="40.4"/></defs><clipPath id="aP"><use xlink:href="#aO" overflow="visible"/></clipPath></g></g><g><defs><circle id="aQ" cx="523.2" cy="-380.7" r="40.4"/></defs><clipPath id="aR"><use xlink:href="#aQ" overflow="visible"/></clipPath></g><g><defs><path id="aS" d="M636.2-341.8c-21.5 0-38.9-17.4-38.9-38.9s17.4-38.9 38.9-38.9 38.9 17.4 38.9 38.9-17.4 38.9-38.9 38.9zm0 3c23.2 0 41.9-18.8 41.9-41.9s-18.8-41.9-41.9-41.9c-23.2 0-41.9 18.8-41.9 41.9s18.8 41.9 41.9 41.9zm-61.9-103.9h123.9v123.9H574.3v-123.9z"/></defs><clipPath id="aT"><use xlink:href="#aS" overflow="visible"/></clipPath><g clip-path="url(#aT)"><defs><circle id="aU" cx="636.2" cy="-380.7" r="40.4"/></defs><clipPath id="aV"><use xlink:href="#aU" overflow="visible"/></clipPath></g></g><g><defs><circle id="aW" cx="636.2" cy="-380.7" r="40.4"/></defs><clipPath id="aX"><use xlink:href="#aW" overflow="visible"/></clipPath></g><g><defs><path id="aY" d="M-728.5 118.5c-27.1 0-49-21.9-49-49s21.9-49 49-49 49 21.9 49 49-21.9 49-49 49zm0 3c28.7 0 52-23.3 52-52s-23.3-52-52-52-52 23.3-52 52 23.3 52 52 52zm-72-124h144v144h-144v-144z"/></defs><clipPath id="aZ"><use xlink:href="#aY" overflow="visible"/></clipPath><g clip-path="url(#aZ)"><defs><circle id="ba" cx="-728.5" cy="69.5" r="50.5"/></defs><clipPath id="bb"><use xlink:href="#ba" overflow="visible"/></clipPath></g></g><g><defs><circle id="bc" cx="-728.5" cy="69.5" r="50.5"/></defs><clipPath id="bd"><use xlink:href="#bc" overflow="visible"/></clipPath></g><g><defs><circle id="be" cx="-728.5" cy="69.5" r="43.5"/></defs><clipPath id="bf"><use xlink:href="#be" overflow="visible"/></clipPath></g><g><defs><path id="bg" d="M-248.5 118.5c-27.1 0-49-21.9-49-49s21.9-49 49-49 49 21.9 49 49-21.9 49-49 49z"/></defs><use xlink:href="#bg" overflow="visible" fill-rule="evenodd" clip-rule="evenodd" fill="#FFF"/><clipPath id="bh"><use xlink:href="#bg" overflow="visible"/></clipPath><g clip-path="url(#bh)"><defs><circle id="bi" cx="-248.5" cy="69.5" r="50.5"/></defs><use xlink:href="#bi" overflow="visible" fill-rule="evenodd" clip-rule="evenodd" fill="#FFF"/><clipPath id="bj"><use xlink:href="#bi" overflow="visible"/></clipPath><g clip-path="url(#bj)"><defs><path id="bk" d="M-423-666.5H698v1030H-423z"/></defs><use xlink:href="#bk" overflow="visible" fill="#FFF"/></g></g></g><g><defs><circle id="bl" cx="-248.5" cy="69.5" r="50.5"/></defs><use xlink:href="#bl" overflow="visible" fill-rule="evenodd" clip-rule="evenodd" fill="#FFF"/><clipPath id="bm"><use xlink:href="#bl" overflow="visible"/></clipPath><g clip-path="url(#bm)"><defs><path id="bn" d="M-423-666.5H698v1030H-423z"/></defs><use xlink:href="#bn" overflow="visible" fill="#FFF"/></g></g><g><defs><circle id="bo" cx="-248.5" cy="69.5" r="43.5"/></defs><use xlink:href="#bo" overflow="visible" fill-rule="evenodd" clip-rule="evenodd" fill="#FFF"/><clipPath id="bp"><use xlink:href="#bo" overflow="visible"/></clipPath><g clip-path="url(#bp)"><defs><path id="bq" d="M-423-666.5H698v1030H-423z"/></defs><use xlink:href="#bq" overflow="visible" fill="#FFF"/></g></g><g><defs><path id="br" d="M-408.5 279.1c-24.6 0-44.6-20-44.6-44.6s20-44.6 44.6-44.6 44.6 20 44.6 44.6-19.9 44.6-44.6 44.6zm0 2.7c26.1 0 47.3-21.2 47.3-47.3s-21.2-47.3-47.3-47.3-47.3 21.2-47.3 47.3 21.2 47.3 47.3 47.3z"/></defs><clipPath id="bs"><use xlink:href="#br" overflow="visible"/></clipPath><g clip-path="url(#bs)"><defs><circle id="bt" cx="-408.5" cy="234.5" r="45.9"/></defs><clipPath id="bu"><use xlink:href="#bt" overflow="visible"/></clipPath></g></g><g><defs><circle id="bv" cx="-408.5" cy="234.5" r="45.9"/></defs><use xlink:href="#bv" overflow="visible" fill-rule="evenodd" clip-rule="evenodd" fill="#FFF"/><clipPath id="bw"><use xlink:href="#bv" overflow="visible"/></clipPath></g><g><defs><circle id="bx" cx="-408.5" cy="234.5" r="39.6"/></defs><clipPath id="by"><use xlink:href="#bx" overflow="visible"/></clipPath></g><g stroke="#0D202E" stroke-width="3" stroke-linecap="round" stroke-miterlimit="10"><path fill="#FFF" d="M26 30.5h91V116H26z"/><path fill="none" d="M26 45h91.1"/></g><g stroke="#0D202E" stroke-width="3" stroke-linecap="round" stroke-miterlimit="10"><path fill="none" d="M32.5 52.1h14.3v14.3H32.5zm21.3 0h14.3v14.3H53.8zm21.2 0h14.3v14.3H75zm21.3 0h14.3v14.3H96.3z"/><path d="M32.5 72.6h14.3v14.3H32.5z"/><path fill="#0D202E" d="M53.8 72.6h14.3v14.3H53.8z"/><path fill="none" d="M75 72.6h14.3v14.3H75zm21.3 0h14.3v14.3H96.3zM32.5 93.1h14.3v14.3H32.5zm21.3 0h14.3v14.3H53.8zm21.2 0h14.3v14.3H75z"/></g><path fill="#FFF" stroke="#0D202E" stroke-width="3" stroke-linecap="round" stroke-miterlimit="10" d="M48.3 19h5.9v18.8h-5.9zm42 0h5.9v18.8h-5.9z"/></svg>