<svg data-name="Layer 1" xmlns="http://www.w3.org/2000/svg" viewBox="0 0 66 66"><path d="M31.86 50.16v-3.1a17.48 17.48 0 0 1-10.13-4.55l3.1-3.51a12.52 12.52 0 0 0 7.24 3.51v-8.06c-3.1-.83-5.38-1.65-6.82-2.89a6.73 6.73 0 0 1-2.07-5.38 7.21 7.21 0 0 1 2.48-5.79 11.08 11.08 0 0 1 6.41-2.48v-2.07h2.69v2.07A17 17 0 0 1 43.44 21l-2.69 3.72a15.39 15.39 0 0 0-6-2.48v7.86H35c3.1.83 5.58 1.65 7 3.1a7 7 0 0 1 2.27 5.58 7.21 7.21 0 0 1-2.48 5.79A11.29 11.29 0 0 1 35 47.06V50h-3.1zM29 23.49a3.32 3.32 0 0 0-1 2.27 3.11 3.11 0 0 0 .76 2.24 10.4 10.4 0 0 0 3.1 1.65v-7.19A4.09 4.09 0 0 0 29 23.49zm8.68 18A3 3 0 0 0 38.89 39a2.82 2.82 0 0 0-.83-2.27 9.61 9.61 0 0 0-3.31-1.65v7.44a3.87 3.87 0 0 0 2.9-1.04z" fill="#0d202e"/></svg>