<svg xmlns="http://www.w3.org/2000/svg" xmlns:xlink="http://www.w3.org/1999/xlink" viewBox="0 0 66 66"><defs><circle id="a" cx="33" cy="33" r="31.4"/></defs><use xlink:href="#a" overflow="visible" fill-rule="evenodd" clip-rule="evenodd" fill="none" stroke="#091F2F" stroke-width="3" stroke-miterlimit="10"/><path fill="none" stroke="#091F2F" stroke-width="3" stroke-miterlimit="10" d="M15.8 21v13h6.6c0 1-.3 2.8-.8 3.9s-1 2-1.8 2.7c-.9.7-2 .9-4 .9V47c12 0 13.7-8.5 13.7-14.5V21H15.8zM36.5 21v13h6.6c0 1-.3 2.8-.8 3.9s-1 2-1.8 2.7c-.9.7-2 .9-4 .9V47c12 0 13.7-8.5 13.7-14.5V21H36.5z"/></svg>
