<svg class="seal" viewBox="0 0 720 720" xmlns="http://www.w3.org/2000/svg"><g class="seal__paths" fill="#1A1918" fill-rule="evenodd"><path d="M359.701 704.073c-91.986 0-178.465-35.819-243.509-100.863C51.151 538.163 15.328 451.683 15.328 359.701c0-91.985 35.819-178.462 100.864-243.506C181.236 51.151 267.715 15.331 359.701 15.331c91.988 0 178.465 35.82 243.506 100.864 65.044 65.041 100.863 151.517 100.863 243.506 0 91.985-35.819 178.465-100.863 243.509-65.041 65.044-151.518 100.863-243.506 100.863zm254.344-598.716C546.109 37.417 455.779 0 359.701 0c-96.079 0-186.408 37.417-254.347 105.357C37.414 173.293 0 263.622 0 359.701c0 96.082 37.414 186.411 105.354 254.347 67.936 67.94 158.265 105.354 254.347 105.354 96.081 0 186.411-37.414 254.344-105.354 67.939-67.939 105.357-158.269 105.357-254.347 0-96.075-37.418-186.405-105.357-254.344z"/><path d="M48.96 300.579c.711.157 1.406.24 2.063.24 4.928 0 7.299-4.212 9.393-7.93 2.011-3.568 3.93-6.857 7.575-5.941 2.824.631 4.003 3.936 3.004 8.417-.673 3.029-2.675 5.921-5.096 7.369l-1.316.788 2.05 3.251 1.268-.788c3.28-2.05 5.96-5.893 6.831-9.791.711-3.177.57-6.066-.406-8.359-1.051-2.456-2.95-4.055-5.493-4.618a10.142 10.142 0 0 0-2.207-.263c-5.012 0-7.408 4.253-9.518 8.004-2.236 3.968-4.058 6.623-7.312 5.883-2.457-.551-3.446-3.574-2.524-7.706.513-2.293 1.73-4.653 3.104-6.008l1.088-1.063-2.706-2.649-1.044 1.038c-1.89 1.857-3.526 4.938-4.176 7.846-1.432 6.403.695 11.22 5.422 12.28m32.575-29.792l-30.737-9.48-1.13 3.661 30.723 9.47 1.144-3.651m-12.078-15.645a15.523 15.523 0 0 0 5.884 1.149c6.597 0 12.721-4.157 15.235-10.344a16.74 16.74 0 0 0 .298-11.799l-.538-1.579-3.456 1.624.449 1.278c1.024 2.908.932 6.123-.257 9.047-1.944 4.785-6.649 7.997-11.706 7.997-1.527 0-3.033-.294-4.48-.877-3.027-1.233-5.378-3.613-6.627-6.7-1.252-3.107-1.239-6.543.036-9.676 1.197-2.953 3.363-5.326 6.094-6.681l1.253-.627-1.458-3.472-1.431.721a16.628 16.628 0 0 0-7.965 8.631c-3.418 8.414.47 17.974 8.669 21.308m25.171-32.498c4.397 0 8.077-2.438 10.642-7.05 1.941-3.494 2.476-6.991 1.544-10.111-.929-3.116-3.305-5.809-6.87-7.789l-16.446-9.14-1.864 3.334 16.449 9.147c2.694 1.499 4.391 3.36 5.045 5.534.647 2.156.243 4.567-1.198 7.161-2.838 5.118-7.539 6.374-12.811 3.45l-16.452-9.147-1.855 3.353 16.446 9.131c2.533 1.409 5.012 2.127 7.37 2.127m3.679-49.319l22.724 16.084.4.285 2.216-3.116-23.13-16.379 5.788-8.173-3.123-2.207-13.781 19.463 3.122 2.216 5.784-8.173m30.817-37.815l5.313-5.38c3.93-3.988 8.02-4.468 11.271-1.259 1.537 1.512 2.322 3.158 2.331 4.891.013 2.091-1.124 4.355-3.286 6.543l-5.31 5.39-10.319-10.185zm17.487 22.624l2.684-2.728-7.129-7.027 5.313-5.384c5.553-5.637 5.896-11.93.919-16.84-2.155-2.13-4.698-3.254-7.353-3.254-3.168 0-6.396 1.57-9.333 4.539l-7.994 8.109 22.541 22.24.352.345zm27.569-42.48l-9.525 7.744-3.737-14.227 13.262 6.483zm-5.986 21.259l-2.469-9.448 12.237-9.954 8.494 4.173.285.138 3.299-2.69-31.854-15.537-2.194 1.787 8.871 34.238 3.331-2.707zm14.701-46.804l15.68 23.6 3.19-2.117-15.68-23.604 8.333-5.54-2.104-3.193-19.876 13.201 2.11 3.193 8.347-5.54m24.67-15.124l6.713-3.487c5.019-2.611 8.977-1.813 11.107 2.283 1.089 2.098 1.268 4.068.532 5.858-.75 1.816-2.422 3.408-4.964 4.73l-6.71 3.478-6.678-12.862zm13.054 25.155l-4.615-8.894 6.713-3.488a25.621 25.621 0 0 0 1.694-.983l11.204 5.566 4.221-2.181-12.228-6.073c2.962-3.42 3.398-7.782 1.172-12.067-1.96-3.783-5.208-5.868-9.141-5.868-2.241 0-4.637.657-7.129 1.954l-10.101 5.252 14.809 28.524 3.401-1.742zm32.194-15.162l-12.145-29.776-3.548 1.435 12.154 29.782 3.539-1.441m14.838-9.602l-3.161-10.431 8.987-2.723c1.525-.464 2.915-.698 4.132-.698 2.767 0 4.525 1.173 5.227 3.485 1.319 4.365-2.64 6.565-6.195 7.642l-8.99 2.725zm-7.113-23.447l8.99-2.726c1.131-.345 2.178-.518 3.104-.518 2.379 0 3.923 1.108 4.589 3.298.452 1.486.304 2.787-.435 3.863-.801 1.162-2.326 2.114-4.411 2.748l-8.986 2.725-2.851-9.39zm4.564 28.226l12.651-3.844c3.472-1.05 6.011-2.645 7.549-4.733 1.614-2.191 2.017-4.827 1.165-7.632-.98-3.235-3.324-5.391-6.495-6.012 1.381-1.973 1.704-4.452.91-7.072-1.156-3.814-4.151-6.001-8.218-6.001-1.326 0-2.755.227-4.247.679l-12.654 3.84 9.195 30.304.144.471zm43.544-11.402c.939 0 1.928-.09 2.937-.266 3.965-.663 7.037-2.421 8.881-5.083 1.871-2.69 2.47-6.136 1.778-10.236l-3.04-18.066-.08-.487-3.772.634 3.122 18.557c.509 3.036.112 5.521-1.178 7.385-1.281 1.851-3.418 3.04-6.342 3.53-5.899.928-9.678-1.848-10.684-7.853l-3.036-18.083-.08-.49-3.776.66 3.122 18.537c1.198 7.155 5.628 11.261 12.148 11.261m35.647-7.677l-.298.006c-3.123 0-6.255-1.137-8.174-2.965l-1.105-1.064-2.594 2.838 1.099 1.012c2.68 2.476 6.725 4.013 10.562 4.013.234 0 .462-.006.686-.022 6.908-.334 11.206-3.917 10.953-9.122-.275-6.697-5.986-8.115-10.572-9.252-5.054-1.269-7.456-2.226-7.616-5.503a3.118 3.118 0 0 1 .845-2.338c1.124-1.242 3.229-2.001 5.906-2.13l.282-.003c2.37 0 4.858.548 6.338 1.4l1.313.759 1.848-3.296-1.278-.74c-2.29-1.325-5.726-2.1-8.679-1.937-6.45.311-10.63 3.721-10.399 8.487.32 6.473 5.934 7.872 10.447 9 5.153 1.284 7.597 2.267 7.741 5.729.067 1.368-.487 2.515-1.653 3.405-1.306 1.009-3.266 1.604-5.652 1.723m48.476 5.342a20.4 20.4 0 0 0 2.226.131c5.688 0 9.554-2.805 10.082-7.318.839-6.642-4.557-8.99-8.891-10.876-4.778-2.088-6.988-3.427-6.601-6.681.25-2.12 2.399-3.385 5.743-3.385.535 0 1.095.032 1.669.099 2.328.269 4.797 1.239 6.286 2.469l1.179.974 2.344-2.966-1.124-.926c-2.046-1.691-5.278-3.007-8.237-3.359a19.064 19.064 0 0 0-2.14-.128c-5.38 0-9.028 2.594-9.521 6.773-.759 6.438 4.541 8.75 8.814 10.614 4.868 2.124 7.116 3.501 6.681 6.928-.292 2.482-2.63 3.962-6.255 3.962a14.291 14.291 0 0 1-1.81-.116c-3.087-.362-6.168-2.056-7.85-4.32l-.916-1.227-3.026 2.37.912 1.179c2.367 3.058 6.464 5.335 10.435 5.803m32.223-26.826l.096-.48-3.748-.782-6.299 31.031-.096.481 3.75.784 6.297-31.034m11.709 35.419l3.683 1.044 7.782-27.249 9.631 2.751 1.047-3.686-22.941-6.549-1.054 3.67 9.634 2.758-7.782 27.261m62.152-6.473a12.681 12.681 0 0 1 6.405 7.178c1.108 3.135.926 6.472-.519 9.4-2.04 4.15-6.277 6.725-11.049 6.725-1.979 0-3.885-.445-5.659-1.322l-8.206-4.042 10.825-21.974 8.203 4.035zm-5.16 27.131c6.242 0 11.789-3.398 14.483-8.862 3.914-7.966.49-17.702-7.632-21.708l-11.636-5.727-14.204 28.853 11.632 5.727a16.574 16.574 0 0 0 7.357 1.717zm15.585 10.697l17.832 11.693.41.272 2.098-3.203-15.043-9.854 5.909-9.016 12.535 8.205.41.266 2.101-3.187-12.952-8.487 5.429-8.279 14.55 9.525 2.104-3.187-17.349-11.373-.41-.272-17.352 26.487-.272.41m30.89 17.163c.243 3.228 1.995 6.303 5.07 8.894 2.783 2.332 5.675 3.513 8.602 3.513 3.597 0 7.046-1.844 9.983-5.332l12.103-14.403-2.93-2.453-12.107 14.393c-3.878 4.612-8.724 5.115-13.185 1.348-2.284-1.915-3.523-4.026-3.683-6.274-.164-2.251.759-4.589 2.741-6.947l11.789-14.024.314-.378-2.924-2.454-12.106 14.39c-2.674 3.181-3.907 6.454-3.667 9.727m40.61 31.166c-2.075 1.979-5.576 1.044-8.66-2.217-2.136-2.254-3.411-5.534-3.254-8.349l.087-1.547-3.847-.086-.051 1.47c-.144 3.856 1.54 8.231 4.285 11.145 2.745 2.902 5.861 4.5 8.779 4.5 1.989 0 3.814-.737 5.278-2.127 4.903-4.56 2.267-9.819.147-14.047-2.328-4.66-3.164-7.1-.781-9.358 1.79-1.694 4.99-.756 7.805 2.232 1.608 1.694 2.876 4.02 3.231 5.925l.282 1.502 3.696-.762-.266-1.441c-.483-2.607-2.123-5.691-4.17-7.853-2.587-2.745-5.579-4.257-8.426-4.257-1.826 0-3.481.647-4.782 1.871-4.711 4.461-2.123 9.637-.041 13.797 2.373 4.756 3.215 7.251.688 9.602m14.569 31.39l2.098 3.199 21.09-13.836-10.771 28.434-.275.714 1.931 2.934 26.471-17.375.413-.269-2.098-3.199-21.087 13.835 10.765-28.433.275-.715-1.928-2.933-26.47 17.375-.414.269m51.702 32.203c3.033 6.28.564 13.781-5.505 16.721a11.825 11.825 0 0 1-5.154 1.169c-4.807 0-9.284-2.834-11.405-7.222-3.033-6.28-.547-13.787 5.548-16.734a11.714 11.714 0 0 1 5.134-1.169c4.794 0 9.262 2.838 11.382 7.235zm-18.185-9.503c-3.85 1.861-6.735 5.173-8.125 9.32a16.536 16.536 0 0 0 .8 12.513c2.758 5.704 8.587 9.391 14.851 9.391a15.5 15.5 0 0 0 6.816-1.563c7.968-3.853 11.238-13.641 7.289-21.82-2.757-5.711-8.58-9.403-14.828-9.403-2.377 0-4.667.525-6.803 1.562zm31.271 40.32l2.995 8.903c.384 1.134.788 2.809.535 4.337-.279 1.71-1.288 2.834-3.075 3.436a5.445 5.445 0 0 1-1.739.308c-2.774 0-4.263-2.694-5.025-4.952l-2.995-8.903 9.304-3.129zm-12.41 22.678c-3.331 1.143-6.165-1.044-7.821-5.96l-2.992-8.904 10.329-3.475 2.998 8.904c.97 2.879 1.931 7.936-2.514 9.435zm-11.447-4.743c1.922 5.713 5.323 8.862 9.58 8.862.989 0 2.011-.176 3.039-.516 3.26-1.102 5.3-3.452 5.819-6.671 1.986 1.294 4.519 1.553 7.094.695 2.578-.875 4.388-2.537 5.234-4.804.819-2.194.72-4.827-.285-7.821l-4.215-12.529-30.481 10.252 4.215 12.532zm6.316 21.91l.881 3.728 29.827-7.159 1.454-.342-.884-3.722-30.801 7.382-.477.113m27.316 10.889c-6.402 1.018-7.193 6.751-7.831 11.36-.727 5.265-1.441 7.802-4.858 8.311-2.844.487-5.176-2.197-5.887-6.719-.487-3.069.311-6.495 2.031-8.725l.938-1.22-3.113-2.264-.877 1.191c-2.3 3.104-3.383 7.661-2.761 11.617.98 6.171 4.423 10.008 8.983 10.008.43 0 .862-.038 1.272-.106 6.614-.996 7.414-6.825 8.058-11.507.717-5.163 1.406-7.651 4.644-8.161 2.444-.416 4.513 2.076 5.176 6.243.365 2.312.099 4.951-.679 6.722l-.609 1.393 3.475 1.474.592-1.352c1.073-2.428 1.464-5.896.997-8.836-.929-5.874-4.132-9.525-8.36-9.525-.39 0-.794.032-1.191.096M41.427 363.067l2.604-2.716-.865-1.009c-1.957-2.312-3.004-5.287-2.943-8.372.128-6.719 5.65-12.186 12.298-12.186 3.19.054 6.178 1.403 8.411 3.795 2.239 2.399 3.436 5.544 3.369 8.859-.061 3.119-1.207 6.05-3.225 8.247l-.942 1.028 2.585 2.661 1.054-1.159a16.344 16.344 0 0 0 4.256-10.707c.173-8.906-6.748-16.292-15.444-16.465h-.281c-8.552 0-15.642 7.113-15.809 15.857a16.471 16.471 0 0 0 3.875 10.908l1.057 1.259m27.3 13.144l-.221-3.763-31.002 1.934-.49.029.237 3.763 30.989-1.934.487-.029m3.709 31.902l-26.471-6.812 23.56-13.881-.564-4.099-29.407 17.429.393 2.847 33.062 8.661-.573-4.145m2.341 11.024l-30.333 6.71-.483.105.832 3.677 30.794-6.809-.81-3.683m5.57 35.073l3.609-1.092-6.69-22.413-3.61 1.067 2.806 9.413-26.621 7.942 1.079 3.607 26.618-7.937 2.809 9.413m3.683 15.607l-9.906 10.502-4.465-11.146 14.371.644zm5.012-3.53l-33.894-1.62-.763-.039 1.57 3.927 9.566.442 5.749 14.332-6.601 6.963 1.57 3.888 23.837-25.295-1.034-2.598zm13.81 38.359l3.363-1.707-10.425-20.398-.224-.435-3.363 1.707 4.471 8.743-24.292 12.42-.436.225 1.71 3.362 24.732-12.644 4.464 8.727m9.531 8.34l-1.95-3.225-26.563 16.097-.42.253 1.951 3.225 26.563-16.097.419-.253m14.775 25.888c-.125-2.601-1.307-5.813-3.008-8.186-2.434-3.402-5.563-5.349-8.58-5.349-1.435 0-2.761.433-3.946 1.281-5.172 3.703-3.343 9.08-1.873 13.401 1.672 4.925 2.158 7.459-.605 9.403-2.265 1.643-5.551.259-8.097-3.293-1.771-2.479-2.575-5.829-2.05-8.538l.282-1.48-3.731-.634-.253 1.451c-.65 3.741.407 8.212 2.687 11.386 2.588 3.619 5.775 5.614 8.974 5.614 1.579 0 3.052-.484 4.375-1.432 5.368-3.789 3.504-9.246 2.008-13.63-1.64-4.83-2.126-7.312.477-9.179 1.996-1.397 4.923-.077 7.267 3.183 1.336 1.87 2.261 4.305 2.357 6.197l.077 1.499 3.706-.253-.067-1.441m27.386 43c-3.292 3.298-7.283 2.895-11.187-.993l-5.24-5.217 10.012-10.06 5.24 5.227c2.786 2.773 5.252 6.94 1.175 11.043zm1.486-13.721l-7.911-7.878-21.913 22.005-.345.35 2.674 2.651 6.924-6.956 5.24 5.227c.455.451.906.852 1.425 1.291l-1.877 12.125 3.318 3.283 2.04-13.208c1.345.58 2.713.871 4.081.871 2.722 0 5.329-1.169 7.532-3.385 4.747-4.769 4.305-10.893-1.188-16.376zm17.481 21.052l13.333 10.626 2.357-2.946-16.289-12.984-19.659 24.661 16.738 13.342 2.344-2.956-13.781-10.975 6.572-8.251 11.869 9.461 2.345-2.956-11.863-9.445 6.034-7.577m42.003 29.625a16.293 16.293 0 0 0-6.998-9.153 16.325 16.325 0 0 0-8.669-2.499c-5.525 0-10.528 2.726-13.378 7.293-2.236 3.568-2.911 7.821-1.903 11.975 1.006 4.147 3.571 7.69 7.223 9.973a16.43 16.43 0 0 0 8.714 2.486c.897 0 1.784-.071 2.633-.205l.66-.106 6.607-10.569-3.197-2.002-5.7 9.122a12.765 12.765 0 0 1-7.741-1.884 12.52 12.52 0 0 1-5.563-7.683c-.779-3.18-.273-6.428 1.425-9.137 2.174-3.472 5.989-5.541 10.204-5.541 2.36 0 4.682.669 6.709 1.934 2.643 1.656 4.567 4.145 5.419 7.008l.394 1.326 3.619-.83-.458-1.508m13.119 2.213l-14.249 28.152 3.359 1.716 14.249-28.151-3.359-1.717m20.491 33.135l-2.563-24.446-3.564-1.358-11.299 29.439 3.513 1.362 8.305-21.625 2.277 21.5.198.864 1.634.676 16.696-15.049-8.267 21.64 3.52 1.336 11.303-29.446-3.562-1.368-18.191 16.475m25.593 18.086l-.132.477 3.642.971 8.247-30.452-3.635-.98-8.122 29.984m40.716 2.152l-13.496-27.389-3.405-.58-5.332 31.095 3.715.625 4.176-24.351 13.496 27.39 3.402.58 5.335-31.095-3.718-.625-4.173 24.35m18.396 8.942l21.366 1.086.195-3.763-17.602-.903.541-10.534 15.152.775.189-3.77-15.149-.775.497-9.675 17.029.877.188-3.769-20.792-1.06-1.614 31.511m57.419-4.311l-3.069-23.805 8.878-1.15a13.224 13.224 0 0 1 1.627-.103c6.156 0 11.383 4.494 12.155 10.454.842 6.55-3.965 12.59-10.713 13.464l-8.878 1.14zm7.459-28.83c-.708 0-1.425.048-2.133.14l-12.616 1.624 3.972 30.801.06.487 12.613-1.634c4.25-.541 8.045-2.68 10.69-6.024 2.656-3.347 3.821-7.485 3.283-11.655-1.005-7.83-7.83-13.739-15.869-13.739zm42.135 19.674c-1.08.285-2.172.426-3.245.426-5.569 0-10.431-3.638-11.824-8.853-.817-3.061-.346-6.293 1.332-9.092a12.51 12.51 0 0 1 7.546-5.678 12.736 12.736 0 0 1 3.263-.423c5.56 0 10.413 3.622 11.796 8.814 1.707 6.402-2.274 13.044-8.868 14.806zm-2.931-27.399c-1.412 0-2.837.189-4.231.563-8.605 2.297-13.787 10.995-11.549 19.39 1.826 6.853 8.19 11.645 15.47 11.645 1.422 0 2.84-.189 4.211-.558 8.603-2.296 13.778-11.011 11.536-19.427-1.822-6.838-8.173-11.613-15.437-11.613zm82.326-16.123l-10.338 6.095-1.534-14.31 11.872 8.215zm-16.113-12.625l3.581 34.506 3.641-2.152-1.008-9.519 13.304-7.846 7.872 5.47 3.626-2.117-28.617-19.764-2.399 1.422zm35.778-19.498l-2.22-3.043-18.956 13.714 2.219 3.043 7.949-5.749 16.276 22.515 3.053-2.219-16.28-22.509 7.959-5.752m26.704-2.79l-9.035 7.905-4.157-13.772 13.192 5.867zm-16.077-11.264l-2.101 1.835 9.912 33.241 3.183-2.763-2.754-9.183 11.62-10.178 8.753 3.92 3.154-2.764-31.482-13.98-.285-.128zm52.524-28.036l-7.568 9.32-6.431-12.872 13.999 3.552zm-19.511-6.207l15.053 30.4.343.689 2.664-3.29-4.266-8.57 9.733-11.994 9.292 2.383 2.648-3.258-33.708-8.528-1.759 2.168zm36.518-4.026c-.782 1.13-.49 2.745.637 3.526.42.292.919.449 1.441.449.846 0 1.63-.41 2.098-1.089a2.523 2.523 0 0 0 .4-1.9 2.504 2.504 0 0 0-1.041-1.63c-1.069-.743-2.796-.416-3.535.644m-9.82-26.743l4.461-7.757c2.223-3.869 6.335-6.268 10.73-6.268 2.056 0 4.077.535 5.845 1.554 5.729 3.299 7.628 10.783 4.237 16.683l-4.462 7.763-20.811-11.975zm22.919-15.732a15.495 15.495 0 0 0-7.725-2.065c-5.736 0-11.101 3.126-13.996 8.157l-6.341 11.037 27.344 15.728 6.339-11.033c2.139-3.725 2.735-8.049 1.675-12.174-1.064-4.131-3.655-7.558-7.296-9.65zm17.086-5.188c-1.201-.57-2.834.038-3.382 1.214a2.53 2.53 0 0 0-.086 1.941 2.53 2.53 0 0 0 2.373 1.678c.99 0 1.896-.573 2.309-1.457a2.51 2.51 0 0 0 .077-1.944 2.5 2.5 0 0 0-1.291-1.432m-17.426-34.125l3.571 1.214 1.98-5.803 26.288 8.954 1.21-3.571-29.856-10.168-3.193 9.374m20.511-25.683c-1.291 4.897-4.126 7.306-7.498 6.262-3.356-1.022-4.58-4.606-3.273-9.586 1.082-4.125 3.209-6.492 5.829-6.492l.125.003c.464.013.948.096 1.438.247 1.662.506 2.808 1.55 3.407 3.107.654 1.691.644 3.923-.028 6.459zm16.939 5.16c-1.579 6.015-4.961 8.763-9.144 7.517-1.851-.564-3.123-1.794-3.782-3.658-.721-2.024-.676-4.705.128-7.747 1.319-5.041 3.856-7.933 6.959-7.933l.151.003a5.93 5.93 0 0 1 1.563.266c2.046.624 3.452 1.909 4.173 3.817.768 2.018.752 4.692-.048 7.735zm-2.876-15.95c-3.767-1.162-7.354-.115-10.095 2.908-1.019-3.074-3.161-5.181-6.246-6.126a9.603 9.603 0 0 0-2.767-.426c-4.56 0-8.253 3.699-9.877 9.89-.948 3.619-.929 6.918.058 9.537 1.063 2.816 3.161 4.769 6.072 5.65 3.052.922 5.941.33 8.311-1.701.858 4.186 3.325 7.005 7.168 8.18.993.301 1.989.471 2.959.503l.288.003c5.208 0 9.275-4.099 11.159-11.245 1.226-4.672 1.028-8.794-.58-11.92-1.316-2.553-3.545-4.369-6.45-5.253zm7.161-12.907l-8.132-9.886c-2.924-3.815-6.357-6.351-9.192-6.787-4.941-.717-8.608 2.473-9.483 8.202-.512 3.382.497 7.123 2.7 10.006l.878 1.153 3.033-2.23-.913-1.191c-1.576-2.062-2.329-4.81-1.967-7.174.545-3.584 2.454-5.477 5.192-5.038 1.825.276 4.487 2.376 6.787 5.365l10.706 13.06.122.148 3.151.48 3.251-21.362-3.728-.564-2.405 15.818m4.644-46.561l-.932 15.969-9.016-9.089c-3.267-3.533-6.921-5.736-9.768-5.896-4.919-.382-8.362 3.241-8.695 9.038-.199 3.411 1.153 7.042 3.615 9.713l.984 1.067 2.812-2.498-1.019-1.105c-1.761-1.906-2.767-4.574-2.626-6.96.205-3.551 1.761-5.505 4.372-5.505l.33.003c1.828.115 4.743 2.005 7.26 4.718l11.873 12.004.131.134 3.187.195 1.255-21.58-3.763-.208M213.782 528.471c3.222 0 6.271 1.125 8.583 3.168l.945.833 2.44-2.441-1.076-.945A16.56 16.56 0 0 0 213.782 525c-8.997 0-16.315 7.132-16.315 15.898 0 8.788 7.318 15.937 16.315 15.937 4.009 0 7.891-1.467 10.934-4.129l1.114-.976-2.555-2.377-.91.801c-2.344 2.072-5.39 3.212-8.583 3.212-7.082 0-12.843-5.592-12.843-12.468 0-6.854 5.761-12.427 12.843-12.427m24.805 12.427c0-6.831 5.742-12.385 12.801-12.385s12.801 5.554 12.801 12.385c0 6.854-5.742 12.427-12.801 12.427s-12.801-5.573-12.801-12.427zm29.116 0c0-8.766-7.319-15.898-16.315-15.898-8.996 0-16.315 7.132-16.315 15.898 0 8.788 7.319 15.937 16.315 15.937 8.996 0 16.315-7.149 16.315-15.937zm13.573-9.605l18.396 25.337.148.205h3.27V525h-3.511v25.545l-18.399-25.34-.148-.205h-3.27v31.835h3.514v-25.542m41.312 22.032v-24.812h9.297c7.037 0 12.76 5.573 12.76 12.427 0 6.831-5.723 12.385-12.76 12.385h-9.297zm25.57-12.385c0-8.789-7.302-15.94-16.273-15.94h-12.811v31.835h12.811c8.971 0 16.273-7.133 16.273-15.895zm13.49 15.895h3.51V525h-3.51v31.835zm28.728 0v-28.322h10.012V525h-23.537v3.513h10.012v28.322h3.513m22.589-12.398l6.319-13.929 6.451 13.929h-12.77zm-1.588 3.513h15.969l4.089 8.885h3.911l-14.627-31.55-.131-.285h-2.633l-14.252 31.137-.317.698h3.946l4.045-8.885zm77.201-3.513h-12.772l6.322-13.929 6.45 13.929zM483.428 525h-2.629l-14.255 31.137-.317.698h3.945l4.045-8.885h15.972l4.087 8.885h3.91L483.428 525zm53.06 15.94c0 6.831-5.723 12.385-12.76 12.385h-9.301v-24.812h9.301c7.037 0 12.76 5.573 12.76 12.427zm3.51 0c0-8.789-7.299-15.94-16.27-15.94h-12.811v31.835h12.811c8.971 0 16.27-7.133 16.27-15.895zm-228.802 77.896v-36.77h-11.175v3.914h7.261v32.856h3.914m39.614-10.521c0 5.544-3.984 9.125-10.156 9.125-7.161 0-10.383-5.089-10.383-8.705 0-4.372 3.818-9.019 10.899-9.019 5.947 0 9.64 3.296 9.64 8.599zm4.455.106c0-7.933-5.403-12.862-14.095-12.862-5.028 0-9.211 1.652-11.959 4.686.397-4.853 1.874-8.67 4.308-11.092 1.386-1.38 4.307-3.695 8.279-3.695 2.523 0 6.338 0 9.031 1.277l.413.196 1.326-2.268.308-.579-.019-.007.486-.861-.502-.218c-3.61-1.566-7.652-1.698-11.159-1.698-10.21 0-17.07 8.606-17.07 21.414 0 3.978.66 7.433 1.966 10.284l.445.89c2.691 5.044 7.504 7.709 13.92 7.709 8.698 0 14.322-5.172 14.322-13.176zm37.813.318c0-6.056-4.445-9.938-11.677-10.3l10.583-13.353.119-.138v-2.882h-23.998v3.914h18.034l-10.599 13.324-.119.138v2.885h4.859c4.051 0 8.881 1.147 8.881 6.608 0 4.602-3.446 7.574-8.785 7.574-2.847 0-5.887-.9-8.129-2.412l-1.159-.778-2.36 3.142 1.306.865c2.937 1.94 6.803 3.1 10.342 3.1 7.597 0 12.702-4.699 12.702-11.687m18.574-9.526c0-6.591 1.893-14.444 10.915-14.444 7.068 0 10.96 5.127 10.96 14.444 0 9.349-3.892 14.496-10.96 14.496-7.04 0-10.915-5.147-10.915-14.496zm10.915 18.409c9.454 0 14.877-6.709 14.877-18.409 0-11.667-5.423-18.361-14.877-18.361-9.422 0-14.829 6.694-14.829 18.361 0 11.7 5.407 18.409 14.829 18.409zM178.408 474.221v-17.548h15.853c7.337 0 11.379 3.103 11.379 8.74 0 5.682-4.042 8.808-11.379 8.808h-15.853zm29.734 13.461c0 6.274-4.929 9.729-13.881 9.729h-15.853V478.15h15.853c8.952 0 13.881 3.386 13.881 9.532zm3.929.067c0-5.605-2.94-9.881-8.109-11.885 3.667-2.044 5.672-5.711 5.672-10.451 0-7.975-5.749-12.737-15.373-12.737h-19.85v48.729h19.85c11.318 0 17.81-4.977 17.81-13.656zm57.934-10.739c0 11.251-9.416 20.401-20.993 20.401-11.578 0-20.997-9.15-20.997-20.401 0-11.216 9.419-20.337 20.997-20.337 11.577 0 20.993 9.121 20.993 20.337zm-20.993-24.334c-13.779 0-24.991 10.918-24.991 24.334 0 13.452 11.212 24.395 24.991 24.395 13.778 0 24.987-10.943 24.987-24.395 0-13.416-11.209-24.334-24.987-24.334zm68.932 36.2c.077-9.797-8.055-12.25-15.236-14.422-6.6-1.995-12.301-3.721-12.301-10.226 0-4.589 4.721-7.555 12.032-7.555 3.885 0 8.155 1.13 10.874 2.882l1.14.737 2.072-3.324-1.105-.715c-3.363-2.171-8.458-3.577-12.981-3.577-9.736 0-16.029 4.535-16.029 11.552 0 9.471 7.991 11.892 15.049 14.031 6.732 2.037 12.545 3.799 12.491 10.608 0 5.191-5.086 8.544-12.958 8.544-5.169 0-10.608-2.213-13.852-5.639l-.945-1-2.831 2.831.926.945c4.096 4.164 10.649 6.857 16.702 6.857 10.296 0 16.952-4.919 16.952-12.529m45.392-36.2h-35.618v3.997h15.812v44.732h3.994v-44.732h15.812v-3.997m50.753 24.334c0 11.251-9.416 20.401-20.993 20.401-11.578 0-20.997-9.15-20.997-20.401 0-11.216 9.419-20.337 20.997-20.337 11.577 0 20.993 9.121 20.993 20.337zm3.994 0c0-13.416-11.209-24.334-24.987-24.334-13.778 0-24.991 10.918-24.991 24.334 0 13.452 11.213 24.395 24.991 24.395s24.987-10.943 24.987-24.395zm19.636-17.557L468.03 501.2l.147.205h3.997v-48.729h-3.997v41.956l-30.311-41.751-.147-.205h-3.997v48.729h3.997v-41.952m57.396 41.952h3.994v-48.729h-3.994v48.729zm55.831-17.166h-23.347l11.579-25.494 11.768 25.494zm7.791 16.878l.131.288h4.462l-22.583-48.729h-3.164l-21.987 48.031-.317.698h4.523l5.895-12.98h27.181l5.859 12.692zM435.293 140.852a24.93 24.93 0 0 0-1.513-7.452h12.388c.893 0 1.62-.727 1.62-1.621 0-.893-.727-1.62-1.62-1.62h-13.894c-3.827-7.03-10.845-11.98-19.145-12.933h31.252c.893 0 1.62-.727 1.62-1.62 0-.894-.727-1.621-1.62-1.621h-52.739c-.894 0-1.621.727-1.621 1.621 0 .893.727 1.62 1.621 1.62h15.785c-12.507 1.436-22.287 11.965-22.287 24.85 0 2.338.431 4.596 1.056 6.805-5.541.213-10.273 3.457-12.652 8.129-.045-.003-.071-.048-.116-.048h-1.192c-.893 0-1.62.727-1.62 1.621 0 .893.727 1.62 1.62 1.62h.103c-.275 1.129-.461 2.292-.461 3.504 0 1.303.226 2.565.554 3.803-5.344 1.564-9.282 6.44-9.319 12.275H338.13a15.967 15.967 0 0 0 4.59-11.229c0-8.823-7.181-16.004-16.004-16.004-2.316 0-4.615.506-6.703 1.467a22.657 22.657 0 0 0-.476-4.442h5.959a1.622 1.622 0 1 0 0-3.245h-6.463c-.174 0-.289.134-.446.185-3.155-8.729-11.442-15.023-21.246-15.023-2.121 0-4.134.387-6.082.934.103-.214.269-.396.269-.649 0-.893-.727-1.62-1.621-1.62h-13.384c-.894 0-1.621.727-1.621 1.62 0 .894.727 1.621 1.621 1.621h11.778c-5.626 2.459-10.01 7.149-12.158 12.932h-4.28a1.623 1.623 0 0 0 0 3.245h3.271c-.164.794-.177 1.636-.256 2.458-1.109-.196-2.223-.386-3.351-.386-5.117 0-9.746 2.041-13.192 5.313h-15.969c-.894 0-1.621.727-1.621 1.621 0 .893.727 1.62 1.621 1.62h13.191a19.09 19.09 0 0 0-3.243 10.656c0 .771.195 1.518.287 2.28h-10.235c-.116 0-.189.101-.298.124-.109-.023-.182-.124-.298-.124h-2.386c-.893 0-1.62.727-1.62 1.621 0 .893.727 1.62 1.62 1.62h2.386c.116 0 .189-.1.298-.123.109.023.182.123.298.123h10.846c.287.95.659 1.867 1.088 2.761-6.971 2.967-11.873 9.882-11.873 17.923 0 1.066.086 2.129.259 3.173a21.337 21.337 0 0 0-11.353-3.234c-7.892 0-15.037 4.243-18.823 11.12-5.166-5.612-12.209-8.693-19.905-8.693-11.93 0-22.246 7.546-25.833 18.829a21.35 21.35 0 0 0-7.895-1.499c-11.837 0-21.471 9.634-21.471 21.471 0 .727.039 1.458.109 2.175a1.615 1.615 0 0 0 1.611 1.457l.167-.006a1.63 1.63 0 0 0 1.447-1.778 17.686 17.686 0 0 1-.092-1.848c0-10.053 8.176-18.23 18.229-18.23 2.265 0 4.441.48 6.524 1.281-.794.511-1.549 1.087-2.203 1.8a11.04 11.04 0 0 0-2.851 6.185 1.621 1.621 0 0 0 1.406 1.797c.068.009.138.016.205.016a1.62 1.62 0 0 0 1.608-1.429 7.826 7.826 0 0 1 2.015-4.378 7.812 7.812 0 0 1 5.457-2.536c2.082-.065 4.106.646 5.65 2.065a7.678 7.678 0 0 1 1.444 1.778c.439.73 1.477 1.005 2.22.563a1.62 1.62 0 0 0 .567-2.216 11.136 11.136 0 0 0-2.037-2.511 11.126 11.126 0 0 0-7.982-2.914c-.368.015-.719.101-1.08.152 3.022-10.054 12.131-16.983 22.785-16.983 7.61 0 14.585 3.498 19.149 9.605a1.65 1.65 0 0 0 1.695.596 1.62 1.62 0 0 0 1.204-1.332l.099-.676a18.3 18.3 0 0 1 16.581-10.62c4.825 0 9.379 1.901 12.89 5.356-.682 1.721-1.085 3.582-1.085 5.543 0 3.196.986 6.251 2.85 8.839a1.605 1.605 0 0 0 2.255.365c.352-.253.586-.624.656-1.053a1.62 1.62 0 0 0-.285-1.208 11.804 11.804 0 0 1-2.235-6.943c0-6.563 5.336-11.898 11.898-11.898 1.166 0 2.319.166 3.427.499.852.25 1.768-.24 2.018-1.086.125-.413.08-.851-.125-1.233a1.626 1.626 0 0 0-.961-.781 15.154 15.154 0 0 0-4.359-.641c-4.803 0-9.04 2.293-11.816 5.793-.468-1.529-.79-3.096-.79-4.732 0-8.949 7.28-16.229 16.228-16.229 1.458 0 2.896.189 4.273.567.823.234 1.758-.298 1.985-1.14a1.605 1.605 0 0 0-.156-1.23 1.604 1.604 0 0 0-.981-.756 19.56 19.56 0 0 0-5.121-.682c-1.564 0-3.065.235-4.524.585-.441-.853-.773-1.756-1.052-2.676.134-.236.308-.453.308-.743 0-.551-.32-.963-.741-1.256-.148-.877-.332-1.75-.332-2.645 0-4.16 1.635-7.918 4.248-10.762.628-.116 1.074-.561 1.223-1.177 2.814-2.477 6.462-4.03 10.498-4.03 1.095 0 2.187.151 3.262.372.153 3.207.867 6.299 2.323 9.166.391.778 1.4 1.108 2.178.714a1.628 1.628 0 0 0 .711-2.181 19.179 19.179 0 0 1-2.098-8.788c0-2.034.401-3.958.984-5.802.044-.149.173-.255.173-.418 0-.023-.025-.036-.025-.059 2.626-7.629 9.796-13.159 18.306-13.159 10.716 0 19.434 8.718 19.434 19.438 0 1.483-.167 2.959-.497 4.384a1.62 1.62 0 0 0 .948 1.851c.699.308 1.57.036 1.992-.608l1.695-2.614a12.756 12.756 0 0 1 5.803-1.393c7.04 0 12.763 5.724 12.763 12.763 0 4.849-2.69 9.218-7.024 11.405a1.613 1.613 0 0 0-.845 1.822 1.617 1.617 0 0 0 1.576 1.243h30.358c1.216 4.8 5.079 8.618 10.124 9.551a1.619 1.619 0 0 0 1.889-1.301 1.625 1.625 0 0 0-1.297-1.886 9.68 9.68 0 0 1-7.914-9.525c0-4.675 3.33-8.587 7.741-9.491.156.048.296.139.465.139a1.6 1.6 0 0 0 .631-.131c.061-.026.073-.1.13-.132.242-.018.474-.073.722-.073 2.322 0 4.567.832 6.322 2.344.653.564 1.717.496 2.287-.166a1.62 1.62 0 0 0-.173-2.284 12.905 12.905 0 0 0-8.436-3.135c-.135 0-.259.035-.393.039-.31-1.058-.523-2.142-.523-3.268 0-6.418 5.22-11.639 11.642-11.639.194 0 .373.073.565.083.294.457.761.779 1.318.779.218 0 .432-.045.637-.131.148-.064.194-.222.311-.32 3.35.85 6.238 3.113 7.731 6.325.362.788 1.355 1.162 2.152.784a1.623 1.623 0 0 0 .785-2.152c-2.01-4.319-6.007-7.252-10.574-8.187-.801-2.305-1.305-4.694-1.305-7.173 0-12.074 9.823-21.897 21.897-21.897 11.737 0 21.269 9.323 21.798 20.957-.207.249-.397.524-.423.866a1.62 1.62 0 0 0 1.486 1.743c8.167.643 14.566 7.574 14.566 15.779 0 4.382-1.841 8.603-5.054 11.591-.405.379-.484.902-.405 1.414-.02.026-.046.043-.065.069a1.63 1.63 0 0 0 .32 2.271c.698.518 1.758.365 2.271-.324 2.792-3.712 7.052-5.842 11.689-5.842 8.059 0 14.611 6.556 14.611 14.614 0 5.109-2.725 9.916-7.113 12.542a1.62 1.62 0 0 0-.557 2.223c.291.487.823.791 1.39.791.291 0 .579-.08.832-.231 2.52-1.509 4.541-3.641 6.028-6.088h7.289c.894 0 1.624-.727 1.624-1.62 0-.894-.73-1.621-1.624-1.621h-5.811c.695-1.917 1.187-3.911 1.187-5.996 0-2.458-.5-4.803-1.404-6.937h.622c.894 0 1.621-.727 1.621-1.62 0-.894-.727-1.621-1.621-1.621h-2.439c-3.229-4.628-8.575-7.677-14.635-7.677-2.493 0-4.863.584-7.064 1.535.912-2.137 1.392-4.442 1.478-6.794h6.615c.893 0 1.62-.727 1.62-1.62 0-.894-.727-1.621-1.62-1.621h-6.791c-.368-2.662-1.24-5.174-2.605-7.385h18.93a1.623 1.623 0 0 0 0-3.245h-21.463c-2.708-2.81-6.271-4.745-10.268-5.48m128.101 105.934c-.006.432.16.842.461 1.15.304.313.718.49 1.156.49.423 0 .827-.167 1.134-.465 6.585-6.453 10.214-15.081 10.214-24.302 0-18.755-15.261-34.016-34.017-34.016-6.118 0-11.995 1.702-17.213 4.779-2.661-9.305-11.15-16.178-21.296-16.178-8.387 0-15.616 4.72-19.406 11.591a1.59 1.59 0 0 0-1.165-.522h-.891c-.893 0-1.62.727-1.62 1.621 0 .893.727 1.62 1.62 1.62h.744c-.951 2.473-1.528 5.13-1.528 7.933 0 1.791.214 3.574.64 5.304.209.858 1.096 1.425 1.957 1.191a1.626 1.626 0 0 0 1.188-1.96 19.07 19.07 0 0 1-.544-4.535c0-10.479 8.526-19.002 19.005-19.002s19.002 8.523 19.002 19.002c0 3.392-.904 6.72-2.617 9.628a1.617 1.617 0 0 0 .576 2.213c.25.147.535.227.82.227.571 0 1.105-.304 1.397-.797a22.21 22.21 0 0 0 3.065-11.271c0-.931-.164-1.818-.275-2.72 4.942-3.165 10.626-4.883 16.541-4.883 16.972 0 30.775 13.804 30.775 30.775 0 8.34-3.279 16.148-9.236 21.987a1.597 1.597 0 0 0-.487 1.14M109.68 400.792a1.622 1.622 0 0 0 0 3.244h15.252a1.622 1.622 0 0 0 0-3.244H109.68m53.845 1.62c0-.893-.727-1.62-1.621-1.62h-23.572a1.622 1.622 0 0 0 0 3.244h23.572c.894 0 1.621-.73 1.621-1.624m29.34-1.62h-20.334a1.622 1.622 0 0 0 0 3.244h20.334c.893 0 1.623-.73 1.623-1.624 0-.893-.73-1.62-1.623-1.62m114.612 0h-84.11c-.673 0-1.142.47-1.386 1.057-.245-.587-.713-1.057-1.387-1.057h-14.326a1.622 1.622 0 0 0 0 3.244h14.326c.674 0 1.142-.472 1.387-1.059.244.587.713 1.059 1.386 1.059h84.11a1.622 1.622 0 0 0 0-3.244m37.667 1.62c0-.893-.727-1.62-1.62-1.62h-18.486a1.622 1.622 0 0 0 0 3.244h18.486c.893 0 1.62-.73 1.62-1.624m33.965-1.62h-13.4a1.622 1.622 0 0 0 0 3.244h13.4a1.622 1.622 0 0 0 0-3.244m47.141 0h-15.251a1.622 1.622 0 0 0 0 3.244h15.251a1.622 1.622 0 0 0 0-3.244m111.375 0H435.029a1.622 1.622 0 0 0 0 3.244h102.596a1.622 1.622 0 0 0 0-3.244m33.971 1.62c0-.893-.727-1.62-1.62-1.62h-28.652a1.622 1.622 0 0 0 0 3.244h28.652c.893 0 1.62-.73 1.62-1.624m25.881 0c0-.893-.727-1.62-1.62-1.62h-19.409a1.622 1.622 0 0 0 0 3.244h19.409c.893 0 1.62-.73 1.62-1.624m10.861-1.62a1.622 1.622 0 0 0 0 3.244h1.38c.894 0 1.624-.73 1.624-1.624 0-.893-.73-1.62-1.624-1.62h-1.38m-208.856 3.244a1.622 1.622 0 0 0 0-3.244h-1.381a1.622 1.622 0 0 0 0 3.244h1.381m-8.1 0a1.622 1.622 0 0 0 0-3.244h-1.38a1.622 1.622 0 0 0 0 3.244h1.38m-224.168 0a1.622 1.622 0 0 0 0-3.244h-1.38a1.622 1.622 0 0 0 0 3.244h1.38m-36.738 12.933c-.894 0-1.621.727-1.621 1.62 0 .894.727 1.621 1.621 1.621h15.715c.894 0 1.621-.727 1.621-1.621 0-.893-.727-1.62-1.621-1.62h-15.715m48.297 1.62c0-.893-.727-1.62-1.621-1.62h-24.955c-.894 0-1.621.727-1.621 1.62 0 .894.727 1.621 1.621 1.621h24.955c.894 0 1.621-.727 1.621-1.621m1.841 0c0 .894.73 1.621 1.624 1.621h39.743c.893 0 1.62-.727 1.62-1.621 0-.893-.727-1.62-1.62-1.62h-39.743c-.894 0-1.624.727-1.624 1.62m45.527-1.62c-.894 0-1.621.727-1.621 1.62 0 .894.727 1.621 1.621 1.621h81.801c.893 0 1.62-.727 1.62-1.621 0-.893-.727-1.62-1.62-1.62h-81.801m140.728 1.62c0-.893-.731-1.62-1.624-1.62h-28.191c-.893 0-1.62.727-1.62 1.62 0 .894.727 1.621 1.62 1.621h28.191c.893 0 1.624-.727 1.624-1.621m3.689 0c0 .894.727 1.621 1.621 1.621h32.812c.893 0 1.62-.727 1.62-1.621 0-.893-.727-1.62-1.62-1.62h-32.812c-.894 0-1.621.727-1.621 1.62m48.524 0c0 .894.728 1.621 1.621 1.621h14.326c.893 0 1.62-.727 1.62-1.621 0-.893-.727-1.62-1.62-1.62h-14.326c-.893 0-1.621.727-1.621 1.62m19.646-1.62c-.894 0-1.621.727-1.621 1.62 0 .894.727 1.621 1.621 1.621h16.174c.893 0 1.62-.727 1.62-1.621 0-.893-.727-1.62-1.62-1.62h-16.174m25.417 0c-.894 0-1.621.727-1.621 1.62 0 .894.727 1.621 1.621 1.621h75.328c.18 0 .3-.137.463-.192.162.055.282.192.462.192h3.696c.894 0 1.624-.727 1.624-1.621 0-.893-.73-1.62-1.624-1.62h-3.696c-.18 0-.3.137-.462.192-.163-.055-.283-.192-.463-.192h-75.328m131.305 3.241h3.699c.894 0 1.621-.727 1.621-1.621 0-.893-.727-1.62-1.621-1.62h-3.699c-.894 0-1.621.727-1.621 1.62 0 .894.727 1.621 1.621 1.621m-183.791-3.241c-.894 0-1.621.727-1.621 1.62 0 .894.727 1.621 1.621 1.621h1.848c.893 0 1.62-.727 1.62-1.621 0-.893-.727-1.62-1.62-1.62h-1.848m-20.402 16.173c-.893 0-1.62.728-1.62 1.621 0 .894.727 1.621 1.62 1.621h1.851c.894 0 1.621-.727 1.621-1.621 0-.893-.727-1.621-1.621-1.621h-1.851m-55.067 3.242h1.848c.893 0 1.62-.727 1.62-1.621 0-.893-.727-1.621-1.62-1.621h-1.848c-.894 0-1.621.728-1.621 1.621 0 .894.727 1.621 1.621 1.621m-164.582 0h1.848c.894 0 1.621-.727 1.621-1.621 0-.893-.727-1.621-1.621-1.621h-1.848c-.893 0-1.62.728-1.62 1.621 0 .894.727 1.621 1.62 1.621m371.564-3.242c-.894 0-1.621.728-1.621 1.621 0 .894.727 1.621 1.621 1.621h1.848c.893 0 1.62-.727 1.62-1.621 0-.893-.727-1.621-1.62-1.621h-1.848m24.494 0c-.893 0-1.62.728-1.62 1.621 0 .894.727 1.621 1.62 1.621h1.848c.894 0 1.621-.727 1.621-1.621 0-.893-.727-1.621-1.621-1.621h-1.848M325.963 420.21c.894 0 1.621-.727 1.621-1.621 0-.893-.727-1.62-1.621-1.62h-1.848c-.893 0-1.62.727-1.62 1.62 0 .894.727 1.621 1.62 1.621h1.848m264.58-1.621c0-.893-.727-1.62-1.62-1.62h-35.582c-.894 0-1.621.727-1.621 1.62 0 .894.727 1.621 1.621 1.621h35.582c.893 0 1.62-.727 1.62-1.621m-432.338 14.553c-.894 0-1.621.728-1.621 1.621 0 .894.727 1.621 1.621 1.621h9.704c.894 0 1.624-.727 1.624-1.621 0-.893-.73-1.621-1.624-1.621h-9.704m25.417 0c-.894 0-1.621.728-1.621 1.621 0 .894.727 1.621 1.621 1.621h17.563c.894 0 1.621-.727 1.621-1.621 0-.893-.727-1.621-1.621-1.621h-17.563m50.145 3.146c.086.014.14.096.23.096h63.776c.894 0 1.621-.727 1.621-1.621 0-.893-.727-1.621-1.621-1.621h-63.776c-.09 0-.144.082-.23.096-.086-.014-.141-.096-.231-.096h-27.729c-.894 0-1.621.728-1.621 1.621 0 .894.727 1.621 1.621 1.621h27.729c.09 0 .145-.082.231-.096m95.665-1.525c0-.893-.727-1.621-1.621-1.621h-26.342c-.894 0-1.621.728-1.621 1.621 0 .894.727 1.621 1.621 1.621h26.342c.894 0 1.621-.727 1.621-1.621m18.252 1.621h32.351c.893 0 1.62-.727 1.62-1.621 0-.893-.727-1.621-1.62-1.621h-32.351c-.893 0-1.62.728-1.62 1.621 0 .894.727 1.621 1.62 1.621m52.451-1.621c0 .894.727 1.621 1.621 1.621h48.524c.894 0 1.621-.727 1.621-1.621 0-.893-.727-1.621-1.621-1.621h-48.524c-.894 0-1.621.728-1.621 1.621m109.994.008a1.622 1.622 0 0 0 1.618 1.613h27.729c.894 0 1.621-.727 1.621-1.621 0-.893-.727-1.621-1.621-1.621h-27.729c-.891 0-1.613.725-1.618 1.613a1.621 1.621 0 0 0-1.617-1.613h-54.533c-.893 0-1.623.728-1.623 1.621 0 .894.73 1.621 1.623 1.621h54.533c.89 0 1.613-.725 1.617-1.613m51.065 1.613c.893 0 1.623-.727 1.623-1.621 0-.893-.73-1.621-1.623-1.621h-7.389c-.894 0-1.621.728-1.621 1.621 0 .894.727 1.621 1.621 1.621h7.389"/><path d="M242.888 146.332a1.623 1.623 0 0 0 0 3.245h21.154a1.623 1.623 0 0 0 0-3.245h-21.154m-21.811 44.602c0 .893.731 1.62 1.624 1.62h18.474c.893 0 1.62-.727 1.62-1.62 0-.894-.727-1.621-1.62-1.621h-18.474c-.893 0-1.624.727-1.624 1.621m-16.683 0c0 .893.727 1.62 1.621 1.62h12.513c.894 0 1.621-.727 1.621-1.62 0-.894-.727-1.621-1.621-1.621h-12.513c-.894 0-1.621.727-1.621 1.621m-6.427 1.62c.893 0 1.62-.727 1.62-1.62 0-.894-.727-1.621-1.62-1.621h-.891c-.893 0-1.62.727-1.62 1.621 0 .893.727 1.62 1.62 1.62h.891M496.56 174.76c0 .893.73 1.62 1.623 1.62h10.131c.893 0 1.62-.727 1.62-1.62 0-.894-.727-1.621-1.62-1.621h-10.131c-.893 0-1.623.727-1.623 1.621m-18.342 1.62h16.09c.894 0 1.621-.727 1.621-1.62 0-.894-.727-1.621-1.621-1.621h-16.09c-.894 0-1.621.727-1.621 1.621 0 .893.727 1.62 1.621 1.62m-274.326 0h2.382c.894 0 1.621-.727 1.621-1.62 0-.894-.727-1.621-1.621-1.621h-2.382c-.894 0-1.621.727-1.621 1.621 0 .893.727 1.62 1.621 1.62m279.03-16.177c.894 0 1.621-.727 1.621-1.62 0-.894-.727-1.621-1.621-1.621h-1.191c-.894 0-1.621.727-1.621 1.621 0 .893.727 1.62 1.621 1.62h1.191m-248.009-1.62c0 .893.727 1.62 1.621 1.62h1.191c.894 0 1.621-.727 1.621-1.62 0-.894-.727-1.621-1.621-1.621h-1.191c-.894 0-1.621.727-1.621 1.621m-12.977 1.62c.893 0 1.62-.727 1.62-1.62 0-.894-.727-1.621-1.62-1.621h-1.195c-.893 0-1.62.727-1.62 1.621 0 .893.727 1.62 1.62 1.62h1.195m-13.074 14.557c0 .893.727 1.62 1.621 1.62h22.941c.893 0 1.624-.727 1.624-1.62 0-.894-.731-1.621-1.624-1.621h-22.941c-.894 0-1.621.727-1.621 1.621m290.596-17.798H493.2c-.894 0-1.621.727-1.621 1.621 0 .893.727 1.62 1.621 1.62h6.258c.894 0 1.621-.727 1.621-1.62 0-.894-.727-1.621-1.621-1.621m-24.283 0h-11.322c-.893 0-1.62.727-1.62 1.621 0 .893.727 1.62 1.62 1.62h11.322c.894 0 1.621-.727 1.621-1.62 0-.894-.727-1.621-1.621-1.621m-131.635 1.621c0 .893.727 1.62 1.62 1.62h20.857c.893 0 1.62-.727 1.62-1.62 0-.894-.727-1.621-1.62-1.621H345.16c-.893 0-1.62.727-1.62 1.621m-112.669 1.62c.894 0 1.621-.727 1.621-1.62 0-.894-.727-1.621-1.621-1.621h-4.765c-.894 0-1.621.727-1.621 1.621 0 .893.727 1.62 1.621 1.62h4.765m132.824-12.25c0 .894.727 1.624 1.62 1.624h8.343a1.623 1.623 0 0 0 0-3.245h-8.343c-.893 0-1.62.727-1.62 1.621m-17.878 0c0 .894.727 1.624 1.621 1.624h13.409a1.623 1.623 0 0 0 0-3.245h-13.409c-.894 0-1.621.727-1.621 1.621m-9.342 0c0 .894.727 1.624 1.62 1.624h2.684a1.623 1.623 0 0 0 0-3.245h-2.684c-.893 0-1.62.727-1.62 1.621m117.754-16.174c0 .894.727 1.621 1.621 1.621h9.236c.894 0 1.624-.727 1.624-1.621 0-.893-.73-1.62-1.624-1.62h-9.236c-.894 0-1.621.727-1.621 1.62m-87.152 0c0 .894.73 1.621 1.623 1.621h11.918c.893 0 1.62-.727 1.62-1.621 0-.893-.727-1.62-1.62-1.62H368.7c-.893 0-1.623.727-1.623 1.62m-12.68-1.62h-8.641c-.893 0-1.62.727-1.62 1.62 0 .894.727 1.621 1.62 1.621h8.641c.894 0 1.621-.727 1.621-1.621 0-.893-.727-1.62-1.621-1.62m-40.652 1.62c0 .894.727 1.621 1.621 1.621h9.832c.893 0 1.62-.727 1.62-1.621 0-.893-.727-1.62-1.62-1.62h-9.832c-.894 0-1.621.727-1.621 1.62m-43.855 0c0-.893-.73-1.62-1.624-1.62h-29.602c-.894 0-1.621.727-1.621 1.62 0 .894.727 1.621 1.621 1.621h29.602c.894 0 1.624-.727 1.624-1.621m63.622 1.621c.894 0 1.621-.727 1.621-1.621 0-.893-.727-1.62-1.621-1.62h-.89c-.894 0-1.621.727-1.621 1.62 0 .894.727 1.621 1.621 1.621h.89m5.221-3.241h-.888c-.893 0-1.623.727-1.623 1.62 0 .894.73 1.621 1.623 1.621h.888c.893 0 1.62-.727 1.62-1.621 0-.893-.727-1.62-1.62-1.62m41.808 16.173h-.89a1.623 1.623 0 0 0 0 3.245h.89a1.623 1.623 0 0 0 0-3.245m-27.467-30.726c0 .893.727 1.62 1.621 1.62h18.175c.894 0 1.621-.727 1.621-1.62 0-.894-.727-1.621-1.621-1.621h-18.175c-.894 0-1.621.727-1.621 1.621m-24.004 1.62h21.157c.894 0 1.621-.727 1.621-1.62 0-.894-.727-1.621-1.621-1.621H329.07c-.894 0-1.621.727-1.621 1.621 0 .893.727 1.62 1.621 1.62m-10.13-3.241h-9.237c-.893 0-1.62.727-1.62 1.621 0 .893.727 1.62 1.62 1.62h9.237c.893 0 1.62-.727 1.62-1.62 0-.894-.727-1.621-1.62-1.621m-64.304 3.241h2.386c.116 0 .188-.1.297-.124.11.024.182.124.298.124h33.315c.894 0 1.621-.727 1.621-1.62 0-.894-.727-1.621-1.621-1.621h-33.315c-.116 0-.188.1-.298.124-.109-.024-.181-.124-.297-.124h-2.386c-.894 0-1.621.727-1.621 1.621 0 .893.727 1.62 1.621 1.62m70.136 0c.893 0 1.621-.727 1.621-1.62 0-.894-.728-1.621-1.621-1.621h-1.191c-.894 0-1.621.727-1.621 1.621 0 .893.727 1.62 1.621 1.62h1.191m-25.247 0c.893 0 1.62-.727 1.62-1.62 0-.894-.727-1.621-1.62-1.621h-1.192c-.893 0-1.62.727-1.62 1.621 0 .893.727 1.62 1.62 1.62h1.192m68.154-16.177h1.191c.894 0 1.621-.727 1.621-1.62 0-.894-.727-1.621-1.621-1.621h-1.191c-.894 0-1.621.727-1.621 1.621 0 .893.727 1.62 1.621 1.62m36.697 0c.893 0 1.62-.727 1.62-1.62 0-.894-.727-1.621-1.62-1.621h-1.192c-.893 0-1.62.727-1.62 1.621 0 .893.727 1.62 1.62 1.62h1.192m-23.162 16.177c.893 0 1.62-.727 1.62-1.62 0-.894-.727-1.621-1.62-1.621h-1.192c-.893 0-1.62.727-1.62 1.621 0 .893.727 1.62 1.62 1.62h1.192m-5.109-16.177h20.86c.893 0 1.62-.727 1.62-1.62 0-.894-.727-1.621-1.62-1.621h-20.86c-.893 0-1.62.727-1.62 1.621 0 .893.727 1.62 1.62 1.62m-45.29 0h31.288c.893 0 1.62-.727 1.62-1.62 0-.894-.727-1.621-1.62-1.621h-31.288c-.893 0-1.62.727-1.62 1.621 0 .893.727 1.62 1.62 1.62m-39.797 0h35.16c.894 0 1.621-.727 1.621-1.62 0-.894-.727-1.621-1.621-1.621h-35.16c-.893 0-1.62.727-1.62 1.621 0 .893.727 1.62 1.62 1.62M364.06 250.76l23.79 19.418h-47.583l23.793-19.418zm-26.717 37.962h53.431V273.42h-53.431v15.302zm44.847-27.441l-17.144-14.21a1.62 1.62 0 0 0-2.069 0l-17.048 14.201v-7.581c0-9.951 8.097-18.048 18.047-18.048 9.951 0 18.048 8.097 18.048 18.048 0 .253.057.493.166.714v6.876zm153.699 62.947l9.438-10.457 10.499 10.505v7.363h-19.937v-7.411zm10.521-13.948a1.599 1.599 0 0 0-1.169-.478h-.013a1.63 1.63 0 0 0-1.166.535l-6.11 6.771 7.391-23.944 8.344 24.389-7.277-7.273zm28.155 24.603l12.875 12.872h-45.991l-12.877-12.872h45.993zm-238.843-42.92h86.714v9.592H306.808v-9.592h28.914zm84.2 51.955l-.551-.211-10.381-10.384h37.431l10.595 10.595h-37.094zm-96.607-7.837l-13.351-13.346h72.066l13.371 13.368h-71.76c-.105 0-.171.093-.271.113-.031-.039-.02-.1-.055-.135zm132.986-21.477c-.132.078-.292.088-.397.2-.01.01-.029.006-.038.017l-13.529 14.989c-.069.077-.044.186-.096.272h-37.164c-.005 0-.008.005-.013.005-.005 0-.007-.005-.013-.005h-.012c-.136.003-.229.128-.358.164-.283.082-.571.144-.768.353-.011.011-.03.007-.04.018l-4.446 4.926-15.578-15.575a1.642 1.642 0 0 0-1.146-.477h-76.651c-.008 0-.012.008-.02.008-.004 0-.007-.005-.012-.005h-.006c-.108.002-.179.106-.283.13-.317.073-.627.158-.844.388-.009.01-.027.006-.036.017l-13.325 14.76-11.105-11.103a1.625 1.625 0 0 0-1.147-.474h-7.459v-18.415h184.486v9.807zm-186.5 11.849c.141.04.24.164.393.164.154 0 .253-.124.394-.164h8.014l11.674 11.673c.067.094.054.222.144.302.066.06.167.037.241.083l.815.814h-45.991l-12.877-12.872h37.193zm204.051 3.946l-12.872-12.872h45.995l12.871 12.872h-45.994zm-107.96-110.875h20.238v-10.972h-20.238v10.972zM141.624 361.639l-12.874-12.872h32.645v12.872h-19.771zm37.085-32.995a1.61 1.61 0 0 0-1.166-.474h-.019c-.446.01-.872.205-1.163.535l-9.671 10.715 10.949-35.469 12.289 35.913-11.219-11.22zm37.154 20.123l13.045 12.872h-33.609v-12.872h20.564zm-92.228-2.706l-14.547 16.116c-.269.297-.42.682-.42 1.082v18.595a1.623 1.623 0 0 0 3.245 0v-17.97l12.984-14.387 14.434 14.435v17.922c0 .894.727 1.621 1.621 1.621.893 0 1.62-.727 1.62-1.621v-16.971h18.823v16.971c0 .894.727 1.621 1.62 1.621.894 0 1.621-.727 1.621-1.621v-35.326l12.987-14.387 14.435 14.435v35.278c0 .894.727 1.621 1.62 1.621.894 0 1.621-.727 1.621-1.621v-16.971h34.054v11.187c0 .894.727 1.621 1.621 1.621.893 0 1.62-.727 1.62-1.621v-14.668c0-.433-.176-.856-.48-1.153l-14.447-14.256a1.616 1.616 0 0 0-1.141-.467h-.752v-3.956l12.984-14.386 14.434 14.434v8.997c0 .893.727 1.624 1.621 1.624.893 0 1.62-.731 1.62-1.624v-8.049h47.337v16.975c0 .893.727 1.62 1.62 1.62.894 0 1.621-.727 1.621-1.62v-18.595c0-.426-.173-.846-.474-1.147l-2.717-2.716 12.293-13.621 14.435 14.438v37.084c0 .894.727 1.621 1.62 1.621.894 0 1.621-.727 1.621-1.621v-35.64h73.409v28.312c0 .894.727 1.621 1.621 1.621.893 0 1.62-.727 1.62-1.621v-28.401l4.699-5.202 12.18 12.184c.16.157.346.278.557.362l.119.046v39.43c0 .894.727 1.621 1.62 1.621.894 0 1.621-.727 1.621-1.621v-38.916h37.625v17.865a1.622 1.622 0 0 0 3.245 0v-19.486c0-.088-.081-.142-.095-.227.013-.081.091-.138.091-.221 0-.432-.169-.839-.474-1.146l-13.387-13.388a1.636 1.636 0 0 0-1.147-.474h-.638l10.676-11.824 14.431 14.434v42.292c0 .894.727 1.621 1.621 1.621.893 0 1.62-.727 1.62-1.621v-41.34h47.332l-13.223 14.649a1.614 1.614 0 0 0-.419 1.082v8.058a1.622 1.622 0 0 0 3.244 0V350l12.984-14.387 14.432 14.435v27.716a1.623 1.623 0 0 0 3.244 0v-26.765h47.336v20.03c0 .893.727 1.621 1.621 1.621.893 0 1.62-.728 1.62-1.621v-21.654c0-.426-.173-.845-.474-1.146l-16.116-16.113a1.642 1.642 0 0 0-1.146-.477H559.07v-8.036c0-.1-.092-.168-.109-.264-.014-.111.058-.212.02-.322l-12.184-35.611c-.221-.641-.823-1.07-1.556-1.095a1.612 1.612 0 0 0-1.525 1.143l-10.995 35.608c-.029.095.038.187.027.284-.017.092-.1.161-.1.257v8.036h-7.426c-.073-.271-.113-.558-.315-.763l-16.116-16.116a1.624 1.624 0 0 0-1.147-.474h-48.102v-11.11c0-.893-.727-1.621-1.62-1.621h-32.245v-11.212c0-.894-.727-1.621-1.621-1.621h-30.041v-16.923c0-.065-.062-.104-.07-.168a1.516 1.516 0 0 0-.317-.764c-.062-.082-.082-.173-.158-.242-.024-.022-.026-.058-.051-.078l-7.988-6.521v-10.335c0-.26-.064-.513-.182-.74-.366-10.705-8.891-19.408-19.405-20.361v-9.825h21.906c.894 0 1.621-.727 1.621-1.62v-14.214c0-.893-.727-1.624-1.621-1.624h-21.906v-.362c0-.893-.727-1.62-1.621-1.62-.893 0-1.62.727-1.62 1.62v27.596c-11.092.724-19.918 9.882-19.918 21.15v10.336l-7.988 6.52c-.025.02-.027.056-.051.078-.075.069-.096.159-.157.241a1.525 1.525 0 0 0-.318.765c-.007.064-.07.103-.07.168v16.923h-28.914c-.893 0-1.62.727-1.62 1.621v11.212h-33.373c-.893 0-1.62.728-1.62 1.621v20.036h-39.877c-.006 0-.01.007-.016.007-.007 0-.01-.007-.016-.007h-.007c-.134.003-.225.127-.353.163-.285.08-.573.145-.771.355-.01.01-.029.006-.038.017l-14.55 16.116a1.623 1.623 0 0 0-.413 1.083v4.58h-17.338c-.014-.079.041-.15.014-.228l-16.113-47.102a1.66 1.66 0 0 0-1.56-1.102 1.628 1.628 0 0 0-1.524 1.147l-14.544 47.102c-.018.061.029.121.018.183h-36.65c-.006 0-.01.006-.016.006 0 0-.01-.006-.016-.006h-.007c-.135.002-.224.127-.353.162-.285.081-.573.145-.771.355-.01.01-.029.007-.038.018zm357.068 281.093l8.74 23.107-24.885-16.362-.631-.407-3.228 1.223 10.988 29.046.176.461 3.52-1.342-8.74-23.108 24.888 16.363.631.407 3.225-1.227-11.164-29.51-3.52 1.349"/></g></svg>