<svg width="44" height="44" viewBox="0 0 44 44" xmlns="http://www.w3.org/2000/svg" xmlns:xlink="http://www.w3.org/1999/xlink"><title>flikr</title><defs><circle id="a" cx="22" cy="22" r="22"/><mask id="b" x="0" y="0" width="44" height="44" fill="#fff"><use xlink:href="#a"/></mask></defs><g fill="none" fill-rule="evenodd"><path d="M0 0h44v44H0z"/><use stroke="#091F2F" mask="url(#b)" stroke-width="4" xlink:href="#a"/><path d="M33 22c0 2.76-2.168 5-4.844 5-2.682 0-4.848-2.24-4.848-5s2.166-5 4.848-5C30.832 17 33 19.24 33 22m-12.31 0c0 2.76-2.167 5-4.847 5C13.168 27 11 24.76 11 22s2.168-5 4.843-5c2.68 0 4.848 2.24 4.848 5" fill="#091F2F"/></g></svg>
