<svg width="44" height="45" xmlns="http://www.w3.org/2000/svg" xmlns:xlink="http://www.w3.org/1999/xlink"><defs><circle id="a" cx="22" cy="22.51" r="22"/><mask id="b" x="0" y="0" width="44" height="44" fill="#fff"><use xlink:href="#a"/></mask></defs><g fill="none" fill-rule="evenodd"><path d="M0 0h44v44H0z"/><use stroke="#091F2F" mask="url(#b)" stroke-width="4" xlink:href="#a"/><path d="M15.926 28.017l.016-4.05.757-.01.756-.01-.01-.623-.01-.624-2.184-.01-2.183-.008v1.266l.738.01.74.008.007 4.018c.004 2.21.015 4.037.024 4.06.01.032.164.04.67.033l.66-.01.016-4.05zm12.604-.285c-.03-.08.01-1.017.053-1.153.095-.32.3-.475.62-.475.266 0 .435.103.55.335.07.147.078.21.09.752l.01.592H29.2c-.56 0-.654-.007-.67-.052zm1.218 4.365c.64-.18 1.082-.618 1.248-1.237.028-.105.06-.406.072-.668l.02-.474h-1.232l-.015.425c-.018.484-.067.65-.243.804-.187.165-.53.177-.753.026-.266-.18-.332-.484-.318-1.472l.01-.7 1.274-.007 1.274-.01-.016-1.04c-.02-1.164-.045-1.34-.24-1.753-.37-.782-1.398-1.176-2.252-.864-.644.236-1.024.66-1.177 1.318-.055.232-.06.44-.06 2.14 0 2.086.006 2.17.218 2.598.38.76 1.328 1.156 2.19.915zM24.7 30.91a.444.444 0 0 0 .17-.243c.053-.15.057-.344.05-2.133-.007-1.864-.01-1.974-.07-2.096-.155-.312-.544-.342-.9-.07l-.117.09v4.252l.117.09c.263.2.552.243.75.11zm.773 1.2c.193-.057.428-.288.533-.523.202-.452.203-.463.203-3.003 0-2.085-.007-2.342-.06-2.567-.166-.722-.53-1.037-1.142-.99-.342.026-.612.162-.936.476-.14.136-.266.248-.28.248-.013 0-.025-.69-.025-1.533v-1.534H22.57v9.401h1.197v-.317c0-.21.012-.316.037-.316.02 0 .154.11.3.247.464.438.867.56 1.37.41zm-6.367-.03c.24-.09.52-.285.756-.527.11-.11.217-.2.24-.2.033 0 .044.09.044.365v.367h1.196v-6.967h-1.196v5.377l-.258.255c-.204.203-.29.265-.416.3-.214.06-.35.018-.438-.134-.066-.112-.068-.165-.078-2.957l-.008-2.843h-1.195v3.018c0 3.287.003 3.36.187 3.675.2.347.67.455 1.166.27zm.508 2.906c-.777-.014-1.696-.035-2.044-.048-2.33-.084-3.932-.174-4.25-.24a2.34 2.34 0 0 1-1.263-.765c-.473-.583-.726-1.29-.848-2.38-.285-2.536-.28-5.49.016-7.936.13-1.072.452-1.846.992-2.386.31-.308.605-.48 1-.58.856-.22 7.554-.396 11.63-.305 2.352.052 4.895.162 5.57.24.875.1 1.49.553 1.914 1.414.32.65.423 1.156.554 2.717.102 1.235.127 2.005.108 3.432-.02 1.706-.13 3.21-.292 4.053-.17.893-.574 1.653-1.097 2.065-.403.32-.832.46-1.51.5-.2.01-.454.027-.564.035-.388.03-2.475.115-3.62.147-1.7.048-4.677.065-6.296.036zm-2.1-15.485c-.028-.046-.023-2.79.006-3.177.037-.498-.047-.89-.403-1.892a46.301 46.301 0 0 1-.464-1.4c-1.007-3.213-.954-3.025-.857-3.026.663-.005 1.482 0 1.492.008.006.007.22.79.478 1.744l.478 1.764c.005.016.156-.54.336-1.234.376-1.458.587-2.262.595-2.27.016-.015.203-.018.815-.015l.676.005-.015.11c-.01.087-.473 1.643-.956 3.224-.052.173-.188.623-.3 1-.11.375-.245.82-.3.99l-.096.31v1.932c0 1.81-.004 1.932-.058 1.946-.122.034-1.404.018-1.425-.017zm8.743.117c-.334-.045-.53-.174-.663-.44-.167-.334-.167-.332-.167-3.654v-3.1h1.348l.014 2.857c.015 3.105.01 3.032.196 3.08.17.04.36-.05.593-.29l.225-.23.008-2.71.008-2.708.674-.01.673-.007v7.098l-.092.018c-.11.024-1.13.022-1.213-.002-.05-.013-.058-.06-.058-.337v-.32l-.19.186c-.44.43-.916.63-1.355.57zm-3.392-1.355c.23-.177.232-.192.244-2.187.01-1.55.004-1.814-.043-2.025-.063-.286-.174-.42-.39-.48-.28-.075-.537.085-.627.393-.068.236-.067 3.753 0 3.99.054.178.22.372.344.4a.64.64 0 0 0 .472-.09zm-.528 1.353c-.603-.073-1.157-.43-1.423-.914-.272-.494-.297-.753-.28-2.93.012-1.688.016-1.794.083-2.036.16-.576.467-.968.944-1.205a1.936 1.936 0 0 1 1.98.118c.394.255.633.625.76 1.175.057.243.063.43.063 2.133 0 2.072-.01 2.192-.222 2.64-.202.433-.662.814-1.143.948a2.51 2.51 0 0 1-.76.07z" fill="#091F2F"/></g></svg>