<svg width="44" height="44" viewBox="0 0 44 44" xmlns="http://www.w3.org/2000/svg" xmlns:xlink="http://www.w3.org/1999/xlink"><title>twitter</title><defs><circle id="a" cx="22" cy="22" r="22"/><mask id="b" x="0" y="0" width="44" height="44" fill="#fff"><use xlink:href="#a"/></mask></defs><g fill="none" fill-rule="evenodd"><path d="M0 0h44v44H0z"/><use stroke="#091F2F" mask="url(#b)" stroke-width="4" xlink:href="#a"/><path d="M30.526 16.846c.89-.562 1.573-1.452 1.893-2.513-.834.52-1.755.898-2.737 1.102C28.9 14.55 27.78 14 26.54 14c-2.38 0-4.308 2.035-4.308 4.544 0 .356.036.703.11 1.034-3.58-.19-6.754-1.996-8.88-4.747-.37.674-.583 1.454-.583 2.286 0 1.576.76 2.967 1.916 3.783-.707-.024-1.37-.23-1.953-.57v.057c0 2.202 1.484 4.04 3.458 4.455-.362.107-.74.16-1.136.16-.277 0-.548-.027-.81-.08.548 1.804 2.14 3.12 4.025 3.155-1.477 1.22-3.334 1.944-5.352 1.944-.348 0-.69-.018-1.028-.06 1.907 1.287 4.17 2.04 6.604 2.04 7.926 0 12.257-6.924 12.257-12.93 0-.196 0-.393-.01-.586.842-.64 1.574-1.442 2.15-2.353-.773.362-1.604.607-2.474.716z" fill="#091F2F"/></g></svg>
