<svg width="44" height="44" xmlns="http://www.w3.org/2000/svg" xmlns:xlink="http://www.w3.org/1999/xlink"><defs><circle id="a" cx="22" cy="22" r="22"/><mask id="b" x="0" y="0" width="44" height="44" fill="#fff"><use xlink:href="#a"/></mask></defs><g fill="none" fill-rule="evenodd"><path d="M0 0h44v44H0z"/><use stroke="#091F2F" mask="url(#b)" stroke-width="4" xlink:href="#a"/><path d="M28.135 12h-12.27A3.87 3.87 0 0 0 12 15.865v12.27A3.869 3.869 0 0 0 15.865 32h12.27A3.87 3.87 0 0 0 32 28.135v-12.27A3.869 3.869 0 0 0 28.135 12zm1.11 2.306l.44-.002v3.39l-3.38.01-.01-3.39 2.95-.008zm-10.1 5.64c.64-.886 1.68-1.467 2.855-1.467s2.214.58 2.854 1.467c.417.578.667 1.286.667 2.053 0 1.94-1.58 3.52-3.52 3.52s-3.52-1.58-3.52-3.52c0-.767.25-1.475.666-2.053zm10.907 8.19c0 1.056-.86 1.916-1.917 1.916h-12.27a1.92 1.92 0 0 1-1.917-1.917v-8.188h2.987A5.44 5.44 0 0 0 16.532 22 5.476 5.476 0 0 0 22 27.47 5.477 5.477 0 0 0 27.47 22a5.48 5.48 0 0 0-.404-2.053h2.986v8.188z" fill="#091F2F"/></g></svg>