<svg width="44" height="44" viewBox="0 0 44 44" xmlns="http://www.w3.org/2000/svg" xmlns:xlink="http://www.w3.org/1999/xlink"><title>instagram</title><defs><circle id="a" cx="22" cy="22" r="22"/><mask id="b" x="0" y="0" width="44" height="44" fill="#fff"><use xlink:href="#a"/></mask></defs><g fill="none" fill-rule="evenodd"><path d="M0 0h44v44H0z"/><use stroke="#091F2F" mask="url(#b)" stroke-width="4" xlink:href="#a"/><path d="M28.135 12h-12.27C13.735 12 12 13.733 12 15.865v12.27C12 30.267 13.734 32 15.865 32h12.27C30.265 32 32 30.267 32 28.135v-12.27C32 13.733 30.266 12 28.135 12zm1.11 2.306l.44-.002v3.39l-3.38.01-.01-3.39 2.95-.008zm-10.1 5.64c.64-.886 1.68-1.467 2.855-1.467s2.214.58 2.854 1.467c.417.578.667 1.286.667 2.053 0 1.94-1.58 3.52-3.52 3.52s-3.52-1.58-3.52-3.52c0-.767.25-1.475.666-2.053zm10.907 8.19c0 1.056-.86 1.916-1.917 1.916h-12.27c-1.057 0-1.917-.86-1.917-1.917v-8.188h2.987c-.258.635-.403 1.327-.403 2.053 0 3.015 2.453 5.47 5.468 5.47 3.016 0 5.47-2.455 5.47-5.47 0-.726-.148-1.418-.404-2.053h2.986v8.188z" fill="#091F2F"/></g></svg>
