<svg width="44" height="44" viewBox="0 0 44 44" xmlns="http://www.w3.org/2000/svg" xmlns:xlink="http://www.w3.org/1999/xlink"><title>linkedin</title><defs><circle id="a" cx="22" cy="22" r="22"/><mask id="b" x="0" y="0" width="44" height="44" fill="#fff"><use xlink:href="#a"/></mask></defs><g fill="none" fill-rule="evenodd"><path d="M0 0h44v44H0z"/><use stroke="#091F2F" mask="url(#b)" stroke-width="4" xlink:href="#a"/><path d="M12.504 18.413h3.9V32h-3.9V18.412zm1.85-1.7h-.028c-1.41 0-2.326-1.038-2.326-2.353 0-1.342.942-2.36 2.38-2.36 1.44 0 2.324 1.015 2.352 2.356 0 1.315-.913 2.358-2.378 2.358zM32 32h-4.42v-7.032c0-1.84-.692-3.095-2.212-3.095-1.163 0-1.81.847-2.11 1.665-.114.292-.096.7-.096 1.11V32h-4.38s.057-12.455 0-13.587h4.38v2.132c.26-.932 1.658-2.263 3.89-2.263 2.77 0 4.948 1.956 4.948 6.163V32z" fill="#091F2F"/></g></svg>
