<svg viewBox="0 0 44 44" xmlns="http://www.w3.org/2000/svg" xmlns:xlink="http://www.w3.org/1999/xlink"><defs><circle id="a" cx="22" cy="22" r="22"/><mask id="b" x="0" y="0" width="44" height="44" fill="#fff"><use xlink:href="#a"/></mask></defs><g fill="none" fill-rule="evenodd"><path d="M0 0h44v44H0z"/><use stroke="#091F2F" mask="url(#b)" stroke-width="4" xlink:href="#a"/><path d="M22.482 11v5.253h5.136v3.263h-5.136v5.33c0 1.207.067 1.98.2 2.32.13.345.378.618.742.822.477.276 1.025.413 1.642.413 1.096 0 2.185-.343 3.27-1.026v3.28c-.926.416-1.762.71-2.51.88a11.03 11.03 0 0 1-2.434.252c-.99 0-1.865-.12-2.625-.36s-1.41-.58-1.945-1.026c-.537-.443-.91-.918-1.117-1.417-.208-.5-.31-1.225-.31-2.176v-7.29H15v-2.942c.853-.266 1.58-.647 2.187-1.14a5.744 5.744 0 0 0 1.458-1.786c.367-.694.62-1.578.76-2.65h3.077" fill="#091F2F"/></g></svg>